G04 #@! TF.GenerationSoftware,KiCad,Pcbnew,5.0.0+dfsg1-2*
G04 #@! TF.CreationDate,2018-09-18T11:25:18+02:00*
G04 #@! TF.ProjectId,ulx3s,756C7833732E6B696361645F70636200,rev?*
G04 #@! TF.SameCoordinates,Original*
G04 #@! TF.FileFunction,Soldermask,Top*
G04 #@! TF.FilePolarity,Negative*
%FSLAX46Y46*%
G04 Gerber Fmt 4.6, Leading zero omitted, Abs format (unit mm)*
G04 Created by KiCad (PCBNEW 5.0.0+dfsg1-2) date Tue Sep 18 11:25:18 2018*
%MOMM*%
%LPD*%
G01*
G04 APERTURE LIST*
%ADD10O,0.660000X1.300000*%
%ADD11R,0.660000X1.300000*%
%ADD12C,0.500000*%
%ADD13O,0.227000X0.608000*%
%ADD14O,0.608000X0.227000*%
%ADD15R,1.725000X1.725000*%
%ADD16O,0.400000X1.050000*%
%ADD17O,1.050000X0.400000*%
%ADD18R,1.050000X0.400000*%
%ADD19C,0.100000*%
%ADD20C,0.975000*%
%ADD21C,1.075000*%
%ADD22R,1.220000X2.540000*%
%ADD23R,1.900000X2.000000*%
%ADD24R,0.500000X1.450000*%
%ADD25R,2.000000X2.000000*%
%ADD26R,2.200000X1.700000*%
%ADD27R,2.900000X2.100000*%
%ADD28R,2.900000X2.300000*%
%ADD29R,2.900000X2.900000*%
%ADD30C,1.800000*%
%ADD31R,0.400000X2.000000*%
%ADD32C,2.100000*%
%ADD33R,0.800000X1.600000*%
%ADD34R,1.550000X1.000000*%
%ADD35R,1.550000X2.100000*%
%ADD36R,2.300000X1.900000*%
%ADD37R,1.827200X2.132000*%
%ADD38O,1.827200X2.132000*%
%ADD39O,1.827200X1.827200*%
%ADD40R,1.827200X1.827200*%
%ADD41C,5.600000*%
%ADD42R,1.800000X1.800000*%
%ADD43O,1.800000X1.800000*%
%ADD44R,1.395000X1.500000*%
%ADD45R,1.650000X1.400000*%
G04 APERTURE END LIST*
D10*
G04 #@! TO.C,U2*
X175493000Y-82070000D03*
D11*
X154693000Y-93530000D03*
D10*
X155493000Y-93530000D03*
X156293000Y-93530000D03*
X157093000Y-93530000D03*
X157893000Y-93530000D03*
X158693000Y-93530000D03*
X159493000Y-93530000D03*
X160293000Y-93530000D03*
X161093000Y-93530000D03*
X161893000Y-93530000D03*
X162693000Y-93530000D03*
X163493000Y-93530000D03*
X164293000Y-93530000D03*
X165093000Y-93530000D03*
X165893000Y-93530000D03*
X166693000Y-93530000D03*
X167493000Y-93530000D03*
X168293000Y-93530000D03*
X169093000Y-93530000D03*
X169893000Y-93530000D03*
X170693000Y-93530000D03*
X171493000Y-93530000D03*
X172293000Y-93530000D03*
X173093000Y-93530000D03*
X173893000Y-93530000D03*
X174693000Y-93530000D03*
X175493000Y-93530000D03*
X174693000Y-82070000D03*
X173893000Y-82070000D03*
X173093000Y-82070000D03*
X172293000Y-82070000D03*
X171493000Y-82070000D03*
X170693000Y-82070000D03*
X169893000Y-82070000D03*
X169093000Y-82070000D03*
X168293000Y-82070000D03*
X167493000Y-82070000D03*
X166693000Y-82070000D03*
X165893000Y-82070000D03*
X165093000Y-82070000D03*
X164293000Y-82070000D03*
X163493000Y-82070000D03*
X162693000Y-82070000D03*
X161893000Y-82070000D03*
X161093000Y-82070000D03*
X160293000Y-82070000D03*
X159493000Y-82070000D03*
X158693000Y-82070000D03*
X157893000Y-82070000D03*
X157093000Y-82070000D03*
X156293000Y-82070000D03*
X155493000Y-82070000D03*
X154693000Y-82070000D03*
G04 #@! TD*
D12*
G04 #@! TO.C,U1*
X145280000Y-95400000D03*
X143680000Y-95400000D03*
X142880000Y-95400000D03*
X142080000Y-95400000D03*
X141280000Y-95400000D03*
X139680000Y-95400000D03*
X138880000Y-95400000D03*
X136480000Y-95400000D03*
X135680000Y-95400000D03*
X134880000Y-95400000D03*
X134080000Y-95400000D03*
X132480000Y-95400000D03*
X131680000Y-95400000D03*
X146080000Y-94600000D03*
X145280000Y-94600000D03*
X144480000Y-94600000D03*
X143680000Y-94600000D03*
X142880000Y-94600000D03*
X142080000Y-94600000D03*
X141280000Y-94600000D03*
X140480000Y-94600000D03*
X139680000Y-94600000D03*
X138880000Y-94600000D03*
X138080000Y-94600000D03*
X137280000Y-94600000D03*
X136480000Y-94600000D03*
X135680000Y-94600000D03*
X134880000Y-94600000D03*
X134080000Y-94600000D03*
X133280000Y-94600000D03*
X132480000Y-94600000D03*
X131680000Y-94600000D03*
X130880000Y-94600000D03*
X146080000Y-93800000D03*
X145280000Y-93800000D03*
X144480000Y-93800000D03*
X143680000Y-93800000D03*
X142880000Y-93800000D03*
X142080000Y-93800000D03*
X141280000Y-93800000D03*
X140480000Y-93800000D03*
X139680000Y-93800000D03*
X138880000Y-93800000D03*
X138080000Y-93800000D03*
X137280000Y-93800000D03*
X136480000Y-93800000D03*
X135680000Y-93800000D03*
X134880000Y-93800000D03*
X134080000Y-93800000D03*
X133280000Y-93800000D03*
X132480000Y-93800000D03*
X131680000Y-93800000D03*
X130880000Y-93800000D03*
X146080000Y-93000000D03*
X145280000Y-93000000D03*
X144480000Y-93000000D03*
X143680000Y-93000000D03*
X142880000Y-93000000D03*
X142080000Y-93000000D03*
X141280000Y-93000000D03*
X140480000Y-93000000D03*
X139680000Y-93000000D03*
X138880000Y-93000000D03*
X138080000Y-93000000D03*
X137280000Y-93000000D03*
X136480000Y-93000000D03*
X135680000Y-93000000D03*
X134880000Y-93000000D03*
X134080000Y-93000000D03*
X133280000Y-93000000D03*
X132480000Y-93000000D03*
X131680000Y-93000000D03*
X130880000Y-93000000D03*
X146080000Y-92200000D03*
X145280000Y-92200000D03*
X144480000Y-92200000D03*
X143680000Y-92200000D03*
X142880000Y-92200000D03*
X142080000Y-92200000D03*
X141280000Y-92200000D03*
X140480000Y-92200000D03*
X139680000Y-92200000D03*
X138880000Y-92200000D03*
X138080000Y-92200000D03*
X137280000Y-92200000D03*
X136480000Y-92200000D03*
X135680000Y-92200000D03*
X134880000Y-92200000D03*
X134080000Y-92200000D03*
X133280000Y-92200000D03*
X132480000Y-92200000D03*
X131680000Y-92200000D03*
X130880000Y-92200000D03*
X146080000Y-91400000D03*
X145280000Y-91400000D03*
X144480000Y-91400000D03*
X143680000Y-91400000D03*
X142880000Y-91400000D03*
X134080000Y-91400000D03*
X133280000Y-91400000D03*
X132480000Y-91400000D03*
X131680000Y-91400000D03*
X130880000Y-91400000D03*
X146080000Y-90600000D03*
X145280000Y-90600000D03*
X144480000Y-90600000D03*
X143680000Y-90600000D03*
X142880000Y-90600000D03*
X142080000Y-90600000D03*
X141280000Y-90600000D03*
X140480000Y-90600000D03*
X139680000Y-90600000D03*
X138880000Y-90600000D03*
X138080000Y-90600000D03*
X137280000Y-90600000D03*
X136480000Y-90600000D03*
X135680000Y-90600000D03*
X134880000Y-90600000D03*
X134080000Y-90600000D03*
X133280000Y-90600000D03*
X132480000Y-90600000D03*
X131680000Y-90600000D03*
X130880000Y-90600000D03*
X146080000Y-89800000D03*
X145280000Y-89800000D03*
X144480000Y-89800000D03*
X143680000Y-89800000D03*
X142880000Y-89800000D03*
X142080000Y-89800000D03*
X141280000Y-89800000D03*
X140480000Y-89800000D03*
X139680000Y-89800000D03*
X138880000Y-89800000D03*
X138080000Y-89800000D03*
X137280000Y-89800000D03*
X136480000Y-89800000D03*
X135680000Y-89800000D03*
X134880000Y-89800000D03*
X134080000Y-89800000D03*
X133280000Y-89800000D03*
X132480000Y-89800000D03*
X131680000Y-89800000D03*
X130880000Y-89800000D03*
X146080000Y-89000000D03*
X145280000Y-89000000D03*
X144480000Y-89000000D03*
X143680000Y-89000000D03*
X142880000Y-89000000D03*
X142080000Y-89000000D03*
X141280000Y-89000000D03*
X140480000Y-89000000D03*
X139680000Y-89000000D03*
X138880000Y-89000000D03*
X138080000Y-89000000D03*
X137280000Y-89000000D03*
X136480000Y-89000000D03*
X135680000Y-89000000D03*
X134880000Y-89000000D03*
X134080000Y-89000000D03*
X133280000Y-89000000D03*
X132480000Y-89000000D03*
X131680000Y-89000000D03*
X130880000Y-89000000D03*
X146080000Y-88200000D03*
X145280000Y-88200000D03*
X144480000Y-88200000D03*
X143680000Y-88200000D03*
X142880000Y-88200000D03*
X142080000Y-88200000D03*
X141280000Y-88200000D03*
X140480000Y-88200000D03*
X139680000Y-88200000D03*
X138880000Y-88200000D03*
X138080000Y-88200000D03*
X137280000Y-88200000D03*
X136480000Y-88200000D03*
X135680000Y-88200000D03*
X134880000Y-88200000D03*
X134080000Y-88200000D03*
X133280000Y-88200000D03*
X132480000Y-88200000D03*
X131680000Y-88200000D03*
X130880000Y-88200000D03*
X146080000Y-87400000D03*
X145280000Y-87400000D03*
X144480000Y-87400000D03*
X143680000Y-87400000D03*
X142880000Y-87400000D03*
X142080000Y-87400000D03*
X141280000Y-87400000D03*
X140480000Y-87400000D03*
X139680000Y-87400000D03*
X138880000Y-87400000D03*
X138080000Y-87400000D03*
X137280000Y-87400000D03*
X136480000Y-87400000D03*
X135680000Y-87400000D03*
X134880000Y-87400000D03*
X134080000Y-87400000D03*
X133280000Y-87400000D03*
X132480000Y-87400000D03*
X131680000Y-87400000D03*
X130880000Y-87400000D03*
X146080000Y-86600000D03*
X145280000Y-86600000D03*
X144480000Y-86600000D03*
X143680000Y-86600000D03*
X142880000Y-86600000D03*
X142080000Y-86600000D03*
X141280000Y-86600000D03*
X140480000Y-86600000D03*
X139680000Y-86600000D03*
X138880000Y-86600000D03*
X138080000Y-86600000D03*
X137280000Y-86600000D03*
X136480000Y-86600000D03*
X135680000Y-86600000D03*
X134880000Y-86600000D03*
X134080000Y-86600000D03*
X133280000Y-86600000D03*
X132480000Y-86600000D03*
X131680000Y-86600000D03*
X130880000Y-86600000D03*
X146080000Y-85800000D03*
X145280000Y-85800000D03*
X144480000Y-85800000D03*
X143680000Y-85800000D03*
X142880000Y-85800000D03*
X142080000Y-85800000D03*
X141280000Y-85800000D03*
X140480000Y-85800000D03*
X139680000Y-85800000D03*
X138880000Y-85800000D03*
X138080000Y-85800000D03*
X137280000Y-85800000D03*
X136480000Y-85800000D03*
X135680000Y-85800000D03*
X134880000Y-85800000D03*
X134080000Y-85800000D03*
X133280000Y-85800000D03*
X132480000Y-85800000D03*
X131680000Y-85800000D03*
X130880000Y-85800000D03*
X146080000Y-85000000D03*
X145280000Y-85000000D03*
X144480000Y-85000000D03*
X143680000Y-85000000D03*
X142880000Y-85000000D03*
X142080000Y-85000000D03*
X141280000Y-85000000D03*
X140480000Y-85000000D03*
X139680000Y-85000000D03*
X138880000Y-85000000D03*
X138080000Y-85000000D03*
X137280000Y-85000000D03*
X136480000Y-85000000D03*
X135680000Y-85000000D03*
X134880000Y-85000000D03*
X134080000Y-85000000D03*
X133280000Y-85000000D03*
X132480000Y-85000000D03*
X131680000Y-85000000D03*
X130880000Y-85000000D03*
X146080000Y-84200000D03*
X145280000Y-84200000D03*
X144480000Y-84200000D03*
X143680000Y-84200000D03*
X142880000Y-84200000D03*
X142080000Y-84200000D03*
X141280000Y-84200000D03*
X140480000Y-84200000D03*
X139680000Y-84200000D03*
X138880000Y-84200000D03*
X138080000Y-84200000D03*
X137280000Y-84200000D03*
X136480000Y-84200000D03*
X135680000Y-84200000D03*
X134880000Y-84200000D03*
X134080000Y-84200000D03*
X133280000Y-84200000D03*
X132480000Y-84200000D03*
X131680000Y-84200000D03*
X130880000Y-84200000D03*
X146080000Y-83400000D03*
X145280000Y-83400000D03*
X144480000Y-83400000D03*
X143680000Y-83400000D03*
X142880000Y-83400000D03*
X142080000Y-83400000D03*
X141280000Y-83400000D03*
X140480000Y-83400000D03*
X139680000Y-83400000D03*
X138880000Y-83400000D03*
X138080000Y-83400000D03*
X137280000Y-83400000D03*
X136480000Y-83400000D03*
X135680000Y-83400000D03*
X134880000Y-83400000D03*
X134080000Y-83400000D03*
X133280000Y-83400000D03*
X132480000Y-83400000D03*
X131680000Y-83400000D03*
X130880000Y-83400000D03*
X146080000Y-82600000D03*
X145280000Y-82600000D03*
X144480000Y-82600000D03*
X143680000Y-82600000D03*
X142880000Y-82600000D03*
X142080000Y-82600000D03*
X141280000Y-82600000D03*
X140480000Y-82600000D03*
X139680000Y-82600000D03*
X138880000Y-82600000D03*
X138080000Y-82600000D03*
X137280000Y-82600000D03*
X136480000Y-82600000D03*
X135680000Y-82600000D03*
X134880000Y-82600000D03*
X134080000Y-82600000D03*
X133280000Y-82600000D03*
X132480000Y-82600000D03*
X131680000Y-82600000D03*
X130880000Y-82600000D03*
X146080000Y-81800000D03*
X145280000Y-81800000D03*
X144480000Y-81800000D03*
X143680000Y-81800000D03*
X142880000Y-81800000D03*
X142080000Y-81800000D03*
X141280000Y-81800000D03*
X140480000Y-81800000D03*
X139680000Y-81800000D03*
X138880000Y-81800000D03*
X138080000Y-81800000D03*
X137280000Y-81800000D03*
X136480000Y-81800000D03*
X135680000Y-81800000D03*
X134880000Y-81800000D03*
X134080000Y-81800000D03*
X133280000Y-81800000D03*
X132480000Y-81800000D03*
X131680000Y-81800000D03*
X130880000Y-81800000D03*
X146080000Y-81000000D03*
X145280000Y-81000000D03*
X144480000Y-81000000D03*
X143680000Y-81000000D03*
X142880000Y-81000000D03*
X142080000Y-81000000D03*
X141280000Y-81000000D03*
X140480000Y-81000000D03*
X139680000Y-81000000D03*
X138880000Y-81000000D03*
X138080000Y-81000000D03*
X137280000Y-81000000D03*
X136480000Y-81000000D03*
X135680000Y-81000000D03*
X134880000Y-81000000D03*
X134080000Y-81000000D03*
X133280000Y-81000000D03*
X132480000Y-81000000D03*
X131680000Y-81000000D03*
X130880000Y-81000000D03*
X145280000Y-80200000D03*
X144480000Y-80200000D03*
X143680000Y-80200000D03*
X142880000Y-80200000D03*
X142080000Y-80200000D03*
X141280000Y-80200000D03*
X140480000Y-80200000D03*
X139680000Y-80200000D03*
X138880000Y-80200000D03*
X138080000Y-80200000D03*
X137280000Y-80200000D03*
X136480000Y-80200000D03*
X135680000Y-80200000D03*
X134880000Y-80200000D03*
X134080000Y-80200000D03*
X133280000Y-80200000D03*
X132480000Y-80200000D03*
X131680000Y-80200000D03*
D13*
X146980000Y-79300000D03*
D14*
X146980000Y-79300000D03*
D13*
X129980000Y-96300000D03*
D14*
X129980000Y-96300000D03*
X146980000Y-96300000D03*
D13*
X146980000Y-96300000D03*
G04 #@! TD*
D15*
G04 #@! TO.C,U8*
X178097500Y-100967500D03*
X178097500Y-99342500D03*
X176472500Y-100967500D03*
X176472500Y-99342500D03*
D16*
X178785000Y-102495000D03*
X178285000Y-102495000D03*
X177785000Y-102495000D03*
X177285000Y-102495000D03*
X176785000Y-102495000D03*
X176285000Y-102495000D03*
X175785000Y-102495000D03*
D17*
X174945000Y-101655000D03*
X174945000Y-101155000D03*
X174945000Y-100655000D03*
X174945000Y-100155000D03*
X174945000Y-99655000D03*
X174945000Y-99155000D03*
X174945000Y-98655000D03*
D16*
X175785000Y-97815000D03*
X176285000Y-97815000D03*
X176785000Y-97815000D03*
X177285000Y-97815000D03*
X177785000Y-97815000D03*
X178285000Y-97815000D03*
X178785000Y-97815000D03*
D17*
X179625000Y-98655000D03*
X179625000Y-99155000D03*
X179625000Y-99655000D03*
X179625000Y-100155000D03*
X179625000Y-100655000D03*
X179625000Y-101155000D03*
D18*
X179625000Y-101655000D03*
G04 #@! TD*
D19*
G04 #@! TO.C,C37*
G36*
X152063142Y-74497174D02*
X152086803Y-74500684D01*
X152110007Y-74506496D01*
X152132529Y-74514554D01*
X152154153Y-74524782D01*
X152174670Y-74537079D01*
X152193883Y-74551329D01*
X152211607Y-74567393D01*
X152227671Y-74585117D01*
X152241921Y-74604330D01*
X152254218Y-74624847D01*
X152264446Y-74646471D01*
X152272504Y-74668993D01*
X152278316Y-74692197D01*
X152281826Y-74715858D01*
X152283000Y-74739750D01*
X152283000Y-75227250D01*
X152281826Y-75251142D01*
X152278316Y-75274803D01*
X152272504Y-75298007D01*
X152264446Y-75320529D01*
X152254218Y-75342153D01*
X152241921Y-75362670D01*
X152227671Y-75381883D01*
X152211607Y-75399607D01*
X152193883Y-75415671D01*
X152174670Y-75429921D01*
X152154153Y-75442218D01*
X152132529Y-75452446D01*
X152110007Y-75460504D01*
X152086803Y-75466316D01*
X152063142Y-75469826D01*
X152039250Y-75471000D01*
X151476750Y-75471000D01*
X151452858Y-75469826D01*
X151429197Y-75466316D01*
X151405993Y-75460504D01*
X151383471Y-75452446D01*
X151361847Y-75442218D01*
X151341330Y-75429921D01*
X151322117Y-75415671D01*
X151304393Y-75399607D01*
X151288329Y-75381883D01*
X151274079Y-75362670D01*
X151261782Y-75342153D01*
X151251554Y-75320529D01*
X151243496Y-75298007D01*
X151237684Y-75274803D01*
X151234174Y-75251142D01*
X151233000Y-75227250D01*
X151233000Y-74739750D01*
X151234174Y-74715858D01*
X151237684Y-74692197D01*
X151243496Y-74668993D01*
X151251554Y-74646471D01*
X151261782Y-74624847D01*
X151274079Y-74604330D01*
X151288329Y-74585117D01*
X151304393Y-74567393D01*
X151322117Y-74551329D01*
X151341330Y-74537079D01*
X151361847Y-74524782D01*
X151383471Y-74514554D01*
X151405993Y-74506496D01*
X151429197Y-74500684D01*
X151452858Y-74497174D01*
X151476750Y-74496000D01*
X152039250Y-74496000D01*
X152063142Y-74497174D01*
X152063142Y-74497174D01*
G37*
D20*
X151758000Y-74983500D03*
D19*
G36*
X152063142Y-76072174D02*
X152086803Y-76075684D01*
X152110007Y-76081496D01*
X152132529Y-76089554D01*
X152154153Y-76099782D01*
X152174670Y-76112079D01*
X152193883Y-76126329D01*
X152211607Y-76142393D01*
X152227671Y-76160117D01*
X152241921Y-76179330D01*
X152254218Y-76199847D01*
X152264446Y-76221471D01*
X152272504Y-76243993D01*
X152278316Y-76267197D01*
X152281826Y-76290858D01*
X152283000Y-76314750D01*
X152283000Y-76802250D01*
X152281826Y-76826142D01*
X152278316Y-76849803D01*
X152272504Y-76873007D01*
X152264446Y-76895529D01*
X152254218Y-76917153D01*
X152241921Y-76937670D01*
X152227671Y-76956883D01*
X152211607Y-76974607D01*
X152193883Y-76990671D01*
X152174670Y-77004921D01*
X152154153Y-77017218D01*
X152132529Y-77027446D01*
X152110007Y-77035504D01*
X152086803Y-77041316D01*
X152063142Y-77044826D01*
X152039250Y-77046000D01*
X151476750Y-77046000D01*
X151452858Y-77044826D01*
X151429197Y-77041316D01*
X151405993Y-77035504D01*
X151383471Y-77027446D01*
X151361847Y-77017218D01*
X151341330Y-77004921D01*
X151322117Y-76990671D01*
X151304393Y-76974607D01*
X151288329Y-76956883D01*
X151274079Y-76937670D01*
X151261782Y-76917153D01*
X151251554Y-76895529D01*
X151243496Y-76873007D01*
X151237684Y-76849803D01*
X151234174Y-76826142D01*
X151233000Y-76802250D01*
X151233000Y-76314750D01*
X151234174Y-76290858D01*
X151237684Y-76267197D01*
X151243496Y-76243993D01*
X151251554Y-76221471D01*
X151261782Y-76199847D01*
X151274079Y-76179330D01*
X151288329Y-76160117D01*
X151304393Y-76142393D01*
X151322117Y-76126329D01*
X151341330Y-76112079D01*
X151361847Y-76099782D01*
X151383471Y-76089554D01*
X151405993Y-76081496D01*
X151429197Y-76075684D01*
X151452858Y-76072174D01*
X151476750Y-76071000D01*
X152039250Y-76071000D01*
X152063142Y-76072174D01*
X152063142Y-76072174D01*
G37*
D20*
X151758000Y-76558500D03*
G04 #@! TD*
D19*
G04 #@! TO.C,C36*
G36*
X150666142Y-74497174D02*
X150689803Y-74500684D01*
X150713007Y-74506496D01*
X150735529Y-74514554D01*
X150757153Y-74524782D01*
X150777670Y-74537079D01*
X150796883Y-74551329D01*
X150814607Y-74567393D01*
X150830671Y-74585117D01*
X150844921Y-74604330D01*
X150857218Y-74624847D01*
X150867446Y-74646471D01*
X150875504Y-74668993D01*
X150881316Y-74692197D01*
X150884826Y-74715858D01*
X150886000Y-74739750D01*
X150886000Y-75227250D01*
X150884826Y-75251142D01*
X150881316Y-75274803D01*
X150875504Y-75298007D01*
X150867446Y-75320529D01*
X150857218Y-75342153D01*
X150844921Y-75362670D01*
X150830671Y-75381883D01*
X150814607Y-75399607D01*
X150796883Y-75415671D01*
X150777670Y-75429921D01*
X150757153Y-75442218D01*
X150735529Y-75452446D01*
X150713007Y-75460504D01*
X150689803Y-75466316D01*
X150666142Y-75469826D01*
X150642250Y-75471000D01*
X150079750Y-75471000D01*
X150055858Y-75469826D01*
X150032197Y-75466316D01*
X150008993Y-75460504D01*
X149986471Y-75452446D01*
X149964847Y-75442218D01*
X149944330Y-75429921D01*
X149925117Y-75415671D01*
X149907393Y-75399607D01*
X149891329Y-75381883D01*
X149877079Y-75362670D01*
X149864782Y-75342153D01*
X149854554Y-75320529D01*
X149846496Y-75298007D01*
X149840684Y-75274803D01*
X149837174Y-75251142D01*
X149836000Y-75227250D01*
X149836000Y-74739750D01*
X149837174Y-74715858D01*
X149840684Y-74692197D01*
X149846496Y-74668993D01*
X149854554Y-74646471D01*
X149864782Y-74624847D01*
X149877079Y-74604330D01*
X149891329Y-74585117D01*
X149907393Y-74567393D01*
X149925117Y-74551329D01*
X149944330Y-74537079D01*
X149964847Y-74524782D01*
X149986471Y-74514554D01*
X150008993Y-74506496D01*
X150032197Y-74500684D01*
X150055858Y-74497174D01*
X150079750Y-74496000D01*
X150642250Y-74496000D01*
X150666142Y-74497174D01*
X150666142Y-74497174D01*
G37*
D20*
X150361000Y-74983500D03*
D19*
G36*
X150666142Y-76072174D02*
X150689803Y-76075684D01*
X150713007Y-76081496D01*
X150735529Y-76089554D01*
X150757153Y-76099782D01*
X150777670Y-76112079D01*
X150796883Y-76126329D01*
X150814607Y-76142393D01*
X150830671Y-76160117D01*
X150844921Y-76179330D01*
X150857218Y-76199847D01*
X150867446Y-76221471D01*
X150875504Y-76243993D01*
X150881316Y-76267197D01*
X150884826Y-76290858D01*
X150886000Y-76314750D01*
X150886000Y-76802250D01*
X150884826Y-76826142D01*
X150881316Y-76849803D01*
X150875504Y-76873007D01*
X150867446Y-76895529D01*
X150857218Y-76917153D01*
X150844921Y-76937670D01*
X150830671Y-76956883D01*
X150814607Y-76974607D01*
X150796883Y-76990671D01*
X150777670Y-77004921D01*
X150757153Y-77017218D01*
X150735529Y-77027446D01*
X150713007Y-77035504D01*
X150689803Y-77041316D01*
X150666142Y-77044826D01*
X150642250Y-77046000D01*
X150079750Y-77046000D01*
X150055858Y-77044826D01*
X150032197Y-77041316D01*
X150008993Y-77035504D01*
X149986471Y-77027446D01*
X149964847Y-77017218D01*
X149944330Y-77004921D01*
X149925117Y-76990671D01*
X149907393Y-76974607D01*
X149891329Y-76956883D01*
X149877079Y-76937670D01*
X149864782Y-76917153D01*
X149854554Y-76895529D01*
X149846496Y-76873007D01*
X149840684Y-76849803D01*
X149837174Y-76826142D01*
X149836000Y-76802250D01*
X149836000Y-76314750D01*
X149837174Y-76290858D01*
X149840684Y-76267197D01*
X149846496Y-76243993D01*
X149854554Y-76221471D01*
X149864782Y-76199847D01*
X149877079Y-76179330D01*
X149891329Y-76160117D01*
X149907393Y-76142393D01*
X149925117Y-76126329D01*
X149944330Y-76112079D01*
X149964847Y-76099782D01*
X149986471Y-76089554D01*
X150008993Y-76081496D01*
X150032197Y-76075684D01*
X150055858Y-76072174D01*
X150079750Y-76071000D01*
X150642250Y-76071000D01*
X150666142Y-76072174D01*
X150666142Y-76072174D01*
G37*
D20*
X150361000Y-76558500D03*
G04 #@! TD*
D19*
G04 #@! TO.C,C41*
G36*
X149269142Y-74497174D02*
X149292803Y-74500684D01*
X149316007Y-74506496D01*
X149338529Y-74514554D01*
X149360153Y-74524782D01*
X149380670Y-74537079D01*
X149399883Y-74551329D01*
X149417607Y-74567393D01*
X149433671Y-74585117D01*
X149447921Y-74604330D01*
X149460218Y-74624847D01*
X149470446Y-74646471D01*
X149478504Y-74668993D01*
X149484316Y-74692197D01*
X149487826Y-74715858D01*
X149489000Y-74739750D01*
X149489000Y-75227250D01*
X149487826Y-75251142D01*
X149484316Y-75274803D01*
X149478504Y-75298007D01*
X149470446Y-75320529D01*
X149460218Y-75342153D01*
X149447921Y-75362670D01*
X149433671Y-75381883D01*
X149417607Y-75399607D01*
X149399883Y-75415671D01*
X149380670Y-75429921D01*
X149360153Y-75442218D01*
X149338529Y-75452446D01*
X149316007Y-75460504D01*
X149292803Y-75466316D01*
X149269142Y-75469826D01*
X149245250Y-75471000D01*
X148682750Y-75471000D01*
X148658858Y-75469826D01*
X148635197Y-75466316D01*
X148611993Y-75460504D01*
X148589471Y-75452446D01*
X148567847Y-75442218D01*
X148547330Y-75429921D01*
X148528117Y-75415671D01*
X148510393Y-75399607D01*
X148494329Y-75381883D01*
X148480079Y-75362670D01*
X148467782Y-75342153D01*
X148457554Y-75320529D01*
X148449496Y-75298007D01*
X148443684Y-75274803D01*
X148440174Y-75251142D01*
X148439000Y-75227250D01*
X148439000Y-74739750D01*
X148440174Y-74715858D01*
X148443684Y-74692197D01*
X148449496Y-74668993D01*
X148457554Y-74646471D01*
X148467782Y-74624847D01*
X148480079Y-74604330D01*
X148494329Y-74585117D01*
X148510393Y-74567393D01*
X148528117Y-74551329D01*
X148547330Y-74537079D01*
X148567847Y-74524782D01*
X148589471Y-74514554D01*
X148611993Y-74506496D01*
X148635197Y-74500684D01*
X148658858Y-74497174D01*
X148682750Y-74496000D01*
X149245250Y-74496000D01*
X149269142Y-74497174D01*
X149269142Y-74497174D01*
G37*
D20*
X148964000Y-74983500D03*
D19*
G36*
X149269142Y-76072174D02*
X149292803Y-76075684D01*
X149316007Y-76081496D01*
X149338529Y-76089554D01*
X149360153Y-76099782D01*
X149380670Y-76112079D01*
X149399883Y-76126329D01*
X149417607Y-76142393D01*
X149433671Y-76160117D01*
X149447921Y-76179330D01*
X149460218Y-76199847D01*
X149470446Y-76221471D01*
X149478504Y-76243993D01*
X149484316Y-76267197D01*
X149487826Y-76290858D01*
X149489000Y-76314750D01*
X149489000Y-76802250D01*
X149487826Y-76826142D01*
X149484316Y-76849803D01*
X149478504Y-76873007D01*
X149470446Y-76895529D01*
X149460218Y-76917153D01*
X149447921Y-76937670D01*
X149433671Y-76956883D01*
X149417607Y-76974607D01*
X149399883Y-76990671D01*
X149380670Y-77004921D01*
X149360153Y-77017218D01*
X149338529Y-77027446D01*
X149316007Y-77035504D01*
X149292803Y-77041316D01*
X149269142Y-77044826D01*
X149245250Y-77046000D01*
X148682750Y-77046000D01*
X148658858Y-77044826D01*
X148635197Y-77041316D01*
X148611993Y-77035504D01*
X148589471Y-77027446D01*
X148567847Y-77017218D01*
X148547330Y-77004921D01*
X148528117Y-76990671D01*
X148510393Y-76974607D01*
X148494329Y-76956883D01*
X148480079Y-76937670D01*
X148467782Y-76917153D01*
X148457554Y-76895529D01*
X148449496Y-76873007D01*
X148443684Y-76849803D01*
X148440174Y-76826142D01*
X148439000Y-76802250D01*
X148439000Y-76314750D01*
X148440174Y-76290858D01*
X148443684Y-76267197D01*
X148449496Y-76243993D01*
X148457554Y-76221471D01*
X148467782Y-76199847D01*
X148480079Y-76179330D01*
X148494329Y-76160117D01*
X148510393Y-76142393D01*
X148528117Y-76126329D01*
X148547330Y-76112079D01*
X148567847Y-76099782D01*
X148589471Y-76089554D01*
X148611993Y-76081496D01*
X148635197Y-76075684D01*
X148658858Y-76072174D01*
X148682750Y-76071000D01*
X149245250Y-76071000D01*
X149269142Y-76072174D01*
X149269142Y-76072174D01*
G37*
D20*
X148964000Y-76558500D03*
G04 #@! TD*
D19*
G04 #@! TO.C,C45*
G36*
X147872142Y-74485174D02*
X147895803Y-74488684D01*
X147919007Y-74494496D01*
X147941529Y-74502554D01*
X147963153Y-74512782D01*
X147983670Y-74525079D01*
X148002883Y-74539329D01*
X148020607Y-74555393D01*
X148036671Y-74573117D01*
X148050921Y-74592330D01*
X148063218Y-74612847D01*
X148073446Y-74634471D01*
X148081504Y-74656993D01*
X148087316Y-74680197D01*
X148090826Y-74703858D01*
X148092000Y-74727750D01*
X148092000Y-75215250D01*
X148090826Y-75239142D01*
X148087316Y-75262803D01*
X148081504Y-75286007D01*
X148073446Y-75308529D01*
X148063218Y-75330153D01*
X148050921Y-75350670D01*
X148036671Y-75369883D01*
X148020607Y-75387607D01*
X148002883Y-75403671D01*
X147983670Y-75417921D01*
X147963153Y-75430218D01*
X147941529Y-75440446D01*
X147919007Y-75448504D01*
X147895803Y-75454316D01*
X147872142Y-75457826D01*
X147848250Y-75459000D01*
X147285750Y-75459000D01*
X147261858Y-75457826D01*
X147238197Y-75454316D01*
X147214993Y-75448504D01*
X147192471Y-75440446D01*
X147170847Y-75430218D01*
X147150330Y-75417921D01*
X147131117Y-75403671D01*
X147113393Y-75387607D01*
X147097329Y-75369883D01*
X147083079Y-75350670D01*
X147070782Y-75330153D01*
X147060554Y-75308529D01*
X147052496Y-75286007D01*
X147046684Y-75262803D01*
X147043174Y-75239142D01*
X147042000Y-75215250D01*
X147042000Y-74727750D01*
X147043174Y-74703858D01*
X147046684Y-74680197D01*
X147052496Y-74656993D01*
X147060554Y-74634471D01*
X147070782Y-74612847D01*
X147083079Y-74592330D01*
X147097329Y-74573117D01*
X147113393Y-74555393D01*
X147131117Y-74539329D01*
X147150330Y-74525079D01*
X147170847Y-74512782D01*
X147192471Y-74502554D01*
X147214993Y-74494496D01*
X147238197Y-74488684D01*
X147261858Y-74485174D01*
X147285750Y-74484000D01*
X147848250Y-74484000D01*
X147872142Y-74485174D01*
X147872142Y-74485174D01*
G37*
D20*
X147567000Y-74971500D03*
D19*
G36*
X147872142Y-76060174D02*
X147895803Y-76063684D01*
X147919007Y-76069496D01*
X147941529Y-76077554D01*
X147963153Y-76087782D01*
X147983670Y-76100079D01*
X148002883Y-76114329D01*
X148020607Y-76130393D01*
X148036671Y-76148117D01*
X148050921Y-76167330D01*
X148063218Y-76187847D01*
X148073446Y-76209471D01*
X148081504Y-76231993D01*
X148087316Y-76255197D01*
X148090826Y-76278858D01*
X148092000Y-76302750D01*
X148092000Y-76790250D01*
X148090826Y-76814142D01*
X148087316Y-76837803D01*
X148081504Y-76861007D01*
X148073446Y-76883529D01*
X148063218Y-76905153D01*
X148050921Y-76925670D01*
X148036671Y-76944883D01*
X148020607Y-76962607D01*
X148002883Y-76978671D01*
X147983670Y-76992921D01*
X147963153Y-77005218D01*
X147941529Y-77015446D01*
X147919007Y-77023504D01*
X147895803Y-77029316D01*
X147872142Y-77032826D01*
X147848250Y-77034000D01*
X147285750Y-77034000D01*
X147261858Y-77032826D01*
X147238197Y-77029316D01*
X147214993Y-77023504D01*
X147192471Y-77015446D01*
X147170847Y-77005218D01*
X147150330Y-76992921D01*
X147131117Y-76978671D01*
X147113393Y-76962607D01*
X147097329Y-76944883D01*
X147083079Y-76925670D01*
X147070782Y-76905153D01*
X147060554Y-76883529D01*
X147052496Y-76861007D01*
X147046684Y-76837803D01*
X147043174Y-76814142D01*
X147042000Y-76790250D01*
X147042000Y-76302750D01*
X147043174Y-76278858D01*
X147046684Y-76255197D01*
X147052496Y-76231993D01*
X147060554Y-76209471D01*
X147070782Y-76187847D01*
X147083079Y-76167330D01*
X147097329Y-76148117D01*
X147113393Y-76130393D01*
X147131117Y-76114329D01*
X147150330Y-76100079D01*
X147170847Y-76087782D01*
X147192471Y-76077554D01*
X147214993Y-76069496D01*
X147238197Y-76063684D01*
X147261858Y-76060174D01*
X147285750Y-76059000D01*
X147848250Y-76059000D01*
X147872142Y-76060174D01*
X147872142Y-76060174D01*
G37*
D20*
X147567000Y-76546500D03*
G04 #@! TD*
D19*
G04 #@! TO.C,C40*
G36*
X146094142Y-74497174D02*
X146117803Y-74500684D01*
X146141007Y-74506496D01*
X146163529Y-74514554D01*
X146185153Y-74524782D01*
X146205670Y-74537079D01*
X146224883Y-74551329D01*
X146242607Y-74567393D01*
X146258671Y-74585117D01*
X146272921Y-74604330D01*
X146285218Y-74624847D01*
X146295446Y-74646471D01*
X146303504Y-74668993D01*
X146309316Y-74692197D01*
X146312826Y-74715858D01*
X146314000Y-74739750D01*
X146314000Y-75227250D01*
X146312826Y-75251142D01*
X146309316Y-75274803D01*
X146303504Y-75298007D01*
X146295446Y-75320529D01*
X146285218Y-75342153D01*
X146272921Y-75362670D01*
X146258671Y-75381883D01*
X146242607Y-75399607D01*
X146224883Y-75415671D01*
X146205670Y-75429921D01*
X146185153Y-75442218D01*
X146163529Y-75452446D01*
X146141007Y-75460504D01*
X146117803Y-75466316D01*
X146094142Y-75469826D01*
X146070250Y-75471000D01*
X145507750Y-75471000D01*
X145483858Y-75469826D01*
X145460197Y-75466316D01*
X145436993Y-75460504D01*
X145414471Y-75452446D01*
X145392847Y-75442218D01*
X145372330Y-75429921D01*
X145353117Y-75415671D01*
X145335393Y-75399607D01*
X145319329Y-75381883D01*
X145305079Y-75362670D01*
X145292782Y-75342153D01*
X145282554Y-75320529D01*
X145274496Y-75298007D01*
X145268684Y-75274803D01*
X145265174Y-75251142D01*
X145264000Y-75227250D01*
X145264000Y-74739750D01*
X145265174Y-74715858D01*
X145268684Y-74692197D01*
X145274496Y-74668993D01*
X145282554Y-74646471D01*
X145292782Y-74624847D01*
X145305079Y-74604330D01*
X145319329Y-74585117D01*
X145335393Y-74567393D01*
X145353117Y-74551329D01*
X145372330Y-74537079D01*
X145392847Y-74524782D01*
X145414471Y-74514554D01*
X145436993Y-74506496D01*
X145460197Y-74500684D01*
X145483858Y-74497174D01*
X145507750Y-74496000D01*
X146070250Y-74496000D01*
X146094142Y-74497174D01*
X146094142Y-74497174D01*
G37*
D20*
X145789000Y-74983500D03*
D19*
G36*
X146094142Y-76072174D02*
X146117803Y-76075684D01*
X146141007Y-76081496D01*
X146163529Y-76089554D01*
X146185153Y-76099782D01*
X146205670Y-76112079D01*
X146224883Y-76126329D01*
X146242607Y-76142393D01*
X146258671Y-76160117D01*
X146272921Y-76179330D01*
X146285218Y-76199847D01*
X146295446Y-76221471D01*
X146303504Y-76243993D01*
X146309316Y-76267197D01*
X146312826Y-76290858D01*
X146314000Y-76314750D01*
X146314000Y-76802250D01*
X146312826Y-76826142D01*
X146309316Y-76849803D01*
X146303504Y-76873007D01*
X146295446Y-76895529D01*
X146285218Y-76917153D01*
X146272921Y-76937670D01*
X146258671Y-76956883D01*
X146242607Y-76974607D01*
X146224883Y-76990671D01*
X146205670Y-77004921D01*
X146185153Y-77017218D01*
X146163529Y-77027446D01*
X146141007Y-77035504D01*
X146117803Y-77041316D01*
X146094142Y-77044826D01*
X146070250Y-77046000D01*
X145507750Y-77046000D01*
X145483858Y-77044826D01*
X145460197Y-77041316D01*
X145436993Y-77035504D01*
X145414471Y-77027446D01*
X145392847Y-77017218D01*
X145372330Y-77004921D01*
X145353117Y-76990671D01*
X145335393Y-76974607D01*
X145319329Y-76956883D01*
X145305079Y-76937670D01*
X145292782Y-76917153D01*
X145282554Y-76895529D01*
X145274496Y-76873007D01*
X145268684Y-76849803D01*
X145265174Y-76826142D01*
X145264000Y-76802250D01*
X145264000Y-76314750D01*
X145265174Y-76290858D01*
X145268684Y-76267197D01*
X145274496Y-76243993D01*
X145282554Y-76221471D01*
X145292782Y-76199847D01*
X145305079Y-76179330D01*
X145319329Y-76160117D01*
X145335393Y-76142393D01*
X145353117Y-76126329D01*
X145372330Y-76112079D01*
X145392847Y-76099782D01*
X145414471Y-76089554D01*
X145436993Y-76081496D01*
X145460197Y-76075684D01*
X145483858Y-76072174D01*
X145507750Y-76071000D01*
X146070250Y-76071000D01*
X146094142Y-76072174D01*
X146094142Y-76072174D01*
G37*
D20*
X145789000Y-76558500D03*
G04 #@! TD*
D19*
G04 #@! TO.C,C44*
G36*
X144697142Y-74497174D02*
X144720803Y-74500684D01*
X144744007Y-74506496D01*
X144766529Y-74514554D01*
X144788153Y-74524782D01*
X144808670Y-74537079D01*
X144827883Y-74551329D01*
X144845607Y-74567393D01*
X144861671Y-74585117D01*
X144875921Y-74604330D01*
X144888218Y-74624847D01*
X144898446Y-74646471D01*
X144906504Y-74668993D01*
X144912316Y-74692197D01*
X144915826Y-74715858D01*
X144917000Y-74739750D01*
X144917000Y-75227250D01*
X144915826Y-75251142D01*
X144912316Y-75274803D01*
X144906504Y-75298007D01*
X144898446Y-75320529D01*
X144888218Y-75342153D01*
X144875921Y-75362670D01*
X144861671Y-75381883D01*
X144845607Y-75399607D01*
X144827883Y-75415671D01*
X144808670Y-75429921D01*
X144788153Y-75442218D01*
X144766529Y-75452446D01*
X144744007Y-75460504D01*
X144720803Y-75466316D01*
X144697142Y-75469826D01*
X144673250Y-75471000D01*
X144110750Y-75471000D01*
X144086858Y-75469826D01*
X144063197Y-75466316D01*
X144039993Y-75460504D01*
X144017471Y-75452446D01*
X143995847Y-75442218D01*
X143975330Y-75429921D01*
X143956117Y-75415671D01*
X143938393Y-75399607D01*
X143922329Y-75381883D01*
X143908079Y-75362670D01*
X143895782Y-75342153D01*
X143885554Y-75320529D01*
X143877496Y-75298007D01*
X143871684Y-75274803D01*
X143868174Y-75251142D01*
X143867000Y-75227250D01*
X143867000Y-74739750D01*
X143868174Y-74715858D01*
X143871684Y-74692197D01*
X143877496Y-74668993D01*
X143885554Y-74646471D01*
X143895782Y-74624847D01*
X143908079Y-74604330D01*
X143922329Y-74585117D01*
X143938393Y-74567393D01*
X143956117Y-74551329D01*
X143975330Y-74537079D01*
X143995847Y-74524782D01*
X144017471Y-74514554D01*
X144039993Y-74506496D01*
X144063197Y-74500684D01*
X144086858Y-74497174D01*
X144110750Y-74496000D01*
X144673250Y-74496000D01*
X144697142Y-74497174D01*
X144697142Y-74497174D01*
G37*
D20*
X144392000Y-74983500D03*
D19*
G36*
X144697142Y-76072174D02*
X144720803Y-76075684D01*
X144744007Y-76081496D01*
X144766529Y-76089554D01*
X144788153Y-76099782D01*
X144808670Y-76112079D01*
X144827883Y-76126329D01*
X144845607Y-76142393D01*
X144861671Y-76160117D01*
X144875921Y-76179330D01*
X144888218Y-76199847D01*
X144898446Y-76221471D01*
X144906504Y-76243993D01*
X144912316Y-76267197D01*
X144915826Y-76290858D01*
X144917000Y-76314750D01*
X144917000Y-76802250D01*
X144915826Y-76826142D01*
X144912316Y-76849803D01*
X144906504Y-76873007D01*
X144898446Y-76895529D01*
X144888218Y-76917153D01*
X144875921Y-76937670D01*
X144861671Y-76956883D01*
X144845607Y-76974607D01*
X144827883Y-76990671D01*
X144808670Y-77004921D01*
X144788153Y-77017218D01*
X144766529Y-77027446D01*
X144744007Y-77035504D01*
X144720803Y-77041316D01*
X144697142Y-77044826D01*
X144673250Y-77046000D01*
X144110750Y-77046000D01*
X144086858Y-77044826D01*
X144063197Y-77041316D01*
X144039993Y-77035504D01*
X144017471Y-77027446D01*
X143995847Y-77017218D01*
X143975330Y-77004921D01*
X143956117Y-76990671D01*
X143938393Y-76974607D01*
X143922329Y-76956883D01*
X143908079Y-76937670D01*
X143895782Y-76917153D01*
X143885554Y-76895529D01*
X143877496Y-76873007D01*
X143871684Y-76849803D01*
X143868174Y-76826142D01*
X143867000Y-76802250D01*
X143867000Y-76314750D01*
X143868174Y-76290858D01*
X143871684Y-76267197D01*
X143877496Y-76243993D01*
X143885554Y-76221471D01*
X143895782Y-76199847D01*
X143908079Y-76179330D01*
X143922329Y-76160117D01*
X143938393Y-76142393D01*
X143956117Y-76126329D01*
X143975330Y-76112079D01*
X143995847Y-76099782D01*
X144017471Y-76089554D01*
X144039993Y-76081496D01*
X144063197Y-76075684D01*
X144086858Y-76072174D01*
X144110750Y-76071000D01*
X144673250Y-76071000D01*
X144697142Y-76072174D01*
X144697142Y-76072174D01*
G37*
D20*
X144392000Y-76558500D03*
G04 #@! TD*
D19*
G04 #@! TO.C,C39*
G36*
X143300142Y-74497174D02*
X143323803Y-74500684D01*
X143347007Y-74506496D01*
X143369529Y-74514554D01*
X143391153Y-74524782D01*
X143411670Y-74537079D01*
X143430883Y-74551329D01*
X143448607Y-74567393D01*
X143464671Y-74585117D01*
X143478921Y-74604330D01*
X143491218Y-74624847D01*
X143501446Y-74646471D01*
X143509504Y-74668993D01*
X143515316Y-74692197D01*
X143518826Y-74715858D01*
X143520000Y-74739750D01*
X143520000Y-75227250D01*
X143518826Y-75251142D01*
X143515316Y-75274803D01*
X143509504Y-75298007D01*
X143501446Y-75320529D01*
X143491218Y-75342153D01*
X143478921Y-75362670D01*
X143464671Y-75381883D01*
X143448607Y-75399607D01*
X143430883Y-75415671D01*
X143411670Y-75429921D01*
X143391153Y-75442218D01*
X143369529Y-75452446D01*
X143347007Y-75460504D01*
X143323803Y-75466316D01*
X143300142Y-75469826D01*
X143276250Y-75471000D01*
X142713750Y-75471000D01*
X142689858Y-75469826D01*
X142666197Y-75466316D01*
X142642993Y-75460504D01*
X142620471Y-75452446D01*
X142598847Y-75442218D01*
X142578330Y-75429921D01*
X142559117Y-75415671D01*
X142541393Y-75399607D01*
X142525329Y-75381883D01*
X142511079Y-75362670D01*
X142498782Y-75342153D01*
X142488554Y-75320529D01*
X142480496Y-75298007D01*
X142474684Y-75274803D01*
X142471174Y-75251142D01*
X142470000Y-75227250D01*
X142470000Y-74739750D01*
X142471174Y-74715858D01*
X142474684Y-74692197D01*
X142480496Y-74668993D01*
X142488554Y-74646471D01*
X142498782Y-74624847D01*
X142511079Y-74604330D01*
X142525329Y-74585117D01*
X142541393Y-74567393D01*
X142559117Y-74551329D01*
X142578330Y-74537079D01*
X142598847Y-74524782D01*
X142620471Y-74514554D01*
X142642993Y-74506496D01*
X142666197Y-74500684D01*
X142689858Y-74497174D01*
X142713750Y-74496000D01*
X143276250Y-74496000D01*
X143300142Y-74497174D01*
X143300142Y-74497174D01*
G37*
D20*
X142995000Y-74983500D03*
D19*
G36*
X143300142Y-76072174D02*
X143323803Y-76075684D01*
X143347007Y-76081496D01*
X143369529Y-76089554D01*
X143391153Y-76099782D01*
X143411670Y-76112079D01*
X143430883Y-76126329D01*
X143448607Y-76142393D01*
X143464671Y-76160117D01*
X143478921Y-76179330D01*
X143491218Y-76199847D01*
X143501446Y-76221471D01*
X143509504Y-76243993D01*
X143515316Y-76267197D01*
X143518826Y-76290858D01*
X143520000Y-76314750D01*
X143520000Y-76802250D01*
X143518826Y-76826142D01*
X143515316Y-76849803D01*
X143509504Y-76873007D01*
X143501446Y-76895529D01*
X143491218Y-76917153D01*
X143478921Y-76937670D01*
X143464671Y-76956883D01*
X143448607Y-76974607D01*
X143430883Y-76990671D01*
X143411670Y-77004921D01*
X143391153Y-77017218D01*
X143369529Y-77027446D01*
X143347007Y-77035504D01*
X143323803Y-77041316D01*
X143300142Y-77044826D01*
X143276250Y-77046000D01*
X142713750Y-77046000D01*
X142689858Y-77044826D01*
X142666197Y-77041316D01*
X142642993Y-77035504D01*
X142620471Y-77027446D01*
X142598847Y-77017218D01*
X142578330Y-77004921D01*
X142559117Y-76990671D01*
X142541393Y-76974607D01*
X142525329Y-76956883D01*
X142511079Y-76937670D01*
X142498782Y-76917153D01*
X142488554Y-76895529D01*
X142480496Y-76873007D01*
X142474684Y-76849803D01*
X142471174Y-76826142D01*
X142470000Y-76802250D01*
X142470000Y-76314750D01*
X142471174Y-76290858D01*
X142474684Y-76267197D01*
X142480496Y-76243993D01*
X142488554Y-76221471D01*
X142498782Y-76199847D01*
X142511079Y-76179330D01*
X142525329Y-76160117D01*
X142541393Y-76142393D01*
X142559117Y-76126329D01*
X142578330Y-76112079D01*
X142598847Y-76099782D01*
X142620471Y-76089554D01*
X142642993Y-76081496D01*
X142666197Y-76075684D01*
X142689858Y-76072174D01*
X142713750Y-76071000D01*
X143276250Y-76071000D01*
X143300142Y-76072174D01*
X143300142Y-76072174D01*
G37*
D20*
X142995000Y-76558500D03*
G04 #@! TD*
D19*
G04 #@! TO.C,C43*
G36*
X141903142Y-74497174D02*
X141926803Y-74500684D01*
X141950007Y-74506496D01*
X141972529Y-74514554D01*
X141994153Y-74524782D01*
X142014670Y-74537079D01*
X142033883Y-74551329D01*
X142051607Y-74567393D01*
X142067671Y-74585117D01*
X142081921Y-74604330D01*
X142094218Y-74624847D01*
X142104446Y-74646471D01*
X142112504Y-74668993D01*
X142118316Y-74692197D01*
X142121826Y-74715858D01*
X142123000Y-74739750D01*
X142123000Y-75227250D01*
X142121826Y-75251142D01*
X142118316Y-75274803D01*
X142112504Y-75298007D01*
X142104446Y-75320529D01*
X142094218Y-75342153D01*
X142081921Y-75362670D01*
X142067671Y-75381883D01*
X142051607Y-75399607D01*
X142033883Y-75415671D01*
X142014670Y-75429921D01*
X141994153Y-75442218D01*
X141972529Y-75452446D01*
X141950007Y-75460504D01*
X141926803Y-75466316D01*
X141903142Y-75469826D01*
X141879250Y-75471000D01*
X141316750Y-75471000D01*
X141292858Y-75469826D01*
X141269197Y-75466316D01*
X141245993Y-75460504D01*
X141223471Y-75452446D01*
X141201847Y-75442218D01*
X141181330Y-75429921D01*
X141162117Y-75415671D01*
X141144393Y-75399607D01*
X141128329Y-75381883D01*
X141114079Y-75362670D01*
X141101782Y-75342153D01*
X141091554Y-75320529D01*
X141083496Y-75298007D01*
X141077684Y-75274803D01*
X141074174Y-75251142D01*
X141073000Y-75227250D01*
X141073000Y-74739750D01*
X141074174Y-74715858D01*
X141077684Y-74692197D01*
X141083496Y-74668993D01*
X141091554Y-74646471D01*
X141101782Y-74624847D01*
X141114079Y-74604330D01*
X141128329Y-74585117D01*
X141144393Y-74567393D01*
X141162117Y-74551329D01*
X141181330Y-74537079D01*
X141201847Y-74524782D01*
X141223471Y-74514554D01*
X141245993Y-74506496D01*
X141269197Y-74500684D01*
X141292858Y-74497174D01*
X141316750Y-74496000D01*
X141879250Y-74496000D01*
X141903142Y-74497174D01*
X141903142Y-74497174D01*
G37*
D20*
X141598000Y-74983500D03*
D19*
G36*
X141903142Y-76072174D02*
X141926803Y-76075684D01*
X141950007Y-76081496D01*
X141972529Y-76089554D01*
X141994153Y-76099782D01*
X142014670Y-76112079D01*
X142033883Y-76126329D01*
X142051607Y-76142393D01*
X142067671Y-76160117D01*
X142081921Y-76179330D01*
X142094218Y-76199847D01*
X142104446Y-76221471D01*
X142112504Y-76243993D01*
X142118316Y-76267197D01*
X142121826Y-76290858D01*
X142123000Y-76314750D01*
X142123000Y-76802250D01*
X142121826Y-76826142D01*
X142118316Y-76849803D01*
X142112504Y-76873007D01*
X142104446Y-76895529D01*
X142094218Y-76917153D01*
X142081921Y-76937670D01*
X142067671Y-76956883D01*
X142051607Y-76974607D01*
X142033883Y-76990671D01*
X142014670Y-77004921D01*
X141994153Y-77017218D01*
X141972529Y-77027446D01*
X141950007Y-77035504D01*
X141926803Y-77041316D01*
X141903142Y-77044826D01*
X141879250Y-77046000D01*
X141316750Y-77046000D01*
X141292858Y-77044826D01*
X141269197Y-77041316D01*
X141245993Y-77035504D01*
X141223471Y-77027446D01*
X141201847Y-77017218D01*
X141181330Y-77004921D01*
X141162117Y-76990671D01*
X141144393Y-76974607D01*
X141128329Y-76956883D01*
X141114079Y-76937670D01*
X141101782Y-76917153D01*
X141091554Y-76895529D01*
X141083496Y-76873007D01*
X141077684Y-76849803D01*
X141074174Y-76826142D01*
X141073000Y-76802250D01*
X141073000Y-76314750D01*
X141074174Y-76290858D01*
X141077684Y-76267197D01*
X141083496Y-76243993D01*
X141091554Y-76221471D01*
X141101782Y-76199847D01*
X141114079Y-76179330D01*
X141128329Y-76160117D01*
X141144393Y-76142393D01*
X141162117Y-76126329D01*
X141181330Y-76112079D01*
X141201847Y-76099782D01*
X141223471Y-76089554D01*
X141245993Y-76081496D01*
X141269197Y-76075684D01*
X141292858Y-76072174D01*
X141316750Y-76071000D01*
X141879250Y-76071000D01*
X141903142Y-76072174D01*
X141903142Y-76072174D01*
G37*
D20*
X141598000Y-76558500D03*
G04 #@! TD*
D19*
G04 #@! TO.C,C38*
G36*
X140506142Y-74497174D02*
X140529803Y-74500684D01*
X140553007Y-74506496D01*
X140575529Y-74514554D01*
X140597153Y-74524782D01*
X140617670Y-74537079D01*
X140636883Y-74551329D01*
X140654607Y-74567393D01*
X140670671Y-74585117D01*
X140684921Y-74604330D01*
X140697218Y-74624847D01*
X140707446Y-74646471D01*
X140715504Y-74668993D01*
X140721316Y-74692197D01*
X140724826Y-74715858D01*
X140726000Y-74739750D01*
X140726000Y-75227250D01*
X140724826Y-75251142D01*
X140721316Y-75274803D01*
X140715504Y-75298007D01*
X140707446Y-75320529D01*
X140697218Y-75342153D01*
X140684921Y-75362670D01*
X140670671Y-75381883D01*
X140654607Y-75399607D01*
X140636883Y-75415671D01*
X140617670Y-75429921D01*
X140597153Y-75442218D01*
X140575529Y-75452446D01*
X140553007Y-75460504D01*
X140529803Y-75466316D01*
X140506142Y-75469826D01*
X140482250Y-75471000D01*
X139919750Y-75471000D01*
X139895858Y-75469826D01*
X139872197Y-75466316D01*
X139848993Y-75460504D01*
X139826471Y-75452446D01*
X139804847Y-75442218D01*
X139784330Y-75429921D01*
X139765117Y-75415671D01*
X139747393Y-75399607D01*
X139731329Y-75381883D01*
X139717079Y-75362670D01*
X139704782Y-75342153D01*
X139694554Y-75320529D01*
X139686496Y-75298007D01*
X139680684Y-75274803D01*
X139677174Y-75251142D01*
X139676000Y-75227250D01*
X139676000Y-74739750D01*
X139677174Y-74715858D01*
X139680684Y-74692197D01*
X139686496Y-74668993D01*
X139694554Y-74646471D01*
X139704782Y-74624847D01*
X139717079Y-74604330D01*
X139731329Y-74585117D01*
X139747393Y-74567393D01*
X139765117Y-74551329D01*
X139784330Y-74537079D01*
X139804847Y-74524782D01*
X139826471Y-74514554D01*
X139848993Y-74506496D01*
X139872197Y-74500684D01*
X139895858Y-74497174D01*
X139919750Y-74496000D01*
X140482250Y-74496000D01*
X140506142Y-74497174D01*
X140506142Y-74497174D01*
G37*
D20*
X140201000Y-74983500D03*
D19*
G36*
X140506142Y-76072174D02*
X140529803Y-76075684D01*
X140553007Y-76081496D01*
X140575529Y-76089554D01*
X140597153Y-76099782D01*
X140617670Y-76112079D01*
X140636883Y-76126329D01*
X140654607Y-76142393D01*
X140670671Y-76160117D01*
X140684921Y-76179330D01*
X140697218Y-76199847D01*
X140707446Y-76221471D01*
X140715504Y-76243993D01*
X140721316Y-76267197D01*
X140724826Y-76290858D01*
X140726000Y-76314750D01*
X140726000Y-76802250D01*
X140724826Y-76826142D01*
X140721316Y-76849803D01*
X140715504Y-76873007D01*
X140707446Y-76895529D01*
X140697218Y-76917153D01*
X140684921Y-76937670D01*
X140670671Y-76956883D01*
X140654607Y-76974607D01*
X140636883Y-76990671D01*
X140617670Y-77004921D01*
X140597153Y-77017218D01*
X140575529Y-77027446D01*
X140553007Y-77035504D01*
X140529803Y-77041316D01*
X140506142Y-77044826D01*
X140482250Y-77046000D01*
X139919750Y-77046000D01*
X139895858Y-77044826D01*
X139872197Y-77041316D01*
X139848993Y-77035504D01*
X139826471Y-77027446D01*
X139804847Y-77017218D01*
X139784330Y-77004921D01*
X139765117Y-76990671D01*
X139747393Y-76974607D01*
X139731329Y-76956883D01*
X139717079Y-76937670D01*
X139704782Y-76917153D01*
X139694554Y-76895529D01*
X139686496Y-76873007D01*
X139680684Y-76849803D01*
X139677174Y-76826142D01*
X139676000Y-76802250D01*
X139676000Y-76314750D01*
X139677174Y-76290858D01*
X139680684Y-76267197D01*
X139686496Y-76243993D01*
X139694554Y-76221471D01*
X139704782Y-76199847D01*
X139717079Y-76179330D01*
X139731329Y-76160117D01*
X139747393Y-76142393D01*
X139765117Y-76126329D01*
X139784330Y-76112079D01*
X139804847Y-76099782D01*
X139826471Y-76089554D01*
X139848993Y-76081496D01*
X139872197Y-76075684D01*
X139895858Y-76072174D01*
X139919750Y-76071000D01*
X140482250Y-76071000D01*
X140506142Y-76072174D01*
X140506142Y-76072174D01*
G37*
D20*
X140201000Y-76558500D03*
G04 #@! TD*
D19*
G04 #@! TO.C,C42*
G36*
X139047942Y-74489774D02*
X139071603Y-74493284D01*
X139094807Y-74499096D01*
X139117329Y-74507154D01*
X139138953Y-74517382D01*
X139159470Y-74529679D01*
X139178683Y-74543929D01*
X139196407Y-74559993D01*
X139212471Y-74577717D01*
X139226721Y-74596930D01*
X139239018Y-74617447D01*
X139249246Y-74639071D01*
X139257304Y-74661593D01*
X139263116Y-74684797D01*
X139266626Y-74708458D01*
X139267800Y-74732350D01*
X139267800Y-75219850D01*
X139266626Y-75243742D01*
X139263116Y-75267403D01*
X139257304Y-75290607D01*
X139249246Y-75313129D01*
X139239018Y-75334753D01*
X139226721Y-75355270D01*
X139212471Y-75374483D01*
X139196407Y-75392207D01*
X139178683Y-75408271D01*
X139159470Y-75422521D01*
X139138953Y-75434818D01*
X139117329Y-75445046D01*
X139094807Y-75453104D01*
X139071603Y-75458916D01*
X139047942Y-75462426D01*
X139024050Y-75463600D01*
X138461550Y-75463600D01*
X138437658Y-75462426D01*
X138413997Y-75458916D01*
X138390793Y-75453104D01*
X138368271Y-75445046D01*
X138346647Y-75434818D01*
X138326130Y-75422521D01*
X138306917Y-75408271D01*
X138289193Y-75392207D01*
X138273129Y-75374483D01*
X138258879Y-75355270D01*
X138246582Y-75334753D01*
X138236354Y-75313129D01*
X138228296Y-75290607D01*
X138222484Y-75267403D01*
X138218974Y-75243742D01*
X138217800Y-75219850D01*
X138217800Y-74732350D01*
X138218974Y-74708458D01*
X138222484Y-74684797D01*
X138228296Y-74661593D01*
X138236354Y-74639071D01*
X138246582Y-74617447D01*
X138258879Y-74596930D01*
X138273129Y-74577717D01*
X138289193Y-74559993D01*
X138306917Y-74543929D01*
X138326130Y-74529679D01*
X138346647Y-74517382D01*
X138368271Y-74507154D01*
X138390793Y-74499096D01*
X138413997Y-74493284D01*
X138437658Y-74489774D01*
X138461550Y-74488600D01*
X139024050Y-74488600D01*
X139047942Y-74489774D01*
X139047942Y-74489774D01*
G37*
D20*
X138742800Y-74976100D03*
D19*
G36*
X139047942Y-76064774D02*
X139071603Y-76068284D01*
X139094807Y-76074096D01*
X139117329Y-76082154D01*
X139138953Y-76092382D01*
X139159470Y-76104679D01*
X139178683Y-76118929D01*
X139196407Y-76134993D01*
X139212471Y-76152717D01*
X139226721Y-76171930D01*
X139239018Y-76192447D01*
X139249246Y-76214071D01*
X139257304Y-76236593D01*
X139263116Y-76259797D01*
X139266626Y-76283458D01*
X139267800Y-76307350D01*
X139267800Y-76794850D01*
X139266626Y-76818742D01*
X139263116Y-76842403D01*
X139257304Y-76865607D01*
X139249246Y-76888129D01*
X139239018Y-76909753D01*
X139226721Y-76930270D01*
X139212471Y-76949483D01*
X139196407Y-76967207D01*
X139178683Y-76983271D01*
X139159470Y-76997521D01*
X139138953Y-77009818D01*
X139117329Y-77020046D01*
X139094807Y-77028104D01*
X139071603Y-77033916D01*
X139047942Y-77037426D01*
X139024050Y-77038600D01*
X138461550Y-77038600D01*
X138437658Y-77037426D01*
X138413997Y-77033916D01*
X138390793Y-77028104D01*
X138368271Y-77020046D01*
X138346647Y-77009818D01*
X138326130Y-76997521D01*
X138306917Y-76983271D01*
X138289193Y-76967207D01*
X138273129Y-76949483D01*
X138258879Y-76930270D01*
X138246582Y-76909753D01*
X138236354Y-76888129D01*
X138228296Y-76865607D01*
X138222484Y-76842403D01*
X138218974Y-76818742D01*
X138217800Y-76794850D01*
X138217800Y-76307350D01*
X138218974Y-76283458D01*
X138222484Y-76259797D01*
X138228296Y-76236593D01*
X138236354Y-76214071D01*
X138246582Y-76192447D01*
X138258879Y-76171930D01*
X138273129Y-76152717D01*
X138289193Y-76134993D01*
X138306917Y-76118929D01*
X138326130Y-76104679D01*
X138346647Y-76092382D01*
X138368271Y-76082154D01*
X138390793Y-76074096D01*
X138413997Y-76068284D01*
X138437658Y-76064774D01*
X138461550Y-76063600D01*
X139024050Y-76063600D01*
X139047942Y-76064774D01*
X139047942Y-76064774D01*
G37*
D20*
X138742800Y-76551100D03*
G04 #@! TD*
D19*
G04 #@! TO.C,R37*
G36*
X131235142Y-108406174D02*
X131258803Y-108409684D01*
X131282007Y-108415496D01*
X131304529Y-108423554D01*
X131326153Y-108433782D01*
X131346670Y-108446079D01*
X131365883Y-108460329D01*
X131383607Y-108476393D01*
X131399671Y-108494117D01*
X131413921Y-108513330D01*
X131426218Y-108533847D01*
X131436446Y-108555471D01*
X131444504Y-108577993D01*
X131450316Y-108601197D01*
X131453826Y-108624858D01*
X131455000Y-108648750D01*
X131455000Y-109136250D01*
X131453826Y-109160142D01*
X131450316Y-109183803D01*
X131444504Y-109207007D01*
X131436446Y-109229529D01*
X131426218Y-109251153D01*
X131413921Y-109271670D01*
X131399671Y-109290883D01*
X131383607Y-109308607D01*
X131365883Y-109324671D01*
X131346670Y-109338921D01*
X131326153Y-109351218D01*
X131304529Y-109361446D01*
X131282007Y-109369504D01*
X131258803Y-109375316D01*
X131235142Y-109378826D01*
X131211250Y-109380000D01*
X130648750Y-109380000D01*
X130624858Y-109378826D01*
X130601197Y-109375316D01*
X130577993Y-109369504D01*
X130555471Y-109361446D01*
X130533847Y-109351218D01*
X130513330Y-109338921D01*
X130494117Y-109324671D01*
X130476393Y-109308607D01*
X130460329Y-109290883D01*
X130446079Y-109271670D01*
X130433782Y-109251153D01*
X130423554Y-109229529D01*
X130415496Y-109207007D01*
X130409684Y-109183803D01*
X130406174Y-109160142D01*
X130405000Y-109136250D01*
X130405000Y-108648750D01*
X130406174Y-108624858D01*
X130409684Y-108601197D01*
X130415496Y-108577993D01*
X130423554Y-108555471D01*
X130433782Y-108533847D01*
X130446079Y-108513330D01*
X130460329Y-108494117D01*
X130476393Y-108476393D01*
X130494117Y-108460329D01*
X130513330Y-108446079D01*
X130533847Y-108433782D01*
X130555471Y-108423554D01*
X130577993Y-108415496D01*
X130601197Y-108409684D01*
X130624858Y-108406174D01*
X130648750Y-108405000D01*
X131211250Y-108405000D01*
X131235142Y-108406174D01*
X131235142Y-108406174D01*
G37*
D20*
X130930000Y-108892500D03*
D19*
G36*
X131235142Y-109981174D02*
X131258803Y-109984684D01*
X131282007Y-109990496D01*
X131304529Y-109998554D01*
X131326153Y-110008782D01*
X131346670Y-110021079D01*
X131365883Y-110035329D01*
X131383607Y-110051393D01*
X131399671Y-110069117D01*
X131413921Y-110088330D01*
X131426218Y-110108847D01*
X131436446Y-110130471D01*
X131444504Y-110152993D01*
X131450316Y-110176197D01*
X131453826Y-110199858D01*
X131455000Y-110223750D01*
X131455000Y-110711250D01*
X131453826Y-110735142D01*
X131450316Y-110758803D01*
X131444504Y-110782007D01*
X131436446Y-110804529D01*
X131426218Y-110826153D01*
X131413921Y-110846670D01*
X131399671Y-110865883D01*
X131383607Y-110883607D01*
X131365883Y-110899671D01*
X131346670Y-110913921D01*
X131326153Y-110926218D01*
X131304529Y-110936446D01*
X131282007Y-110944504D01*
X131258803Y-110950316D01*
X131235142Y-110953826D01*
X131211250Y-110955000D01*
X130648750Y-110955000D01*
X130624858Y-110953826D01*
X130601197Y-110950316D01*
X130577993Y-110944504D01*
X130555471Y-110936446D01*
X130533847Y-110926218D01*
X130513330Y-110913921D01*
X130494117Y-110899671D01*
X130476393Y-110883607D01*
X130460329Y-110865883D01*
X130446079Y-110846670D01*
X130433782Y-110826153D01*
X130423554Y-110804529D01*
X130415496Y-110782007D01*
X130409684Y-110758803D01*
X130406174Y-110735142D01*
X130405000Y-110711250D01*
X130405000Y-110223750D01*
X130406174Y-110199858D01*
X130409684Y-110176197D01*
X130415496Y-110152993D01*
X130423554Y-110130471D01*
X130433782Y-110108847D01*
X130446079Y-110088330D01*
X130460329Y-110069117D01*
X130476393Y-110051393D01*
X130494117Y-110035329D01*
X130513330Y-110021079D01*
X130533847Y-110008782D01*
X130555471Y-109998554D01*
X130577993Y-109990496D01*
X130601197Y-109984684D01*
X130624858Y-109981174D01*
X130648750Y-109980000D01*
X131211250Y-109980000D01*
X131235142Y-109981174D01*
X131235142Y-109981174D01*
G37*
D20*
X130930000Y-110467500D03*
G04 #@! TD*
D19*
G04 #@! TO.C,R36*
G36*
X128695142Y-109981174D02*
X128718803Y-109984684D01*
X128742007Y-109990496D01*
X128764529Y-109998554D01*
X128786153Y-110008782D01*
X128806670Y-110021079D01*
X128825883Y-110035329D01*
X128843607Y-110051393D01*
X128859671Y-110069117D01*
X128873921Y-110088330D01*
X128886218Y-110108847D01*
X128896446Y-110130471D01*
X128904504Y-110152993D01*
X128910316Y-110176197D01*
X128913826Y-110199858D01*
X128915000Y-110223750D01*
X128915000Y-110711250D01*
X128913826Y-110735142D01*
X128910316Y-110758803D01*
X128904504Y-110782007D01*
X128896446Y-110804529D01*
X128886218Y-110826153D01*
X128873921Y-110846670D01*
X128859671Y-110865883D01*
X128843607Y-110883607D01*
X128825883Y-110899671D01*
X128806670Y-110913921D01*
X128786153Y-110926218D01*
X128764529Y-110936446D01*
X128742007Y-110944504D01*
X128718803Y-110950316D01*
X128695142Y-110953826D01*
X128671250Y-110955000D01*
X128108750Y-110955000D01*
X128084858Y-110953826D01*
X128061197Y-110950316D01*
X128037993Y-110944504D01*
X128015471Y-110936446D01*
X127993847Y-110926218D01*
X127973330Y-110913921D01*
X127954117Y-110899671D01*
X127936393Y-110883607D01*
X127920329Y-110865883D01*
X127906079Y-110846670D01*
X127893782Y-110826153D01*
X127883554Y-110804529D01*
X127875496Y-110782007D01*
X127869684Y-110758803D01*
X127866174Y-110735142D01*
X127865000Y-110711250D01*
X127865000Y-110223750D01*
X127866174Y-110199858D01*
X127869684Y-110176197D01*
X127875496Y-110152993D01*
X127883554Y-110130471D01*
X127893782Y-110108847D01*
X127906079Y-110088330D01*
X127920329Y-110069117D01*
X127936393Y-110051393D01*
X127954117Y-110035329D01*
X127973330Y-110021079D01*
X127993847Y-110008782D01*
X128015471Y-109998554D01*
X128037993Y-109990496D01*
X128061197Y-109984684D01*
X128084858Y-109981174D01*
X128108750Y-109980000D01*
X128671250Y-109980000D01*
X128695142Y-109981174D01*
X128695142Y-109981174D01*
G37*
D20*
X128390000Y-110467500D03*
D19*
G36*
X128695142Y-108406174D02*
X128718803Y-108409684D01*
X128742007Y-108415496D01*
X128764529Y-108423554D01*
X128786153Y-108433782D01*
X128806670Y-108446079D01*
X128825883Y-108460329D01*
X128843607Y-108476393D01*
X128859671Y-108494117D01*
X128873921Y-108513330D01*
X128886218Y-108533847D01*
X128896446Y-108555471D01*
X128904504Y-108577993D01*
X128910316Y-108601197D01*
X128913826Y-108624858D01*
X128915000Y-108648750D01*
X128915000Y-109136250D01*
X128913826Y-109160142D01*
X128910316Y-109183803D01*
X128904504Y-109207007D01*
X128896446Y-109229529D01*
X128886218Y-109251153D01*
X128873921Y-109271670D01*
X128859671Y-109290883D01*
X128843607Y-109308607D01*
X128825883Y-109324671D01*
X128806670Y-109338921D01*
X128786153Y-109351218D01*
X128764529Y-109361446D01*
X128742007Y-109369504D01*
X128718803Y-109375316D01*
X128695142Y-109378826D01*
X128671250Y-109380000D01*
X128108750Y-109380000D01*
X128084858Y-109378826D01*
X128061197Y-109375316D01*
X128037993Y-109369504D01*
X128015471Y-109361446D01*
X127993847Y-109351218D01*
X127973330Y-109338921D01*
X127954117Y-109324671D01*
X127936393Y-109308607D01*
X127920329Y-109290883D01*
X127906079Y-109271670D01*
X127893782Y-109251153D01*
X127883554Y-109229529D01*
X127875496Y-109207007D01*
X127869684Y-109183803D01*
X127866174Y-109160142D01*
X127865000Y-109136250D01*
X127865000Y-108648750D01*
X127866174Y-108624858D01*
X127869684Y-108601197D01*
X127875496Y-108577993D01*
X127883554Y-108555471D01*
X127893782Y-108533847D01*
X127906079Y-108513330D01*
X127920329Y-108494117D01*
X127936393Y-108476393D01*
X127954117Y-108460329D01*
X127973330Y-108446079D01*
X127993847Y-108433782D01*
X128015471Y-108423554D01*
X128037993Y-108415496D01*
X128061197Y-108409684D01*
X128084858Y-108406174D01*
X128108750Y-108405000D01*
X128671250Y-108405000D01*
X128695142Y-108406174D01*
X128695142Y-108406174D01*
G37*
D20*
X128390000Y-108892500D03*
G04 #@! TD*
D19*
G04 #@! TO.C,R62*
G36*
X126155142Y-109981174D02*
X126178803Y-109984684D01*
X126202007Y-109990496D01*
X126224529Y-109998554D01*
X126246153Y-110008782D01*
X126266670Y-110021079D01*
X126285883Y-110035329D01*
X126303607Y-110051393D01*
X126319671Y-110069117D01*
X126333921Y-110088330D01*
X126346218Y-110108847D01*
X126356446Y-110130471D01*
X126364504Y-110152993D01*
X126370316Y-110176197D01*
X126373826Y-110199858D01*
X126375000Y-110223750D01*
X126375000Y-110711250D01*
X126373826Y-110735142D01*
X126370316Y-110758803D01*
X126364504Y-110782007D01*
X126356446Y-110804529D01*
X126346218Y-110826153D01*
X126333921Y-110846670D01*
X126319671Y-110865883D01*
X126303607Y-110883607D01*
X126285883Y-110899671D01*
X126266670Y-110913921D01*
X126246153Y-110926218D01*
X126224529Y-110936446D01*
X126202007Y-110944504D01*
X126178803Y-110950316D01*
X126155142Y-110953826D01*
X126131250Y-110955000D01*
X125568750Y-110955000D01*
X125544858Y-110953826D01*
X125521197Y-110950316D01*
X125497993Y-110944504D01*
X125475471Y-110936446D01*
X125453847Y-110926218D01*
X125433330Y-110913921D01*
X125414117Y-110899671D01*
X125396393Y-110883607D01*
X125380329Y-110865883D01*
X125366079Y-110846670D01*
X125353782Y-110826153D01*
X125343554Y-110804529D01*
X125335496Y-110782007D01*
X125329684Y-110758803D01*
X125326174Y-110735142D01*
X125325000Y-110711250D01*
X125325000Y-110223750D01*
X125326174Y-110199858D01*
X125329684Y-110176197D01*
X125335496Y-110152993D01*
X125343554Y-110130471D01*
X125353782Y-110108847D01*
X125366079Y-110088330D01*
X125380329Y-110069117D01*
X125396393Y-110051393D01*
X125414117Y-110035329D01*
X125433330Y-110021079D01*
X125453847Y-110008782D01*
X125475471Y-109998554D01*
X125497993Y-109990496D01*
X125521197Y-109984684D01*
X125544858Y-109981174D01*
X125568750Y-109980000D01*
X126131250Y-109980000D01*
X126155142Y-109981174D01*
X126155142Y-109981174D01*
G37*
D20*
X125850000Y-110467500D03*
D19*
G36*
X126155142Y-108406174D02*
X126178803Y-108409684D01*
X126202007Y-108415496D01*
X126224529Y-108423554D01*
X126246153Y-108433782D01*
X126266670Y-108446079D01*
X126285883Y-108460329D01*
X126303607Y-108476393D01*
X126319671Y-108494117D01*
X126333921Y-108513330D01*
X126346218Y-108533847D01*
X126356446Y-108555471D01*
X126364504Y-108577993D01*
X126370316Y-108601197D01*
X126373826Y-108624858D01*
X126375000Y-108648750D01*
X126375000Y-109136250D01*
X126373826Y-109160142D01*
X126370316Y-109183803D01*
X126364504Y-109207007D01*
X126356446Y-109229529D01*
X126346218Y-109251153D01*
X126333921Y-109271670D01*
X126319671Y-109290883D01*
X126303607Y-109308607D01*
X126285883Y-109324671D01*
X126266670Y-109338921D01*
X126246153Y-109351218D01*
X126224529Y-109361446D01*
X126202007Y-109369504D01*
X126178803Y-109375316D01*
X126155142Y-109378826D01*
X126131250Y-109380000D01*
X125568750Y-109380000D01*
X125544858Y-109378826D01*
X125521197Y-109375316D01*
X125497993Y-109369504D01*
X125475471Y-109361446D01*
X125453847Y-109351218D01*
X125433330Y-109338921D01*
X125414117Y-109324671D01*
X125396393Y-109308607D01*
X125380329Y-109290883D01*
X125366079Y-109271670D01*
X125353782Y-109251153D01*
X125343554Y-109229529D01*
X125335496Y-109207007D01*
X125329684Y-109183803D01*
X125326174Y-109160142D01*
X125325000Y-109136250D01*
X125325000Y-108648750D01*
X125326174Y-108624858D01*
X125329684Y-108601197D01*
X125335496Y-108577993D01*
X125343554Y-108555471D01*
X125353782Y-108533847D01*
X125366079Y-108513330D01*
X125380329Y-108494117D01*
X125396393Y-108476393D01*
X125414117Y-108460329D01*
X125433330Y-108446079D01*
X125453847Y-108433782D01*
X125475471Y-108423554D01*
X125497993Y-108415496D01*
X125521197Y-108409684D01*
X125544858Y-108406174D01*
X125568750Y-108405000D01*
X126131250Y-108405000D01*
X126155142Y-108406174D01*
X126155142Y-108406174D01*
G37*
D20*
X125850000Y-108892500D03*
G04 #@! TD*
D19*
G04 #@! TO.C,D19*
G36*
X131437592Y-104396294D02*
X131463681Y-104400164D01*
X131489264Y-104406572D01*
X131514096Y-104415457D01*
X131537938Y-104426734D01*
X131560560Y-104440293D01*
X131581743Y-104456003D01*
X131601285Y-104473715D01*
X131618997Y-104493257D01*
X131634707Y-104514440D01*
X131648266Y-104537062D01*
X131659543Y-104560904D01*
X131668428Y-104585736D01*
X131674836Y-104611319D01*
X131678706Y-104637408D01*
X131680000Y-104663750D01*
X131680000Y-105201250D01*
X131678706Y-105227592D01*
X131674836Y-105253681D01*
X131668428Y-105279264D01*
X131659543Y-105304096D01*
X131648266Y-105327938D01*
X131634707Y-105350560D01*
X131618997Y-105371743D01*
X131601285Y-105391285D01*
X131581743Y-105408997D01*
X131560560Y-105424707D01*
X131537938Y-105438266D01*
X131514096Y-105449543D01*
X131489264Y-105458428D01*
X131463681Y-105464836D01*
X131437592Y-105468706D01*
X131411250Y-105470000D01*
X130448750Y-105470000D01*
X130422408Y-105468706D01*
X130396319Y-105464836D01*
X130370736Y-105458428D01*
X130345904Y-105449543D01*
X130322062Y-105438266D01*
X130299440Y-105424707D01*
X130278257Y-105408997D01*
X130258715Y-105391285D01*
X130241003Y-105371743D01*
X130225293Y-105350560D01*
X130211734Y-105327938D01*
X130200457Y-105304096D01*
X130191572Y-105279264D01*
X130185164Y-105253681D01*
X130181294Y-105227592D01*
X130180000Y-105201250D01*
X130180000Y-104663750D01*
X130181294Y-104637408D01*
X130185164Y-104611319D01*
X130191572Y-104585736D01*
X130200457Y-104560904D01*
X130211734Y-104537062D01*
X130225293Y-104514440D01*
X130241003Y-104493257D01*
X130258715Y-104473715D01*
X130278257Y-104456003D01*
X130299440Y-104440293D01*
X130322062Y-104426734D01*
X130345904Y-104415457D01*
X130370736Y-104406572D01*
X130396319Y-104400164D01*
X130422408Y-104396294D01*
X130448750Y-104395000D01*
X131411250Y-104395000D01*
X131437592Y-104396294D01*
X131437592Y-104396294D01*
G37*
D21*
X130930000Y-104932500D03*
D19*
G36*
X131437592Y-106271294D02*
X131463681Y-106275164D01*
X131489264Y-106281572D01*
X131514096Y-106290457D01*
X131537938Y-106301734D01*
X131560560Y-106315293D01*
X131581743Y-106331003D01*
X131601285Y-106348715D01*
X131618997Y-106368257D01*
X131634707Y-106389440D01*
X131648266Y-106412062D01*
X131659543Y-106435904D01*
X131668428Y-106460736D01*
X131674836Y-106486319D01*
X131678706Y-106512408D01*
X131680000Y-106538750D01*
X131680000Y-107076250D01*
X131678706Y-107102592D01*
X131674836Y-107128681D01*
X131668428Y-107154264D01*
X131659543Y-107179096D01*
X131648266Y-107202938D01*
X131634707Y-107225560D01*
X131618997Y-107246743D01*
X131601285Y-107266285D01*
X131581743Y-107283997D01*
X131560560Y-107299707D01*
X131537938Y-107313266D01*
X131514096Y-107324543D01*
X131489264Y-107333428D01*
X131463681Y-107339836D01*
X131437592Y-107343706D01*
X131411250Y-107345000D01*
X130448750Y-107345000D01*
X130422408Y-107343706D01*
X130396319Y-107339836D01*
X130370736Y-107333428D01*
X130345904Y-107324543D01*
X130322062Y-107313266D01*
X130299440Y-107299707D01*
X130278257Y-107283997D01*
X130258715Y-107266285D01*
X130241003Y-107246743D01*
X130225293Y-107225560D01*
X130211734Y-107202938D01*
X130200457Y-107179096D01*
X130191572Y-107154264D01*
X130185164Y-107128681D01*
X130181294Y-107102592D01*
X130180000Y-107076250D01*
X130180000Y-106538750D01*
X130181294Y-106512408D01*
X130185164Y-106486319D01*
X130191572Y-106460736D01*
X130200457Y-106435904D01*
X130211734Y-106412062D01*
X130225293Y-106389440D01*
X130241003Y-106368257D01*
X130258715Y-106348715D01*
X130278257Y-106331003D01*
X130299440Y-106315293D01*
X130322062Y-106301734D01*
X130345904Y-106290457D01*
X130370736Y-106281572D01*
X130396319Y-106275164D01*
X130422408Y-106271294D01*
X130448750Y-106270000D01*
X131411250Y-106270000D01*
X131437592Y-106271294D01*
X131437592Y-106271294D01*
G37*
D21*
X130930000Y-106807500D03*
G04 #@! TD*
D19*
G04 #@! TO.C,D18*
G36*
X128897592Y-104396294D02*
X128923681Y-104400164D01*
X128949264Y-104406572D01*
X128974096Y-104415457D01*
X128997938Y-104426734D01*
X129020560Y-104440293D01*
X129041743Y-104456003D01*
X129061285Y-104473715D01*
X129078997Y-104493257D01*
X129094707Y-104514440D01*
X129108266Y-104537062D01*
X129119543Y-104560904D01*
X129128428Y-104585736D01*
X129134836Y-104611319D01*
X129138706Y-104637408D01*
X129140000Y-104663750D01*
X129140000Y-105201250D01*
X129138706Y-105227592D01*
X129134836Y-105253681D01*
X129128428Y-105279264D01*
X129119543Y-105304096D01*
X129108266Y-105327938D01*
X129094707Y-105350560D01*
X129078997Y-105371743D01*
X129061285Y-105391285D01*
X129041743Y-105408997D01*
X129020560Y-105424707D01*
X128997938Y-105438266D01*
X128974096Y-105449543D01*
X128949264Y-105458428D01*
X128923681Y-105464836D01*
X128897592Y-105468706D01*
X128871250Y-105470000D01*
X127908750Y-105470000D01*
X127882408Y-105468706D01*
X127856319Y-105464836D01*
X127830736Y-105458428D01*
X127805904Y-105449543D01*
X127782062Y-105438266D01*
X127759440Y-105424707D01*
X127738257Y-105408997D01*
X127718715Y-105391285D01*
X127701003Y-105371743D01*
X127685293Y-105350560D01*
X127671734Y-105327938D01*
X127660457Y-105304096D01*
X127651572Y-105279264D01*
X127645164Y-105253681D01*
X127641294Y-105227592D01*
X127640000Y-105201250D01*
X127640000Y-104663750D01*
X127641294Y-104637408D01*
X127645164Y-104611319D01*
X127651572Y-104585736D01*
X127660457Y-104560904D01*
X127671734Y-104537062D01*
X127685293Y-104514440D01*
X127701003Y-104493257D01*
X127718715Y-104473715D01*
X127738257Y-104456003D01*
X127759440Y-104440293D01*
X127782062Y-104426734D01*
X127805904Y-104415457D01*
X127830736Y-104406572D01*
X127856319Y-104400164D01*
X127882408Y-104396294D01*
X127908750Y-104395000D01*
X128871250Y-104395000D01*
X128897592Y-104396294D01*
X128897592Y-104396294D01*
G37*
D21*
X128390000Y-104932500D03*
D19*
G36*
X128897592Y-106271294D02*
X128923681Y-106275164D01*
X128949264Y-106281572D01*
X128974096Y-106290457D01*
X128997938Y-106301734D01*
X129020560Y-106315293D01*
X129041743Y-106331003D01*
X129061285Y-106348715D01*
X129078997Y-106368257D01*
X129094707Y-106389440D01*
X129108266Y-106412062D01*
X129119543Y-106435904D01*
X129128428Y-106460736D01*
X129134836Y-106486319D01*
X129138706Y-106512408D01*
X129140000Y-106538750D01*
X129140000Y-107076250D01*
X129138706Y-107102592D01*
X129134836Y-107128681D01*
X129128428Y-107154264D01*
X129119543Y-107179096D01*
X129108266Y-107202938D01*
X129094707Y-107225560D01*
X129078997Y-107246743D01*
X129061285Y-107266285D01*
X129041743Y-107283997D01*
X129020560Y-107299707D01*
X128997938Y-107313266D01*
X128974096Y-107324543D01*
X128949264Y-107333428D01*
X128923681Y-107339836D01*
X128897592Y-107343706D01*
X128871250Y-107345000D01*
X127908750Y-107345000D01*
X127882408Y-107343706D01*
X127856319Y-107339836D01*
X127830736Y-107333428D01*
X127805904Y-107324543D01*
X127782062Y-107313266D01*
X127759440Y-107299707D01*
X127738257Y-107283997D01*
X127718715Y-107266285D01*
X127701003Y-107246743D01*
X127685293Y-107225560D01*
X127671734Y-107202938D01*
X127660457Y-107179096D01*
X127651572Y-107154264D01*
X127645164Y-107128681D01*
X127641294Y-107102592D01*
X127640000Y-107076250D01*
X127640000Y-106538750D01*
X127641294Y-106512408D01*
X127645164Y-106486319D01*
X127651572Y-106460736D01*
X127660457Y-106435904D01*
X127671734Y-106412062D01*
X127685293Y-106389440D01*
X127701003Y-106368257D01*
X127718715Y-106348715D01*
X127738257Y-106331003D01*
X127759440Y-106315293D01*
X127782062Y-106301734D01*
X127805904Y-106290457D01*
X127830736Y-106281572D01*
X127856319Y-106275164D01*
X127882408Y-106271294D01*
X127908750Y-106270000D01*
X128871250Y-106270000D01*
X128897592Y-106271294D01*
X128897592Y-106271294D01*
G37*
D21*
X128390000Y-106807500D03*
G04 #@! TD*
D19*
G04 #@! TO.C,D22*
G36*
X126357592Y-104396294D02*
X126383681Y-104400164D01*
X126409264Y-104406572D01*
X126434096Y-104415457D01*
X126457938Y-104426734D01*
X126480560Y-104440293D01*
X126501743Y-104456003D01*
X126521285Y-104473715D01*
X126538997Y-104493257D01*
X126554707Y-104514440D01*
X126568266Y-104537062D01*
X126579543Y-104560904D01*
X126588428Y-104585736D01*
X126594836Y-104611319D01*
X126598706Y-104637408D01*
X126600000Y-104663750D01*
X126600000Y-105201250D01*
X126598706Y-105227592D01*
X126594836Y-105253681D01*
X126588428Y-105279264D01*
X126579543Y-105304096D01*
X126568266Y-105327938D01*
X126554707Y-105350560D01*
X126538997Y-105371743D01*
X126521285Y-105391285D01*
X126501743Y-105408997D01*
X126480560Y-105424707D01*
X126457938Y-105438266D01*
X126434096Y-105449543D01*
X126409264Y-105458428D01*
X126383681Y-105464836D01*
X126357592Y-105468706D01*
X126331250Y-105470000D01*
X125368750Y-105470000D01*
X125342408Y-105468706D01*
X125316319Y-105464836D01*
X125290736Y-105458428D01*
X125265904Y-105449543D01*
X125242062Y-105438266D01*
X125219440Y-105424707D01*
X125198257Y-105408997D01*
X125178715Y-105391285D01*
X125161003Y-105371743D01*
X125145293Y-105350560D01*
X125131734Y-105327938D01*
X125120457Y-105304096D01*
X125111572Y-105279264D01*
X125105164Y-105253681D01*
X125101294Y-105227592D01*
X125100000Y-105201250D01*
X125100000Y-104663750D01*
X125101294Y-104637408D01*
X125105164Y-104611319D01*
X125111572Y-104585736D01*
X125120457Y-104560904D01*
X125131734Y-104537062D01*
X125145293Y-104514440D01*
X125161003Y-104493257D01*
X125178715Y-104473715D01*
X125198257Y-104456003D01*
X125219440Y-104440293D01*
X125242062Y-104426734D01*
X125265904Y-104415457D01*
X125290736Y-104406572D01*
X125316319Y-104400164D01*
X125342408Y-104396294D01*
X125368750Y-104395000D01*
X126331250Y-104395000D01*
X126357592Y-104396294D01*
X126357592Y-104396294D01*
G37*
D21*
X125850000Y-104932500D03*
D19*
G36*
X126357592Y-106271294D02*
X126383681Y-106275164D01*
X126409264Y-106281572D01*
X126434096Y-106290457D01*
X126457938Y-106301734D01*
X126480560Y-106315293D01*
X126501743Y-106331003D01*
X126521285Y-106348715D01*
X126538997Y-106368257D01*
X126554707Y-106389440D01*
X126568266Y-106412062D01*
X126579543Y-106435904D01*
X126588428Y-106460736D01*
X126594836Y-106486319D01*
X126598706Y-106512408D01*
X126600000Y-106538750D01*
X126600000Y-107076250D01*
X126598706Y-107102592D01*
X126594836Y-107128681D01*
X126588428Y-107154264D01*
X126579543Y-107179096D01*
X126568266Y-107202938D01*
X126554707Y-107225560D01*
X126538997Y-107246743D01*
X126521285Y-107266285D01*
X126501743Y-107283997D01*
X126480560Y-107299707D01*
X126457938Y-107313266D01*
X126434096Y-107324543D01*
X126409264Y-107333428D01*
X126383681Y-107339836D01*
X126357592Y-107343706D01*
X126331250Y-107345000D01*
X125368750Y-107345000D01*
X125342408Y-107343706D01*
X125316319Y-107339836D01*
X125290736Y-107333428D01*
X125265904Y-107324543D01*
X125242062Y-107313266D01*
X125219440Y-107299707D01*
X125198257Y-107283997D01*
X125178715Y-107266285D01*
X125161003Y-107246743D01*
X125145293Y-107225560D01*
X125131734Y-107202938D01*
X125120457Y-107179096D01*
X125111572Y-107154264D01*
X125105164Y-107128681D01*
X125101294Y-107102592D01*
X125100000Y-107076250D01*
X125100000Y-106538750D01*
X125101294Y-106512408D01*
X125105164Y-106486319D01*
X125111572Y-106460736D01*
X125120457Y-106435904D01*
X125131734Y-106412062D01*
X125145293Y-106389440D01*
X125161003Y-106368257D01*
X125178715Y-106348715D01*
X125198257Y-106331003D01*
X125219440Y-106315293D01*
X125242062Y-106301734D01*
X125265904Y-106290457D01*
X125290736Y-106281572D01*
X125316319Y-106275164D01*
X125342408Y-106271294D01*
X125368750Y-106270000D01*
X126331250Y-106270000D01*
X126357592Y-106271294D01*
X126357592Y-106271294D01*
G37*
D21*
X125850000Y-106807500D03*
G04 #@! TD*
D19*
G04 #@! TO.C,R41*
G36*
X121075142Y-81228174D02*
X121098803Y-81231684D01*
X121122007Y-81237496D01*
X121144529Y-81245554D01*
X121166153Y-81255782D01*
X121186670Y-81268079D01*
X121205883Y-81282329D01*
X121223607Y-81298393D01*
X121239671Y-81316117D01*
X121253921Y-81335330D01*
X121266218Y-81355847D01*
X121276446Y-81377471D01*
X121284504Y-81399993D01*
X121290316Y-81423197D01*
X121293826Y-81446858D01*
X121295000Y-81470750D01*
X121295000Y-81958250D01*
X121293826Y-81982142D01*
X121290316Y-82005803D01*
X121284504Y-82029007D01*
X121276446Y-82051529D01*
X121266218Y-82073153D01*
X121253921Y-82093670D01*
X121239671Y-82112883D01*
X121223607Y-82130607D01*
X121205883Y-82146671D01*
X121186670Y-82160921D01*
X121166153Y-82173218D01*
X121144529Y-82183446D01*
X121122007Y-82191504D01*
X121098803Y-82197316D01*
X121075142Y-82200826D01*
X121051250Y-82202000D01*
X120488750Y-82202000D01*
X120464858Y-82200826D01*
X120441197Y-82197316D01*
X120417993Y-82191504D01*
X120395471Y-82183446D01*
X120373847Y-82173218D01*
X120353330Y-82160921D01*
X120334117Y-82146671D01*
X120316393Y-82130607D01*
X120300329Y-82112883D01*
X120286079Y-82093670D01*
X120273782Y-82073153D01*
X120263554Y-82051529D01*
X120255496Y-82029007D01*
X120249684Y-82005803D01*
X120246174Y-81982142D01*
X120245000Y-81958250D01*
X120245000Y-81470750D01*
X120246174Y-81446858D01*
X120249684Y-81423197D01*
X120255496Y-81399993D01*
X120263554Y-81377471D01*
X120273782Y-81355847D01*
X120286079Y-81335330D01*
X120300329Y-81316117D01*
X120316393Y-81298393D01*
X120334117Y-81282329D01*
X120353330Y-81268079D01*
X120373847Y-81255782D01*
X120395471Y-81245554D01*
X120417993Y-81237496D01*
X120441197Y-81231684D01*
X120464858Y-81228174D01*
X120488750Y-81227000D01*
X121051250Y-81227000D01*
X121075142Y-81228174D01*
X121075142Y-81228174D01*
G37*
D20*
X120770000Y-81714500D03*
D19*
G36*
X121075142Y-82803174D02*
X121098803Y-82806684D01*
X121122007Y-82812496D01*
X121144529Y-82820554D01*
X121166153Y-82830782D01*
X121186670Y-82843079D01*
X121205883Y-82857329D01*
X121223607Y-82873393D01*
X121239671Y-82891117D01*
X121253921Y-82910330D01*
X121266218Y-82930847D01*
X121276446Y-82952471D01*
X121284504Y-82974993D01*
X121290316Y-82998197D01*
X121293826Y-83021858D01*
X121295000Y-83045750D01*
X121295000Y-83533250D01*
X121293826Y-83557142D01*
X121290316Y-83580803D01*
X121284504Y-83604007D01*
X121276446Y-83626529D01*
X121266218Y-83648153D01*
X121253921Y-83668670D01*
X121239671Y-83687883D01*
X121223607Y-83705607D01*
X121205883Y-83721671D01*
X121186670Y-83735921D01*
X121166153Y-83748218D01*
X121144529Y-83758446D01*
X121122007Y-83766504D01*
X121098803Y-83772316D01*
X121075142Y-83775826D01*
X121051250Y-83777000D01*
X120488750Y-83777000D01*
X120464858Y-83775826D01*
X120441197Y-83772316D01*
X120417993Y-83766504D01*
X120395471Y-83758446D01*
X120373847Y-83748218D01*
X120353330Y-83735921D01*
X120334117Y-83721671D01*
X120316393Y-83705607D01*
X120300329Y-83687883D01*
X120286079Y-83668670D01*
X120273782Y-83648153D01*
X120263554Y-83626529D01*
X120255496Y-83604007D01*
X120249684Y-83580803D01*
X120246174Y-83557142D01*
X120245000Y-83533250D01*
X120245000Y-83045750D01*
X120246174Y-83021858D01*
X120249684Y-82998197D01*
X120255496Y-82974993D01*
X120263554Y-82952471D01*
X120273782Y-82930847D01*
X120286079Y-82910330D01*
X120300329Y-82891117D01*
X120316393Y-82873393D01*
X120334117Y-82857329D01*
X120353330Y-82843079D01*
X120373847Y-82830782D01*
X120395471Y-82820554D01*
X120417993Y-82812496D01*
X120441197Y-82806684D01*
X120464858Y-82803174D01*
X120488750Y-82802000D01*
X121051250Y-82802000D01*
X121075142Y-82803174D01*
X121075142Y-82803174D01*
G37*
D20*
X120770000Y-83289500D03*
G04 #@! TD*
D19*
G04 #@! TO.C,D0*
G36*
X121277592Y-80000294D02*
X121303681Y-80004164D01*
X121329264Y-80010572D01*
X121354096Y-80019457D01*
X121377938Y-80030734D01*
X121400560Y-80044293D01*
X121421743Y-80060003D01*
X121441285Y-80077715D01*
X121458997Y-80097257D01*
X121474707Y-80118440D01*
X121488266Y-80141062D01*
X121499543Y-80164904D01*
X121508428Y-80189736D01*
X121514836Y-80215319D01*
X121518706Y-80241408D01*
X121520000Y-80267750D01*
X121520000Y-80805250D01*
X121518706Y-80831592D01*
X121514836Y-80857681D01*
X121508428Y-80883264D01*
X121499543Y-80908096D01*
X121488266Y-80931938D01*
X121474707Y-80954560D01*
X121458997Y-80975743D01*
X121441285Y-80995285D01*
X121421743Y-81012997D01*
X121400560Y-81028707D01*
X121377938Y-81042266D01*
X121354096Y-81053543D01*
X121329264Y-81062428D01*
X121303681Y-81068836D01*
X121277592Y-81072706D01*
X121251250Y-81074000D01*
X120288750Y-81074000D01*
X120262408Y-81072706D01*
X120236319Y-81068836D01*
X120210736Y-81062428D01*
X120185904Y-81053543D01*
X120162062Y-81042266D01*
X120139440Y-81028707D01*
X120118257Y-81012997D01*
X120098715Y-80995285D01*
X120081003Y-80975743D01*
X120065293Y-80954560D01*
X120051734Y-80931938D01*
X120040457Y-80908096D01*
X120031572Y-80883264D01*
X120025164Y-80857681D01*
X120021294Y-80831592D01*
X120020000Y-80805250D01*
X120020000Y-80267750D01*
X120021294Y-80241408D01*
X120025164Y-80215319D01*
X120031572Y-80189736D01*
X120040457Y-80164904D01*
X120051734Y-80141062D01*
X120065293Y-80118440D01*
X120081003Y-80097257D01*
X120098715Y-80077715D01*
X120118257Y-80060003D01*
X120139440Y-80044293D01*
X120162062Y-80030734D01*
X120185904Y-80019457D01*
X120210736Y-80010572D01*
X120236319Y-80004164D01*
X120262408Y-80000294D01*
X120288750Y-79999000D01*
X121251250Y-79999000D01*
X121277592Y-80000294D01*
X121277592Y-80000294D01*
G37*
D21*
X120770000Y-80536500D03*
D19*
G36*
X121277592Y-78125294D02*
X121303681Y-78129164D01*
X121329264Y-78135572D01*
X121354096Y-78144457D01*
X121377938Y-78155734D01*
X121400560Y-78169293D01*
X121421743Y-78185003D01*
X121441285Y-78202715D01*
X121458997Y-78222257D01*
X121474707Y-78243440D01*
X121488266Y-78266062D01*
X121499543Y-78289904D01*
X121508428Y-78314736D01*
X121514836Y-78340319D01*
X121518706Y-78366408D01*
X121520000Y-78392750D01*
X121520000Y-78930250D01*
X121518706Y-78956592D01*
X121514836Y-78982681D01*
X121508428Y-79008264D01*
X121499543Y-79033096D01*
X121488266Y-79056938D01*
X121474707Y-79079560D01*
X121458997Y-79100743D01*
X121441285Y-79120285D01*
X121421743Y-79137997D01*
X121400560Y-79153707D01*
X121377938Y-79167266D01*
X121354096Y-79178543D01*
X121329264Y-79187428D01*
X121303681Y-79193836D01*
X121277592Y-79197706D01*
X121251250Y-79199000D01*
X120288750Y-79199000D01*
X120262408Y-79197706D01*
X120236319Y-79193836D01*
X120210736Y-79187428D01*
X120185904Y-79178543D01*
X120162062Y-79167266D01*
X120139440Y-79153707D01*
X120118257Y-79137997D01*
X120098715Y-79120285D01*
X120081003Y-79100743D01*
X120065293Y-79079560D01*
X120051734Y-79056938D01*
X120040457Y-79033096D01*
X120031572Y-79008264D01*
X120025164Y-78982681D01*
X120021294Y-78956592D01*
X120020000Y-78930250D01*
X120020000Y-78392750D01*
X120021294Y-78366408D01*
X120025164Y-78340319D01*
X120031572Y-78314736D01*
X120040457Y-78289904D01*
X120051734Y-78266062D01*
X120065293Y-78243440D01*
X120081003Y-78222257D01*
X120098715Y-78202715D01*
X120118257Y-78185003D01*
X120139440Y-78169293D01*
X120162062Y-78155734D01*
X120185904Y-78144457D01*
X120210736Y-78135572D01*
X120236319Y-78129164D01*
X120262408Y-78125294D01*
X120288750Y-78124000D01*
X121251250Y-78124000D01*
X121277592Y-78125294D01*
X121277592Y-78125294D01*
G37*
D21*
X120770000Y-78661500D03*
G04 #@! TD*
D19*
G04 #@! TO.C,R42*
G36*
X118535142Y-81228174D02*
X118558803Y-81231684D01*
X118582007Y-81237496D01*
X118604529Y-81245554D01*
X118626153Y-81255782D01*
X118646670Y-81268079D01*
X118665883Y-81282329D01*
X118683607Y-81298393D01*
X118699671Y-81316117D01*
X118713921Y-81335330D01*
X118726218Y-81355847D01*
X118736446Y-81377471D01*
X118744504Y-81399993D01*
X118750316Y-81423197D01*
X118753826Y-81446858D01*
X118755000Y-81470750D01*
X118755000Y-81958250D01*
X118753826Y-81982142D01*
X118750316Y-82005803D01*
X118744504Y-82029007D01*
X118736446Y-82051529D01*
X118726218Y-82073153D01*
X118713921Y-82093670D01*
X118699671Y-82112883D01*
X118683607Y-82130607D01*
X118665883Y-82146671D01*
X118646670Y-82160921D01*
X118626153Y-82173218D01*
X118604529Y-82183446D01*
X118582007Y-82191504D01*
X118558803Y-82197316D01*
X118535142Y-82200826D01*
X118511250Y-82202000D01*
X117948750Y-82202000D01*
X117924858Y-82200826D01*
X117901197Y-82197316D01*
X117877993Y-82191504D01*
X117855471Y-82183446D01*
X117833847Y-82173218D01*
X117813330Y-82160921D01*
X117794117Y-82146671D01*
X117776393Y-82130607D01*
X117760329Y-82112883D01*
X117746079Y-82093670D01*
X117733782Y-82073153D01*
X117723554Y-82051529D01*
X117715496Y-82029007D01*
X117709684Y-82005803D01*
X117706174Y-81982142D01*
X117705000Y-81958250D01*
X117705000Y-81470750D01*
X117706174Y-81446858D01*
X117709684Y-81423197D01*
X117715496Y-81399993D01*
X117723554Y-81377471D01*
X117733782Y-81355847D01*
X117746079Y-81335330D01*
X117760329Y-81316117D01*
X117776393Y-81298393D01*
X117794117Y-81282329D01*
X117813330Y-81268079D01*
X117833847Y-81255782D01*
X117855471Y-81245554D01*
X117877993Y-81237496D01*
X117901197Y-81231684D01*
X117924858Y-81228174D01*
X117948750Y-81227000D01*
X118511250Y-81227000D01*
X118535142Y-81228174D01*
X118535142Y-81228174D01*
G37*
D20*
X118230000Y-81714500D03*
D19*
G36*
X118535142Y-82803174D02*
X118558803Y-82806684D01*
X118582007Y-82812496D01*
X118604529Y-82820554D01*
X118626153Y-82830782D01*
X118646670Y-82843079D01*
X118665883Y-82857329D01*
X118683607Y-82873393D01*
X118699671Y-82891117D01*
X118713921Y-82910330D01*
X118726218Y-82930847D01*
X118736446Y-82952471D01*
X118744504Y-82974993D01*
X118750316Y-82998197D01*
X118753826Y-83021858D01*
X118755000Y-83045750D01*
X118755000Y-83533250D01*
X118753826Y-83557142D01*
X118750316Y-83580803D01*
X118744504Y-83604007D01*
X118736446Y-83626529D01*
X118726218Y-83648153D01*
X118713921Y-83668670D01*
X118699671Y-83687883D01*
X118683607Y-83705607D01*
X118665883Y-83721671D01*
X118646670Y-83735921D01*
X118626153Y-83748218D01*
X118604529Y-83758446D01*
X118582007Y-83766504D01*
X118558803Y-83772316D01*
X118535142Y-83775826D01*
X118511250Y-83777000D01*
X117948750Y-83777000D01*
X117924858Y-83775826D01*
X117901197Y-83772316D01*
X117877993Y-83766504D01*
X117855471Y-83758446D01*
X117833847Y-83748218D01*
X117813330Y-83735921D01*
X117794117Y-83721671D01*
X117776393Y-83705607D01*
X117760329Y-83687883D01*
X117746079Y-83668670D01*
X117733782Y-83648153D01*
X117723554Y-83626529D01*
X117715496Y-83604007D01*
X117709684Y-83580803D01*
X117706174Y-83557142D01*
X117705000Y-83533250D01*
X117705000Y-83045750D01*
X117706174Y-83021858D01*
X117709684Y-82998197D01*
X117715496Y-82974993D01*
X117723554Y-82952471D01*
X117733782Y-82930847D01*
X117746079Y-82910330D01*
X117760329Y-82891117D01*
X117776393Y-82873393D01*
X117794117Y-82857329D01*
X117813330Y-82843079D01*
X117833847Y-82830782D01*
X117855471Y-82820554D01*
X117877993Y-82812496D01*
X117901197Y-82806684D01*
X117924858Y-82803174D01*
X117948750Y-82802000D01*
X118511250Y-82802000D01*
X118535142Y-82803174D01*
X118535142Y-82803174D01*
G37*
D20*
X118230000Y-83289500D03*
G04 #@! TD*
D19*
G04 #@! TO.C,D1*
G36*
X118737592Y-80000294D02*
X118763681Y-80004164D01*
X118789264Y-80010572D01*
X118814096Y-80019457D01*
X118837938Y-80030734D01*
X118860560Y-80044293D01*
X118881743Y-80060003D01*
X118901285Y-80077715D01*
X118918997Y-80097257D01*
X118934707Y-80118440D01*
X118948266Y-80141062D01*
X118959543Y-80164904D01*
X118968428Y-80189736D01*
X118974836Y-80215319D01*
X118978706Y-80241408D01*
X118980000Y-80267750D01*
X118980000Y-80805250D01*
X118978706Y-80831592D01*
X118974836Y-80857681D01*
X118968428Y-80883264D01*
X118959543Y-80908096D01*
X118948266Y-80931938D01*
X118934707Y-80954560D01*
X118918997Y-80975743D01*
X118901285Y-80995285D01*
X118881743Y-81012997D01*
X118860560Y-81028707D01*
X118837938Y-81042266D01*
X118814096Y-81053543D01*
X118789264Y-81062428D01*
X118763681Y-81068836D01*
X118737592Y-81072706D01*
X118711250Y-81074000D01*
X117748750Y-81074000D01*
X117722408Y-81072706D01*
X117696319Y-81068836D01*
X117670736Y-81062428D01*
X117645904Y-81053543D01*
X117622062Y-81042266D01*
X117599440Y-81028707D01*
X117578257Y-81012997D01*
X117558715Y-80995285D01*
X117541003Y-80975743D01*
X117525293Y-80954560D01*
X117511734Y-80931938D01*
X117500457Y-80908096D01*
X117491572Y-80883264D01*
X117485164Y-80857681D01*
X117481294Y-80831592D01*
X117480000Y-80805250D01*
X117480000Y-80267750D01*
X117481294Y-80241408D01*
X117485164Y-80215319D01*
X117491572Y-80189736D01*
X117500457Y-80164904D01*
X117511734Y-80141062D01*
X117525293Y-80118440D01*
X117541003Y-80097257D01*
X117558715Y-80077715D01*
X117578257Y-80060003D01*
X117599440Y-80044293D01*
X117622062Y-80030734D01*
X117645904Y-80019457D01*
X117670736Y-80010572D01*
X117696319Y-80004164D01*
X117722408Y-80000294D01*
X117748750Y-79999000D01*
X118711250Y-79999000D01*
X118737592Y-80000294D01*
X118737592Y-80000294D01*
G37*
D21*
X118230000Y-80536500D03*
D19*
G36*
X118737592Y-78125294D02*
X118763681Y-78129164D01*
X118789264Y-78135572D01*
X118814096Y-78144457D01*
X118837938Y-78155734D01*
X118860560Y-78169293D01*
X118881743Y-78185003D01*
X118901285Y-78202715D01*
X118918997Y-78222257D01*
X118934707Y-78243440D01*
X118948266Y-78266062D01*
X118959543Y-78289904D01*
X118968428Y-78314736D01*
X118974836Y-78340319D01*
X118978706Y-78366408D01*
X118980000Y-78392750D01*
X118980000Y-78930250D01*
X118978706Y-78956592D01*
X118974836Y-78982681D01*
X118968428Y-79008264D01*
X118959543Y-79033096D01*
X118948266Y-79056938D01*
X118934707Y-79079560D01*
X118918997Y-79100743D01*
X118901285Y-79120285D01*
X118881743Y-79137997D01*
X118860560Y-79153707D01*
X118837938Y-79167266D01*
X118814096Y-79178543D01*
X118789264Y-79187428D01*
X118763681Y-79193836D01*
X118737592Y-79197706D01*
X118711250Y-79199000D01*
X117748750Y-79199000D01*
X117722408Y-79197706D01*
X117696319Y-79193836D01*
X117670736Y-79187428D01*
X117645904Y-79178543D01*
X117622062Y-79167266D01*
X117599440Y-79153707D01*
X117578257Y-79137997D01*
X117558715Y-79120285D01*
X117541003Y-79100743D01*
X117525293Y-79079560D01*
X117511734Y-79056938D01*
X117500457Y-79033096D01*
X117491572Y-79008264D01*
X117485164Y-78982681D01*
X117481294Y-78956592D01*
X117480000Y-78930250D01*
X117480000Y-78392750D01*
X117481294Y-78366408D01*
X117485164Y-78340319D01*
X117491572Y-78314736D01*
X117500457Y-78289904D01*
X117511734Y-78266062D01*
X117525293Y-78243440D01*
X117541003Y-78222257D01*
X117558715Y-78202715D01*
X117578257Y-78185003D01*
X117599440Y-78169293D01*
X117622062Y-78155734D01*
X117645904Y-78144457D01*
X117670736Y-78135572D01*
X117696319Y-78129164D01*
X117722408Y-78125294D01*
X117748750Y-78124000D01*
X118711250Y-78124000D01*
X118737592Y-78125294D01*
X118737592Y-78125294D01*
G37*
D21*
X118230000Y-78661500D03*
G04 #@! TD*
D19*
G04 #@! TO.C,R43*
G36*
X115995142Y-81228174D02*
X116018803Y-81231684D01*
X116042007Y-81237496D01*
X116064529Y-81245554D01*
X116086153Y-81255782D01*
X116106670Y-81268079D01*
X116125883Y-81282329D01*
X116143607Y-81298393D01*
X116159671Y-81316117D01*
X116173921Y-81335330D01*
X116186218Y-81355847D01*
X116196446Y-81377471D01*
X116204504Y-81399993D01*
X116210316Y-81423197D01*
X116213826Y-81446858D01*
X116215000Y-81470750D01*
X116215000Y-81958250D01*
X116213826Y-81982142D01*
X116210316Y-82005803D01*
X116204504Y-82029007D01*
X116196446Y-82051529D01*
X116186218Y-82073153D01*
X116173921Y-82093670D01*
X116159671Y-82112883D01*
X116143607Y-82130607D01*
X116125883Y-82146671D01*
X116106670Y-82160921D01*
X116086153Y-82173218D01*
X116064529Y-82183446D01*
X116042007Y-82191504D01*
X116018803Y-82197316D01*
X115995142Y-82200826D01*
X115971250Y-82202000D01*
X115408750Y-82202000D01*
X115384858Y-82200826D01*
X115361197Y-82197316D01*
X115337993Y-82191504D01*
X115315471Y-82183446D01*
X115293847Y-82173218D01*
X115273330Y-82160921D01*
X115254117Y-82146671D01*
X115236393Y-82130607D01*
X115220329Y-82112883D01*
X115206079Y-82093670D01*
X115193782Y-82073153D01*
X115183554Y-82051529D01*
X115175496Y-82029007D01*
X115169684Y-82005803D01*
X115166174Y-81982142D01*
X115165000Y-81958250D01*
X115165000Y-81470750D01*
X115166174Y-81446858D01*
X115169684Y-81423197D01*
X115175496Y-81399993D01*
X115183554Y-81377471D01*
X115193782Y-81355847D01*
X115206079Y-81335330D01*
X115220329Y-81316117D01*
X115236393Y-81298393D01*
X115254117Y-81282329D01*
X115273330Y-81268079D01*
X115293847Y-81255782D01*
X115315471Y-81245554D01*
X115337993Y-81237496D01*
X115361197Y-81231684D01*
X115384858Y-81228174D01*
X115408750Y-81227000D01*
X115971250Y-81227000D01*
X115995142Y-81228174D01*
X115995142Y-81228174D01*
G37*
D20*
X115690000Y-81714500D03*
D19*
G36*
X115995142Y-82803174D02*
X116018803Y-82806684D01*
X116042007Y-82812496D01*
X116064529Y-82820554D01*
X116086153Y-82830782D01*
X116106670Y-82843079D01*
X116125883Y-82857329D01*
X116143607Y-82873393D01*
X116159671Y-82891117D01*
X116173921Y-82910330D01*
X116186218Y-82930847D01*
X116196446Y-82952471D01*
X116204504Y-82974993D01*
X116210316Y-82998197D01*
X116213826Y-83021858D01*
X116215000Y-83045750D01*
X116215000Y-83533250D01*
X116213826Y-83557142D01*
X116210316Y-83580803D01*
X116204504Y-83604007D01*
X116196446Y-83626529D01*
X116186218Y-83648153D01*
X116173921Y-83668670D01*
X116159671Y-83687883D01*
X116143607Y-83705607D01*
X116125883Y-83721671D01*
X116106670Y-83735921D01*
X116086153Y-83748218D01*
X116064529Y-83758446D01*
X116042007Y-83766504D01*
X116018803Y-83772316D01*
X115995142Y-83775826D01*
X115971250Y-83777000D01*
X115408750Y-83777000D01*
X115384858Y-83775826D01*
X115361197Y-83772316D01*
X115337993Y-83766504D01*
X115315471Y-83758446D01*
X115293847Y-83748218D01*
X115273330Y-83735921D01*
X115254117Y-83721671D01*
X115236393Y-83705607D01*
X115220329Y-83687883D01*
X115206079Y-83668670D01*
X115193782Y-83648153D01*
X115183554Y-83626529D01*
X115175496Y-83604007D01*
X115169684Y-83580803D01*
X115166174Y-83557142D01*
X115165000Y-83533250D01*
X115165000Y-83045750D01*
X115166174Y-83021858D01*
X115169684Y-82998197D01*
X115175496Y-82974993D01*
X115183554Y-82952471D01*
X115193782Y-82930847D01*
X115206079Y-82910330D01*
X115220329Y-82891117D01*
X115236393Y-82873393D01*
X115254117Y-82857329D01*
X115273330Y-82843079D01*
X115293847Y-82830782D01*
X115315471Y-82820554D01*
X115337993Y-82812496D01*
X115361197Y-82806684D01*
X115384858Y-82803174D01*
X115408750Y-82802000D01*
X115971250Y-82802000D01*
X115995142Y-82803174D01*
X115995142Y-82803174D01*
G37*
D20*
X115690000Y-83289500D03*
G04 #@! TD*
D19*
G04 #@! TO.C,D2*
G36*
X116197592Y-80000294D02*
X116223681Y-80004164D01*
X116249264Y-80010572D01*
X116274096Y-80019457D01*
X116297938Y-80030734D01*
X116320560Y-80044293D01*
X116341743Y-80060003D01*
X116361285Y-80077715D01*
X116378997Y-80097257D01*
X116394707Y-80118440D01*
X116408266Y-80141062D01*
X116419543Y-80164904D01*
X116428428Y-80189736D01*
X116434836Y-80215319D01*
X116438706Y-80241408D01*
X116440000Y-80267750D01*
X116440000Y-80805250D01*
X116438706Y-80831592D01*
X116434836Y-80857681D01*
X116428428Y-80883264D01*
X116419543Y-80908096D01*
X116408266Y-80931938D01*
X116394707Y-80954560D01*
X116378997Y-80975743D01*
X116361285Y-80995285D01*
X116341743Y-81012997D01*
X116320560Y-81028707D01*
X116297938Y-81042266D01*
X116274096Y-81053543D01*
X116249264Y-81062428D01*
X116223681Y-81068836D01*
X116197592Y-81072706D01*
X116171250Y-81074000D01*
X115208750Y-81074000D01*
X115182408Y-81072706D01*
X115156319Y-81068836D01*
X115130736Y-81062428D01*
X115105904Y-81053543D01*
X115082062Y-81042266D01*
X115059440Y-81028707D01*
X115038257Y-81012997D01*
X115018715Y-80995285D01*
X115001003Y-80975743D01*
X114985293Y-80954560D01*
X114971734Y-80931938D01*
X114960457Y-80908096D01*
X114951572Y-80883264D01*
X114945164Y-80857681D01*
X114941294Y-80831592D01*
X114940000Y-80805250D01*
X114940000Y-80267750D01*
X114941294Y-80241408D01*
X114945164Y-80215319D01*
X114951572Y-80189736D01*
X114960457Y-80164904D01*
X114971734Y-80141062D01*
X114985293Y-80118440D01*
X115001003Y-80097257D01*
X115018715Y-80077715D01*
X115038257Y-80060003D01*
X115059440Y-80044293D01*
X115082062Y-80030734D01*
X115105904Y-80019457D01*
X115130736Y-80010572D01*
X115156319Y-80004164D01*
X115182408Y-80000294D01*
X115208750Y-79999000D01*
X116171250Y-79999000D01*
X116197592Y-80000294D01*
X116197592Y-80000294D01*
G37*
D21*
X115690000Y-80536500D03*
D19*
G36*
X116197592Y-78125294D02*
X116223681Y-78129164D01*
X116249264Y-78135572D01*
X116274096Y-78144457D01*
X116297938Y-78155734D01*
X116320560Y-78169293D01*
X116341743Y-78185003D01*
X116361285Y-78202715D01*
X116378997Y-78222257D01*
X116394707Y-78243440D01*
X116408266Y-78266062D01*
X116419543Y-78289904D01*
X116428428Y-78314736D01*
X116434836Y-78340319D01*
X116438706Y-78366408D01*
X116440000Y-78392750D01*
X116440000Y-78930250D01*
X116438706Y-78956592D01*
X116434836Y-78982681D01*
X116428428Y-79008264D01*
X116419543Y-79033096D01*
X116408266Y-79056938D01*
X116394707Y-79079560D01*
X116378997Y-79100743D01*
X116361285Y-79120285D01*
X116341743Y-79137997D01*
X116320560Y-79153707D01*
X116297938Y-79167266D01*
X116274096Y-79178543D01*
X116249264Y-79187428D01*
X116223681Y-79193836D01*
X116197592Y-79197706D01*
X116171250Y-79199000D01*
X115208750Y-79199000D01*
X115182408Y-79197706D01*
X115156319Y-79193836D01*
X115130736Y-79187428D01*
X115105904Y-79178543D01*
X115082062Y-79167266D01*
X115059440Y-79153707D01*
X115038257Y-79137997D01*
X115018715Y-79120285D01*
X115001003Y-79100743D01*
X114985293Y-79079560D01*
X114971734Y-79056938D01*
X114960457Y-79033096D01*
X114951572Y-79008264D01*
X114945164Y-78982681D01*
X114941294Y-78956592D01*
X114940000Y-78930250D01*
X114940000Y-78392750D01*
X114941294Y-78366408D01*
X114945164Y-78340319D01*
X114951572Y-78314736D01*
X114960457Y-78289904D01*
X114971734Y-78266062D01*
X114985293Y-78243440D01*
X115001003Y-78222257D01*
X115018715Y-78202715D01*
X115038257Y-78185003D01*
X115059440Y-78169293D01*
X115082062Y-78155734D01*
X115105904Y-78144457D01*
X115130736Y-78135572D01*
X115156319Y-78129164D01*
X115182408Y-78125294D01*
X115208750Y-78124000D01*
X116171250Y-78124000D01*
X116197592Y-78125294D01*
X116197592Y-78125294D01*
G37*
D21*
X115690000Y-78661500D03*
G04 #@! TD*
D19*
G04 #@! TO.C,R44*
G36*
X113455142Y-81228174D02*
X113478803Y-81231684D01*
X113502007Y-81237496D01*
X113524529Y-81245554D01*
X113546153Y-81255782D01*
X113566670Y-81268079D01*
X113585883Y-81282329D01*
X113603607Y-81298393D01*
X113619671Y-81316117D01*
X113633921Y-81335330D01*
X113646218Y-81355847D01*
X113656446Y-81377471D01*
X113664504Y-81399993D01*
X113670316Y-81423197D01*
X113673826Y-81446858D01*
X113675000Y-81470750D01*
X113675000Y-81958250D01*
X113673826Y-81982142D01*
X113670316Y-82005803D01*
X113664504Y-82029007D01*
X113656446Y-82051529D01*
X113646218Y-82073153D01*
X113633921Y-82093670D01*
X113619671Y-82112883D01*
X113603607Y-82130607D01*
X113585883Y-82146671D01*
X113566670Y-82160921D01*
X113546153Y-82173218D01*
X113524529Y-82183446D01*
X113502007Y-82191504D01*
X113478803Y-82197316D01*
X113455142Y-82200826D01*
X113431250Y-82202000D01*
X112868750Y-82202000D01*
X112844858Y-82200826D01*
X112821197Y-82197316D01*
X112797993Y-82191504D01*
X112775471Y-82183446D01*
X112753847Y-82173218D01*
X112733330Y-82160921D01*
X112714117Y-82146671D01*
X112696393Y-82130607D01*
X112680329Y-82112883D01*
X112666079Y-82093670D01*
X112653782Y-82073153D01*
X112643554Y-82051529D01*
X112635496Y-82029007D01*
X112629684Y-82005803D01*
X112626174Y-81982142D01*
X112625000Y-81958250D01*
X112625000Y-81470750D01*
X112626174Y-81446858D01*
X112629684Y-81423197D01*
X112635496Y-81399993D01*
X112643554Y-81377471D01*
X112653782Y-81355847D01*
X112666079Y-81335330D01*
X112680329Y-81316117D01*
X112696393Y-81298393D01*
X112714117Y-81282329D01*
X112733330Y-81268079D01*
X112753847Y-81255782D01*
X112775471Y-81245554D01*
X112797993Y-81237496D01*
X112821197Y-81231684D01*
X112844858Y-81228174D01*
X112868750Y-81227000D01*
X113431250Y-81227000D01*
X113455142Y-81228174D01*
X113455142Y-81228174D01*
G37*
D20*
X113150000Y-81714500D03*
D19*
G36*
X113455142Y-82803174D02*
X113478803Y-82806684D01*
X113502007Y-82812496D01*
X113524529Y-82820554D01*
X113546153Y-82830782D01*
X113566670Y-82843079D01*
X113585883Y-82857329D01*
X113603607Y-82873393D01*
X113619671Y-82891117D01*
X113633921Y-82910330D01*
X113646218Y-82930847D01*
X113656446Y-82952471D01*
X113664504Y-82974993D01*
X113670316Y-82998197D01*
X113673826Y-83021858D01*
X113675000Y-83045750D01*
X113675000Y-83533250D01*
X113673826Y-83557142D01*
X113670316Y-83580803D01*
X113664504Y-83604007D01*
X113656446Y-83626529D01*
X113646218Y-83648153D01*
X113633921Y-83668670D01*
X113619671Y-83687883D01*
X113603607Y-83705607D01*
X113585883Y-83721671D01*
X113566670Y-83735921D01*
X113546153Y-83748218D01*
X113524529Y-83758446D01*
X113502007Y-83766504D01*
X113478803Y-83772316D01*
X113455142Y-83775826D01*
X113431250Y-83777000D01*
X112868750Y-83777000D01*
X112844858Y-83775826D01*
X112821197Y-83772316D01*
X112797993Y-83766504D01*
X112775471Y-83758446D01*
X112753847Y-83748218D01*
X112733330Y-83735921D01*
X112714117Y-83721671D01*
X112696393Y-83705607D01*
X112680329Y-83687883D01*
X112666079Y-83668670D01*
X112653782Y-83648153D01*
X112643554Y-83626529D01*
X112635496Y-83604007D01*
X112629684Y-83580803D01*
X112626174Y-83557142D01*
X112625000Y-83533250D01*
X112625000Y-83045750D01*
X112626174Y-83021858D01*
X112629684Y-82998197D01*
X112635496Y-82974993D01*
X112643554Y-82952471D01*
X112653782Y-82930847D01*
X112666079Y-82910330D01*
X112680329Y-82891117D01*
X112696393Y-82873393D01*
X112714117Y-82857329D01*
X112733330Y-82843079D01*
X112753847Y-82830782D01*
X112775471Y-82820554D01*
X112797993Y-82812496D01*
X112821197Y-82806684D01*
X112844858Y-82803174D01*
X112868750Y-82802000D01*
X113431250Y-82802000D01*
X113455142Y-82803174D01*
X113455142Y-82803174D01*
G37*
D20*
X113150000Y-83289500D03*
G04 #@! TD*
D19*
G04 #@! TO.C,D3*
G36*
X113657592Y-80000294D02*
X113683681Y-80004164D01*
X113709264Y-80010572D01*
X113734096Y-80019457D01*
X113757938Y-80030734D01*
X113780560Y-80044293D01*
X113801743Y-80060003D01*
X113821285Y-80077715D01*
X113838997Y-80097257D01*
X113854707Y-80118440D01*
X113868266Y-80141062D01*
X113879543Y-80164904D01*
X113888428Y-80189736D01*
X113894836Y-80215319D01*
X113898706Y-80241408D01*
X113900000Y-80267750D01*
X113900000Y-80805250D01*
X113898706Y-80831592D01*
X113894836Y-80857681D01*
X113888428Y-80883264D01*
X113879543Y-80908096D01*
X113868266Y-80931938D01*
X113854707Y-80954560D01*
X113838997Y-80975743D01*
X113821285Y-80995285D01*
X113801743Y-81012997D01*
X113780560Y-81028707D01*
X113757938Y-81042266D01*
X113734096Y-81053543D01*
X113709264Y-81062428D01*
X113683681Y-81068836D01*
X113657592Y-81072706D01*
X113631250Y-81074000D01*
X112668750Y-81074000D01*
X112642408Y-81072706D01*
X112616319Y-81068836D01*
X112590736Y-81062428D01*
X112565904Y-81053543D01*
X112542062Y-81042266D01*
X112519440Y-81028707D01*
X112498257Y-81012997D01*
X112478715Y-80995285D01*
X112461003Y-80975743D01*
X112445293Y-80954560D01*
X112431734Y-80931938D01*
X112420457Y-80908096D01*
X112411572Y-80883264D01*
X112405164Y-80857681D01*
X112401294Y-80831592D01*
X112400000Y-80805250D01*
X112400000Y-80267750D01*
X112401294Y-80241408D01*
X112405164Y-80215319D01*
X112411572Y-80189736D01*
X112420457Y-80164904D01*
X112431734Y-80141062D01*
X112445293Y-80118440D01*
X112461003Y-80097257D01*
X112478715Y-80077715D01*
X112498257Y-80060003D01*
X112519440Y-80044293D01*
X112542062Y-80030734D01*
X112565904Y-80019457D01*
X112590736Y-80010572D01*
X112616319Y-80004164D01*
X112642408Y-80000294D01*
X112668750Y-79999000D01*
X113631250Y-79999000D01*
X113657592Y-80000294D01*
X113657592Y-80000294D01*
G37*
D21*
X113150000Y-80536500D03*
D19*
G36*
X113657592Y-78125294D02*
X113683681Y-78129164D01*
X113709264Y-78135572D01*
X113734096Y-78144457D01*
X113757938Y-78155734D01*
X113780560Y-78169293D01*
X113801743Y-78185003D01*
X113821285Y-78202715D01*
X113838997Y-78222257D01*
X113854707Y-78243440D01*
X113868266Y-78266062D01*
X113879543Y-78289904D01*
X113888428Y-78314736D01*
X113894836Y-78340319D01*
X113898706Y-78366408D01*
X113900000Y-78392750D01*
X113900000Y-78930250D01*
X113898706Y-78956592D01*
X113894836Y-78982681D01*
X113888428Y-79008264D01*
X113879543Y-79033096D01*
X113868266Y-79056938D01*
X113854707Y-79079560D01*
X113838997Y-79100743D01*
X113821285Y-79120285D01*
X113801743Y-79137997D01*
X113780560Y-79153707D01*
X113757938Y-79167266D01*
X113734096Y-79178543D01*
X113709264Y-79187428D01*
X113683681Y-79193836D01*
X113657592Y-79197706D01*
X113631250Y-79199000D01*
X112668750Y-79199000D01*
X112642408Y-79197706D01*
X112616319Y-79193836D01*
X112590736Y-79187428D01*
X112565904Y-79178543D01*
X112542062Y-79167266D01*
X112519440Y-79153707D01*
X112498257Y-79137997D01*
X112478715Y-79120285D01*
X112461003Y-79100743D01*
X112445293Y-79079560D01*
X112431734Y-79056938D01*
X112420457Y-79033096D01*
X112411572Y-79008264D01*
X112405164Y-78982681D01*
X112401294Y-78956592D01*
X112400000Y-78930250D01*
X112400000Y-78392750D01*
X112401294Y-78366408D01*
X112405164Y-78340319D01*
X112411572Y-78314736D01*
X112420457Y-78289904D01*
X112431734Y-78266062D01*
X112445293Y-78243440D01*
X112461003Y-78222257D01*
X112478715Y-78202715D01*
X112498257Y-78185003D01*
X112519440Y-78169293D01*
X112542062Y-78155734D01*
X112565904Y-78144457D01*
X112590736Y-78135572D01*
X112616319Y-78129164D01*
X112642408Y-78125294D01*
X112668750Y-78124000D01*
X113631250Y-78124000D01*
X113657592Y-78125294D01*
X113657592Y-78125294D01*
G37*
D21*
X113150000Y-78661500D03*
G04 #@! TD*
D19*
G04 #@! TO.C,R45*
G36*
X110915142Y-81228174D02*
X110938803Y-81231684D01*
X110962007Y-81237496D01*
X110984529Y-81245554D01*
X111006153Y-81255782D01*
X111026670Y-81268079D01*
X111045883Y-81282329D01*
X111063607Y-81298393D01*
X111079671Y-81316117D01*
X111093921Y-81335330D01*
X111106218Y-81355847D01*
X111116446Y-81377471D01*
X111124504Y-81399993D01*
X111130316Y-81423197D01*
X111133826Y-81446858D01*
X111135000Y-81470750D01*
X111135000Y-81958250D01*
X111133826Y-81982142D01*
X111130316Y-82005803D01*
X111124504Y-82029007D01*
X111116446Y-82051529D01*
X111106218Y-82073153D01*
X111093921Y-82093670D01*
X111079671Y-82112883D01*
X111063607Y-82130607D01*
X111045883Y-82146671D01*
X111026670Y-82160921D01*
X111006153Y-82173218D01*
X110984529Y-82183446D01*
X110962007Y-82191504D01*
X110938803Y-82197316D01*
X110915142Y-82200826D01*
X110891250Y-82202000D01*
X110328750Y-82202000D01*
X110304858Y-82200826D01*
X110281197Y-82197316D01*
X110257993Y-82191504D01*
X110235471Y-82183446D01*
X110213847Y-82173218D01*
X110193330Y-82160921D01*
X110174117Y-82146671D01*
X110156393Y-82130607D01*
X110140329Y-82112883D01*
X110126079Y-82093670D01*
X110113782Y-82073153D01*
X110103554Y-82051529D01*
X110095496Y-82029007D01*
X110089684Y-82005803D01*
X110086174Y-81982142D01*
X110085000Y-81958250D01*
X110085000Y-81470750D01*
X110086174Y-81446858D01*
X110089684Y-81423197D01*
X110095496Y-81399993D01*
X110103554Y-81377471D01*
X110113782Y-81355847D01*
X110126079Y-81335330D01*
X110140329Y-81316117D01*
X110156393Y-81298393D01*
X110174117Y-81282329D01*
X110193330Y-81268079D01*
X110213847Y-81255782D01*
X110235471Y-81245554D01*
X110257993Y-81237496D01*
X110281197Y-81231684D01*
X110304858Y-81228174D01*
X110328750Y-81227000D01*
X110891250Y-81227000D01*
X110915142Y-81228174D01*
X110915142Y-81228174D01*
G37*
D20*
X110610000Y-81714500D03*
D19*
G36*
X110915142Y-82803174D02*
X110938803Y-82806684D01*
X110962007Y-82812496D01*
X110984529Y-82820554D01*
X111006153Y-82830782D01*
X111026670Y-82843079D01*
X111045883Y-82857329D01*
X111063607Y-82873393D01*
X111079671Y-82891117D01*
X111093921Y-82910330D01*
X111106218Y-82930847D01*
X111116446Y-82952471D01*
X111124504Y-82974993D01*
X111130316Y-82998197D01*
X111133826Y-83021858D01*
X111135000Y-83045750D01*
X111135000Y-83533250D01*
X111133826Y-83557142D01*
X111130316Y-83580803D01*
X111124504Y-83604007D01*
X111116446Y-83626529D01*
X111106218Y-83648153D01*
X111093921Y-83668670D01*
X111079671Y-83687883D01*
X111063607Y-83705607D01*
X111045883Y-83721671D01*
X111026670Y-83735921D01*
X111006153Y-83748218D01*
X110984529Y-83758446D01*
X110962007Y-83766504D01*
X110938803Y-83772316D01*
X110915142Y-83775826D01*
X110891250Y-83777000D01*
X110328750Y-83777000D01*
X110304858Y-83775826D01*
X110281197Y-83772316D01*
X110257993Y-83766504D01*
X110235471Y-83758446D01*
X110213847Y-83748218D01*
X110193330Y-83735921D01*
X110174117Y-83721671D01*
X110156393Y-83705607D01*
X110140329Y-83687883D01*
X110126079Y-83668670D01*
X110113782Y-83648153D01*
X110103554Y-83626529D01*
X110095496Y-83604007D01*
X110089684Y-83580803D01*
X110086174Y-83557142D01*
X110085000Y-83533250D01*
X110085000Y-83045750D01*
X110086174Y-83021858D01*
X110089684Y-82998197D01*
X110095496Y-82974993D01*
X110103554Y-82952471D01*
X110113782Y-82930847D01*
X110126079Y-82910330D01*
X110140329Y-82891117D01*
X110156393Y-82873393D01*
X110174117Y-82857329D01*
X110193330Y-82843079D01*
X110213847Y-82830782D01*
X110235471Y-82820554D01*
X110257993Y-82812496D01*
X110281197Y-82806684D01*
X110304858Y-82803174D01*
X110328750Y-82802000D01*
X110891250Y-82802000D01*
X110915142Y-82803174D01*
X110915142Y-82803174D01*
G37*
D20*
X110610000Y-83289500D03*
G04 #@! TD*
D19*
G04 #@! TO.C,D4*
G36*
X111117592Y-80000294D02*
X111143681Y-80004164D01*
X111169264Y-80010572D01*
X111194096Y-80019457D01*
X111217938Y-80030734D01*
X111240560Y-80044293D01*
X111261743Y-80060003D01*
X111281285Y-80077715D01*
X111298997Y-80097257D01*
X111314707Y-80118440D01*
X111328266Y-80141062D01*
X111339543Y-80164904D01*
X111348428Y-80189736D01*
X111354836Y-80215319D01*
X111358706Y-80241408D01*
X111360000Y-80267750D01*
X111360000Y-80805250D01*
X111358706Y-80831592D01*
X111354836Y-80857681D01*
X111348428Y-80883264D01*
X111339543Y-80908096D01*
X111328266Y-80931938D01*
X111314707Y-80954560D01*
X111298997Y-80975743D01*
X111281285Y-80995285D01*
X111261743Y-81012997D01*
X111240560Y-81028707D01*
X111217938Y-81042266D01*
X111194096Y-81053543D01*
X111169264Y-81062428D01*
X111143681Y-81068836D01*
X111117592Y-81072706D01*
X111091250Y-81074000D01*
X110128750Y-81074000D01*
X110102408Y-81072706D01*
X110076319Y-81068836D01*
X110050736Y-81062428D01*
X110025904Y-81053543D01*
X110002062Y-81042266D01*
X109979440Y-81028707D01*
X109958257Y-81012997D01*
X109938715Y-80995285D01*
X109921003Y-80975743D01*
X109905293Y-80954560D01*
X109891734Y-80931938D01*
X109880457Y-80908096D01*
X109871572Y-80883264D01*
X109865164Y-80857681D01*
X109861294Y-80831592D01*
X109860000Y-80805250D01*
X109860000Y-80267750D01*
X109861294Y-80241408D01*
X109865164Y-80215319D01*
X109871572Y-80189736D01*
X109880457Y-80164904D01*
X109891734Y-80141062D01*
X109905293Y-80118440D01*
X109921003Y-80097257D01*
X109938715Y-80077715D01*
X109958257Y-80060003D01*
X109979440Y-80044293D01*
X110002062Y-80030734D01*
X110025904Y-80019457D01*
X110050736Y-80010572D01*
X110076319Y-80004164D01*
X110102408Y-80000294D01*
X110128750Y-79999000D01*
X111091250Y-79999000D01*
X111117592Y-80000294D01*
X111117592Y-80000294D01*
G37*
D21*
X110610000Y-80536500D03*
D19*
G36*
X111117592Y-78125294D02*
X111143681Y-78129164D01*
X111169264Y-78135572D01*
X111194096Y-78144457D01*
X111217938Y-78155734D01*
X111240560Y-78169293D01*
X111261743Y-78185003D01*
X111281285Y-78202715D01*
X111298997Y-78222257D01*
X111314707Y-78243440D01*
X111328266Y-78266062D01*
X111339543Y-78289904D01*
X111348428Y-78314736D01*
X111354836Y-78340319D01*
X111358706Y-78366408D01*
X111360000Y-78392750D01*
X111360000Y-78930250D01*
X111358706Y-78956592D01*
X111354836Y-78982681D01*
X111348428Y-79008264D01*
X111339543Y-79033096D01*
X111328266Y-79056938D01*
X111314707Y-79079560D01*
X111298997Y-79100743D01*
X111281285Y-79120285D01*
X111261743Y-79137997D01*
X111240560Y-79153707D01*
X111217938Y-79167266D01*
X111194096Y-79178543D01*
X111169264Y-79187428D01*
X111143681Y-79193836D01*
X111117592Y-79197706D01*
X111091250Y-79199000D01*
X110128750Y-79199000D01*
X110102408Y-79197706D01*
X110076319Y-79193836D01*
X110050736Y-79187428D01*
X110025904Y-79178543D01*
X110002062Y-79167266D01*
X109979440Y-79153707D01*
X109958257Y-79137997D01*
X109938715Y-79120285D01*
X109921003Y-79100743D01*
X109905293Y-79079560D01*
X109891734Y-79056938D01*
X109880457Y-79033096D01*
X109871572Y-79008264D01*
X109865164Y-78982681D01*
X109861294Y-78956592D01*
X109860000Y-78930250D01*
X109860000Y-78392750D01*
X109861294Y-78366408D01*
X109865164Y-78340319D01*
X109871572Y-78314736D01*
X109880457Y-78289904D01*
X109891734Y-78266062D01*
X109905293Y-78243440D01*
X109921003Y-78222257D01*
X109938715Y-78202715D01*
X109958257Y-78185003D01*
X109979440Y-78169293D01*
X110002062Y-78155734D01*
X110025904Y-78144457D01*
X110050736Y-78135572D01*
X110076319Y-78129164D01*
X110102408Y-78125294D01*
X110128750Y-78124000D01*
X111091250Y-78124000D01*
X111117592Y-78125294D01*
X111117592Y-78125294D01*
G37*
D21*
X110610000Y-78661500D03*
G04 #@! TD*
D19*
G04 #@! TO.C,R46*
G36*
X108375142Y-81228174D02*
X108398803Y-81231684D01*
X108422007Y-81237496D01*
X108444529Y-81245554D01*
X108466153Y-81255782D01*
X108486670Y-81268079D01*
X108505883Y-81282329D01*
X108523607Y-81298393D01*
X108539671Y-81316117D01*
X108553921Y-81335330D01*
X108566218Y-81355847D01*
X108576446Y-81377471D01*
X108584504Y-81399993D01*
X108590316Y-81423197D01*
X108593826Y-81446858D01*
X108595000Y-81470750D01*
X108595000Y-81958250D01*
X108593826Y-81982142D01*
X108590316Y-82005803D01*
X108584504Y-82029007D01*
X108576446Y-82051529D01*
X108566218Y-82073153D01*
X108553921Y-82093670D01*
X108539671Y-82112883D01*
X108523607Y-82130607D01*
X108505883Y-82146671D01*
X108486670Y-82160921D01*
X108466153Y-82173218D01*
X108444529Y-82183446D01*
X108422007Y-82191504D01*
X108398803Y-82197316D01*
X108375142Y-82200826D01*
X108351250Y-82202000D01*
X107788750Y-82202000D01*
X107764858Y-82200826D01*
X107741197Y-82197316D01*
X107717993Y-82191504D01*
X107695471Y-82183446D01*
X107673847Y-82173218D01*
X107653330Y-82160921D01*
X107634117Y-82146671D01*
X107616393Y-82130607D01*
X107600329Y-82112883D01*
X107586079Y-82093670D01*
X107573782Y-82073153D01*
X107563554Y-82051529D01*
X107555496Y-82029007D01*
X107549684Y-82005803D01*
X107546174Y-81982142D01*
X107545000Y-81958250D01*
X107545000Y-81470750D01*
X107546174Y-81446858D01*
X107549684Y-81423197D01*
X107555496Y-81399993D01*
X107563554Y-81377471D01*
X107573782Y-81355847D01*
X107586079Y-81335330D01*
X107600329Y-81316117D01*
X107616393Y-81298393D01*
X107634117Y-81282329D01*
X107653330Y-81268079D01*
X107673847Y-81255782D01*
X107695471Y-81245554D01*
X107717993Y-81237496D01*
X107741197Y-81231684D01*
X107764858Y-81228174D01*
X107788750Y-81227000D01*
X108351250Y-81227000D01*
X108375142Y-81228174D01*
X108375142Y-81228174D01*
G37*
D20*
X108070000Y-81714500D03*
D19*
G36*
X108375142Y-82803174D02*
X108398803Y-82806684D01*
X108422007Y-82812496D01*
X108444529Y-82820554D01*
X108466153Y-82830782D01*
X108486670Y-82843079D01*
X108505883Y-82857329D01*
X108523607Y-82873393D01*
X108539671Y-82891117D01*
X108553921Y-82910330D01*
X108566218Y-82930847D01*
X108576446Y-82952471D01*
X108584504Y-82974993D01*
X108590316Y-82998197D01*
X108593826Y-83021858D01*
X108595000Y-83045750D01*
X108595000Y-83533250D01*
X108593826Y-83557142D01*
X108590316Y-83580803D01*
X108584504Y-83604007D01*
X108576446Y-83626529D01*
X108566218Y-83648153D01*
X108553921Y-83668670D01*
X108539671Y-83687883D01*
X108523607Y-83705607D01*
X108505883Y-83721671D01*
X108486670Y-83735921D01*
X108466153Y-83748218D01*
X108444529Y-83758446D01*
X108422007Y-83766504D01*
X108398803Y-83772316D01*
X108375142Y-83775826D01*
X108351250Y-83777000D01*
X107788750Y-83777000D01*
X107764858Y-83775826D01*
X107741197Y-83772316D01*
X107717993Y-83766504D01*
X107695471Y-83758446D01*
X107673847Y-83748218D01*
X107653330Y-83735921D01*
X107634117Y-83721671D01*
X107616393Y-83705607D01*
X107600329Y-83687883D01*
X107586079Y-83668670D01*
X107573782Y-83648153D01*
X107563554Y-83626529D01*
X107555496Y-83604007D01*
X107549684Y-83580803D01*
X107546174Y-83557142D01*
X107545000Y-83533250D01*
X107545000Y-83045750D01*
X107546174Y-83021858D01*
X107549684Y-82998197D01*
X107555496Y-82974993D01*
X107563554Y-82952471D01*
X107573782Y-82930847D01*
X107586079Y-82910330D01*
X107600329Y-82891117D01*
X107616393Y-82873393D01*
X107634117Y-82857329D01*
X107653330Y-82843079D01*
X107673847Y-82830782D01*
X107695471Y-82820554D01*
X107717993Y-82812496D01*
X107741197Y-82806684D01*
X107764858Y-82803174D01*
X107788750Y-82802000D01*
X108351250Y-82802000D01*
X108375142Y-82803174D01*
X108375142Y-82803174D01*
G37*
D20*
X108070000Y-83289500D03*
G04 #@! TD*
D19*
G04 #@! TO.C,D5*
G36*
X108577592Y-80000294D02*
X108603681Y-80004164D01*
X108629264Y-80010572D01*
X108654096Y-80019457D01*
X108677938Y-80030734D01*
X108700560Y-80044293D01*
X108721743Y-80060003D01*
X108741285Y-80077715D01*
X108758997Y-80097257D01*
X108774707Y-80118440D01*
X108788266Y-80141062D01*
X108799543Y-80164904D01*
X108808428Y-80189736D01*
X108814836Y-80215319D01*
X108818706Y-80241408D01*
X108820000Y-80267750D01*
X108820000Y-80805250D01*
X108818706Y-80831592D01*
X108814836Y-80857681D01*
X108808428Y-80883264D01*
X108799543Y-80908096D01*
X108788266Y-80931938D01*
X108774707Y-80954560D01*
X108758997Y-80975743D01*
X108741285Y-80995285D01*
X108721743Y-81012997D01*
X108700560Y-81028707D01*
X108677938Y-81042266D01*
X108654096Y-81053543D01*
X108629264Y-81062428D01*
X108603681Y-81068836D01*
X108577592Y-81072706D01*
X108551250Y-81074000D01*
X107588750Y-81074000D01*
X107562408Y-81072706D01*
X107536319Y-81068836D01*
X107510736Y-81062428D01*
X107485904Y-81053543D01*
X107462062Y-81042266D01*
X107439440Y-81028707D01*
X107418257Y-81012997D01*
X107398715Y-80995285D01*
X107381003Y-80975743D01*
X107365293Y-80954560D01*
X107351734Y-80931938D01*
X107340457Y-80908096D01*
X107331572Y-80883264D01*
X107325164Y-80857681D01*
X107321294Y-80831592D01*
X107320000Y-80805250D01*
X107320000Y-80267750D01*
X107321294Y-80241408D01*
X107325164Y-80215319D01*
X107331572Y-80189736D01*
X107340457Y-80164904D01*
X107351734Y-80141062D01*
X107365293Y-80118440D01*
X107381003Y-80097257D01*
X107398715Y-80077715D01*
X107418257Y-80060003D01*
X107439440Y-80044293D01*
X107462062Y-80030734D01*
X107485904Y-80019457D01*
X107510736Y-80010572D01*
X107536319Y-80004164D01*
X107562408Y-80000294D01*
X107588750Y-79999000D01*
X108551250Y-79999000D01*
X108577592Y-80000294D01*
X108577592Y-80000294D01*
G37*
D21*
X108070000Y-80536500D03*
D19*
G36*
X108577592Y-78125294D02*
X108603681Y-78129164D01*
X108629264Y-78135572D01*
X108654096Y-78144457D01*
X108677938Y-78155734D01*
X108700560Y-78169293D01*
X108721743Y-78185003D01*
X108741285Y-78202715D01*
X108758997Y-78222257D01*
X108774707Y-78243440D01*
X108788266Y-78266062D01*
X108799543Y-78289904D01*
X108808428Y-78314736D01*
X108814836Y-78340319D01*
X108818706Y-78366408D01*
X108820000Y-78392750D01*
X108820000Y-78930250D01*
X108818706Y-78956592D01*
X108814836Y-78982681D01*
X108808428Y-79008264D01*
X108799543Y-79033096D01*
X108788266Y-79056938D01*
X108774707Y-79079560D01*
X108758997Y-79100743D01*
X108741285Y-79120285D01*
X108721743Y-79137997D01*
X108700560Y-79153707D01*
X108677938Y-79167266D01*
X108654096Y-79178543D01*
X108629264Y-79187428D01*
X108603681Y-79193836D01*
X108577592Y-79197706D01*
X108551250Y-79199000D01*
X107588750Y-79199000D01*
X107562408Y-79197706D01*
X107536319Y-79193836D01*
X107510736Y-79187428D01*
X107485904Y-79178543D01*
X107462062Y-79167266D01*
X107439440Y-79153707D01*
X107418257Y-79137997D01*
X107398715Y-79120285D01*
X107381003Y-79100743D01*
X107365293Y-79079560D01*
X107351734Y-79056938D01*
X107340457Y-79033096D01*
X107331572Y-79008264D01*
X107325164Y-78982681D01*
X107321294Y-78956592D01*
X107320000Y-78930250D01*
X107320000Y-78392750D01*
X107321294Y-78366408D01*
X107325164Y-78340319D01*
X107331572Y-78314736D01*
X107340457Y-78289904D01*
X107351734Y-78266062D01*
X107365293Y-78243440D01*
X107381003Y-78222257D01*
X107398715Y-78202715D01*
X107418257Y-78185003D01*
X107439440Y-78169293D01*
X107462062Y-78155734D01*
X107485904Y-78144457D01*
X107510736Y-78135572D01*
X107536319Y-78129164D01*
X107562408Y-78125294D01*
X107588750Y-78124000D01*
X108551250Y-78124000D01*
X108577592Y-78125294D01*
X108577592Y-78125294D01*
G37*
D21*
X108070000Y-78661500D03*
G04 #@! TD*
D19*
G04 #@! TO.C,R47*
G36*
X105835142Y-81228174D02*
X105858803Y-81231684D01*
X105882007Y-81237496D01*
X105904529Y-81245554D01*
X105926153Y-81255782D01*
X105946670Y-81268079D01*
X105965883Y-81282329D01*
X105983607Y-81298393D01*
X105999671Y-81316117D01*
X106013921Y-81335330D01*
X106026218Y-81355847D01*
X106036446Y-81377471D01*
X106044504Y-81399993D01*
X106050316Y-81423197D01*
X106053826Y-81446858D01*
X106055000Y-81470750D01*
X106055000Y-81958250D01*
X106053826Y-81982142D01*
X106050316Y-82005803D01*
X106044504Y-82029007D01*
X106036446Y-82051529D01*
X106026218Y-82073153D01*
X106013921Y-82093670D01*
X105999671Y-82112883D01*
X105983607Y-82130607D01*
X105965883Y-82146671D01*
X105946670Y-82160921D01*
X105926153Y-82173218D01*
X105904529Y-82183446D01*
X105882007Y-82191504D01*
X105858803Y-82197316D01*
X105835142Y-82200826D01*
X105811250Y-82202000D01*
X105248750Y-82202000D01*
X105224858Y-82200826D01*
X105201197Y-82197316D01*
X105177993Y-82191504D01*
X105155471Y-82183446D01*
X105133847Y-82173218D01*
X105113330Y-82160921D01*
X105094117Y-82146671D01*
X105076393Y-82130607D01*
X105060329Y-82112883D01*
X105046079Y-82093670D01*
X105033782Y-82073153D01*
X105023554Y-82051529D01*
X105015496Y-82029007D01*
X105009684Y-82005803D01*
X105006174Y-81982142D01*
X105005000Y-81958250D01*
X105005000Y-81470750D01*
X105006174Y-81446858D01*
X105009684Y-81423197D01*
X105015496Y-81399993D01*
X105023554Y-81377471D01*
X105033782Y-81355847D01*
X105046079Y-81335330D01*
X105060329Y-81316117D01*
X105076393Y-81298393D01*
X105094117Y-81282329D01*
X105113330Y-81268079D01*
X105133847Y-81255782D01*
X105155471Y-81245554D01*
X105177993Y-81237496D01*
X105201197Y-81231684D01*
X105224858Y-81228174D01*
X105248750Y-81227000D01*
X105811250Y-81227000D01*
X105835142Y-81228174D01*
X105835142Y-81228174D01*
G37*
D20*
X105530000Y-81714500D03*
D19*
G36*
X105835142Y-82803174D02*
X105858803Y-82806684D01*
X105882007Y-82812496D01*
X105904529Y-82820554D01*
X105926153Y-82830782D01*
X105946670Y-82843079D01*
X105965883Y-82857329D01*
X105983607Y-82873393D01*
X105999671Y-82891117D01*
X106013921Y-82910330D01*
X106026218Y-82930847D01*
X106036446Y-82952471D01*
X106044504Y-82974993D01*
X106050316Y-82998197D01*
X106053826Y-83021858D01*
X106055000Y-83045750D01*
X106055000Y-83533250D01*
X106053826Y-83557142D01*
X106050316Y-83580803D01*
X106044504Y-83604007D01*
X106036446Y-83626529D01*
X106026218Y-83648153D01*
X106013921Y-83668670D01*
X105999671Y-83687883D01*
X105983607Y-83705607D01*
X105965883Y-83721671D01*
X105946670Y-83735921D01*
X105926153Y-83748218D01*
X105904529Y-83758446D01*
X105882007Y-83766504D01*
X105858803Y-83772316D01*
X105835142Y-83775826D01*
X105811250Y-83777000D01*
X105248750Y-83777000D01*
X105224858Y-83775826D01*
X105201197Y-83772316D01*
X105177993Y-83766504D01*
X105155471Y-83758446D01*
X105133847Y-83748218D01*
X105113330Y-83735921D01*
X105094117Y-83721671D01*
X105076393Y-83705607D01*
X105060329Y-83687883D01*
X105046079Y-83668670D01*
X105033782Y-83648153D01*
X105023554Y-83626529D01*
X105015496Y-83604007D01*
X105009684Y-83580803D01*
X105006174Y-83557142D01*
X105005000Y-83533250D01*
X105005000Y-83045750D01*
X105006174Y-83021858D01*
X105009684Y-82998197D01*
X105015496Y-82974993D01*
X105023554Y-82952471D01*
X105033782Y-82930847D01*
X105046079Y-82910330D01*
X105060329Y-82891117D01*
X105076393Y-82873393D01*
X105094117Y-82857329D01*
X105113330Y-82843079D01*
X105133847Y-82830782D01*
X105155471Y-82820554D01*
X105177993Y-82812496D01*
X105201197Y-82806684D01*
X105224858Y-82803174D01*
X105248750Y-82802000D01*
X105811250Y-82802000D01*
X105835142Y-82803174D01*
X105835142Y-82803174D01*
G37*
D20*
X105530000Y-83289500D03*
G04 #@! TD*
D19*
G04 #@! TO.C,D6*
G36*
X106052592Y-80000294D02*
X106078681Y-80004164D01*
X106104264Y-80010572D01*
X106129096Y-80019457D01*
X106152938Y-80030734D01*
X106175560Y-80044293D01*
X106196743Y-80060003D01*
X106216285Y-80077715D01*
X106233997Y-80097257D01*
X106249707Y-80118440D01*
X106263266Y-80141062D01*
X106274543Y-80164904D01*
X106283428Y-80189736D01*
X106289836Y-80215319D01*
X106293706Y-80241408D01*
X106295000Y-80267750D01*
X106295000Y-80805250D01*
X106293706Y-80831592D01*
X106289836Y-80857681D01*
X106283428Y-80883264D01*
X106274543Y-80908096D01*
X106263266Y-80931938D01*
X106249707Y-80954560D01*
X106233997Y-80975743D01*
X106216285Y-80995285D01*
X106196743Y-81012997D01*
X106175560Y-81028707D01*
X106152938Y-81042266D01*
X106129096Y-81053543D01*
X106104264Y-81062428D01*
X106078681Y-81068836D01*
X106052592Y-81072706D01*
X106026250Y-81074000D01*
X105063750Y-81074000D01*
X105037408Y-81072706D01*
X105011319Y-81068836D01*
X104985736Y-81062428D01*
X104960904Y-81053543D01*
X104937062Y-81042266D01*
X104914440Y-81028707D01*
X104893257Y-81012997D01*
X104873715Y-80995285D01*
X104856003Y-80975743D01*
X104840293Y-80954560D01*
X104826734Y-80931938D01*
X104815457Y-80908096D01*
X104806572Y-80883264D01*
X104800164Y-80857681D01*
X104796294Y-80831592D01*
X104795000Y-80805250D01*
X104795000Y-80267750D01*
X104796294Y-80241408D01*
X104800164Y-80215319D01*
X104806572Y-80189736D01*
X104815457Y-80164904D01*
X104826734Y-80141062D01*
X104840293Y-80118440D01*
X104856003Y-80097257D01*
X104873715Y-80077715D01*
X104893257Y-80060003D01*
X104914440Y-80044293D01*
X104937062Y-80030734D01*
X104960904Y-80019457D01*
X104985736Y-80010572D01*
X105011319Y-80004164D01*
X105037408Y-80000294D01*
X105063750Y-79999000D01*
X106026250Y-79999000D01*
X106052592Y-80000294D01*
X106052592Y-80000294D01*
G37*
D21*
X105545000Y-80536500D03*
D19*
G36*
X106052592Y-78125294D02*
X106078681Y-78129164D01*
X106104264Y-78135572D01*
X106129096Y-78144457D01*
X106152938Y-78155734D01*
X106175560Y-78169293D01*
X106196743Y-78185003D01*
X106216285Y-78202715D01*
X106233997Y-78222257D01*
X106249707Y-78243440D01*
X106263266Y-78266062D01*
X106274543Y-78289904D01*
X106283428Y-78314736D01*
X106289836Y-78340319D01*
X106293706Y-78366408D01*
X106295000Y-78392750D01*
X106295000Y-78930250D01*
X106293706Y-78956592D01*
X106289836Y-78982681D01*
X106283428Y-79008264D01*
X106274543Y-79033096D01*
X106263266Y-79056938D01*
X106249707Y-79079560D01*
X106233997Y-79100743D01*
X106216285Y-79120285D01*
X106196743Y-79137997D01*
X106175560Y-79153707D01*
X106152938Y-79167266D01*
X106129096Y-79178543D01*
X106104264Y-79187428D01*
X106078681Y-79193836D01*
X106052592Y-79197706D01*
X106026250Y-79199000D01*
X105063750Y-79199000D01*
X105037408Y-79197706D01*
X105011319Y-79193836D01*
X104985736Y-79187428D01*
X104960904Y-79178543D01*
X104937062Y-79167266D01*
X104914440Y-79153707D01*
X104893257Y-79137997D01*
X104873715Y-79120285D01*
X104856003Y-79100743D01*
X104840293Y-79079560D01*
X104826734Y-79056938D01*
X104815457Y-79033096D01*
X104806572Y-79008264D01*
X104800164Y-78982681D01*
X104796294Y-78956592D01*
X104795000Y-78930250D01*
X104795000Y-78392750D01*
X104796294Y-78366408D01*
X104800164Y-78340319D01*
X104806572Y-78314736D01*
X104815457Y-78289904D01*
X104826734Y-78266062D01*
X104840293Y-78243440D01*
X104856003Y-78222257D01*
X104873715Y-78202715D01*
X104893257Y-78185003D01*
X104914440Y-78169293D01*
X104937062Y-78155734D01*
X104960904Y-78144457D01*
X104985736Y-78135572D01*
X105011319Y-78129164D01*
X105037408Y-78125294D01*
X105063750Y-78124000D01*
X106026250Y-78124000D01*
X106052592Y-78125294D01*
X106052592Y-78125294D01*
G37*
D21*
X105545000Y-78661500D03*
G04 #@! TD*
D19*
G04 #@! TO.C,R48*
G36*
X103295142Y-81228174D02*
X103318803Y-81231684D01*
X103342007Y-81237496D01*
X103364529Y-81245554D01*
X103386153Y-81255782D01*
X103406670Y-81268079D01*
X103425883Y-81282329D01*
X103443607Y-81298393D01*
X103459671Y-81316117D01*
X103473921Y-81335330D01*
X103486218Y-81355847D01*
X103496446Y-81377471D01*
X103504504Y-81399993D01*
X103510316Y-81423197D01*
X103513826Y-81446858D01*
X103515000Y-81470750D01*
X103515000Y-81958250D01*
X103513826Y-81982142D01*
X103510316Y-82005803D01*
X103504504Y-82029007D01*
X103496446Y-82051529D01*
X103486218Y-82073153D01*
X103473921Y-82093670D01*
X103459671Y-82112883D01*
X103443607Y-82130607D01*
X103425883Y-82146671D01*
X103406670Y-82160921D01*
X103386153Y-82173218D01*
X103364529Y-82183446D01*
X103342007Y-82191504D01*
X103318803Y-82197316D01*
X103295142Y-82200826D01*
X103271250Y-82202000D01*
X102708750Y-82202000D01*
X102684858Y-82200826D01*
X102661197Y-82197316D01*
X102637993Y-82191504D01*
X102615471Y-82183446D01*
X102593847Y-82173218D01*
X102573330Y-82160921D01*
X102554117Y-82146671D01*
X102536393Y-82130607D01*
X102520329Y-82112883D01*
X102506079Y-82093670D01*
X102493782Y-82073153D01*
X102483554Y-82051529D01*
X102475496Y-82029007D01*
X102469684Y-82005803D01*
X102466174Y-81982142D01*
X102465000Y-81958250D01*
X102465000Y-81470750D01*
X102466174Y-81446858D01*
X102469684Y-81423197D01*
X102475496Y-81399993D01*
X102483554Y-81377471D01*
X102493782Y-81355847D01*
X102506079Y-81335330D01*
X102520329Y-81316117D01*
X102536393Y-81298393D01*
X102554117Y-81282329D01*
X102573330Y-81268079D01*
X102593847Y-81255782D01*
X102615471Y-81245554D01*
X102637993Y-81237496D01*
X102661197Y-81231684D01*
X102684858Y-81228174D01*
X102708750Y-81227000D01*
X103271250Y-81227000D01*
X103295142Y-81228174D01*
X103295142Y-81228174D01*
G37*
D20*
X102990000Y-81714500D03*
D19*
G36*
X103295142Y-82803174D02*
X103318803Y-82806684D01*
X103342007Y-82812496D01*
X103364529Y-82820554D01*
X103386153Y-82830782D01*
X103406670Y-82843079D01*
X103425883Y-82857329D01*
X103443607Y-82873393D01*
X103459671Y-82891117D01*
X103473921Y-82910330D01*
X103486218Y-82930847D01*
X103496446Y-82952471D01*
X103504504Y-82974993D01*
X103510316Y-82998197D01*
X103513826Y-83021858D01*
X103515000Y-83045750D01*
X103515000Y-83533250D01*
X103513826Y-83557142D01*
X103510316Y-83580803D01*
X103504504Y-83604007D01*
X103496446Y-83626529D01*
X103486218Y-83648153D01*
X103473921Y-83668670D01*
X103459671Y-83687883D01*
X103443607Y-83705607D01*
X103425883Y-83721671D01*
X103406670Y-83735921D01*
X103386153Y-83748218D01*
X103364529Y-83758446D01*
X103342007Y-83766504D01*
X103318803Y-83772316D01*
X103295142Y-83775826D01*
X103271250Y-83777000D01*
X102708750Y-83777000D01*
X102684858Y-83775826D01*
X102661197Y-83772316D01*
X102637993Y-83766504D01*
X102615471Y-83758446D01*
X102593847Y-83748218D01*
X102573330Y-83735921D01*
X102554117Y-83721671D01*
X102536393Y-83705607D01*
X102520329Y-83687883D01*
X102506079Y-83668670D01*
X102493782Y-83648153D01*
X102483554Y-83626529D01*
X102475496Y-83604007D01*
X102469684Y-83580803D01*
X102466174Y-83557142D01*
X102465000Y-83533250D01*
X102465000Y-83045750D01*
X102466174Y-83021858D01*
X102469684Y-82998197D01*
X102475496Y-82974993D01*
X102483554Y-82952471D01*
X102493782Y-82930847D01*
X102506079Y-82910330D01*
X102520329Y-82891117D01*
X102536393Y-82873393D01*
X102554117Y-82857329D01*
X102573330Y-82843079D01*
X102593847Y-82830782D01*
X102615471Y-82820554D01*
X102637993Y-82812496D01*
X102661197Y-82806684D01*
X102684858Y-82803174D01*
X102708750Y-82802000D01*
X103271250Y-82802000D01*
X103295142Y-82803174D01*
X103295142Y-82803174D01*
G37*
D20*
X102990000Y-83289500D03*
G04 #@! TD*
D19*
G04 #@! TO.C,D7*
G36*
X103497592Y-80000294D02*
X103523681Y-80004164D01*
X103549264Y-80010572D01*
X103574096Y-80019457D01*
X103597938Y-80030734D01*
X103620560Y-80044293D01*
X103641743Y-80060003D01*
X103661285Y-80077715D01*
X103678997Y-80097257D01*
X103694707Y-80118440D01*
X103708266Y-80141062D01*
X103719543Y-80164904D01*
X103728428Y-80189736D01*
X103734836Y-80215319D01*
X103738706Y-80241408D01*
X103740000Y-80267750D01*
X103740000Y-80805250D01*
X103738706Y-80831592D01*
X103734836Y-80857681D01*
X103728428Y-80883264D01*
X103719543Y-80908096D01*
X103708266Y-80931938D01*
X103694707Y-80954560D01*
X103678997Y-80975743D01*
X103661285Y-80995285D01*
X103641743Y-81012997D01*
X103620560Y-81028707D01*
X103597938Y-81042266D01*
X103574096Y-81053543D01*
X103549264Y-81062428D01*
X103523681Y-81068836D01*
X103497592Y-81072706D01*
X103471250Y-81074000D01*
X102508750Y-81074000D01*
X102482408Y-81072706D01*
X102456319Y-81068836D01*
X102430736Y-81062428D01*
X102405904Y-81053543D01*
X102382062Y-81042266D01*
X102359440Y-81028707D01*
X102338257Y-81012997D01*
X102318715Y-80995285D01*
X102301003Y-80975743D01*
X102285293Y-80954560D01*
X102271734Y-80931938D01*
X102260457Y-80908096D01*
X102251572Y-80883264D01*
X102245164Y-80857681D01*
X102241294Y-80831592D01*
X102240000Y-80805250D01*
X102240000Y-80267750D01*
X102241294Y-80241408D01*
X102245164Y-80215319D01*
X102251572Y-80189736D01*
X102260457Y-80164904D01*
X102271734Y-80141062D01*
X102285293Y-80118440D01*
X102301003Y-80097257D01*
X102318715Y-80077715D01*
X102338257Y-80060003D01*
X102359440Y-80044293D01*
X102382062Y-80030734D01*
X102405904Y-80019457D01*
X102430736Y-80010572D01*
X102456319Y-80004164D01*
X102482408Y-80000294D01*
X102508750Y-79999000D01*
X103471250Y-79999000D01*
X103497592Y-80000294D01*
X103497592Y-80000294D01*
G37*
D21*
X102990000Y-80536500D03*
D19*
G36*
X103497592Y-78125294D02*
X103523681Y-78129164D01*
X103549264Y-78135572D01*
X103574096Y-78144457D01*
X103597938Y-78155734D01*
X103620560Y-78169293D01*
X103641743Y-78185003D01*
X103661285Y-78202715D01*
X103678997Y-78222257D01*
X103694707Y-78243440D01*
X103708266Y-78266062D01*
X103719543Y-78289904D01*
X103728428Y-78314736D01*
X103734836Y-78340319D01*
X103738706Y-78366408D01*
X103740000Y-78392750D01*
X103740000Y-78930250D01*
X103738706Y-78956592D01*
X103734836Y-78982681D01*
X103728428Y-79008264D01*
X103719543Y-79033096D01*
X103708266Y-79056938D01*
X103694707Y-79079560D01*
X103678997Y-79100743D01*
X103661285Y-79120285D01*
X103641743Y-79137997D01*
X103620560Y-79153707D01*
X103597938Y-79167266D01*
X103574096Y-79178543D01*
X103549264Y-79187428D01*
X103523681Y-79193836D01*
X103497592Y-79197706D01*
X103471250Y-79199000D01*
X102508750Y-79199000D01*
X102482408Y-79197706D01*
X102456319Y-79193836D01*
X102430736Y-79187428D01*
X102405904Y-79178543D01*
X102382062Y-79167266D01*
X102359440Y-79153707D01*
X102338257Y-79137997D01*
X102318715Y-79120285D01*
X102301003Y-79100743D01*
X102285293Y-79079560D01*
X102271734Y-79056938D01*
X102260457Y-79033096D01*
X102251572Y-79008264D01*
X102245164Y-78982681D01*
X102241294Y-78956592D01*
X102240000Y-78930250D01*
X102240000Y-78392750D01*
X102241294Y-78366408D01*
X102245164Y-78340319D01*
X102251572Y-78314736D01*
X102260457Y-78289904D01*
X102271734Y-78266062D01*
X102285293Y-78243440D01*
X102301003Y-78222257D01*
X102318715Y-78202715D01*
X102338257Y-78185003D01*
X102359440Y-78169293D01*
X102382062Y-78155734D01*
X102405904Y-78144457D01*
X102430736Y-78135572D01*
X102456319Y-78129164D01*
X102482408Y-78125294D01*
X102508750Y-78124000D01*
X103471250Y-78124000D01*
X103497592Y-78125294D01*
X103497592Y-78125294D01*
G37*
D21*
X102990000Y-78661500D03*
G04 #@! TD*
D22*
G04 #@! TO.C,SW1*
X156330000Y-69815000D03*
X163950000Y-78425000D03*
X158870000Y-69815000D03*
X161410000Y-78425000D03*
X161410000Y-69815000D03*
X158870000Y-78425000D03*
X163950000Y-69815000D03*
X156330000Y-78425000D03*
G04 #@! TD*
D23*
G04 #@! TO.C,US1*
X108080000Y-63325000D03*
X115680000Y-63325000D03*
D24*
X110580000Y-66000000D03*
X111230000Y-66000000D03*
X111880000Y-66000000D03*
X112530000Y-66000000D03*
X113180000Y-66000000D03*
D25*
X110680000Y-63325000D03*
X113080000Y-63325000D03*
D26*
X108780000Y-65875000D03*
X114980000Y-65875000D03*
G04 #@! TD*
D27*
G04 #@! TO.C,AUDIO1*
X120668000Y-62618000D03*
D28*
X120668000Y-65418000D03*
D29*
X120668000Y-74818000D03*
X125218000Y-78918000D03*
D28*
X128268000Y-67318000D03*
D27*
X128268000Y-64518000D03*
D30*
X124468000Y-66518000D03*
X124468000Y-73518000D03*
G04 #@! TD*
D31*
G04 #@! TO.C,GPDI1*
X149546000Y-70312000D03*
X149046000Y-70312000D03*
X148546000Y-70312000D03*
X148046000Y-70312000D03*
X147546000Y-70312000D03*
X147046000Y-70312000D03*
X146546000Y-70312000D03*
X146046000Y-70312000D03*
X145546000Y-70312000D03*
X145046000Y-70312000D03*
X144546000Y-70312000D03*
X144046000Y-70312000D03*
X143546000Y-70312000D03*
X143046000Y-70312000D03*
X142546000Y-70312000D03*
X142046000Y-70312000D03*
X141546000Y-70312000D03*
X141046000Y-70312000D03*
X140546000Y-70312000D03*
D32*
X152546000Y-69312000D03*
X138046000Y-69312000D03*
X153146000Y-64412000D03*
X137446000Y-64412000D03*
G04 #@! TD*
D33*
G04 #@! TO.C,SD1*
X118250000Y-105250000D03*
X117150000Y-105250000D03*
X116050000Y-105250000D03*
X114950000Y-105250000D03*
X113850000Y-105250000D03*
X112750000Y-105250000D03*
X111650000Y-105250000D03*
X110550000Y-105250000D03*
D34*
X121925000Y-109550000D03*
X108175000Y-97850000D03*
D35*
X108175000Y-107850000D03*
X121925000Y-107850000D03*
X121925000Y-99550000D03*
X108175000Y-99550000D03*
G04 #@! TD*
D36*
G04 #@! TO.C,Y1*
X108212000Y-70160000D03*
X103132000Y-70160000D03*
X103132000Y-74560000D03*
X108212000Y-74560000D03*
G04 #@! TD*
D37*
G04 #@! TO.C,OLED1*
X147440000Y-100790000D03*
D38*
X144900000Y-100790000D03*
X142360000Y-100790000D03*
X139820000Y-100790000D03*
X137280000Y-100790000D03*
X134740000Y-100790000D03*
X132200000Y-100790000D03*
G04 #@! TD*
D39*
G04 #@! TO.C,J1*
X97910000Y-62690000D03*
X95370000Y-62690000D03*
D40*
X97910000Y-65230000D03*
X95370000Y-65230000D03*
D39*
X97910000Y-67770000D03*
X95370000Y-67770000D03*
X97910000Y-70310000D03*
X95370000Y-70310000D03*
X97910000Y-72850000D03*
X95370000Y-72850000D03*
X97910000Y-75390000D03*
X95370000Y-75390000D03*
X97910000Y-77930000D03*
X95370000Y-77930000D03*
X97910000Y-80470000D03*
X95370000Y-80470000D03*
X97910000Y-83010000D03*
X95370000Y-83010000D03*
X97910000Y-85550000D03*
X95370000Y-85550000D03*
D40*
X97910000Y-88090000D03*
X95370000Y-88090000D03*
D39*
X97910000Y-90630000D03*
X95370000Y-90630000D03*
X97910000Y-93170000D03*
X95370000Y-93170000D03*
X97910000Y-95710000D03*
X95370000Y-95710000D03*
X97910000Y-98250000D03*
X95370000Y-98250000D03*
X97910000Y-100790000D03*
X95370000Y-100790000D03*
X97910000Y-103330000D03*
X95370000Y-103330000D03*
X97910000Y-105870000D03*
X95370000Y-105870000D03*
D40*
X97910000Y-108410000D03*
X95370000Y-108410000D03*
D39*
X97910000Y-110950000D03*
X95370000Y-110950000D03*
G04 #@! TD*
G04 #@! TO.C,J2*
X184270000Y-110950000D03*
X186810000Y-110950000D03*
D40*
X184270000Y-108410000D03*
X186810000Y-108410000D03*
D39*
X184270000Y-105870000D03*
X186810000Y-105870000D03*
X184270000Y-103330000D03*
X186810000Y-103330000D03*
X184270000Y-100790000D03*
X186810000Y-100790000D03*
X184270000Y-98250000D03*
X186810000Y-98250000D03*
X184270000Y-95710000D03*
X186810000Y-95710000D03*
X184270000Y-93170000D03*
X186810000Y-93170000D03*
X184270000Y-90630000D03*
X186810000Y-90630000D03*
X184270000Y-88090000D03*
X186810000Y-88090000D03*
D40*
X184270000Y-85550000D03*
X186810000Y-85550000D03*
D39*
X184270000Y-83010000D03*
X186810000Y-83010000D03*
X184270000Y-80470000D03*
X186810000Y-80470000D03*
X184270000Y-77930000D03*
X186810000Y-77930000D03*
X184270000Y-75390000D03*
X186810000Y-75390000D03*
X184270000Y-72850000D03*
X186810000Y-72850000D03*
X184270000Y-70310000D03*
X186810000Y-70310000D03*
X184270000Y-67770000D03*
X186810000Y-67770000D03*
D40*
X184270000Y-65230000D03*
X186810000Y-65230000D03*
D39*
X184270000Y-62690000D03*
X186810000Y-62690000D03*
G04 #@! TD*
D41*
G04 #@! TO.C,H1*
X102990000Y-108410000D03*
G04 #@! TD*
G04 #@! TO.C,H2*
X179190000Y-108410000D03*
G04 #@! TD*
G04 #@! TO.C,H3*
X179190000Y-65230000D03*
G04 #@! TD*
G04 #@! TO.C,H4*
X102990000Y-65230000D03*
G04 #@! TD*
D40*
G04 #@! TO.C,J4*
X140455000Y-104600000D03*
D39*
X137915000Y-104600000D03*
X140455000Y-107140000D03*
X137915000Y-107140000D03*
X140455000Y-109680000D03*
X137915000Y-109680000D03*
G04 #@! TD*
D42*
G04 #@! TO.C,J3*
X105530000Y-95710000D03*
D43*
X102990000Y-95710000D03*
G04 #@! TD*
D42*
G04 #@! TO.C,J5*
X130056000Y-71725000D03*
D43*
X132596000Y-71725000D03*
X135136000Y-71725000D03*
G04 #@! TD*
D44*
G04 #@! TO.C,RV2*
X131531500Y-69566000D03*
X129596500Y-69566000D03*
G04 #@! TD*
G04 #@! TO.C,RV3*
X133279500Y-69566000D03*
X135214500Y-69566000D03*
G04 #@! TD*
D26*
G04 #@! TO.C,US2*
X173400000Y-65875000D03*
X167200000Y-65875000D03*
D25*
X171500000Y-63325000D03*
X169100000Y-63325000D03*
D24*
X171600000Y-66000000D03*
X170950000Y-66000000D03*
X170300000Y-66000000D03*
X169650000Y-66000000D03*
X169000000Y-66000000D03*
D23*
X174100000Y-63325000D03*
X166500000Y-63325000D03*
G04 #@! TD*
D45*
G04 #@! TO.C,B0*
X175550000Y-71870000D03*
X175550000Y-76370000D03*
X167590000Y-76370000D03*
X167590000Y-71870000D03*
G04 #@! TD*
G04 #@! TO.C,B1*
X109510000Y-91610000D03*
X109510000Y-87110000D03*
X101550000Y-87110000D03*
X101550000Y-91610000D03*
G04 #@! TD*
G04 #@! TO.C,B2*
X112980000Y-91610000D03*
X112980000Y-87110000D03*
X120940000Y-87110000D03*
X120940000Y-91610000D03*
G04 #@! TD*
G04 #@! TO.C,B3*
X164120000Y-101770000D03*
X164120000Y-97270000D03*
X156160000Y-97270000D03*
X156160000Y-101770000D03*
G04 #@! TD*
G04 #@! TO.C,B4*
X164120000Y-106160000D03*
X164120000Y-110660000D03*
X156160000Y-110660000D03*
X156160000Y-106160000D03*
G04 #@! TD*
G04 #@! TO.C,B5*
X144730000Y-106160000D03*
X144730000Y-110660000D03*
X152690000Y-110660000D03*
X152690000Y-106160000D03*
G04 #@! TD*
G04 #@! TO.C,B6*
X175550000Y-106160000D03*
X175550000Y-110660000D03*
X167590000Y-110660000D03*
X167590000Y-106160000D03*
G04 #@! TD*
M02*
