M48
;DRILL file {KiCad 4.0.5+dfsg1-4} date Wed May 17 15:07:04 2017
;FORMAT={-:-/ absolute / inch / decimal}
FMAT,2
INCH,TZ
T1C0.008
T2C0.010
T3C0.016
T4C0.020
T5C0.031
T6C0.040
T7C0.126
T8C0.067
%
G90
G05
M72
T1
X3.9402Y-4.1024
X3.9558Y-3.2387
X4.0031Y-2.9134
X4.1528Y-3.5669
X4.1764Y-3.0157
X4.3047Y-3.0681
X4.326Y-2.8425
X4.3417Y-4.1339
X4.3516Y-4.3213
X4.3732Y-4.1732
X4.3791Y-2.7175
X4.4047Y-2.7181
X4.4297Y-3.2681
X4.4297Y-3.3931
X4.4463Y-3.9112
X4.452Y-3.4961
X4.4535Y-3.0176
X4.5547Y-3.0713
X4.6111Y-3.8511
X4.6776Y-2.4709
X4.6789Y-3.7598
X4.7047Y-3.0681
X4.7413Y-3.8209
X4.7591Y-3.5827
X4.7799Y-3.5682
X4.885Y-4.3942
X4.8899Y-4.2208
X4.8919Y-4.1725
X4.9538Y-3.6792
X5.0253Y-3.1242
X5.0349Y-3.4684
X5.0381Y-3.3375
X5.0477Y-3.3044
X5.0539Y-3.513
X5.0567Y-3.9683
X5.0597Y-3.11
X5.0618Y-3.0894
X5.0628Y-3.0464
X5.0651Y-3.3367
X5.0667Y-3.3161
X5.07Y-3.2583
X5.0713Y-3.3729
X5.0722Y-3.6086
X5.073Y-3.2788
X5.0825Y-3.4271
X5.0871Y-3.523
X5.0898Y-3.6693
X5.0927Y-3.612
X5.096Y-3.2803
X5.0968Y-3.3515
X5.1003Y-3.3006
X5.1009Y-4.1213
X5.1021Y-3.411
X5.1055Y-4.1969
X5.1066Y-3.5966
X5.1108Y-3.6422
X5.1134Y-4.1024
X5.123Y-3.6777
X5.1249Y-3.1653
X5.1499Y-3.758
X5.1512Y-4.0691
X5.1543Y-3.0607
X5.1546Y-2.6425
X5.1583Y-4.0301
X5.1586Y-3.8382
X5.1646Y-3.1693
X5.1675Y-3.3957
X5.1685Y-3.5197
X5.1753Y-4.0668
X5.1797Y-3.0626
X5.1921Y-3.1181
X5.1999Y-3.5818
X5.1999Y-3.3943
X5.2Y-3.3611
X5.2Y-3.3269
X5.2Y-3.2047
X5.2Y-3.2354
X5.2Y-3.4252
X5.2Y-3.5214
X5.2Y-3.6457
X5.2Y-3.6772
X5.2Y-3.7087
X5.2002Y-3.2668
X5.2015Y-3.3018
X5.2051Y-3.0857
X5.2059Y-4.3317
X5.2125Y-3.04
X5.2219Y-3.7946
X5.2263Y-4.3079
X5.2265Y-3.8653
X5.2302Y-3.7085
X5.2306Y-3.2044
X5.2313Y-3.3631
X5.2315Y-3.2362
X5.2315Y-3.2677
X5.2315Y-3.4882
X5.2315Y-3.5827
X5.2315Y-3.6142
X5.2315Y-3.6457
X5.2315Y-3.6772
X5.2315Y-3.3293
X5.2318Y-3.2983
X5.233Y-4.126
X5.2345Y-4.2457
X5.2398Y-3.0192
X5.2596Y-3.0131
X5.2627Y-3.3305
X5.263Y-3.2362
X5.263Y-3.6142
X5.263Y-3.6457
X5.2632Y-3.6773
X5.2634Y-3.7079
X5.2639Y-3.2047
X5.2709Y-2.4961
X5.2724Y-3.7811
X5.288Y-3.0537
X5.2945Y-3.2362
X5.2945Y-3.2992
X5.2945Y-3.5827
X5.2971Y-3.2044
X5.3183Y-3.8398
X5.3212Y-3.0513
X5.3257Y-3.4889
X5.3258Y-3.2044
X5.326Y-3.1732
X5.326Y-3.3937
X5.326Y-3.6457
X5.326Y-3.7087
X5.326Y-3.7402
X5.3335Y-4.3075
X5.3336Y-3.0295
X5.3417Y-4.1496
X5.3453Y-3.8322
X5.3456Y-4.1797
X5.3486Y-4.2832
X5.3486Y-4.2529
X5.3498Y-4.2047
X5.3575Y-3.2047
X5.3575Y-3.6772
X5.3577Y-3.5195
X5.3583Y-3.0814
X5.361Y-3.0524
X5.3797Y-3.0358
X5.389Y-3.6457
X5.3892Y-3.551
X5.3946Y-3.0214
X5.4051Y-3.8401
X5.4169Y-2.9911
X5.4199Y-3.5985
X5.4205Y-3.2047
X5.4205Y-3.5501
X5.4205Y-3.6772
X5.4205Y-3.3281
X5.4294Y-3.0149
X5.4419Y-3.038
X5.4518Y-3.0755
X5.4528Y-4.1304
X5.4668Y-3.0945
X5.4756Y-2.7402
X5.4832Y-3.3312
X5.4835Y-3.2047
X5.4835Y-3.5481
X5.4835Y-3.6772
X5.5047Y-2.6681
X5.5132Y-3.2047
X5.515Y-3.2362
X5.5155Y-3.5481
X5.5458Y-3.2693
X5.5462Y-3.5997
X5.5465Y-3.2047
X5.5465Y-3.3622
X5.5465Y-3.4567
X5.5465Y-3.5197
X5.5465Y-3.6772
X5.5482Y-3.2354
X5.553Y-2.9478
X5.5622Y-3.8425
X5.5642Y-2.9691
X5.5709Y-3.0176
X5.5771Y-3.2335
X5.578Y-3.3622
X5.578Y-3.3937
X5.578Y-3.4882
X5.5835Y-3.0885
X5.5838Y-2.8265
X5.6086Y-3.204
X5.6086Y-3.2359
X5.6092Y-3.2677
X5.6094Y-3.2992
X5.6094Y-3.5827
X5.6094Y-3.7087
X5.6307Y-3.1094
X5.6334Y-3.0856
X5.6409Y-3.488
X5.6409Y-3.5827
X5.641Y-3.5513
X5.6418Y-3.204
X5.6418Y-3.236
X5.6426Y-3.0645
X5.6454Y-2.8265
X5.6567Y-2.5157
X5.6707Y-3.5196
X5.6723Y-3.2357
X5.6724Y-3.2677
X5.6724Y-3.2992
X5.6724Y-3.3307
X5.6724Y-3.6457
X5.6725Y-3.3621
X5.6725Y-3.5485
X5.6726Y-3.4876
X5.675Y-3.2037
X5.7034Y-3.2021
X5.7035Y-3.5153
X5.7038Y-3.4891
X5.7038Y-3.3281
X5.704Y-3.6448
X5.704Y-3.6172
X5.7041Y-3.2354
X5.7041Y-3.5835
X5.7042Y-3.5485
X5.7042Y-3.3616
X5.7043Y-3.425
X5.7043Y-3.3018
X5.7045Y-3.2686
X5.7048Y-3.3964
X5.7074Y-2.8265
X5.7155Y-2.9229
X5.7281Y-2.981
X5.7354Y-3.2047
X5.7354Y-3.3631
X5.7354Y-3.5827
X5.7354Y-3.7087
X5.7633Y-3.0677
X5.766Y-2.955
X5.7718Y-2.8265
X5.7924Y-3.5355
X5.804Y-3.3409
X5.8059Y-3.4774
X5.8063Y-3.0639
X5.823Y-3.2807
X5.8263Y-2.8265
X5.8267Y-3.4774
X5.8297Y-3.7492
X5.8401Y-3.188
X5.852Y-3.0364
X5.8531Y-3.3288
X5.8693Y-2.8265
X5.8705Y-3.2563
X5.8713Y-3.1969
X5.8743Y-3.764
X5.9087Y-3.2126
X5.9308Y-2.8515
X6.0129Y-4.0759
X6.0819Y-3.7165
X6.1213Y-2.8237
X6.1396Y-3.7183
X6.1528Y-3.1969
X6.2236Y-3.7244
X6.2472Y-3.1969
X6.2547Y-4.2681
X6.2787Y-2.5433
X6.3281Y-3.7207
X6.3297Y-2.7181
X6.3417Y-3.2047
X6.3732Y-3.8504
X6.3778Y-3.0439
X6.4Y-3.7402
X6.4154Y-3.2063
X6.4422Y-2.8471
X6.4598Y-3.0394
X6.4824Y-3.7333
X6.4952Y-3.1978
X6.5228Y-3.1417
X6.5228Y-3.811
X6.5465Y-3.7323
X6.5543Y-3.3701
X6.6273Y-2.7085
X6.6547Y-3.0431
X6.7827Y-4.0472
X6.8378Y-2.4646
X6.8547Y-4.2681
X6.8735Y-3.5029
X6.948Y-3.7244
X6.9795Y-3.2362
X7.1285Y-3.1018
X7.1547Y-3.6437
T2
X4.7235Y-3.7564
X4.7494Y-3.7393
X5.2539Y-4.0249
X5.2785Y-4.0454
X5.3575Y-3.3307
X5.3575Y-3.3622
X5.3587Y-3.425
X5.4205Y-3.4252
X5.4797Y-2.8889
X5.4835Y-3.4252
X5.4835Y-3.4882
X5.4847Y-3.5968
X5.5523Y-2.8894
X5.5529Y-3.425
X5.6211Y-2.9897
X5.6546Y-2.9733
X5.7422Y-2.5665
X5.7431Y-2.5166
X5.7926Y-3.7932
X5.8032Y-3.6696
X5.8081Y-3.7764
X5.8261Y-3.669
X5.8311Y-3.6914
X5.8525Y-3.7496
X5.8905Y-3.7157
X5.8968Y-3.738
X5.9083Y-3.7577
X5.9133Y-3.78
X5.9259Y-3.7991
X5.9408Y-3.823
X5.9617Y-3.8002
T3
X4.3541Y-3.4944
T4
X5.8941Y-3.0429
X6.0087Y-3.8787
T6
X3.7547Y-2.4681
X3.7547Y-2.5681
X3.7547Y-2.6681
X3.7547Y-2.7681
X3.7547Y-2.8681
X3.7547Y-2.9681
X3.7547Y-3.0681
X3.7547Y-3.1681
X3.7547Y-3.2681
X3.7547Y-3.3681
X3.7547Y-3.4681
X3.7547Y-3.5681
X3.7547Y-3.6681
X3.7547Y-3.7681
X3.7547Y-3.8681
X3.7547Y-3.9681
X3.7547Y-4.0681
X3.7547Y-4.1681
X3.7547Y-4.2681
X3.7547Y-4.3681
X3.8547Y-2.4681
X3.8547Y-2.5681
X3.8547Y-2.6681
X3.8547Y-2.7681
X3.8547Y-2.8681
X3.8547Y-2.9681
X3.8547Y-3.0681
X3.8547Y-3.1681
X3.8547Y-3.2681
X3.8547Y-3.3681
X3.8547Y-3.4681
X3.8547Y-3.5681
X3.8547Y-3.6681
X3.8547Y-3.7681
X3.8547Y-3.8681
X3.8547Y-3.9681
X3.8547Y-4.0681
X3.8547Y-4.1681
X3.8547Y-4.2681
X3.8547Y-4.3681
X4.0047Y-3.9181
X4.1047Y-3.9181
X5.2047Y-3.9681
X5.3047Y-3.9681
X5.4047Y-3.9681
X5.5047Y-3.9681
X5.6047Y-3.9681
X5.7047Y-3.9681
X5.8047Y-3.9681
X7.2547Y-2.4681
X7.2547Y-2.5681
X7.2547Y-2.6681
X7.2547Y-2.7681
X7.2547Y-2.8681
X7.2547Y-2.9681
X7.2547Y-3.0681
X7.2547Y-3.1681
X7.2547Y-3.2681
X7.2547Y-3.3681
X7.2547Y-3.4681
X7.2547Y-3.5681
X7.2547Y-3.6681
X7.2547Y-3.7681
X7.2547Y-3.8681
X7.2547Y-3.9681
X7.2547Y-4.0681
X7.2547Y-4.1681
X7.2547Y-4.2681
X7.2547Y-4.3681
X7.3547Y-2.4681
X7.3547Y-2.5681
X7.3547Y-2.6681
X7.3547Y-2.7681
X7.3547Y-2.8681
X7.3547Y-2.9681
X7.3547Y-3.0681
X7.3547Y-3.1681
X7.3547Y-3.2681
X7.3547Y-3.3681
X7.3547Y-3.4681
X7.3547Y-3.5681
X7.3547Y-3.6681
X7.3547Y-3.7681
X7.3547Y-3.8681
X7.3547Y-3.9681
X7.3547Y-4.0681
X7.3547Y-4.1681
X7.3547Y-4.2681
X7.3547Y-4.3681
T7
X4.0547Y-2.5681
X4.0547Y-4.2681
X7.0547Y-2.5681
X7.0547Y-4.2681
T8
X4.9047Y-2.6197
X4.9047Y-2.8953
T5
X5.4205Y-2.4843G85X5.4205Y-2.5236
G05
X5.4205Y-2.7146G85X5.4205Y-2.7697
G05
X5.9953Y-2.4843G85X5.9953Y-2.5236
G05
X5.9953Y-2.7146G85X5.9953Y-2.7697
G05
T0
M30
