%FSLAX45Y45*%
G04 Gerber Fmt 4.5, Leading zero omitted, Abs format (unit mm)*
G04 Created by KiCad (PCBNEW 4.0.5+dfsg1-4) date Thu May  4 12:37:26 2017*
%MOMM*%
%LPD*%
G01*
G04 APERTURE LIST*
%ADD10C,0.127000*%
%ADD11C,0.300000*%
%ADD12C,0.200000*%
G04 APERTURE END LIST*
D10*
D11*
X9410000Y-6142000D02*
X9410000Y-11222000D01*
X18808000Y-6142000D02*
X9410000Y-6142000D01*
X18808000Y-11222000D02*
X18808000Y-6142000D01*
X9410000Y-11222000D02*
X18808000Y-11222000D01*
D12*
X9991774Y-7933951D02*
X10011774Y-7953951D01*
X10011774Y-7933951D02*
X9991774Y-7953951D01*
X12236540Y-10574497D02*
X12256540Y-10594497D01*
X12256540Y-10574497D02*
X12236540Y-10594497D01*
X12238000Y-6280000D02*
X12258000Y-6300000D01*
X12258000Y-6280000D02*
X12238000Y-6300000D01*
X12278000Y-9530000D02*
X12298000Y-9550000D01*
X12298000Y-9530000D02*
X12278000Y-9550000D01*
X12288366Y-10711724D02*
X12308366Y-10731724D01*
X12308366Y-10711724D02*
X12288366Y-10731724D01*
X12650439Y-7882644D02*
X12670439Y-7902644D01*
X12670439Y-7882644D02*
X12650439Y-7902644D01*
X12657462Y-9339686D02*
X12677462Y-9359686D01*
X12677462Y-9339686D02*
X12657462Y-9359686D01*
X12667371Y-7820880D02*
X12687371Y-7840880D01*
X12687371Y-7820880D02*
X12667371Y-7840880D01*
X12734582Y-7912636D02*
X12754582Y-7932636D01*
X12754582Y-7912636D02*
X12734582Y-7932636D01*
X12746627Y-7861330D02*
X12766627Y-7881330D01*
X12766627Y-7861330D02*
X12746627Y-7881330D01*
X12751398Y-8769742D02*
X12771398Y-8789742D01*
X12771398Y-8769742D02*
X12751398Y-8789742D01*
X12764075Y-8915322D02*
X12784075Y-8935322D01*
X12784075Y-8915322D02*
X12764075Y-8935322D01*
X12775801Y-8967685D02*
X12795801Y-8987685D01*
X12795801Y-8967685D02*
X12775801Y-8987685D01*
X12778033Y-8322090D02*
X12798033Y-8342090D01*
X12798033Y-8322090D02*
X12778033Y-8342090D01*
X12800449Y-8552977D02*
X12820449Y-8572977D01*
X12820449Y-8552977D02*
X12800449Y-8572977D01*
X12814160Y-8364291D02*
X12834160Y-8384291D01*
X12834160Y-8364291D02*
X12814160Y-8384291D01*
X12817170Y-8448693D02*
X12837170Y-8468693D01*
X12837170Y-8448693D02*
X12817170Y-8468693D01*
X12856117Y-8792018D02*
X12876117Y-8812018D01*
X12876117Y-8792018D02*
X12856117Y-8812018D01*
X12858185Y-9069496D02*
X12878185Y-9089496D01*
X12878185Y-9069496D02*
X12858185Y-9089496D01*
X12860201Y-9133067D02*
X12880201Y-9153067D01*
X12880201Y-9133067D02*
X12860201Y-9153067D01*
X12861578Y-8418391D02*
X12881578Y-8438391D01*
X12881578Y-8418391D02*
X12861578Y-8438391D01*
X12877730Y-8509730D02*
X12897730Y-8529730D01*
X12897730Y-8509730D02*
X12877730Y-8529730D01*
X12897779Y-9270631D02*
X12917779Y-9290631D01*
X12917779Y-9270631D02*
X12897779Y-9290631D01*
X12946034Y-10458034D02*
X12966034Y-10478034D01*
X12966034Y-10458034D02*
X12946034Y-10478034D01*
X12947421Y-8753077D02*
X12967421Y-8773077D01*
X12967421Y-8753077D02*
X12947421Y-8773077D01*
X12952680Y-8700639D02*
X12972680Y-8720639D01*
X12972680Y-8700639D02*
X12952680Y-8720639D01*
X12958000Y-8040000D02*
X12978000Y-8060000D01*
X12978000Y-8040000D02*
X12958000Y-8060000D01*
X12978000Y-10410000D02*
X12998000Y-10430000D01*
X12998000Y-10410000D02*
X12978000Y-10430000D01*
X13025954Y-9627510D02*
X13045954Y-9647510D01*
X13045954Y-9627510D02*
X13025954Y-9647510D01*
X13073949Y-10325498D02*
X13093949Y-10345498D01*
X13093949Y-10325498D02*
X13073949Y-10345498D01*
X13083000Y-10235838D02*
X13103000Y-10255838D01*
X13103000Y-10235838D02*
X13083000Y-10255838D01*
X13087688Y-7765510D02*
X13107688Y-7785510D01*
X13107688Y-7765510D02*
X13087688Y-7785510D01*
X13108000Y-8040000D02*
X13128000Y-8060000D01*
X13128000Y-8040000D02*
X13108000Y-8060000D01*
X13135385Y-10319621D02*
X13155385Y-10339621D01*
X13155385Y-10319621D02*
X13135385Y-10339621D01*
X13193219Y-8446513D02*
X13213219Y-8466513D01*
X13213219Y-8446513D02*
X13193219Y-8466513D01*
X13197765Y-9087799D02*
X13217765Y-9107799D01*
X13217765Y-9087799D02*
X13197765Y-9107799D01*
X13198000Y-8130000D02*
X13218000Y-8150000D01*
X13218000Y-8130000D02*
X13198000Y-8150000D01*
X13198000Y-8207799D02*
X13218000Y-8227799D01*
X13218000Y-8207799D02*
X13198000Y-8227799D01*
X13198000Y-8610000D02*
X13218000Y-8630000D01*
X13218000Y-8610000D02*
X13198000Y-8630000D01*
X13198000Y-8690000D02*
X13218000Y-8710000D01*
X13218000Y-8690000D02*
X13198000Y-8710000D01*
X13198000Y-8847799D02*
X13218000Y-8867799D01*
X13218000Y-8847799D02*
X13198000Y-8867799D01*
X13198000Y-8932201D02*
X13218000Y-8952201D01*
X13218000Y-8932201D02*
X13198000Y-8952201D01*
X13198000Y-9010000D02*
X13218000Y-9030000D01*
X13218000Y-9010000D02*
X13198000Y-9030000D01*
X13198000Y-9250000D02*
X13218000Y-9270000D01*
X13218000Y-9250000D02*
X13198000Y-9270000D01*
X13198000Y-9330000D02*
X13218000Y-9350000D01*
X13218000Y-9330000D02*
X13198000Y-9350000D01*
X13198000Y-9410000D02*
X13218000Y-9430000D01*
X13218000Y-9410000D02*
X13198000Y-9430000D01*
X13198432Y-8292201D02*
X13218432Y-8312201D01*
X13218432Y-8292201D02*
X13198432Y-8312201D01*
X13201744Y-8376602D02*
X13221744Y-8396602D01*
X13221744Y-8376602D02*
X13201744Y-8396602D01*
X13222226Y-9693017D02*
X13242226Y-9713017D01*
X13242226Y-9693017D02*
X13222226Y-9713017D01*
X13240456Y-7810000D02*
X13260456Y-7830000D01*
X13260456Y-7810000D02*
X13240456Y-7830000D01*
X13240501Y-7869682D02*
X13260501Y-7889682D01*
X13260501Y-7869682D02*
X13240501Y-7889682D01*
X13274998Y-9706100D02*
X13294998Y-9726100D01*
X13294998Y-9706100D02*
X13274998Y-9726100D01*
X13275800Y-9409707D02*
X13295800Y-9429707D01*
X13295800Y-9409707D02*
X13275800Y-9429707D01*
X13277580Y-8532199D02*
X13297580Y-8552199D01*
X13297580Y-8532199D02*
X13277580Y-8552199D01*
X13278000Y-8210000D02*
X13298000Y-8230000D01*
X13298000Y-8210000D02*
X13278000Y-8230000D01*
X13278000Y-8610000D02*
X13298000Y-8630000D01*
X13298000Y-8610000D02*
X13278000Y-8630000D01*
X13278000Y-8850000D02*
X13298000Y-8870000D01*
X13298000Y-8850000D02*
X13278000Y-8870000D01*
X13278000Y-9010000D02*
X13298000Y-9030000D01*
X13298000Y-9010000D02*
X13278000Y-9030000D01*
X13278000Y-9090000D02*
X13298000Y-9110000D01*
X13298000Y-9090000D02*
X13278000Y-9110000D01*
X13278000Y-9170000D02*
X13298000Y-9190000D01*
X13298000Y-9170000D02*
X13278000Y-9190000D01*
X13278000Y-9250000D02*
X13298000Y-9270000D01*
X13298000Y-9250000D02*
X13278000Y-9270000D01*
X13278000Y-9330000D02*
X13298000Y-9350000D01*
X13298000Y-9330000D02*
X13278000Y-9350000D01*
X13278042Y-8446513D02*
X13298042Y-8466513D01*
X13298042Y-8446513D02*
X13278042Y-8466513D01*
X13278444Y-8129112D02*
X13298444Y-8149112D01*
X13298444Y-8129112D02*
X13278444Y-8149112D01*
X13278650Y-8367799D02*
X13298650Y-8387799D01*
X13298650Y-8367799D02*
X13278650Y-8387799D01*
X13281858Y-10470000D02*
X13301858Y-10490000D01*
X13301858Y-10470000D02*
X13281858Y-10490000D01*
X13356815Y-7701108D02*
X13376815Y-7721108D01*
X13376815Y-7701108D02*
X13356815Y-7721108D01*
X13357194Y-8449520D02*
X13377194Y-8469520D01*
X13377194Y-8449520D02*
X13357194Y-8469520D01*
X13358000Y-8130000D02*
X13378000Y-8150000D01*
X13378000Y-8130000D02*
X13358000Y-8150000D01*
X13358000Y-8287799D02*
X13378000Y-8307799D01*
X13378000Y-8287799D02*
X13358000Y-8307799D01*
X13358000Y-8372201D02*
X13378000Y-8392201D01*
X13378000Y-8372201D02*
X13358000Y-8392201D01*
X13358000Y-9170000D02*
X13378000Y-9190000D01*
X13378000Y-9170000D02*
X13358000Y-9190000D01*
X13358000Y-9250000D02*
X13378000Y-9270000D01*
X13378000Y-9250000D02*
X13358000Y-9270000D01*
X13358567Y-9330248D02*
X13378567Y-9350248D01*
X13378567Y-9330248D02*
X13358567Y-9350248D01*
X13361071Y-9410063D02*
X13381071Y-9430063D01*
X13381071Y-9410063D02*
X13361071Y-9430063D01*
X13395836Y-7736530D02*
X13415836Y-7756530D01*
X13415836Y-7736530D02*
X13395836Y-7756530D01*
X13409815Y-9716998D02*
X13429815Y-9736998D01*
X13429815Y-9716998D02*
X13409815Y-9736998D01*
X13438000Y-8210000D02*
X13458000Y-8230000D01*
X13458000Y-8210000D02*
X13438000Y-8230000D01*
X13438000Y-8370000D02*
X13458000Y-8390000D01*
X13458000Y-8370000D02*
X13438000Y-8390000D01*
X13438000Y-9090000D02*
X13458000Y-9110000D01*
X13458000Y-9090000D02*
X13438000Y-9110000D01*
X13438037Y-8129060D02*
X13458037Y-8149060D01*
X13458037Y-8129060D02*
X13438037Y-8149060D01*
X13488995Y-9713916D02*
X13508995Y-9733916D01*
X13508995Y-9713916D02*
X13488995Y-9733916D01*
X13517331Y-8851860D02*
X13537331Y-8871860D01*
X13537331Y-8851860D02*
X13517331Y-8871860D01*
X13517488Y-8129060D02*
X13537488Y-8149060D01*
X13537488Y-8129060D02*
X13517488Y-8149060D01*
X13518000Y-8610000D02*
X13538000Y-8630000D01*
X13538000Y-8610000D02*
X13518000Y-8630000D01*
X13518000Y-9250000D02*
X13538000Y-9270000D01*
X13538000Y-9250000D02*
X13518000Y-9270000D01*
X13518000Y-9410000D02*
X13538000Y-9430000D01*
X13538000Y-9410000D02*
X13518000Y-9430000D01*
X13518000Y-9490000D02*
X13538000Y-9510000D01*
X13538000Y-9490000D02*
X13518000Y-9510000D01*
X13537195Y-10930959D02*
X13557195Y-10950959D01*
X13557195Y-10930959D02*
X13537195Y-10950959D01*
X13558000Y-10530000D02*
X13578000Y-10550000D01*
X13578000Y-10530000D02*
X13558000Y-10550000D01*
X13567865Y-10606369D02*
X13587865Y-10626369D01*
X13587865Y-10606369D02*
X13567865Y-10626369D01*
X13575325Y-10869239D02*
X13595325Y-10889239D01*
X13595325Y-10869239D02*
X13575325Y-10889239D01*
X13575519Y-10792264D02*
X13595519Y-10812264D01*
X13595519Y-10792264D02*
X13575519Y-10812264D01*
X13578416Y-10670041D02*
X13598416Y-10690041D01*
X13598416Y-10670041D02*
X13578416Y-10690041D01*
X13598000Y-8130000D02*
X13618000Y-8150000D01*
X13618000Y-8130000D02*
X13598000Y-8150000D01*
X13598000Y-8930000D02*
X13618000Y-8950000D01*
X13618000Y-8930000D02*
X13598000Y-8950000D01*
X13598000Y-9330000D02*
X13618000Y-9350000D01*
X13618000Y-9330000D02*
X13598000Y-9350000D01*
X13600201Y-7816859D02*
X13620201Y-7836859D01*
X13620201Y-7816859D02*
X13600201Y-7836859D01*
X13602332Y-7737368D02*
X13622332Y-7757368D01*
X13622332Y-7737368D02*
X13602332Y-7757368D01*
X13644051Y-7700798D02*
X13664051Y-7720798D01*
X13664051Y-7700798D02*
X13644051Y-7720798D01*
X13678000Y-9010000D02*
X13698000Y-9030000D01*
X13698000Y-9010000D02*
X13678000Y-9030000D01*
X13678000Y-9250000D02*
X13698000Y-9270000D01*
X13698000Y-9250000D02*
X13678000Y-9270000D01*
X13686786Y-7669785D02*
X13706786Y-7689785D01*
X13706786Y-7669785D02*
X13686786Y-7689785D01*
X13756589Y-9130245D02*
X13776589Y-9150245D01*
X13776589Y-9130245D02*
X13756589Y-9150245D01*
X13758000Y-8130000D02*
X13778000Y-8150000D01*
X13778000Y-8130000D02*
X13758000Y-8150000D01*
X13758000Y-9007299D02*
X13778000Y-9027299D01*
X13778000Y-9007299D02*
X13758000Y-9027299D01*
X13758000Y-9330000D02*
X13778000Y-9350000D01*
X13778000Y-9330000D02*
X13758000Y-9350000D01*
X13758056Y-8443409D02*
X13778056Y-8463409D01*
X13778056Y-8443409D02*
X13758056Y-8463409D01*
X13765456Y-7587419D02*
X13785456Y-7607419D01*
X13785456Y-7587419D02*
X13765456Y-7607419D01*
X13787496Y-7647724D02*
X13807496Y-7667724D01*
X13807496Y-7647724D02*
X13787496Y-7667724D01*
X13819197Y-7706418D02*
X13839197Y-7726418D01*
X13839197Y-7706418D02*
X13819197Y-7726418D01*
X13837475Y-7801776D02*
X13857475Y-7821776D01*
X13857475Y-7801776D02*
X13837475Y-7821776D01*
X13893099Y-7850080D02*
X13913099Y-7870080D01*
X13913099Y-7850080D02*
X13893099Y-7870080D01*
X13917252Y-8451135D02*
X13937252Y-8471135D01*
X13937252Y-8451135D02*
X13917252Y-8471135D01*
X13918000Y-8130000D02*
X13938000Y-8150000D01*
X13938000Y-8130000D02*
X13918000Y-8150000D01*
X13918000Y-8210000D02*
X13938000Y-8230000D01*
X13938000Y-8210000D02*
X13918000Y-8230000D01*
X13918000Y-9330000D02*
X13938000Y-9350000D01*
X13938000Y-9330000D02*
X13918000Y-9350000D01*
X13938000Y-10490000D02*
X13958000Y-10510000D01*
X13958000Y-10490000D02*
X13938000Y-10510000D01*
X13968250Y-7397346D02*
X13988250Y-7417346D01*
X13988250Y-7397346D02*
X13968250Y-7417346D01*
X13998000Y-8130000D02*
X14018000Y-8150000D01*
X14018000Y-8130000D02*
X13998000Y-8150000D01*
X14076403Y-8294140D02*
X14096403Y-8314140D01*
X14096403Y-8294140D02*
X14076403Y-8314140D01*
X14078000Y-8530000D02*
X14098000Y-8550000D01*
X14098000Y-8530000D02*
X14078000Y-8550000D01*
X14078000Y-8770000D02*
X14098000Y-8790000D01*
X14098000Y-8770000D02*
X14078000Y-8790000D01*
X14078000Y-8930000D02*
X14098000Y-8950000D01*
X14098000Y-8930000D02*
X14078000Y-8950000D01*
X14078000Y-9010000D02*
X14098000Y-9030000D01*
X14098000Y-9010000D02*
X14078000Y-9030000D01*
X14078000Y-9330000D02*
X14098000Y-9350000D01*
X14098000Y-9330000D02*
X14078000Y-9350000D01*
X14080201Y-8207928D02*
X14100201Y-8227928D01*
X14100201Y-8207928D02*
X14080201Y-8227928D01*
X14082401Y-8127559D02*
X14102401Y-8147559D01*
X14102401Y-8127559D02*
X14082401Y-8147559D01*
X14094664Y-7477380D02*
X14114664Y-7497380D01*
X14114664Y-7477380D02*
X14094664Y-7497380D01*
X14122988Y-7531564D02*
X14142988Y-7551564D01*
X14142988Y-7531564D02*
X14122988Y-7551564D01*
X14124602Y-7707029D02*
X14144602Y-7727029D01*
X14144602Y-7707029D02*
X14124602Y-7727029D01*
X14155799Y-8203034D02*
X14175799Y-8223034D01*
X14175799Y-8203034D02*
X14155799Y-8223034D01*
X14158000Y-8530000D02*
X14178000Y-8550000D01*
X14178000Y-8530000D02*
X14158000Y-8550000D01*
X14158000Y-8610000D02*
X14178000Y-8630000D01*
X14178000Y-8610000D02*
X14158000Y-8630000D01*
X14158000Y-8850000D02*
X14178000Y-8870000D01*
X14178000Y-8850000D02*
X14158000Y-8870000D01*
X14175304Y-7886864D02*
X14195304Y-7906864D01*
X14195304Y-7886864D02*
X14175304Y-7906864D01*
X14188614Y-7179985D02*
X14208614Y-7199985D01*
X14208614Y-7179985D02*
X14188614Y-7199985D01*
X14235799Y-8128224D02*
X14255799Y-8148224D01*
X14255799Y-8128224D02*
X14235799Y-8148224D01*
X14235799Y-8209139D02*
X14255799Y-8229139D01*
X14255799Y-8209139D02*
X14235799Y-8229139D01*
X14237355Y-8289891D02*
X14257355Y-8309891D01*
X14257355Y-8289891D02*
X14237355Y-8309891D01*
X14238000Y-8370000D02*
X14258000Y-8390000D01*
X14258000Y-8370000D02*
X14238000Y-8390000D01*
X14238000Y-9090000D02*
X14258000Y-9110000D01*
X14258000Y-9090000D02*
X14238000Y-9110000D01*
X14238000Y-9410000D02*
X14258000Y-9430000D01*
X14258000Y-9410000D02*
X14238000Y-9430000D01*
X14291994Y-7880304D02*
X14311994Y-7900304D01*
X14311994Y-7880304D02*
X14291994Y-7900304D01*
X14298670Y-7828027D02*
X14318670Y-7848027D01*
X14318670Y-7828027D02*
X14298670Y-7848027D01*
X14317803Y-8849503D02*
X14337803Y-8869503D01*
X14337803Y-8849503D02*
X14317803Y-8869503D01*
X14318000Y-9090000D02*
X14338000Y-9110000D01*
X14338000Y-9090000D02*
X14318000Y-9110000D01*
X14318182Y-9010195D02*
X14338182Y-9030195D01*
X14338182Y-9010195D02*
X14318182Y-9030195D01*
X14320201Y-8128173D02*
X14340201Y-8148173D01*
X14340201Y-8128173D02*
X14320201Y-8148173D01*
X14320201Y-8209499D02*
X14340201Y-8229499D01*
X14340201Y-8209499D02*
X14320201Y-8229499D01*
X14322321Y-7773748D02*
X14342321Y-7793748D01*
X14342321Y-7773748D02*
X14322321Y-7793748D01*
X14338000Y-7180000D02*
X14358000Y-7200000D01*
X14358000Y-7180000D02*
X14338000Y-7200000D01*
X14358000Y-6380000D02*
X14378000Y-6400000D01*
X14378000Y-6380000D02*
X14358000Y-6400000D01*
X14393579Y-8929761D02*
X14413579Y-8949761D01*
X14413579Y-8929761D02*
X14393579Y-8949761D01*
X14397690Y-8208645D02*
X14417690Y-8228645D01*
X14417690Y-8208645D02*
X14397690Y-8228645D01*
X14398000Y-8290000D02*
X14418000Y-8310000D01*
X14418000Y-8290000D02*
X14398000Y-8310000D01*
X14398000Y-8370000D02*
X14418000Y-8390000D01*
X14418000Y-8370000D02*
X14398000Y-8390000D01*
X14398000Y-8450000D02*
X14418000Y-8470000D01*
X14418000Y-8450000D02*
X14398000Y-8470000D01*
X14398000Y-9250000D02*
X14418000Y-9270000D01*
X14418000Y-9250000D02*
X14398000Y-9270000D01*
X14398052Y-8529722D02*
X14418052Y-8549722D01*
X14418052Y-8529722D02*
X14398052Y-8549722D01*
X14398242Y-9003286D02*
X14418242Y-9023286D01*
X14418242Y-9003286D02*
X14398242Y-9023286D01*
X14398283Y-8848451D02*
X14418283Y-8868451D01*
X14418283Y-8848451D02*
X14398283Y-8868451D01*
X14404602Y-8127478D02*
X14424602Y-8147478D01*
X14424602Y-8127478D02*
X14404602Y-8147478D01*
X14476639Y-8123398D02*
X14496639Y-8143398D01*
X14496639Y-8123398D02*
X14476639Y-8143398D01*
X14476942Y-8918885D02*
X14496942Y-8938885D01*
X14496942Y-8918885D02*
X14476942Y-8938885D01*
X14477765Y-8852201D02*
X14497765Y-8872201D01*
X14497765Y-8852201D02*
X14477765Y-8872201D01*
X14477769Y-8443293D02*
X14497769Y-8463293D01*
X14497769Y-8443293D02*
X14477769Y-8463293D01*
X14478235Y-9247799D02*
X14498235Y-9267799D01*
X14498235Y-9247799D02*
X14478235Y-9267799D01*
X14478278Y-9177765D02*
X14498278Y-9197765D01*
X14498278Y-9177765D02*
X14478278Y-9197765D01*
X14478509Y-8207799D02*
X14498509Y-8227799D01*
X14498509Y-8207799D02*
X14478509Y-8227799D01*
X14478522Y-9092124D02*
X14498522Y-9112124D01*
X14498522Y-9092124D02*
X14478522Y-9112124D01*
X14478569Y-9003286D02*
X14498569Y-9023286D01*
X14498569Y-9003286D02*
X14478569Y-9023286D01*
X14478654Y-8528519D02*
X14498654Y-8548519D01*
X14498654Y-8528519D02*
X14478654Y-8548519D01*
X14478856Y-8689382D02*
X14498856Y-8709382D01*
X14498856Y-8689382D02*
X14478856Y-8709382D01*
X14479038Y-8376602D02*
X14499038Y-8396602D01*
X14499038Y-8376602D02*
X14479038Y-8396602D01*
X14479410Y-8292201D02*
X14499410Y-8312201D01*
X14499410Y-8292201D02*
X14479410Y-8312201D01*
X14480128Y-8616874D02*
X14500128Y-8636874D01*
X14500128Y-8616874D02*
X14480128Y-8636874D01*
X14487317Y-7149740D02*
X14507317Y-7169740D01*
X14507317Y-7149740D02*
X14487317Y-7169740D01*
X14507287Y-7469262D02*
X14527287Y-7489262D01*
X14527287Y-7469262D02*
X14507287Y-7489262D01*
X14542036Y-7617065D02*
X14562036Y-7637065D01*
X14562036Y-7617065D02*
X14542036Y-7637065D01*
X14558000Y-8532201D02*
X14578000Y-8552201D01*
X14578000Y-8532201D02*
X14558000Y-8552201D01*
X14558000Y-9410000D02*
X14578000Y-9430000D01*
X14578000Y-9410000D02*
X14558000Y-9430000D01*
X14618911Y-7553663D02*
X14638911Y-7573663D01*
X14638911Y-7553663D02*
X14618911Y-7573663D01*
X14628717Y-7781899D02*
X14648717Y-7801899D01*
X14648717Y-7781899D02*
X14628717Y-7801899D01*
X14637468Y-7149146D02*
X14657468Y-7169146D01*
X14657468Y-7149146D02*
X14637468Y-7169146D01*
X14702397Y-8966762D02*
X14722397Y-8986762D01*
X14722397Y-8966762D02*
X14702397Y-8986762D01*
X14738000Y-7772201D02*
X14758000Y-7792201D01*
X14758000Y-7772201D02*
X14738000Y-7792201D01*
X14749599Y-8818958D02*
X14769599Y-8838958D01*
X14769599Y-8818958D02*
X14749599Y-8838958D01*
X14778000Y-8321986D02*
X14798000Y-8341986D01*
X14798000Y-8321986D02*
X14778000Y-8341986D01*
X14788000Y-7132120D02*
X14808000Y-7152120D01*
X14808000Y-7132120D02*
X14788000Y-7152120D01*
X14796398Y-8501490D02*
X14816398Y-8521490D01*
X14816398Y-8501490D02*
X14796398Y-8521490D01*
X14818000Y-8807799D02*
X14838000Y-8827799D01*
X14838000Y-8807799D02*
X14818000Y-8827799D01*
X14823777Y-8087578D02*
X14843777Y-8107578D01*
X14843777Y-8087578D02*
X14823777Y-8107578D01*
X14878000Y-9600000D02*
X14898000Y-9620000D01*
X14898000Y-9600000D02*
X14878000Y-9620000D01*
X14902907Y-8111447D02*
X14922907Y-8131447D01*
X14922907Y-8111447D02*
X14902907Y-8131447D01*
X14908500Y-7970000D02*
X14928500Y-7990000D01*
X14928500Y-7970000D02*
X14908500Y-7990000D01*
X14930001Y-8262364D02*
X14950001Y-8282364D01*
X14950001Y-8262364D02*
X14930001Y-8282364D01*
X14960083Y-9531764D02*
X14980083Y-9551764D01*
X14980083Y-9531764D02*
X14960083Y-9551764D01*
X11552883Y-9551316D02*
G75*
G03X11552883Y-9551316I-12700J0D01*
G01*
X11620298Y-9483901D02*
G75*
G03X11620298Y-9483901I-12700J0D01*
G01*
X11936401Y-9618851D02*
G75*
G03X11936401Y-9618851I-12700J0D01*
G01*
X12061944Y-9567356D02*
G75*
G03X12061944Y-9567356I-12700J0D01*
G01*
X13107902Y-9644136D02*
G75*
G03X13107902Y-9644136I-12700J0D01*
G01*
X13357629Y-10223262D02*
G75*
G03X13357629Y-10223262I-12700J0D01*
G01*
X13420141Y-10275223D02*
G75*
G03X13420141Y-10275223I-12700J0D01*
G01*
X13620700Y-8460000D02*
G75*
G03X13620700Y-8460000I-12700J0D01*
G01*
X13620700Y-8540000D02*
G75*
G03X13620700Y-8540000I-12700J0D01*
G01*
X13623799Y-8699540D02*
G75*
G03X13623799Y-8699540I-12700J0D01*
G01*
X13780700Y-8700000D02*
G75*
G03X13780700Y-8700000I-12700J0D01*
G01*
X13931242Y-7337804D02*
G75*
G03X13931242Y-7337804I-12700J0D01*
G01*
X13940700Y-8700000D02*
G75*
G03X13940700Y-8700000I-12700J0D01*
G01*
X13940700Y-8860000D02*
G75*
G03X13940700Y-8860000I-12700J0D01*
G01*
X13940989Y-9018547D02*
G75*
G03X13940989Y-9018547I-12700J0D01*
G01*
X14115614Y-7339101D02*
G75*
G03X14115614Y-7339101I-12700J0D01*
G01*
X14116986Y-8699500D02*
G75*
G03X14116986Y-8699500I-12700J0D01*
G01*
X14290285Y-7593915D02*
G75*
G03X14290285Y-7593915I-12700J0D01*
G01*
X14375267Y-7552125D02*
G75*
G03X14375267Y-7552125I-12700J0D01*
G01*
X14597886Y-6518923D02*
G75*
G03X14597886Y-6518923I-12700J0D01*
G01*
X14600073Y-6392085D02*
G75*
G03X14600073Y-6392085I-12700J0D01*
G01*
X14700700Y-9660000D02*
G75*
G03X14700700Y-9660000I-12700J0D01*
G01*
X14756716Y-9601454D02*
G75*
G03X14756716Y-9601454I-12700J0D01*
G01*
X14777147Y-9322948D02*
G75*
G03X14777147Y-9322948I-12700J0D01*
G01*
X14835104Y-9327037D02*
G75*
G03X14835104Y-9327037I-12700J0D01*
G01*
X14846929Y-9383922D02*
G75*
G03X14846929Y-9383922I-12700J0D01*
G01*
X14941590Y-9504387D02*
G75*
G03X14941590Y-9504387I-12700J0D01*
G01*
X15025690Y-9441490D02*
G75*
G03X15025690Y-9441490I-12700J0D01*
G01*
X15062355Y-9498156D02*
G75*
G03X15062355Y-9498156I-12700J0D01*
G01*
X15102959Y-9539714D02*
G75*
G03X15102959Y-9539714I-12700J0D01*
G01*
X15174658Y-9622822D02*
G75*
G03X15174658Y-9622822I-12700J0D01*
G01*
X15224569Y-9589479D02*
G75*
G03X15224569Y-9589479I-12700J0D01*
G01*
X15280700Y-9655099D02*
G75*
G03X15280700Y-9655099I-12700J0D01*
G01*
X15440260Y-9592491D02*
G75*
G03X15440260Y-9592491I-12700J0D01*
G01*
X13768000Y-6320000D02*
X13768000Y-6400000D01*
X13728000Y-6360000D02*
X13808000Y-6360000D01*
X13738000Y-6310000D02*
X13738000Y-6410000D01*
X13798000Y-6310000D02*
X13798000Y-6410000D01*
X13738000Y-6410000D02*
G75*
G03X13798000Y-6410000I30000J0D01*
G01*
X13798000Y-6310000D02*
G75*
G03X13738000Y-6310000I-30000J0D01*
G01*
X13768000Y-6925000D02*
X13768000Y-7005000D01*
X13728000Y-6965000D02*
X13808000Y-6965000D01*
X13738000Y-6895000D02*
X13738000Y-7035000D01*
X13798000Y-6895000D02*
X13798000Y-7035000D01*
X13738000Y-7035000D02*
G75*
G03X13798000Y-7035000I30000J0D01*
G01*
X13798000Y-6895000D02*
G75*
G03X13738000Y-6895000I-30000J0D01*
G01*
X15228000Y-6320000D02*
X15228000Y-6400000D01*
X15188000Y-6360000D02*
X15268000Y-6360000D01*
X15198000Y-6310000D02*
X15198000Y-6410000D01*
X15258000Y-6310000D02*
X15258000Y-6410000D01*
X15198000Y-6410000D02*
G75*
G03X15258000Y-6410000I30000J0D01*
G01*
X15258000Y-6310000D02*
G75*
G03X15198000Y-6310000I-30000J0D01*
G01*
X15228000Y-6925000D02*
X15228000Y-7005000D01*
X15188000Y-6965000D02*
X15268000Y-6965000D01*
X15198000Y-6895000D02*
X15198000Y-7035000D01*
X15258000Y-6895000D02*
X15258000Y-7035000D01*
X15198000Y-7035000D02*
G75*
G03X15258000Y-7035000I30000J0D01*
G01*
X15258000Y-6895000D02*
G75*
G03X15198000Y-6895000I-30000J0D01*
G01*
X9572921Y-6304921D02*
X9572921Y-6233079D01*
X9501079Y-6233079D01*
X9501079Y-6304921D01*
X9572921Y-6304921D01*
X9572921Y-6558921D02*
X9572921Y-6487079D01*
X9501079Y-6487079D01*
X9501079Y-6558921D01*
X9572921Y-6558921D01*
X9572921Y-6812921D02*
X9572921Y-6741079D01*
X9501079Y-6741079D01*
X9501079Y-6812921D01*
X9572921Y-6812921D01*
X9572921Y-7066921D02*
X9572921Y-6995079D01*
X9501079Y-6995079D01*
X9501079Y-7066921D01*
X9572921Y-7066921D01*
X9572921Y-7320921D02*
X9572921Y-7249079D01*
X9501079Y-7249079D01*
X9501079Y-7320921D01*
X9572921Y-7320921D01*
X9572921Y-7574921D02*
X9572921Y-7503079D01*
X9501079Y-7503079D01*
X9501079Y-7574921D01*
X9572921Y-7574921D01*
X9572921Y-7828921D02*
X9572921Y-7757079D01*
X9501079Y-7757079D01*
X9501079Y-7828921D01*
X9572921Y-7828921D01*
X9572921Y-8082921D02*
X9572921Y-8011079D01*
X9501079Y-8011079D01*
X9501079Y-8082921D01*
X9572921Y-8082921D01*
X9572921Y-8336921D02*
X9572921Y-8265079D01*
X9501079Y-8265079D01*
X9501079Y-8336921D01*
X9572921Y-8336921D01*
X9572921Y-8590921D02*
X9572921Y-8519079D01*
X9501079Y-8519079D01*
X9501079Y-8590921D01*
X9572921Y-8590921D01*
X9572921Y-8844921D02*
X9572921Y-8773079D01*
X9501079Y-8773079D01*
X9501079Y-8844921D01*
X9572921Y-8844921D01*
X9572921Y-9098921D02*
X9572921Y-9027079D01*
X9501079Y-9027079D01*
X9501079Y-9098921D01*
X9572921Y-9098921D01*
X9572921Y-9352921D02*
X9572921Y-9281079D01*
X9501079Y-9281079D01*
X9501079Y-9352921D01*
X9572921Y-9352921D01*
X9572921Y-9606921D02*
X9572921Y-9535079D01*
X9501079Y-9535079D01*
X9501079Y-9606921D01*
X9572921Y-9606921D01*
X9572921Y-9860921D02*
X9572921Y-9789079D01*
X9501079Y-9789079D01*
X9501079Y-9860921D01*
X9572921Y-9860921D01*
X9572921Y-10114921D02*
X9572921Y-10043079D01*
X9501079Y-10043079D01*
X9501079Y-10114921D01*
X9572921Y-10114921D01*
X9572921Y-10368921D02*
X9572921Y-10297079D01*
X9501079Y-10297079D01*
X9501079Y-10368921D01*
X9572921Y-10368921D01*
X9572921Y-10622921D02*
X9572921Y-10551079D01*
X9501079Y-10551079D01*
X9501079Y-10622921D01*
X9572921Y-10622921D01*
X9572921Y-10876921D02*
X9572921Y-10805079D01*
X9501079Y-10805079D01*
X9501079Y-10876921D01*
X9572921Y-10876921D01*
X9572921Y-11130921D02*
X9572921Y-11059079D01*
X9501079Y-11059079D01*
X9501079Y-11130921D01*
X9572921Y-11130921D01*
X9826921Y-6304921D02*
X9826921Y-6233079D01*
X9755079Y-6233079D01*
X9755079Y-6304921D01*
X9826921Y-6304921D01*
X9826921Y-6558921D02*
X9826921Y-6487079D01*
X9755079Y-6487079D01*
X9755079Y-6558921D01*
X9826921Y-6558921D01*
X9826921Y-6812921D02*
X9826921Y-6741079D01*
X9755079Y-6741079D01*
X9755079Y-6812921D01*
X9826921Y-6812921D01*
X9826921Y-7066921D02*
X9826921Y-6995079D01*
X9755079Y-6995079D01*
X9755079Y-7066921D01*
X9826921Y-7066921D01*
X9826921Y-7320921D02*
X9826921Y-7249079D01*
X9755079Y-7249079D01*
X9755079Y-7320921D01*
X9826921Y-7320921D01*
X9826921Y-7574921D02*
X9826921Y-7503079D01*
X9755079Y-7503079D01*
X9755079Y-7574921D01*
X9826921Y-7574921D01*
X9826921Y-7828921D02*
X9826921Y-7757079D01*
X9755079Y-7757079D01*
X9755079Y-7828921D01*
X9826921Y-7828921D01*
X9826921Y-8082921D02*
X9826921Y-8011079D01*
X9755079Y-8011079D01*
X9755079Y-8082921D01*
X9826921Y-8082921D01*
X9826921Y-8336921D02*
X9826921Y-8265079D01*
X9755079Y-8265079D01*
X9755079Y-8336921D01*
X9826921Y-8336921D01*
X9826921Y-8590921D02*
X9826921Y-8519079D01*
X9755079Y-8519079D01*
X9755079Y-8590921D01*
X9826921Y-8590921D01*
X9826921Y-8844921D02*
X9826921Y-8773079D01*
X9755079Y-8773079D01*
X9755079Y-8844921D01*
X9826921Y-8844921D01*
X9826921Y-9098921D02*
X9826921Y-9027079D01*
X9755079Y-9027079D01*
X9755079Y-9098921D01*
X9826921Y-9098921D01*
X9826921Y-9352921D02*
X9826921Y-9281079D01*
X9755079Y-9281079D01*
X9755079Y-9352921D01*
X9826921Y-9352921D01*
X9826921Y-9606921D02*
X9826921Y-9535079D01*
X9755079Y-9535079D01*
X9755079Y-9606921D01*
X9826921Y-9606921D01*
X9826921Y-9860921D02*
X9826921Y-9789079D01*
X9755079Y-9789079D01*
X9755079Y-9860921D01*
X9826921Y-9860921D01*
X9826921Y-10114921D02*
X9826921Y-10043079D01*
X9755079Y-10043079D01*
X9755079Y-10114921D01*
X9826921Y-10114921D01*
X9826921Y-10368921D02*
X9826921Y-10297079D01*
X9755079Y-10297079D01*
X9755079Y-10368921D01*
X9826921Y-10368921D01*
X9826921Y-10622921D02*
X9826921Y-10551079D01*
X9755079Y-10551079D01*
X9755079Y-10622921D01*
X9826921Y-10622921D01*
X9826921Y-10876921D02*
X9826921Y-10805079D01*
X9755079Y-10805079D01*
X9755079Y-10876921D01*
X9826921Y-10876921D01*
X9826921Y-11130921D02*
X9826921Y-11059079D01*
X9755079Y-11059079D01*
X9755079Y-11130921D01*
X9826921Y-11130921D01*
X10207921Y-9987921D02*
X10207921Y-9916079D01*
X10136079Y-9916079D01*
X10136079Y-9987921D01*
X10207921Y-9987921D01*
X10461921Y-9987921D02*
X10461921Y-9916079D01*
X10390079Y-9916079D01*
X10390079Y-9987921D01*
X10461921Y-9987921D01*
X13255921Y-10114921D02*
X13255921Y-10043079D01*
X13184079Y-10043079D01*
X13184079Y-10114921D01*
X13255921Y-10114921D01*
X13509921Y-10114921D02*
X13509921Y-10043079D01*
X13438079Y-10043079D01*
X13438079Y-10114921D01*
X13509921Y-10114921D01*
X13763921Y-10114921D02*
X13763921Y-10043079D01*
X13692079Y-10043079D01*
X13692079Y-10114921D01*
X13763921Y-10114921D01*
X14017921Y-10114921D02*
X14017921Y-10043079D01*
X13946079Y-10043079D01*
X13946079Y-10114921D01*
X14017921Y-10114921D01*
X14271921Y-10114921D02*
X14271921Y-10043079D01*
X14200079Y-10043079D01*
X14200079Y-10114921D01*
X14271921Y-10114921D01*
X14525921Y-10114921D02*
X14525921Y-10043079D01*
X14454079Y-10043079D01*
X14454079Y-10114921D01*
X14525921Y-10114921D01*
X14779921Y-10114921D02*
X14779921Y-10043079D01*
X14708079Y-10043079D01*
X14708079Y-10114921D01*
X14779921Y-10114921D01*
X18462921Y-6304921D02*
X18462921Y-6233079D01*
X18391079Y-6233079D01*
X18391079Y-6304921D01*
X18462921Y-6304921D01*
X18462921Y-6558921D02*
X18462921Y-6487079D01*
X18391079Y-6487079D01*
X18391079Y-6558921D01*
X18462921Y-6558921D01*
X18462921Y-6812921D02*
X18462921Y-6741079D01*
X18391079Y-6741079D01*
X18391079Y-6812921D01*
X18462921Y-6812921D01*
X18462921Y-7066921D02*
X18462921Y-6995079D01*
X18391079Y-6995079D01*
X18391079Y-7066921D01*
X18462921Y-7066921D01*
X18462921Y-7320921D02*
X18462921Y-7249079D01*
X18391079Y-7249079D01*
X18391079Y-7320921D01*
X18462921Y-7320921D01*
X18462921Y-7574921D02*
X18462921Y-7503079D01*
X18391079Y-7503079D01*
X18391079Y-7574921D01*
X18462921Y-7574921D01*
X18462921Y-7828921D02*
X18462921Y-7757079D01*
X18391079Y-7757079D01*
X18391079Y-7828921D01*
X18462921Y-7828921D01*
X18462921Y-8082921D02*
X18462921Y-8011079D01*
X18391079Y-8011079D01*
X18391079Y-8082921D01*
X18462921Y-8082921D01*
X18462921Y-8336921D02*
X18462921Y-8265079D01*
X18391079Y-8265079D01*
X18391079Y-8336921D01*
X18462921Y-8336921D01*
X18462921Y-8590921D02*
X18462921Y-8519079D01*
X18391079Y-8519079D01*
X18391079Y-8590921D01*
X18462921Y-8590921D01*
X18462921Y-8844921D02*
X18462921Y-8773079D01*
X18391079Y-8773079D01*
X18391079Y-8844921D01*
X18462921Y-8844921D01*
X18462921Y-9098921D02*
X18462921Y-9027079D01*
X18391079Y-9027079D01*
X18391079Y-9098921D01*
X18462921Y-9098921D01*
X18462921Y-9352921D02*
X18462921Y-9281079D01*
X18391079Y-9281079D01*
X18391079Y-9352921D01*
X18462921Y-9352921D01*
X18462921Y-9606921D02*
X18462921Y-9535079D01*
X18391079Y-9535079D01*
X18391079Y-9606921D01*
X18462921Y-9606921D01*
X18462921Y-9860921D02*
X18462921Y-9789079D01*
X18391079Y-9789079D01*
X18391079Y-9860921D01*
X18462921Y-9860921D01*
X18462921Y-10114921D02*
X18462921Y-10043079D01*
X18391079Y-10043079D01*
X18391079Y-10114921D01*
X18462921Y-10114921D01*
X18462921Y-10368921D02*
X18462921Y-10297079D01*
X18391079Y-10297079D01*
X18391079Y-10368921D01*
X18462921Y-10368921D01*
X18462921Y-10622921D02*
X18462921Y-10551079D01*
X18391079Y-10551079D01*
X18391079Y-10622921D01*
X18462921Y-10622921D01*
X18462921Y-10876921D02*
X18462921Y-10805079D01*
X18391079Y-10805079D01*
X18391079Y-10876921D01*
X18462921Y-10876921D01*
X18462921Y-11130921D02*
X18462921Y-11059079D01*
X18391079Y-11059079D01*
X18391079Y-11130921D01*
X18462921Y-11130921D01*
X18716921Y-6304921D02*
X18716921Y-6233079D01*
X18645079Y-6233079D01*
X18645079Y-6304921D01*
X18716921Y-6304921D01*
X18716921Y-6558921D02*
X18716921Y-6487079D01*
X18645079Y-6487079D01*
X18645079Y-6558921D01*
X18716921Y-6558921D01*
X18716921Y-6812921D02*
X18716921Y-6741079D01*
X18645079Y-6741079D01*
X18645079Y-6812921D01*
X18716921Y-6812921D01*
X18716921Y-7066921D02*
X18716921Y-6995079D01*
X18645079Y-6995079D01*
X18645079Y-7066921D01*
X18716921Y-7066921D01*
X18716921Y-7320921D02*
X18716921Y-7249079D01*
X18645079Y-7249079D01*
X18645079Y-7320921D01*
X18716921Y-7320921D01*
X18716921Y-7574921D02*
X18716921Y-7503079D01*
X18645079Y-7503079D01*
X18645079Y-7574921D01*
X18716921Y-7574921D01*
X18716921Y-7828921D02*
X18716921Y-7757079D01*
X18645079Y-7757079D01*
X18645079Y-7828921D01*
X18716921Y-7828921D01*
X18716921Y-8082921D02*
X18716921Y-8011079D01*
X18645079Y-8011079D01*
X18645079Y-8082921D01*
X18716921Y-8082921D01*
X18716921Y-8336921D02*
X18716921Y-8265079D01*
X18645079Y-8265079D01*
X18645079Y-8336921D01*
X18716921Y-8336921D01*
X18716921Y-8590921D02*
X18716921Y-8519079D01*
X18645079Y-8519079D01*
X18645079Y-8590921D01*
X18716921Y-8590921D01*
X18716921Y-8844921D02*
X18716921Y-8773079D01*
X18645079Y-8773079D01*
X18645079Y-8844921D01*
X18716921Y-8844921D01*
X18716921Y-9098921D02*
X18716921Y-9027079D01*
X18645079Y-9027079D01*
X18645079Y-9098921D01*
X18716921Y-9098921D01*
X18716921Y-9352921D02*
X18716921Y-9281079D01*
X18645079Y-9281079D01*
X18645079Y-9352921D01*
X18716921Y-9352921D01*
X18716921Y-9606921D02*
X18716921Y-9535079D01*
X18645079Y-9535079D01*
X18645079Y-9606921D01*
X18716921Y-9606921D01*
X18716921Y-9860921D02*
X18716921Y-9789079D01*
X18645079Y-9789079D01*
X18645079Y-9860921D01*
X18716921Y-9860921D01*
X18716921Y-10114921D02*
X18716921Y-10043079D01*
X18645079Y-10043079D01*
X18645079Y-10114921D01*
X18716921Y-10114921D01*
X18716921Y-10368921D02*
X18716921Y-10297079D01*
X18645079Y-10297079D01*
X18645079Y-10368921D01*
X18716921Y-10368921D01*
X18716921Y-10622921D02*
X18716921Y-10551079D01*
X18645079Y-10551079D01*
X18645079Y-10622921D01*
X18716921Y-10622921D01*
X18716921Y-10876921D02*
X18716921Y-10805079D01*
X18645079Y-10805079D01*
X18645079Y-10876921D01*
X18716921Y-10876921D01*
X18716921Y-11130921D02*
X18716921Y-11059079D01*
X18645079Y-11059079D01*
X18645079Y-11130921D01*
X18716921Y-11130921D01*
X10299000Y-6683000D02*
X10459000Y-6523000D01*
X10299000Y-6363000D01*
X10139000Y-6523000D01*
X10299000Y-6683000D01*
X10299000Y-11001000D02*
X10459000Y-10841000D01*
X10299000Y-10681000D01*
X10139000Y-10841000D01*
X10299000Y-11001000D01*
X17919000Y-6683000D02*
X18079000Y-6523000D01*
X17919000Y-6363000D01*
X17759000Y-6523000D01*
X17919000Y-6683000D01*
X17919000Y-11001000D02*
X18079000Y-10841000D01*
X17919000Y-10681000D01*
X17759000Y-10841000D01*
X17919000Y-11001000D01*
D11*
X9666429Y-11702714D02*
X9666429Y-11402714D01*
X9737857Y-11402714D01*
X9780714Y-11417000D01*
X9809286Y-11445571D01*
X9823571Y-11474143D01*
X9837857Y-11531286D01*
X9837857Y-11574143D01*
X9823571Y-11631286D01*
X9809286Y-11659857D01*
X9780714Y-11688429D01*
X9737857Y-11702714D01*
X9666429Y-11702714D01*
X9966429Y-11702714D02*
X9966429Y-11502714D01*
X9966429Y-11559857D02*
X9980714Y-11531286D01*
X9995000Y-11517000D01*
X10023571Y-11502714D01*
X10052143Y-11502714D01*
X10152143Y-11702714D02*
X10152143Y-11502714D01*
X10152143Y-11402714D02*
X10137857Y-11417000D01*
X10152143Y-11431286D01*
X10166429Y-11417000D01*
X10152143Y-11402714D01*
X10152143Y-11431286D01*
X10337857Y-11702714D02*
X10309286Y-11688429D01*
X10295000Y-11659857D01*
X10295000Y-11402714D01*
X10495000Y-11702714D02*
X10466429Y-11688429D01*
X10452143Y-11659857D01*
X10452143Y-11402714D01*
X10837857Y-11702714D02*
X10837857Y-11402714D01*
X10937857Y-11617000D01*
X11037857Y-11402714D01*
X11037857Y-11702714D01*
X11309286Y-11702714D02*
X11309286Y-11545571D01*
X11295000Y-11517000D01*
X11266428Y-11502714D01*
X11209286Y-11502714D01*
X11180714Y-11517000D01*
X11309286Y-11688429D02*
X11280714Y-11702714D01*
X11209286Y-11702714D01*
X11180714Y-11688429D01*
X11166429Y-11659857D01*
X11166429Y-11631286D01*
X11180714Y-11602714D01*
X11209286Y-11588429D01*
X11280714Y-11588429D01*
X11309286Y-11574143D01*
X11452143Y-11502714D02*
X11452143Y-11802714D01*
X11452143Y-11517000D02*
X11480714Y-11502714D01*
X11537857Y-11502714D01*
X11566428Y-11517000D01*
X11580714Y-11531286D01*
X11595000Y-11559857D01*
X11595000Y-11645571D01*
X11580714Y-11674143D01*
X11566428Y-11688429D01*
X11537857Y-11702714D01*
X11480714Y-11702714D01*
X11452143Y-11688429D01*
X11723571Y-11674143D02*
X11737857Y-11688429D01*
X11723571Y-11702714D01*
X11709286Y-11688429D01*
X11723571Y-11674143D01*
X11723571Y-11702714D01*
X11723571Y-11517000D02*
X11737857Y-11531286D01*
X11723571Y-11545571D01*
X11709286Y-11531286D01*
X11723571Y-11517000D01*
X11723571Y-11545571D01*
X9375000Y-12187000D02*
X9395000Y-12207000D01*
X9395000Y-12187000D02*
X9375000Y-12207000D01*
X9723571Y-12032714D02*
X9752143Y-12032714D01*
X9780714Y-12047000D01*
X9795000Y-12061286D01*
X9809286Y-12089857D01*
X9823571Y-12147000D01*
X9823571Y-12218429D01*
X9809286Y-12275571D01*
X9795000Y-12304143D01*
X9780714Y-12318429D01*
X9752143Y-12332714D01*
X9723571Y-12332714D01*
X9695000Y-12318429D01*
X9680714Y-12304143D01*
X9666429Y-12275571D01*
X9652143Y-12218429D01*
X9652143Y-12147000D01*
X9666429Y-12089857D01*
X9680714Y-12061286D01*
X9695000Y-12047000D01*
X9723571Y-12032714D01*
X9952143Y-12304143D02*
X9966429Y-12318429D01*
X9952143Y-12332714D01*
X9937857Y-12318429D01*
X9952143Y-12304143D01*
X9952143Y-12332714D01*
X10080714Y-12061286D02*
X10095000Y-12047000D01*
X10123571Y-12032714D01*
X10195000Y-12032714D01*
X10223571Y-12047000D01*
X10237857Y-12061286D01*
X10252143Y-12089857D01*
X10252143Y-12118429D01*
X10237857Y-12161286D01*
X10066428Y-12332714D01*
X10252143Y-12332714D01*
X10437857Y-12032714D02*
X10466429Y-12032714D01*
X10495000Y-12047000D01*
X10509286Y-12061286D01*
X10523571Y-12089857D01*
X10537857Y-12147000D01*
X10537857Y-12218429D01*
X10523571Y-12275571D01*
X10509286Y-12304143D01*
X10495000Y-12318429D01*
X10466429Y-12332714D01*
X10437857Y-12332714D01*
X10409286Y-12318429D01*
X10395000Y-12304143D01*
X10380714Y-12275571D01*
X10366429Y-12218429D01*
X10366429Y-12147000D01*
X10380714Y-12089857D01*
X10395000Y-12061286D01*
X10409286Y-12047000D01*
X10437857Y-12032714D01*
X10666429Y-12332714D02*
X10666429Y-12132714D01*
X10666429Y-12161286D02*
X10680714Y-12147000D01*
X10709286Y-12132714D01*
X10752143Y-12132714D01*
X10780714Y-12147000D01*
X10795000Y-12175571D01*
X10795000Y-12332714D01*
X10795000Y-12175571D02*
X10809286Y-12147000D01*
X10837857Y-12132714D01*
X10880714Y-12132714D01*
X10909286Y-12147000D01*
X10923571Y-12175571D01*
X10923571Y-12332714D01*
X11066429Y-12332714D02*
X11066429Y-12132714D01*
X11066429Y-12161286D02*
X11080714Y-12147000D01*
X11109286Y-12132714D01*
X11152143Y-12132714D01*
X11180714Y-12147000D01*
X11195000Y-12175571D01*
X11195000Y-12332714D01*
X11195000Y-12175571D02*
X11209286Y-12147000D01*
X11237857Y-12132714D01*
X11280714Y-12132714D01*
X11309286Y-12147000D01*
X11323571Y-12175571D01*
X11323571Y-12332714D01*
X11909286Y-12018429D02*
X11652143Y-12404143D01*
X12295000Y-12032714D02*
X12323571Y-12032714D01*
X12352143Y-12047000D01*
X12366428Y-12061286D01*
X12380714Y-12089857D01*
X12395000Y-12147000D01*
X12395000Y-12218429D01*
X12380714Y-12275571D01*
X12366428Y-12304143D01*
X12352143Y-12318429D01*
X12323571Y-12332714D01*
X12295000Y-12332714D01*
X12266428Y-12318429D01*
X12252143Y-12304143D01*
X12237857Y-12275571D01*
X12223571Y-12218429D01*
X12223571Y-12147000D01*
X12237857Y-12089857D01*
X12252143Y-12061286D01*
X12266428Y-12047000D01*
X12295000Y-12032714D01*
X12523571Y-12304143D02*
X12537857Y-12318429D01*
X12523571Y-12332714D01*
X12509286Y-12318429D01*
X12523571Y-12304143D01*
X12523571Y-12332714D01*
X12723571Y-12032714D02*
X12752143Y-12032714D01*
X12780714Y-12047000D01*
X12795000Y-12061286D01*
X12809285Y-12089857D01*
X12823571Y-12147000D01*
X12823571Y-12218429D01*
X12809285Y-12275571D01*
X12795000Y-12304143D01*
X12780714Y-12318429D01*
X12752143Y-12332714D01*
X12723571Y-12332714D01*
X12695000Y-12318429D01*
X12680714Y-12304143D01*
X12666428Y-12275571D01*
X12652143Y-12218429D01*
X12652143Y-12147000D01*
X12666428Y-12089857D01*
X12680714Y-12061286D01*
X12695000Y-12047000D01*
X12723571Y-12032714D01*
X13009285Y-12032714D02*
X13037857Y-12032714D01*
X13066428Y-12047000D01*
X13080714Y-12061286D01*
X13095000Y-12089857D01*
X13109285Y-12147000D01*
X13109285Y-12218429D01*
X13095000Y-12275571D01*
X13080714Y-12304143D01*
X13066428Y-12318429D01*
X13037857Y-12332714D01*
X13009285Y-12332714D01*
X12980714Y-12318429D01*
X12966428Y-12304143D01*
X12952143Y-12275571D01*
X12937857Y-12218429D01*
X12937857Y-12147000D01*
X12952143Y-12089857D01*
X12966428Y-12061286D01*
X12980714Y-12047000D01*
X13009285Y-12032714D01*
X13280714Y-12161286D02*
X13252143Y-12147000D01*
X13237857Y-12132714D01*
X13223571Y-12104143D01*
X13223571Y-12089857D01*
X13237857Y-12061286D01*
X13252143Y-12047000D01*
X13280714Y-12032714D01*
X13337857Y-12032714D01*
X13366428Y-12047000D01*
X13380714Y-12061286D01*
X13395000Y-12089857D01*
X13395000Y-12104143D01*
X13380714Y-12132714D01*
X13366428Y-12147000D01*
X13337857Y-12161286D01*
X13280714Y-12161286D01*
X13252143Y-12175571D01*
X13237857Y-12189857D01*
X13223571Y-12218429D01*
X13223571Y-12275571D01*
X13237857Y-12304143D01*
X13252143Y-12318429D01*
X13280714Y-12332714D01*
X13337857Y-12332714D01*
X13366428Y-12318429D01*
X13380714Y-12304143D01*
X13395000Y-12275571D01*
X13395000Y-12218429D01*
X13380714Y-12189857D01*
X13366428Y-12175571D01*
X13337857Y-12161286D01*
X13509286Y-12032714D02*
X13509286Y-12089857D01*
X13623571Y-12032714D02*
X13623571Y-12089857D01*
X14066428Y-12447000D02*
X14052143Y-12432714D01*
X14023571Y-12389857D01*
X14009285Y-12361286D01*
X13995000Y-12318429D01*
X13980714Y-12247000D01*
X13980714Y-12189857D01*
X13995000Y-12118429D01*
X14009285Y-12075571D01*
X14023571Y-12047000D01*
X14052143Y-12004143D01*
X14066428Y-11989857D01*
X14337857Y-12332714D02*
X14166428Y-12332714D01*
X14252143Y-12332714D02*
X14252143Y-12032714D01*
X14223571Y-12075571D01*
X14195000Y-12104143D01*
X14166428Y-12118429D01*
X14480714Y-12332714D02*
X14537857Y-12332714D01*
X14566428Y-12318429D01*
X14580714Y-12304143D01*
X14609285Y-12261286D01*
X14623571Y-12204143D01*
X14623571Y-12089857D01*
X14609285Y-12061286D01*
X14595000Y-12047000D01*
X14566428Y-12032714D01*
X14509285Y-12032714D01*
X14480714Y-12047000D01*
X14466428Y-12061286D01*
X14452143Y-12089857D01*
X14452143Y-12161286D01*
X14466428Y-12189857D01*
X14480714Y-12204143D01*
X14509285Y-12218429D01*
X14566428Y-12218429D01*
X14595000Y-12204143D01*
X14609285Y-12189857D01*
X14623571Y-12161286D01*
X14795000Y-12161286D02*
X14766428Y-12147000D01*
X14752143Y-12132714D01*
X14737857Y-12104143D01*
X14737857Y-12089857D01*
X14752143Y-12061286D01*
X14766428Y-12047000D01*
X14795000Y-12032714D01*
X14852143Y-12032714D01*
X14880714Y-12047000D01*
X14895000Y-12061286D01*
X14909285Y-12089857D01*
X14909285Y-12104143D01*
X14895000Y-12132714D01*
X14880714Y-12147000D01*
X14852143Y-12161286D01*
X14795000Y-12161286D01*
X14766428Y-12175571D01*
X14752143Y-12189857D01*
X14737857Y-12218429D01*
X14737857Y-12275571D01*
X14752143Y-12304143D01*
X14766428Y-12318429D01*
X14795000Y-12332714D01*
X14852143Y-12332714D01*
X14880714Y-12318429D01*
X14895000Y-12304143D01*
X14909285Y-12275571D01*
X14909285Y-12218429D01*
X14895000Y-12189857D01*
X14880714Y-12175571D01*
X14852143Y-12161286D01*
X15266428Y-12332714D02*
X15266428Y-12032714D01*
X15395000Y-12332714D02*
X15395000Y-12175571D01*
X15380714Y-12147000D01*
X15352143Y-12132714D01*
X15309285Y-12132714D01*
X15280714Y-12147000D01*
X15266428Y-12161286D01*
X15580714Y-12332714D02*
X15552143Y-12318429D01*
X15537857Y-12304143D01*
X15523571Y-12275571D01*
X15523571Y-12189857D01*
X15537857Y-12161286D01*
X15552143Y-12147000D01*
X15580714Y-12132714D01*
X15623571Y-12132714D01*
X15652143Y-12147000D01*
X15666428Y-12161286D01*
X15680714Y-12189857D01*
X15680714Y-12275571D01*
X15666428Y-12304143D01*
X15652143Y-12318429D01*
X15623571Y-12332714D01*
X15580714Y-12332714D01*
X15852143Y-12332714D02*
X15823571Y-12318429D01*
X15809286Y-12289857D01*
X15809286Y-12032714D01*
X16080714Y-12318429D02*
X16052143Y-12332714D01*
X15995000Y-12332714D01*
X15966428Y-12318429D01*
X15952143Y-12289857D01*
X15952143Y-12175571D01*
X15966428Y-12147000D01*
X15995000Y-12132714D01*
X16052143Y-12132714D01*
X16080714Y-12147000D01*
X16095000Y-12175571D01*
X16095000Y-12204143D01*
X15952143Y-12232714D01*
X16209286Y-12318429D02*
X16237857Y-12332714D01*
X16295000Y-12332714D01*
X16323571Y-12318429D01*
X16337857Y-12289857D01*
X16337857Y-12275571D01*
X16323571Y-12247000D01*
X16295000Y-12232714D01*
X16252143Y-12232714D01*
X16223571Y-12218429D01*
X16209286Y-12189857D01*
X16209286Y-12175571D01*
X16223571Y-12147000D01*
X16252143Y-12132714D01*
X16295000Y-12132714D01*
X16323571Y-12147000D01*
X16437857Y-12447000D02*
X16452143Y-12432714D01*
X16480714Y-12389857D01*
X16495000Y-12361286D01*
X16509286Y-12318429D01*
X16523571Y-12247000D01*
X16523571Y-12189857D01*
X16509286Y-12118429D01*
X16495000Y-12075571D01*
X16480714Y-12047000D01*
X16452143Y-12004143D01*
X16437857Y-11989857D01*
X9395000Y-12593000D02*
G75*
G03X9395000Y-12593000I-12700J0D01*
G01*
X9723571Y-12428714D02*
X9752143Y-12428714D01*
X9780714Y-12443000D01*
X9795000Y-12457286D01*
X9809286Y-12485857D01*
X9823571Y-12543000D01*
X9823571Y-12614429D01*
X9809286Y-12671571D01*
X9795000Y-12700143D01*
X9780714Y-12714429D01*
X9752143Y-12728714D01*
X9723571Y-12728714D01*
X9695000Y-12714429D01*
X9680714Y-12700143D01*
X9666429Y-12671571D01*
X9652143Y-12614429D01*
X9652143Y-12543000D01*
X9666429Y-12485857D01*
X9680714Y-12457286D01*
X9695000Y-12443000D01*
X9723571Y-12428714D01*
X9952143Y-12700143D02*
X9966429Y-12714429D01*
X9952143Y-12728714D01*
X9937857Y-12714429D01*
X9952143Y-12700143D01*
X9952143Y-12728714D01*
X10080714Y-12457286D02*
X10095000Y-12443000D01*
X10123571Y-12428714D01*
X10195000Y-12428714D01*
X10223571Y-12443000D01*
X10237857Y-12457286D01*
X10252143Y-12485857D01*
X10252143Y-12514429D01*
X10237857Y-12557286D01*
X10066428Y-12728714D01*
X10252143Y-12728714D01*
X10523571Y-12428714D02*
X10380714Y-12428714D01*
X10366429Y-12571571D01*
X10380714Y-12557286D01*
X10409286Y-12543000D01*
X10480714Y-12543000D01*
X10509286Y-12557286D01*
X10523571Y-12571571D01*
X10537857Y-12600143D01*
X10537857Y-12671571D01*
X10523571Y-12700143D01*
X10509286Y-12714429D01*
X10480714Y-12728714D01*
X10409286Y-12728714D01*
X10380714Y-12714429D01*
X10366429Y-12700143D01*
X10666429Y-12728714D02*
X10666429Y-12528714D01*
X10666429Y-12557286D02*
X10680714Y-12543000D01*
X10709286Y-12528714D01*
X10752143Y-12528714D01*
X10780714Y-12543000D01*
X10795000Y-12571571D01*
X10795000Y-12728714D01*
X10795000Y-12571571D02*
X10809286Y-12543000D01*
X10837857Y-12528714D01*
X10880714Y-12528714D01*
X10909286Y-12543000D01*
X10923571Y-12571571D01*
X10923571Y-12728714D01*
X11066429Y-12728714D02*
X11066429Y-12528714D01*
X11066429Y-12557286D02*
X11080714Y-12543000D01*
X11109286Y-12528714D01*
X11152143Y-12528714D01*
X11180714Y-12543000D01*
X11195000Y-12571571D01*
X11195000Y-12728714D01*
X11195000Y-12571571D02*
X11209286Y-12543000D01*
X11237857Y-12528714D01*
X11280714Y-12528714D01*
X11309286Y-12543000D01*
X11323571Y-12571571D01*
X11323571Y-12728714D01*
X11909286Y-12414429D02*
X11652143Y-12800143D01*
X12295000Y-12428714D02*
X12323571Y-12428714D01*
X12352143Y-12443000D01*
X12366428Y-12457286D01*
X12380714Y-12485857D01*
X12395000Y-12543000D01*
X12395000Y-12614429D01*
X12380714Y-12671571D01*
X12366428Y-12700143D01*
X12352143Y-12714429D01*
X12323571Y-12728714D01*
X12295000Y-12728714D01*
X12266428Y-12714429D01*
X12252143Y-12700143D01*
X12237857Y-12671571D01*
X12223571Y-12614429D01*
X12223571Y-12543000D01*
X12237857Y-12485857D01*
X12252143Y-12457286D01*
X12266428Y-12443000D01*
X12295000Y-12428714D01*
X12523571Y-12700143D02*
X12537857Y-12714429D01*
X12523571Y-12728714D01*
X12509286Y-12714429D01*
X12523571Y-12700143D01*
X12523571Y-12728714D01*
X12723571Y-12428714D02*
X12752143Y-12428714D01*
X12780714Y-12443000D01*
X12795000Y-12457286D01*
X12809285Y-12485857D01*
X12823571Y-12543000D01*
X12823571Y-12614429D01*
X12809285Y-12671571D01*
X12795000Y-12700143D01*
X12780714Y-12714429D01*
X12752143Y-12728714D01*
X12723571Y-12728714D01*
X12695000Y-12714429D01*
X12680714Y-12700143D01*
X12666428Y-12671571D01*
X12652143Y-12614429D01*
X12652143Y-12543000D01*
X12666428Y-12485857D01*
X12680714Y-12457286D01*
X12695000Y-12443000D01*
X12723571Y-12428714D01*
X13109285Y-12728714D02*
X12937857Y-12728714D01*
X13023571Y-12728714D02*
X13023571Y-12428714D01*
X12995000Y-12471571D01*
X12966428Y-12500143D01*
X12937857Y-12514429D01*
X13295000Y-12428714D02*
X13323571Y-12428714D01*
X13352143Y-12443000D01*
X13366428Y-12457286D01*
X13380714Y-12485857D01*
X13395000Y-12543000D01*
X13395000Y-12614429D01*
X13380714Y-12671571D01*
X13366428Y-12700143D01*
X13352143Y-12714429D01*
X13323571Y-12728714D01*
X13295000Y-12728714D01*
X13266428Y-12714429D01*
X13252143Y-12700143D01*
X13237857Y-12671571D01*
X13223571Y-12614429D01*
X13223571Y-12543000D01*
X13237857Y-12485857D01*
X13252143Y-12457286D01*
X13266428Y-12443000D01*
X13295000Y-12428714D01*
X13509286Y-12428714D02*
X13509286Y-12485857D01*
X13623571Y-12428714D02*
X13623571Y-12485857D01*
X14066428Y-12843000D02*
X14052143Y-12828714D01*
X14023571Y-12785857D01*
X14009285Y-12757286D01*
X13995000Y-12714429D01*
X13980714Y-12643000D01*
X13980714Y-12585857D01*
X13995000Y-12514429D01*
X14009285Y-12471571D01*
X14023571Y-12443000D01*
X14052143Y-12400143D01*
X14066428Y-12385857D01*
X14152143Y-12428714D02*
X14337857Y-12428714D01*
X14237857Y-12543000D01*
X14280714Y-12543000D01*
X14309285Y-12557286D01*
X14323571Y-12571571D01*
X14337857Y-12600143D01*
X14337857Y-12671571D01*
X14323571Y-12700143D01*
X14309285Y-12714429D01*
X14280714Y-12728714D01*
X14195000Y-12728714D01*
X14166428Y-12714429D01*
X14152143Y-12700143D01*
X14595000Y-12528714D02*
X14595000Y-12728714D01*
X14523571Y-12414429D02*
X14452143Y-12628714D01*
X14637857Y-12628714D01*
X14980714Y-12728714D02*
X14980714Y-12428714D01*
X15109285Y-12728714D02*
X15109285Y-12571571D01*
X15095000Y-12543000D01*
X15066428Y-12528714D01*
X15023571Y-12528714D01*
X14995000Y-12543000D01*
X14980714Y-12557286D01*
X15295000Y-12728714D02*
X15266428Y-12714429D01*
X15252143Y-12700143D01*
X15237857Y-12671571D01*
X15237857Y-12585857D01*
X15252143Y-12557286D01*
X15266428Y-12543000D01*
X15295000Y-12528714D01*
X15337857Y-12528714D01*
X15366428Y-12543000D01*
X15380714Y-12557286D01*
X15395000Y-12585857D01*
X15395000Y-12671571D01*
X15380714Y-12700143D01*
X15366428Y-12714429D01*
X15337857Y-12728714D01*
X15295000Y-12728714D01*
X15566428Y-12728714D02*
X15537857Y-12714429D01*
X15523571Y-12685857D01*
X15523571Y-12428714D01*
X15795000Y-12714429D02*
X15766428Y-12728714D01*
X15709286Y-12728714D01*
X15680714Y-12714429D01*
X15666428Y-12685857D01*
X15666428Y-12571571D01*
X15680714Y-12543000D01*
X15709286Y-12528714D01*
X15766428Y-12528714D01*
X15795000Y-12543000D01*
X15809286Y-12571571D01*
X15809286Y-12600143D01*
X15666428Y-12628714D01*
X15923571Y-12714429D02*
X15952143Y-12728714D01*
X16009286Y-12728714D01*
X16037857Y-12714429D01*
X16052143Y-12685857D01*
X16052143Y-12671571D01*
X16037857Y-12643000D01*
X16009286Y-12628714D01*
X15966428Y-12628714D01*
X15937857Y-12614429D01*
X15923571Y-12585857D01*
X15923571Y-12571571D01*
X15937857Y-12543000D01*
X15966428Y-12528714D01*
X16009286Y-12528714D01*
X16037857Y-12543000D01*
X16152143Y-12843000D02*
X16166428Y-12828714D01*
X16195000Y-12785857D01*
X16209286Y-12757286D01*
X16223571Y-12714429D01*
X16237857Y-12643000D01*
X16237857Y-12585857D01*
X16223571Y-12514429D01*
X16209286Y-12471571D01*
X16195000Y-12443000D01*
X16166428Y-12400143D01*
X16152143Y-12385857D01*
X9355000Y-12949000D02*
X9355000Y-13029000D01*
X9315000Y-12989000D02*
X9395000Y-12989000D01*
X9723571Y-12824714D02*
X9752143Y-12824714D01*
X9780714Y-12839000D01*
X9795000Y-12853286D01*
X9809286Y-12881857D01*
X9823571Y-12939000D01*
X9823571Y-13010429D01*
X9809286Y-13067571D01*
X9795000Y-13096143D01*
X9780714Y-13110429D01*
X9752143Y-13124714D01*
X9723571Y-13124714D01*
X9695000Y-13110429D01*
X9680714Y-13096143D01*
X9666429Y-13067571D01*
X9652143Y-13010429D01*
X9652143Y-12939000D01*
X9666429Y-12881857D01*
X9680714Y-12853286D01*
X9695000Y-12839000D01*
X9723571Y-12824714D01*
X9952143Y-13096143D02*
X9966429Y-13110429D01*
X9952143Y-13124714D01*
X9937857Y-13110429D01*
X9952143Y-13096143D01*
X9952143Y-13124714D01*
X10137857Y-12953286D02*
X10109286Y-12939000D01*
X10095000Y-12924714D01*
X10080714Y-12896143D01*
X10080714Y-12881857D01*
X10095000Y-12853286D01*
X10109286Y-12839000D01*
X10137857Y-12824714D01*
X10195000Y-12824714D01*
X10223571Y-12839000D01*
X10237857Y-12853286D01*
X10252143Y-12881857D01*
X10252143Y-12896143D01*
X10237857Y-12924714D01*
X10223571Y-12939000D01*
X10195000Y-12953286D01*
X10137857Y-12953286D01*
X10109286Y-12967571D01*
X10095000Y-12981857D01*
X10080714Y-13010429D01*
X10080714Y-13067571D01*
X10095000Y-13096143D01*
X10109286Y-13110429D01*
X10137857Y-13124714D01*
X10195000Y-13124714D01*
X10223571Y-13110429D01*
X10237857Y-13096143D01*
X10252143Y-13067571D01*
X10252143Y-13010429D01*
X10237857Y-12981857D01*
X10223571Y-12967571D01*
X10195000Y-12953286D01*
X10437857Y-12824714D02*
X10466429Y-12824714D01*
X10495000Y-12839000D01*
X10509286Y-12853286D01*
X10523571Y-12881857D01*
X10537857Y-12939000D01*
X10537857Y-13010429D01*
X10523571Y-13067571D01*
X10509286Y-13096143D01*
X10495000Y-13110429D01*
X10466429Y-13124714D01*
X10437857Y-13124714D01*
X10409286Y-13110429D01*
X10395000Y-13096143D01*
X10380714Y-13067571D01*
X10366429Y-13010429D01*
X10366429Y-12939000D01*
X10380714Y-12881857D01*
X10395000Y-12853286D01*
X10409286Y-12839000D01*
X10437857Y-12824714D01*
X10666429Y-13124714D02*
X10666429Y-12924714D01*
X10666429Y-12953286D02*
X10680714Y-12939000D01*
X10709286Y-12924714D01*
X10752143Y-12924714D01*
X10780714Y-12939000D01*
X10795000Y-12967571D01*
X10795000Y-13124714D01*
X10795000Y-12967571D02*
X10809286Y-12939000D01*
X10837857Y-12924714D01*
X10880714Y-12924714D01*
X10909286Y-12939000D01*
X10923571Y-12967571D01*
X10923571Y-13124714D01*
X11066429Y-13124714D02*
X11066429Y-12924714D01*
X11066429Y-12953286D02*
X11080714Y-12939000D01*
X11109286Y-12924714D01*
X11152143Y-12924714D01*
X11180714Y-12939000D01*
X11195000Y-12967571D01*
X11195000Y-13124714D01*
X11195000Y-12967571D02*
X11209286Y-12939000D01*
X11237857Y-12924714D01*
X11280714Y-12924714D01*
X11309286Y-12939000D01*
X11323571Y-12967571D01*
X11323571Y-13124714D01*
X11909286Y-12810429D02*
X11652143Y-13196143D01*
X12295000Y-12824714D02*
X12323571Y-12824714D01*
X12352143Y-12839000D01*
X12366428Y-12853286D01*
X12380714Y-12881857D01*
X12395000Y-12939000D01*
X12395000Y-13010429D01*
X12380714Y-13067571D01*
X12366428Y-13096143D01*
X12352143Y-13110429D01*
X12323571Y-13124714D01*
X12295000Y-13124714D01*
X12266428Y-13110429D01*
X12252143Y-13096143D01*
X12237857Y-13067571D01*
X12223571Y-13010429D01*
X12223571Y-12939000D01*
X12237857Y-12881857D01*
X12252143Y-12853286D01*
X12266428Y-12839000D01*
X12295000Y-12824714D01*
X12523571Y-13096143D02*
X12537857Y-13110429D01*
X12523571Y-13124714D01*
X12509286Y-13110429D01*
X12523571Y-13096143D01*
X12523571Y-13124714D01*
X12723571Y-12824714D02*
X12752143Y-12824714D01*
X12780714Y-12839000D01*
X12795000Y-12853286D01*
X12809285Y-12881857D01*
X12823571Y-12939000D01*
X12823571Y-13010429D01*
X12809285Y-13067571D01*
X12795000Y-13096143D01*
X12780714Y-13110429D01*
X12752143Y-13124714D01*
X12723571Y-13124714D01*
X12695000Y-13110429D01*
X12680714Y-13096143D01*
X12666428Y-13067571D01*
X12652143Y-13010429D01*
X12652143Y-12939000D01*
X12666428Y-12881857D01*
X12680714Y-12853286D01*
X12695000Y-12839000D01*
X12723571Y-12824714D01*
X12923571Y-12824714D02*
X13109285Y-12824714D01*
X13009285Y-12939000D01*
X13052143Y-12939000D01*
X13080714Y-12953286D01*
X13095000Y-12967571D01*
X13109285Y-12996143D01*
X13109285Y-13067571D01*
X13095000Y-13096143D01*
X13080714Y-13110429D01*
X13052143Y-13124714D01*
X12966428Y-13124714D01*
X12937857Y-13110429D01*
X12923571Y-13096143D01*
X13395000Y-13124714D02*
X13223571Y-13124714D01*
X13309285Y-13124714D02*
X13309285Y-12824714D01*
X13280714Y-12867571D01*
X13252143Y-12896143D01*
X13223571Y-12910429D01*
X13509286Y-12824714D02*
X13509286Y-12881857D01*
X13623571Y-12824714D02*
X13623571Y-12881857D01*
X14066428Y-13239000D02*
X14052143Y-13224714D01*
X14023571Y-13181857D01*
X14009285Y-13153286D01*
X13995000Y-13110429D01*
X13980714Y-13039000D01*
X13980714Y-12981857D01*
X13995000Y-12910429D01*
X14009285Y-12867571D01*
X14023571Y-12839000D01*
X14052143Y-12796143D01*
X14066428Y-12781857D01*
X14237857Y-12824714D02*
X14266428Y-12824714D01*
X14295000Y-12839000D01*
X14309285Y-12853286D01*
X14323571Y-12881857D01*
X14337857Y-12939000D01*
X14337857Y-13010429D01*
X14323571Y-13067571D01*
X14309285Y-13096143D01*
X14295000Y-13110429D01*
X14266428Y-13124714D01*
X14237857Y-13124714D01*
X14209285Y-13110429D01*
X14195000Y-13096143D01*
X14180714Y-13067571D01*
X14166428Y-13010429D01*
X14166428Y-12939000D01*
X14180714Y-12881857D01*
X14195000Y-12853286D01*
X14209285Y-12839000D01*
X14237857Y-12824714D01*
X14695000Y-13124714D02*
X14695000Y-12824714D01*
X14823571Y-13124714D02*
X14823571Y-12967571D01*
X14809285Y-12939000D01*
X14780714Y-12924714D01*
X14737857Y-12924714D01*
X14709285Y-12939000D01*
X14695000Y-12953286D01*
X15009285Y-13124714D02*
X14980714Y-13110429D01*
X14966428Y-13096143D01*
X14952143Y-13067571D01*
X14952143Y-12981857D01*
X14966428Y-12953286D01*
X14980714Y-12939000D01*
X15009285Y-12924714D01*
X15052143Y-12924714D01*
X15080714Y-12939000D01*
X15095000Y-12953286D01*
X15109285Y-12981857D01*
X15109285Y-13067571D01*
X15095000Y-13096143D01*
X15080714Y-13110429D01*
X15052143Y-13124714D01*
X15009285Y-13124714D01*
X15280714Y-13124714D02*
X15252143Y-13110429D01*
X15237857Y-13081857D01*
X15237857Y-12824714D01*
X15509286Y-13110429D02*
X15480714Y-13124714D01*
X15423571Y-13124714D01*
X15395000Y-13110429D01*
X15380714Y-13081857D01*
X15380714Y-12967571D01*
X15395000Y-12939000D01*
X15423571Y-12924714D01*
X15480714Y-12924714D01*
X15509286Y-12939000D01*
X15523571Y-12967571D01*
X15523571Y-12996143D01*
X15380714Y-13024714D01*
X15637857Y-13110429D02*
X15666428Y-13124714D01*
X15723571Y-13124714D01*
X15752143Y-13110429D01*
X15766428Y-13081857D01*
X15766428Y-13067571D01*
X15752143Y-13039000D01*
X15723571Y-13024714D01*
X15680714Y-13024714D01*
X15652143Y-13010429D01*
X15637857Y-12981857D01*
X15637857Y-12967571D01*
X15652143Y-12939000D01*
X15680714Y-12924714D01*
X15723571Y-12924714D01*
X15752143Y-12939000D01*
X16123571Y-13010429D02*
X16352143Y-13010429D01*
X16237857Y-13124714D02*
X16237857Y-12896143D01*
X16852143Y-12924714D02*
X16852143Y-13124714D01*
X16780714Y-12810429D02*
X16709286Y-13024714D01*
X16895000Y-13024714D01*
X17223571Y-13110429D02*
X17252143Y-13124714D01*
X17309286Y-13124714D01*
X17337857Y-13110429D01*
X17352143Y-13081857D01*
X17352143Y-13067571D01*
X17337857Y-13039000D01*
X17309286Y-13024714D01*
X17266428Y-13024714D01*
X17237857Y-13010429D01*
X17223571Y-12981857D01*
X17223571Y-12967571D01*
X17237857Y-12939000D01*
X17266428Y-12924714D01*
X17309286Y-12924714D01*
X17337857Y-12939000D01*
X17523571Y-13124714D02*
X17495000Y-13110429D01*
X17480714Y-13081857D01*
X17480714Y-12824714D01*
X17680714Y-13124714D02*
X17652143Y-13110429D01*
X17637857Y-13096143D01*
X17623571Y-13067571D01*
X17623571Y-12981857D01*
X17637857Y-12953286D01*
X17652143Y-12939000D01*
X17680714Y-12924714D01*
X17723571Y-12924714D01*
X17752143Y-12939000D01*
X17766428Y-12953286D01*
X17780714Y-12981857D01*
X17780714Y-13067571D01*
X17766428Y-13096143D01*
X17752143Y-13110429D01*
X17723571Y-13124714D01*
X17680714Y-13124714D01*
X17866428Y-12924714D02*
X17980714Y-12924714D01*
X17909286Y-12824714D02*
X17909286Y-13081857D01*
X17923571Y-13110429D01*
X17952143Y-13124714D01*
X17980714Y-13124714D01*
X18066429Y-13110429D02*
X18095000Y-13124714D01*
X18152143Y-13124714D01*
X18180714Y-13110429D01*
X18195000Y-13081857D01*
X18195000Y-13067571D01*
X18180714Y-13039000D01*
X18152143Y-13024714D01*
X18109286Y-13024714D01*
X18080714Y-13010429D01*
X18066429Y-12981857D01*
X18066429Y-12967571D01*
X18080714Y-12939000D01*
X18109286Y-12924714D01*
X18152143Y-12924714D01*
X18180714Y-12939000D01*
X18295000Y-13239000D02*
X18309286Y-13224714D01*
X18337857Y-13181857D01*
X18352143Y-13153286D01*
X18366428Y-13110429D01*
X18380714Y-13039000D01*
X18380714Y-12981857D01*
X18366428Y-12910429D01*
X18352143Y-12867571D01*
X18337857Y-12839000D01*
X18309286Y-12796143D01*
X18295000Y-12781857D01*
X9380121Y-13420921D02*
X9380121Y-13349079D01*
X9308279Y-13349079D01*
X9308279Y-13420921D01*
X9380121Y-13420921D01*
X9823571Y-13520714D02*
X9652143Y-13520714D01*
X9737857Y-13520714D02*
X9737857Y-13220714D01*
X9709286Y-13263571D01*
X9680714Y-13292143D01*
X9652143Y-13306429D01*
X9952143Y-13492143D02*
X9966429Y-13506429D01*
X9952143Y-13520714D01*
X9937857Y-13506429D01*
X9952143Y-13492143D01*
X9952143Y-13520714D01*
X10152143Y-13220714D02*
X10180714Y-13220714D01*
X10209286Y-13235000D01*
X10223571Y-13249286D01*
X10237857Y-13277857D01*
X10252143Y-13335000D01*
X10252143Y-13406429D01*
X10237857Y-13463571D01*
X10223571Y-13492143D01*
X10209286Y-13506429D01*
X10180714Y-13520714D01*
X10152143Y-13520714D01*
X10123571Y-13506429D01*
X10109286Y-13492143D01*
X10095000Y-13463571D01*
X10080714Y-13406429D01*
X10080714Y-13335000D01*
X10095000Y-13277857D01*
X10109286Y-13249286D01*
X10123571Y-13235000D01*
X10152143Y-13220714D01*
X10366429Y-13249286D02*
X10380714Y-13235000D01*
X10409286Y-13220714D01*
X10480714Y-13220714D01*
X10509286Y-13235000D01*
X10523571Y-13249286D01*
X10537857Y-13277857D01*
X10537857Y-13306429D01*
X10523571Y-13349286D01*
X10352143Y-13520714D01*
X10537857Y-13520714D01*
X10666429Y-13520714D02*
X10666429Y-13320714D01*
X10666429Y-13349286D02*
X10680714Y-13335000D01*
X10709286Y-13320714D01*
X10752143Y-13320714D01*
X10780714Y-13335000D01*
X10795000Y-13363571D01*
X10795000Y-13520714D01*
X10795000Y-13363571D02*
X10809286Y-13335000D01*
X10837857Y-13320714D01*
X10880714Y-13320714D01*
X10909286Y-13335000D01*
X10923571Y-13363571D01*
X10923571Y-13520714D01*
X11066429Y-13520714D02*
X11066429Y-13320714D01*
X11066429Y-13349286D02*
X11080714Y-13335000D01*
X11109286Y-13320714D01*
X11152143Y-13320714D01*
X11180714Y-13335000D01*
X11195000Y-13363571D01*
X11195000Y-13520714D01*
X11195000Y-13363571D02*
X11209286Y-13335000D01*
X11237857Y-13320714D01*
X11280714Y-13320714D01*
X11309286Y-13335000D01*
X11323571Y-13363571D01*
X11323571Y-13520714D01*
X11909286Y-13206429D02*
X11652143Y-13592143D01*
X12295000Y-13220714D02*
X12323571Y-13220714D01*
X12352143Y-13235000D01*
X12366428Y-13249286D01*
X12380714Y-13277857D01*
X12395000Y-13335000D01*
X12395000Y-13406429D01*
X12380714Y-13463571D01*
X12366428Y-13492143D01*
X12352143Y-13506429D01*
X12323571Y-13520714D01*
X12295000Y-13520714D01*
X12266428Y-13506429D01*
X12252143Y-13492143D01*
X12237857Y-13463571D01*
X12223571Y-13406429D01*
X12223571Y-13335000D01*
X12237857Y-13277857D01*
X12252143Y-13249286D01*
X12266428Y-13235000D01*
X12295000Y-13220714D01*
X12523571Y-13492143D02*
X12537857Y-13506429D01*
X12523571Y-13520714D01*
X12509286Y-13506429D01*
X12523571Y-13492143D01*
X12523571Y-13520714D01*
X12723571Y-13220714D02*
X12752143Y-13220714D01*
X12780714Y-13235000D01*
X12795000Y-13249286D01*
X12809285Y-13277857D01*
X12823571Y-13335000D01*
X12823571Y-13406429D01*
X12809285Y-13463571D01*
X12795000Y-13492143D01*
X12780714Y-13506429D01*
X12752143Y-13520714D01*
X12723571Y-13520714D01*
X12695000Y-13506429D01*
X12680714Y-13492143D01*
X12666428Y-13463571D01*
X12652143Y-13406429D01*
X12652143Y-13335000D01*
X12666428Y-13277857D01*
X12680714Y-13249286D01*
X12695000Y-13235000D01*
X12723571Y-13220714D01*
X13080714Y-13320714D02*
X13080714Y-13520714D01*
X13009285Y-13206429D02*
X12937857Y-13420714D01*
X13123571Y-13420714D01*
X13295000Y-13220714D02*
X13323571Y-13220714D01*
X13352143Y-13235000D01*
X13366428Y-13249286D01*
X13380714Y-13277857D01*
X13395000Y-13335000D01*
X13395000Y-13406429D01*
X13380714Y-13463571D01*
X13366428Y-13492143D01*
X13352143Y-13506429D01*
X13323571Y-13520714D01*
X13295000Y-13520714D01*
X13266428Y-13506429D01*
X13252143Y-13492143D01*
X13237857Y-13463571D01*
X13223571Y-13406429D01*
X13223571Y-13335000D01*
X13237857Y-13277857D01*
X13252143Y-13249286D01*
X13266428Y-13235000D01*
X13295000Y-13220714D01*
X13509286Y-13220714D02*
X13509286Y-13277857D01*
X13623571Y-13220714D02*
X13623571Y-13277857D01*
X14066428Y-13635000D02*
X14052143Y-13620714D01*
X14023571Y-13577857D01*
X14009285Y-13549286D01*
X13995000Y-13506429D01*
X13980714Y-13435000D01*
X13980714Y-13377857D01*
X13995000Y-13306429D01*
X14009285Y-13263571D01*
X14023571Y-13235000D01*
X14052143Y-13192143D01*
X14066428Y-13177857D01*
X14223571Y-13349286D02*
X14195000Y-13335000D01*
X14180714Y-13320714D01*
X14166428Y-13292143D01*
X14166428Y-13277857D01*
X14180714Y-13249286D01*
X14195000Y-13235000D01*
X14223571Y-13220714D01*
X14280714Y-13220714D01*
X14309285Y-13235000D01*
X14323571Y-13249286D01*
X14337857Y-13277857D01*
X14337857Y-13292143D01*
X14323571Y-13320714D01*
X14309285Y-13335000D01*
X14280714Y-13349286D01*
X14223571Y-13349286D01*
X14195000Y-13363571D01*
X14180714Y-13377857D01*
X14166428Y-13406429D01*
X14166428Y-13463571D01*
X14180714Y-13492143D01*
X14195000Y-13506429D01*
X14223571Y-13520714D01*
X14280714Y-13520714D01*
X14309285Y-13506429D01*
X14323571Y-13492143D01*
X14337857Y-13463571D01*
X14337857Y-13406429D01*
X14323571Y-13377857D01*
X14309285Y-13363571D01*
X14280714Y-13349286D01*
X14480714Y-13520714D02*
X14537857Y-13520714D01*
X14566428Y-13506429D01*
X14580714Y-13492143D01*
X14609285Y-13449286D01*
X14623571Y-13392143D01*
X14623571Y-13277857D01*
X14609285Y-13249286D01*
X14595000Y-13235000D01*
X14566428Y-13220714D01*
X14509285Y-13220714D01*
X14480714Y-13235000D01*
X14466428Y-13249286D01*
X14452143Y-13277857D01*
X14452143Y-13349286D01*
X14466428Y-13377857D01*
X14480714Y-13392143D01*
X14509285Y-13406429D01*
X14566428Y-13406429D01*
X14595000Y-13392143D01*
X14609285Y-13377857D01*
X14623571Y-13349286D01*
X14980714Y-13520714D02*
X14980714Y-13220714D01*
X15109285Y-13520714D02*
X15109285Y-13363571D01*
X15095000Y-13335000D01*
X15066428Y-13320714D01*
X15023571Y-13320714D01*
X14995000Y-13335000D01*
X14980714Y-13349286D01*
X15295000Y-13520714D02*
X15266428Y-13506429D01*
X15252143Y-13492143D01*
X15237857Y-13463571D01*
X15237857Y-13377857D01*
X15252143Y-13349286D01*
X15266428Y-13335000D01*
X15295000Y-13320714D01*
X15337857Y-13320714D01*
X15366428Y-13335000D01*
X15380714Y-13349286D01*
X15395000Y-13377857D01*
X15395000Y-13463571D01*
X15380714Y-13492143D01*
X15366428Y-13506429D01*
X15337857Y-13520714D01*
X15295000Y-13520714D01*
X15566428Y-13520714D02*
X15537857Y-13506429D01*
X15523571Y-13477857D01*
X15523571Y-13220714D01*
X15795000Y-13506429D02*
X15766428Y-13520714D01*
X15709286Y-13520714D01*
X15680714Y-13506429D01*
X15666428Y-13477857D01*
X15666428Y-13363571D01*
X15680714Y-13335000D01*
X15709286Y-13320714D01*
X15766428Y-13320714D01*
X15795000Y-13335000D01*
X15809286Y-13363571D01*
X15809286Y-13392143D01*
X15666428Y-13420714D01*
X15923571Y-13506429D02*
X15952143Y-13520714D01*
X16009286Y-13520714D01*
X16037857Y-13506429D01*
X16052143Y-13477857D01*
X16052143Y-13463571D01*
X16037857Y-13435000D01*
X16009286Y-13420714D01*
X15966428Y-13420714D01*
X15937857Y-13406429D01*
X15923571Y-13377857D01*
X15923571Y-13363571D01*
X15937857Y-13335000D01*
X15966428Y-13320714D01*
X16009286Y-13320714D01*
X16037857Y-13335000D01*
X16152143Y-13635000D02*
X16166428Y-13620714D01*
X16195000Y-13577857D01*
X16209286Y-13549286D01*
X16223571Y-13506429D01*
X16237857Y-13435000D01*
X16237857Y-13377857D01*
X16223571Y-13306429D01*
X16209286Y-13263571D01*
X16195000Y-13235000D01*
X16166428Y-13192143D01*
X16152143Y-13177857D01*
X9235000Y-13941000D02*
X9395000Y-13781000D01*
X9235000Y-13621000D01*
X9075000Y-13781000D01*
X9235000Y-13941000D01*
X9637857Y-13616714D02*
X9823571Y-13616714D01*
X9723571Y-13731000D01*
X9766429Y-13731000D01*
X9795000Y-13745286D01*
X9809286Y-13759571D01*
X9823571Y-13788143D01*
X9823571Y-13859571D01*
X9809286Y-13888143D01*
X9795000Y-13902429D01*
X9766429Y-13916714D01*
X9680714Y-13916714D01*
X9652143Y-13902429D01*
X9637857Y-13888143D01*
X9952143Y-13888143D02*
X9966429Y-13902429D01*
X9952143Y-13916714D01*
X9937857Y-13902429D01*
X9952143Y-13888143D01*
X9952143Y-13916714D01*
X10080714Y-13645286D02*
X10095000Y-13631000D01*
X10123571Y-13616714D01*
X10195000Y-13616714D01*
X10223571Y-13631000D01*
X10237857Y-13645286D01*
X10252143Y-13673857D01*
X10252143Y-13702429D01*
X10237857Y-13745286D01*
X10066428Y-13916714D01*
X10252143Y-13916714D01*
X10437857Y-13616714D02*
X10466429Y-13616714D01*
X10495000Y-13631000D01*
X10509286Y-13645286D01*
X10523571Y-13673857D01*
X10537857Y-13731000D01*
X10537857Y-13802429D01*
X10523571Y-13859571D01*
X10509286Y-13888143D01*
X10495000Y-13902429D01*
X10466429Y-13916714D01*
X10437857Y-13916714D01*
X10409286Y-13902429D01*
X10395000Y-13888143D01*
X10380714Y-13859571D01*
X10366429Y-13802429D01*
X10366429Y-13731000D01*
X10380714Y-13673857D01*
X10395000Y-13645286D01*
X10409286Y-13631000D01*
X10437857Y-13616714D01*
X10666429Y-13916714D02*
X10666429Y-13716714D01*
X10666429Y-13745286D02*
X10680714Y-13731000D01*
X10709286Y-13716714D01*
X10752143Y-13716714D01*
X10780714Y-13731000D01*
X10795000Y-13759571D01*
X10795000Y-13916714D01*
X10795000Y-13759571D02*
X10809286Y-13731000D01*
X10837857Y-13716714D01*
X10880714Y-13716714D01*
X10909286Y-13731000D01*
X10923571Y-13759571D01*
X10923571Y-13916714D01*
X11066429Y-13916714D02*
X11066429Y-13716714D01*
X11066429Y-13745286D02*
X11080714Y-13731000D01*
X11109286Y-13716714D01*
X11152143Y-13716714D01*
X11180714Y-13731000D01*
X11195000Y-13759571D01*
X11195000Y-13916714D01*
X11195000Y-13759571D02*
X11209286Y-13731000D01*
X11237857Y-13716714D01*
X11280714Y-13716714D01*
X11309286Y-13731000D01*
X11323571Y-13759571D01*
X11323571Y-13916714D01*
X11909286Y-13602429D02*
X11652143Y-13988143D01*
X12295000Y-13616714D02*
X12323571Y-13616714D01*
X12352143Y-13631000D01*
X12366428Y-13645286D01*
X12380714Y-13673857D01*
X12395000Y-13731000D01*
X12395000Y-13802429D01*
X12380714Y-13859571D01*
X12366428Y-13888143D01*
X12352143Y-13902429D01*
X12323571Y-13916714D01*
X12295000Y-13916714D01*
X12266428Y-13902429D01*
X12252143Y-13888143D01*
X12237857Y-13859571D01*
X12223571Y-13802429D01*
X12223571Y-13731000D01*
X12237857Y-13673857D01*
X12252143Y-13645286D01*
X12266428Y-13631000D01*
X12295000Y-13616714D01*
X12523571Y-13888143D02*
X12537857Y-13902429D01*
X12523571Y-13916714D01*
X12509286Y-13902429D01*
X12523571Y-13888143D01*
X12523571Y-13916714D01*
X12823571Y-13916714D02*
X12652143Y-13916714D01*
X12737857Y-13916714D02*
X12737857Y-13616714D01*
X12709285Y-13659571D01*
X12680714Y-13688143D01*
X12652143Y-13702429D01*
X12937857Y-13645286D02*
X12952143Y-13631000D01*
X12980714Y-13616714D01*
X13052143Y-13616714D01*
X13080714Y-13631000D01*
X13095000Y-13645286D01*
X13109285Y-13673857D01*
X13109285Y-13702429D01*
X13095000Y-13745286D01*
X12923571Y-13916714D01*
X13109285Y-13916714D01*
X13366428Y-13616714D02*
X13309285Y-13616714D01*
X13280714Y-13631000D01*
X13266428Y-13645286D01*
X13237857Y-13688143D01*
X13223571Y-13745286D01*
X13223571Y-13859571D01*
X13237857Y-13888143D01*
X13252143Y-13902429D01*
X13280714Y-13916714D01*
X13337857Y-13916714D01*
X13366428Y-13902429D01*
X13380714Y-13888143D01*
X13395000Y-13859571D01*
X13395000Y-13788143D01*
X13380714Y-13759571D01*
X13366428Y-13745286D01*
X13337857Y-13731000D01*
X13280714Y-13731000D01*
X13252143Y-13745286D01*
X13237857Y-13759571D01*
X13223571Y-13788143D01*
X13509286Y-13616714D02*
X13509286Y-13673857D01*
X13623571Y-13616714D02*
X13623571Y-13673857D01*
X14066428Y-14031000D02*
X14052143Y-14016714D01*
X14023571Y-13973857D01*
X14009285Y-13945286D01*
X13995000Y-13902429D01*
X13980714Y-13831000D01*
X13980714Y-13773857D01*
X13995000Y-13702429D01*
X14009285Y-13659571D01*
X14023571Y-13631000D01*
X14052143Y-13588143D01*
X14066428Y-13573857D01*
X14309285Y-13716714D02*
X14309285Y-13916714D01*
X14237857Y-13602429D02*
X14166428Y-13816714D01*
X14352143Y-13816714D01*
X14695000Y-13916714D02*
X14695000Y-13616714D01*
X14823571Y-13916714D02*
X14823571Y-13759571D01*
X14809285Y-13731000D01*
X14780714Y-13716714D01*
X14737857Y-13716714D01*
X14709285Y-13731000D01*
X14695000Y-13745286D01*
X15009285Y-13916714D02*
X14980714Y-13902429D01*
X14966428Y-13888143D01*
X14952143Y-13859571D01*
X14952143Y-13773857D01*
X14966428Y-13745286D01*
X14980714Y-13731000D01*
X15009285Y-13716714D01*
X15052143Y-13716714D01*
X15080714Y-13731000D01*
X15095000Y-13745286D01*
X15109285Y-13773857D01*
X15109285Y-13859571D01*
X15095000Y-13888143D01*
X15080714Y-13902429D01*
X15052143Y-13916714D01*
X15009285Y-13916714D01*
X15280714Y-13916714D02*
X15252143Y-13902429D01*
X15237857Y-13873857D01*
X15237857Y-13616714D01*
X15509286Y-13902429D02*
X15480714Y-13916714D01*
X15423571Y-13916714D01*
X15395000Y-13902429D01*
X15380714Y-13873857D01*
X15380714Y-13759571D01*
X15395000Y-13731000D01*
X15423571Y-13716714D01*
X15480714Y-13716714D01*
X15509286Y-13731000D01*
X15523571Y-13759571D01*
X15523571Y-13788143D01*
X15380714Y-13816714D01*
X15637857Y-13902429D02*
X15666428Y-13916714D01*
X15723571Y-13916714D01*
X15752143Y-13902429D01*
X15766428Y-13873857D01*
X15766428Y-13859571D01*
X15752143Y-13831000D01*
X15723571Y-13816714D01*
X15680714Y-13816714D01*
X15652143Y-13802429D01*
X15637857Y-13773857D01*
X15637857Y-13759571D01*
X15652143Y-13731000D01*
X15680714Y-13716714D01*
X15723571Y-13716714D01*
X15752143Y-13731000D01*
X15866428Y-14031000D02*
X15880714Y-14016714D01*
X15909286Y-13973857D01*
X15923571Y-13945286D01*
X15937857Y-13902429D01*
X15952143Y-13831000D01*
X15952143Y-13773857D01*
X15937857Y-13702429D01*
X15923571Y-13659571D01*
X15909286Y-13631000D01*
X15880714Y-13588143D01*
X15866428Y-13573857D01*
M02*
