G04 #@! TF.GenerationSoftware,KiCad,Pcbnew,5.1.9+dfsg1-1*
G04 #@! TF.CreationDate,2021-02-17T19:03:45+01:00*
G04 #@! TF.ProjectId,ulx3s,756c7833-732e-46b6-9963-61645f706362,v3.1.1*
G04 #@! TF.SameCoordinates,Original*
G04 #@! TF.FileFunction,Paste,Bot*
G04 #@! TF.FilePolarity,Positive*
%FSLAX46Y46*%
G04 Gerber Fmt 4.6, Leading zero omitted, Abs format (unit mm)*
G04 Created by KiCad (PCBNEW 5.1.9+dfsg1-1) date 2021-02-17 19:03:45*
%MOMM*%
%LPD*%
G01*
G04 APERTURE LIST*
%ADD10C,0.100000*%
%ADD11O,2.420000X0.820000*%
%ADD12R,3.300000X3.100000*%
%ADD13R,0.900000X0.900000*%
%ADD14R,1.200000X2.400000*%
%ADD15R,1.600000X1.200000*%
%ADD16R,0.800000X0.700000*%
%ADD17R,0.600000X1.100000*%
%ADD18R,0.500000X1.450000*%
%ADD19O,0.500000X1.450000*%
%ADD20R,1.450000X0.500000*%
%ADD21O,1.450000X0.500000*%
%ADD22R,0.500000X2.000000*%
%ADD23O,0.500000X2.000000*%
%ADD24R,0.570000X0.900000*%
%ADD25R,2.200000X1.500000*%
%ADD26R,0.700000X0.800000*%
G04 APERTURE END LIST*
D10*
G36*
X138546000Y-68812000D02*
G01*
X138246000Y-68612000D01*
X138246000Y-68312000D01*
X138746000Y-68612000D01*
X139046000Y-69112000D01*
X138746000Y-69112000D01*
X138546000Y-68812000D01*
G37*
X138546000Y-68812000D02*
X138246000Y-68612000D01*
X138246000Y-68312000D01*
X138746000Y-68612000D01*
X139046000Y-69112000D01*
X138746000Y-69112000D01*
X138546000Y-68812000D01*
G36*
X137346000Y-70012000D02*
G01*
X137046000Y-69512000D01*
X137346000Y-69512000D01*
X137546000Y-69812000D01*
X137846000Y-70012000D01*
X137846000Y-70312000D01*
X137346000Y-70012000D01*
G37*
X137346000Y-70012000D02*
X137046000Y-69512000D01*
X137346000Y-69512000D01*
X137546000Y-69812000D01*
X137846000Y-70012000D01*
X137846000Y-70312000D01*
X137346000Y-70012000D01*
G36*
X137346000Y-68612000D02*
G01*
X137846000Y-68312000D01*
X137846000Y-68612000D01*
X137546000Y-68812000D01*
X137346000Y-69112000D01*
X137046000Y-69112000D01*
X137346000Y-68612000D01*
G37*
X137346000Y-68612000D02*
X137846000Y-68312000D01*
X137846000Y-68612000D01*
X137546000Y-68812000D01*
X137346000Y-69112000D01*
X137046000Y-69112000D01*
X137346000Y-68612000D01*
G36*
X138246000Y-70012000D02*
G01*
X138546000Y-69812000D01*
X138746000Y-69512000D01*
X139046000Y-69512000D01*
X138746000Y-70012000D01*
X138246000Y-70312000D01*
X138246000Y-70012000D01*
G37*
X138246000Y-70012000D02*
X138546000Y-69812000D01*
X138746000Y-69512000D01*
X139046000Y-69512000D01*
X138746000Y-70012000D01*
X138246000Y-70312000D01*
X138246000Y-70012000D01*
G36*
X136746000Y-63712000D02*
G01*
X137246000Y-63412000D01*
X137246000Y-63712000D01*
X136946000Y-63912000D01*
X136746000Y-64212000D01*
X136446000Y-64212000D01*
X136746000Y-63712000D01*
G37*
X136746000Y-63712000D02*
X137246000Y-63412000D01*
X137246000Y-63712000D01*
X136946000Y-63912000D01*
X136746000Y-64212000D01*
X136446000Y-64212000D01*
X136746000Y-63712000D01*
G36*
X137646000Y-65112000D02*
G01*
X137946000Y-64912000D01*
X138146000Y-64612000D01*
X138446000Y-64612000D01*
X138146000Y-65112000D01*
X137646000Y-65412000D01*
X137646000Y-65112000D01*
G37*
X137646000Y-65112000D02*
X137946000Y-64912000D01*
X138146000Y-64612000D01*
X138446000Y-64612000D01*
X138146000Y-65112000D01*
X137646000Y-65412000D01*
X137646000Y-65112000D01*
G36*
X137946000Y-63912000D02*
G01*
X137646000Y-63712000D01*
X137646000Y-63412000D01*
X138146000Y-63712000D01*
X138446000Y-64212000D01*
X138146000Y-64212000D01*
X137946000Y-63912000D01*
G37*
X137946000Y-63912000D02*
X137646000Y-63712000D01*
X137646000Y-63412000D01*
X138146000Y-63712000D01*
X138446000Y-64212000D01*
X138146000Y-64212000D01*
X137946000Y-63912000D01*
G36*
X136746000Y-65112000D02*
G01*
X136446000Y-64612000D01*
X136746000Y-64612000D01*
X136946000Y-64912000D01*
X137246000Y-65112000D01*
X137246000Y-65412000D01*
X136746000Y-65112000D01*
G37*
X136746000Y-65112000D02*
X136446000Y-64612000D01*
X136746000Y-64612000D01*
X136946000Y-64912000D01*
X137246000Y-65112000D01*
X137246000Y-65412000D01*
X136746000Y-65112000D01*
G36*
X152446000Y-63712000D02*
G01*
X152946000Y-63412000D01*
X152946000Y-63712000D01*
X152646000Y-63912000D01*
X152446000Y-64212000D01*
X152146000Y-64212000D01*
X152446000Y-63712000D01*
G37*
X152446000Y-63712000D02*
X152946000Y-63412000D01*
X152946000Y-63712000D01*
X152646000Y-63912000D01*
X152446000Y-64212000D01*
X152146000Y-64212000D01*
X152446000Y-63712000D01*
G36*
X152446000Y-65112000D02*
G01*
X152146000Y-64612000D01*
X152446000Y-64612000D01*
X152646000Y-64912000D01*
X152946000Y-65112000D01*
X152946000Y-65412000D01*
X152446000Y-65112000D01*
G37*
X152446000Y-65112000D02*
X152146000Y-64612000D01*
X152446000Y-64612000D01*
X152646000Y-64912000D01*
X152946000Y-65112000D01*
X152946000Y-65412000D01*
X152446000Y-65112000D01*
G36*
X153346000Y-65112000D02*
G01*
X153646000Y-64912000D01*
X153846000Y-64612000D01*
X154146000Y-64612000D01*
X153846000Y-65112000D01*
X153346000Y-65412000D01*
X153346000Y-65112000D01*
G37*
X153346000Y-65112000D02*
X153646000Y-64912000D01*
X153846000Y-64612000D01*
X154146000Y-64612000D01*
X153846000Y-65112000D01*
X153346000Y-65412000D01*
X153346000Y-65112000D01*
G36*
X153646000Y-63912000D02*
G01*
X153346000Y-63712000D01*
X153346000Y-63412000D01*
X153846000Y-63712000D01*
X154146000Y-64212000D01*
X153846000Y-64212000D01*
X153646000Y-63912000D01*
G37*
X153646000Y-63912000D02*
X153346000Y-63712000D01*
X153346000Y-63412000D01*
X153846000Y-63712000D01*
X154146000Y-64212000D01*
X153846000Y-64212000D01*
X153646000Y-63912000D01*
G36*
X151846000Y-68612000D02*
G01*
X152346000Y-68312000D01*
X152346000Y-68612000D01*
X152046000Y-68812000D01*
X151846000Y-69112000D01*
X151546000Y-69112000D01*
X151846000Y-68612000D01*
G37*
X151846000Y-68612000D02*
X152346000Y-68312000D01*
X152346000Y-68612000D01*
X152046000Y-68812000D01*
X151846000Y-69112000D01*
X151546000Y-69112000D01*
X151846000Y-68612000D01*
G36*
X153046000Y-68812000D02*
G01*
X152746000Y-68612000D01*
X152746000Y-68312000D01*
X153246000Y-68612000D01*
X153546000Y-69112000D01*
X153246000Y-69112000D01*
X153046000Y-68812000D01*
G37*
X153046000Y-68812000D02*
X152746000Y-68612000D01*
X152746000Y-68312000D01*
X153246000Y-68612000D01*
X153546000Y-69112000D01*
X153246000Y-69112000D01*
X153046000Y-68812000D01*
G36*
X151846000Y-70012000D02*
G01*
X151546000Y-69512000D01*
X151846000Y-69512000D01*
X152046000Y-69812000D01*
X152346000Y-70012000D01*
X152346000Y-70312000D01*
X151846000Y-70012000D01*
G37*
X151846000Y-70012000D02*
X151546000Y-69512000D01*
X151846000Y-69512000D01*
X152046000Y-69812000D01*
X152346000Y-70012000D01*
X152346000Y-70312000D01*
X151846000Y-70012000D01*
G36*
X152746000Y-70012000D02*
G01*
X153046000Y-69812000D01*
X153246000Y-69512000D01*
X153546000Y-69512000D01*
X153246000Y-70012000D01*
X152746000Y-70312000D01*
X152746000Y-70012000D01*
G37*
X152746000Y-70012000D02*
X153046000Y-69812000D01*
X153246000Y-69512000D01*
X153546000Y-69512000D01*
X153246000Y-70012000D01*
X152746000Y-70312000D01*
X152746000Y-70012000D01*
D11*
X108300000Y-110975000D03*
X108300000Y-109705000D03*
X108300000Y-108435000D03*
X108300000Y-107165000D03*
X108300000Y-105895000D03*
X108300000Y-104625000D03*
X108300000Y-103355000D03*
X108300000Y-102085000D03*
X108300000Y-100815000D03*
X108300000Y-99545000D03*
X108300000Y-98275000D03*
X108300000Y-97005000D03*
X108300000Y-95735000D03*
X108300000Y-94465000D03*
X126300000Y-94465000D03*
X126300000Y-95735000D03*
X126300000Y-97005000D03*
X126300000Y-98275000D03*
X126300000Y-99545000D03*
X126300000Y-100815000D03*
X126300000Y-102085000D03*
X126300000Y-103355000D03*
X126300000Y-104625000D03*
X126300000Y-105895000D03*
X126300000Y-107165000D03*
X126300000Y-108435000D03*
X126300000Y-109705000D03*
X126300000Y-110975000D03*
X108300000Y-93195000D03*
X108300000Y-91925000D03*
X126300000Y-91925000D03*
X126300000Y-93195000D03*
G36*
G01*
X132735000Y-106898400D02*
X132735000Y-107301600D01*
G75*
G02*
X132536600Y-107500000I-198400J0D01*
G01*
X132133400Y-107500000D01*
G75*
G02*
X131935000Y-107301600I0J198400D01*
G01*
X131935000Y-106898400D01*
G75*
G02*
X132133400Y-106700000I198400J0D01*
G01*
X132536600Y-106700000D01*
G75*
G02*
X132735000Y-106898400I0J-198400D01*
G01*
G37*
G36*
G01*
X132735000Y-105898400D02*
X132735000Y-106301600D01*
G75*
G02*
X132536600Y-106500000I-198400J0D01*
G01*
X132133400Y-106500000D01*
G75*
G02*
X131935000Y-106301600I0J198400D01*
G01*
X131935000Y-105898400D01*
G75*
G02*
X132133400Y-105700000I198400J0D01*
G01*
X132536600Y-105700000D01*
G75*
G02*
X132735000Y-105898400I0J-198400D01*
G01*
G37*
G36*
G01*
X133735000Y-106898400D02*
X133735000Y-107301600D01*
G75*
G02*
X133536600Y-107500000I-198400J0D01*
G01*
X133133400Y-107500000D01*
G75*
G02*
X132935000Y-107301600I0J198400D01*
G01*
X132935000Y-106898400D01*
G75*
G02*
X133133400Y-106700000I198400J0D01*
G01*
X133536600Y-106700000D01*
G75*
G02*
X133735000Y-106898400I0J-198400D01*
G01*
G37*
G36*
G01*
X133735000Y-105898400D02*
X133735000Y-106301600D01*
G75*
G02*
X133536600Y-106500000I-198400J0D01*
G01*
X133133400Y-106500000D01*
G75*
G02*
X132935000Y-106301600I0J198400D01*
G01*
X132935000Y-105898400D01*
G75*
G02*
X133133400Y-105700000I198400J0D01*
G01*
X133536600Y-105700000D01*
G75*
G02*
X133735000Y-105898400I0J-198400D01*
G01*
G37*
G36*
G01*
X133910000Y-104337500D02*
X133910000Y-104987500D01*
G75*
G02*
X133872500Y-105025000I-37500J0D01*
G01*
X133797500Y-105025000D01*
G75*
G02*
X133760000Y-104987500I0J37500D01*
G01*
X133760000Y-104337500D01*
G75*
G02*
X133797500Y-104300000I37500J0D01*
G01*
X133872500Y-104300000D01*
G75*
G02*
X133910000Y-104337500I0J-37500D01*
G01*
G37*
G36*
G01*
X133410000Y-104337500D02*
X133410000Y-104987500D01*
G75*
G02*
X133372500Y-105025000I-37500J0D01*
G01*
X133297500Y-105025000D01*
G75*
G02*
X133260000Y-104987500I0J37500D01*
G01*
X133260000Y-104337500D01*
G75*
G02*
X133297500Y-104300000I37500J0D01*
G01*
X133372500Y-104300000D01*
G75*
G02*
X133410000Y-104337500I0J-37500D01*
G01*
G37*
G36*
G01*
X132910000Y-104337500D02*
X132910000Y-104987500D01*
G75*
G02*
X132872500Y-105025000I-37500J0D01*
G01*
X132797500Y-105025000D01*
G75*
G02*
X132760000Y-104987500I0J37500D01*
G01*
X132760000Y-104337500D01*
G75*
G02*
X132797500Y-104300000I37500J0D01*
G01*
X132872500Y-104300000D01*
G75*
G02*
X132910000Y-104337500I0J-37500D01*
G01*
G37*
G36*
G01*
X132410000Y-104337500D02*
X132410000Y-104987500D01*
G75*
G02*
X132372500Y-105025000I-37500J0D01*
G01*
X132297500Y-105025000D01*
G75*
G02*
X132260000Y-104987500I0J37500D01*
G01*
X132260000Y-104337500D01*
G75*
G02*
X132297500Y-104300000I37500J0D01*
G01*
X132372500Y-104300000D01*
G75*
G02*
X132410000Y-104337500I0J-37500D01*
G01*
G37*
G36*
G01*
X131910000Y-104337500D02*
X131910000Y-104987500D01*
G75*
G02*
X131872500Y-105025000I-37500J0D01*
G01*
X131797500Y-105025000D01*
G75*
G02*
X131760000Y-104987500I0J37500D01*
G01*
X131760000Y-104337500D01*
G75*
G02*
X131797500Y-104300000I37500J0D01*
G01*
X131872500Y-104300000D01*
G75*
G02*
X131910000Y-104337500I0J-37500D01*
G01*
G37*
G36*
G01*
X131260000Y-105562500D02*
X131260000Y-105637500D01*
G75*
G02*
X131222500Y-105675000I-37500J0D01*
G01*
X130572500Y-105675000D01*
G75*
G02*
X130535000Y-105637500I0J37500D01*
G01*
X130535000Y-105562500D01*
G75*
G02*
X130572500Y-105525000I37500J0D01*
G01*
X131222500Y-105525000D01*
G75*
G02*
X131260000Y-105562500I0J-37500D01*
G01*
G37*
G36*
G01*
X131260000Y-106062500D02*
X131260000Y-106137500D01*
G75*
G02*
X131222500Y-106175000I-37500J0D01*
G01*
X130572500Y-106175000D01*
G75*
G02*
X130535000Y-106137500I0J37500D01*
G01*
X130535000Y-106062500D01*
G75*
G02*
X130572500Y-106025000I37500J0D01*
G01*
X131222500Y-106025000D01*
G75*
G02*
X131260000Y-106062500I0J-37500D01*
G01*
G37*
G36*
G01*
X131260000Y-106562500D02*
X131260000Y-106637500D01*
G75*
G02*
X131222500Y-106675000I-37500J0D01*
G01*
X130572500Y-106675000D01*
G75*
G02*
X130535000Y-106637500I0J37500D01*
G01*
X130535000Y-106562500D01*
G75*
G02*
X130572500Y-106525000I37500J0D01*
G01*
X131222500Y-106525000D01*
G75*
G02*
X131260000Y-106562500I0J-37500D01*
G01*
G37*
G36*
G01*
X131260000Y-107062500D02*
X131260000Y-107137500D01*
G75*
G02*
X131222500Y-107175000I-37500J0D01*
G01*
X130572500Y-107175000D01*
G75*
G02*
X130535000Y-107137500I0J37500D01*
G01*
X130535000Y-107062500D01*
G75*
G02*
X130572500Y-107025000I37500J0D01*
G01*
X131222500Y-107025000D01*
G75*
G02*
X131260000Y-107062500I0J-37500D01*
G01*
G37*
G36*
G01*
X131260000Y-107562500D02*
X131260000Y-107637500D01*
G75*
G02*
X131222500Y-107675000I-37500J0D01*
G01*
X130572500Y-107675000D01*
G75*
G02*
X130535000Y-107637500I0J37500D01*
G01*
X130535000Y-107562500D01*
G75*
G02*
X130572500Y-107525000I37500J0D01*
G01*
X131222500Y-107525000D01*
G75*
G02*
X131260000Y-107562500I0J-37500D01*
G01*
G37*
G36*
G01*
X131910000Y-108212500D02*
X131910000Y-108862500D01*
G75*
G02*
X131872500Y-108900000I-37500J0D01*
G01*
X131797500Y-108900000D01*
G75*
G02*
X131760000Y-108862500I0J37500D01*
G01*
X131760000Y-108212500D01*
G75*
G02*
X131797500Y-108175000I37500J0D01*
G01*
X131872500Y-108175000D01*
G75*
G02*
X131910000Y-108212500I0J-37500D01*
G01*
G37*
G36*
G01*
X132410000Y-108212500D02*
X132410000Y-108862500D01*
G75*
G02*
X132372500Y-108900000I-37500J0D01*
G01*
X132297500Y-108900000D01*
G75*
G02*
X132260000Y-108862500I0J37500D01*
G01*
X132260000Y-108212500D01*
G75*
G02*
X132297500Y-108175000I37500J0D01*
G01*
X132372500Y-108175000D01*
G75*
G02*
X132410000Y-108212500I0J-37500D01*
G01*
G37*
G36*
G01*
X132910000Y-108212500D02*
X132910000Y-108862500D01*
G75*
G02*
X132872500Y-108900000I-37500J0D01*
G01*
X132797500Y-108900000D01*
G75*
G02*
X132760000Y-108862500I0J37500D01*
G01*
X132760000Y-108212500D01*
G75*
G02*
X132797500Y-108175000I37500J0D01*
G01*
X132872500Y-108175000D01*
G75*
G02*
X132910000Y-108212500I0J-37500D01*
G01*
G37*
G36*
G01*
X133410000Y-108212500D02*
X133410000Y-108862500D01*
G75*
G02*
X133372500Y-108900000I-37500J0D01*
G01*
X133297500Y-108900000D01*
G75*
G02*
X133260000Y-108862500I0J37500D01*
G01*
X133260000Y-108212500D01*
G75*
G02*
X133297500Y-108175000I37500J0D01*
G01*
X133372500Y-108175000D01*
G75*
G02*
X133410000Y-108212500I0J-37500D01*
G01*
G37*
G36*
G01*
X133910000Y-108212500D02*
X133910000Y-108862500D01*
G75*
G02*
X133872500Y-108900000I-37500J0D01*
G01*
X133797500Y-108900000D01*
G75*
G02*
X133760000Y-108862500I0J37500D01*
G01*
X133760000Y-108212500D01*
G75*
G02*
X133797500Y-108175000I37500J0D01*
G01*
X133872500Y-108175000D01*
G75*
G02*
X133910000Y-108212500I0J-37500D01*
G01*
G37*
G36*
G01*
X135135000Y-107562500D02*
X135135000Y-107637500D01*
G75*
G02*
X135097500Y-107675000I-37500J0D01*
G01*
X134447500Y-107675000D01*
G75*
G02*
X134410000Y-107637500I0J37500D01*
G01*
X134410000Y-107562500D01*
G75*
G02*
X134447500Y-107525000I37500J0D01*
G01*
X135097500Y-107525000D01*
G75*
G02*
X135135000Y-107562500I0J-37500D01*
G01*
G37*
G36*
G01*
X135135000Y-107062500D02*
X135135000Y-107137500D01*
G75*
G02*
X135097500Y-107175000I-37500J0D01*
G01*
X134447500Y-107175000D01*
G75*
G02*
X134410000Y-107137500I0J37500D01*
G01*
X134410000Y-107062500D01*
G75*
G02*
X134447500Y-107025000I37500J0D01*
G01*
X135097500Y-107025000D01*
G75*
G02*
X135135000Y-107062500I0J-37500D01*
G01*
G37*
G36*
G01*
X135135000Y-106562500D02*
X135135000Y-106637500D01*
G75*
G02*
X135097500Y-106675000I-37500J0D01*
G01*
X134447500Y-106675000D01*
G75*
G02*
X134410000Y-106637500I0J37500D01*
G01*
X134410000Y-106562500D01*
G75*
G02*
X134447500Y-106525000I37500J0D01*
G01*
X135097500Y-106525000D01*
G75*
G02*
X135135000Y-106562500I0J-37500D01*
G01*
G37*
G36*
G01*
X135135000Y-106062500D02*
X135135000Y-106137500D01*
G75*
G02*
X135097500Y-106175000I-37500J0D01*
G01*
X134447500Y-106175000D01*
G75*
G02*
X134410000Y-106137500I0J37500D01*
G01*
X134410000Y-106062500D01*
G75*
G02*
X134447500Y-106025000I37500J0D01*
G01*
X135097500Y-106025000D01*
G75*
G02*
X135135000Y-106062500I0J-37500D01*
G01*
G37*
G36*
G01*
X135135000Y-105562500D02*
X135135000Y-105637500D01*
G75*
G02*
X135097500Y-105675000I-37500J0D01*
G01*
X134447500Y-105675000D01*
G75*
G02*
X134410000Y-105637500I0J37500D01*
G01*
X134410000Y-105562500D01*
G75*
G02*
X134447500Y-105525000I37500J0D01*
G01*
X135097500Y-105525000D01*
G75*
G02*
X135135000Y-105562500I0J-37500D01*
G01*
G37*
D12*
X172485000Y-105870000D03*
X156685000Y-105870000D03*
D13*
X152930000Y-73850000D03*
X152930000Y-71350000D03*
D14*
X157600000Y-74755000D03*
X155060000Y-74755000D03*
X160140000Y-88090000D03*
X157600000Y-88090000D03*
X103825000Y-79625000D03*
X106365000Y-79625000D03*
D15*
X178576000Y-98522000D03*
X172976000Y-98522000D03*
X172976000Y-101322000D03*
X178576000Y-101322000D03*
G36*
G01*
X104403500Y-73216250D02*
X104403500Y-72353750D01*
G75*
G02*
X104622250Y-72135000I218750J0D01*
G01*
X105059750Y-72135000D01*
G75*
G02*
X105278500Y-72353750I0J-218750D01*
G01*
X105278500Y-73216250D01*
G75*
G02*
X105059750Y-73435000I-218750J0D01*
G01*
X104622250Y-73435000D01*
G75*
G02*
X104403500Y-73216250I0J218750D01*
G01*
G37*
G36*
G01*
X102528500Y-73216250D02*
X102528500Y-72353750D01*
G75*
G02*
X102747250Y-72135000I218750J0D01*
G01*
X103184750Y-72135000D01*
G75*
G02*
X103403500Y-72353750I0J-218750D01*
G01*
X103403500Y-73216250D01*
G75*
G02*
X103184750Y-73435000I-218750J0D01*
G01*
X102747250Y-73435000D01*
G75*
G02*
X102528500Y-73216250I0J218750D01*
G01*
G37*
G36*
G01*
X128748750Y-109200000D02*
X129211250Y-109200000D01*
G75*
G02*
X129405000Y-109393750I0J-193750D01*
G01*
X129405000Y-109781250D01*
G75*
G02*
X129211250Y-109975000I-193750J0D01*
G01*
X128748750Y-109975000D01*
G75*
G02*
X128555000Y-109781250I0J193750D01*
G01*
X128555000Y-109393750D01*
G75*
G02*
X128748750Y-109200000I193750J0D01*
G01*
G37*
G36*
G01*
X128748750Y-107625000D02*
X129211250Y-107625000D01*
G75*
G02*
X129405000Y-107818750I0J-193750D01*
G01*
X129405000Y-108206250D01*
G75*
G02*
X129211250Y-108400000I-193750J0D01*
G01*
X128748750Y-108400000D01*
G75*
G02*
X128555000Y-108206250I0J193750D01*
G01*
X128555000Y-107818750D01*
G75*
G02*
X128748750Y-107625000I193750J0D01*
G01*
G37*
G36*
G01*
X130811250Y-97600000D02*
X130348750Y-97600000D01*
G75*
G02*
X130155000Y-97406250I0J193750D01*
G01*
X130155000Y-97018750D01*
G75*
G02*
X130348750Y-96825000I193750J0D01*
G01*
X130811250Y-96825000D01*
G75*
G02*
X131005000Y-97018750I0J-193750D01*
G01*
X131005000Y-97406250D01*
G75*
G02*
X130811250Y-97600000I-193750J0D01*
G01*
G37*
G36*
G01*
X130811250Y-99175000D02*
X130348750Y-99175000D01*
G75*
G02*
X130155000Y-98981250I0J193750D01*
G01*
X130155000Y-98593750D01*
G75*
G02*
X130348750Y-98400000I193750J0D01*
G01*
X130811250Y-98400000D01*
G75*
G02*
X131005000Y-98593750I0J-193750D01*
G01*
X131005000Y-98981250D01*
G75*
G02*
X130811250Y-99175000I-193750J0D01*
G01*
G37*
G36*
G01*
X129311250Y-97587500D02*
X128848750Y-97587500D01*
G75*
G02*
X128655000Y-97393750I0J193750D01*
G01*
X128655000Y-97006250D01*
G75*
G02*
X128848750Y-96812500I193750J0D01*
G01*
X129311250Y-96812500D01*
G75*
G02*
X129505000Y-97006250I0J-193750D01*
G01*
X129505000Y-97393750D01*
G75*
G02*
X129311250Y-97587500I-193750J0D01*
G01*
G37*
G36*
G01*
X129311250Y-99162500D02*
X128848750Y-99162500D01*
G75*
G02*
X128655000Y-98968750I0J193750D01*
G01*
X128655000Y-98581250D01*
G75*
G02*
X128848750Y-98387500I193750J0D01*
G01*
X129311250Y-98387500D01*
G75*
G02*
X129505000Y-98581250I0J-193750D01*
G01*
X129505000Y-98968750D01*
G75*
G02*
X129311250Y-99162500I-193750J0D01*
G01*
G37*
G36*
G01*
X118167500Y-84931250D02*
X118167500Y-84468750D01*
G75*
G02*
X118361250Y-84275000I193750J0D01*
G01*
X118748750Y-84275000D01*
G75*
G02*
X118942500Y-84468750I0J-193750D01*
G01*
X118942500Y-84931250D01*
G75*
G02*
X118748750Y-85125000I-193750J0D01*
G01*
X118361250Y-85125000D01*
G75*
G02*
X118167500Y-84931250I0J193750D01*
G01*
G37*
G36*
G01*
X116592500Y-84931250D02*
X116592500Y-84468750D01*
G75*
G02*
X116786250Y-84275000I193750J0D01*
G01*
X117173750Y-84275000D01*
G75*
G02*
X117367500Y-84468750I0J-193750D01*
G01*
X117367500Y-84931250D01*
G75*
G02*
X117173750Y-85125000I-193750J0D01*
G01*
X116786250Y-85125000D01*
G75*
G02*
X116592500Y-84931250I0J193750D01*
G01*
G37*
G36*
G01*
X167906000Y-65969250D02*
X167906000Y-65506750D01*
G75*
G02*
X168099750Y-65313000I193750J0D01*
G01*
X168487250Y-65313000D01*
G75*
G02*
X168681000Y-65506750I0J-193750D01*
G01*
X168681000Y-65969250D01*
G75*
G02*
X168487250Y-66163000I-193750J0D01*
G01*
X168099750Y-66163000D01*
G75*
G02*
X167906000Y-65969250I0J193750D01*
G01*
G37*
G36*
G01*
X166331000Y-65969250D02*
X166331000Y-65506750D01*
G75*
G02*
X166524750Y-65313000I193750J0D01*
G01*
X166912250Y-65313000D01*
G75*
G02*
X167106000Y-65506750I0J-193750D01*
G01*
X167106000Y-65969250D01*
G75*
G02*
X166912250Y-66163000I-193750J0D01*
G01*
X166524750Y-66163000D01*
G75*
G02*
X166331000Y-65969250I0J193750D01*
G01*
G37*
G36*
G01*
X104152000Y-103831250D02*
X104152000Y-103368750D01*
G75*
G02*
X104345750Y-103175000I193750J0D01*
G01*
X104733250Y-103175000D01*
G75*
G02*
X104927000Y-103368750I0J-193750D01*
G01*
X104927000Y-103831250D01*
G75*
G02*
X104733250Y-104025000I-193750J0D01*
G01*
X104345750Y-104025000D01*
G75*
G02*
X104152000Y-103831250I0J193750D01*
G01*
G37*
G36*
G01*
X102577000Y-103831250D02*
X102577000Y-103368750D01*
G75*
G02*
X102770750Y-103175000I193750J0D01*
G01*
X103158250Y-103175000D01*
G75*
G02*
X103352000Y-103368750I0J-193750D01*
G01*
X103352000Y-103831250D01*
G75*
G02*
X103158250Y-104025000I-193750J0D01*
G01*
X102770750Y-104025000D01*
G75*
G02*
X102577000Y-103831250I0J193750D01*
G01*
G37*
G36*
G01*
X103352000Y-101828750D02*
X103352000Y-102291250D01*
G75*
G02*
X103158250Y-102485000I-193750J0D01*
G01*
X102770750Y-102485000D01*
G75*
G02*
X102577000Y-102291250I0J193750D01*
G01*
X102577000Y-101828750D01*
G75*
G02*
X102770750Y-101635000I193750J0D01*
G01*
X103158250Y-101635000D01*
G75*
G02*
X103352000Y-101828750I0J-193750D01*
G01*
G37*
G36*
G01*
X104927000Y-101828750D02*
X104927000Y-102291250D01*
G75*
G02*
X104733250Y-102485000I-193750J0D01*
G01*
X104345750Y-102485000D01*
G75*
G02*
X104152000Y-102291250I0J193750D01*
G01*
X104152000Y-101828750D01*
G75*
G02*
X104345750Y-101635000I193750J0D01*
G01*
X104733250Y-101635000D01*
G75*
G02*
X104927000Y-101828750I0J-193750D01*
G01*
G37*
G36*
G01*
X105707250Y-98512000D02*
X104844750Y-98512000D01*
G75*
G02*
X104626000Y-98293250I0J218750D01*
G01*
X104626000Y-97855750D01*
G75*
G02*
X104844750Y-97637000I218750J0D01*
G01*
X105707250Y-97637000D01*
G75*
G02*
X105926000Y-97855750I0J-218750D01*
G01*
X105926000Y-98293250D01*
G75*
G02*
X105707250Y-98512000I-218750J0D01*
G01*
G37*
G36*
G01*
X105707250Y-100387000D02*
X104844750Y-100387000D01*
G75*
G02*
X104626000Y-100168250I0J218750D01*
G01*
X104626000Y-99730750D01*
G75*
G02*
X104844750Y-99512000I218750J0D01*
G01*
X105707250Y-99512000D01*
G75*
G02*
X105926000Y-99730750I0J-218750D01*
G01*
X105926000Y-100168250D01*
G75*
G02*
X105707250Y-100387000I-218750J0D01*
G01*
G37*
G36*
G01*
X103807750Y-98630000D02*
X103345250Y-98630000D01*
G75*
G02*
X103151500Y-98436250I0J193750D01*
G01*
X103151500Y-98048750D01*
G75*
G02*
X103345250Y-97855000I193750J0D01*
G01*
X103807750Y-97855000D01*
G75*
G02*
X104001500Y-98048750I0J-193750D01*
G01*
X104001500Y-98436250D01*
G75*
G02*
X103807750Y-98630000I-193750J0D01*
G01*
G37*
G36*
G01*
X103807750Y-100205000D02*
X103345250Y-100205000D01*
G75*
G02*
X103151500Y-100011250I0J193750D01*
G01*
X103151500Y-99623750D01*
G75*
G02*
X103345250Y-99430000I193750J0D01*
G01*
X103807750Y-99430000D01*
G75*
G02*
X104001500Y-99623750I0J-193750D01*
G01*
X104001500Y-100011250D01*
G75*
G02*
X103807750Y-100205000I-193750J0D01*
G01*
G37*
G36*
G01*
X103617000Y-93492250D02*
X103617000Y-92629750D01*
G75*
G02*
X103835750Y-92411000I218750J0D01*
G01*
X104273250Y-92411000D01*
G75*
G02*
X104492000Y-92629750I0J-218750D01*
G01*
X104492000Y-93492250D01*
G75*
G02*
X104273250Y-93711000I-218750J0D01*
G01*
X103835750Y-93711000D01*
G75*
G02*
X103617000Y-93492250I0J218750D01*
G01*
G37*
G36*
G01*
X101742000Y-93492250D02*
X101742000Y-92629750D01*
G75*
G02*
X101960750Y-92411000I218750J0D01*
G01*
X102398250Y-92411000D01*
G75*
G02*
X102617000Y-92629750I0J-218750D01*
G01*
X102617000Y-93492250D01*
G75*
G02*
X102398250Y-93711000I-218750J0D01*
G01*
X101960750Y-93711000D01*
G75*
G02*
X101742000Y-93492250I0J218750D01*
G01*
G37*
G36*
G01*
X102504750Y-86839000D02*
X102967250Y-86839000D01*
G75*
G02*
X103161000Y-87032750I0J-193750D01*
G01*
X103161000Y-87420250D01*
G75*
G02*
X102967250Y-87614000I-193750J0D01*
G01*
X102504750Y-87614000D01*
G75*
G02*
X102311000Y-87420250I0J193750D01*
G01*
X102311000Y-87032750D01*
G75*
G02*
X102504750Y-86839000I193750J0D01*
G01*
G37*
G36*
G01*
X102504750Y-85264000D02*
X102967250Y-85264000D01*
G75*
G02*
X103161000Y-85457750I0J-193750D01*
G01*
X103161000Y-85845250D01*
G75*
G02*
X102967250Y-86039000I-193750J0D01*
G01*
X102504750Y-86039000D01*
G75*
G02*
X102311000Y-85845250I0J193750D01*
G01*
X102311000Y-85457750D01*
G75*
G02*
X102504750Y-85264000I193750J0D01*
G01*
G37*
G36*
G01*
X106246000Y-81860750D02*
X106246000Y-82723250D01*
G75*
G02*
X106027250Y-82942000I-218750J0D01*
G01*
X105589750Y-82942000D01*
G75*
G02*
X105371000Y-82723250I0J218750D01*
G01*
X105371000Y-81860750D01*
G75*
G02*
X105589750Y-81642000I218750J0D01*
G01*
X106027250Y-81642000D01*
G75*
G02*
X106246000Y-81860750I0J-218750D01*
G01*
G37*
G36*
G01*
X108121000Y-81860750D02*
X108121000Y-82723250D01*
G75*
G02*
X107902250Y-82942000I-218750J0D01*
G01*
X107464750Y-82942000D01*
G75*
G02*
X107246000Y-82723250I0J218750D01*
G01*
X107246000Y-81860750D01*
G75*
G02*
X107464750Y-81642000I218750J0D01*
G01*
X107902250Y-81642000D01*
G75*
G02*
X108121000Y-81860750I0J-218750D01*
G01*
G37*
G36*
G01*
X106596250Y-75415000D02*
X106133750Y-75415000D01*
G75*
G02*
X105940000Y-75221250I0J193750D01*
G01*
X105940000Y-74833750D01*
G75*
G02*
X106133750Y-74640000I193750J0D01*
G01*
X106596250Y-74640000D01*
G75*
G02*
X106790000Y-74833750I0J-193750D01*
G01*
X106790000Y-75221250D01*
G75*
G02*
X106596250Y-75415000I-193750J0D01*
G01*
G37*
G36*
G01*
X106596250Y-76990000D02*
X106133750Y-76990000D01*
G75*
G02*
X105940000Y-76796250I0J193750D01*
G01*
X105940000Y-76408750D01*
G75*
G02*
X106133750Y-76215000I193750J0D01*
G01*
X106596250Y-76215000D01*
G75*
G02*
X106790000Y-76408750I0J-193750D01*
G01*
X106790000Y-76796250D01*
G75*
G02*
X106596250Y-76990000I-193750J0D01*
G01*
G37*
G36*
G01*
X109040000Y-76653750D02*
X109040000Y-77516250D01*
G75*
G02*
X108821250Y-77735000I-218750J0D01*
G01*
X108383750Y-77735000D01*
G75*
G02*
X108165000Y-77516250I0J218750D01*
G01*
X108165000Y-76653750D01*
G75*
G02*
X108383750Y-76435000I218750J0D01*
G01*
X108821250Y-76435000D01*
G75*
G02*
X109040000Y-76653750I0J-218750D01*
G01*
G37*
G36*
G01*
X110915000Y-76653750D02*
X110915000Y-77516250D01*
G75*
G02*
X110696250Y-77735000I-218750J0D01*
G01*
X110258750Y-77735000D01*
G75*
G02*
X110040000Y-77516250I0J218750D01*
G01*
X110040000Y-76653750D01*
G75*
G02*
X110258750Y-76435000I218750J0D01*
G01*
X110696250Y-76435000D01*
G75*
G02*
X110915000Y-76653750I0J-218750D01*
G01*
G37*
G36*
G01*
X109040000Y-74748750D02*
X109040000Y-75611250D01*
G75*
G02*
X108821250Y-75830000I-218750J0D01*
G01*
X108383750Y-75830000D01*
G75*
G02*
X108165000Y-75611250I0J218750D01*
G01*
X108165000Y-74748750D01*
G75*
G02*
X108383750Y-74530000I218750J0D01*
G01*
X108821250Y-74530000D01*
G75*
G02*
X109040000Y-74748750I0J-218750D01*
G01*
G37*
G36*
G01*
X110915000Y-74748750D02*
X110915000Y-75611250D01*
G75*
G02*
X110696250Y-75830000I-218750J0D01*
G01*
X110258750Y-75830000D01*
G75*
G02*
X110040000Y-75611250I0J218750D01*
G01*
X110040000Y-74748750D01*
G75*
G02*
X110258750Y-74530000I218750J0D01*
G01*
X110696250Y-74530000D01*
G75*
G02*
X110915000Y-74748750I0J-218750D01*
G01*
G37*
G36*
G01*
X109140000Y-73043750D02*
X109140000Y-73506250D01*
G75*
G02*
X108946250Y-73700000I-193750J0D01*
G01*
X108558750Y-73700000D01*
G75*
G02*
X108365000Y-73506250I0J193750D01*
G01*
X108365000Y-73043750D01*
G75*
G02*
X108558750Y-72850000I193750J0D01*
G01*
X108946250Y-72850000D01*
G75*
G02*
X109140000Y-73043750I0J-193750D01*
G01*
G37*
G36*
G01*
X110715000Y-73043750D02*
X110715000Y-73506250D01*
G75*
G02*
X110521250Y-73700000I-193750J0D01*
G01*
X110133750Y-73700000D01*
G75*
G02*
X109940000Y-73506250I0J193750D01*
G01*
X109940000Y-73043750D01*
G75*
G02*
X110133750Y-72850000I193750J0D01*
G01*
X110521250Y-72850000D01*
G75*
G02*
X110715000Y-73043750I0J-193750D01*
G01*
G37*
G36*
G01*
X109140000Y-71773750D02*
X109140000Y-72236250D01*
G75*
G02*
X108946250Y-72430000I-193750J0D01*
G01*
X108558750Y-72430000D01*
G75*
G02*
X108365000Y-72236250I0J193750D01*
G01*
X108365000Y-71773750D01*
G75*
G02*
X108558750Y-71580000I193750J0D01*
G01*
X108946250Y-71580000D01*
G75*
G02*
X109140000Y-71773750I0J-193750D01*
G01*
G37*
G36*
G01*
X110715000Y-71773750D02*
X110715000Y-72236250D01*
G75*
G02*
X110521250Y-72430000I-193750J0D01*
G01*
X110133750Y-72430000D01*
G75*
G02*
X109940000Y-72236250I0J193750D01*
G01*
X109940000Y-71773750D01*
G75*
G02*
X110133750Y-71580000I193750J0D01*
G01*
X110521250Y-71580000D01*
G75*
G02*
X110715000Y-71773750I0J-193750D01*
G01*
G37*
G36*
G01*
X113531250Y-81320000D02*
X113068750Y-81320000D01*
G75*
G02*
X112875000Y-81126250I0J193750D01*
G01*
X112875000Y-80738750D01*
G75*
G02*
X113068750Y-80545000I193750J0D01*
G01*
X113531250Y-80545000D01*
G75*
G02*
X113725000Y-80738750I0J-193750D01*
G01*
X113725000Y-81126250D01*
G75*
G02*
X113531250Y-81320000I-193750J0D01*
G01*
G37*
G36*
G01*
X113531250Y-82895000D02*
X113068750Y-82895000D01*
G75*
G02*
X112875000Y-82701250I0J193750D01*
G01*
X112875000Y-82313750D01*
G75*
G02*
X113068750Y-82120000I193750J0D01*
G01*
X113531250Y-82120000D01*
G75*
G02*
X113725000Y-82313750I0J-193750D01*
G01*
X113725000Y-82701250D01*
G75*
G02*
X113531250Y-82895000I-193750J0D01*
G01*
G37*
G36*
G01*
X115031250Y-81320000D02*
X114568750Y-81320000D01*
G75*
G02*
X114375000Y-81126250I0J193750D01*
G01*
X114375000Y-80738750D01*
G75*
G02*
X114568750Y-80545000I193750J0D01*
G01*
X115031250Y-80545000D01*
G75*
G02*
X115225000Y-80738750I0J-193750D01*
G01*
X115225000Y-81126250D01*
G75*
G02*
X115031250Y-81320000I-193750J0D01*
G01*
G37*
G36*
G01*
X115031250Y-82895000D02*
X114568750Y-82895000D01*
G75*
G02*
X114375000Y-82701250I0J193750D01*
G01*
X114375000Y-82313750D01*
G75*
G02*
X114568750Y-82120000I193750J0D01*
G01*
X115031250Y-82120000D01*
G75*
G02*
X115225000Y-82313750I0J-193750D01*
G01*
X115225000Y-82701250D01*
G75*
G02*
X115031250Y-82895000I-193750J0D01*
G01*
G37*
G36*
G01*
X102459250Y-90103000D02*
X101996750Y-90103000D01*
G75*
G02*
X101803000Y-89909250I0J193750D01*
G01*
X101803000Y-89521750D01*
G75*
G02*
X101996750Y-89328000I193750J0D01*
G01*
X102459250Y-89328000D01*
G75*
G02*
X102653000Y-89521750I0J-193750D01*
G01*
X102653000Y-89909250D01*
G75*
G02*
X102459250Y-90103000I-193750J0D01*
G01*
G37*
G36*
G01*
X102459250Y-91678000D02*
X101996750Y-91678000D01*
G75*
G02*
X101803000Y-91484250I0J193750D01*
G01*
X101803000Y-91096750D01*
G75*
G02*
X101996750Y-90903000I193750J0D01*
G01*
X102459250Y-90903000D01*
G75*
G02*
X102653000Y-91096750I0J-193750D01*
G01*
X102653000Y-91484250D01*
G75*
G02*
X102459250Y-91678000I-193750J0D01*
G01*
G37*
G36*
G01*
X115968750Y-73520000D02*
X116431250Y-73520000D01*
G75*
G02*
X116625000Y-73713750I0J-193750D01*
G01*
X116625000Y-74101250D01*
G75*
G02*
X116431250Y-74295000I-193750J0D01*
G01*
X115968750Y-74295000D01*
G75*
G02*
X115775000Y-74101250I0J193750D01*
G01*
X115775000Y-73713750D01*
G75*
G02*
X115968750Y-73520000I193750J0D01*
G01*
G37*
G36*
G01*
X115968750Y-71945000D02*
X116431250Y-71945000D01*
G75*
G02*
X116625000Y-72138750I0J-193750D01*
G01*
X116625000Y-72526250D01*
G75*
G02*
X116431250Y-72720000I-193750J0D01*
G01*
X115968750Y-72720000D01*
G75*
G02*
X115775000Y-72526250I0J193750D01*
G01*
X115775000Y-72138750D01*
G75*
G02*
X115968750Y-71945000I193750J0D01*
G01*
G37*
G36*
G01*
X117463750Y-73518000D02*
X117926250Y-73518000D01*
G75*
G02*
X118120000Y-73711750I0J-193750D01*
G01*
X118120000Y-74099250D01*
G75*
G02*
X117926250Y-74293000I-193750J0D01*
G01*
X117463750Y-74293000D01*
G75*
G02*
X117270000Y-74099250I0J193750D01*
G01*
X117270000Y-73711750D01*
G75*
G02*
X117463750Y-73518000I193750J0D01*
G01*
G37*
G36*
G01*
X117463750Y-71943000D02*
X117926250Y-71943000D01*
G75*
G02*
X118120000Y-72136750I0J-193750D01*
G01*
X118120000Y-72524250D01*
G75*
G02*
X117926250Y-72718000I-193750J0D01*
G01*
X117463750Y-72718000D01*
G75*
G02*
X117270000Y-72524250I0J193750D01*
G01*
X117270000Y-72136750D01*
G75*
G02*
X117463750Y-71943000I193750J0D01*
G01*
G37*
G36*
G01*
X118968750Y-73520000D02*
X119431250Y-73520000D01*
G75*
G02*
X119625000Y-73713750I0J-193750D01*
G01*
X119625000Y-74101250D01*
G75*
G02*
X119431250Y-74295000I-193750J0D01*
G01*
X118968750Y-74295000D01*
G75*
G02*
X118775000Y-74101250I0J193750D01*
G01*
X118775000Y-73713750D01*
G75*
G02*
X118968750Y-73520000I193750J0D01*
G01*
G37*
G36*
G01*
X118968750Y-71945000D02*
X119431250Y-71945000D01*
G75*
G02*
X119625000Y-72138750I0J-193750D01*
G01*
X119625000Y-72526250D01*
G75*
G02*
X119431250Y-72720000I-193750J0D01*
G01*
X118968750Y-72720000D01*
G75*
G02*
X118775000Y-72526250I0J193750D01*
G01*
X118775000Y-72138750D01*
G75*
G02*
X118968750Y-71945000I193750J0D01*
G01*
G37*
G36*
G01*
X125196000Y-75438750D02*
X125196000Y-75901250D01*
G75*
G02*
X125002250Y-76095000I-193750J0D01*
G01*
X124614750Y-76095000D01*
G75*
G02*
X124421000Y-75901250I0J193750D01*
G01*
X124421000Y-75438750D01*
G75*
G02*
X124614750Y-75245000I193750J0D01*
G01*
X125002250Y-75245000D01*
G75*
G02*
X125196000Y-75438750I0J-193750D01*
G01*
G37*
G36*
G01*
X126771000Y-75438750D02*
X126771000Y-75901250D01*
G75*
G02*
X126577250Y-76095000I-193750J0D01*
G01*
X126189750Y-76095000D01*
G75*
G02*
X125996000Y-75901250I0J193750D01*
G01*
X125996000Y-75438750D01*
G75*
G02*
X126189750Y-75245000I193750J0D01*
G01*
X126577250Y-75245000D01*
G75*
G02*
X126771000Y-75438750I0J-193750D01*
G01*
G37*
G36*
G01*
X125196000Y-76980750D02*
X125196000Y-77443250D01*
G75*
G02*
X125002250Y-77637000I-193750J0D01*
G01*
X124614750Y-77637000D01*
G75*
G02*
X124421000Y-77443250I0J193750D01*
G01*
X124421000Y-76980750D01*
G75*
G02*
X124614750Y-76787000I193750J0D01*
G01*
X125002250Y-76787000D01*
G75*
G02*
X125196000Y-76980750I0J-193750D01*
G01*
G37*
G36*
G01*
X126771000Y-76980750D02*
X126771000Y-77443250D01*
G75*
G02*
X126577250Y-77637000I-193750J0D01*
G01*
X126189750Y-77637000D01*
G75*
G02*
X125996000Y-77443250I0J193750D01*
G01*
X125996000Y-76980750D01*
G75*
G02*
X126189750Y-76787000I193750J0D01*
G01*
X126577250Y-76787000D01*
G75*
G02*
X126771000Y-76980750I0J-193750D01*
G01*
G37*
G36*
G01*
X125196000Y-78504750D02*
X125196000Y-78967250D01*
G75*
G02*
X125002250Y-79161000I-193750J0D01*
G01*
X124614750Y-79161000D01*
G75*
G02*
X124421000Y-78967250I0J193750D01*
G01*
X124421000Y-78504750D01*
G75*
G02*
X124614750Y-78311000I193750J0D01*
G01*
X125002250Y-78311000D01*
G75*
G02*
X125196000Y-78504750I0J-193750D01*
G01*
G37*
G36*
G01*
X126771000Y-78504750D02*
X126771000Y-78967250D01*
G75*
G02*
X126577250Y-79161000I-193750J0D01*
G01*
X126189750Y-79161000D01*
G75*
G02*
X125996000Y-78967250I0J193750D01*
G01*
X125996000Y-78504750D01*
G75*
G02*
X126189750Y-78311000I193750J0D01*
G01*
X126577250Y-78311000D01*
G75*
G02*
X126771000Y-78504750I0J-193750D01*
G01*
G37*
G36*
G01*
X125196000Y-80028750D02*
X125196000Y-80491250D01*
G75*
G02*
X125002250Y-80685000I-193750J0D01*
G01*
X124614750Y-80685000D01*
G75*
G02*
X124421000Y-80491250I0J193750D01*
G01*
X124421000Y-80028750D01*
G75*
G02*
X124614750Y-79835000I193750J0D01*
G01*
X125002250Y-79835000D01*
G75*
G02*
X125196000Y-80028750I0J-193750D01*
G01*
G37*
G36*
G01*
X126771000Y-80028750D02*
X126771000Y-80491250D01*
G75*
G02*
X126577250Y-80685000I-193750J0D01*
G01*
X126189750Y-80685000D01*
G75*
G02*
X125996000Y-80491250I0J193750D01*
G01*
X125996000Y-80028750D01*
G75*
G02*
X126189750Y-79835000I193750J0D01*
G01*
X126577250Y-79835000D01*
G75*
G02*
X126771000Y-80028750I0J-193750D01*
G01*
G37*
G36*
G01*
X104000000Y-70251250D02*
X104000000Y-69788750D01*
G75*
G02*
X104193750Y-69595000I193750J0D01*
G01*
X104581250Y-69595000D01*
G75*
G02*
X104775000Y-69788750I0J-193750D01*
G01*
X104775000Y-70251250D01*
G75*
G02*
X104581250Y-70445000I-193750J0D01*
G01*
X104193750Y-70445000D01*
G75*
G02*
X104000000Y-70251250I0J193750D01*
G01*
G37*
G36*
G01*
X102425000Y-70251250D02*
X102425000Y-69788750D01*
G75*
G02*
X102618750Y-69595000I193750J0D01*
G01*
X103006250Y-69595000D01*
G75*
G02*
X103200000Y-69788750I0J-193750D01*
G01*
X103200000Y-70251250D01*
G75*
G02*
X103006250Y-70445000I-193750J0D01*
G01*
X102618750Y-70445000D01*
G75*
G02*
X102425000Y-70251250I0J193750D01*
G01*
G37*
G36*
G01*
X111731250Y-69185000D02*
X111268750Y-69185000D01*
G75*
G02*
X111075000Y-68991250I0J193750D01*
G01*
X111075000Y-68603750D01*
G75*
G02*
X111268750Y-68410000I193750J0D01*
G01*
X111731250Y-68410000D01*
G75*
G02*
X111925000Y-68603750I0J-193750D01*
G01*
X111925000Y-68991250D01*
G75*
G02*
X111731250Y-69185000I-193750J0D01*
G01*
G37*
G36*
G01*
X111731250Y-70760000D02*
X111268750Y-70760000D01*
G75*
G02*
X111075000Y-70566250I0J193750D01*
G01*
X111075000Y-70178750D01*
G75*
G02*
X111268750Y-69985000I193750J0D01*
G01*
X111731250Y-69985000D01*
G75*
G02*
X111925000Y-70178750I0J-193750D01*
G01*
X111925000Y-70566250D01*
G75*
G02*
X111731250Y-70760000I-193750J0D01*
G01*
G37*
G36*
G01*
X113231250Y-69185000D02*
X112768750Y-69185000D01*
G75*
G02*
X112575000Y-68991250I0J193750D01*
G01*
X112575000Y-68603750D01*
G75*
G02*
X112768750Y-68410000I193750J0D01*
G01*
X113231250Y-68410000D01*
G75*
G02*
X113425000Y-68603750I0J-193750D01*
G01*
X113425000Y-68991250D01*
G75*
G02*
X113231250Y-69185000I-193750J0D01*
G01*
G37*
G36*
G01*
X113231250Y-70760000D02*
X112768750Y-70760000D01*
G75*
G02*
X112575000Y-70566250I0J193750D01*
G01*
X112575000Y-70178750D01*
G75*
G02*
X112768750Y-69985000I193750J0D01*
G01*
X113231250Y-69985000D01*
G75*
G02*
X113425000Y-70178750I0J-193750D01*
G01*
X113425000Y-70566250D01*
G75*
G02*
X113231250Y-70760000I-193750J0D01*
G01*
G37*
G36*
G01*
X120239250Y-68685000D02*
X119776750Y-68685000D01*
G75*
G02*
X119583000Y-68491250I0J193750D01*
G01*
X119583000Y-68103750D01*
G75*
G02*
X119776750Y-67910000I193750J0D01*
G01*
X120239250Y-67910000D01*
G75*
G02*
X120433000Y-68103750I0J-193750D01*
G01*
X120433000Y-68491250D01*
G75*
G02*
X120239250Y-68685000I-193750J0D01*
G01*
G37*
G36*
G01*
X120239250Y-70260000D02*
X119776750Y-70260000D01*
G75*
G02*
X119583000Y-70066250I0J193750D01*
G01*
X119583000Y-69678750D01*
G75*
G02*
X119776750Y-69485000I193750J0D01*
G01*
X120239250Y-69485000D01*
G75*
G02*
X120433000Y-69678750I0J-193750D01*
G01*
X120433000Y-70066250D01*
G75*
G02*
X120239250Y-70260000I-193750J0D01*
G01*
G37*
G36*
G01*
X121763250Y-68685000D02*
X121300750Y-68685000D01*
G75*
G02*
X121107000Y-68491250I0J193750D01*
G01*
X121107000Y-68103750D01*
G75*
G02*
X121300750Y-67910000I193750J0D01*
G01*
X121763250Y-67910000D01*
G75*
G02*
X121957000Y-68103750I0J-193750D01*
G01*
X121957000Y-68491250D01*
G75*
G02*
X121763250Y-68685000I-193750J0D01*
G01*
G37*
G36*
G01*
X121763250Y-70260000D02*
X121300750Y-70260000D01*
G75*
G02*
X121107000Y-70066250I0J193750D01*
G01*
X121107000Y-69678750D01*
G75*
G02*
X121300750Y-69485000I193750J0D01*
G01*
X121763250Y-69485000D01*
G75*
G02*
X121957000Y-69678750I0J-193750D01*
G01*
X121957000Y-70066250D01*
G75*
G02*
X121763250Y-70260000I-193750J0D01*
G01*
G37*
G36*
G01*
X123287250Y-68685000D02*
X122824750Y-68685000D01*
G75*
G02*
X122631000Y-68491250I0J193750D01*
G01*
X122631000Y-68103750D01*
G75*
G02*
X122824750Y-67910000I193750J0D01*
G01*
X123287250Y-67910000D01*
G75*
G02*
X123481000Y-68103750I0J-193750D01*
G01*
X123481000Y-68491250D01*
G75*
G02*
X123287250Y-68685000I-193750J0D01*
G01*
G37*
G36*
G01*
X123287250Y-70260000D02*
X122824750Y-70260000D01*
G75*
G02*
X122631000Y-70066250I0J193750D01*
G01*
X122631000Y-69678750D01*
G75*
G02*
X122824750Y-69485000I193750J0D01*
G01*
X123287250Y-69485000D01*
G75*
G02*
X123481000Y-69678750I0J-193750D01*
G01*
X123481000Y-70066250D01*
G75*
G02*
X123287250Y-70260000I-193750J0D01*
G01*
G37*
G36*
G01*
X124811250Y-68685000D02*
X124348750Y-68685000D01*
G75*
G02*
X124155000Y-68491250I0J193750D01*
G01*
X124155000Y-68103750D01*
G75*
G02*
X124348750Y-67910000I193750J0D01*
G01*
X124811250Y-67910000D01*
G75*
G02*
X125005000Y-68103750I0J-193750D01*
G01*
X125005000Y-68491250D01*
G75*
G02*
X124811250Y-68685000I-193750J0D01*
G01*
G37*
G36*
G01*
X124811250Y-70260000D02*
X124348750Y-70260000D01*
G75*
G02*
X124155000Y-70066250I0J193750D01*
G01*
X124155000Y-69678750D01*
G75*
G02*
X124348750Y-69485000I193750J0D01*
G01*
X124811250Y-69485000D01*
G75*
G02*
X125005000Y-69678750I0J-193750D01*
G01*
X125005000Y-70066250D01*
G75*
G02*
X124811250Y-70260000I-193750J0D01*
G01*
G37*
G36*
G01*
X130653250Y-74373000D02*
X130190750Y-74373000D01*
G75*
G02*
X129997000Y-74179250I0J193750D01*
G01*
X129997000Y-73791750D01*
G75*
G02*
X130190750Y-73598000I193750J0D01*
G01*
X130653250Y-73598000D01*
G75*
G02*
X130847000Y-73791750I0J-193750D01*
G01*
X130847000Y-74179250D01*
G75*
G02*
X130653250Y-74373000I-193750J0D01*
G01*
G37*
G36*
G01*
X130653250Y-75948000D02*
X130190750Y-75948000D01*
G75*
G02*
X129997000Y-75754250I0J193750D01*
G01*
X129997000Y-75366750D01*
G75*
G02*
X130190750Y-75173000I193750J0D01*
G01*
X130653250Y-75173000D01*
G75*
G02*
X130847000Y-75366750I0J-193750D01*
G01*
X130847000Y-75754250D01*
G75*
G02*
X130653250Y-75948000I-193750J0D01*
G01*
G37*
G36*
G01*
X132192250Y-74373000D02*
X131729750Y-74373000D01*
G75*
G02*
X131536000Y-74179250I0J193750D01*
G01*
X131536000Y-73791750D01*
G75*
G02*
X131729750Y-73598000I193750J0D01*
G01*
X132192250Y-73598000D01*
G75*
G02*
X132386000Y-73791750I0J-193750D01*
G01*
X132386000Y-74179250D01*
G75*
G02*
X132192250Y-74373000I-193750J0D01*
G01*
G37*
G36*
G01*
X132192250Y-75948000D02*
X131729750Y-75948000D01*
G75*
G02*
X131536000Y-75754250I0J193750D01*
G01*
X131536000Y-75366750D01*
G75*
G02*
X131729750Y-75173000I193750J0D01*
G01*
X132192250Y-75173000D01*
G75*
G02*
X132386000Y-75366750I0J-193750D01*
G01*
X132386000Y-75754250D01*
G75*
G02*
X132192250Y-75948000I-193750J0D01*
G01*
G37*
G36*
G01*
X133716250Y-74373000D02*
X133253750Y-74373000D01*
G75*
G02*
X133060000Y-74179250I0J193750D01*
G01*
X133060000Y-73791750D01*
G75*
G02*
X133253750Y-73598000I193750J0D01*
G01*
X133716250Y-73598000D01*
G75*
G02*
X133910000Y-73791750I0J-193750D01*
G01*
X133910000Y-74179250D01*
G75*
G02*
X133716250Y-74373000I-193750J0D01*
G01*
G37*
G36*
G01*
X133716250Y-75948000D02*
X133253750Y-75948000D01*
G75*
G02*
X133060000Y-75754250I0J193750D01*
G01*
X133060000Y-75366750D01*
G75*
G02*
X133253750Y-75173000I193750J0D01*
G01*
X133716250Y-75173000D01*
G75*
G02*
X133910000Y-75366750I0J-193750D01*
G01*
X133910000Y-75754250D01*
G75*
G02*
X133716250Y-75948000I-193750J0D01*
G01*
G37*
G36*
G01*
X135240250Y-74373000D02*
X134777750Y-74373000D01*
G75*
G02*
X134584000Y-74179250I0J193750D01*
G01*
X134584000Y-73791750D01*
G75*
G02*
X134777750Y-73598000I193750J0D01*
G01*
X135240250Y-73598000D01*
G75*
G02*
X135434000Y-73791750I0J-193750D01*
G01*
X135434000Y-74179250D01*
G75*
G02*
X135240250Y-74373000I-193750J0D01*
G01*
G37*
G36*
G01*
X135240250Y-75948000D02*
X134777750Y-75948000D01*
G75*
G02*
X134584000Y-75754250I0J193750D01*
G01*
X134584000Y-75366750D01*
G75*
G02*
X134777750Y-75173000I193750J0D01*
G01*
X135240250Y-75173000D01*
G75*
G02*
X135434000Y-75366750I0J-193750D01*
G01*
X135434000Y-75754250D01*
G75*
G02*
X135240250Y-75948000I-193750J0D01*
G01*
G37*
G36*
G01*
X135001000Y-68981250D02*
X135001000Y-68118750D01*
G75*
G02*
X135219750Y-67900000I218750J0D01*
G01*
X135657250Y-67900000D01*
G75*
G02*
X135876000Y-68118750I0J-218750D01*
G01*
X135876000Y-68981250D01*
G75*
G02*
X135657250Y-69200000I-218750J0D01*
G01*
X135219750Y-69200000D01*
G75*
G02*
X135001000Y-68981250I0J218750D01*
G01*
G37*
G36*
G01*
X133126000Y-68981250D02*
X133126000Y-68118750D01*
G75*
G02*
X133344750Y-67900000I218750J0D01*
G01*
X133782250Y-67900000D01*
G75*
G02*
X134001000Y-68118750I0J-218750D01*
G01*
X134001000Y-68981250D01*
G75*
G02*
X133782250Y-69200000I-218750J0D01*
G01*
X133344750Y-69200000D01*
G75*
G02*
X133126000Y-68981250I0J218750D01*
G01*
G37*
G36*
G01*
X150211250Y-64500000D02*
X149748750Y-64500000D01*
G75*
G02*
X149555000Y-64306250I0J193750D01*
G01*
X149555000Y-63918750D01*
G75*
G02*
X149748750Y-63725000I193750J0D01*
G01*
X150211250Y-63725000D01*
G75*
G02*
X150405000Y-63918750I0J-193750D01*
G01*
X150405000Y-64306250D01*
G75*
G02*
X150211250Y-64500000I-193750J0D01*
G01*
G37*
G36*
G01*
X150211250Y-66075000D02*
X149748750Y-66075000D01*
G75*
G02*
X149555000Y-65881250I0J193750D01*
G01*
X149555000Y-65493750D01*
G75*
G02*
X149748750Y-65300000I193750J0D01*
G01*
X150211250Y-65300000D01*
G75*
G02*
X150405000Y-65493750I0J-193750D01*
G01*
X150405000Y-65881250D01*
G75*
G02*
X150211250Y-66075000I-193750J0D01*
G01*
G37*
G36*
G01*
X150211250Y-67500000D02*
X149748750Y-67500000D01*
G75*
G02*
X149555000Y-67306250I0J193750D01*
G01*
X149555000Y-66918750D01*
G75*
G02*
X149748750Y-66725000I193750J0D01*
G01*
X150211250Y-66725000D01*
G75*
G02*
X150405000Y-66918750I0J-193750D01*
G01*
X150405000Y-67306250D01*
G75*
G02*
X150211250Y-67500000I-193750J0D01*
G01*
G37*
G36*
G01*
X150211250Y-69075000D02*
X149748750Y-69075000D01*
G75*
G02*
X149555000Y-68881250I0J193750D01*
G01*
X149555000Y-68493750D01*
G75*
G02*
X149748750Y-68300000I193750J0D01*
G01*
X150211250Y-68300000D01*
G75*
G02*
X150405000Y-68493750I0J-193750D01*
G01*
X150405000Y-68881250D01*
G75*
G02*
X150211250Y-69075000I-193750J0D01*
G01*
G37*
G36*
G01*
X140256750Y-64830000D02*
X139794250Y-64830000D01*
G75*
G02*
X139600500Y-64636250I0J193750D01*
G01*
X139600500Y-64248750D01*
G75*
G02*
X139794250Y-64055000I193750J0D01*
G01*
X140256750Y-64055000D01*
G75*
G02*
X140450500Y-64248750I0J-193750D01*
G01*
X140450500Y-64636250D01*
G75*
G02*
X140256750Y-64830000I-193750J0D01*
G01*
G37*
G36*
G01*
X140256750Y-66405000D02*
X139794250Y-66405000D01*
G75*
G02*
X139600500Y-66211250I0J193750D01*
G01*
X139600500Y-65823750D01*
G75*
G02*
X139794250Y-65630000I193750J0D01*
G01*
X140256750Y-65630000D01*
G75*
G02*
X140450500Y-65823750I0J-193750D01*
G01*
X140450500Y-66211250D01*
G75*
G02*
X140256750Y-66405000I-193750J0D01*
G01*
G37*
G36*
G01*
X140365750Y-70601000D02*
X140828250Y-70601000D01*
G75*
G02*
X141022000Y-70794750I0J-193750D01*
G01*
X141022000Y-71182250D01*
G75*
G02*
X140828250Y-71376000I-193750J0D01*
G01*
X140365750Y-71376000D01*
G75*
G02*
X140172000Y-71182250I0J193750D01*
G01*
X140172000Y-70794750D01*
G75*
G02*
X140365750Y-70601000I193750J0D01*
G01*
G37*
G36*
G01*
X140365750Y-69026000D02*
X140828250Y-69026000D01*
G75*
G02*
X141022000Y-69219750I0J-193750D01*
G01*
X141022000Y-69607250D01*
G75*
G02*
X140828250Y-69801000I-193750J0D01*
G01*
X140365750Y-69801000D01*
G75*
G02*
X140172000Y-69607250I0J193750D01*
G01*
X140172000Y-69219750D01*
G75*
G02*
X140365750Y-69026000I193750J0D01*
G01*
G37*
G36*
G01*
X144380000Y-69668750D02*
X144380000Y-70131250D01*
G75*
G02*
X144186250Y-70325000I-193750J0D01*
G01*
X143798750Y-70325000D01*
G75*
G02*
X143605000Y-70131250I0J193750D01*
G01*
X143605000Y-69668750D01*
G75*
G02*
X143798750Y-69475000I193750J0D01*
G01*
X144186250Y-69475000D01*
G75*
G02*
X144380000Y-69668750I0J-193750D01*
G01*
G37*
G36*
G01*
X145955000Y-69668750D02*
X145955000Y-70131250D01*
G75*
G02*
X145761250Y-70325000I-193750J0D01*
G01*
X145373750Y-70325000D01*
G75*
G02*
X145180000Y-70131250I0J193750D01*
G01*
X145180000Y-69668750D01*
G75*
G02*
X145373750Y-69475000I193750J0D01*
G01*
X145761250Y-69475000D01*
G75*
G02*
X145955000Y-69668750I0J-193750D01*
G01*
G37*
G36*
G01*
X148780000Y-69968750D02*
X148780000Y-70431250D01*
G75*
G02*
X148586250Y-70625000I-193750J0D01*
G01*
X148198750Y-70625000D01*
G75*
G02*
X148005000Y-70431250I0J193750D01*
G01*
X148005000Y-69968750D01*
G75*
G02*
X148198750Y-69775000I193750J0D01*
G01*
X148586250Y-69775000D01*
G75*
G02*
X148780000Y-69968750I0J-193750D01*
G01*
G37*
G36*
G01*
X150355000Y-69968750D02*
X150355000Y-70431250D01*
G75*
G02*
X150161250Y-70625000I-193750J0D01*
G01*
X149773750Y-70625000D01*
G75*
G02*
X149580000Y-70431250I0J193750D01*
G01*
X149580000Y-69968750D01*
G75*
G02*
X149773750Y-69775000I193750J0D01*
G01*
X150161250Y-69775000D01*
G75*
G02*
X150355000Y-69968750I0J-193750D01*
G01*
G37*
G36*
G01*
X148775000Y-72255750D02*
X148775000Y-72718250D01*
G75*
G02*
X148581250Y-72912000I-193750J0D01*
G01*
X148193750Y-72912000D01*
G75*
G02*
X148000000Y-72718250I0J193750D01*
G01*
X148000000Y-72255750D01*
G75*
G02*
X148193750Y-72062000I193750J0D01*
G01*
X148581250Y-72062000D01*
G75*
G02*
X148775000Y-72255750I0J-193750D01*
G01*
G37*
G36*
G01*
X150350000Y-72255750D02*
X150350000Y-72718250D01*
G75*
G02*
X150156250Y-72912000I-193750J0D01*
G01*
X149768750Y-72912000D01*
G75*
G02*
X149575000Y-72718250I0J193750D01*
G01*
X149575000Y-72255750D01*
G75*
G02*
X149768750Y-72062000I193750J0D01*
G01*
X150156250Y-72062000D01*
G75*
G02*
X150350000Y-72255750I0J-193750D01*
G01*
G37*
G36*
G01*
X155930000Y-72255750D02*
X155930000Y-72718250D01*
G75*
G02*
X155736250Y-72912000I-193750J0D01*
G01*
X155348750Y-72912000D01*
G75*
G02*
X155155000Y-72718250I0J193750D01*
G01*
X155155000Y-72255750D01*
G75*
G02*
X155348750Y-72062000I193750J0D01*
G01*
X155736250Y-72062000D01*
G75*
G02*
X155930000Y-72255750I0J-193750D01*
G01*
G37*
G36*
G01*
X157505000Y-72255750D02*
X157505000Y-72718250D01*
G75*
G02*
X157311250Y-72912000I-193750J0D01*
G01*
X156923750Y-72912000D01*
G75*
G02*
X156730000Y-72718250I0J193750D01*
G01*
X156730000Y-72255750D01*
G75*
G02*
X156923750Y-72062000I193750J0D01*
G01*
X157311250Y-72062000D01*
G75*
G02*
X157505000Y-72255750I0J-193750D01*
G01*
G37*
G36*
G01*
X149734000Y-74450750D02*
X149734000Y-75313250D01*
G75*
G02*
X149515250Y-75532000I-218750J0D01*
G01*
X149077750Y-75532000D01*
G75*
G02*
X148859000Y-75313250I0J218750D01*
G01*
X148859000Y-74450750D01*
G75*
G02*
X149077750Y-74232000I218750J0D01*
G01*
X149515250Y-74232000D01*
G75*
G02*
X149734000Y-74450750I0J-218750D01*
G01*
G37*
G36*
G01*
X151609000Y-74450750D02*
X151609000Y-75313250D01*
G75*
G02*
X151390250Y-75532000I-218750J0D01*
G01*
X150952750Y-75532000D01*
G75*
G02*
X150734000Y-75313250I0J218750D01*
G01*
X150734000Y-74450750D01*
G75*
G02*
X150952750Y-74232000I218750J0D01*
G01*
X151390250Y-74232000D01*
G75*
G02*
X151609000Y-74450750I0J-218750D01*
G01*
G37*
G36*
G01*
X161206250Y-78065000D02*
X160343750Y-78065000D01*
G75*
G02*
X160125000Y-77846250I0J218750D01*
G01*
X160125000Y-77408750D01*
G75*
G02*
X160343750Y-77190000I218750J0D01*
G01*
X161206250Y-77190000D01*
G75*
G02*
X161425000Y-77408750I0J-218750D01*
G01*
X161425000Y-77846250D01*
G75*
G02*
X161206250Y-78065000I-218750J0D01*
G01*
G37*
G36*
G01*
X161206250Y-79940000D02*
X160343750Y-79940000D01*
G75*
G02*
X160125000Y-79721250I0J218750D01*
G01*
X160125000Y-79283750D01*
G75*
G02*
X160343750Y-79065000I218750J0D01*
G01*
X161206250Y-79065000D01*
G75*
G02*
X161425000Y-79283750I0J-218750D01*
G01*
X161425000Y-79721250D01*
G75*
G02*
X161206250Y-79940000I-218750J0D01*
G01*
G37*
G36*
G01*
X157100000Y-81988750D02*
X157100000Y-82451250D01*
G75*
G02*
X156906250Y-82645000I-193750J0D01*
G01*
X156518750Y-82645000D01*
G75*
G02*
X156325000Y-82451250I0J193750D01*
G01*
X156325000Y-81988750D01*
G75*
G02*
X156518750Y-81795000I193750J0D01*
G01*
X156906250Y-81795000D01*
G75*
G02*
X157100000Y-81988750I0J-193750D01*
G01*
G37*
G36*
G01*
X158675000Y-81988750D02*
X158675000Y-82451250D01*
G75*
G02*
X158481250Y-82645000I-193750J0D01*
G01*
X158093750Y-82645000D01*
G75*
G02*
X157900000Y-82451250I0J193750D01*
G01*
X157900000Y-81988750D01*
G75*
G02*
X158093750Y-81795000I193750J0D01*
G01*
X158481250Y-81795000D01*
G75*
G02*
X158675000Y-81988750I0J-193750D01*
G01*
G37*
G36*
G01*
X164700000Y-82451250D02*
X164700000Y-81988750D01*
G75*
G02*
X164893750Y-81795000I193750J0D01*
G01*
X165281250Y-81795000D01*
G75*
G02*
X165475000Y-81988750I0J-193750D01*
G01*
X165475000Y-82451250D01*
G75*
G02*
X165281250Y-82645000I-193750J0D01*
G01*
X164893750Y-82645000D01*
G75*
G02*
X164700000Y-82451250I0J193750D01*
G01*
G37*
G36*
G01*
X163125000Y-82451250D02*
X163125000Y-81988750D01*
G75*
G02*
X163318750Y-81795000I193750J0D01*
G01*
X163706250Y-81795000D01*
G75*
G02*
X163900000Y-81988750I0J-193750D01*
G01*
X163900000Y-82451250D01*
G75*
G02*
X163706250Y-82645000I-193750J0D01*
G01*
X163318750Y-82645000D01*
G75*
G02*
X163125000Y-82451250I0J193750D01*
G01*
G37*
G36*
G01*
X158080750Y-84713000D02*
X158543250Y-84713000D01*
G75*
G02*
X158737000Y-84906750I0J-193750D01*
G01*
X158737000Y-85294250D01*
G75*
G02*
X158543250Y-85488000I-193750J0D01*
G01*
X158080750Y-85488000D01*
G75*
G02*
X157887000Y-85294250I0J193750D01*
G01*
X157887000Y-84906750D01*
G75*
G02*
X158080750Y-84713000I193750J0D01*
G01*
G37*
G36*
G01*
X158080750Y-83138000D02*
X158543250Y-83138000D01*
G75*
G02*
X158737000Y-83331750I0J-193750D01*
G01*
X158737000Y-83719250D01*
G75*
G02*
X158543250Y-83913000I-193750J0D01*
G01*
X158080750Y-83913000D01*
G75*
G02*
X157887000Y-83719250I0J193750D01*
G01*
X157887000Y-83331750D01*
G75*
G02*
X158080750Y-83138000I193750J0D01*
G01*
G37*
G36*
G01*
X147380000Y-105631250D02*
X147380000Y-104768750D01*
G75*
G02*
X147598750Y-104550000I218750J0D01*
G01*
X148036250Y-104550000D01*
G75*
G02*
X148255000Y-104768750I0J-218750D01*
G01*
X148255000Y-105631250D01*
G75*
G02*
X148036250Y-105850000I-218750J0D01*
G01*
X147598750Y-105850000D01*
G75*
G02*
X147380000Y-105631250I0J218750D01*
G01*
G37*
G36*
G01*
X145505000Y-105631250D02*
X145505000Y-104768750D01*
G75*
G02*
X145723750Y-104550000I218750J0D01*
G01*
X146161250Y-104550000D01*
G75*
G02*
X146380000Y-104768750I0J-218750D01*
G01*
X146380000Y-105631250D01*
G75*
G02*
X146161250Y-105850000I-218750J0D01*
G01*
X145723750Y-105850000D01*
G75*
G02*
X145505000Y-105631250I0J218750D01*
G01*
G37*
G36*
G01*
X151739000Y-102844750D02*
X151739000Y-103307250D01*
G75*
G02*
X151545250Y-103501000I-193750J0D01*
G01*
X151157750Y-103501000D01*
G75*
G02*
X150964000Y-103307250I0J193750D01*
G01*
X150964000Y-102844750D01*
G75*
G02*
X151157750Y-102651000I193750J0D01*
G01*
X151545250Y-102651000D01*
G75*
G02*
X151739000Y-102844750I0J-193750D01*
G01*
G37*
G36*
G01*
X153314000Y-102844750D02*
X153314000Y-103307250D01*
G75*
G02*
X153120250Y-103501000I-193750J0D01*
G01*
X152732750Y-103501000D01*
G75*
G02*
X152539000Y-103307250I0J193750D01*
G01*
X152539000Y-102844750D01*
G75*
G02*
X152732750Y-102651000I193750J0D01*
G01*
X153120250Y-102651000D01*
G75*
G02*
X153314000Y-102844750I0J-193750D01*
G01*
G37*
G36*
G01*
X155814000Y-98935250D02*
X155814000Y-98072750D01*
G75*
G02*
X156032750Y-97854000I218750J0D01*
G01*
X156470250Y-97854000D01*
G75*
G02*
X156689000Y-98072750I0J-218750D01*
G01*
X156689000Y-98935250D01*
G75*
G02*
X156470250Y-99154000I-218750J0D01*
G01*
X156032750Y-99154000D01*
G75*
G02*
X155814000Y-98935250I0J218750D01*
G01*
G37*
G36*
G01*
X153939000Y-98935250D02*
X153939000Y-98072750D01*
G75*
G02*
X154157750Y-97854000I218750J0D01*
G01*
X154595250Y-97854000D01*
G75*
G02*
X154814000Y-98072750I0J-218750D01*
G01*
X154814000Y-98935250D01*
G75*
G02*
X154595250Y-99154000I-218750J0D01*
G01*
X154157750Y-99154000D01*
G75*
G02*
X153939000Y-98935250I0J218750D01*
G01*
G37*
G36*
G01*
X155260000Y-97141250D02*
X155260000Y-96678750D01*
G75*
G02*
X155453750Y-96485000I193750J0D01*
G01*
X155841250Y-96485000D01*
G75*
G02*
X156035000Y-96678750I0J-193750D01*
G01*
X156035000Y-97141250D01*
G75*
G02*
X155841250Y-97335000I-193750J0D01*
G01*
X155453750Y-97335000D01*
G75*
G02*
X155260000Y-97141250I0J193750D01*
G01*
G37*
G36*
G01*
X153685000Y-97141250D02*
X153685000Y-96678750D01*
G75*
G02*
X153878750Y-96485000I193750J0D01*
G01*
X154266250Y-96485000D01*
G75*
G02*
X154460000Y-96678750I0J-193750D01*
G01*
X154460000Y-97141250D01*
G75*
G02*
X154266250Y-97335000I-193750J0D01*
G01*
X153878750Y-97335000D01*
G75*
G02*
X153685000Y-97141250I0J193750D01*
G01*
G37*
G36*
G01*
X155260000Y-95871250D02*
X155260000Y-95408750D01*
G75*
G02*
X155453750Y-95215000I193750J0D01*
G01*
X155841250Y-95215000D01*
G75*
G02*
X156035000Y-95408750I0J-193750D01*
G01*
X156035000Y-95871250D01*
G75*
G02*
X155841250Y-96065000I-193750J0D01*
G01*
X155453750Y-96065000D01*
G75*
G02*
X155260000Y-95871250I0J193750D01*
G01*
G37*
G36*
G01*
X153685000Y-95871250D02*
X153685000Y-95408750D01*
G75*
G02*
X153878750Y-95215000I193750J0D01*
G01*
X154266250Y-95215000D01*
G75*
G02*
X154460000Y-95408750I0J-193750D01*
G01*
X154460000Y-95871250D01*
G75*
G02*
X154266250Y-96065000I-193750J0D01*
G01*
X153878750Y-96065000D01*
G75*
G02*
X153685000Y-95871250I0J193750D01*
G01*
G37*
G36*
G01*
X155560000Y-91061250D02*
X155560000Y-90198750D01*
G75*
G02*
X155778750Y-89980000I218750J0D01*
G01*
X156216250Y-89980000D01*
G75*
G02*
X156435000Y-90198750I0J-218750D01*
G01*
X156435000Y-91061250D01*
G75*
G02*
X156216250Y-91280000I-218750J0D01*
G01*
X155778750Y-91280000D01*
G75*
G02*
X155560000Y-91061250I0J218750D01*
G01*
G37*
G36*
G01*
X153685000Y-91061250D02*
X153685000Y-90198750D01*
G75*
G02*
X153903750Y-89980000I218750J0D01*
G01*
X154341250Y-89980000D01*
G75*
G02*
X154560000Y-90198750I0J-218750D01*
G01*
X154560000Y-91061250D01*
G75*
G02*
X154341250Y-91280000I-218750J0D01*
G01*
X153903750Y-91280000D01*
G75*
G02*
X153685000Y-91061250I0J218750D01*
G01*
G37*
G36*
G01*
X155560000Y-92966250D02*
X155560000Y-92103750D01*
G75*
G02*
X155778750Y-91885000I218750J0D01*
G01*
X156216250Y-91885000D01*
G75*
G02*
X156435000Y-92103750I0J-218750D01*
G01*
X156435000Y-92966250D01*
G75*
G02*
X156216250Y-93185000I-218750J0D01*
G01*
X155778750Y-93185000D01*
G75*
G02*
X155560000Y-92966250I0J218750D01*
G01*
G37*
G36*
G01*
X153685000Y-92966250D02*
X153685000Y-92103750D01*
G75*
G02*
X153903750Y-91885000I218750J0D01*
G01*
X154341250Y-91885000D01*
G75*
G02*
X154560000Y-92103750I0J-218750D01*
G01*
X154560000Y-92966250D01*
G75*
G02*
X154341250Y-93185000I-218750J0D01*
G01*
X153903750Y-93185000D01*
G75*
G02*
X153685000Y-92966250I0J218750D01*
G01*
G37*
G36*
G01*
X158003750Y-92300000D02*
X158466250Y-92300000D01*
G75*
G02*
X158660000Y-92493750I0J-193750D01*
G01*
X158660000Y-92881250D01*
G75*
G02*
X158466250Y-93075000I-193750J0D01*
G01*
X158003750Y-93075000D01*
G75*
G02*
X157810000Y-92881250I0J193750D01*
G01*
X157810000Y-92493750D01*
G75*
G02*
X158003750Y-92300000I193750J0D01*
G01*
G37*
G36*
G01*
X158003750Y-90725000D02*
X158466250Y-90725000D01*
G75*
G02*
X158660000Y-90918750I0J-193750D01*
G01*
X158660000Y-91306250D01*
G75*
G02*
X158466250Y-91500000I-193750J0D01*
G01*
X158003750Y-91500000D01*
G75*
G02*
X157810000Y-91306250I0J193750D01*
G01*
X157810000Y-90918750D01*
G75*
G02*
X158003750Y-90725000I193750J0D01*
G01*
G37*
G36*
G01*
X159120000Y-96258750D02*
X159120000Y-96721250D01*
G75*
G02*
X158926250Y-96915000I-193750J0D01*
G01*
X158538750Y-96915000D01*
G75*
G02*
X158345000Y-96721250I0J193750D01*
G01*
X158345000Y-96258750D01*
G75*
G02*
X158538750Y-96065000I193750J0D01*
G01*
X158926250Y-96065000D01*
G75*
G02*
X159120000Y-96258750I0J-193750D01*
G01*
G37*
G36*
G01*
X160695000Y-96258750D02*
X160695000Y-96721250D01*
G75*
G02*
X160501250Y-96915000I-193750J0D01*
G01*
X160113750Y-96915000D01*
G75*
G02*
X159920000Y-96721250I0J193750D01*
G01*
X159920000Y-96258750D01*
G75*
G02*
X160113750Y-96065000I193750J0D01*
G01*
X160501250Y-96065000D01*
G75*
G02*
X160695000Y-96258750I0J-193750D01*
G01*
G37*
G36*
G01*
X162915000Y-96113750D02*
X162915000Y-96576250D01*
G75*
G02*
X162721250Y-96770000I-193750J0D01*
G01*
X162333750Y-96770000D01*
G75*
G02*
X162140000Y-96576250I0J193750D01*
G01*
X162140000Y-96113750D01*
G75*
G02*
X162333750Y-95920000I193750J0D01*
G01*
X162721250Y-95920000D01*
G75*
G02*
X162915000Y-96113750I0J-193750D01*
G01*
G37*
G36*
G01*
X164490000Y-96113750D02*
X164490000Y-96576250D01*
G75*
G02*
X164296250Y-96770000I-193750J0D01*
G01*
X163908750Y-96770000D01*
G75*
G02*
X163715000Y-96576250I0J193750D01*
G01*
X163715000Y-96113750D01*
G75*
G02*
X163908750Y-95920000I193750J0D01*
G01*
X164296250Y-95920000D01*
G75*
G02*
X164490000Y-96113750I0J-193750D01*
G01*
G37*
G36*
G01*
X163746250Y-91400000D02*
X162883750Y-91400000D01*
G75*
G02*
X162665000Y-91181250I0J218750D01*
G01*
X162665000Y-90743750D01*
G75*
G02*
X162883750Y-90525000I218750J0D01*
G01*
X163746250Y-90525000D01*
G75*
G02*
X163965000Y-90743750I0J-218750D01*
G01*
X163965000Y-91181250D01*
G75*
G02*
X163746250Y-91400000I-218750J0D01*
G01*
G37*
G36*
G01*
X163746250Y-93275000D02*
X162883750Y-93275000D01*
G75*
G02*
X162665000Y-93056250I0J218750D01*
G01*
X162665000Y-92618750D01*
G75*
G02*
X162883750Y-92400000I218750J0D01*
G01*
X163746250Y-92400000D01*
G75*
G02*
X163965000Y-92618750I0J-218750D01*
G01*
X163965000Y-93056250D01*
G75*
G02*
X163746250Y-93275000I-218750J0D01*
G01*
G37*
G36*
G01*
X168725750Y-93416000D02*
X169588250Y-93416000D01*
G75*
G02*
X169807000Y-93634750I0J-218750D01*
G01*
X169807000Y-94072250D01*
G75*
G02*
X169588250Y-94291000I-218750J0D01*
G01*
X168725750Y-94291000D01*
G75*
G02*
X168507000Y-94072250I0J218750D01*
G01*
X168507000Y-93634750D01*
G75*
G02*
X168725750Y-93416000I218750J0D01*
G01*
G37*
G36*
G01*
X168725750Y-91541000D02*
X169588250Y-91541000D01*
G75*
G02*
X169807000Y-91759750I0J-218750D01*
G01*
X169807000Y-92197250D01*
G75*
G02*
X169588250Y-92416000I-218750J0D01*
G01*
X168725750Y-92416000D01*
G75*
G02*
X168507000Y-92197250I0J218750D01*
G01*
X168507000Y-91759750D01*
G75*
G02*
X168725750Y-91541000I218750J0D01*
G01*
G37*
G36*
G01*
X169603250Y-95736000D02*
X168740750Y-95736000D01*
G75*
G02*
X168522000Y-95517250I0J218750D01*
G01*
X168522000Y-95079750D01*
G75*
G02*
X168740750Y-94861000I218750J0D01*
G01*
X169603250Y-94861000D01*
G75*
G02*
X169822000Y-95079750I0J-218750D01*
G01*
X169822000Y-95517250D01*
G75*
G02*
X169603250Y-95736000I-218750J0D01*
G01*
G37*
G36*
G01*
X169603250Y-97611000D02*
X168740750Y-97611000D01*
G75*
G02*
X168522000Y-97392250I0J218750D01*
G01*
X168522000Y-96954750D01*
G75*
G02*
X168740750Y-96736000I218750J0D01*
G01*
X169603250Y-96736000D01*
G75*
G02*
X169822000Y-96954750I0J-218750D01*
G01*
X169822000Y-97392250D01*
G75*
G02*
X169603250Y-97611000I-218750J0D01*
G01*
G37*
G36*
G01*
X175884000Y-103479750D02*
X175884000Y-103942250D01*
G75*
G02*
X175690250Y-104136000I-193750J0D01*
G01*
X175302750Y-104136000D01*
G75*
G02*
X175109000Y-103942250I0J193750D01*
G01*
X175109000Y-103479750D01*
G75*
G02*
X175302750Y-103286000I193750J0D01*
G01*
X175690250Y-103286000D01*
G75*
G02*
X175884000Y-103479750I0J-193750D01*
G01*
G37*
G36*
G01*
X177459000Y-103479750D02*
X177459000Y-103942250D01*
G75*
G02*
X177265250Y-104136000I-193750J0D01*
G01*
X176877750Y-104136000D01*
G75*
G02*
X176684000Y-103942250I0J193750D01*
G01*
X176684000Y-103479750D01*
G75*
G02*
X176877750Y-103286000I193750J0D01*
G01*
X177265250Y-103286000D01*
G75*
G02*
X177459000Y-103479750I0J-193750D01*
G01*
G37*
G36*
G01*
X179198000Y-103479750D02*
X179198000Y-103942250D01*
G75*
G02*
X179004250Y-104136000I-193750J0D01*
G01*
X178616750Y-104136000D01*
G75*
G02*
X178423000Y-103942250I0J193750D01*
G01*
X178423000Y-103479750D01*
G75*
G02*
X178616750Y-103286000I193750J0D01*
G01*
X179004250Y-103286000D01*
G75*
G02*
X179198000Y-103479750I0J-193750D01*
G01*
G37*
G36*
G01*
X180773000Y-103479750D02*
X180773000Y-103942250D01*
G75*
G02*
X180579250Y-104136000I-193750J0D01*
G01*
X180191750Y-104136000D01*
G75*
G02*
X179998000Y-103942250I0J193750D01*
G01*
X179998000Y-103479750D01*
G75*
G02*
X180191750Y-103286000I193750J0D01*
G01*
X180579250Y-103286000D01*
G75*
G02*
X180773000Y-103479750I0J-193750D01*
G01*
G37*
G36*
G01*
X177068750Y-95300000D02*
X177531250Y-95300000D01*
G75*
G02*
X177725000Y-95493750I0J-193750D01*
G01*
X177725000Y-95881250D01*
G75*
G02*
X177531250Y-96075000I-193750J0D01*
G01*
X177068750Y-96075000D01*
G75*
G02*
X176875000Y-95881250I0J193750D01*
G01*
X176875000Y-95493750D01*
G75*
G02*
X177068750Y-95300000I193750J0D01*
G01*
G37*
G36*
G01*
X177068750Y-93725000D02*
X177531250Y-93725000D01*
G75*
G02*
X177725000Y-93918750I0J-193750D01*
G01*
X177725000Y-94306250D01*
G75*
G02*
X177531250Y-94500000I-193750J0D01*
G01*
X177068750Y-94500000D01*
G75*
G02*
X176875000Y-94306250I0J193750D01*
G01*
X176875000Y-93918750D01*
G75*
G02*
X177068750Y-93725000I193750J0D01*
G01*
G37*
G36*
G01*
X178846750Y-95874000D02*
X179309250Y-95874000D01*
G75*
G02*
X179503000Y-96067750I0J-193750D01*
G01*
X179503000Y-96455250D01*
G75*
G02*
X179309250Y-96649000I-193750J0D01*
G01*
X178846750Y-96649000D01*
G75*
G02*
X178653000Y-96455250I0J193750D01*
G01*
X178653000Y-96067750D01*
G75*
G02*
X178846750Y-95874000I193750J0D01*
G01*
G37*
G36*
G01*
X178846750Y-94299000D02*
X179309250Y-94299000D01*
G75*
G02*
X179503000Y-94492750I0J-193750D01*
G01*
X179503000Y-94880250D01*
G75*
G02*
X179309250Y-95074000I-193750J0D01*
G01*
X178846750Y-95074000D01*
G75*
G02*
X178653000Y-94880250I0J193750D01*
G01*
X178653000Y-94492750D01*
G75*
G02*
X178846750Y-94299000I193750J0D01*
G01*
G37*
G36*
G01*
X177531250Y-91518000D02*
X177068750Y-91518000D01*
G75*
G02*
X176875000Y-91324250I0J193750D01*
G01*
X176875000Y-90936750D01*
G75*
G02*
X177068750Y-90743000I193750J0D01*
G01*
X177531250Y-90743000D01*
G75*
G02*
X177725000Y-90936750I0J-193750D01*
G01*
X177725000Y-91324250D01*
G75*
G02*
X177531250Y-91518000I-193750J0D01*
G01*
G37*
G36*
G01*
X177531250Y-93093000D02*
X177068750Y-93093000D01*
G75*
G02*
X176875000Y-92899250I0J193750D01*
G01*
X176875000Y-92511750D01*
G75*
G02*
X177068750Y-92318000I193750J0D01*
G01*
X177531250Y-92318000D01*
G75*
G02*
X177725000Y-92511750I0J-193750D01*
G01*
X177725000Y-92899250D01*
G75*
G02*
X177531250Y-93093000I-193750J0D01*
G01*
G37*
G36*
G01*
X178646750Y-92418000D02*
X179509250Y-92418000D01*
G75*
G02*
X179728000Y-92636750I0J-218750D01*
G01*
X179728000Y-93074250D01*
G75*
G02*
X179509250Y-93293000I-218750J0D01*
G01*
X178646750Y-93293000D01*
G75*
G02*
X178428000Y-93074250I0J218750D01*
G01*
X178428000Y-92636750D01*
G75*
G02*
X178646750Y-92418000I218750J0D01*
G01*
G37*
G36*
G01*
X178646750Y-90543000D02*
X179509250Y-90543000D01*
G75*
G02*
X179728000Y-90761750I0J-218750D01*
G01*
X179728000Y-91199250D01*
G75*
G02*
X179509250Y-91418000I-218750J0D01*
G01*
X178646750Y-91418000D01*
G75*
G02*
X178428000Y-91199250I0J218750D01*
G01*
X178428000Y-90761750D01*
G75*
G02*
X178646750Y-90543000I218750J0D01*
G01*
G37*
G36*
G01*
X179294250Y-87581000D02*
X178831750Y-87581000D01*
G75*
G02*
X178638000Y-87387250I0J193750D01*
G01*
X178638000Y-86999750D01*
G75*
G02*
X178831750Y-86806000I193750J0D01*
G01*
X179294250Y-86806000D01*
G75*
G02*
X179488000Y-86999750I0J-193750D01*
G01*
X179488000Y-87387250D01*
G75*
G02*
X179294250Y-87581000I-193750J0D01*
G01*
G37*
G36*
G01*
X179294250Y-89156000D02*
X178831750Y-89156000D01*
G75*
G02*
X178638000Y-88962250I0J193750D01*
G01*
X178638000Y-88574750D01*
G75*
G02*
X178831750Y-88381000I193750J0D01*
G01*
X179294250Y-88381000D01*
G75*
G02*
X179488000Y-88574750I0J-193750D01*
G01*
X179488000Y-88962250D01*
G75*
G02*
X179294250Y-89156000I-193750J0D01*
G01*
G37*
G36*
G01*
X174879000Y-87904250D02*
X174879000Y-87041750D01*
G75*
G02*
X175097750Y-86823000I218750J0D01*
G01*
X175535250Y-86823000D01*
G75*
G02*
X175754000Y-87041750I0J-218750D01*
G01*
X175754000Y-87904250D01*
G75*
G02*
X175535250Y-88123000I-218750J0D01*
G01*
X175097750Y-88123000D01*
G75*
G02*
X174879000Y-87904250I0J218750D01*
G01*
G37*
G36*
G01*
X173004000Y-87904250D02*
X173004000Y-87041750D01*
G75*
G02*
X173222750Y-86823000I218750J0D01*
G01*
X173660250Y-86823000D01*
G75*
G02*
X173879000Y-87041750I0J-218750D01*
G01*
X173879000Y-87904250D01*
G75*
G02*
X173660250Y-88123000I-218750J0D01*
G01*
X173222750Y-88123000D01*
G75*
G02*
X173004000Y-87904250I0J218750D01*
G01*
G37*
G36*
G01*
X173652250Y-84288000D02*
X172789750Y-84288000D01*
G75*
G02*
X172571000Y-84069250I0J218750D01*
G01*
X172571000Y-83631750D01*
G75*
G02*
X172789750Y-83413000I218750J0D01*
G01*
X173652250Y-83413000D01*
G75*
G02*
X173871000Y-83631750I0J-218750D01*
G01*
X173871000Y-84069250D01*
G75*
G02*
X173652250Y-84288000I-218750J0D01*
G01*
G37*
G36*
G01*
X173652250Y-86163000D02*
X172789750Y-86163000D01*
G75*
G02*
X172571000Y-85944250I0J218750D01*
G01*
X172571000Y-85506750D01*
G75*
G02*
X172789750Y-85288000I218750J0D01*
G01*
X173652250Y-85288000D01*
G75*
G02*
X173871000Y-85506750I0J-218750D01*
G01*
X173871000Y-85944250D01*
G75*
G02*
X173652250Y-86163000I-218750J0D01*
G01*
G37*
G36*
G01*
X178323750Y-85315000D02*
X178786250Y-85315000D01*
G75*
G02*
X178980000Y-85508750I0J-193750D01*
G01*
X178980000Y-85896250D01*
G75*
G02*
X178786250Y-86090000I-193750J0D01*
G01*
X178323750Y-86090000D01*
G75*
G02*
X178130000Y-85896250I0J193750D01*
G01*
X178130000Y-85508750D01*
G75*
G02*
X178323750Y-85315000I193750J0D01*
G01*
G37*
G36*
G01*
X178323750Y-83740000D02*
X178786250Y-83740000D01*
G75*
G02*
X178980000Y-83933750I0J-193750D01*
G01*
X178980000Y-84321250D01*
G75*
G02*
X178786250Y-84515000I-193750J0D01*
G01*
X178323750Y-84515000D01*
G75*
G02*
X178130000Y-84321250I0J193750D01*
G01*
X178130000Y-83933750D01*
G75*
G02*
X178323750Y-83740000I193750J0D01*
G01*
G37*
G36*
G01*
X171166250Y-79435000D02*
X170703750Y-79435000D01*
G75*
G02*
X170510000Y-79241250I0J193750D01*
G01*
X170510000Y-78853750D01*
G75*
G02*
X170703750Y-78660000I193750J0D01*
G01*
X171166250Y-78660000D01*
G75*
G02*
X171360000Y-78853750I0J-193750D01*
G01*
X171360000Y-79241250D01*
G75*
G02*
X171166250Y-79435000I-193750J0D01*
G01*
G37*
G36*
G01*
X171166250Y-81010000D02*
X170703750Y-81010000D01*
G75*
G02*
X170510000Y-80816250I0J193750D01*
G01*
X170510000Y-80428750D01*
G75*
G02*
X170703750Y-80235000I193750J0D01*
G01*
X171166250Y-80235000D01*
G75*
G02*
X171360000Y-80428750I0J-193750D01*
G01*
X171360000Y-80816250D01*
G75*
G02*
X171166250Y-81010000I-193750J0D01*
G01*
G37*
G36*
G01*
X173071250Y-79435000D02*
X172608750Y-79435000D01*
G75*
G02*
X172415000Y-79241250I0J193750D01*
G01*
X172415000Y-78853750D01*
G75*
G02*
X172608750Y-78660000I193750J0D01*
G01*
X173071250Y-78660000D01*
G75*
G02*
X173265000Y-78853750I0J-193750D01*
G01*
X173265000Y-79241250D01*
G75*
G02*
X173071250Y-79435000I-193750J0D01*
G01*
G37*
G36*
G01*
X173071250Y-81010000D02*
X172608750Y-81010000D01*
G75*
G02*
X172415000Y-80816250I0J193750D01*
G01*
X172415000Y-80428750D01*
G75*
G02*
X172608750Y-80235000I193750J0D01*
G01*
X173071250Y-80235000D01*
G75*
G02*
X173265000Y-80428750I0J-193750D01*
G01*
X173265000Y-80816250D01*
G75*
G02*
X173071250Y-81010000I-193750J0D01*
G01*
G37*
G36*
G01*
X175615000Y-80238750D02*
X175615000Y-80701250D01*
G75*
G02*
X175421250Y-80895000I-193750J0D01*
G01*
X175033750Y-80895000D01*
G75*
G02*
X174840000Y-80701250I0J193750D01*
G01*
X174840000Y-80238750D01*
G75*
G02*
X175033750Y-80045000I193750J0D01*
G01*
X175421250Y-80045000D01*
G75*
G02*
X175615000Y-80238750I0J-193750D01*
G01*
G37*
G36*
G01*
X177190000Y-80238750D02*
X177190000Y-80701250D01*
G75*
G02*
X176996250Y-80895000I-193750J0D01*
G01*
X176608750Y-80895000D01*
G75*
G02*
X176415000Y-80701250I0J193750D01*
G01*
X176415000Y-80238750D01*
G75*
G02*
X176608750Y-80045000I193750J0D01*
G01*
X176996250Y-80045000D01*
G75*
G02*
X177190000Y-80238750I0J-193750D01*
G01*
G37*
G36*
G01*
X175615000Y-78333750D02*
X175615000Y-78796250D01*
G75*
G02*
X175421250Y-78990000I-193750J0D01*
G01*
X175033750Y-78990000D01*
G75*
G02*
X174840000Y-78796250I0J193750D01*
G01*
X174840000Y-78333750D01*
G75*
G02*
X175033750Y-78140000I193750J0D01*
G01*
X175421250Y-78140000D01*
G75*
G02*
X175615000Y-78333750I0J-193750D01*
G01*
G37*
G36*
G01*
X177190000Y-78333750D02*
X177190000Y-78796250D01*
G75*
G02*
X176996250Y-78990000I-193750J0D01*
G01*
X176608750Y-78990000D01*
G75*
G02*
X176415000Y-78796250I0J193750D01*
G01*
X176415000Y-78333750D01*
G75*
G02*
X176608750Y-78140000I193750J0D01*
G01*
X176996250Y-78140000D01*
G75*
G02*
X177190000Y-78333750I0J-193750D01*
G01*
G37*
G36*
G01*
X179621250Y-79335000D02*
X178758750Y-79335000D01*
G75*
G02*
X178540000Y-79116250I0J218750D01*
G01*
X178540000Y-78678750D01*
G75*
G02*
X178758750Y-78460000I218750J0D01*
G01*
X179621250Y-78460000D01*
G75*
G02*
X179840000Y-78678750I0J-218750D01*
G01*
X179840000Y-79116250D01*
G75*
G02*
X179621250Y-79335000I-218750J0D01*
G01*
G37*
G36*
G01*
X179621250Y-81210000D02*
X178758750Y-81210000D01*
G75*
G02*
X178540000Y-80991250I0J218750D01*
G01*
X178540000Y-80553750D01*
G75*
G02*
X178758750Y-80335000I218750J0D01*
G01*
X179621250Y-80335000D01*
G75*
G02*
X179840000Y-80553750I0J-218750D01*
G01*
X179840000Y-80991250D01*
G75*
G02*
X179621250Y-81210000I-218750J0D01*
G01*
G37*
D16*
X169935000Y-76025000D03*
X171935000Y-76975000D03*
X171935000Y-75075000D03*
G36*
G01*
X173878750Y-76425000D02*
X174341250Y-76425000D01*
G75*
G02*
X174535000Y-76618750I0J-193750D01*
G01*
X174535000Y-77006250D01*
G75*
G02*
X174341250Y-77200000I-193750J0D01*
G01*
X173878750Y-77200000D01*
G75*
G02*
X173685000Y-77006250I0J193750D01*
G01*
X173685000Y-76618750D01*
G75*
G02*
X173878750Y-76425000I193750J0D01*
G01*
G37*
G36*
G01*
X173878750Y-74850000D02*
X174341250Y-74850000D01*
G75*
G02*
X174535000Y-75043750I0J-193750D01*
G01*
X174535000Y-75431250D01*
G75*
G02*
X174341250Y-75625000I-193750J0D01*
G01*
X173878750Y-75625000D01*
G75*
G02*
X173685000Y-75431250I0J193750D01*
G01*
X173685000Y-75043750D01*
G75*
G02*
X173878750Y-74850000I193750J0D01*
G01*
G37*
G36*
G01*
X175148750Y-76425000D02*
X175611250Y-76425000D01*
G75*
G02*
X175805000Y-76618750I0J-193750D01*
G01*
X175805000Y-77006250D01*
G75*
G02*
X175611250Y-77200000I-193750J0D01*
G01*
X175148750Y-77200000D01*
G75*
G02*
X174955000Y-77006250I0J193750D01*
G01*
X174955000Y-76618750D01*
G75*
G02*
X175148750Y-76425000I193750J0D01*
G01*
G37*
G36*
G01*
X175148750Y-74850000D02*
X175611250Y-74850000D01*
G75*
G02*
X175805000Y-75043750I0J-193750D01*
G01*
X175805000Y-75431250D01*
G75*
G02*
X175611250Y-75625000I-193750J0D01*
G01*
X175148750Y-75625000D01*
G75*
G02*
X174955000Y-75431250I0J193750D01*
G01*
X174955000Y-75043750D01*
G75*
G02*
X175148750Y-74850000I193750J0D01*
G01*
G37*
G36*
G01*
X174398000Y-70432250D02*
X174398000Y-69969750D01*
G75*
G02*
X174591750Y-69776000I193750J0D01*
G01*
X174979250Y-69776000D01*
G75*
G02*
X175173000Y-69969750I0J-193750D01*
G01*
X175173000Y-70432250D01*
G75*
G02*
X174979250Y-70626000I-193750J0D01*
G01*
X174591750Y-70626000D01*
G75*
G02*
X174398000Y-70432250I0J193750D01*
G01*
G37*
G36*
G01*
X172823000Y-70432250D02*
X172823000Y-69969750D01*
G75*
G02*
X173016750Y-69776000I193750J0D01*
G01*
X173404250Y-69776000D01*
G75*
G02*
X173598000Y-69969750I0J-193750D01*
G01*
X173598000Y-70432250D01*
G75*
G02*
X173404250Y-70626000I-193750J0D01*
G01*
X173016750Y-70626000D01*
G75*
G02*
X172823000Y-70432250I0J193750D01*
G01*
G37*
G36*
G01*
X173200000Y-66667750D02*
X173200000Y-67130250D01*
G75*
G02*
X173006250Y-67324000I-193750J0D01*
G01*
X172618750Y-67324000D01*
G75*
G02*
X172425000Y-67130250I0J193750D01*
G01*
X172425000Y-66667750D01*
G75*
G02*
X172618750Y-66474000I193750J0D01*
G01*
X173006250Y-66474000D01*
G75*
G02*
X173200000Y-66667750I0J-193750D01*
G01*
G37*
G36*
G01*
X174775000Y-66667750D02*
X174775000Y-67130250D01*
G75*
G02*
X174581250Y-67324000I-193750J0D01*
G01*
X174193750Y-67324000D01*
G75*
G02*
X174000000Y-67130250I0J193750D01*
G01*
X174000000Y-66667750D01*
G75*
G02*
X174193750Y-66474000I193750J0D01*
G01*
X174581250Y-66474000D01*
G75*
G02*
X174775000Y-66667750I0J-193750D01*
G01*
G37*
G36*
G01*
X174002000Y-65733250D02*
X174002000Y-65270750D01*
G75*
G02*
X174195750Y-65077000I193750J0D01*
G01*
X174583250Y-65077000D01*
G75*
G02*
X174777000Y-65270750I0J-193750D01*
G01*
X174777000Y-65733250D01*
G75*
G02*
X174583250Y-65927000I-193750J0D01*
G01*
X174195750Y-65927000D01*
G75*
G02*
X174002000Y-65733250I0J193750D01*
G01*
G37*
G36*
G01*
X172427000Y-65733250D02*
X172427000Y-65270750D01*
G75*
G02*
X172620750Y-65077000I193750J0D01*
G01*
X173008250Y-65077000D01*
G75*
G02*
X173202000Y-65270750I0J-193750D01*
G01*
X173202000Y-65733250D01*
G75*
G02*
X173008250Y-65927000I-193750J0D01*
G01*
X172620750Y-65927000D01*
G75*
G02*
X172427000Y-65733250I0J193750D01*
G01*
G37*
G36*
G01*
X170150250Y-66753000D02*
X169687750Y-66753000D01*
G75*
G02*
X169494000Y-66559250I0J193750D01*
G01*
X169494000Y-66171750D01*
G75*
G02*
X169687750Y-65978000I193750J0D01*
G01*
X170150250Y-65978000D01*
G75*
G02*
X170344000Y-66171750I0J-193750D01*
G01*
X170344000Y-66559250D01*
G75*
G02*
X170150250Y-66753000I-193750J0D01*
G01*
G37*
G36*
G01*
X170150250Y-68328000D02*
X169687750Y-68328000D01*
G75*
G02*
X169494000Y-68134250I0J193750D01*
G01*
X169494000Y-67746750D01*
G75*
G02*
X169687750Y-67553000I193750J0D01*
G01*
X170150250Y-67553000D01*
G75*
G02*
X170344000Y-67746750I0J-193750D01*
G01*
X170344000Y-68134250D01*
G75*
G02*
X170150250Y-68328000I-193750J0D01*
G01*
G37*
G36*
G01*
X171562250Y-66753000D02*
X171099750Y-66753000D01*
G75*
G02*
X170906000Y-66559250I0J193750D01*
G01*
X170906000Y-66171750D01*
G75*
G02*
X171099750Y-65978000I193750J0D01*
G01*
X171562250Y-65978000D01*
G75*
G02*
X171756000Y-66171750I0J-193750D01*
G01*
X171756000Y-66559250D01*
G75*
G02*
X171562250Y-66753000I-193750J0D01*
G01*
G37*
G36*
G01*
X171562250Y-68328000D02*
X171099750Y-68328000D01*
G75*
G02*
X170906000Y-68134250I0J193750D01*
G01*
X170906000Y-67746750D01*
G75*
G02*
X171099750Y-67553000I193750J0D01*
G01*
X171562250Y-67553000D01*
G75*
G02*
X171756000Y-67746750I0J-193750D01*
G01*
X171756000Y-68134250D01*
G75*
G02*
X171562250Y-68328000I-193750J0D01*
G01*
G37*
D13*
X162700000Y-65357000D03*
X165200000Y-65357000D03*
G36*
G01*
X167906000Y-67366250D02*
X167906000Y-66903750D01*
G75*
G02*
X168099750Y-66710000I193750J0D01*
G01*
X168487250Y-66710000D01*
G75*
G02*
X168681000Y-66903750I0J-193750D01*
G01*
X168681000Y-67366250D01*
G75*
G02*
X168487250Y-67560000I-193750J0D01*
G01*
X168099750Y-67560000D01*
G75*
G02*
X167906000Y-67366250I0J193750D01*
G01*
G37*
G36*
G01*
X166331000Y-67366250D02*
X166331000Y-66903750D01*
G75*
G02*
X166524750Y-66710000I193750J0D01*
G01*
X166912250Y-66710000D01*
G75*
G02*
X167106000Y-66903750I0J-193750D01*
G01*
X167106000Y-67366250D01*
G75*
G02*
X166912250Y-67560000I-193750J0D01*
G01*
X166524750Y-67560000D01*
G75*
G02*
X166331000Y-67366250I0J193750D01*
G01*
G37*
X166256000Y-68659000D03*
X168756000Y-68659000D03*
G36*
G01*
X162711250Y-69910000D02*
X162248750Y-69910000D01*
G75*
G02*
X162055000Y-69716250I0J193750D01*
G01*
X162055000Y-69328750D01*
G75*
G02*
X162248750Y-69135000I193750J0D01*
G01*
X162711250Y-69135000D01*
G75*
G02*
X162905000Y-69328750I0J-193750D01*
G01*
X162905000Y-69716250D01*
G75*
G02*
X162711250Y-69910000I-193750J0D01*
G01*
G37*
G36*
G01*
X162711250Y-71485000D02*
X162248750Y-71485000D01*
G75*
G02*
X162055000Y-71291250I0J193750D01*
G01*
X162055000Y-70903750D01*
G75*
G02*
X162248750Y-70710000I193750J0D01*
G01*
X162711250Y-70710000D01*
G75*
G02*
X162905000Y-70903750I0J-193750D01*
G01*
X162905000Y-71291250D01*
G75*
G02*
X162711250Y-71485000I-193750J0D01*
G01*
G37*
X164585000Y-71560000D03*
X164585000Y-69060000D03*
D17*
X157285000Y-77392000D03*
X158235000Y-77392000D03*
X159185000Y-77392000D03*
X159185000Y-79992000D03*
X157285000Y-79992000D03*
G36*
G01*
X155463750Y-78965000D02*
X155926250Y-78965000D01*
G75*
G02*
X156120000Y-79158750I0J-193750D01*
G01*
X156120000Y-79546250D01*
G75*
G02*
X155926250Y-79740000I-193750J0D01*
G01*
X155463750Y-79740000D01*
G75*
G02*
X155270000Y-79546250I0J193750D01*
G01*
X155270000Y-79158750D01*
G75*
G02*
X155463750Y-78965000I193750J0D01*
G01*
G37*
G36*
G01*
X155463750Y-77390000D02*
X155926250Y-77390000D01*
G75*
G02*
X156120000Y-77583750I0J-193750D01*
G01*
X156120000Y-77971250D01*
G75*
G02*
X155926250Y-78165000I-193750J0D01*
G01*
X155463750Y-78165000D01*
G75*
G02*
X155270000Y-77971250I0J193750D01*
G01*
X155270000Y-77583750D01*
G75*
G02*
X155463750Y-77390000I193750J0D01*
G01*
G37*
G36*
G01*
X153020000Y-77726250D02*
X153020000Y-76863750D01*
G75*
G02*
X153238750Y-76645000I218750J0D01*
G01*
X153676250Y-76645000D01*
G75*
G02*
X153895000Y-76863750I0J-218750D01*
G01*
X153895000Y-77726250D01*
G75*
G02*
X153676250Y-77945000I-218750J0D01*
G01*
X153238750Y-77945000D01*
G75*
G02*
X153020000Y-77726250I0J218750D01*
G01*
G37*
G36*
G01*
X151145000Y-77726250D02*
X151145000Y-76863750D01*
G75*
G02*
X151363750Y-76645000I218750J0D01*
G01*
X151801250Y-76645000D01*
G75*
G02*
X152020000Y-76863750I0J-218750D01*
G01*
X152020000Y-77726250D01*
G75*
G02*
X151801250Y-77945000I-218750J0D01*
G01*
X151363750Y-77945000D01*
G75*
G02*
X151145000Y-77726250I0J218750D01*
G01*
G37*
G36*
G01*
X153020000Y-79631250D02*
X153020000Y-78768750D01*
G75*
G02*
X153238750Y-78550000I218750J0D01*
G01*
X153676250Y-78550000D01*
G75*
G02*
X153895000Y-78768750I0J-218750D01*
G01*
X153895000Y-79631250D01*
G75*
G02*
X153676250Y-79850000I-218750J0D01*
G01*
X153238750Y-79850000D01*
G75*
G02*
X153020000Y-79631250I0J218750D01*
G01*
G37*
G36*
G01*
X151145000Y-79631250D02*
X151145000Y-78768750D01*
G75*
G02*
X151363750Y-78550000I218750J0D01*
G01*
X151801250Y-78550000D01*
G75*
G02*
X152020000Y-78768750I0J-218750D01*
G01*
X152020000Y-79631250D01*
G75*
G02*
X151801250Y-79850000I-218750J0D01*
G01*
X151363750Y-79850000D01*
G75*
G02*
X151145000Y-79631250I0J218750D01*
G01*
G37*
G36*
G01*
X152920000Y-81336250D02*
X152920000Y-80873750D01*
G75*
G02*
X153113750Y-80680000I193750J0D01*
G01*
X153501250Y-80680000D01*
G75*
G02*
X153695000Y-80873750I0J-193750D01*
G01*
X153695000Y-81336250D01*
G75*
G02*
X153501250Y-81530000I-193750J0D01*
G01*
X153113750Y-81530000D01*
G75*
G02*
X152920000Y-81336250I0J193750D01*
G01*
G37*
G36*
G01*
X151345000Y-81336250D02*
X151345000Y-80873750D01*
G75*
G02*
X151538750Y-80680000I193750J0D01*
G01*
X151926250Y-80680000D01*
G75*
G02*
X152120000Y-80873750I0J-193750D01*
G01*
X152120000Y-81336250D01*
G75*
G02*
X151926250Y-81530000I-193750J0D01*
G01*
X151538750Y-81530000D01*
G75*
G02*
X151345000Y-81336250I0J193750D01*
G01*
G37*
G36*
G01*
X152920000Y-82606250D02*
X152920000Y-82143750D01*
G75*
G02*
X153113750Y-81950000I193750J0D01*
G01*
X153501250Y-81950000D01*
G75*
G02*
X153695000Y-82143750I0J-193750D01*
G01*
X153695000Y-82606250D01*
G75*
G02*
X153501250Y-82800000I-193750J0D01*
G01*
X153113750Y-82800000D01*
G75*
G02*
X152920000Y-82606250I0J193750D01*
G01*
G37*
G36*
G01*
X151345000Y-82606250D02*
X151345000Y-82143750D01*
G75*
G02*
X151538750Y-81950000I193750J0D01*
G01*
X151926250Y-81950000D01*
G75*
G02*
X152120000Y-82143750I0J-193750D01*
G01*
X152120000Y-82606250D01*
G75*
G02*
X151926250Y-82800000I-193750J0D01*
G01*
X151538750Y-82800000D01*
G75*
G02*
X151345000Y-82606250I0J193750D01*
G01*
G37*
G36*
G01*
X138931250Y-80920000D02*
X138068750Y-80920000D01*
G75*
G02*
X137850000Y-80701250I0J218750D01*
G01*
X137850000Y-80263750D01*
G75*
G02*
X138068750Y-80045000I218750J0D01*
G01*
X138931250Y-80045000D01*
G75*
G02*
X139150000Y-80263750I0J-218750D01*
G01*
X139150000Y-80701250D01*
G75*
G02*
X138931250Y-80920000I-218750J0D01*
G01*
G37*
G36*
G01*
X138931250Y-82795000D02*
X138068750Y-82795000D01*
G75*
G02*
X137850000Y-82576250I0J218750D01*
G01*
X137850000Y-82138750D01*
G75*
G02*
X138068750Y-81920000I218750J0D01*
G01*
X138931250Y-81920000D01*
G75*
G02*
X139150000Y-82138750I0J-218750D01*
G01*
X139150000Y-82576250D01*
G75*
G02*
X138931250Y-82795000I-218750J0D01*
G01*
G37*
G36*
G01*
X125200000Y-81538750D02*
X125200000Y-82001250D01*
G75*
G02*
X125006250Y-82195000I-193750J0D01*
G01*
X124618750Y-82195000D01*
G75*
G02*
X124425000Y-82001250I0J193750D01*
G01*
X124425000Y-81538750D01*
G75*
G02*
X124618750Y-81345000I193750J0D01*
G01*
X125006250Y-81345000D01*
G75*
G02*
X125200000Y-81538750I0J-193750D01*
G01*
G37*
G36*
G01*
X126775000Y-81538750D02*
X126775000Y-82001250D01*
G75*
G02*
X126581250Y-82195000I-193750J0D01*
G01*
X126193750Y-82195000D01*
G75*
G02*
X126000000Y-82001250I0J193750D01*
G01*
X126000000Y-81538750D01*
G75*
G02*
X126193750Y-81345000I193750J0D01*
G01*
X126581250Y-81345000D01*
G75*
G02*
X126775000Y-81538750I0J-193750D01*
G01*
G37*
G36*
G01*
X135868750Y-86620000D02*
X136331250Y-86620000D01*
G75*
G02*
X136525000Y-86813750I0J-193750D01*
G01*
X136525000Y-87201250D01*
G75*
G02*
X136331250Y-87395000I-193750J0D01*
G01*
X135868750Y-87395000D01*
G75*
G02*
X135675000Y-87201250I0J193750D01*
G01*
X135675000Y-86813750D01*
G75*
G02*
X135868750Y-86620000I193750J0D01*
G01*
G37*
G36*
G01*
X135868750Y-85045000D02*
X136331250Y-85045000D01*
G75*
G02*
X136525000Y-85238750I0J-193750D01*
G01*
X136525000Y-85626250D01*
G75*
G02*
X136331250Y-85820000I-193750J0D01*
G01*
X135868750Y-85820000D01*
G75*
G02*
X135675000Y-85626250I0J193750D01*
G01*
X135675000Y-85238750D01*
G75*
G02*
X135868750Y-85045000I193750J0D01*
G01*
G37*
G36*
G01*
X140668750Y-86620000D02*
X141131250Y-86620000D01*
G75*
G02*
X141325000Y-86813750I0J-193750D01*
G01*
X141325000Y-87201250D01*
G75*
G02*
X141131250Y-87395000I-193750J0D01*
G01*
X140668750Y-87395000D01*
G75*
G02*
X140475000Y-87201250I0J193750D01*
G01*
X140475000Y-86813750D01*
G75*
G02*
X140668750Y-86620000I193750J0D01*
G01*
G37*
G36*
G01*
X140668750Y-85045000D02*
X141131250Y-85045000D01*
G75*
G02*
X141325000Y-85238750I0J-193750D01*
G01*
X141325000Y-85626250D01*
G75*
G02*
X141131250Y-85820000I-193750J0D01*
G01*
X140668750Y-85820000D01*
G75*
G02*
X140475000Y-85626250I0J193750D01*
G01*
X140475000Y-85238750D01*
G75*
G02*
X140668750Y-85045000I193750J0D01*
G01*
G37*
G36*
G01*
X138068750Y-87120000D02*
X138931250Y-87120000D01*
G75*
G02*
X139150000Y-87338750I0J-218750D01*
G01*
X139150000Y-87776250D01*
G75*
G02*
X138931250Y-87995000I-218750J0D01*
G01*
X138068750Y-87995000D01*
G75*
G02*
X137850000Y-87776250I0J218750D01*
G01*
X137850000Y-87338750D01*
G75*
G02*
X138068750Y-87120000I218750J0D01*
G01*
G37*
G36*
G01*
X138068750Y-85245000D02*
X138931250Y-85245000D01*
G75*
G02*
X139150000Y-85463750I0J-218750D01*
G01*
X139150000Y-85901250D01*
G75*
G02*
X138931250Y-86120000I-218750J0D01*
G01*
X138068750Y-86120000D01*
G75*
G02*
X137850000Y-85901250I0J218750D01*
G01*
X137850000Y-85463750D01*
G75*
G02*
X138068750Y-85245000I218750J0D01*
G01*
G37*
G36*
G01*
X134668750Y-91420000D02*
X135131250Y-91420000D01*
G75*
G02*
X135325000Y-91613750I0J-193750D01*
G01*
X135325000Y-92001250D01*
G75*
G02*
X135131250Y-92195000I-193750J0D01*
G01*
X134668750Y-92195000D01*
G75*
G02*
X134475000Y-92001250I0J193750D01*
G01*
X134475000Y-91613750D01*
G75*
G02*
X134668750Y-91420000I193750J0D01*
G01*
G37*
G36*
G01*
X134668750Y-89845000D02*
X135131250Y-89845000D01*
G75*
G02*
X135325000Y-90038750I0J-193750D01*
G01*
X135325000Y-90426250D01*
G75*
G02*
X135131250Y-90620000I-193750J0D01*
G01*
X134668750Y-90620000D01*
G75*
G02*
X134475000Y-90426250I0J193750D01*
G01*
X134475000Y-90038750D01*
G75*
G02*
X134668750Y-89845000I193750J0D01*
G01*
G37*
G36*
G01*
X136668750Y-91620000D02*
X137131250Y-91620000D01*
G75*
G02*
X137325000Y-91813750I0J-193750D01*
G01*
X137325000Y-92201250D01*
G75*
G02*
X137131250Y-92395000I-193750J0D01*
G01*
X136668750Y-92395000D01*
G75*
G02*
X136475000Y-92201250I0J193750D01*
G01*
X136475000Y-91813750D01*
G75*
G02*
X136668750Y-91620000I193750J0D01*
G01*
G37*
G36*
G01*
X136668750Y-90045000D02*
X137131250Y-90045000D01*
G75*
G02*
X137325000Y-90238750I0J-193750D01*
G01*
X137325000Y-90626250D01*
G75*
G02*
X137131250Y-90820000I-193750J0D01*
G01*
X136668750Y-90820000D01*
G75*
G02*
X136475000Y-90626250I0J193750D01*
G01*
X136475000Y-90238750D01*
G75*
G02*
X136668750Y-90045000I193750J0D01*
G01*
G37*
G36*
G01*
X138068750Y-92120000D02*
X138931250Y-92120000D01*
G75*
G02*
X139150000Y-92338750I0J-218750D01*
G01*
X139150000Y-92776250D01*
G75*
G02*
X138931250Y-92995000I-218750J0D01*
G01*
X138068750Y-92995000D01*
G75*
G02*
X137850000Y-92776250I0J218750D01*
G01*
X137850000Y-92338750D01*
G75*
G02*
X138068750Y-92120000I218750J0D01*
G01*
G37*
G36*
G01*
X138068750Y-90245000D02*
X138931250Y-90245000D01*
G75*
G02*
X139150000Y-90463750I0J-218750D01*
G01*
X139150000Y-90901250D01*
G75*
G02*
X138931250Y-91120000I-218750J0D01*
G01*
X138068750Y-91120000D01*
G75*
G02*
X137850000Y-90901250I0J218750D01*
G01*
X137850000Y-90463750D01*
G75*
G02*
X138068750Y-90245000I218750J0D01*
G01*
G37*
G36*
G01*
X139868750Y-91620000D02*
X140331250Y-91620000D01*
G75*
G02*
X140525000Y-91813750I0J-193750D01*
G01*
X140525000Y-92201250D01*
G75*
G02*
X140331250Y-92395000I-193750J0D01*
G01*
X139868750Y-92395000D01*
G75*
G02*
X139675000Y-92201250I0J193750D01*
G01*
X139675000Y-91813750D01*
G75*
G02*
X139868750Y-91620000I193750J0D01*
G01*
G37*
G36*
G01*
X139868750Y-90045000D02*
X140331250Y-90045000D01*
G75*
G02*
X140525000Y-90238750I0J-193750D01*
G01*
X140525000Y-90626250D01*
G75*
G02*
X140331250Y-90820000I-193750J0D01*
G01*
X139868750Y-90820000D01*
G75*
G02*
X139675000Y-90626250I0J193750D01*
G01*
X139675000Y-90238750D01*
G75*
G02*
X139868750Y-90045000I193750J0D01*
G01*
G37*
G36*
G01*
X141768750Y-91520000D02*
X142231250Y-91520000D01*
G75*
G02*
X142425000Y-91713750I0J-193750D01*
G01*
X142425000Y-92101250D01*
G75*
G02*
X142231250Y-92295000I-193750J0D01*
G01*
X141768750Y-92295000D01*
G75*
G02*
X141575000Y-92101250I0J193750D01*
G01*
X141575000Y-91713750D01*
G75*
G02*
X141768750Y-91520000I193750J0D01*
G01*
G37*
G36*
G01*
X141768750Y-89945000D02*
X142231250Y-89945000D01*
G75*
G02*
X142425000Y-90138750I0J-193750D01*
G01*
X142425000Y-90526250D01*
G75*
G02*
X142231250Y-90720000I-193750J0D01*
G01*
X141768750Y-90720000D01*
G75*
G02*
X141575000Y-90526250I0J193750D01*
G01*
X141575000Y-90138750D01*
G75*
G02*
X141768750Y-89945000I193750J0D01*
G01*
G37*
G36*
G01*
X140500000Y-88188750D02*
X140500000Y-88651250D01*
G75*
G02*
X140306250Y-88845000I-193750J0D01*
G01*
X139918750Y-88845000D01*
G75*
G02*
X139725000Y-88651250I0J193750D01*
G01*
X139725000Y-88188750D01*
G75*
G02*
X139918750Y-87995000I193750J0D01*
G01*
X140306250Y-87995000D01*
G75*
G02*
X140500000Y-88188750I0J-193750D01*
G01*
G37*
G36*
G01*
X142075000Y-88188750D02*
X142075000Y-88651250D01*
G75*
G02*
X141881250Y-88845000I-193750J0D01*
G01*
X141493750Y-88845000D01*
G75*
G02*
X141300000Y-88651250I0J193750D01*
G01*
X141300000Y-88188750D01*
G75*
G02*
X141493750Y-87995000I193750J0D01*
G01*
X141881250Y-87995000D01*
G75*
G02*
X142075000Y-88188750I0J-193750D01*
G01*
G37*
G36*
G01*
X136500000Y-88651250D02*
X136500000Y-88188750D01*
G75*
G02*
X136693750Y-87995000I193750J0D01*
G01*
X137081250Y-87995000D01*
G75*
G02*
X137275000Y-88188750I0J-193750D01*
G01*
X137275000Y-88651250D01*
G75*
G02*
X137081250Y-88845000I-193750J0D01*
G01*
X136693750Y-88845000D01*
G75*
G02*
X136500000Y-88651250I0J193750D01*
G01*
G37*
G36*
G01*
X134925000Y-88651250D02*
X134925000Y-88188750D01*
G75*
G02*
X135118750Y-87995000I193750J0D01*
G01*
X135506250Y-87995000D01*
G75*
G02*
X135700000Y-88188750I0J-193750D01*
G01*
X135700000Y-88651250D01*
G75*
G02*
X135506250Y-88845000I-193750J0D01*
G01*
X135118750Y-88845000D01*
G75*
G02*
X134925000Y-88651250I0J193750D01*
G01*
G37*
X159825000Y-90600000D03*
X160775000Y-90600000D03*
X161725000Y-90600000D03*
X161725000Y-93200000D03*
X159825000Y-93200000D03*
X104775000Y-77115000D03*
X103825000Y-77115000D03*
X102875000Y-77115000D03*
X102875000Y-74515000D03*
X104775000Y-74515000D03*
D18*
X175395000Y-96015000D03*
D19*
X174125000Y-96015000D03*
X172855000Y-96015000D03*
X171585000Y-96015000D03*
X171585000Y-90615000D03*
X172855000Y-90615000D03*
X174125000Y-90615000D03*
X175395000Y-90615000D03*
D20*
X141980000Y-67706500D03*
D21*
X141980000Y-66436500D03*
X141980000Y-65166500D03*
X141980000Y-63896500D03*
X147380000Y-63896500D03*
X147380000Y-65166500D03*
X147380000Y-66436500D03*
X147380000Y-67706500D03*
D22*
X116440000Y-75920000D03*
D23*
X117710000Y-75920000D03*
X118980000Y-75920000D03*
X120250000Y-75920000D03*
X120250000Y-82524000D03*
X118980000Y-82524000D03*
X117710000Y-82524000D03*
X116440000Y-82524000D03*
D13*
X169050000Y-84280000D03*
X171550000Y-84280000D03*
X169030000Y-78585000D03*
X169030000Y-81085000D03*
X171550000Y-85804000D03*
X169050000Y-85804000D03*
X179190000Y-74775000D03*
X179190000Y-77275000D03*
X177285000Y-77275000D03*
X177285000Y-74775000D03*
X172987000Y-73503000D03*
X175487000Y-73503000D03*
X174979000Y-68550000D03*
X172479000Y-68550000D03*
X165200000Y-67262000D03*
X162700000Y-67262000D03*
X177285000Y-72594000D03*
X177285000Y-70094000D03*
X179190000Y-70094000D03*
X179190000Y-72594000D03*
D24*
X171175000Y-82375000D03*
X169425000Y-82375000D03*
D25*
X109980000Y-65200000D03*
X113980000Y-65200000D03*
D26*
X176015000Y-83280000D03*
X175065000Y-85280000D03*
X176965000Y-85280000D03*
D13*
X175502000Y-72106000D03*
X173002000Y-72106000D03*
X154141000Y-84186000D03*
X156641000Y-84186000D03*
X154121000Y-85964000D03*
X156621000Y-85964000D03*
G36*
G01*
X165823000Y-70541250D02*
X165823000Y-70078750D01*
G75*
G02*
X166016750Y-69885000I193750J0D01*
G01*
X166404250Y-69885000D01*
G75*
G02*
X166598000Y-70078750I0J-193750D01*
G01*
X166598000Y-70541250D01*
G75*
G02*
X166404250Y-70735000I-193750J0D01*
G01*
X166016750Y-70735000D01*
G75*
G02*
X165823000Y-70541250I0J193750D01*
G01*
G37*
G36*
G01*
X167398000Y-70541250D02*
X167398000Y-70078750D01*
G75*
G02*
X167591750Y-69885000I193750J0D01*
G01*
X167979250Y-69885000D01*
G75*
G02*
X168173000Y-70078750I0J-193750D01*
G01*
X168173000Y-70541250D01*
G75*
G02*
X167979250Y-70735000I-193750J0D01*
G01*
X167591750Y-70735000D01*
G75*
G02*
X167398000Y-70541250I0J193750D01*
G01*
G37*
G36*
G01*
X166413250Y-89846000D02*
X165550750Y-89846000D01*
G75*
G02*
X165332000Y-89627250I0J218750D01*
G01*
X165332000Y-89189750D01*
G75*
G02*
X165550750Y-88971000I218750J0D01*
G01*
X166413250Y-88971000D01*
G75*
G02*
X166632000Y-89189750I0J-218750D01*
G01*
X166632000Y-89627250D01*
G75*
G02*
X166413250Y-89846000I-218750J0D01*
G01*
G37*
G36*
G01*
X166413250Y-87971000D02*
X165550750Y-87971000D01*
G75*
G02*
X165332000Y-87752250I0J218750D01*
G01*
X165332000Y-87314750D01*
G75*
G02*
X165550750Y-87096000I218750J0D01*
G01*
X166413250Y-87096000D01*
G75*
G02*
X166632000Y-87314750I0J-218750D01*
G01*
X166632000Y-87752250D01*
G75*
G02*
X166413250Y-87971000I-218750J0D01*
G01*
G37*
G36*
G01*
X167465259Y-86921000D02*
X168308741Y-86921000D01*
G75*
G02*
X168537000Y-87149259I0J-228259D01*
G01*
X168537000Y-87742741D01*
G75*
G02*
X168308741Y-87971000I-228259J0D01*
G01*
X167465259Y-87971000D01*
G75*
G02*
X167237000Y-87742741I0J228259D01*
G01*
X167237000Y-87149259D01*
G75*
G02*
X167465259Y-86921000I228259J0D01*
G01*
G37*
G36*
G01*
X167465259Y-88971000D02*
X168308741Y-88971000D01*
G75*
G02*
X168537000Y-89199259I0J-228259D01*
G01*
X168537000Y-89792741D01*
G75*
G02*
X168308741Y-90021000I-228259J0D01*
G01*
X167465259Y-90021000D01*
G75*
G02*
X167237000Y-89792741I0J228259D01*
G01*
X167237000Y-89199259D01*
G75*
G02*
X167465259Y-88971000I228259J0D01*
G01*
G37*
G36*
G01*
X169370259Y-86921000D02*
X170213741Y-86921000D01*
G75*
G02*
X170442000Y-87149259I0J-228259D01*
G01*
X170442000Y-87742741D01*
G75*
G02*
X170213741Y-87971000I-228259J0D01*
G01*
X169370259Y-87971000D01*
G75*
G02*
X169142000Y-87742741I0J228259D01*
G01*
X169142000Y-87149259D01*
G75*
G02*
X169370259Y-86921000I228259J0D01*
G01*
G37*
G36*
G01*
X169370259Y-88971000D02*
X170213741Y-88971000D01*
G75*
G02*
X170442000Y-89199259I0J-228259D01*
G01*
X170442000Y-89792741D01*
G75*
G02*
X170213741Y-90021000I-228259J0D01*
G01*
X169370259Y-90021000D01*
G75*
G02*
X169142000Y-89792741I0J228259D01*
G01*
X169142000Y-89199259D01*
G75*
G02*
X169370259Y-88971000I228259J0D01*
G01*
G37*
G36*
G01*
X132305000Y-99175000D02*
X131855000Y-99175000D01*
G75*
G02*
X131655000Y-98975000I0J200000D01*
G01*
X131655000Y-98575000D01*
G75*
G02*
X131855000Y-98375000I200000J0D01*
G01*
X132305000Y-98375000D01*
G75*
G02*
X132505000Y-98575000I0J-200000D01*
G01*
X132505000Y-98975000D01*
G75*
G02*
X132305000Y-99175000I-200000J0D01*
G01*
G37*
G36*
G01*
X132305000Y-97625000D02*
X131855000Y-97625000D01*
G75*
G02*
X131655000Y-97425000I0J200000D01*
G01*
X131655000Y-97025000D01*
G75*
G02*
X131855000Y-96825000I200000J0D01*
G01*
X132305000Y-96825000D01*
G75*
G02*
X132505000Y-97025000I0J-200000D01*
G01*
X132505000Y-97425000D01*
G75*
G02*
X132305000Y-97625000I-200000J0D01*
G01*
G37*
G36*
G01*
X133355000Y-98375000D02*
X133805000Y-98375000D01*
G75*
G02*
X134005000Y-98575000I0J-200000D01*
G01*
X134005000Y-98975000D01*
G75*
G02*
X133805000Y-99175000I-200000J0D01*
G01*
X133355000Y-99175000D01*
G75*
G02*
X133155000Y-98975000I0J200000D01*
G01*
X133155000Y-98575000D01*
G75*
G02*
X133355000Y-98375000I200000J0D01*
G01*
G37*
G36*
G01*
X133355000Y-96825000D02*
X133805000Y-96825000D01*
G75*
G02*
X134005000Y-97025000I0J-200000D01*
G01*
X134005000Y-97425000D01*
G75*
G02*
X133805000Y-97625000I-200000J0D01*
G01*
X133355000Y-97625000D01*
G75*
G02*
X133155000Y-97425000I0J200000D01*
G01*
X133155000Y-97025000D01*
G75*
G02*
X133355000Y-96825000I200000J0D01*
G01*
G37*
G36*
G01*
X136405000Y-97625000D02*
X135955000Y-97625000D01*
G75*
G02*
X135755000Y-97425000I0J200000D01*
G01*
X135755000Y-97025000D01*
G75*
G02*
X135955000Y-96825000I200000J0D01*
G01*
X136405000Y-96825000D01*
G75*
G02*
X136605000Y-97025000I0J-200000D01*
G01*
X136605000Y-97425000D01*
G75*
G02*
X136405000Y-97625000I-200000J0D01*
G01*
G37*
G36*
G01*
X136405000Y-99175000D02*
X135955000Y-99175000D01*
G75*
G02*
X135755000Y-98975000I0J200000D01*
G01*
X135755000Y-98575000D01*
G75*
G02*
X135955000Y-98375000I200000J0D01*
G01*
X136405000Y-98375000D01*
G75*
G02*
X136605000Y-98575000I0J-200000D01*
G01*
X136605000Y-98975000D01*
G75*
G02*
X136405000Y-99175000I-200000J0D01*
G01*
G37*
G36*
G01*
X137455000Y-98375000D02*
X137905000Y-98375000D01*
G75*
G02*
X138105000Y-98575000I0J-200000D01*
G01*
X138105000Y-98975000D01*
G75*
G02*
X137905000Y-99175000I-200000J0D01*
G01*
X137455000Y-99175000D01*
G75*
G02*
X137255000Y-98975000I0J200000D01*
G01*
X137255000Y-98575000D01*
G75*
G02*
X137455000Y-98375000I200000J0D01*
G01*
G37*
G36*
G01*
X137455000Y-96825000D02*
X137905000Y-96825000D01*
G75*
G02*
X138105000Y-97025000I0J-200000D01*
G01*
X138105000Y-97425000D01*
G75*
G02*
X137905000Y-97625000I-200000J0D01*
G01*
X137455000Y-97625000D01*
G75*
G02*
X137255000Y-97425000I0J200000D01*
G01*
X137255000Y-97025000D01*
G75*
G02*
X137455000Y-96825000I200000J0D01*
G01*
G37*
G36*
G01*
X139405000Y-97625000D02*
X138955000Y-97625000D01*
G75*
G02*
X138755000Y-97425000I0J200000D01*
G01*
X138755000Y-97025000D01*
G75*
G02*
X138955000Y-96825000I200000J0D01*
G01*
X139405000Y-96825000D01*
G75*
G02*
X139605000Y-97025000I0J-200000D01*
G01*
X139605000Y-97425000D01*
G75*
G02*
X139405000Y-97625000I-200000J0D01*
G01*
G37*
G36*
G01*
X139405000Y-99175000D02*
X138955000Y-99175000D01*
G75*
G02*
X138755000Y-98975000I0J200000D01*
G01*
X138755000Y-98575000D01*
G75*
G02*
X138955000Y-98375000I200000J0D01*
G01*
X139405000Y-98375000D01*
G75*
G02*
X139605000Y-98575000I0J-200000D01*
G01*
X139605000Y-98975000D01*
G75*
G02*
X139405000Y-99175000I-200000J0D01*
G01*
G37*
G36*
G01*
X140455000Y-96825000D02*
X140905000Y-96825000D01*
G75*
G02*
X141105000Y-97025000I0J-200000D01*
G01*
X141105000Y-97425000D01*
G75*
G02*
X140905000Y-97625000I-200000J0D01*
G01*
X140455000Y-97625000D01*
G75*
G02*
X140255000Y-97425000I0J200000D01*
G01*
X140255000Y-97025000D01*
G75*
G02*
X140455000Y-96825000I200000J0D01*
G01*
G37*
G36*
G01*
X140455000Y-98375000D02*
X140905000Y-98375000D01*
G75*
G02*
X141105000Y-98575000I0J-200000D01*
G01*
X141105000Y-98975000D01*
G75*
G02*
X140905000Y-99175000I-200000J0D01*
G01*
X140455000Y-99175000D01*
G75*
G02*
X140255000Y-98975000I0J200000D01*
G01*
X140255000Y-98575000D01*
G75*
G02*
X140455000Y-98375000I200000J0D01*
G01*
G37*
G36*
G01*
X142405000Y-99175000D02*
X141955000Y-99175000D01*
G75*
G02*
X141755000Y-98975000I0J200000D01*
G01*
X141755000Y-98575000D01*
G75*
G02*
X141955000Y-98375000I200000J0D01*
G01*
X142405000Y-98375000D01*
G75*
G02*
X142605000Y-98575000I0J-200000D01*
G01*
X142605000Y-98975000D01*
G75*
G02*
X142405000Y-99175000I-200000J0D01*
G01*
G37*
G36*
G01*
X142405000Y-97625000D02*
X141955000Y-97625000D01*
G75*
G02*
X141755000Y-97425000I0J200000D01*
G01*
X141755000Y-97025000D01*
G75*
G02*
X141955000Y-96825000I200000J0D01*
G01*
X142405000Y-96825000D01*
G75*
G02*
X142605000Y-97025000I0J-200000D01*
G01*
X142605000Y-97425000D01*
G75*
G02*
X142405000Y-97625000I-200000J0D01*
G01*
G37*
G36*
G01*
X143455000Y-96825000D02*
X143905000Y-96825000D01*
G75*
G02*
X144105000Y-97025000I0J-200000D01*
G01*
X144105000Y-97425000D01*
G75*
G02*
X143905000Y-97625000I-200000J0D01*
G01*
X143455000Y-97625000D01*
G75*
G02*
X143255000Y-97425000I0J200000D01*
G01*
X143255000Y-97025000D01*
G75*
G02*
X143455000Y-96825000I200000J0D01*
G01*
G37*
G36*
G01*
X143455000Y-98375000D02*
X143905000Y-98375000D01*
G75*
G02*
X144105000Y-98575000I0J-200000D01*
G01*
X144105000Y-98975000D01*
G75*
G02*
X143905000Y-99175000I-200000J0D01*
G01*
X143455000Y-99175000D01*
G75*
G02*
X143255000Y-98975000I0J200000D01*
G01*
X143255000Y-98575000D01*
G75*
G02*
X143455000Y-98375000I200000J0D01*
G01*
G37*
G36*
G01*
X145405000Y-99175000D02*
X144955000Y-99175000D01*
G75*
G02*
X144755000Y-98975000I0J200000D01*
G01*
X144755000Y-98575000D01*
G75*
G02*
X144955000Y-98375000I200000J0D01*
G01*
X145405000Y-98375000D01*
G75*
G02*
X145605000Y-98575000I0J-200000D01*
G01*
X145605000Y-98975000D01*
G75*
G02*
X145405000Y-99175000I-200000J0D01*
G01*
G37*
G36*
G01*
X145405000Y-97625000D02*
X144955000Y-97625000D01*
G75*
G02*
X144755000Y-97425000I0J200000D01*
G01*
X144755000Y-97025000D01*
G75*
G02*
X144955000Y-96825000I200000J0D01*
G01*
X145405000Y-96825000D01*
G75*
G02*
X145605000Y-97025000I0J-200000D01*
G01*
X145605000Y-97425000D01*
G75*
G02*
X145405000Y-97625000I-200000J0D01*
G01*
G37*
G36*
G01*
X146455000Y-98375000D02*
X146905000Y-98375000D01*
G75*
G02*
X147105000Y-98575000I0J-200000D01*
G01*
X147105000Y-98975000D01*
G75*
G02*
X146905000Y-99175000I-200000J0D01*
G01*
X146455000Y-99175000D01*
G75*
G02*
X146255000Y-98975000I0J200000D01*
G01*
X146255000Y-98575000D01*
G75*
G02*
X146455000Y-98375000I200000J0D01*
G01*
G37*
G36*
G01*
X146455000Y-96825000D02*
X146905000Y-96825000D01*
G75*
G02*
X147105000Y-97025000I0J-200000D01*
G01*
X147105000Y-97425000D01*
G75*
G02*
X146905000Y-97625000I-200000J0D01*
G01*
X146455000Y-97625000D01*
G75*
G02*
X146255000Y-97425000I0J200000D01*
G01*
X146255000Y-97025000D01*
G75*
G02*
X146455000Y-96825000I200000J0D01*
G01*
G37*
M02*
