G04 #@! TF.FileFunction,Legend,Bot*
%FSLAX46Y46*%
G04 Gerber Fmt 4.6, Leading zero omitted, Abs format (unit mm)*
G04 Created by KiCad (PCBNEW 4.0.7+dfsg1-1) date Tue Oct  3 19:54:00 2017*
%MOMM*%
%LPD*%
G01*
G04 APERTURE LIST*
%ADD10C,0.100000*%
%ADD11C,0.250000*%
%ADD12C,0.300000*%
%ADD13C,0.120000*%
%ADD14C,0.150000*%
%ADD15C,0.500000*%
%ADD16C,0.200000*%
G04 APERTURE END LIST*
D10*
D11*
X143082381Y-105854286D02*
X143082381Y-106425715D01*
X144082381Y-106140000D02*
X143082381Y-106140000D01*
X143987143Y-107330477D02*
X144034762Y-107282858D01*
X144082381Y-107140001D01*
X144082381Y-107044763D01*
X144034762Y-106901905D01*
X143939524Y-106806667D01*
X143844286Y-106759048D01*
X143653810Y-106711429D01*
X143510952Y-106711429D01*
X143320476Y-106759048D01*
X143225238Y-106806667D01*
X143130000Y-106901905D01*
X143082381Y-107044763D01*
X143082381Y-107140001D01*
X143130000Y-107282858D01*
X143177619Y-107330477D01*
X144082381Y-107759048D02*
X143082381Y-107759048D01*
X144082381Y-108330477D02*
X143510952Y-107901905D01*
X143082381Y-108330477D02*
X143653810Y-107759048D01*
X143082381Y-102726905D02*
X143082381Y-103345953D01*
X143463333Y-103012619D01*
X143463333Y-103155477D01*
X143510952Y-103250715D01*
X143558571Y-103298334D01*
X143653810Y-103345953D01*
X143891905Y-103345953D01*
X143987143Y-103298334D01*
X144034762Y-103250715D01*
X144082381Y-103155477D01*
X144082381Y-102869762D01*
X144034762Y-102774524D01*
X143987143Y-102726905D01*
X143082381Y-103631667D02*
X144082381Y-103965000D01*
X143082381Y-104298334D01*
X143082381Y-104536429D02*
X143082381Y-105155477D01*
X143463333Y-104822143D01*
X143463333Y-104965001D01*
X143510952Y-105060239D01*
X143558571Y-105107858D01*
X143653810Y-105155477D01*
X143891905Y-105155477D01*
X143987143Y-105107858D01*
X144034762Y-105060239D01*
X144082381Y-104965001D01*
X144082381Y-104679286D01*
X144034762Y-104584048D01*
X143987143Y-104536429D01*
X143082381Y-108878476D02*
X143082381Y-109449905D01*
X144082381Y-109164190D02*
X143082381Y-109164190D01*
X144082381Y-109783238D02*
X143082381Y-109783238D01*
X143082381Y-110021333D01*
X143130000Y-110164191D01*
X143225238Y-110259429D01*
X143320476Y-110307048D01*
X143510952Y-110354667D01*
X143653810Y-110354667D01*
X143844286Y-110307048D01*
X143939524Y-110259429D01*
X144034762Y-110164191D01*
X144082381Y-110021333D01*
X144082381Y-109783238D01*
X143082381Y-110973714D02*
X143082381Y-111164191D01*
X143130000Y-111259429D01*
X143225238Y-111354667D01*
X143415714Y-111402286D01*
X143749048Y-111402286D01*
X143939524Y-111354667D01*
X144034762Y-111259429D01*
X144082381Y-111164191D01*
X144082381Y-110973714D01*
X144034762Y-110878476D01*
X143939524Y-110783238D01*
X143749048Y-110735619D01*
X143415714Y-110735619D01*
X143225238Y-110783238D01*
X143130000Y-110878476D01*
X143082381Y-110973714D01*
X145035000Y-103330096D02*
X144987381Y-103234858D01*
X144987381Y-103092001D01*
X145035000Y-102949143D01*
X145130238Y-102853905D01*
X145225476Y-102806286D01*
X145415952Y-102758667D01*
X145558810Y-102758667D01*
X145749286Y-102806286D01*
X145844524Y-102853905D01*
X145939762Y-102949143D01*
X145987381Y-103092001D01*
X145987381Y-103187239D01*
X145939762Y-103330096D01*
X145892143Y-103377715D01*
X145558810Y-103377715D01*
X145558810Y-103187239D01*
X145987381Y-103806286D02*
X144987381Y-103806286D01*
X145987381Y-104377715D01*
X144987381Y-104377715D01*
X145987381Y-104853905D02*
X144987381Y-104853905D01*
X144987381Y-105092000D01*
X145035000Y-105234858D01*
X145130238Y-105330096D01*
X145225476Y-105377715D01*
X145415952Y-105425334D01*
X145558810Y-105425334D01*
X145749286Y-105377715D01*
X145844524Y-105330096D01*
X145939762Y-105234858D01*
X145987381Y-105092000D01*
X145987381Y-104853905D01*
X144987381Y-106116191D02*
X144987381Y-106687620D01*
X145987381Y-106401905D02*
X144987381Y-106401905D01*
X145987381Y-107020953D02*
X144987381Y-107020953D01*
X144987381Y-107259048D01*
X145035000Y-107401906D01*
X145130238Y-107497144D01*
X145225476Y-107544763D01*
X145415952Y-107592382D01*
X145558810Y-107592382D01*
X145749286Y-107544763D01*
X145844524Y-107497144D01*
X145939762Y-107401906D01*
X145987381Y-107259048D01*
X145987381Y-107020953D01*
X145987381Y-108020953D02*
X144987381Y-108020953D01*
X144987381Y-108854667D02*
X144987381Y-109426096D01*
X145987381Y-109140381D02*
X144987381Y-109140381D01*
X145987381Y-109759429D02*
X144987381Y-109759429D01*
X145701667Y-110092763D01*
X144987381Y-110426096D01*
X145987381Y-110426096D01*
X145939762Y-110854667D02*
X145987381Y-110997524D01*
X145987381Y-111235620D01*
X145939762Y-111330858D01*
X145892143Y-111378477D01*
X145796905Y-111426096D01*
X145701667Y-111426096D01*
X145606429Y-111378477D01*
X145558810Y-111330858D01*
X145511190Y-111235620D01*
X145463571Y-111045143D01*
X145415952Y-110949905D01*
X145368333Y-110902286D01*
X145273095Y-110854667D01*
X145177857Y-110854667D01*
X145082619Y-110902286D01*
X145035000Y-110949905D01*
X144987381Y-111045143D01*
X144987381Y-111283239D01*
X145035000Y-111426096D01*
D12*
X174967142Y-94356571D02*
X175467142Y-93642286D01*
X175824285Y-94356571D02*
X175824285Y-92856571D01*
X175252857Y-92856571D01*
X175109999Y-92928000D01*
X175038571Y-92999429D01*
X174967142Y-93142286D01*
X174967142Y-93356571D01*
X175038571Y-93499429D01*
X175109999Y-93570857D01*
X175252857Y-93642286D01*
X175824285Y-93642286D01*
X174538571Y-92856571D02*
X173681428Y-92856571D01*
X174109999Y-94356571D02*
X174109999Y-92856571D01*
X172324285Y-94213714D02*
X172395714Y-94285143D01*
X172610000Y-94356571D01*
X172752857Y-94356571D01*
X172967142Y-94285143D01*
X173110000Y-94142286D01*
X173181428Y-93999429D01*
X173252857Y-93713714D01*
X173252857Y-93499429D01*
X173181428Y-93213714D01*
X173110000Y-93070857D01*
X172967142Y-92928000D01*
X172752857Y-92856571D01*
X172610000Y-92856571D01*
X172395714Y-92928000D01*
X172324285Y-92999429D01*
D13*
X157345000Y-70900000D02*
X154045000Y-70900000D01*
X154045000Y-70900000D02*
X154045000Y-64000000D01*
X157345000Y-70900000D02*
X157345000Y-64000000D01*
D14*
X153369000Y-70826000D02*
X153369000Y-71826000D01*
X154719000Y-71826000D02*
X154719000Y-70826000D01*
X157870000Y-89565000D02*
X159870000Y-89565000D01*
X159870000Y-86615000D02*
X157870000Y-86615000D01*
X159886803Y-91500000D02*
G75*
G03X159886803Y-91500000I-111803J0D01*
G01*
X159275000Y-92800000D02*
X162275000Y-92800000D01*
X162275000Y-92800000D02*
X162275000Y-91000000D01*
X162275000Y-91000000D02*
X159275000Y-91000000D01*
X159275000Y-91000000D02*
X159275000Y-92800000D01*
X155330000Y-76230000D02*
X157330000Y-76230000D01*
X157330000Y-73280000D02*
X155330000Y-73280000D01*
X157346803Y-78135000D02*
G75*
G03X157346803Y-78135000I-111803J0D01*
G01*
X156735000Y-79435000D02*
X159735000Y-79435000D01*
X159735000Y-79435000D02*
X159735000Y-77635000D01*
X159735000Y-77635000D02*
X156735000Y-77635000D01*
X156735000Y-77635000D02*
X156735000Y-79435000D01*
X106530000Y-87250000D02*
X104530000Y-87250000D01*
X104530000Y-90200000D02*
X106530000Y-90200000D01*
X104736803Y-85315000D02*
G75*
G03X104736803Y-85315000I-111803J0D01*
G01*
X105125000Y-84015000D02*
X102125000Y-84015000D01*
X102125000Y-84015000D02*
X102125000Y-85815000D01*
X102125000Y-85815000D02*
X105125000Y-85815000D01*
X105125000Y-85815000D02*
X105125000Y-84015000D01*
X100235000Y-85415000D02*
X100235000Y-84415000D01*
X101935000Y-84415000D02*
X101935000Y-85415000D01*
X155560000Y-91480000D02*
X154560000Y-91480000D01*
X154560000Y-89780000D02*
X155560000Y-89780000D01*
X155560000Y-93385000D02*
X154560000Y-93385000D01*
X154560000Y-91685000D02*
X155560000Y-91685000D01*
X164165000Y-91400000D02*
X164165000Y-92400000D01*
X162465000Y-92400000D02*
X162465000Y-91400000D01*
X153020000Y-80050000D02*
X152020000Y-80050000D01*
X152020000Y-78350000D02*
X153020000Y-78350000D01*
X153020000Y-78145000D02*
X152020000Y-78145000D01*
X152020000Y-76445000D02*
X153020000Y-76445000D01*
X161625000Y-78065000D02*
X161625000Y-79065000D01*
X159925000Y-79065000D02*
X159925000Y-78065000D01*
X108840000Y-83430000D02*
X109840000Y-83430000D01*
X109840000Y-85130000D02*
X108840000Y-85130000D01*
X108840000Y-85335000D02*
X109840000Y-85335000D01*
X109840000Y-87035000D02*
X108840000Y-87035000D01*
X181857000Y-94567000D02*
G75*
G03X181857000Y-94567000I-127000J0D01*
G01*
X182365000Y-95202000D02*
X177285000Y-95202000D01*
X182365000Y-91900000D02*
X177285000Y-91900000D01*
X182365000Y-95710000D02*
X177285000Y-95710000D01*
X182365000Y-95710000D02*
X182365000Y-91900000D01*
X177285000Y-95710000D02*
X177285000Y-91900000D01*
X174071000Y-84288000D02*
X174071000Y-85288000D01*
X172371000Y-85288000D02*
X172371000Y-84288000D01*
D13*
X174435000Y-83520000D02*
X175365000Y-83520000D01*
X177595000Y-83520000D02*
X176665000Y-83520000D01*
X177595000Y-83520000D02*
X177595000Y-86680000D01*
X174435000Y-83520000D02*
X174435000Y-84980000D01*
X170175000Y-77605000D02*
X170175000Y-76675000D01*
X170175000Y-74445000D02*
X170175000Y-75375000D01*
X170175000Y-74445000D02*
X173335000Y-74445000D01*
X170175000Y-77605000D02*
X171635000Y-77605000D01*
D14*
X154510000Y-97510000D02*
X155210000Y-97510000D01*
X155210000Y-96310000D02*
X154510000Y-96310000D01*
X152170000Y-82975000D02*
X152870000Y-82975000D01*
X152870000Y-81775000D02*
X152170000Y-81775000D01*
X109690000Y-80505000D02*
X108990000Y-80505000D01*
X108990000Y-81705000D02*
X109690000Y-81705000D01*
X174780000Y-75675000D02*
X174780000Y-76375000D01*
X175980000Y-76375000D02*
X175980000Y-75675000D01*
X170800000Y-81700000D02*
X169800000Y-81700000D01*
X169800000Y-83050000D02*
X170800000Y-83050000D01*
X172165000Y-79335000D02*
X172165000Y-80335000D01*
X173515000Y-80335000D02*
X173515000Y-79335000D01*
X175515000Y-81145000D02*
X176515000Y-81145000D01*
X176515000Y-79795000D02*
X175515000Y-79795000D01*
X174785000Y-76525000D02*
X174785000Y-75525000D01*
X173435000Y-75525000D02*
X173435000Y-76525000D01*
X179230000Y-85415000D02*
X179230000Y-84415000D01*
X177880000Y-84415000D02*
X177880000Y-85415000D01*
X114460000Y-84780000D02*
X114460000Y-83780000D01*
X113110000Y-83780000D02*
X113110000Y-84780000D01*
X170260000Y-79335000D02*
X170260000Y-80335000D01*
X171610000Y-80335000D02*
X171610000Y-79335000D01*
X129065000Y-109545000D02*
X129065000Y-108545000D01*
X127715000Y-108545000D02*
X127715000Y-109545000D01*
X148972000Y-104259000D02*
X149972000Y-104259000D01*
X149972000Y-102909000D02*
X148972000Y-102909000D01*
X175515000Y-79240000D02*
X176515000Y-79240000D01*
X176515000Y-77890000D02*
X175515000Y-77890000D01*
X155360000Y-94965000D02*
X154360000Y-94965000D01*
X154360000Y-96315000D02*
X155360000Y-96315000D01*
X108840000Y-83050000D02*
X109840000Y-83050000D01*
X109840000Y-81700000D02*
X108840000Y-81700000D01*
X153020000Y-80430000D02*
X152020000Y-80430000D01*
X152020000Y-81780000D02*
X153020000Y-81780000D01*
X158910000Y-92400000D02*
X158910000Y-91400000D01*
X157560000Y-91400000D02*
X157560000Y-92400000D01*
X105490000Y-84415000D02*
X105490000Y-85415000D01*
X106840000Y-85415000D02*
X106840000Y-84415000D01*
X156370000Y-79065000D02*
X156370000Y-78065000D01*
X155020000Y-78065000D02*
X155020000Y-79065000D01*
X125182000Y-86860000D02*
X126182000Y-86860000D01*
X126182000Y-85510000D02*
X125182000Y-85510000D01*
X125182000Y-84954000D02*
X126182000Y-84954000D01*
X126182000Y-83604000D02*
X125182000Y-83604000D01*
X125182000Y-83050000D02*
X126182000Y-83050000D01*
X126182000Y-81700000D02*
X125182000Y-81700000D01*
X125182000Y-81145000D02*
X126182000Y-81145000D01*
X126182000Y-79795000D02*
X125182000Y-79795000D01*
X129747000Y-72858000D02*
X129747000Y-73858000D01*
X131097000Y-73858000D02*
X131097000Y-72858000D01*
X131525000Y-72858000D02*
X131525000Y-73858000D01*
X132875000Y-73858000D02*
X132875000Y-72858000D01*
X133303000Y-72858000D02*
X133303000Y-73858000D01*
X134653000Y-73858000D02*
X134653000Y-72858000D01*
X135081000Y-72858000D02*
X135081000Y-73858000D01*
X136431000Y-73858000D02*
X136431000Y-72858000D01*
X115655000Y-84745000D02*
X115705000Y-84745000D01*
X115655000Y-88895000D02*
X115800000Y-88895000D01*
X120805000Y-88895000D02*
X120660000Y-88895000D01*
X120805000Y-84745000D02*
X120660000Y-84745000D01*
X115655000Y-84745000D02*
X115655000Y-88895000D01*
X120805000Y-84745000D02*
X120805000Y-88895000D01*
X115705000Y-84745000D02*
X115705000Y-83345000D01*
X176300000Y-89198000D02*
X177000000Y-89198000D01*
X177000000Y-87998000D02*
X176300000Y-87998000D01*
X142605000Y-68375000D02*
X142605000Y-68325000D01*
X146755000Y-68375000D02*
X146755000Y-68230000D01*
X146755000Y-63225000D02*
X146755000Y-63370000D01*
X142605000Y-63225000D02*
X142605000Y-63370000D01*
X142605000Y-68375000D02*
X146755000Y-68375000D01*
X142605000Y-63225000D02*
X146755000Y-63225000D01*
X142605000Y-68325000D02*
X141205000Y-68325000D01*
D15*
X107638415Y-112384338D02*
G75*
G03X107638415Y-112384338I-283981J0D01*
G01*
D14*
X126260434Y-112530338D02*
X108260434Y-112530338D01*
X108260434Y-118530338D02*
X108260434Y-93030338D01*
X126260434Y-118530338D02*
X126260434Y-93030338D01*
X126260434Y-93030338D02*
X108260434Y-93030338D01*
X126260434Y-118530338D02*
X108260434Y-118530338D01*
X161370000Y-69810000D02*
X161370000Y-70810000D01*
X162720000Y-70810000D02*
X162720000Y-69810000D01*
X139145000Y-64730000D02*
X139145000Y-65730000D01*
X140495000Y-65730000D02*
X140495000Y-64730000D01*
X134700000Y-66932000D02*
X134700000Y-67932000D01*
X136050000Y-67932000D02*
X136050000Y-66932000D01*
X149940000Y-67270000D02*
X149940000Y-68270000D01*
X151290000Y-68270000D02*
X151290000Y-67270000D01*
X148675000Y-72890000D02*
X149675000Y-72890000D01*
X149675000Y-71540000D02*
X148675000Y-71540000D01*
X148780000Y-71275000D02*
X149780000Y-71275000D01*
X149780000Y-69925000D02*
X148780000Y-69925000D01*
X130510000Y-103690000D02*
X130510000Y-103790000D01*
X130510000Y-110515000D02*
X130510000Y-110490000D01*
X135160000Y-110515000D02*
X135160000Y-110490000D01*
X136235000Y-103690000D02*
X130510000Y-103690000D01*
X135160000Y-110515000D02*
X130510000Y-110515000D01*
X120175000Y-80970000D02*
X120175000Y-79970000D01*
X118825000Y-79970000D02*
X118825000Y-80970000D01*
X113805000Y-87900000D02*
X113805000Y-88900000D01*
X115155000Y-88900000D02*
X115155000Y-87900000D01*
X128985000Y-98385000D02*
X128985000Y-99385000D01*
X130335000Y-99385000D02*
X130335000Y-98385000D01*
X118270000Y-80970000D02*
X118270000Y-79970000D01*
X116920000Y-79970000D02*
X116920000Y-80970000D01*
X122955000Y-87900000D02*
X122955000Y-86900000D01*
X121605000Y-86900000D02*
X121605000Y-87900000D01*
X116365000Y-80970000D02*
X116365000Y-79970000D01*
X115015000Y-79970000D02*
X115015000Y-80970000D01*
X143130000Y-98925000D02*
X144130000Y-98925000D01*
X144130000Y-97575000D02*
X143130000Y-97575000D01*
X136780000Y-98925000D02*
X137780000Y-98925000D01*
X137780000Y-97575000D02*
X136780000Y-97575000D01*
X132335000Y-98925000D02*
X133335000Y-98925000D01*
X133335000Y-97575000D02*
X132335000Y-97575000D01*
X103490000Y-103290000D02*
X102490000Y-103290000D01*
X102490000Y-104640000D02*
X103490000Y-104640000D01*
X103490000Y-101385000D02*
X102490000Y-101385000D01*
X102490000Y-102735000D02*
X103490000Y-102735000D01*
X168356000Y-86574000D02*
X168356000Y-87574000D01*
X166656000Y-87574000D02*
X166656000Y-86574000D01*
X162815000Y-97020000D02*
X163815000Y-97020000D01*
X163815000Y-95670000D02*
X162815000Y-95670000D01*
X166704000Y-64222000D02*
X166704000Y-65222000D01*
X168054000Y-65222000D02*
X168054000Y-64222000D01*
X156780000Y-99250000D02*
X155780000Y-99250000D01*
X155780000Y-97550000D02*
X156780000Y-97550000D01*
X138330000Y-80900000D02*
X138330000Y-81900000D01*
X136630000Y-81900000D02*
X136630000Y-80900000D01*
X149580000Y-74150000D02*
X150580000Y-74150000D01*
X150580000Y-75850000D02*
X149580000Y-75850000D01*
X100870000Y-96210000D02*
X100870000Y-95210000D01*
X102570000Y-95210000D02*
X102570000Y-96210000D01*
X112602000Y-72985000D02*
X112602000Y-73985000D01*
X113952000Y-73985000D02*
X113952000Y-72985000D01*
X110697000Y-72985000D02*
X110697000Y-73985000D01*
X112047000Y-73985000D02*
X112047000Y-72985000D01*
D13*
X172160000Y-70445000D02*
X172160000Y-71445000D01*
X173520000Y-71445000D02*
X173520000Y-70445000D01*
X170636000Y-70445000D02*
X170636000Y-71445000D01*
X171996000Y-71445000D02*
X171996000Y-70445000D01*
X159170385Y-111454160D02*
G75*
G03X160085000Y-111070000I124615J984160D01*
G01*
X169999615Y-111454160D02*
G75*
G02X169085000Y-111070000I-124615J984160D01*
G01*
X160094339Y-111058671D02*
G75*
G02X169085000Y-111070000I4490661J-3711329D01*
G01*
X157835000Y-109920000D02*
G75*
G03X159285000Y-111470000I1500000J-50000D01*
G01*
X171335000Y-109920000D02*
G75*
G02X169885000Y-111470000I-1500000J-50000D01*
G01*
X157835000Y-107870000D02*
X157835000Y-109970000D01*
X171335000Y-107870000D02*
X171335000Y-109970000D01*
X171335000Y-103870000D02*
X171335000Y-102420000D01*
X171335000Y-102420000D02*
X168735000Y-99820000D01*
X168735000Y-99820000D02*
X168735000Y-99020000D01*
X168735000Y-99020000D02*
X160435000Y-99020000D01*
X160435000Y-99020000D02*
X160435000Y-99820000D01*
X160435000Y-99820000D02*
X157835000Y-102420000D01*
X157835000Y-102420000D02*
X157835000Y-103870000D01*
D14*
X173812000Y-99882000D02*
X173812000Y-100682000D01*
X179212000Y-98482000D02*
X175612000Y-98482000D01*
X179212000Y-102082000D02*
X175612000Y-102082000D01*
X180212000Y-99882000D02*
X180212000Y-100682000D01*
X181012000Y-99882000D02*
X181012000Y-100682000D01*
D13*
X176435000Y-74525000D02*
X178135000Y-74525000D01*
X178135000Y-74525000D02*
X178135000Y-77075000D01*
X176435000Y-74525000D02*
X176435000Y-77075000D01*
X168800000Y-85130000D02*
X168800000Y-83430000D01*
X168800000Y-83430000D02*
X171350000Y-83430000D01*
X168800000Y-85130000D02*
X171350000Y-85130000D01*
X180040000Y-81335000D02*
X178340000Y-81335000D01*
X178340000Y-81335000D02*
X178340000Y-78785000D01*
X180040000Y-81335000D02*
X180040000Y-78785000D01*
X169880000Y-81335000D02*
X168180000Y-81335000D01*
X168180000Y-81335000D02*
X168180000Y-78785000D01*
X169880000Y-81335000D02*
X169880000Y-78785000D01*
X171800000Y-84954000D02*
X171800000Y-86654000D01*
X171800000Y-86654000D02*
X169250000Y-86654000D01*
X171800000Y-84954000D02*
X169250000Y-84954000D01*
X180040000Y-77525000D02*
X178340000Y-77525000D01*
X178340000Y-77525000D02*
X178340000Y-74975000D01*
X180040000Y-77525000D02*
X180040000Y-74975000D01*
X166895000Y-71795000D02*
X166895000Y-70095000D01*
X166895000Y-70095000D02*
X169445000Y-70095000D01*
X166895000Y-71795000D02*
X169445000Y-71795000D01*
X163735000Y-68810000D02*
X165435000Y-68810000D01*
X165435000Y-68810000D02*
X165435000Y-71360000D01*
X163735000Y-68810000D02*
X163735000Y-71360000D01*
X170134000Y-67238000D02*
X168434000Y-67238000D01*
X168434000Y-67238000D02*
X168434000Y-64688000D01*
X170134000Y-67238000D02*
X170134000Y-64688000D01*
X172547000Y-67331000D02*
X170847000Y-67331000D01*
X170847000Y-67331000D02*
X170847000Y-64781000D01*
X172547000Y-67331000D02*
X172547000Y-64781000D01*
X107861000Y-71452000D02*
X107861000Y-68152000D01*
X107861000Y-68152000D02*
X114761000Y-68152000D01*
X107861000Y-71452000D02*
X114761000Y-71452000D01*
X169112000Y-71962000D02*
X169112000Y-75262000D01*
X169112000Y-75262000D02*
X162212000Y-75262000D01*
X169112000Y-71962000D02*
X162212000Y-71962000D01*
X158490000Y-62100000D02*
X161790000Y-62100000D01*
X161790000Y-62100000D02*
X161790000Y-69000000D01*
X158490000Y-62100000D02*
X158490000Y-69000000D01*
D14*
X153988381Y-62237714D02*
X152988381Y-62237714D01*
X152988381Y-62475809D01*
X153036000Y-62618667D01*
X153131238Y-62713905D01*
X153226476Y-62761524D01*
X153416952Y-62809143D01*
X153559810Y-62809143D01*
X153750286Y-62761524D01*
X153845524Y-62713905D01*
X153940762Y-62618667D01*
X153988381Y-62475809D01*
X153988381Y-62237714D01*
X152988381Y-63713905D02*
X152988381Y-63237714D01*
X153464571Y-63190095D01*
X153416952Y-63237714D01*
X153369333Y-63332952D01*
X153369333Y-63571048D01*
X153416952Y-63666286D01*
X153464571Y-63713905D01*
X153559810Y-63761524D01*
X153797905Y-63761524D01*
X153893143Y-63713905D01*
X153940762Y-63666286D01*
X153988381Y-63571048D01*
X153988381Y-63332952D01*
X153940762Y-63237714D01*
X153893143Y-63190095D01*
X153988381Y-64713905D02*
X153988381Y-64142476D01*
X153988381Y-64428190D02*
X152988381Y-64428190D01*
X153131238Y-64332952D01*
X153226476Y-64237714D01*
X153274095Y-64142476D01*
X153480381Y-67381143D02*
X153004190Y-67047809D01*
X153480381Y-66809714D02*
X152480381Y-66809714D01*
X152480381Y-67190667D01*
X152528000Y-67285905D01*
X152575619Y-67333524D01*
X152670857Y-67381143D01*
X152813714Y-67381143D01*
X152908952Y-67333524D01*
X152956571Y-67285905D01*
X153004190Y-67190667D01*
X153004190Y-66809714D01*
X152480381Y-68285905D02*
X152480381Y-67809714D01*
X152956571Y-67762095D01*
X152908952Y-67809714D01*
X152861333Y-67904952D01*
X152861333Y-68143048D01*
X152908952Y-68238286D01*
X152956571Y-68285905D01*
X153051810Y-68333524D01*
X153289905Y-68333524D01*
X153385143Y-68285905D01*
X153432762Y-68238286D01*
X153480381Y-68143048D01*
X153480381Y-67904952D01*
X153432762Y-67809714D01*
X153385143Y-67762095D01*
X153480381Y-69285905D02*
X153480381Y-68714476D01*
X153480381Y-69000190D02*
X152480381Y-69000190D01*
X152623238Y-68904952D01*
X152718476Y-68809714D01*
X152766095Y-68714476D01*
X159036666Y-85842381D02*
X159512857Y-85842381D01*
X159512857Y-84842381D01*
X158179523Y-85842381D02*
X158750952Y-85842381D01*
X158465238Y-85842381D02*
X158465238Y-84842381D01*
X158560476Y-84985238D01*
X158655714Y-85080476D01*
X158750952Y-85128095D01*
D16*
X161155905Y-94400381D02*
X161155905Y-95209905D01*
X161108286Y-95305143D01*
X161060667Y-95352762D01*
X160965429Y-95400381D01*
X160774952Y-95400381D01*
X160679714Y-95352762D01*
X160632095Y-95305143D01*
X160584476Y-95209905D01*
X160584476Y-94400381D01*
X160203524Y-94400381D02*
X159584476Y-94400381D01*
X159917810Y-94781333D01*
X159774952Y-94781333D01*
X159679714Y-94828952D01*
X159632095Y-94876571D01*
X159584476Y-94971810D01*
X159584476Y-95209905D01*
X159632095Y-95305143D01*
X159679714Y-95352762D01*
X159774952Y-95400381D01*
X160060667Y-95400381D01*
X160155905Y-95352762D01*
X160203524Y-95305143D01*
D14*
X156496666Y-72507381D02*
X156972857Y-72507381D01*
X156972857Y-71507381D01*
X156210952Y-71602619D02*
X156163333Y-71555000D01*
X156068095Y-71507381D01*
X155829999Y-71507381D01*
X155734761Y-71555000D01*
X155687142Y-71602619D01*
X155639523Y-71697857D01*
X155639523Y-71793095D01*
X155687142Y-71935952D01*
X156258571Y-72507381D01*
X155639523Y-72507381D01*
D16*
X158996905Y-80684381D02*
X158996905Y-81493905D01*
X158949286Y-81589143D01*
X158901667Y-81636762D01*
X158806429Y-81684381D01*
X158615952Y-81684381D01*
X158520714Y-81636762D01*
X158473095Y-81589143D01*
X158425476Y-81493905D01*
X158425476Y-80684381D01*
X157520714Y-81017714D02*
X157520714Y-81684381D01*
X157758810Y-80636762D02*
X157996905Y-81351048D01*
X157377857Y-81351048D01*
D14*
X105696666Y-91877381D02*
X106172857Y-91877381D01*
X106172857Y-90877381D01*
X105458571Y-90877381D02*
X104839523Y-90877381D01*
X105172857Y-91258333D01*
X105029999Y-91258333D01*
X104934761Y-91305952D01*
X104887142Y-91353571D01*
X104839523Y-91448810D01*
X104839523Y-91686905D01*
X104887142Y-91782143D01*
X104934761Y-91829762D01*
X105029999Y-91877381D01*
X105315714Y-91877381D01*
X105410952Y-91829762D01*
X105458571Y-91782143D01*
D16*
X104513905Y-81700381D02*
X104513905Y-82509905D01*
X104466286Y-82605143D01*
X104418667Y-82652762D01*
X104323429Y-82700381D01*
X104132952Y-82700381D01*
X104037714Y-82652762D01*
X103990095Y-82605143D01*
X103942476Y-82509905D01*
X103942476Y-81700381D01*
X102990095Y-81700381D02*
X103466286Y-81700381D01*
X103513905Y-82176571D01*
X103466286Y-82128952D01*
X103371048Y-82081333D01*
X103132952Y-82081333D01*
X103037714Y-82128952D01*
X102990095Y-82176571D01*
X102942476Y-82271810D01*
X102942476Y-82509905D01*
X102990095Y-82605143D01*
X103037714Y-82652762D01*
X103132952Y-82700381D01*
X103371048Y-82700381D01*
X103466286Y-82652762D01*
X103513905Y-82605143D01*
D14*
X101315143Y-81319334D02*
X101362762Y-81271715D01*
X101410381Y-81128858D01*
X101410381Y-81033620D01*
X101362762Y-80890762D01*
X101267524Y-80795524D01*
X101172286Y-80747905D01*
X100981810Y-80700286D01*
X100838952Y-80700286D01*
X100648476Y-80747905D01*
X100553238Y-80795524D01*
X100458000Y-80890762D01*
X100410381Y-81033620D01*
X100410381Y-81128858D01*
X100458000Y-81271715D01*
X100505619Y-81319334D01*
X101410381Y-82271715D02*
X101410381Y-81700286D01*
X101410381Y-81986000D02*
X100410381Y-81986000D01*
X100553238Y-81890762D01*
X100648476Y-81795524D01*
X100696095Y-81700286D01*
X152178666Y-90987143D02*
X152226285Y-91034762D01*
X152369142Y-91082381D01*
X152464380Y-91082381D01*
X152607238Y-91034762D01*
X152702476Y-90939524D01*
X152750095Y-90844286D01*
X152797714Y-90653810D01*
X152797714Y-90510952D01*
X152750095Y-90320476D01*
X152702476Y-90225238D01*
X152607238Y-90130000D01*
X152464380Y-90082381D01*
X152369142Y-90082381D01*
X152226285Y-90130000D01*
X152178666Y-90177619D01*
X151845333Y-90082381D02*
X151226285Y-90082381D01*
X151559619Y-90463333D01*
X151416761Y-90463333D01*
X151321523Y-90510952D01*
X151273904Y-90558571D01*
X151226285Y-90653810D01*
X151226285Y-90891905D01*
X151273904Y-90987143D01*
X151321523Y-91034762D01*
X151416761Y-91082381D01*
X151702476Y-91082381D01*
X151797714Y-91034762D01*
X151845333Y-90987143D01*
X152178666Y-93019143D02*
X152226285Y-93066762D01*
X152369142Y-93114381D01*
X152464380Y-93114381D01*
X152607238Y-93066762D01*
X152702476Y-92971524D01*
X152750095Y-92876286D01*
X152797714Y-92685810D01*
X152797714Y-92542952D01*
X152750095Y-92352476D01*
X152702476Y-92257238D01*
X152607238Y-92162000D01*
X152464380Y-92114381D01*
X152369142Y-92114381D01*
X152226285Y-92162000D01*
X152178666Y-92209619D01*
X151321523Y-92447714D02*
X151321523Y-93114381D01*
X151559619Y-92066762D02*
X151797714Y-92781048D01*
X151178666Y-92781048D01*
X165772143Y-91733334D02*
X165819762Y-91685715D01*
X165867381Y-91542858D01*
X165867381Y-91447620D01*
X165819762Y-91304762D01*
X165724524Y-91209524D01*
X165629286Y-91161905D01*
X165438810Y-91114286D01*
X165295952Y-91114286D01*
X165105476Y-91161905D01*
X165010238Y-91209524D01*
X164915000Y-91304762D01*
X164867381Y-91447620D01*
X164867381Y-91542858D01*
X164915000Y-91685715D01*
X164962619Y-91733334D01*
X164867381Y-92638096D02*
X164867381Y-92161905D01*
X165343571Y-92114286D01*
X165295952Y-92161905D01*
X165248333Y-92257143D01*
X165248333Y-92495239D01*
X165295952Y-92590477D01*
X165343571Y-92638096D01*
X165438810Y-92685715D01*
X165676905Y-92685715D01*
X165772143Y-92638096D01*
X165819762Y-92590477D01*
X165867381Y-92495239D01*
X165867381Y-92257143D01*
X165819762Y-92161905D01*
X165772143Y-92114286D01*
X149384666Y-79557143D02*
X149432285Y-79604762D01*
X149575142Y-79652381D01*
X149670380Y-79652381D01*
X149813238Y-79604762D01*
X149908476Y-79509524D01*
X149956095Y-79414286D01*
X150003714Y-79223810D01*
X150003714Y-79080952D01*
X149956095Y-78890476D01*
X149908476Y-78795238D01*
X149813238Y-78700000D01*
X149670380Y-78652381D01*
X149575142Y-78652381D01*
X149432285Y-78700000D01*
X149384666Y-78747619D01*
X149051333Y-78652381D02*
X148384666Y-78652381D01*
X148813238Y-79652381D01*
X149384666Y-77779143D02*
X149432285Y-77826762D01*
X149575142Y-77874381D01*
X149670380Y-77874381D01*
X149813238Y-77826762D01*
X149908476Y-77731524D01*
X149956095Y-77636286D01*
X150003714Y-77445810D01*
X150003714Y-77302952D01*
X149956095Y-77112476D01*
X149908476Y-77017238D01*
X149813238Y-76922000D01*
X149670380Y-76874381D01*
X149575142Y-76874381D01*
X149432285Y-76922000D01*
X149384666Y-76969619D01*
X148813238Y-77302952D02*
X148908476Y-77255333D01*
X148956095Y-77207714D01*
X149003714Y-77112476D01*
X149003714Y-77064857D01*
X148956095Y-76969619D01*
X148908476Y-76922000D01*
X148813238Y-76874381D01*
X148622761Y-76874381D01*
X148527523Y-76922000D01*
X148479904Y-76969619D01*
X148432285Y-77064857D01*
X148432285Y-77112476D01*
X148479904Y-77207714D01*
X148527523Y-77255333D01*
X148622761Y-77302952D01*
X148813238Y-77302952D01*
X148908476Y-77350571D01*
X148956095Y-77398190D01*
X149003714Y-77493429D01*
X149003714Y-77683905D01*
X148956095Y-77779143D01*
X148908476Y-77826762D01*
X148813238Y-77874381D01*
X148622761Y-77874381D01*
X148527523Y-77826762D01*
X148479904Y-77779143D01*
X148432285Y-77683905D01*
X148432285Y-77493429D01*
X148479904Y-77398190D01*
X148527523Y-77350571D01*
X148622761Y-77302952D01*
X161259143Y-81827334D02*
X161306762Y-81779715D01*
X161354381Y-81636858D01*
X161354381Y-81541620D01*
X161306762Y-81398762D01*
X161211524Y-81303524D01*
X161116286Y-81255905D01*
X160925810Y-81208286D01*
X160782952Y-81208286D01*
X160592476Y-81255905D01*
X160497238Y-81303524D01*
X160402000Y-81398762D01*
X160354381Y-81541620D01*
X160354381Y-81636858D01*
X160402000Y-81779715D01*
X160449619Y-81827334D01*
X161354381Y-82303524D02*
X161354381Y-82494000D01*
X161306762Y-82589239D01*
X161259143Y-82636858D01*
X161116286Y-82732096D01*
X160925810Y-82779715D01*
X160544857Y-82779715D01*
X160449619Y-82732096D01*
X160402000Y-82684477D01*
X160354381Y-82589239D01*
X160354381Y-82398762D01*
X160402000Y-82303524D01*
X160449619Y-82255905D01*
X160544857Y-82208286D01*
X160782952Y-82208286D01*
X160878190Y-82255905D01*
X160925810Y-82303524D01*
X160973429Y-82398762D01*
X160973429Y-82589239D01*
X160925810Y-82684477D01*
X160878190Y-82732096D01*
X160782952Y-82779715D01*
X112491143Y-83891143D02*
X112538762Y-83843524D01*
X112586381Y-83700667D01*
X112586381Y-83605429D01*
X112538762Y-83462571D01*
X112443524Y-83367333D01*
X112348286Y-83319714D01*
X112157810Y-83272095D01*
X112014952Y-83272095D01*
X111824476Y-83319714D01*
X111729238Y-83367333D01*
X111634000Y-83462571D01*
X111586381Y-83605429D01*
X111586381Y-83700667D01*
X111634000Y-83843524D01*
X111681619Y-83891143D01*
X112586381Y-84843524D02*
X112586381Y-84272095D01*
X112586381Y-84557809D02*
X111586381Y-84557809D01*
X111729238Y-84462571D01*
X111824476Y-84367333D01*
X111872095Y-84272095D01*
X112586381Y-85795905D02*
X112586381Y-85224476D01*
X112586381Y-85510190D02*
X111586381Y-85510190D01*
X111729238Y-85414952D01*
X111824476Y-85319714D01*
X111872095Y-85224476D01*
X111252857Y-88193143D02*
X111300476Y-88240762D01*
X111443333Y-88288381D01*
X111538571Y-88288381D01*
X111681429Y-88240762D01*
X111776667Y-88145524D01*
X111824286Y-88050286D01*
X111871905Y-87859810D01*
X111871905Y-87716952D01*
X111824286Y-87526476D01*
X111776667Y-87431238D01*
X111681429Y-87336000D01*
X111538571Y-87288381D01*
X111443333Y-87288381D01*
X111300476Y-87336000D01*
X111252857Y-87383619D01*
X110300476Y-88288381D02*
X110871905Y-88288381D01*
X110586191Y-88288381D02*
X110586191Y-87288381D01*
X110681429Y-87431238D01*
X110776667Y-87526476D01*
X110871905Y-87574095D01*
X109919524Y-87383619D02*
X109871905Y-87336000D01*
X109776667Y-87288381D01*
X109538571Y-87288381D01*
X109443333Y-87336000D01*
X109395714Y-87383619D01*
X109348095Y-87478857D01*
X109348095Y-87574095D01*
X109395714Y-87716952D01*
X109967143Y-88288381D01*
X109348095Y-88288381D01*
X176903905Y-94908381D02*
X176903905Y-95717905D01*
X176856286Y-95813143D01*
X176808667Y-95860762D01*
X176713429Y-95908381D01*
X176522952Y-95908381D01*
X176427714Y-95860762D01*
X176380095Y-95813143D01*
X176332476Y-95717905D01*
X176332476Y-94908381D01*
X175951524Y-94908381D02*
X175284857Y-94908381D01*
X175713429Y-95908381D01*
X173705143Y-87701143D02*
X173752762Y-87653524D01*
X173800381Y-87510667D01*
X173800381Y-87415429D01*
X173752762Y-87272571D01*
X173657524Y-87177333D01*
X173562286Y-87129714D01*
X173371810Y-87082095D01*
X173228952Y-87082095D01*
X173038476Y-87129714D01*
X172943238Y-87177333D01*
X172848000Y-87272571D01*
X172800381Y-87415429D01*
X172800381Y-87510667D01*
X172848000Y-87653524D01*
X172895619Y-87701143D01*
X173800381Y-88653524D02*
X173800381Y-88082095D01*
X173800381Y-88367809D02*
X172800381Y-88367809D01*
X172943238Y-88272571D01*
X173038476Y-88177333D01*
X173086095Y-88082095D01*
X172800381Y-88986857D02*
X172800381Y-89605905D01*
X173181333Y-89272571D01*
X173181333Y-89415429D01*
X173228952Y-89510667D01*
X173276571Y-89558286D01*
X173371810Y-89605905D01*
X173609905Y-89605905D01*
X173705143Y-89558286D01*
X173752762Y-89510667D01*
X173800381Y-89415429D01*
X173800381Y-89129714D01*
X173752762Y-89034476D01*
X173705143Y-88986857D01*
X175983238Y-88129619D02*
X176078476Y-88082000D01*
X176173714Y-87986762D01*
X176316571Y-87843905D01*
X176411810Y-87796286D01*
X176507048Y-87796286D01*
X176459429Y-88034381D02*
X176554667Y-87986762D01*
X176649905Y-87891524D01*
X176697524Y-87701048D01*
X176697524Y-87367714D01*
X176649905Y-87177238D01*
X176554667Y-87082000D01*
X176459429Y-87034381D01*
X176268952Y-87034381D01*
X176173714Y-87082000D01*
X176078476Y-87177238D01*
X176030857Y-87367714D01*
X176030857Y-87701048D01*
X176078476Y-87891524D01*
X176173714Y-87986762D01*
X176268952Y-88034381D01*
X176459429Y-88034381D01*
X175078476Y-88034381D02*
X175649905Y-88034381D01*
X175364191Y-88034381D02*
X175364191Y-87034381D01*
X175459429Y-87177238D01*
X175554667Y-87272476D01*
X175649905Y-87320095D01*
X172325238Y-74072619D02*
X172420476Y-74025000D01*
X172515714Y-73929762D01*
X172658571Y-73786905D01*
X172753810Y-73739286D01*
X172849048Y-73739286D01*
X172801429Y-73977381D02*
X172896667Y-73929762D01*
X172991905Y-73834524D01*
X173039524Y-73644048D01*
X173039524Y-73310714D01*
X172991905Y-73120238D01*
X172896667Y-73025000D01*
X172801429Y-72977381D01*
X172610952Y-72977381D01*
X172515714Y-73025000D01*
X172420476Y-73120238D01*
X172372857Y-73310714D01*
X172372857Y-73644048D01*
X172420476Y-73834524D01*
X172515714Y-73929762D01*
X172610952Y-73977381D01*
X172801429Y-73977381D01*
X171991905Y-73072619D02*
X171944286Y-73025000D01*
X171849048Y-72977381D01*
X171610952Y-72977381D01*
X171515714Y-73025000D01*
X171468095Y-73072619D01*
X171420476Y-73167857D01*
X171420476Y-73263095D01*
X171468095Y-73405952D01*
X172039524Y-73977381D01*
X171420476Y-73977381D01*
X152178666Y-97337143D02*
X152226285Y-97384762D01*
X152369142Y-97432381D01*
X152464380Y-97432381D01*
X152607238Y-97384762D01*
X152702476Y-97289524D01*
X152750095Y-97194286D01*
X152797714Y-97003810D01*
X152797714Y-96860952D01*
X152750095Y-96670476D01*
X152702476Y-96575238D01*
X152607238Y-96480000D01*
X152464380Y-96432381D01*
X152369142Y-96432381D01*
X152226285Y-96480000D01*
X152178666Y-96527619D01*
X151797714Y-96527619D02*
X151750095Y-96480000D01*
X151654857Y-96432381D01*
X151416761Y-96432381D01*
X151321523Y-96480000D01*
X151273904Y-96527619D01*
X151226285Y-96622857D01*
X151226285Y-96718095D01*
X151273904Y-96860952D01*
X151845333Y-97432381D01*
X151226285Y-97432381D01*
X149892666Y-82859143D02*
X149940285Y-82906762D01*
X150083142Y-82954381D01*
X150178380Y-82954381D01*
X150321238Y-82906762D01*
X150416476Y-82811524D01*
X150464095Y-82716286D01*
X150511714Y-82525810D01*
X150511714Y-82382952D01*
X150464095Y-82192476D01*
X150416476Y-82097238D01*
X150321238Y-82002000D01*
X150178380Y-81954381D01*
X150083142Y-81954381D01*
X149940285Y-82002000D01*
X149892666Y-82049619D01*
X149035523Y-81954381D02*
X149226000Y-81954381D01*
X149321238Y-82002000D01*
X149368857Y-82049619D01*
X149464095Y-82192476D01*
X149511714Y-82382952D01*
X149511714Y-82763905D01*
X149464095Y-82859143D01*
X149416476Y-82906762D01*
X149321238Y-82954381D01*
X149130761Y-82954381D01*
X149035523Y-82906762D01*
X148987904Y-82859143D01*
X148940285Y-82763905D01*
X148940285Y-82525810D01*
X148987904Y-82430571D01*
X149035523Y-82382952D01*
X149130761Y-82335333D01*
X149321238Y-82335333D01*
X149416476Y-82382952D01*
X149464095Y-82430571D01*
X149511714Y-82525810D01*
X109982857Y-79562143D02*
X110030476Y-79609762D01*
X110173333Y-79657381D01*
X110268571Y-79657381D01*
X110411429Y-79609762D01*
X110506667Y-79514524D01*
X110554286Y-79419286D01*
X110601905Y-79228810D01*
X110601905Y-79085952D01*
X110554286Y-78895476D01*
X110506667Y-78800238D01*
X110411429Y-78705000D01*
X110268571Y-78657381D01*
X110173333Y-78657381D01*
X110030476Y-78705000D01*
X109982857Y-78752619D01*
X109030476Y-79657381D02*
X109601905Y-79657381D01*
X109316191Y-79657381D02*
X109316191Y-78657381D01*
X109411429Y-78800238D01*
X109506667Y-78895476D01*
X109601905Y-78943095D01*
X108411429Y-78657381D02*
X108316190Y-78657381D01*
X108220952Y-78705000D01*
X108173333Y-78752619D01*
X108125714Y-78847857D01*
X108078095Y-79038333D01*
X108078095Y-79276429D01*
X108125714Y-79466905D01*
X108173333Y-79562143D01*
X108220952Y-79609762D01*
X108316190Y-79657381D01*
X108411429Y-79657381D01*
X108506667Y-79609762D01*
X108554286Y-79562143D01*
X108601905Y-79466905D01*
X108649524Y-79276429D01*
X108649524Y-79038333D01*
X108601905Y-78847857D01*
X108554286Y-78752619D01*
X108506667Y-78705000D01*
X108411429Y-78657381D01*
X175737143Y-72207143D02*
X175784762Y-72159524D01*
X175832381Y-72016667D01*
X175832381Y-71921429D01*
X175784762Y-71778571D01*
X175689524Y-71683333D01*
X175594286Y-71635714D01*
X175403810Y-71588095D01*
X175260952Y-71588095D01*
X175070476Y-71635714D01*
X174975238Y-71683333D01*
X174880000Y-71778571D01*
X174832381Y-71921429D01*
X174832381Y-72016667D01*
X174880000Y-72159524D01*
X174927619Y-72207143D01*
X175832381Y-73159524D02*
X175832381Y-72588095D01*
X175832381Y-72873809D02*
X174832381Y-72873809D01*
X174975238Y-72778571D01*
X175070476Y-72683333D01*
X175118095Y-72588095D01*
X175165714Y-74016667D02*
X175832381Y-74016667D01*
X174784762Y-73778571D02*
X175499048Y-73540476D01*
X175499048Y-74159524D01*
X167418666Y-82700381D02*
X167752000Y-82224190D01*
X167990095Y-82700381D02*
X167990095Y-81700381D01*
X167609142Y-81700381D01*
X167513904Y-81748000D01*
X167466285Y-81795619D01*
X167418666Y-81890857D01*
X167418666Y-82033714D01*
X167466285Y-82128952D01*
X167513904Y-82176571D01*
X167609142Y-82224190D01*
X167990095Y-82224190D01*
X166466285Y-82700381D02*
X167037714Y-82700381D01*
X166752000Y-82700381D02*
X166752000Y-81700381D01*
X166847238Y-81843238D01*
X166942476Y-81938476D01*
X167037714Y-81986095D01*
X175192381Y-82081334D02*
X174716190Y-81748000D01*
X175192381Y-81509905D02*
X174192381Y-81509905D01*
X174192381Y-81890858D01*
X174240000Y-81986096D01*
X174287619Y-82033715D01*
X174382857Y-82081334D01*
X174525714Y-82081334D01*
X174620952Y-82033715D01*
X174668571Y-81986096D01*
X174716190Y-81890858D01*
X174716190Y-81509905D01*
X174287619Y-82462286D02*
X174240000Y-82509905D01*
X174192381Y-82605143D01*
X174192381Y-82843239D01*
X174240000Y-82938477D01*
X174287619Y-82986096D01*
X174382857Y-83033715D01*
X174478095Y-83033715D01*
X174620952Y-82986096D01*
X175192381Y-82414667D01*
X175192381Y-83033715D01*
X177578666Y-82700381D02*
X177912000Y-82224190D01*
X178150095Y-82700381D02*
X178150095Y-81700381D01*
X177769142Y-81700381D01*
X177673904Y-81748000D01*
X177626285Y-81795619D01*
X177578666Y-81890857D01*
X177578666Y-82033714D01*
X177626285Y-82128952D01*
X177673904Y-82176571D01*
X177769142Y-82224190D01*
X178150095Y-82224190D01*
X176721523Y-82033714D02*
X176721523Y-82700381D01*
X176959619Y-81652762D02*
X177197714Y-82367048D01*
X176578666Y-82367048D01*
X174562381Y-73191334D02*
X174086190Y-72858000D01*
X174562381Y-72619905D02*
X173562381Y-72619905D01*
X173562381Y-73000858D01*
X173610000Y-73096096D01*
X173657619Y-73143715D01*
X173752857Y-73191334D01*
X173895714Y-73191334D01*
X173990952Y-73143715D01*
X174038571Y-73096096D01*
X174086190Y-73000858D01*
X174086190Y-72619905D01*
X173562381Y-74096096D02*
X173562381Y-73619905D01*
X174038571Y-73572286D01*
X173990952Y-73619905D01*
X173943333Y-73715143D01*
X173943333Y-73953239D01*
X173990952Y-74048477D01*
X174038571Y-74096096D01*
X174133810Y-74143715D01*
X174371905Y-74143715D01*
X174467143Y-74096096D01*
X174514762Y-74048477D01*
X174562381Y-73953239D01*
X174562381Y-73715143D01*
X174514762Y-73619905D01*
X174467143Y-73572286D01*
X180658381Y-84748334D02*
X180182190Y-84415000D01*
X180658381Y-84176905D02*
X179658381Y-84176905D01*
X179658381Y-84557858D01*
X179706000Y-84653096D01*
X179753619Y-84700715D01*
X179848857Y-84748334D01*
X179991714Y-84748334D01*
X180086952Y-84700715D01*
X180134571Y-84653096D01*
X180182190Y-84557858D01*
X180182190Y-84176905D01*
X179658381Y-85605477D02*
X179658381Y-85415000D01*
X179706000Y-85319762D01*
X179753619Y-85272143D01*
X179896476Y-85176905D01*
X180086952Y-85129286D01*
X180467905Y-85129286D01*
X180563143Y-85176905D01*
X180610762Y-85224524D01*
X180658381Y-85319762D01*
X180658381Y-85510239D01*
X180610762Y-85605477D01*
X180563143Y-85653096D01*
X180467905Y-85700715D01*
X180229810Y-85700715D01*
X180134571Y-85653096D01*
X180086952Y-85605477D01*
X180039333Y-85510239D01*
X180039333Y-85319762D01*
X180086952Y-85224524D01*
X180134571Y-85176905D01*
X180229810Y-85129286D01*
X114872381Y-81319334D02*
X114396190Y-80986000D01*
X114872381Y-80747905D02*
X113872381Y-80747905D01*
X113872381Y-81128858D01*
X113920000Y-81224096D01*
X113967619Y-81271715D01*
X114062857Y-81319334D01*
X114205714Y-81319334D01*
X114300952Y-81271715D01*
X114348571Y-81224096D01*
X114396190Y-81128858D01*
X114396190Y-80747905D01*
X113872381Y-81652667D02*
X113872381Y-82319334D01*
X114872381Y-81890762D01*
X169990381Y-77255334D02*
X169514190Y-76922000D01*
X169990381Y-76683905D02*
X168990381Y-76683905D01*
X168990381Y-77064858D01*
X169038000Y-77160096D01*
X169085619Y-77207715D01*
X169180857Y-77255334D01*
X169323714Y-77255334D01*
X169418952Y-77207715D01*
X169466571Y-77160096D01*
X169514190Y-77064858D01*
X169514190Y-76683905D01*
X169418952Y-77826762D02*
X169371333Y-77731524D01*
X169323714Y-77683905D01*
X169228476Y-77636286D01*
X169180857Y-77636286D01*
X169085619Y-77683905D01*
X169038000Y-77731524D01*
X168990381Y-77826762D01*
X168990381Y-78017239D01*
X169038000Y-78112477D01*
X169085619Y-78160096D01*
X169180857Y-78207715D01*
X169228476Y-78207715D01*
X169323714Y-78160096D01*
X169371333Y-78112477D01*
X169418952Y-78017239D01*
X169418952Y-77826762D01*
X169466571Y-77731524D01*
X169514190Y-77683905D01*
X169609429Y-77636286D01*
X169799905Y-77636286D01*
X169895143Y-77683905D01*
X169942762Y-77731524D01*
X169990381Y-77826762D01*
X169990381Y-78017239D01*
X169942762Y-78112477D01*
X169895143Y-78160096D01*
X169799905Y-78207715D01*
X169609429Y-78207715D01*
X169514190Y-78160096D01*
X169466571Y-78112477D01*
X169418952Y-78017239D01*
X128968381Y-105748334D02*
X128492190Y-105415000D01*
X128968381Y-105176905D02*
X127968381Y-105176905D01*
X127968381Y-105557858D01*
X128016000Y-105653096D01*
X128063619Y-105700715D01*
X128158857Y-105748334D01*
X128301714Y-105748334D01*
X128396952Y-105700715D01*
X128444571Y-105653096D01*
X128492190Y-105557858D01*
X128492190Y-105176905D01*
X128968381Y-106224524D02*
X128968381Y-106415000D01*
X128920762Y-106510239D01*
X128873143Y-106557858D01*
X128730286Y-106653096D01*
X128539810Y-106700715D01*
X128158857Y-106700715D01*
X128063619Y-106653096D01*
X128016000Y-106605477D01*
X127968381Y-106510239D01*
X127968381Y-106319762D01*
X128016000Y-106224524D01*
X128063619Y-106176905D01*
X128158857Y-106129286D01*
X128396952Y-106129286D01*
X128492190Y-106176905D01*
X128539810Y-106224524D01*
X128587429Y-106319762D01*
X128587429Y-106510239D01*
X128539810Y-106605477D01*
X128492190Y-106653096D01*
X128396952Y-106700715D01*
X153416857Y-104036381D02*
X153750191Y-103560190D01*
X153988286Y-104036381D02*
X153988286Y-103036381D01*
X153607333Y-103036381D01*
X153512095Y-103084000D01*
X153464476Y-103131619D01*
X153416857Y-103226857D01*
X153416857Y-103369714D01*
X153464476Y-103464952D01*
X153512095Y-103512571D01*
X153607333Y-103560190D01*
X153988286Y-103560190D01*
X152464476Y-104036381D02*
X153035905Y-104036381D01*
X152750191Y-104036381D02*
X152750191Y-103036381D01*
X152845429Y-103179238D01*
X152940667Y-103274476D01*
X153035905Y-103322095D01*
X151845429Y-103036381D02*
X151750190Y-103036381D01*
X151654952Y-103084000D01*
X151607333Y-103131619D01*
X151559714Y-103226857D01*
X151512095Y-103417333D01*
X151512095Y-103655429D01*
X151559714Y-103845905D01*
X151607333Y-103941143D01*
X151654952Y-103988762D01*
X151750190Y-104036381D01*
X151845429Y-104036381D01*
X151940667Y-103988762D01*
X151988286Y-103941143D01*
X152035905Y-103845905D01*
X152083524Y-103655429D01*
X152083524Y-103417333D01*
X152035905Y-103226857D01*
X151988286Y-103131619D01*
X151940667Y-103084000D01*
X151845429Y-103036381D01*
X182118857Y-78636381D02*
X182452191Y-78160190D01*
X182690286Y-78636381D02*
X182690286Y-77636381D01*
X182309333Y-77636381D01*
X182214095Y-77684000D01*
X182166476Y-77731619D01*
X182118857Y-77826857D01*
X182118857Y-77969714D01*
X182166476Y-78064952D01*
X182214095Y-78112571D01*
X182309333Y-78160190D01*
X182690286Y-78160190D01*
X181166476Y-78636381D02*
X181737905Y-78636381D01*
X181452191Y-78636381D02*
X181452191Y-77636381D01*
X181547429Y-77779238D01*
X181642667Y-77874476D01*
X181737905Y-77922095D01*
X180833143Y-77636381D02*
X180214095Y-77636381D01*
X180547429Y-78017333D01*
X180404571Y-78017333D01*
X180309333Y-78064952D01*
X180261714Y-78112571D01*
X180214095Y-78207810D01*
X180214095Y-78445905D01*
X180261714Y-78541143D01*
X180309333Y-78588762D01*
X180404571Y-78636381D01*
X180690286Y-78636381D01*
X180785524Y-78588762D01*
X180833143Y-78541143D01*
X152353238Y-96162381D02*
X152686572Y-95686190D01*
X152924667Y-96162381D02*
X152924667Y-95162381D01*
X152543714Y-95162381D01*
X152448476Y-95210000D01*
X152400857Y-95257619D01*
X152353238Y-95352857D01*
X152353238Y-95495714D01*
X152400857Y-95590952D01*
X152448476Y-95638571D01*
X152543714Y-95686190D01*
X152924667Y-95686190D01*
X151972286Y-95876667D02*
X151496095Y-95876667D01*
X152067524Y-96162381D02*
X151734191Y-95162381D01*
X151400857Y-96162381D01*
X150543714Y-96162381D02*
X151115143Y-96162381D01*
X150829429Y-96162381D02*
X150829429Y-95162381D01*
X150924667Y-95305238D01*
X151019905Y-95400476D01*
X151115143Y-95448095D01*
X112983238Y-82446381D02*
X113316572Y-81970190D01*
X113554667Y-82446381D02*
X113554667Y-81446381D01*
X113173714Y-81446381D01*
X113078476Y-81494000D01*
X113030857Y-81541619D01*
X112983238Y-81636857D01*
X112983238Y-81779714D01*
X113030857Y-81874952D01*
X113078476Y-81922571D01*
X113173714Y-81970190D01*
X113554667Y-81970190D01*
X112602286Y-82160667D02*
X112126095Y-82160667D01*
X112697524Y-82446381D02*
X112364191Y-81446381D01*
X112030857Y-82446381D01*
X111745143Y-81541619D02*
X111697524Y-81494000D01*
X111602286Y-81446381D01*
X111364190Y-81446381D01*
X111268952Y-81494000D01*
X111221333Y-81541619D01*
X111173714Y-81636857D01*
X111173714Y-81732095D01*
X111221333Y-81874952D01*
X111792762Y-82446381D01*
X111173714Y-82446381D01*
X149813238Y-81430381D02*
X150146572Y-80954190D01*
X150384667Y-81430381D02*
X150384667Y-80430381D01*
X150003714Y-80430381D01*
X149908476Y-80478000D01*
X149860857Y-80525619D01*
X149813238Y-80620857D01*
X149813238Y-80763714D01*
X149860857Y-80858952D01*
X149908476Y-80906571D01*
X150003714Y-80954190D01*
X150384667Y-80954190D01*
X149432286Y-81144667D02*
X148956095Y-81144667D01*
X149527524Y-81430381D02*
X149194191Y-80430381D01*
X148860857Y-81430381D01*
X148622762Y-80430381D02*
X148003714Y-80430381D01*
X148337048Y-80811333D01*
X148194190Y-80811333D01*
X148098952Y-80858952D01*
X148051333Y-80906571D01*
X148003714Y-81001810D01*
X148003714Y-81239905D01*
X148051333Y-81335143D01*
X148098952Y-81382762D01*
X148194190Y-81430381D01*
X148479905Y-81430381D01*
X148575143Y-81382762D01*
X148622762Y-81335143D01*
X158814381Y-94535334D02*
X158338190Y-94202000D01*
X158814381Y-93963905D02*
X157814381Y-93963905D01*
X157814381Y-94344858D01*
X157862000Y-94440096D01*
X157909619Y-94487715D01*
X158004857Y-94535334D01*
X158147714Y-94535334D01*
X158242952Y-94487715D01*
X158290571Y-94440096D01*
X158338190Y-94344858D01*
X158338190Y-93963905D01*
X158290571Y-95297239D02*
X158338190Y-95440096D01*
X158385810Y-95487715D01*
X158481048Y-95535334D01*
X158623905Y-95535334D01*
X158719143Y-95487715D01*
X158766762Y-95440096D01*
X158814381Y-95344858D01*
X158814381Y-94963905D01*
X157814381Y-94963905D01*
X157814381Y-95297239D01*
X157862000Y-95392477D01*
X157909619Y-95440096D01*
X158004857Y-95487715D01*
X158100095Y-95487715D01*
X158195333Y-95440096D01*
X158242952Y-95392477D01*
X158290571Y-95297239D01*
X158290571Y-94963905D01*
X158814381Y-96487715D02*
X158814381Y-95916286D01*
X158814381Y-96202000D02*
X157814381Y-96202000D01*
X157957238Y-96106762D01*
X158052476Y-96011524D01*
X158100095Y-95916286D01*
X106744381Y-80565334D02*
X106268190Y-80232000D01*
X106744381Y-79993905D02*
X105744381Y-79993905D01*
X105744381Y-80374858D01*
X105792000Y-80470096D01*
X105839619Y-80517715D01*
X105934857Y-80565334D01*
X106077714Y-80565334D01*
X106172952Y-80517715D01*
X106220571Y-80470096D01*
X106268190Y-80374858D01*
X106268190Y-79993905D01*
X106220571Y-81327239D02*
X106268190Y-81470096D01*
X106315810Y-81517715D01*
X106411048Y-81565334D01*
X106553905Y-81565334D01*
X106649143Y-81517715D01*
X106696762Y-81470096D01*
X106744381Y-81374858D01*
X106744381Y-80993905D01*
X105744381Y-80993905D01*
X105744381Y-81327239D01*
X105792000Y-81422477D01*
X105839619Y-81470096D01*
X105934857Y-81517715D01*
X106030095Y-81517715D01*
X106125333Y-81470096D01*
X106172952Y-81422477D01*
X106220571Y-81327239D01*
X106220571Y-80993905D01*
X105839619Y-81946286D02*
X105792000Y-81993905D01*
X105744381Y-82089143D01*
X105744381Y-82327239D01*
X105792000Y-82422477D01*
X105839619Y-82470096D01*
X105934857Y-82517715D01*
X106030095Y-82517715D01*
X106172952Y-82470096D01*
X106744381Y-81898667D01*
X106744381Y-82517715D01*
X156274381Y-81327334D02*
X155798190Y-80994000D01*
X156274381Y-80755905D02*
X155274381Y-80755905D01*
X155274381Y-81136858D01*
X155322000Y-81232096D01*
X155369619Y-81279715D01*
X155464857Y-81327334D01*
X155607714Y-81327334D01*
X155702952Y-81279715D01*
X155750571Y-81232096D01*
X155798190Y-81136858D01*
X155798190Y-80755905D01*
X155750571Y-82089239D02*
X155798190Y-82232096D01*
X155845810Y-82279715D01*
X155941048Y-82327334D01*
X156083905Y-82327334D01*
X156179143Y-82279715D01*
X156226762Y-82232096D01*
X156274381Y-82136858D01*
X156274381Y-81755905D01*
X155274381Y-81755905D01*
X155274381Y-82089239D01*
X155322000Y-82184477D01*
X155369619Y-82232096D01*
X155464857Y-82279715D01*
X155560095Y-82279715D01*
X155655333Y-82232096D01*
X155702952Y-82184477D01*
X155750571Y-82089239D01*
X155750571Y-81755905D01*
X155274381Y-82660667D02*
X155274381Y-83279715D01*
X155655333Y-82946381D01*
X155655333Y-83089239D01*
X155702952Y-83184477D01*
X155750571Y-83232096D01*
X155845810Y-83279715D01*
X156083905Y-83279715D01*
X156179143Y-83232096D01*
X156226762Y-83184477D01*
X156274381Y-83089239D01*
X156274381Y-82803524D01*
X156226762Y-82708286D01*
X156179143Y-82660667D01*
X129794857Y-86510381D02*
X130128191Y-86034190D01*
X130366286Y-86510381D02*
X130366286Y-85510381D01*
X129985333Y-85510381D01*
X129890095Y-85558000D01*
X129842476Y-85605619D01*
X129794857Y-85700857D01*
X129794857Y-85843714D01*
X129842476Y-85938952D01*
X129890095Y-85986571D01*
X129985333Y-86034190D01*
X130366286Y-86034190D01*
X128842476Y-86510381D02*
X129413905Y-86510381D01*
X129128191Y-86510381D02*
X129128191Y-85510381D01*
X129223429Y-85653238D01*
X129318667Y-85748476D01*
X129413905Y-85796095D01*
X127985333Y-85843714D02*
X127985333Y-86510381D01*
X128223429Y-85462762D02*
X128461524Y-86177048D01*
X127842476Y-86177048D01*
X129794857Y-84732381D02*
X130128191Y-84256190D01*
X130366286Y-84732381D02*
X130366286Y-83732381D01*
X129985333Y-83732381D01*
X129890095Y-83780000D01*
X129842476Y-83827619D01*
X129794857Y-83922857D01*
X129794857Y-84065714D01*
X129842476Y-84160952D01*
X129890095Y-84208571D01*
X129985333Y-84256190D01*
X130366286Y-84256190D01*
X128842476Y-84732381D02*
X129413905Y-84732381D01*
X129128191Y-84732381D02*
X129128191Y-83732381D01*
X129223429Y-83875238D01*
X129318667Y-83970476D01*
X129413905Y-84018095D01*
X127937714Y-83732381D02*
X128413905Y-83732381D01*
X128461524Y-84208571D01*
X128413905Y-84160952D01*
X128318667Y-84113333D01*
X128080571Y-84113333D01*
X127985333Y-84160952D01*
X127937714Y-84208571D01*
X127890095Y-84303810D01*
X127890095Y-84541905D01*
X127937714Y-84637143D01*
X127985333Y-84684762D01*
X128080571Y-84732381D01*
X128318667Y-84732381D01*
X128413905Y-84684762D01*
X128461524Y-84637143D01*
X129794857Y-82954381D02*
X130128191Y-82478190D01*
X130366286Y-82954381D02*
X130366286Y-81954381D01*
X129985333Y-81954381D01*
X129890095Y-82002000D01*
X129842476Y-82049619D01*
X129794857Y-82144857D01*
X129794857Y-82287714D01*
X129842476Y-82382952D01*
X129890095Y-82430571D01*
X129985333Y-82478190D01*
X130366286Y-82478190D01*
X128842476Y-82954381D02*
X129413905Y-82954381D01*
X129128191Y-82954381D02*
X129128191Y-81954381D01*
X129223429Y-82097238D01*
X129318667Y-82192476D01*
X129413905Y-82240095D01*
X127985333Y-81954381D02*
X128175810Y-81954381D01*
X128271048Y-82002000D01*
X128318667Y-82049619D01*
X128413905Y-82192476D01*
X128461524Y-82382952D01*
X128461524Y-82763905D01*
X128413905Y-82859143D01*
X128366286Y-82906762D01*
X128271048Y-82954381D01*
X128080571Y-82954381D01*
X127985333Y-82906762D01*
X127937714Y-82859143D01*
X127890095Y-82763905D01*
X127890095Y-82525810D01*
X127937714Y-82430571D01*
X127985333Y-82382952D01*
X128080571Y-82335333D01*
X128271048Y-82335333D01*
X128366286Y-82382952D01*
X128413905Y-82430571D01*
X128461524Y-82525810D01*
X129794857Y-80922381D02*
X130128191Y-80446190D01*
X130366286Y-80922381D02*
X130366286Y-79922381D01*
X129985333Y-79922381D01*
X129890095Y-79970000D01*
X129842476Y-80017619D01*
X129794857Y-80112857D01*
X129794857Y-80255714D01*
X129842476Y-80350952D01*
X129890095Y-80398571D01*
X129985333Y-80446190D01*
X130366286Y-80446190D01*
X128842476Y-80922381D02*
X129413905Y-80922381D01*
X129128191Y-80922381D02*
X129128191Y-79922381D01*
X129223429Y-80065238D01*
X129318667Y-80160476D01*
X129413905Y-80208095D01*
X128509143Y-79922381D02*
X127842476Y-79922381D01*
X128271048Y-80922381D01*
X130874381Y-76271143D02*
X130398190Y-75937809D01*
X130874381Y-75699714D02*
X129874381Y-75699714D01*
X129874381Y-76080667D01*
X129922000Y-76175905D01*
X129969619Y-76223524D01*
X130064857Y-76271143D01*
X130207714Y-76271143D01*
X130302952Y-76223524D01*
X130350571Y-76175905D01*
X130398190Y-76080667D01*
X130398190Y-75699714D01*
X130874381Y-77223524D02*
X130874381Y-76652095D01*
X130874381Y-76937809D02*
X129874381Y-76937809D01*
X130017238Y-76842571D01*
X130112476Y-76747333D01*
X130160095Y-76652095D01*
X130302952Y-77794952D02*
X130255333Y-77699714D01*
X130207714Y-77652095D01*
X130112476Y-77604476D01*
X130064857Y-77604476D01*
X129969619Y-77652095D01*
X129922000Y-77699714D01*
X129874381Y-77794952D01*
X129874381Y-77985429D01*
X129922000Y-78080667D01*
X129969619Y-78128286D01*
X130064857Y-78175905D01*
X130112476Y-78175905D01*
X130207714Y-78128286D01*
X130255333Y-78080667D01*
X130302952Y-77985429D01*
X130302952Y-77794952D01*
X130350571Y-77699714D01*
X130398190Y-77652095D01*
X130493429Y-77604476D01*
X130683905Y-77604476D01*
X130779143Y-77652095D01*
X130826762Y-77699714D01*
X130874381Y-77794952D01*
X130874381Y-77985429D01*
X130826762Y-78080667D01*
X130779143Y-78128286D01*
X130683905Y-78175905D01*
X130493429Y-78175905D01*
X130398190Y-78128286D01*
X130350571Y-78080667D01*
X130302952Y-77985429D01*
X132652381Y-76271143D02*
X132176190Y-75937809D01*
X132652381Y-75699714D02*
X131652381Y-75699714D01*
X131652381Y-76080667D01*
X131700000Y-76175905D01*
X131747619Y-76223524D01*
X131842857Y-76271143D01*
X131985714Y-76271143D01*
X132080952Y-76223524D01*
X132128571Y-76175905D01*
X132176190Y-76080667D01*
X132176190Y-75699714D01*
X132652381Y-77223524D02*
X132652381Y-76652095D01*
X132652381Y-76937809D02*
X131652381Y-76937809D01*
X131795238Y-76842571D01*
X131890476Y-76747333D01*
X131938095Y-76652095D01*
X132652381Y-77699714D02*
X132652381Y-77890190D01*
X132604762Y-77985429D01*
X132557143Y-78033048D01*
X132414286Y-78128286D01*
X132223810Y-78175905D01*
X131842857Y-78175905D01*
X131747619Y-78128286D01*
X131700000Y-78080667D01*
X131652381Y-77985429D01*
X131652381Y-77794952D01*
X131700000Y-77699714D01*
X131747619Y-77652095D01*
X131842857Y-77604476D01*
X132080952Y-77604476D01*
X132176190Y-77652095D01*
X132223810Y-77699714D01*
X132271429Y-77794952D01*
X132271429Y-77985429D01*
X132223810Y-78080667D01*
X132176190Y-78128286D01*
X132080952Y-78175905D01*
X134430381Y-76271143D02*
X133954190Y-75937809D01*
X134430381Y-75699714D02*
X133430381Y-75699714D01*
X133430381Y-76080667D01*
X133478000Y-76175905D01*
X133525619Y-76223524D01*
X133620857Y-76271143D01*
X133763714Y-76271143D01*
X133858952Y-76223524D01*
X133906571Y-76175905D01*
X133954190Y-76080667D01*
X133954190Y-75699714D01*
X133525619Y-76652095D02*
X133478000Y-76699714D01*
X133430381Y-76794952D01*
X133430381Y-77033048D01*
X133478000Y-77128286D01*
X133525619Y-77175905D01*
X133620857Y-77223524D01*
X133716095Y-77223524D01*
X133858952Y-77175905D01*
X134430381Y-76604476D01*
X134430381Y-77223524D01*
X133430381Y-77842571D02*
X133430381Y-77937810D01*
X133478000Y-78033048D01*
X133525619Y-78080667D01*
X133620857Y-78128286D01*
X133811333Y-78175905D01*
X134049429Y-78175905D01*
X134239905Y-78128286D01*
X134335143Y-78080667D01*
X134382762Y-78033048D01*
X134430381Y-77937810D01*
X134430381Y-77842571D01*
X134382762Y-77747333D01*
X134335143Y-77699714D01*
X134239905Y-77652095D01*
X134049429Y-77604476D01*
X133811333Y-77604476D01*
X133620857Y-77652095D01*
X133525619Y-77699714D01*
X133478000Y-77747333D01*
X133430381Y-77842571D01*
X136208381Y-76271143D02*
X135732190Y-75937809D01*
X136208381Y-75699714D02*
X135208381Y-75699714D01*
X135208381Y-76080667D01*
X135256000Y-76175905D01*
X135303619Y-76223524D01*
X135398857Y-76271143D01*
X135541714Y-76271143D01*
X135636952Y-76223524D01*
X135684571Y-76175905D01*
X135732190Y-76080667D01*
X135732190Y-75699714D01*
X135303619Y-76652095D02*
X135256000Y-76699714D01*
X135208381Y-76794952D01*
X135208381Y-77033048D01*
X135256000Y-77128286D01*
X135303619Y-77175905D01*
X135398857Y-77223524D01*
X135494095Y-77223524D01*
X135636952Y-77175905D01*
X136208381Y-76604476D01*
X136208381Y-77223524D01*
X136208381Y-78175905D02*
X136208381Y-77604476D01*
X136208381Y-77890190D02*
X135208381Y-77890190D01*
X135351238Y-77794952D01*
X135446476Y-77699714D01*
X135494095Y-77604476D01*
X123532095Y-83732381D02*
X123532095Y-84541905D01*
X123484476Y-84637143D01*
X123436857Y-84684762D01*
X123341619Y-84732381D01*
X123151142Y-84732381D01*
X123055904Y-84684762D01*
X123008285Y-84637143D01*
X122960666Y-84541905D01*
X122960666Y-83732381D01*
X121960666Y-84732381D02*
X122532095Y-84732381D01*
X122246381Y-84732381D02*
X122246381Y-83732381D01*
X122341619Y-83875238D01*
X122436857Y-83970476D01*
X122532095Y-84018095D01*
X121341619Y-83732381D02*
X121246380Y-83732381D01*
X121151142Y-83780000D01*
X121103523Y-83827619D01*
X121055904Y-83922857D01*
X121008285Y-84113333D01*
X121008285Y-84351429D01*
X121055904Y-84541905D01*
X121103523Y-84637143D01*
X121151142Y-84684762D01*
X121246380Y-84732381D01*
X121341619Y-84732381D01*
X121436857Y-84684762D01*
X121484476Y-84637143D01*
X121532095Y-84541905D01*
X121579714Y-84351429D01*
X121579714Y-84113333D01*
X121532095Y-83922857D01*
X121484476Y-83827619D01*
X121436857Y-83780000D01*
X121341619Y-83732381D01*
X180594857Y-88955143D02*
X180642476Y-89002762D01*
X180785333Y-89050381D01*
X180880571Y-89050381D01*
X181023429Y-89002762D01*
X181118667Y-88907524D01*
X181166286Y-88812286D01*
X181213905Y-88621810D01*
X181213905Y-88478952D01*
X181166286Y-88288476D01*
X181118667Y-88193238D01*
X181023429Y-88098000D01*
X180880571Y-88050381D01*
X180785333Y-88050381D01*
X180642476Y-88098000D01*
X180594857Y-88145619D01*
X179642476Y-89050381D02*
X180213905Y-89050381D01*
X179928191Y-89050381D02*
X179928191Y-88050381D01*
X180023429Y-88193238D01*
X180118667Y-88288476D01*
X180213905Y-88336095D01*
X179071048Y-88478952D02*
X179166286Y-88431333D01*
X179213905Y-88383714D01*
X179261524Y-88288476D01*
X179261524Y-88240857D01*
X179213905Y-88145619D01*
X179166286Y-88098000D01*
X179071048Y-88050381D01*
X178880571Y-88050381D01*
X178785333Y-88098000D01*
X178737714Y-88145619D01*
X178690095Y-88240857D01*
X178690095Y-88288476D01*
X178737714Y-88383714D01*
X178785333Y-88431333D01*
X178880571Y-88478952D01*
X179071048Y-88478952D01*
X179166286Y-88526571D01*
X179213905Y-88574190D01*
X179261524Y-88669429D01*
X179261524Y-88859905D01*
X179213905Y-88955143D01*
X179166286Y-89002762D01*
X179071048Y-89050381D01*
X178880571Y-89050381D01*
X178785333Y-89002762D01*
X178737714Y-88955143D01*
X178690095Y-88859905D01*
X178690095Y-88669429D01*
X178737714Y-88574190D01*
X178785333Y-88526571D01*
X178880571Y-88478952D01*
X145918095Y-68752381D02*
X145918095Y-69561905D01*
X145870476Y-69657143D01*
X145822857Y-69704762D01*
X145727619Y-69752381D01*
X145537142Y-69752381D01*
X145441904Y-69704762D01*
X145394285Y-69657143D01*
X145346666Y-69561905D01*
X145346666Y-68752381D01*
X144346666Y-69752381D02*
X144918095Y-69752381D01*
X144632381Y-69752381D02*
X144632381Y-68752381D01*
X144727619Y-68895238D01*
X144822857Y-68990476D01*
X144918095Y-69038095D01*
X143394285Y-69752381D02*
X143965714Y-69752381D01*
X143680000Y-69752381D02*
X143680000Y-68752381D01*
X143775238Y-68895238D01*
X143870476Y-68990476D01*
X143965714Y-69038095D01*
X106865381Y-114551095D02*
X107674905Y-114551095D01*
X107770143Y-114598714D01*
X107817762Y-114646333D01*
X107865381Y-114741571D01*
X107865381Y-114932048D01*
X107817762Y-115027286D01*
X107770143Y-115074905D01*
X107674905Y-115122524D01*
X106865381Y-115122524D01*
X106960619Y-115551095D02*
X106913000Y-115598714D01*
X106865381Y-115693952D01*
X106865381Y-115932048D01*
X106913000Y-116027286D01*
X106960619Y-116074905D01*
X107055857Y-116122524D01*
X107151095Y-116122524D01*
X107293952Y-116074905D01*
X107865381Y-115503476D01*
X107865381Y-116122524D01*
X123779667Y-95446333D02*
X123779667Y-95922524D01*
X124065381Y-95351095D02*
X123065381Y-95684428D01*
X124065381Y-96017762D01*
X124065381Y-96351095D02*
X123065381Y-96351095D01*
X123684429Y-96827285D02*
X123684429Y-97589190D01*
X123065381Y-97922523D02*
X123065381Y-98493952D01*
X124065381Y-98208237D02*
X123065381Y-98208237D01*
X124065381Y-98827285D02*
X123065381Y-98827285D01*
X124065381Y-99255857D02*
X123541571Y-99255857D01*
X123446333Y-99208238D01*
X123398714Y-99113000D01*
X123398714Y-98970142D01*
X123446333Y-98874904D01*
X123493952Y-98827285D01*
X124065381Y-99732047D02*
X123398714Y-99732047D01*
X123065381Y-99732047D02*
X123113000Y-99684428D01*
X123160619Y-99732047D01*
X123113000Y-99779666D01*
X123065381Y-99732047D01*
X123160619Y-99732047D01*
X123398714Y-100208237D02*
X124065381Y-100208237D01*
X123493952Y-100208237D02*
X123446333Y-100255856D01*
X123398714Y-100351094D01*
X123398714Y-100493952D01*
X123446333Y-100589190D01*
X123541571Y-100636809D01*
X124065381Y-100636809D01*
X124065381Y-101112999D02*
X123065381Y-101112999D01*
X123684429Y-101208237D02*
X124065381Y-101493952D01*
X123398714Y-101493952D02*
X123779667Y-101112999D01*
X124017762Y-102303476D02*
X124065381Y-102208238D01*
X124065381Y-102017761D01*
X124017762Y-101922523D01*
X123922524Y-101874904D01*
X123541571Y-101874904D01*
X123446333Y-101922523D01*
X123398714Y-102017761D01*
X123398714Y-102208238D01*
X123446333Y-102303476D01*
X123541571Y-102351095D01*
X123636810Y-102351095D01*
X123732048Y-101874904D01*
X124065381Y-102779666D02*
X123398714Y-102779666D01*
X123589190Y-102779666D02*
X123493952Y-102827285D01*
X123446333Y-102874904D01*
X123398714Y-102970142D01*
X123398714Y-103065381D01*
X123017762Y-104113000D02*
X124303476Y-103255857D01*
X123541571Y-104446333D02*
X123541571Y-104779667D01*
X124065381Y-104922524D02*
X124065381Y-104446333D01*
X123065381Y-104446333D01*
X123065381Y-104922524D01*
X124017762Y-105303476D02*
X124065381Y-105398714D01*
X124065381Y-105589190D01*
X124017762Y-105684429D01*
X123922524Y-105732048D01*
X123874905Y-105732048D01*
X123779667Y-105684429D01*
X123732048Y-105589190D01*
X123732048Y-105446333D01*
X123684429Y-105351095D01*
X123589190Y-105303476D01*
X123541571Y-105303476D01*
X123446333Y-105351095D01*
X123398714Y-105446333D01*
X123398714Y-105589190D01*
X123446333Y-105684429D01*
X123398714Y-106160619D02*
X124398714Y-106160619D01*
X123446333Y-106160619D02*
X123398714Y-106255857D01*
X123398714Y-106446334D01*
X123446333Y-106541572D01*
X123493952Y-106589191D01*
X123589190Y-106636810D01*
X123874905Y-106636810D01*
X123970143Y-106589191D01*
X124017762Y-106541572D01*
X124065381Y-106446334D01*
X124065381Y-106255857D01*
X124017762Y-106160619D01*
X124065381Y-107065381D02*
X123398714Y-107065381D01*
X123589190Y-107065381D02*
X123493952Y-107113000D01*
X123446333Y-107160619D01*
X123398714Y-107255857D01*
X123398714Y-107351096D01*
X124017762Y-108065382D02*
X124065381Y-107970144D01*
X124065381Y-107779667D01*
X124017762Y-107684429D01*
X123922524Y-107636810D01*
X123541571Y-107636810D01*
X123446333Y-107684429D01*
X123398714Y-107779667D01*
X123398714Y-107970144D01*
X123446333Y-108065382D01*
X123541571Y-108113001D01*
X123636810Y-108113001D01*
X123732048Y-107636810D01*
X124017762Y-108493953D02*
X124065381Y-108589191D01*
X124065381Y-108779667D01*
X124017762Y-108874906D01*
X123922524Y-108922525D01*
X123874905Y-108922525D01*
X123779667Y-108874906D01*
X123732048Y-108779667D01*
X123732048Y-108636810D01*
X123684429Y-108541572D01*
X123589190Y-108493953D01*
X123541571Y-108493953D01*
X123446333Y-108541572D01*
X123398714Y-108636810D01*
X123398714Y-108779667D01*
X123446333Y-108874906D01*
X124017762Y-109303477D02*
X124065381Y-109398715D01*
X124065381Y-109589191D01*
X124017762Y-109684430D01*
X123922524Y-109732049D01*
X123874905Y-109732049D01*
X123779667Y-109684430D01*
X123732048Y-109589191D01*
X123732048Y-109446334D01*
X123684429Y-109351096D01*
X123589190Y-109303477D01*
X123541571Y-109303477D01*
X123446333Y-109351096D01*
X123398714Y-109446334D01*
X123398714Y-109589191D01*
X123446333Y-109684430D01*
X124065381Y-110160620D02*
X123398714Y-110160620D01*
X123065381Y-110160620D02*
X123113000Y-110113001D01*
X123160619Y-110160620D01*
X123113000Y-110208239D01*
X123065381Y-110160620D01*
X123160619Y-110160620D01*
X123398714Y-110493953D02*
X123398714Y-110874905D01*
X124065381Y-110636810D02*
X123208238Y-110636810D01*
X123113000Y-110684429D01*
X123065381Y-110779667D01*
X123065381Y-110874905D01*
X122041571Y-95474905D02*
X122041571Y-95808239D01*
X122565381Y-95951096D02*
X122565381Y-95474905D01*
X121565381Y-95474905D01*
X121565381Y-95951096D01*
X122517762Y-96332048D02*
X122565381Y-96474905D01*
X122565381Y-96713001D01*
X122517762Y-96808239D01*
X122470143Y-96855858D01*
X122374905Y-96903477D01*
X122279667Y-96903477D01*
X122184429Y-96855858D01*
X122136810Y-96808239D01*
X122089190Y-96713001D01*
X122041571Y-96522524D01*
X121993952Y-96427286D01*
X121946333Y-96379667D01*
X121851095Y-96332048D01*
X121755857Y-96332048D01*
X121660619Y-96379667D01*
X121613000Y-96427286D01*
X121565381Y-96522524D01*
X121565381Y-96760620D01*
X121613000Y-96903477D01*
X122565381Y-97332048D02*
X121565381Y-97332048D01*
X121565381Y-97713001D01*
X121613000Y-97808239D01*
X121660619Y-97855858D01*
X121755857Y-97903477D01*
X121898714Y-97903477D01*
X121993952Y-97855858D01*
X122041571Y-97808239D01*
X122089190Y-97713001D01*
X122089190Y-97332048D01*
X122184429Y-98332048D02*
X122184429Y-99093953D01*
X121565381Y-99474905D02*
X121565381Y-100093953D01*
X121946333Y-99760619D01*
X121946333Y-99903477D01*
X121993952Y-99998715D01*
X122041571Y-100046334D01*
X122136810Y-100093953D01*
X122374905Y-100093953D01*
X122470143Y-100046334D01*
X122517762Y-99998715D01*
X122565381Y-99903477D01*
X122565381Y-99617762D01*
X122517762Y-99522524D01*
X122470143Y-99474905D01*
X121660619Y-100474905D02*
X121613000Y-100522524D01*
X121565381Y-100617762D01*
X121565381Y-100855858D01*
X121613000Y-100951096D01*
X121660619Y-100998715D01*
X121755857Y-101046334D01*
X121851095Y-101046334D01*
X121993952Y-100998715D01*
X122565381Y-100427286D01*
X122565381Y-101046334D01*
X122517762Y-101427286D02*
X122565381Y-101570143D01*
X122565381Y-101808239D01*
X122517762Y-101903477D01*
X122470143Y-101951096D01*
X122374905Y-101998715D01*
X122279667Y-101998715D01*
X122184429Y-101951096D01*
X122136810Y-101903477D01*
X122089190Y-101808239D01*
X122041571Y-101617762D01*
X121993952Y-101522524D01*
X121946333Y-101474905D01*
X121851095Y-101427286D01*
X121755857Y-101427286D01*
X121660619Y-101474905D01*
X121613000Y-101522524D01*
X121565381Y-101617762D01*
X121565381Y-101855858D01*
X121613000Y-101998715D01*
X163132381Y-67349334D02*
X162656190Y-67016000D01*
X163132381Y-66777905D02*
X162132381Y-66777905D01*
X162132381Y-67158858D01*
X162180000Y-67254096D01*
X162227619Y-67301715D01*
X162322857Y-67349334D01*
X162465714Y-67349334D01*
X162560952Y-67301715D01*
X162608571Y-67254096D01*
X162656190Y-67158858D01*
X162656190Y-66777905D01*
X162132381Y-67682667D02*
X162132381Y-68301715D01*
X162513333Y-67968381D01*
X162513333Y-68111239D01*
X162560952Y-68206477D01*
X162608571Y-68254096D01*
X162703810Y-68301715D01*
X162941905Y-68301715D01*
X163037143Y-68254096D01*
X163084762Y-68206477D01*
X163132381Y-68111239D01*
X163132381Y-67825524D01*
X163084762Y-67730286D01*
X163037143Y-67682667D01*
X142172381Y-64587143D02*
X141696190Y-64253809D01*
X142172381Y-64015714D02*
X141172381Y-64015714D01*
X141172381Y-64396667D01*
X141220000Y-64491905D01*
X141267619Y-64539524D01*
X141362857Y-64587143D01*
X141505714Y-64587143D01*
X141600952Y-64539524D01*
X141648571Y-64491905D01*
X141696190Y-64396667D01*
X141696190Y-64015714D01*
X141267619Y-64968095D02*
X141220000Y-65015714D01*
X141172381Y-65110952D01*
X141172381Y-65349048D01*
X141220000Y-65444286D01*
X141267619Y-65491905D01*
X141362857Y-65539524D01*
X141458095Y-65539524D01*
X141600952Y-65491905D01*
X142172381Y-64920476D01*
X142172381Y-65539524D01*
X141267619Y-65920476D02*
X141220000Y-65968095D01*
X141172381Y-66063333D01*
X141172381Y-66301429D01*
X141220000Y-66396667D01*
X141267619Y-66444286D01*
X141362857Y-66491905D01*
X141458095Y-66491905D01*
X141600952Y-66444286D01*
X142172381Y-65872857D01*
X142172381Y-66491905D01*
X135954381Y-63317143D02*
X135478190Y-62983809D01*
X135954381Y-62745714D02*
X134954381Y-62745714D01*
X134954381Y-63126667D01*
X135002000Y-63221905D01*
X135049619Y-63269524D01*
X135144857Y-63317143D01*
X135287714Y-63317143D01*
X135382952Y-63269524D01*
X135430571Y-63221905D01*
X135478190Y-63126667D01*
X135478190Y-62745714D01*
X135049619Y-63698095D02*
X135002000Y-63745714D01*
X134954381Y-63840952D01*
X134954381Y-64079048D01*
X135002000Y-64174286D01*
X135049619Y-64221905D01*
X135144857Y-64269524D01*
X135240095Y-64269524D01*
X135382952Y-64221905D01*
X135954381Y-63650476D01*
X135954381Y-64269524D01*
X134954381Y-64602857D02*
X134954381Y-65221905D01*
X135335333Y-64888571D01*
X135335333Y-65031429D01*
X135382952Y-65126667D01*
X135430571Y-65174286D01*
X135525810Y-65221905D01*
X135763905Y-65221905D01*
X135859143Y-65174286D01*
X135906762Y-65126667D01*
X135954381Y-65031429D01*
X135954381Y-64745714D01*
X135906762Y-64650476D01*
X135859143Y-64602857D01*
X150940381Y-63825143D02*
X150464190Y-63491809D01*
X150940381Y-63253714D02*
X149940381Y-63253714D01*
X149940381Y-63634667D01*
X149988000Y-63729905D01*
X150035619Y-63777524D01*
X150130857Y-63825143D01*
X150273714Y-63825143D01*
X150368952Y-63777524D01*
X150416571Y-63729905D01*
X150464190Y-63634667D01*
X150464190Y-63253714D01*
X150035619Y-64206095D02*
X149988000Y-64253714D01*
X149940381Y-64348952D01*
X149940381Y-64587048D01*
X149988000Y-64682286D01*
X150035619Y-64729905D01*
X150130857Y-64777524D01*
X150226095Y-64777524D01*
X150368952Y-64729905D01*
X150940381Y-64158476D01*
X150940381Y-64777524D01*
X150273714Y-65634667D02*
X150940381Y-65634667D01*
X149892762Y-65396571D02*
X150607048Y-65158476D01*
X150607048Y-65777524D01*
X146558857Y-72794381D02*
X146892191Y-72318190D01*
X147130286Y-72794381D02*
X147130286Y-71794381D01*
X146749333Y-71794381D01*
X146654095Y-71842000D01*
X146606476Y-71889619D01*
X146558857Y-71984857D01*
X146558857Y-72127714D01*
X146606476Y-72222952D01*
X146654095Y-72270571D01*
X146749333Y-72318190D01*
X147130286Y-72318190D01*
X146177905Y-71889619D02*
X146130286Y-71842000D01*
X146035048Y-71794381D01*
X145796952Y-71794381D01*
X145701714Y-71842000D01*
X145654095Y-71889619D01*
X145606476Y-71984857D01*
X145606476Y-72080095D01*
X145654095Y-72222952D01*
X146225524Y-72794381D01*
X145606476Y-72794381D01*
X144701714Y-71794381D02*
X145177905Y-71794381D01*
X145225524Y-72270571D01*
X145177905Y-72222952D01*
X145082667Y-72175333D01*
X144844571Y-72175333D01*
X144749333Y-72222952D01*
X144701714Y-72270571D01*
X144654095Y-72365810D01*
X144654095Y-72603905D01*
X144701714Y-72699143D01*
X144749333Y-72746762D01*
X144844571Y-72794381D01*
X145082667Y-72794381D01*
X145177905Y-72746762D01*
X145225524Y-72699143D01*
X146558857Y-71270381D02*
X146892191Y-70794190D01*
X147130286Y-71270381D02*
X147130286Y-70270381D01*
X146749333Y-70270381D01*
X146654095Y-70318000D01*
X146606476Y-70365619D01*
X146558857Y-70460857D01*
X146558857Y-70603714D01*
X146606476Y-70698952D01*
X146654095Y-70746571D01*
X146749333Y-70794190D01*
X147130286Y-70794190D01*
X146177905Y-70365619D02*
X146130286Y-70318000D01*
X146035048Y-70270381D01*
X145796952Y-70270381D01*
X145701714Y-70318000D01*
X145654095Y-70365619D01*
X145606476Y-70460857D01*
X145606476Y-70556095D01*
X145654095Y-70698952D01*
X146225524Y-71270381D01*
X145606476Y-71270381D01*
X144749333Y-70270381D02*
X144939810Y-70270381D01*
X145035048Y-70318000D01*
X145082667Y-70365619D01*
X145177905Y-70508476D01*
X145225524Y-70698952D01*
X145225524Y-71079905D01*
X145177905Y-71175143D01*
X145130286Y-71222762D01*
X145035048Y-71270381D01*
X144844571Y-71270381D01*
X144749333Y-71222762D01*
X144701714Y-71175143D01*
X144654095Y-71079905D01*
X144654095Y-70841810D01*
X144701714Y-70746571D01*
X144749333Y-70698952D01*
X144844571Y-70651333D01*
X145035048Y-70651333D01*
X145130286Y-70698952D01*
X145177905Y-70746571D01*
X145225524Y-70841810D01*
X133596905Y-102292381D02*
X133596905Y-103101905D01*
X133549286Y-103197143D01*
X133501667Y-103244762D01*
X133406429Y-103292381D01*
X133215952Y-103292381D01*
X133120714Y-103244762D01*
X133073095Y-103197143D01*
X133025476Y-103101905D01*
X133025476Y-102292381D01*
X132120714Y-102292381D02*
X132311191Y-102292381D01*
X132406429Y-102340000D01*
X132454048Y-102387619D01*
X132549286Y-102530476D01*
X132596905Y-102720952D01*
X132596905Y-103101905D01*
X132549286Y-103197143D01*
X132501667Y-103244762D01*
X132406429Y-103292381D01*
X132215952Y-103292381D01*
X132120714Y-103244762D01*
X132073095Y-103197143D01*
X132025476Y-103101905D01*
X132025476Y-102863810D01*
X132073095Y-102768571D01*
X132120714Y-102720952D01*
X132215952Y-102673333D01*
X132406429Y-102673333D01*
X132501667Y-102720952D01*
X132549286Y-102768571D01*
X132596905Y-102863810D01*
X119952381Y-76525143D02*
X119476190Y-76191809D01*
X119952381Y-75953714D02*
X118952381Y-75953714D01*
X118952381Y-76334667D01*
X119000000Y-76429905D01*
X119047619Y-76477524D01*
X119142857Y-76525143D01*
X119285714Y-76525143D01*
X119380952Y-76477524D01*
X119428571Y-76429905D01*
X119476190Y-76334667D01*
X119476190Y-75953714D01*
X119952381Y-77477524D02*
X119952381Y-76906095D01*
X119952381Y-77191809D02*
X118952381Y-77191809D01*
X119095238Y-77096571D01*
X119190476Y-77001333D01*
X119238095Y-76906095D01*
X119952381Y-78429905D02*
X119952381Y-77858476D01*
X119952381Y-78144190D02*
X118952381Y-78144190D01*
X119095238Y-78048952D01*
X119190476Y-77953714D01*
X119238095Y-77858476D01*
X114808857Y-91590381D02*
X115142191Y-91114190D01*
X115380286Y-91590381D02*
X115380286Y-90590381D01*
X114999333Y-90590381D01*
X114904095Y-90638000D01*
X114856476Y-90685619D01*
X114808857Y-90780857D01*
X114808857Y-90923714D01*
X114856476Y-91018952D01*
X114904095Y-91066571D01*
X114999333Y-91114190D01*
X115380286Y-91114190D01*
X113856476Y-91590381D02*
X114427905Y-91590381D01*
X114142191Y-91590381D02*
X114142191Y-90590381D01*
X114237429Y-90733238D01*
X114332667Y-90828476D01*
X114427905Y-90876095D01*
X113475524Y-90685619D02*
X113427905Y-90638000D01*
X113332667Y-90590381D01*
X113094571Y-90590381D01*
X112999333Y-90638000D01*
X112951714Y-90685619D01*
X112904095Y-90780857D01*
X112904095Y-90876095D01*
X112951714Y-91018952D01*
X113523143Y-91590381D01*
X112904095Y-91590381D01*
X130112381Y-94813143D02*
X129636190Y-94479809D01*
X130112381Y-94241714D02*
X129112381Y-94241714D01*
X129112381Y-94622667D01*
X129160000Y-94717905D01*
X129207619Y-94765524D01*
X129302857Y-94813143D01*
X129445714Y-94813143D01*
X129540952Y-94765524D01*
X129588571Y-94717905D01*
X129636190Y-94622667D01*
X129636190Y-94241714D01*
X129207619Y-95194095D02*
X129160000Y-95241714D01*
X129112381Y-95336952D01*
X129112381Y-95575048D01*
X129160000Y-95670286D01*
X129207619Y-95717905D01*
X129302857Y-95765524D01*
X129398095Y-95765524D01*
X129540952Y-95717905D01*
X130112381Y-95146476D01*
X130112381Y-95765524D01*
X129112381Y-96098857D02*
X129112381Y-96765524D01*
X130112381Y-96336952D01*
X118174381Y-76525143D02*
X117698190Y-76191809D01*
X118174381Y-75953714D02*
X117174381Y-75953714D01*
X117174381Y-76334667D01*
X117222000Y-76429905D01*
X117269619Y-76477524D01*
X117364857Y-76525143D01*
X117507714Y-76525143D01*
X117602952Y-76477524D01*
X117650571Y-76429905D01*
X117698190Y-76334667D01*
X117698190Y-75953714D01*
X117269619Y-76906095D02*
X117222000Y-76953714D01*
X117174381Y-77048952D01*
X117174381Y-77287048D01*
X117222000Y-77382286D01*
X117269619Y-77429905D01*
X117364857Y-77477524D01*
X117460095Y-77477524D01*
X117602952Y-77429905D01*
X118174381Y-76858476D01*
X118174381Y-77477524D01*
X117602952Y-78048952D02*
X117555333Y-77953714D01*
X117507714Y-77906095D01*
X117412476Y-77858476D01*
X117364857Y-77858476D01*
X117269619Y-77906095D01*
X117222000Y-77953714D01*
X117174381Y-78048952D01*
X117174381Y-78239429D01*
X117222000Y-78334667D01*
X117269619Y-78382286D01*
X117364857Y-78429905D01*
X117412476Y-78429905D01*
X117507714Y-78382286D01*
X117555333Y-78334667D01*
X117602952Y-78239429D01*
X117602952Y-78048952D01*
X117650571Y-77953714D01*
X117698190Y-77906095D01*
X117793429Y-77858476D01*
X117983905Y-77858476D01*
X118079143Y-77906095D01*
X118126762Y-77953714D01*
X118174381Y-78048952D01*
X118174381Y-78239429D01*
X118126762Y-78334667D01*
X118079143Y-78382286D01*
X117983905Y-78429905D01*
X117793429Y-78429905D01*
X117698190Y-78382286D01*
X117650571Y-78334667D01*
X117602952Y-78239429D01*
X123190857Y-90828381D02*
X123524191Y-90352190D01*
X123762286Y-90828381D02*
X123762286Y-89828381D01*
X123381333Y-89828381D01*
X123286095Y-89876000D01*
X123238476Y-89923619D01*
X123190857Y-90018857D01*
X123190857Y-90161714D01*
X123238476Y-90256952D01*
X123286095Y-90304571D01*
X123381333Y-90352190D01*
X123762286Y-90352190D01*
X122809905Y-89923619D02*
X122762286Y-89876000D01*
X122667048Y-89828381D01*
X122428952Y-89828381D01*
X122333714Y-89876000D01*
X122286095Y-89923619D01*
X122238476Y-90018857D01*
X122238476Y-90114095D01*
X122286095Y-90256952D01*
X122857524Y-90828381D01*
X122238476Y-90828381D01*
X121762286Y-90828381D02*
X121571810Y-90828381D01*
X121476571Y-90780762D01*
X121428952Y-90733143D01*
X121333714Y-90590286D01*
X121286095Y-90399810D01*
X121286095Y-90018857D01*
X121333714Y-89923619D01*
X121381333Y-89876000D01*
X121476571Y-89828381D01*
X121667048Y-89828381D01*
X121762286Y-89876000D01*
X121809905Y-89923619D01*
X121857524Y-90018857D01*
X121857524Y-90256952D01*
X121809905Y-90352190D01*
X121762286Y-90399810D01*
X121667048Y-90447429D01*
X121476571Y-90447429D01*
X121381333Y-90399810D01*
X121333714Y-90352190D01*
X121286095Y-90256952D01*
X116142381Y-76525143D02*
X115666190Y-76191809D01*
X116142381Y-75953714D02*
X115142381Y-75953714D01*
X115142381Y-76334667D01*
X115190000Y-76429905D01*
X115237619Y-76477524D01*
X115332857Y-76525143D01*
X115475714Y-76525143D01*
X115570952Y-76477524D01*
X115618571Y-76429905D01*
X115666190Y-76334667D01*
X115666190Y-75953714D01*
X115142381Y-76858476D02*
X115142381Y-77477524D01*
X115523333Y-77144190D01*
X115523333Y-77287048D01*
X115570952Y-77382286D01*
X115618571Y-77429905D01*
X115713810Y-77477524D01*
X115951905Y-77477524D01*
X116047143Y-77429905D01*
X116094762Y-77382286D01*
X116142381Y-77287048D01*
X116142381Y-77001333D01*
X116094762Y-76906095D01*
X116047143Y-76858476D01*
X115142381Y-78096571D02*
X115142381Y-78191810D01*
X115190000Y-78287048D01*
X115237619Y-78334667D01*
X115332857Y-78382286D01*
X115523333Y-78429905D01*
X115761429Y-78429905D01*
X115951905Y-78382286D01*
X116047143Y-78334667D01*
X116094762Y-78287048D01*
X116142381Y-78191810D01*
X116142381Y-78096571D01*
X116094762Y-78001333D01*
X116047143Y-77953714D01*
X115951905Y-77906095D01*
X115761429Y-77858476D01*
X115523333Y-77858476D01*
X115332857Y-77906095D01*
X115237619Y-77953714D01*
X115190000Y-78001333D01*
X115142381Y-78096571D01*
X144272857Y-96802381D02*
X144606191Y-96326190D01*
X144844286Y-96802381D02*
X144844286Y-95802381D01*
X144463333Y-95802381D01*
X144368095Y-95850000D01*
X144320476Y-95897619D01*
X144272857Y-95992857D01*
X144272857Y-96135714D01*
X144320476Y-96230952D01*
X144368095Y-96278571D01*
X144463333Y-96326190D01*
X144844286Y-96326190D01*
X143939524Y-95802381D02*
X143320476Y-95802381D01*
X143653810Y-96183333D01*
X143510952Y-96183333D01*
X143415714Y-96230952D01*
X143368095Y-96278571D01*
X143320476Y-96373810D01*
X143320476Y-96611905D01*
X143368095Y-96707143D01*
X143415714Y-96754762D01*
X143510952Y-96802381D01*
X143796667Y-96802381D01*
X143891905Y-96754762D01*
X143939524Y-96707143D01*
X142368095Y-96802381D02*
X142939524Y-96802381D01*
X142653810Y-96802381D02*
X142653810Y-95802381D01*
X142749048Y-95945238D01*
X142844286Y-96040476D01*
X142939524Y-96088095D01*
X137922857Y-96802381D02*
X138256191Y-96326190D01*
X138494286Y-96802381D02*
X138494286Y-95802381D01*
X138113333Y-95802381D01*
X138018095Y-95850000D01*
X137970476Y-95897619D01*
X137922857Y-95992857D01*
X137922857Y-96135714D01*
X137970476Y-96230952D01*
X138018095Y-96278571D01*
X138113333Y-96326190D01*
X138494286Y-96326190D01*
X137589524Y-95802381D02*
X136970476Y-95802381D01*
X137303810Y-96183333D01*
X137160952Y-96183333D01*
X137065714Y-96230952D01*
X137018095Y-96278571D01*
X136970476Y-96373810D01*
X136970476Y-96611905D01*
X137018095Y-96707143D01*
X137065714Y-96754762D01*
X137160952Y-96802381D01*
X137446667Y-96802381D01*
X137541905Y-96754762D01*
X137589524Y-96707143D01*
X136589524Y-95897619D02*
X136541905Y-95850000D01*
X136446667Y-95802381D01*
X136208571Y-95802381D01*
X136113333Y-95850000D01*
X136065714Y-95897619D01*
X136018095Y-95992857D01*
X136018095Y-96088095D01*
X136065714Y-96230952D01*
X136637143Y-96802381D01*
X136018095Y-96802381D01*
X133477857Y-96802381D02*
X133811191Y-96326190D01*
X134049286Y-96802381D02*
X134049286Y-95802381D01*
X133668333Y-95802381D01*
X133573095Y-95850000D01*
X133525476Y-95897619D01*
X133477857Y-95992857D01*
X133477857Y-96135714D01*
X133525476Y-96230952D01*
X133573095Y-96278571D01*
X133668333Y-96326190D01*
X134049286Y-96326190D01*
X133144524Y-95802381D02*
X132525476Y-95802381D01*
X132858810Y-96183333D01*
X132715952Y-96183333D01*
X132620714Y-96230952D01*
X132573095Y-96278571D01*
X132525476Y-96373810D01*
X132525476Y-96611905D01*
X132573095Y-96707143D01*
X132620714Y-96754762D01*
X132715952Y-96802381D01*
X133001667Y-96802381D01*
X133096905Y-96754762D01*
X133144524Y-96707143D01*
X132192143Y-95802381D02*
X131573095Y-95802381D01*
X131906429Y-96183333D01*
X131763571Y-96183333D01*
X131668333Y-96230952D01*
X131620714Y-96278571D01*
X131573095Y-96373810D01*
X131573095Y-96611905D01*
X131620714Y-96707143D01*
X131668333Y-96754762D01*
X131763571Y-96802381D01*
X132049286Y-96802381D01*
X132144524Y-96754762D01*
X132192143Y-96707143D01*
X106236381Y-104211143D02*
X105760190Y-103877809D01*
X106236381Y-103639714D02*
X105236381Y-103639714D01*
X105236381Y-104020667D01*
X105284000Y-104115905D01*
X105331619Y-104163524D01*
X105426857Y-104211143D01*
X105569714Y-104211143D01*
X105664952Y-104163524D01*
X105712571Y-104115905D01*
X105760190Y-104020667D01*
X105760190Y-103639714D01*
X105236381Y-104544476D02*
X105236381Y-105163524D01*
X105617333Y-104830190D01*
X105617333Y-104973048D01*
X105664952Y-105068286D01*
X105712571Y-105115905D01*
X105807810Y-105163524D01*
X106045905Y-105163524D01*
X106141143Y-105115905D01*
X106188762Y-105068286D01*
X106236381Y-104973048D01*
X106236381Y-104687333D01*
X106188762Y-104592095D01*
X106141143Y-104544476D01*
X105569714Y-106020667D02*
X106236381Y-106020667D01*
X105188762Y-105782571D02*
X105903048Y-105544476D01*
X105903048Y-106163524D01*
X106236381Y-100909143D02*
X105760190Y-100575809D01*
X106236381Y-100337714D02*
X105236381Y-100337714D01*
X105236381Y-100718667D01*
X105284000Y-100813905D01*
X105331619Y-100861524D01*
X105426857Y-100909143D01*
X105569714Y-100909143D01*
X105664952Y-100861524D01*
X105712571Y-100813905D01*
X105760190Y-100718667D01*
X105760190Y-100337714D01*
X105236381Y-101242476D02*
X105236381Y-101861524D01*
X105617333Y-101528190D01*
X105617333Y-101671048D01*
X105664952Y-101766286D01*
X105712571Y-101813905D01*
X105807810Y-101861524D01*
X106045905Y-101861524D01*
X106141143Y-101813905D01*
X106188762Y-101766286D01*
X106236381Y-101671048D01*
X106236381Y-101385333D01*
X106188762Y-101290095D01*
X106141143Y-101242476D01*
X105236381Y-102766286D02*
X105236381Y-102290095D01*
X105712571Y-102242476D01*
X105664952Y-102290095D01*
X105617333Y-102385333D01*
X105617333Y-102623429D01*
X105664952Y-102718667D01*
X105712571Y-102766286D01*
X105807810Y-102813905D01*
X106045905Y-102813905D01*
X106141143Y-102766286D01*
X106188762Y-102718667D01*
X106236381Y-102623429D01*
X106236381Y-102385333D01*
X106188762Y-102290095D01*
X106141143Y-102242476D01*
X166085143Y-86431143D02*
X166132762Y-86383524D01*
X166180381Y-86240667D01*
X166180381Y-86145429D01*
X166132762Y-86002571D01*
X166037524Y-85907333D01*
X165942286Y-85859714D01*
X165751810Y-85812095D01*
X165608952Y-85812095D01*
X165418476Y-85859714D01*
X165323238Y-85907333D01*
X165228000Y-86002571D01*
X165180381Y-86145429D01*
X165180381Y-86240667D01*
X165228000Y-86383524D01*
X165275619Y-86431143D01*
X166180381Y-87383524D02*
X166180381Y-86812095D01*
X166180381Y-87097809D02*
X165180381Y-87097809D01*
X165323238Y-87002571D01*
X165418476Y-86907333D01*
X165466095Y-86812095D01*
X165180381Y-88240667D02*
X165180381Y-88050190D01*
X165228000Y-87954952D01*
X165275619Y-87907333D01*
X165418476Y-87812095D01*
X165608952Y-87764476D01*
X165989905Y-87764476D01*
X166085143Y-87812095D01*
X166132762Y-87859714D01*
X166180381Y-87954952D01*
X166180381Y-88145429D01*
X166132762Y-88240667D01*
X166085143Y-88288286D01*
X165989905Y-88335905D01*
X165751810Y-88335905D01*
X165656571Y-88288286D01*
X165608952Y-88240667D01*
X165561333Y-88145429D01*
X165561333Y-87954952D01*
X165608952Y-87859714D01*
X165656571Y-87812095D01*
X165751810Y-87764476D01*
X167386857Y-96924381D02*
X167720191Y-96448190D01*
X167958286Y-96924381D02*
X167958286Y-95924381D01*
X167577333Y-95924381D01*
X167482095Y-95972000D01*
X167434476Y-96019619D01*
X167386857Y-96114857D01*
X167386857Y-96257714D01*
X167434476Y-96352952D01*
X167482095Y-96400571D01*
X167577333Y-96448190D01*
X167958286Y-96448190D01*
X167053524Y-95924381D02*
X166434476Y-95924381D01*
X166767810Y-96305333D01*
X166624952Y-96305333D01*
X166529714Y-96352952D01*
X166482095Y-96400571D01*
X166434476Y-96495810D01*
X166434476Y-96733905D01*
X166482095Y-96829143D01*
X166529714Y-96876762D01*
X166624952Y-96924381D01*
X166910667Y-96924381D01*
X167005905Y-96876762D01*
X167053524Y-96829143D01*
X165958286Y-96924381D02*
X165767810Y-96924381D01*
X165672571Y-96876762D01*
X165624952Y-96829143D01*
X165529714Y-96686286D01*
X165482095Y-96495810D01*
X165482095Y-96114857D01*
X165529714Y-96019619D01*
X165577333Y-95972000D01*
X165672571Y-95924381D01*
X165863048Y-95924381D01*
X165958286Y-95972000D01*
X166005905Y-96019619D01*
X166053524Y-96114857D01*
X166053524Y-96352952D01*
X166005905Y-96448190D01*
X165958286Y-96495810D01*
X165863048Y-96543429D01*
X165672571Y-96543429D01*
X165577333Y-96495810D01*
X165529714Y-96448190D01*
X165482095Y-96352952D01*
X166180381Y-64079143D02*
X165704190Y-63745809D01*
X166180381Y-63507714D02*
X165180381Y-63507714D01*
X165180381Y-63888667D01*
X165228000Y-63983905D01*
X165275619Y-64031524D01*
X165370857Y-64079143D01*
X165513714Y-64079143D01*
X165608952Y-64031524D01*
X165656571Y-63983905D01*
X165704190Y-63888667D01*
X165704190Y-63507714D01*
X165513714Y-64936286D02*
X166180381Y-64936286D01*
X165132762Y-64698190D02*
X165847048Y-64460095D01*
X165847048Y-65079143D01*
X165180381Y-65650571D02*
X165180381Y-65745810D01*
X165228000Y-65841048D01*
X165275619Y-65888667D01*
X165370857Y-65936286D01*
X165561333Y-65983905D01*
X165799429Y-65983905D01*
X165989905Y-65936286D01*
X166085143Y-65888667D01*
X166132762Y-65841048D01*
X166180381Y-65745810D01*
X166180381Y-65650571D01*
X166132762Y-65555333D01*
X166085143Y-65507714D01*
X165989905Y-65460095D01*
X165799429Y-65412476D01*
X165561333Y-65412476D01*
X165370857Y-65460095D01*
X165275619Y-65507714D01*
X165228000Y-65555333D01*
X165180381Y-65650571D01*
X152908857Y-98861143D02*
X152956476Y-98908762D01*
X153099333Y-98956381D01*
X153194571Y-98956381D01*
X153337429Y-98908762D01*
X153432667Y-98813524D01*
X153480286Y-98718286D01*
X153527905Y-98527810D01*
X153527905Y-98384952D01*
X153480286Y-98194476D01*
X153432667Y-98099238D01*
X153337429Y-98004000D01*
X153194571Y-97956381D01*
X153099333Y-97956381D01*
X152956476Y-98004000D01*
X152908857Y-98051619D01*
X151956476Y-98956381D02*
X152527905Y-98956381D01*
X152242191Y-98956381D02*
X152242191Y-97956381D01*
X152337429Y-98099238D01*
X152432667Y-98194476D01*
X152527905Y-98242095D01*
X151623143Y-97956381D02*
X150956476Y-97956381D01*
X151385048Y-98956381D01*
X139937143Y-80757143D02*
X139984762Y-80709524D01*
X140032381Y-80566667D01*
X140032381Y-80471429D01*
X139984762Y-80328571D01*
X139889524Y-80233333D01*
X139794286Y-80185714D01*
X139603810Y-80138095D01*
X139460952Y-80138095D01*
X139270476Y-80185714D01*
X139175238Y-80233333D01*
X139080000Y-80328571D01*
X139032381Y-80471429D01*
X139032381Y-80566667D01*
X139080000Y-80709524D01*
X139127619Y-80757143D01*
X140032381Y-81709524D02*
X140032381Y-81138095D01*
X140032381Y-81423809D02*
X139032381Y-81423809D01*
X139175238Y-81328571D01*
X139270476Y-81233333D01*
X139318095Y-81138095D01*
X140032381Y-82185714D02*
X140032381Y-82376190D01*
X139984762Y-82471429D01*
X139937143Y-82519048D01*
X139794286Y-82614286D01*
X139603810Y-82661905D01*
X139222857Y-82661905D01*
X139127619Y-82614286D01*
X139080000Y-82566667D01*
X139032381Y-82471429D01*
X139032381Y-82280952D01*
X139080000Y-82185714D01*
X139127619Y-82138095D01*
X139222857Y-82090476D01*
X139460952Y-82090476D01*
X139556190Y-82138095D01*
X139603810Y-82185714D01*
X139651429Y-82280952D01*
X139651429Y-82471429D01*
X139603810Y-82566667D01*
X139556190Y-82614286D01*
X139460952Y-82661905D01*
X146812857Y-75493143D02*
X146860476Y-75540762D01*
X147003333Y-75588381D01*
X147098571Y-75588381D01*
X147241429Y-75540762D01*
X147336667Y-75445524D01*
X147384286Y-75350286D01*
X147431905Y-75159810D01*
X147431905Y-75016952D01*
X147384286Y-74826476D01*
X147336667Y-74731238D01*
X147241429Y-74636000D01*
X147098571Y-74588381D01*
X147003333Y-74588381D01*
X146860476Y-74636000D01*
X146812857Y-74683619D01*
X146431905Y-74683619D02*
X146384286Y-74636000D01*
X146289048Y-74588381D01*
X146050952Y-74588381D01*
X145955714Y-74636000D01*
X145908095Y-74683619D01*
X145860476Y-74778857D01*
X145860476Y-74874095D01*
X145908095Y-75016952D01*
X146479524Y-75588381D01*
X145860476Y-75588381D01*
X145241429Y-74588381D02*
X145146190Y-74588381D01*
X145050952Y-74636000D01*
X145003333Y-74683619D01*
X144955714Y-74778857D01*
X144908095Y-74969333D01*
X144908095Y-75207429D01*
X144955714Y-75397905D01*
X145003333Y-75493143D01*
X145050952Y-75540762D01*
X145146190Y-75588381D01*
X145241429Y-75588381D01*
X145336667Y-75540762D01*
X145384286Y-75493143D01*
X145431905Y-75397905D01*
X145479524Y-75207429D01*
X145479524Y-74969333D01*
X145431905Y-74778857D01*
X145384286Y-74683619D01*
X145336667Y-74636000D01*
X145241429Y-74588381D01*
X99977143Y-95067143D02*
X100024762Y-95019524D01*
X100072381Y-94876667D01*
X100072381Y-94781429D01*
X100024762Y-94638571D01*
X99929524Y-94543333D01*
X99834286Y-94495714D01*
X99643810Y-94448095D01*
X99500952Y-94448095D01*
X99310476Y-94495714D01*
X99215238Y-94543333D01*
X99120000Y-94638571D01*
X99072381Y-94781429D01*
X99072381Y-94876667D01*
X99120000Y-95019524D01*
X99167619Y-95067143D01*
X99167619Y-95448095D02*
X99120000Y-95495714D01*
X99072381Y-95590952D01*
X99072381Y-95829048D01*
X99120000Y-95924286D01*
X99167619Y-95971905D01*
X99262857Y-96019524D01*
X99358095Y-96019524D01*
X99500952Y-95971905D01*
X100072381Y-95400476D01*
X100072381Y-96019524D01*
X100072381Y-96971905D02*
X100072381Y-96400476D01*
X100072381Y-96686190D02*
X99072381Y-96686190D01*
X99215238Y-96590952D01*
X99310476Y-96495714D01*
X99358095Y-96400476D01*
X113856381Y-76271143D02*
X113380190Y-75937809D01*
X113856381Y-75699714D02*
X112856381Y-75699714D01*
X112856381Y-76080667D01*
X112904000Y-76175905D01*
X112951619Y-76223524D01*
X113046857Y-76271143D01*
X113189714Y-76271143D01*
X113284952Y-76223524D01*
X113332571Y-76175905D01*
X113380190Y-76080667D01*
X113380190Y-75699714D01*
X113189714Y-77128286D02*
X113856381Y-77128286D01*
X112808762Y-76890190D02*
X113523048Y-76652095D01*
X113523048Y-77271143D01*
X113856381Y-77699714D02*
X113856381Y-77890190D01*
X113808762Y-77985429D01*
X113761143Y-78033048D01*
X113618286Y-78128286D01*
X113427810Y-78175905D01*
X113046857Y-78175905D01*
X112951619Y-78128286D01*
X112904000Y-78080667D01*
X112856381Y-77985429D01*
X112856381Y-77794952D01*
X112904000Y-77699714D01*
X112951619Y-77652095D01*
X113046857Y-77604476D01*
X113284952Y-77604476D01*
X113380190Y-77652095D01*
X113427810Y-77699714D01*
X113475429Y-77794952D01*
X113475429Y-77985429D01*
X113427810Y-78080667D01*
X113380190Y-78128286D01*
X113284952Y-78175905D01*
X111824381Y-76271143D02*
X111348190Y-75937809D01*
X111824381Y-75699714D02*
X110824381Y-75699714D01*
X110824381Y-76080667D01*
X110872000Y-76175905D01*
X110919619Y-76223524D01*
X111014857Y-76271143D01*
X111157714Y-76271143D01*
X111252952Y-76223524D01*
X111300571Y-76175905D01*
X111348190Y-76080667D01*
X111348190Y-75699714D01*
X110824381Y-77175905D02*
X110824381Y-76699714D01*
X111300571Y-76652095D01*
X111252952Y-76699714D01*
X111205333Y-76794952D01*
X111205333Y-77033048D01*
X111252952Y-77128286D01*
X111300571Y-77175905D01*
X111395810Y-77223524D01*
X111633905Y-77223524D01*
X111729143Y-77175905D01*
X111776762Y-77128286D01*
X111824381Y-77033048D01*
X111824381Y-76794952D01*
X111776762Y-76699714D01*
X111729143Y-76652095D01*
X110824381Y-77842571D02*
X110824381Y-77937810D01*
X110872000Y-78033048D01*
X110919619Y-78080667D01*
X111014857Y-78128286D01*
X111205333Y-78175905D01*
X111443429Y-78175905D01*
X111633905Y-78128286D01*
X111729143Y-78080667D01*
X111776762Y-78033048D01*
X111824381Y-77937810D01*
X111824381Y-77842571D01*
X111776762Y-77747333D01*
X111729143Y-77699714D01*
X111633905Y-77652095D01*
X111443429Y-77604476D01*
X111205333Y-77604476D01*
X111014857Y-77652095D01*
X110919619Y-77699714D01*
X110872000Y-77747333D01*
X110824381Y-77842571D01*
X175260857Y-68984381D02*
X175594191Y-68508190D01*
X175832286Y-68984381D02*
X175832286Y-67984381D01*
X175451333Y-67984381D01*
X175356095Y-68032000D01*
X175308476Y-68079619D01*
X175260857Y-68174857D01*
X175260857Y-68317714D01*
X175308476Y-68412952D01*
X175356095Y-68460571D01*
X175451333Y-68508190D01*
X175832286Y-68508190D01*
X174356095Y-67984381D02*
X174832286Y-67984381D01*
X174879905Y-68460571D01*
X174832286Y-68412952D01*
X174737048Y-68365333D01*
X174498952Y-68365333D01*
X174403714Y-68412952D01*
X174356095Y-68460571D01*
X174308476Y-68555810D01*
X174308476Y-68793905D01*
X174356095Y-68889143D01*
X174403714Y-68936762D01*
X174498952Y-68984381D01*
X174737048Y-68984381D01*
X174832286Y-68936762D01*
X174879905Y-68889143D01*
X173927524Y-68079619D02*
X173879905Y-68032000D01*
X173784667Y-67984381D01*
X173546571Y-67984381D01*
X173451333Y-68032000D01*
X173403714Y-68079619D01*
X173356095Y-68174857D01*
X173356095Y-68270095D01*
X173403714Y-68412952D01*
X173975143Y-68984381D01*
X173356095Y-68984381D01*
X171704857Y-68984381D02*
X172038191Y-68508190D01*
X172276286Y-68984381D02*
X172276286Y-67984381D01*
X171895333Y-67984381D01*
X171800095Y-68032000D01*
X171752476Y-68079619D01*
X171704857Y-68174857D01*
X171704857Y-68317714D01*
X171752476Y-68412952D01*
X171800095Y-68460571D01*
X171895333Y-68508190D01*
X172276286Y-68508190D01*
X170800095Y-67984381D02*
X171276286Y-67984381D01*
X171323905Y-68460571D01*
X171276286Y-68412952D01*
X171181048Y-68365333D01*
X170942952Y-68365333D01*
X170847714Y-68412952D01*
X170800095Y-68460571D01*
X170752476Y-68555810D01*
X170752476Y-68793905D01*
X170800095Y-68889143D01*
X170847714Y-68936762D01*
X170942952Y-68984381D01*
X171181048Y-68984381D01*
X171276286Y-68936762D01*
X171323905Y-68889143D01*
X170419143Y-67984381D02*
X169800095Y-67984381D01*
X170133429Y-68365333D01*
X169990571Y-68365333D01*
X169895333Y-68412952D01*
X169847714Y-68460571D01*
X169800095Y-68555810D01*
X169800095Y-68793905D01*
X169847714Y-68889143D01*
X169895333Y-68936762D01*
X169990571Y-68984381D01*
X170276286Y-68984381D01*
X170371524Y-68936762D01*
X170419143Y-68889143D01*
X165799285Y-97798571D02*
X165656428Y-97846190D01*
X165608809Y-97893810D01*
X165561190Y-97989048D01*
X165561190Y-98131905D01*
X165608809Y-98227143D01*
X165656428Y-98274762D01*
X165751666Y-98322381D01*
X166132619Y-98322381D01*
X166132619Y-97322381D01*
X165799285Y-97322381D01*
X165704047Y-97370000D01*
X165656428Y-97417619D01*
X165608809Y-97512857D01*
X165608809Y-97608095D01*
X165656428Y-97703333D01*
X165704047Y-97750952D01*
X165799285Y-97798571D01*
X166132619Y-97798571D01*
X165180238Y-98036667D02*
X164704047Y-98036667D01*
X165275476Y-98322381D02*
X164942143Y-97322381D01*
X164608809Y-98322381D01*
X164418333Y-97322381D02*
X163846904Y-97322381D01*
X164132619Y-98322381D02*
X164132619Y-97322381D01*
X162989761Y-98322381D02*
X163561190Y-98322381D01*
X163275476Y-98322381D02*
X163275476Y-97322381D01*
X163370714Y-97465238D01*
X163465952Y-97560476D01*
X163561190Y-97608095D01*
X177888191Y-97058190D02*
X177888191Y-97534381D01*
X178221524Y-96534381D02*
X177888191Y-97058190D01*
X177554857Y-96534381D01*
X177269143Y-96629619D02*
X177221524Y-96582000D01*
X177126286Y-96534381D01*
X176888190Y-96534381D01*
X176792952Y-96582000D01*
X176745333Y-96629619D01*
X176697714Y-96724857D01*
X176697714Y-96820095D01*
X176745333Y-96962952D01*
X177316762Y-97534381D01*
X176697714Y-97534381D01*
X177864381Y-71381714D02*
X176864381Y-71381714D01*
X176864381Y-71619809D01*
X176912000Y-71762667D01*
X177007238Y-71857905D01*
X177102476Y-71905524D01*
X177292952Y-71953143D01*
X177435810Y-71953143D01*
X177626286Y-71905524D01*
X177721524Y-71857905D01*
X177816762Y-71762667D01*
X177864381Y-71619809D01*
X177864381Y-71381714D01*
X177864381Y-72905524D02*
X177864381Y-72334095D01*
X177864381Y-72619809D02*
X176864381Y-72619809D01*
X177007238Y-72524571D01*
X177102476Y-72429333D01*
X177150095Y-72334095D01*
X176864381Y-73810286D02*
X176864381Y-73334095D01*
X177340571Y-73286476D01*
X177292952Y-73334095D01*
X177245333Y-73429333D01*
X177245333Y-73667429D01*
X177292952Y-73762667D01*
X177340571Y-73810286D01*
X177435810Y-73857905D01*
X177673905Y-73857905D01*
X177769143Y-73810286D01*
X177816762Y-73762667D01*
X177864381Y-73667429D01*
X177864381Y-73429333D01*
X177816762Y-73334095D01*
X177769143Y-73286476D01*
X171514286Y-86582381D02*
X171514286Y-85582381D01*
X171276191Y-85582381D01*
X171133333Y-85630000D01*
X171038095Y-85725238D01*
X170990476Y-85820476D01*
X170942857Y-86010952D01*
X170942857Y-86153810D01*
X170990476Y-86344286D01*
X171038095Y-86439524D01*
X171133333Y-86534762D01*
X171276191Y-86582381D01*
X171514286Y-86582381D01*
X169990476Y-86582381D02*
X170561905Y-86582381D01*
X170276191Y-86582381D02*
X170276191Y-85582381D01*
X170371429Y-85725238D01*
X170466667Y-85820476D01*
X170561905Y-85868095D01*
X169371429Y-85582381D02*
X169276190Y-85582381D01*
X169180952Y-85630000D01*
X169133333Y-85677619D01*
X169085714Y-85772857D01*
X169038095Y-85963333D01*
X169038095Y-86201429D01*
X169085714Y-86391905D01*
X169133333Y-86487143D01*
X169180952Y-86534762D01*
X169276190Y-86582381D01*
X169371429Y-86582381D01*
X169466667Y-86534762D01*
X169514286Y-86487143D01*
X169561905Y-86391905D01*
X169609524Y-86201429D01*
X169609524Y-85963333D01*
X169561905Y-85772857D01*
X169514286Y-85677619D01*
X169466667Y-85630000D01*
X169371429Y-85582381D01*
X181492381Y-78620714D02*
X180492381Y-78620714D01*
X180492381Y-78858809D01*
X180540000Y-79001667D01*
X180635238Y-79096905D01*
X180730476Y-79144524D01*
X180920952Y-79192143D01*
X181063810Y-79192143D01*
X181254286Y-79144524D01*
X181349524Y-79096905D01*
X181444762Y-79001667D01*
X181492381Y-78858809D01*
X181492381Y-78620714D01*
X181492381Y-80144524D02*
X181492381Y-79573095D01*
X181492381Y-79858809D02*
X180492381Y-79858809D01*
X180635238Y-79763571D01*
X180730476Y-79668333D01*
X180778095Y-79573095D01*
X181492381Y-81096905D02*
X181492381Y-80525476D01*
X181492381Y-80811190D02*
X180492381Y-80811190D01*
X180635238Y-80715952D01*
X180730476Y-80620714D01*
X180778095Y-80525476D01*
X171332381Y-78620714D02*
X170332381Y-78620714D01*
X170332381Y-78858809D01*
X170380000Y-79001667D01*
X170475238Y-79096905D01*
X170570476Y-79144524D01*
X170760952Y-79192143D01*
X170903810Y-79192143D01*
X171094286Y-79144524D01*
X171189524Y-79096905D01*
X171284762Y-79001667D01*
X171332381Y-78858809D01*
X171332381Y-78620714D01*
X171332381Y-80144524D02*
X171332381Y-79573095D01*
X171332381Y-79858809D02*
X170332381Y-79858809D01*
X170475238Y-79763571D01*
X170570476Y-79668333D01*
X170618095Y-79573095D01*
X170427619Y-80525476D02*
X170380000Y-80573095D01*
X170332381Y-80668333D01*
X170332381Y-80906429D01*
X170380000Y-81001667D01*
X170427619Y-81049286D01*
X170522857Y-81096905D01*
X170618095Y-81096905D01*
X170760952Y-81049286D01*
X171332381Y-80477857D01*
X171332381Y-81096905D01*
X171514286Y-84406381D02*
X171514286Y-83406381D01*
X171276191Y-83406381D01*
X171133333Y-83454000D01*
X171038095Y-83549238D01*
X170990476Y-83644476D01*
X170942857Y-83834952D01*
X170942857Y-83977810D01*
X170990476Y-84168286D01*
X171038095Y-84263524D01*
X171133333Y-84358762D01*
X171276191Y-84406381D01*
X171514286Y-84406381D01*
X169990476Y-84406381D02*
X170561905Y-84406381D01*
X170276191Y-84406381D02*
X170276191Y-83406381D01*
X170371429Y-83549238D01*
X170466667Y-83644476D01*
X170561905Y-83692095D01*
X169657143Y-83406381D02*
X169038095Y-83406381D01*
X169371429Y-83787333D01*
X169228571Y-83787333D01*
X169133333Y-83834952D01*
X169085714Y-83882571D01*
X169038095Y-83977810D01*
X169038095Y-84215905D01*
X169085714Y-84311143D01*
X169133333Y-84358762D01*
X169228571Y-84406381D01*
X169514286Y-84406381D01*
X169609524Y-84358762D01*
X169657143Y-84311143D01*
X181492381Y-74810714D02*
X180492381Y-74810714D01*
X180492381Y-75048809D01*
X180540000Y-75191667D01*
X180635238Y-75286905D01*
X180730476Y-75334524D01*
X180920952Y-75382143D01*
X181063810Y-75382143D01*
X181254286Y-75334524D01*
X181349524Y-75286905D01*
X181444762Y-75191667D01*
X181492381Y-75048809D01*
X181492381Y-74810714D01*
X181492381Y-76334524D02*
X181492381Y-75763095D01*
X181492381Y-76048809D02*
X180492381Y-76048809D01*
X180635238Y-75953571D01*
X180730476Y-75858333D01*
X180778095Y-75763095D01*
X180825714Y-77191667D02*
X181492381Y-77191667D01*
X180444762Y-76953571D02*
X181159048Y-76715476D01*
X181159048Y-77334524D01*
X168974286Y-69746381D02*
X168974286Y-68746381D01*
X168736191Y-68746381D01*
X168593333Y-68794000D01*
X168498095Y-68889238D01*
X168450476Y-68984476D01*
X168402857Y-69174952D01*
X168402857Y-69317810D01*
X168450476Y-69508286D01*
X168498095Y-69603524D01*
X168593333Y-69698762D01*
X168736191Y-69746381D01*
X168974286Y-69746381D01*
X167450476Y-69746381D02*
X168021905Y-69746381D01*
X167736191Y-69746381D02*
X167736191Y-68746381D01*
X167831429Y-68889238D01*
X167926667Y-68984476D01*
X168021905Y-69032095D01*
X166593333Y-68746381D02*
X166783810Y-68746381D01*
X166879048Y-68794000D01*
X166926667Y-68841619D01*
X167021905Y-68984476D01*
X167069524Y-69174952D01*
X167069524Y-69555905D01*
X167021905Y-69651143D01*
X166974286Y-69698762D01*
X166879048Y-69746381D01*
X166688571Y-69746381D01*
X166593333Y-69698762D01*
X166545714Y-69651143D01*
X166498095Y-69555905D01*
X166498095Y-69317810D01*
X166545714Y-69222571D01*
X166593333Y-69174952D01*
X166688571Y-69127333D01*
X166879048Y-69127333D01*
X166974286Y-69174952D01*
X167021905Y-69222571D01*
X167069524Y-69317810D01*
X166434286Y-68476381D02*
X166434286Y-67476381D01*
X166196191Y-67476381D01*
X166053333Y-67524000D01*
X165958095Y-67619238D01*
X165910476Y-67714476D01*
X165862857Y-67904952D01*
X165862857Y-68047810D01*
X165910476Y-68238286D01*
X165958095Y-68333524D01*
X166053333Y-68428762D01*
X166196191Y-68476381D01*
X166434286Y-68476381D01*
X164910476Y-68476381D02*
X165481905Y-68476381D01*
X165196191Y-68476381D02*
X165196191Y-67476381D01*
X165291429Y-67619238D01*
X165386667Y-67714476D01*
X165481905Y-67762095D01*
X164577143Y-67476381D02*
X163910476Y-67476381D01*
X164339048Y-68476381D01*
X171514286Y-63904381D02*
X171514286Y-62904381D01*
X171276191Y-62904381D01*
X171133333Y-62952000D01*
X171038095Y-63047238D01*
X170990476Y-63142476D01*
X170942857Y-63332952D01*
X170942857Y-63475810D01*
X170990476Y-63666286D01*
X171038095Y-63761524D01*
X171133333Y-63856762D01*
X171276191Y-63904381D01*
X171514286Y-63904381D01*
X170561905Y-62999619D02*
X170514286Y-62952000D01*
X170419048Y-62904381D01*
X170180952Y-62904381D01*
X170085714Y-62952000D01*
X170038095Y-62999619D01*
X169990476Y-63094857D01*
X169990476Y-63190095D01*
X170038095Y-63332952D01*
X170609524Y-63904381D01*
X169990476Y-63904381D01*
X169371429Y-62904381D02*
X169276190Y-62904381D01*
X169180952Y-62952000D01*
X169133333Y-62999619D01*
X169085714Y-63094857D01*
X169038095Y-63285333D01*
X169038095Y-63523429D01*
X169085714Y-63713905D01*
X169133333Y-63809143D01*
X169180952Y-63856762D01*
X169276190Y-63904381D01*
X169371429Y-63904381D01*
X169466667Y-63856762D01*
X169514286Y-63809143D01*
X169561905Y-63713905D01*
X169609524Y-63523429D01*
X169609524Y-63285333D01*
X169561905Y-63094857D01*
X169514286Y-62999619D01*
X169466667Y-62952000D01*
X169371429Y-62904381D01*
X174761286Y-63904381D02*
X174761286Y-62904381D01*
X174523191Y-62904381D01*
X174380333Y-62952000D01*
X174285095Y-63047238D01*
X174237476Y-63142476D01*
X174189857Y-63332952D01*
X174189857Y-63475810D01*
X174237476Y-63666286D01*
X174285095Y-63761524D01*
X174380333Y-63856762D01*
X174523191Y-63904381D01*
X174761286Y-63904381D01*
X173808905Y-62999619D02*
X173761286Y-62952000D01*
X173666048Y-62904381D01*
X173427952Y-62904381D01*
X173332714Y-62952000D01*
X173285095Y-62999619D01*
X173237476Y-63094857D01*
X173237476Y-63190095D01*
X173285095Y-63332952D01*
X173856524Y-63904381D01*
X173237476Y-63904381D01*
X172285095Y-63904381D02*
X172856524Y-63904381D01*
X172570810Y-63904381D02*
X172570810Y-62904381D01*
X172666048Y-63047238D01*
X172761286Y-63142476D01*
X172856524Y-63190095D01*
X112872095Y-67968381D02*
X112872095Y-66968381D01*
X112634000Y-66968381D01*
X112491142Y-67016000D01*
X112395904Y-67111238D01*
X112348285Y-67206476D01*
X112300666Y-67396952D01*
X112300666Y-67539810D01*
X112348285Y-67730286D01*
X112395904Y-67825524D01*
X112491142Y-67920762D01*
X112634000Y-67968381D01*
X112872095Y-67968381D01*
X111729238Y-67396952D02*
X111824476Y-67349333D01*
X111872095Y-67301714D01*
X111919714Y-67206476D01*
X111919714Y-67158857D01*
X111872095Y-67063619D01*
X111824476Y-67016000D01*
X111729238Y-66968381D01*
X111538761Y-66968381D01*
X111443523Y-67016000D01*
X111395904Y-67063619D01*
X111348285Y-67158857D01*
X111348285Y-67206476D01*
X111395904Y-67301714D01*
X111443523Y-67349333D01*
X111538761Y-67396952D01*
X111729238Y-67396952D01*
X111824476Y-67444571D01*
X111872095Y-67492190D01*
X111919714Y-67587429D01*
X111919714Y-67777905D01*
X111872095Y-67873143D01*
X111824476Y-67920762D01*
X111729238Y-67968381D01*
X111538761Y-67968381D01*
X111443523Y-67920762D01*
X111395904Y-67873143D01*
X111348285Y-67777905D01*
X111348285Y-67587429D01*
X111395904Y-67492190D01*
X111443523Y-67444571D01*
X111538761Y-67396952D01*
X165450095Y-71564381D02*
X165450095Y-70564381D01*
X165212000Y-70564381D01*
X165069142Y-70612000D01*
X164973904Y-70707238D01*
X164926285Y-70802476D01*
X164878666Y-70992952D01*
X164878666Y-71135810D01*
X164926285Y-71326286D01*
X164973904Y-71421524D01*
X165069142Y-71516762D01*
X165212000Y-71564381D01*
X165450095Y-71564381D01*
X164402476Y-71564381D02*
X164212000Y-71564381D01*
X164116761Y-71516762D01*
X164069142Y-71469143D01*
X163973904Y-71326286D01*
X163926285Y-71135810D01*
X163926285Y-70754857D01*
X163973904Y-70659619D01*
X164021523Y-70612000D01*
X164116761Y-70564381D01*
X164307238Y-70564381D01*
X164402476Y-70612000D01*
X164450095Y-70659619D01*
X164497714Y-70754857D01*
X164497714Y-70992952D01*
X164450095Y-71088190D01*
X164402476Y-71135810D01*
X164307238Y-71183429D01*
X164116761Y-71183429D01*
X164021523Y-71135810D01*
X163973904Y-71088190D01*
X163926285Y-70992952D01*
X163132381Y-62745714D02*
X162132381Y-62745714D01*
X162132381Y-62983809D01*
X162180000Y-63126667D01*
X162275238Y-63221905D01*
X162370476Y-63269524D01*
X162560952Y-63317143D01*
X162703810Y-63317143D01*
X162894286Y-63269524D01*
X162989524Y-63221905D01*
X163084762Y-63126667D01*
X163132381Y-62983809D01*
X163132381Y-62745714D01*
X162132381Y-64221905D02*
X162132381Y-63745714D01*
X162608571Y-63698095D01*
X162560952Y-63745714D01*
X162513333Y-63840952D01*
X162513333Y-64079048D01*
X162560952Y-64174286D01*
X162608571Y-64221905D01*
X162703810Y-64269524D01*
X162941905Y-64269524D01*
X163037143Y-64221905D01*
X163084762Y-64174286D01*
X163132381Y-64079048D01*
X163132381Y-63840952D01*
X163084762Y-63745714D01*
X163037143Y-63698095D01*
X162227619Y-64650476D02*
X162180000Y-64698095D01*
X162132381Y-64793333D01*
X162132381Y-65031429D01*
X162180000Y-65126667D01*
X162227619Y-65174286D01*
X162322857Y-65221905D01*
X162418095Y-65221905D01*
X162560952Y-65174286D01*
X163132381Y-64602857D01*
X163132381Y-65221905D01*
M02*
