G04 #@! TF.FileFunction,Copper,L3,Inr,Signal*
%FSLAX46Y46*%
G04 Gerber Fmt 4.6, Leading zero omitted, Abs format (unit mm)*
G04 Created by KiCad (PCBNEW 4.0.7+dfsg1-1) date Tue Oct  3 19:54:00 2017*
%MOMM*%
%LPD*%
G01*
G04 APERTURE LIST*
%ADD10C,0.100000*%
%ADD11R,1.727200X1.727200*%
%ADD12O,1.727200X1.727200*%
%ADD13C,5.500000*%
%ADD14R,1.727200X2.032000*%
%ADD15O,1.727200X2.032000*%
%ADD16O,1.300000X2.700000*%
%ADD17O,1.300000X2.300000*%
%ADD18C,0.400000*%
%ADD19C,1.000000*%
%ADD20C,0.600000*%
%ADD21C,0.454000*%
%ADD22C,0.300000*%
%ADD23C,0.190000*%
%ADD24C,0.200000*%
G04 APERTURE END LIST*
D10*
D11*
X97910000Y-62690000D03*
D12*
X95370000Y-62690000D03*
X97910000Y-65230000D03*
X95370000Y-65230000D03*
X97910000Y-67770000D03*
X95370000Y-67770000D03*
X97910000Y-70310000D03*
X95370000Y-70310000D03*
X97910000Y-72850000D03*
X95370000Y-72850000D03*
X97910000Y-75390000D03*
X95370000Y-75390000D03*
X97910000Y-77930000D03*
X95370000Y-77930000D03*
X97910000Y-80470000D03*
X95370000Y-80470000D03*
X97910000Y-83010000D03*
X95370000Y-83010000D03*
X97910000Y-85550000D03*
X95370000Y-85550000D03*
X97910000Y-88090000D03*
X95370000Y-88090000D03*
X97910000Y-90630000D03*
X95370000Y-90630000D03*
X97910000Y-93170000D03*
X95370000Y-93170000D03*
X97910000Y-95710000D03*
X95370000Y-95710000D03*
X97910000Y-98250000D03*
X95370000Y-98250000D03*
X97910000Y-100790000D03*
X95370000Y-100790000D03*
X97910000Y-103330000D03*
X95370000Y-103330000D03*
X97910000Y-105870000D03*
X95370000Y-105870000D03*
X97910000Y-108410000D03*
X95370000Y-108410000D03*
X97910000Y-110950000D03*
X95370000Y-110950000D03*
D11*
X184270000Y-110950000D03*
D12*
X186810000Y-110950000D03*
X184270000Y-108410000D03*
X186810000Y-108410000D03*
X184270000Y-105870000D03*
X186810000Y-105870000D03*
X184270000Y-103330000D03*
X186810000Y-103330000D03*
X184270000Y-100790000D03*
X186810000Y-100790000D03*
X184270000Y-98250000D03*
X186810000Y-98250000D03*
X184270000Y-95710000D03*
X186810000Y-95710000D03*
X184270000Y-93170000D03*
X186810000Y-93170000D03*
X184270000Y-90630000D03*
X186810000Y-90630000D03*
X184270000Y-88090000D03*
X186810000Y-88090000D03*
X184270000Y-85550000D03*
X186810000Y-85550000D03*
X184270000Y-83010000D03*
X186810000Y-83010000D03*
X184270000Y-80470000D03*
X186810000Y-80470000D03*
X184270000Y-77930000D03*
X186810000Y-77930000D03*
X184270000Y-75390000D03*
X186810000Y-75390000D03*
X184270000Y-72850000D03*
X186810000Y-72850000D03*
X184270000Y-70310000D03*
X186810000Y-70310000D03*
X184270000Y-67770000D03*
X186810000Y-67770000D03*
X184270000Y-65230000D03*
X186810000Y-65230000D03*
X184270000Y-62690000D03*
X186810000Y-62690000D03*
D13*
X102990000Y-108410000D03*
X179190000Y-108410000D03*
X179190000Y-65230000D03*
X102990000Y-65230000D03*
D11*
X104260000Y-99520000D03*
D12*
X101720000Y-99520000D03*
D11*
X140455000Y-104600000D03*
D12*
X137915000Y-104600000D03*
X140455000Y-107140000D03*
X137915000Y-107140000D03*
X140455000Y-109680000D03*
X137915000Y-109680000D03*
D14*
X147440000Y-100790000D03*
D15*
X144900000Y-100790000D03*
X142360000Y-100790000D03*
X139820000Y-100790000D03*
X137280000Y-100790000D03*
X134740000Y-100790000D03*
X132200000Y-100790000D03*
D16*
X152280000Y-71550000D03*
X137680000Y-71550000D03*
D17*
X137680000Y-65500000D03*
X152280000Y-65500000D03*
D18*
X139575609Y-69792857D03*
D19*
X116880503Y-64802940D03*
X106974809Y-64953974D03*
X175210328Y-64948943D03*
X165417246Y-64954666D03*
D18*
X175495631Y-71457432D03*
X146468970Y-70993942D03*
X144978424Y-71024054D03*
X143480350Y-71016526D03*
X142000564Y-71008511D03*
X113273209Y-99681387D03*
X147987361Y-71377791D03*
X144102010Y-84600000D03*
X132880424Y-84561218D03*
X135567436Y-80702302D03*
X132810347Y-82177990D03*
X145713035Y-91022010D03*
X145680000Y-94177990D03*
X177285000Y-95710000D03*
D19*
X177229911Y-82281349D03*
D18*
X170046000Y-85804000D03*
D20*
X164741832Y-81130572D03*
D18*
X120770000Y-72215000D03*
D20*
X161067993Y-81216119D03*
D19*
X158233687Y-94852616D03*
X162992748Y-94820185D03*
D20*
X156280000Y-81210838D03*
D18*
X131254529Y-86251357D03*
X140880000Y-81400000D03*
X136085174Y-89394826D03*
X145680000Y-81400000D03*
X120430000Y-97050000D03*
X150080000Y-81600000D03*
X131280000Y-89400000D03*
X133690245Y-94180159D03*
D21*
X139312644Y-91359700D03*
D18*
X140874194Y-91433353D03*
X145680000Y-85422010D03*
X135280000Y-95000000D03*
X135280000Y-94200000D03*
X142480000Y-94200000D03*
X140880000Y-93400000D03*
X139280000Y-93400000D03*
X137680000Y-93400000D03*
X136080000Y-93400000D03*
X136880000Y-92600000D03*
X135280000Y-92600000D03*
X132880000Y-91800000D03*
X132880000Y-93400000D03*
D21*
X141042859Y-86994997D03*
X139280000Y-87000000D03*
X136110990Y-86995403D03*
X139280000Y-88600000D03*
X137680000Y-87000000D03*
X136080000Y-84600000D03*
D19*
X156235582Y-66548363D03*
D18*
X127801946Y-106537732D03*
D19*
X166321614Y-77572282D03*
X166248957Y-79408030D03*
X101932065Y-82585048D03*
X106417803Y-68312483D03*
X166280000Y-94800000D03*
D18*
X112134000Y-108156000D03*
X150457224Y-71377791D03*
X172289562Y-87124051D03*
D19*
X157600000Y-62944000D03*
D18*
X139820000Y-68665673D03*
X128441330Y-100758313D03*
X172834633Y-99599920D03*
X172879922Y-98618650D03*
X176305593Y-103279812D03*
X165349214Y-97422919D03*
D19*
X160875897Y-94988750D03*
D18*
X164433885Y-63737451D03*
X148639876Y-77729346D03*
D19*
X149751640Y-78029346D03*
D18*
X134079160Y-66786153D03*
X109828000Y-72830000D03*
X116654336Y-78777990D03*
D19*
X176474303Y-94069095D03*
D18*
X173094000Y-87582000D03*
D19*
X100479904Y-93063904D03*
D20*
X163422030Y-81120665D03*
X154726292Y-94171363D03*
X156077107Y-94380779D03*
X158680000Y-81210838D03*
D18*
X112515000Y-83010000D03*
X181065000Y-78785000D03*
X110529662Y-109760338D03*
X110280000Y-105000000D03*
X100080000Y-104200000D03*
X113080000Y-88800000D03*
D19*
X164653770Y-94825547D03*
D18*
X137665894Y-91402446D03*
X135273306Y-88618602D03*
X139272517Y-84611349D03*
X137680556Y-84534085D03*
X141680000Y-86200000D03*
X135280000Y-86200000D03*
X132880000Y-92600000D03*
X132080000Y-92600000D03*
X141680000Y-88600000D03*
X141680000Y-85400000D03*
D19*
X152621047Y-98519969D03*
D18*
X136885174Y-90194826D03*
X140094890Y-90122990D03*
X139280000Y-90122990D03*
X140880000Y-89400000D03*
X137680000Y-90172990D03*
X140880000Y-87800000D03*
X140880000Y-85400000D03*
D21*
X136080000Y-85400000D03*
D18*
X121369010Y-90164222D03*
X130022933Y-91834237D03*
X121036481Y-91008234D03*
X129902064Y-92678248D03*
D19*
X110617371Y-89287199D03*
D18*
X142480000Y-91000000D03*
X142480000Y-83800000D03*
X134480000Y-83800000D03*
X134480000Y-91000000D03*
X105037711Y-86632990D03*
X155149360Y-71764535D03*
X121086654Y-69078528D03*
X170182962Y-69571012D03*
X174110000Y-108410000D03*
X158870000Y-108410000D03*
X134750646Y-106810513D03*
X137288700Y-97538741D03*
X133680000Y-91800000D03*
D21*
X134074414Y-102752225D03*
D18*
X134675868Y-108131585D03*
X135085458Y-97531790D03*
D21*
X133449289Y-102232615D03*
D18*
X133680000Y-92600000D03*
X127935466Y-104261259D03*
X132936956Y-104698915D03*
X134463998Y-108841973D03*
X132752670Y-98178920D03*
X133685668Y-93402482D03*
X134636872Y-109719950D03*
X130714529Y-99901000D03*
X131039363Y-97487286D03*
X132846234Y-94197073D03*
X118858690Y-62658970D03*
X130761990Y-67119621D03*
X148477832Y-69619684D03*
X149475951Y-69619684D03*
X148991194Y-71377791D03*
X153984196Y-65077116D03*
X153322343Y-68673419D03*
X143650666Y-63862520D03*
X178665908Y-89713903D03*
X149183754Y-63257114D03*
X179375977Y-89317806D03*
X140035989Y-81400000D03*
X128776655Y-87110882D03*
X132077895Y-86272150D03*
X117121665Y-97817265D03*
X118843798Y-95498222D03*
D21*
X119978162Y-95412951D03*
X120634035Y-94977604D03*
D18*
X113212238Y-68244401D03*
X166678914Y-70803555D03*
X146387166Y-77939336D03*
X147480000Y-77822010D03*
X131453853Y-103296209D03*
X144891634Y-91008466D03*
D21*
X148653935Y-95249010D03*
X149565978Y-94054788D03*
D18*
X144867244Y-90164455D03*
D21*
X150720500Y-96575802D03*
D18*
X144890381Y-83866022D03*
D21*
X151448039Y-95951686D03*
D18*
X144894101Y-83022010D03*
D21*
X150149219Y-96229829D03*
D18*
X144901285Y-86268736D03*
D21*
X150033441Y-95660469D03*
D18*
X144888562Y-86993817D03*
D21*
X149952517Y-95085120D03*
D18*
X144877648Y-88622010D03*
D21*
X149584522Y-94635504D03*
D18*
X144810610Y-89177990D03*
X144895773Y-91874444D03*
D21*
X147777713Y-93691005D03*
X147356233Y-93219138D03*
D18*
X144102010Y-92600000D03*
D21*
X147915304Y-93060979D03*
D18*
X144882352Y-92577990D03*
X130807074Y-95454141D03*
X130141304Y-93529144D03*
X132080000Y-93400000D03*
X129254670Y-93244631D03*
X133919980Y-96038729D03*
X141280000Y-97600000D03*
X132572818Y-96383863D03*
X135770000Y-97338127D03*
X132080000Y-94200000D03*
X128669601Y-84020243D03*
X105906712Y-103816552D03*
X129459184Y-90039192D03*
X132080000Y-89444020D03*
X130839486Y-103354982D03*
X128602801Y-103831529D03*
X132162861Y-106185868D03*
X128321313Y-89539949D03*
X132880000Y-88600000D03*
X127145130Y-88379076D03*
X124253981Y-105982535D03*
X132080000Y-87000000D03*
X125827283Y-93452662D03*
X124202418Y-107207639D03*
D21*
X142530990Y-75662841D03*
X143525587Y-74749772D03*
D18*
X110313517Y-74380698D03*
X132146108Y-109940263D03*
X114166000Y-74247000D03*
X132189000Y-109415000D03*
X135567436Y-81489225D03*
X135767546Y-77648547D03*
X134702010Y-77200000D03*
X134471354Y-81347908D03*
X132761172Y-77202673D03*
X132737245Y-76676207D03*
X128545566Y-77476577D03*
X127643658Y-79355564D03*
X110718734Y-94451783D03*
X128515897Y-78994176D03*
X110193102Y-94489889D03*
X128569727Y-78469921D03*
X106412639Y-97453606D03*
X131230910Y-78113843D03*
X106479997Y-97976296D03*
X131709326Y-78745875D03*
X132783332Y-81399993D03*
X129016746Y-82660638D03*
X105679715Y-100783924D03*
X132084821Y-83022010D03*
X128948848Y-83183258D03*
X106401171Y-101377901D03*
X132886504Y-83777990D03*
X129513931Y-83860979D03*
X105803161Y-102850427D03*
X132117443Y-83866021D03*
X127966259Y-83527946D03*
X105651866Y-103355255D03*
X132079996Y-84503337D03*
X128256283Y-84387285D03*
X106023598Y-104697574D03*
X133671942Y-84595200D03*
X127824162Y-84688968D03*
X105973679Y-105248709D03*
X132875802Y-85428138D03*
D21*
X146862501Y-96617499D03*
X147534467Y-95913260D03*
D18*
X148102806Y-95339021D03*
X143280000Y-91000000D03*
X149207706Y-95605291D03*
X144082424Y-90132858D03*
X143989948Y-89177990D03*
X147125926Y-89802879D03*
X143281824Y-90201951D03*
X144102010Y-85397219D03*
X147422472Y-84858593D03*
X144886544Y-85385186D03*
X144102010Y-83000000D03*
X148975652Y-82755341D03*
X144885092Y-82177990D03*
X147470668Y-88324835D03*
X144082832Y-88584510D03*
X147997681Y-88324844D03*
X143278026Y-88595030D03*
X144102010Y-82185600D03*
X148935852Y-80899014D03*
X148337768Y-80975785D03*
X144866392Y-81333979D03*
X139280000Y-81400000D03*
X139145358Y-78809170D03*
X139040624Y-78036724D03*
X138723613Y-77165705D03*
X138593844Y-75910161D03*
X138716105Y-76425854D03*
X137680000Y-81400000D03*
X137538026Y-76510532D03*
X137116016Y-76974740D03*
X136928568Y-77562978D03*
X136634118Y-78451672D03*
X135830689Y-76094515D03*
X136411444Y-81497309D03*
X148668800Y-84550385D03*
X144877691Y-84532933D03*
X144102010Y-83800000D03*
X147894174Y-83335809D03*
X142851623Y-78759750D03*
X142473549Y-82998913D03*
X143105106Y-78295223D03*
X142396423Y-82191394D03*
X145494012Y-76834828D03*
X144146021Y-81374784D03*
X143331797Y-77819457D03*
X146627648Y-76461302D03*
X143257990Y-82207154D03*
X143257990Y-81379632D03*
X145017056Y-74655847D03*
X141318978Y-78199263D03*
X141657990Y-82130345D03*
X142413979Y-81382236D03*
X140080000Y-82200000D03*
X141342967Y-76554996D03*
X141046643Y-74873804D03*
X140864029Y-83041403D03*
X140890207Y-75681941D03*
X140924011Y-82179283D03*
X129542604Y-86703515D03*
X132880000Y-83022010D03*
X132080000Y-82177990D03*
X132080000Y-81400000D03*
X131847310Y-79589886D03*
X130856828Y-77742623D03*
X131923295Y-77584853D03*
X133654358Y-82177990D03*
X133627343Y-81396408D03*
X129336756Y-91938993D03*
X132880000Y-91000000D03*
X128765088Y-92004296D03*
X132077648Y-90977990D03*
X130196821Y-80377733D03*
X131180000Y-80500000D03*
X128489708Y-84867377D03*
X132079620Y-85428138D03*
X165326966Y-71026598D03*
X134501414Y-82177578D03*
X133922194Y-77854836D03*
X135656559Y-110610712D03*
X132448438Y-104994496D03*
X146844288Y-103452739D03*
X134707351Y-105508447D03*
X132280000Y-108800000D03*
X112515000Y-86185000D03*
X163277422Y-98501717D03*
X170126036Y-109212466D03*
X170157734Y-105666345D03*
X169895346Y-75092988D03*
X143257990Y-83000000D03*
X168166438Y-79108038D03*
X151896383Y-103510715D03*
X114039000Y-72342000D03*
X110483000Y-72215000D03*
X177274002Y-105079115D03*
X143258015Y-93423150D03*
X172761273Y-101651681D03*
X143280000Y-91800000D03*
X172193360Y-101105663D03*
X144064831Y-91877646D03*
X171540304Y-100645743D03*
X144080000Y-91000000D03*
X154044000Y-69294000D03*
X129061632Y-76229575D03*
X135280000Y-83022010D03*
X129493343Y-75737814D03*
X136080000Y-83000000D03*
X129122249Y-75363607D03*
X135345425Y-82176814D03*
X129252218Y-74142461D03*
X135830698Y-76905381D03*
X136080000Y-82200000D03*
X172746637Y-74347988D03*
X143280000Y-83800000D03*
X142480000Y-77600000D03*
X170300000Y-68151000D03*
X170950000Y-68125562D03*
X125480000Y-93000000D03*
X121206217Y-89662983D03*
X132156079Y-90030946D03*
X182654362Y-110665838D03*
X124080000Y-87400000D03*
X124080000Y-87400000D03*
D22*
X147440000Y-100790000D02*
X147440000Y-99474000D01*
X147440000Y-99474000D02*
X146166000Y-98200000D01*
D23*
X130022933Y-91834237D02*
X129168140Y-90979444D01*
X129168140Y-90979444D02*
X122184232Y-90979444D01*
X122184232Y-90979444D02*
X121569009Y-90364221D01*
X121569009Y-90364221D02*
X121369010Y-90164222D01*
X122506496Y-92478249D02*
X121236480Y-91208233D01*
X129702065Y-92478249D02*
X122506496Y-92478249D01*
X121236480Y-91208233D02*
X121036481Y-91008234D01*
X129902064Y-92678248D02*
X129702065Y-92478249D01*
D22*
X121150800Y-69142674D02*
X152527499Y-69142674D01*
X121086654Y-69078528D02*
X121150800Y-69142674D01*
X154949361Y-71564536D02*
X155149360Y-71764535D01*
X152527499Y-69142674D02*
X154949361Y-71564536D01*
D23*
X134074414Y-105492019D02*
X134750646Y-106168251D01*
X134750646Y-106168251D02*
X134750646Y-106527671D01*
X134750646Y-106527671D02*
X134750646Y-106810513D01*
X134074414Y-102752225D02*
X134074414Y-105492019D01*
X137088701Y-97738740D02*
X137288700Y-97538741D01*
X136032257Y-101847743D02*
X136032257Y-98795184D01*
X134074414Y-102752225D02*
X135127775Y-102752225D01*
X135127775Y-102752225D02*
X136032257Y-101847743D01*
X136032257Y-98795184D02*
X137088701Y-97738740D01*
X134475869Y-107931586D02*
X134675868Y-108131585D01*
X133449289Y-102232615D02*
X133449289Y-105671174D01*
X133449289Y-105671174D02*
X134303719Y-106525604D01*
X134303719Y-107759436D02*
X134475869Y-107931586D01*
X134303719Y-106525604D02*
X134303719Y-107759436D01*
X134885459Y-97731789D02*
X135085458Y-97531790D01*
X133449289Y-99167959D02*
X134885459Y-97731789D01*
X133449289Y-102232615D02*
X133449289Y-99167959D01*
X132752670Y-98178920D02*
X132752670Y-98487421D01*
X132936956Y-104416073D02*
X132936956Y-104698915D01*
X132936956Y-103456956D02*
X132936956Y-104416073D01*
X131114390Y-101634390D02*
X132936956Y-103456956D01*
X131114390Y-100125701D02*
X131114390Y-101634390D01*
X132752670Y-98487421D02*
X131114390Y-100125701D01*
X133986708Y-106694648D02*
X132936956Y-105644896D01*
X132936956Y-105644896D02*
X132936956Y-104981757D01*
X133986708Y-108364683D02*
X133986708Y-106694648D01*
X132936956Y-104981757D02*
X132936956Y-104698915D01*
X134463998Y-108841973D02*
X133986708Y-108364683D01*
X131997078Y-105206843D02*
X133669697Y-106879462D01*
X131997078Y-103214910D02*
X131997078Y-105206843D01*
X130714529Y-101932361D02*
X131997078Y-103214910D01*
X133669697Y-106879462D02*
X133669697Y-108752775D01*
X133669697Y-108752775D02*
X134436873Y-109519951D01*
X134436873Y-109519951D02*
X134636872Y-109719950D01*
X130714529Y-99901000D02*
X130714529Y-101932361D01*
X130714529Y-97812120D02*
X130714529Y-99901000D01*
X131039363Y-97487286D02*
X130714529Y-97812120D01*
X147480000Y-77822010D02*
X147280001Y-78022009D01*
X147280001Y-78022009D02*
X146469839Y-78022009D01*
X146469839Y-78022009D02*
X146387166Y-77939336D01*
X139718729Y-96038729D02*
X134202822Y-96038729D01*
X134202822Y-96038729D02*
X133919980Y-96038729D01*
X141280000Y-97600000D02*
X139718729Y-96038729D01*
X132942129Y-96470332D02*
X132855660Y-96383863D01*
X135770000Y-97338127D02*
X134902205Y-96470332D01*
X134902205Y-96470332D02*
X132942129Y-96470332D01*
X132855660Y-96383863D02*
X132572818Y-96383863D01*
X123263288Y-86593966D02*
X125907300Y-83949956D01*
X118073967Y-91932139D02*
X118073967Y-90666526D01*
X105906712Y-103816552D02*
X106189554Y-103816552D01*
X118073967Y-90666526D02*
X122146527Y-86593966D01*
X128599314Y-83949956D02*
X128669601Y-84020243D01*
X106189554Y-103816552D02*
X118073967Y-91932139D01*
X122146527Y-86593966D02*
X123263288Y-86593966D01*
X125907300Y-83949956D02*
X128599314Y-83949956D01*
X143525587Y-74749772D02*
X142612518Y-75662841D01*
X142612518Y-75662841D02*
X142530990Y-75662841D01*
X135567547Y-77448548D02*
X135767546Y-77648547D01*
X135091677Y-76972678D02*
X135567547Y-77448548D01*
X135091677Y-76266715D02*
X135091677Y-76972678D01*
X122055765Y-81298582D02*
X123581957Y-79772389D01*
X129343318Y-74564885D02*
X129351453Y-74556750D01*
X128257629Y-74997248D02*
X128689992Y-74564885D01*
X128257629Y-75131735D02*
X128257629Y-74997248D01*
X121582408Y-81298582D02*
X122055765Y-81298582D01*
X123616975Y-79772389D02*
X128257629Y-75131735D01*
X123581957Y-79772389D02*
X123616975Y-79772389D01*
X97910000Y-83010000D02*
X99617935Y-81302065D01*
X121578924Y-81302066D02*
X121582408Y-81298582D01*
X99617935Y-81302065D02*
X101873836Y-81302066D01*
X101873836Y-81302066D02*
X121578924Y-81302066D01*
X129351453Y-74556750D02*
X133381712Y-74556750D01*
X128689992Y-74564885D02*
X129343318Y-74564885D01*
X133381712Y-74556750D02*
X135091677Y-76266715D01*
X128794080Y-74909118D02*
X128574640Y-75128558D01*
X129482763Y-74873761D02*
X129447406Y-74909118D01*
X133250402Y-74873761D02*
X129482763Y-74873761D01*
X121713718Y-81615593D02*
X121710234Y-81619077D01*
X96233599Y-83873599D02*
X95370000Y-83010000D01*
X128574640Y-75263045D02*
X123748285Y-80089400D01*
X129447406Y-74909118D02*
X128794080Y-74909118D01*
X128574640Y-75128558D02*
X128574640Y-75263045D01*
X96543069Y-84183069D02*
X96233599Y-83873599D01*
X101810400Y-81619077D02*
X99246408Y-84183069D01*
X121710234Y-81619077D02*
X101810400Y-81619077D01*
X99246408Y-84183069D02*
X96543069Y-84183069D01*
X123713267Y-80089400D02*
X122187075Y-81615593D01*
X123748285Y-80089400D02*
X123713267Y-80089400D01*
X122187075Y-81615593D02*
X121713718Y-81615593D01*
X134280000Y-75903359D02*
X133250402Y-74873761D01*
X134702010Y-76325369D02*
X134702010Y-76917158D01*
X134280000Y-75903359D02*
X134702010Y-76325369D01*
X134702010Y-76917158D02*
X134702010Y-77200000D01*
X134344206Y-75967565D02*
X134280000Y-75903359D01*
X97910000Y-90630000D02*
X98773599Y-91493599D01*
X98773599Y-91493599D02*
X112032126Y-91493599D01*
X121599534Y-83106845D02*
X123977958Y-80728422D01*
X112032126Y-91493599D02*
X120418879Y-83106845D01*
X120418879Y-83106845D02*
X121599534Y-83106845D01*
D24*
X132273875Y-76998218D02*
X132478330Y-77202673D01*
X123977958Y-80728422D02*
X124012976Y-80728422D01*
X124012976Y-80728422D02*
X127743180Y-76998218D01*
X132478330Y-77202673D02*
X132761172Y-77202673D01*
X127743180Y-76998218D02*
X132273875Y-76998218D01*
D23*
X112671654Y-90405750D02*
X99292440Y-90405750D01*
X98431089Y-89544399D02*
X96455601Y-89544399D01*
X132737245Y-76676207D02*
X127609799Y-76676207D01*
X127609799Y-76676207D02*
X123879595Y-80406411D01*
X121461152Y-82789834D02*
X120287569Y-82789834D01*
X96233599Y-89766401D02*
X95370000Y-90630000D01*
X96455601Y-89544399D02*
X96233599Y-89766401D01*
X123879595Y-80406411D02*
X123844577Y-80406411D01*
X120287569Y-82789834D02*
X112671654Y-90405750D01*
X123844577Y-80406411D02*
X121461152Y-82789834D01*
X99292440Y-90405750D02*
X98431089Y-89544399D01*
X111667645Y-92306401D02*
X120550189Y-83423856D01*
X97910000Y-93170000D02*
X98773599Y-92306401D01*
X121772934Y-83423856D02*
X127720213Y-77476577D01*
X120550189Y-83423856D02*
X121772934Y-83423856D01*
X128262724Y-77476577D02*
X128545566Y-77476577D01*
X98773599Y-92306401D02*
X111667645Y-92306401D01*
X127720213Y-77476577D02*
X128262724Y-77476577D01*
X111020869Y-93401498D02*
X120681499Y-83740867D01*
X109802828Y-94255601D02*
X110656931Y-93401498D01*
X127360816Y-79355564D02*
X127643658Y-79355564D01*
X110656931Y-93401498D02*
X111020869Y-93401498D01*
X121904244Y-83740867D02*
X126289547Y-79355564D01*
X96455601Y-94255601D02*
X109802828Y-94255601D01*
X120681499Y-83740867D02*
X121904244Y-83740867D01*
X95370000Y-93170000D02*
X96455601Y-94255601D01*
X126289547Y-79355564D02*
X127360816Y-79355564D01*
X128515897Y-79556208D02*
X127977529Y-80094576D01*
X127977529Y-80094576D02*
X126447178Y-80094576D01*
X120944119Y-84374889D02*
X110867226Y-94451783D01*
X128515897Y-78994176D02*
X128515897Y-79556208D01*
X122166864Y-84374889D02*
X120944119Y-84374889D01*
X126447178Y-80094576D02*
X122166864Y-84374889D01*
X109609009Y-95710000D02*
X110718734Y-94600276D01*
X110718734Y-94600276D02*
X110718734Y-94451783D01*
X110867226Y-94451783D02*
X110718734Y-94451783D01*
X97910000Y-95710000D02*
X109609009Y-95710000D01*
X110516173Y-94029782D02*
X110193102Y-94352853D01*
X110110379Y-94572612D02*
X110193102Y-94489889D01*
X122035554Y-84057878D02*
X120812809Y-84057878D01*
X95370000Y-95710000D02*
X96507388Y-94572612D01*
X128080580Y-79523310D02*
X127826325Y-79777565D01*
X110840905Y-94029782D02*
X110516173Y-94029782D01*
X110193102Y-94352853D02*
X110193102Y-94489889D01*
X128080580Y-78676226D02*
X128080580Y-79523310D01*
X128569727Y-78469921D02*
X128286885Y-78469921D01*
X120812809Y-84057878D02*
X110840905Y-94029782D01*
X128286885Y-78469921D02*
X128080580Y-78676226D01*
X126315868Y-79777565D02*
X122035554Y-84057878D01*
X127826325Y-79777565D02*
X126315868Y-79777565D01*
X96507388Y-94572612D02*
X110110379Y-94572612D01*
X131230910Y-78113843D02*
X131030911Y-78313842D01*
X106129797Y-97453606D02*
X106412639Y-97453606D01*
X99131314Y-98250000D02*
X99927708Y-97453606D01*
X131030911Y-78313842D02*
X130206584Y-78313842D01*
X99927708Y-97453606D02*
X106129797Y-97453606D01*
X97910000Y-98250000D02*
X99131314Y-98250000D01*
X108313723Y-97453606D02*
X106695481Y-97453606D01*
X130206584Y-78313842D02*
X128108839Y-80411587D01*
X121075429Y-84691900D02*
X108313723Y-97453606D01*
X126578488Y-80411587D02*
X122298174Y-84691900D01*
X128108839Y-80411587D02*
X126578488Y-80411587D01*
X106695481Y-97453606D02*
X106412639Y-97453606D01*
X122298174Y-84691900D02*
X121075429Y-84691900D01*
X100103704Y-97976296D02*
X106197155Y-97976296D01*
X98680000Y-99400000D02*
X100103704Y-97976296D01*
X95370000Y-98250000D02*
X96520000Y-99400000D01*
X108239354Y-97976296D02*
X106762839Y-97976296D01*
X121206739Y-85008911D02*
X108239354Y-97976296D01*
X122570707Y-85008911D02*
X121206739Y-85008911D01*
X126851020Y-80728598D02*
X122570707Y-85008911D01*
X128240149Y-80728598D02*
X126851020Y-80728598D01*
X131709326Y-78745875D02*
X130222872Y-78745875D01*
X130222872Y-78745875D02*
X128240149Y-80728598D01*
X106197155Y-97976296D02*
X106479997Y-97976296D01*
X106762839Y-97976296D02*
X106479997Y-97976296D01*
X96520000Y-99400000D02*
X98680000Y-99400000D01*
X125567300Y-82460639D02*
X128816747Y-82460639D01*
X105679715Y-100783924D02*
X105879714Y-100583925D01*
X105879714Y-100583925D02*
X106080046Y-100583925D01*
X128816747Y-82460639D02*
X129016746Y-82660638D01*
X121338049Y-85325922D02*
X122702017Y-85325922D01*
X122702017Y-85325922D02*
X125567300Y-82460639D01*
X106080046Y-100583925D02*
X121338049Y-85325922D01*
X97910000Y-100790000D02*
X105673639Y-100790000D01*
X105673639Y-100790000D02*
X105679715Y-100783924D01*
X122833327Y-85642933D02*
X125687326Y-82788934D01*
X125687326Y-82788934D02*
X128300130Y-82788934D01*
X106401171Y-100711121D02*
X121469359Y-85642933D01*
X128300130Y-82788934D02*
X128694454Y-83183258D01*
X106401171Y-101377901D02*
X106401171Y-100711121D01*
X121469359Y-85642933D02*
X122833327Y-85642933D01*
X128694454Y-83183258D02*
X128948848Y-83183258D01*
X95370000Y-100790000D02*
X96464030Y-101884030D01*
X96464030Y-101884030D02*
X98749524Y-101884030D01*
X106400568Y-101377298D02*
X106401171Y-101377901D01*
X98749524Y-101884030D02*
X99256256Y-101377298D01*
X99256256Y-101377298D02*
X106400568Y-101377298D01*
X128168820Y-83105945D02*
X128661116Y-83598241D01*
X129231089Y-83860979D02*
X129513931Y-83860979D01*
X123000670Y-85959944D02*
X125854669Y-83105945D01*
X121883907Y-85959944D02*
X123000670Y-85959944D01*
X117439945Y-90403906D02*
X121883907Y-85959944D01*
X117439945Y-91213643D02*
X117439945Y-90403906D01*
X105803161Y-102850427D02*
X117439945Y-91213643D01*
X129134901Y-83860979D02*
X129231089Y-83860979D01*
X125854669Y-83105945D02*
X128168820Y-83105945D01*
X128661116Y-83598241D02*
X128872163Y-83598241D01*
X128872163Y-83598241D02*
X129134901Y-83860979D01*
X105520319Y-102850427D02*
X105803161Y-102850427D01*
X99610887Y-102850427D02*
X105520319Y-102850427D01*
X97910000Y-103330000D02*
X99131314Y-103330000D01*
X99131314Y-103330000D02*
X99610887Y-102850427D01*
X127683417Y-83527946D02*
X127966259Y-83527946D01*
X123131979Y-86276955D02*
X125880989Y-83527946D01*
X117756956Y-90535216D02*
X122015217Y-86276955D01*
X122015217Y-86276955D02*
X123131979Y-86276955D01*
X105651866Y-103355255D02*
X105934708Y-103355255D01*
X117756956Y-91533007D02*
X117756956Y-90535216D01*
X105934708Y-103355255D02*
X117756956Y-91533007D01*
X125880989Y-83527946D02*
X127683417Y-83527946D01*
X99976424Y-103355255D02*
X105369024Y-103355255D01*
X98916078Y-104415601D02*
X99976424Y-103355255D01*
X95370000Y-103330000D02*
X96455601Y-104415601D01*
X96455601Y-104415601D02*
X98916078Y-104415601D01*
X105369024Y-103355255D02*
X105651866Y-103355255D01*
X118390978Y-90797836D02*
X122277837Y-86910977D01*
X106223597Y-104481981D02*
X118390978Y-92314600D01*
X126038610Y-84266967D02*
X128135965Y-84266967D01*
X122277837Y-86910977D02*
X123394600Y-86910977D01*
X118390978Y-92314600D02*
X118390978Y-90797836D01*
X106023598Y-104697574D02*
X106223597Y-104497575D01*
X123394600Y-86910977D02*
X126038610Y-84266967D01*
X128135965Y-84266967D02*
X128256283Y-84387285D01*
X106223597Y-104497575D02*
X106223597Y-104481981D01*
X99082426Y-104697574D02*
X105740756Y-104697574D01*
X97910000Y-105870000D02*
X99082426Y-104697574D01*
X105740756Y-104697574D02*
X106023598Y-104697574D01*
X106707990Y-104797240D02*
X106707990Y-104445908D01*
X123525910Y-87227988D02*
X126064930Y-84688968D01*
X118707989Y-90929146D02*
X122409147Y-87227988D01*
X126064930Y-84688968D02*
X127541320Y-84688968D01*
X122409147Y-87227988D02*
X123525910Y-87227988D01*
X106707990Y-104445908D02*
X118707989Y-92445909D01*
X105973679Y-105248709D02*
X106256521Y-105248709D01*
X118707989Y-92445909D02*
X118707989Y-90929146D01*
X127541320Y-84688968D02*
X127824162Y-84688968D01*
X106256521Y-105248709D02*
X106707990Y-104797240D01*
X105690837Y-105248709D02*
X105973679Y-105248709D01*
X98924399Y-106955601D02*
X100631291Y-105248709D01*
X96455601Y-106955601D02*
X98924399Y-106955601D01*
X95370000Y-105870000D02*
X96455601Y-106955601D01*
X100631291Y-105248709D02*
X105690837Y-105248709D01*
X154705873Y-104460871D02*
X147089500Y-96844498D01*
X182860871Y-104460871D02*
X154705873Y-104460871D01*
X184270000Y-105870000D02*
X182860871Y-104460871D01*
X147089500Y-96844498D02*
X146862501Y-96617499D01*
X155765067Y-104143860D02*
X147761466Y-96140259D01*
X182992181Y-104143860D02*
X155765067Y-104143860D01*
X147761466Y-96140259D02*
X147534467Y-95913260D01*
X183263922Y-104415601D02*
X182992181Y-104143860D01*
X185355601Y-104415601D02*
X183263922Y-104415601D01*
X186810000Y-105870000D02*
X185355601Y-104415601D01*
X183048686Y-103330000D02*
X182303816Y-102585130D01*
X184270000Y-103330000D02*
X183048686Y-103330000D01*
X182303816Y-102585130D02*
X155066073Y-102585130D01*
X155066073Y-102585130D02*
X148102806Y-95621863D01*
X148102806Y-95621863D02*
X148102806Y-95339021D01*
X149207706Y-95605291D02*
X149207706Y-96127706D01*
X149207706Y-96127706D02*
X155348119Y-102268119D01*
X155348119Y-102268119D02*
X182284111Y-102268119D01*
X182284111Y-102268119D02*
X182359618Y-102192612D01*
X182359618Y-102192612D02*
X185672612Y-102192612D01*
X185672612Y-102192612D02*
X185946401Y-102466401D01*
X185946401Y-102466401D02*
X186810000Y-103330000D01*
X158613800Y-89802879D02*
X147408768Y-89802879D01*
X184270000Y-100790000D02*
X183406401Y-99926401D01*
X183406401Y-99926401D02*
X183406401Y-99478081D01*
X183406401Y-99478081D02*
X173606310Y-89677989D01*
X173606310Y-89677989D02*
X158738690Y-89677989D01*
X158738690Y-89677989D02*
X158613800Y-89802879D01*
X147408768Y-89802879D02*
X147125926Y-89802879D01*
X186810000Y-100790000D02*
X185724399Y-101875601D01*
X185724399Y-101875601D02*
X183748911Y-101875601D01*
X183748911Y-101875601D02*
X182974926Y-101101616D01*
X182974926Y-101101616D02*
X182974926Y-99494926D01*
X182974926Y-99494926D02*
X173762989Y-90282989D01*
X173762989Y-90282989D02*
X146811310Y-90282989D01*
X146811310Y-90282989D02*
X146239178Y-89710857D01*
X146239178Y-89710857D02*
X143772918Y-89710857D01*
X143772918Y-89710857D02*
X143481823Y-90001952D01*
X143481823Y-90001952D02*
X143281824Y-90201951D01*
X144102010Y-85418712D02*
X144102010Y-85397219D01*
X144280516Y-85597218D02*
X144102010Y-85418712D01*
X144530024Y-85846726D02*
X145203134Y-85846726D01*
X151080000Y-86200000D02*
X152280000Y-85000000D01*
X145203134Y-85846726D02*
X145556408Y-86200000D01*
X144280516Y-85597218D02*
X144530024Y-85846726D01*
X145556408Y-86200000D02*
X151080000Y-86200000D01*
X152280000Y-85000000D02*
X172338686Y-85000000D01*
X183048686Y-95710000D02*
X184270000Y-95710000D01*
X172338686Y-85000000D02*
X183048686Y-95710000D01*
X144280516Y-85597218D02*
X144280516Y-85600516D01*
X149349601Y-84487855D02*
X148778864Y-85058592D01*
X172362376Y-84487855D02*
X149349601Y-84487855D01*
X185680000Y-94580000D02*
X182454521Y-94580000D01*
X182454521Y-94580000D02*
X172362376Y-84487855D01*
X186810000Y-95710000D02*
X185680000Y-94580000D01*
X147622471Y-85058592D02*
X147422472Y-84858593D01*
X148778864Y-85058592D02*
X147622471Y-85058592D01*
X149020439Y-82710554D02*
X148975652Y-82755341D01*
X149110027Y-82710554D02*
X149020439Y-82710554D01*
X183406401Y-89766401D02*
X182846401Y-89766401D01*
X175790554Y-82710554D02*
X149110027Y-82710554D01*
X182846401Y-89766401D02*
X175790554Y-82710554D01*
X184270000Y-90630000D02*
X183406401Y-89766401D01*
X183123838Y-89400000D02*
X175901828Y-82177990D01*
X145167934Y-82177990D02*
X144885092Y-82177990D01*
X175901828Y-82177990D02*
X145167934Y-82177990D01*
X185580000Y-89400000D02*
X183123838Y-89400000D01*
X186810000Y-90630000D02*
X185580000Y-89400000D01*
X147609837Y-88746846D02*
X147470668Y-88607677D01*
X148200243Y-88746846D02*
X147609837Y-88746846D01*
X172976640Y-88600000D02*
X148347089Y-88600000D01*
X184270000Y-98250000D02*
X182626640Y-98250000D01*
X182626640Y-98250000D02*
X172976640Y-88600000D01*
X148347089Y-88600000D02*
X148200243Y-88746846D01*
X147470668Y-88607677D02*
X147470668Y-88324835D01*
X148197680Y-88124845D02*
X147997681Y-88324844D01*
X173004845Y-88124845D02*
X148197680Y-88124845D01*
X185560000Y-97000000D02*
X181880000Y-97000000D01*
X186810000Y-98250000D02*
X185560000Y-97000000D01*
X181880000Y-97000000D02*
X173004845Y-88124845D01*
X183048686Y-83010000D02*
X180516681Y-80477995D01*
X180516681Y-80477995D02*
X149356871Y-80477995D01*
X184270000Y-83010000D02*
X183048686Y-83010000D01*
X149135851Y-80699015D02*
X148935852Y-80899014D01*
X149356871Y-80477995D02*
X149135851Y-80699015D01*
X182207713Y-81720706D02*
X180647991Y-80160984D01*
X148337768Y-80692943D02*
X148337768Y-80975785D01*
X185520706Y-81720706D02*
X182207713Y-81720706D01*
X180647991Y-80160984D02*
X148869727Y-80160984D01*
X148869727Y-80160984D02*
X148337768Y-80692943D01*
X186810000Y-83010000D02*
X185520706Y-81720706D01*
X139779637Y-80900363D02*
X139479999Y-81200001D01*
X139479999Y-81200001D02*
X139280000Y-81400000D01*
X139779637Y-77339352D02*
X139779637Y-80900363D01*
X140353611Y-71344070D02*
X140353610Y-76765381D01*
X140353610Y-76765381D02*
X139779637Y-77339352D01*
X138656917Y-69647376D02*
X140353611Y-71344070D01*
X121217202Y-69646743D02*
X121217835Y-69647376D01*
X121217835Y-69647376D02*
X138656917Y-69647376D01*
X97910000Y-67770000D02*
X99131314Y-67770000D01*
X99131314Y-67770000D02*
X101008057Y-69646743D01*
X101008057Y-69646743D02*
X121217202Y-69646743D01*
X100876747Y-69963754D02*
X121085892Y-69963754D01*
X99768594Y-68855601D02*
X100876747Y-69963754D01*
X96455601Y-68855601D02*
X99768594Y-68855601D01*
X95370000Y-67770000D02*
X96455601Y-68855601D01*
X121085892Y-69963754D02*
X121086525Y-69964387D01*
X121086525Y-69964387D02*
X138525607Y-69964387D01*
X138525607Y-69964387D02*
X140036600Y-71475380D01*
X140036600Y-71475380D02*
X140036600Y-76634070D01*
X140036600Y-76634070D02*
X139462626Y-77208042D01*
X139462626Y-77208042D02*
X139462626Y-78491902D01*
X139462626Y-78491902D02*
X139345357Y-78609171D01*
X139345357Y-78609171D02*
X139145358Y-78809170D01*
X139719591Y-75542454D02*
X139719591Y-76502758D01*
X134458535Y-70281398D02*
X139719591Y-75542454D01*
X100326351Y-70310000D02*
X100355586Y-70280765D01*
X139040624Y-77753882D02*
X139040624Y-78036724D01*
X97910000Y-70310000D02*
X100326351Y-70310000D01*
X120955215Y-70281398D02*
X134458535Y-70281398D01*
X100355586Y-70280765D02*
X120954582Y-70280765D01*
X120954582Y-70280765D02*
X120955215Y-70281398D01*
X139719591Y-76502758D02*
X139145615Y-77076732D01*
X139145615Y-77076732D02*
X139145615Y-77648891D01*
X139145615Y-77648891D02*
X139040624Y-77753882D01*
X95370000Y-70310000D02*
X96460000Y-71400000D01*
X139402580Y-76371448D02*
X138723613Y-77050415D01*
X134327226Y-70598409D02*
X139402580Y-75673763D01*
X100486263Y-70598409D02*
X134327226Y-70598409D01*
X138723613Y-77050415D02*
X138723613Y-77165705D01*
X99684672Y-71400000D02*
X100486263Y-70598409D01*
X139402580Y-75673763D02*
X139402580Y-76371448D01*
X96460000Y-71400000D02*
X99684672Y-71400000D01*
X138393845Y-75710162D02*
X138593844Y-75910161D01*
X138393845Y-75561668D02*
X138393845Y-75710162D01*
X100748883Y-71232431D02*
X134064608Y-71232431D01*
X99131314Y-72850000D02*
X100748883Y-71232431D01*
X97910000Y-72850000D02*
X99131314Y-72850000D01*
X134064608Y-71232431D02*
X138393845Y-75561668D01*
X96463654Y-71756346D02*
X99776647Y-71756346D01*
X138916104Y-76225855D02*
X138716105Y-76425854D01*
X139085569Y-76056390D02*
X138916104Y-76225855D01*
X134195917Y-70915420D02*
X139085569Y-75805072D01*
X139085569Y-75805072D02*
X139085569Y-76056390D01*
X99776647Y-71756346D02*
X100617573Y-70915420D01*
X100617573Y-70915420D02*
X134195917Y-70915420D01*
X95370000Y-72850000D02*
X96463654Y-71756346D01*
X137879999Y-81200001D02*
X137680000Y-81400000D01*
X137960027Y-75576170D02*
X137960027Y-81119973D01*
X137960027Y-81119973D02*
X137879999Y-81200001D01*
X134164859Y-71781002D02*
X137960027Y-75576170D01*
X101518998Y-71781002D02*
X134164859Y-71781002D01*
X97910000Y-75390000D02*
X101518998Y-71781002D01*
X101948690Y-79717011D02*
X121000984Y-79717011D01*
X128619981Y-72098013D02*
X134033550Y-72098013D01*
X134033550Y-72098013D02*
X137538026Y-75602489D01*
X101788689Y-79717010D02*
X101948690Y-79717011D01*
X137538026Y-75602489D02*
X137538026Y-76227690D01*
X98830956Y-76759277D02*
X101788689Y-79717010D01*
X95370000Y-75390000D02*
X96739277Y-76759277D01*
X121000984Y-79717011D02*
X128619981Y-72098013D01*
X96739277Y-76759277D02*
X98830956Y-76759277D01*
X137538026Y-76227690D02*
X137538026Y-76510532D01*
X121132294Y-80034022D02*
X128431390Y-72734926D01*
X97910000Y-77930000D02*
X99553358Y-77930000D01*
X101817380Y-80034022D02*
X121132294Y-80034022D01*
X137116016Y-76691898D02*
X137116016Y-76974740D01*
X101657379Y-80034021D02*
X101817380Y-80034022D01*
X137116016Y-75628799D02*
X137116016Y-76691898D01*
X99553358Y-77930000D02*
X101657379Y-80034021D01*
X128431390Y-72734926D02*
X134222143Y-72734926D01*
X134222143Y-72734926D02*
X137116016Y-75628799D01*
X95370000Y-77930000D02*
X96455601Y-79015601D01*
X134090834Y-73051937D02*
X136635815Y-75596918D01*
X96455601Y-79015601D02*
X100190639Y-79015601D01*
X100190639Y-79015601D02*
X101526069Y-80351032D01*
X101526069Y-80351032D02*
X101686070Y-80351033D01*
X128562700Y-73051937D02*
X134090834Y-73051937D01*
X136635815Y-77270225D02*
X136728569Y-77362979D01*
X101686070Y-80351033D02*
X121263604Y-80351033D01*
X121263604Y-80351033D02*
X128562700Y-73051937D01*
X136635815Y-75596918D02*
X136635815Y-77270225D01*
X136728569Y-77362979D02*
X136928568Y-77562978D01*
X99329357Y-80668043D02*
X101554760Y-80668044D01*
X121394914Y-80668044D02*
X128694010Y-73368948D01*
X99131314Y-80470000D02*
X99329357Y-80668043D01*
X136434119Y-78251673D02*
X136634118Y-78451672D01*
X101554760Y-80668044D02*
X121394914Y-80668044D01*
X97910000Y-80470000D02*
X99131314Y-80470000D01*
X128694010Y-73368948D02*
X133959525Y-73368948D01*
X133959525Y-73368948D02*
X136252699Y-75662122D01*
X136252699Y-75662122D02*
X136252699Y-78070253D01*
X136252699Y-78070253D02*
X136434119Y-78251673D01*
X98871679Y-81600000D02*
X99486625Y-80985054D01*
X101423450Y-80985055D02*
X121526224Y-80985055D01*
X121526224Y-80985055D02*
X128825320Y-73685959D01*
X133422133Y-73685959D02*
X135630690Y-75894516D01*
X96500000Y-81600000D02*
X98871679Y-81600000D01*
X99486625Y-80985054D02*
X101423450Y-80985055D01*
X95370000Y-80470000D02*
X96500000Y-81600000D01*
X128825320Y-73685959D02*
X133422133Y-73685959D01*
X135630690Y-75894516D02*
X135830689Y-76094515D01*
X149058675Y-84160510D02*
X148868799Y-84350386D01*
X184270000Y-93170000D02*
X175260510Y-84160510D01*
X148868799Y-84350386D02*
X148668800Y-84550385D01*
X175260510Y-84160510D02*
X149058675Y-84160510D01*
X185440000Y-91800000D02*
X183348320Y-91800000D01*
X174884129Y-83335809D02*
X148177016Y-83335809D01*
X148177016Y-83335809D02*
X147894174Y-83335809D01*
X186810000Y-93170000D02*
X185440000Y-91800000D01*
X183348320Y-91800000D02*
X174884129Y-83335809D01*
X143805825Y-78400000D02*
X144157172Y-78751347D01*
X150687266Y-78400000D02*
X169086130Y-78400000D01*
X144157172Y-78751347D02*
X150335919Y-78751347D01*
X150335919Y-78751347D02*
X150687266Y-78400000D01*
X169086130Y-78400000D02*
X170751302Y-76734828D01*
X170751302Y-76734828D02*
X180534828Y-76734828D01*
X180534828Y-76734828D02*
X183406401Y-79606401D01*
X183406401Y-79606401D02*
X184270000Y-80470000D01*
X143446075Y-78759750D02*
X143134465Y-78759750D01*
X143805825Y-78400000D02*
X143446075Y-78759750D01*
X143134465Y-78759750D02*
X142851623Y-78759750D01*
X143864824Y-78341001D02*
X143805825Y-78400000D01*
X143462281Y-78295223D02*
X143387948Y-78295223D01*
X144240178Y-77517326D02*
X143462281Y-78295223D01*
X170318927Y-76667797D02*
X165840172Y-76667797D01*
X147138129Y-77517326D02*
X144240178Y-77517326D01*
X147348119Y-77307336D02*
X147138129Y-77517326D01*
X183263922Y-79015601D02*
X180666138Y-76417817D01*
X165200633Y-77307336D02*
X147348119Y-77307336D01*
X165840172Y-76667797D02*
X165200633Y-77307336D01*
X170568907Y-76417817D02*
X170318927Y-76667797D01*
X180666138Y-76417817D02*
X170568907Y-76417817D01*
X185355601Y-79015601D02*
X183263922Y-79015601D01*
X186810000Y-80470000D02*
X185355601Y-79015601D01*
X143387948Y-78295223D02*
X143105106Y-78295223D01*
X145859499Y-77200315D02*
X145694011Y-77034827D01*
X145694011Y-77034827D02*
X145494012Y-76834828D01*
X147006819Y-77200315D02*
X145859499Y-77200315D01*
X147216808Y-76990325D02*
X147006819Y-77200315D01*
X165069322Y-76990325D02*
X147216808Y-76990325D01*
X165708861Y-76350786D02*
X165069322Y-76990325D01*
X170437597Y-76100806D02*
X170187617Y-76350786D01*
X170187617Y-76350786D02*
X165708861Y-76350786D01*
X180797448Y-76100806D02*
X170437597Y-76100806D01*
X184270000Y-77930000D02*
X182626642Y-77930000D01*
X182626642Y-77930000D02*
X180797448Y-76100806D01*
X180928758Y-75783795D02*
X170306287Y-75783795D01*
X165716521Y-75894805D02*
X164938012Y-76673314D01*
X164938012Y-76673314D02*
X147085499Y-76673314D01*
X147085499Y-76673314D02*
X146875509Y-76883304D01*
X146875509Y-76883304D02*
X146438967Y-76883304D01*
X146438967Y-76883304D02*
X145968481Y-76412818D01*
X145968481Y-76412818D02*
X144738436Y-76412818D01*
X144738436Y-76412818D02*
X143531796Y-77619458D01*
X170306287Y-75783795D02*
X170195277Y-75894805D01*
X170195277Y-75894805D02*
X165716521Y-75894805D01*
X181695229Y-76550266D02*
X180928758Y-75783795D01*
X185430266Y-76550266D02*
X181695229Y-76550266D01*
X186810000Y-77930000D02*
X185430266Y-76550266D01*
X143531796Y-77619458D02*
X143331797Y-77819457D01*
X171282711Y-75396354D02*
X170245407Y-75396354D01*
X146732647Y-76356303D02*
X146627648Y-76461302D01*
X170063967Y-75577794D02*
X165585211Y-75577794D01*
X164806702Y-76356303D02*
X146732647Y-76356303D01*
X171289065Y-75390000D02*
X171282711Y-75396354D01*
X165585211Y-75577794D02*
X164806702Y-76356303D01*
X184270000Y-75390000D02*
X171289065Y-75390000D01*
X170245407Y-75396354D02*
X170063967Y-75577794D01*
X173274361Y-74259351D02*
X172940997Y-73925987D01*
X186810000Y-75390000D02*
X185679351Y-74259351D01*
X142162989Y-78375499D02*
X142112610Y-78425878D01*
X185679351Y-74259351D02*
X173274361Y-74259351D01*
X145584951Y-75420862D02*
X143945478Y-75420862D01*
X145600543Y-75405270D02*
X145584951Y-75420862D01*
X171144698Y-73925987D02*
X170731231Y-74339454D01*
X165478588Y-74339454D02*
X164412772Y-75405270D01*
X164412772Y-75405270D02*
X145600543Y-75405270D01*
X142112610Y-80234252D02*
X143057991Y-81179633D01*
X142057999Y-77308341D02*
X142057999Y-77802561D01*
X142162989Y-77907551D02*
X142162989Y-78375499D01*
X142057999Y-77802561D02*
X142162989Y-77907551D01*
X170731231Y-74339454D02*
X165478588Y-74339454D01*
X172940997Y-73925987D02*
X171144698Y-73925987D01*
X143945478Y-75420862D02*
X142057999Y-77308341D01*
X142112610Y-78425878D02*
X142112610Y-80234252D01*
X143057991Y-81179633D02*
X143257990Y-81379632D01*
X164265553Y-74655847D02*
X145299898Y-74655847D01*
X165215968Y-73705432D02*
X164265553Y-74655847D01*
X145299898Y-74655847D02*
X145017056Y-74655847D01*
X170468611Y-73705432D02*
X165215968Y-73705432D01*
X183048686Y-72850000D02*
X182606721Y-73291965D01*
X182606721Y-73291965D02*
X170882078Y-73291965D01*
X170882078Y-73291965D02*
X170468611Y-73705432D01*
X184270000Y-72850000D02*
X183048686Y-72850000D01*
X141740988Y-77933871D02*
X141845978Y-78038861D01*
X141845978Y-78244189D02*
X141795599Y-78294568D01*
X173405671Y-73942340D02*
X173072307Y-73608976D01*
X142213980Y-81182237D02*
X142413979Y-81382236D01*
X185717660Y-73942340D02*
X173405671Y-73942340D01*
X145469233Y-75088259D02*
X145453641Y-75103851D01*
X141740988Y-77177031D02*
X141740988Y-77933871D01*
X170599921Y-74022443D02*
X165347278Y-74022443D01*
X171013388Y-73608976D02*
X170599921Y-74022443D01*
X186810000Y-72850000D02*
X185717660Y-73942340D01*
X164281462Y-75088259D02*
X145469233Y-75088259D01*
X145453641Y-75103851D02*
X143814168Y-75103851D01*
X173072307Y-73608976D02*
X171013388Y-73608976D01*
X141845978Y-78038861D02*
X141845978Y-78244189D01*
X141795599Y-78294568D02*
X141795599Y-80763856D01*
X143814168Y-75103851D02*
X141740988Y-77177031D01*
X165347278Y-74022443D02*
X164281462Y-75088259D01*
X141795599Y-80763856D02*
X142213980Y-81182237D01*
X140457999Y-81197439D02*
X140457999Y-81822001D01*
X170205991Y-73071410D02*
X164953348Y-73071410D01*
X140279999Y-82000001D02*
X140080000Y-82200000D01*
X164953348Y-73071410D02*
X164107923Y-73916835D01*
X184270000Y-70310000D02*
X182626642Y-70310000D01*
X170619458Y-72657943D02*
X170205991Y-73071410D01*
X182626642Y-70310000D02*
X180278699Y-72657943D01*
X140457999Y-81822001D02*
X140279999Y-82000001D01*
X180278699Y-72657943D02*
X170619458Y-72657943D01*
X164107923Y-73916835D02*
X143164153Y-73916835D01*
X141764978Y-75508423D02*
X140896977Y-76376424D01*
X140896977Y-76376424D02*
X140896977Y-80758461D01*
X141764978Y-75316010D02*
X141764978Y-75508423D01*
X140896977Y-80758461D02*
X140457999Y-81197439D01*
X143164153Y-73916835D02*
X141764978Y-75316010D01*
X142081989Y-75447320D02*
X142081989Y-75815974D01*
X170337301Y-73388421D02*
X165084658Y-73388421D01*
X165084658Y-73388421D02*
X164239233Y-74233846D01*
X170750768Y-72974954D02*
X170337301Y-73388421D01*
X180410009Y-72974954D02*
X170750768Y-72974954D01*
X185724399Y-71395601D02*
X181989362Y-71395601D01*
X186810000Y-70310000D02*
X185724399Y-71395601D01*
X142081989Y-75815974D02*
X141542966Y-76354997D01*
X164239233Y-74233846D02*
X143295463Y-74233846D01*
X143295463Y-74233846D02*
X142081989Y-75447320D01*
X141542966Y-76354997D02*
X141342967Y-76554996D01*
X181989362Y-71395601D02*
X180410009Y-72974954D01*
X183406401Y-68633599D02*
X184270000Y-67770000D01*
X142637634Y-73282813D02*
X163845303Y-73282813D01*
X141046643Y-74873804D02*
X142637634Y-73282813D01*
X163845303Y-73282813D02*
X164690728Y-72437388D01*
X164690728Y-72437388D02*
X169943371Y-72437388D01*
X173747160Y-68633599D02*
X183406401Y-68633599D01*
X169943371Y-72437388D02*
X173747160Y-68633599D01*
X170488148Y-72340932D02*
X170074681Y-72754399D01*
X170074681Y-72754399D02*
X164822038Y-72754399D01*
X180147389Y-72340932D02*
X170488148Y-72340932D01*
X183632720Y-68855601D02*
X180147389Y-72340932D01*
X186810000Y-67770000D02*
X185724399Y-68855601D01*
X185724399Y-68855601D02*
X183632720Y-68855601D01*
X142972324Y-73599824D02*
X141090206Y-75481942D01*
X163976613Y-73599824D02*
X142972324Y-73599824D01*
X141090206Y-75481942D02*
X140890207Y-75681941D01*
X164822038Y-72754399D02*
X163976613Y-73599824D01*
X129542604Y-86420673D02*
X129542604Y-86703515D01*
X131882260Y-83444011D02*
X129542604Y-85783667D01*
X132880000Y-83022010D02*
X132457999Y-83444011D01*
X132457999Y-83444011D02*
X131882260Y-83444011D01*
X129542604Y-85783667D02*
X129542604Y-86420673D01*
D22*
X170157734Y-105666345D02*
X170157734Y-109180768D01*
X170157734Y-109180768D02*
X170126036Y-109212466D01*
D23*
X165621696Y-75092988D02*
X169612504Y-75092988D01*
X164675392Y-76039292D02*
X165621696Y-75092988D01*
X169612504Y-75092988D02*
X169895346Y-75092988D01*
X145863163Y-76039292D02*
X164675392Y-76039292D01*
X142902001Y-77802561D02*
X142902001Y-77426320D01*
X142480000Y-78224562D02*
X142902001Y-77802561D01*
X143257990Y-83000000D02*
X143679991Y-82577999D01*
X143679991Y-82577999D02*
X143679991Y-80212682D01*
X142480000Y-78506809D02*
X142480000Y-78224562D01*
X145847571Y-76054884D02*
X145863163Y-76039292D01*
X143679991Y-80212682D02*
X142429621Y-78962312D01*
X142429621Y-78962312D02*
X142429621Y-78557188D01*
X142429621Y-78557188D02*
X142480000Y-78506809D01*
X144273437Y-76054884D02*
X145847571Y-76054884D01*
X142902001Y-77426320D02*
X144273437Y-76054884D01*
X176991160Y-105079115D02*
X177274002Y-105079115D01*
X154631138Y-105079115D02*
X176991160Y-105079115D01*
X143258015Y-93423150D02*
X143258015Y-93705992D01*
X143258015Y-93705992D02*
X154631138Y-105079115D01*
X143080001Y-92648322D02*
X145348690Y-94917011D01*
X145348690Y-94917011D02*
X148039233Y-94917011D01*
X148039233Y-94917011D02*
X149350457Y-93605787D01*
X172478431Y-101651681D02*
X172761273Y-101651681D01*
X143280000Y-91800000D02*
X143080001Y-91999999D01*
X158883361Y-101651681D02*
X172478431Y-101651681D01*
X143080001Y-91999999D02*
X143080001Y-92648322D01*
X149350457Y-93605787D02*
X150837467Y-93605787D01*
X150837467Y-93605787D02*
X158883361Y-101651681D01*
X144064831Y-91877646D02*
X143480000Y-92462477D01*
X171910518Y-101105663D02*
X172193360Y-101105663D01*
X147880000Y-94600000D02*
X149191224Y-93288776D01*
X158985663Y-101105663D02*
X171910518Y-101105663D01*
X149191224Y-93288776D02*
X151168776Y-93288776D01*
X145480000Y-94600000D02*
X147880000Y-94600000D01*
X151168776Y-93288776D02*
X158985663Y-101105663D01*
X143480000Y-92462477D02*
X143480000Y-92600000D01*
X143480000Y-92600000D02*
X145480000Y-94600000D01*
X171257462Y-100645743D02*
X171540304Y-100645743D01*
X159125743Y-100645743D02*
X171257462Y-100645743D01*
X149080000Y-90600000D02*
X159125743Y-100645743D01*
X145107070Y-90600000D02*
X149080000Y-90600000D01*
X145093535Y-90586465D02*
X145107070Y-90600000D01*
X144493535Y-90586465D02*
X145093535Y-90586465D01*
X144080000Y-91000000D02*
X144493535Y-90586465D01*
X133873807Y-83022010D02*
X133232348Y-82380551D01*
X129344474Y-76229575D02*
X129061632Y-76229575D01*
X133232348Y-82380551D02*
X133232348Y-81629569D01*
X133183182Y-76525331D02*
X132817675Y-76159824D01*
X133205333Y-81602554D02*
X133205333Y-78210858D01*
X133205333Y-78210858D02*
X133183182Y-78188707D01*
X133232348Y-81629569D02*
X133205333Y-81602554D01*
X133183182Y-78188707D02*
X133183182Y-76525331D01*
X135280000Y-83022010D02*
X133873807Y-83022010D01*
X132817675Y-76159824D02*
X129414225Y-76159824D01*
X129414225Y-76159824D02*
X129344474Y-76229575D01*
X134076359Y-82596359D02*
X134076359Y-81975429D01*
X136080000Y-83000000D02*
X135680000Y-82600000D01*
X134049349Y-78590340D02*
X133500193Y-78041184D01*
X133500193Y-78041184D02*
X133500193Y-77531486D01*
X134076359Y-81975429D02*
X134049349Y-81948419D01*
X134080000Y-82600000D02*
X134076359Y-82596359D01*
X133645064Y-77386615D02*
X133645064Y-76213385D01*
X133645064Y-76213385D02*
X133169493Y-75737814D01*
X134049349Y-81948419D02*
X134049349Y-78590340D01*
X135680000Y-82600000D02*
X134080000Y-82600000D01*
X129776185Y-75737814D02*
X129493343Y-75737814D01*
X133169493Y-75737814D02*
X129776185Y-75737814D01*
X133500193Y-77531486D02*
X133645064Y-77386615D01*
X129170043Y-75315813D02*
X129122249Y-75363607D01*
X133313886Y-75385563D02*
X129765654Y-75385563D01*
X129765654Y-75385563D02*
X129695904Y-75315813D01*
X134080000Y-76151677D02*
X133313886Y-75385563D01*
X135145426Y-78265426D02*
X134080000Y-77200000D01*
X135345425Y-82176814D02*
X135145426Y-81976815D01*
X129695904Y-75315813D02*
X129170043Y-75315813D01*
X134080000Y-77200000D02*
X134080000Y-76151677D01*
X135145426Y-81976815D02*
X135145426Y-78265426D01*
X135408688Y-76483371D02*
X135408688Y-76135405D01*
X133415744Y-74142461D02*
X129535060Y-74142461D01*
X135830698Y-76905381D02*
X135408688Y-76483371D01*
X135408688Y-76135405D02*
X133415744Y-74142461D01*
X129535060Y-74142461D02*
X129252218Y-74142461D01*
X172546638Y-74547987D02*
X172746637Y-74347988D01*
X142480000Y-77600000D02*
X142480000Y-77400000D01*
X144142127Y-75737873D02*
X145716261Y-75737873D01*
X145731853Y-75722281D02*
X164544082Y-75722281D01*
X145716261Y-75737873D02*
X145731853Y-75722281D01*
X164544082Y-75722281D02*
X165598542Y-74667821D01*
X142480000Y-77400000D02*
X144142127Y-75737873D01*
X172426804Y-74667821D02*
X172546638Y-74547987D01*
X165598542Y-74667821D02*
X172426804Y-74667821D01*
X132156079Y-90030946D02*
X131649883Y-90537142D01*
X121489059Y-89662983D02*
X121206217Y-89662983D01*
X122363218Y-90537142D02*
X121489059Y-89662983D01*
X131649883Y-90537142D02*
X122363218Y-90537142D01*
D22*
X119080000Y-91083238D02*
X119080000Y-93000000D01*
X181583454Y-111736746D02*
X182454363Y-110865837D01*
X182454363Y-110865837D02*
X182654362Y-110665838D01*
X108816746Y-111736746D02*
X181583454Y-111736746D01*
X107080000Y-105000000D02*
X107080000Y-110000000D01*
X119080000Y-93000000D02*
X107080000Y-105000000D01*
X122294018Y-89185982D02*
X120977256Y-89185982D01*
X124080000Y-87400000D02*
X122294018Y-89185982D01*
X107080000Y-110000000D02*
X108816746Y-111736746D01*
X120977256Y-89185982D02*
X119080000Y-91083238D01*
D10*
G36*
X138502273Y-76745273D02*
X138602479Y-76786883D01*
X138566762Y-76822600D01*
X138510339Y-76845913D01*
X138404194Y-76951873D01*
X138346678Y-77090386D01*
X138346548Y-77240366D01*
X138403821Y-77378979D01*
X138509781Y-77485124D01*
X138648294Y-77542640D01*
X138798274Y-77542770D01*
X138873615Y-77511640D01*
X138873615Y-77536225D01*
X138848291Y-77561549D01*
X138789329Y-77649792D01*
X138768624Y-77753882D01*
X138768624Y-77775556D01*
X138721205Y-77822892D01*
X138663689Y-77961405D01*
X138663559Y-78111385D01*
X138720832Y-78249998D01*
X138826792Y-78356143D01*
X138965305Y-78413659D01*
X139115285Y-78413789D01*
X139184793Y-78385069D01*
X139137699Y-78432163D01*
X139070697Y-78432105D01*
X138932084Y-78489378D01*
X138825939Y-78595338D01*
X138768423Y-78733851D01*
X138768293Y-78883831D01*
X138825566Y-79022444D01*
X138931526Y-79128589D01*
X139070039Y-79186105D01*
X139220019Y-79186235D01*
X139358632Y-79128962D01*
X139464777Y-79023002D01*
X139507637Y-78919784D01*
X139507637Y-80787697D01*
X139272341Y-81022993D01*
X139205339Y-81022935D01*
X139066726Y-81080208D01*
X138960581Y-81186168D01*
X138903065Y-81324681D01*
X138902935Y-81474661D01*
X138960208Y-81613274D01*
X139066168Y-81719419D01*
X139204681Y-81776935D01*
X139354661Y-81777065D01*
X139493274Y-81719792D01*
X139599419Y-81613832D01*
X139656935Y-81475319D01*
X139656994Y-81407672D01*
X139658984Y-81405682D01*
X139658924Y-81474661D01*
X139716197Y-81613274D01*
X139822157Y-81719419D01*
X139960670Y-81776935D01*
X140110650Y-81777065D01*
X140123634Y-81771700D01*
X140072341Y-81822993D01*
X140005339Y-81822935D01*
X139866726Y-81880208D01*
X139760581Y-81986168D01*
X139703065Y-82124681D01*
X139702935Y-82274661D01*
X139760208Y-82413274D01*
X139866168Y-82519419D01*
X140004681Y-82576935D01*
X140154661Y-82577065D01*
X140293274Y-82519792D01*
X140399419Y-82413832D01*
X140456935Y-82275319D01*
X140456994Y-82207672D01*
X140547064Y-82117602D01*
X140546946Y-82253944D01*
X140604219Y-82392557D01*
X140710179Y-82498702D01*
X140848692Y-82556218D01*
X140998672Y-82556348D01*
X141137285Y-82499075D01*
X141243430Y-82393115D01*
X141300946Y-82254602D01*
X141300947Y-82253464D01*
X141338198Y-82343619D01*
X141444158Y-82449764D01*
X141582671Y-82507280D01*
X141732651Y-82507410D01*
X141871264Y-82450137D01*
X141977409Y-82344177D01*
X142019378Y-82243105D01*
X142019358Y-82266055D01*
X142076631Y-82404668D01*
X142182591Y-82510813D01*
X142321104Y-82568329D01*
X142471084Y-82568459D01*
X142609697Y-82511186D01*
X142715842Y-82405226D01*
X142773358Y-82266713D01*
X142773488Y-82116733D01*
X142716215Y-81978120D01*
X142610255Y-81871975D01*
X142471742Y-81814459D01*
X142321762Y-81814329D01*
X142183149Y-81871602D01*
X142077004Y-81977562D01*
X142035035Y-82078634D01*
X142035055Y-82055684D01*
X141977782Y-81917071D01*
X141871822Y-81810926D01*
X141733309Y-81753410D01*
X141583329Y-81753280D01*
X141444716Y-81810553D01*
X141338571Y-81916513D01*
X141281055Y-82055026D01*
X141281054Y-82056164D01*
X141243803Y-81966009D01*
X141137843Y-81859864D01*
X140999330Y-81802348D01*
X140849350Y-81802218D01*
X140723599Y-81854177D01*
X140729999Y-81822001D01*
X140729999Y-81310105D01*
X141089310Y-80950794D01*
X141102575Y-80930942D01*
X141148272Y-80862551D01*
X141168977Y-80758461D01*
X141168977Y-78545187D01*
X141243659Y-78576198D01*
X141393639Y-78576328D01*
X141523599Y-78522630D01*
X141523599Y-80763856D01*
X141544304Y-80867946D01*
X141603266Y-80956189D01*
X142036972Y-81389895D01*
X142036914Y-81456897D01*
X142094187Y-81595510D01*
X142200147Y-81701655D01*
X142338660Y-81759171D01*
X142488640Y-81759301D01*
X142627253Y-81702028D01*
X142733398Y-81596068D01*
X142790914Y-81457555D01*
X142791044Y-81307575D01*
X142783846Y-81290154D01*
X142880983Y-81387291D01*
X142880925Y-81454293D01*
X142938198Y-81592906D01*
X143044158Y-81699051D01*
X143182671Y-81756567D01*
X143332651Y-81756697D01*
X143407991Y-81725568D01*
X143407991Y-81861230D01*
X143333309Y-81830219D01*
X143183329Y-81830089D01*
X143044716Y-81887362D01*
X142938571Y-81993322D01*
X142881055Y-82131835D01*
X142880925Y-82281815D01*
X142938198Y-82420428D01*
X143044158Y-82526573D01*
X143182671Y-82584089D01*
X143289143Y-82584181D01*
X143250331Y-82622993D01*
X143183329Y-82622935D01*
X143044716Y-82680208D01*
X142938571Y-82786168D01*
X142881055Y-82924681D01*
X142880925Y-83074661D01*
X142938198Y-83213274D01*
X143044158Y-83319419D01*
X143182671Y-83376935D01*
X143332651Y-83377065D01*
X143471264Y-83319792D01*
X143577409Y-83213832D01*
X143634925Y-83075319D01*
X143634984Y-83007672D01*
X143730117Y-82912539D01*
X143725075Y-82924681D01*
X143724945Y-83074661D01*
X143782218Y-83213274D01*
X143888178Y-83319419D01*
X144026691Y-83376935D01*
X144176671Y-83377065D01*
X144315284Y-83319792D01*
X144421429Y-83213832D01*
X144470078Y-83096671D01*
X144517036Y-83096671D01*
X144574309Y-83235284D01*
X144680269Y-83341429D01*
X144818782Y-83398945D01*
X144968762Y-83399075D01*
X145107375Y-83341802D01*
X145213520Y-83235842D01*
X145271036Y-83097329D01*
X145271166Y-82947349D01*
X145213893Y-82808736D01*
X145107933Y-82702591D01*
X144969420Y-82645075D01*
X144819440Y-82644945D01*
X144680827Y-82702218D01*
X144574682Y-82808178D01*
X144517166Y-82946691D01*
X144517036Y-83096671D01*
X144470078Y-83096671D01*
X144478945Y-83075319D01*
X144479075Y-82925339D01*
X144421802Y-82786726D01*
X144315842Y-82680581D01*
X144177329Y-82623065D01*
X144027349Y-82622935D01*
X143935504Y-82660884D01*
X143951991Y-82577999D01*
X143951991Y-82531517D01*
X144026691Y-82562535D01*
X144176671Y-82562665D01*
X144315284Y-82505392D01*
X144421429Y-82399432D01*
X144478945Y-82260919D01*
X144479075Y-82110939D01*
X144421802Y-81972326D01*
X144315842Y-81866181D01*
X144177329Y-81808665D01*
X144027349Y-81808535D01*
X143951991Y-81839672D01*
X143951991Y-81702426D01*
X144070702Y-81751719D01*
X144220682Y-81751849D01*
X144359295Y-81694576D01*
X144465440Y-81588616D01*
X144514687Y-81470017D01*
X144546600Y-81547253D01*
X144652560Y-81653398D01*
X144791073Y-81710914D01*
X144941053Y-81711044D01*
X145079666Y-81653771D01*
X145185811Y-81547811D01*
X145243327Y-81409298D01*
X145243457Y-81259318D01*
X145186184Y-81120705D01*
X145080224Y-81014560D01*
X144941711Y-80957044D01*
X144791731Y-80956914D01*
X144653118Y-81014187D01*
X144546973Y-81120147D01*
X144497726Y-81238746D01*
X144465813Y-81161510D01*
X144359853Y-81055365D01*
X144221340Y-80997849D01*
X144071360Y-80997719D01*
X143951991Y-81047041D01*
X143951991Y-80212682D01*
X143931286Y-80108592D01*
X143872324Y-80020349D01*
X142970515Y-79118540D01*
X143064897Y-79079542D01*
X143112772Y-79031750D01*
X143446075Y-79031750D01*
X143550165Y-79011045D01*
X143638408Y-78952083D01*
X143805825Y-78784666D01*
X143964839Y-78943680D01*
X144053082Y-79002642D01*
X144157172Y-79023347D01*
X149630000Y-79023347D01*
X149630000Y-79888984D01*
X148869727Y-79888984D01*
X148765637Y-79909689D01*
X148719253Y-79940682D01*
X148677394Y-79968651D01*
X148145435Y-80500610D01*
X148086473Y-80588853D01*
X148065768Y-80692943D01*
X148065768Y-80714617D01*
X148018349Y-80761953D01*
X147960833Y-80900466D01*
X147960703Y-81050446D01*
X148017976Y-81189059D01*
X148123936Y-81295204D01*
X148262449Y-81352720D01*
X148412429Y-81352850D01*
X148551042Y-81295577D01*
X148657187Y-81189617D01*
X148667782Y-81164101D01*
X148722020Y-81218433D01*
X148860533Y-81275949D01*
X149010513Y-81276079D01*
X149149126Y-81218806D01*
X149255271Y-81112846D01*
X149312787Y-80974333D01*
X149312846Y-80906686D01*
X149469537Y-80749995D01*
X149630000Y-80749995D01*
X149630000Y-81905990D01*
X145146260Y-81905990D01*
X145098924Y-81858571D01*
X144960411Y-81801055D01*
X144810431Y-81800925D01*
X144671818Y-81858198D01*
X144565673Y-81964158D01*
X144508157Y-82102671D01*
X144508027Y-82252651D01*
X144565300Y-82391264D01*
X144671260Y-82497409D01*
X144809773Y-82554925D01*
X144959753Y-82555055D01*
X145098366Y-82497782D01*
X145146241Y-82449990D01*
X148747912Y-82449990D01*
X148656233Y-82541509D01*
X148598717Y-82680022D01*
X148598587Y-82830002D01*
X148655860Y-82968615D01*
X148750888Y-83063809D01*
X148155342Y-83063809D01*
X148108006Y-83016390D01*
X147969493Y-82958874D01*
X147819513Y-82958744D01*
X147680900Y-83016017D01*
X147574755Y-83121977D01*
X147517239Y-83260490D01*
X147517109Y-83410470D01*
X147574382Y-83549083D01*
X147680342Y-83655228D01*
X147818855Y-83712744D01*
X147968835Y-83712874D01*
X148107448Y-83655601D01*
X148155323Y-83607809D01*
X149630000Y-83607809D01*
X149630000Y-83888510D01*
X149058675Y-83888510D01*
X148954585Y-83909215D01*
X148866342Y-83968177D01*
X148661141Y-84173378D01*
X148594139Y-84173320D01*
X148455526Y-84230593D01*
X148349381Y-84336553D01*
X148291865Y-84475066D01*
X148291735Y-84625046D01*
X148349008Y-84763659D01*
X148371901Y-84786592D01*
X147799535Y-84786592D01*
X147799537Y-84783932D01*
X147742264Y-84645319D01*
X147636304Y-84539174D01*
X147497791Y-84481658D01*
X147347811Y-84481528D01*
X147209198Y-84538801D01*
X147103053Y-84644761D01*
X147045537Y-84783274D01*
X147045407Y-84933254D01*
X147102680Y-85071867D01*
X147208640Y-85178012D01*
X147347153Y-85235528D01*
X147414800Y-85235587D01*
X147430138Y-85250925D01*
X147518381Y-85309887D01*
X147622471Y-85330592D01*
X148778864Y-85330592D01*
X148882954Y-85309887D01*
X148971197Y-85250925D01*
X149462267Y-84759855D01*
X149630000Y-84759855D01*
X149630000Y-85928000D01*
X145669074Y-85928000D01*
X145395467Y-85654393D01*
X145307224Y-85595431D01*
X145215065Y-85577099D01*
X145263479Y-85460505D01*
X145263609Y-85310525D01*
X145206336Y-85171912D01*
X145100376Y-85065767D01*
X144961863Y-85008251D01*
X144811883Y-85008121D01*
X144673270Y-85065394D01*
X144567125Y-85171354D01*
X144509609Y-85309867D01*
X144509495Y-85441531D01*
X144478998Y-85411034D01*
X144479075Y-85322558D01*
X144421802Y-85183945D01*
X144315842Y-85077800D01*
X144177329Y-85020284D01*
X144027349Y-85020154D01*
X143888736Y-85077427D01*
X143782591Y-85183387D01*
X143725075Y-85321900D01*
X143724945Y-85471880D01*
X143782218Y-85610493D01*
X143888178Y-85716638D01*
X144026691Y-85774154D01*
X144072826Y-85774194D01*
X144081542Y-85782910D01*
X144088183Y-85792849D01*
X144098122Y-85799490D01*
X144337691Y-86039059D01*
X144425934Y-86098021D01*
X144530024Y-86118726D01*
X144555365Y-86118726D01*
X144524350Y-86193417D01*
X144524220Y-86343397D01*
X144581493Y-86482010D01*
X144687453Y-86588155D01*
X144785040Y-86628677D01*
X144675288Y-86674025D01*
X144569143Y-86779985D01*
X144511627Y-86918498D01*
X144511497Y-87068478D01*
X144568770Y-87207091D01*
X144674730Y-87313236D01*
X144813243Y-87370752D01*
X144963223Y-87370882D01*
X145101836Y-87313609D01*
X145207981Y-87207649D01*
X145265497Y-87069136D01*
X145265627Y-86919156D01*
X145208354Y-86780543D01*
X145102394Y-86674398D01*
X145004807Y-86633876D01*
X145114559Y-86588528D01*
X145220704Y-86482568D01*
X145278220Y-86344055D01*
X145278253Y-86306511D01*
X145364075Y-86392333D01*
X145452318Y-86451295D01*
X145556408Y-86472000D01*
X149630000Y-86472000D01*
X149630000Y-87852845D01*
X148197680Y-87852845D01*
X148093590Y-87873550D01*
X148005347Y-87932512D01*
X147990022Y-87947837D01*
X147923020Y-87947779D01*
X147784407Y-88005052D01*
X147734184Y-88055187D01*
X147684500Y-88005416D01*
X147545987Y-87947900D01*
X147396007Y-87947770D01*
X147257394Y-88005043D01*
X147151249Y-88111003D01*
X147093733Y-88249516D01*
X147093603Y-88399496D01*
X147150876Y-88538109D01*
X147198668Y-88585984D01*
X147198668Y-88607677D01*
X147219373Y-88711767D01*
X147278335Y-88800010D01*
X147417504Y-88939179D01*
X147505747Y-88998141D01*
X147609837Y-89018846D01*
X148200243Y-89018846D01*
X148304333Y-88998141D01*
X148392576Y-88939179D01*
X148459755Y-88872000D01*
X149630000Y-88872000D01*
X149630000Y-89530879D01*
X147387094Y-89530879D01*
X147339758Y-89483460D01*
X147201245Y-89425944D01*
X147051265Y-89425814D01*
X146912652Y-89483087D01*
X146806507Y-89589047D01*
X146748991Y-89727560D01*
X146748897Y-89835910D01*
X146431511Y-89518524D01*
X146343268Y-89459562D01*
X146239178Y-89438857D01*
X145082912Y-89438857D01*
X145130029Y-89391822D01*
X145187545Y-89253309D01*
X145187675Y-89103329D01*
X145130402Y-88964716D01*
X145099239Y-88933499D01*
X145197067Y-88835842D01*
X145254583Y-88697329D01*
X145254713Y-88547349D01*
X145197440Y-88408736D01*
X145091480Y-88302591D01*
X144952967Y-88245075D01*
X144802987Y-88244945D01*
X144664374Y-88302218D01*
X144558229Y-88408178D01*
X144500713Y-88546691D01*
X144500583Y-88696671D01*
X144557856Y-88835284D01*
X144589019Y-88866501D01*
X144491191Y-88964158D01*
X144433675Y-89102671D01*
X144433545Y-89252651D01*
X144490818Y-89391264D01*
X144538328Y-89438857D01*
X144262250Y-89438857D01*
X144309367Y-89391822D01*
X144366883Y-89253309D01*
X144367013Y-89103329D01*
X144309740Y-88964716D01*
X144263061Y-88917956D01*
X144296106Y-88904302D01*
X144402251Y-88798342D01*
X144459767Y-88659829D01*
X144459897Y-88509849D01*
X144402624Y-88371236D01*
X144296664Y-88265091D01*
X144158151Y-88207575D01*
X144008171Y-88207445D01*
X143869558Y-88264718D01*
X143763413Y-88370678D01*
X143705897Y-88509191D01*
X143705767Y-88659171D01*
X143763040Y-88797784D01*
X143809719Y-88844544D01*
X143776674Y-88858198D01*
X143670529Y-88964158D01*
X143613013Y-89102671D01*
X143612883Y-89252651D01*
X143670156Y-89391264D01*
X143726820Y-89448027D01*
X143668828Y-89459562D01*
X143580585Y-89518524D01*
X143274165Y-89824944D01*
X143207163Y-89824886D01*
X143068550Y-89882159D01*
X142962405Y-89988119D01*
X142904889Y-90126632D01*
X142904759Y-90276612D01*
X142962032Y-90415225D01*
X143067992Y-90521370D01*
X143206505Y-90578886D01*
X143356485Y-90579016D01*
X143495098Y-90521743D01*
X143601243Y-90415783D01*
X143658759Y-90277270D01*
X143658818Y-90209623D01*
X143705398Y-90163043D01*
X143705359Y-90207519D01*
X143762632Y-90346132D01*
X143868592Y-90452277D01*
X144007105Y-90509793D01*
X144157085Y-90509923D01*
X144205356Y-90489978D01*
X144072341Y-90622993D01*
X144005339Y-90622935D01*
X143866726Y-90680208D01*
X143760581Y-90786168D01*
X143703065Y-90924681D01*
X143702935Y-91074661D01*
X143760208Y-91213274D01*
X143866168Y-91319419D01*
X144004681Y-91376935D01*
X144154661Y-91377065D01*
X144293274Y-91319792D01*
X144399419Y-91213832D01*
X144456935Y-91075319D01*
X144456994Y-91007672D01*
X144514684Y-90949982D01*
X144514569Y-91083127D01*
X144571842Y-91221740D01*
X144677802Y-91327885D01*
X144816315Y-91385401D01*
X144966295Y-91385531D01*
X145104908Y-91328258D01*
X145211053Y-91222298D01*
X145268569Y-91083785D01*
X145268699Y-90933805D01*
X145243162Y-90872000D01*
X148967334Y-90872000D01*
X149630000Y-91534666D01*
X149630000Y-93016776D01*
X149191224Y-93016776D01*
X149087134Y-93037481D01*
X149022630Y-93080581D01*
X148998891Y-93096443D01*
X147767334Y-94328000D01*
X145592666Y-94328000D01*
X144563812Y-93299146D01*
X146952163Y-93299146D01*
X147013539Y-93447687D01*
X147127086Y-93561433D01*
X147275520Y-93623068D01*
X147373772Y-93623154D01*
X147373643Y-93771013D01*
X147435019Y-93919554D01*
X147548566Y-94033300D01*
X147697000Y-94094935D01*
X147857721Y-94095075D01*
X148006262Y-94033699D01*
X148120008Y-93920152D01*
X148181643Y-93771718D01*
X148181783Y-93610997D01*
X148120407Y-93462456D01*
X148085709Y-93427698D01*
X148143853Y-93403673D01*
X148257599Y-93290126D01*
X148319234Y-93141692D01*
X148319374Y-92980971D01*
X148257998Y-92832430D01*
X148144451Y-92718684D01*
X147996017Y-92657049D01*
X147835296Y-92656909D01*
X147686755Y-92718285D01*
X147573009Y-92831832D01*
X147558887Y-92865842D01*
X147436946Y-92815208D01*
X147276225Y-92815068D01*
X147127684Y-92876444D01*
X147013938Y-92989991D01*
X146952303Y-93138425D01*
X146952163Y-93299146D01*
X144563812Y-93299146D01*
X144222709Y-92958043D01*
X144315284Y-92919792D01*
X144421429Y-92813832D01*
X144478945Y-92675319D01*
X144478964Y-92652651D01*
X144505287Y-92652651D01*
X144562560Y-92791264D01*
X144668520Y-92897409D01*
X144807033Y-92954925D01*
X144957013Y-92955055D01*
X145095626Y-92897782D01*
X145201771Y-92791822D01*
X145259287Y-92653309D01*
X145259417Y-92503329D01*
X145202144Y-92364716D01*
X145096184Y-92258571D01*
X145024940Y-92228988D01*
X145109047Y-92194236D01*
X145215192Y-92088276D01*
X145272708Y-91949763D01*
X145272838Y-91799783D01*
X145215565Y-91661170D01*
X145109605Y-91555025D01*
X144971092Y-91497509D01*
X144821112Y-91497379D01*
X144682499Y-91554652D01*
X144576354Y-91660612D01*
X144518838Y-91799125D01*
X144518708Y-91949105D01*
X144575981Y-92087718D01*
X144681941Y-92193863D01*
X144753185Y-92223446D01*
X144669078Y-92258198D01*
X144562933Y-92364158D01*
X144505417Y-92502671D01*
X144505287Y-92652651D01*
X144478964Y-92652651D01*
X144479075Y-92525339D01*
X144421802Y-92386726D01*
X144315842Y-92280581D01*
X144196658Y-92231091D01*
X144278105Y-92197438D01*
X144384250Y-92091478D01*
X144441766Y-91952965D01*
X144441896Y-91802985D01*
X144384623Y-91664372D01*
X144278663Y-91558227D01*
X144140150Y-91500711D01*
X143990170Y-91500581D01*
X143851557Y-91557854D01*
X143745412Y-91663814D01*
X143687896Y-91802327D01*
X143687837Y-91869974D01*
X143638787Y-91919024D01*
X143656935Y-91875319D01*
X143657065Y-91725339D01*
X143599792Y-91586726D01*
X143493832Y-91480581D01*
X143355319Y-91423065D01*
X143205339Y-91422935D01*
X143066726Y-91480208D01*
X142960581Y-91586168D01*
X142903065Y-91724681D01*
X142903006Y-91792328D01*
X142887668Y-91807666D01*
X142828706Y-91895909D01*
X142808001Y-91999999D01*
X142808001Y-92648322D01*
X142828706Y-92752412D01*
X142887668Y-92840655D01*
X143119487Y-93072474D01*
X143044741Y-93103358D01*
X142938596Y-93209318D01*
X142881080Y-93347831D01*
X142880950Y-93497811D01*
X142938223Y-93636424D01*
X142986015Y-93684299D01*
X142986015Y-93705992D01*
X143006720Y-93810082D01*
X143065682Y-93898325D01*
X148117357Y-98950000D01*
X136304257Y-98950000D01*
X136304257Y-98907850D01*
X137296359Y-97915748D01*
X137363361Y-97915806D01*
X137501974Y-97858533D01*
X137608119Y-97752573D01*
X137665635Y-97614060D01*
X137665765Y-97464080D01*
X137608492Y-97325467D01*
X137502532Y-97219322D01*
X137364019Y-97161806D01*
X137214039Y-97161676D01*
X137075426Y-97218949D01*
X136969281Y-97324909D01*
X136911765Y-97463422D01*
X136911706Y-97531069D01*
X135839924Y-98602851D01*
X135780962Y-98691094D01*
X135760257Y-98795184D01*
X135760257Y-98950000D01*
X134051914Y-98950000D01*
X135093117Y-97908797D01*
X135160119Y-97908855D01*
X135298732Y-97851582D01*
X135404877Y-97745622D01*
X135462393Y-97607109D01*
X135462431Y-97563645D01*
X135556168Y-97657546D01*
X135694681Y-97715062D01*
X135844661Y-97715192D01*
X135983274Y-97657919D01*
X136089419Y-97551959D01*
X136146935Y-97413446D01*
X136147065Y-97263466D01*
X136089792Y-97124853D01*
X135983832Y-97018708D01*
X135845319Y-96961192D01*
X135777672Y-96961133D01*
X135127268Y-96310729D01*
X139606063Y-96310729D01*
X140902993Y-97607659D01*
X140902935Y-97674661D01*
X140960208Y-97813274D01*
X141066168Y-97919419D01*
X141204681Y-97976935D01*
X141354661Y-97977065D01*
X141493274Y-97919792D01*
X141599419Y-97813832D01*
X141656935Y-97675319D01*
X141657065Y-97525339D01*
X141599792Y-97386726D01*
X141493832Y-97280581D01*
X141355319Y-97223065D01*
X141287672Y-97223006D01*
X139911062Y-95846396D01*
X139822819Y-95787434D01*
X139718729Y-95766729D01*
X134181148Y-95766729D01*
X134133812Y-95719310D01*
X133995299Y-95661794D01*
X133845319Y-95661664D01*
X133706706Y-95718937D01*
X133600561Y-95824897D01*
X133543045Y-95963410D01*
X133542915Y-96113390D01*
X133578012Y-96198332D01*
X133054795Y-96198332D01*
X133047993Y-96191530D01*
X132959750Y-96132568D01*
X132855660Y-96111863D01*
X132833986Y-96111863D01*
X132786650Y-96064444D01*
X132648137Y-96006928D01*
X132498157Y-96006798D01*
X132359544Y-96064071D01*
X132253399Y-96170031D01*
X132195883Y-96308544D01*
X132195753Y-96458524D01*
X132253026Y-96597137D01*
X132358986Y-96703282D01*
X132497499Y-96760798D01*
X132647479Y-96760928D01*
X132786092Y-96703655D01*
X132796136Y-96693628D01*
X132838039Y-96721627D01*
X132942129Y-96742332D01*
X134789539Y-96742332D01*
X135231378Y-97184171D01*
X135160777Y-97154855D01*
X135010797Y-97154725D01*
X134872184Y-97211998D01*
X134766039Y-97317958D01*
X134708523Y-97456471D01*
X134708464Y-97524118D01*
X133282582Y-98950000D01*
X132674757Y-98950000D01*
X132945003Y-98679754D01*
X133003965Y-98591511D01*
X133024670Y-98487421D01*
X133024670Y-98440088D01*
X133072089Y-98392752D01*
X133129605Y-98254239D01*
X133129735Y-98104259D01*
X133072462Y-97965646D01*
X132966502Y-97859501D01*
X132827989Y-97801985D01*
X132678009Y-97801855D01*
X132539396Y-97859128D01*
X132433251Y-97965088D01*
X132375735Y-98103601D01*
X132375605Y-98253581D01*
X132432878Y-98392194D01*
X132448041Y-98407384D01*
X131905425Y-98950000D01*
X130986529Y-98950000D01*
X130986529Y-97924786D01*
X131047022Y-97864293D01*
X131114024Y-97864351D01*
X131252637Y-97807078D01*
X131358782Y-97701118D01*
X131416298Y-97562605D01*
X131416428Y-97412625D01*
X131359155Y-97274012D01*
X131253195Y-97167867D01*
X131114682Y-97110351D01*
X130964702Y-97110221D01*
X130826089Y-97167494D01*
X130719944Y-97273454D01*
X130662428Y-97411967D01*
X130662369Y-97479614D01*
X130522196Y-97619787D01*
X130463234Y-97708030D01*
X130442529Y-97812120D01*
X130442529Y-98950000D01*
X127330000Y-98950000D01*
X127330000Y-95528802D01*
X130430009Y-95528802D01*
X130487282Y-95667415D01*
X130593242Y-95773560D01*
X130731755Y-95831076D01*
X130881735Y-95831206D01*
X131020348Y-95773933D01*
X131126493Y-95667973D01*
X131184009Y-95529460D01*
X131184139Y-95379480D01*
X131126866Y-95240867D01*
X131020906Y-95134722D01*
X130882393Y-95077206D01*
X130732413Y-95077076D01*
X130593800Y-95134349D01*
X130487655Y-95240309D01*
X130430139Y-95378822D01*
X130430009Y-95528802D01*
X127330000Y-95528802D01*
X127330000Y-94274661D01*
X131702935Y-94274661D01*
X131760208Y-94413274D01*
X131866168Y-94519419D01*
X132004681Y-94576935D01*
X132154661Y-94577065D01*
X132293274Y-94519792D01*
X132399419Y-94413832D01*
X132456935Y-94275319D01*
X132456938Y-94271734D01*
X132469169Y-94271734D01*
X132526442Y-94410347D01*
X132632402Y-94516492D01*
X132770915Y-94574008D01*
X132920895Y-94574138D01*
X133059508Y-94516865D01*
X133165653Y-94410905D01*
X133223169Y-94272392D01*
X133223299Y-94122412D01*
X133166026Y-93983799D01*
X133060066Y-93877654D01*
X132921553Y-93820138D01*
X132771573Y-93820008D01*
X132632960Y-93877281D01*
X132526815Y-93983241D01*
X132469299Y-94121754D01*
X132469169Y-94271734D01*
X132456938Y-94271734D01*
X132457065Y-94125339D01*
X132399792Y-93986726D01*
X132293832Y-93880581D01*
X132155319Y-93823065D01*
X132005339Y-93822935D01*
X131866726Y-93880208D01*
X131760581Y-93986168D01*
X131703065Y-94124681D01*
X131702935Y-94274661D01*
X127330000Y-94274661D01*
X127330000Y-93319292D01*
X128877605Y-93319292D01*
X128934878Y-93457905D01*
X129040838Y-93564050D01*
X129179351Y-93621566D01*
X129329331Y-93621696D01*
X129372631Y-93603805D01*
X129764239Y-93603805D01*
X129821512Y-93742418D01*
X129927472Y-93848563D01*
X130065985Y-93906079D01*
X130215965Y-93906209D01*
X130354578Y-93848936D01*
X130460723Y-93742976D01*
X130518239Y-93604463D01*
X130518351Y-93474661D01*
X131702935Y-93474661D01*
X131760208Y-93613274D01*
X131866168Y-93719419D01*
X132004681Y-93776935D01*
X132154661Y-93777065D01*
X132293274Y-93719792D01*
X132399419Y-93613832D01*
X132456177Y-93477143D01*
X133308603Y-93477143D01*
X133365876Y-93615756D01*
X133471836Y-93721901D01*
X133610349Y-93779417D01*
X133760329Y-93779547D01*
X133898942Y-93722274D01*
X134005087Y-93616314D01*
X134062603Y-93477801D01*
X134062733Y-93327821D01*
X134005460Y-93189208D01*
X133899500Y-93083063D01*
X133760987Y-93025547D01*
X133611007Y-93025417D01*
X133472394Y-93082690D01*
X133366249Y-93188650D01*
X133308733Y-93327163D01*
X133308603Y-93477143D01*
X132456177Y-93477143D01*
X132456935Y-93475319D01*
X132457065Y-93325339D01*
X132399792Y-93186726D01*
X132293832Y-93080581D01*
X132155319Y-93023065D01*
X132005339Y-93022935D01*
X131866726Y-93080208D01*
X131760581Y-93186168D01*
X131703065Y-93324681D01*
X131702935Y-93474661D01*
X130518351Y-93474661D01*
X130518369Y-93454483D01*
X130461096Y-93315870D01*
X130355136Y-93209725D01*
X130216623Y-93152209D01*
X130066643Y-93152079D01*
X129928030Y-93209352D01*
X129821885Y-93315312D01*
X129764369Y-93453825D01*
X129764239Y-93603805D01*
X129372631Y-93603805D01*
X129467944Y-93564423D01*
X129574089Y-93458463D01*
X129631605Y-93319950D01*
X129631735Y-93169970D01*
X129574462Y-93031357D01*
X129468502Y-92925212D01*
X129329989Y-92867696D01*
X129180009Y-92867566D01*
X129041396Y-92924839D01*
X128935251Y-93030799D01*
X128877735Y-93169312D01*
X128877605Y-93319292D01*
X127330000Y-93319292D01*
X127330000Y-92750249D01*
X129525001Y-92750249D01*
X129524999Y-92752909D01*
X129582272Y-92891522D01*
X129688232Y-92997667D01*
X129826745Y-93055183D01*
X129976725Y-93055313D01*
X130115338Y-92998040D01*
X130221483Y-92892080D01*
X130278999Y-92753567D01*
X130279067Y-92674661D01*
X131702935Y-92674661D01*
X131760208Y-92813274D01*
X131866168Y-92919419D01*
X132004681Y-92976935D01*
X132154661Y-92977065D01*
X132293274Y-92919792D01*
X132399419Y-92813832D01*
X132456935Y-92675319D01*
X132456935Y-92674661D01*
X132502935Y-92674661D01*
X132560208Y-92813274D01*
X132666168Y-92919419D01*
X132804681Y-92976935D01*
X132954661Y-92977065D01*
X133093274Y-92919792D01*
X133199419Y-92813832D01*
X133256935Y-92675319D01*
X133256935Y-92674661D01*
X133302935Y-92674661D01*
X133360208Y-92813274D01*
X133466168Y-92919419D01*
X133604681Y-92976935D01*
X133754661Y-92977065D01*
X133893274Y-92919792D01*
X133999419Y-92813832D01*
X134056935Y-92675319D01*
X134057065Y-92525339D01*
X133999792Y-92386726D01*
X133893832Y-92280581D01*
X133755319Y-92223065D01*
X133605339Y-92222935D01*
X133466726Y-92280208D01*
X133360581Y-92386168D01*
X133303065Y-92524681D01*
X133302935Y-92674661D01*
X133256935Y-92674661D01*
X133257065Y-92525339D01*
X133199792Y-92386726D01*
X133093832Y-92280581D01*
X132955319Y-92223065D01*
X132805339Y-92222935D01*
X132666726Y-92280208D01*
X132560581Y-92386168D01*
X132503065Y-92524681D01*
X132502935Y-92674661D01*
X132456935Y-92674661D01*
X132457065Y-92525339D01*
X132399792Y-92386726D01*
X132293832Y-92280581D01*
X132155319Y-92223065D01*
X132005339Y-92222935D01*
X131866726Y-92280208D01*
X131760581Y-92386168D01*
X131703065Y-92524681D01*
X131702935Y-92674661D01*
X130279067Y-92674661D01*
X130279129Y-92603587D01*
X130221856Y-92464974D01*
X130115896Y-92358829D01*
X129977383Y-92301313D01*
X129909736Y-92301254D01*
X129894398Y-92285916D01*
X129806155Y-92226954D01*
X129702065Y-92206249D01*
X129602658Y-92206249D01*
X129656175Y-92152825D01*
X129701527Y-92043605D01*
X129703141Y-92047511D01*
X129809101Y-92153656D01*
X129947614Y-92211172D01*
X130097594Y-92211302D01*
X130236207Y-92154029D01*
X130342352Y-92048069D01*
X130399868Y-91909556D01*
X130399898Y-91874661D01*
X133302935Y-91874661D01*
X133360208Y-92013274D01*
X133466168Y-92119419D01*
X133604681Y-92176935D01*
X133754661Y-92177065D01*
X133893274Y-92119792D01*
X133999419Y-92013832D01*
X134056935Y-91875319D01*
X134057065Y-91725339D01*
X133999792Y-91586726D01*
X133893832Y-91480581D01*
X133885466Y-91477107D01*
X137288829Y-91477107D01*
X137346102Y-91615720D01*
X137452062Y-91721865D01*
X137590575Y-91779381D01*
X137740555Y-91779511D01*
X137879168Y-91722238D01*
X137985313Y-91616278D01*
X138042829Y-91477765D01*
X138042959Y-91327785D01*
X137985686Y-91189172D01*
X137879726Y-91083027D01*
X137859579Y-91074661D01*
X142102935Y-91074661D01*
X142160208Y-91213274D01*
X142266168Y-91319419D01*
X142404681Y-91376935D01*
X142554661Y-91377065D01*
X142693274Y-91319792D01*
X142799419Y-91213832D01*
X142856935Y-91075319D01*
X142856935Y-91074661D01*
X142902935Y-91074661D01*
X142960208Y-91213274D01*
X143066168Y-91319419D01*
X143204681Y-91376935D01*
X143354661Y-91377065D01*
X143493274Y-91319792D01*
X143599419Y-91213832D01*
X143656935Y-91075319D01*
X143657065Y-90925339D01*
X143599792Y-90786726D01*
X143493832Y-90680581D01*
X143355319Y-90623065D01*
X143205339Y-90622935D01*
X143066726Y-90680208D01*
X142960581Y-90786168D01*
X142903065Y-90924681D01*
X142902935Y-91074661D01*
X142856935Y-91074661D01*
X142857065Y-90925339D01*
X142799792Y-90786726D01*
X142693832Y-90680581D01*
X142555319Y-90623065D01*
X142405339Y-90622935D01*
X142266726Y-90680208D01*
X142160581Y-90786168D01*
X142103065Y-90924681D01*
X142102935Y-91074661D01*
X137859579Y-91074661D01*
X137741213Y-91025511D01*
X137591233Y-91025381D01*
X137452620Y-91082654D01*
X137346475Y-91188614D01*
X137288959Y-91327127D01*
X137288829Y-91477107D01*
X133885466Y-91477107D01*
X133755319Y-91423065D01*
X133605339Y-91422935D01*
X133466726Y-91480208D01*
X133360581Y-91586168D01*
X133303065Y-91724681D01*
X133302935Y-91874661D01*
X130399898Y-91874661D01*
X130399998Y-91759576D01*
X130342725Y-91620963D01*
X130236765Y-91514818D01*
X130098252Y-91457302D01*
X130030605Y-91457243D01*
X129382504Y-90809142D01*
X131649883Y-90809142D01*
X131747623Y-90789700D01*
X131700713Y-90902671D01*
X131700583Y-91052651D01*
X131757856Y-91191264D01*
X131863816Y-91297409D01*
X132002329Y-91354925D01*
X132152309Y-91355055D01*
X132290922Y-91297782D01*
X132397067Y-91191822D01*
X132445716Y-91074661D01*
X132502935Y-91074661D01*
X132560208Y-91213274D01*
X132666168Y-91319419D01*
X132804681Y-91376935D01*
X132954661Y-91377065D01*
X133093274Y-91319792D01*
X133199419Y-91213832D01*
X133256935Y-91075319D01*
X133256935Y-91074661D01*
X134102935Y-91074661D01*
X134160208Y-91213274D01*
X134266168Y-91319419D01*
X134404681Y-91376935D01*
X134554661Y-91377065D01*
X134693274Y-91319792D01*
X134799419Y-91213832D01*
X134856935Y-91075319D01*
X134857065Y-90925339D01*
X134799792Y-90786726D01*
X134693832Y-90680581D01*
X134555319Y-90623065D01*
X134405339Y-90622935D01*
X134266726Y-90680208D01*
X134160581Y-90786168D01*
X134103065Y-90924681D01*
X134102935Y-91074661D01*
X133256935Y-91074661D01*
X133257065Y-90925339D01*
X133199792Y-90786726D01*
X133093832Y-90680581D01*
X132955319Y-90623065D01*
X132805339Y-90622935D01*
X132666726Y-90680208D01*
X132560581Y-90786168D01*
X132503065Y-90924681D01*
X132502935Y-91074661D01*
X132445716Y-91074661D01*
X132454583Y-91053309D01*
X132454713Y-90903329D01*
X132397440Y-90764716D01*
X132291480Y-90658571D01*
X132152967Y-90601055D01*
X132002987Y-90600925D01*
X131948079Y-90623612D01*
X132163738Y-90407953D01*
X132230740Y-90408011D01*
X132369353Y-90350738D01*
X132450745Y-90269487D01*
X136508109Y-90269487D01*
X136565382Y-90408100D01*
X136671342Y-90514245D01*
X136809855Y-90571761D01*
X136959835Y-90571891D01*
X137098448Y-90514618D01*
X137204593Y-90408658D01*
X137262109Y-90270145D01*
X137262128Y-90247651D01*
X137302935Y-90247651D01*
X137360208Y-90386264D01*
X137466168Y-90492409D01*
X137604681Y-90549925D01*
X137754661Y-90550055D01*
X137893274Y-90492782D01*
X137999419Y-90386822D01*
X138056935Y-90248309D01*
X138056978Y-90197651D01*
X138902935Y-90197651D01*
X138960208Y-90336264D01*
X139066168Y-90442409D01*
X139204681Y-90499925D01*
X139354661Y-90500055D01*
X139493274Y-90442782D01*
X139599419Y-90336822D01*
X139656935Y-90198309D01*
X139656935Y-90197651D01*
X139717825Y-90197651D01*
X139775098Y-90336264D01*
X139881058Y-90442409D01*
X140019571Y-90499925D01*
X140169551Y-90500055D01*
X140308164Y-90442782D01*
X140414309Y-90336822D01*
X140471825Y-90198309D01*
X140471955Y-90048329D01*
X140414682Y-89909716D01*
X140308722Y-89803571D01*
X140170209Y-89746055D01*
X140020229Y-89745925D01*
X139881616Y-89803198D01*
X139775471Y-89909158D01*
X139717955Y-90047671D01*
X139717825Y-90197651D01*
X139656935Y-90197651D01*
X139657065Y-90048329D01*
X139599792Y-89909716D01*
X139493832Y-89803571D01*
X139355319Y-89746055D01*
X139205339Y-89745925D01*
X139066726Y-89803198D01*
X138960581Y-89909158D01*
X138903065Y-90047671D01*
X138902935Y-90197651D01*
X138056978Y-90197651D01*
X138057065Y-90098329D01*
X137999792Y-89959716D01*
X137893832Y-89853571D01*
X137755319Y-89796055D01*
X137605339Y-89795925D01*
X137466726Y-89853198D01*
X137360581Y-89959158D01*
X137303065Y-90097671D01*
X137302935Y-90247651D01*
X137262128Y-90247651D01*
X137262239Y-90120165D01*
X137204966Y-89981552D01*
X137099006Y-89875407D01*
X136960493Y-89817891D01*
X136810513Y-89817761D01*
X136671900Y-89875034D01*
X136565755Y-89980994D01*
X136508239Y-90119507D01*
X136508109Y-90269487D01*
X132450745Y-90269487D01*
X132475498Y-90244778D01*
X132533014Y-90106265D01*
X132533144Y-89956285D01*
X132475871Y-89817672D01*
X132369911Y-89711527D01*
X132352777Y-89704412D01*
X132399419Y-89657852D01*
X132456935Y-89519339D01*
X132456973Y-89474661D01*
X140502935Y-89474661D01*
X140560208Y-89613274D01*
X140666168Y-89719419D01*
X140804681Y-89776935D01*
X140954661Y-89777065D01*
X141093274Y-89719792D01*
X141199419Y-89613832D01*
X141256935Y-89475319D01*
X141257065Y-89325339D01*
X141199792Y-89186726D01*
X141093832Y-89080581D01*
X140955319Y-89023065D01*
X140805339Y-89022935D01*
X140666726Y-89080208D01*
X140560581Y-89186168D01*
X140503065Y-89324681D01*
X140502935Y-89474661D01*
X132456973Y-89474661D01*
X132457065Y-89369359D01*
X132399792Y-89230746D01*
X132293832Y-89124601D01*
X132155319Y-89067085D01*
X132005339Y-89066955D01*
X131866726Y-89124228D01*
X131760581Y-89230188D01*
X131703065Y-89368701D01*
X131702935Y-89518681D01*
X131760208Y-89657294D01*
X131866168Y-89763439D01*
X131883302Y-89770554D01*
X131836660Y-89817114D01*
X131779144Y-89955627D01*
X131779085Y-90023274D01*
X131537217Y-90265142D01*
X129766464Y-90265142D01*
X129778603Y-90253024D01*
X129836119Y-90114511D01*
X129836249Y-89964531D01*
X129778976Y-89825918D01*
X129673016Y-89719773D01*
X129534503Y-89662257D01*
X129384523Y-89662127D01*
X129245910Y-89719400D01*
X129139765Y-89825360D01*
X129082249Y-89963873D01*
X129082119Y-90113853D01*
X129139392Y-90252466D01*
X129152046Y-90265142D01*
X127330000Y-90265142D01*
X127330000Y-89614610D01*
X127944248Y-89614610D01*
X128001521Y-89753223D01*
X128107481Y-89859368D01*
X128245994Y-89916884D01*
X128395974Y-89917014D01*
X128534587Y-89859741D01*
X128640732Y-89753781D01*
X128698248Y-89615268D01*
X128698378Y-89465288D01*
X128641105Y-89326675D01*
X128535145Y-89220530D01*
X128396632Y-89163014D01*
X128246652Y-89162884D01*
X128108039Y-89220157D01*
X128001894Y-89326117D01*
X127944378Y-89464630D01*
X127944248Y-89614610D01*
X127330000Y-89614610D01*
X127330000Y-88710604D01*
X127358404Y-88698868D01*
X127382653Y-88674661D01*
X132502935Y-88674661D01*
X132560208Y-88813274D01*
X132666168Y-88919419D01*
X132804681Y-88976935D01*
X132954661Y-88977065D01*
X133093274Y-88919792D01*
X133199419Y-88813832D01*
X133249483Y-88693263D01*
X134896241Y-88693263D01*
X134953514Y-88831876D01*
X135059474Y-88938021D01*
X135197987Y-88995537D01*
X135347967Y-88995667D01*
X135486580Y-88938394D01*
X135592725Y-88832434D01*
X135650241Y-88693921D01*
X135650257Y-88674661D01*
X141302935Y-88674661D01*
X141360208Y-88813274D01*
X141466168Y-88919419D01*
X141604681Y-88976935D01*
X141754661Y-88977065D01*
X141893274Y-88919792D01*
X141999419Y-88813832D01*
X142056935Y-88675319D01*
X142056939Y-88669691D01*
X142900961Y-88669691D01*
X142958234Y-88808304D01*
X143064194Y-88914449D01*
X143202707Y-88971965D01*
X143352687Y-88972095D01*
X143491300Y-88914822D01*
X143597445Y-88808862D01*
X143654961Y-88670349D01*
X143655091Y-88520369D01*
X143597818Y-88381756D01*
X143491858Y-88275611D01*
X143353345Y-88218095D01*
X143203365Y-88217965D01*
X143064752Y-88275238D01*
X142958607Y-88381198D01*
X142901091Y-88519711D01*
X142900961Y-88669691D01*
X142056939Y-88669691D01*
X142057065Y-88525339D01*
X141999792Y-88386726D01*
X141893832Y-88280581D01*
X141755319Y-88223065D01*
X141605339Y-88222935D01*
X141466726Y-88280208D01*
X141360581Y-88386168D01*
X141303065Y-88524681D01*
X141302935Y-88674661D01*
X135650257Y-88674661D01*
X135650371Y-88543941D01*
X135593098Y-88405328D01*
X135487138Y-88299183D01*
X135348625Y-88241667D01*
X135198645Y-88241537D01*
X135060032Y-88298810D01*
X134953887Y-88404770D01*
X134896371Y-88543283D01*
X134896241Y-88693263D01*
X133249483Y-88693263D01*
X133256935Y-88675319D01*
X133257065Y-88525339D01*
X133199792Y-88386726D01*
X133093832Y-88280581D01*
X132955319Y-88223065D01*
X132805339Y-88222935D01*
X132666726Y-88280208D01*
X132560581Y-88386168D01*
X132503065Y-88524681D01*
X132502935Y-88674661D01*
X127382653Y-88674661D01*
X127464549Y-88592908D01*
X127522065Y-88454395D01*
X127522195Y-88304415D01*
X127464922Y-88165802D01*
X127358962Y-88059657D01*
X127330000Y-88047631D01*
X127330000Y-87874661D01*
X140502935Y-87874661D01*
X140560208Y-88013274D01*
X140666168Y-88119419D01*
X140804681Y-88176935D01*
X140954661Y-88177065D01*
X141093274Y-88119792D01*
X141199419Y-88013832D01*
X141256935Y-87875319D01*
X141257065Y-87725339D01*
X141199792Y-87586726D01*
X141093832Y-87480581D01*
X140955319Y-87423065D01*
X140805339Y-87422935D01*
X140666726Y-87480208D01*
X140560581Y-87586168D01*
X140503065Y-87724681D01*
X140502935Y-87874661D01*
X127330000Y-87874661D01*
X127330000Y-87185543D01*
X128399590Y-87185543D01*
X128456863Y-87324156D01*
X128562823Y-87430301D01*
X128701336Y-87487817D01*
X128851316Y-87487947D01*
X128989929Y-87430674D01*
X129096074Y-87324714D01*
X129153590Y-87186201D01*
X129153720Y-87036221D01*
X129096447Y-86897608D01*
X128990487Y-86791463D01*
X128958489Y-86778176D01*
X129165539Y-86778176D01*
X129222812Y-86916789D01*
X129328772Y-87022934D01*
X129467285Y-87080450D01*
X129617265Y-87080580D01*
X129755878Y-87023307D01*
X129862023Y-86917347D01*
X129919539Y-86778834D01*
X129919669Y-86628854D01*
X129862396Y-86490241D01*
X129814604Y-86442366D01*
X129814604Y-86346811D01*
X131700830Y-86346811D01*
X131758103Y-86485424D01*
X131864063Y-86591569D01*
X131972388Y-86636550D01*
X131866726Y-86680208D01*
X131760581Y-86786168D01*
X131703065Y-86924681D01*
X131702935Y-87074661D01*
X131760208Y-87213274D01*
X131866168Y-87319419D01*
X132004681Y-87376935D01*
X132154661Y-87377065D01*
X132293274Y-87319792D01*
X132399419Y-87213832D01*
X132456935Y-87075319D01*
X132457065Y-86925339D01*
X132399792Y-86786726D01*
X132293832Y-86680581D01*
X132185507Y-86635600D01*
X132291169Y-86591942D01*
X132397314Y-86485982D01*
X132454830Y-86347469D01*
X132454893Y-86274661D01*
X134902935Y-86274661D01*
X134960208Y-86413274D01*
X135066168Y-86519419D01*
X135204681Y-86576935D01*
X135354661Y-86577065D01*
X135493274Y-86519792D01*
X135599419Y-86413832D01*
X135656935Y-86275319D01*
X135656935Y-86274661D01*
X141302935Y-86274661D01*
X141360208Y-86413274D01*
X141466168Y-86519419D01*
X141604681Y-86576935D01*
X141754661Y-86577065D01*
X141893274Y-86519792D01*
X141999419Y-86413832D01*
X142056935Y-86275319D01*
X142057065Y-86125339D01*
X141999792Y-85986726D01*
X141893832Y-85880581D01*
X141755319Y-85823065D01*
X141605339Y-85822935D01*
X141466726Y-85880208D01*
X141360581Y-85986168D01*
X141303065Y-86124681D01*
X141302935Y-86274661D01*
X135656935Y-86274661D01*
X135657065Y-86125339D01*
X135599792Y-85986726D01*
X135493832Y-85880581D01*
X135355319Y-85823065D01*
X135205339Y-85822935D01*
X135066726Y-85880208D01*
X134960581Y-85986168D01*
X134903065Y-86124681D01*
X134902935Y-86274661D01*
X132454893Y-86274661D01*
X132454960Y-86197489D01*
X132397687Y-86058876D01*
X132291727Y-85952731D01*
X132153214Y-85895215D01*
X132003234Y-85895085D01*
X131864621Y-85952358D01*
X131758476Y-86058318D01*
X131700960Y-86196831D01*
X131700830Y-86346811D01*
X129814604Y-86346811D01*
X129814604Y-85896333D01*
X130208138Y-85502799D01*
X131702555Y-85502799D01*
X131759828Y-85641412D01*
X131865788Y-85747557D01*
X132004301Y-85805073D01*
X132154281Y-85805203D01*
X132292894Y-85747930D01*
X132399039Y-85641970D01*
X132456555Y-85503457D01*
X132456555Y-85502799D01*
X132498737Y-85502799D01*
X132556010Y-85641412D01*
X132661970Y-85747557D01*
X132800483Y-85805073D01*
X132950463Y-85805203D01*
X133089076Y-85747930D01*
X133195221Y-85641970D01*
X133252737Y-85503457D01*
X133252757Y-85480008D01*
X135675930Y-85480008D01*
X135737306Y-85628549D01*
X135850853Y-85742295D01*
X135999287Y-85803930D01*
X136160008Y-85804070D01*
X136308549Y-85742694D01*
X136422295Y-85629147D01*
X136483930Y-85480713D01*
X136483935Y-85474661D01*
X140502935Y-85474661D01*
X140560208Y-85613274D01*
X140666168Y-85719419D01*
X140804681Y-85776935D01*
X140954661Y-85777065D01*
X141093274Y-85719792D01*
X141199419Y-85613832D01*
X141256935Y-85475319D01*
X141256935Y-85474661D01*
X141302935Y-85474661D01*
X141360208Y-85613274D01*
X141466168Y-85719419D01*
X141604681Y-85776935D01*
X141754661Y-85777065D01*
X141893274Y-85719792D01*
X141999419Y-85613832D01*
X142056935Y-85475319D01*
X142057065Y-85325339D01*
X141999792Y-85186726D01*
X141893832Y-85080581D01*
X141755319Y-85023065D01*
X141605339Y-85022935D01*
X141466726Y-85080208D01*
X141360581Y-85186168D01*
X141303065Y-85324681D01*
X141302935Y-85474661D01*
X141256935Y-85474661D01*
X141257065Y-85325339D01*
X141199792Y-85186726D01*
X141093832Y-85080581D01*
X140955319Y-85023065D01*
X140805339Y-85022935D01*
X140666726Y-85080208D01*
X140560581Y-85186168D01*
X140503065Y-85324681D01*
X140502935Y-85474661D01*
X136483935Y-85474661D01*
X136484070Y-85319992D01*
X136422694Y-85171451D01*
X136309147Y-85057705D01*
X136160713Y-84996070D01*
X135999992Y-84995930D01*
X135851451Y-85057306D01*
X135737705Y-85170853D01*
X135676070Y-85319287D01*
X135675930Y-85480008D01*
X133252757Y-85480008D01*
X133252867Y-85353477D01*
X133195594Y-85214864D01*
X133089634Y-85108719D01*
X132951121Y-85051203D01*
X132801141Y-85051073D01*
X132662528Y-85108346D01*
X132556383Y-85214306D01*
X132498867Y-85352819D01*
X132498737Y-85502799D01*
X132456555Y-85502799D01*
X132456685Y-85353477D01*
X132399412Y-85214864D01*
X132293452Y-85108719D01*
X132154939Y-85051203D01*
X132004959Y-85051073D01*
X131866346Y-85108346D01*
X131760201Y-85214306D01*
X131702685Y-85352819D01*
X131702555Y-85502799D01*
X130208138Y-85502799D01*
X131749113Y-83961824D01*
X131797651Y-84079295D01*
X131891499Y-84173307D01*
X131866722Y-84183545D01*
X131760577Y-84289505D01*
X131703061Y-84428018D01*
X131702931Y-84577998D01*
X131760204Y-84716611D01*
X131866164Y-84822756D01*
X132004677Y-84880272D01*
X132154657Y-84880402D01*
X132293270Y-84823129D01*
X132399415Y-84717169D01*
X132419059Y-84669861D01*
X133294877Y-84669861D01*
X133352150Y-84808474D01*
X133458110Y-84914619D01*
X133596623Y-84972135D01*
X133746603Y-84972265D01*
X133885216Y-84914992D01*
X133991361Y-84809032D01*
X134048877Y-84670519D01*
X134048930Y-84608746D01*
X137303491Y-84608746D01*
X137360764Y-84747359D01*
X137466724Y-84853504D01*
X137605237Y-84911020D01*
X137755217Y-84911150D01*
X137893830Y-84853877D01*
X137999975Y-84747917D01*
X138025681Y-84686010D01*
X138895452Y-84686010D01*
X138952725Y-84824623D01*
X139058685Y-84930768D01*
X139197198Y-84988284D01*
X139347178Y-84988414D01*
X139485791Y-84931141D01*
X139591936Y-84825181D01*
X139649452Y-84686668D01*
X139649520Y-84607594D01*
X144500626Y-84607594D01*
X144557899Y-84746207D01*
X144663859Y-84852352D01*
X144802372Y-84909868D01*
X144952352Y-84909998D01*
X145090965Y-84852725D01*
X145197110Y-84746765D01*
X145254626Y-84608252D01*
X145254756Y-84458272D01*
X145197483Y-84319659D01*
X145091523Y-84213514D01*
X145064137Y-84202142D01*
X145103655Y-84185814D01*
X145209800Y-84079854D01*
X145267316Y-83941341D01*
X145267446Y-83791361D01*
X145210173Y-83652748D01*
X145104213Y-83546603D01*
X144965700Y-83489087D01*
X144815720Y-83488957D01*
X144677107Y-83546230D01*
X144570962Y-83652190D01*
X144513446Y-83790703D01*
X144513316Y-83940683D01*
X144570589Y-84079296D01*
X144676549Y-84185441D01*
X144703935Y-84196813D01*
X144664417Y-84213141D01*
X144558272Y-84319101D01*
X144500756Y-84457614D01*
X144500626Y-84607594D01*
X139649520Y-84607594D01*
X139649582Y-84536688D01*
X139592309Y-84398075D01*
X139486349Y-84291930D01*
X139347836Y-84234414D01*
X139197856Y-84234284D01*
X139059243Y-84291557D01*
X138953098Y-84397517D01*
X138895582Y-84536030D01*
X138895452Y-84686010D01*
X138025681Y-84686010D01*
X138057491Y-84609404D01*
X138057621Y-84459424D01*
X138000348Y-84320811D01*
X137894388Y-84214666D01*
X137755875Y-84157150D01*
X137605895Y-84157020D01*
X137467282Y-84214293D01*
X137361137Y-84320253D01*
X137303621Y-84458766D01*
X137303491Y-84608746D01*
X134048930Y-84608746D01*
X134049007Y-84520539D01*
X133991734Y-84381926D01*
X133885774Y-84275781D01*
X133747261Y-84218265D01*
X133597281Y-84218135D01*
X133458668Y-84275408D01*
X133352523Y-84381368D01*
X133295007Y-84519881D01*
X133294877Y-84669861D01*
X132419059Y-84669861D01*
X132456931Y-84578656D01*
X132457061Y-84428676D01*
X132399788Y-84290063D01*
X132305940Y-84196051D01*
X132330717Y-84185813D01*
X132436862Y-84079853D01*
X132494378Y-83941340D01*
X132494508Y-83791360D01*
X132462967Y-83715023D01*
X132509566Y-83705754D01*
X132509439Y-83852651D01*
X132566712Y-83991264D01*
X132672672Y-84097409D01*
X132811185Y-84154925D01*
X132961165Y-84155055D01*
X133099778Y-84097782D01*
X133205923Y-83991822D01*
X133254572Y-83874661D01*
X134102935Y-83874661D01*
X134160208Y-84013274D01*
X134266168Y-84119419D01*
X134404681Y-84176935D01*
X134554661Y-84177065D01*
X134693274Y-84119792D01*
X134799419Y-84013832D01*
X134856935Y-83875319D01*
X134856935Y-83874661D01*
X142102935Y-83874661D01*
X142160208Y-84013274D01*
X142266168Y-84119419D01*
X142404681Y-84176935D01*
X142554661Y-84177065D01*
X142693274Y-84119792D01*
X142799419Y-84013832D01*
X142856935Y-83875319D01*
X142856935Y-83874661D01*
X142902935Y-83874661D01*
X142960208Y-84013274D01*
X143066168Y-84119419D01*
X143204681Y-84176935D01*
X143354661Y-84177065D01*
X143493274Y-84119792D01*
X143599419Y-84013832D01*
X143656935Y-83875319D01*
X143656935Y-83874661D01*
X143724945Y-83874661D01*
X143782218Y-84013274D01*
X143888178Y-84119419D01*
X144026691Y-84176935D01*
X144176671Y-84177065D01*
X144315284Y-84119792D01*
X144421429Y-84013832D01*
X144478945Y-83875319D01*
X144479075Y-83725339D01*
X144421802Y-83586726D01*
X144315842Y-83480581D01*
X144177329Y-83423065D01*
X144027349Y-83422935D01*
X143888736Y-83480208D01*
X143782591Y-83586168D01*
X143725075Y-83724681D01*
X143724945Y-83874661D01*
X143656935Y-83874661D01*
X143657065Y-83725339D01*
X143599792Y-83586726D01*
X143493832Y-83480581D01*
X143355319Y-83423065D01*
X143205339Y-83422935D01*
X143066726Y-83480208D01*
X142960581Y-83586168D01*
X142903065Y-83724681D01*
X142902935Y-83874661D01*
X142856935Y-83874661D01*
X142857065Y-83725339D01*
X142799792Y-83586726D01*
X142693832Y-83480581D01*
X142555319Y-83423065D01*
X142405339Y-83422935D01*
X142266726Y-83480208D01*
X142160581Y-83586168D01*
X142103065Y-83724681D01*
X142102935Y-83874661D01*
X134856935Y-83874661D01*
X134857065Y-83725339D01*
X134799792Y-83586726D01*
X134693832Y-83480581D01*
X134555319Y-83423065D01*
X134405339Y-83422935D01*
X134266726Y-83480208D01*
X134160581Y-83586168D01*
X134103065Y-83724681D01*
X134102935Y-83874661D01*
X133254572Y-83874661D01*
X133263439Y-83853309D01*
X133263569Y-83703329D01*
X133206296Y-83564716D01*
X133100336Y-83458571D01*
X132961823Y-83401055D01*
X132885687Y-83400989D01*
X132887659Y-83399017D01*
X132954661Y-83399075D01*
X133093274Y-83341802D01*
X133199419Y-83235842D01*
X133256935Y-83097329D01*
X133257065Y-82947349D01*
X133199792Y-82808736D01*
X133093832Y-82702591D01*
X132955319Y-82645075D01*
X132805339Y-82644945D01*
X132666726Y-82702218D01*
X132560581Y-82808178D01*
X132503065Y-82946691D01*
X132503006Y-83014338D01*
X132461792Y-83055552D01*
X132461886Y-82947349D01*
X132404613Y-82808736D01*
X132298653Y-82702591D01*
X132160140Y-82645075D01*
X132010160Y-82644945D01*
X131871547Y-82702218D01*
X131765402Y-82808178D01*
X131707886Y-82946691D01*
X131707756Y-83096671D01*
X131754089Y-83208806D01*
X131689927Y-83251678D01*
X129350271Y-85591334D01*
X129291309Y-85679577D01*
X129270604Y-85783667D01*
X129270604Y-86442347D01*
X129223185Y-86489683D01*
X129165669Y-86628196D01*
X129165539Y-86778176D01*
X128958489Y-86778176D01*
X128851974Y-86733947D01*
X128701994Y-86733817D01*
X128563381Y-86791090D01*
X128457236Y-86897050D01*
X128399720Y-87035563D01*
X128399590Y-87185543D01*
X127330000Y-87185543D01*
X127330000Y-84960968D01*
X127562994Y-84960968D01*
X127610330Y-85008387D01*
X127748843Y-85065903D01*
X127898823Y-85066033D01*
X128037436Y-85008760D01*
X128112650Y-84933677D01*
X128112643Y-84942038D01*
X128169916Y-85080651D01*
X128275876Y-85186796D01*
X128414389Y-85244312D01*
X128564369Y-85244442D01*
X128702982Y-85187169D01*
X128809127Y-85081209D01*
X128866643Y-84942696D01*
X128866773Y-84792716D01*
X128809500Y-84654103D01*
X128703540Y-84547958D01*
X128613330Y-84510499D01*
X128633218Y-84462604D01*
X128633275Y-84397212D01*
X128744262Y-84397308D01*
X128882875Y-84340035D01*
X128989020Y-84234075D01*
X129038926Y-84113888D01*
X129134901Y-84132979D01*
X129252763Y-84132979D01*
X129300099Y-84180398D01*
X129438612Y-84237914D01*
X129588592Y-84238044D01*
X129727205Y-84180771D01*
X129833350Y-84074811D01*
X129890866Y-83936298D01*
X129890996Y-83786318D01*
X129833723Y-83647705D01*
X129727763Y-83541560D01*
X129589250Y-83484044D01*
X129439270Y-83483914D01*
X129300657Y-83541187D01*
X129252782Y-83588979D01*
X129247567Y-83588979D01*
X129161780Y-83503192D01*
X129162122Y-83503050D01*
X129268267Y-83397090D01*
X129325783Y-83258577D01*
X129325913Y-83108597D01*
X129268640Y-82969984D01*
X129254587Y-82955906D01*
X129336165Y-82874470D01*
X129393681Y-82735957D01*
X129393811Y-82585977D01*
X129336538Y-82447364D01*
X129230578Y-82341219D01*
X129092065Y-82283703D01*
X129024418Y-82283644D01*
X129009080Y-82268306D01*
X128985651Y-82252651D01*
X131702935Y-82252651D01*
X131760208Y-82391264D01*
X131866168Y-82497409D01*
X132004681Y-82554925D01*
X132154661Y-82555055D01*
X132293274Y-82497782D01*
X132399419Y-82391822D01*
X132456935Y-82253309D01*
X132457065Y-82103329D01*
X132399792Y-81964716D01*
X132293832Y-81858571D01*
X132155319Y-81801055D01*
X132005339Y-81800925D01*
X131866726Y-81858198D01*
X131760581Y-81964158D01*
X131703065Y-82102671D01*
X131702935Y-82252651D01*
X128985651Y-82252651D01*
X128920837Y-82209344D01*
X128816747Y-82188639D01*
X127330000Y-82188639D01*
X127330000Y-81000598D01*
X128240149Y-81000598D01*
X128344239Y-80979893D01*
X128432482Y-80920931D01*
X128901019Y-80452394D01*
X129819756Y-80452394D01*
X129877029Y-80591007D01*
X129982989Y-80697152D01*
X130121502Y-80754668D01*
X130271482Y-80754798D01*
X130410095Y-80697525D01*
X130516240Y-80591565D01*
X130523259Y-80574661D01*
X130802935Y-80574661D01*
X130860208Y-80713274D01*
X130966168Y-80819419D01*
X131104681Y-80876935D01*
X131254661Y-80877065D01*
X131393274Y-80819792D01*
X131499419Y-80713832D01*
X131556935Y-80575319D01*
X131557065Y-80425339D01*
X131499792Y-80286726D01*
X131393832Y-80180581D01*
X131255319Y-80123065D01*
X131105339Y-80122935D01*
X130966726Y-80180208D01*
X130860581Y-80286168D01*
X130803065Y-80424681D01*
X130802935Y-80574661D01*
X130523259Y-80574661D01*
X130573756Y-80453052D01*
X130573886Y-80303072D01*
X130516613Y-80164459D01*
X130410653Y-80058314D01*
X130272140Y-80000798D01*
X130122160Y-80000668D01*
X129983547Y-80057941D01*
X129877402Y-80163901D01*
X129819886Y-80302414D01*
X129819756Y-80452394D01*
X128901019Y-80452394D01*
X129688866Y-79664547D01*
X131470245Y-79664547D01*
X131527518Y-79803160D01*
X131633478Y-79909305D01*
X131771991Y-79966821D01*
X131921971Y-79966951D01*
X132060584Y-79909678D01*
X132166729Y-79803718D01*
X132224245Y-79665205D01*
X132224375Y-79515225D01*
X132167102Y-79376612D01*
X132061142Y-79270467D01*
X131922629Y-79212951D01*
X131772649Y-79212821D01*
X131634036Y-79270094D01*
X131527891Y-79376054D01*
X131470375Y-79514567D01*
X131470245Y-79664547D01*
X129688866Y-79664547D01*
X130335538Y-79017875D01*
X131448158Y-79017875D01*
X131495494Y-79065294D01*
X131634007Y-79122810D01*
X131783987Y-79122940D01*
X131922600Y-79065667D01*
X132028745Y-78959707D01*
X132086261Y-78821194D01*
X132086391Y-78671214D01*
X132029118Y-78532601D01*
X131923158Y-78426456D01*
X131784645Y-78368940D01*
X131634665Y-78368810D01*
X131496052Y-78426083D01*
X131448177Y-78473875D01*
X131346795Y-78473875D01*
X131444184Y-78433635D01*
X131550329Y-78327675D01*
X131607845Y-78189162D01*
X131607975Y-78039182D01*
X131550702Y-77900569D01*
X131444742Y-77794424D01*
X131306229Y-77736908D01*
X131233833Y-77736845D01*
X131233893Y-77667962D01*
X131176620Y-77529349D01*
X131070660Y-77423204D01*
X130932147Y-77365688D01*
X130782167Y-77365558D01*
X130643554Y-77422831D01*
X130537409Y-77528791D01*
X130479893Y-77667304D01*
X130479763Y-77817284D01*
X130537036Y-77955897D01*
X130622831Y-78041842D01*
X130206584Y-78041842D01*
X130102494Y-78062547D01*
X130014251Y-78121509D01*
X128787897Y-79347863D01*
X128787897Y-79255344D01*
X128835316Y-79208008D01*
X128892832Y-79069495D01*
X128892962Y-78919515D01*
X128835689Y-78780902D01*
X128813796Y-78758971D01*
X128889146Y-78683753D01*
X128946662Y-78545240D01*
X128946792Y-78395260D01*
X128889519Y-78256647D01*
X128783559Y-78150502D01*
X128645046Y-78092986D01*
X128495066Y-78092856D01*
X128356453Y-78150129D01*
X128308578Y-78197921D01*
X128286885Y-78197921D01*
X128182795Y-78218626D01*
X128094552Y-78277588D01*
X127888247Y-78483893D01*
X127829285Y-78572136D01*
X127808580Y-78676226D01*
X127808580Y-79015836D01*
X127718977Y-78978629D01*
X127568997Y-78978499D01*
X127430384Y-79035772D01*
X127382509Y-79083564D01*
X127330000Y-79083564D01*
X127330000Y-78251456D01*
X127832879Y-77748577D01*
X128284398Y-77748577D01*
X128331734Y-77795996D01*
X128470247Y-77853512D01*
X128620227Y-77853642D01*
X128758840Y-77796369D01*
X128864985Y-77690409D01*
X128922501Y-77551896D01*
X128922631Y-77401916D01*
X128870281Y-77275218D01*
X131699846Y-77275218D01*
X131603876Y-77371021D01*
X131546360Y-77509534D01*
X131546230Y-77659514D01*
X131603503Y-77798127D01*
X131709463Y-77904272D01*
X131847976Y-77961788D01*
X131997956Y-77961918D01*
X132136569Y-77904645D01*
X132242714Y-77798685D01*
X132300230Y-77660172D01*
X132300360Y-77510192D01*
X132243087Y-77371579D01*
X132146894Y-77275218D01*
X132159137Y-77275218D01*
X132282461Y-77398542D01*
X132372326Y-77458588D01*
X132478330Y-77479674D01*
X132478335Y-77479673D01*
X132504995Y-77479673D01*
X132547340Y-77522092D01*
X132685853Y-77579608D01*
X132835833Y-77579738D01*
X132911182Y-77548605D01*
X132911182Y-78188707D01*
X132931887Y-78292797D01*
X132933333Y-78294961D01*
X132933333Y-81054069D01*
X132858651Y-81023058D01*
X132708671Y-81022928D01*
X132570058Y-81080201D01*
X132463913Y-81186161D01*
X132431656Y-81263844D01*
X132399792Y-81186726D01*
X132293832Y-81080581D01*
X132155319Y-81023065D01*
X132005339Y-81022935D01*
X131866726Y-81080208D01*
X131760581Y-81186168D01*
X131703065Y-81324681D01*
X131702935Y-81474661D01*
X131760208Y-81613274D01*
X131866168Y-81719419D01*
X132004681Y-81776935D01*
X132154661Y-81777065D01*
X132293274Y-81719792D01*
X132399419Y-81613832D01*
X132431676Y-81536149D01*
X132463540Y-81613267D01*
X132569500Y-81719412D01*
X132708013Y-81776928D01*
X132857993Y-81777058D01*
X132960348Y-81734766D01*
X132960348Y-82380551D01*
X132981053Y-82484641D01*
X133040015Y-82572884D01*
X133681474Y-83214343D01*
X133769717Y-83273305D01*
X133873807Y-83294010D01*
X135018832Y-83294010D01*
X135066168Y-83341429D01*
X135204681Y-83398945D01*
X135354661Y-83399075D01*
X135493274Y-83341802D01*
X135599419Y-83235842D01*
X135656935Y-83097329D01*
X135657053Y-82961719D01*
X135702993Y-83007659D01*
X135702935Y-83074661D01*
X135760208Y-83213274D01*
X135866168Y-83319419D01*
X136004681Y-83376935D01*
X136154661Y-83377065D01*
X136293274Y-83319792D01*
X136399419Y-83213832D01*
X136440016Y-83116064D01*
X140486964Y-83116064D01*
X140544237Y-83254677D01*
X140650197Y-83360822D01*
X140788710Y-83418338D01*
X140938690Y-83418468D01*
X141077303Y-83361195D01*
X141183448Y-83255235D01*
X141240964Y-83116722D01*
X141241001Y-83073574D01*
X142096484Y-83073574D01*
X142153757Y-83212187D01*
X142259717Y-83318332D01*
X142398230Y-83375848D01*
X142548210Y-83375978D01*
X142686823Y-83318705D01*
X142792968Y-83212745D01*
X142850484Y-83074232D01*
X142850614Y-82924252D01*
X142793341Y-82785639D01*
X142687381Y-82679494D01*
X142548868Y-82621978D01*
X142398888Y-82621848D01*
X142260275Y-82679121D01*
X142154130Y-82785081D01*
X142096614Y-82923594D01*
X142096484Y-83073574D01*
X141241001Y-83073574D01*
X141241094Y-82966742D01*
X141183821Y-82828129D01*
X141077861Y-82721984D01*
X140939348Y-82664468D01*
X140789368Y-82664338D01*
X140650755Y-82721611D01*
X140544610Y-82827571D01*
X140487094Y-82966084D01*
X140486964Y-83116064D01*
X136440016Y-83116064D01*
X136456935Y-83075319D01*
X136457065Y-82925339D01*
X136399792Y-82786726D01*
X136293832Y-82680581D01*
X136155319Y-82623065D01*
X136087672Y-82623006D01*
X136041633Y-82576967D01*
X136154661Y-82577065D01*
X136293274Y-82519792D01*
X136399419Y-82413832D01*
X136456935Y-82275319D01*
X136457065Y-82125339D01*
X136399792Y-81986726D01*
X136293832Y-81880581D01*
X136155319Y-81823065D01*
X136005339Y-81822935D01*
X135866726Y-81880208D01*
X135760581Y-81986168D01*
X135717467Y-82089997D01*
X135665217Y-81963540D01*
X135568072Y-81866226D01*
X135642097Y-81866290D01*
X135780710Y-81809017D01*
X135886855Y-81703057D01*
X135941287Y-81571970D01*
X136034379Y-81571970D01*
X136091652Y-81710583D01*
X136197612Y-81816728D01*
X136336125Y-81874244D01*
X136486105Y-81874374D01*
X136624718Y-81817101D01*
X136730863Y-81711141D01*
X136788379Y-81572628D01*
X136788509Y-81422648D01*
X136731236Y-81284035D01*
X136625276Y-81177890D01*
X136486763Y-81120374D01*
X136336783Y-81120244D01*
X136198170Y-81177517D01*
X136092025Y-81283477D01*
X136034509Y-81421990D01*
X136034379Y-81571970D01*
X135941287Y-81571970D01*
X135944371Y-81564544D01*
X135944501Y-81414564D01*
X135887228Y-81275951D01*
X135781268Y-81169806D01*
X135642755Y-81112290D01*
X135492775Y-81112160D01*
X135417426Y-81143293D01*
X135417426Y-78265426D01*
X135396721Y-78161336D01*
X135337759Y-78073093D01*
X134822709Y-77558043D01*
X134915284Y-77519792D01*
X135021429Y-77413832D01*
X135058614Y-77324281D01*
X135390539Y-77656206D01*
X135390481Y-77723208D01*
X135447754Y-77861821D01*
X135553714Y-77967966D01*
X135692227Y-78025482D01*
X135842207Y-78025612D01*
X135980699Y-77968389D01*
X135980699Y-78070253D01*
X136001404Y-78174343D01*
X136060366Y-78262586D01*
X136257111Y-78459331D01*
X136257053Y-78526333D01*
X136314326Y-78664946D01*
X136420286Y-78771091D01*
X136558799Y-78828607D01*
X136708779Y-78828737D01*
X136847392Y-78771464D01*
X136953537Y-78665504D01*
X137011053Y-78526991D01*
X137011183Y-78377011D01*
X136953910Y-78238398D01*
X136847950Y-78132253D01*
X136709437Y-78074737D01*
X136641790Y-78074678D01*
X136524699Y-77957587D01*
X136524699Y-77543775D01*
X136551561Y-77570637D01*
X136551503Y-77637639D01*
X136608776Y-77776252D01*
X136714736Y-77882397D01*
X136853249Y-77939913D01*
X137003229Y-77940043D01*
X137141842Y-77882770D01*
X137247987Y-77776810D01*
X137305503Y-77638297D01*
X137305633Y-77488317D01*
X137248360Y-77349704D01*
X137233000Y-77334318D01*
X137329290Y-77294532D01*
X137435435Y-77188572D01*
X137492951Y-77050059D01*
X137493081Y-76900079D01*
X137487879Y-76887489D01*
X137612687Y-76887597D01*
X137688027Y-76856468D01*
X137688027Y-81007307D01*
X137672341Y-81022993D01*
X137605339Y-81022935D01*
X137466726Y-81080208D01*
X137360581Y-81186168D01*
X137303065Y-81324681D01*
X137302935Y-81474661D01*
X137360208Y-81613274D01*
X137466168Y-81719419D01*
X137604681Y-81776935D01*
X137754661Y-81777065D01*
X137893274Y-81719792D01*
X137999419Y-81613832D01*
X138056935Y-81475319D01*
X138056994Y-81407672D01*
X138152360Y-81312306D01*
X138163787Y-81295204D01*
X138211322Y-81224063D01*
X138232027Y-81119973D01*
X138232027Y-76650000D01*
X138407166Y-76650000D01*
X138502273Y-76745273D01*
X138502273Y-76745273D01*
G37*
X138502273Y-76745273D02*
X138602479Y-76786883D01*
X138566762Y-76822600D01*
X138510339Y-76845913D01*
X138404194Y-76951873D01*
X138346678Y-77090386D01*
X138346548Y-77240366D01*
X138403821Y-77378979D01*
X138509781Y-77485124D01*
X138648294Y-77542640D01*
X138798274Y-77542770D01*
X138873615Y-77511640D01*
X138873615Y-77536225D01*
X138848291Y-77561549D01*
X138789329Y-77649792D01*
X138768624Y-77753882D01*
X138768624Y-77775556D01*
X138721205Y-77822892D01*
X138663689Y-77961405D01*
X138663559Y-78111385D01*
X138720832Y-78249998D01*
X138826792Y-78356143D01*
X138965305Y-78413659D01*
X139115285Y-78413789D01*
X139184793Y-78385069D01*
X139137699Y-78432163D01*
X139070697Y-78432105D01*
X138932084Y-78489378D01*
X138825939Y-78595338D01*
X138768423Y-78733851D01*
X138768293Y-78883831D01*
X138825566Y-79022444D01*
X138931526Y-79128589D01*
X139070039Y-79186105D01*
X139220019Y-79186235D01*
X139358632Y-79128962D01*
X139464777Y-79023002D01*
X139507637Y-78919784D01*
X139507637Y-80787697D01*
X139272341Y-81022993D01*
X139205339Y-81022935D01*
X139066726Y-81080208D01*
X138960581Y-81186168D01*
X138903065Y-81324681D01*
X138902935Y-81474661D01*
X138960208Y-81613274D01*
X139066168Y-81719419D01*
X139204681Y-81776935D01*
X139354661Y-81777065D01*
X139493274Y-81719792D01*
X139599419Y-81613832D01*
X139656935Y-81475319D01*
X139656994Y-81407672D01*
X139658984Y-81405682D01*
X139658924Y-81474661D01*
X139716197Y-81613274D01*
X139822157Y-81719419D01*
X139960670Y-81776935D01*
X140110650Y-81777065D01*
X140123634Y-81771700D01*
X140072341Y-81822993D01*
X140005339Y-81822935D01*
X139866726Y-81880208D01*
X139760581Y-81986168D01*
X139703065Y-82124681D01*
X139702935Y-82274661D01*
X139760208Y-82413274D01*
X139866168Y-82519419D01*
X140004681Y-82576935D01*
X140154661Y-82577065D01*
X140293274Y-82519792D01*
X140399419Y-82413832D01*
X140456935Y-82275319D01*
X140456994Y-82207672D01*
X140547064Y-82117602D01*
X140546946Y-82253944D01*
X140604219Y-82392557D01*
X140710179Y-82498702D01*
X140848692Y-82556218D01*
X140998672Y-82556348D01*
X141137285Y-82499075D01*
X141243430Y-82393115D01*
X141300946Y-82254602D01*
X141300947Y-82253464D01*
X141338198Y-82343619D01*
X141444158Y-82449764D01*
X141582671Y-82507280D01*
X141732651Y-82507410D01*
X141871264Y-82450137D01*
X141977409Y-82344177D01*
X142019378Y-82243105D01*
X142019358Y-82266055D01*
X142076631Y-82404668D01*
X142182591Y-82510813D01*
X142321104Y-82568329D01*
X142471084Y-82568459D01*
X142609697Y-82511186D01*
X142715842Y-82405226D01*
X142773358Y-82266713D01*
X142773488Y-82116733D01*
X142716215Y-81978120D01*
X142610255Y-81871975D01*
X142471742Y-81814459D01*
X142321762Y-81814329D01*
X142183149Y-81871602D01*
X142077004Y-81977562D01*
X142035035Y-82078634D01*
X142035055Y-82055684D01*
X141977782Y-81917071D01*
X141871822Y-81810926D01*
X141733309Y-81753410D01*
X141583329Y-81753280D01*
X141444716Y-81810553D01*
X141338571Y-81916513D01*
X141281055Y-82055026D01*
X141281054Y-82056164D01*
X141243803Y-81966009D01*
X141137843Y-81859864D01*
X140999330Y-81802348D01*
X140849350Y-81802218D01*
X140723599Y-81854177D01*
X140729999Y-81822001D01*
X140729999Y-81310105D01*
X141089310Y-80950794D01*
X141102575Y-80930942D01*
X141148272Y-80862551D01*
X141168977Y-80758461D01*
X141168977Y-78545187D01*
X141243659Y-78576198D01*
X141393639Y-78576328D01*
X141523599Y-78522630D01*
X141523599Y-80763856D01*
X141544304Y-80867946D01*
X141603266Y-80956189D01*
X142036972Y-81389895D01*
X142036914Y-81456897D01*
X142094187Y-81595510D01*
X142200147Y-81701655D01*
X142338660Y-81759171D01*
X142488640Y-81759301D01*
X142627253Y-81702028D01*
X142733398Y-81596068D01*
X142790914Y-81457555D01*
X142791044Y-81307575D01*
X142783846Y-81290154D01*
X142880983Y-81387291D01*
X142880925Y-81454293D01*
X142938198Y-81592906D01*
X143044158Y-81699051D01*
X143182671Y-81756567D01*
X143332651Y-81756697D01*
X143407991Y-81725568D01*
X143407991Y-81861230D01*
X143333309Y-81830219D01*
X143183329Y-81830089D01*
X143044716Y-81887362D01*
X142938571Y-81993322D01*
X142881055Y-82131835D01*
X142880925Y-82281815D01*
X142938198Y-82420428D01*
X143044158Y-82526573D01*
X143182671Y-82584089D01*
X143289143Y-82584181D01*
X143250331Y-82622993D01*
X143183329Y-82622935D01*
X143044716Y-82680208D01*
X142938571Y-82786168D01*
X142881055Y-82924681D01*
X142880925Y-83074661D01*
X142938198Y-83213274D01*
X143044158Y-83319419D01*
X143182671Y-83376935D01*
X143332651Y-83377065D01*
X143471264Y-83319792D01*
X143577409Y-83213832D01*
X143634925Y-83075319D01*
X143634984Y-83007672D01*
X143730117Y-82912539D01*
X143725075Y-82924681D01*
X143724945Y-83074661D01*
X143782218Y-83213274D01*
X143888178Y-83319419D01*
X144026691Y-83376935D01*
X144176671Y-83377065D01*
X144315284Y-83319792D01*
X144421429Y-83213832D01*
X144470078Y-83096671D01*
X144517036Y-83096671D01*
X144574309Y-83235284D01*
X144680269Y-83341429D01*
X144818782Y-83398945D01*
X144968762Y-83399075D01*
X145107375Y-83341802D01*
X145213520Y-83235842D01*
X145271036Y-83097329D01*
X145271166Y-82947349D01*
X145213893Y-82808736D01*
X145107933Y-82702591D01*
X144969420Y-82645075D01*
X144819440Y-82644945D01*
X144680827Y-82702218D01*
X144574682Y-82808178D01*
X144517166Y-82946691D01*
X144517036Y-83096671D01*
X144470078Y-83096671D01*
X144478945Y-83075319D01*
X144479075Y-82925339D01*
X144421802Y-82786726D01*
X144315842Y-82680581D01*
X144177329Y-82623065D01*
X144027349Y-82622935D01*
X143935504Y-82660884D01*
X143951991Y-82577999D01*
X143951991Y-82531517D01*
X144026691Y-82562535D01*
X144176671Y-82562665D01*
X144315284Y-82505392D01*
X144421429Y-82399432D01*
X144478945Y-82260919D01*
X144479075Y-82110939D01*
X144421802Y-81972326D01*
X144315842Y-81866181D01*
X144177329Y-81808665D01*
X144027349Y-81808535D01*
X143951991Y-81839672D01*
X143951991Y-81702426D01*
X144070702Y-81751719D01*
X144220682Y-81751849D01*
X144359295Y-81694576D01*
X144465440Y-81588616D01*
X144514687Y-81470017D01*
X144546600Y-81547253D01*
X144652560Y-81653398D01*
X144791073Y-81710914D01*
X144941053Y-81711044D01*
X145079666Y-81653771D01*
X145185811Y-81547811D01*
X145243327Y-81409298D01*
X145243457Y-81259318D01*
X145186184Y-81120705D01*
X145080224Y-81014560D01*
X144941711Y-80957044D01*
X144791731Y-80956914D01*
X144653118Y-81014187D01*
X144546973Y-81120147D01*
X144497726Y-81238746D01*
X144465813Y-81161510D01*
X144359853Y-81055365D01*
X144221340Y-80997849D01*
X144071360Y-80997719D01*
X143951991Y-81047041D01*
X143951991Y-80212682D01*
X143931286Y-80108592D01*
X143872324Y-80020349D01*
X142970515Y-79118540D01*
X143064897Y-79079542D01*
X143112772Y-79031750D01*
X143446075Y-79031750D01*
X143550165Y-79011045D01*
X143638408Y-78952083D01*
X143805825Y-78784666D01*
X143964839Y-78943680D01*
X144053082Y-79002642D01*
X144157172Y-79023347D01*
X149630000Y-79023347D01*
X149630000Y-79888984D01*
X148869727Y-79888984D01*
X148765637Y-79909689D01*
X148719253Y-79940682D01*
X148677394Y-79968651D01*
X148145435Y-80500610D01*
X148086473Y-80588853D01*
X148065768Y-80692943D01*
X148065768Y-80714617D01*
X148018349Y-80761953D01*
X147960833Y-80900466D01*
X147960703Y-81050446D01*
X148017976Y-81189059D01*
X148123936Y-81295204D01*
X148262449Y-81352720D01*
X148412429Y-81352850D01*
X148551042Y-81295577D01*
X148657187Y-81189617D01*
X148667782Y-81164101D01*
X148722020Y-81218433D01*
X148860533Y-81275949D01*
X149010513Y-81276079D01*
X149149126Y-81218806D01*
X149255271Y-81112846D01*
X149312787Y-80974333D01*
X149312846Y-80906686D01*
X149469537Y-80749995D01*
X149630000Y-80749995D01*
X149630000Y-81905990D01*
X145146260Y-81905990D01*
X145098924Y-81858571D01*
X144960411Y-81801055D01*
X144810431Y-81800925D01*
X144671818Y-81858198D01*
X144565673Y-81964158D01*
X144508157Y-82102671D01*
X144508027Y-82252651D01*
X144565300Y-82391264D01*
X144671260Y-82497409D01*
X144809773Y-82554925D01*
X144959753Y-82555055D01*
X145098366Y-82497782D01*
X145146241Y-82449990D01*
X148747912Y-82449990D01*
X148656233Y-82541509D01*
X148598717Y-82680022D01*
X148598587Y-82830002D01*
X148655860Y-82968615D01*
X148750888Y-83063809D01*
X148155342Y-83063809D01*
X148108006Y-83016390D01*
X147969493Y-82958874D01*
X147819513Y-82958744D01*
X147680900Y-83016017D01*
X147574755Y-83121977D01*
X147517239Y-83260490D01*
X147517109Y-83410470D01*
X147574382Y-83549083D01*
X147680342Y-83655228D01*
X147818855Y-83712744D01*
X147968835Y-83712874D01*
X148107448Y-83655601D01*
X148155323Y-83607809D01*
X149630000Y-83607809D01*
X149630000Y-83888510D01*
X149058675Y-83888510D01*
X148954585Y-83909215D01*
X148866342Y-83968177D01*
X148661141Y-84173378D01*
X148594139Y-84173320D01*
X148455526Y-84230593D01*
X148349381Y-84336553D01*
X148291865Y-84475066D01*
X148291735Y-84625046D01*
X148349008Y-84763659D01*
X148371901Y-84786592D01*
X147799535Y-84786592D01*
X147799537Y-84783932D01*
X147742264Y-84645319D01*
X147636304Y-84539174D01*
X147497791Y-84481658D01*
X147347811Y-84481528D01*
X147209198Y-84538801D01*
X147103053Y-84644761D01*
X147045537Y-84783274D01*
X147045407Y-84933254D01*
X147102680Y-85071867D01*
X147208640Y-85178012D01*
X147347153Y-85235528D01*
X147414800Y-85235587D01*
X147430138Y-85250925D01*
X147518381Y-85309887D01*
X147622471Y-85330592D01*
X148778864Y-85330592D01*
X148882954Y-85309887D01*
X148971197Y-85250925D01*
X149462267Y-84759855D01*
X149630000Y-84759855D01*
X149630000Y-85928000D01*
X145669074Y-85928000D01*
X145395467Y-85654393D01*
X145307224Y-85595431D01*
X145215065Y-85577099D01*
X145263479Y-85460505D01*
X145263609Y-85310525D01*
X145206336Y-85171912D01*
X145100376Y-85065767D01*
X144961863Y-85008251D01*
X144811883Y-85008121D01*
X144673270Y-85065394D01*
X144567125Y-85171354D01*
X144509609Y-85309867D01*
X144509495Y-85441531D01*
X144478998Y-85411034D01*
X144479075Y-85322558D01*
X144421802Y-85183945D01*
X144315842Y-85077800D01*
X144177329Y-85020284D01*
X144027349Y-85020154D01*
X143888736Y-85077427D01*
X143782591Y-85183387D01*
X143725075Y-85321900D01*
X143724945Y-85471880D01*
X143782218Y-85610493D01*
X143888178Y-85716638D01*
X144026691Y-85774154D01*
X144072826Y-85774194D01*
X144081542Y-85782910D01*
X144088183Y-85792849D01*
X144098122Y-85799490D01*
X144337691Y-86039059D01*
X144425934Y-86098021D01*
X144530024Y-86118726D01*
X144555365Y-86118726D01*
X144524350Y-86193417D01*
X144524220Y-86343397D01*
X144581493Y-86482010D01*
X144687453Y-86588155D01*
X144785040Y-86628677D01*
X144675288Y-86674025D01*
X144569143Y-86779985D01*
X144511627Y-86918498D01*
X144511497Y-87068478D01*
X144568770Y-87207091D01*
X144674730Y-87313236D01*
X144813243Y-87370752D01*
X144963223Y-87370882D01*
X145101836Y-87313609D01*
X145207981Y-87207649D01*
X145265497Y-87069136D01*
X145265627Y-86919156D01*
X145208354Y-86780543D01*
X145102394Y-86674398D01*
X145004807Y-86633876D01*
X145114559Y-86588528D01*
X145220704Y-86482568D01*
X145278220Y-86344055D01*
X145278253Y-86306511D01*
X145364075Y-86392333D01*
X145452318Y-86451295D01*
X145556408Y-86472000D01*
X149630000Y-86472000D01*
X149630000Y-87852845D01*
X148197680Y-87852845D01*
X148093590Y-87873550D01*
X148005347Y-87932512D01*
X147990022Y-87947837D01*
X147923020Y-87947779D01*
X147784407Y-88005052D01*
X147734184Y-88055187D01*
X147684500Y-88005416D01*
X147545987Y-87947900D01*
X147396007Y-87947770D01*
X147257394Y-88005043D01*
X147151249Y-88111003D01*
X147093733Y-88249516D01*
X147093603Y-88399496D01*
X147150876Y-88538109D01*
X147198668Y-88585984D01*
X147198668Y-88607677D01*
X147219373Y-88711767D01*
X147278335Y-88800010D01*
X147417504Y-88939179D01*
X147505747Y-88998141D01*
X147609837Y-89018846D01*
X148200243Y-89018846D01*
X148304333Y-88998141D01*
X148392576Y-88939179D01*
X148459755Y-88872000D01*
X149630000Y-88872000D01*
X149630000Y-89530879D01*
X147387094Y-89530879D01*
X147339758Y-89483460D01*
X147201245Y-89425944D01*
X147051265Y-89425814D01*
X146912652Y-89483087D01*
X146806507Y-89589047D01*
X146748991Y-89727560D01*
X146748897Y-89835910D01*
X146431511Y-89518524D01*
X146343268Y-89459562D01*
X146239178Y-89438857D01*
X145082912Y-89438857D01*
X145130029Y-89391822D01*
X145187545Y-89253309D01*
X145187675Y-89103329D01*
X145130402Y-88964716D01*
X145099239Y-88933499D01*
X145197067Y-88835842D01*
X145254583Y-88697329D01*
X145254713Y-88547349D01*
X145197440Y-88408736D01*
X145091480Y-88302591D01*
X144952967Y-88245075D01*
X144802987Y-88244945D01*
X144664374Y-88302218D01*
X144558229Y-88408178D01*
X144500713Y-88546691D01*
X144500583Y-88696671D01*
X144557856Y-88835284D01*
X144589019Y-88866501D01*
X144491191Y-88964158D01*
X144433675Y-89102671D01*
X144433545Y-89252651D01*
X144490818Y-89391264D01*
X144538328Y-89438857D01*
X144262250Y-89438857D01*
X144309367Y-89391822D01*
X144366883Y-89253309D01*
X144367013Y-89103329D01*
X144309740Y-88964716D01*
X144263061Y-88917956D01*
X144296106Y-88904302D01*
X144402251Y-88798342D01*
X144459767Y-88659829D01*
X144459897Y-88509849D01*
X144402624Y-88371236D01*
X144296664Y-88265091D01*
X144158151Y-88207575D01*
X144008171Y-88207445D01*
X143869558Y-88264718D01*
X143763413Y-88370678D01*
X143705897Y-88509191D01*
X143705767Y-88659171D01*
X143763040Y-88797784D01*
X143809719Y-88844544D01*
X143776674Y-88858198D01*
X143670529Y-88964158D01*
X143613013Y-89102671D01*
X143612883Y-89252651D01*
X143670156Y-89391264D01*
X143726820Y-89448027D01*
X143668828Y-89459562D01*
X143580585Y-89518524D01*
X143274165Y-89824944D01*
X143207163Y-89824886D01*
X143068550Y-89882159D01*
X142962405Y-89988119D01*
X142904889Y-90126632D01*
X142904759Y-90276612D01*
X142962032Y-90415225D01*
X143067992Y-90521370D01*
X143206505Y-90578886D01*
X143356485Y-90579016D01*
X143495098Y-90521743D01*
X143601243Y-90415783D01*
X143658759Y-90277270D01*
X143658818Y-90209623D01*
X143705398Y-90163043D01*
X143705359Y-90207519D01*
X143762632Y-90346132D01*
X143868592Y-90452277D01*
X144007105Y-90509793D01*
X144157085Y-90509923D01*
X144205356Y-90489978D01*
X144072341Y-90622993D01*
X144005339Y-90622935D01*
X143866726Y-90680208D01*
X143760581Y-90786168D01*
X143703065Y-90924681D01*
X143702935Y-91074661D01*
X143760208Y-91213274D01*
X143866168Y-91319419D01*
X144004681Y-91376935D01*
X144154661Y-91377065D01*
X144293274Y-91319792D01*
X144399419Y-91213832D01*
X144456935Y-91075319D01*
X144456994Y-91007672D01*
X144514684Y-90949982D01*
X144514569Y-91083127D01*
X144571842Y-91221740D01*
X144677802Y-91327885D01*
X144816315Y-91385401D01*
X144966295Y-91385531D01*
X145104908Y-91328258D01*
X145211053Y-91222298D01*
X145268569Y-91083785D01*
X145268699Y-90933805D01*
X145243162Y-90872000D01*
X148967334Y-90872000D01*
X149630000Y-91534666D01*
X149630000Y-93016776D01*
X149191224Y-93016776D01*
X149087134Y-93037481D01*
X149022630Y-93080581D01*
X148998891Y-93096443D01*
X147767334Y-94328000D01*
X145592666Y-94328000D01*
X144563812Y-93299146D01*
X146952163Y-93299146D01*
X147013539Y-93447687D01*
X147127086Y-93561433D01*
X147275520Y-93623068D01*
X147373772Y-93623154D01*
X147373643Y-93771013D01*
X147435019Y-93919554D01*
X147548566Y-94033300D01*
X147697000Y-94094935D01*
X147857721Y-94095075D01*
X148006262Y-94033699D01*
X148120008Y-93920152D01*
X148181643Y-93771718D01*
X148181783Y-93610997D01*
X148120407Y-93462456D01*
X148085709Y-93427698D01*
X148143853Y-93403673D01*
X148257599Y-93290126D01*
X148319234Y-93141692D01*
X148319374Y-92980971D01*
X148257998Y-92832430D01*
X148144451Y-92718684D01*
X147996017Y-92657049D01*
X147835296Y-92656909D01*
X147686755Y-92718285D01*
X147573009Y-92831832D01*
X147558887Y-92865842D01*
X147436946Y-92815208D01*
X147276225Y-92815068D01*
X147127684Y-92876444D01*
X147013938Y-92989991D01*
X146952303Y-93138425D01*
X146952163Y-93299146D01*
X144563812Y-93299146D01*
X144222709Y-92958043D01*
X144315284Y-92919792D01*
X144421429Y-92813832D01*
X144478945Y-92675319D01*
X144478964Y-92652651D01*
X144505287Y-92652651D01*
X144562560Y-92791264D01*
X144668520Y-92897409D01*
X144807033Y-92954925D01*
X144957013Y-92955055D01*
X145095626Y-92897782D01*
X145201771Y-92791822D01*
X145259287Y-92653309D01*
X145259417Y-92503329D01*
X145202144Y-92364716D01*
X145096184Y-92258571D01*
X145024940Y-92228988D01*
X145109047Y-92194236D01*
X145215192Y-92088276D01*
X145272708Y-91949763D01*
X145272838Y-91799783D01*
X145215565Y-91661170D01*
X145109605Y-91555025D01*
X144971092Y-91497509D01*
X144821112Y-91497379D01*
X144682499Y-91554652D01*
X144576354Y-91660612D01*
X144518838Y-91799125D01*
X144518708Y-91949105D01*
X144575981Y-92087718D01*
X144681941Y-92193863D01*
X144753185Y-92223446D01*
X144669078Y-92258198D01*
X144562933Y-92364158D01*
X144505417Y-92502671D01*
X144505287Y-92652651D01*
X144478964Y-92652651D01*
X144479075Y-92525339D01*
X144421802Y-92386726D01*
X144315842Y-92280581D01*
X144196658Y-92231091D01*
X144278105Y-92197438D01*
X144384250Y-92091478D01*
X144441766Y-91952965D01*
X144441896Y-91802985D01*
X144384623Y-91664372D01*
X144278663Y-91558227D01*
X144140150Y-91500711D01*
X143990170Y-91500581D01*
X143851557Y-91557854D01*
X143745412Y-91663814D01*
X143687896Y-91802327D01*
X143687837Y-91869974D01*
X143638787Y-91919024D01*
X143656935Y-91875319D01*
X143657065Y-91725339D01*
X143599792Y-91586726D01*
X143493832Y-91480581D01*
X143355319Y-91423065D01*
X143205339Y-91422935D01*
X143066726Y-91480208D01*
X142960581Y-91586168D01*
X142903065Y-91724681D01*
X142903006Y-91792328D01*
X142887668Y-91807666D01*
X142828706Y-91895909D01*
X142808001Y-91999999D01*
X142808001Y-92648322D01*
X142828706Y-92752412D01*
X142887668Y-92840655D01*
X143119487Y-93072474D01*
X143044741Y-93103358D01*
X142938596Y-93209318D01*
X142881080Y-93347831D01*
X142880950Y-93497811D01*
X142938223Y-93636424D01*
X142986015Y-93684299D01*
X142986015Y-93705992D01*
X143006720Y-93810082D01*
X143065682Y-93898325D01*
X148117357Y-98950000D01*
X136304257Y-98950000D01*
X136304257Y-98907850D01*
X137296359Y-97915748D01*
X137363361Y-97915806D01*
X137501974Y-97858533D01*
X137608119Y-97752573D01*
X137665635Y-97614060D01*
X137665765Y-97464080D01*
X137608492Y-97325467D01*
X137502532Y-97219322D01*
X137364019Y-97161806D01*
X137214039Y-97161676D01*
X137075426Y-97218949D01*
X136969281Y-97324909D01*
X136911765Y-97463422D01*
X136911706Y-97531069D01*
X135839924Y-98602851D01*
X135780962Y-98691094D01*
X135760257Y-98795184D01*
X135760257Y-98950000D01*
X134051914Y-98950000D01*
X135093117Y-97908797D01*
X135160119Y-97908855D01*
X135298732Y-97851582D01*
X135404877Y-97745622D01*
X135462393Y-97607109D01*
X135462431Y-97563645D01*
X135556168Y-97657546D01*
X135694681Y-97715062D01*
X135844661Y-97715192D01*
X135983274Y-97657919D01*
X136089419Y-97551959D01*
X136146935Y-97413446D01*
X136147065Y-97263466D01*
X136089792Y-97124853D01*
X135983832Y-97018708D01*
X135845319Y-96961192D01*
X135777672Y-96961133D01*
X135127268Y-96310729D01*
X139606063Y-96310729D01*
X140902993Y-97607659D01*
X140902935Y-97674661D01*
X140960208Y-97813274D01*
X141066168Y-97919419D01*
X141204681Y-97976935D01*
X141354661Y-97977065D01*
X141493274Y-97919792D01*
X141599419Y-97813832D01*
X141656935Y-97675319D01*
X141657065Y-97525339D01*
X141599792Y-97386726D01*
X141493832Y-97280581D01*
X141355319Y-97223065D01*
X141287672Y-97223006D01*
X139911062Y-95846396D01*
X139822819Y-95787434D01*
X139718729Y-95766729D01*
X134181148Y-95766729D01*
X134133812Y-95719310D01*
X133995299Y-95661794D01*
X133845319Y-95661664D01*
X133706706Y-95718937D01*
X133600561Y-95824897D01*
X133543045Y-95963410D01*
X133542915Y-96113390D01*
X133578012Y-96198332D01*
X133054795Y-96198332D01*
X133047993Y-96191530D01*
X132959750Y-96132568D01*
X132855660Y-96111863D01*
X132833986Y-96111863D01*
X132786650Y-96064444D01*
X132648137Y-96006928D01*
X132498157Y-96006798D01*
X132359544Y-96064071D01*
X132253399Y-96170031D01*
X132195883Y-96308544D01*
X132195753Y-96458524D01*
X132253026Y-96597137D01*
X132358986Y-96703282D01*
X132497499Y-96760798D01*
X132647479Y-96760928D01*
X132786092Y-96703655D01*
X132796136Y-96693628D01*
X132838039Y-96721627D01*
X132942129Y-96742332D01*
X134789539Y-96742332D01*
X135231378Y-97184171D01*
X135160777Y-97154855D01*
X135010797Y-97154725D01*
X134872184Y-97211998D01*
X134766039Y-97317958D01*
X134708523Y-97456471D01*
X134708464Y-97524118D01*
X133282582Y-98950000D01*
X132674757Y-98950000D01*
X132945003Y-98679754D01*
X133003965Y-98591511D01*
X133024670Y-98487421D01*
X133024670Y-98440088D01*
X133072089Y-98392752D01*
X133129605Y-98254239D01*
X133129735Y-98104259D01*
X133072462Y-97965646D01*
X132966502Y-97859501D01*
X132827989Y-97801985D01*
X132678009Y-97801855D01*
X132539396Y-97859128D01*
X132433251Y-97965088D01*
X132375735Y-98103601D01*
X132375605Y-98253581D01*
X132432878Y-98392194D01*
X132448041Y-98407384D01*
X131905425Y-98950000D01*
X130986529Y-98950000D01*
X130986529Y-97924786D01*
X131047022Y-97864293D01*
X131114024Y-97864351D01*
X131252637Y-97807078D01*
X131358782Y-97701118D01*
X131416298Y-97562605D01*
X131416428Y-97412625D01*
X131359155Y-97274012D01*
X131253195Y-97167867D01*
X131114682Y-97110351D01*
X130964702Y-97110221D01*
X130826089Y-97167494D01*
X130719944Y-97273454D01*
X130662428Y-97411967D01*
X130662369Y-97479614D01*
X130522196Y-97619787D01*
X130463234Y-97708030D01*
X130442529Y-97812120D01*
X130442529Y-98950000D01*
X127330000Y-98950000D01*
X127330000Y-95528802D01*
X130430009Y-95528802D01*
X130487282Y-95667415D01*
X130593242Y-95773560D01*
X130731755Y-95831076D01*
X130881735Y-95831206D01*
X131020348Y-95773933D01*
X131126493Y-95667973D01*
X131184009Y-95529460D01*
X131184139Y-95379480D01*
X131126866Y-95240867D01*
X131020906Y-95134722D01*
X130882393Y-95077206D01*
X130732413Y-95077076D01*
X130593800Y-95134349D01*
X130487655Y-95240309D01*
X130430139Y-95378822D01*
X130430009Y-95528802D01*
X127330000Y-95528802D01*
X127330000Y-94274661D01*
X131702935Y-94274661D01*
X131760208Y-94413274D01*
X131866168Y-94519419D01*
X132004681Y-94576935D01*
X132154661Y-94577065D01*
X132293274Y-94519792D01*
X132399419Y-94413832D01*
X132456935Y-94275319D01*
X132456938Y-94271734D01*
X132469169Y-94271734D01*
X132526442Y-94410347D01*
X132632402Y-94516492D01*
X132770915Y-94574008D01*
X132920895Y-94574138D01*
X133059508Y-94516865D01*
X133165653Y-94410905D01*
X133223169Y-94272392D01*
X133223299Y-94122412D01*
X133166026Y-93983799D01*
X133060066Y-93877654D01*
X132921553Y-93820138D01*
X132771573Y-93820008D01*
X132632960Y-93877281D01*
X132526815Y-93983241D01*
X132469299Y-94121754D01*
X132469169Y-94271734D01*
X132456938Y-94271734D01*
X132457065Y-94125339D01*
X132399792Y-93986726D01*
X132293832Y-93880581D01*
X132155319Y-93823065D01*
X132005339Y-93822935D01*
X131866726Y-93880208D01*
X131760581Y-93986168D01*
X131703065Y-94124681D01*
X131702935Y-94274661D01*
X127330000Y-94274661D01*
X127330000Y-93319292D01*
X128877605Y-93319292D01*
X128934878Y-93457905D01*
X129040838Y-93564050D01*
X129179351Y-93621566D01*
X129329331Y-93621696D01*
X129372631Y-93603805D01*
X129764239Y-93603805D01*
X129821512Y-93742418D01*
X129927472Y-93848563D01*
X130065985Y-93906079D01*
X130215965Y-93906209D01*
X130354578Y-93848936D01*
X130460723Y-93742976D01*
X130518239Y-93604463D01*
X130518351Y-93474661D01*
X131702935Y-93474661D01*
X131760208Y-93613274D01*
X131866168Y-93719419D01*
X132004681Y-93776935D01*
X132154661Y-93777065D01*
X132293274Y-93719792D01*
X132399419Y-93613832D01*
X132456177Y-93477143D01*
X133308603Y-93477143D01*
X133365876Y-93615756D01*
X133471836Y-93721901D01*
X133610349Y-93779417D01*
X133760329Y-93779547D01*
X133898942Y-93722274D01*
X134005087Y-93616314D01*
X134062603Y-93477801D01*
X134062733Y-93327821D01*
X134005460Y-93189208D01*
X133899500Y-93083063D01*
X133760987Y-93025547D01*
X133611007Y-93025417D01*
X133472394Y-93082690D01*
X133366249Y-93188650D01*
X133308733Y-93327163D01*
X133308603Y-93477143D01*
X132456177Y-93477143D01*
X132456935Y-93475319D01*
X132457065Y-93325339D01*
X132399792Y-93186726D01*
X132293832Y-93080581D01*
X132155319Y-93023065D01*
X132005339Y-93022935D01*
X131866726Y-93080208D01*
X131760581Y-93186168D01*
X131703065Y-93324681D01*
X131702935Y-93474661D01*
X130518351Y-93474661D01*
X130518369Y-93454483D01*
X130461096Y-93315870D01*
X130355136Y-93209725D01*
X130216623Y-93152209D01*
X130066643Y-93152079D01*
X129928030Y-93209352D01*
X129821885Y-93315312D01*
X129764369Y-93453825D01*
X129764239Y-93603805D01*
X129372631Y-93603805D01*
X129467944Y-93564423D01*
X129574089Y-93458463D01*
X129631605Y-93319950D01*
X129631735Y-93169970D01*
X129574462Y-93031357D01*
X129468502Y-92925212D01*
X129329989Y-92867696D01*
X129180009Y-92867566D01*
X129041396Y-92924839D01*
X128935251Y-93030799D01*
X128877735Y-93169312D01*
X128877605Y-93319292D01*
X127330000Y-93319292D01*
X127330000Y-92750249D01*
X129525001Y-92750249D01*
X129524999Y-92752909D01*
X129582272Y-92891522D01*
X129688232Y-92997667D01*
X129826745Y-93055183D01*
X129976725Y-93055313D01*
X130115338Y-92998040D01*
X130221483Y-92892080D01*
X130278999Y-92753567D01*
X130279067Y-92674661D01*
X131702935Y-92674661D01*
X131760208Y-92813274D01*
X131866168Y-92919419D01*
X132004681Y-92976935D01*
X132154661Y-92977065D01*
X132293274Y-92919792D01*
X132399419Y-92813832D01*
X132456935Y-92675319D01*
X132456935Y-92674661D01*
X132502935Y-92674661D01*
X132560208Y-92813274D01*
X132666168Y-92919419D01*
X132804681Y-92976935D01*
X132954661Y-92977065D01*
X133093274Y-92919792D01*
X133199419Y-92813832D01*
X133256935Y-92675319D01*
X133256935Y-92674661D01*
X133302935Y-92674661D01*
X133360208Y-92813274D01*
X133466168Y-92919419D01*
X133604681Y-92976935D01*
X133754661Y-92977065D01*
X133893274Y-92919792D01*
X133999419Y-92813832D01*
X134056935Y-92675319D01*
X134057065Y-92525339D01*
X133999792Y-92386726D01*
X133893832Y-92280581D01*
X133755319Y-92223065D01*
X133605339Y-92222935D01*
X133466726Y-92280208D01*
X133360581Y-92386168D01*
X133303065Y-92524681D01*
X133302935Y-92674661D01*
X133256935Y-92674661D01*
X133257065Y-92525339D01*
X133199792Y-92386726D01*
X133093832Y-92280581D01*
X132955319Y-92223065D01*
X132805339Y-92222935D01*
X132666726Y-92280208D01*
X132560581Y-92386168D01*
X132503065Y-92524681D01*
X132502935Y-92674661D01*
X132456935Y-92674661D01*
X132457065Y-92525339D01*
X132399792Y-92386726D01*
X132293832Y-92280581D01*
X132155319Y-92223065D01*
X132005339Y-92222935D01*
X131866726Y-92280208D01*
X131760581Y-92386168D01*
X131703065Y-92524681D01*
X131702935Y-92674661D01*
X130279067Y-92674661D01*
X130279129Y-92603587D01*
X130221856Y-92464974D01*
X130115896Y-92358829D01*
X129977383Y-92301313D01*
X129909736Y-92301254D01*
X129894398Y-92285916D01*
X129806155Y-92226954D01*
X129702065Y-92206249D01*
X129602658Y-92206249D01*
X129656175Y-92152825D01*
X129701527Y-92043605D01*
X129703141Y-92047511D01*
X129809101Y-92153656D01*
X129947614Y-92211172D01*
X130097594Y-92211302D01*
X130236207Y-92154029D01*
X130342352Y-92048069D01*
X130399868Y-91909556D01*
X130399898Y-91874661D01*
X133302935Y-91874661D01*
X133360208Y-92013274D01*
X133466168Y-92119419D01*
X133604681Y-92176935D01*
X133754661Y-92177065D01*
X133893274Y-92119792D01*
X133999419Y-92013832D01*
X134056935Y-91875319D01*
X134057065Y-91725339D01*
X133999792Y-91586726D01*
X133893832Y-91480581D01*
X133885466Y-91477107D01*
X137288829Y-91477107D01*
X137346102Y-91615720D01*
X137452062Y-91721865D01*
X137590575Y-91779381D01*
X137740555Y-91779511D01*
X137879168Y-91722238D01*
X137985313Y-91616278D01*
X138042829Y-91477765D01*
X138042959Y-91327785D01*
X137985686Y-91189172D01*
X137879726Y-91083027D01*
X137859579Y-91074661D01*
X142102935Y-91074661D01*
X142160208Y-91213274D01*
X142266168Y-91319419D01*
X142404681Y-91376935D01*
X142554661Y-91377065D01*
X142693274Y-91319792D01*
X142799419Y-91213832D01*
X142856935Y-91075319D01*
X142856935Y-91074661D01*
X142902935Y-91074661D01*
X142960208Y-91213274D01*
X143066168Y-91319419D01*
X143204681Y-91376935D01*
X143354661Y-91377065D01*
X143493274Y-91319792D01*
X143599419Y-91213832D01*
X143656935Y-91075319D01*
X143657065Y-90925339D01*
X143599792Y-90786726D01*
X143493832Y-90680581D01*
X143355319Y-90623065D01*
X143205339Y-90622935D01*
X143066726Y-90680208D01*
X142960581Y-90786168D01*
X142903065Y-90924681D01*
X142902935Y-91074661D01*
X142856935Y-91074661D01*
X142857065Y-90925339D01*
X142799792Y-90786726D01*
X142693832Y-90680581D01*
X142555319Y-90623065D01*
X142405339Y-90622935D01*
X142266726Y-90680208D01*
X142160581Y-90786168D01*
X142103065Y-90924681D01*
X142102935Y-91074661D01*
X137859579Y-91074661D01*
X137741213Y-91025511D01*
X137591233Y-91025381D01*
X137452620Y-91082654D01*
X137346475Y-91188614D01*
X137288959Y-91327127D01*
X137288829Y-91477107D01*
X133885466Y-91477107D01*
X133755319Y-91423065D01*
X133605339Y-91422935D01*
X133466726Y-91480208D01*
X133360581Y-91586168D01*
X133303065Y-91724681D01*
X133302935Y-91874661D01*
X130399898Y-91874661D01*
X130399998Y-91759576D01*
X130342725Y-91620963D01*
X130236765Y-91514818D01*
X130098252Y-91457302D01*
X130030605Y-91457243D01*
X129382504Y-90809142D01*
X131649883Y-90809142D01*
X131747623Y-90789700D01*
X131700713Y-90902671D01*
X131700583Y-91052651D01*
X131757856Y-91191264D01*
X131863816Y-91297409D01*
X132002329Y-91354925D01*
X132152309Y-91355055D01*
X132290922Y-91297782D01*
X132397067Y-91191822D01*
X132445716Y-91074661D01*
X132502935Y-91074661D01*
X132560208Y-91213274D01*
X132666168Y-91319419D01*
X132804681Y-91376935D01*
X132954661Y-91377065D01*
X133093274Y-91319792D01*
X133199419Y-91213832D01*
X133256935Y-91075319D01*
X133256935Y-91074661D01*
X134102935Y-91074661D01*
X134160208Y-91213274D01*
X134266168Y-91319419D01*
X134404681Y-91376935D01*
X134554661Y-91377065D01*
X134693274Y-91319792D01*
X134799419Y-91213832D01*
X134856935Y-91075319D01*
X134857065Y-90925339D01*
X134799792Y-90786726D01*
X134693832Y-90680581D01*
X134555319Y-90623065D01*
X134405339Y-90622935D01*
X134266726Y-90680208D01*
X134160581Y-90786168D01*
X134103065Y-90924681D01*
X134102935Y-91074661D01*
X133256935Y-91074661D01*
X133257065Y-90925339D01*
X133199792Y-90786726D01*
X133093832Y-90680581D01*
X132955319Y-90623065D01*
X132805339Y-90622935D01*
X132666726Y-90680208D01*
X132560581Y-90786168D01*
X132503065Y-90924681D01*
X132502935Y-91074661D01*
X132445716Y-91074661D01*
X132454583Y-91053309D01*
X132454713Y-90903329D01*
X132397440Y-90764716D01*
X132291480Y-90658571D01*
X132152967Y-90601055D01*
X132002987Y-90600925D01*
X131948079Y-90623612D01*
X132163738Y-90407953D01*
X132230740Y-90408011D01*
X132369353Y-90350738D01*
X132450745Y-90269487D01*
X136508109Y-90269487D01*
X136565382Y-90408100D01*
X136671342Y-90514245D01*
X136809855Y-90571761D01*
X136959835Y-90571891D01*
X137098448Y-90514618D01*
X137204593Y-90408658D01*
X137262109Y-90270145D01*
X137262128Y-90247651D01*
X137302935Y-90247651D01*
X137360208Y-90386264D01*
X137466168Y-90492409D01*
X137604681Y-90549925D01*
X137754661Y-90550055D01*
X137893274Y-90492782D01*
X137999419Y-90386822D01*
X138056935Y-90248309D01*
X138056978Y-90197651D01*
X138902935Y-90197651D01*
X138960208Y-90336264D01*
X139066168Y-90442409D01*
X139204681Y-90499925D01*
X139354661Y-90500055D01*
X139493274Y-90442782D01*
X139599419Y-90336822D01*
X139656935Y-90198309D01*
X139656935Y-90197651D01*
X139717825Y-90197651D01*
X139775098Y-90336264D01*
X139881058Y-90442409D01*
X140019571Y-90499925D01*
X140169551Y-90500055D01*
X140308164Y-90442782D01*
X140414309Y-90336822D01*
X140471825Y-90198309D01*
X140471955Y-90048329D01*
X140414682Y-89909716D01*
X140308722Y-89803571D01*
X140170209Y-89746055D01*
X140020229Y-89745925D01*
X139881616Y-89803198D01*
X139775471Y-89909158D01*
X139717955Y-90047671D01*
X139717825Y-90197651D01*
X139656935Y-90197651D01*
X139657065Y-90048329D01*
X139599792Y-89909716D01*
X139493832Y-89803571D01*
X139355319Y-89746055D01*
X139205339Y-89745925D01*
X139066726Y-89803198D01*
X138960581Y-89909158D01*
X138903065Y-90047671D01*
X138902935Y-90197651D01*
X138056978Y-90197651D01*
X138057065Y-90098329D01*
X137999792Y-89959716D01*
X137893832Y-89853571D01*
X137755319Y-89796055D01*
X137605339Y-89795925D01*
X137466726Y-89853198D01*
X137360581Y-89959158D01*
X137303065Y-90097671D01*
X137302935Y-90247651D01*
X137262128Y-90247651D01*
X137262239Y-90120165D01*
X137204966Y-89981552D01*
X137099006Y-89875407D01*
X136960493Y-89817891D01*
X136810513Y-89817761D01*
X136671900Y-89875034D01*
X136565755Y-89980994D01*
X136508239Y-90119507D01*
X136508109Y-90269487D01*
X132450745Y-90269487D01*
X132475498Y-90244778D01*
X132533014Y-90106265D01*
X132533144Y-89956285D01*
X132475871Y-89817672D01*
X132369911Y-89711527D01*
X132352777Y-89704412D01*
X132399419Y-89657852D01*
X132456935Y-89519339D01*
X132456973Y-89474661D01*
X140502935Y-89474661D01*
X140560208Y-89613274D01*
X140666168Y-89719419D01*
X140804681Y-89776935D01*
X140954661Y-89777065D01*
X141093274Y-89719792D01*
X141199419Y-89613832D01*
X141256935Y-89475319D01*
X141257065Y-89325339D01*
X141199792Y-89186726D01*
X141093832Y-89080581D01*
X140955319Y-89023065D01*
X140805339Y-89022935D01*
X140666726Y-89080208D01*
X140560581Y-89186168D01*
X140503065Y-89324681D01*
X140502935Y-89474661D01*
X132456973Y-89474661D01*
X132457065Y-89369359D01*
X132399792Y-89230746D01*
X132293832Y-89124601D01*
X132155319Y-89067085D01*
X132005339Y-89066955D01*
X131866726Y-89124228D01*
X131760581Y-89230188D01*
X131703065Y-89368701D01*
X131702935Y-89518681D01*
X131760208Y-89657294D01*
X131866168Y-89763439D01*
X131883302Y-89770554D01*
X131836660Y-89817114D01*
X131779144Y-89955627D01*
X131779085Y-90023274D01*
X131537217Y-90265142D01*
X129766464Y-90265142D01*
X129778603Y-90253024D01*
X129836119Y-90114511D01*
X129836249Y-89964531D01*
X129778976Y-89825918D01*
X129673016Y-89719773D01*
X129534503Y-89662257D01*
X129384523Y-89662127D01*
X129245910Y-89719400D01*
X129139765Y-89825360D01*
X129082249Y-89963873D01*
X129082119Y-90113853D01*
X129139392Y-90252466D01*
X129152046Y-90265142D01*
X127330000Y-90265142D01*
X127330000Y-89614610D01*
X127944248Y-89614610D01*
X128001521Y-89753223D01*
X128107481Y-89859368D01*
X128245994Y-89916884D01*
X128395974Y-89917014D01*
X128534587Y-89859741D01*
X128640732Y-89753781D01*
X128698248Y-89615268D01*
X128698378Y-89465288D01*
X128641105Y-89326675D01*
X128535145Y-89220530D01*
X128396632Y-89163014D01*
X128246652Y-89162884D01*
X128108039Y-89220157D01*
X128001894Y-89326117D01*
X127944378Y-89464630D01*
X127944248Y-89614610D01*
X127330000Y-89614610D01*
X127330000Y-88710604D01*
X127358404Y-88698868D01*
X127382653Y-88674661D01*
X132502935Y-88674661D01*
X132560208Y-88813274D01*
X132666168Y-88919419D01*
X132804681Y-88976935D01*
X132954661Y-88977065D01*
X133093274Y-88919792D01*
X133199419Y-88813832D01*
X133249483Y-88693263D01*
X134896241Y-88693263D01*
X134953514Y-88831876D01*
X135059474Y-88938021D01*
X135197987Y-88995537D01*
X135347967Y-88995667D01*
X135486580Y-88938394D01*
X135592725Y-88832434D01*
X135650241Y-88693921D01*
X135650257Y-88674661D01*
X141302935Y-88674661D01*
X141360208Y-88813274D01*
X141466168Y-88919419D01*
X141604681Y-88976935D01*
X141754661Y-88977065D01*
X141893274Y-88919792D01*
X141999419Y-88813832D01*
X142056935Y-88675319D01*
X142056939Y-88669691D01*
X142900961Y-88669691D01*
X142958234Y-88808304D01*
X143064194Y-88914449D01*
X143202707Y-88971965D01*
X143352687Y-88972095D01*
X143491300Y-88914822D01*
X143597445Y-88808862D01*
X143654961Y-88670349D01*
X143655091Y-88520369D01*
X143597818Y-88381756D01*
X143491858Y-88275611D01*
X143353345Y-88218095D01*
X143203365Y-88217965D01*
X143064752Y-88275238D01*
X142958607Y-88381198D01*
X142901091Y-88519711D01*
X142900961Y-88669691D01*
X142056939Y-88669691D01*
X142057065Y-88525339D01*
X141999792Y-88386726D01*
X141893832Y-88280581D01*
X141755319Y-88223065D01*
X141605339Y-88222935D01*
X141466726Y-88280208D01*
X141360581Y-88386168D01*
X141303065Y-88524681D01*
X141302935Y-88674661D01*
X135650257Y-88674661D01*
X135650371Y-88543941D01*
X135593098Y-88405328D01*
X135487138Y-88299183D01*
X135348625Y-88241667D01*
X135198645Y-88241537D01*
X135060032Y-88298810D01*
X134953887Y-88404770D01*
X134896371Y-88543283D01*
X134896241Y-88693263D01*
X133249483Y-88693263D01*
X133256935Y-88675319D01*
X133257065Y-88525339D01*
X133199792Y-88386726D01*
X133093832Y-88280581D01*
X132955319Y-88223065D01*
X132805339Y-88222935D01*
X132666726Y-88280208D01*
X132560581Y-88386168D01*
X132503065Y-88524681D01*
X132502935Y-88674661D01*
X127382653Y-88674661D01*
X127464549Y-88592908D01*
X127522065Y-88454395D01*
X127522195Y-88304415D01*
X127464922Y-88165802D01*
X127358962Y-88059657D01*
X127330000Y-88047631D01*
X127330000Y-87874661D01*
X140502935Y-87874661D01*
X140560208Y-88013274D01*
X140666168Y-88119419D01*
X140804681Y-88176935D01*
X140954661Y-88177065D01*
X141093274Y-88119792D01*
X141199419Y-88013832D01*
X141256935Y-87875319D01*
X141257065Y-87725339D01*
X141199792Y-87586726D01*
X141093832Y-87480581D01*
X140955319Y-87423065D01*
X140805339Y-87422935D01*
X140666726Y-87480208D01*
X140560581Y-87586168D01*
X140503065Y-87724681D01*
X140502935Y-87874661D01*
X127330000Y-87874661D01*
X127330000Y-87185543D01*
X128399590Y-87185543D01*
X128456863Y-87324156D01*
X128562823Y-87430301D01*
X128701336Y-87487817D01*
X128851316Y-87487947D01*
X128989929Y-87430674D01*
X129096074Y-87324714D01*
X129153590Y-87186201D01*
X129153720Y-87036221D01*
X129096447Y-86897608D01*
X128990487Y-86791463D01*
X128958489Y-86778176D01*
X129165539Y-86778176D01*
X129222812Y-86916789D01*
X129328772Y-87022934D01*
X129467285Y-87080450D01*
X129617265Y-87080580D01*
X129755878Y-87023307D01*
X129862023Y-86917347D01*
X129919539Y-86778834D01*
X129919669Y-86628854D01*
X129862396Y-86490241D01*
X129814604Y-86442366D01*
X129814604Y-86346811D01*
X131700830Y-86346811D01*
X131758103Y-86485424D01*
X131864063Y-86591569D01*
X131972388Y-86636550D01*
X131866726Y-86680208D01*
X131760581Y-86786168D01*
X131703065Y-86924681D01*
X131702935Y-87074661D01*
X131760208Y-87213274D01*
X131866168Y-87319419D01*
X132004681Y-87376935D01*
X132154661Y-87377065D01*
X132293274Y-87319792D01*
X132399419Y-87213832D01*
X132456935Y-87075319D01*
X132457065Y-86925339D01*
X132399792Y-86786726D01*
X132293832Y-86680581D01*
X132185507Y-86635600D01*
X132291169Y-86591942D01*
X132397314Y-86485982D01*
X132454830Y-86347469D01*
X132454893Y-86274661D01*
X134902935Y-86274661D01*
X134960208Y-86413274D01*
X135066168Y-86519419D01*
X135204681Y-86576935D01*
X135354661Y-86577065D01*
X135493274Y-86519792D01*
X135599419Y-86413832D01*
X135656935Y-86275319D01*
X135656935Y-86274661D01*
X141302935Y-86274661D01*
X141360208Y-86413274D01*
X141466168Y-86519419D01*
X141604681Y-86576935D01*
X141754661Y-86577065D01*
X141893274Y-86519792D01*
X141999419Y-86413832D01*
X142056935Y-86275319D01*
X142057065Y-86125339D01*
X141999792Y-85986726D01*
X141893832Y-85880581D01*
X141755319Y-85823065D01*
X141605339Y-85822935D01*
X141466726Y-85880208D01*
X141360581Y-85986168D01*
X141303065Y-86124681D01*
X141302935Y-86274661D01*
X135656935Y-86274661D01*
X135657065Y-86125339D01*
X135599792Y-85986726D01*
X135493832Y-85880581D01*
X135355319Y-85823065D01*
X135205339Y-85822935D01*
X135066726Y-85880208D01*
X134960581Y-85986168D01*
X134903065Y-86124681D01*
X134902935Y-86274661D01*
X132454893Y-86274661D01*
X132454960Y-86197489D01*
X132397687Y-86058876D01*
X132291727Y-85952731D01*
X132153214Y-85895215D01*
X132003234Y-85895085D01*
X131864621Y-85952358D01*
X131758476Y-86058318D01*
X131700960Y-86196831D01*
X131700830Y-86346811D01*
X129814604Y-86346811D01*
X129814604Y-85896333D01*
X130208138Y-85502799D01*
X131702555Y-85502799D01*
X131759828Y-85641412D01*
X131865788Y-85747557D01*
X132004301Y-85805073D01*
X132154281Y-85805203D01*
X132292894Y-85747930D01*
X132399039Y-85641970D01*
X132456555Y-85503457D01*
X132456555Y-85502799D01*
X132498737Y-85502799D01*
X132556010Y-85641412D01*
X132661970Y-85747557D01*
X132800483Y-85805073D01*
X132950463Y-85805203D01*
X133089076Y-85747930D01*
X133195221Y-85641970D01*
X133252737Y-85503457D01*
X133252757Y-85480008D01*
X135675930Y-85480008D01*
X135737306Y-85628549D01*
X135850853Y-85742295D01*
X135999287Y-85803930D01*
X136160008Y-85804070D01*
X136308549Y-85742694D01*
X136422295Y-85629147D01*
X136483930Y-85480713D01*
X136483935Y-85474661D01*
X140502935Y-85474661D01*
X140560208Y-85613274D01*
X140666168Y-85719419D01*
X140804681Y-85776935D01*
X140954661Y-85777065D01*
X141093274Y-85719792D01*
X141199419Y-85613832D01*
X141256935Y-85475319D01*
X141256935Y-85474661D01*
X141302935Y-85474661D01*
X141360208Y-85613274D01*
X141466168Y-85719419D01*
X141604681Y-85776935D01*
X141754661Y-85777065D01*
X141893274Y-85719792D01*
X141999419Y-85613832D01*
X142056935Y-85475319D01*
X142057065Y-85325339D01*
X141999792Y-85186726D01*
X141893832Y-85080581D01*
X141755319Y-85023065D01*
X141605339Y-85022935D01*
X141466726Y-85080208D01*
X141360581Y-85186168D01*
X141303065Y-85324681D01*
X141302935Y-85474661D01*
X141256935Y-85474661D01*
X141257065Y-85325339D01*
X141199792Y-85186726D01*
X141093832Y-85080581D01*
X140955319Y-85023065D01*
X140805339Y-85022935D01*
X140666726Y-85080208D01*
X140560581Y-85186168D01*
X140503065Y-85324681D01*
X140502935Y-85474661D01*
X136483935Y-85474661D01*
X136484070Y-85319992D01*
X136422694Y-85171451D01*
X136309147Y-85057705D01*
X136160713Y-84996070D01*
X135999992Y-84995930D01*
X135851451Y-85057306D01*
X135737705Y-85170853D01*
X135676070Y-85319287D01*
X135675930Y-85480008D01*
X133252757Y-85480008D01*
X133252867Y-85353477D01*
X133195594Y-85214864D01*
X133089634Y-85108719D01*
X132951121Y-85051203D01*
X132801141Y-85051073D01*
X132662528Y-85108346D01*
X132556383Y-85214306D01*
X132498867Y-85352819D01*
X132498737Y-85502799D01*
X132456555Y-85502799D01*
X132456685Y-85353477D01*
X132399412Y-85214864D01*
X132293452Y-85108719D01*
X132154939Y-85051203D01*
X132004959Y-85051073D01*
X131866346Y-85108346D01*
X131760201Y-85214306D01*
X131702685Y-85352819D01*
X131702555Y-85502799D01*
X130208138Y-85502799D01*
X131749113Y-83961824D01*
X131797651Y-84079295D01*
X131891499Y-84173307D01*
X131866722Y-84183545D01*
X131760577Y-84289505D01*
X131703061Y-84428018D01*
X131702931Y-84577998D01*
X131760204Y-84716611D01*
X131866164Y-84822756D01*
X132004677Y-84880272D01*
X132154657Y-84880402D01*
X132293270Y-84823129D01*
X132399415Y-84717169D01*
X132419059Y-84669861D01*
X133294877Y-84669861D01*
X133352150Y-84808474D01*
X133458110Y-84914619D01*
X133596623Y-84972135D01*
X133746603Y-84972265D01*
X133885216Y-84914992D01*
X133991361Y-84809032D01*
X134048877Y-84670519D01*
X134048930Y-84608746D01*
X137303491Y-84608746D01*
X137360764Y-84747359D01*
X137466724Y-84853504D01*
X137605237Y-84911020D01*
X137755217Y-84911150D01*
X137893830Y-84853877D01*
X137999975Y-84747917D01*
X138025681Y-84686010D01*
X138895452Y-84686010D01*
X138952725Y-84824623D01*
X139058685Y-84930768D01*
X139197198Y-84988284D01*
X139347178Y-84988414D01*
X139485791Y-84931141D01*
X139591936Y-84825181D01*
X139649452Y-84686668D01*
X139649520Y-84607594D01*
X144500626Y-84607594D01*
X144557899Y-84746207D01*
X144663859Y-84852352D01*
X144802372Y-84909868D01*
X144952352Y-84909998D01*
X145090965Y-84852725D01*
X145197110Y-84746765D01*
X145254626Y-84608252D01*
X145254756Y-84458272D01*
X145197483Y-84319659D01*
X145091523Y-84213514D01*
X145064137Y-84202142D01*
X145103655Y-84185814D01*
X145209800Y-84079854D01*
X145267316Y-83941341D01*
X145267446Y-83791361D01*
X145210173Y-83652748D01*
X145104213Y-83546603D01*
X144965700Y-83489087D01*
X144815720Y-83488957D01*
X144677107Y-83546230D01*
X144570962Y-83652190D01*
X144513446Y-83790703D01*
X144513316Y-83940683D01*
X144570589Y-84079296D01*
X144676549Y-84185441D01*
X144703935Y-84196813D01*
X144664417Y-84213141D01*
X144558272Y-84319101D01*
X144500756Y-84457614D01*
X144500626Y-84607594D01*
X139649520Y-84607594D01*
X139649582Y-84536688D01*
X139592309Y-84398075D01*
X139486349Y-84291930D01*
X139347836Y-84234414D01*
X139197856Y-84234284D01*
X139059243Y-84291557D01*
X138953098Y-84397517D01*
X138895582Y-84536030D01*
X138895452Y-84686010D01*
X138025681Y-84686010D01*
X138057491Y-84609404D01*
X138057621Y-84459424D01*
X138000348Y-84320811D01*
X137894388Y-84214666D01*
X137755875Y-84157150D01*
X137605895Y-84157020D01*
X137467282Y-84214293D01*
X137361137Y-84320253D01*
X137303621Y-84458766D01*
X137303491Y-84608746D01*
X134048930Y-84608746D01*
X134049007Y-84520539D01*
X133991734Y-84381926D01*
X133885774Y-84275781D01*
X133747261Y-84218265D01*
X133597281Y-84218135D01*
X133458668Y-84275408D01*
X133352523Y-84381368D01*
X133295007Y-84519881D01*
X133294877Y-84669861D01*
X132419059Y-84669861D01*
X132456931Y-84578656D01*
X132457061Y-84428676D01*
X132399788Y-84290063D01*
X132305940Y-84196051D01*
X132330717Y-84185813D01*
X132436862Y-84079853D01*
X132494378Y-83941340D01*
X132494508Y-83791360D01*
X132462967Y-83715023D01*
X132509566Y-83705754D01*
X132509439Y-83852651D01*
X132566712Y-83991264D01*
X132672672Y-84097409D01*
X132811185Y-84154925D01*
X132961165Y-84155055D01*
X133099778Y-84097782D01*
X133205923Y-83991822D01*
X133254572Y-83874661D01*
X134102935Y-83874661D01*
X134160208Y-84013274D01*
X134266168Y-84119419D01*
X134404681Y-84176935D01*
X134554661Y-84177065D01*
X134693274Y-84119792D01*
X134799419Y-84013832D01*
X134856935Y-83875319D01*
X134856935Y-83874661D01*
X142102935Y-83874661D01*
X142160208Y-84013274D01*
X142266168Y-84119419D01*
X142404681Y-84176935D01*
X142554661Y-84177065D01*
X142693274Y-84119792D01*
X142799419Y-84013832D01*
X142856935Y-83875319D01*
X142856935Y-83874661D01*
X142902935Y-83874661D01*
X142960208Y-84013274D01*
X143066168Y-84119419D01*
X143204681Y-84176935D01*
X143354661Y-84177065D01*
X143493274Y-84119792D01*
X143599419Y-84013832D01*
X143656935Y-83875319D01*
X143656935Y-83874661D01*
X143724945Y-83874661D01*
X143782218Y-84013274D01*
X143888178Y-84119419D01*
X144026691Y-84176935D01*
X144176671Y-84177065D01*
X144315284Y-84119792D01*
X144421429Y-84013832D01*
X144478945Y-83875319D01*
X144479075Y-83725339D01*
X144421802Y-83586726D01*
X144315842Y-83480581D01*
X144177329Y-83423065D01*
X144027349Y-83422935D01*
X143888736Y-83480208D01*
X143782591Y-83586168D01*
X143725075Y-83724681D01*
X143724945Y-83874661D01*
X143656935Y-83874661D01*
X143657065Y-83725339D01*
X143599792Y-83586726D01*
X143493832Y-83480581D01*
X143355319Y-83423065D01*
X143205339Y-83422935D01*
X143066726Y-83480208D01*
X142960581Y-83586168D01*
X142903065Y-83724681D01*
X142902935Y-83874661D01*
X142856935Y-83874661D01*
X142857065Y-83725339D01*
X142799792Y-83586726D01*
X142693832Y-83480581D01*
X142555319Y-83423065D01*
X142405339Y-83422935D01*
X142266726Y-83480208D01*
X142160581Y-83586168D01*
X142103065Y-83724681D01*
X142102935Y-83874661D01*
X134856935Y-83874661D01*
X134857065Y-83725339D01*
X134799792Y-83586726D01*
X134693832Y-83480581D01*
X134555319Y-83423065D01*
X134405339Y-83422935D01*
X134266726Y-83480208D01*
X134160581Y-83586168D01*
X134103065Y-83724681D01*
X134102935Y-83874661D01*
X133254572Y-83874661D01*
X133263439Y-83853309D01*
X133263569Y-83703329D01*
X133206296Y-83564716D01*
X133100336Y-83458571D01*
X132961823Y-83401055D01*
X132885687Y-83400989D01*
X132887659Y-83399017D01*
X132954661Y-83399075D01*
X133093274Y-83341802D01*
X133199419Y-83235842D01*
X133256935Y-83097329D01*
X133257065Y-82947349D01*
X133199792Y-82808736D01*
X133093832Y-82702591D01*
X132955319Y-82645075D01*
X132805339Y-82644945D01*
X132666726Y-82702218D01*
X132560581Y-82808178D01*
X132503065Y-82946691D01*
X132503006Y-83014338D01*
X132461792Y-83055552D01*
X132461886Y-82947349D01*
X132404613Y-82808736D01*
X132298653Y-82702591D01*
X132160140Y-82645075D01*
X132010160Y-82644945D01*
X131871547Y-82702218D01*
X131765402Y-82808178D01*
X131707886Y-82946691D01*
X131707756Y-83096671D01*
X131754089Y-83208806D01*
X131689927Y-83251678D01*
X129350271Y-85591334D01*
X129291309Y-85679577D01*
X129270604Y-85783667D01*
X129270604Y-86442347D01*
X129223185Y-86489683D01*
X129165669Y-86628196D01*
X129165539Y-86778176D01*
X128958489Y-86778176D01*
X128851974Y-86733947D01*
X128701994Y-86733817D01*
X128563381Y-86791090D01*
X128457236Y-86897050D01*
X128399720Y-87035563D01*
X128399590Y-87185543D01*
X127330000Y-87185543D01*
X127330000Y-84960968D01*
X127562994Y-84960968D01*
X127610330Y-85008387D01*
X127748843Y-85065903D01*
X127898823Y-85066033D01*
X128037436Y-85008760D01*
X128112650Y-84933677D01*
X128112643Y-84942038D01*
X128169916Y-85080651D01*
X128275876Y-85186796D01*
X128414389Y-85244312D01*
X128564369Y-85244442D01*
X128702982Y-85187169D01*
X128809127Y-85081209D01*
X128866643Y-84942696D01*
X128866773Y-84792716D01*
X128809500Y-84654103D01*
X128703540Y-84547958D01*
X128613330Y-84510499D01*
X128633218Y-84462604D01*
X128633275Y-84397212D01*
X128744262Y-84397308D01*
X128882875Y-84340035D01*
X128989020Y-84234075D01*
X129038926Y-84113888D01*
X129134901Y-84132979D01*
X129252763Y-84132979D01*
X129300099Y-84180398D01*
X129438612Y-84237914D01*
X129588592Y-84238044D01*
X129727205Y-84180771D01*
X129833350Y-84074811D01*
X129890866Y-83936298D01*
X129890996Y-83786318D01*
X129833723Y-83647705D01*
X129727763Y-83541560D01*
X129589250Y-83484044D01*
X129439270Y-83483914D01*
X129300657Y-83541187D01*
X129252782Y-83588979D01*
X129247567Y-83588979D01*
X129161780Y-83503192D01*
X129162122Y-83503050D01*
X129268267Y-83397090D01*
X129325783Y-83258577D01*
X129325913Y-83108597D01*
X129268640Y-82969984D01*
X129254587Y-82955906D01*
X129336165Y-82874470D01*
X129393681Y-82735957D01*
X129393811Y-82585977D01*
X129336538Y-82447364D01*
X129230578Y-82341219D01*
X129092065Y-82283703D01*
X129024418Y-82283644D01*
X129009080Y-82268306D01*
X128985651Y-82252651D01*
X131702935Y-82252651D01*
X131760208Y-82391264D01*
X131866168Y-82497409D01*
X132004681Y-82554925D01*
X132154661Y-82555055D01*
X132293274Y-82497782D01*
X132399419Y-82391822D01*
X132456935Y-82253309D01*
X132457065Y-82103329D01*
X132399792Y-81964716D01*
X132293832Y-81858571D01*
X132155319Y-81801055D01*
X132005339Y-81800925D01*
X131866726Y-81858198D01*
X131760581Y-81964158D01*
X131703065Y-82102671D01*
X131702935Y-82252651D01*
X128985651Y-82252651D01*
X128920837Y-82209344D01*
X128816747Y-82188639D01*
X127330000Y-82188639D01*
X127330000Y-81000598D01*
X128240149Y-81000598D01*
X128344239Y-80979893D01*
X128432482Y-80920931D01*
X128901019Y-80452394D01*
X129819756Y-80452394D01*
X129877029Y-80591007D01*
X129982989Y-80697152D01*
X130121502Y-80754668D01*
X130271482Y-80754798D01*
X130410095Y-80697525D01*
X130516240Y-80591565D01*
X130523259Y-80574661D01*
X130802935Y-80574661D01*
X130860208Y-80713274D01*
X130966168Y-80819419D01*
X131104681Y-80876935D01*
X131254661Y-80877065D01*
X131393274Y-80819792D01*
X131499419Y-80713832D01*
X131556935Y-80575319D01*
X131557065Y-80425339D01*
X131499792Y-80286726D01*
X131393832Y-80180581D01*
X131255319Y-80123065D01*
X131105339Y-80122935D01*
X130966726Y-80180208D01*
X130860581Y-80286168D01*
X130803065Y-80424681D01*
X130802935Y-80574661D01*
X130523259Y-80574661D01*
X130573756Y-80453052D01*
X130573886Y-80303072D01*
X130516613Y-80164459D01*
X130410653Y-80058314D01*
X130272140Y-80000798D01*
X130122160Y-80000668D01*
X129983547Y-80057941D01*
X129877402Y-80163901D01*
X129819886Y-80302414D01*
X129819756Y-80452394D01*
X128901019Y-80452394D01*
X129688866Y-79664547D01*
X131470245Y-79664547D01*
X131527518Y-79803160D01*
X131633478Y-79909305D01*
X131771991Y-79966821D01*
X131921971Y-79966951D01*
X132060584Y-79909678D01*
X132166729Y-79803718D01*
X132224245Y-79665205D01*
X132224375Y-79515225D01*
X132167102Y-79376612D01*
X132061142Y-79270467D01*
X131922629Y-79212951D01*
X131772649Y-79212821D01*
X131634036Y-79270094D01*
X131527891Y-79376054D01*
X131470375Y-79514567D01*
X131470245Y-79664547D01*
X129688866Y-79664547D01*
X130335538Y-79017875D01*
X131448158Y-79017875D01*
X131495494Y-79065294D01*
X131634007Y-79122810D01*
X131783987Y-79122940D01*
X131922600Y-79065667D01*
X132028745Y-78959707D01*
X132086261Y-78821194D01*
X132086391Y-78671214D01*
X132029118Y-78532601D01*
X131923158Y-78426456D01*
X131784645Y-78368940D01*
X131634665Y-78368810D01*
X131496052Y-78426083D01*
X131448177Y-78473875D01*
X131346795Y-78473875D01*
X131444184Y-78433635D01*
X131550329Y-78327675D01*
X131607845Y-78189162D01*
X131607975Y-78039182D01*
X131550702Y-77900569D01*
X131444742Y-77794424D01*
X131306229Y-77736908D01*
X131233833Y-77736845D01*
X131233893Y-77667962D01*
X131176620Y-77529349D01*
X131070660Y-77423204D01*
X130932147Y-77365688D01*
X130782167Y-77365558D01*
X130643554Y-77422831D01*
X130537409Y-77528791D01*
X130479893Y-77667304D01*
X130479763Y-77817284D01*
X130537036Y-77955897D01*
X130622831Y-78041842D01*
X130206584Y-78041842D01*
X130102494Y-78062547D01*
X130014251Y-78121509D01*
X128787897Y-79347863D01*
X128787897Y-79255344D01*
X128835316Y-79208008D01*
X128892832Y-79069495D01*
X128892962Y-78919515D01*
X128835689Y-78780902D01*
X128813796Y-78758971D01*
X128889146Y-78683753D01*
X128946662Y-78545240D01*
X128946792Y-78395260D01*
X128889519Y-78256647D01*
X128783559Y-78150502D01*
X128645046Y-78092986D01*
X128495066Y-78092856D01*
X128356453Y-78150129D01*
X128308578Y-78197921D01*
X128286885Y-78197921D01*
X128182795Y-78218626D01*
X128094552Y-78277588D01*
X127888247Y-78483893D01*
X127829285Y-78572136D01*
X127808580Y-78676226D01*
X127808580Y-79015836D01*
X127718977Y-78978629D01*
X127568997Y-78978499D01*
X127430384Y-79035772D01*
X127382509Y-79083564D01*
X127330000Y-79083564D01*
X127330000Y-78251456D01*
X127832879Y-77748577D01*
X128284398Y-77748577D01*
X128331734Y-77795996D01*
X128470247Y-77853512D01*
X128620227Y-77853642D01*
X128758840Y-77796369D01*
X128864985Y-77690409D01*
X128922501Y-77551896D01*
X128922631Y-77401916D01*
X128870281Y-77275218D01*
X131699846Y-77275218D01*
X131603876Y-77371021D01*
X131546360Y-77509534D01*
X131546230Y-77659514D01*
X131603503Y-77798127D01*
X131709463Y-77904272D01*
X131847976Y-77961788D01*
X131997956Y-77961918D01*
X132136569Y-77904645D01*
X132242714Y-77798685D01*
X132300230Y-77660172D01*
X132300360Y-77510192D01*
X132243087Y-77371579D01*
X132146894Y-77275218D01*
X132159137Y-77275218D01*
X132282461Y-77398542D01*
X132372326Y-77458588D01*
X132478330Y-77479674D01*
X132478335Y-77479673D01*
X132504995Y-77479673D01*
X132547340Y-77522092D01*
X132685853Y-77579608D01*
X132835833Y-77579738D01*
X132911182Y-77548605D01*
X132911182Y-78188707D01*
X132931887Y-78292797D01*
X132933333Y-78294961D01*
X132933333Y-81054069D01*
X132858651Y-81023058D01*
X132708671Y-81022928D01*
X132570058Y-81080201D01*
X132463913Y-81186161D01*
X132431656Y-81263844D01*
X132399792Y-81186726D01*
X132293832Y-81080581D01*
X132155319Y-81023065D01*
X132005339Y-81022935D01*
X131866726Y-81080208D01*
X131760581Y-81186168D01*
X131703065Y-81324681D01*
X131702935Y-81474661D01*
X131760208Y-81613274D01*
X131866168Y-81719419D01*
X132004681Y-81776935D01*
X132154661Y-81777065D01*
X132293274Y-81719792D01*
X132399419Y-81613832D01*
X132431676Y-81536149D01*
X132463540Y-81613267D01*
X132569500Y-81719412D01*
X132708013Y-81776928D01*
X132857993Y-81777058D01*
X132960348Y-81734766D01*
X132960348Y-82380551D01*
X132981053Y-82484641D01*
X133040015Y-82572884D01*
X133681474Y-83214343D01*
X133769717Y-83273305D01*
X133873807Y-83294010D01*
X135018832Y-83294010D01*
X135066168Y-83341429D01*
X135204681Y-83398945D01*
X135354661Y-83399075D01*
X135493274Y-83341802D01*
X135599419Y-83235842D01*
X135656935Y-83097329D01*
X135657053Y-82961719D01*
X135702993Y-83007659D01*
X135702935Y-83074661D01*
X135760208Y-83213274D01*
X135866168Y-83319419D01*
X136004681Y-83376935D01*
X136154661Y-83377065D01*
X136293274Y-83319792D01*
X136399419Y-83213832D01*
X136440016Y-83116064D01*
X140486964Y-83116064D01*
X140544237Y-83254677D01*
X140650197Y-83360822D01*
X140788710Y-83418338D01*
X140938690Y-83418468D01*
X141077303Y-83361195D01*
X141183448Y-83255235D01*
X141240964Y-83116722D01*
X141241001Y-83073574D01*
X142096484Y-83073574D01*
X142153757Y-83212187D01*
X142259717Y-83318332D01*
X142398230Y-83375848D01*
X142548210Y-83375978D01*
X142686823Y-83318705D01*
X142792968Y-83212745D01*
X142850484Y-83074232D01*
X142850614Y-82924252D01*
X142793341Y-82785639D01*
X142687381Y-82679494D01*
X142548868Y-82621978D01*
X142398888Y-82621848D01*
X142260275Y-82679121D01*
X142154130Y-82785081D01*
X142096614Y-82923594D01*
X142096484Y-83073574D01*
X141241001Y-83073574D01*
X141241094Y-82966742D01*
X141183821Y-82828129D01*
X141077861Y-82721984D01*
X140939348Y-82664468D01*
X140789368Y-82664338D01*
X140650755Y-82721611D01*
X140544610Y-82827571D01*
X140487094Y-82966084D01*
X140486964Y-83116064D01*
X136440016Y-83116064D01*
X136456935Y-83075319D01*
X136457065Y-82925339D01*
X136399792Y-82786726D01*
X136293832Y-82680581D01*
X136155319Y-82623065D01*
X136087672Y-82623006D01*
X136041633Y-82576967D01*
X136154661Y-82577065D01*
X136293274Y-82519792D01*
X136399419Y-82413832D01*
X136456935Y-82275319D01*
X136457065Y-82125339D01*
X136399792Y-81986726D01*
X136293832Y-81880581D01*
X136155319Y-81823065D01*
X136005339Y-81822935D01*
X135866726Y-81880208D01*
X135760581Y-81986168D01*
X135717467Y-82089997D01*
X135665217Y-81963540D01*
X135568072Y-81866226D01*
X135642097Y-81866290D01*
X135780710Y-81809017D01*
X135886855Y-81703057D01*
X135941287Y-81571970D01*
X136034379Y-81571970D01*
X136091652Y-81710583D01*
X136197612Y-81816728D01*
X136336125Y-81874244D01*
X136486105Y-81874374D01*
X136624718Y-81817101D01*
X136730863Y-81711141D01*
X136788379Y-81572628D01*
X136788509Y-81422648D01*
X136731236Y-81284035D01*
X136625276Y-81177890D01*
X136486763Y-81120374D01*
X136336783Y-81120244D01*
X136198170Y-81177517D01*
X136092025Y-81283477D01*
X136034509Y-81421990D01*
X136034379Y-81571970D01*
X135941287Y-81571970D01*
X135944371Y-81564544D01*
X135944501Y-81414564D01*
X135887228Y-81275951D01*
X135781268Y-81169806D01*
X135642755Y-81112290D01*
X135492775Y-81112160D01*
X135417426Y-81143293D01*
X135417426Y-78265426D01*
X135396721Y-78161336D01*
X135337759Y-78073093D01*
X134822709Y-77558043D01*
X134915284Y-77519792D01*
X135021429Y-77413832D01*
X135058614Y-77324281D01*
X135390539Y-77656206D01*
X135390481Y-77723208D01*
X135447754Y-77861821D01*
X135553714Y-77967966D01*
X135692227Y-78025482D01*
X135842207Y-78025612D01*
X135980699Y-77968389D01*
X135980699Y-78070253D01*
X136001404Y-78174343D01*
X136060366Y-78262586D01*
X136257111Y-78459331D01*
X136257053Y-78526333D01*
X136314326Y-78664946D01*
X136420286Y-78771091D01*
X136558799Y-78828607D01*
X136708779Y-78828737D01*
X136847392Y-78771464D01*
X136953537Y-78665504D01*
X137011053Y-78526991D01*
X137011183Y-78377011D01*
X136953910Y-78238398D01*
X136847950Y-78132253D01*
X136709437Y-78074737D01*
X136641790Y-78074678D01*
X136524699Y-77957587D01*
X136524699Y-77543775D01*
X136551561Y-77570637D01*
X136551503Y-77637639D01*
X136608776Y-77776252D01*
X136714736Y-77882397D01*
X136853249Y-77939913D01*
X137003229Y-77940043D01*
X137141842Y-77882770D01*
X137247987Y-77776810D01*
X137305503Y-77638297D01*
X137305633Y-77488317D01*
X137248360Y-77349704D01*
X137233000Y-77334318D01*
X137329290Y-77294532D01*
X137435435Y-77188572D01*
X137492951Y-77050059D01*
X137493081Y-76900079D01*
X137487879Y-76887489D01*
X137612687Y-76887597D01*
X137688027Y-76856468D01*
X137688027Y-81007307D01*
X137672341Y-81022993D01*
X137605339Y-81022935D01*
X137466726Y-81080208D01*
X137360581Y-81186168D01*
X137303065Y-81324681D01*
X137302935Y-81474661D01*
X137360208Y-81613274D01*
X137466168Y-81719419D01*
X137604681Y-81776935D01*
X137754661Y-81777065D01*
X137893274Y-81719792D01*
X137999419Y-81613832D01*
X138056935Y-81475319D01*
X138056994Y-81407672D01*
X138152360Y-81312306D01*
X138163787Y-81295204D01*
X138211322Y-81224063D01*
X138232027Y-81119973D01*
X138232027Y-76650000D01*
X138407166Y-76650000D01*
X138502273Y-76745273D01*
M02*
