M48
INCH,TZ
T1C0.008
T2C0.010
T3C0.012
T4C0.016
T5C0.020
T6C0.031
T7C0.040
T8C0.126
T9C0.067
%
G90
G05
T1
X39402Y-41024
X39547Y-39781
X41353Y-34107
X41564Y-40024
X41586Y-40674
X41659Y-40480
X41691Y-40853
X41729Y-41057
X41767Y-41328
X41843Y-40116
X41877Y-38430
X42024Y-38597
X43239Y-28673
X43405Y-36824
X43431Y-29284
X43497Y-28431
X43590Y-37186
X44297Y-32681
X44297Y-33931
X44520Y-34961
X44572Y-26868
X44897Y-28481
X44947Y-29231
X45563Y-38777
X45927Y-31015
X46854Y-37663
X47247Y-26381
X47573Y-30228
X47654Y-35876
X47719Y-35340
X47796Y-35532
X48830Y-34389
X48830Y-34389
X48899Y-42208
X49047Y-39431
X49111Y-41533
X49278Y-36552
X49289Y-27227
X49409Y-36713
X49953Y-35542
X50016Y-34835
X50141Y-40995
X50259Y-42448
X50350Y-31656
X50443Y-30801
X50454Y-30410
X50459Y-32885
X50466Y-33221
X50474Y-33428
X50493Y-35261
X50504Y-40630
X50531Y-29824
X50558Y-31653
X50626Y-30667
X50634Y-33099
X50648Y-30335
X50679Y-33461
X50699Y-34305
X50711Y-40624
X50740Y-36264
X50765Y-31653
X50789Y-39439
X50809Y-32748
X50830Y-32541
X50837Y-29652
X50865Y-36697
X50887Y-29190
X50964Y-35404
X50968Y-31608
X50976Y-36221
X50978Y-33103
X50982Y-29818
X51047Y-39431
X51176Y-36111
X51249Y-36828
X51262Y-32913
X51300Y-36496
X51374Y-31562
X51454Y-39681
X51481Y-26425
X51499Y-37580
X51512Y-40654
X51518Y-30625
X51674Y-30762
X51683Y-31731
X51684Y-33942
X51685Y-35200
X51753Y-40654
X51854Y-31002
X51893Y-37885
X51908Y-31335
X51938Y-30545
X51993Y-33281
X51997Y-33613
X51998Y-35201
X51999Y-35818
X52000Y-32671
X52000Y-32047
X52000Y-34252
X52000Y-36457
X52000Y-36772
X52000Y-37087
X52000Y-32324
X52001Y-35516
X52001Y-33961
X52001Y-33003
X52002Y-34865
X52026Y-43284
X52033Y-41805
X52043Y-43077
X52079Y-42835
X52145Y-41336
X52259Y-30187
X52268Y-30395
X52277Y-32047
X52297Y-33613
X52302Y-37085
X52308Y-32332
X52312Y-33281
X52312Y-32665
X52315Y-34882
X52315Y-35827
X52315Y-36142
X52315Y-36457
X52315Y-36772
X52315Y-33031
X52337Y-41220
X52447Y-42309
X52609Y-32053
X52617Y-32359
X52627Y-33305
X52630Y-32677
X52630Y-32992
X52630Y-33622
X52630Y-36142
X52630Y-36457
X52632Y-36773
X52663Y-37951
X52698Y-37746
X52733Y-30701
X52787Y-26294
X52935Y-37113
X52939Y-42851
X52941Y-32050
X52944Y-32354
X52945Y-32992
X52945Y-35827
X52997Y-31031
X53007Y-43197
X53022Y-42571
X53034Y-41539
X53051Y-42051
X53054Y-30366
X53257Y-34889
X53260Y-32686
X53260Y-33937
X53260Y-36457
X53260Y-30497
X53260Y-31726
X53262Y-37396
X53263Y-37097
X53274Y-32044
X53276Y-32361
X53408Y-43548
X53477Y-30000
X53575Y-32362
X53575Y-32677
X53577Y-35195
X53581Y-36760
X53581Y-32045
X53835Y-38392
X53882Y-30532
X53890Y-36457
X53892Y-35510
X53906Y-30747
X53979Y-30307
X54053Y-38401
X54059Y-30085
X54196Y-36078
X54205Y-32047
X54205Y-34882
X54205Y-36772
X54205Y-33281
X54208Y-35481
X54559Y-30000
X54637Y-29685
X54738Y-30725
X54743Y-30517
X54832Y-33312
X54835Y-32047
X54835Y-35481
X54835Y-36772
X54952Y-30790
X55047Y-27034
X55130Y-32362
X55132Y-32047
X55155Y-35481
X55447Y-33281
X55458Y-32693
X55462Y-35997
X55463Y-32353
X55465Y-32047
X55465Y-33622
X55465Y-34567
X55465Y-35197
X55465Y-36772
X55504Y-29796
X55530Y-29478
X55622Y-38425
X55647Y-30140
X55773Y-32365
X55780Y-33622
X55780Y-33937
X55780Y-34882
X55780Y-36457
X56061Y-30517
X56078Y-32355
X56085Y-32050
X56092Y-32677
X56094Y-32992
X56094Y-35827
X56094Y-37087
X56094Y-37402
X56237Y-31017
X56264Y-30794
X56401Y-32677
X56405Y-36778
X56409Y-34880
X56409Y-32992
X56409Y-34252
X56409Y-35827
X56409Y-36142
X56410Y-32365
X56410Y-35513
X56418Y-32038
X56555Y-25143
X56718Y-36172
X56723Y-35195
X56723Y-35538
X56724Y-33937
X56724Y-35827
X56726Y-34876
X56733Y-32677
X56733Y-33621
X56734Y-32983
X56734Y-33316
X56737Y-36452
X56742Y-32357
X56750Y-32042
X57007Y-30144
X57034Y-35524
X57035Y-33611
X57037Y-33016
X57037Y-33944
X57038Y-32019
X57038Y-34891
X57040Y-36448
X57043Y-32351
X57044Y-35856
X57044Y-35191
X57045Y-34243
X57053Y-33307
X57054Y-32684
X57072Y-31195
X57093Y-29367
X57351Y-33620
X57354Y-32047
X57354Y-37078
X57362Y-35856
X57415Y-31180
X57512Y-29921
X57512Y-30333
X57670Y-31425
X57787Y-30127
X57813Y-40729
X57947Y-28031
X57956Y-35422
X58145Y-33501
X58148Y-34401
X58190Y-31857
X58239Y-37531
X58261Y-28089
X58268Y-32661
X58375Y-30621
X58385Y-31787
X58456Y-27409
X58508Y-32244
X58539Y-34401
X58551Y-31912
X58562Y-37665
X58614Y-32780
X58714Y-24970
X58773Y-37550
X58849Y-27409
X58866Y-34069
X58878Y-31838
X58965Y-32215
X58975Y-37500
X58995Y-32009
X59067Y-28083
X59165Y-37417
X59191Y-37212
X59405Y-37139
X59802Y-40752
X60038Y-31179
X60353Y-27011
X60651Y-27284
X60760Y-25450
X60943Y-28514
X61082Y-28254
X62487Y-42254
X64282Y-38780
X64531Y-28209
X64738Y-25093
X65098Y-38355
X65622Y-27875
X66207Y-31145
X66735Y-42501
X66991Y-41601
X67001Y-27390
X67047Y-26831
X67051Y-33638
X67072Y-42239
X67219Y-29317
X67303Y-26821
X67536Y-39624
X67793Y-39805
X67939Y-34536
X68010Y-29271
X68016Y-40020
X68045Y-39213
X68063Y-38826
X68165Y-34486
X69093Y-28133
X69412Y-40661
X69793Y-41370
X69797Y-37681
X70050Y-35359
X70611Y-34988
X70920Y-30342
X71919Y-43952
T2
X47235Y-37564
X47494Y-37393
X52539Y-40249
X52785Y-40454
X53575Y-33307
X53575Y-33622
X53587Y-34250
X54205Y-34252
X54829Y-36069
X54835Y-34252
X54835Y-34882
X55529Y-34250
X57820Y-38038
X58014Y-36701
X58084Y-37761
X58234Y-36639
T3
X40437Y-38817
X41047Y-39681
X60889Y-32072
X60899Y-37053
X61448Y-37137
X61521Y-32027
X62472Y-31973
X63413Y-31975
X64339Y-31937
X64859Y-31941
T4
X43541Y-42770
T5
X40131Y-32514
X41897Y-26895
X42116Y-25572
X43697Y-35181
X46016Y-25513
X47977Y-41350
X58347Y-31212
X59747Y-39281
X61510Y-26200
X62047Y-24781
X62297Y-37307
X63340Y-37399
X64170Y-37331
X64824Y-37333
X65125Y-25573
X65452Y-31263
X65465Y-37323
X65490Y-30503
X68980Y-25570
X69478Y-37035
X69776Y-32394
T7
X37547Y-24681
X37547Y-25681
X37547Y-26681
X37547Y-27681
X37547Y-28681
X37547Y-29681
X37547Y-30681
X37547Y-31681
X37547Y-32681
X37547Y-33681
X37547Y-34681
X37547Y-35681
X37547Y-36681
X37547Y-37681
X37547Y-38681
X37547Y-39681
X37547Y-40681
X37547Y-41681
X37547Y-42681
X37547Y-43681
X38547Y-24681
X38547Y-25681
X38547Y-26681
X38547Y-27681
X38547Y-28681
X38547Y-29681
X38547Y-30681
X38547Y-31681
X38547Y-32681
X38547Y-33681
X38547Y-34681
X38547Y-35681
X38547Y-36681
X38547Y-37681
X38547Y-38681
X38547Y-39681
X38547Y-40681
X38547Y-41681
X38547Y-42681
X38547Y-43681
X40047Y-37581
X41047Y-37581
X52047Y-39681
X53047Y-39681
X54047Y-39681
X54297Y-41181
X54297Y-42181
X54297Y-43181
X55047Y-39681
X55297Y-41181
X55297Y-42181
X55297Y-43181
X56047Y-39681
X57047Y-39681
X58047Y-39681
X72547Y-24681
X72547Y-25681
X72547Y-26681
X72547Y-27681
X72547Y-28681
X72547Y-29681
X72547Y-30681
X72547Y-31681
X72547Y-32681
X72547Y-33681
X72547Y-34681
X72547Y-35681
X72547Y-36681
X72547Y-37681
X72547Y-38681
X72547Y-39681
X72547Y-40681
X72547Y-41681
X72547Y-42681
X72547Y-43681
X73547Y-24681
X73547Y-25681
X73547Y-26681
X73547Y-27681
X73547Y-28681
X73547Y-29681
X73547Y-30681
X73547Y-31681
X73547Y-32681
X73547Y-33681
X73547Y-34681
X73547Y-35681
X73547Y-36681
X73547Y-37681
X73547Y-38681
X73547Y-39681
X73547Y-40681
X73547Y-41681
X73547Y-42681
X73547Y-43681
T8
X40547Y-25681
X40547Y-42681
X70547Y-25681
X70547Y-42681
T9
X49047Y-26197
X49047Y-28953
T6
X54205Y-25591G85X54205Y-25984
G05
X54205Y-27894G85X54205Y-28445
G05
X59953Y-25591G85X59953Y-25984
G05
X59953Y-27894G85X59953Y-28445
G05
T0
M30
