M48
;DRILL file {KiCad 4.0.5+dfsg1-4} date Tue May 23 22:35:57 2017
;FORMAT={-:-/ absolute / inch / decimal}
FMAT,2
INCH,TZ
T1C0.008
T2C0.010
T3C0.012
T4C0.020
T5C0.031
T6C0.040
T7C0.126
T8C0.067
%
G90
G05
M72
T1
X3.9402Y-4.1024
X4.0012Y-3.0181
X4.1521Y-3.4442
X4.1764Y-4.0945
X4.3037Y-3.0681
X4.3417Y-4.1339
X4.3516Y-4.3213
X4.3791Y-2.7175
X4.4047Y-2.7181
X4.4297Y-3.2681
X4.4297Y-3.3931
X4.4463Y-3.9112
X4.452Y-3.4961
X4.5921Y-3.1043
X4.6111Y-3.8511
X4.6358Y-2.7181
X4.6776Y-2.4709
X4.6789Y-3.7598
X4.7413Y-3.8209
X4.7547Y-2.8431
X4.7591Y-3.5827
X4.7799Y-3.5682
X4.8899Y-4.2208
X4.8919Y-4.1725
X4.9538Y-3.6792
X5.0253Y-3.1242
X5.0321Y-3.4769
X5.0373Y-3.3554
X5.0442Y-3.3322
X5.0452Y-3.2979
X5.0567Y-3.9683
X5.0587Y-3.515
X5.0597Y-3.11
X5.0618Y-3.0894
X5.0628Y-3.0464
X5.0631Y-4.0895
X5.0634Y-4.1226
X5.0648Y-3.3158
X5.0655Y-3.3491
X5.0686Y-3.6114
X5.0693Y-3.2563
X5.0733Y-3.2779
X5.0825Y-3.4271
X5.0897Y-3.6699
X5.0908Y-3.6116
X5.0919Y-3.5229
X5.0984Y-3.2983
X5.1023Y-3.4112
X5.1117Y-3.6433
X5.1119Y-3.6019
X5.123Y-3.6777
X5.1249Y-3.1653
X5.1499Y-3.758
X5.1512Y-4.0691
X5.1541Y-4.0342
X5.1543Y-3.0607
X5.1546Y-2.6425
X5.159Y-3.8381
X5.1646Y-3.1693
X5.1675Y-3.3957
X5.1685Y-3.5197
X5.1753Y-4.0668
X5.1797Y-3.0626
X5.1921Y-3.1181
X5.1999Y-3.5818
X5.1999Y-3.3943
X5.2Y-3.3611
X5.2Y-3.3269
X5.2Y-3.2047
X5.2Y-3.2354
X5.2Y-3.4252
X5.2Y-3.5214
X5.2Y-3.6457
X5.2Y-3.6772
X5.2Y-3.7087
X5.2002Y-3.2668
X5.2015Y-3.3018
X5.2028Y-4.3263
X5.2051Y-3.0857
X5.2079Y-4.2835
X5.2125Y-3.04
X5.2181Y-4.1496
X5.2194Y-3.7946
X5.2227Y-4.1723
X5.2263Y-4.3079
X5.2265Y-3.8653
X5.2302Y-3.7085
X5.2306Y-3.2044
X5.2313Y-3.3631
X5.2315Y-3.2362
X5.2315Y-3.2677
X5.2315Y-3.4882
X5.2315Y-3.5827
X5.2315Y-3.6142
X5.2315Y-3.6457
X5.2315Y-3.6772
X5.2315Y-3.3293
X5.2318Y-3.2983
X5.233Y-4.126
X5.2398Y-3.0192
X5.2424Y-4.2457
X5.2447Y-4.3281
X5.2596Y-3.0131
X5.2627Y-3.3305
X5.263Y-3.2362
X5.263Y-3.6142
X5.263Y-3.6457
X5.2632Y-3.6773
X5.2634Y-3.7079
X5.2639Y-3.2047
X5.2709Y-2.4961
X5.2724Y-3.7811
X5.288Y-3.0537
X5.2945Y-3.2362
X5.2945Y-3.2992
X5.2945Y-3.5827
X5.2971Y-3.2044
X5.3183Y-3.8398
X5.3212Y-3.0513
X5.3247Y-4.1581
X5.3257Y-3.4889
X5.3258Y-3.2044
X5.326Y-3.1732
X5.326Y-3.3937
X5.326Y-3.6457
X5.326Y-3.7087
X5.326Y-3.7402
X5.3335Y-4.3057
X5.3336Y-3.0295
X5.3417Y-4.1354
X5.3417Y-4.3386
X5.3453Y-3.8322
X5.3486Y-4.2832
X5.3486Y-4.2529
X5.3498Y-4.2006
X5.3575Y-3.2047
X5.3575Y-3.6772
X5.3577Y-3.5195
X5.3583Y-3.0814
X5.361Y-3.0524
X5.3797Y-3.0358
X5.389Y-3.6457
X5.3892Y-3.551
X5.3946Y-3.0214
X5.4051Y-3.8401
X5.4169Y-2.9911
X5.4199Y-3.5985
X5.4205Y-3.2047
X5.4205Y-3.5501
X5.4205Y-3.6772
X5.4205Y-3.3281
X5.4294Y-3.0149
X5.4419Y-3.038
X5.4518Y-3.0755
X5.4668Y-3.0945
X5.4756Y-2.7402
X5.4832Y-3.3312
X5.4835Y-3.2047
X5.4835Y-3.5481
X5.4835Y-3.6772
X5.5047Y-2.6681
X5.5132Y-3.2047
X5.515Y-3.2362
X5.5155Y-3.5481
X5.5458Y-3.2693
X5.5462Y-3.5997
X5.5465Y-3.2047
X5.5465Y-3.3622
X5.5465Y-3.4567
X5.5465Y-3.5197
X5.5465Y-3.6772
X5.5482Y-3.2354
X5.553Y-2.9478
X5.5622Y-3.8425
X5.5642Y-2.9691
X5.5709Y-3.0176
X5.5771Y-3.2335
X5.578Y-3.3622
X5.578Y-3.3937
X5.578Y-3.4882
X5.5835Y-3.0885
X5.5903Y-2.8369
X5.6086Y-3.204
X5.6086Y-3.2359
X5.6092Y-3.2677
X5.6094Y-3.2992
X5.6094Y-3.5827
X5.6094Y-3.7087
X5.6307Y-3.1094
X5.6334Y-3.0856
X5.6409Y-3.488
X5.6409Y-3.5827
X5.641Y-3.5513
X5.6418Y-3.204
X5.6418Y-3.236
X5.6426Y-3.0645
X5.649Y-2.8358
X5.6567Y-2.5157
X5.6707Y-3.5196
X5.6723Y-3.2357
X5.6724Y-3.2677
X5.6724Y-3.2992
X5.6724Y-3.3307
X5.6724Y-3.6457
X5.6725Y-3.3621
X5.6725Y-3.5485
X5.6726Y-3.4876
X5.675Y-3.2037
X5.7034Y-3.2021
X5.7035Y-3.5153
X5.7038Y-3.4891
X5.7038Y-3.3281
X5.704Y-3.6448
X5.704Y-3.6172
X5.7041Y-3.2354
X5.7041Y-3.5835
X5.7042Y-3.5485
X5.7042Y-3.3616
X5.7043Y-3.425
X5.7043Y-3.3018
X5.7045Y-3.2686
X5.7048Y-3.3964
X5.7085Y-2.8364
X5.7155Y-2.9361
X5.7281Y-2.9943
X5.7354Y-3.2047
X5.7354Y-3.3631
X5.7354Y-3.5827
X5.7354Y-3.7087
X5.7633Y-3.0677
X5.766Y-2.9736
X5.7666Y-2.8393
X5.7813Y-4.0729
X5.7924Y-3.5355
X5.804Y-3.3409
X5.8059Y-3.4774
X5.8063Y-3.0639
X5.8226Y-3.2809
X5.8263Y-2.8365
X5.8267Y-3.4774
X5.8297Y-3.7492
X5.8401Y-3.188
X5.852Y-3.0364
X5.8531Y-3.3288
X5.8636Y-3.185
X5.8652Y-3.2581
X5.8658Y-2.8383
X5.8743Y-3.764
X5.9087Y-3.2126
X5.9235Y-2.8217
X5.9802Y-4.0752
X6.1213Y-2.8378
X6.2547Y-4.2681
X6.3297Y-2.7181
X6.3732Y-3.8504
X6.4422Y-2.8384
X6.5228Y-3.811
X6.5857Y-3.3716
X6.6267Y-2.7119
X6.6547Y-3.0431
X6.7297Y-2.8181
X6.8378Y-2.4646
X6.8547Y-4.2681
X7.1285Y-3.1018
X7.1547Y-3.6437
T2
X4.7235Y-3.7564
X4.7494Y-3.7393
X5.2539Y-4.0249
X5.2785Y-4.0454
X5.3575Y-3.3307
X5.3575Y-3.3622
X5.3587Y-3.425
X5.4205Y-3.4252
X5.4797Y-2.8889
X5.4835Y-3.4252
X5.4835Y-3.4882
X5.4847Y-3.5968
X5.5523Y-2.8894
X5.5529Y-3.425
X5.6211Y-2.9897
X5.6546Y-2.9733
X5.7422Y-2.5665
X5.7431Y-2.5166
X5.7929Y-3.7929
X5.8032Y-3.6696
X5.8084Y-3.7761
X5.8261Y-3.669
X5.8311Y-3.6914
X5.8525Y-3.7496
X5.8905Y-3.7157
X5.8968Y-3.738
X5.9083Y-3.7577
X5.9133Y-3.78
X5.9259Y-3.7991
X5.9408Y-3.823
X5.9617Y-3.8025
T3
X6.0916Y-3.7075
X6.1448Y-3.7158
X6.1528Y-3.1973
X6.2472Y-3.1973
X6.3413Y-3.1975
X6.4339Y-3.1937
X6.4983Y-3.1934
X6.8277Y-3.5857
T4
X3.9559Y-3.6639
X4.0446Y-3.2869
X4.355Y-3.5152
X5.8941Y-3.0429
X6.0087Y-3.8787
X6.2297Y-3.7344
X6.2787Y-2.5433
X6.335Y-3.7343
X6.417Y-3.7331
X6.4824Y-3.7333
X6.5219Y-3.0246
X6.5431Y-3.1255
X6.5465Y-3.7323
X6.7595Y-4.0474
X6.9344Y-3.738
X6.98Y-3.2369
T6
X3.7547Y-2.4681
X3.7547Y-2.5681
X3.7547Y-2.6681
X3.7547Y-2.7681
X3.7547Y-2.8681
X3.7547Y-2.9681
X3.7547Y-3.0681
X3.7547Y-3.1681
X3.7547Y-3.2681
X3.7547Y-3.3681
X3.7547Y-3.4681
X3.7547Y-3.5681
X3.7547Y-3.6681
X3.7547Y-3.7681
X3.7547Y-3.8681
X3.7547Y-3.9681
X3.7547Y-4.0681
X3.7547Y-4.1681
X3.7547Y-4.2681
X3.7547Y-4.3681
X3.8547Y-2.4681
X3.8547Y-2.5681
X3.8547Y-2.6681
X3.8547Y-2.7681
X3.8547Y-2.8681
X3.8547Y-2.9681
X3.8547Y-3.0681
X3.8547Y-3.1681
X3.8547Y-3.2681
X3.8547Y-3.3681
X3.8547Y-3.4681
X3.8547Y-3.5681
X3.8547Y-3.6681
X3.8547Y-3.7681
X3.8547Y-3.8681
X3.8547Y-3.9681
X3.8547Y-4.0681
X3.8547Y-4.1681
X3.8547Y-4.2681
X3.8547Y-4.3681
X4.0047Y-3.9181
X4.1047Y-3.9181
X5.2047Y-3.9681
X5.3047Y-3.9681
X5.4047Y-3.9681
X5.5047Y-3.9681
X5.5047Y-4.1181
X5.5047Y-4.2181
X5.5047Y-4.3181
X5.6047Y-3.9681
X5.6047Y-4.1181
X5.6047Y-4.2181
X5.6047Y-4.3181
X5.7047Y-3.9681
X5.8047Y-3.9681
X7.2547Y-2.4681
X7.2547Y-2.5681
X7.2547Y-2.6681
X7.2547Y-2.7681
X7.2547Y-2.8681
X7.2547Y-2.9681
X7.2547Y-3.0681
X7.2547Y-3.1681
X7.2547Y-3.2681
X7.2547Y-3.3681
X7.2547Y-3.4681
X7.2547Y-3.5681
X7.2547Y-3.6681
X7.2547Y-3.7681
X7.2547Y-3.8681
X7.2547Y-3.9681
X7.2547Y-4.0681
X7.2547Y-4.1681
X7.2547Y-4.2681
X7.2547Y-4.3681
X7.3547Y-2.4681
X7.3547Y-2.5681
X7.3547Y-2.6681
X7.3547Y-2.7681
X7.3547Y-2.8681
X7.3547Y-2.9681
X7.3547Y-3.0681
X7.3547Y-3.1681
X7.3547Y-3.2681
X7.3547Y-3.3681
X7.3547Y-3.4681
X7.3547Y-3.5681
X7.3547Y-3.6681
X7.3547Y-3.7681
X7.3547Y-3.8681
X7.3547Y-3.9681
X7.3547Y-4.0681
X7.3547Y-4.1681
X7.3547Y-4.2681
X7.3547Y-4.3681
T7
X4.0547Y-2.5681
X4.0547Y-4.2681
X7.0547Y-2.5681
X7.0547Y-4.2681
T8
X4.9047Y-2.6197
X4.9047Y-2.8953
T5
X5.4205Y-2.4843G85X5.4205Y-2.5236
G05
X5.4205Y-2.7146G85X5.4205Y-2.7697
G05
X5.9953Y-2.4843G85X5.9953Y-2.5236
G05
X5.9953Y-2.7146G85X5.9953Y-2.7697
G05
T0
M30
