M48
;DRILL file {KiCad 4.0.7+dfsg1-1} date Thu Mar 29 14:14:48 2018
;FORMAT={-:-/ absolute / inch / decimal}
FMAT,2
INCH,TZ
T1C0.008
T2C0.010
T3C0.012
T4C0.016
T5C0.020
T6C0.031
T7C0.039
T8C0.040
T9C0.126
T10C0.067
%
G90
G05
M72
T1
X3.9402Y-4.1024
X3.9547Y-3.9781
X3.9627Y-3.5497
X3.9663Y-2.7937
X4.1435Y-3.4093
X4.1556Y-4.0633
X4.1564Y-4.0024
X4.167Y-4.046
X4.1672Y-4.1
X4.1689Y-4.0793
X4.1767Y-4.1328
X4.1841Y-4.0116
X4.3244Y-2.8984
X4.3543Y-2.9366
X4.4053Y-3.3958
X4.4124Y-2.8927
X4.4336Y-2.8927
X4.455Y-2.6601
X4.4748Y-3.5187
X4.4764Y-3.8591
X4.4923Y-2.9375
X4.5084Y-3.2445
X4.5103Y-3.8795
X4.5351Y-3.8808
X4.5747Y-2.8927
X4.5798Y-3.8894
X4.5984Y-3.8709
X4.7123Y-3.0509
X4.7247Y-2.6381
X4.7535Y-3.0195
X4.7673Y-3.573
X4.772Y-2.7928
X4.7808Y-3.5556
X4.7908Y-3.7291
X4.8239Y-3.7687
X4.8399Y-3.7293
X4.848Y-2.6786
X4.8533Y-4.0046
X4.8707Y-3.5849
X4.8828Y-3.568
X4.8899Y-4.2208
X4.8946Y-4.134
X4.8961Y-3.436
X4.8961Y-3.436
X4.9068Y-3.6662
X4.9097Y-3.942
X4.9153Y-3.7836
X4.9256Y-3.6574
X4.9419Y-3.6707
X4.9988Y-3.4891
X5.0119Y-3.5598
X5.0165Y-4.0975
X5.0231Y-4.247
X5.0296Y-3.1495
X5.0319Y-3.4388
X5.0403Y-2.7638
X5.042Y-3.2811
X5.043Y-3.3638
X5.0443Y-3.0801
X5.0454Y-3.0446
X5.0479Y-4.3213
X5.0504Y-4.063
X5.0515Y-3.5348
X5.0524Y-3.149
X5.0572Y-3.3123
X5.0626Y-3.0667
X5.0648Y-3.0335
X5.066Y-3.2581
X5.0711Y-4.0624
X5.0752Y-3.1489
X5.0753Y-3.3664
X5.0789Y-3.9439
X5.0809Y-3.6304
X5.0907Y-3.3131
X5.0934Y-3.6851
X5.096Y-3.1475
X5.0964Y-3.5409
X5.0968Y-3.2679
X5.1011Y-3.6223
X5.1047Y-3.9431
X5.1178Y-3.2949
X5.1189Y-3.6115
X5.1202Y-3.7052
X5.1264Y-3.6726
X5.1288Y-3.159
X5.1347Y-3.7581
X5.1373Y-3.302
X5.1398Y-3.0645
X5.1411Y-3.6408
X5.1512Y-4.0633
X5.1527Y-3.0808
X5.1556Y-3.12
X5.159Y-4.0231
X5.1608Y-3.7624
X5.1679Y-3.3948
X5.1682Y-3.1729
X5.1685Y-3.52
X5.1699Y-3.7385
X5.1714Y-3.0419
X5.1753Y-4.0633
X5.1862Y-3.1378
X5.1963Y-3.7955
X5.1978Y-4.3215
X5.1981Y-3.6772
X5.1998Y-3.5201
X5.1999Y-3.5828
X5.2Y-3.2656
X5.2Y-3.2324
X5.2Y-3.4252
X5.2Y-3.7087
X5.2001Y-3.3961
X5.2001Y-3.2989
X5.2002Y-3.4865
X5.2003Y-3.205
X5.2004Y-3.3653
X5.2005Y-3.3321
X5.2008Y-3.5495
X5.2012Y-3.6428
X5.2033Y-4.1805
X5.2046Y-3.0494
X5.2055Y-4.3023
X5.2081Y-4.2817
X5.2122Y-3.03
X5.2153Y-4.1143
X5.2247Y-4.3181
X5.2277Y-3.2047
X5.2302Y-3.7085
X5.2312Y-3.2656
X5.2315Y-3.4882
X5.2315Y-3.5827
X5.2315Y-3.6142
X5.2315Y-3.6457
X5.2315Y-3.6772
X5.2315Y-3.2324
X5.2316Y-3.2989
X5.2316Y-3.3321
X5.2323Y-3.5504
X5.2337Y-4.0831
X5.234Y-3.3673
X5.2447Y-4.2309
X5.2609Y-3.2053
X5.2617Y-3.2359
X5.2627Y-3.3305
X5.263Y-3.2677
X5.263Y-3.2992
X5.263Y-3.3622
X5.263Y-3.6142
X5.263Y-3.6457
X5.2632Y-3.6773
X5.2663Y-3.7951
X5.2698Y-3.7746
X5.2836Y-3.0596
X5.2847Y-3.0834
X5.2927Y-3.2354
X5.2935Y-3.7113
X5.2939Y-4.2851
X5.2941Y-3.205
X5.2945Y-3.2992
X5.2945Y-3.5827
X5.3007Y-4.3197
X5.3022Y-4.2571
X5.3034Y-4.1539
X5.3051Y-4.2051
X5.3153Y-3.1103
X5.3153Y-2.6338
X5.3168Y-3.0604
X5.3259Y-3.236
X5.326Y-3.4585
X5.326Y-3.2686
X5.326Y-3.3937
X5.326Y-3.6457
X5.326Y-3.1726
X5.3262Y-3.7396
X5.3263Y-3.7097
X5.3274Y-3.2064
X5.3285Y-3.519
X5.3289Y-3.0277
X5.3315Y-3.0792
X5.3353Y-3.8648
X5.3408Y-4.3548
X5.3457Y-3.0398
X5.3554Y-3.8552
X5.3569Y-3.0573
X5.3575Y-3.2677
X5.3581Y-3.676
X5.3592Y-3.2386
X5.3607Y-3.2054
X5.389Y-3.6457
X5.3892Y-3.551
X5.3901Y-3.066
X5.3915Y-3.5186
X5.3921Y-3.0227
X5.4085Y-3.01
X5.4154Y-3.3298
X5.4158Y-2.9906
X5.4196Y-3.6078
X5.4205Y-3.2047
X5.4205Y-3.4882
X5.4205Y-3.6772
X5.4208Y-3.5481
X5.4299Y-2.9422
X5.4484Y-3.0532
X5.4588Y-2.6351
X5.4607Y-3.0701
X5.4734Y-3.0874
X5.4832Y-3.3312
X5.4835Y-3.2047
X5.4835Y-3.6772
X5.4837Y-3.5503
X5.4844Y-3.1068
X5.5114Y-2.9822
X5.5124Y-3.3934
X5.513Y-3.2362
X5.5133Y-3.5178
X5.5142Y-3.2685
X5.515Y-3.2047
X5.5155Y-3.5481
X5.5321Y-2.984
X5.5447Y-3.3281
X5.5457Y-3.2693
X5.5462Y-3.2353
X5.5462Y-3.5997
X5.5465Y-3.6772
X5.5471Y-3.4573
X5.5487Y-2.7236
X5.5527Y-2.9861
X5.5579Y-3.2012
X5.5622Y-3.8442
X5.5758Y-3.0675
X5.578Y-3.3622
X5.578Y-3.3937
X5.578Y-3.4882
X5.578Y-3.6457
X5.5798Y-3.236
X5.5798Y-3.2677
X5.5803Y-2.7638
X5.6015Y-3.5827
X5.607Y-2.9235
X5.6087Y-3.174
X5.6087Y-3.2055
X5.6087Y-3.2685
X5.6094Y-3.2992
X5.6094Y-3.7087
X5.6094Y-3.7402
X5.613Y-3.2364
X5.6214Y-3.082
X5.6215Y-3.045
X5.6225Y-3.1042
X5.6402Y-3.3315
X5.6405Y-3.6778
X5.6409Y-3.2992
X5.6409Y-3.4252
X5.6409Y-3.6142
X5.6412Y-3.2694
X5.6417Y-3.3945
X5.6426Y-3.488
X5.6426Y-3.5513
X5.6426Y-3.5827
X5.643Y-3.2038
X5.643Y-3.2361
X5.6479Y-2.922
X5.6555Y-2.5143
X5.6578Y-2.9849
X5.6718Y-3.6172
X5.6723Y-3.5195
X5.6723Y-3.5538
X5.6724Y-3.3937
X5.6724Y-3.581
X5.6726Y-3.4876
X5.6733Y-3.3621
X5.6734Y-3.2983
X5.6734Y-3.3331
X5.6737Y-3.6452
X5.6745Y-3.2677
X5.6762Y-3.2047
X5.6762Y-3.2362
X5.6932Y-3.0912
X5.6932Y-3.1245
X5.7005Y-3.0718
X5.703Y-3.5145
X5.7034Y-3.5477
X5.7037Y-3.3974
X5.7038Y-3.4891
X5.7039Y-3.2009
X5.704Y-3.6448
X5.7043Y-3.2341
X5.7043Y-3.3641
X5.7045Y-3.4243
X5.7046Y-3.3006
X5.7047Y-3.615
X5.7048Y-3.581
X5.7052Y-3.3321
X5.7054Y-3.2674
X5.7351Y-3.362
X5.7354Y-3.2049
X5.7359Y-3.7074
X5.7386Y-3.5831
X5.7551Y-2.7874
X5.7636Y-3.832
X5.767Y-3.1425
X5.7712Y-2.999
X5.7835Y-2.9785
X5.7943Y-3.832
X5.7947Y-2.8031
X5.8044Y-3.5477
X5.8145Y-3.3612
X5.8145Y-3.1883
X5.815Y-3.6937
X5.8233Y-3.4521
X5.824Y-3.7535
X5.8261Y-2.8089
X5.8337Y-3.1804
X5.8458Y-3.4497
X5.8508Y-3.2168
X5.8542Y-3.1835
X5.8562Y-3.7665
X5.8631Y-3.2851
X5.8714Y-2.497
X5.8773Y-3.755
X5.8856Y-4.0948
X5.8858Y-2.7259
X5.8878Y-3.1838
X5.8879Y-3.4248
X5.895Y-3.2995
X5.8965Y-3.2215
X5.8975Y-3.75
X5.8995Y-3.2009
X5.9067Y-2.8083
X5.9165Y-3.7417
X5.9191Y-3.7212
X5.9405Y-3.7139
X6.0038Y-3.1179
X6.0339Y-2.6978
X6.0536Y-2.7383
X6.0747Y-2.8581
X6.076Y-2.545
X6.0797Y-4.0546
X6.2487Y-4.2254
X6.2547Y-2.8581
X6.3886Y-2.6096
X6.445Y-2.8166
X6.5028Y-3.8451
X6.5277Y-3.8325
X6.5493Y-2.7888
X6.6207Y-3.1145
X6.6735Y-4.2501
X6.6739Y-2.7436
X6.6897Y-2.5531
X6.694Y-2.931
X6.7051Y-3.3638
X6.7072Y-4.2239
X6.708Y-4.1261
X6.722Y-2.9294
X6.7335Y-3.9617
X6.7447Y-2.5531
X6.7537Y-3.9798
X6.7602Y-3.8845
X6.7602Y-3.922
X6.7735Y-3.4425
X6.7751Y-4.0021
X6.8053Y-2.8113
X6.8165Y-3.4486
X6.8447Y-2.8165
X6.9364Y-4.115
X6.9412Y-4.0661
X6.9567Y-3.3157
X6.9598Y-3.4857
X6.9605Y-2.8087
X6.9797Y-3.7681
X7.0098Y-3.5222
X7.1Y-3.044
X7.1394Y-4.1317
X7.1453Y-3.5888
X7.1919Y-4.3952
T2
X5.2539Y-4.0249
X5.3575Y-3.3307
X5.3587Y-3.425
X5.3913Y-3.3936
X5.4205Y-3.4252
X5.4829Y-3.6069
X5.4835Y-3.4252
X5.4835Y-3.4882
X5.5529Y-3.425
X5.7851Y-3.7973
X5.8009Y-3.67
X5.8084Y-3.7761
X5.8405Y-3.6741
T3
X4.0437Y-3.8817
X4.1047Y-3.9681
X4.8597Y-4.2902
X6.005Y-3.2072
X6.0864Y-3.7247
X6.1452Y-3.7308
X6.1521Y-3.2027
X6.2493Y-3.1909
X6.3416Y-3.1887
X6.4356Y-3.1867
X6.4915Y-3.1866
T4
X4.3541Y-4.277
T5
X4.0042Y-3.245
X4.2116Y-2.5572
X4.2134Y-2.6468
X4.3358Y-3.5444
X4.6016Y-2.5513
X5.8373Y-3.1122
X5.9747Y-3.9281
X6.2047Y-2.4781
X6.2129Y-2.6641
X6.2417Y-3.735
X6.3349Y-3.7404
X6.4156Y-3.7432
X6.4813Y-3.7395
X6.494Y-2.488
X6.5455Y-3.124
X6.5463Y-3.0493
X6.5466Y-3.7411
X6.9092Y-2.5324
X6.9392Y-3.7121
X6.9944Y-3.2394
T7
X5.1203Y-2.8238
X5.2203Y-2.8238
X5.3203Y-2.8238
T8
X3.7547Y-2.4681
X3.7547Y-2.5681
X3.7547Y-2.6681
X3.7547Y-2.7681
X3.7547Y-2.8681
X3.7547Y-2.9681
X3.7547Y-3.0681
X3.7547Y-3.1681
X3.7547Y-3.2681
X3.7547Y-3.3681
X3.7547Y-3.4681
X3.7547Y-3.5681
X3.7547Y-3.6681
X3.7547Y-3.7681
X3.7547Y-3.8681
X3.7547Y-3.9681
X3.7547Y-4.0681
X3.7547Y-4.1681
X3.7547Y-4.2681
X3.7547Y-4.3681
X3.8547Y-2.4681
X3.8547Y-2.5681
X3.8547Y-2.6681
X3.8547Y-2.7681
X3.8547Y-2.8681
X3.8547Y-2.9681
X3.8547Y-3.0681
X3.8547Y-3.1681
X3.8547Y-3.2681
X3.8547Y-3.3681
X3.8547Y-3.4681
X3.8547Y-3.5681
X3.8547Y-3.6681
X3.8547Y-3.7681
X3.8547Y-3.8681
X3.8547Y-3.9681
X3.8547Y-4.0681
X3.8547Y-4.1681
X3.8547Y-4.2681
X3.8547Y-4.3681
X4.0547Y-3.7681
X4.1547Y-3.7681
X5.2047Y-3.9681
X5.3047Y-3.9681
X5.4047Y-3.9681
X5.4297Y-4.1181
X5.4297Y-4.2181
X5.4297Y-4.3181
X5.5047Y-3.9681
X5.5297Y-4.1181
X5.5297Y-4.2181
X5.5297Y-4.3181
X5.6047Y-3.9681
X5.7047Y-3.9681
X5.8047Y-3.9681
X7.2547Y-2.4681
X7.2547Y-2.5681
X7.2547Y-2.6681
X7.2547Y-2.7681
X7.2547Y-2.8681
X7.2547Y-2.9681
X7.2547Y-3.0681
X7.2547Y-3.1681
X7.2547Y-3.2681
X7.2547Y-3.3681
X7.2547Y-3.4681
X7.2547Y-3.5681
X7.2547Y-3.6681
X7.2547Y-3.7681
X7.2547Y-3.8681
X7.2547Y-3.9681
X7.2547Y-4.0681
X7.2547Y-4.1681
X7.2547Y-4.2681
X7.2547Y-4.3681
X7.3547Y-2.4681
X7.3547Y-2.5681
X7.3547Y-2.6681
X7.3547Y-2.7681
X7.3547Y-2.8681
X7.3547Y-2.9681
X7.3547Y-3.0681
X7.3547Y-3.1681
X7.3547Y-3.2681
X7.3547Y-3.3681
X7.3547Y-3.4681
X7.3547Y-3.5681
X7.3547Y-3.6681
X7.3547Y-3.7681
X7.3547Y-3.8681
X7.3547Y-3.9681
X7.3547Y-4.0681
X7.3547Y-4.1681
X7.3547Y-4.2681
X7.3547Y-4.3681
T9
X4.0547Y-2.5681
X4.0547Y-4.2681
X7.0547Y-2.5681
X7.0547Y-4.2681
T10
X4.9003Y-2.6188
X4.9003Y-2.8944
T6
X5.4205Y-2.5591G85X5.4205Y-2.5984
G05
X5.4205Y-2.7894G85X5.4205Y-2.8445
G05
X5.9953Y-2.5591G85X5.9953Y-2.5984
G05
X5.9953Y-2.7894G85X5.9953Y-2.8445
G05
T0
M30
