G04 #@! TF.FileFunction,Other,Fab,Top*
%FSLAX46Y46*%
G04 Gerber Fmt 4.6, Leading zero omitted, Abs format (unit mm)*
G04 Created by KiCad (PCBNEW 4.0.7+dfsg1-1) date Mon Jan 22 21:13:58 2018*
%MOMM*%
%LPD*%
G01*
G04 APERTURE LIST*
%ADD10C,0.100000*%
%ADD11C,0.150000*%
%ADD12C,0.075000*%
%ADD13C,0.254000*%
G04 APERTURE END LIST*
D10*
X127990000Y-108880000D02*
X128790000Y-108880000D01*
X127990000Y-110480000D02*
X127990000Y-108880000D01*
X128790000Y-110480000D02*
X127990000Y-110480000D01*
X128790000Y-108880000D02*
X128790000Y-110480000D01*
X131330000Y-110480000D02*
X130530000Y-110480000D01*
X131330000Y-108880000D02*
X131330000Y-110480000D01*
X130530000Y-108880000D02*
X131330000Y-108880000D01*
X130530000Y-110480000D02*
X130530000Y-108880000D01*
X116880000Y-60925000D02*
X116880000Y-66925000D01*
X106880000Y-60925000D02*
X116880000Y-60925000D01*
X106880000Y-66925000D02*
X106880000Y-60925000D01*
X116880000Y-66925000D02*
X106880000Y-66925000D01*
X175300000Y-60925000D02*
X175300000Y-66925000D01*
X165300000Y-60925000D02*
X175300000Y-60925000D01*
X165300000Y-66925000D02*
X165300000Y-60925000D01*
X175300000Y-66925000D02*
X165300000Y-66925000D01*
D11*
X178785000Y-102655000D02*
X174785000Y-102655000D01*
X174785000Y-102655000D02*
X174785000Y-97655000D01*
X174785000Y-97655000D02*
X179785000Y-97655000D01*
X179785000Y-97655000D02*
X179785000Y-101655000D01*
X179785000Y-101655000D02*
X178785000Y-102655000D01*
X153790000Y-73485000D02*
G75*
G03X153790000Y-73485000I-1905000J0D01*
G01*
X129660000Y-73485000D02*
G75*
G03X129660000Y-73485000I-1905000J0D01*
G01*
X129660000Y-100155000D02*
G75*
G03X129660000Y-100155000I-1905000J0D01*
G01*
X153790000Y-100155000D02*
G75*
G03X153790000Y-100155000I-1905000J0D01*
G01*
X153790000Y-77930000D02*
X153790000Y-96980000D01*
X125850000Y-77930000D02*
X153790000Y-77930000D01*
X125850000Y-96980000D02*
X125850000Y-77930000D01*
X153790000Y-96980000D02*
X125850000Y-96980000D01*
X155060000Y-70310000D02*
X155060000Y-103330000D01*
X124580000Y-70310000D02*
X155060000Y-70310000D01*
X124580000Y-103330000D02*
X124580000Y-70310000D01*
X155060000Y-103330000D02*
X124580000Y-103330000D01*
D10*
X174570000Y-77120000D02*
X174570000Y-71120000D01*
X174570000Y-71120000D02*
X168570000Y-71120000D01*
X168570000Y-71120000D02*
X168570000Y-77120000D01*
X168570000Y-77120000D02*
X174570000Y-77120000D01*
X173320714Y-74120000D02*
G75*
G03X173320714Y-74120000I-1750714J0D01*
G01*
X102530000Y-86360000D02*
X102530000Y-92360000D01*
X102530000Y-92360000D02*
X108530000Y-92360000D01*
X108530000Y-92360000D02*
X108530000Y-86360000D01*
X108530000Y-86360000D02*
X102530000Y-86360000D01*
X107280714Y-89360000D02*
G75*
G03X107280714Y-89360000I-1750714J0D01*
G01*
X113960000Y-86360000D02*
X113960000Y-92360000D01*
X113960000Y-92360000D02*
X119960000Y-92360000D01*
X119960000Y-92360000D02*
X119960000Y-86360000D01*
X119960000Y-86360000D02*
X113960000Y-86360000D01*
X118710714Y-89360000D02*
G75*
G03X118710714Y-89360000I-1750714J0D01*
G01*
X157140000Y-96520000D02*
X157140000Y-102520000D01*
X157140000Y-102520000D02*
X163140000Y-102520000D01*
X163140000Y-102520000D02*
X163140000Y-96520000D01*
X163140000Y-96520000D02*
X157140000Y-96520000D01*
X161890714Y-99520000D02*
G75*
G03X161890714Y-99520000I-1750714J0D01*
G01*
X163140000Y-111410000D02*
X163140000Y-105410000D01*
X163140000Y-105410000D02*
X157140000Y-105410000D01*
X157140000Y-105410000D02*
X157140000Y-111410000D01*
X157140000Y-111410000D02*
X163140000Y-111410000D01*
X161890714Y-108410000D02*
G75*
G03X161890714Y-108410000I-1750714J0D01*
G01*
X151710000Y-111410000D02*
X151710000Y-105410000D01*
X151710000Y-105410000D02*
X145710000Y-105410000D01*
X145710000Y-105410000D02*
X145710000Y-111410000D01*
X145710000Y-111410000D02*
X151710000Y-111410000D01*
X150460714Y-108410000D02*
G75*
G03X150460714Y-108410000I-1750714J0D01*
G01*
X174570000Y-111410000D02*
X174570000Y-105410000D01*
X174570000Y-105410000D02*
X168570000Y-105410000D01*
X168570000Y-105410000D02*
X168570000Y-111410000D01*
X168570000Y-111410000D02*
X174570000Y-111410000D01*
X173320714Y-108410000D02*
G75*
G03X173320714Y-108410000I-1750714J0D01*
G01*
X154280000Y-76460000D02*
X154280000Y-70780000D01*
X154280000Y-70780000D02*
X166000000Y-70780000D01*
X166000000Y-70780000D02*
X166000000Y-77460000D01*
X166000000Y-77460000D02*
X155280000Y-77460000D01*
X155280000Y-77460000D02*
X154280000Y-76460000D01*
X155695000Y-75930000D02*
X156965000Y-75930000D01*
X156965000Y-75930000D02*
X156965000Y-72310000D01*
X156965000Y-72310000D02*
X155695000Y-72310000D01*
X155695000Y-72310000D02*
X155695000Y-75930000D01*
X155695000Y-74120000D02*
X156965000Y-74120000D01*
X158235000Y-75930000D02*
X159505000Y-75930000D01*
X159505000Y-75930000D02*
X159505000Y-72310000D01*
X159505000Y-72310000D02*
X158235000Y-72310000D01*
X158235000Y-72310000D02*
X158235000Y-75930000D01*
X158235000Y-74120000D02*
X159505000Y-74120000D01*
X160775000Y-75930000D02*
X162045000Y-75930000D01*
X162045000Y-75930000D02*
X162045000Y-72310000D01*
X162045000Y-72310000D02*
X160775000Y-72310000D01*
X160775000Y-72310000D02*
X160775000Y-75930000D01*
X160775000Y-74120000D02*
X162045000Y-74120000D01*
X163315000Y-75930000D02*
X164585000Y-75930000D01*
X164585000Y-75930000D02*
X164585000Y-72310000D01*
X164585000Y-72310000D02*
X163315000Y-72310000D01*
X163315000Y-72310000D02*
X163315000Y-75930000D01*
X163315000Y-74120000D02*
X164585000Y-74120000D01*
X125450000Y-106270000D02*
X126250000Y-106270000D01*
X125850000Y-106270000D02*
X125450000Y-105670000D01*
X126250000Y-105670000D02*
X125850000Y-106270000D01*
X125450000Y-105670000D02*
X126250000Y-105670000D01*
X126450000Y-104870000D02*
X126450000Y-106870000D01*
X125250000Y-104870000D02*
X126450000Y-104870000D01*
X125250000Y-106870000D02*
X125250000Y-104870000D01*
X126450000Y-106870000D02*
X125250000Y-106870000D01*
X125450000Y-108880000D02*
X126250000Y-108880000D01*
X125450000Y-110480000D02*
X125450000Y-108880000D01*
X126250000Y-110480000D02*
X125450000Y-110480000D01*
X126250000Y-108880000D02*
X126250000Y-110480000D01*
X127990000Y-106270000D02*
X128790000Y-106270000D01*
X128390000Y-106270000D02*
X127990000Y-105670000D01*
X128790000Y-105670000D02*
X128390000Y-106270000D01*
X127990000Y-105670000D02*
X128790000Y-105670000D01*
X128990000Y-104870000D02*
X128990000Y-106870000D01*
X127790000Y-104870000D02*
X128990000Y-104870000D01*
X127790000Y-106870000D02*
X127790000Y-104870000D01*
X128990000Y-106870000D02*
X127790000Y-106870000D01*
X121170000Y-79435000D02*
X120370000Y-79435000D01*
X120770000Y-79435000D02*
X121170000Y-80035000D01*
X120370000Y-80035000D02*
X120770000Y-79435000D01*
X121170000Y-80035000D02*
X120370000Y-80035000D01*
X120170000Y-80835000D02*
X120170000Y-78835000D01*
X121370000Y-80835000D02*
X120170000Y-80835000D01*
X121370000Y-78835000D02*
X121370000Y-80835000D01*
X120170000Y-78835000D02*
X121370000Y-78835000D01*
X118630000Y-79435000D02*
X117830000Y-79435000D01*
X118230000Y-79435000D02*
X118630000Y-80035000D01*
X117830000Y-80035000D02*
X118230000Y-79435000D01*
X118630000Y-80035000D02*
X117830000Y-80035000D01*
X117630000Y-80835000D02*
X117630000Y-78835000D01*
X118830000Y-80835000D02*
X117630000Y-80835000D01*
X118830000Y-78835000D02*
X118830000Y-80835000D01*
X117630000Y-78835000D02*
X118830000Y-78835000D01*
X116090000Y-79435000D02*
X115290000Y-79435000D01*
X115690000Y-79435000D02*
X116090000Y-80035000D01*
X115290000Y-80035000D02*
X115690000Y-79435000D01*
X116090000Y-80035000D02*
X115290000Y-80035000D01*
X115090000Y-80835000D02*
X115090000Y-78835000D01*
X116290000Y-80835000D02*
X115090000Y-80835000D01*
X116290000Y-78835000D02*
X116290000Y-80835000D01*
X115090000Y-78835000D02*
X116290000Y-78835000D01*
X113550000Y-79435000D02*
X112750000Y-79435000D01*
X113150000Y-79435000D02*
X113550000Y-80035000D01*
X112750000Y-80035000D02*
X113150000Y-79435000D01*
X113550000Y-80035000D02*
X112750000Y-80035000D01*
X112550000Y-80835000D02*
X112550000Y-78835000D01*
X113750000Y-80835000D02*
X112550000Y-80835000D01*
X113750000Y-78835000D02*
X113750000Y-80835000D01*
X112550000Y-78835000D02*
X113750000Y-78835000D01*
X111010000Y-79435000D02*
X110210000Y-79435000D01*
X110610000Y-79435000D02*
X111010000Y-80035000D01*
X110210000Y-80035000D02*
X110610000Y-79435000D01*
X111010000Y-80035000D02*
X110210000Y-80035000D01*
X110010000Y-80835000D02*
X110010000Y-78835000D01*
X111210000Y-80835000D02*
X110010000Y-80835000D01*
X111210000Y-78835000D02*
X111210000Y-80835000D01*
X110010000Y-78835000D02*
X111210000Y-78835000D01*
X108470000Y-79435000D02*
X107670000Y-79435000D01*
X108070000Y-79435000D02*
X108470000Y-80035000D01*
X107670000Y-80035000D02*
X108070000Y-79435000D01*
X108470000Y-80035000D02*
X107670000Y-80035000D01*
X107470000Y-80835000D02*
X107470000Y-78835000D01*
X108670000Y-80835000D02*
X107470000Y-80835000D01*
X108670000Y-78835000D02*
X108670000Y-80835000D01*
X107470000Y-78835000D02*
X108670000Y-78835000D01*
X105930000Y-79435000D02*
X105130000Y-79435000D01*
X105530000Y-79435000D02*
X105930000Y-80035000D01*
X105130000Y-80035000D02*
X105530000Y-79435000D01*
X105930000Y-80035000D02*
X105130000Y-80035000D01*
X104930000Y-80835000D02*
X104930000Y-78835000D01*
X106130000Y-80835000D02*
X104930000Y-80835000D01*
X106130000Y-78835000D02*
X106130000Y-80835000D01*
X104930000Y-78835000D02*
X106130000Y-78835000D01*
X103390000Y-79435000D02*
X102590000Y-79435000D01*
X102990000Y-79435000D02*
X103390000Y-80035000D01*
X102590000Y-80035000D02*
X102990000Y-79435000D01*
X103390000Y-80035000D02*
X102590000Y-80035000D01*
X102390000Y-80835000D02*
X102390000Y-78835000D01*
X103590000Y-80835000D02*
X102390000Y-80835000D01*
X103590000Y-78835000D02*
X103590000Y-80835000D01*
X102390000Y-78835000D02*
X103590000Y-78835000D01*
X130530000Y-106270000D02*
X131330000Y-106270000D01*
X130930000Y-106270000D02*
X130530000Y-105670000D01*
X131330000Y-105670000D02*
X130930000Y-106270000D01*
X130530000Y-105670000D02*
X131330000Y-105670000D01*
X131530000Y-104870000D02*
X131530000Y-106870000D01*
X130330000Y-104870000D02*
X131530000Y-104870000D01*
X130330000Y-106870000D02*
X130330000Y-104870000D01*
X131530000Y-106870000D02*
X130330000Y-106870000D01*
D11*
X120050000Y-102800000D02*
X111250000Y-107750000D01*
X120050000Y-107750000D02*
X111250000Y-102800000D01*
X120050000Y-102800000D02*
X120050000Y-107750000D01*
X111250000Y-102800000D02*
X111250000Y-107750000D01*
X111250000Y-107750000D02*
X120050000Y-107750000D01*
X120050000Y-102800000D02*
X111250000Y-102800000D01*
X121200000Y-95100000D02*
X108900000Y-95100000D01*
X121200000Y-111900000D02*
X121200000Y-95100000D01*
X108900000Y-111900000D02*
X121200000Y-111900000D01*
X108900000Y-95950000D02*
X108900000Y-111900000D01*
X109000000Y-68920000D02*
X109000000Y-73920000D01*
X102000000Y-68920000D02*
X109000000Y-68920000D01*
X102000000Y-73920000D02*
X102000000Y-68920000D01*
X109000000Y-73920000D02*
X102000000Y-73920000D01*
D10*
X121170000Y-83302000D02*
X120370000Y-83302000D01*
X121170000Y-81702000D02*
X121170000Y-83302000D01*
X120370000Y-81702000D02*
X121170000Y-81702000D01*
X120370000Y-83302000D02*
X120370000Y-81702000D01*
X118630000Y-83302000D02*
X117830000Y-83302000D01*
X118630000Y-81702000D02*
X118630000Y-83302000D01*
X117830000Y-81702000D02*
X118630000Y-81702000D01*
X117830000Y-83302000D02*
X117830000Y-81702000D01*
X116090000Y-83302000D02*
X115290000Y-83302000D01*
X116090000Y-81702000D02*
X116090000Y-83302000D01*
X115290000Y-81702000D02*
X116090000Y-81702000D01*
X115290000Y-83302000D02*
X115290000Y-81702000D01*
X113550000Y-83302000D02*
X112750000Y-83302000D01*
X113550000Y-81702000D02*
X113550000Y-83302000D01*
X112750000Y-81702000D02*
X113550000Y-81702000D01*
X112750000Y-83302000D02*
X112750000Y-81702000D01*
X111010000Y-83302000D02*
X110210000Y-83302000D01*
X111010000Y-81702000D02*
X111010000Y-83302000D01*
X110210000Y-81702000D02*
X111010000Y-81702000D01*
X110210000Y-83302000D02*
X110210000Y-81702000D01*
X108470000Y-83302000D02*
X107670000Y-83302000D01*
X108470000Y-81702000D02*
X108470000Y-83302000D01*
X107670000Y-81702000D02*
X108470000Y-81702000D01*
X107670000Y-83302000D02*
X107670000Y-81702000D01*
X105930000Y-83302000D02*
X105130000Y-83302000D01*
X105930000Y-81702000D02*
X105930000Y-83302000D01*
X105130000Y-81702000D02*
X105930000Y-81702000D01*
X105130000Y-83302000D02*
X105130000Y-81702000D01*
X103390000Y-83302000D02*
X102590000Y-83302000D01*
X103390000Y-81702000D02*
X103390000Y-83302000D01*
X102590000Y-81702000D02*
X103390000Y-81702000D01*
X102590000Y-83302000D02*
X102590000Y-81702000D01*
D11*
X99894762Y-97448381D02*
X100132857Y-98448381D01*
X100323334Y-97734095D01*
X100513810Y-98448381D01*
X100751905Y-97448381D01*
X101132857Y-98448381D02*
X101132857Y-97448381D01*
X101942381Y-97924571D02*
X101609047Y-97924571D01*
X101609047Y-98448381D02*
X101609047Y-97448381D01*
X102085238Y-97448381D01*
X102466190Y-98448381D02*
X102466190Y-97448381D01*
X102704285Y-98543619D02*
X103466190Y-98543619D01*
X103894761Y-97448381D02*
X104085238Y-97448381D01*
X104180476Y-97496000D01*
X104275714Y-97591238D01*
X104323333Y-97781714D01*
X104323333Y-98115048D01*
X104275714Y-98305524D01*
X104180476Y-98400762D01*
X104085238Y-98448381D01*
X103894761Y-98448381D01*
X103799523Y-98400762D01*
X103704285Y-98305524D01*
X103656666Y-98115048D01*
X103656666Y-97781714D01*
X103704285Y-97591238D01*
X103799523Y-97496000D01*
X103894761Y-97448381D01*
X105085238Y-97924571D02*
X104751904Y-97924571D01*
X104751904Y-98448381D02*
X104751904Y-97448381D01*
X105228095Y-97448381D01*
X105942381Y-97924571D02*
X105609047Y-97924571D01*
X105609047Y-98448381D02*
X105609047Y-97448381D01*
X106085238Y-97448381D01*
X126942381Y-109799047D02*
X126942381Y-110370476D01*
X126942381Y-110084762D02*
X125942381Y-110084762D01*
X126085238Y-110180000D01*
X126180476Y-110275238D01*
X126228095Y-110370476D01*
X126942381Y-109370476D02*
X125942381Y-109370476D01*
X126561429Y-109275238D02*
X126942381Y-108989523D01*
X126275714Y-108989523D02*
X126656667Y-109370476D01*
X133282381Y-109799047D02*
X133282381Y-110370476D01*
X133282381Y-110084762D02*
X132282381Y-110084762D01*
X132425238Y-110180000D01*
X132520476Y-110275238D01*
X132568095Y-110370476D01*
X133282381Y-109370476D02*
X132282381Y-109370476D01*
X132901429Y-109275238D02*
X133282381Y-108989523D01*
X132615714Y-108989523D02*
X132996667Y-109370476D01*
X110022858Y-67329571D02*
X110022858Y-68543857D01*
X110094286Y-68686714D01*
X110165715Y-68758143D01*
X110308572Y-68829571D01*
X110594286Y-68829571D01*
X110737144Y-68758143D01*
X110808572Y-68686714D01*
X110880001Y-68543857D01*
X110880001Y-67329571D01*
X111522858Y-68758143D02*
X111737144Y-68829571D01*
X112094287Y-68829571D01*
X112237144Y-68758143D01*
X112308573Y-68686714D01*
X112380001Y-68543857D01*
X112380001Y-68401000D01*
X112308573Y-68258143D01*
X112237144Y-68186714D01*
X112094287Y-68115286D01*
X111808573Y-68043857D01*
X111665715Y-67972429D01*
X111594287Y-67901000D01*
X111522858Y-67758143D01*
X111522858Y-67615286D01*
X111594287Y-67472429D01*
X111665715Y-67401000D01*
X111808573Y-67329571D01*
X112165715Y-67329571D01*
X112380001Y-67401000D01*
X113808572Y-68829571D02*
X112951429Y-68829571D01*
X113380001Y-68829571D02*
X113380001Y-67329571D01*
X113237144Y-67543857D01*
X113094286Y-67686714D01*
X112951429Y-67758143D01*
X168442858Y-67329571D02*
X168442858Y-68543857D01*
X168514286Y-68686714D01*
X168585715Y-68758143D01*
X168728572Y-68829571D01*
X169014286Y-68829571D01*
X169157144Y-68758143D01*
X169228572Y-68686714D01*
X169300001Y-68543857D01*
X169300001Y-67329571D01*
X169942858Y-68758143D02*
X170157144Y-68829571D01*
X170514287Y-68829571D01*
X170657144Y-68758143D01*
X170728573Y-68686714D01*
X170800001Y-68543857D01*
X170800001Y-68401000D01*
X170728573Y-68258143D01*
X170657144Y-68186714D01*
X170514287Y-68115286D01*
X170228573Y-68043857D01*
X170085715Y-67972429D01*
X170014287Y-67901000D01*
X169942858Y-67758143D01*
X169942858Y-67615286D01*
X170014287Y-67472429D01*
X170085715Y-67401000D01*
X170228573Y-67329571D01*
X170585715Y-67329571D01*
X170800001Y-67401000D01*
X171371429Y-67472429D02*
X171442858Y-67401000D01*
X171585715Y-67329571D01*
X171942858Y-67329571D01*
X172085715Y-67401000D01*
X172157144Y-67472429D01*
X172228572Y-67615286D01*
X172228572Y-67758143D01*
X172157144Y-67972429D01*
X171300001Y-68829571D01*
X172228572Y-68829571D01*
X173665952Y-96732381D02*
X173665952Y-95732381D01*
X173999286Y-96446667D01*
X174332619Y-95732381D01*
X174332619Y-96732381D01*
X174761190Y-96446667D02*
X175237381Y-96446667D01*
X174665952Y-96732381D02*
X174999285Y-95732381D01*
X175332619Y-96732381D01*
X175570714Y-95732381D02*
X176237381Y-96732381D01*
X176237381Y-95732381D02*
X175570714Y-96732381D01*
X177142143Y-96732381D02*
X176570714Y-96732381D01*
X176856428Y-96732381D02*
X176856428Y-95732381D01*
X176761190Y-95875238D01*
X176665952Y-95970476D01*
X176570714Y-96018095D01*
X178094524Y-96732381D02*
X177523095Y-96732381D01*
X177808809Y-96732381D02*
X177808809Y-95732381D01*
X177713571Y-95875238D01*
X177618333Y-95970476D01*
X177523095Y-96018095D01*
X179046905Y-96732381D02*
X178475476Y-96732381D01*
X178761190Y-96732381D02*
X178761190Y-95732381D01*
X178665952Y-95875238D01*
X178570714Y-95970476D01*
X178475476Y-96018095D01*
X179427857Y-95827619D02*
X179475476Y-95780000D01*
X179570714Y-95732381D01*
X179808810Y-95732381D01*
X179904048Y-95780000D01*
X179951667Y-95827619D01*
X179999286Y-95922857D01*
X179999286Y-96018095D01*
X179951667Y-96160952D01*
X179380238Y-96732381D01*
X179999286Y-96732381D01*
X180904048Y-95732381D02*
X180427857Y-95732381D01*
X180380238Y-96208571D01*
X180427857Y-96160952D01*
X180523095Y-96113333D01*
X180761191Y-96113333D01*
X180856429Y-96160952D01*
X180904048Y-96208571D01*
X180951667Y-96303810D01*
X180951667Y-96541905D01*
X180904048Y-96637143D01*
X180856429Y-96684762D01*
X180761191Y-96732381D01*
X180523095Y-96732381D01*
X180427857Y-96684762D01*
X180380238Y-96637143D01*
X130200952Y-97408762D02*
X130581904Y-97408762D01*
X130772380Y-97504000D01*
X130962857Y-97694476D01*
X131058095Y-98075429D01*
X131058095Y-98742095D01*
X130962857Y-99123048D01*
X130772380Y-99313524D01*
X130581904Y-99408762D01*
X130200952Y-99408762D01*
X130010476Y-99313524D01*
X129819999Y-99123048D01*
X129724761Y-98742095D01*
X129724761Y-98075429D01*
X129819999Y-97694476D01*
X130010476Y-97504000D01*
X130200952Y-97408762D01*
X132867618Y-99408762D02*
X131915237Y-99408762D01*
X131915237Y-97408762D01*
X133534285Y-98361143D02*
X134200952Y-98361143D01*
X134486666Y-99408762D02*
X133534285Y-99408762D01*
X133534285Y-97408762D01*
X134486666Y-97408762D01*
X135343809Y-99408762D02*
X135343809Y-97408762D01*
X135820000Y-97408762D01*
X136105714Y-97504000D01*
X136296190Y-97694476D01*
X136391429Y-97884952D01*
X136486667Y-98265905D01*
X136486667Y-98551619D01*
X136391429Y-98932571D01*
X136296190Y-99123048D01*
X136105714Y-99313524D01*
X135820000Y-99408762D01*
X135343809Y-99408762D01*
X138867619Y-99408762D02*
X138867619Y-97408762D01*
X139343810Y-97408762D01*
X139629524Y-97504000D01*
X139820000Y-97694476D01*
X139915239Y-97884952D01*
X140010477Y-98265905D01*
X140010477Y-98551619D01*
X139915239Y-98932571D01*
X139820000Y-99123048D01*
X139629524Y-99313524D01*
X139343810Y-99408762D01*
X138867619Y-99408762D01*
X140867619Y-99408762D02*
X140867619Y-97408762D01*
X141724762Y-99313524D02*
X142010477Y-99408762D01*
X142486667Y-99408762D01*
X142677143Y-99313524D01*
X142772381Y-99218286D01*
X142867620Y-99027810D01*
X142867620Y-98837333D01*
X142772381Y-98646857D01*
X142677143Y-98551619D01*
X142486667Y-98456381D01*
X142105715Y-98361143D01*
X141915239Y-98265905D01*
X141820000Y-98170667D01*
X141724762Y-97980190D01*
X141724762Y-97789714D01*
X141820000Y-97599238D01*
X141915239Y-97504000D01*
X142105715Y-97408762D01*
X142581905Y-97408762D01*
X142867620Y-97504000D01*
X143724762Y-99408762D02*
X143724762Y-97408762D01*
X144486667Y-97408762D01*
X144677143Y-97504000D01*
X144772382Y-97599238D01*
X144867620Y-97789714D01*
X144867620Y-98075429D01*
X144772382Y-98265905D01*
X144677143Y-98361143D01*
X144486667Y-98456381D01*
X143724762Y-98456381D01*
X146677143Y-99408762D02*
X145724762Y-99408762D01*
X145724762Y-97408762D01*
X147248572Y-98837333D02*
X148200953Y-98837333D01*
X147058096Y-99408762D02*
X147724763Y-97408762D01*
X148391430Y-99408762D01*
X149439049Y-98456381D02*
X149439049Y-99408762D01*
X148772382Y-97408762D02*
X149439049Y-98456381D01*
X150105716Y-97408762D01*
X169022381Y-70422381D02*
X169022381Y-69422381D01*
X169403334Y-69422381D01*
X169498572Y-69470000D01*
X169546191Y-69517619D01*
X169593810Y-69612857D01*
X169593810Y-69755714D01*
X169546191Y-69850952D01*
X169498572Y-69898571D01*
X169403334Y-69946190D01*
X169022381Y-69946190D01*
X169879524Y-69422381D02*
X170450953Y-69422381D01*
X170165238Y-70422381D02*
X170165238Y-69422381D01*
X170736667Y-70374762D02*
X170879524Y-70422381D01*
X171117620Y-70422381D01*
X171212858Y-70374762D01*
X171260477Y-70327143D01*
X171308096Y-70231905D01*
X171308096Y-70136667D01*
X171260477Y-70041429D01*
X171212858Y-69993810D01*
X171117620Y-69946190D01*
X170927143Y-69898571D01*
X170831905Y-69850952D01*
X170784286Y-69803333D01*
X170736667Y-69708095D01*
X170736667Y-69612857D01*
X170784286Y-69517619D01*
X170831905Y-69470000D01*
X170927143Y-69422381D01*
X171165239Y-69422381D01*
X171308096Y-69470000D01*
X172165239Y-69422381D02*
X171974762Y-69422381D01*
X171879524Y-69470000D01*
X171831905Y-69517619D01*
X171736667Y-69660476D01*
X171689048Y-69850952D01*
X171689048Y-70231905D01*
X171736667Y-70327143D01*
X171784286Y-70374762D01*
X171879524Y-70422381D01*
X172070001Y-70422381D01*
X172165239Y-70374762D01*
X172212858Y-70327143D01*
X172260477Y-70231905D01*
X172260477Y-69993810D01*
X172212858Y-69898571D01*
X172165239Y-69850952D01*
X172070001Y-69803333D01*
X171879524Y-69803333D01*
X171784286Y-69850952D01*
X171736667Y-69898571D01*
X171689048Y-69993810D01*
X173117620Y-69755714D02*
X173117620Y-70422381D01*
X172879524Y-69374762D02*
X172641429Y-70089048D01*
X173260477Y-70089048D01*
X174117620Y-69422381D02*
X173641429Y-69422381D01*
X173593810Y-69898571D01*
X173641429Y-69850952D01*
X173736667Y-69803333D01*
X173974763Y-69803333D01*
X174070001Y-69850952D01*
X174117620Y-69898571D01*
X174165239Y-69993810D01*
X174165239Y-70231905D01*
X174117620Y-70327143D01*
X174070001Y-70374762D01*
X173974763Y-70422381D01*
X173736667Y-70422381D01*
X173641429Y-70374762D01*
X173593810Y-70327143D01*
X170260477Y-78098571D02*
X170403334Y-78146190D01*
X170450953Y-78193810D01*
X170498572Y-78289048D01*
X170498572Y-78431905D01*
X170450953Y-78527143D01*
X170403334Y-78574762D01*
X170308096Y-78622381D01*
X169927143Y-78622381D01*
X169927143Y-77622381D01*
X170260477Y-77622381D01*
X170355715Y-77670000D01*
X170403334Y-77717619D01*
X170450953Y-77812857D01*
X170450953Y-77908095D01*
X170403334Y-78003333D01*
X170355715Y-78050952D01*
X170260477Y-78098571D01*
X169927143Y-78098571D01*
X170784286Y-77622381D02*
X171355715Y-77622381D01*
X171070000Y-78622381D02*
X171070000Y-77622381D01*
X171689048Y-78622381D02*
X171689048Y-77622381D01*
X172260477Y-78622381D01*
X172260477Y-77622381D01*
X172927143Y-77622381D02*
X173022382Y-77622381D01*
X173117620Y-77670000D01*
X173165239Y-77717619D01*
X173212858Y-77812857D01*
X173260477Y-78003333D01*
X173260477Y-78241429D01*
X173212858Y-78431905D01*
X173165239Y-78527143D01*
X173117620Y-78574762D01*
X173022382Y-78622381D01*
X172927143Y-78622381D01*
X172831905Y-78574762D01*
X172784286Y-78527143D01*
X172736667Y-78431905D01*
X172689048Y-78241429D01*
X172689048Y-78003333D01*
X172736667Y-77812857D01*
X172784286Y-77717619D01*
X172831905Y-77670000D01*
X172927143Y-77622381D01*
X102982381Y-93962381D02*
X102982381Y-92962381D01*
X103363334Y-92962381D01*
X103458572Y-93010000D01*
X103506191Y-93057619D01*
X103553810Y-93152857D01*
X103553810Y-93295714D01*
X103506191Y-93390952D01*
X103458572Y-93438571D01*
X103363334Y-93486190D01*
X102982381Y-93486190D01*
X103839524Y-92962381D02*
X104410953Y-92962381D01*
X104125238Y-93962381D02*
X104125238Y-92962381D01*
X104696667Y-93914762D02*
X104839524Y-93962381D01*
X105077620Y-93962381D01*
X105172858Y-93914762D01*
X105220477Y-93867143D01*
X105268096Y-93771905D01*
X105268096Y-93676667D01*
X105220477Y-93581429D01*
X105172858Y-93533810D01*
X105077620Y-93486190D01*
X104887143Y-93438571D01*
X104791905Y-93390952D01*
X104744286Y-93343333D01*
X104696667Y-93248095D01*
X104696667Y-93152857D01*
X104744286Y-93057619D01*
X104791905Y-93010000D01*
X104887143Y-92962381D01*
X105125239Y-92962381D01*
X105268096Y-93010000D01*
X106125239Y-92962381D02*
X105934762Y-92962381D01*
X105839524Y-93010000D01*
X105791905Y-93057619D01*
X105696667Y-93200476D01*
X105649048Y-93390952D01*
X105649048Y-93771905D01*
X105696667Y-93867143D01*
X105744286Y-93914762D01*
X105839524Y-93962381D01*
X106030001Y-93962381D01*
X106125239Y-93914762D01*
X106172858Y-93867143D01*
X106220477Y-93771905D01*
X106220477Y-93533810D01*
X106172858Y-93438571D01*
X106125239Y-93390952D01*
X106030001Y-93343333D01*
X105839524Y-93343333D01*
X105744286Y-93390952D01*
X105696667Y-93438571D01*
X105649048Y-93533810D01*
X107077620Y-93295714D02*
X107077620Y-93962381D01*
X106839524Y-92914762D02*
X106601429Y-93629048D01*
X107220477Y-93629048D01*
X108077620Y-92962381D02*
X107601429Y-92962381D01*
X107553810Y-93438571D01*
X107601429Y-93390952D01*
X107696667Y-93343333D01*
X107934763Y-93343333D01*
X108030001Y-93390952D01*
X108077620Y-93438571D01*
X108125239Y-93533810D01*
X108125239Y-93771905D01*
X108077620Y-93867143D01*
X108030001Y-93914762D01*
X107934763Y-93962381D01*
X107696667Y-93962381D01*
X107601429Y-93914762D01*
X107553810Y-93867143D01*
X104220477Y-85238571D02*
X104363334Y-85286190D01*
X104410953Y-85333810D01*
X104458572Y-85429048D01*
X104458572Y-85571905D01*
X104410953Y-85667143D01*
X104363334Y-85714762D01*
X104268096Y-85762381D01*
X103887143Y-85762381D01*
X103887143Y-84762381D01*
X104220477Y-84762381D01*
X104315715Y-84810000D01*
X104363334Y-84857619D01*
X104410953Y-84952857D01*
X104410953Y-85048095D01*
X104363334Y-85143333D01*
X104315715Y-85190952D01*
X104220477Y-85238571D01*
X103887143Y-85238571D01*
X104744286Y-84762381D02*
X105315715Y-84762381D01*
X105030000Y-85762381D02*
X105030000Y-84762381D01*
X105649048Y-85762381D02*
X105649048Y-84762381D01*
X106220477Y-85762381D01*
X106220477Y-84762381D01*
X107220477Y-85762381D02*
X106649048Y-85762381D01*
X106934762Y-85762381D02*
X106934762Y-84762381D01*
X106839524Y-84905238D01*
X106744286Y-85000476D01*
X106649048Y-85048095D01*
X114412381Y-93962381D02*
X114412381Y-92962381D01*
X114793334Y-92962381D01*
X114888572Y-93010000D01*
X114936191Y-93057619D01*
X114983810Y-93152857D01*
X114983810Y-93295714D01*
X114936191Y-93390952D01*
X114888572Y-93438571D01*
X114793334Y-93486190D01*
X114412381Y-93486190D01*
X115269524Y-92962381D02*
X115840953Y-92962381D01*
X115555238Y-93962381D02*
X115555238Y-92962381D01*
X116126667Y-93914762D02*
X116269524Y-93962381D01*
X116507620Y-93962381D01*
X116602858Y-93914762D01*
X116650477Y-93867143D01*
X116698096Y-93771905D01*
X116698096Y-93676667D01*
X116650477Y-93581429D01*
X116602858Y-93533810D01*
X116507620Y-93486190D01*
X116317143Y-93438571D01*
X116221905Y-93390952D01*
X116174286Y-93343333D01*
X116126667Y-93248095D01*
X116126667Y-93152857D01*
X116174286Y-93057619D01*
X116221905Y-93010000D01*
X116317143Y-92962381D01*
X116555239Y-92962381D01*
X116698096Y-93010000D01*
X117555239Y-92962381D02*
X117364762Y-92962381D01*
X117269524Y-93010000D01*
X117221905Y-93057619D01*
X117126667Y-93200476D01*
X117079048Y-93390952D01*
X117079048Y-93771905D01*
X117126667Y-93867143D01*
X117174286Y-93914762D01*
X117269524Y-93962381D01*
X117460001Y-93962381D01*
X117555239Y-93914762D01*
X117602858Y-93867143D01*
X117650477Y-93771905D01*
X117650477Y-93533810D01*
X117602858Y-93438571D01*
X117555239Y-93390952D01*
X117460001Y-93343333D01*
X117269524Y-93343333D01*
X117174286Y-93390952D01*
X117126667Y-93438571D01*
X117079048Y-93533810D01*
X118507620Y-93295714D02*
X118507620Y-93962381D01*
X118269524Y-92914762D02*
X118031429Y-93629048D01*
X118650477Y-93629048D01*
X119507620Y-92962381D02*
X119031429Y-92962381D01*
X118983810Y-93438571D01*
X119031429Y-93390952D01*
X119126667Y-93343333D01*
X119364763Y-93343333D01*
X119460001Y-93390952D01*
X119507620Y-93438571D01*
X119555239Y-93533810D01*
X119555239Y-93771905D01*
X119507620Y-93867143D01*
X119460001Y-93914762D01*
X119364763Y-93962381D01*
X119126667Y-93962381D01*
X119031429Y-93914762D01*
X118983810Y-93867143D01*
X115650477Y-85238571D02*
X115793334Y-85286190D01*
X115840953Y-85333810D01*
X115888572Y-85429048D01*
X115888572Y-85571905D01*
X115840953Y-85667143D01*
X115793334Y-85714762D01*
X115698096Y-85762381D01*
X115317143Y-85762381D01*
X115317143Y-84762381D01*
X115650477Y-84762381D01*
X115745715Y-84810000D01*
X115793334Y-84857619D01*
X115840953Y-84952857D01*
X115840953Y-85048095D01*
X115793334Y-85143333D01*
X115745715Y-85190952D01*
X115650477Y-85238571D01*
X115317143Y-85238571D01*
X116174286Y-84762381D02*
X116745715Y-84762381D01*
X116460000Y-85762381D02*
X116460000Y-84762381D01*
X117079048Y-85762381D02*
X117079048Y-84762381D01*
X117650477Y-85762381D01*
X117650477Y-84762381D01*
X118079048Y-84857619D02*
X118126667Y-84810000D01*
X118221905Y-84762381D01*
X118460001Y-84762381D01*
X118555239Y-84810000D01*
X118602858Y-84857619D01*
X118650477Y-84952857D01*
X118650477Y-85048095D01*
X118602858Y-85190952D01*
X118031429Y-85762381D01*
X118650477Y-85762381D01*
X157592381Y-104122381D02*
X157592381Y-103122381D01*
X157973334Y-103122381D01*
X158068572Y-103170000D01*
X158116191Y-103217619D01*
X158163810Y-103312857D01*
X158163810Y-103455714D01*
X158116191Y-103550952D01*
X158068572Y-103598571D01*
X157973334Y-103646190D01*
X157592381Y-103646190D01*
X158449524Y-103122381D02*
X159020953Y-103122381D01*
X158735238Y-104122381D02*
X158735238Y-103122381D01*
X159306667Y-104074762D02*
X159449524Y-104122381D01*
X159687620Y-104122381D01*
X159782858Y-104074762D01*
X159830477Y-104027143D01*
X159878096Y-103931905D01*
X159878096Y-103836667D01*
X159830477Y-103741429D01*
X159782858Y-103693810D01*
X159687620Y-103646190D01*
X159497143Y-103598571D01*
X159401905Y-103550952D01*
X159354286Y-103503333D01*
X159306667Y-103408095D01*
X159306667Y-103312857D01*
X159354286Y-103217619D01*
X159401905Y-103170000D01*
X159497143Y-103122381D01*
X159735239Y-103122381D01*
X159878096Y-103170000D01*
X160735239Y-103122381D02*
X160544762Y-103122381D01*
X160449524Y-103170000D01*
X160401905Y-103217619D01*
X160306667Y-103360476D01*
X160259048Y-103550952D01*
X160259048Y-103931905D01*
X160306667Y-104027143D01*
X160354286Y-104074762D01*
X160449524Y-104122381D01*
X160640001Y-104122381D01*
X160735239Y-104074762D01*
X160782858Y-104027143D01*
X160830477Y-103931905D01*
X160830477Y-103693810D01*
X160782858Y-103598571D01*
X160735239Y-103550952D01*
X160640001Y-103503333D01*
X160449524Y-103503333D01*
X160354286Y-103550952D01*
X160306667Y-103598571D01*
X160259048Y-103693810D01*
X161687620Y-103455714D02*
X161687620Y-104122381D01*
X161449524Y-103074762D02*
X161211429Y-103789048D01*
X161830477Y-103789048D01*
X162687620Y-103122381D02*
X162211429Y-103122381D01*
X162163810Y-103598571D01*
X162211429Y-103550952D01*
X162306667Y-103503333D01*
X162544763Y-103503333D01*
X162640001Y-103550952D01*
X162687620Y-103598571D01*
X162735239Y-103693810D01*
X162735239Y-103931905D01*
X162687620Y-104027143D01*
X162640001Y-104074762D01*
X162544763Y-104122381D01*
X162306667Y-104122381D01*
X162211429Y-104074762D01*
X162163810Y-104027143D01*
X158830477Y-95398571D02*
X158973334Y-95446190D01*
X159020953Y-95493810D01*
X159068572Y-95589048D01*
X159068572Y-95731905D01*
X159020953Y-95827143D01*
X158973334Y-95874762D01*
X158878096Y-95922381D01*
X158497143Y-95922381D01*
X158497143Y-94922381D01*
X158830477Y-94922381D01*
X158925715Y-94970000D01*
X158973334Y-95017619D01*
X159020953Y-95112857D01*
X159020953Y-95208095D01*
X158973334Y-95303333D01*
X158925715Y-95350952D01*
X158830477Y-95398571D01*
X158497143Y-95398571D01*
X159354286Y-94922381D02*
X159925715Y-94922381D01*
X159640000Y-95922381D02*
X159640000Y-94922381D01*
X160259048Y-95922381D02*
X160259048Y-94922381D01*
X160830477Y-95922381D01*
X160830477Y-94922381D01*
X161211429Y-94922381D02*
X161830477Y-94922381D01*
X161497143Y-95303333D01*
X161640001Y-95303333D01*
X161735239Y-95350952D01*
X161782858Y-95398571D01*
X161830477Y-95493810D01*
X161830477Y-95731905D01*
X161782858Y-95827143D01*
X161735239Y-95874762D01*
X161640001Y-95922381D01*
X161354286Y-95922381D01*
X161259048Y-95874762D01*
X161211429Y-95827143D01*
X157592381Y-104712381D02*
X157592381Y-103712381D01*
X157973334Y-103712381D01*
X158068572Y-103760000D01*
X158116191Y-103807619D01*
X158163810Y-103902857D01*
X158163810Y-104045714D01*
X158116191Y-104140952D01*
X158068572Y-104188571D01*
X157973334Y-104236190D01*
X157592381Y-104236190D01*
X158449524Y-103712381D02*
X159020953Y-103712381D01*
X158735238Y-104712381D02*
X158735238Y-103712381D01*
X159306667Y-104664762D02*
X159449524Y-104712381D01*
X159687620Y-104712381D01*
X159782858Y-104664762D01*
X159830477Y-104617143D01*
X159878096Y-104521905D01*
X159878096Y-104426667D01*
X159830477Y-104331429D01*
X159782858Y-104283810D01*
X159687620Y-104236190D01*
X159497143Y-104188571D01*
X159401905Y-104140952D01*
X159354286Y-104093333D01*
X159306667Y-103998095D01*
X159306667Y-103902857D01*
X159354286Y-103807619D01*
X159401905Y-103760000D01*
X159497143Y-103712381D01*
X159735239Y-103712381D01*
X159878096Y-103760000D01*
X160735239Y-103712381D02*
X160544762Y-103712381D01*
X160449524Y-103760000D01*
X160401905Y-103807619D01*
X160306667Y-103950476D01*
X160259048Y-104140952D01*
X160259048Y-104521905D01*
X160306667Y-104617143D01*
X160354286Y-104664762D01*
X160449524Y-104712381D01*
X160640001Y-104712381D01*
X160735239Y-104664762D01*
X160782858Y-104617143D01*
X160830477Y-104521905D01*
X160830477Y-104283810D01*
X160782858Y-104188571D01*
X160735239Y-104140952D01*
X160640001Y-104093333D01*
X160449524Y-104093333D01*
X160354286Y-104140952D01*
X160306667Y-104188571D01*
X160259048Y-104283810D01*
X161687620Y-104045714D02*
X161687620Y-104712381D01*
X161449524Y-103664762D02*
X161211429Y-104379048D01*
X161830477Y-104379048D01*
X162687620Y-103712381D02*
X162211429Y-103712381D01*
X162163810Y-104188571D01*
X162211429Y-104140952D01*
X162306667Y-104093333D01*
X162544763Y-104093333D01*
X162640001Y-104140952D01*
X162687620Y-104188571D01*
X162735239Y-104283810D01*
X162735239Y-104521905D01*
X162687620Y-104617143D01*
X162640001Y-104664762D01*
X162544763Y-104712381D01*
X162306667Y-104712381D01*
X162211429Y-104664762D01*
X162163810Y-104617143D01*
X158830477Y-112388571D02*
X158973334Y-112436190D01*
X159020953Y-112483810D01*
X159068572Y-112579048D01*
X159068572Y-112721905D01*
X159020953Y-112817143D01*
X158973334Y-112864762D01*
X158878096Y-112912381D01*
X158497143Y-112912381D01*
X158497143Y-111912381D01*
X158830477Y-111912381D01*
X158925715Y-111960000D01*
X158973334Y-112007619D01*
X159020953Y-112102857D01*
X159020953Y-112198095D01*
X158973334Y-112293333D01*
X158925715Y-112340952D01*
X158830477Y-112388571D01*
X158497143Y-112388571D01*
X159354286Y-111912381D02*
X159925715Y-111912381D01*
X159640000Y-112912381D02*
X159640000Y-111912381D01*
X160259048Y-112912381D02*
X160259048Y-111912381D01*
X160830477Y-112912381D01*
X160830477Y-111912381D01*
X161735239Y-112245714D02*
X161735239Y-112912381D01*
X161497143Y-111864762D02*
X161259048Y-112579048D01*
X161878096Y-112579048D01*
X146162381Y-104712381D02*
X146162381Y-103712381D01*
X146543334Y-103712381D01*
X146638572Y-103760000D01*
X146686191Y-103807619D01*
X146733810Y-103902857D01*
X146733810Y-104045714D01*
X146686191Y-104140952D01*
X146638572Y-104188571D01*
X146543334Y-104236190D01*
X146162381Y-104236190D01*
X147019524Y-103712381D02*
X147590953Y-103712381D01*
X147305238Y-104712381D02*
X147305238Y-103712381D01*
X147876667Y-104664762D02*
X148019524Y-104712381D01*
X148257620Y-104712381D01*
X148352858Y-104664762D01*
X148400477Y-104617143D01*
X148448096Y-104521905D01*
X148448096Y-104426667D01*
X148400477Y-104331429D01*
X148352858Y-104283810D01*
X148257620Y-104236190D01*
X148067143Y-104188571D01*
X147971905Y-104140952D01*
X147924286Y-104093333D01*
X147876667Y-103998095D01*
X147876667Y-103902857D01*
X147924286Y-103807619D01*
X147971905Y-103760000D01*
X148067143Y-103712381D01*
X148305239Y-103712381D01*
X148448096Y-103760000D01*
X149305239Y-103712381D02*
X149114762Y-103712381D01*
X149019524Y-103760000D01*
X148971905Y-103807619D01*
X148876667Y-103950476D01*
X148829048Y-104140952D01*
X148829048Y-104521905D01*
X148876667Y-104617143D01*
X148924286Y-104664762D01*
X149019524Y-104712381D01*
X149210001Y-104712381D01*
X149305239Y-104664762D01*
X149352858Y-104617143D01*
X149400477Y-104521905D01*
X149400477Y-104283810D01*
X149352858Y-104188571D01*
X149305239Y-104140952D01*
X149210001Y-104093333D01*
X149019524Y-104093333D01*
X148924286Y-104140952D01*
X148876667Y-104188571D01*
X148829048Y-104283810D01*
X150257620Y-104045714D02*
X150257620Y-104712381D01*
X150019524Y-103664762D02*
X149781429Y-104379048D01*
X150400477Y-104379048D01*
X151257620Y-103712381D02*
X150781429Y-103712381D01*
X150733810Y-104188571D01*
X150781429Y-104140952D01*
X150876667Y-104093333D01*
X151114763Y-104093333D01*
X151210001Y-104140952D01*
X151257620Y-104188571D01*
X151305239Y-104283810D01*
X151305239Y-104521905D01*
X151257620Y-104617143D01*
X151210001Y-104664762D01*
X151114763Y-104712381D01*
X150876667Y-104712381D01*
X150781429Y-104664762D01*
X150733810Y-104617143D01*
X147400477Y-112388571D02*
X147543334Y-112436190D01*
X147590953Y-112483810D01*
X147638572Y-112579048D01*
X147638572Y-112721905D01*
X147590953Y-112817143D01*
X147543334Y-112864762D01*
X147448096Y-112912381D01*
X147067143Y-112912381D01*
X147067143Y-111912381D01*
X147400477Y-111912381D01*
X147495715Y-111960000D01*
X147543334Y-112007619D01*
X147590953Y-112102857D01*
X147590953Y-112198095D01*
X147543334Y-112293333D01*
X147495715Y-112340952D01*
X147400477Y-112388571D01*
X147067143Y-112388571D01*
X147924286Y-111912381D02*
X148495715Y-111912381D01*
X148210000Y-112912381D02*
X148210000Y-111912381D01*
X148829048Y-112912381D02*
X148829048Y-111912381D01*
X149400477Y-112912381D01*
X149400477Y-111912381D01*
X150352858Y-111912381D02*
X149876667Y-111912381D01*
X149829048Y-112388571D01*
X149876667Y-112340952D01*
X149971905Y-112293333D01*
X150210001Y-112293333D01*
X150305239Y-112340952D01*
X150352858Y-112388571D01*
X150400477Y-112483810D01*
X150400477Y-112721905D01*
X150352858Y-112817143D01*
X150305239Y-112864762D01*
X150210001Y-112912381D01*
X149971905Y-112912381D01*
X149876667Y-112864762D01*
X149829048Y-112817143D01*
X169022381Y-104712381D02*
X169022381Y-103712381D01*
X169403334Y-103712381D01*
X169498572Y-103760000D01*
X169546191Y-103807619D01*
X169593810Y-103902857D01*
X169593810Y-104045714D01*
X169546191Y-104140952D01*
X169498572Y-104188571D01*
X169403334Y-104236190D01*
X169022381Y-104236190D01*
X169879524Y-103712381D02*
X170450953Y-103712381D01*
X170165238Y-104712381D02*
X170165238Y-103712381D01*
X170736667Y-104664762D02*
X170879524Y-104712381D01*
X171117620Y-104712381D01*
X171212858Y-104664762D01*
X171260477Y-104617143D01*
X171308096Y-104521905D01*
X171308096Y-104426667D01*
X171260477Y-104331429D01*
X171212858Y-104283810D01*
X171117620Y-104236190D01*
X170927143Y-104188571D01*
X170831905Y-104140952D01*
X170784286Y-104093333D01*
X170736667Y-103998095D01*
X170736667Y-103902857D01*
X170784286Y-103807619D01*
X170831905Y-103760000D01*
X170927143Y-103712381D01*
X171165239Y-103712381D01*
X171308096Y-103760000D01*
X172165239Y-103712381D02*
X171974762Y-103712381D01*
X171879524Y-103760000D01*
X171831905Y-103807619D01*
X171736667Y-103950476D01*
X171689048Y-104140952D01*
X171689048Y-104521905D01*
X171736667Y-104617143D01*
X171784286Y-104664762D01*
X171879524Y-104712381D01*
X172070001Y-104712381D01*
X172165239Y-104664762D01*
X172212858Y-104617143D01*
X172260477Y-104521905D01*
X172260477Y-104283810D01*
X172212858Y-104188571D01*
X172165239Y-104140952D01*
X172070001Y-104093333D01*
X171879524Y-104093333D01*
X171784286Y-104140952D01*
X171736667Y-104188571D01*
X171689048Y-104283810D01*
X173117620Y-104045714D02*
X173117620Y-104712381D01*
X172879524Y-103664762D02*
X172641429Y-104379048D01*
X173260477Y-104379048D01*
X174117620Y-103712381D02*
X173641429Y-103712381D01*
X173593810Y-104188571D01*
X173641429Y-104140952D01*
X173736667Y-104093333D01*
X173974763Y-104093333D01*
X174070001Y-104140952D01*
X174117620Y-104188571D01*
X174165239Y-104283810D01*
X174165239Y-104521905D01*
X174117620Y-104617143D01*
X174070001Y-104664762D01*
X173974763Y-104712381D01*
X173736667Y-104712381D01*
X173641429Y-104664762D01*
X173593810Y-104617143D01*
X170260477Y-112388571D02*
X170403334Y-112436190D01*
X170450953Y-112483810D01*
X170498572Y-112579048D01*
X170498572Y-112721905D01*
X170450953Y-112817143D01*
X170403334Y-112864762D01*
X170308096Y-112912381D01*
X169927143Y-112912381D01*
X169927143Y-111912381D01*
X170260477Y-111912381D01*
X170355715Y-111960000D01*
X170403334Y-112007619D01*
X170450953Y-112102857D01*
X170450953Y-112198095D01*
X170403334Y-112293333D01*
X170355715Y-112340952D01*
X170260477Y-112388571D01*
X169927143Y-112388571D01*
X170784286Y-111912381D02*
X171355715Y-111912381D01*
X171070000Y-112912381D02*
X171070000Y-111912381D01*
X171689048Y-112912381D02*
X171689048Y-111912381D01*
X172260477Y-112912381D01*
X172260477Y-111912381D01*
X173165239Y-111912381D02*
X172974762Y-111912381D01*
X172879524Y-111960000D01*
X172831905Y-112007619D01*
X172736667Y-112150476D01*
X172689048Y-112340952D01*
X172689048Y-112721905D01*
X172736667Y-112817143D01*
X172784286Y-112864762D01*
X172879524Y-112912381D01*
X173070001Y-112912381D01*
X173165239Y-112864762D01*
X173212858Y-112817143D01*
X173260477Y-112721905D01*
X173260477Y-112483810D01*
X173212858Y-112388571D01*
X173165239Y-112340952D01*
X173070001Y-112293333D01*
X172879524Y-112293333D01*
X172784286Y-112340952D01*
X172736667Y-112388571D01*
X172689048Y-112483810D01*
X167572381Y-76167619D02*
X166572381Y-76167619D01*
X166572381Y-75929524D01*
X166620000Y-75786666D01*
X166715238Y-75691428D01*
X166810476Y-75643809D01*
X167000952Y-75596190D01*
X167143810Y-75596190D01*
X167334286Y-75643809D01*
X167429524Y-75691428D01*
X167524762Y-75786666D01*
X167572381Y-75929524D01*
X167572381Y-76167619D01*
X167572381Y-75167619D02*
X166572381Y-75167619D01*
X167572381Y-74691429D02*
X166572381Y-74691429D01*
X166572381Y-74310476D01*
X166620000Y-74215238D01*
X166667619Y-74167619D01*
X166762857Y-74120000D01*
X166905714Y-74120000D01*
X167000952Y-74167619D01*
X167048571Y-74215238D01*
X167096190Y-74310476D01*
X167096190Y-74691429D01*
X167524762Y-73739048D02*
X167572381Y-73596191D01*
X167572381Y-73358095D01*
X167524762Y-73262857D01*
X167477143Y-73215238D01*
X167381905Y-73167619D01*
X167286667Y-73167619D01*
X167191429Y-73215238D01*
X167143810Y-73262857D01*
X167096190Y-73358095D01*
X167048571Y-73548572D01*
X167000952Y-73643810D01*
X166953333Y-73691429D01*
X166858095Y-73739048D01*
X166762857Y-73739048D01*
X166667619Y-73691429D01*
X166620000Y-73643810D01*
X166572381Y-73548572D01*
X166572381Y-73310476D01*
X166620000Y-73167619D01*
X166572381Y-72834286D02*
X167572381Y-72596191D01*
X166858095Y-72405714D01*
X167572381Y-72215238D01*
X166572381Y-71977143D01*
X130954762Y-76350381D02*
X130478571Y-76350381D01*
X130478571Y-75350381D01*
X131621429Y-75826571D02*
X131288095Y-75826571D01*
X131288095Y-76350381D02*
X131288095Y-75350381D01*
X131764286Y-75350381D01*
X132145238Y-75826571D02*
X132478572Y-75826571D01*
X132621429Y-76350381D02*
X132145238Y-76350381D01*
X132145238Y-75350381D01*
X132621429Y-75350381D01*
X133526191Y-75350381D02*
X133050000Y-75350381D01*
X133002381Y-75826571D01*
X133050000Y-75778952D01*
X133145238Y-75731333D01*
X133383334Y-75731333D01*
X133478572Y-75778952D01*
X133526191Y-75826571D01*
X133573810Y-75921810D01*
X133573810Y-76159905D01*
X133526191Y-76255143D01*
X133478572Y-76302762D01*
X133383334Y-76350381D01*
X133145238Y-76350381D01*
X133050000Y-76302762D01*
X133002381Y-76255143D01*
X134002381Y-75350381D02*
X134002381Y-76159905D01*
X134050000Y-76255143D01*
X134097619Y-76302762D01*
X134192857Y-76350381D01*
X134383334Y-76350381D01*
X134478572Y-76302762D01*
X134526191Y-76255143D01*
X134573810Y-76159905D01*
X134573810Y-75350381D01*
X135050000Y-75969429D02*
X135811905Y-75969429D01*
X136716667Y-75683714D02*
X136716667Y-76350381D01*
X136478571Y-75302762D02*
X136240476Y-76017048D01*
X136859524Y-76017048D01*
X137716667Y-75350381D02*
X137240476Y-75350381D01*
X137192857Y-75826571D01*
X137240476Y-75778952D01*
X137335714Y-75731333D01*
X137573810Y-75731333D01*
X137669048Y-75778952D01*
X137716667Y-75826571D01*
X137764286Y-75921810D01*
X137764286Y-76159905D01*
X137716667Y-76255143D01*
X137669048Y-76302762D01*
X137573810Y-76350381D01*
X137335714Y-76350381D01*
X137240476Y-76302762D01*
X137192857Y-76255143D01*
X138526191Y-75826571D02*
X138192857Y-75826571D01*
X138192857Y-76350381D02*
X138192857Y-75350381D01*
X138669048Y-75350381D01*
X139050000Y-75969429D02*
X139811905Y-75969429D01*
X140716667Y-75350381D02*
X140526190Y-75350381D01*
X140430952Y-75398000D01*
X140383333Y-75445619D01*
X140288095Y-75588476D01*
X140240476Y-75778952D01*
X140240476Y-76159905D01*
X140288095Y-76255143D01*
X140335714Y-76302762D01*
X140430952Y-76350381D01*
X140621429Y-76350381D01*
X140716667Y-76302762D01*
X140764286Y-76255143D01*
X140811905Y-76159905D01*
X140811905Y-75921810D01*
X140764286Y-75826571D01*
X140716667Y-75778952D01*
X140621429Y-75731333D01*
X140430952Y-75731333D01*
X140335714Y-75778952D01*
X140288095Y-75826571D01*
X140240476Y-75921810D01*
X141573810Y-75826571D02*
X141716667Y-75874190D01*
X141764286Y-75921810D01*
X141811905Y-76017048D01*
X141811905Y-76159905D01*
X141764286Y-76255143D01*
X141716667Y-76302762D01*
X141621429Y-76350381D01*
X141240476Y-76350381D01*
X141240476Y-75350381D01*
X141573810Y-75350381D01*
X141669048Y-75398000D01*
X141716667Y-75445619D01*
X141764286Y-75540857D01*
X141764286Y-75636095D01*
X141716667Y-75731333D01*
X141669048Y-75778952D01*
X141573810Y-75826571D01*
X141240476Y-75826571D01*
X142764286Y-75398000D02*
X142669048Y-75350381D01*
X142526191Y-75350381D01*
X142383333Y-75398000D01*
X142288095Y-75493238D01*
X142240476Y-75588476D01*
X142192857Y-75778952D01*
X142192857Y-75921810D01*
X142240476Y-76112286D01*
X142288095Y-76207524D01*
X142383333Y-76302762D01*
X142526191Y-76350381D01*
X142621429Y-76350381D01*
X142764286Y-76302762D01*
X142811905Y-76255143D01*
X142811905Y-75921810D01*
X142621429Y-75921810D01*
X143145238Y-75350381D02*
X143764286Y-75350381D01*
X143430952Y-75731333D01*
X143573810Y-75731333D01*
X143669048Y-75778952D01*
X143716667Y-75826571D01*
X143764286Y-75921810D01*
X143764286Y-76159905D01*
X143716667Y-76255143D01*
X143669048Y-76302762D01*
X143573810Y-76350381D01*
X143288095Y-76350381D01*
X143192857Y-76302762D01*
X143145238Y-76255143D01*
X144335714Y-75778952D02*
X144240476Y-75731333D01*
X144192857Y-75683714D01*
X144145238Y-75588476D01*
X144145238Y-75540857D01*
X144192857Y-75445619D01*
X144240476Y-75398000D01*
X144335714Y-75350381D01*
X144526191Y-75350381D01*
X144621429Y-75398000D01*
X144669048Y-75445619D01*
X144716667Y-75540857D01*
X144716667Y-75588476D01*
X144669048Y-75683714D01*
X144621429Y-75731333D01*
X144526191Y-75778952D01*
X144335714Y-75778952D01*
X144240476Y-75826571D01*
X144192857Y-75874190D01*
X144145238Y-75969429D01*
X144145238Y-76159905D01*
X144192857Y-76255143D01*
X144240476Y-76302762D01*
X144335714Y-76350381D01*
X144526191Y-76350381D01*
X144621429Y-76302762D01*
X144669048Y-76255143D01*
X144716667Y-76159905D01*
X144716667Y-75969429D01*
X144669048Y-75874190D01*
X144621429Y-75826571D01*
X144526191Y-75778952D01*
X145669048Y-76350381D02*
X145097619Y-76350381D01*
X145383333Y-76350381D02*
X145383333Y-75350381D01*
X145288095Y-75493238D01*
X145192857Y-75588476D01*
X145097619Y-75636095D01*
X146669048Y-76255143D02*
X146621429Y-76302762D01*
X146478572Y-76350381D01*
X146383334Y-76350381D01*
X146240476Y-76302762D01*
X146145238Y-76207524D01*
X146097619Y-76112286D01*
X146050000Y-75921810D01*
X146050000Y-75778952D01*
X146097619Y-75588476D01*
X146145238Y-75493238D01*
X146240476Y-75398000D01*
X146383334Y-75350381D01*
X146478572Y-75350381D01*
X146621429Y-75398000D01*
X146669048Y-75445619D01*
X127328571Y-107179523D02*
X127376190Y-107036666D01*
X127423810Y-106989047D01*
X127519048Y-106941428D01*
X127661905Y-106941428D01*
X127757143Y-106989047D01*
X127804762Y-107036666D01*
X127852381Y-107131904D01*
X127852381Y-107512857D01*
X126852381Y-107512857D01*
X126852381Y-107179523D01*
X126900000Y-107084285D01*
X126947619Y-107036666D01*
X127042857Y-106989047D01*
X127138095Y-106989047D01*
X127233333Y-107036666D01*
X127280952Y-107084285D01*
X127328571Y-107179523D01*
X127328571Y-107512857D01*
X127852381Y-106036666D02*
X127852381Y-106512857D01*
X126852381Y-106512857D01*
X126852381Y-105703333D02*
X127661905Y-105703333D01*
X127757143Y-105655714D01*
X127804762Y-105608095D01*
X127852381Y-105512857D01*
X127852381Y-105322380D01*
X127804762Y-105227142D01*
X127757143Y-105179523D01*
X127661905Y-105131904D01*
X126852381Y-105131904D01*
X127328571Y-104655714D02*
X127328571Y-104322380D01*
X127852381Y-104179523D02*
X127852381Y-104655714D01*
X126852381Y-104655714D01*
X126852381Y-104179523D01*
D10*
X124780952Y-106355714D02*
X124380952Y-106355714D01*
X124380952Y-106260476D01*
X124400000Y-106203333D01*
X124438095Y-106165238D01*
X124476190Y-106146190D01*
X124552381Y-106127142D01*
X124609524Y-106127142D01*
X124685714Y-106146190D01*
X124723810Y-106165238D01*
X124761905Y-106203333D01*
X124780952Y-106260476D01*
X124780952Y-106355714D01*
X124419048Y-105974762D02*
X124400000Y-105955714D01*
X124380952Y-105917619D01*
X124380952Y-105822381D01*
X124400000Y-105784285D01*
X124419048Y-105765238D01*
X124457143Y-105746190D01*
X124495238Y-105746190D01*
X124552381Y-105765238D01*
X124780952Y-105993809D01*
X124780952Y-105746190D01*
X124419048Y-105593810D02*
X124400000Y-105574762D01*
X124380952Y-105536667D01*
X124380952Y-105441429D01*
X124400000Y-105403333D01*
X124419048Y-105384286D01*
X124457143Y-105365238D01*
X124495238Y-105365238D01*
X124552381Y-105384286D01*
X124780952Y-105612857D01*
X124780952Y-105365238D01*
D11*
X124752381Y-109799047D02*
X124752381Y-110370476D01*
X124752381Y-110084762D02*
X123752381Y-110084762D01*
X123895238Y-110180000D01*
X123990476Y-110275238D01*
X124038095Y-110370476D01*
X124752381Y-109370476D02*
X123752381Y-109370476D01*
X124371429Y-109275238D02*
X124752381Y-108989523D01*
X124085714Y-108989523D02*
X124466667Y-109370476D01*
D12*
X126030952Y-109937142D02*
X125840476Y-110070476D01*
X126030952Y-110165714D02*
X125630952Y-110165714D01*
X125630952Y-110013333D01*
X125650000Y-109975238D01*
X125669048Y-109956190D01*
X125707143Y-109937142D01*
X125764286Y-109937142D01*
X125802381Y-109956190D01*
X125821429Y-109975238D01*
X125840476Y-110013333D01*
X125840476Y-110165714D01*
X125630952Y-109594285D02*
X125630952Y-109670476D01*
X125650000Y-109708571D01*
X125669048Y-109727619D01*
X125726190Y-109765714D01*
X125802381Y-109784762D01*
X125954762Y-109784762D01*
X125992857Y-109765714D01*
X126011905Y-109746666D01*
X126030952Y-109708571D01*
X126030952Y-109632381D01*
X126011905Y-109594285D01*
X125992857Y-109575238D01*
X125954762Y-109556190D01*
X125859524Y-109556190D01*
X125821429Y-109575238D01*
X125802381Y-109594285D01*
X125783333Y-109632381D01*
X125783333Y-109708571D01*
X125802381Y-109746666D01*
X125821429Y-109765714D01*
X125859524Y-109784762D01*
X125669048Y-109403810D02*
X125650000Y-109384762D01*
X125630952Y-109346667D01*
X125630952Y-109251429D01*
X125650000Y-109213333D01*
X125669048Y-109194286D01*
X125707143Y-109175238D01*
X125745238Y-109175238D01*
X125802381Y-109194286D01*
X126030952Y-109422857D01*
X126030952Y-109175238D01*
D11*
X129440000Y-107536666D02*
X129392381Y-107631904D01*
X129392381Y-107774761D01*
X129440000Y-107917619D01*
X129535238Y-108012857D01*
X129630476Y-108060476D01*
X129820952Y-108108095D01*
X129963810Y-108108095D01*
X130154286Y-108060476D01*
X130249524Y-108012857D01*
X130344762Y-107917619D01*
X130392381Y-107774761D01*
X130392381Y-107679523D01*
X130344762Y-107536666D01*
X130297143Y-107489047D01*
X129963810Y-107489047D01*
X129963810Y-107679523D01*
X130392381Y-106489047D02*
X129916190Y-106822381D01*
X130392381Y-107060476D02*
X129392381Y-107060476D01*
X129392381Y-106679523D01*
X129440000Y-106584285D01*
X129487619Y-106536666D01*
X129582857Y-106489047D01*
X129725714Y-106489047D01*
X129820952Y-106536666D01*
X129868571Y-106584285D01*
X129916190Y-106679523D01*
X129916190Y-107060476D01*
X129868571Y-106060476D02*
X129868571Y-105727142D01*
X130392381Y-105584285D02*
X130392381Y-106060476D01*
X129392381Y-106060476D01*
X129392381Y-105584285D01*
X129868571Y-105155714D02*
X129868571Y-104822380D01*
X130392381Y-104679523D02*
X130392381Y-105155714D01*
X129392381Y-105155714D01*
X129392381Y-104679523D01*
X130392381Y-104250952D02*
X129392381Y-104250952D01*
X130392381Y-103679523D01*
X129392381Y-103679523D01*
D10*
X127320952Y-106355714D02*
X126920952Y-106355714D01*
X126920952Y-106260476D01*
X126940000Y-106203333D01*
X126978095Y-106165238D01*
X127016190Y-106146190D01*
X127092381Y-106127142D01*
X127149524Y-106127142D01*
X127225714Y-106146190D01*
X127263810Y-106165238D01*
X127301905Y-106203333D01*
X127320952Y-106260476D01*
X127320952Y-106355714D01*
X127320952Y-105746190D02*
X127320952Y-105974762D01*
X127320952Y-105860476D02*
X126920952Y-105860476D01*
X126978095Y-105898571D01*
X127016190Y-105936666D01*
X127035238Y-105974762D01*
X127092381Y-105517619D02*
X127073333Y-105555714D01*
X127054286Y-105574762D01*
X127016190Y-105593810D01*
X126997143Y-105593810D01*
X126959048Y-105574762D01*
X126940000Y-105555714D01*
X126920952Y-105517619D01*
X126920952Y-105441429D01*
X126940000Y-105403333D01*
X126959048Y-105384286D01*
X126997143Y-105365238D01*
X127016190Y-105365238D01*
X127054286Y-105384286D01*
X127073333Y-105403333D01*
X127092381Y-105441429D01*
X127092381Y-105517619D01*
X127111429Y-105555714D01*
X127130476Y-105574762D01*
X127168571Y-105593810D01*
X127244762Y-105593810D01*
X127282857Y-105574762D01*
X127301905Y-105555714D01*
X127320952Y-105517619D01*
X127320952Y-105441429D01*
X127301905Y-105403333D01*
X127282857Y-105384286D01*
X127244762Y-105365238D01*
X127168571Y-105365238D01*
X127130476Y-105384286D01*
X127111429Y-105403333D01*
X127092381Y-105441429D01*
D11*
X119672381Y-80477857D02*
X119196190Y-80811191D01*
X119672381Y-81049286D02*
X118672381Y-81049286D01*
X118672381Y-80668333D01*
X118720000Y-80573095D01*
X118767619Y-80525476D01*
X118862857Y-80477857D01*
X119005714Y-80477857D01*
X119100952Y-80525476D01*
X119148571Y-80573095D01*
X119196190Y-80668333D01*
X119196190Y-81049286D01*
X119148571Y-80049286D02*
X119148571Y-79715952D01*
X119672381Y-79573095D02*
X119672381Y-80049286D01*
X118672381Y-80049286D01*
X118672381Y-79573095D01*
X119672381Y-79144524D02*
X118672381Y-79144524D01*
X118672381Y-78906429D01*
X118720000Y-78763571D01*
X118815238Y-78668333D01*
X118910476Y-78620714D01*
X119100952Y-78573095D01*
X119243810Y-78573095D01*
X119434286Y-78620714D01*
X119529524Y-78668333D01*
X119624762Y-78763571D01*
X119672381Y-78906429D01*
X119672381Y-79144524D01*
D10*
X122200952Y-80130238D02*
X121800952Y-80130238D01*
X121800952Y-80035000D01*
X121820000Y-79977857D01*
X121858095Y-79939762D01*
X121896190Y-79920714D01*
X121972381Y-79901666D01*
X122029524Y-79901666D01*
X122105714Y-79920714D01*
X122143810Y-79939762D01*
X122181905Y-79977857D01*
X122200952Y-80035000D01*
X122200952Y-80130238D01*
X121800952Y-79654047D02*
X121800952Y-79615952D01*
X121820000Y-79577857D01*
X121839048Y-79558809D01*
X121877143Y-79539762D01*
X121953333Y-79520714D01*
X122048571Y-79520714D01*
X122124762Y-79539762D01*
X122162857Y-79558809D01*
X122181905Y-79577857D01*
X122200952Y-79615952D01*
X122200952Y-79654047D01*
X122181905Y-79692143D01*
X122162857Y-79711190D01*
X122124762Y-79730238D01*
X122048571Y-79749286D01*
X121953333Y-79749286D01*
X121877143Y-79730238D01*
X121839048Y-79711190D01*
X121820000Y-79692143D01*
X121800952Y-79654047D01*
D11*
X116132381Y-82335000D02*
X116132381Y-82144523D01*
X116180000Y-82049285D01*
X116275238Y-81954047D01*
X116465714Y-81906428D01*
X116799048Y-81906428D01*
X116989524Y-81954047D01*
X117084762Y-82049285D01*
X117132381Y-82144523D01*
X117132381Y-82335000D01*
X117084762Y-82430238D01*
X116989524Y-82525476D01*
X116799048Y-82573095D01*
X116465714Y-82573095D01*
X116275238Y-82525476D01*
X116180000Y-82430238D01*
X116132381Y-82335000D01*
X117132381Y-80906428D02*
X116656190Y-81239762D01*
X117132381Y-81477857D02*
X116132381Y-81477857D01*
X116132381Y-81096904D01*
X116180000Y-81001666D01*
X116227619Y-80954047D01*
X116322857Y-80906428D01*
X116465714Y-80906428D01*
X116560952Y-80954047D01*
X116608571Y-81001666D01*
X116656190Y-81096904D01*
X116656190Y-81477857D01*
X116846667Y-80525476D02*
X116846667Y-80049285D01*
X117132381Y-80620714D02*
X116132381Y-80287381D01*
X117132381Y-79954047D01*
X117132381Y-79620714D02*
X116132381Y-79620714D01*
X117132381Y-79049285D01*
X116132381Y-79049285D01*
X116180000Y-78049285D02*
X116132381Y-78144523D01*
X116132381Y-78287380D01*
X116180000Y-78430238D01*
X116275238Y-78525476D01*
X116370476Y-78573095D01*
X116560952Y-78620714D01*
X116703810Y-78620714D01*
X116894286Y-78573095D01*
X116989524Y-78525476D01*
X117084762Y-78430238D01*
X117132381Y-78287380D01*
X117132381Y-78192142D01*
X117084762Y-78049285D01*
X117037143Y-78001666D01*
X116703810Y-78001666D01*
X116703810Y-78192142D01*
X116608571Y-77573095D02*
X116608571Y-77239761D01*
X117132381Y-77096904D02*
X117132381Y-77573095D01*
X116132381Y-77573095D01*
X116132381Y-77096904D01*
D10*
X119660952Y-80130238D02*
X119260952Y-80130238D01*
X119260952Y-80035000D01*
X119280000Y-79977857D01*
X119318095Y-79939762D01*
X119356190Y-79920714D01*
X119432381Y-79901666D01*
X119489524Y-79901666D01*
X119565714Y-79920714D01*
X119603810Y-79939762D01*
X119641905Y-79977857D01*
X119660952Y-80035000D01*
X119660952Y-80130238D01*
X119660952Y-79520714D02*
X119660952Y-79749286D01*
X119660952Y-79635000D02*
X119260952Y-79635000D01*
X119318095Y-79673095D01*
X119356190Y-79711190D01*
X119375238Y-79749286D01*
D11*
X113640000Y-81501666D02*
X113592381Y-81596904D01*
X113592381Y-81739761D01*
X113640000Y-81882619D01*
X113735238Y-81977857D01*
X113830476Y-82025476D01*
X114020952Y-82073095D01*
X114163810Y-82073095D01*
X114354286Y-82025476D01*
X114449524Y-81977857D01*
X114544762Y-81882619D01*
X114592381Y-81739761D01*
X114592381Y-81644523D01*
X114544762Y-81501666D01*
X114497143Y-81454047D01*
X114163810Y-81454047D01*
X114163810Y-81644523D01*
X114592381Y-80454047D02*
X114116190Y-80787381D01*
X114592381Y-81025476D02*
X113592381Y-81025476D01*
X113592381Y-80644523D01*
X113640000Y-80549285D01*
X113687619Y-80501666D01*
X113782857Y-80454047D01*
X113925714Y-80454047D01*
X114020952Y-80501666D01*
X114068571Y-80549285D01*
X114116190Y-80644523D01*
X114116190Y-81025476D01*
X114068571Y-80025476D02*
X114068571Y-79692142D01*
X114592381Y-79549285D02*
X114592381Y-80025476D01*
X113592381Y-80025476D01*
X113592381Y-79549285D01*
X114068571Y-79120714D02*
X114068571Y-78787380D01*
X114592381Y-78644523D02*
X114592381Y-79120714D01*
X113592381Y-79120714D01*
X113592381Y-78644523D01*
X114592381Y-78215952D02*
X113592381Y-78215952D01*
X114592381Y-77644523D01*
X113592381Y-77644523D01*
D10*
X117120952Y-80130238D02*
X116720952Y-80130238D01*
X116720952Y-80035000D01*
X116740000Y-79977857D01*
X116778095Y-79939762D01*
X116816190Y-79920714D01*
X116892381Y-79901666D01*
X116949524Y-79901666D01*
X117025714Y-79920714D01*
X117063810Y-79939762D01*
X117101905Y-79977857D01*
X117120952Y-80035000D01*
X117120952Y-80130238D01*
X116759048Y-79749286D02*
X116740000Y-79730238D01*
X116720952Y-79692143D01*
X116720952Y-79596905D01*
X116740000Y-79558809D01*
X116759048Y-79539762D01*
X116797143Y-79520714D01*
X116835238Y-79520714D01*
X116892381Y-79539762D01*
X117120952Y-79768333D01*
X117120952Y-79520714D01*
D11*
X111528571Y-81144523D02*
X111576190Y-81001666D01*
X111623810Y-80954047D01*
X111719048Y-80906428D01*
X111861905Y-80906428D01*
X111957143Y-80954047D01*
X112004762Y-81001666D01*
X112052381Y-81096904D01*
X112052381Y-81477857D01*
X111052381Y-81477857D01*
X111052381Y-81144523D01*
X111100000Y-81049285D01*
X111147619Y-81001666D01*
X111242857Y-80954047D01*
X111338095Y-80954047D01*
X111433333Y-81001666D01*
X111480952Y-81049285D01*
X111528571Y-81144523D01*
X111528571Y-81477857D01*
X112052381Y-80001666D02*
X112052381Y-80477857D01*
X111052381Y-80477857D01*
X111052381Y-79668333D02*
X111861905Y-79668333D01*
X111957143Y-79620714D01*
X112004762Y-79573095D01*
X112052381Y-79477857D01*
X112052381Y-79287380D01*
X112004762Y-79192142D01*
X111957143Y-79144523D01*
X111861905Y-79096904D01*
X111052381Y-79096904D01*
X111528571Y-78620714D02*
X111528571Y-78287380D01*
X112052381Y-78144523D02*
X112052381Y-78620714D01*
X111052381Y-78620714D01*
X111052381Y-78144523D01*
D10*
X114580952Y-80130238D02*
X114180952Y-80130238D01*
X114180952Y-80035000D01*
X114200000Y-79977857D01*
X114238095Y-79939762D01*
X114276190Y-79920714D01*
X114352381Y-79901666D01*
X114409524Y-79901666D01*
X114485714Y-79920714D01*
X114523810Y-79939762D01*
X114561905Y-79977857D01*
X114580952Y-80035000D01*
X114580952Y-80130238D01*
X114180952Y-79768333D02*
X114180952Y-79520714D01*
X114333333Y-79654047D01*
X114333333Y-79596905D01*
X114352381Y-79558809D01*
X114371429Y-79539762D01*
X114409524Y-79520714D01*
X114504762Y-79520714D01*
X114542857Y-79539762D01*
X114561905Y-79558809D01*
X114580952Y-79596905D01*
X114580952Y-79711190D01*
X114561905Y-79749286D01*
X114542857Y-79768333D01*
D11*
X109512381Y-80477857D02*
X109036190Y-80811191D01*
X109512381Y-81049286D02*
X108512381Y-81049286D01*
X108512381Y-80668333D01*
X108560000Y-80573095D01*
X108607619Y-80525476D01*
X108702857Y-80477857D01*
X108845714Y-80477857D01*
X108940952Y-80525476D01*
X108988571Y-80573095D01*
X109036190Y-80668333D01*
X109036190Y-81049286D01*
X108988571Y-80049286D02*
X108988571Y-79715952D01*
X109512381Y-79573095D02*
X109512381Y-80049286D01*
X108512381Y-80049286D01*
X108512381Y-79573095D01*
X109512381Y-79144524D02*
X108512381Y-79144524D01*
X108512381Y-78906429D01*
X108560000Y-78763571D01*
X108655238Y-78668333D01*
X108750476Y-78620714D01*
X108940952Y-78573095D01*
X109083810Y-78573095D01*
X109274286Y-78620714D01*
X109369524Y-78668333D01*
X109464762Y-78763571D01*
X109512381Y-78906429D01*
X109512381Y-79144524D01*
D10*
X112040952Y-80130238D02*
X111640952Y-80130238D01*
X111640952Y-80035000D01*
X111660000Y-79977857D01*
X111698095Y-79939762D01*
X111736190Y-79920714D01*
X111812381Y-79901666D01*
X111869524Y-79901666D01*
X111945714Y-79920714D01*
X111983810Y-79939762D01*
X112021905Y-79977857D01*
X112040952Y-80035000D01*
X112040952Y-80130238D01*
X111774286Y-79558809D02*
X112040952Y-79558809D01*
X111621905Y-79654047D02*
X111907619Y-79749286D01*
X111907619Y-79501666D01*
D11*
X105972381Y-82335000D02*
X105972381Y-82144523D01*
X106020000Y-82049285D01*
X106115238Y-81954047D01*
X106305714Y-81906428D01*
X106639048Y-81906428D01*
X106829524Y-81954047D01*
X106924762Y-82049285D01*
X106972381Y-82144523D01*
X106972381Y-82335000D01*
X106924762Y-82430238D01*
X106829524Y-82525476D01*
X106639048Y-82573095D01*
X106305714Y-82573095D01*
X106115238Y-82525476D01*
X106020000Y-82430238D01*
X105972381Y-82335000D01*
X106972381Y-80906428D02*
X106496190Y-81239762D01*
X106972381Y-81477857D02*
X105972381Y-81477857D01*
X105972381Y-81096904D01*
X106020000Y-81001666D01*
X106067619Y-80954047D01*
X106162857Y-80906428D01*
X106305714Y-80906428D01*
X106400952Y-80954047D01*
X106448571Y-81001666D01*
X106496190Y-81096904D01*
X106496190Y-81477857D01*
X106686667Y-80525476D02*
X106686667Y-80049285D01*
X106972381Y-80620714D02*
X105972381Y-80287381D01*
X106972381Y-79954047D01*
X106972381Y-79620714D02*
X105972381Y-79620714D01*
X106972381Y-79049285D01*
X105972381Y-79049285D01*
X106020000Y-78049285D02*
X105972381Y-78144523D01*
X105972381Y-78287380D01*
X106020000Y-78430238D01*
X106115238Y-78525476D01*
X106210476Y-78573095D01*
X106400952Y-78620714D01*
X106543810Y-78620714D01*
X106734286Y-78573095D01*
X106829524Y-78525476D01*
X106924762Y-78430238D01*
X106972381Y-78287380D01*
X106972381Y-78192142D01*
X106924762Y-78049285D01*
X106877143Y-78001666D01*
X106543810Y-78001666D01*
X106543810Y-78192142D01*
X106448571Y-77573095D02*
X106448571Y-77239761D01*
X106972381Y-77096904D02*
X106972381Y-77573095D01*
X105972381Y-77573095D01*
X105972381Y-77096904D01*
D10*
X109500952Y-80130238D02*
X109100952Y-80130238D01*
X109100952Y-80035000D01*
X109120000Y-79977857D01*
X109158095Y-79939762D01*
X109196190Y-79920714D01*
X109272381Y-79901666D01*
X109329524Y-79901666D01*
X109405714Y-79920714D01*
X109443810Y-79939762D01*
X109481905Y-79977857D01*
X109500952Y-80035000D01*
X109500952Y-80130238D01*
X109100952Y-79539762D02*
X109100952Y-79730238D01*
X109291429Y-79749286D01*
X109272381Y-79730238D01*
X109253333Y-79692143D01*
X109253333Y-79596905D01*
X109272381Y-79558809D01*
X109291429Y-79539762D01*
X109329524Y-79520714D01*
X109424762Y-79520714D01*
X109462857Y-79539762D01*
X109481905Y-79558809D01*
X109500952Y-79596905D01*
X109500952Y-79692143D01*
X109481905Y-79730238D01*
X109462857Y-79749286D01*
D11*
X103480000Y-81501666D02*
X103432381Y-81596904D01*
X103432381Y-81739761D01*
X103480000Y-81882619D01*
X103575238Y-81977857D01*
X103670476Y-82025476D01*
X103860952Y-82073095D01*
X104003810Y-82073095D01*
X104194286Y-82025476D01*
X104289524Y-81977857D01*
X104384762Y-81882619D01*
X104432381Y-81739761D01*
X104432381Y-81644523D01*
X104384762Y-81501666D01*
X104337143Y-81454047D01*
X104003810Y-81454047D01*
X104003810Y-81644523D01*
X104432381Y-80454047D02*
X103956190Y-80787381D01*
X104432381Y-81025476D02*
X103432381Y-81025476D01*
X103432381Y-80644523D01*
X103480000Y-80549285D01*
X103527619Y-80501666D01*
X103622857Y-80454047D01*
X103765714Y-80454047D01*
X103860952Y-80501666D01*
X103908571Y-80549285D01*
X103956190Y-80644523D01*
X103956190Y-81025476D01*
X103908571Y-80025476D02*
X103908571Y-79692142D01*
X104432381Y-79549285D02*
X104432381Y-80025476D01*
X103432381Y-80025476D01*
X103432381Y-79549285D01*
X103908571Y-79120714D02*
X103908571Y-78787380D01*
X104432381Y-78644523D02*
X104432381Y-79120714D01*
X103432381Y-79120714D01*
X103432381Y-78644523D01*
X104432381Y-78215952D02*
X103432381Y-78215952D01*
X104432381Y-77644523D01*
X103432381Y-77644523D01*
D10*
X106960952Y-80130238D02*
X106560952Y-80130238D01*
X106560952Y-80035000D01*
X106580000Y-79977857D01*
X106618095Y-79939762D01*
X106656190Y-79920714D01*
X106732381Y-79901666D01*
X106789524Y-79901666D01*
X106865714Y-79920714D01*
X106903810Y-79939762D01*
X106941905Y-79977857D01*
X106960952Y-80035000D01*
X106960952Y-80130238D01*
X106560952Y-79558809D02*
X106560952Y-79635000D01*
X106580000Y-79673095D01*
X106599048Y-79692143D01*
X106656190Y-79730238D01*
X106732381Y-79749286D01*
X106884762Y-79749286D01*
X106922857Y-79730238D01*
X106941905Y-79711190D01*
X106960952Y-79673095D01*
X106960952Y-79596905D01*
X106941905Y-79558809D01*
X106922857Y-79539762D01*
X106884762Y-79520714D01*
X106789524Y-79520714D01*
X106751429Y-79539762D01*
X106732381Y-79558809D01*
X106713333Y-79596905D01*
X106713333Y-79673095D01*
X106732381Y-79711190D01*
X106751429Y-79730238D01*
X106789524Y-79749286D01*
D11*
X101368571Y-81144523D02*
X101416190Y-81001666D01*
X101463810Y-80954047D01*
X101559048Y-80906428D01*
X101701905Y-80906428D01*
X101797143Y-80954047D01*
X101844762Y-81001666D01*
X101892381Y-81096904D01*
X101892381Y-81477857D01*
X100892381Y-81477857D01*
X100892381Y-81144523D01*
X100940000Y-81049285D01*
X100987619Y-81001666D01*
X101082857Y-80954047D01*
X101178095Y-80954047D01*
X101273333Y-81001666D01*
X101320952Y-81049285D01*
X101368571Y-81144523D01*
X101368571Y-81477857D01*
X101892381Y-80001666D02*
X101892381Y-80477857D01*
X100892381Y-80477857D01*
X100892381Y-79668333D02*
X101701905Y-79668333D01*
X101797143Y-79620714D01*
X101844762Y-79573095D01*
X101892381Y-79477857D01*
X101892381Y-79287380D01*
X101844762Y-79192142D01*
X101797143Y-79144523D01*
X101701905Y-79096904D01*
X100892381Y-79096904D01*
X101368571Y-78620714D02*
X101368571Y-78287380D01*
X101892381Y-78144523D02*
X101892381Y-78620714D01*
X100892381Y-78620714D01*
X100892381Y-78144523D01*
D10*
X104420952Y-80130238D02*
X104020952Y-80130238D01*
X104020952Y-80035000D01*
X104040000Y-79977857D01*
X104078095Y-79939762D01*
X104116190Y-79920714D01*
X104192381Y-79901666D01*
X104249524Y-79901666D01*
X104325714Y-79920714D01*
X104363810Y-79939762D01*
X104401905Y-79977857D01*
X104420952Y-80035000D01*
X104420952Y-80130238D01*
X104020952Y-79768333D02*
X104020952Y-79501666D01*
X104420952Y-79673095D01*
D11*
X132932381Y-106512857D02*
X132456190Y-106846191D01*
X132932381Y-107084286D02*
X131932381Y-107084286D01*
X131932381Y-106703333D01*
X131980000Y-106608095D01*
X132027619Y-106560476D01*
X132122857Y-106512857D01*
X132265714Y-106512857D01*
X132360952Y-106560476D01*
X132408571Y-106608095D01*
X132456190Y-106703333D01*
X132456190Y-107084286D01*
X132408571Y-106084286D02*
X132408571Y-105750952D01*
X132932381Y-105608095D02*
X132932381Y-106084286D01*
X131932381Y-106084286D01*
X131932381Y-105608095D01*
X132932381Y-105179524D02*
X131932381Y-105179524D01*
X131932381Y-104941429D01*
X131980000Y-104798571D01*
X132075238Y-104703333D01*
X132170476Y-104655714D01*
X132360952Y-104608095D01*
X132503810Y-104608095D01*
X132694286Y-104655714D01*
X132789524Y-104703333D01*
X132884762Y-104798571D01*
X132932381Y-104941429D01*
X132932381Y-105179524D01*
D10*
X129860952Y-106355714D02*
X129460952Y-106355714D01*
X129460952Y-106260476D01*
X129480000Y-106203333D01*
X129518095Y-106165238D01*
X129556190Y-106146190D01*
X129632381Y-106127142D01*
X129689524Y-106127142D01*
X129765714Y-106146190D01*
X129803810Y-106165238D01*
X129841905Y-106203333D01*
X129860952Y-106260476D01*
X129860952Y-106355714D01*
X129860952Y-105746190D02*
X129860952Y-105974762D01*
X129860952Y-105860476D02*
X129460952Y-105860476D01*
X129518095Y-105898571D01*
X129556190Y-105936666D01*
X129575238Y-105974762D01*
X129860952Y-105555714D02*
X129860952Y-105479524D01*
X129841905Y-105441429D01*
X129822857Y-105422381D01*
X129765714Y-105384286D01*
X129689524Y-105365238D01*
X129537143Y-105365238D01*
X129499048Y-105384286D01*
X129480000Y-105403333D01*
X129460952Y-105441429D01*
X129460952Y-105517619D01*
X129480000Y-105555714D01*
X129499048Y-105574762D01*
X129537143Y-105593810D01*
X129632381Y-105593810D01*
X129670476Y-105574762D01*
X129689524Y-105555714D01*
X129708571Y-105517619D01*
X129708571Y-105441429D01*
X129689524Y-105403333D01*
X129670476Y-105384286D01*
X129632381Y-105365238D01*
D13*
X142239048Y-67897000D02*
X142118096Y-67836524D01*
X141936667Y-67836524D01*
X141755239Y-67897000D01*
X141634286Y-68017952D01*
X141573810Y-68138905D01*
X141513334Y-68380810D01*
X141513334Y-68562238D01*
X141573810Y-68804143D01*
X141634286Y-68925095D01*
X141755239Y-69046048D01*
X141936667Y-69106524D01*
X142057619Y-69106524D01*
X142239048Y-69046048D01*
X142299524Y-68985571D01*
X142299524Y-68562238D01*
X142057619Y-68562238D01*
X142843810Y-69106524D02*
X142843810Y-67836524D01*
X143327619Y-67836524D01*
X143448572Y-67897000D01*
X143509048Y-67957476D01*
X143569524Y-68078429D01*
X143569524Y-68259857D01*
X143509048Y-68380810D01*
X143448572Y-68441286D01*
X143327619Y-68501762D01*
X142843810Y-68501762D01*
X144113810Y-69106524D02*
X144113810Y-67836524D01*
X144416191Y-67836524D01*
X144597619Y-67897000D01*
X144718572Y-68017952D01*
X144779048Y-68138905D01*
X144839524Y-68380810D01*
X144839524Y-68562238D01*
X144779048Y-68804143D01*
X144718572Y-68925095D01*
X144597619Y-69046048D01*
X144416191Y-69106524D01*
X144113810Y-69106524D01*
X145383810Y-69106524D02*
X145383810Y-67836524D01*
X145988572Y-68622714D02*
X146956191Y-68622714D01*
X147560953Y-69106524D02*
X147560953Y-67836524D01*
X147863334Y-67836524D01*
X148044762Y-67897000D01*
X148165715Y-68017952D01*
X148226191Y-68138905D01*
X148286667Y-68380810D01*
X148286667Y-68562238D01*
X148226191Y-68804143D01*
X148165715Y-68925095D01*
X148044762Y-69046048D01*
X147863334Y-69106524D01*
X147560953Y-69106524D01*
D11*
X177545381Y-94633334D02*
X176545381Y-94633334D01*
X177259667Y-94300000D01*
X176545381Y-93966667D01*
X177545381Y-93966667D01*
X176545381Y-93633334D02*
X176545381Y-93061905D01*
X177545381Y-93347620D02*
X176545381Y-93347620D01*
X176878714Y-92300000D02*
X177545381Y-92300000D01*
X176497762Y-92538096D02*
X177212048Y-92776191D01*
X177212048Y-92157143D01*
X176973952Y-91633334D02*
X176926333Y-91728572D01*
X176878714Y-91776191D01*
X176783476Y-91823810D01*
X176735857Y-91823810D01*
X176640619Y-91776191D01*
X176593000Y-91728572D01*
X176545381Y-91633334D01*
X176545381Y-91442857D01*
X176593000Y-91347619D01*
X176640619Y-91300000D01*
X176735857Y-91252381D01*
X176783476Y-91252381D01*
X176878714Y-91300000D01*
X176926333Y-91347619D01*
X176973952Y-91442857D01*
X176973952Y-91633334D01*
X177021571Y-91728572D01*
X177069190Y-91776191D01*
X177164429Y-91823810D01*
X177354905Y-91823810D01*
X177450143Y-91776191D01*
X177497762Y-91728572D01*
X177545381Y-91633334D01*
X177545381Y-91442857D01*
X177497762Y-91347619D01*
X177450143Y-91300000D01*
X177354905Y-91252381D01*
X177164429Y-91252381D01*
X177069190Y-91300000D01*
X177021571Y-91347619D01*
X176973952Y-91442857D01*
X177545381Y-90347619D02*
X177545381Y-90823810D01*
X176545381Y-90823810D01*
X177450143Y-89442857D02*
X177497762Y-89490476D01*
X177545381Y-89633333D01*
X177545381Y-89728571D01*
X177497762Y-89871429D01*
X177402524Y-89966667D01*
X177307286Y-90014286D01*
X177116810Y-90061905D01*
X176973952Y-90061905D01*
X176783476Y-90014286D01*
X176688238Y-89966667D01*
X176593000Y-89871429D01*
X176545381Y-89728571D01*
X176545381Y-89633333D01*
X176593000Y-89490476D01*
X176640619Y-89442857D01*
X177545381Y-88490476D02*
X177545381Y-89061905D01*
X177545381Y-88776191D02*
X176545381Y-88776191D01*
X176688238Y-88871429D01*
X176783476Y-88966667D01*
X176831095Y-89061905D01*
X176545381Y-87633333D02*
X176545381Y-87823810D01*
X176593000Y-87919048D01*
X176640619Y-87966667D01*
X176783476Y-88061905D01*
X176973952Y-88109524D01*
X177354905Y-88109524D01*
X177450143Y-88061905D01*
X177497762Y-88014286D01*
X177545381Y-87919048D01*
X177545381Y-87728571D01*
X177497762Y-87633333D01*
X177450143Y-87585714D01*
X177354905Y-87538095D01*
X177116810Y-87538095D01*
X177021571Y-87585714D01*
X176973952Y-87633333D01*
X176926333Y-87728571D01*
X176926333Y-87919048D01*
X176973952Y-88014286D01*
X177021571Y-88061905D01*
X177116810Y-88109524D01*
X177545381Y-87109524D02*
X176545381Y-87109524D01*
X177259667Y-86776190D01*
X176545381Y-86442857D01*
X177545381Y-86442857D01*
X177545381Y-85442857D02*
X177545381Y-86014286D01*
X177545381Y-85728572D02*
X176545381Y-85728572D01*
X176688238Y-85823810D01*
X176783476Y-85919048D01*
X176831095Y-86014286D01*
X176545381Y-84585714D02*
X176545381Y-84776191D01*
X176593000Y-84871429D01*
X176640619Y-84919048D01*
X176783476Y-85014286D01*
X176973952Y-85061905D01*
X177354905Y-85061905D01*
X177450143Y-85014286D01*
X177497762Y-84966667D01*
X177545381Y-84871429D01*
X177545381Y-84680952D01*
X177497762Y-84585714D01*
X177450143Y-84538095D01*
X177354905Y-84490476D01*
X177116810Y-84490476D01*
X177021571Y-84538095D01*
X176973952Y-84585714D01*
X176926333Y-84680952D01*
X176926333Y-84871429D01*
X176973952Y-84966667D01*
X177021571Y-85014286D01*
X177116810Y-85061905D01*
X177259667Y-84109524D02*
X177259667Y-83633333D01*
X177545381Y-84204762D02*
X176545381Y-83871429D01*
X177545381Y-83538095D01*
X176640619Y-83252381D02*
X176593000Y-83204762D01*
X176545381Y-83109524D01*
X176545381Y-82871428D01*
X176593000Y-82776190D01*
X176640619Y-82728571D01*
X176735857Y-82680952D01*
X176831095Y-82680952D01*
X176973952Y-82728571D01*
X177545381Y-83300000D01*
X177545381Y-82680952D01*
X176545381Y-82395238D02*
X176545381Y-81823809D01*
X177545381Y-82109524D02*
X176545381Y-82109524D01*
X176593000Y-80966666D02*
X176545381Y-81061904D01*
X176545381Y-81204761D01*
X176593000Y-81347619D01*
X176688238Y-81442857D01*
X176783476Y-81490476D01*
X176973952Y-81538095D01*
X177116810Y-81538095D01*
X177307286Y-81490476D01*
X177402524Y-81442857D01*
X177497762Y-81347619D01*
X177545381Y-81204761D01*
X177545381Y-81109523D01*
X177497762Y-80966666D01*
X177450143Y-80919047D01*
X177116810Y-80919047D01*
X177116810Y-81109523D01*
X122722381Y-82621047D02*
X122722381Y-83192476D01*
X122722381Y-82906762D02*
X121722381Y-82906762D01*
X121865238Y-83002000D01*
X121960476Y-83097238D01*
X122008095Y-83192476D01*
X122722381Y-82192476D02*
X121722381Y-82192476D01*
X122341429Y-82097238D02*
X122722381Y-81811523D01*
X122055714Y-81811523D02*
X122436667Y-82192476D01*
D12*
X120950952Y-82759142D02*
X120760476Y-82892476D01*
X120950952Y-82987714D02*
X120550952Y-82987714D01*
X120550952Y-82835333D01*
X120570000Y-82797238D01*
X120589048Y-82778190D01*
X120627143Y-82759142D01*
X120684286Y-82759142D01*
X120722381Y-82778190D01*
X120741429Y-82797238D01*
X120760476Y-82835333D01*
X120760476Y-82987714D01*
X120684286Y-82416285D02*
X120950952Y-82416285D01*
X120531905Y-82511523D02*
X120817619Y-82606762D01*
X120817619Y-82359142D01*
X120950952Y-81997238D02*
X120950952Y-82225810D01*
X120950952Y-82111524D02*
X120550952Y-82111524D01*
X120608095Y-82149619D01*
X120646190Y-82187714D01*
X120665238Y-82225810D01*
D11*
X120182381Y-82621047D02*
X120182381Y-83192476D01*
X120182381Y-82906762D02*
X119182381Y-82906762D01*
X119325238Y-83002000D01*
X119420476Y-83097238D01*
X119468095Y-83192476D01*
X120182381Y-82192476D02*
X119182381Y-82192476D01*
X119801429Y-82097238D02*
X120182381Y-81811523D01*
X119515714Y-81811523D02*
X119896667Y-82192476D01*
D12*
X118410952Y-82759142D02*
X118220476Y-82892476D01*
X118410952Y-82987714D02*
X118010952Y-82987714D01*
X118010952Y-82835333D01*
X118030000Y-82797238D01*
X118049048Y-82778190D01*
X118087143Y-82759142D01*
X118144286Y-82759142D01*
X118182381Y-82778190D01*
X118201429Y-82797238D01*
X118220476Y-82835333D01*
X118220476Y-82987714D01*
X118144286Y-82416285D02*
X118410952Y-82416285D01*
X117991905Y-82511523D02*
X118277619Y-82606762D01*
X118277619Y-82359142D01*
X118049048Y-82225810D02*
X118030000Y-82206762D01*
X118010952Y-82168667D01*
X118010952Y-82073429D01*
X118030000Y-82035333D01*
X118049048Y-82016286D01*
X118087143Y-81997238D01*
X118125238Y-81997238D01*
X118182381Y-82016286D01*
X118410952Y-82244857D01*
X118410952Y-81997238D01*
D11*
X117642381Y-82621047D02*
X117642381Y-83192476D01*
X117642381Y-82906762D02*
X116642381Y-82906762D01*
X116785238Y-83002000D01*
X116880476Y-83097238D01*
X116928095Y-83192476D01*
X117642381Y-82192476D02*
X116642381Y-82192476D01*
X117261429Y-82097238D02*
X117642381Y-81811523D01*
X116975714Y-81811523D02*
X117356667Y-82192476D01*
D12*
X115870952Y-82759142D02*
X115680476Y-82892476D01*
X115870952Y-82987714D02*
X115470952Y-82987714D01*
X115470952Y-82835333D01*
X115490000Y-82797238D01*
X115509048Y-82778190D01*
X115547143Y-82759142D01*
X115604286Y-82759142D01*
X115642381Y-82778190D01*
X115661429Y-82797238D01*
X115680476Y-82835333D01*
X115680476Y-82987714D01*
X115604286Y-82416285D02*
X115870952Y-82416285D01*
X115451905Y-82511523D02*
X115737619Y-82606762D01*
X115737619Y-82359142D01*
X115470952Y-82244857D02*
X115470952Y-81997238D01*
X115623333Y-82130571D01*
X115623333Y-82073429D01*
X115642381Y-82035333D01*
X115661429Y-82016286D01*
X115699524Y-81997238D01*
X115794762Y-81997238D01*
X115832857Y-82016286D01*
X115851905Y-82035333D01*
X115870952Y-82073429D01*
X115870952Y-82187714D01*
X115851905Y-82225810D01*
X115832857Y-82244857D01*
D11*
X115102381Y-82621047D02*
X115102381Y-83192476D01*
X115102381Y-82906762D02*
X114102381Y-82906762D01*
X114245238Y-83002000D01*
X114340476Y-83097238D01*
X114388095Y-83192476D01*
X115102381Y-82192476D02*
X114102381Y-82192476D01*
X114721429Y-82097238D02*
X115102381Y-81811523D01*
X114435714Y-81811523D02*
X114816667Y-82192476D01*
D12*
X113330952Y-82759142D02*
X113140476Y-82892476D01*
X113330952Y-82987714D02*
X112930952Y-82987714D01*
X112930952Y-82835333D01*
X112950000Y-82797238D01*
X112969048Y-82778190D01*
X113007143Y-82759142D01*
X113064286Y-82759142D01*
X113102381Y-82778190D01*
X113121429Y-82797238D01*
X113140476Y-82835333D01*
X113140476Y-82987714D01*
X113064286Y-82416285D02*
X113330952Y-82416285D01*
X112911905Y-82511523D02*
X113197619Y-82606762D01*
X113197619Y-82359142D01*
X113064286Y-82035333D02*
X113330952Y-82035333D01*
X112911905Y-82130571D02*
X113197619Y-82225810D01*
X113197619Y-81978190D01*
D11*
X112562381Y-82621047D02*
X112562381Y-83192476D01*
X112562381Y-82906762D02*
X111562381Y-82906762D01*
X111705238Y-83002000D01*
X111800476Y-83097238D01*
X111848095Y-83192476D01*
X112562381Y-82192476D02*
X111562381Y-82192476D01*
X112181429Y-82097238D02*
X112562381Y-81811523D01*
X111895714Y-81811523D02*
X112276667Y-82192476D01*
D12*
X110790952Y-82759142D02*
X110600476Y-82892476D01*
X110790952Y-82987714D02*
X110390952Y-82987714D01*
X110390952Y-82835333D01*
X110410000Y-82797238D01*
X110429048Y-82778190D01*
X110467143Y-82759142D01*
X110524286Y-82759142D01*
X110562381Y-82778190D01*
X110581429Y-82797238D01*
X110600476Y-82835333D01*
X110600476Y-82987714D01*
X110524286Y-82416285D02*
X110790952Y-82416285D01*
X110371905Y-82511523D02*
X110657619Y-82606762D01*
X110657619Y-82359142D01*
X110390952Y-82016286D02*
X110390952Y-82206762D01*
X110581429Y-82225810D01*
X110562381Y-82206762D01*
X110543333Y-82168667D01*
X110543333Y-82073429D01*
X110562381Y-82035333D01*
X110581429Y-82016286D01*
X110619524Y-81997238D01*
X110714762Y-81997238D01*
X110752857Y-82016286D01*
X110771905Y-82035333D01*
X110790952Y-82073429D01*
X110790952Y-82168667D01*
X110771905Y-82206762D01*
X110752857Y-82225810D01*
D11*
X110022381Y-82621047D02*
X110022381Y-83192476D01*
X110022381Y-82906762D02*
X109022381Y-82906762D01*
X109165238Y-83002000D01*
X109260476Y-83097238D01*
X109308095Y-83192476D01*
X110022381Y-82192476D02*
X109022381Y-82192476D01*
X109641429Y-82097238D02*
X110022381Y-81811523D01*
X109355714Y-81811523D02*
X109736667Y-82192476D01*
D12*
X108250952Y-82759142D02*
X108060476Y-82892476D01*
X108250952Y-82987714D02*
X107850952Y-82987714D01*
X107850952Y-82835333D01*
X107870000Y-82797238D01*
X107889048Y-82778190D01*
X107927143Y-82759142D01*
X107984286Y-82759142D01*
X108022381Y-82778190D01*
X108041429Y-82797238D01*
X108060476Y-82835333D01*
X108060476Y-82987714D01*
X107984286Y-82416285D02*
X108250952Y-82416285D01*
X107831905Y-82511523D02*
X108117619Y-82606762D01*
X108117619Y-82359142D01*
X107850952Y-82035333D02*
X107850952Y-82111524D01*
X107870000Y-82149619D01*
X107889048Y-82168667D01*
X107946190Y-82206762D01*
X108022381Y-82225810D01*
X108174762Y-82225810D01*
X108212857Y-82206762D01*
X108231905Y-82187714D01*
X108250952Y-82149619D01*
X108250952Y-82073429D01*
X108231905Y-82035333D01*
X108212857Y-82016286D01*
X108174762Y-81997238D01*
X108079524Y-81997238D01*
X108041429Y-82016286D01*
X108022381Y-82035333D01*
X108003333Y-82073429D01*
X108003333Y-82149619D01*
X108022381Y-82187714D01*
X108041429Y-82206762D01*
X108079524Y-82225810D01*
D11*
X107482381Y-82621047D02*
X107482381Y-83192476D01*
X107482381Y-82906762D02*
X106482381Y-82906762D01*
X106625238Y-83002000D01*
X106720476Y-83097238D01*
X106768095Y-83192476D01*
X107482381Y-82192476D02*
X106482381Y-82192476D01*
X107101429Y-82097238D02*
X107482381Y-81811523D01*
X106815714Y-81811523D02*
X107196667Y-82192476D01*
D12*
X105710952Y-82759142D02*
X105520476Y-82892476D01*
X105710952Y-82987714D02*
X105310952Y-82987714D01*
X105310952Y-82835333D01*
X105330000Y-82797238D01*
X105349048Y-82778190D01*
X105387143Y-82759142D01*
X105444286Y-82759142D01*
X105482381Y-82778190D01*
X105501429Y-82797238D01*
X105520476Y-82835333D01*
X105520476Y-82987714D01*
X105444286Y-82416285D02*
X105710952Y-82416285D01*
X105291905Y-82511523D02*
X105577619Y-82606762D01*
X105577619Y-82359142D01*
X105310952Y-82244857D02*
X105310952Y-81978190D01*
X105710952Y-82149619D01*
D11*
X104942381Y-82621047D02*
X104942381Y-83192476D01*
X104942381Y-82906762D02*
X103942381Y-82906762D01*
X104085238Y-83002000D01*
X104180476Y-83097238D01*
X104228095Y-83192476D01*
X104942381Y-82192476D02*
X103942381Y-82192476D01*
X104561429Y-82097238D02*
X104942381Y-81811523D01*
X104275714Y-81811523D02*
X104656667Y-82192476D01*
D12*
X103170952Y-82759142D02*
X102980476Y-82892476D01*
X103170952Y-82987714D02*
X102770952Y-82987714D01*
X102770952Y-82835333D01*
X102790000Y-82797238D01*
X102809048Y-82778190D01*
X102847143Y-82759142D01*
X102904286Y-82759142D01*
X102942381Y-82778190D01*
X102961429Y-82797238D01*
X102980476Y-82835333D01*
X102980476Y-82987714D01*
X102904286Y-82416285D02*
X103170952Y-82416285D01*
X102751905Y-82511523D02*
X103037619Y-82606762D01*
X103037619Y-82359142D01*
X102942381Y-82149619D02*
X102923333Y-82187714D01*
X102904286Y-82206762D01*
X102866190Y-82225810D01*
X102847143Y-82225810D01*
X102809048Y-82206762D01*
X102790000Y-82187714D01*
X102770952Y-82149619D01*
X102770952Y-82073429D01*
X102790000Y-82035333D01*
X102809048Y-82016286D01*
X102847143Y-81997238D01*
X102866190Y-81997238D01*
X102904286Y-82016286D01*
X102923333Y-82035333D01*
X102942381Y-82073429D01*
X102942381Y-82149619D01*
X102961429Y-82187714D01*
X102980476Y-82206762D01*
X103018571Y-82225810D01*
X103094762Y-82225810D01*
X103132857Y-82206762D01*
X103151905Y-82187714D01*
X103170952Y-82149619D01*
X103170952Y-82073429D01*
X103151905Y-82035333D01*
X103132857Y-82016286D01*
X103094762Y-81997238D01*
X103018571Y-81997238D01*
X102980476Y-82016286D01*
X102961429Y-82035333D01*
X102942381Y-82073429D01*
M02*
