G04 #@! TF.FileFunction,Legend,Top*
%FSLAX46Y46*%
G04 Gerber Fmt 4.6, Leading zero omitted, Abs format (unit mm)*
G04 Created by KiCad (PCBNEW 4.0.7+dfsg1-1) date Fri Dec  8 15:27:47 2017*
%MOMM*%
%LPD*%
G01*
G04 APERTURE LIST*
%ADD10C,0.100000*%
%ADD11C,0.250000*%
%ADD12C,0.300000*%
%ADD13C,0.200000*%
%ADD14C,0.150000*%
%ADD15C,0.120000*%
%ADD16C,0.700000*%
%ADD17C,0.254000*%
%ADD18C,0.075000*%
%ADD19C,0.152400*%
%ADD20C,0.124460*%
G04 APERTURE END LIST*
D10*
D11*
X96148000Y-69111429D02*
X96909905Y-69111429D01*
X96528953Y-69492381D02*
X96528953Y-68730476D01*
X97386095Y-69111429D02*
X98148000Y-69111429D01*
X96148000Y-81811429D02*
X96909905Y-81811429D01*
X96528953Y-82192381D02*
X96528953Y-81430476D01*
X97386095Y-81811429D02*
X98148000Y-81811429D01*
X96148000Y-91971429D02*
X96909905Y-91971429D01*
X96528953Y-92352381D02*
X96528953Y-91590476D01*
X97386095Y-91971429D02*
X98148000Y-91971429D01*
X96148000Y-104671429D02*
X96909905Y-104671429D01*
X96528953Y-105052381D02*
X96528953Y-104290476D01*
X97386095Y-104671429D02*
X98148000Y-104671429D01*
X184032000Y-104671429D02*
X184793905Y-104671429D01*
X185270095Y-104671429D02*
X186032000Y-104671429D01*
X185651048Y-105052381D02*
X185651048Y-104290476D01*
X184032000Y-91971429D02*
X184793905Y-91971429D01*
X185270095Y-91971429D02*
X186032000Y-91971429D01*
X185651048Y-92352381D02*
X185651048Y-91590476D01*
X184032000Y-81811429D02*
X184793905Y-81811429D01*
X185270095Y-81811429D02*
X186032000Y-81811429D01*
X185651048Y-82192381D02*
X185651048Y-81430476D01*
X184032000Y-69111429D02*
X184793905Y-69111429D01*
X185270095Y-69111429D02*
X186032000Y-69111429D01*
X185651048Y-69492381D02*
X185651048Y-68730476D01*
X185016191Y-64412381D02*
X185016191Y-63412381D01*
X185682857Y-63412381D02*
X185873334Y-63412381D01*
X185968572Y-63460000D01*
X186063810Y-63555238D01*
X186111429Y-63745714D01*
X186111429Y-64079048D01*
X186063810Y-64269524D01*
X185968572Y-64364762D01*
X185873334Y-64412381D01*
X185682857Y-64412381D01*
X185587619Y-64364762D01*
X185492381Y-64269524D01*
X185444762Y-64079048D01*
X185444762Y-63745714D01*
X185492381Y-63555238D01*
X185587619Y-63460000D01*
X185682857Y-63412381D01*
D12*
X176928000Y-83117143D02*
X178070857Y-83117143D01*
X178785143Y-83117143D02*
X179928000Y-83117143D01*
X179356571Y-83688571D02*
X179356571Y-82545714D01*
D13*
X187826000Y-67770000D02*
G75*
G03X187826000Y-67770000I-1016000J0D01*
G01*
X187826000Y-70310000D02*
G75*
G03X187826000Y-70310000I-1016000J0D01*
G01*
X187826000Y-72850000D02*
G75*
G03X187826000Y-72850000I-1016000J0D01*
G01*
X187826000Y-75390000D02*
G75*
G03X187826000Y-75390000I-1016000J0D01*
G01*
X187826000Y-77930000D02*
G75*
G03X187826000Y-77930000I-1016000J0D01*
G01*
X187826000Y-80470000D02*
G75*
G03X187826000Y-80470000I-1016000J0D01*
G01*
X187826000Y-83010000D02*
G75*
G03X187826000Y-83010000I-1016000J0D01*
G01*
X187826000Y-90630000D02*
G75*
G03X187826000Y-90630000I-1016000J0D01*
G01*
X187826000Y-93170000D02*
G75*
G03X187826000Y-93170000I-1016000J0D01*
G01*
X187826000Y-95710000D02*
G75*
G03X187826000Y-95710000I-1016000J0D01*
G01*
X187826000Y-98250000D02*
G75*
G03X187826000Y-98250000I-1016000J0D01*
G01*
X187826000Y-100790000D02*
G75*
G03X187826000Y-100790000I-1016000J0D01*
G01*
X187826000Y-103330000D02*
G75*
G03X187826000Y-103330000I-1016000J0D01*
G01*
X187826000Y-105870000D02*
G75*
G03X187826000Y-105870000I-1016000J0D01*
G01*
X96386000Y-105870000D02*
G75*
G03X96386000Y-105870000I-1016000J0D01*
G01*
X96386000Y-103330000D02*
G75*
G03X96386000Y-103330000I-1016000J0D01*
G01*
X96386000Y-100790000D02*
G75*
G03X96386000Y-100790000I-1016000J0D01*
G01*
X96386000Y-98250000D02*
G75*
G03X96386000Y-98250000I-1016000J0D01*
G01*
X96386000Y-95710000D02*
G75*
G03X96386000Y-95710000I-1016000J0D01*
G01*
X96386000Y-93170000D02*
G75*
G03X96386000Y-93170000I-1016000J0D01*
G01*
X96386000Y-90630000D02*
G75*
G03X96386000Y-90630000I-1016000J0D01*
G01*
X96386000Y-83010000D02*
G75*
G03X96386000Y-83010000I-1016000J0D01*
G01*
X96386000Y-80470000D02*
G75*
G03X96386000Y-80470000I-1016000J0D01*
G01*
X96386000Y-77930000D02*
G75*
G03X96386000Y-77930000I-1016000J0D01*
G01*
X96386000Y-75390000D02*
G75*
G03X96386000Y-75390000I-1016000J0D01*
G01*
X96386000Y-72850000D02*
G75*
G03X96386000Y-72850000I-1016000J0D01*
G01*
X96386000Y-70310000D02*
G75*
G03X96386000Y-70310000I-1016000J0D01*
G01*
X96386000Y-67770000D02*
G75*
G03X96386000Y-67770000I-1016000J0D01*
G01*
D12*
X177793143Y-85054000D02*
X177650286Y-84982571D01*
X177436000Y-84982571D01*
X177221715Y-85054000D01*
X177078857Y-85196857D01*
X177007429Y-85339714D01*
X176936000Y-85625429D01*
X176936000Y-85839714D01*
X177007429Y-86125429D01*
X177078857Y-86268286D01*
X177221715Y-86411143D01*
X177436000Y-86482571D01*
X177578857Y-86482571D01*
X177793143Y-86411143D01*
X177864572Y-86339714D01*
X177864572Y-85839714D01*
X177578857Y-85839714D01*
X178507429Y-86482571D02*
X178507429Y-84982571D01*
X179364572Y-86482571D01*
X179364572Y-84982571D01*
X180078858Y-86482571D02*
X180078858Y-84982571D01*
X180436001Y-84982571D01*
X180650286Y-85054000D01*
X180793144Y-85196857D01*
X180864572Y-85339714D01*
X180936001Y-85625429D01*
X180936001Y-85839714D01*
X180864572Y-86125429D01*
X180793144Y-86268286D01*
X180650286Y-86411143D01*
X180436001Y-86482571D01*
X180078858Y-86482571D01*
X183254000Y-86566000D02*
X181730000Y-86566000D01*
X182492000Y-84534000D02*
X182492000Y-86566000D01*
X181984000Y-109426000D02*
X183508000Y-109426000D01*
X182746000Y-109426000D02*
X182746000Y-107394000D01*
D11*
X182047524Y-106322381D02*
X181476095Y-106322381D01*
X181761809Y-106322381D02*
X181761809Y-105322381D01*
X181666571Y-105465238D01*
X181571333Y-105560476D01*
X181476095Y-105608095D01*
X182904667Y-105655714D02*
X182904667Y-106322381D01*
X182666571Y-105274762D02*
X182428476Y-105989048D01*
X183047524Y-105989048D01*
X181476095Y-67317619D02*
X181523714Y-67270000D01*
X181618952Y-67222381D01*
X181857048Y-67222381D01*
X181952286Y-67270000D01*
X181999905Y-67317619D01*
X182047524Y-67412857D01*
X182047524Y-67508095D01*
X181999905Y-67650952D01*
X181428476Y-68222381D01*
X182047524Y-68222381D01*
X182380857Y-67222381D02*
X183047524Y-67222381D01*
X182618952Y-68222381D01*
D12*
X181984000Y-66500000D02*
X183508000Y-66500000D01*
X182746000Y-66500000D02*
X182746000Y-64214000D01*
X98672000Y-109426000D02*
X100196000Y-109426000D01*
X99434000Y-107394000D02*
X99434000Y-109426000D01*
D11*
X98846667Y-74842381D02*
X99465715Y-74842381D01*
X99132381Y-75223333D01*
X99275239Y-75223333D01*
X99370477Y-75270952D01*
X99418096Y-75318571D01*
X99465715Y-75413810D01*
X99465715Y-75651905D01*
X99418096Y-75747143D01*
X99370477Y-75794762D01*
X99275239Y-75842381D01*
X98989524Y-75842381D01*
X98894286Y-75794762D01*
X98846667Y-75747143D01*
X99370477Y-77715714D02*
X99370477Y-78382381D01*
X99132381Y-77334762D02*
X98894286Y-78049048D01*
X99513334Y-78049048D01*
X99418096Y-79922381D02*
X98941905Y-79922381D01*
X98894286Y-80398571D01*
X98941905Y-80350952D01*
X99037143Y-80303333D01*
X99275239Y-80303333D01*
X99370477Y-80350952D01*
X99418096Y-80398571D01*
X99465715Y-80493810D01*
X99465715Y-80731905D01*
X99418096Y-80827143D01*
X99370477Y-80874762D01*
X99275239Y-80922381D01*
X99037143Y-80922381D01*
X98941905Y-80874762D01*
X98894286Y-80827143D01*
X99751524Y-106322381D02*
X99180095Y-106322381D01*
X99465809Y-106322381D02*
X99465809Y-105322381D01*
X99370571Y-105465238D01*
X99275333Y-105560476D01*
X99180095Y-105608095D01*
X100084857Y-105322381D02*
X100703905Y-105322381D01*
X100370571Y-105703333D01*
X100513429Y-105703333D01*
X100608667Y-105750952D01*
X100656286Y-105798571D01*
X100703905Y-105893810D01*
X100703905Y-106131905D01*
X100656286Y-106227143D01*
X100608667Y-106274762D01*
X100513429Y-106322381D01*
X100227714Y-106322381D01*
X100132476Y-106274762D01*
X100084857Y-106227143D01*
X98846667Y-90082381D02*
X99513334Y-90082381D01*
X99084762Y-91082381D01*
D12*
X98418000Y-89106000D02*
X99942000Y-89106000D01*
X99180000Y-87074000D02*
X99180000Y-89106000D01*
X98672000Y-66246000D02*
X100196000Y-66246000D01*
X99434000Y-64214000D02*
X99434000Y-66246000D01*
D11*
X99402381Y-61761381D02*
X100021429Y-61761381D01*
X99688095Y-62142333D01*
X99830953Y-62142333D01*
X99926191Y-62189952D01*
X99973810Y-62237571D01*
X100021429Y-62332810D01*
X100021429Y-62570905D01*
X99973810Y-62666143D01*
X99926191Y-62713762D01*
X99830953Y-62761381D01*
X99545238Y-62761381D01*
X99450000Y-62713762D01*
X99402381Y-62666143D01*
X100450000Y-62666143D02*
X100497619Y-62713762D01*
X100450000Y-62761381D01*
X100402381Y-62713762D01*
X100450000Y-62666143D01*
X100450000Y-62761381D01*
X100830952Y-61761381D02*
X101450000Y-61761381D01*
X101116666Y-62142333D01*
X101259524Y-62142333D01*
X101354762Y-62189952D01*
X101402381Y-62237571D01*
X101450000Y-62332810D01*
X101450000Y-62570905D01*
X101402381Y-62666143D01*
X101354762Y-62713762D01*
X101259524Y-62761381D01*
X100973809Y-62761381D01*
X100878571Y-62713762D01*
X100830952Y-62666143D01*
X180682381Y-110910381D02*
X181301429Y-110910381D01*
X180968095Y-111291333D01*
X181110953Y-111291333D01*
X181206191Y-111338952D01*
X181253810Y-111386571D01*
X181301429Y-111481810D01*
X181301429Y-111719905D01*
X181253810Y-111815143D01*
X181206191Y-111862762D01*
X181110953Y-111910381D01*
X180825238Y-111910381D01*
X180730000Y-111862762D01*
X180682381Y-111815143D01*
X181730000Y-111815143D02*
X181777619Y-111862762D01*
X181730000Y-111910381D01*
X181682381Y-111862762D01*
X181730000Y-111815143D01*
X181730000Y-111910381D01*
X182110952Y-110910381D02*
X182730000Y-110910381D01*
X182396666Y-111291333D01*
X182539524Y-111291333D01*
X182634762Y-111338952D01*
X182682381Y-111386571D01*
X182730000Y-111481810D01*
X182730000Y-111719905D01*
X182682381Y-111815143D01*
X182634762Y-111862762D01*
X182539524Y-111910381D01*
X182253809Y-111910381D01*
X182158571Y-111862762D01*
X182110952Y-111815143D01*
D12*
X99228001Y-85149143D02*
X100370858Y-85149143D01*
X99799429Y-85720571D02*
X99799429Y-84577714D01*
X100942287Y-84220571D02*
X101870858Y-84220571D01*
X101370858Y-84792000D01*
X101585144Y-84792000D01*
X101728001Y-84863429D01*
X101799430Y-84934857D01*
X101870858Y-85077714D01*
X101870858Y-85434857D01*
X101799430Y-85577714D01*
X101728001Y-85649143D01*
X101585144Y-85720571D01*
X101156572Y-85720571D01*
X101013715Y-85649143D01*
X100942287Y-85577714D01*
X102513715Y-85577714D02*
X102585143Y-85649143D01*
X102513715Y-85720571D01*
X102442286Y-85649143D01*
X102513715Y-85577714D01*
X102513715Y-85720571D01*
X103085144Y-84220571D02*
X104013715Y-84220571D01*
X103513715Y-84792000D01*
X103728001Y-84792000D01*
X103870858Y-84863429D01*
X103942287Y-84934857D01*
X104013715Y-85077714D01*
X104013715Y-85434857D01*
X103942287Y-85577714D01*
X103870858Y-85649143D01*
X103728001Y-85720571D01*
X103299429Y-85720571D01*
X103156572Y-85649143D01*
X103085144Y-85577714D01*
X104442286Y-84220571D02*
X104942286Y-85720571D01*
X105442286Y-84220571D01*
D11*
X98894381Y-110656381D02*
X99513429Y-110656381D01*
X99180095Y-111037333D01*
X99322953Y-111037333D01*
X99418191Y-111084952D01*
X99465810Y-111132571D01*
X99513429Y-111227810D01*
X99513429Y-111465905D01*
X99465810Y-111561143D01*
X99418191Y-111608762D01*
X99322953Y-111656381D01*
X99037238Y-111656381D01*
X98942000Y-111608762D01*
X98894381Y-111561143D01*
X99942000Y-111561143D02*
X99989619Y-111608762D01*
X99942000Y-111656381D01*
X99894381Y-111608762D01*
X99942000Y-111561143D01*
X99942000Y-111656381D01*
X100322952Y-110656381D02*
X100942000Y-110656381D01*
X100608666Y-111037333D01*
X100751524Y-111037333D01*
X100846762Y-111084952D01*
X100894381Y-111132571D01*
X100942000Y-111227810D01*
X100942000Y-111465905D01*
X100894381Y-111561143D01*
X100846762Y-111608762D01*
X100751524Y-111656381D01*
X100465809Y-111656381D01*
X100370571Y-111608762D01*
X100322952Y-111561143D01*
X182047524Y-61888381D02*
X181571333Y-61888381D01*
X181523714Y-62364571D01*
X181571333Y-62316952D01*
X181666571Y-62269333D01*
X181904667Y-62269333D01*
X181999905Y-62316952D01*
X182047524Y-62364571D01*
X182095143Y-62459810D01*
X182095143Y-62697905D01*
X182047524Y-62793143D01*
X181999905Y-62840762D01*
X181904667Y-62888381D01*
X181666571Y-62888381D01*
X181571333Y-62840762D01*
X181523714Y-62793143D01*
X182380857Y-61888381D02*
X182714190Y-62888381D01*
X183047524Y-61888381D01*
D12*
X180587143Y-69631429D02*
X180658572Y-69560000D01*
X180801429Y-69488571D01*
X181158572Y-69488571D01*
X181301429Y-69560000D01*
X181372858Y-69631429D01*
X181444286Y-69774286D01*
X181444286Y-69917143D01*
X181372858Y-70131429D01*
X180515715Y-70988571D01*
X181444286Y-70988571D01*
X182730000Y-69488571D02*
X182444286Y-69488571D01*
X182301429Y-69560000D01*
X182230000Y-69631429D01*
X182087143Y-69845714D01*
X182015714Y-70131429D01*
X182015714Y-70702857D01*
X182087143Y-70845714D01*
X182158571Y-70917143D01*
X182301429Y-70988571D01*
X182587143Y-70988571D01*
X182730000Y-70917143D01*
X182801429Y-70845714D01*
X182872857Y-70702857D01*
X182872857Y-70345714D01*
X182801429Y-70202857D01*
X182730000Y-70131429D01*
X182587143Y-70060000D01*
X182301429Y-70060000D01*
X182158571Y-70131429D01*
X182087143Y-70202857D01*
X182015714Y-70345714D01*
X180587143Y-72171429D02*
X180658572Y-72100000D01*
X180801429Y-72028571D01*
X181158572Y-72028571D01*
X181301429Y-72100000D01*
X181372858Y-72171429D01*
X181444286Y-72314286D01*
X181444286Y-72457143D01*
X181372858Y-72671429D01*
X180515715Y-73528571D01*
X181444286Y-73528571D01*
X182801429Y-72028571D02*
X182087143Y-72028571D01*
X182015714Y-72742857D01*
X182087143Y-72671429D01*
X182230000Y-72600000D01*
X182587143Y-72600000D01*
X182730000Y-72671429D01*
X182801429Y-72742857D01*
X182872857Y-72885714D01*
X182872857Y-73242857D01*
X182801429Y-73385714D01*
X182730000Y-73457143D01*
X182587143Y-73528571D01*
X182230000Y-73528571D01*
X182087143Y-73457143D01*
X182015714Y-73385714D01*
X180587143Y-74711429D02*
X180658572Y-74640000D01*
X180801429Y-74568571D01*
X181158572Y-74568571D01*
X181301429Y-74640000D01*
X181372858Y-74711429D01*
X181444286Y-74854286D01*
X181444286Y-74997143D01*
X181372858Y-75211429D01*
X180515715Y-76068571D01*
X181444286Y-76068571D01*
X182730000Y-75068571D02*
X182730000Y-76068571D01*
X182372857Y-74497143D02*
X182015714Y-75568571D01*
X182944286Y-75568571D01*
X180587143Y-77251429D02*
X180658572Y-77180000D01*
X180801429Y-77108571D01*
X181158572Y-77108571D01*
X181301429Y-77180000D01*
X181372858Y-77251429D01*
X181444286Y-77394286D01*
X181444286Y-77537143D01*
X181372858Y-77751429D01*
X180515715Y-78608571D01*
X181444286Y-78608571D01*
X181944286Y-77108571D02*
X182872857Y-77108571D01*
X182372857Y-77680000D01*
X182587143Y-77680000D01*
X182730000Y-77751429D01*
X182801429Y-77822857D01*
X182872857Y-77965714D01*
X182872857Y-78322857D01*
X182801429Y-78465714D01*
X182730000Y-78537143D01*
X182587143Y-78608571D01*
X182158571Y-78608571D01*
X182015714Y-78537143D01*
X181944286Y-78465714D01*
X180587143Y-79791429D02*
X180658572Y-79720000D01*
X180801429Y-79648571D01*
X181158572Y-79648571D01*
X181301429Y-79720000D01*
X181372858Y-79791429D01*
X181444286Y-79934286D01*
X181444286Y-80077143D01*
X181372858Y-80291429D01*
X180515715Y-81148571D01*
X181444286Y-81148571D01*
X182015714Y-79791429D02*
X182087143Y-79720000D01*
X182230000Y-79648571D01*
X182587143Y-79648571D01*
X182730000Y-79720000D01*
X182801429Y-79791429D01*
X182872857Y-79934286D01*
X182872857Y-80077143D01*
X182801429Y-80291429D01*
X181944286Y-81148571D01*
X182872857Y-81148571D01*
X180587143Y-82331429D02*
X180658572Y-82260000D01*
X180801429Y-82188571D01*
X181158572Y-82188571D01*
X181301429Y-82260000D01*
X181372858Y-82331429D01*
X181444286Y-82474286D01*
X181444286Y-82617143D01*
X181372858Y-82831429D01*
X180515715Y-83688571D01*
X181444286Y-83688571D01*
X182872857Y-83688571D02*
X182015714Y-83688571D01*
X182444286Y-83688571D02*
X182444286Y-82188571D01*
X182301429Y-82402857D01*
X182158571Y-82545714D01*
X182015714Y-82617143D01*
X176698001Y-88197143D02*
X177840858Y-88197143D01*
X177269429Y-88768571D02*
X177269429Y-87625714D01*
X178412287Y-87268571D02*
X179340858Y-87268571D01*
X178840858Y-87840000D01*
X179055144Y-87840000D01*
X179198001Y-87911429D01*
X179269430Y-87982857D01*
X179340858Y-88125714D01*
X179340858Y-88482857D01*
X179269430Y-88625714D01*
X179198001Y-88697143D01*
X179055144Y-88768571D01*
X178626572Y-88768571D01*
X178483715Y-88697143D01*
X178412287Y-88625714D01*
X179983715Y-88625714D02*
X180055143Y-88697143D01*
X179983715Y-88768571D01*
X179912286Y-88697143D01*
X179983715Y-88625714D01*
X179983715Y-88768571D01*
X180555144Y-87268571D02*
X181483715Y-87268571D01*
X180983715Y-87840000D01*
X181198001Y-87840000D01*
X181340858Y-87911429D01*
X181412287Y-87982857D01*
X181483715Y-88125714D01*
X181483715Y-88482857D01*
X181412287Y-88625714D01*
X181340858Y-88697143D01*
X181198001Y-88768571D01*
X180769429Y-88768571D01*
X180626572Y-88697143D01*
X180555144Y-88625714D01*
X181912286Y-87268571D02*
X182412286Y-88768571D01*
X182912286Y-87268571D01*
X180587143Y-89951429D02*
X180658572Y-89880000D01*
X180801429Y-89808571D01*
X181158572Y-89808571D01*
X181301429Y-89880000D01*
X181372858Y-89951429D01*
X181444286Y-90094286D01*
X181444286Y-90237143D01*
X181372858Y-90451429D01*
X180515715Y-91308571D01*
X181444286Y-91308571D01*
X182372857Y-89808571D02*
X182515714Y-89808571D01*
X182658571Y-89880000D01*
X182730000Y-89951429D01*
X182801429Y-90094286D01*
X182872857Y-90380000D01*
X182872857Y-90737143D01*
X182801429Y-91022857D01*
X182730000Y-91165714D01*
X182658571Y-91237143D01*
X182515714Y-91308571D01*
X182372857Y-91308571D01*
X182230000Y-91237143D01*
X182158571Y-91165714D01*
X182087143Y-91022857D01*
X182015714Y-90737143D01*
X182015714Y-90380000D01*
X182087143Y-90094286D01*
X182158571Y-89951429D01*
X182230000Y-89880000D01*
X182372857Y-89808571D01*
X181444286Y-93848571D02*
X180587143Y-93848571D01*
X181015715Y-93848571D02*
X181015715Y-92348571D01*
X180872858Y-92562857D01*
X180730000Y-92705714D01*
X180587143Y-92777143D01*
X182158571Y-93848571D02*
X182444286Y-93848571D01*
X182587143Y-93777143D01*
X182658571Y-93705714D01*
X182801429Y-93491429D01*
X182872857Y-93205714D01*
X182872857Y-92634286D01*
X182801429Y-92491429D01*
X182730000Y-92420000D01*
X182587143Y-92348571D01*
X182301429Y-92348571D01*
X182158571Y-92420000D01*
X182087143Y-92491429D01*
X182015714Y-92634286D01*
X182015714Y-92991429D01*
X182087143Y-93134286D01*
X182158571Y-93205714D01*
X182301429Y-93277143D01*
X182587143Y-93277143D01*
X182730000Y-93205714D01*
X182801429Y-93134286D01*
X182872857Y-92991429D01*
X181444286Y-96388571D02*
X180587143Y-96388571D01*
X181015715Y-96388571D02*
X181015715Y-94888571D01*
X180872858Y-95102857D01*
X180730000Y-95245714D01*
X180587143Y-95317143D01*
X182301429Y-95531429D02*
X182158571Y-95460000D01*
X182087143Y-95388571D01*
X182015714Y-95245714D01*
X182015714Y-95174286D01*
X182087143Y-95031429D01*
X182158571Y-94960000D01*
X182301429Y-94888571D01*
X182587143Y-94888571D01*
X182730000Y-94960000D01*
X182801429Y-95031429D01*
X182872857Y-95174286D01*
X182872857Y-95245714D01*
X182801429Y-95388571D01*
X182730000Y-95460000D01*
X182587143Y-95531429D01*
X182301429Y-95531429D01*
X182158571Y-95602857D01*
X182087143Y-95674286D01*
X182015714Y-95817143D01*
X182015714Y-96102857D01*
X182087143Y-96245714D01*
X182158571Y-96317143D01*
X182301429Y-96388571D01*
X182587143Y-96388571D01*
X182730000Y-96317143D01*
X182801429Y-96245714D01*
X182872857Y-96102857D01*
X182872857Y-95817143D01*
X182801429Y-95674286D01*
X182730000Y-95602857D01*
X182587143Y-95531429D01*
X181444286Y-98928571D02*
X180587143Y-98928571D01*
X181015715Y-98928571D02*
X181015715Y-97428571D01*
X180872858Y-97642857D01*
X180730000Y-97785714D01*
X180587143Y-97857143D01*
X181944286Y-97428571D02*
X182944286Y-97428571D01*
X182301429Y-98928571D01*
X181444286Y-101468571D02*
X180587143Y-101468571D01*
X181015715Y-101468571D02*
X181015715Y-99968571D01*
X180872858Y-100182857D01*
X180730000Y-100325714D01*
X180587143Y-100397143D01*
X182730000Y-99968571D02*
X182444286Y-99968571D01*
X182301429Y-100040000D01*
X182230000Y-100111429D01*
X182087143Y-100325714D01*
X182015714Y-100611429D01*
X182015714Y-101182857D01*
X182087143Y-101325714D01*
X182158571Y-101397143D01*
X182301429Y-101468571D01*
X182587143Y-101468571D01*
X182730000Y-101397143D01*
X182801429Y-101325714D01*
X182872857Y-101182857D01*
X182872857Y-100825714D01*
X182801429Y-100682857D01*
X182730000Y-100611429D01*
X182587143Y-100540000D01*
X182301429Y-100540000D01*
X182158571Y-100611429D01*
X182087143Y-100682857D01*
X182015714Y-100825714D01*
X181444286Y-104008571D02*
X180587143Y-104008571D01*
X181015715Y-104008571D02*
X181015715Y-102508571D01*
X180872858Y-102722857D01*
X180730000Y-102865714D01*
X180587143Y-102937143D01*
X182801429Y-102508571D02*
X182087143Y-102508571D01*
X182015714Y-103222857D01*
X182087143Y-103151429D01*
X182230000Y-103080000D01*
X182587143Y-103080000D01*
X182730000Y-103151429D01*
X182801429Y-103222857D01*
X182872857Y-103365714D01*
X182872857Y-103722857D01*
X182801429Y-103865714D01*
X182730000Y-103937143D01*
X182587143Y-104008571D01*
X182230000Y-104008571D01*
X182087143Y-103937143D01*
X182015714Y-103865714D01*
D13*
X186810000Y-66500000D02*
X186810000Y-66754000D01*
X187826000Y-67770000D02*
X188080000Y-67770000D01*
X185540000Y-67770000D02*
X185794000Y-67770000D01*
X186810000Y-69294000D02*
X186810000Y-68786000D01*
X187826000Y-70310000D02*
X188080000Y-70310000D01*
X185540000Y-70310000D02*
X185794000Y-70310000D01*
X186810000Y-71326000D02*
X186810000Y-71834000D01*
X187826000Y-72850000D02*
X188080000Y-72850000D01*
X185540000Y-72850000D02*
X185794000Y-72850000D01*
X186810000Y-73866000D02*
X186810000Y-74374000D01*
X187826000Y-75390000D02*
X188080000Y-75390000D01*
X185540000Y-75390000D02*
X185794000Y-75390000D01*
X186810000Y-76406000D02*
X186810000Y-76914000D01*
X187826000Y-77930000D02*
X188080000Y-77930000D01*
X185540000Y-77930000D02*
X185794000Y-77930000D01*
X186810000Y-79454000D02*
X186810000Y-78946000D01*
X187826000Y-80470000D02*
X188080000Y-80470000D01*
X185540000Y-80470000D02*
X185794000Y-80470000D01*
X186810000Y-81994000D02*
X186810000Y-81486000D01*
X187826000Y-83010000D02*
X188080000Y-83010000D01*
X185540000Y-83010000D02*
X185794000Y-83010000D01*
X186810000Y-84026000D02*
X186810000Y-84280000D01*
X186810000Y-89360000D02*
X186810000Y-89614000D01*
X187826000Y-90630000D02*
X188080000Y-90630000D01*
X185540000Y-90630000D02*
X185794000Y-90630000D01*
X186810000Y-91646000D02*
X186810000Y-92154000D01*
X187826000Y-93170000D02*
X188080000Y-93170000D01*
X185540000Y-93170000D02*
X185794000Y-93170000D01*
X186810000Y-94186000D02*
X186810000Y-94694000D01*
X187826000Y-95710000D02*
X188080000Y-95710000D01*
X185540000Y-95710000D02*
X185794000Y-95710000D01*
X186810000Y-97234000D02*
X186810000Y-96726000D01*
X187826000Y-98250000D02*
X188080000Y-98250000D01*
X185540000Y-98250000D02*
X185794000Y-98250000D01*
X187826000Y-100790000D02*
X188080000Y-100790000D01*
X185540000Y-100790000D02*
X185794000Y-100790000D01*
X186810000Y-99266000D02*
X186810000Y-99774000D01*
X186810000Y-102314000D02*
X186810000Y-101806000D01*
X187826000Y-103330000D02*
X188080000Y-103330000D01*
X185540000Y-103330000D02*
X185794000Y-103330000D01*
X186810000Y-104346000D02*
X186810000Y-104854000D01*
X185540000Y-105870000D02*
X185794000Y-105870000D01*
X187826000Y-105870000D02*
X188080000Y-105870000D01*
X186810000Y-106886000D02*
X186810000Y-107140000D01*
X95370000Y-66754000D02*
X95370000Y-66500000D01*
X96386000Y-67770000D02*
X96640000Y-67770000D01*
X94100000Y-67770000D02*
X94354000Y-67770000D01*
X95370000Y-68786000D02*
X95370000Y-69294000D01*
X96386000Y-70310000D02*
X96640000Y-70310000D01*
X94100000Y-70310000D02*
X94354000Y-70310000D01*
X95370000Y-71326000D02*
X95370000Y-71834000D01*
X96386000Y-72850000D02*
X96640000Y-72850000D01*
X94100000Y-72850000D02*
X94354000Y-72850000D01*
X95370000Y-73866000D02*
X95370000Y-74374000D01*
X96386000Y-75390000D02*
X96640000Y-75390000D01*
X95370000Y-76406000D02*
X95370000Y-76914000D01*
X96386000Y-77930000D02*
X96640000Y-77930000D01*
X94100000Y-77930000D02*
X94354000Y-77930000D01*
X95370000Y-79454000D02*
X95370000Y-78946000D01*
X96386000Y-80470000D02*
X96640000Y-80470000D01*
X94100000Y-80470000D02*
X94354000Y-80470000D01*
X95370000Y-81486000D02*
X95370000Y-81994000D01*
X96386000Y-83010000D02*
X96640000Y-83010000D01*
X95370000Y-84026000D02*
X95370000Y-84280000D01*
X94100000Y-83010000D02*
X94354000Y-83010000D01*
X95370000Y-106886000D02*
X95370000Y-107140000D01*
X95370000Y-89360000D02*
X95370000Y-89614000D01*
X96386000Y-93170000D02*
X96640000Y-93170000D01*
X94100000Y-93170000D02*
X94354000Y-93170000D01*
X95370000Y-94186000D02*
X95370000Y-94694000D01*
X94100000Y-90630000D02*
X94354000Y-90630000D01*
X96386000Y-90630000D02*
X96640000Y-90630000D01*
X95370000Y-92154000D02*
X95370000Y-91646000D01*
X96386000Y-95710000D02*
X96640000Y-95710000D01*
X94100000Y-95710000D02*
X94354000Y-95710000D01*
X96386000Y-98250000D02*
X96640000Y-98250000D01*
X94354000Y-98250000D02*
X94100000Y-98250000D01*
X95370000Y-96726000D02*
X95370000Y-97234000D01*
X95370000Y-99266000D02*
X95370000Y-99774000D01*
X94100000Y-100790000D02*
X94354000Y-100790000D01*
X96386000Y-100790000D02*
X96640000Y-100790000D01*
X94100000Y-103330000D02*
X94354000Y-103330000D01*
X96386000Y-103330000D02*
X96640000Y-103330000D01*
X95370000Y-101806000D02*
X95370000Y-102314000D01*
X95370000Y-104346000D02*
X95370000Y-104854000D01*
X96386000Y-105870000D02*
X96640000Y-105870000D01*
X94100000Y-105870000D02*
X94354000Y-105870000D01*
D12*
X100982000Y-83117143D02*
X102124857Y-83117143D01*
X101553428Y-83688571D02*
X101553428Y-82545714D01*
X102839143Y-83117143D02*
X103982000Y-83117143D01*
X100164286Y-104008571D02*
X99307143Y-104008571D01*
X99735715Y-104008571D02*
X99735715Y-102508571D01*
X99592858Y-102722857D01*
X99450000Y-102865714D01*
X99307143Y-102937143D01*
X100735714Y-102651429D02*
X100807143Y-102580000D01*
X100950000Y-102508571D01*
X101307143Y-102508571D01*
X101450000Y-102580000D01*
X101521429Y-102651429D01*
X101592857Y-102794286D01*
X101592857Y-102937143D01*
X101521429Y-103151429D01*
X100664286Y-104008571D01*
X101592857Y-104008571D01*
X100164286Y-101468571D02*
X99307143Y-101468571D01*
X99735715Y-101468571D02*
X99735715Y-99968571D01*
X99592858Y-100182857D01*
X99450000Y-100325714D01*
X99307143Y-100397143D01*
X101592857Y-101468571D02*
X100735714Y-101468571D01*
X101164286Y-101468571D02*
X101164286Y-99968571D01*
X101021429Y-100182857D01*
X100878571Y-100325714D01*
X100735714Y-100397143D01*
X100164286Y-98928571D02*
X99307143Y-98928571D01*
X99735715Y-98928571D02*
X99735715Y-97428571D01*
X99592858Y-97642857D01*
X99450000Y-97785714D01*
X99307143Y-97857143D01*
X101092857Y-97428571D02*
X101235714Y-97428571D01*
X101378571Y-97500000D01*
X101450000Y-97571429D01*
X101521429Y-97714286D01*
X101592857Y-98000000D01*
X101592857Y-98357143D01*
X101521429Y-98642857D01*
X101450000Y-98785714D01*
X101378571Y-98857143D01*
X101235714Y-98928571D01*
X101092857Y-98928571D01*
X100950000Y-98857143D01*
X100878571Y-98785714D01*
X100807143Y-98642857D01*
X100735714Y-98357143D01*
X100735714Y-98000000D01*
X100807143Y-97714286D01*
X100878571Y-97571429D01*
X100950000Y-97500000D01*
X101092857Y-97428571D01*
X99529286Y-96388571D02*
X99815001Y-96388571D01*
X99957858Y-96317143D01*
X100029286Y-96245714D01*
X100172144Y-96031429D01*
X100243572Y-95745714D01*
X100243572Y-95174286D01*
X100172144Y-95031429D01*
X100100715Y-94960000D01*
X99957858Y-94888571D01*
X99672144Y-94888571D01*
X99529286Y-94960000D01*
X99457858Y-95031429D01*
X99386429Y-95174286D01*
X99386429Y-95531429D01*
X99457858Y-95674286D01*
X99529286Y-95745714D01*
X99672144Y-95817143D01*
X99957858Y-95817143D01*
X100100715Y-95745714D01*
X100172144Y-95674286D01*
X100243572Y-95531429D01*
X99672144Y-93245429D02*
X99529286Y-93174000D01*
X99457858Y-93102571D01*
X99386429Y-92959714D01*
X99386429Y-92888286D01*
X99457858Y-92745429D01*
X99529286Y-92674000D01*
X99672144Y-92602571D01*
X99957858Y-92602571D01*
X100100715Y-92674000D01*
X100172144Y-92745429D01*
X100243572Y-92888286D01*
X100243572Y-92959714D01*
X100172144Y-93102571D01*
X100100715Y-93174000D01*
X99957858Y-93245429D01*
X99672144Y-93245429D01*
X99529286Y-93316857D01*
X99457858Y-93388286D01*
X99386429Y-93531143D01*
X99386429Y-93816857D01*
X99457858Y-93959714D01*
X99529286Y-94031143D01*
X99672144Y-94102571D01*
X99957858Y-94102571D01*
X100100715Y-94031143D01*
X100172144Y-93959714D01*
X100243572Y-93816857D01*
X100243572Y-93531143D01*
X100172144Y-93388286D01*
X100100715Y-93316857D01*
X99957858Y-93245429D01*
X100100715Y-82442571D02*
X99815001Y-82442571D01*
X99672144Y-82514000D01*
X99600715Y-82585429D01*
X99457858Y-82799714D01*
X99386429Y-83085429D01*
X99386429Y-83656857D01*
X99457858Y-83799714D01*
X99529286Y-83871143D01*
X99672144Y-83942571D01*
X99957858Y-83942571D01*
X100100715Y-83871143D01*
X100172144Y-83799714D01*
X100243572Y-83656857D01*
X100243572Y-83299714D01*
X100172144Y-83156857D01*
X100100715Y-83085429D01*
X99957858Y-83014000D01*
X99672144Y-83014000D01*
X99529286Y-83085429D01*
X99457858Y-83156857D01*
X99386429Y-83299714D01*
X99386429Y-72171429D02*
X99457858Y-72100000D01*
X99600715Y-72028571D01*
X99957858Y-72028571D01*
X100100715Y-72100000D01*
X100172144Y-72171429D01*
X100243572Y-72314286D01*
X100243572Y-72457143D01*
X100172144Y-72671429D01*
X99315001Y-73528571D01*
X100243572Y-73528571D01*
X100243572Y-70988571D02*
X99386429Y-70988571D01*
X99815001Y-70988571D02*
X99815001Y-69488571D01*
X99672144Y-69702857D01*
X99529286Y-69845714D01*
X99386429Y-69917143D01*
X99616572Y-66948571D02*
X99759429Y-66948571D01*
X99902286Y-67020000D01*
X99973715Y-67091429D01*
X100045144Y-67234286D01*
X100116572Y-67520000D01*
X100116572Y-67877143D01*
X100045144Y-68162857D01*
X99973715Y-68305714D01*
X99902286Y-68377143D01*
X99759429Y-68448571D01*
X99616572Y-68448571D01*
X99473715Y-68377143D01*
X99402286Y-68305714D01*
X99330858Y-68162857D01*
X99259429Y-67877143D01*
X99259429Y-67520000D01*
X99330858Y-67234286D01*
X99402286Y-67091429D01*
X99473715Y-67020000D01*
X99616572Y-66948571D01*
X131371430Y-75076571D02*
X131371430Y-76290857D01*
X131442858Y-76433714D01*
X131514287Y-76505143D01*
X131657144Y-76576571D01*
X131942858Y-76576571D01*
X132085716Y-76505143D01*
X132157144Y-76433714D01*
X132228573Y-76290857D01*
X132228573Y-75076571D01*
X133657145Y-76576571D02*
X132942859Y-76576571D01*
X132942859Y-75076571D01*
X134014288Y-75076571D02*
X135014288Y-76576571D01*
X135014288Y-75076571D02*
X134014288Y-76576571D01*
X135442859Y-75076571D02*
X136371430Y-75076571D01*
X135871430Y-75648000D01*
X136085716Y-75648000D01*
X136228573Y-75719429D01*
X136300002Y-75790857D01*
X136371430Y-75933714D01*
X136371430Y-76290857D01*
X136300002Y-76433714D01*
X136228573Y-76505143D01*
X136085716Y-76576571D01*
X135657144Y-76576571D01*
X135514287Y-76505143D01*
X135442859Y-76433714D01*
X136942858Y-76505143D02*
X137157144Y-76576571D01*
X137514287Y-76576571D01*
X137657144Y-76505143D01*
X137728573Y-76433714D01*
X137800001Y-76290857D01*
X137800001Y-76148000D01*
X137728573Y-76005143D01*
X137657144Y-75933714D01*
X137514287Y-75862286D01*
X137228573Y-75790857D01*
X137085715Y-75719429D01*
X137014287Y-75648000D01*
X136942858Y-75505143D01*
X136942858Y-75362286D01*
X137014287Y-75219429D01*
X137085715Y-75148000D01*
X137228573Y-75076571D01*
X137585715Y-75076571D01*
X137800001Y-75148000D01*
X139442858Y-75576571D02*
X139800001Y-76576571D01*
X140157143Y-75576571D01*
X141514286Y-76576571D02*
X140657143Y-76576571D01*
X141085715Y-76576571D02*
X141085715Y-75076571D01*
X140942858Y-75290857D01*
X140800000Y-75433714D01*
X140657143Y-75505143D01*
X142157143Y-76433714D02*
X142228571Y-76505143D01*
X142157143Y-76576571D01*
X142085714Y-76505143D01*
X142157143Y-76433714D01*
X142157143Y-76576571D01*
X142728572Y-75076571D02*
X143728572Y-75076571D01*
X143085715Y-76576571D01*
X144300000Y-76433714D02*
X144371428Y-76505143D01*
X144300000Y-76576571D01*
X144228571Y-76505143D01*
X144300000Y-76433714D01*
X144300000Y-76576571D01*
X144871429Y-75076571D02*
X145800000Y-75076571D01*
X145300000Y-75648000D01*
X145514286Y-75648000D01*
X145657143Y-75719429D01*
X145728572Y-75790857D01*
X145800000Y-75933714D01*
X145800000Y-76290857D01*
X145728572Y-76433714D01*
X145657143Y-76505143D01*
X145514286Y-76576571D01*
X145085714Y-76576571D01*
X144942857Y-76505143D01*
X144871429Y-76433714D01*
X123159429Y-82140857D02*
X122659429Y-82140857D01*
X122659429Y-82926571D02*
X122659429Y-81426571D01*
X123373715Y-81426571D01*
X123945143Y-82926571D02*
X123945143Y-81426571D01*
X124516571Y-81426571D01*
X124659429Y-81498000D01*
X124730857Y-81569429D01*
X124802286Y-81712286D01*
X124802286Y-81926571D01*
X124730857Y-82069429D01*
X124659429Y-82140857D01*
X124516571Y-82212286D01*
X123945143Y-82212286D01*
X126230857Y-81498000D02*
X126088000Y-81426571D01*
X125873714Y-81426571D01*
X125659429Y-81498000D01*
X125516571Y-81640857D01*
X125445143Y-81783714D01*
X125373714Y-82069429D01*
X125373714Y-82283714D01*
X125445143Y-82569429D01*
X125516571Y-82712286D01*
X125659429Y-82855143D01*
X125873714Y-82926571D01*
X126016571Y-82926571D01*
X126230857Y-82855143D01*
X126302286Y-82783714D01*
X126302286Y-82283714D01*
X126016571Y-82283714D01*
X126873714Y-82498000D02*
X127588000Y-82498000D01*
X126730857Y-82926571D02*
X127230857Y-81426571D01*
X127730857Y-82926571D01*
X168077929Y-80886643D02*
X168292215Y-80958071D01*
X168649358Y-80958071D01*
X168792215Y-80886643D01*
X168863644Y-80815214D01*
X168935072Y-80672357D01*
X168935072Y-80529500D01*
X168863644Y-80386643D01*
X168792215Y-80315214D01*
X168649358Y-80243786D01*
X168363644Y-80172357D01*
X168220786Y-80100929D01*
X168149358Y-80029500D01*
X168077929Y-79886643D01*
X168077929Y-79743786D01*
X168149358Y-79600929D01*
X168220786Y-79529500D01*
X168363644Y-79458071D01*
X168720786Y-79458071D01*
X168935072Y-79529500D01*
X169577929Y-80958071D02*
X169577929Y-79458071D01*
X169935072Y-79458071D01*
X170149357Y-79529500D01*
X170292215Y-79672357D01*
X170363643Y-79815214D01*
X170435072Y-80100929D01*
X170435072Y-80315214D01*
X170363643Y-80600929D01*
X170292215Y-80743786D01*
X170149357Y-80886643D01*
X169935072Y-80958071D01*
X169577929Y-80958071D01*
X171935072Y-80958071D02*
X171435072Y-80243786D01*
X171077929Y-80958071D02*
X171077929Y-79458071D01*
X171649357Y-79458071D01*
X171792215Y-79529500D01*
X171863643Y-79600929D01*
X171935072Y-79743786D01*
X171935072Y-79958071D01*
X171863643Y-80100929D01*
X171792215Y-80172357D01*
X171649357Y-80243786D01*
X171077929Y-80243786D01*
X172506500Y-80529500D02*
X173220786Y-80529500D01*
X172363643Y-80958071D02*
X172863643Y-79458071D01*
X173363643Y-80958071D01*
X173863643Y-80958071D02*
X173863643Y-79458071D01*
X174363643Y-80529500D01*
X174863643Y-79458071D01*
X174863643Y-80958071D01*
X169966857Y-100278000D02*
X170681143Y-100278000D01*
X169824000Y-100706571D02*
X170324000Y-99206571D01*
X170824000Y-100706571D01*
X171324000Y-100706571D02*
X171324000Y-99206571D01*
X171681143Y-99206571D01*
X171895428Y-99278000D01*
X172038286Y-99420857D01*
X172109714Y-99563714D01*
X172181143Y-99849429D01*
X172181143Y-100063714D01*
X172109714Y-100349429D01*
X172038286Y-100492286D01*
X171895428Y-100635143D01*
X171681143Y-100706571D01*
X171324000Y-100706571D01*
X173681143Y-100563714D02*
X173609714Y-100635143D01*
X173395428Y-100706571D01*
X173252571Y-100706571D01*
X173038286Y-100635143D01*
X172895428Y-100492286D01*
X172824000Y-100349429D01*
X172752571Y-100063714D01*
X172752571Y-99849429D01*
X172824000Y-99563714D01*
X172895428Y-99420857D01*
X173038286Y-99278000D01*
X173252571Y-99206571D01*
X173395428Y-99206571D01*
X173609714Y-99278000D01*
X173681143Y-99349429D01*
D11*
X142447381Y-111521333D02*
X142447381Y-110949904D01*
X143447381Y-111235619D02*
X142447381Y-111235619D01*
X143447381Y-110616571D02*
X142447381Y-110616571D01*
X143161667Y-110283237D01*
X142447381Y-109949904D01*
X143447381Y-109949904D01*
X143399762Y-109521333D02*
X143447381Y-109378476D01*
X143447381Y-109140380D01*
X143399762Y-109045142D01*
X143352143Y-108997523D01*
X143256905Y-108949904D01*
X143161667Y-108949904D01*
X143066429Y-108997523D01*
X143018810Y-109045142D01*
X142971190Y-109140380D01*
X142923571Y-109330857D01*
X142875952Y-109426095D01*
X142828333Y-109473714D01*
X142733095Y-109521333D01*
X142637857Y-109521333D01*
X142542619Y-109473714D01*
X142495000Y-109426095D01*
X142447381Y-109330857D01*
X142447381Y-109092761D01*
X142495000Y-108949904D01*
X142447381Y-108163809D02*
X142447381Y-107592380D01*
X143447381Y-107878095D02*
X142447381Y-107878095D01*
X143447381Y-107259047D02*
X142447381Y-107259047D01*
X142447381Y-107020952D01*
X142495000Y-106878094D01*
X142590238Y-106782856D01*
X142685476Y-106735237D01*
X142875952Y-106687618D01*
X143018810Y-106687618D01*
X143209286Y-106735237D01*
X143304524Y-106782856D01*
X143399762Y-106878094D01*
X143447381Y-107020952D01*
X143447381Y-107259047D01*
X143447381Y-106259047D02*
X142447381Y-106259047D01*
X142495000Y-104726904D02*
X142447381Y-104822142D01*
X142447381Y-104964999D01*
X142495000Y-105107857D01*
X142590238Y-105203095D01*
X142685476Y-105250714D01*
X142875952Y-105298333D01*
X143018810Y-105298333D01*
X143209286Y-105250714D01*
X143304524Y-105203095D01*
X143399762Y-105107857D01*
X143447381Y-104964999D01*
X143447381Y-104869761D01*
X143399762Y-104726904D01*
X143352143Y-104679285D01*
X143018810Y-104679285D01*
X143018810Y-104869761D01*
X143447381Y-104250714D02*
X142447381Y-104250714D01*
X143447381Y-103679285D01*
X142447381Y-103679285D01*
X143447381Y-103203095D02*
X142447381Y-103203095D01*
X142447381Y-102965000D01*
X142495000Y-102822142D01*
X142590238Y-102726904D01*
X142685476Y-102679285D01*
X142875952Y-102631666D01*
X143018810Y-102631666D01*
X143209286Y-102679285D01*
X143304524Y-102726904D01*
X143399762Y-102822142D01*
X143447381Y-102965000D01*
X143447381Y-103203095D01*
X134827381Y-111624524D02*
X134827381Y-111053095D01*
X135827381Y-111338810D02*
X134827381Y-111338810D01*
X135827381Y-110719762D02*
X134827381Y-110719762D01*
X134827381Y-110481667D01*
X134875000Y-110338809D01*
X134970238Y-110243571D01*
X135065476Y-110195952D01*
X135255952Y-110148333D01*
X135398810Y-110148333D01*
X135589286Y-110195952D01*
X135684524Y-110243571D01*
X135779762Y-110338809D01*
X135827381Y-110481667D01*
X135827381Y-110719762D01*
X134827381Y-109529286D02*
X134827381Y-109338809D01*
X134875000Y-109243571D01*
X134970238Y-109148333D01*
X135160714Y-109100714D01*
X135494048Y-109100714D01*
X135684524Y-109148333D01*
X135779762Y-109243571D01*
X135827381Y-109338809D01*
X135827381Y-109529286D01*
X135779762Y-109624524D01*
X135684524Y-109719762D01*
X135494048Y-109767381D01*
X135160714Y-109767381D01*
X134970238Y-109719762D01*
X134875000Y-109624524D01*
X134827381Y-109529286D01*
X134827381Y-108425714D02*
X134827381Y-107854285D01*
X135827381Y-108140000D02*
X134827381Y-108140000D01*
X135732143Y-106949523D02*
X135779762Y-106997142D01*
X135827381Y-107139999D01*
X135827381Y-107235237D01*
X135779762Y-107378095D01*
X135684524Y-107473333D01*
X135589286Y-107520952D01*
X135398810Y-107568571D01*
X135255952Y-107568571D01*
X135065476Y-107520952D01*
X134970238Y-107473333D01*
X134875000Y-107378095D01*
X134827381Y-107235237D01*
X134827381Y-107139999D01*
X134875000Y-106997142D01*
X134922619Y-106949523D01*
X135827381Y-106520952D02*
X134827381Y-106520952D01*
X135827381Y-105949523D02*
X135255952Y-106378095D01*
X134827381Y-105949523D02*
X135398810Y-106520952D01*
X134827381Y-105203095D02*
X134827381Y-104584047D01*
X135208333Y-104917381D01*
X135208333Y-104774523D01*
X135255952Y-104679285D01*
X135303571Y-104631666D01*
X135398810Y-104584047D01*
X135636905Y-104584047D01*
X135732143Y-104631666D01*
X135779762Y-104679285D01*
X135827381Y-104774523D01*
X135827381Y-105060238D01*
X135779762Y-105155476D01*
X135732143Y-105203095D01*
X134827381Y-104298333D02*
X135827381Y-103965000D01*
X134827381Y-103631666D01*
X134827381Y-103393571D02*
X134827381Y-102774523D01*
X135208333Y-103107857D01*
X135208333Y-102964999D01*
X135255952Y-102869761D01*
X135303571Y-102822142D01*
X135398810Y-102774523D01*
X135636905Y-102774523D01*
X135732143Y-102822142D01*
X135779762Y-102869761D01*
X135827381Y-102964999D01*
X135827381Y-103250714D01*
X135779762Y-103345952D01*
X135732143Y-103393571D01*
D14*
X85270000Y-112220000D02*
X94100000Y-112220000D01*
X85270000Y-109680000D02*
X85270000Y-112220000D01*
X94100000Y-109680000D02*
X94100000Y-112220000D01*
X94100000Y-112220000D02*
X85270000Y-112220000D01*
X94100000Y-109680000D02*
X85270000Y-109680000D01*
X94100000Y-107140000D02*
X94100000Y-109680000D01*
X85270000Y-107140000D02*
X85270000Y-109680000D01*
X85270000Y-109680000D02*
X94100000Y-109680000D01*
X85270000Y-91900000D02*
X94100000Y-91900000D01*
X85270000Y-89360000D02*
X85270000Y-91900000D01*
X94100000Y-89360000D02*
X94100000Y-91900000D01*
X94100000Y-91900000D02*
X85270000Y-91900000D01*
X94100000Y-94440000D02*
X85270000Y-94440000D01*
X94100000Y-91900000D02*
X94100000Y-94440000D01*
X85270000Y-91900000D02*
X85270000Y-94440000D01*
X85270000Y-94440000D02*
X94100000Y-94440000D01*
X85270000Y-107140000D02*
X94100000Y-107140000D01*
X85270000Y-104600000D02*
X85270000Y-107140000D01*
X94100000Y-104600000D02*
X94100000Y-107140000D01*
X94100000Y-107140000D02*
X85270000Y-107140000D01*
X94100000Y-104600000D02*
X85270000Y-104600000D01*
X94100000Y-102060000D02*
X94100000Y-104600000D01*
X85270000Y-102060000D02*
X85270000Y-104600000D01*
X85270000Y-104600000D02*
X94100000Y-104600000D01*
X85270000Y-102060000D02*
X94100000Y-102060000D01*
X85270000Y-99520000D02*
X85270000Y-102060000D01*
X94100000Y-99520000D02*
X94100000Y-102060000D01*
X94100000Y-102060000D02*
X85270000Y-102060000D01*
X94100000Y-99520000D02*
X85270000Y-99520000D01*
X94100000Y-96980000D02*
X94100000Y-99520000D01*
X85270000Y-96980000D02*
X85270000Y-99520000D01*
X85270000Y-99520000D02*
X94100000Y-99520000D01*
X85270000Y-96980000D02*
X94100000Y-96980000D01*
X85270000Y-94440000D02*
X85270000Y-96980000D01*
X94100000Y-94440000D02*
X94100000Y-96980000D01*
X94100000Y-96980000D02*
X85270000Y-96980000D01*
X94100000Y-79200000D02*
X85270000Y-79200000D01*
X94100000Y-76660000D02*
X94100000Y-79200000D01*
X85270000Y-76660000D02*
X85270000Y-79200000D01*
X85270000Y-79200000D02*
X94100000Y-79200000D01*
X85270000Y-81740000D02*
X94100000Y-81740000D01*
X85270000Y-79200000D02*
X85270000Y-81740000D01*
X94100000Y-79200000D02*
X94100000Y-81740000D01*
X94100000Y-81740000D02*
X85270000Y-81740000D01*
X94100000Y-84280000D02*
X85270000Y-84280000D01*
X94100000Y-81740000D02*
X94100000Y-84280000D01*
X85270000Y-81740000D02*
X85270000Y-84280000D01*
X85270000Y-84280000D02*
X94100000Y-84280000D01*
X85270000Y-86820000D02*
X94100000Y-86820000D01*
X85270000Y-84280000D02*
X85270000Y-86820000D01*
X94100000Y-84280000D02*
X94100000Y-86820000D01*
X94100000Y-86820000D02*
X85270000Y-86820000D01*
X94100000Y-89360000D02*
X85270000Y-89360000D01*
X94100000Y-86820000D02*
X94100000Y-89360000D01*
X85270000Y-86820000D02*
X85270000Y-89360000D01*
X85270000Y-89360000D02*
X94100000Y-89360000D01*
X85270000Y-76660000D02*
X94100000Y-76660000D01*
X85270000Y-74120000D02*
X85270000Y-76660000D01*
X94100000Y-74120000D02*
X94100000Y-76660000D01*
X94100000Y-76660000D02*
X85270000Y-76660000D01*
X94100000Y-74120000D02*
X85270000Y-74120000D01*
X94100000Y-71580000D02*
X94100000Y-74120000D01*
X85270000Y-71580000D02*
X85270000Y-74120000D01*
X85270000Y-74120000D02*
X94100000Y-74120000D01*
X85270000Y-71580000D02*
X94100000Y-71580000D01*
X85270000Y-69040000D02*
X85270000Y-71580000D01*
X94100000Y-69040000D02*
X94100000Y-71580000D01*
X94100000Y-71580000D02*
X85270000Y-71580000D01*
X94100000Y-69040000D02*
X85270000Y-69040000D01*
X94100000Y-66500000D02*
X94100000Y-69040000D01*
X85270000Y-66500000D02*
X85270000Y-69040000D01*
X85270000Y-69040000D02*
X94100000Y-69040000D01*
X85270000Y-66500000D02*
X94100000Y-66500000D01*
X85270000Y-63960000D02*
X85270000Y-66500000D01*
X94100000Y-63960000D02*
X94100000Y-66500000D01*
X94100000Y-66500000D02*
X85270000Y-66500000D01*
X94100000Y-63960000D02*
X85270000Y-63960000D01*
X94100000Y-61420000D02*
X94100000Y-63960000D01*
X99060000Y-62690000D02*
X99060000Y-61140000D01*
X99060000Y-61140000D02*
X97910000Y-61140000D01*
X94100000Y-61420000D02*
X85270000Y-61420000D01*
X85270000Y-61420000D02*
X85270000Y-63960000D01*
X85270000Y-63960000D02*
X94100000Y-63960000D01*
X196910000Y-61420000D02*
X188080000Y-61420000D01*
X196910000Y-63960000D02*
X196910000Y-61420000D01*
X188080000Y-63960000D02*
X188080000Y-61420000D01*
X188080000Y-61420000D02*
X196910000Y-61420000D01*
X188080000Y-63960000D02*
X196910000Y-63960000D01*
X188080000Y-66500000D02*
X188080000Y-63960000D01*
X196910000Y-66500000D02*
X196910000Y-63960000D01*
X196910000Y-63960000D02*
X188080000Y-63960000D01*
X196910000Y-81740000D02*
X188080000Y-81740000D01*
X196910000Y-84280000D02*
X196910000Y-81740000D01*
X188080000Y-84280000D02*
X188080000Y-81740000D01*
X188080000Y-81740000D02*
X196910000Y-81740000D01*
X188080000Y-79200000D02*
X196910000Y-79200000D01*
X188080000Y-81740000D02*
X188080000Y-79200000D01*
X196910000Y-81740000D02*
X196910000Y-79200000D01*
X196910000Y-79200000D02*
X188080000Y-79200000D01*
X196910000Y-66500000D02*
X188080000Y-66500000D01*
X196910000Y-69040000D02*
X196910000Y-66500000D01*
X188080000Y-69040000D02*
X188080000Y-66500000D01*
X188080000Y-66500000D02*
X196910000Y-66500000D01*
X188080000Y-69040000D02*
X196910000Y-69040000D01*
X188080000Y-71580000D02*
X188080000Y-69040000D01*
X196910000Y-71580000D02*
X196910000Y-69040000D01*
X196910000Y-69040000D02*
X188080000Y-69040000D01*
X196910000Y-71580000D02*
X188080000Y-71580000D01*
X196910000Y-74120000D02*
X196910000Y-71580000D01*
X188080000Y-74120000D02*
X188080000Y-71580000D01*
X188080000Y-71580000D02*
X196910000Y-71580000D01*
X188080000Y-74120000D02*
X196910000Y-74120000D01*
X188080000Y-76660000D02*
X188080000Y-74120000D01*
X196910000Y-76660000D02*
X196910000Y-74120000D01*
X196910000Y-74120000D02*
X188080000Y-74120000D01*
X196910000Y-76660000D02*
X188080000Y-76660000D01*
X196910000Y-79200000D02*
X196910000Y-76660000D01*
X188080000Y-79200000D02*
X188080000Y-76660000D01*
X188080000Y-76660000D02*
X196910000Y-76660000D01*
X188080000Y-94440000D02*
X196910000Y-94440000D01*
X188080000Y-96980000D02*
X188080000Y-94440000D01*
X196910000Y-96980000D02*
X196910000Y-94440000D01*
X196910000Y-94440000D02*
X188080000Y-94440000D01*
X196910000Y-91900000D02*
X188080000Y-91900000D01*
X196910000Y-94440000D02*
X196910000Y-91900000D01*
X188080000Y-94440000D02*
X188080000Y-91900000D01*
X188080000Y-91900000D02*
X196910000Y-91900000D01*
X188080000Y-89360000D02*
X196910000Y-89360000D01*
X188080000Y-91900000D02*
X188080000Y-89360000D01*
X196910000Y-91900000D02*
X196910000Y-89360000D01*
X196910000Y-89360000D02*
X188080000Y-89360000D01*
X196910000Y-86820000D02*
X188080000Y-86820000D01*
X196910000Y-89360000D02*
X196910000Y-86820000D01*
X188080000Y-89360000D02*
X188080000Y-86820000D01*
X188080000Y-86820000D02*
X196910000Y-86820000D01*
X188080000Y-84280000D02*
X196910000Y-84280000D01*
X188080000Y-86820000D02*
X188080000Y-84280000D01*
X196910000Y-86820000D02*
X196910000Y-84280000D01*
X196910000Y-84280000D02*
X188080000Y-84280000D01*
X196910000Y-96980000D02*
X188080000Y-96980000D01*
X196910000Y-99520000D02*
X196910000Y-96980000D01*
X188080000Y-99520000D02*
X188080000Y-96980000D01*
X188080000Y-96980000D02*
X196910000Y-96980000D01*
X188080000Y-99520000D02*
X196910000Y-99520000D01*
X188080000Y-102060000D02*
X188080000Y-99520000D01*
X196910000Y-102060000D02*
X196910000Y-99520000D01*
X196910000Y-99520000D02*
X188080000Y-99520000D01*
X196910000Y-102060000D02*
X188080000Y-102060000D01*
X196910000Y-104600000D02*
X196910000Y-102060000D01*
X188080000Y-104600000D02*
X188080000Y-102060000D01*
X188080000Y-102060000D02*
X196910000Y-102060000D01*
X188080000Y-104600000D02*
X196910000Y-104600000D01*
X188080000Y-107140000D02*
X188080000Y-104600000D01*
X196910000Y-107140000D02*
X196910000Y-104600000D01*
X196910000Y-104600000D02*
X188080000Y-104600000D01*
X196910000Y-107140000D02*
X188080000Y-107140000D01*
X196910000Y-109680000D02*
X196910000Y-107140000D01*
X188080000Y-109680000D02*
X188080000Y-107140000D01*
X188080000Y-107140000D02*
X196910000Y-107140000D01*
X188080000Y-109680000D02*
X196910000Y-109680000D01*
X188080000Y-112220000D02*
X188080000Y-109680000D01*
X183120000Y-110950000D02*
X183120000Y-112500000D01*
X183120000Y-112500000D02*
X184270000Y-112500000D01*
X188080000Y-112220000D02*
X196910000Y-112220000D01*
X196910000Y-112220000D02*
X196910000Y-109680000D01*
X196910000Y-109680000D02*
X188080000Y-109680000D01*
X100170000Y-95456000D02*
X100170000Y-97006000D01*
X102990000Y-94186000D02*
X100450000Y-94186000D01*
X100170000Y-97006000D02*
X101720000Y-97006000D01*
X105530000Y-94186000D02*
X102990000Y-94186000D01*
X102990000Y-94186000D02*
X102990000Y-96726000D01*
X102990000Y-96726000D02*
X105530000Y-96726000D01*
X105530000Y-96726000D02*
X105530000Y-94186000D01*
X127715000Y-110180000D02*
X127715000Y-109180000D01*
X129065000Y-109180000D02*
X129065000Y-110180000D01*
X131605000Y-109180000D02*
X131605000Y-110180000D01*
X130255000Y-110180000D02*
X130255000Y-109180000D01*
X116280000Y-64925000D02*
X116280000Y-66925000D01*
X116280000Y-66925000D02*
X114130000Y-66925000D01*
X109630000Y-66925000D02*
X107480000Y-66925000D01*
X107480000Y-66925000D02*
X107480000Y-64975000D01*
X174700000Y-64925000D02*
X174700000Y-66925000D01*
X174700000Y-66925000D02*
X172550000Y-66925000D01*
X168050000Y-66925000D02*
X165900000Y-66925000D01*
X165900000Y-66925000D02*
X165900000Y-64975000D01*
X141725000Y-110950000D02*
X141725000Y-105870000D01*
X142005000Y-103050000D02*
X142005000Y-104600000D01*
X139185000Y-103330000D02*
X139185000Y-105870000D01*
X139185000Y-105870000D02*
X141725000Y-105870000D01*
X141725000Y-110950000D02*
X136645000Y-110950000D01*
X136645000Y-110950000D02*
X136645000Y-105870000D01*
X142005000Y-103050000D02*
X140455000Y-103050000D01*
X136645000Y-103330000D02*
X139185000Y-103330000D01*
X136645000Y-105870000D02*
X136645000Y-103330000D01*
X118905000Y-79970000D02*
X118905000Y-80970000D01*
X117555000Y-80970000D02*
X117555000Y-79970000D01*
X116365000Y-79970000D02*
X116365000Y-80970000D01*
X115015000Y-80970000D02*
X115015000Y-79970000D01*
X113825000Y-79970000D02*
X113825000Y-80970000D01*
X112475000Y-80970000D02*
X112475000Y-79970000D01*
X111285000Y-79970000D02*
X111285000Y-80970000D01*
X109935000Y-80970000D02*
X109935000Y-79970000D01*
X108745000Y-79970000D02*
X108745000Y-80970000D01*
X107395000Y-80970000D02*
X107395000Y-79970000D01*
X106205000Y-79970000D02*
X106205000Y-80970000D01*
X104855000Y-80970000D02*
X104855000Y-79970000D01*
X103665000Y-79970000D02*
X103665000Y-80970000D01*
X102315000Y-80970000D02*
X102315000Y-79970000D01*
X101125000Y-79970000D02*
X101125000Y-80970000D01*
X99775000Y-80970000D02*
X99775000Y-79970000D01*
X174660000Y-102780000D02*
X174660000Y-102030000D01*
X179910000Y-97530000D02*
X179910000Y-98280000D01*
X174660000Y-97530000D02*
X174660000Y-98280000D01*
X179910000Y-102780000D02*
X179160000Y-102780000D01*
X179910000Y-97530000D02*
X179160000Y-97530000D01*
X174660000Y-97530000D02*
X175410000Y-97530000D01*
X174660000Y-102780000D02*
X175410000Y-102780000D01*
X146170000Y-99520000D02*
X130930000Y-99520000D01*
X130930000Y-99520000D02*
X130930000Y-102060000D01*
X130930000Y-102060000D02*
X146170000Y-102060000D01*
X148990000Y-99240000D02*
X147440000Y-99240000D01*
X146170000Y-99520000D02*
X146170000Y-102060000D01*
X147440000Y-102340000D02*
X148990000Y-102340000D01*
X148990000Y-102340000D02*
X148990000Y-99240000D01*
D15*
X168340000Y-77350000D02*
X168340000Y-77320000D01*
X168340000Y-70890000D02*
X168340000Y-70920000D01*
X174800000Y-70890000D02*
X174800000Y-70920000D01*
X174800000Y-77320000D02*
X174800000Y-77350000D01*
X168340000Y-75420000D02*
X168340000Y-72820000D01*
X174800000Y-77350000D02*
X168340000Y-77350000D01*
X174800000Y-75420000D02*
X174800000Y-72820000D01*
X174800000Y-70890000D02*
X168340000Y-70890000D01*
X107490000Y-86130000D02*
X107490000Y-86160000D01*
X107490000Y-92590000D02*
X107490000Y-92560000D01*
X101030000Y-92590000D02*
X101030000Y-92560000D01*
X101030000Y-86160000D02*
X101030000Y-86130000D01*
X107490000Y-88060000D02*
X107490000Y-90660000D01*
X101030000Y-86130000D02*
X107490000Y-86130000D01*
X101030000Y-88060000D02*
X101030000Y-90660000D01*
X101030000Y-92590000D02*
X107490000Y-92590000D01*
X118920000Y-86130000D02*
X118920000Y-86160000D01*
X118920000Y-92590000D02*
X118920000Y-92560000D01*
X112460000Y-92590000D02*
X112460000Y-92560000D01*
X112460000Y-86160000D02*
X112460000Y-86130000D01*
X118920000Y-88060000D02*
X118920000Y-90660000D01*
X112460000Y-86130000D02*
X118920000Y-86130000D01*
X112460000Y-88060000D02*
X112460000Y-90660000D01*
X112460000Y-92590000D02*
X118920000Y-92590000D01*
X163370000Y-96290000D02*
X163370000Y-96320000D01*
X163370000Y-102750000D02*
X163370000Y-102720000D01*
X156910000Y-102750000D02*
X156910000Y-102720000D01*
X156910000Y-96320000D02*
X156910000Y-96290000D01*
X163370000Y-98220000D02*
X163370000Y-100820000D01*
X156910000Y-96290000D02*
X163370000Y-96290000D01*
X156910000Y-98220000D02*
X156910000Y-100820000D01*
X156910000Y-102750000D02*
X163370000Y-102750000D01*
X156910000Y-111640000D02*
X156910000Y-111610000D01*
X156910000Y-105180000D02*
X156910000Y-105210000D01*
X163370000Y-105180000D02*
X163370000Y-105210000D01*
X163370000Y-111610000D02*
X163370000Y-111640000D01*
X156910000Y-109710000D02*
X156910000Y-107110000D01*
X163370000Y-111640000D02*
X156910000Y-111640000D01*
X163370000Y-109710000D02*
X163370000Y-107110000D01*
X163370000Y-105180000D02*
X156910000Y-105180000D01*
X145480000Y-111640000D02*
X145480000Y-111610000D01*
X145480000Y-105180000D02*
X145480000Y-105210000D01*
X151940000Y-105180000D02*
X151940000Y-105210000D01*
X151940000Y-111610000D02*
X151940000Y-111640000D01*
X145480000Y-109710000D02*
X145480000Y-107110000D01*
X151940000Y-111640000D02*
X145480000Y-111640000D01*
X151940000Y-109710000D02*
X151940000Y-107110000D01*
X151940000Y-105180000D02*
X145480000Y-105180000D01*
X168340000Y-111640000D02*
X168340000Y-111610000D01*
X168340000Y-105180000D02*
X168340000Y-105210000D01*
X174800000Y-105180000D02*
X174800000Y-105210000D01*
X174800000Y-111610000D02*
X174800000Y-111640000D01*
X168340000Y-109710000D02*
X168340000Y-107110000D01*
X174800000Y-111640000D02*
X168340000Y-111640000D01*
X174800000Y-109710000D02*
X174800000Y-107110000D01*
X174800000Y-105180000D02*
X168340000Y-105180000D01*
X154160000Y-76965000D02*
X154160000Y-71275000D01*
X154160000Y-71275000D02*
X166120000Y-71275000D01*
X166120000Y-71275000D02*
X166120000Y-76965000D01*
X166120000Y-76965000D02*
X157600000Y-76965000D01*
X155695000Y-75930000D02*
X156965000Y-75930000D01*
X156965000Y-75930000D02*
X156965000Y-72310000D01*
X156965000Y-72310000D02*
X155695000Y-72310000D01*
X155695000Y-72310000D02*
X155695000Y-75930000D01*
X155695000Y-74120000D02*
X156965000Y-74120000D01*
X158235000Y-75930000D02*
X159505000Y-75930000D01*
X159505000Y-75930000D02*
X159505000Y-72310000D01*
X159505000Y-72310000D02*
X158235000Y-72310000D01*
X158235000Y-72310000D02*
X158235000Y-75930000D01*
X158235000Y-74120000D02*
X159505000Y-74120000D01*
X160775000Y-75930000D02*
X162045000Y-75930000D01*
X162045000Y-75930000D02*
X162045000Y-72310000D01*
X162045000Y-72310000D02*
X160775000Y-72310000D01*
X160775000Y-72310000D02*
X160775000Y-75930000D01*
X160775000Y-74120000D02*
X162045000Y-74120000D01*
X163315000Y-75930000D02*
X164585000Y-75930000D01*
X164585000Y-75930000D02*
X164585000Y-72310000D01*
X164585000Y-72310000D02*
X163315000Y-72310000D01*
X163315000Y-72310000D02*
X163315000Y-75930000D01*
X163315000Y-74120000D02*
X164585000Y-74120000D01*
D14*
X130880000Y-80200000D02*
X131080000Y-80200000D01*
X130880000Y-80400000D02*
X130880000Y-80200000D01*
X146080000Y-80200000D02*
X146080000Y-80400000D01*
X145880000Y-80200000D02*
X146080000Y-80200000D01*
X146080000Y-95400000D02*
X146080000Y-95200000D01*
X145880000Y-95400000D02*
X146080000Y-95400000D01*
X130880000Y-95400000D02*
X131080000Y-95400000D01*
X130880000Y-95200000D02*
X130880000Y-95400000D01*
X130280000Y-78800000D02*
X129480000Y-79600000D01*
X129480000Y-96800000D02*
X129480000Y-78800000D01*
X147480000Y-96800000D02*
X129480000Y-96800000D01*
X147480000Y-78800000D02*
X147480000Y-96800000D01*
X129480000Y-78800000D02*
X147480000Y-78800000D01*
X129880000Y-96400000D02*
X129880000Y-79200000D01*
X147080000Y-96400000D02*
X129880000Y-96400000D01*
X147080000Y-79200000D02*
X147080000Y-96400000D01*
X129880000Y-79200000D02*
X147080000Y-79200000D01*
D12*
X149980000Y-94836000D02*
X149980000Y-94136000D01*
X148980000Y-94836000D02*
X148980000Y-94136000D01*
X151980000Y-80836000D02*
X152980000Y-79836000D01*
X152980000Y-81836000D02*
X151980000Y-80836000D01*
X151980000Y-82836000D02*
X152980000Y-81836000D01*
X152980000Y-83836000D02*
X151980000Y-82836000D01*
X151980000Y-84836000D02*
X152980000Y-83836000D01*
X152980000Y-85836000D02*
X151980000Y-84836000D01*
X151980000Y-86836000D02*
X152980000Y-85836000D01*
X152980000Y-87836000D02*
X151980000Y-86836000D01*
X151980000Y-88836000D02*
X152980000Y-87836000D01*
X152980000Y-89836000D02*
X151980000Y-88836000D01*
X151980000Y-90836000D02*
X152980000Y-89836000D01*
X152980000Y-91836000D02*
X151980000Y-90836000D01*
X151980000Y-92836000D02*
X152980000Y-91836000D01*
X152980000Y-93836000D02*
X151980000Y-92836000D01*
X151980000Y-94836000D02*
X152980000Y-93836000D01*
X152980000Y-95836000D02*
X151980000Y-94836000D01*
X150980000Y-90836000D02*
X150980000Y-90536000D01*
X148980000Y-90836000D02*
X148980000Y-90536000D01*
X148980000Y-89036000D02*
X148980000Y-88036000D01*
X150980000Y-89036000D02*
X150980000Y-88036000D01*
X150980000Y-83336000D02*
X148980000Y-83336000D01*
X148980000Y-84736000D02*
X150980000Y-83336000D01*
X149980000Y-94136000D02*
X150980000Y-93536000D01*
X149980000Y-85436000D02*
X150980000Y-86036000D01*
X148980000Y-86036000D02*
X149980000Y-85436000D01*
X149980000Y-87636000D02*
X148980000Y-87036000D01*
X150980000Y-87036000D02*
X149980000Y-87636000D01*
X148980000Y-86036000D02*
X148980000Y-87036000D01*
X150980000Y-87036000D02*
X150980000Y-86036000D01*
X150980000Y-80736000D02*
X150980000Y-82736000D01*
X148980000Y-81736000D02*
X150980000Y-80736000D01*
X150980000Y-82736000D02*
X148980000Y-81736000D01*
X150980000Y-84736000D02*
X148980000Y-84736000D01*
X148980000Y-88536000D02*
X150980000Y-88536000D01*
X150980000Y-90536000D02*
G75*
G03X148980000Y-90536000I-1000000J0D01*
G01*
X150980000Y-90836000D02*
X148980000Y-90836000D01*
X148980000Y-92236000D02*
X150980000Y-91536000D01*
X150980000Y-92936000D02*
X148980000Y-92236000D01*
X149980000Y-94136000D02*
G75*
G03X148980000Y-94136000I-500000J0D01*
G01*
X150980000Y-94836000D02*
X148980000Y-94836000D01*
X124288000Y-92084000D02*
X125888000Y-92084000D01*
X125288000Y-92684000D02*
X124288000Y-92084000D01*
X124288000Y-93284000D02*
X125288000Y-92684000D01*
X125888000Y-93284000D02*
X124288000Y-93284000D01*
X127088000Y-94084000D02*
X126488000Y-93684000D01*
X123088000Y-94084000D02*
X123688000Y-93684000D01*
X123088000Y-96484000D02*
X123088000Y-94084000D01*
X125088000Y-84484000D02*
X124288000Y-87884000D01*
X125888000Y-87884000D02*
X125088000Y-84484000D01*
X124288000Y-87884000D02*
X125888000Y-87884000D01*
X125088000Y-89484000D02*
X125888000Y-88484000D01*
X125088000Y-89084000D02*
X125088000Y-89684000D01*
X124688000Y-88484000D02*
X125088000Y-89084000D01*
X124288000Y-89084000D02*
X124688000Y-88484000D01*
X124288000Y-89684000D02*
X124288000Y-89084000D01*
X124288000Y-89684000D02*
X125888000Y-89684000D01*
X125888000Y-90284000D02*
X125488000Y-91284000D01*
X124288000Y-90884000D02*
X125888000Y-90284000D01*
X125888000Y-91484000D02*
X124288000Y-90884000D01*
X127088000Y-96484000D02*
X127088000Y-94084000D01*
X125088000Y-95484000D02*
X127088000Y-96484000D01*
X123088000Y-96484000D02*
X125088000Y-95484000D01*
D16*
X135000000Y-73196000D02*
X135000000Y-73796000D01*
X135000000Y-73196000D02*
G75*
G03X134400000Y-72596000I-600000J0D01*
G01*
X134400000Y-72596000D02*
G75*
G03X134400000Y-71396000I0J600000D01*
G01*
X133800000Y-72596000D02*
X134400000Y-72596000D01*
X133800000Y-71396000D02*
X134400000Y-71396000D01*
X129400000Y-71396000D02*
X129400000Y-73796000D01*
X131600000Y-73796000D02*
X133000000Y-73796000D01*
X131600000Y-72596000D02*
X133000000Y-72596000D01*
X131600000Y-71396000D02*
X133000000Y-71396000D01*
X129400000Y-71396000D02*
X130800000Y-71396000D01*
X129400000Y-72596000D02*
X130800000Y-72596000D01*
D13*
X115760000Y-70764000D02*
X116160000Y-70364000D01*
X115760000Y-69764000D02*
X116160000Y-69364000D01*
X116260000Y-70264000D02*
X116660000Y-69864000D01*
X116760000Y-69764000D02*
X117160000Y-69364000D01*
X117760000Y-69764000D02*
X118160000Y-69364000D01*
X117260000Y-70264000D02*
X117660000Y-69864000D01*
X116760000Y-70764000D02*
X117160000Y-70364000D01*
X116260000Y-71264000D02*
X116660000Y-70864000D01*
X117760000Y-70764000D02*
X118160000Y-70364000D01*
X117260000Y-71264000D02*
X117660000Y-70864000D01*
X116760000Y-71764000D02*
X117160000Y-71364000D01*
X117960000Y-71364000D02*
X117760000Y-71364000D01*
X117760000Y-71564000D02*
X117960000Y-71364000D01*
X117760000Y-71364000D02*
X117760000Y-71564000D01*
X117160000Y-71364000D02*
X116760000Y-71364000D01*
X117160000Y-71764000D02*
X117160000Y-71364000D01*
X116760000Y-71764000D02*
X117160000Y-71764000D01*
X116760000Y-71364000D02*
X116760000Y-71764000D01*
X116160000Y-71564000D02*
X115960000Y-71364000D01*
X116160000Y-71364000D02*
X116160000Y-71564000D01*
X115960000Y-71364000D02*
X116160000Y-71364000D01*
X117260000Y-71264000D02*
X117260000Y-70864000D01*
X117660000Y-71264000D02*
X117260000Y-71264000D01*
X117660000Y-70864000D02*
X117660000Y-71264000D01*
X117260000Y-70864000D02*
X117660000Y-70864000D01*
X116260000Y-71264000D02*
X116260000Y-70864000D01*
X116660000Y-71264000D02*
X116260000Y-71264000D01*
X116660000Y-70864000D02*
X116660000Y-71264000D01*
X116260000Y-70864000D02*
X116660000Y-70864000D01*
X118160000Y-70364000D02*
X117760000Y-70364000D01*
X118160000Y-70764000D02*
X118160000Y-70364000D01*
X117760000Y-70764000D02*
X118160000Y-70764000D01*
X117760000Y-70364000D02*
X117760000Y-70764000D01*
X117160000Y-70364000D02*
X116760000Y-70364000D01*
X117160000Y-70764000D02*
X117160000Y-70364000D01*
X116760000Y-70764000D02*
X117160000Y-70764000D01*
X116760000Y-70364000D02*
X116760000Y-70764000D01*
X115760000Y-70764000D02*
X115760000Y-70364000D01*
X116160000Y-70764000D02*
X115760000Y-70764000D01*
X116160000Y-70364000D02*
X116160000Y-70764000D01*
X115760000Y-70364000D02*
X116160000Y-70364000D01*
X117660000Y-69864000D02*
X117260000Y-69864000D01*
X117660000Y-70264000D02*
X117660000Y-69864000D01*
X117260000Y-70264000D02*
X117660000Y-70264000D01*
X117260000Y-69864000D02*
X117260000Y-70264000D01*
X116660000Y-69864000D02*
X116260000Y-69864000D01*
X116660000Y-70264000D02*
X116660000Y-69864000D01*
X116260000Y-70264000D02*
X116660000Y-70264000D01*
X116260000Y-69864000D02*
X116260000Y-70264000D01*
X118160000Y-69364000D02*
X117760000Y-69364000D01*
X118160000Y-69764000D02*
X118160000Y-69364000D01*
X117760000Y-69764000D02*
X118160000Y-69764000D01*
X117760000Y-69364000D02*
X117760000Y-69764000D01*
X116760000Y-69764000D02*
X116760000Y-69364000D01*
X117160000Y-69764000D02*
X116760000Y-69764000D01*
X117160000Y-69364000D02*
X117160000Y-69764000D01*
X116760000Y-69364000D02*
X117160000Y-69364000D01*
X115760000Y-69764000D02*
X115760000Y-69364000D01*
X116160000Y-69764000D02*
X115760000Y-69764000D01*
X116160000Y-69364000D02*
X116160000Y-69764000D01*
X115760000Y-69364000D02*
X116160000Y-69364000D01*
D15*
X125150000Y-107670000D02*
X126550000Y-107670000D01*
X126550000Y-107670000D02*
X126550000Y-104870000D01*
X125150000Y-107670000D02*
X125150000Y-104870000D01*
X125170000Y-110180000D02*
X125170000Y-109180000D01*
X126530000Y-109180000D02*
X126530000Y-110180000D01*
X127690000Y-107670000D02*
X129090000Y-107670000D01*
X129090000Y-107670000D02*
X129090000Y-104870000D01*
X127690000Y-107670000D02*
X127690000Y-104870000D01*
X118930000Y-74860000D02*
X117530000Y-74860000D01*
X117530000Y-74860000D02*
X117530000Y-77660000D01*
X118930000Y-74860000D02*
X118930000Y-77660000D01*
X116390000Y-74860000D02*
X114990000Y-74860000D01*
X114990000Y-74860000D02*
X114990000Y-77660000D01*
X116390000Y-74860000D02*
X116390000Y-77660000D01*
X113850000Y-74860000D02*
X112450000Y-74860000D01*
X112450000Y-74860000D02*
X112450000Y-77660000D01*
X113850000Y-74860000D02*
X113850000Y-77660000D01*
X111310000Y-74860000D02*
X109910000Y-74860000D01*
X109910000Y-74860000D02*
X109910000Y-77660000D01*
X111310000Y-74860000D02*
X111310000Y-77660000D01*
X108770000Y-74860000D02*
X107370000Y-74860000D01*
X107370000Y-74860000D02*
X107370000Y-77660000D01*
X108770000Y-74860000D02*
X108770000Y-77660000D01*
X106230000Y-74860000D02*
X104830000Y-74860000D01*
X104830000Y-74860000D02*
X104830000Y-77660000D01*
X106230000Y-74860000D02*
X106230000Y-77660000D01*
X103690000Y-74860000D02*
X102290000Y-74860000D01*
X102290000Y-74860000D02*
X102290000Y-77660000D01*
X103690000Y-74860000D02*
X103690000Y-77660000D01*
X101150000Y-74860000D02*
X99750000Y-74860000D01*
X99750000Y-74860000D02*
X99750000Y-77660000D01*
X101150000Y-74860000D02*
X101150000Y-77660000D01*
X130230000Y-107670000D02*
X131630000Y-107670000D01*
X131630000Y-107670000D02*
X131630000Y-104870000D01*
X130230000Y-107670000D02*
X130230000Y-104870000D01*
D14*
X122080000Y-60448000D02*
X122080000Y-61448000D01*
X127080000Y-60448000D02*
X122080000Y-60448000D01*
X127080000Y-62048000D02*
X127080000Y-60448000D01*
X127580000Y-62048000D02*
X122380000Y-62048000D01*
X120780000Y-64148000D02*
X120780000Y-63848000D01*
X120780000Y-67648000D02*
X120780000Y-66748000D01*
X121580000Y-67648000D02*
X120780000Y-67648000D01*
X121580000Y-73248000D02*
X121580000Y-67648000D01*
X121580000Y-77448000D02*
X121580000Y-76448000D01*
X121580000Y-77448000D02*
X127580000Y-77448000D01*
X127580000Y-68648000D02*
X127580000Y-77448000D01*
X127580000Y-65748000D02*
X127580000Y-66048000D01*
X127580000Y-62048000D02*
X127580000Y-63348000D01*
D17*
X151378260Y-72548160D02*
X150479100Y-72548160D01*
X150479100Y-72548160D02*
X149879660Y-72548160D01*
X140080340Y-72548160D02*
X139480900Y-72548160D01*
X139480900Y-72548160D02*
X138581740Y-72548160D01*
X137481920Y-69149640D02*
X137481920Y-66998260D01*
X137481920Y-63800400D02*
X137481920Y-60892100D01*
X137481920Y-60892100D02*
X152478080Y-60892100D01*
X152478080Y-60892100D02*
X152478080Y-63800400D01*
X152478080Y-66998260D02*
X152478080Y-69149640D01*
X138106760Y-73048540D02*
X139480900Y-73048540D01*
X139480900Y-73048540D02*
X139480900Y-72548160D01*
X150479100Y-72548160D02*
X150479100Y-73048540D01*
X150479100Y-73048540D02*
X151865940Y-73048540D01*
X142981020Y-62632000D02*
X141980260Y-66632500D01*
X141980260Y-66632500D02*
X140982040Y-66632500D01*
X140982040Y-66632500D02*
X139981280Y-62632000D01*
X146978980Y-62632000D02*
X147979740Y-66632500D01*
X147979740Y-66632500D02*
X148977960Y-66632500D01*
X148977960Y-66632500D02*
X149978720Y-62632000D01*
D14*
X176193000Y-92880000D02*
X175993000Y-92880000D01*
X176193000Y-82720000D02*
X175993000Y-82720000D01*
X155093000Y-92050000D02*
G75*
G03X155093000Y-92050000I-250000J0D01*
G01*
X154193000Y-92880000D02*
X154193000Y-93700000D01*
X153993000Y-92880000D02*
X154193000Y-92880000D01*
X153993000Y-82720000D02*
X154193000Y-82720000D01*
X176203000Y-82720000D02*
X176203000Y-92880000D01*
X153983000Y-92880000D02*
X153983000Y-82720000D01*
X121200000Y-111900000D02*
X121200000Y-109750000D01*
X108900000Y-111900000D02*
X121200000Y-111900000D01*
X108900000Y-108650000D02*
X108900000Y-111900000D01*
X108900000Y-100350000D02*
X108900000Y-106250000D01*
X121200000Y-106250000D02*
X121200000Y-100350000D01*
X108900000Y-95100000D02*
X108900000Y-96850000D01*
X121200000Y-95100000D02*
X108900000Y-95100000D01*
X121200000Y-98000000D02*
X121200000Y-95100000D01*
X108924000Y-69080000D02*
X109474000Y-69080000D01*
X108624000Y-72680000D02*
X108624000Y-70480000D01*
X106324000Y-69080000D02*
X103924000Y-69080000D01*
X108624000Y-70480000D02*
X109474000Y-70480000D01*
X106324000Y-74080000D02*
X103924000Y-74080000D01*
X101624000Y-70480000D02*
X101624000Y-72680000D01*
X95838381Y-64293333D02*
X96552667Y-64293333D01*
X96695524Y-64340953D01*
X96790762Y-64436191D01*
X96838381Y-64579048D01*
X96838381Y-64674286D01*
X96838381Y-63293333D02*
X96838381Y-63864762D01*
X96838381Y-63579048D02*
X95838381Y-63579048D01*
X95981238Y-63674286D01*
X96076476Y-63769524D01*
X96124095Y-63864762D01*
X184992381Y-110013333D02*
X185706667Y-110013333D01*
X185849524Y-110060953D01*
X185944762Y-110156191D01*
X185992381Y-110299048D01*
X185992381Y-110394286D01*
X185087619Y-109584762D02*
X185040000Y-109537143D01*
X184992381Y-109441905D01*
X184992381Y-109203809D01*
X185040000Y-109108571D01*
X185087619Y-109060952D01*
X185182857Y-109013333D01*
X185278095Y-109013333D01*
X185420952Y-109060952D01*
X185992381Y-109632381D01*
X185992381Y-109013333D01*
X102783667Y-97194381D02*
X102783667Y-97908667D01*
X102736047Y-98051524D01*
X102640809Y-98146762D01*
X102497952Y-98194381D01*
X102402714Y-98194381D01*
X103164619Y-97194381D02*
X103783667Y-97194381D01*
X103450333Y-97575333D01*
X103593191Y-97575333D01*
X103688429Y-97622952D01*
X103736048Y-97670571D01*
X103783667Y-97765810D01*
X103783667Y-98003905D01*
X103736048Y-98099143D01*
X103688429Y-98146762D01*
X103593191Y-98194381D01*
X103307476Y-98194381D01*
X103212238Y-98146762D01*
X103164619Y-98099143D01*
X130112381Y-110322857D02*
X129636190Y-110656191D01*
X130112381Y-110894286D02*
X129112381Y-110894286D01*
X129112381Y-110513333D01*
X129160000Y-110418095D01*
X129207619Y-110370476D01*
X129302857Y-110322857D01*
X129445714Y-110322857D01*
X129540952Y-110370476D01*
X129588571Y-110418095D01*
X129636190Y-110513333D01*
X129636190Y-110894286D01*
X129112381Y-109989524D02*
X129112381Y-109370476D01*
X129493333Y-109703810D01*
X129493333Y-109560952D01*
X129540952Y-109465714D01*
X129588571Y-109418095D01*
X129683810Y-109370476D01*
X129921905Y-109370476D01*
X130017143Y-109418095D01*
X130064762Y-109465714D01*
X130112381Y-109560952D01*
X130112381Y-109846667D01*
X130064762Y-109941905D01*
X130017143Y-109989524D01*
X129112381Y-108513333D02*
X129112381Y-108703810D01*
X129160000Y-108799048D01*
X129207619Y-108846667D01*
X129350476Y-108941905D01*
X129540952Y-108989524D01*
X129921905Y-108989524D01*
X130017143Y-108941905D01*
X130064762Y-108894286D01*
X130112381Y-108799048D01*
X130112381Y-108608571D01*
X130064762Y-108513333D01*
X130017143Y-108465714D01*
X129921905Y-108418095D01*
X129683810Y-108418095D01*
X129588571Y-108465714D01*
X129540952Y-108513333D01*
X129493333Y-108608571D01*
X129493333Y-108799048D01*
X129540952Y-108894286D01*
X129588571Y-108941905D01*
X129683810Y-108989524D01*
X133033381Y-110322857D02*
X132557190Y-110656191D01*
X133033381Y-110894286D02*
X132033381Y-110894286D01*
X132033381Y-110513333D01*
X132081000Y-110418095D01*
X132128619Y-110370476D01*
X132223857Y-110322857D01*
X132366714Y-110322857D01*
X132461952Y-110370476D01*
X132509571Y-110418095D01*
X132557190Y-110513333D01*
X132557190Y-110894286D01*
X132033381Y-109989524D02*
X132033381Y-109370476D01*
X132414333Y-109703810D01*
X132414333Y-109560952D01*
X132461952Y-109465714D01*
X132509571Y-109418095D01*
X132604810Y-109370476D01*
X132842905Y-109370476D01*
X132938143Y-109418095D01*
X132985762Y-109465714D01*
X133033381Y-109560952D01*
X133033381Y-109846667D01*
X132985762Y-109941905D01*
X132938143Y-109989524D01*
X132033381Y-109037143D02*
X132033381Y-108370476D01*
X133033381Y-108799048D01*
X111013334Y-67141667D02*
X111013334Y-67708333D01*
X111046667Y-67775000D01*
X111080000Y-67808333D01*
X111146667Y-67841667D01*
X111280000Y-67841667D01*
X111346667Y-67808333D01*
X111380000Y-67775000D01*
X111413334Y-67708333D01*
X111413334Y-67141667D01*
X111713333Y-67808333D02*
X111813333Y-67841667D01*
X111980000Y-67841667D01*
X112046667Y-67808333D01*
X112080000Y-67775000D01*
X112113333Y-67708333D01*
X112113333Y-67641667D01*
X112080000Y-67575000D01*
X112046667Y-67541667D01*
X111980000Y-67508333D01*
X111846667Y-67475000D01*
X111780000Y-67441667D01*
X111746667Y-67408333D01*
X111713333Y-67341667D01*
X111713333Y-67275000D01*
X111746667Y-67208333D01*
X111780000Y-67175000D01*
X111846667Y-67141667D01*
X112013333Y-67141667D01*
X112113333Y-67175000D01*
X112780000Y-67841667D02*
X112380000Y-67841667D01*
X112580000Y-67841667D02*
X112580000Y-67141667D01*
X112513334Y-67241667D01*
X112446667Y-67308333D01*
X112380000Y-67341667D01*
X169433334Y-67141667D02*
X169433334Y-67708333D01*
X169466667Y-67775000D01*
X169500000Y-67808333D01*
X169566667Y-67841667D01*
X169700000Y-67841667D01*
X169766667Y-67808333D01*
X169800000Y-67775000D01*
X169833334Y-67708333D01*
X169833334Y-67141667D01*
X170133333Y-67808333D02*
X170233333Y-67841667D01*
X170400000Y-67841667D01*
X170466667Y-67808333D01*
X170500000Y-67775000D01*
X170533333Y-67708333D01*
X170533333Y-67641667D01*
X170500000Y-67575000D01*
X170466667Y-67541667D01*
X170400000Y-67508333D01*
X170266667Y-67475000D01*
X170200000Y-67441667D01*
X170166667Y-67408333D01*
X170133333Y-67341667D01*
X170133333Y-67275000D01*
X170166667Y-67208333D01*
X170200000Y-67175000D01*
X170266667Y-67141667D01*
X170433333Y-67141667D01*
X170533333Y-67175000D01*
X170800000Y-67208333D02*
X170833334Y-67175000D01*
X170900000Y-67141667D01*
X171066667Y-67141667D01*
X171133334Y-67175000D01*
X171166667Y-67208333D01*
X171200000Y-67275000D01*
X171200000Y-67341667D01*
X171166667Y-67441667D01*
X170766667Y-67841667D01*
X171200000Y-67841667D01*
X137073667Y-102274381D02*
X137073667Y-102988667D01*
X137026047Y-103131524D01*
X136930809Y-103226762D01*
X136787952Y-103274381D01*
X136692714Y-103274381D01*
X137978429Y-102607714D02*
X137978429Y-103274381D01*
X137740333Y-102226762D02*
X137502238Y-102941048D01*
X138121286Y-102941048D01*
X120206381Y-81112857D02*
X119730190Y-81446191D01*
X120206381Y-81684286D02*
X119206381Y-81684286D01*
X119206381Y-81303333D01*
X119254000Y-81208095D01*
X119301619Y-81160476D01*
X119396857Y-81112857D01*
X119539714Y-81112857D01*
X119634952Y-81160476D01*
X119682571Y-81208095D01*
X119730190Y-81303333D01*
X119730190Y-81684286D01*
X119539714Y-80255714D02*
X120206381Y-80255714D01*
X119158762Y-80493810D02*
X119873048Y-80731905D01*
X119873048Y-80112857D01*
X120206381Y-79208095D02*
X120206381Y-79779524D01*
X120206381Y-79493810D02*
X119206381Y-79493810D01*
X119349238Y-79589048D01*
X119444476Y-79684286D01*
X119492095Y-79779524D01*
X117412381Y-81112857D02*
X116936190Y-81446191D01*
X117412381Y-81684286D02*
X116412381Y-81684286D01*
X116412381Y-81303333D01*
X116460000Y-81208095D01*
X116507619Y-81160476D01*
X116602857Y-81112857D01*
X116745714Y-81112857D01*
X116840952Y-81160476D01*
X116888571Y-81208095D01*
X116936190Y-81303333D01*
X116936190Y-81684286D01*
X116745714Y-80255714D02*
X117412381Y-80255714D01*
X116364762Y-80493810D02*
X117079048Y-80731905D01*
X117079048Y-80112857D01*
X116507619Y-79779524D02*
X116460000Y-79731905D01*
X116412381Y-79636667D01*
X116412381Y-79398571D01*
X116460000Y-79303333D01*
X116507619Y-79255714D01*
X116602857Y-79208095D01*
X116698095Y-79208095D01*
X116840952Y-79255714D01*
X117412381Y-79827143D01*
X117412381Y-79208095D01*
X114872381Y-81112857D02*
X114396190Y-81446191D01*
X114872381Y-81684286D02*
X113872381Y-81684286D01*
X113872381Y-81303333D01*
X113920000Y-81208095D01*
X113967619Y-81160476D01*
X114062857Y-81112857D01*
X114205714Y-81112857D01*
X114300952Y-81160476D01*
X114348571Y-81208095D01*
X114396190Y-81303333D01*
X114396190Y-81684286D01*
X114205714Y-80255714D02*
X114872381Y-80255714D01*
X113824762Y-80493810D02*
X114539048Y-80731905D01*
X114539048Y-80112857D01*
X113872381Y-79827143D02*
X113872381Y-79208095D01*
X114253333Y-79541429D01*
X114253333Y-79398571D01*
X114300952Y-79303333D01*
X114348571Y-79255714D01*
X114443810Y-79208095D01*
X114681905Y-79208095D01*
X114777143Y-79255714D01*
X114824762Y-79303333D01*
X114872381Y-79398571D01*
X114872381Y-79684286D01*
X114824762Y-79779524D01*
X114777143Y-79827143D01*
X112332381Y-81112857D02*
X111856190Y-81446191D01*
X112332381Y-81684286D02*
X111332381Y-81684286D01*
X111332381Y-81303333D01*
X111380000Y-81208095D01*
X111427619Y-81160476D01*
X111522857Y-81112857D01*
X111665714Y-81112857D01*
X111760952Y-81160476D01*
X111808571Y-81208095D01*
X111856190Y-81303333D01*
X111856190Y-81684286D01*
X111665714Y-80255714D02*
X112332381Y-80255714D01*
X111284762Y-80493810D02*
X111999048Y-80731905D01*
X111999048Y-80112857D01*
X111665714Y-79303333D02*
X112332381Y-79303333D01*
X111284762Y-79541429D02*
X111999048Y-79779524D01*
X111999048Y-79160476D01*
X109792381Y-81112857D02*
X109316190Y-81446191D01*
X109792381Y-81684286D02*
X108792381Y-81684286D01*
X108792381Y-81303333D01*
X108840000Y-81208095D01*
X108887619Y-81160476D01*
X108982857Y-81112857D01*
X109125714Y-81112857D01*
X109220952Y-81160476D01*
X109268571Y-81208095D01*
X109316190Y-81303333D01*
X109316190Y-81684286D01*
X109125714Y-80255714D02*
X109792381Y-80255714D01*
X108744762Y-80493810D02*
X109459048Y-80731905D01*
X109459048Y-80112857D01*
X108792381Y-79255714D02*
X108792381Y-79731905D01*
X109268571Y-79779524D01*
X109220952Y-79731905D01*
X109173333Y-79636667D01*
X109173333Y-79398571D01*
X109220952Y-79303333D01*
X109268571Y-79255714D01*
X109363810Y-79208095D01*
X109601905Y-79208095D01*
X109697143Y-79255714D01*
X109744762Y-79303333D01*
X109792381Y-79398571D01*
X109792381Y-79636667D01*
X109744762Y-79731905D01*
X109697143Y-79779524D01*
X107252381Y-81112857D02*
X106776190Y-81446191D01*
X107252381Y-81684286D02*
X106252381Y-81684286D01*
X106252381Y-81303333D01*
X106300000Y-81208095D01*
X106347619Y-81160476D01*
X106442857Y-81112857D01*
X106585714Y-81112857D01*
X106680952Y-81160476D01*
X106728571Y-81208095D01*
X106776190Y-81303333D01*
X106776190Y-81684286D01*
X106585714Y-80255714D02*
X107252381Y-80255714D01*
X106204762Y-80493810D02*
X106919048Y-80731905D01*
X106919048Y-80112857D01*
X106252381Y-79303333D02*
X106252381Y-79493810D01*
X106300000Y-79589048D01*
X106347619Y-79636667D01*
X106490476Y-79731905D01*
X106680952Y-79779524D01*
X107061905Y-79779524D01*
X107157143Y-79731905D01*
X107204762Y-79684286D01*
X107252381Y-79589048D01*
X107252381Y-79398571D01*
X107204762Y-79303333D01*
X107157143Y-79255714D01*
X107061905Y-79208095D01*
X106823810Y-79208095D01*
X106728571Y-79255714D01*
X106680952Y-79303333D01*
X106633333Y-79398571D01*
X106633333Y-79589048D01*
X106680952Y-79684286D01*
X106728571Y-79731905D01*
X106823810Y-79779524D01*
X104712381Y-81112857D02*
X104236190Y-81446191D01*
X104712381Y-81684286D02*
X103712381Y-81684286D01*
X103712381Y-81303333D01*
X103760000Y-81208095D01*
X103807619Y-81160476D01*
X103902857Y-81112857D01*
X104045714Y-81112857D01*
X104140952Y-81160476D01*
X104188571Y-81208095D01*
X104236190Y-81303333D01*
X104236190Y-81684286D01*
X104045714Y-80255714D02*
X104712381Y-80255714D01*
X103664762Y-80493810D02*
X104379048Y-80731905D01*
X104379048Y-80112857D01*
X103712381Y-79827143D02*
X103712381Y-79160476D01*
X104712381Y-79589048D01*
X102172381Y-81112857D02*
X101696190Y-81446191D01*
X102172381Y-81684286D02*
X101172381Y-81684286D01*
X101172381Y-81303333D01*
X101220000Y-81208095D01*
X101267619Y-81160476D01*
X101362857Y-81112857D01*
X101505714Y-81112857D01*
X101600952Y-81160476D01*
X101648571Y-81208095D01*
X101696190Y-81303333D01*
X101696190Y-81684286D01*
X101505714Y-80255714D02*
X102172381Y-80255714D01*
X101124762Y-80493810D02*
X101839048Y-80731905D01*
X101839048Y-80112857D01*
X101600952Y-79589048D02*
X101553333Y-79684286D01*
X101505714Y-79731905D01*
X101410476Y-79779524D01*
X101362857Y-79779524D01*
X101267619Y-79731905D01*
X101220000Y-79684286D01*
X101172381Y-79589048D01*
X101172381Y-79398571D01*
X101220000Y-79303333D01*
X101267619Y-79255714D01*
X101362857Y-79208095D01*
X101410476Y-79208095D01*
X101505714Y-79255714D01*
X101553333Y-79303333D01*
X101600952Y-79398571D01*
X101600952Y-79589048D01*
X101648571Y-79684286D01*
X101696190Y-79731905D01*
X101791429Y-79779524D01*
X101981905Y-79779524D01*
X102077143Y-79731905D01*
X102124762Y-79684286D01*
X102172381Y-79589048D01*
X102172381Y-79398571D01*
X102124762Y-79303333D01*
X102077143Y-79255714D01*
X101981905Y-79208095D01*
X101791429Y-79208095D01*
X101696190Y-79255714D01*
X101648571Y-79303333D01*
X101600952Y-79398571D01*
X176523095Y-103482381D02*
X176523095Y-104291905D01*
X176570714Y-104387143D01*
X176618333Y-104434762D01*
X176713571Y-104482381D01*
X176904048Y-104482381D01*
X176999286Y-104434762D01*
X177046905Y-104387143D01*
X177094524Y-104291905D01*
X177094524Y-103482381D01*
X177713571Y-103910952D02*
X177618333Y-103863333D01*
X177570714Y-103815714D01*
X177523095Y-103720476D01*
X177523095Y-103672857D01*
X177570714Y-103577619D01*
X177618333Y-103530000D01*
X177713571Y-103482381D01*
X177904048Y-103482381D01*
X177999286Y-103530000D01*
X178046905Y-103577619D01*
X178094524Y-103672857D01*
X178094524Y-103720476D01*
X178046905Y-103815714D01*
X177999286Y-103863333D01*
X177904048Y-103910952D01*
X177713571Y-103910952D01*
X177618333Y-103958571D01*
X177570714Y-104006190D01*
X177523095Y-104101429D01*
X177523095Y-104291905D01*
X177570714Y-104387143D01*
X177618333Y-104434762D01*
X177713571Y-104482381D01*
X177904048Y-104482381D01*
X177999286Y-104434762D01*
X178046905Y-104387143D01*
X178094524Y-104291905D01*
X178094524Y-104101429D01*
X178046905Y-104006190D01*
X177999286Y-103958571D01*
X177904048Y-103910952D01*
X126334428Y-99607381D02*
X126524905Y-99607381D01*
X126620143Y-99655000D01*
X126715381Y-99750238D01*
X126763000Y-99940714D01*
X126763000Y-100274048D01*
X126715381Y-100464524D01*
X126620143Y-100559762D01*
X126524905Y-100607381D01*
X126334428Y-100607381D01*
X126239190Y-100559762D01*
X126143952Y-100464524D01*
X126096333Y-100274048D01*
X126096333Y-99940714D01*
X126143952Y-99750238D01*
X126239190Y-99655000D01*
X126334428Y-99607381D01*
X127667762Y-100607381D02*
X127191571Y-100607381D01*
X127191571Y-99607381D01*
X128001095Y-100083571D02*
X128334429Y-100083571D01*
X128477286Y-100607381D02*
X128001095Y-100607381D01*
X128001095Y-99607381D01*
X128477286Y-99607381D01*
X128905857Y-100607381D02*
X128905857Y-99607381D01*
X129143952Y-99607381D01*
X129286810Y-99655000D01*
X129382048Y-99750238D01*
X129429667Y-99845476D01*
X129477286Y-100035952D01*
X129477286Y-100178810D01*
X129429667Y-100369286D01*
X129382048Y-100464524D01*
X129286810Y-100559762D01*
X129143952Y-100607381D01*
X128905857Y-100607381D01*
X130429667Y-100607381D02*
X129858238Y-100607381D01*
X130143952Y-100607381D02*
X130143952Y-99607381D01*
X130048714Y-99750238D01*
X129953476Y-99845476D01*
X129858238Y-99893095D01*
X123318381Y-101956762D02*
X123461238Y-102004381D01*
X123699334Y-102004381D01*
X123794572Y-101956762D01*
X123842191Y-101909143D01*
X123889810Y-101813905D01*
X123889810Y-101718667D01*
X123842191Y-101623429D01*
X123794572Y-101575810D01*
X123699334Y-101528190D01*
X123508857Y-101480571D01*
X123413619Y-101432952D01*
X123366000Y-101385333D01*
X123318381Y-101290095D01*
X123318381Y-101194857D01*
X123366000Y-101099619D01*
X123413619Y-101052000D01*
X123508857Y-101004381D01*
X123746953Y-101004381D01*
X123889810Y-101052000D01*
X124270762Y-101956762D02*
X124413619Y-102004381D01*
X124651715Y-102004381D01*
X124746953Y-101956762D01*
X124794572Y-101909143D01*
X124842191Y-101813905D01*
X124842191Y-101718667D01*
X124794572Y-101623429D01*
X124746953Y-101575810D01*
X124651715Y-101528190D01*
X124461238Y-101480571D01*
X124366000Y-101432952D01*
X124318381Y-101385333D01*
X124270762Y-101290095D01*
X124270762Y-101194857D01*
X124318381Y-101099619D01*
X124366000Y-101052000D01*
X124461238Y-101004381D01*
X124699334Y-101004381D01*
X124842191Y-101052000D01*
X125270762Y-102004381D02*
X125270762Y-101004381D01*
X125508857Y-101004381D01*
X125651715Y-101052000D01*
X125746953Y-101147238D01*
X125794572Y-101242476D01*
X125842191Y-101432952D01*
X125842191Y-101575810D01*
X125794572Y-101766286D01*
X125746953Y-101861524D01*
X125651715Y-101956762D01*
X125508857Y-102004381D01*
X125270762Y-102004381D01*
X126032667Y-102099619D02*
X126794572Y-102099619D01*
X127556477Y-102004381D02*
X126985048Y-102004381D01*
X127270762Y-102004381D02*
X127270762Y-101004381D01*
X127175524Y-101147238D01*
X127080286Y-101242476D01*
X126985048Y-101290095D01*
X127889810Y-101004381D02*
X128508858Y-101004381D01*
X128175524Y-101385333D01*
X128318382Y-101385333D01*
X128413620Y-101432952D01*
X128461239Y-101480571D01*
X128508858Y-101575810D01*
X128508858Y-101813905D01*
X128461239Y-101909143D01*
X128413620Y-101956762D01*
X128318382Y-102004381D01*
X128032667Y-102004381D01*
X127937429Y-101956762D01*
X127889810Y-101909143D01*
X128842191Y-101004381D02*
X129461239Y-101004381D01*
X129127905Y-101385333D01*
X129270763Y-101385333D01*
X129366001Y-101432952D01*
X129413620Y-101480571D01*
X129461239Y-101575810D01*
X129461239Y-101813905D01*
X129413620Y-101909143D01*
X129366001Y-101956762D01*
X129270763Y-102004381D01*
X128985048Y-102004381D01*
X128889810Y-101956762D01*
X128842191Y-101909143D01*
X130413620Y-102004381D02*
X129842191Y-102004381D01*
X130127905Y-102004381D02*
X130127905Y-101004381D01*
X130032667Y-101147238D01*
X129937429Y-101242476D01*
X129842191Y-101290095D01*
X132075000Y-98607143D02*
X132039286Y-98654762D01*
X131932143Y-98702381D01*
X131860714Y-98702381D01*
X131753571Y-98654762D01*
X131682143Y-98559524D01*
X131646428Y-98464286D01*
X131610714Y-98273810D01*
X131610714Y-98130952D01*
X131646428Y-97940476D01*
X131682143Y-97845238D01*
X131753571Y-97750000D01*
X131860714Y-97702381D01*
X131932143Y-97702381D01*
X132039286Y-97750000D01*
X132075000Y-97797619D01*
X132360714Y-98654762D02*
X132467857Y-98702381D01*
X132646428Y-98702381D01*
X132717857Y-98654762D01*
X132753571Y-98607143D01*
X132789286Y-98511905D01*
X132789286Y-98416667D01*
X132753571Y-98321429D01*
X132717857Y-98273810D01*
X132646428Y-98226190D01*
X132503571Y-98178571D01*
X132432143Y-98130952D01*
X132396428Y-98083333D01*
X132360714Y-97988095D01*
X132360714Y-97892857D01*
X132396428Y-97797619D01*
X132432143Y-97750000D01*
X132503571Y-97702381D01*
X132682143Y-97702381D01*
X132789286Y-97750000D01*
X134168571Y-98702381D02*
X134168571Y-97702381D01*
X134347143Y-97702381D01*
X134454286Y-97750000D01*
X134525714Y-97845238D01*
X134561429Y-97940476D01*
X134597143Y-98130952D01*
X134597143Y-98273810D01*
X134561429Y-98464286D01*
X134525714Y-98559524D01*
X134454286Y-98654762D01*
X134347143Y-98702381D01*
X134168571Y-98702381D01*
X135347143Y-98607143D02*
X135311429Y-98654762D01*
X135204286Y-98702381D01*
X135132857Y-98702381D01*
X135025714Y-98654762D01*
X134954286Y-98559524D01*
X134918571Y-98464286D01*
X134882857Y-98273810D01*
X134882857Y-98130952D01*
X134918571Y-97940476D01*
X134954286Y-97845238D01*
X135025714Y-97750000D01*
X135132857Y-97702381D01*
X135204286Y-97702381D01*
X135311429Y-97750000D01*
X135347143Y-97797619D01*
X136815715Y-98702381D02*
X136565715Y-98226190D01*
X136387143Y-98702381D02*
X136387143Y-97702381D01*
X136672858Y-97702381D01*
X136744286Y-97750000D01*
X136780001Y-97797619D01*
X136815715Y-97892857D01*
X136815715Y-98035714D01*
X136780001Y-98130952D01*
X136744286Y-98178571D01*
X136672858Y-98226190D01*
X136387143Y-98226190D01*
X137137143Y-98178571D02*
X137387143Y-98178571D01*
X137494286Y-98702381D02*
X137137143Y-98702381D01*
X137137143Y-97702381D01*
X137494286Y-97702381D01*
X137780000Y-98654762D02*
X137887143Y-98702381D01*
X138065714Y-98702381D01*
X138137143Y-98654762D01*
X138172857Y-98607143D01*
X138208572Y-98511905D01*
X138208572Y-98416667D01*
X138172857Y-98321429D01*
X138137143Y-98273810D01*
X138065714Y-98226190D01*
X137922857Y-98178571D01*
X137851429Y-98130952D01*
X137815714Y-98083333D01*
X137780000Y-97988095D01*
X137780000Y-97892857D01*
X137815714Y-97797619D01*
X137851429Y-97750000D01*
X137922857Y-97702381D01*
X138101429Y-97702381D01*
X138208572Y-97750000D01*
X138909286Y-98654762D02*
X139016429Y-98702381D01*
X139195000Y-98702381D01*
X139266429Y-98654762D01*
X139302143Y-98607143D01*
X139337858Y-98511905D01*
X139337858Y-98416667D01*
X139302143Y-98321429D01*
X139266429Y-98273810D01*
X139195000Y-98226190D01*
X139052143Y-98178571D01*
X138980715Y-98130952D01*
X138945000Y-98083333D01*
X138909286Y-97988095D01*
X138909286Y-97892857D01*
X138945000Y-97797619D01*
X138980715Y-97750000D01*
X139052143Y-97702381D01*
X139230715Y-97702381D01*
X139337858Y-97750000D01*
X139659286Y-98702381D02*
X139659286Y-97702381D01*
X139837858Y-97702381D01*
X139945001Y-97750000D01*
X140016429Y-97845238D01*
X140052144Y-97940476D01*
X140087858Y-98130952D01*
X140087858Y-98273810D01*
X140052144Y-98464286D01*
X140016429Y-98559524D01*
X139945001Y-98654762D01*
X139837858Y-98702381D01*
X139659286Y-98702381D01*
X140373572Y-98416667D02*
X140730715Y-98416667D01*
X140302144Y-98702381D02*
X140552144Y-97702381D01*
X140802144Y-98702381D01*
X141467143Y-98654762D02*
X141574286Y-98702381D01*
X141752857Y-98702381D01*
X141824286Y-98654762D01*
X141860000Y-98607143D01*
X141895715Y-98511905D01*
X141895715Y-98416667D01*
X141860000Y-98321429D01*
X141824286Y-98273810D01*
X141752857Y-98226190D01*
X141610000Y-98178571D01*
X141538572Y-98130952D01*
X141502857Y-98083333D01*
X141467143Y-97988095D01*
X141467143Y-97892857D01*
X141502857Y-97797619D01*
X141538572Y-97750000D01*
X141610000Y-97702381D01*
X141788572Y-97702381D01*
X141895715Y-97750000D01*
X142645715Y-98607143D02*
X142610001Y-98654762D01*
X142502858Y-98702381D01*
X142431429Y-98702381D01*
X142324286Y-98654762D01*
X142252858Y-98559524D01*
X142217143Y-98464286D01*
X142181429Y-98273810D01*
X142181429Y-98130952D01*
X142217143Y-97940476D01*
X142252858Y-97845238D01*
X142324286Y-97750000D01*
X142431429Y-97702381D01*
X142502858Y-97702381D01*
X142610001Y-97750000D01*
X142645715Y-97797619D01*
X143324286Y-98702381D02*
X142967143Y-98702381D01*
X142967143Y-97702381D01*
X143900001Y-97702381D02*
X144150001Y-98702381D01*
X144400001Y-97702381D01*
X145078572Y-98607143D02*
X145042858Y-98654762D01*
X144935715Y-98702381D01*
X144864286Y-98702381D01*
X144757143Y-98654762D01*
X144685715Y-98559524D01*
X144650000Y-98464286D01*
X144614286Y-98273810D01*
X144614286Y-98130952D01*
X144650000Y-97940476D01*
X144685715Y-97845238D01*
X144757143Y-97750000D01*
X144864286Y-97702381D01*
X144935715Y-97702381D01*
X145042858Y-97750000D01*
X145078572Y-97797619D01*
X145828572Y-98607143D02*
X145792858Y-98654762D01*
X145685715Y-98702381D01*
X145614286Y-98702381D01*
X145507143Y-98654762D01*
X145435715Y-98559524D01*
X145400000Y-98464286D01*
X145364286Y-98273810D01*
X145364286Y-98130952D01*
X145400000Y-97940476D01*
X145435715Y-97845238D01*
X145507143Y-97750000D01*
X145614286Y-97702381D01*
X145685715Y-97702381D01*
X145792858Y-97750000D01*
X145828572Y-97797619D01*
X146868572Y-97750000D02*
X146797143Y-97702381D01*
X146690000Y-97702381D01*
X146582857Y-97750000D01*
X146511429Y-97845238D01*
X146475714Y-97940476D01*
X146440000Y-98130952D01*
X146440000Y-98273810D01*
X146475714Y-98464286D01*
X146511429Y-98559524D01*
X146582857Y-98654762D01*
X146690000Y-98702381D01*
X146761429Y-98702381D01*
X146868572Y-98654762D01*
X146904286Y-98607143D01*
X146904286Y-98273810D01*
X146761429Y-98273810D01*
X147225714Y-98702381D02*
X147225714Y-97702381D01*
X147654286Y-98702381D01*
X147654286Y-97702381D01*
X148011428Y-98702381D02*
X148011428Y-97702381D01*
X148190000Y-97702381D01*
X148297143Y-97750000D01*
X148368571Y-97845238D01*
X148404286Y-97940476D01*
X148440000Y-98130952D01*
X148440000Y-98273810D01*
X148404286Y-98464286D01*
X148368571Y-98559524D01*
X148297143Y-98654762D01*
X148190000Y-98702381D01*
X148011428Y-98702381D01*
X170260477Y-78098571D02*
X170403334Y-78146190D01*
X170450953Y-78193810D01*
X170498572Y-78289048D01*
X170498572Y-78431905D01*
X170450953Y-78527143D01*
X170403334Y-78574762D01*
X170308096Y-78622381D01*
X169927143Y-78622381D01*
X169927143Y-77622381D01*
X170260477Y-77622381D01*
X170355715Y-77670000D01*
X170403334Y-77717619D01*
X170450953Y-77812857D01*
X170450953Y-77908095D01*
X170403334Y-78003333D01*
X170355715Y-78050952D01*
X170260477Y-78098571D01*
X169927143Y-78098571D01*
X170784286Y-77622381D02*
X171355715Y-77622381D01*
X171070000Y-78622381D02*
X171070000Y-77622381D01*
X171689048Y-78622381D02*
X171689048Y-77622381D01*
X172260477Y-78622381D01*
X172260477Y-77622381D01*
X172927143Y-77622381D02*
X173022382Y-77622381D01*
X173117620Y-77670000D01*
X173165239Y-77717619D01*
X173212858Y-77812857D01*
X173260477Y-78003333D01*
X173260477Y-78241429D01*
X173212858Y-78431905D01*
X173165239Y-78527143D01*
X173117620Y-78574762D01*
X173022382Y-78622381D01*
X172927143Y-78622381D01*
X172831905Y-78574762D01*
X172784286Y-78527143D01*
X172736667Y-78431905D01*
X172689048Y-78241429D01*
X172689048Y-78003333D01*
X172736667Y-77812857D01*
X172784286Y-77717619D01*
X172831905Y-77670000D01*
X172927143Y-77622381D01*
X102950477Y-93352571D02*
X103093334Y-93400190D01*
X103140953Y-93447810D01*
X103188572Y-93543048D01*
X103188572Y-93685905D01*
X103140953Y-93781143D01*
X103093334Y-93828762D01*
X102998096Y-93876381D01*
X102617143Y-93876381D01*
X102617143Y-92876381D01*
X102950477Y-92876381D01*
X103045715Y-92924000D01*
X103093334Y-92971619D01*
X103140953Y-93066857D01*
X103140953Y-93162095D01*
X103093334Y-93257333D01*
X103045715Y-93304952D01*
X102950477Y-93352571D01*
X102617143Y-93352571D01*
X103474286Y-92876381D02*
X104045715Y-92876381D01*
X103760000Y-93876381D02*
X103760000Y-92876381D01*
X104379048Y-93876381D02*
X104379048Y-92876381D01*
X104950477Y-93876381D01*
X104950477Y-92876381D01*
X105950477Y-93876381D02*
X105379048Y-93876381D01*
X105664762Y-93876381D02*
X105664762Y-92876381D01*
X105569524Y-93019238D01*
X105474286Y-93114476D01*
X105379048Y-93162095D01*
X114380477Y-93860571D02*
X114523334Y-93908190D01*
X114570953Y-93955810D01*
X114618572Y-94051048D01*
X114618572Y-94193905D01*
X114570953Y-94289143D01*
X114523334Y-94336762D01*
X114428096Y-94384381D01*
X114047143Y-94384381D01*
X114047143Y-93384381D01*
X114380477Y-93384381D01*
X114475715Y-93432000D01*
X114523334Y-93479619D01*
X114570953Y-93574857D01*
X114570953Y-93670095D01*
X114523334Y-93765333D01*
X114475715Y-93812952D01*
X114380477Y-93860571D01*
X114047143Y-93860571D01*
X114904286Y-93384381D02*
X115475715Y-93384381D01*
X115190000Y-94384381D02*
X115190000Y-93384381D01*
X115809048Y-94384381D02*
X115809048Y-93384381D01*
X116380477Y-94384381D01*
X116380477Y-93384381D01*
X116809048Y-93479619D02*
X116856667Y-93432000D01*
X116951905Y-93384381D01*
X117190001Y-93384381D01*
X117285239Y-93432000D01*
X117332858Y-93479619D01*
X117380477Y-93574857D01*
X117380477Y-93670095D01*
X117332858Y-93812952D01*
X116761429Y-94384381D01*
X117380477Y-94384381D01*
X158830477Y-95398571D02*
X158973334Y-95446190D01*
X159020953Y-95493810D01*
X159068572Y-95589048D01*
X159068572Y-95731905D01*
X159020953Y-95827143D01*
X158973334Y-95874762D01*
X158878096Y-95922381D01*
X158497143Y-95922381D01*
X158497143Y-94922381D01*
X158830477Y-94922381D01*
X158925715Y-94970000D01*
X158973334Y-95017619D01*
X159020953Y-95112857D01*
X159020953Y-95208095D01*
X158973334Y-95303333D01*
X158925715Y-95350952D01*
X158830477Y-95398571D01*
X158497143Y-95398571D01*
X159354286Y-94922381D02*
X159925715Y-94922381D01*
X159640000Y-95922381D02*
X159640000Y-94922381D01*
X160259048Y-95922381D02*
X160259048Y-94922381D01*
X160830477Y-95922381D01*
X160830477Y-94922381D01*
X161211429Y-94922381D02*
X161830477Y-94922381D01*
X161497143Y-95303333D01*
X161640001Y-95303333D01*
X161735239Y-95350952D01*
X161782858Y-95398571D01*
X161830477Y-95493810D01*
X161830477Y-95731905D01*
X161782858Y-95827143D01*
X161735239Y-95874762D01*
X161640001Y-95922381D01*
X161354286Y-95922381D01*
X161259048Y-95874762D01*
X161211429Y-95827143D01*
X158830477Y-104274571D02*
X158973334Y-104322190D01*
X159020953Y-104369810D01*
X159068572Y-104465048D01*
X159068572Y-104607905D01*
X159020953Y-104703143D01*
X158973334Y-104750762D01*
X158878096Y-104798381D01*
X158497143Y-104798381D01*
X158497143Y-103798381D01*
X158830477Y-103798381D01*
X158925715Y-103846000D01*
X158973334Y-103893619D01*
X159020953Y-103988857D01*
X159020953Y-104084095D01*
X158973334Y-104179333D01*
X158925715Y-104226952D01*
X158830477Y-104274571D01*
X158497143Y-104274571D01*
X159354286Y-103798381D02*
X159925715Y-103798381D01*
X159640000Y-104798381D02*
X159640000Y-103798381D01*
X160259048Y-104798381D02*
X160259048Y-103798381D01*
X160830477Y-104798381D01*
X160830477Y-103798381D01*
X161735239Y-104131714D02*
X161735239Y-104798381D01*
X161497143Y-103750762D02*
X161259048Y-104465048D01*
X161878096Y-104465048D01*
X147400477Y-104274571D02*
X147543334Y-104322190D01*
X147590953Y-104369810D01*
X147638572Y-104465048D01*
X147638572Y-104607905D01*
X147590953Y-104703143D01*
X147543334Y-104750762D01*
X147448096Y-104798381D01*
X147067143Y-104798381D01*
X147067143Y-103798381D01*
X147400477Y-103798381D01*
X147495715Y-103846000D01*
X147543334Y-103893619D01*
X147590953Y-103988857D01*
X147590953Y-104084095D01*
X147543334Y-104179333D01*
X147495715Y-104226952D01*
X147400477Y-104274571D01*
X147067143Y-104274571D01*
X147924286Y-103798381D02*
X148495715Y-103798381D01*
X148210000Y-104798381D02*
X148210000Y-103798381D01*
X148829048Y-104798381D02*
X148829048Y-103798381D01*
X149400477Y-104798381D01*
X149400477Y-103798381D01*
X150352858Y-103798381D02*
X149876667Y-103798381D01*
X149829048Y-104274571D01*
X149876667Y-104226952D01*
X149971905Y-104179333D01*
X150210001Y-104179333D01*
X150305239Y-104226952D01*
X150352858Y-104274571D01*
X150400477Y-104369810D01*
X150400477Y-104607905D01*
X150352858Y-104703143D01*
X150305239Y-104750762D01*
X150210001Y-104798381D01*
X149971905Y-104798381D01*
X149876667Y-104750762D01*
X149829048Y-104703143D01*
X170260477Y-104274571D02*
X170403334Y-104322190D01*
X170450953Y-104369810D01*
X170498572Y-104465048D01*
X170498572Y-104607905D01*
X170450953Y-104703143D01*
X170403334Y-104750762D01*
X170308096Y-104798381D01*
X169927143Y-104798381D01*
X169927143Y-103798381D01*
X170260477Y-103798381D01*
X170355715Y-103846000D01*
X170403334Y-103893619D01*
X170450953Y-103988857D01*
X170450953Y-104084095D01*
X170403334Y-104179333D01*
X170355715Y-104226952D01*
X170260477Y-104274571D01*
X169927143Y-104274571D01*
X170784286Y-103798381D02*
X171355715Y-103798381D01*
X171070000Y-104798381D02*
X171070000Y-103798381D01*
X171689048Y-104798381D02*
X171689048Y-103798381D01*
X172260477Y-104798381D01*
X172260477Y-103798381D01*
X173165239Y-103798381D02*
X172974762Y-103798381D01*
X172879524Y-103846000D01*
X172831905Y-103893619D01*
X172736667Y-104036476D01*
X172689048Y-104226952D01*
X172689048Y-104607905D01*
X172736667Y-104703143D01*
X172784286Y-104750762D01*
X172879524Y-104798381D01*
X173070001Y-104798381D01*
X173165239Y-104750762D01*
X173212858Y-104703143D01*
X173260477Y-104607905D01*
X173260477Y-104369810D01*
X173212858Y-104274571D01*
X173165239Y-104226952D01*
X173070001Y-104179333D01*
X172879524Y-104179333D01*
X172784286Y-104226952D01*
X172736667Y-104274571D01*
X172689048Y-104369810D01*
X150170667Y-76937762D02*
X150313524Y-76985381D01*
X150551620Y-76985381D01*
X150646858Y-76937762D01*
X150694477Y-76890143D01*
X150742096Y-76794905D01*
X150742096Y-76699667D01*
X150694477Y-76604429D01*
X150646858Y-76556810D01*
X150551620Y-76509190D01*
X150361143Y-76461571D01*
X150265905Y-76413952D01*
X150218286Y-76366333D01*
X150170667Y-76271095D01*
X150170667Y-76175857D01*
X150218286Y-76080619D01*
X150265905Y-76033000D01*
X150361143Y-75985381D01*
X150599239Y-75985381D01*
X150742096Y-76033000D01*
X151075429Y-75985381D02*
X151313524Y-76985381D01*
X151504001Y-76271095D01*
X151694477Y-76985381D01*
X151932572Y-75985381D01*
X152837334Y-76985381D02*
X152265905Y-76985381D01*
X152551619Y-76985381D02*
X152551619Y-75985381D01*
X152456381Y-76128238D01*
X152361143Y-76223476D01*
X152265905Y-76271095D01*
X129518095Y-77452381D02*
X129518095Y-78261905D01*
X129565714Y-78357143D01*
X129613333Y-78404762D01*
X129708571Y-78452381D01*
X129899048Y-78452381D01*
X129994286Y-78404762D01*
X130041905Y-78357143D01*
X130089524Y-78261905D01*
X130089524Y-77452381D01*
X131089524Y-78452381D02*
X130518095Y-78452381D01*
X130803809Y-78452381D02*
X130803809Y-77452381D01*
X130708571Y-77595238D01*
X130613333Y-77690476D01*
X130518095Y-77738095D01*
D18*
X115579048Y-72544952D02*
X115579048Y-72144952D01*
X115731429Y-72144952D01*
X115769524Y-72164000D01*
X115788572Y-72183048D01*
X115807620Y-72221143D01*
X115807620Y-72278286D01*
X115788572Y-72316381D01*
X115769524Y-72335429D01*
X115731429Y-72354476D01*
X115579048Y-72354476D01*
X116207620Y-72544952D02*
X116074286Y-72354476D01*
X115979048Y-72544952D02*
X115979048Y-72144952D01*
X116131429Y-72144952D01*
X116169524Y-72164000D01*
X116188572Y-72183048D01*
X116207620Y-72221143D01*
X116207620Y-72278286D01*
X116188572Y-72316381D01*
X116169524Y-72335429D01*
X116131429Y-72354476D01*
X115979048Y-72354476D01*
X116455239Y-72144952D02*
X116531429Y-72144952D01*
X116569524Y-72164000D01*
X116607620Y-72202095D01*
X116626667Y-72278286D01*
X116626667Y-72411619D01*
X116607620Y-72487810D01*
X116569524Y-72525905D01*
X116531429Y-72544952D01*
X116455239Y-72544952D01*
X116417143Y-72525905D01*
X116379048Y-72487810D01*
X116360000Y-72411619D01*
X116360000Y-72278286D01*
X116379048Y-72202095D01*
X116417143Y-72164000D01*
X116455239Y-72144952D01*
X116798096Y-72544952D02*
X116798096Y-72144952D01*
X116950477Y-72144952D02*
X117217144Y-72144952D01*
X116950477Y-72544952D01*
X117217144Y-72544952D01*
X117312381Y-72144952D02*
X117445715Y-72544952D01*
X117579048Y-72144952D01*
X117788572Y-72144952D02*
X117864762Y-72144952D01*
X117902857Y-72164000D01*
X117940953Y-72202095D01*
X117960000Y-72278286D01*
X117960000Y-72411619D01*
X117940953Y-72487810D01*
X117902857Y-72525905D01*
X117864762Y-72544952D01*
X117788572Y-72544952D01*
X117750476Y-72525905D01*
X117712381Y-72487810D01*
X117693333Y-72411619D01*
X117693333Y-72278286D01*
X117712381Y-72202095D01*
X117750476Y-72164000D01*
X117788572Y-72144952D01*
X118131429Y-72544952D02*
X118131429Y-72144952D01*
X118226667Y-72144952D01*
X118283810Y-72164000D01*
X118321905Y-72202095D01*
X118340953Y-72240190D01*
X118360001Y-72316381D01*
X118360001Y-72373524D01*
X118340953Y-72449714D01*
X118321905Y-72487810D01*
X118283810Y-72525905D01*
X118226667Y-72544952D01*
X118131429Y-72544952D01*
X115664762Y-68944952D02*
X115664762Y-68544952D01*
X115664762Y-68735429D02*
X115893334Y-68735429D01*
X115893334Y-68944952D02*
X115893334Y-68544952D01*
X116312382Y-68944952D02*
X116179048Y-68754476D01*
X116083810Y-68944952D02*
X116083810Y-68544952D01*
X116236191Y-68544952D01*
X116274286Y-68564000D01*
X116293334Y-68583048D01*
X116312382Y-68621143D01*
X116312382Y-68678286D01*
X116293334Y-68716381D01*
X116274286Y-68735429D01*
X116236191Y-68754476D01*
X116083810Y-68754476D01*
X116426667Y-68544952D02*
X116560001Y-68944952D01*
X116693334Y-68544952D01*
X116807619Y-68830667D02*
X116998096Y-68830667D01*
X116769524Y-68944952D02*
X116902858Y-68544952D01*
X117036191Y-68944952D01*
X117112381Y-68544952D02*
X117340953Y-68544952D01*
X117226667Y-68944952D02*
X117226667Y-68544952D01*
X117455238Y-68925905D02*
X117512381Y-68944952D01*
X117607619Y-68944952D01*
X117645715Y-68925905D01*
X117664762Y-68906857D01*
X117683810Y-68868762D01*
X117683810Y-68830667D01*
X117664762Y-68792571D01*
X117645715Y-68773524D01*
X117607619Y-68754476D01*
X117531429Y-68735429D01*
X117493334Y-68716381D01*
X117474286Y-68697333D01*
X117455238Y-68659238D01*
X117455238Y-68621143D01*
X117474286Y-68583048D01*
X117493334Y-68564000D01*
X117531429Y-68544952D01*
X117626667Y-68544952D01*
X117683810Y-68564000D01*
X117855238Y-68944952D02*
X117855238Y-68544952D01*
X118083810Y-68944952D02*
X117912381Y-68716381D01*
X118083810Y-68544952D02*
X117855238Y-68773524D01*
X118255238Y-68944952D02*
X118255238Y-68544952D01*
D14*
X124778381Y-106957286D02*
X123778381Y-106957286D01*
X123778381Y-106719191D01*
X123826000Y-106576333D01*
X123921238Y-106481095D01*
X124016476Y-106433476D01*
X124206952Y-106385857D01*
X124349810Y-106385857D01*
X124540286Y-106433476D01*
X124635524Y-106481095D01*
X124730762Y-106576333D01*
X124778381Y-106719191D01*
X124778381Y-106957286D01*
X123873619Y-106004905D02*
X123826000Y-105957286D01*
X123778381Y-105862048D01*
X123778381Y-105623952D01*
X123826000Y-105528714D01*
X123873619Y-105481095D01*
X123968857Y-105433476D01*
X124064095Y-105433476D01*
X124206952Y-105481095D01*
X124778381Y-106052524D01*
X124778381Y-105433476D01*
X123873619Y-105052524D02*
X123826000Y-105004905D01*
X123778381Y-104909667D01*
X123778381Y-104671571D01*
X123826000Y-104576333D01*
X123873619Y-104528714D01*
X123968857Y-104481095D01*
X124064095Y-104481095D01*
X124206952Y-104528714D01*
X124778381Y-105100143D01*
X124778381Y-104481095D01*
X124778381Y-110322857D02*
X124302190Y-110656191D01*
X124778381Y-110894286D02*
X123778381Y-110894286D01*
X123778381Y-110513333D01*
X123826000Y-110418095D01*
X123873619Y-110370476D01*
X123968857Y-110322857D01*
X124111714Y-110322857D01*
X124206952Y-110370476D01*
X124254571Y-110418095D01*
X124302190Y-110513333D01*
X124302190Y-110894286D01*
X123778381Y-109465714D02*
X123778381Y-109656191D01*
X123826000Y-109751429D01*
X123873619Y-109799048D01*
X124016476Y-109894286D01*
X124206952Y-109941905D01*
X124587905Y-109941905D01*
X124683143Y-109894286D01*
X124730762Y-109846667D01*
X124778381Y-109751429D01*
X124778381Y-109560952D01*
X124730762Y-109465714D01*
X124683143Y-109418095D01*
X124587905Y-109370476D01*
X124349810Y-109370476D01*
X124254571Y-109418095D01*
X124206952Y-109465714D01*
X124159333Y-109560952D01*
X124159333Y-109751429D01*
X124206952Y-109846667D01*
X124254571Y-109894286D01*
X124349810Y-109941905D01*
X123873619Y-108989524D02*
X123826000Y-108941905D01*
X123778381Y-108846667D01*
X123778381Y-108608571D01*
X123826000Y-108513333D01*
X123873619Y-108465714D01*
X123968857Y-108418095D01*
X124064095Y-108418095D01*
X124206952Y-108465714D01*
X124778381Y-109037143D01*
X124778381Y-108418095D01*
X127175714Y-103655381D02*
X127175714Y-102655381D01*
X127413809Y-102655381D01*
X127556667Y-102703000D01*
X127651905Y-102798238D01*
X127699524Y-102893476D01*
X127747143Y-103083952D01*
X127747143Y-103226810D01*
X127699524Y-103417286D01*
X127651905Y-103512524D01*
X127556667Y-103607762D01*
X127413809Y-103655381D01*
X127175714Y-103655381D01*
X128699524Y-103655381D02*
X128128095Y-103655381D01*
X128413809Y-103655381D02*
X128413809Y-102655381D01*
X128318571Y-102798238D01*
X128223333Y-102893476D01*
X128128095Y-102941095D01*
X129270952Y-103083952D02*
X129175714Y-103036333D01*
X129128095Y-102988714D01*
X129080476Y-102893476D01*
X129080476Y-102845857D01*
X129128095Y-102750619D01*
X129175714Y-102703000D01*
X129270952Y-102655381D01*
X129461429Y-102655381D01*
X129556667Y-102703000D01*
X129604286Y-102750619D01*
X129651905Y-102845857D01*
X129651905Y-102893476D01*
X129604286Y-102988714D01*
X129556667Y-103036333D01*
X129461429Y-103083952D01*
X129270952Y-103083952D01*
X129175714Y-103131571D01*
X129128095Y-103179190D01*
X129080476Y-103274429D01*
X129080476Y-103464905D01*
X129128095Y-103560143D01*
X129175714Y-103607762D01*
X129270952Y-103655381D01*
X129461429Y-103655381D01*
X129556667Y-103607762D01*
X129604286Y-103560143D01*
X129651905Y-103464905D01*
X129651905Y-103274429D01*
X129604286Y-103179190D01*
X129556667Y-103131571D01*
X129461429Y-103083952D01*
X120206381Y-78287095D02*
X119206381Y-78287095D01*
X119206381Y-78049000D01*
X119254000Y-77906142D01*
X119349238Y-77810904D01*
X119444476Y-77763285D01*
X119634952Y-77715666D01*
X119777810Y-77715666D01*
X119968286Y-77763285D01*
X120063524Y-77810904D01*
X120158762Y-77906142D01*
X120206381Y-78049000D01*
X120206381Y-78287095D01*
X119206381Y-77096619D02*
X119206381Y-77001380D01*
X119254000Y-76906142D01*
X119301619Y-76858523D01*
X119396857Y-76810904D01*
X119587333Y-76763285D01*
X119825429Y-76763285D01*
X120015905Y-76810904D01*
X120111143Y-76858523D01*
X120158762Y-76906142D01*
X120206381Y-77001380D01*
X120206381Y-77096619D01*
X120158762Y-77191857D01*
X120111143Y-77239476D01*
X120015905Y-77287095D01*
X119825429Y-77334714D01*
X119587333Y-77334714D01*
X119396857Y-77287095D01*
X119301619Y-77239476D01*
X119254000Y-77191857D01*
X119206381Y-77096619D01*
X117412381Y-77398095D02*
X116412381Y-77398095D01*
X116412381Y-77160000D01*
X116460000Y-77017142D01*
X116555238Y-76921904D01*
X116650476Y-76874285D01*
X116840952Y-76826666D01*
X116983810Y-76826666D01*
X117174286Y-76874285D01*
X117269524Y-76921904D01*
X117364762Y-77017142D01*
X117412381Y-77160000D01*
X117412381Y-77398095D01*
X117412381Y-75874285D02*
X117412381Y-76445714D01*
X117412381Y-76160000D02*
X116412381Y-76160000D01*
X116555238Y-76255238D01*
X116650476Y-76350476D01*
X116698095Y-76445714D01*
X114872381Y-77398095D02*
X113872381Y-77398095D01*
X113872381Y-77160000D01*
X113920000Y-77017142D01*
X114015238Y-76921904D01*
X114110476Y-76874285D01*
X114300952Y-76826666D01*
X114443810Y-76826666D01*
X114634286Y-76874285D01*
X114729524Y-76921904D01*
X114824762Y-77017142D01*
X114872381Y-77160000D01*
X114872381Y-77398095D01*
X113967619Y-76445714D02*
X113920000Y-76398095D01*
X113872381Y-76302857D01*
X113872381Y-76064761D01*
X113920000Y-75969523D01*
X113967619Y-75921904D01*
X114062857Y-75874285D01*
X114158095Y-75874285D01*
X114300952Y-75921904D01*
X114872381Y-76493333D01*
X114872381Y-75874285D01*
X112332381Y-77398095D02*
X111332381Y-77398095D01*
X111332381Y-77160000D01*
X111380000Y-77017142D01*
X111475238Y-76921904D01*
X111570476Y-76874285D01*
X111760952Y-76826666D01*
X111903810Y-76826666D01*
X112094286Y-76874285D01*
X112189524Y-76921904D01*
X112284762Y-77017142D01*
X112332381Y-77160000D01*
X112332381Y-77398095D01*
X111332381Y-76493333D02*
X111332381Y-75874285D01*
X111713333Y-76207619D01*
X111713333Y-76064761D01*
X111760952Y-75969523D01*
X111808571Y-75921904D01*
X111903810Y-75874285D01*
X112141905Y-75874285D01*
X112237143Y-75921904D01*
X112284762Y-75969523D01*
X112332381Y-76064761D01*
X112332381Y-76350476D01*
X112284762Y-76445714D01*
X112237143Y-76493333D01*
X109792381Y-77398095D02*
X108792381Y-77398095D01*
X108792381Y-77160000D01*
X108840000Y-77017142D01*
X108935238Y-76921904D01*
X109030476Y-76874285D01*
X109220952Y-76826666D01*
X109363810Y-76826666D01*
X109554286Y-76874285D01*
X109649524Y-76921904D01*
X109744762Y-77017142D01*
X109792381Y-77160000D01*
X109792381Y-77398095D01*
X109125714Y-75969523D02*
X109792381Y-75969523D01*
X108744762Y-76207619D02*
X109459048Y-76445714D01*
X109459048Y-75826666D01*
X107252381Y-77398095D02*
X106252381Y-77398095D01*
X106252381Y-77160000D01*
X106300000Y-77017142D01*
X106395238Y-76921904D01*
X106490476Y-76874285D01*
X106680952Y-76826666D01*
X106823810Y-76826666D01*
X107014286Y-76874285D01*
X107109524Y-76921904D01*
X107204762Y-77017142D01*
X107252381Y-77160000D01*
X107252381Y-77398095D01*
X106252381Y-75921904D02*
X106252381Y-76398095D01*
X106728571Y-76445714D01*
X106680952Y-76398095D01*
X106633333Y-76302857D01*
X106633333Y-76064761D01*
X106680952Y-75969523D01*
X106728571Y-75921904D01*
X106823810Y-75874285D01*
X107061905Y-75874285D01*
X107157143Y-75921904D01*
X107204762Y-75969523D01*
X107252381Y-76064761D01*
X107252381Y-76302857D01*
X107204762Y-76398095D01*
X107157143Y-76445714D01*
X104712381Y-77398095D02*
X103712381Y-77398095D01*
X103712381Y-77160000D01*
X103760000Y-77017142D01*
X103855238Y-76921904D01*
X103950476Y-76874285D01*
X104140952Y-76826666D01*
X104283810Y-76826666D01*
X104474286Y-76874285D01*
X104569524Y-76921904D01*
X104664762Y-77017142D01*
X104712381Y-77160000D01*
X104712381Y-77398095D01*
X103712381Y-75969523D02*
X103712381Y-76160000D01*
X103760000Y-76255238D01*
X103807619Y-76302857D01*
X103950476Y-76398095D01*
X104140952Y-76445714D01*
X104521905Y-76445714D01*
X104617143Y-76398095D01*
X104664762Y-76350476D01*
X104712381Y-76255238D01*
X104712381Y-76064761D01*
X104664762Y-75969523D01*
X104617143Y-75921904D01*
X104521905Y-75874285D01*
X104283810Y-75874285D01*
X104188571Y-75921904D01*
X104140952Y-75969523D01*
X104093333Y-76064761D01*
X104093333Y-76255238D01*
X104140952Y-76350476D01*
X104188571Y-76398095D01*
X104283810Y-76445714D01*
X102172381Y-77398095D02*
X101172381Y-77398095D01*
X101172381Y-77160000D01*
X101220000Y-77017142D01*
X101315238Y-76921904D01*
X101410476Y-76874285D01*
X101600952Y-76826666D01*
X101743810Y-76826666D01*
X101934286Y-76874285D01*
X102029524Y-76921904D01*
X102124762Y-77017142D01*
X102172381Y-77160000D01*
X102172381Y-77398095D01*
X101172381Y-76493333D02*
X101172381Y-75826666D01*
X102172381Y-76255238D01*
X133033381Y-107084286D02*
X132033381Y-107084286D01*
X132033381Y-106846191D01*
X132081000Y-106703333D01*
X132176238Y-106608095D01*
X132271476Y-106560476D01*
X132461952Y-106512857D01*
X132604810Y-106512857D01*
X132795286Y-106560476D01*
X132890524Y-106608095D01*
X132985762Y-106703333D01*
X133033381Y-106846191D01*
X133033381Y-107084286D01*
X133033381Y-105560476D02*
X133033381Y-106131905D01*
X133033381Y-105846191D02*
X132033381Y-105846191D01*
X132176238Y-105941429D01*
X132271476Y-106036667D01*
X132319095Y-106131905D01*
X133033381Y-105084286D02*
X133033381Y-104893810D01*
X132985762Y-104798571D01*
X132938143Y-104750952D01*
X132795286Y-104655714D01*
X132604810Y-104608095D01*
X132223857Y-104608095D01*
X132128619Y-104655714D01*
X132081000Y-104703333D01*
X132033381Y-104798571D01*
X132033381Y-104989048D01*
X132081000Y-105084286D01*
X132128619Y-105131905D01*
X132223857Y-105179524D01*
X132461952Y-105179524D01*
X132557190Y-105131905D01*
X132604810Y-105084286D01*
X132652429Y-104989048D01*
X132652429Y-104798571D01*
X132604810Y-104703333D01*
X132557190Y-104655714D01*
X132461952Y-104608095D01*
D19*
X121121098Y-71355350D02*
X121121098Y-71065064D01*
X121295269Y-71413407D02*
X120685669Y-71210207D01*
X121295269Y-71007007D01*
X120685669Y-70803807D02*
X121179155Y-70803807D01*
X121237212Y-70774779D01*
X121266241Y-70745750D01*
X121295269Y-70687693D01*
X121295269Y-70571579D01*
X121266241Y-70513521D01*
X121237212Y-70484493D01*
X121179155Y-70455464D01*
X120685669Y-70455464D01*
X121295269Y-70165178D02*
X120685669Y-70165178D01*
X120685669Y-70020035D01*
X120714698Y-69932950D01*
X120772755Y-69874892D01*
X120830812Y-69845864D01*
X120946927Y-69816835D01*
X121034012Y-69816835D01*
X121150127Y-69845864D01*
X121208184Y-69874892D01*
X121266241Y-69932950D01*
X121295269Y-70020035D01*
X121295269Y-70165178D01*
X121295269Y-69555578D02*
X120685669Y-69555578D01*
X120685669Y-69149178D02*
X120685669Y-69033064D01*
X120714698Y-68975006D01*
X120772755Y-68916949D01*
X120888869Y-68887921D01*
X121092069Y-68887921D01*
X121208184Y-68916949D01*
X121266241Y-68975006D01*
X121295269Y-69033064D01*
X121295269Y-69149178D01*
X121266241Y-69207235D01*
X121208184Y-69265292D01*
X121092069Y-69294321D01*
X120888869Y-69294321D01*
X120772755Y-69265292D01*
X120714698Y-69207235D01*
X120685669Y-69149178D01*
X121295269Y-68307349D02*
X121295269Y-68655692D01*
X121295269Y-68481520D02*
X120685669Y-68481520D01*
X120772755Y-68539577D01*
X120830812Y-68597635D01*
X120859841Y-68655692D01*
D14*
X125551879Y-75450397D02*
X126266165Y-75450397D01*
X126409022Y-75498017D01*
X126504260Y-75593255D01*
X126551879Y-75736112D01*
X126551879Y-75831350D01*
X126266165Y-75021826D02*
X126266165Y-74545635D01*
X126551879Y-75117064D02*
X125551879Y-74783731D01*
X126551879Y-74450397D01*
X126456641Y-73545635D02*
X126504260Y-73593254D01*
X126551879Y-73736111D01*
X126551879Y-73831349D01*
X126504260Y-73974207D01*
X126409022Y-74069445D01*
X126313784Y-74117064D01*
X126123308Y-74164683D01*
X125980450Y-74164683D01*
X125789974Y-74117064D01*
X125694736Y-74069445D01*
X125599498Y-73974207D01*
X125551879Y-73831349D01*
X125551879Y-73736111D01*
X125599498Y-73593254D01*
X125647117Y-73545635D01*
X126551879Y-73117064D02*
X125551879Y-73117064D01*
X126551879Y-72545635D02*
X125980450Y-72974207D01*
X125551879Y-72545635D02*
X126123308Y-73117064D01*
X126647117Y-72355159D02*
X126647117Y-71593254D01*
X125551879Y-71498016D02*
X125551879Y-70926587D01*
X126551879Y-71212302D02*
X125551879Y-71212302D01*
X126551879Y-70021825D02*
X126075688Y-70355159D01*
X126551879Y-70593254D02*
X125551879Y-70593254D01*
X125551879Y-70212301D01*
X125599498Y-70117063D01*
X125647117Y-70069444D01*
X125742355Y-70021825D01*
X125885212Y-70021825D01*
X125980450Y-70069444D01*
X126028069Y-70117063D01*
X126075688Y-70212301D01*
X126075688Y-70593254D01*
X126504260Y-69640873D02*
X126551879Y-69498016D01*
X126551879Y-69259920D01*
X126504260Y-69164682D01*
X126456641Y-69117063D01*
X126361403Y-69069444D01*
X126266165Y-69069444D01*
X126170927Y-69117063D01*
X126123308Y-69164682D01*
X126075688Y-69259920D01*
X126028069Y-69450397D01*
X125980450Y-69545635D01*
X125932831Y-69593254D01*
X125837593Y-69640873D01*
X125742355Y-69640873D01*
X125647117Y-69593254D01*
X125599498Y-69545635D01*
X125551879Y-69450397D01*
X125551879Y-69212301D01*
X125599498Y-69069444D01*
X126647117Y-68878968D02*
X126647117Y-68117063D01*
X125551879Y-67450396D02*
X125551879Y-67640873D01*
X125599498Y-67736111D01*
X125647117Y-67783730D01*
X125789974Y-67878968D01*
X125980450Y-67926587D01*
X126361403Y-67926587D01*
X126456641Y-67878968D01*
X126504260Y-67831349D01*
X126551879Y-67736111D01*
X126551879Y-67545634D01*
X126504260Y-67450396D01*
X126456641Y-67402777D01*
X126361403Y-67355158D01*
X126123308Y-67355158D01*
X126028069Y-67402777D01*
X125980450Y-67450396D01*
X125932831Y-67545634D01*
X125932831Y-67736111D01*
X125980450Y-67831349D01*
X126028069Y-67878968D01*
X126123308Y-67926587D01*
X126551879Y-66926587D02*
X125551879Y-66926587D01*
X125551879Y-66545634D01*
X125599498Y-66450396D01*
X125647117Y-66402777D01*
X125742355Y-66355158D01*
X125885212Y-66355158D01*
X125980450Y-66402777D01*
X126028069Y-66450396D01*
X126075688Y-66545634D01*
X126075688Y-66926587D01*
X126551879Y-65926587D02*
X125551879Y-65926587D01*
X126551879Y-65450397D02*
X125551879Y-65450397D01*
X126551879Y-64878968D01*
X125551879Y-64878968D01*
X126504260Y-64450397D02*
X126551879Y-64307540D01*
X126551879Y-64069444D01*
X126504260Y-63974206D01*
X126456641Y-63926587D01*
X126361403Y-63878968D01*
X126266165Y-63878968D01*
X126170927Y-63926587D01*
X126123308Y-63974206D01*
X126075688Y-64069444D01*
X126028069Y-64259921D01*
X125980450Y-64355159D01*
X125932831Y-64402778D01*
X125837593Y-64450397D01*
X125742355Y-64450397D01*
X125647117Y-64402778D01*
X125599498Y-64355159D01*
X125551879Y-64259921D01*
X125551879Y-64021825D01*
X125599498Y-63878968D01*
D17*
X134867000Y-68991619D02*
X134818619Y-69088381D01*
X134818619Y-69233524D01*
X134867000Y-69378666D01*
X134963762Y-69475428D01*
X135060524Y-69523809D01*
X135254048Y-69572190D01*
X135399190Y-69572190D01*
X135592714Y-69523809D01*
X135689476Y-69475428D01*
X135786238Y-69378666D01*
X135834619Y-69233524D01*
X135834619Y-69136762D01*
X135786238Y-68991619D01*
X135737857Y-68943238D01*
X135399190Y-68943238D01*
X135399190Y-69136762D01*
X135834619Y-68507809D02*
X134818619Y-68507809D01*
X134818619Y-68120762D01*
X134867000Y-68024000D01*
X134915381Y-67975619D01*
X135012143Y-67927238D01*
X135157286Y-67927238D01*
X135254048Y-67975619D01*
X135302429Y-68024000D01*
X135350810Y-68120762D01*
X135350810Y-68507809D01*
X135834619Y-67491809D02*
X134818619Y-67491809D01*
X134818619Y-67249904D01*
X134867000Y-67104762D01*
X134963762Y-67008000D01*
X135060524Y-66959619D01*
X135254048Y-66911238D01*
X135399190Y-66911238D01*
X135592714Y-66959619D01*
X135689476Y-67008000D01*
X135786238Y-67104762D01*
X135834619Y-67249904D01*
X135834619Y-67491809D01*
X135834619Y-66475809D02*
X134818619Y-66475809D01*
X135834619Y-65459809D02*
X135834619Y-66040380D01*
X135834619Y-65750094D02*
X134818619Y-65750094D01*
X134963762Y-65846856D01*
X135060524Y-65943618D01*
X135108905Y-66040380D01*
D14*
X154057095Y-80176381D02*
X154057095Y-80985905D01*
X154104714Y-81081143D01*
X154152333Y-81128762D01*
X154247571Y-81176381D01*
X154438048Y-81176381D01*
X154533286Y-81128762D01*
X154580905Y-81081143D01*
X154628524Y-80985905D01*
X154628524Y-80176381D01*
X155057095Y-80271619D02*
X155104714Y-80224000D01*
X155199952Y-80176381D01*
X155438048Y-80176381D01*
X155533286Y-80224000D01*
X155580905Y-80271619D01*
X155628524Y-80366857D01*
X155628524Y-80462095D01*
X155580905Y-80604952D01*
X155009476Y-81176381D01*
X155628524Y-81176381D01*
D20*
X114293564Y-98192630D02*
X114379198Y-98221175D01*
X114521922Y-98221175D01*
X114579012Y-98192630D01*
X114607556Y-98164086D01*
X114636101Y-98106996D01*
X114636101Y-98049907D01*
X114607556Y-97992817D01*
X114579012Y-97964272D01*
X114521922Y-97935728D01*
X114407743Y-97907183D01*
X114350654Y-97878638D01*
X114322109Y-97850093D01*
X114293564Y-97793004D01*
X114293564Y-97735914D01*
X114322109Y-97678825D01*
X114350654Y-97650280D01*
X114407743Y-97621735D01*
X114550467Y-97621735D01*
X114636101Y-97650280D01*
X114893004Y-98221175D02*
X114893004Y-97621735D01*
X115035728Y-97621735D01*
X115121362Y-97650280D01*
X115178451Y-97707370D01*
X115206996Y-97764459D01*
X115235541Y-97878638D01*
X115235541Y-97964272D01*
X115206996Y-98078451D01*
X115178451Y-98135541D01*
X115121362Y-98192630D01*
X115035728Y-98221175D01*
X114893004Y-98221175D01*
X115806436Y-98221175D02*
X115463899Y-98221175D01*
X115635168Y-98221175D02*
X115635168Y-97621735D01*
X115578078Y-97707370D01*
X115520989Y-97764459D01*
X115463899Y-97793004D01*
X112281159Y-99462630D02*
X112366793Y-99491175D01*
X112509517Y-99491175D01*
X112566607Y-99462630D01*
X112595151Y-99434086D01*
X112623696Y-99376996D01*
X112623696Y-99319907D01*
X112595151Y-99262817D01*
X112566607Y-99234272D01*
X112509517Y-99205728D01*
X112395338Y-99177183D01*
X112338249Y-99148638D01*
X112309704Y-99120093D01*
X112281159Y-99063004D01*
X112281159Y-99005914D01*
X112309704Y-98948825D01*
X112338249Y-98920280D01*
X112395338Y-98891735D01*
X112538062Y-98891735D01*
X112623696Y-98920280D01*
X113223136Y-99434086D02*
X113194591Y-99462630D01*
X113108957Y-99491175D01*
X113051867Y-99491175D01*
X112966233Y-99462630D01*
X112909144Y-99405541D01*
X112880599Y-99348451D01*
X112852054Y-99234272D01*
X112852054Y-99148638D01*
X112880599Y-99034459D01*
X112909144Y-98977370D01*
X112966233Y-98920280D01*
X113051867Y-98891735D01*
X113108957Y-98891735D01*
X113194591Y-98920280D01*
X113223136Y-98948825D01*
X113480039Y-99491175D02*
X113480039Y-98891735D01*
X113480039Y-99177183D02*
X113822576Y-99177183D01*
X113822576Y-99491175D02*
X113822576Y-98891735D01*
X114108024Y-99491175D02*
X114108024Y-98891735D01*
X114250748Y-98891735D01*
X114336382Y-98920280D01*
X114393471Y-98977370D01*
X114422016Y-99034459D01*
X114450561Y-99148638D01*
X114450561Y-99234272D01*
X114422016Y-99348451D01*
X114393471Y-99405541D01*
X114336382Y-99462630D01*
X114250748Y-99491175D01*
X114108024Y-99491175D01*
X114650374Y-98891735D02*
X115021456Y-98891735D01*
X114821643Y-99120093D01*
X114907277Y-99120093D01*
X114964367Y-99148638D01*
X114992911Y-99177183D01*
X115021456Y-99234272D01*
X115021456Y-99376996D01*
X114992911Y-99434086D01*
X114964367Y-99462630D01*
X114907277Y-99491175D01*
X114736009Y-99491175D01*
X114678919Y-99462630D01*
X114650374Y-99434086D01*
X115249814Y-99319907D02*
X115535262Y-99319907D01*
X115192725Y-99491175D02*
X115392538Y-98891735D01*
X115592351Y-99491175D01*
X115906344Y-98891735D02*
X115963433Y-98891735D01*
X116020523Y-98920280D01*
X116049068Y-98948825D01*
X116077612Y-99005914D01*
X116106157Y-99120093D01*
X116106157Y-99262817D01*
X116077612Y-99376996D01*
X116049068Y-99434086D01*
X116020523Y-99462630D01*
X115963433Y-99491175D01*
X115906344Y-99491175D01*
X115849254Y-99462630D01*
X115820710Y-99434086D01*
X115792165Y-99376996D01*
X115763620Y-99262817D01*
X115763620Y-99120093D01*
X115792165Y-99005914D01*
X115820710Y-98948825D01*
X115849254Y-98920280D01*
X115906344Y-98891735D01*
X116677052Y-99491175D02*
X116334515Y-99491175D01*
X116505784Y-99491175D02*
X116505784Y-98891735D01*
X116448694Y-98977370D01*
X116391605Y-99034459D01*
X116334515Y-99063004D01*
X117048134Y-98891735D02*
X117105223Y-98891735D01*
X117162313Y-98920280D01*
X117190858Y-98948825D01*
X117219402Y-99005914D01*
X117247947Y-99120093D01*
X117247947Y-99262817D01*
X117219402Y-99376996D01*
X117190858Y-99434086D01*
X117162313Y-99462630D01*
X117105223Y-99491175D01*
X117048134Y-99491175D01*
X116991044Y-99462630D01*
X116962500Y-99434086D01*
X116933955Y-99376996D01*
X116905410Y-99262817D01*
X116905410Y-99120093D01*
X116933955Y-99005914D01*
X116962500Y-98948825D01*
X116991044Y-98920280D01*
X117048134Y-98891735D01*
X117619029Y-98891735D02*
X117676118Y-98891735D01*
X117733208Y-98920280D01*
X117761753Y-98948825D01*
X117790297Y-99005914D01*
X117818842Y-99120093D01*
X117818842Y-99262817D01*
X117790297Y-99376996D01*
X117761753Y-99434086D01*
X117733208Y-99462630D01*
X117676118Y-99491175D01*
X117619029Y-99491175D01*
X117561939Y-99462630D01*
X117533395Y-99434086D01*
X117504850Y-99376996D01*
X117476305Y-99262817D01*
X117476305Y-99120093D01*
X117504850Y-99005914D01*
X117533395Y-98948825D01*
X117561939Y-98920280D01*
X117619029Y-98891735D01*
D14*
X110047809Y-69756190D02*
X110047809Y-70232381D01*
X109714476Y-69232381D02*
X110047809Y-69756190D01*
X110381143Y-69232381D01*
X111238286Y-70232381D02*
X110666857Y-70232381D01*
X110952571Y-70232381D02*
X110952571Y-69232381D01*
X110857333Y-69375238D01*
X110762095Y-69470476D01*
X110666857Y-69518095D01*
M02*
