G04 #@! TF.GenerationSoftware,KiCad,Pcbnew,5.1.6+dfsg1-1*
G04 #@! TF.CreationDate,2020-05-20T13:22:59+02:00*
G04 #@! TF.ProjectId,ulx3s,756c7833-732e-46b6-9963-61645f706362,v3.1.0*
G04 #@! TF.SameCoordinates,Original*
G04 #@! TF.FileFunction,Paste,Bot*
G04 #@! TF.FilePolarity,Positive*
%FSLAX46Y46*%
G04 Gerber Fmt 4.6, Leading zero omitted, Abs format (unit mm)*
G04 Created by KiCad (PCBNEW 5.1.6+dfsg1-1) date 2020-05-20 13:22:59*
%MOMM*%
%LPD*%
G01*
G04 APERTURE LIST*
%ADD10O,2.246000X0.646000*%
%ADD11O,0.646000X2.246000*%
%ADD12R,3.300000X3.100000*%
%ADD13O,1.000000X0.300000*%
%ADD14R,1.000000X0.300000*%
%ADD15R,1.200000X2.400000*%
%ADD16R,1.600000X1.200000*%
%ADD17R,0.800000X0.700000*%
%ADD18R,0.900000X0.900000*%
%ADD19R,0.600000X1.100000*%
%ADD20R,0.500000X1.450000*%
%ADD21O,0.500000X1.450000*%
%ADD22R,1.450000X0.500000*%
%ADD23O,1.450000X0.500000*%
%ADD24R,0.500000X2.000000*%
%ADD25O,0.500000X2.000000*%
%ADD26R,0.570000X0.900000*%
%ADD27R,2.200000X1.500000*%
%ADD28R,0.700000X0.800000*%
G04 APERTURE END LIST*
D10*
X108230000Y-111000000D03*
X108230000Y-109730000D03*
X108230000Y-108460000D03*
X108230000Y-107190000D03*
X108230000Y-105920000D03*
X108230000Y-104650000D03*
X108230000Y-103380000D03*
X108230000Y-102110000D03*
X108230000Y-100840000D03*
X108230000Y-99570000D03*
X108230000Y-98300000D03*
X108230000Y-97030000D03*
X108230000Y-95760000D03*
X108230000Y-94490000D03*
D11*
X111515000Y-93000000D03*
X112785000Y-93000000D03*
X114055000Y-93000000D03*
X115325000Y-93000000D03*
X116595000Y-93000000D03*
X117865000Y-93000000D03*
X119135000Y-93000000D03*
X120405000Y-93000000D03*
X121675000Y-93000000D03*
X122945000Y-93000000D03*
D10*
X126230000Y-94490000D03*
X126230000Y-95760000D03*
X126230000Y-97030000D03*
X126230000Y-98300000D03*
X126230000Y-99570000D03*
X126230000Y-100840000D03*
X126230000Y-102110000D03*
X126230000Y-103380000D03*
X126230000Y-104650000D03*
X126230000Y-105920000D03*
X126230000Y-107190000D03*
X126230000Y-108460000D03*
X126230000Y-109730000D03*
X126230000Y-111000000D03*
D12*
X172485000Y-105870000D03*
X156685000Y-105870000D03*
D13*
X130135000Y-104215000D03*
X130135000Y-104865000D03*
X130135000Y-105515000D03*
X130135000Y-106165000D03*
X130135000Y-106815000D03*
X130135000Y-107465000D03*
X130135000Y-108115000D03*
X130135000Y-108765000D03*
X130135000Y-109415000D03*
X130135000Y-110065000D03*
X135535000Y-110065000D03*
X135535000Y-109415000D03*
X135535000Y-108765000D03*
X135535000Y-108115000D03*
X135535000Y-107465000D03*
X135535000Y-106815000D03*
X135535000Y-106165000D03*
X135535000Y-105515000D03*
X135535000Y-104865000D03*
D14*
X135535000Y-104215000D03*
D15*
X157600000Y-74755000D03*
X155060000Y-74755000D03*
X160140000Y-88090000D03*
X157600000Y-88090000D03*
X103625000Y-88725000D03*
X106165000Y-88725000D03*
D16*
X178576000Y-98522000D03*
X172976000Y-98522000D03*
X172976000Y-101322000D03*
X178576000Y-101322000D03*
G36*
G01*
X104203500Y-82316250D02*
X104203500Y-81453750D01*
G75*
G02*
X104422250Y-81235000I218750J0D01*
G01*
X104859750Y-81235000D01*
G75*
G02*
X105078500Y-81453750I0J-218750D01*
G01*
X105078500Y-82316250D01*
G75*
G02*
X104859750Y-82535000I-218750J0D01*
G01*
X104422250Y-82535000D01*
G75*
G02*
X104203500Y-82316250I0J218750D01*
G01*
G37*
G36*
G01*
X102328500Y-82316250D02*
X102328500Y-81453750D01*
G75*
G02*
X102547250Y-81235000I218750J0D01*
G01*
X102984750Y-81235000D01*
G75*
G02*
X103203500Y-81453750I0J-218750D01*
G01*
X103203500Y-82316250D01*
G75*
G02*
X102984750Y-82535000I-218750J0D01*
G01*
X102547250Y-82535000D01*
G75*
G02*
X102328500Y-82316250I0J218750D01*
G01*
G37*
G36*
G01*
X128158750Y-110080000D02*
X128621250Y-110080000D01*
G75*
G02*
X128815000Y-110273750I0J-193750D01*
G01*
X128815000Y-110661250D01*
G75*
G02*
X128621250Y-110855000I-193750J0D01*
G01*
X128158750Y-110855000D01*
G75*
G02*
X127965000Y-110661250I0J193750D01*
G01*
X127965000Y-110273750D01*
G75*
G02*
X128158750Y-110080000I193750J0D01*
G01*
G37*
G36*
G01*
X128158750Y-108505000D02*
X128621250Y-108505000D01*
G75*
G02*
X128815000Y-108698750I0J-193750D01*
G01*
X128815000Y-109086250D01*
G75*
G02*
X128621250Y-109280000I-193750J0D01*
G01*
X128158750Y-109280000D01*
G75*
G02*
X127965000Y-109086250I0J193750D01*
G01*
X127965000Y-108698750D01*
G75*
G02*
X128158750Y-108505000I193750J0D01*
G01*
G37*
G36*
G01*
X128621250Y-105046000D02*
X128158750Y-105046000D01*
G75*
G02*
X127965000Y-104852250I0J193750D01*
G01*
X127965000Y-104464750D01*
G75*
G02*
X128158750Y-104271000I193750J0D01*
G01*
X128621250Y-104271000D01*
G75*
G02*
X128815000Y-104464750I0J-193750D01*
G01*
X128815000Y-104852250D01*
G75*
G02*
X128621250Y-105046000I-193750J0D01*
G01*
G37*
G36*
G01*
X128621250Y-106621000D02*
X128158750Y-106621000D01*
G75*
G02*
X127965000Y-106427250I0J193750D01*
G01*
X127965000Y-106039750D01*
G75*
G02*
X128158750Y-105846000I193750J0D01*
G01*
X128621250Y-105846000D01*
G75*
G02*
X128815000Y-106039750I0J-193750D01*
G01*
X128815000Y-106427250D01*
G75*
G02*
X128621250Y-106621000I-193750J0D01*
G01*
G37*
G36*
G01*
X133066250Y-97215000D02*
X132603750Y-97215000D01*
G75*
G02*
X132410000Y-97021250I0J193750D01*
G01*
X132410000Y-96633750D01*
G75*
G02*
X132603750Y-96440000I193750J0D01*
G01*
X133066250Y-96440000D01*
G75*
G02*
X133260000Y-96633750I0J-193750D01*
G01*
X133260000Y-97021250D01*
G75*
G02*
X133066250Y-97215000I-193750J0D01*
G01*
G37*
G36*
G01*
X133066250Y-98790000D02*
X132603750Y-98790000D01*
G75*
G02*
X132410000Y-98596250I0J193750D01*
G01*
X132410000Y-98208750D01*
G75*
G02*
X132603750Y-98015000I193750J0D01*
G01*
X133066250Y-98015000D01*
G75*
G02*
X133260000Y-98208750I0J-193750D01*
G01*
X133260000Y-98596250D01*
G75*
G02*
X133066250Y-98790000I-193750J0D01*
G01*
G37*
G36*
G01*
X131161250Y-97215000D02*
X130698750Y-97215000D01*
G75*
G02*
X130505000Y-97021250I0J193750D01*
G01*
X130505000Y-96633750D01*
G75*
G02*
X130698750Y-96440000I193750J0D01*
G01*
X131161250Y-96440000D01*
G75*
G02*
X131355000Y-96633750I0J-193750D01*
G01*
X131355000Y-97021250D01*
G75*
G02*
X131161250Y-97215000I-193750J0D01*
G01*
G37*
G36*
G01*
X131161250Y-98790000D02*
X130698750Y-98790000D01*
G75*
G02*
X130505000Y-98596250I0J193750D01*
G01*
X130505000Y-98208750D01*
G75*
G02*
X130698750Y-98015000I193750J0D01*
G01*
X131161250Y-98015000D01*
G75*
G02*
X131355000Y-98208750I0J-193750D01*
G01*
X131355000Y-98596250D01*
G75*
G02*
X131161250Y-98790000I-193750J0D01*
G01*
G37*
G36*
G01*
X129256250Y-95775000D02*
X128793750Y-95775000D01*
G75*
G02*
X128600000Y-95581250I0J193750D01*
G01*
X128600000Y-95193750D01*
G75*
G02*
X128793750Y-95000000I193750J0D01*
G01*
X129256250Y-95000000D01*
G75*
G02*
X129450000Y-95193750I0J-193750D01*
G01*
X129450000Y-95581250D01*
G75*
G02*
X129256250Y-95775000I-193750J0D01*
G01*
G37*
G36*
G01*
X129256250Y-97350000D02*
X128793750Y-97350000D01*
G75*
G02*
X128600000Y-97156250I0J193750D01*
G01*
X128600000Y-96768750D01*
G75*
G02*
X128793750Y-96575000I193750J0D01*
G01*
X129256250Y-96575000D01*
G75*
G02*
X129450000Y-96768750I0J-193750D01*
G01*
X129450000Y-97156250D01*
G75*
G02*
X129256250Y-97350000I-193750J0D01*
G01*
G37*
G36*
G01*
X167906000Y-65969250D02*
X167906000Y-65506750D01*
G75*
G02*
X168099750Y-65313000I193750J0D01*
G01*
X168487250Y-65313000D01*
G75*
G02*
X168681000Y-65506750I0J-193750D01*
G01*
X168681000Y-65969250D01*
G75*
G02*
X168487250Y-66163000I-193750J0D01*
G01*
X168099750Y-66163000D01*
G75*
G02*
X167906000Y-65969250I0J193750D01*
G01*
G37*
G36*
G01*
X166331000Y-65969250D02*
X166331000Y-65506750D01*
G75*
G02*
X166524750Y-65313000I193750J0D01*
G01*
X166912250Y-65313000D01*
G75*
G02*
X167106000Y-65506750I0J-193750D01*
G01*
X167106000Y-65969250D01*
G75*
G02*
X166912250Y-66163000I-193750J0D01*
G01*
X166524750Y-66163000D01*
G75*
G02*
X166331000Y-65969250I0J193750D01*
G01*
G37*
G36*
G01*
X104152000Y-103831250D02*
X104152000Y-103368750D01*
G75*
G02*
X104345750Y-103175000I193750J0D01*
G01*
X104733250Y-103175000D01*
G75*
G02*
X104927000Y-103368750I0J-193750D01*
G01*
X104927000Y-103831250D01*
G75*
G02*
X104733250Y-104025000I-193750J0D01*
G01*
X104345750Y-104025000D01*
G75*
G02*
X104152000Y-103831250I0J193750D01*
G01*
G37*
G36*
G01*
X102577000Y-103831250D02*
X102577000Y-103368750D01*
G75*
G02*
X102770750Y-103175000I193750J0D01*
G01*
X103158250Y-103175000D01*
G75*
G02*
X103352000Y-103368750I0J-193750D01*
G01*
X103352000Y-103831250D01*
G75*
G02*
X103158250Y-104025000I-193750J0D01*
G01*
X102770750Y-104025000D01*
G75*
G02*
X102577000Y-103831250I0J193750D01*
G01*
G37*
G36*
G01*
X103352000Y-101828750D02*
X103352000Y-102291250D01*
G75*
G02*
X103158250Y-102485000I-193750J0D01*
G01*
X102770750Y-102485000D01*
G75*
G02*
X102577000Y-102291250I0J193750D01*
G01*
X102577000Y-101828750D01*
G75*
G02*
X102770750Y-101635000I193750J0D01*
G01*
X103158250Y-101635000D01*
G75*
G02*
X103352000Y-101828750I0J-193750D01*
G01*
G37*
G36*
G01*
X104927000Y-101828750D02*
X104927000Y-102291250D01*
G75*
G02*
X104733250Y-102485000I-193750J0D01*
G01*
X104345750Y-102485000D01*
G75*
G02*
X104152000Y-102291250I0J193750D01*
G01*
X104152000Y-101828750D01*
G75*
G02*
X104345750Y-101635000I193750J0D01*
G01*
X104733250Y-101635000D01*
G75*
G02*
X104927000Y-101828750I0J-193750D01*
G01*
G37*
G36*
G01*
X105707250Y-98512000D02*
X104844750Y-98512000D01*
G75*
G02*
X104626000Y-98293250I0J218750D01*
G01*
X104626000Y-97855750D01*
G75*
G02*
X104844750Y-97637000I218750J0D01*
G01*
X105707250Y-97637000D01*
G75*
G02*
X105926000Y-97855750I0J-218750D01*
G01*
X105926000Y-98293250D01*
G75*
G02*
X105707250Y-98512000I-218750J0D01*
G01*
G37*
G36*
G01*
X105707250Y-100387000D02*
X104844750Y-100387000D01*
G75*
G02*
X104626000Y-100168250I0J218750D01*
G01*
X104626000Y-99730750D01*
G75*
G02*
X104844750Y-99512000I218750J0D01*
G01*
X105707250Y-99512000D01*
G75*
G02*
X105926000Y-99730750I0J-218750D01*
G01*
X105926000Y-100168250D01*
G75*
G02*
X105707250Y-100387000I-218750J0D01*
G01*
G37*
G36*
G01*
X103807750Y-98630000D02*
X103345250Y-98630000D01*
G75*
G02*
X103151500Y-98436250I0J193750D01*
G01*
X103151500Y-98048750D01*
G75*
G02*
X103345250Y-97855000I193750J0D01*
G01*
X103807750Y-97855000D01*
G75*
G02*
X104001500Y-98048750I0J-193750D01*
G01*
X104001500Y-98436250D01*
G75*
G02*
X103807750Y-98630000I-193750J0D01*
G01*
G37*
G36*
G01*
X103807750Y-100205000D02*
X103345250Y-100205000D01*
G75*
G02*
X103151500Y-100011250I0J193750D01*
G01*
X103151500Y-99623750D01*
G75*
G02*
X103345250Y-99430000I193750J0D01*
G01*
X103807750Y-99430000D01*
G75*
G02*
X104001500Y-99623750I0J-193750D01*
G01*
X104001500Y-100011250D01*
G75*
G02*
X103807750Y-100205000I-193750J0D01*
G01*
G37*
G36*
G01*
X103617000Y-93492250D02*
X103617000Y-92629750D01*
G75*
G02*
X103835750Y-92411000I218750J0D01*
G01*
X104273250Y-92411000D01*
G75*
G02*
X104492000Y-92629750I0J-218750D01*
G01*
X104492000Y-93492250D01*
G75*
G02*
X104273250Y-93711000I-218750J0D01*
G01*
X103835750Y-93711000D01*
G75*
G02*
X103617000Y-93492250I0J218750D01*
G01*
G37*
G36*
G01*
X101742000Y-93492250D02*
X101742000Y-92629750D01*
G75*
G02*
X101960750Y-92411000I218750J0D01*
G01*
X102398250Y-92411000D01*
G75*
G02*
X102617000Y-92629750I0J-218750D01*
G01*
X102617000Y-93492250D01*
G75*
G02*
X102398250Y-93711000I-218750J0D01*
G01*
X101960750Y-93711000D01*
G75*
G02*
X101742000Y-93492250I0J218750D01*
G01*
G37*
G36*
G01*
X103263000Y-91387250D02*
X103263000Y-90924750D01*
G75*
G02*
X103456750Y-90731000I193750J0D01*
G01*
X103844250Y-90731000D01*
G75*
G02*
X104038000Y-90924750I0J-193750D01*
G01*
X104038000Y-91387250D01*
G75*
G02*
X103844250Y-91581000I-193750J0D01*
G01*
X103456750Y-91581000D01*
G75*
G02*
X103263000Y-91387250I0J193750D01*
G01*
G37*
G36*
G01*
X101688000Y-91387250D02*
X101688000Y-90924750D01*
G75*
G02*
X101881750Y-90731000I193750J0D01*
G01*
X102269250Y-90731000D01*
G75*
G02*
X102463000Y-90924750I0J-193750D01*
G01*
X102463000Y-91387250D01*
G75*
G02*
X102269250Y-91581000I-193750J0D01*
G01*
X101881750Y-91581000D01*
G75*
G02*
X101688000Y-91387250I0J193750D01*
G01*
G37*
G36*
G01*
X106046000Y-90960750D02*
X106046000Y-91823250D01*
G75*
G02*
X105827250Y-92042000I-218750J0D01*
G01*
X105389750Y-92042000D01*
G75*
G02*
X105171000Y-91823250I0J218750D01*
G01*
X105171000Y-90960750D01*
G75*
G02*
X105389750Y-90742000I218750J0D01*
G01*
X105827250Y-90742000D01*
G75*
G02*
X106046000Y-90960750I0J-218750D01*
G01*
G37*
G36*
G01*
X107921000Y-90960750D02*
X107921000Y-91823250D01*
G75*
G02*
X107702250Y-92042000I-218750J0D01*
G01*
X107264750Y-92042000D01*
G75*
G02*
X107046000Y-91823250I0J218750D01*
G01*
X107046000Y-90960750D01*
G75*
G02*
X107264750Y-90742000I218750J0D01*
G01*
X107702250Y-90742000D01*
G75*
G02*
X107921000Y-90960750I0J-218750D01*
G01*
G37*
G36*
G01*
X106396250Y-84515000D02*
X105933750Y-84515000D01*
G75*
G02*
X105740000Y-84321250I0J193750D01*
G01*
X105740000Y-83933750D01*
G75*
G02*
X105933750Y-83740000I193750J0D01*
G01*
X106396250Y-83740000D01*
G75*
G02*
X106590000Y-83933750I0J-193750D01*
G01*
X106590000Y-84321250D01*
G75*
G02*
X106396250Y-84515000I-193750J0D01*
G01*
G37*
G36*
G01*
X106396250Y-86090000D02*
X105933750Y-86090000D01*
G75*
G02*
X105740000Y-85896250I0J193750D01*
G01*
X105740000Y-85508750D01*
G75*
G02*
X105933750Y-85315000I193750J0D01*
G01*
X106396250Y-85315000D01*
G75*
G02*
X106590000Y-85508750I0J-193750D01*
G01*
X106590000Y-85896250D01*
G75*
G02*
X106396250Y-86090000I-193750J0D01*
G01*
G37*
G36*
G01*
X108840000Y-85753750D02*
X108840000Y-86616250D01*
G75*
G02*
X108621250Y-86835000I-218750J0D01*
G01*
X108183750Y-86835000D01*
G75*
G02*
X107965000Y-86616250I0J218750D01*
G01*
X107965000Y-85753750D01*
G75*
G02*
X108183750Y-85535000I218750J0D01*
G01*
X108621250Y-85535000D01*
G75*
G02*
X108840000Y-85753750I0J-218750D01*
G01*
G37*
G36*
G01*
X110715000Y-85753750D02*
X110715000Y-86616250D01*
G75*
G02*
X110496250Y-86835000I-218750J0D01*
G01*
X110058750Y-86835000D01*
G75*
G02*
X109840000Y-86616250I0J218750D01*
G01*
X109840000Y-85753750D01*
G75*
G02*
X110058750Y-85535000I218750J0D01*
G01*
X110496250Y-85535000D01*
G75*
G02*
X110715000Y-85753750I0J-218750D01*
G01*
G37*
G36*
G01*
X108840000Y-83848750D02*
X108840000Y-84711250D01*
G75*
G02*
X108621250Y-84930000I-218750J0D01*
G01*
X108183750Y-84930000D01*
G75*
G02*
X107965000Y-84711250I0J218750D01*
G01*
X107965000Y-83848750D01*
G75*
G02*
X108183750Y-83630000I218750J0D01*
G01*
X108621250Y-83630000D01*
G75*
G02*
X108840000Y-83848750I0J-218750D01*
G01*
G37*
G36*
G01*
X110715000Y-83848750D02*
X110715000Y-84711250D01*
G75*
G02*
X110496250Y-84930000I-218750J0D01*
G01*
X110058750Y-84930000D01*
G75*
G02*
X109840000Y-84711250I0J218750D01*
G01*
X109840000Y-83848750D01*
G75*
G02*
X110058750Y-83630000I218750J0D01*
G01*
X110496250Y-83630000D01*
G75*
G02*
X110715000Y-83848750I0J-218750D01*
G01*
G37*
G36*
G01*
X108940000Y-82143750D02*
X108940000Y-82606250D01*
G75*
G02*
X108746250Y-82800000I-193750J0D01*
G01*
X108358750Y-82800000D01*
G75*
G02*
X108165000Y-82606250I0J193750D01*
G01*
X108165000Y-82143750D01*
G75*
G02*
X108358750Y-81950000I193750J0D01*
G01*
X108746250Y-81950000D01*
G75*
G02*
X108940000Y-82143750I0J-193750D01*
G01*
G37*
G36*
G01*
X110515000Y-82143750D02*
X110515000Y-82606250D01*
G75*
G02*
X110321250Y-82800000I-193750J0D01*
G01*
X109933750Y-82800000D01*
G75*
G02*
X109740000Y-82606250I0J193750D01*
G01*
X109740000Y-82143750D01*
G75*
G02*
X109933750Y-81950000I193750J0D01*
G01*
X110321250Y-81950000D01*
G75*
G02*
X110515000Y-82143750I0J-193750D01*
G01*
G37*
G36*
G01*
X108940000Y-80873750D02*
X108940000Y-81336250D01*
G75*
G02*
X108746250Y-81530000I-193750J0D01*
G01*
X108358750Y-81530000D01*
G75*
G02*
X108165000Y-81336250I0J193750D01*
G01*
X108165000Y-80873750D01*
G75*
G02*
X108358750Y-80680000I193750J0D01*
G01*
X108746250Y-80680000D01*
G75*
G02*
X108940000Y-80873750I0J-193750D01*
G01*
G37*
G36*
G01*
X110515000Y-80873750D02*
X110515000Y-81336250D01*
G75*
G02*
X110321250Y-81530000I-193750J0D01*
G01*
X109933750Y-81530000D01*
G75*
G02*
X109740000Y-81336250I0J193750D01*
G01*
X109740000Y-80873750D01*
G75*
G02*
X109933750Y-80680000I193750J0D01*
G01*
X110321250Y-80680000D01*
G75*
G02*
X110515000Y-80873750I0J-193750D01*
G01*
G37*
G36*
G01*
X113015250Y-87944000D02*
X112552750Y-87944000D01*
G75*
G02*
X112359000Y-87750250I0J193750D01*
G01*
X112359000Y-87362750D01*
G75*
G02*
X112552750Y-87169000I193750J0D01*
G01*
X113015250Y-87169000D01*
G75*
G02*
X113209000Y-87362750I0J-193750D01*
G01*
X113209000Y-87750250D01*
G75*
G02*
X113015250Y-87944000I-193750J0D01*
G01*
G37*
G36*
G01*
X113015250Y-89519000D02*
X112552750Y-89519000D01*
G75*
G02*
X112359000Y-89325250I0J193750D01*
G01*
X112359000Y-88937750D01*
G75*
G02*
X112552750Y-88744000I193750J0D01*
G01*
X113015250Y-88744000D01*
G75*
G02*
X113209000Y-88937750I0J-193750D01*
G01*
X113209000Y-89325250D01*
G75*
G02*
X113015250Y-89519000I-193750J0D01*
G01*
G37*
G36*
G01*
X114539250Y-87944000D02*
X114076750Y-87944000D01*
G75*
G02*
X113883000Y-87750250I0J193750D01*
G01*
X113883000Y-87362750D01*
G75*
G02*
X114076750Y-87169000I193750J0D01*
G01*
X114539250Y-87169000D01*
G75*
G02*
X114733000Y-87362750I0J-193750D01*
G01*
X114733000Y-87750250D01*
G75*
G02*
X114539250Y-87944000I-193750J0D01*
G01*
G37*
G36*
G01*
X114539250Y-89519000D02*
X114076750Y-89519000D01*
G75*
G02*
X113883000Y-89325250I0J193750D01*
G01*
X113883000Y-88937750D01*
G75*
G02*
X114076750Y-88744000I193750J0D01*
G01*
X114539250Y-88744000D01*
G75*
G02*
X114733000Y-88937750I0J-193750D01*
G01*
X114733000Y-89325250D01*
G75*
G02*
X114539250Y-89519000I-193750J0D01*
G01*
G37*
G36*
G01*
X113553750Y-84680000D02*
X114016250Y-84680000D01*
G75*
G02*
X114210000Y-84873750I0J-193750D01*
G01*
X114210000Y-85261250D01*
G75*
G02*
X114016250Y-85455000I-193750J0D01*
G01*
X113553750Y-85455000D01*
G75*
G02*
X113360000Y-85261250I0J193750D01*
G01*
X113360000Y-84873750D01*
G75*
G02*
X113553750Y-84680000I193750J0D01*
G01*
G37*
G36*
G01*
X113553750Y-83105000D02*
X114016250Y-83105000D01*
G75*
G02*
X114210000Y-83298750I0J-193750D01*
G01*
X114210000Y-83686250D01*
G75*
G02*
X114016250Y-83880000I-193750J0D01*
G01*
X113553750Y-83880000D01*
G75*
G02*
X113360000Y-83686250I0J193750D01*
G01*
X113360000Y-83298750D01*
G75*
G02*
X113553750Y-83105000I193750J0D01*
G01*
G37*
G36*
G01*
X115458750Y-79618000D02*
X115921250Y-79618000D01*
G75*
G02*
X116115000Y-79811750I0J-193750D01*
G01*
X116115000Y-80199250D01*
G75*
G02*
X115921250Y-80393000I-193750J0D01*
G01*
X115458750Y-80393000D01*
G75*
G02*
X115265000Y-80199250I0J193750D01*
G01*
X115265000Y-79811750D01*
G75*
G02*
X115458750Y-79618000I193750J0D01*
G01*
G37*
G36*
G01*
X115458750Y-78043000D02*
X115921250Y-78043000D01*
G75*
G02*
X116115000Y-78236750I0J-193750D01*
G01*
X116115000Y-78624250D01*
G75*
G02*
X115921250Y-78818000I-193750J0D01*
G01*
X115458750Y-78818000D01*
G75*
G02*
X115265000Y-78624250I0J193750D01*
G01*
X115265000Y-78236750D01*
G75*
G02*
X115458750Y-78043000I193750J0D01*
G01*
G37*
G36*
G01*
X117363750Y-79618000D02*
X117826250Y-79618000D01*
G75*
G02*
X118020000Y-79811750I0J-193750D01*
G01*
X118020000Y-80199250D01*
G75*
G02*
X117826250Y-80393000I-193750J0D01*
G01*
X117363750Y-80393000D01*
G75*
G02*
X117170000Y-80199250I0J193750D01*
G01*
X117170000Y-79811750D01*
G75*
G02*
X117363750Y-79618000I193750J0D01*
G01*
G37*
G36*
G01*
X117363750Y-78043000D02*
X117826250Y-78043000D01*
G75*
G02*
X118020000Y-78236750I0J-193750D01*
G01*
X118020000Y-78624250D01*
G75*
G02*
X117826250Y-78818000I-193750J0D01*
G01*
X117363750Y-78818000D01*
G75*
G02*
X117170000Y-78624250I0J193750D01*
G01*
X117170000Y-78236750D01*
G75*
G02*
X117363750Y-78043000I193750J0D01*
G01*
G37*
G36*
G01*
X119283750Y-79618000D02*
X119746250Y-79618000D01*
G75*
G02*
X119940000Y-79811750I0J-193750D01*
G01*
X119940000Y-80199250D01*
G75*
G02*
X119746250Y-80393000I-193750J0D01*
G01*
X119283750Y-80393000D01*
G75*
G02*
X119090000Y-80199250I0J193750D01*
G01*
X119090000Y-79811750D01*
G75*
G02*
X119283750Y-79618000I193750J0D01*
G01*
G37*
G36*
G01*
X119283750Y-78043000D02*
X119746250Y-78043000D01*
G75*
G02*
X119940000Y-78236750I0J-193750D01*
G01*
X119940000Y-78624250D01*
G75*
G02*
X119746250Y-78818000I-193750J0D01*
G01*
X119283750Y-78818000D01*
G75*
G02*
X119090000Y-78624250I0J193750D01*
G01*
X119090000Y-78236750D01*
G75*
G02*
X119283750Y-78043000I193750J0D01*
G01*
G37*
G36*
G01*
X125196000Y-80238750D02*
X125196000Y-80701250D01*
G75*
G02*
X125002250Y-80895000I-193750J0D01*
G01*
X124614750Y-80895000D01*
G75*
G02*
X124421000Y-80701250I0J193750D01*
G01*
X124421000Y-80238750D01*
G75*
G02*
X124614750Y-80045000I193750J0D01*
G01*
X125002250Y-80045000D01*
G75*
G02*
X125196000Y-80238750I0J-193750D01*
G01*
G37*
G36*
G01*
X126771000Y-80238750D02*
X126771000Y-80701250D01*
G75*
G02*
X126577250Y-80895000I-193750J0D01*
G01*
X126189750Y-80895000D01*
G75*
G02*
X125996000Y-80701250I0J193750D01*
G01*
X125996000Y-80238750D01*
G75*
G02*
X126189750Y-80045000I193750J0D01*
G01*
X126577250Y-80045000D01*
G75*
G02*
X126771000Y-80238750I0J-193750D01*
G01*
G37*
G36*
G01*
X125196000Y-81780750D02*
X125196000Y-82243250D01*
G75*
G02*
X125002250Y-82437000I-193750J0D01*
G01*
X124614750Y-82437000D01*
G75*
G02*
X124421000Y-82243250I0J193750D01*
G01*
X124421000Y-81780750D01*
G75*
G02*
X124614750Y-81587000I193750J0D01*
G01*
X125002250Y-81587000D01*
G75*
G02*
X125196000Y-81780750I0J-193750D01*
G01*
G37*
G36*
G01*
X126771000Y-81780750D02*
X126771000Y-82243250D01*
G75*
G02*
X126577250Y-82437000I-193750J0D01*
G01*
X126189750Y-82437000D01*
G75*
G02*
X125996000Y-82243250I0J193750D01*
G01*
X125996000Y-81780750D01*
G75*
G02*
X126189750Y-81587000I193750J0D01*
G01*
X126577250Y-81587000D01*
G75*
G02*
X126771000Y-81780750I0J-193750D01*
G01*
G37*
G36*
G01*
X125196000Y-83304750D02*
X125196000Y-83767250D01*
G75*
G02*
X125002250Y-83961000I-193750J0D01*
G01*
X124614750Y-83961000D01*
G75*
G02*
X124421000Y-83767250I0J193750D01*
G01*
X124421000Y-83304750D01*
G75*
G02*
X124614750Y-83111000I193750J0D01*
G01*
X125002250Y-83111000D01*
G75*
G02*
X125196000Y-83304750I0J-193750D01*
G01*
G37*
G36*
G01*
X126771000Y-83304750D02*
X126771000Y-83767250D01*
G75*
G02*
X126577250Y-83961000I-193750J0D01*
G01*
X126189750Y-83961000D01*
G75*
G02*
X125996000Y-83767250I0J193750D01*
G01*
X125996000Y-83304750D01*
G75*
G02*
X126189750Y-83111000I193750J0D01*
G01*
X126577250Y-83111000D01*
G75*
G02*
X126771000Y-83304750I0J-193750D01*
G01*
G37*
G36*
G01*
X125196000Y-84828750D02*
X125196000Y-85291250D01*
G75*
G02*
X125002250Y-85485000I-193750J0D01*
G01*
X124614750Y-85485000D01*
G75*
G02*
X124421000Y-85291250I0J193750D01*
G01*
X124421000Y-84828750D01*
G75*
G02*
X124614750Y-84635000I193750J0D01*
G01*
X125002250Y-84635000D01*
G75*
G02*
X125196000Y-84828750I0J-193750D01*
G01*
G37*
G36*
G01*
X126771000Y-84828750D02*
X126771000Y-85291250D01*
G75*
G02*
X126577250Y-85485000I-193750J0D01*
G01*
X126189750Y-85485000D01*
G75*
G02*
X125996000Y-85291250I0J193750D01*
G01*
X125996000Y-84828750D01*
G75*
G02*
X126189750Y-84635000I193750J0D01*
G01*
X126577250Y-84635000D01*
G75*
G02*
X126771000Y-84828750I0J-193750D01*
G01*
G37*
G36*
G01*
X103771000Y-71194250D02*
X103771000Y-70731750D01*
G75*
G02*
X103964750Y-70538000I193750J0D01*
G01*
X104352250Y-70538000D01*
G75*
G02*
X104546000Y-70731750I0J-193750D01*
G01*
X104546000Y-71194250D01*
G75*
G02*
X104352250Y-71388000I-193750J0D01*
G01*
X103964750Y-71388000D01*
G75*
G02*
X103771000Y-71194250I0J193750D01*
G01*
G37*
G36*
G01*
X102196000Y-71194250D02*
X102196000Y-70731750D01*
G75*
G02*
X102389750Y-70538000I193750J0D01*
G01*
X102777250Y-70538000D01*
G75*
G02*
X102971000Y-70731750I0J-193750D01*
G01*
X102971000Y-71194250D01*
G75*
G02*
X102777250Y-71388000I-193750J0D01*
G01*
X102389750Y-71388000D01*
G75*
G02*
X102196000Y-71194250I0J193750D01*
G01*
G37*
G36*
G01*
X111603250Y-73085000D02*
X111140750Y-73085000D01*
G75*
G02*
X110947000Y-72891250I0J193750D01*
G01*
X110947000Y-72503750D01*
G75*
G02*
X111140750Y-72310000I193750J0D01*
G01*
X111603250Y-72310000D01*
G75*
G02*
X111797000Y-72503750I0J-193750D01*
G01*
X111797000Y-72891250D01*
G75*
G02*
X111603250Y-73085000I-193750J0D01*
G01*
G37*
G36*
G01*
X111603250Y-74660000D02*
X111140750Y-74660000D01*
G75*
G02*
X110947000Y-74466250I0J193750D01*
G01*
X110947000Y-74078750D01*
G75*
G02*
X111140750Y-73885000I193750J0D01*
G01*
X111603250Y-73885000D01*
G75*
G02*
X111797000Y-74078750I0J-193750D01*
G01*
X111797000Y-74466250D01*
G75*
G02*
X111603250Y-74660000I-193750J0D01*
G01*
G37*
G36*
G01*
X113508250Y-73085000D02*
X113045750Y-73085000D01*
G75*
G02*
X112852000Y-72891250I0J193750D01*
G01*
X112852000Y-72503750D01*
G75*
G02*
X113045750Y-72310000I193750J0D01*
G01*
X113508250Y-72310000D01*
G75*
G02*
X113702000Y-72503750I0J-193750D01*
G01*
X113702000Y-72891250D01*
G75*
G02*
X113508250Y-73085000I-193750J0D01*
G01*
G37*
G36*
G01*
X113508250Y-74660000D02*
X113045750Y-74660000D01*
G75*
G02*
X112852000Y-74466250I0J193750D01*
G01*
X112852000Y-74078750D01*
G75*
G02*
X113045750Y-73885000I193750J0D01*
G01*
X113508250Y-73885000D01*
G75*
G02*
X113702000Y-74078750I0J-193750D01*
G01*
X113702000Y-74466250D01*
G75*
G02*
X113508250Y-74660000I-193750J0D01*
G01*
G37*
G36*
G01*
X117953250Y-72958000D02*
X117490750Y-72958000D01*
G75*
G02*
X117297000Y-72764250I0J193750D01*
G01*
X117297000Y-72376750D01*
G75*
G02*
X117490750Y-72183000I193750J0D01*
G01*
X117953250Y-72183000D01*
G75*
G02*
X118147000Y-72376750I0J-193750D01*
G01*
X118147000Y-72764250D01*
G75*
G02*
X117953250Y-72958000I-193750J0D01*
G01*
G37*
G36*
G01*
X117953250Y-74533000D02*
X117490750Y-74533000D01*
G75*
G02*
X117297000Y-74339250I0J193750D01*
G01*
X117297000Y-73951750D01*
G75*
G02*
X117490750Y-73758000I193750J0D01*
G01*
X117953250Y-73758000D01*
G75*
G02*
X118147000Y-73951750I0J-193750D01*
G01*
X118147000Y-74339250D01*
G75*
G02*
X117953250Y-74533000I-193750J0D01*
G01*
G37*
G36*
G01*
X119477250Y-72958000D02*
X119014750Y-72958000D01*
G75*
G02*
X118821000Y-72764250I0J193750D01*
G01*
X118821000Y-72376750D01*
G75*
G02*
X119014750Y-72183000I193750J0D01*
G01*
X119477250Y-72183000D01*
G75*
G02*
X119671000Y-72376750I0J-193750D01*
G01*
X119671000Y-72764250D01*
G75*
G02*
X119477250Y-72958000I-193750J0D01*
G01*
G37*
G36*
G01*
X119477250Y-74533000D02*
X119014750Y-74533000D01*
G75*
G02*
X118821000Y-74339250I0J193750D01*
G01*
X118821000Y-73951750D01*
G75*
G02*
X119014750Y-73758000I193750J0D01*
G01*
X119477250Y-73758000D01*
G75*
G02*
X119671000Y-73951750I0J-193750D01*
G01*
X119671000Y-74339250D01*
G75*
G02*
X119477250Y-74533000I-193750J0D01*
G01*
G37*
G36*
G01*
X121001250Y-72958000D02*
X120538750Y-72958000D01*
G75*
G02*
X120345000Y-72764250I0J193750D01*
G01*
X120345000Y-72376750D01*
G75*
G02*
X120538750Y-72183000I193750J0D01*
G01*
X121001250Y-72183000D01*
G75*
G02*
X121195000Y-72376750I0J-193750D01*
G01*
X121195000Y-72764250D01*
G75*
G02*
X121001250Y-72958000I-193750J0D01*
G01*
G37*
G36*
G01*
X121001250Y-74533000D02*
X120538750Y-74533000D01*
G75*
G02*
X120345000Y-74339250I0J193750D01*
G01*
X120345000Y-73951750D01*
G75*
G02*
X120538750Y-73758000I193750J0D01*
G01*
X121001250Y-73758000D01*
G75*
G02*
X121195000Y-73951750I0J-193750D01*
G01*
X121195000Y-74339250D01*
G75*
G02*
X121001250Y-74533000I-193750J0D01*
G01*
G37*
G36*
G01*
X122525250Y-72958000D02*
X122062750Y-72958000D01*
G75*
G02*
X121869000Y-72764250I0J193750D01*
G01*
X121869000Y-72376750D01*
G75*
G02*
X122062750Y-72183000I193750J0D01*
G01*
X122525250Y-72183000D01*
G75*
G02*
X122719000Y-72376750I0J-193750D01*
G01*
X122719000Y-72764250D01*
G75*
G02*
X122525250Y-72958000I-193750J0D01*
G01*
G37*
G36*
G01*
X122525250Y-74533000D02*
X122062750Y-74533000D01*
G75*
G02*
X121869000Y-74339250I0J193750D01*
G01*
X121869000Y-73951750D01*
G75*
G02*
X122062750Y-73758000I193750J0D01*
G01*
X122525250Y-73758000D01*
G75*
G02*
X122719000Y-73951750I0J-193750D01*
G01*
X122719000Y-74339250D01*
G75*
G02*
X122525250Y-74533000I-193750J0D01*
G01*
G37*
G36*
G01*
X130653250Y-74373000D02*
X130190750Y-74373000D01*
G75*
G02*
X129997000Y-74179250I0J193750D01*
G01*
X129997000Y-73791750D01*
G75*
G02*
X130190750Y-73598000I193750J0D01*
G01*
X130653250Y-73598000D01*
G75*
G02*
X130847000Y-73791750I0J-193750D01*
G01*
X130847000Y-74179250D01*
G75*
G02*
X130653250Y-74373000I-193750J0D01*
G01*
G37*
G36*
G01*
X130653250Y-75948000D02*
X130190750Y-75948000D01*
G75*
G02*
X129997000Y-75754250I0J193750D01*
G01*
X129997000Y-75366750D01*
G75*
G02*
X130190750Y-75173000I193750J0D01*
G01*
X130653250Y-75173000D01*
G75*
G02*
X130847000Y-75366750I0J-193750D01*
G01*
X130847000Y-75754250D01*
G75*
G02*
X130653250Y-75948000I-193750J0D01*
G01*
G37*
G36*
G01*
X132192250Y-74373000D02*
X131729750Y-74373000D01*
G75*
G02*
X131536000Y-74179250I0J193750D01*
G01*
X131536000Y-73791750D01*
G75*
G02*
X131729750Y-73598000I193750J0D01*
G01*
X132192250Y-73598000D01*
G75*
G02*
X132386000Y-73791750I0J-193750D01*
G01*
X132386000Y-74179250D01*
G75*
G02*
X132192250Y-74373000I-193750J0D01*
G01*
G37*
G36*
G01*
X132192250Y-75948000D02*
X131729750Y-75948000D01*
G75*
G02*
X131536000Y-75754250I0J193750D01*
G01*
X131536000Y-75366750D01*
G75*
G02*
X131729750Y-75173000I193750J0D01*
G01*
X132192250Y-75173000D01*
G75*
G02*
X132386000Y-75366750I0J-193750D01*
G01*
X132386000Y-75754250D01*
G75*
G02*
X132192250Y-75948000I-193750J0D01*
G01*
G37*
G36*
G01*
X133716250Y-74373000D02*
X133253750Y-74373000D01*
G75*
G02*
X133060000Y-74179250I0J193750D01*
G01*
X133060000Y-73791750D01*
G75*
G02*
X133253750Y-73598000I193750J0D01*
G01*
X133716250Y-73598000D01*
G75*
G02*
X133910000Y-73791750I0J-193750D01*
G01*
X133910000Y-74179250D01*
G75*
G02*
X133716250Y-74373000I-193750J0D01*
G01*
G37*
G36*
G01*
X133716250Y-75948000D02*
X133253750Y-75948000D01*
G75*
G02*
X133060000Y-75754250I0J193750D01*
G01*
X133060000Y-75366750D01*
G75*
G02*
X133253750Y-75173000I193750J0D01*
G01*
X133716250Y-75173000D01*
G75*
G02*
X133910000Y-75366750I0J-193750D01*
G01*
X133910000Y-75754250D01*
G75*
G02*
X133716250Y-75948000I-193750J0D01*
G01*
G37*
G36*
G01*
X135240250Y-74373000D02*
X134777750Y-74373000D01*
G75*
G02*
X134584000Y-74179250I0J193750D01*
G01*
X134584000Y-73791750D01*
G75*
G02*
X134777750Y-73598000I193750J0D01*
G01*
X135240250Y-73598000D01*
G75*
G02*
X135434000Y-73791750I0J-193750D01*
G01*
X135434000Y-74179250D01*
G75*
G02*
X135240250Y-74373000I-193750J0D01*
G01*
G37*
G36*
G01*
X135240250Y-75948000D02*
X134777750Y-75948000D01*
G75*
G02*
X134584000Y-75754250I0J193750D01*
G01*
X134584000Y-75366750D01*
G75*
G02*
X134777750Y-75173000I193750J0D01*
G01*
X135240250Y-75173000D01*
G75*
G02*
X135434000Y-75366750I0J-193750D01*
G01*
X135434000Y-75754250D01*
G75*
G02*
X135240250Y-75948000I-193750J0D01*
G01*
G37*
G36*
G01*
X135001000Y-68981250D02*
X135001000Y-68118750D01*
G75*
G02*
X135219750Y-67900000I218750J0D01*
G01*
X135657250Y-67900000D01*
G75*
G02*
X135876000Y-68118750I0J-218750D01*
G01*
X135876000Y-68981250D01*
G75*
G02*
X135657250Y-69200000I-218750J0D01*
G01*
X135219750Y-69200000D01*
G75*
G02*
X135001000Y-68981250I0J218750D01*
G01*
G37*
G36*
G01*
X133126000Y-68981250D02*
X133126000Y-68118750D01*
G75*
G02*
X133344750Y-67900000I218750J0D01*
G01*
X133782250Y-67900000D01*
G75*
G02*
X134001000Y-68118750I0J-218750D01*
G01*
X134001000Y-68981250D01*
G75*
G02*
X133782250Y-69200000I-218750J0D01*
G01*
X133344750Y-69200000D01*
G75*
G02*
X133126000Y-68981250I0J218750D01*
G01*
G37*
G36*
G01*
X150820850Y-63084000D02*
X150358350Y-63084000D01*
G75*
G02*
X150164600Y-62890250I0J193750D01*
G01*
X150164600Y-62502750D01*
G75*
G02*
X150358350Y-62309000I193750J0D01*
G01*
X150820850Y-62309000D01*
G75*
G02*
X151014600Y-62502750I0J-193750D01*
G01*
X151014600Y-62890250D01*
G75*
G02*
X150820850Y-63084000I-193750J0D01*
G01*
G37*
G36*
G01*
X150820850Y-64659000D02*
X150358350Y-64659000D01*
G75*
G02*
X150164600Y-64465250I0J193750D01*
G01*
X150164600Y-64077750D01*
G75*
G02*
X150358350Y-63884000I193750J0D01*
G01*
X150820850Y-63884000D01*
G75*
G02*
X151014600Y-64077750I0J-193750D01*
G01*
X151014600Y-64465250D01*
G75*
G02*
X150820850Y-64659000I-193750J0D01*
G01*
G37*
G36*
G01*
X150846250Y-66372000D02*
X150383750Y-66372000D01*
G75*
G02*
X150190000Y-66178250I0J193750D01*
G01*
X150190000Y-65790750D01*
G75*
G02*
X150383750Y-65597000I193750J0D01*
G01*
X150846250Y-65597000D01*
G75*
G02*
X151040000Y-65790750I0J-193750D01*
G01*
X151040000Y-66178250D01*
G75*
G02*
X150846250Y-66372000I-193750J0D01*
G01*
G37*
G36*
G01*
X150846250Y-67947000D02*
X150383750Y-67947000D01*
G75*
G02*
X150190000Y-67753250I0J193750D01*
G01*
X150190000Y-67365750D01*
G75*
G02*
X150383750Y-67172000I193750J0D01*
G01*
X150846250Y-67172000D01*
G75*
G02*
X151040000Y-67365750I0J-193750D01*
G01*
X151040000Y-67753250D01*
G75*
G02*
X150846250Y-67947000I-193750J0D01*
G01*
G37*
G36*
G01*
X140256750Y-64830000D02*
X139794250Y-64830000D01*
G75*
G02*
X139600500Y-64636250I0J193750D01*
G01*
X139600500Y-64248750D01*
G75*
G02*
X139794250Y-64055000I193750J0D01*
G01*
X140256750Y-64055000D01*
G75*
G02*
X140450500Y-64248750I0J-193750D01*
G01*
X140450500Y-64636250D01*
G75*
G02*
X140256750Y-64830000I-193750J0D01*
G01*
G37*
G36*
G01*
X140256750Y-66405000D02*
X139794250Y-66405000D01*
G75*
G02*
X139600500Y-66211250I0J193750D01*
G01*
X139600500Y-65823750D01*
G75*
G02*
X139794250Y-65630000I193750J0D01*
G01*
X140256750Y-65630000D01*
G75*
G02*
X140450500Y-65823750I0J-193750D01*
G01*
X140450500Y-66211250D01*
G75*
G02*
X140256750Y-66405000I-193750J0D01*
G01*
G37*
G36*
G01*
X140365750Y-70601000D02*
X140828250Y-70601000D01*
G75*
G02*
X141022000Y-70794750I0J-193750D01*
G01*
X141022000Y-71182250D01*
G75*
G02*
X140828250Y-71376000I-193750J0D01*
G01*
X140365750Y-71376000D01*
G75*
G02*
X140172000Y-71182250I0J193750D01*
G01*
X140172000Y-70794750D01*
G75*
G02*
X140365750Y-70601000I193750J0D01*
G01*
G37*
G36*
G01*
X140365750Y-69026000D02*
X140828250Y-69026000D01*
G75*
G02*
X141022000Y-69219750I0J-193750D01*
G01*
X141022000Y-69607250D01*
G75*
G02*
X140828250Y-69801000I-193750J0D01*
G01*
X140365750Y-69801000D01*
G75*
G02*
X140172000Y-69607250I0J193750D01*
G01*
X140172000Y-69219750D01*
G75*
G02*
X140365750Y-69026000I193750J0D01*
G01*
G37*
G36*
G01*
X144380000Y-69668750D02*
X144380000Y-70131250D01*
G75*
G02*
X144186250Y-70325000I-193750J0D01*
G01*
X143798750Y-70325000D01*
G75*
G02*
X143605000Y-70131250I0J193750D01*
G01*
X143605000Y-69668750D01*
G75*
G02*
X143798750Y-69475000I193750J0D01*
G01*
X144186250Y-69475000D01*
G75*
G02*
X144380000Y-69668750I0J-193750D01*
G01*
G37*
G36*
G01*
X145955000Y-69668750D02*
X145955000Y-70131250D01*
G75*
G02*
X145761250Y-70325000I-193750J0D01*
G01*
X145373750Y-70325000D01*
G75*
G02*
X145180000Y-70131250I0J193750D01*
G01*
X145180000Y-69668750D01*
G75*
G02*
X145373750Y-69475000I193750J0D01*
G01*
X145761250Y-69475000D01*
G75*
G02*
X145955000Y-69668750I0J-193750D01*
G01*
G37*
G36*
G01*
X149087000Y-69461750D02*
X149087000Y-69924250D01*
G75*
G02*
X148893250Y-70118000I-193750J0D01*
G01*
X148505750Y-70118000D01*
G75*
G02*
X148312000Y-69924250I0J193750D01*
G01*
X148312000Y-69461750D01*
G75*
G02*
X148505750Y-69268000I193750J0D01*
G01*
X148893250Y-69268000D01*
G75*
G02*
X149087000Y-69461750I0J-193750D01*
G01*
G37*
G36*
G01*
X150662000Y-69461750D02*
X150662000Y-69924250D01*
G75*
G02*
X150468250Y-70118000I-193750J0D01*
G01*
X150080750Y-70118000D01*
G75*
G02*
X149887000Y-69924250I0J193750D01*
G01*
X149887000Y-69461750D01*
G75*
G02*
X150080750Y-69268000I193750J0D01*
G01*
X150468250Y-69268000D01*
G75*
G02*
X150662000Y-69461750I0J-193750D01*
G01*
G37*
G36*
G01*
X148775000Y-72255750D02*
X148775000Y-72718250D01*
G75*
G02*
X148581250Y-72912000I-193750J0D01*
G01*
X148193750Y-72912000D01*
G75*
G02*
X148000000Y-72718250I0J193750D01*
G01*
X148000000Y-72255750D01*
G75*
G02*
X148193750Y-72062000I193750J0D01*
G01*
X148581250Y-72062000D01*
G75*
G02*
X148775000Y-72255750I0J-193750D01*
G01*
G37*
G36*
G01*
X150350000Y-72255750D02*
X150350000Y-72718250D01*
G75*
G02*
X150156250Y-72912000I-193750J0D01*
G01*
X149768750Y-72912000D01*
G75*
G02*
X149575000Y-72718250I0J193750D01*
G01*
X149575000Y-72255750D01*
G75*
G02*
X149768750Y-72062000I193750J0D01*
G01*
X150156250Y-72062000D01*
G75*
G02*
X150350000Y-72255750I0J-193750D01*
G01*
G37*
G36*
G01*
X155930000Y-72255750D02*
X155930000Y-72718250D01*
G75*
G02*
X155736250Y-72912000I-193750J0D01*
G01*
X155348750Y-72912000D01*
G75*
G02*
X155155000Y-72718250I0J193750D01*
G01*
X155155000Y-72255750D01*
G75*
G02*
X155348750Y-72062000I193750J0D01*
G01*
X155736250Y-72062000D01*
G75*
G02*
X155930000Y-72255750I0J-193750D01*
G01*
G37*
G36*
G01*
X157505000Y-72255750D02*
X157505000Y-72718250D01*
G75*
G02*
X157311250Y-72912000I-193750J0D01*
G01*
X156923750Y-72912000D01*
G75*
G02*
X156730000Y-72718250I0J193750D01*
G01*
X156730000Y-72255750D01*
G75*
G02*
X156923750Y-72062000I193750J0D01*
G01*
X157311250Y-72062000D01*
G75*
G02*
X157505000Y-72255750I0J-193750D01*
G01*
G37*
G36*
G01*
X149734000Y-74450750D02*
X149734000Y-75313250D01*
G75*
G02*
X149515250Y-75532000I-218750J0D01*
G01*
X149077750Y-75532000D01*
G75*
G02*
X148859000Y-75313250I0J218750D01*
G01*
X148859000Y-74450750D01*
G75*
G02*
X149077750Y-74232000I218750J0D01*
G01*
X149515250Y-74232000D01*
G75*
G02*
X149734000Y-74450750I0J-218750D01*
G01*
G37*
G36*
G01*
X151609000Y-74450750D02*
X151609000Y-75313250D01*
G75*
G02*
X151390250Y-75532000I-218750J0D01*
G01*
X150952750Y-75532000D01*
G75*
G02*
X150734000Y-75313250I0J218750D01*
G01*
X150734000Y-74450750D01*
G75*
G02*
X150952750Y-74232000I218750J0D01*
G01*
X151390250Y-74232000D01*
G75*
G02*
X151609000Y-74450750I0J-218750D01*
G01*
G37*
G36*
G01*
X161206250Y-78065000D02*
X160343750Y-78065000D01*
G75*
G02*
X160125000Y-77846250I0J218750D01*
G01*
X160125000Y-77408750D01*
G75*
G02*
X160343750Y-77190000I218750J0D01*
G01*
X161206250Y-77190000D01*
G75*
G02*
X161425000Y-77408750I0J-218750D01*
G01*
X161425000Y-77846250D01*
G75*
G02*
X161206250Y-78065000I-218750J0D01*
G01*
G37*
G36*
G01*
X161206250Y-79940000D02*
X160343750Y-79940000D01*
G75*
G02*
X160125000Y-79721250I0J218750D01*
G01*
X160125000Y-79283750D01*
G75*
G02*
X160343750Y-79065000I218750J0D01*
G01*
X161206250Y-79065000D01*
G75*
G02*
X161425000Y-79283750I0J-218750D01*
G01*
X161425000Y-79721250D01*
G75*
G02*
X161206250Y-79940000I-218750J0D01*
G01*
G37*
G36*
G01*
X157100000Y-81988750D02*
X157100000Y-82451250D01*
G75*
G02*
X156906250Y-82645000I-193750J0D01*
G01*
X156518750Y-82645000D01*
G75*
G02*
X156325000Y-82451250I0J193750D01*
G01*
X156325000Y-81988750D01*
G75*
G02*
X156518750Y-81795000I193750J0D01*
G01*
X156906250Y-81795000D01*
G75*
G02*
X157100000Y-81988750I0J-193750D01*
G01*
G37*
G36*
G01*
X158675000Y-81988750D02*
X158675000Y-82451250D01*
G75*
G02*
X158481250Y-82645000I-193750J0D01*
G01*
X158093750Y-82645000D01*
G75*
G02*
X157900000Y-82451250I0J193750D01*
G01*
X157900000Y-81988750D01*
G75*
G02*
X158093750Y-81795000I193750J0D01*
G01*
X158481250Y-81795000D01*
G75*
G02*
X158675000Y-81988750I0J-193750D01*
G01*
G37*
G36*
G01*
X164700000Y-82451250D02*
X164700000Y-81988750D01*
G75*
G02*
X164893750Y-81795000I193750J0D01*
G01*
X165281250Y-81795000D01*
G75*
G02*
X165475000Y-81988750I0J-193750D01*
G01*
X165475000Y-82451250D01*
G75*
G02*
X165281250Y-82645000I-193750J0D01*
G01*
X164893750Y-82645000D01*
G75*
G02*
X164700000Y-82451250I0J193750D01*
G01*
G37*
G36*
G01*
X163125000Y-82451250D02*
X163125000Y-81988750D01*
G75*
G02*
X163318750Y-81795000I193750J0D01*
G01*
X163706250Y-81795000D01*
G75*
G02*
X163900000Y-81988750I0J-193750D01*
G01*
X163900000Y-82451250D01*
G75*
G02*
X163706250Y-82645000I-193750J0D01*
G01*
X163318750Y-82645000D01*
G75*
G02*
X163125000Y-82451250I0J193750D01*
G01*
G37*
G36*
G01*
X143230000Y-98018750D02*
X143230000Y-98481250D01*
G75*
G02*
X143036250Y-98675000I-193750J0D01*
G01*
X142648750Y-98675000D01*
G75*
G02*
X142455000Y-98481250I0J193750D01*
G01*
X142455000Y-98018750D01*
G75*
G02*
X142648750Y-97825000I193750J0D01*
G01*
X143036250Y-97825000D01*
G75*
G02*
X143230000Y-98018750I0J-193750D01*
G01*
G37*
G36*
G01*
X144805000Y-98018750D02*
X144805000Y-98481250D01*
G75*
G02*
X144611250Y-98675000I-193750J0D01*
G01*
X144223750Y-98675000D01*
G75*
G02*
X144030000Y-98481250I0J193750D01*
G01*
X144030000Y-98018750D01*
G75*
G02*
X144223750Y-97825000I193750J0D01*
G01*
X144611250Y-97825000D01*
G75*
G02*
X144805000Y-98018750I0J-193750D01*
G01*
G37*
G36*
G01*
X146797000Y-104015250D02*
X146797000Y-103152750D01*
G75*
G02*
X147015750Y-102934000I218750J0D01*
G01*
X147453250Y-102934000D01*
G75*
G02*
X147672000Y-103152750I0J-218750D01*
G01*
X147672000Y-104015250D01*
G75*
G02*
X147453250Y-104234000I-218750J0D01*
G01*
X147015750Y-104234000D01*
G75*
G02*
X146797000Y-104015250I0J218750D01*
G01*
G37*
G36*
G01*
X144922000Y-104015250D02*
X144922000Y-103152750D01*
G75*
G02*
X145140750Y-102934000I218750J0D01*
G01*
X145578250Y-102934000D01*
G75*
G02*
X145797000Y-103152750I0J-218750D01*
G01*
X145797000Y-104015250D01*
G75*
G02*
X145578250Y-104234000I-218750J0D01*
G01*
X145140750Y-104234000D01*
G75*
G02*
X144922000Y-104015250I0J218750D01*
G01*
G37*
G36*
G01*
X151739000Y-102844750D02*
X151739000Y-103307250D01*
G75*
G02*
X151545250Y-103501000I-193750J0D01*
G01*
X151157750Y-103501000D01*
G75*
G02*
X150964000Y-103307250I0J193750D01*
G01*
X150964000Y-102844750D01*
G75*
G02*
X151157750Y-102651000I193750J0D01*
G01*
X151545250Y-102651000D01*
G75*
G02*
X151739000Y-102844750I0J-193750D01*
G01*
G37*
G36*
G01*
X153314000Y-102844750D02*
X153314000Y-103307250D01*
G75*
G02*
X153120250Y-103501000I-193750J0D01*
G01*
X152732750Y-103501000D01*
G75*
G02*
X152539000Y-103307250I0J193750D01*
G01*
X152539000Y-102844750D01*
G75*
G02*
X152732750Y-102651000I193750J0D01*
G01*
X153120250Y-102651000D01*
G75*
G02*
X153314000Y-102844750I0J-193750D01*
G01*
G37*
G36*
G01*
X155814000Y-98935250D02*
X155814000Y-98072750D01*
G75*
G02*
X156032750Y-97854000I218750J0D01*
G01*
X156470250Y-97854000D01*
G75*
G02*
X156689000Y-98072750I0J-218750D01*
G01*
X156689000Y-98935250D01*
G75*
G02*
X156470250Y-99154000I-218750J0D01*
G01*
X156032750Y-99154000D01*
G75*
G02*
X155814000Y-98935250I0J218750D01*
G01*
G37*
G36*
G01*
X153939000Y-98935250D02*
X153939000Y-98072750D01*
G75*
G02*
X154157750Y-97854000I218750J0D01*
G01*
X154595250Y-97854000D01*
G75*
G02*
X154814000Y-98072750I0J-218750D01*
G01*
X154814000Y-98935250D01*
G75*
G02*
X154595250Y-99154000I-218750J0D01*
G01*
X154157750Y-99154000D01*
G75*
G02*
X153939000Y-98935250I0J218750D01*
G01*
G37*
G36*
G01*
X155260000Y-97141250D02*
X155260000Y-96678750D01*
G75*
G02*
X155453750Y-96485000I193750J0D01*
G01*
X155841250Y-96485000D01*
G75*
G02*
X156035000Y-96678750I0J-193750D01*
G01*
X156035000Y-97141250D01*
G75*
G02*
X155841250Y-97335000I-193750J0D01*
G01*
X155453750Y-97335000D01*
G75*
G02*
X155260000Y-97141250I0J193750D01*
G01*
G37*
G36*
G01*
X153685000Y-97141250D02*
X153685000Y-96678750D01*
G75*
G02*
X153878750Y-96485000I193750J0D01*
G01*
X154266250Y-96485000D01*
G75*
G02*
X154460000Y-96678750I0J-193750D01*
G01*
X154460000Y-97141250D01*
G75*
G02*
X154266250Y-97335000I-193750J0D01*
G01*
X153878750Y-97335000D01*
G75*
G02*
X153685000Y-97141250I0J193750D01*
G01*
G37*
G36*
G01*
X155260000Y-95871250D02*
X155260000Y-95408750D01*
G75*
G02*
X155453750Y-95215000I193750J0D01*
G01*
X155841250Y-95215000D01*
G75*
G02*
X156035000Y-95408750I0J-193750D01*
G01*
X156035000Y-95871250D01*
G75*
G02*
X155841250Y-96065000I-193750J0D01*
G01*
X155453750Y-96065000D01*
G75*
G02*
X155260000Y-95871250I0J193750D01*
G01*
G37*
G36*
G01*
X153685000Y-95871250D02*
X153685000Y-95408750D01*
G75*
G02*
X153878750Y-95215000I193750J0D01*
G01*
X154266250Y-95215000D01*
G75*
G02*
X154460000Y-95408750I0J-193750D01*
G01*
X154460000Y-95871250D01*
G75*
G02*
X154266250Y-96065000I-193750J0D01*
G01*
X153878750Y-96065000D01*
G75*
G02*
X153685000Y-95871250I0J193750D01*
G01*
G37*
G36*
G01*
X155560000Y-91061250D02*
X155560000Y-90198750D01*
G75*
G02*
X155778750Y-89980000I218750J0D01*
G01*
X156216250Y-89980000D01*
G75*
G02*
X156435000Y-90198750I0J-218750D01*
G01*
X156435000Y-91061250D01*
G75*
G02*
X156216250Y-91280000I-218750J0D01*
G01*
X155778750Y-91280000D01*
G75*
G02*
X155560000Y-91061250I0J218750D01*
G01*
G37*
G36*
G01*
X153685000Y-91061250D02*
X153685000Y-90198750D01*
G75*
G02*
X153903750Y-89980000I218750J0D01*
G01*
X154341250Y-89980000D01*
G75*
G02*
X154560000Y-90198750I0J-218750D01*
G01*
X154560000Y-91061250D01*
G75*
G02*
X154341250Y-91280000I-218750J0D01*
G01*
X153903750Y-91280000D01*
G75*
G02*
X153685000Y-91061250I0J218750D01*
G01*
G37*
G36*
G01*
X155560000Y-92966250D02*
X155560000Y-92103750D01*
G75*
G02*
X155778750Y-91885000I218750J0D01*
G01*
X156216250Y-91885000D01*
G75*
G02*
X156435000Y-92103750I0J-218750D01*
G01*
X156435000Y-92966250D01*
G75*
G02*
X156216250Y-93185000I-218750J0D01*
G01*
X155778750Y-93185000D01*
G75*
G02*
X155560000Y-92966250I0J218750D01*
G01*
G37*
G36*
G01*
X153685000Y-92966250D02*
X153685000Y-92103750D01*
G75*
G02*
X153903750Y-91885000I218750J0D01*
G01*
X154341250Y-91885000D01*
G75*
G02*
X154560000Y-92103750I0J-218750D01*
G01*
X154560000Y-92966250D01*
G75*
G02*
X154341250Y-93185000I-218750J0D01*
G01*
X153903750Y-93185000D01*
G75*
G02*
X153685000Y-92966250I0J218750D01*
G01*
G37*
G36*
G01*
X158003750Y-92300000D02*
X158466250Y-92300000D01*
G75*
G02*
X158660000Y-92493750I0J-193750D01*
G01*
X158660000Y-92881250D01*
G75*
G02*
X158466250Y-93075000I-193750J0D01*
G01*
X158003750Y-93075000D01*
G75*
G02*
X157810000Y-92881250I0J193750D01*
G01*
X157810000Y-92493750D01*
G75*
G02*
X158003750Y-92300000I193750J0D01*
G01*
G37*
G36*
G01*
X158003750Y-90725000D02*
X158466250Y-90725000D01*
G75*
G02*
X158660000Y-90918750I0J-193750D01*
G01*
X158660000Y-91306250D01*
G75*
G02*
X158466250Y-91500000I-193750J0D01*
G01*
X158003750Y-91500000D01*
G75*
G02*
X157810000Y-91306250I0J193750D01*
G01*
X157810000Y-90918750D01*
G75*
G02*
X158003750Y-90725000I193750J0D01*
G01*
G37*
G36*
G01*
X159120000Y-96258750D02*
X159120000Y-96721250D01*
G75*
G02*
X158926250Y-96915000I-193750J0D01*
G01*
X158538750Y-96915000D01*
G75*
G02*
X158345000Y-96721250I0J193750D01*
G01*
X158345000Y-96258750D01*
G75*
G02*
X158538750Y-96065000I193750J0D01*
G01*
X158926250Y-96065000D01*
G75*
G02*
X159120000Y-96258750I0J-193750D01*
G01*
G37*
G36*
G01*
X160695000Y-96258750D02*
X160695000Y-96721250D01*
G75*
G02*
X160501250Y-96915000I-193750J0D01*
G01*
X160113750Y-96915000D01*
G75*
G02*
X159920000Y-96721250I0J193750D01*
G01*
X159920000Y-96258750D01*
G75*
G02*
X160113750Y-96065000I193750J0D01*
G01*
X160501250Y-96065000D01*
G75*
G02*
X160695000Y-96258750I0J-193750D01*
G01*
G37*
G36*
G01*
X162915000Y-96113750D02*
X162915000Y-96576250D01*
G75*
G02*
X162721250Y-96770000I-193750J0D01*
G01*
X162333750Y-96770000D01*
G75*
G02*
X162140000Y-96576250I0J193750D01*
G01*
X162140000Y-96113750D01*
G75*
G02*
X162333750Y-95920000I193750J0D01*
G01*
X162721250Y-95920000D01*
G75*
G02*
X162915000Y-96113750I0J-193750D01*
G01*
G37*
G36*
G01*
X164490000Y-96113750D02*
X164490000Y-96576250D01*
G75*
G02*
X164296250Y-96770000I-193750J0D01*
G01*
X163908750Y-96770000D01*
G75*
G02*
X163715000Y-96576250I0J193750D01*
G01*
X163715000Y-96113750D01*
G75*
G02*
X163908750Y-95920000I193750J0D01*
G01*
X164296250Y-95920000D01*
G75*
G02*
X164490000Y-96113750I0J-193750D01*
G01*
G37*
G36*
G01*
X163746250Y-91400000D02*
X162883750Y-91400000D01*
G75*
G02*
X162665000Y-91181250I0J218750D01*
G01*
X162665000Y-90743750D01*
G75*
G02*
X162883750Y-90525000I218750J0D01*
G01*
X163746250Y-90525000D01*
G75*
G02*
X163965000Y-90743750I0J-218750D01*
G01*
X163965000Y-91181250D01*
G75*
G02*
X163746250Y-91400000I-218750J0D01*
G01*
G37*
G36*
G01*
X163746250Y-93275000D02*
X162883750Y-93275000D01*
G75*
G02*
X162665000Y-93056250I0J218750D01*
G01*
X162665000Y-92618750D01*
G75*
G02*
X162883750Y-92400000I218750J0D01*
G01*
X163746250Y-92400000D01*
G75*
G02*
X163965000Y-92618750I0J-218750D01*
G01*
X163965000Y-93056250D01*
G75*
G02*
X163746250Y-93275000I-218750J0D01*
G01*
G37*
G36*
G01*
X168725750Y-93416000D02*
X169588250Y-93416000D01*
G75*
G02*
X169807000Y-93634750I0J-218750D01*
G01*
X169807000Y-94072250D01*
G75*
G02*
X169588250Y-94291000I-218750J0D01*
G01*
X168725750Y-94291000D01*
G75*
G02*
X168507000Y-94072250I0J218750D01*
G01*
X168507000Y-93634750D01*
G75*
G02*
X168725750Y-93416000I218750J0D01*
G01*
G37*
G36*
G01*
X168725750Y-91541000D02*
X169588250Y-91541000D01*
G75*
G02*
X169807000Y-91759750I0J-218750D01*
G01*
X169807000Y-92197250D01*
G75*
G02*
X169588250Y-92416000I-218750J0D01*
G01*
X168725750Y-92416000D01*
G75*
G02*
X168507000Y-92197250I0J218750D01*
G01*
X168507000Y-91759750D01*
G75*
G02*
X168725750Y-91541000I218750J0D01*
G01*
G37*
G36*
G01*
X169603250Y-95736000D02*
X168740750Y-95736000D01*
G75*
G02*
X168522000Y-95517250I0J218750D01*
G01*
X168522000Y-95079750D01*
G75*
G02*
X168740750Y-94861000I218750J0D01*
G01*
X169603250Y-94861000D01*
G75*
G02*
X169822000Y-95079750I0J-218750D01*
G01*
X169822000Y-95517250D01*
G75*
G02*
X169603250Y-95736000I-218750J0D01*
G01*
G37*
G36*
G01*
X169603250Y-97611000D02*
X168740750Y-97611000D01*
G75*
G02*
X168522000Y-97392250I0J218750D01*
G01*
X168522000Y-96954750D01*
G75*
G02*
X168740750Y-96736000I218750J0D01*
G01*
X169603250Y-96736000D01*
G75*
G02*
X169822000Y-96954750I0J-218750D01*
G01*
X169822000Y-97392250D01*
G75*
G02*
X169603250Y-97611000I-218750J0D01*
G01*
G37*
G36*
G01*
X175884000Y-103479750D02*
X175884000Y-103942250D01*
G75*
G02*
X175690250Y-104136000I-193750J0D01*
G01*
X175302750Y-104136000D01*
G75*
G02*
X175109000Y-103942250I0J193750D01*
G01*
X175109000Y-103479750D01*
G75*
G02*
X175302750Y-103286000I193750J0D01*
G01*
X175690250Y-103286000D01*
G75*
G02*
X175884000Y-103479750I0J-193750D01*
G01*
G37*
G36*
G01*
X177459000Y-103479750D02*
X177459000Y-103942250D01*
G75*
G02*
X177265250Y-104136000I-193750J0D01*
G01*
X176877750Y-104136000D01*
G75*
G02*
X176684000Y-103942250I0J193750D01*
G01*
X176684000Y-103479750D01*
G75*
G02*
X176877750Y-103286000I193750J0D01*
G01*
X177265250Y-103286000D01*
G75*
G02*
X177459000Y-103479750I0J-193750D01*
G01*
G37*
G36*
G01*
X179198000Y-103479750D02*
X179198000Y-103942250D01*
G75*
G02*
X179004250Y-104136000I-193750J0D01*
G01*
X178616750Y-104136000D01*
G75*
G02*
X178423000Y-103942250I0J193750D01*
G01*
X178423000Y-103479750D01*
G75*
G02*
X178616750Y-103286000I193750J0D01*
G01*
X179004250Y-103286000D01*
G75*
G02*
X179198000Y-103479750I0J-193750D01*
G01*
G37*
G36*
G01*
X180773000Y-103479750D02*
X180773000Y-103942250D01*
G75*
G02*
X180579250Y-104136000I-193750J0D01*
G01*
X180191750Y-104136000D01*
G75*
G02*
X179998000Y-103942250I0J193750D01*
G01*
X179998000Y-103479750D01*
G75*
G02*
X180191750Y-103286000I193750J0D01*
G01*
X180579250Y-103286000D01*
G75*
G02*
X180773000Y-103479750I0J-193750D01*
G01*
G37*
G36*
G01*
X177068750Y-95300000D02*
X177531250Y-95300000D01*
G75*
G02*
X177725000Y-95493750I0J-193750D01*
G01*
X177725000Y-95881250D01*
G75*
G02*
X177531250Y-96075000I-193750J0D01*
G01*
X177068750Y-96075000D01*
G75*
G02*
X176875000Y-95881250I0J193750D01*
G01*
X176875000Y-95493750D01*
G75*
G02*
X177068750Y-95300000I193750J0D01*
G01*
G37*
G36*
G01*
X177068750Y-93725000D02*
X177531250Y-93725000D01*
G75*
G02*
X177725000Y-93918750I0J-193750D01*
G01*
X177725000Y-94306250D01*
G75*
G02*
X177531250Y-94500000I-193750J0D01*
G01*
X177068750Y-94500000D01*
G75*
G02*
X176875000Y-94306250I0J193750D01*
G01*
X176875000Y-93918750D01*
G75*
G02*
X177068750Y-93725000I193750J0D01*
G01*
G37*
G36*
G01*
X178846750Y-95874000D02*
X179309250Y-95874000D01*
G75*
G02*
X179503000Y-96067750I0J-193750D01*
G01*
X179503000Y-96455250D01*
G75*
G02*
X179309250Y-96649000I-193750J0D01*
G01*
X178846750Y-96649000D01*
G75*
G02*
X178653000Y-96455250I0J193750D01*
G01*
X178653000Y-96067750D01*
G75*
G02*
X178846750Y-95874000I193750J0D01*
G01*
G37*
G36*
G01*
X178846750Y-94299000D02*
X179309250Y-94299000D01*
G75*
G02*
X179503000Y-94492750I0J-193750D01*
G01*
X179503000Y-94880250D01*
G75*
G02*
X179309250Y-95074000I-193750J0D01*
G01*
X178846750Y-95074000D01*
G75*
G02*
X178653000Y-94880250I0J193750D01*
G01*
X178653000Y-94492750D01*
G75*
G02*
X178846750Y-94299000I193750J0D01*
G01*
G37*
G36*
G01*
X177531250Y-91518000D02*
X177068750Y-91518000D01*
G75*
G02*
X176875000Y-91324250I0J193750D01*
G01*
X176875000Y-90936750D01*
G75*
G02*
X177068750Y-90743000I193750J0D01*
G01*
X177531250Y-90743000D01*
G75*
G02*
X177725000Y-90936750I0J-193750D01*
G01*
X177725000Y-91324250D01*
G75*
G02*
X177531250Y-91518000I-193750J0D01*
G01*
G37*
G36*
G01*
X177531250Y-93093000D02*
X177068750Y-93093000D01*
G75*
G02*
X176875000Y-92899250I0J193750D01*
G01*
X176875000Y-92511750D01*
G75*
G02*
X177068750Y-92318000I193750J0D01*
G01*
X177531250Y-92318000D01*
G75*
G02*
X177725000Y-92511750I0J-193750D01*
G01*
X177725000Y-92899250D01*
G75*
G02*
X177531250Y-93093000I-193750J0D01*
G01*
G37*
G36*
G01*
X178646750Y-92418000D02*
X179509250Y-92418000D01*
G75*
G02*
X179728000Y-92636750I0J-218750D01*
G01*
X179728000Y-93074250D01*
G75*
G02*
X179509250Y-93293000I-218750J0D01*
G01*
X178646750Y-93293000D01*
G75*
G02*
X178428000Y-93074250I0J218750D01*
G01*
X178428000Y-92636750D01*
G75*
G02*
X178646750Y-92418000I218750J0D01*
G01*
G37*
G36*
G01*
X178646750Y-90543000D02*
X179509250Y-90543000D01*
G75*
G02*
X179728000Y-90761750I0J-218750D01*
G01*
X179728000Y-91199250D01*
G75*
G02*
X179509250Y-91418000I-218750J0D01*
G01*
X178646750Y-91418000D01*
G75*
G02*
X178428000Y-91199250I0J218750D01*
G01*
X178428000Y-90761750D01*
G75*
G02*
X178646750Y-90543000I218750J0D01*
G01*
G37*
G36*
G01*
X179294250Y-87581000D02*
X178831750Y-87581000D01*
G75*
G02*
X178638000Y-87387250I0J193750D01*
G01*
X178638000Y-86999750D01*
G75*
G02*
X178831750Y-86806000I193750J0D01*
G01*
X179294250Y-86806000D01*
G75*
G02*
X179488000Y-86999750I0J-193750D01*
G01*
X179488000Y-87387250D01*
G75*
G02*
X179294250Y-87581000I-193750J0D01*
G01*
G37*
G36*
G01*
X179294250Y-89156000D02*
X178831750Y-89156000D01*
G75*
G02*
X178638000Y-88962250I0J193750D01*
G01*
X178638000Y-88574750D01*
G75*
G02*
X178831750Y-88381000I193750J0D01*
G01*
X179294250Y-88381000D01*
G75*
G02*
X179488000Y-88574750I0J-193750D01*
G01*
X179488000Y-88962250D01*
G75*
G02*
X179294250Y-89156000I-193750J0D01*
G01*
G37*
G36*
G01*
X174879000Y-87904250D02*
X174879000Y-87041750D01*
G75*
G02*
X175097750Y-86823000I218750J0D01*
G01*
X175535250Y-86823000D01*
G75*
G02*
X175754000Y-87041750I0J-218750D01*
G01*
X175754000Y-87904250D01*
G75*
G02*
X175535250Y-88123000I-218750J0D01*
G01*
X175097750Y-88123000D01*
G75*
G02*
X174879000Y-87904250I0J218750D01*
G01*
G37*
G36*
G01*
X173004000Y-87904250D02*
X173004000Y-87041750D01*
G75*
G02*
X173222750Y-86823000I218750J0D01*
G01*
X173660250Y-86823000D01*
G75*
G02*
X173879000Y-87041750I0J-218750D01*
G01*
X173879000Y-87904250D01*
G75*
G02*
X173660250Y-88123000I-218750J0D01*
G01*
X173222750Y-88123000D01*
G75*
G02*
X173004000Y-87904250I0J218750D01*
G01*
G37*
G36*
G01*
X173652250Y-84288000D02*
X172789750Y-84288000D01*
G75*
G02*
X172571000Y-84069250I0J218750D01*
G01*
X172571000Y-83631750D01*
G75*
G02*
X172789750Y-83413000I218750J0D01*
G01*
X173652250Y-83413000D01*
G75*
G02*
X173871000Y-83631750I0J-218750D01*
G01*
X173871000Y-84069250D01*
G75*
G02*
X173652250Y-84288000I-218750J0D01*
G01*
G37*
G36*
G01*
X173652250Y-86163000D02*
X172789750Y-86163000D01*
G75*
G02*
X172571000Y-85944250I0J218750D01*
G01*
X172571000Y-85506750D01*
G75*
G02*
X172789750Y-85288000I218750J0D01*
G01*
X173652250Y-85288000D01*
G75*
G02*
X173871000Y-85506750I0J-218750D01*
G01*
X173871000Y-85944250D01*
G75*
G02*
X173652250Y-86163000I-218750J0D01*
G01*
G37*
G36*
G01*
X178323750Y-85315000D02*
X178786250Y-85315000D01*
G75*
G02*
X178980000Y-85508750I0J-193750D01*
G01*
X178980000Y-85896250D01*
G75*
G02*
X178786250Y-86090000I-193750J0D01*
G01*
X178323750Y-86090000D01*
G75*
G02*
X178130000Y-85896250I0J193750D01*
G01*
X178130000Y-85508750D01*
G75*
G02*
X178323750Y-85315000I193750J0D01*
G01*
G37*
G36*
G01*
X178323750Y-83740000D02*
X178786250Y-83740000D01*
G75*
G02*
X178980000Y-83933750I0J-193750D01*
G01*
X178980000Y-84321250D01*
G75*
G02*
X178786250Y-84515000I-193750J0D01*
G01*
X178323750Y-84515000D01*
G75*
G02*
X178130000Y-84321250I0J193750D01*
G01*
X178130000Y-83933750D01*
G75*
G02*
X178323750Y-83740000I193750J0D01*
G01*
G37*
G36*
G01*
X171166250Y-79435000D02*
X170703750Y-79435000D01*
G75*
G02*
X170510000Y-79241250I0J193750D01*
G01*
X170510000Y-78853750D01*
G75*
G02*
X170703750Y-78660000I193750J0D01*
G01*
X171166250Y-78660000D01*
G75*
G02*
X171360000Y-78853750I0J-193750D01*
G01*
X171360000Y-79241250D01*
G75*
G02*
X171166250Y-79435000I-193750J0D01*
G01*
G37*
G36*
G01*
X171166250Y-81010000D02*
X170703750Y-81010000D01*
G75*
G02*
X170510000Y-80816250I0J193750D01*
G01*
X170510000Y-80428750D01*
G75*
G02*
X170703750Y-80235000I193750J0D01*
G01*
X171166250Y-80235000D01*
G75*
G02*
X171360000Y-80428750I0J-193750D01*
G01*
X171360000Y-80816250D01*
G75*
G02*
X171166250Y-81010000I-193750J0D01*
G01*
G37*
G36*
G01*
X173071250Y-79435000D02*
X172608750Y-79435000D01*
G75*
G02*
X172415000Y-79241250I0J193750D01*
G01*
X172415000Y-78853750D01*
G75*
G02*
X172608750Y-78660000I193750J0D01*
G01*
X173071250Y-78660000D01*
G75*
G02*
X173265000Y-78853750I0J-193750D01*
G01*
X173265000Y-79241250D01*
G75*
G02*
X173071250Y-79435000I-193750J0D01*
G01*
G37*
G36*
G01*
X173071250Y-81010000D02*
X172608750Y-81010000D01*
G75*
G02*
X172415000Y-80816250I0J193750D01*
G01*
X172415000Y-80428750D01*
G75*
G02*
X172608750Y-80235000I193750J0D01*
G01*
X173071250Y-80235000D01*
G75*
G02*
X173265000Y-80428750I0J-193750D01*
G01*
X173265000Y-80816250D01*
G75*
G02*
X173071250Y-81010000I-193750J0D01*
G01*
G37*
G36*
G01*
X175615000Y-80238750D02*
X175615000Y-80701250D01*
G75*
G02*
X175421250Y-80895000I-193750J0D01*
G01*
X175033750Y-80895000D01*
G75*
G02*
X174840000Y-80701250I0J193750D01*
G01*
X174840000Y-80238750D01*
G75*
G02*
X175033750Y-80045000I193750J0D01*
G01*
X175421250Y-80045000D01*
G75*
G02*
X175615000Y-80238750I0J-193750D01*
G01*
G37*
G36*
G01*
X177190000Y-80238750D02*
X177190000Y-80701250D01*
G75*
G02*
X176996250Y-80895000I-193750J0D01*
G01*
X176608750Y-80895000D01*
G75*
G02*
X176415000Y-80701250I0J193750D01*
G01*
X176415000Y-80238750D01*
G75*
G02*
X176608750Y-80045000I193750J0D01*
G01*
X176996250Y-80045000D01*
G75*
G02*
X177190000Y-80238750I0J-193750D01*
G01*
G37*
G36*
G01*
X175615000Y-78333750D02*
X175615000Y-78796250D01*
G75*
G02*
X175421250Y-78990000I-193750J0D01*
G01*
X175033750Y-78990000D01*
G75*
G02*
X174840000Y-78796250I0J193750D01*
G01*
X174840000Y-78333750D01*
G75*
G02*
X175033750Y-78140000I193750J0D01*
G01*
X175421250Y-78140000D01*
G75*
G02*
X175615000Y-78333750I0J-193750D01*
G01*
G37*
G36*
G01*
X177190000Y-78333750D02*
X177190000Y-78796250D01*
G75*
G02*
X176996250Y-78990000I-193750J0D01*
G01*
X176608750Y-78990000D01*
G75*
G02*
X176415000Y-78796250I0J193750D01*
G01*
X176415000Y-78333750D01*
G75*
G02*
X176608750Y-78140000I193750J0D01*
G01*
X176996250Y-78140000D01*
G75*
G02*
X177190000Y-78333750I0J-193750D01*
G01*
G37*
G36*
G01*
X179621250Y-79335000D02*
X178758750Y-79335000D01*
G75*
G02*
X178540000Y-79116250I0J218750D01*
G01*
X178540000Y-78678750D01*
G75*
G02*
X178758750Y-78460000I218750J0D01*
G01*
X179621250Y-78460000D01*
G75*
G02*
X179840000Y-78678750I0J-218750D01*
G01*
X179840000Y-79116250D01*
G75*
G02*
X179621250Y-79335000I-218750J0D01*
G01*
G37*
G36*
G01*
X179621250Y-81210000D02*
X178758750Y-81210000D01*
G75*
G02*
X178540000Y-80991250I0J218750D01*
G01*
X178540000Y-80553750D01*
G75*
G02*
X178758750Y-80335000I218750J0D01*
G01*
X179621250Y-80335000D01*
G75*
G02*
X179840000Y-80553750I0J-218750D01*
G01*
X179840000Y-80991250D01*
G75*
G02*
X179621250Y-81210000I-218750J0D01*
G01*
G37*
D17*
X169935000Y-76025000D03*
X171935000Y-76975000D03*
X171935000Y-75075000D03*
G36*
G01*
X173878750Y-76425000D02*
X174341250Y-76425000D01*
G75*
G02*
X174535000Y-76618750I0J-193750D01*
G01*
X174535000Y-77006250D01*
G75*
G02*
X174341250Y-77200000I-193750J0D01*
G01*
X173878750Y-77200000D01*
G75*
G02*
X173685000Y-77006250I0J193750D01*
G01*
X173685000Y-76618750D01*
G75*
G02*
X173878750Y-76425000I193750J0D01*
G01*
G37*
G36*
G01*
X173878750Y-74850000D02*
X174341250Y-74850000D01*
G75*
G02*
X174535000Y-75043750I0J-193750D01*
G01*
X174535000Y-75431250D01*
G75*
G02*
X174341250Y-75625000I-193750J0D01*
G01*
X173878750Y-75625000D01*
G75*
G02*
X173685000Y-75431250I0J193750D01*
G01*
X173685000Y-75043750D01*
G75*
G02*
X173878750Y-74850000I193750J0D01*
G01*
G37*
G36*
G01*
X175148750Y-76425000D02*
X175611250Y-76425000D01*
G75*
G02*
X175805000Y-76618750I0J-193750D01*
G01*
X175805000Y-77006250D01*
G75*
G02*
X175611250Y-77200000I-193750J0D01*
G01*
X175148750Y-77200000D01*
G75*
G02*
X174955000Y-77006250I0J193750D01*
G01*
X174955000Y-76618750D01*
G75*
G02*
X175148750Y-76425000I193750J0D01*
G01*
G37*
G36*
G01*
X175148750Y-74850000D02*
X175611250Y-74850000D01*
G75*
G02*
X175805000Y-75043750I0J-193750D01*
G01*
X175805000Y-75431250D01*
G75*
G02*
X175611250Y-75625000I-193750J0D01*
G01*
X175148750Y-75625000D01*
G75*
G02*
X174955000Y-75431250I0J193750D01*
G01*
X174955000Y-75043750D01*
G75*
G02*
X175148750Y-74850000I193750J0D01*
G01*
G37*
G36*
G01*
X174398000Y-70432250D02*
X174398000Y-69969750D01*
G75*
G02*
X174591750Y-69776000I193750J0D01*
G01*
X174979250Y-69776000D01*
G75*
G02*
X175173000Y-69969750I0J-193750D01*
G01*
X175173000Y-70432250D01*
G75*
G02*
X174979250Y-70626000I-193750J0D01*
G01*
X174591750Y-70626000D01*
G75*
G02*
X174398000Y-70432250I0J193750D01*
G01*
G37*
G36*
G01*
X172823000Y-70432250D02*
X172823000Y-69969750D01*
G75*
G02*
X173016750Y-69776000I193750J0D01*
G01*
X173404250Y-69776000D01*
G75*
G02*
X173598000Y-69969750I0J-193750D01*
G01*
X173598000Y-70432250D01*
G75*
G02*
X173404250Y-70626000I-193750J0D01*
G01*
X173016750Y-70626000D01*
G75*
G02*
X172823000Y-70432250I0J193750D01*
G01*
G37*
G36*
G01*
X173200000Y-66667750D02*
X173200000Y-67130250D01*
G75*
G02*
X173006250Y-67324000I-193750J0D01*
G01*
X172618750Y-67324000D01*
G75*
G02*
X172425000Y-67130250I0J193750D01*
G01*
X172425000Y-66667750D01*
G75*
G02*
X172618750Y-66474000I193750J0D01*
G01*
X173006250Y-66474000D01*
G75*
G02*
X173200000Y-66667750I0J-193750D01*
G01*
G37*
G36*
G01*
X174775000Y-66667750D02*
X174775000Y-67130250D01*
G75*
G02*
X174581250Y-67324000I-193750J0D01*
G01*
X174193750Y-67324000D01*
G75*
G02*
X174000000Y-67130250I0J193750D01*
G01*
X174000000Y-66667750D01*
G75*
G02*
X174193750Y-66474000I193750J0D01*
G01*
X174581250Y-66474000D01*
G75*
G02*
X174775000Y-66667750I0J-193750D01*
G01*
G37*
G36*
G01*
X174002000Y-65733250D02*
X174002000Y-65270750D01*
G75*
G02*
X174195750Y-65077000I193750J0D01*
G01*
X174583250Y-65077000D01*
G75*
G02*
X174777000Y-65270750I0J-193750D01*
G01*
X174777000Y-65733250D01*
G75*
G02*
X174583250Y-65927000I-193750J0D01*
G01*
X174195750Y-65927000D01*
G75*
G02*
X174002000Y-65733250I0J193750D01*
G01*
G37*
G36*
G01*
X172427000Y-65733250D02*
X172427000Y-65270750D01*
G75*
G02*
X172620750Y-65077000I193750J0D01*
G01*
X173008250Y-65077000D01*
G75*
G02*
X173202000Y-65270750I0J-193750D01*
G01*
X173202000Y-65733250D01*
G75*
G02*
X173008250Y-65927000I-193750J0D01*
G01*
X172620750Y-65927000D01*
G75*
G02*
X172427000Y-65733250I0J193750D01*
G01*
G37*
G36*
G01*
X170150250Y-66753000D02*
X169687750Y-66753000D01*
G75*
G02*
X169494000Y-66559250I0J193750D01*
G01*
X169494000Y-66171750D01*
G75*
G02*
X169687750Y-65978000I193750J0D01*
G01*
X170150250Y-65978000D01*
G75*
G02*
X170344000Y-66171750I0J-193750D01*
G01*
X170344000Y-66559250D01*
G75*
G02*
X170150250Y-66753000I-193750J0D01*
G01*
G37*
G36*
G01*
X170150250Y-68328000D02*
X169687750Y-68328000D01*
G75*
G02*
X169494000Y-68134250I0J193750D01*
G01*
X169494000Y-67746750D01*
G75*
G02*
X169687750Y-67553000I193750J0D01*
G01*
X170150250Y-67553000D01*
G75*
G02*
X170344000Y-67746750I0J-193750D01*
G01*
X170344000Y-68134250D01*
G75*
G02*
X170150250Y-68328000I-193750J0D01*
G01*
G37*
G36*
G01*
X171562250Y-66753000D02*
X171099750Y-66753000D01*
G75*
G02*
X170906000Y-66559250I0J193750D01*
G01*
X170906000Y-66171750D01*
G75*
G02*
X171099750Y-65978000I193750J0D01*
G01*
X171562250Y-65978000D01*
G75*
G02*
X171756000Y-66171750I0J-193750D01*
G01*
X171756000Y-66559250D01*
G75*
G02*
X171562250Y-66753000I-193750J0D01*
G01*
G37*
G36*
G01*
X171562250Y-68328000D02*
X171099750Y-68328000D01*
G75*
G02*
X170906000Y-68134250I0J193750D01*
G01*
X170906000Y-67746750D01*
G75*
G02*
X171099750Y-67553000I193750J0D01*
G01*
X171562250Y-67553000D01*
G75*
G02*
X171756000Y-67746750I0J-193750D01*
G01*
X171756000Y-68134250D01*
G75*
G02*
X171562250Y-68328000I-193750J0D01*
G01*
G37*
D18*
X162700000Y-65357000D03*
X165200000Y-65357000D03*
G36*
G01*
X167906000Y-67366250D02*
X167906000Y-66903750D01*
G75*
G02*
X168099750Y-66710000I193750J0D01*
G01*
X168487250Y-66710000D01*
G75*
G02*
X168681000Y-66903750I0J-193750D01*
G01*
X168681000Y-67366250D01*
G75*
G02*
X168487250Y-67560000I-193750J0D01*
G01*
X168099750Y-67560000D01*
G75*
G02*
X167906000Y-67366250I0J193750D01*
G01*
G37*
G36*
G01*
X166331000Y-67366250D02*
X166331000Y-66903750D01*
G75*
G02*
X166524750Y-66710000I193750J0D01*
G01*
X166912250Y-66710000D01*
G75*
G02*
X167106000Y-66903750I0J-193750D01*
G01*
X167106000Y-67366250D01*
G75*
G02*
X166912250Y-67560000I-193750J0D01*
G01*
X166524750Y-67560000D01*
G75*
G02*
X166331000Y-67366250I0J193750D01*
G01*
G37*
X166256000Y-68659000D03*
X168756000Y-68659000D03*
G36*
G01*
X162276250Y-69910000D02*
X161813750Y-69910000D01*
G75*
G02*
X161620000Y-69716250I0J193750D01*
G01*
X161620000Y-69328750D01*
G75*
G02*
X161813750Y-69135000I193750J0D01*
G01*
X162276250Y-69135000D01*
G75*
G02*
X162470000Y-69328750I0J-193750D01*
G01*
X162470000Y-69716250D01*
G75*
G02*
X162276250Y-69910000I-193750J0D01*
G01*
G37*
G36*
G01*
X162276250Y-71485000D02*
X161813750Y-71485000D01*
G75*
G02*
X161620000Y-71291250I0J193750D01*
G01*
X161620000Y-70903750D01*
G75*
G02*
X161813750Y-70710000I193750J0D01*
G01*
X162276250Y-70710000D01*
G75*
G02*
X162470000Y-70903750I0J-193750D01*
G01*
X162470000Y-71291250D01*
G75*
G02*
X162276250Y-71485000I-193750J0D01*
G01*
G37*
X164585000Y-71560000D03*
X164585000Y-69060000D03*
D19*
X157285000Y-77392000D03*
X158235000Y-77392000D03*
X159185000Y-77392000D03*
X159185000Y-79992000D03*
X157285000Y-79992000D03*
G36*
G01*
X155463750Y-78965000D02*
X155926250Y-78965000D01*
G75*
G02*
X156120000Y-79158750I0J-193750D01*
G01*
X156120000Y-79546250D01*
G75*
G02*
X155926250Y-79740000I-193750J0D01*
G01*
X155463750Y-79740000D01*
G75*
G02*
X155270000Y-79546250I0J193750D01*
G01*
X155270000Y-79158750D01*
G75*
G02*
X155463750Y-78965000I193750J0D01*
G01*
G37*
G36*
G01*
X155463750Y-77390000D02*
X155926250Y-77390000D01*
G75*
G02*
X156120000Y-77583750I0J-193750D01*
G01*
X156120000Y-77971250D01*
G75*
G02*
X155926250Y-78165000I-193750J0D01*
G01*
X155463750Y-78165000D01*
G75*
G02*
X155270000Y-77971250I0J193750D01*
G01*
X155270000Y-77583750D01*
G75*
G02*
X155463750Y-77390000I193750J0D01*
G01*
G37*
G36*
G01*
X153020000Y-77726250D02*
X153020000Y-76863750D01*
G75*
G02*
X153238750Y-76645000I218750J0D01*
G01*
X153676250Y-76645000D01*
G75*
G02*
X153895000Y-76863750I0J-218750D01*
G01*
X153895000Y-77726250D01*
G75*
G02*
X153676250Y-77945000I-218750J0D01*
G01*
X153238750Y-77945000D01*
G75*
G02*
X153020000Y-77726250I0J218750D01*
G01*
G37*
G36*
G01*
X151145000Y-77726250D02*
X151145000Y-76863750D01*
G75*
G02*
X151363750Y-76645000I218750J0D01*
G01*
X151801250Y-76645000D01*
G75*
G02*
X152020000Y-76863750I0J-218750D01*
G01*
X152020000Y-77726250D01*
G75*
G02*
X151801250Y-77945000I-218750J0D01*
G01*
X151363750Y-77945000D01*
G75*
G02*
X151145000Y-77726250I0J218750D01*
G01*
G37*
G36*
G01*
X153020000Y-79631250D02*
X153020000Y-78768750D01*
G75*
G02*
X153238750Y-78550000I218750J0D01*
G01*
X153676250Y-78550000D01*
G75*
G02*
X153895000Y-78768750I0J-218750D01*
G01*
X153895000Y-79631250D01*
G75*
G02*
X153676250Y-79850000I-218750J0D01*
G01*
X153238750Y-79850000D01*
G75*
G02*
X153020000Y-79631250I0J218750D01*
G01*
G37*
G36*
G01*
X151145000Y-79631250D02*
X151145000Y-78768750D01*
G75*
G02*
X151363750Y-78550000I218750J0D01*
G01*
X151801250Y-78550000D01*
G75*
G02*
X152020000Y-78768750I0J-218750D01*
G01*
X152020000Y-79631250D01*
G75*
G02*
X151801250Y-79850000I-218750J0D01*
G01*
X151363750Y-79850000D01*
G75*
G02*
X151145000Y-79631250I0J218750D01*
G01*
G37*
G36*
G01*
X152920000Y-81336250D02*
X152920000Y-80873750D01*
G75*
G02*
X153113750Y-80680000I193750J0D01*
G01*
X153501250Y-80680000D01*
G75*
G02*
X153695000Y-80873750I0J-193750D01*
G01*
X153695000Y-81336250D01*
G75*
G02*
X153501250Y-81530000I-193750J0D01*
G01*
X153113750Y-81530000D01*
G75*
G02*
X152920000Y-81336250I0J193750D01*
G01*
G37*
G36*
G01*
X151345000Y-81336250D02*
X151345000Y-80873750D01*
G75*
G02*
X151538750Y-80680000I193750J0D01*
G01*
X151926250Y-80680000D01*
G75*
G02*
X152120000Y-80873750I0J-193750D01*
G01*
X152120000Y-81336250D01*
G75*
G02*
X151926250Y-81530000I-193750J0D01*
G01*
X151538750Y-81530000D01*
G75*
G02*
X151345000Y-81336250I0J193750D01*
G01*
G37*
G36*
G01*
X152920000Y-82606250D02*
X152920000Y-82143750D01*
G75*
G02*
X153113750Y-81950000I193750J0D01*
G01*
X153501250Y-81950000D01*
G75*
G02*
X153695000Y-82143750I0J-193750D01*
G01*
X153695000Y-82606250D01*
G75*
G02*
X153501250Y-82800000I-193750J0D01*
G01*
X153113750Y-82800000D01*
G75*
G02*
X152920000Y-82606250I0J193750D01*
G01*
G37*
G36*
G01*
X151345000Y-82606250D02*
X151345000Y-82143750D01*
G75*
G02*
X151538750Y-81950000I193750J0D01*
G01*
X151926250Y-81950000D01*
G75*
G02*
X152120000Y-82143750I0J-193750D01*
G01*
X152120000Y-82606250D01*
G75*
G02*
X151926250Y-82800000I-193750J0D01*
G01*
X151538750Y-82800000D01*
G75*
G02*
X151345000Y-82606250I0J193750D01*
G01*
G37*
G36*
G01*
X138931250Y-80920000D02*
X138068750Y-80920000D01*
G75*
G02*
X137850000Y-80701250I0J218750D01*
G01*
X137850000Y-80263750D01*
G75*
G02*
X138068750Y-80045000I218750J0D01*
G01*
X138931250Y-80045000D01*
G75*
G02*
X139150000Y-80263750I0J-218750D01*
G01*
X139150000Y-80701250D01*
G75*
G02*
X138931250Y-80920000I-218750J0D01*
G01*
G37*
G36*
G01*
X138931250Y-82795000D02*
X138068750Y-82795000D01*
G75*
G02*
X137850000Y-82576250I0J218750D01*
G01*
X137850000Y-82138750D01*
G75*
G02*
X138068750Y-81920000I218750J0D01*
G01*
X138931250Y-81920000D01*
G75*
G02*
X139150000Y-82138750I0J-218750D01*
G01*
X139150000Y-82576250D01*
G75*
G02*
X138931250Y-82795000I-218750J0D01*
G01*
G37*
G36*
G01*
X125200000Y-86338750D02*
X125200000Y-86801250D01*
G75*
G02*
X125006250Y-86995000I-193750J0D01*
G01*
X124618750Y-86995000D01*
G75*
G02*
X124425000Y-86801250I0J193750D01*
G01*
X124425000Y-86338750D01*
G75*
G02*
X124618750Y-86145000I193750J0D01*
G01*
X125006250Y-86145000D01*
G75*
G02*
X125200000Y-86338750I0J-193750D01*
G01*
G37*
G36*
G01*
X126775000Y-86338750D02*
X126775000Y-86801250D01*
G75*
G02*
X126581250Y-86995000I-193750J0D01*
G01*
X126193750Y-86995000D01*
G75*
G02*
X126000000Y-86801250I0J193750D01*
G01*
X126000000Y-86338750D01*
G75*
G02*
X126193750Y-86145000I193750J0D01*
G01*
X126581250Y-86145000D01*
G75*
G02*
X126775000Y-86338750I0J-193750D01*
G01*
G37*
G36*
G01*
X135868750Y-86620000D02*
X136331250Y-86620000D01*
G75*
G02*
X136525000Y-86813750I0J-193750D01*
G01*
X136525000Y-87201250D01*
G75*
G02*
X136331250Y-87395000I-193750J0D01*
G01*
X135868750Y-87395000D01*
G75*
G02*
X135675000Y-87201250I0J193750D01*
G01*
X135675000Y-86813750D01*
G75*
G02*
X135868750Y-86620000I193750J0D01*
G01*
G37*
G36*
G01*
X135868750Y-85045000D02*
X136331250Y-85045000D01*
G75*
G02*
X136525000Y-85238750I0J-193750D01*
G01*
X136525000Y-85626250D01*
G75*
G02*
X136331250Y-85820000I-193750J0D01*
G01*
X135868750Y-85820000D01*
G75*
G02*
X135675000Y-85626250I0J193750D01*
G01*
X135675000Y-85238750D01*
G75*
G02*
X135868750Y-85045000I193750J0D01*
G01*
G37*
G36*
G01*
X140668750Y-86620000D02*
X141131250Y-86620000D01*
G75*
G02*
X141325000Y-86813750I0J-193750D01*
G01*
X141325000Y-87201250D01*
G75*
G02*
X141131250Y-87395000I-193750J0D01*
G01*
X140668750Y-87395000D01*
G75*
G02*
X140475000Y-87201250I0J193750D01*
G01*
X140475000Y-86813750D01*
G75*
G02*
X140668750Y-86620000I193750J0D01*
G01*
G37*
G36*
G01*
X140668750Y-85045000D02*
X141131250Y-85045000D01*
G75*
G02*
X141325000Y-85238750I0J-193750D01*
G01*
X141325000Y-85626250D01*
G75*
G02*
X141131250Y-85820000I-193750J0D01*
G01*
X140668750Y-85820000D01*
G75*
G02*
X140475000Y-85626250I0J193750D01*
G01*
X140475000Y-85238750D01*
G75*
G02*
X140668750Y-85045000I193750J0D01*
G01*
G37*
G36*
G01*
X138068750Y-87120000D02*
X138931250Y-87120000D01*
G75*
G02*
X139150000Y-87338750I0J-218750D01*
G01*
X139150000Y-87776250D01*
G75*
G02*
X138931250Y-87995000I-218750J0D01*
G01*
X138068750Y-87995000D01*
G75*
G02*
X137850000Y-87776250I0J218750D01*
G01*
X137850000Y-87338750D01*
G75*
G02*
X138068750Y-87120000I218750J0D01*
G01*
G37*
G36*
G01*
X138068750Y-85245000D02*
X138931250Y-85245000D01*
G75*
G02*
X139150000Y-85463750I0J-218750D01*
G01*
X139150000Y-85901250D01*
G75*
G02*
X138931250Y-86120000I-218750J0D01*
G01*
X138068750Y-86120000D01*
G75*
G02*
X137850000Y-85901250I0J218750D01*
G01*
X137850000Y-85463750D01*
G75*
G02*
X138068750Y-85245000I218750J0D01*
G01*
G37*
G36*
G01*
X134668750Y-91420000D02*
X135131250Y-91420000D01*
G75*
G02*
X135325000Y-91613750I0J-193750D01*
G01*
X135325000Y-92001250D01*
G75*
G02*
X135131250Y-92195000I-193750J0D01*
G01*
X134668750Y-92195000D01*
G75*
G02*
X134475000Y-92001250I0J193750D01*
G01*
X134475000Y-91613750D01*
G75*
G02*
X134668750Y-91420000I193750J0D01*
G01*
G37*
G36*
G01*
X134668750Y-89845000D02*
X135131250Y-89845000D01*
G75*
G02*
X135325000Y-90038750I0J-193750D01*
G01*
X135325000Y-90426250D01*
G75*
G02*
X135131250Y-90620000I-193750J0D01*
G01*
X134668750Y-90620000D01*
G75*
G02*
X134475000Y-90426250I0J193750D01*
G01*
X134475000Y-90038750D01*
G75*
G02*
X134668750Y-89845000I193750J0D01*
G01*
G37*
G36*
G01*
X136668750Y-91620000D02*
X137131250Y-91620000D01*
G75*
G02*
X137325000Y-91813750I0J-193750D01*
G01*
X137325000Y-92201250D01*
G75*
G02*
X137131250Y-92395000I-193750J0D01*
G01*
X136668750Y-92395000D01*
G75*
G02*
X136475000Y-92201250I0J193750D01*
G01*
X136475000Y-91813750D01*
G75*
G02*
X136668750Y-91620000I193750J0D01*
G01*
G37*
G36*
G01*
X136668750Y-90045000D02*
X137131250Y-90045000D01*
G75*
G02*
X137325000Y-90238750I0J-193750D01*
G01*
X137325000Y-90626250D01*
G75*
G02*
X137131250Y-90820000I-193750J0D01*
G01*
X136668750Y-90820000D01*
G75*
G02*
X136475000Y-90626250I0J193750D01*
G01*
X136475000Y-90238750D01*
G75*
G02*
X136668750Y-90045000I193750J0D01*
G01*
G37*
G36*
G01*
X138068750Y-92120000D02*
X138931250Y-92120000D01*
G75*
G02*
X139150000Y-92338750I0J-218750D01*
G01*
X139150000Y-92776250D01*
G75*
G02*
X138931250Y-92995000I-218750J0D01*
G01*
X138068750Y-92995000D01*
G75*
G02*
X137850000Y-92776250I0J218750D01*
G01*
X137850000Y-92338750D01*
G75*
G02*
X138068750Y-92120000I218750J0D01*
G01*
G37*
G36*
G01*
X138068750Y-90245000D02*
X138931250Y-90245000D01*
G75*
G02*
X139150000Y-90463750I0J-218750D01*
G01*
X139150000Y-90901250D01*
G75*
G02*
X138931250Y-91120000I-218750J0D01*
G01*
X138068750Y-91120000D01*
G75*
G02*
X137850000Y-90901250I0J218750D01*
G01*
X137850000Y-90463750D01*
G75*
G02*
X138068750Y-90245000I218750J0D01*
G01*
G37*
G36*
G01*
X139868750Y-91620000D02*
X140331250Y-91620000D01*
G75*
G02*
X140525000Y-91813750I0J-193750D01*
G01*
X140525000Y-92201250D01*
G75*
G02*
X140331250Y-92395000I-193750J0D01*
G01*
X139868750Y-92395000D01*
G75*
G02*
X139675000Y-92201250I0J193750D01*
G01*
X139675000Y-91813750D01*
G75*
G02*
X139868750Y-91620000I193750J0D01*
G01*
G37*
G36*
G01*
X139868750Y-90045000D02*
X140331250Y-90045000D01*
G75*
G02*
X140525000Y-90238750I0J-193750D01*
G01*
X140525000Y-90626250D01*
G75*
G02*
X140331250Y-90820000I-193750J0D01*
G01*
X139868750Y-90820000D01*
G75*
G02*
X139675000Y-90626250I0J193750D01*
G01*
X139675000Y-90238750D01*
G75*
G02*
X139868750Y-90045000I193750J0D01*
G01*
G37*
G36*
G01*
X141868750Y-91620000D02*
X142331250Y-91620000D01*
G75*
G02*
X142525000Y-91813750I0J-193750D01*
G01*
X142525000Y-92201250D01*
G75*
G02*
X142331250Y-92395000I-193750J0D01*
G01*
X141868750Y-92395000D01*
G75*
G02*
X141675000Y-92201250I0J193750D01*
G01*
X141675000Y-91813750D01*
G75*
G02*
X141868750Y-91620000I193750J0D01*
G01*
G37*
G36*
G01*
X141868750Y-90045000D02*
X142331250Y-90045000D01*
G75*
G02*
X142525000Y-90238750I0J-193750D01*
G01*
X142525000Y-90626250D01*
G75*
G02*
X142331250Y-90820000I-193750J0D01*
G01*
X141868750Y-90820000D01*
G75*
G02*
X141675000Y-90626250I0J193750D01*
G01*
X141675000Y-90238750D01*
G75*
G02*
X141868750Y-90045000I193750J0D01*
G01*
G37*
G36*
G01*
X140500000Y-88188750D02*
X140500000Y-88651250D01*
G75*
G02*
X140306250Y-88845000I-193750J0D01*
G01*
X139918750Y-88845000D01*
G75*
G02*
X139725000Y-88651250I0J193750D01*
G01*
X139725000Y-88188750D01*
G75*
G02*
X139918750Y-87995000I193750J0D01*
G01*
X140306250Y-87995000D01*
G75*
G02*
X140500000Y-88188750I0J-193750D01*
G01*
G37*
G36*
G01*
X142075000Y-88188750D02*
X142075000Y-88651250D01*
G75*
G02*
X141881250Y-88845000I-193750J0D01*
G01*
X141493750Y-88845000D01*
G75*
G02*
X141300000Y-88651250I0J193750D01*
G01*
X141300000Y-88188750D01*
G75*
G02*
X141493750Y-87995000I193750J0D01*
G01*
X141881250Y-87995000D01*
G75*
G02*
X142075000Y-88188750I0J-193750D01*
G01*
G37*
G36*
G01*
X136500000Y-88651250D02*
X136500000Y-88188750D01*
G75*
G02*
X136693750Y-87995000I193750J0D01*
G01*
X137081250Y-87995000D01*
G75*
G02*
X137275000Y-88188750I0J-193750D01*
G01*
X137275000Y-88651250D01*
G75*
G02*
X137081250Y-88845000I-193750J0D01*
G01*
X136693750Y-88845000D01*
G75*
G02*
X136500000Y-88651250I0J193750D01*
G01*
G37*
G36*
G01*
X134925000Y-88651250D02*
X134925000Y-88188750D01*
G75*
G02*
X135118750Y-87995000I193750J0D01*
G01*
X135506250Y-87995000D01*
G75*
G02*
X135700000Y-88188750I0J-193750D01*
G01*
X135700000Y-88651250D01*
G75*
G02*
X135506250Y-88845000I-193750J0D01*
G01*
X135118750Y-88845000D01*
G75*
G02*
X134925000Y-88651250I0J193750D01*
G01*
G37*
X159825000Y-90600000D03*
X160775000Y-90600000D03*
X161725000Y-90600000D03*
X161725000Y-93200000D03*
X159825000Y-93200000D03*
X104575000Y-86215000D03*
X103625000Y-86215000D03*
X102675000Y-86215000D03*
X102675000Y-83615000D03*
X104575000Y-83615000D03*
D20*
X175395000Y-96015000D03*
D21*
X174125000Y-96015000D03*
X172855000Y-96015000D03*
X171585000Y-96015000D03*
X171585000Y-90615000D03*
X172855000Y-90615000D03*
X174125000Y-90615000D03*
X175395000Y-90615000D03*
D22*
X141980000Y-67706500D03*
D23*
X141980000Y-66436500D03*
X141980000Y-65166500D03*
X141980000Y-63896500D03*
X147380000Y-63896500D03*
X147380000Y-65166500D03*
X147380000Y-66436500D03*
X147380000Y-67706500D03*
D24*
X116340000Y-82520000D03*
D25*
X117610000Y-82520000D03*
X118880000Y-82520000D03*
X120150000Y-82520000D03*
X120150000Y-89124000D03*
X118880000Y-89124000D03*
X117610000Y-89124000D03*
X116340000Y-89124000D03*
D18*
X169050000Y-84280000D03*
X171550000Y-84280000D03*
X169030000Y-78585000D03*
X169030000Y-81085000D03*
X171550000Y-85804000D03*
X169050000Y-85804000D03*
X179190000Y-74775000D03*
X179190000Y-77275000D03*
X177285000Y-77275000D03*
X177285000Y-74775000D03*
X172987000Y-73503000D03*
X175487000Y-73503000D03*
X174979000Y-68550000D03*
X172479000Y-68550000D03*
X165200000Y-67262000D03*
X162700000Y-67262000D03*
X177285000Y-72594000D03*
X177285000Y-70094000D03*
X179190000Y-70094000D03*
X179190000Y-72594000D03*
D26*
X171175000Y-82375000D03*
X169425000Y-82375000D03*
D27*
X110149000Y-70074000D03*
X114149000Y-70074000D03*
D28*
X176015000Y-83280000D03*
X175065000Y-85280000D03*
X176965000Y-85280000D03*
D18*
X175502000Y-72106000D03*
X173002000Y-72106000D03*
X144626000Y-96599000D03*
X142126000Y-96599000D03*
X138951000Y-98250000D03*
X141451000Y-98250000D03*
G36*
G01*
X165823000Y-70541250D02*
X165823000Y-70078750D01*
G75*
G02*
X166016750Y-69885000I193750J0D01*
G01*
X166404250Y-69885000D01*
G75*
G02*
X166598000Y-70078750I0J-193750D01*
G01*
X166598000Y-70541250D01*
G75*
G02*
X166404250Y-70735000I-193750J0D01*
G01*
X166016750Y-70735000D01*
G75*
G02*
X165823000Y-70541250I0J193750D01*
G01*
G37*
G36*
G01*
X167398000Y-70541250D02*
X167398000Y-70078750D01*
G75*
G02*
X167591750Y-69885000I193750J0D01*
G01*
X167979250Y-69885000D01*
G75*
G02*
X168173000Y-70078750I0J-193750D01*
G01*
X168173000Y-70541250D01*
G75*
G02*
X167979250Y-70735000I-193750J0D01*
G01*
X167591750Y-70735000D01*
G75*
G02*
X167398000Y-70541250I0J193750D01*
G01*
G37*
G36*
G01*
X166413250Y-89846000D02*
X165550750Y-89846000D01*
G75*
G02*
X165332000Y-89627250I0J218750D01*
G01*
X165332000Y-89189750D01*
G75*
G02*
X165550750Y-88971000I218750J0D01*
G01*
X166413250Y-88971000D01*
G75*
G02*
X166632000Y-89189750I0J-218750D01*
G01*
X166632000Y-89627250D01*
G75*
G02*
X166413250Y-89846000I-218750J0D01*
G01*
G37*
G36*
G01*
X166413250Y-87971000D02*
X165550750Y-87971000D01*
G75*
G02*
X165332000Y-87752250I0J218750D01*
G01*
X165332000Y-87314750D01*
G75*
G02*
X165550750Y-87096000I218750J0D01*
G01*
X166413250Y-87096000D01*
G75*
G02*
X166632000Y-87314750I0J-218750D01*
G01*
X166632000Y-87752250D01*
G75*
G02*
X166413250Y-87971000I-218750J0D01*
G01*
G37*
G36*
G01*
X167465260Y-86921000D02*
X168308740Y-86921000D01*
G75*
G02*
X168537000Y-87149260I0J-228260D01*
G01*
X168537000Y-87742740D01*
G75*
G02*
X168308740Y-87971000I-228260J0D01*
G01*
X167465260Y-87971000D01*
G75*
G02*
X167237000Y-87742740I0J228260D01*
G01*
X167237000Y-87149260D01*
G75*
G02*
X167465260Y-86921000I228260J0D01*
G01*
G37*
G36*
G01*
X167465260Y-88971000D02*
X168308740Y-88971000D01*
G75*
G02*
X168537000Y-89199260I0J-228260D01*
G01*
X168537000Y-89792740D01*
G75*
G02*
X168308740Y-90021000I-228260J0D01*
G01*
X167465260Y-90021000D01*
G75*
G02*
X167237000Y-89792740I0J228260D01*
G01*
X167237000Y-89199260D01*
G75*
G02*
X167465260Y-88971000I228260J0D01*
G01*
G37*
G36*
G01*
X169370260Y-86921000D02*
X170213740Y-86921000D01*
G75*
G02*
X170442000Y-87149260I0J-228260D01*
G01*
X170442000Y-87742740D01*
G75*
G02*
X170213740Y-87971000I-228260J0D01*
G01*
X169370260Y-87971000D01*
G75*
G02*
X169142000Y-87742740I0J228260D01*
G01*
X169142000Y-87149260D01*
G75*
G02*
X169370260Y-86921000I228260J0D01*
G01*
G37*
G36*
G01*
X169370260Y-88971000D02*
X170213740Y-88971000D01*
G75*
G02*
X170442000Y-89199260I0J-228260D01*
G01*
X170442000Y-89792740D01*
G75*
G02*
X170213740Y-90021000I-228260J0D01*
G01*
X169370260Y-90021000D01*
G75*
G02*
X169142000Y-89792740I0J228260D01*
G01*
X169142000Y-89199260D01*
G75*
G02*
X169370260Y-88971000I228260J0D01*
G01*
G37*
M02*
