M48
INCH,TZ
T1C0.008
T2C0.010
T3C0.016
T4C0.020
T5C0.031
T6C0.040
T7C0.126
T8C0.067
%
G90
G05
T1
X39377Y-31275
X39402Y-41024
X43047Y-30681
X43417Y-41339
X43516Y-43213
X43732Y-41732
X44441Y-39134
X44520Y-34961
X45547Y-30713
X46111Y-38511
X46252Y-29449
X46902Y-37662
X47413Y-38209
X47591Y-35827
X47799Y-35682
X48220Y-24764
X48850Y-42756
X48899Y-42208
X48919Y-41725
X49008Y-34409
X49567Y-36792
X49844Y-31073
X49911Y-30830
X50176Y-31191
X50223Y-30989
X50399Y-32604
X50451Y-33412
X50463Y-33079
X50547Y-34939
X50549Y-32747
X50581Y-34482
X50650Y-33499
X50652Y-33167
X50728Y-35897
X50738Y-32835
X50871Y-35154
X50898Y-36693
X50934Y-34001
X50935Y-36105
X51001Y-35908
X51009Y-41213
X51055Y-31693
X51055Y-41969
X51108Y-36422
X51134Y-41024
X51230Y-36777
X51512Y-40691
X51566Y-30612
X51583Y-40301
X51646Y-31693
X51650Y-37604
X51685Y-33937
X51685Y-35197
X51753Y-40668
X51981Y-33293
X51999Y-35818
X52000Y-32047
X52000Y-32354
X52000Y-33937
X52000Y-34252
X52000Y-35214
X52000Y-36457
X52000Y-36772
X52000Y-37087
X52002Y-32686
X52004Y-38298
X52015Y-33018
X52049Y-25749
X52167Y-30787
X52167Y-31022
X52207Y-38256
X52302Y-37085
X52313Y-33631
X52315Y-32362
X52315Y-33937
X52315Y-34882
X52315Y-35827
X52315Y-36142
X52315Y-36457
X52315Y-36772
X52315Y-33293
X52317Y-32044
X52318Y-32983
X52330Y-41260
X52625Y-30359
X52627Y-33305
X52630Y-32047
X52630Y-32668
X52630Y-33001
X52630Y-36142
X52630Y-36457
X52632Y-36773
X52634Y-37079
X52779Y-30498
X52834Y-38295
X52945Y-32362
X52945Y-32992
X52945Y-35827
X52945Y-32044
X53138Y-38282
X53172Y-30508
X53257Y-34889
X53258Y-32044
X53260Y-31732
X53260Y-33937
X53260Y-36457
X53260Y-37087
X53260Y-37402
X53335Y-43075
X53336Y-30295
X53417Y-41496
X53456Y-41797
X53486Y-42832
X53486Y-42529
X53498Y-42047
X53575Y-32047
X53575Y-36772
X53577Y-35195
X53583Y-30814
X53610Y-30524
X53797Y-30358
X53890Y-36457
X53892Y-35510
X53946Y-30214
X54199Y-35985
X54205Y-32047
X54205Y-35501
X54205Y-36772
X54205Y-33281
X54234Y-29911
X54321Y-30149
X54446Y-30380
X54518Y-30755
X54528Y-41304
X54737Y-30945
X54756Y-27402
X54832Y-33312
X54835Y-32047
X54835Y-32362
X54835Y-35481
X54835Y-36772
X55032Y-29163
X55047Y-26681
X55150Y-32047
X55155Y-35481
X55458Y-32693
X55462Y-35997
X55465Y-33622
X55465Y-34567
X55465Y-35197
X55465Y-36772
X55473Y-32354
X55482Y-32038
X55530Y-29478
X55642Y-29691
X55648Y-30382
X55771Y-32335
X55780Y-33622
X55780Y-33937
X55780Y-34882
X55848Y-31090
X55900Y-28307
X56086Y-32040
X56086Y-32359
X56092Y-32677
X56094Y-32992
X56094Y-35827
X56094Y-37087
X56307Y-31064
X56333Y-30858
X56409Y-34880
X56409Y-35827
X56410Y-35513
X56418Y-32040
X56418Y-32360
X56426Y-30645
X56488Y-28307
X56567Y-25157
X56707Y-35196
X56723Y-32357
X56724Y-32677
X56724Y-32992
X56724Y-33307
X56724Y-36457
X56725Y-33621
X56725Y-35485
X56726Y-34876
X56750Y-32037
X57034Y-32021
X57035Y-35153
X57038Y-34891
X57038Y-33281
X57040Y-36448
X57040Y-36172
X57041Y-32354
X57041Y-35835
X57042Y-35485
X57042Y-33616
X57043Y-34250
X57043Y-33018
X57045Y-32686
X57048Y-33964
X57084Y-28321
X57155Y-29229
X57281Y-29810
X57354Y-32047
X57354Y-33631
X57354Y-35827
X57354Y-37087
X57633Y-30677
X57660Y-29550
X57673Y-28337
X57924Y-35355
X58059Y-34774
X58063Y-30639
X58115Y-33390
X58230Y-32807
X58263Y-28297
X58267Y-34774
X58297Y-37492
X58401Y-31880
X58441Y-33267
X58705Y-32563
X58713Y-31969
X58743Y-37640
X59087Y-32126
X60819Y-37165
X61396Y-37183
X61528Y-31969
X62236Y-37244
X62472Y-31969
X63181Y-26772
X63281Y-37207
X63417Y-32047
X64000Y-37402
X64362Y-31969
X64824Y-37333
X64992Y-31969
X66531Y-27008
X68929Y-35039
X69480Y-37244
X69795Y-32362
T2
X47235Y-37564
X47494Y-37393
X52539Y-40249
X52785Y-40454
X53575Y-33307
X53575Y-33622
X53587Y-34250
X54205Y-34252
X54797Y-28889
X54835Y-34252
X54835Y-34882
X54847Y-35968
X55523Y-28894
X55529Y-34250
X56211Y-29897
X56546Y-29733
X57422Y-25665
X57431Y-25166
X57926Y-37932
X58032Y-36696
X58081Y-37764
X58261Y-36690
X58311Y-36914
X58525Y-37496
X58905Y-37157
X58968Y-37380
X59083Y-37577
X59133Y-37800
X59259Y-37991
X59408Y-38230
X59617Y-38002
T3
X43541Y-34944
T4
X58941Y-30429
X59880Y-38740
T6
X37547Y-24681
X37547Y-25681
X37547Y-26681
X37547Y-27681
X37547Y-28681
X37547Y-29681
X37547Y-30681
X37547Y-31681
X37547Y-32681
X37547Y-33681
X37547Y-34681
X37547Y-35681
X37547Y-36681
X37547Y-37681
X37547Y-38681
X37547Y-39681
X37547Y-40681
X37547Y-41681
X37547Y-42681
X37547Y-43681
X38547Y-24681
X38547Y-25681
X38547Y-26681
X38547Y-27681
X38547Y-28681
X38547Y-29681
X38547Y-30681
X38547Y-31681
X38547Y-32681
X38547Y-33681
X38547Y-34681
X38547Y-35681
X38547Y-36681
X38547Y-37681
X38547Y-38681
X38547Y-39681
X38547Y-40681
X38547Y-41681
X38547Y-42681
X38547Y-43681
X40047Y-39181
X41047Y-39181
X52047Y-39681
X53047Y-39681
X54047Y-39681
X55047Y-39681
X56047Y-39681
X57047Y-39681
X58047Y-39681
X72547Y-24681
X72547Y-25681
X72547Y-26681
X72547Y-27681
X72547Y-28681
X72547Y-29681
X72547Y-30681
X72547Y-31681
X72547Y-32681
X72547Y-33681
X72547Y-34681
X72547Y-35681
X72547Y-36681
X72547Y-37681
X72547Y-38681
X72547Y-39681
X72547Y-40681
X72547Y-41681
X72547Y-42681
X72547Y-43681
X73547Y-24681
X73547Y-25681
X73547Y-26681
X73547Y-27681
X73547Y-28681
X73547Y-29681
X73547Y-30681
X73547Y-31681
X73547Y-32681
X73547Y-33681
X73547Y-34681
X73547Y-35681
X73547Y-36681
X73547Y-37681
X73547Y-38681
X73547Y-39681
X73547Y-40681
X73547Y-41681
X73547Y-42681
X73547Y-43681
T7
X40547Y-25681
X40547Y-42681
X70547Y-25681
X70547Y-42681
T8
X48547Y-26197
X48547Y-28953
T5
X54205Y-24843G85X54205Y-25236
G05
X54205Y-27146G85X54205Y-27697
G05
X59953Y-24843G85X59953Y-25236
G05
X59953Y-27146G85X59953Y-27697
G05
T0
M30
