M48
;DRILL file {KiCad 4.0.7+dfsg1-1} date Fri Nov 10 22:42:11 2017
;FORMAT={-:-/ absolute / inch / decimal}
FMAT,2
INCH,TZ
T1C0.008
T2C0.010
T3C0.012
T4C0.016
T5C0.020
T6C0.031
T7C0.040
T8C0.126
T9C0.067
%
G90
G05
M72
T1
X3.9402Y-4.1024
X3.9547Y-3.9781
X4.1353Y-3.4107
X4.1564Y-4.0024
X4.1586Y-4.0674
X4.1659Y-4.048
X4.1691Y-4.0853
X4.1729Y-4.1057
X4.1767Y-4.1328
X4.1843Y-4.0116
X4.1877Y-3.843
X4.2024Y-3.8597
X4.3239Y-2.8673
X4.3405Y-3.6824
X4.3431Y-2.9284
X4.3497Y-2.8431
X4.359Y-3.7186
X4.4297Y-3.2681
X4.4297Y-3.3931
X4.452Y-3.4961
X4.4572Y-2.6868
X4.4897Y-2.8481
X4.4947Y-2.9231
X4.5563Y-3.8777
X4.5927Y-3.1015
X4.6854Y-3.7663
X4.7247Y-2.6381
X4.7573Y-3.0228
X4.7654Y-3.5876
X4.7719Y-3.534
X4.7796Y-3.5532
X4.883Y-3.4389
X4.883Y-3.4389
X4.8899Y-4.2208
X4.9047Y-3.9431
X4.9111Y-4.1533
X4.9278Y-3.6552
X4.9289Y-2.7227
X4.9409Y-3.6713
X4.9953Y-3.5542
X5.0016Y-3.4835
X5.0141Y-4.0995
X5.0259Y-4.2448
X5.035Y-3.1656
X5.0443Y-3.0801
X5.0454Y-3.041
X5.0459Y-3.2885
X5.0466Y-3.3225
X5.0493Y-3.5261
X5.0495Y-3.343
X5.0504Y-4.063
X5.0531Y-2.9824
X5.0558Y-3.1653
X5.0626Y-3.0667
X5.0632Y-3.3101
X5.0648Y-3.0335
X5.0699Y-3.4305
X5.0703Y-3.3437
X5.0711Y-4.0624
X5.074Y-3.6264
X5.0765Y-3.1653
X5.0789Y-3.9439
X5.0809Y-3.2797
X5.0837Y-2.9652
X5.0838Y-3.2591
X5.0865Y-3.6697
X5.0887Y-2.919
X5.0964Y-3.5404
X5.0968Y-3.1608
X5.0976Y-3.6221
X5.0982Y-2.9818
X5.0993Y-3.3013
X5.1047Y-3.9431
X5.1176Y-3.6111
X5.1249Y-3.6828
X5.13Y-3.6496
X5.1374Y-3.1562
X5.1454Y-3.9681
X5.1481Y-2.6425
X5.1499Y-3.758
X5.1512Y-4.0654
X5.1518Y-3.0625
X5.1674Y-3.0762
X5.1675Y-3.3957
X5.1683Y-3.1731
X5.1685Y-3.52
X5.1753Y-4.0654
X5.1854Y-3.1002
X5.1893Y-3.7885
X5.1908Y-3.1335
X5.1938Y-3.0545
X5.1993Y-3.3321
X5.1997Y-3.3653
X5.1999Y-3.5818
X5.2Y-3.2047
X5.2Y-3.4252
X5.2Y-3.6457
X5.2Y-3.6772
X5.2Y-3.7087
X5.2001Y-3.2665
X5.2001Y-3.2333
X5.2001Y-3.5516
X5.2001Y-3.2997
X5.2002Y-3.4882
X5.2005Y-3.5215
X5.2009Y-3.3986
X5.2026Y-4.3284
X5.2033Y-4.1805
X5.2043Y-4.3077
X5.2079Y-4.2835
X5.2145Y-4.1336
X5.2259Y-3.0187
X5.2268Y-3.0395
X5.2277Y-3.2047
X5.2288Y-3.2354
X5.2301Y-3.3644
X5.2302Y-3.7085
X5.2315Y-3.2681
X5.2315Y-3.4882
X5.2315Y-3.5827
X5.2315Y-3.6142
X5.2315Y-3.6457
X5.2315Y-3.6772
X5.2315Y-3.3303
X5.2318Y-3.2988
X5.2337Y-4.122
X5.2447Y-4.2309
X5.2617Y-3.2359
X5.2627Y-3.3305
X5.2627Y-3.2053
X5.263Y-3.2677
X5.263Y-3.2992
X5.263Y-3.3622
X5.263Y-3.6142
X5.263Y-3.6457
X5.2632Y-3.6773
X5.2663Y-3.7951
X5.2698Y-3.7746
X5.2733Y-3.0701
X5.2787Y-2.6294
X5.2935Y-3.7113
X5.2939Y-4.2851
X5.2944Y-3.2354
X5.2945Y-3.2677
X5.2945Y-3.2992
X5.2945Y-3.5827
X5.2959Y-3.205
X5.2997Y-3.1031
X5.3007Y-4.3197
X5.3022Y-4.2571
X5.3034Y-4.1539
X5.3051Y-4.2051
X5.3054Y-3.0366
X5.3257Y-3.4889
X5.326Y-3.2686
X5.326Y-3.3937
X5.326Y-3.6457
X5.326Y-3.0497
X5.326Y-3.1726
X5.3262Y-3.7396
X5.3263Y-3.7097
X5.3276Y-3.2361
X5.3292Y-3.2047
X5.3408Y-4.3548
X5.3477Y-3.
X5.3575Y-3.2362
X5.3575Y-3.2677
X5.3577Y-3.5195
X5.3581Y-3.676
X5.3599Y-3.2041
X5.3835Y-3.8392
X5.3882Y-3.0532
X5.389Y-3.6457
X5.3892Y-3.551
X5.3906Y-3.0747
X5.3979Y-3.0307
X5.4053Y-3.8401
X5.4059Y-3.0085
X5.4196Y-3.6078
X5.4205Y-3.2047
X5.4205Y-3.4882
X5.4205Y-3.5501
X5.4205Y-3.6772
X5.4205Y-3.3281
X5.4636Y-2.9899
X5.4637Y-2.9685
X5.4738Y-3.0725
X5.4743Y-3.0517
X5.4832Y-3.3312
X5.4835Y-3.2047
X5.4835Y-3.5481
X5.4835Y-3.6772
X5.4952Y-3.079
X5.5047Y-2.7034
X5.513Y-3.2362
X5.5132Y-3.2047
X5.5155Y-3.5481
X5.5447Y-3.3281
X5.5458Y-3.2693
X5.5462Y-3.5997
X5.5463Y-3.2353
X5.5465Y-3.2047
X5.5465Y-3.3622
X5.5465Y-3.4567
X5.5465Y-3.5197
X5.5465Y-3.6772
X5.5504Y-2.9796
X5.553Y-2.9478
X5.5622Y-3.8425
X5.5647Y-3.014
X5.5773Y-3.2365
X5.578Y-3.3622
X5.578Y-3.3937
X5.578Y-3.4882
X5.578Y-3.6457
X5.6061Y-3.0517
X5.6092Y-3.2677
X5.6094Y-3.2992
X5.6094Y-3.5827
X5.6094Y-3.7087
X5.6094Y-3.7402
X5.6095Y-3.2043
X5.6097Y-3.2345
X5.6237Y-3.1017
X5.6264Y-3.0794
X5.6401Y-3.2677
X5.6405Y-3.6778
X5.6409Y-3.488
X5.6409Y-3.2992
X5.6409Y-3.4252
X5.6409Y-3.5827
X5.6409Y-3.6142
X5.641Y-3.5513
X5.6427Y-3.2038
X5.643Y-3.2365
X5.6555Y-2.5143
X5.6718Y-3.6172
X5.6723Y-3.5195
X5.6723Y-3.5538
X5.6724Y-3.3937
X5.6724Y-3.5827
X5.6726Y-3.4876
X5.6733Y-3.2677
X5.6733Y-3.3621
X5.6734Y-3.2983
X5.6734Y-3.3316
X5.6737Y-3.6452
X5.676Y-3.2045
X5.6762Y-3.2362
X5.7007Y-3.0144
X5.7034Y-3.5524
X5.7035Y-3.3611
X5.7037Y-3.3944
X5.7038Y-3.4891
X5.7039Y-3.2009
X5.704Y-3.6448
X5.7043Y-3.2341
X5.7044Y-3.5856
X5.7044Y-3.5191
X5.7045Y-3.4243
X5.7053Y-3.3307
X5.7054Y-3.2674
X5.7054Y-3.3006
X5.7072Y-3.1195
X5.7093Y-2.9367
X5.7351Y-3.362
X5.7354Y-3.2047
X5.7354Y-3.7078
X5.7362Y-3.5856
X5.7415Y-3.118
X5.7512Y-2.9921
X5.7512Y-3.0333
X5.767Y-3.1425
X5.7787Y-3.0127
X5.7813Y-4.0729
X5.7947Y-2.8031
X5.7956Y-3.5422
X5.8145Y-3.3501
X5.8148Y-3.4401
X5.819Y-3.1857
X5.8239Y-3.7531
X5.8261Y-2.8089
X5.8268Y-3.2661
X5.8375Y-3.0621
X5.8385Y-3.1787
X5.8456Y-2.7409
X5.8508Y-3.2244
X5.8539Y-3.4401
X5.8551Y-3.1912
X5.8562Y-3.7665
X5.8614Y-3.278
X5.8714Y-2.497
X5.8773Y-3.755
X5.8849Y-2.7409
X5.8866Y-3.4069
X5.8878Y-3.1838
X5.8965Y-3.2215
X5.8975Y-3.75
X5.8995Y-3.2009
X5.9067Y-2.8083
X5.9165Y-3.7417
X5.9191Y-3.7212
X5.9405Y-3.7139
X5.9802Y-4.0752
X6.0038Y-3.1179
X6.0363Y-2.7037
X6.0647Y-2.7281
X6.076Y-2.545
X6.0943Y-2.8514
X6.1082Y-2.8254
X6.2487Y-4.2254
X6.4282Y-3.878
X6.4531Y-2.8209
X6.4738Y-2.5093
X6.5098Y-3.8355
X6.5622Y-2.7875
X6.6207Y-3.1145
X6.6735Y-4.2501
X6.6991Y-4.1601
X6.7001Y-2.739
X6.7047Y-2.6831
X6.7051Y-3.3638
X6.7072Y-4.2239
X6.7219Y-2.9317
X6.7303Y-2.6821
X6.7536Y-3.9624
X6.7793Y-3.9805
X6.7939Y-3.4536
X6.801Y-2.9271
X6.8016Y-4.002
X6.8045Y-3.9213
X6.8063Y-3.8826
X6.8165Y-3.4486
X6.9093Y-2.8133
X6.9412Y-4.0661
X6.9793Y-4.137
X6.9797Y-3.7681
X7.005Y-3.5359
X7.0611Y-3.4988
X7.092Y-3.0342
X7.1919Y-4.3952
T2
X4.7235Y-3.7564
X4.7494Y-3.7393
X5.2539Y-4.0249
X5.2785Y-4.0454
X5.3575Y-3.3307
X5.3575Y-3.3622
X5.3587Y-3.425
X5.4205Y-3.4252
X5.4829Y-3.6069
X5.4835Y-3.4252
X5.4835Y-3.4882
X5.5529Y-3.425
X5.782Y-3.8038
X5.8014Y-3.6701
X5.8084Y-3.7761
X5.8234Y-3.6639
T3
X4.0437Y-3.8817
X4.1047Y-3.9681
X6.0889Y-3.2072
X6.0916Y-3.7012
X6.1448Y-3.7137
X6.1521Y-3.2027
X6.2472Y-3.1973
X6.3413Y-3.1975
X6.4339Y-3.1937
X6.4859Y-3.1941
T4
X4.3541Y-4.277
T5
X4.0131Y-3.2514
X4.1897Y-2.6895
X4.2116Y-2.5572
X4.3697Y-3.5181
X4.6016Y-2.5513
X4.7977Y-4.135
X5.8347Y-3.1212
X5.9747Y-3.9281
X6.151Y-2.62
X6.2047Y-2.4781
X6.2297Y-3.7307
X6.334Y-3.7399
X6.417Y-3.7331
X6.4824Y-3.7333
X6.5125Y-2.5573
X6.5452Y-3.1263
X6.5465Y-3.7323
X6.549Y-3.0503
X6.898Y-2.557
X6.9478Y-3.7035
X6.9776Y-3.2394
T7
X3.7547Y-2.4681
X3.7547Y-2.5681
X3.7547Y-2.6681
X3.7547Y-2.7681
X3.7547Y-2.8681
X3.7547Y-2.9681
X3.7547Y-3.0681
X3.7547Y-3.1681
X3.7547Y-3.2681
X3.7547Y-3.3681
X3.7547Y-3.4681
X3.7547Y-3.5681
X3.7547Y-3.6681
X3.7547Y-3.7681
X3.7547Y-3.8681
X3.7547Y-3.9681
X3.7547Y-4.0681
X3.7547Y-4.1681
X3.7547Y-4.2681
X3.7547Y-4.3681
X3.8547Y-2.4681
X3.8547Y-2.5681
X3.8547Y-2.6681
X3.8547Y-2.7681
X3.8547Y-2.8681
X3.8547Y-2.9681
X3.8547Y-3.0681
X3.8547Y-3.1681
X3.8547Y-3.2681
X3.8547Y-3.3681
X3.8547Y-3.4681
X3.8547Y-3.5681
X3.8547Y-3.6681
X3.8547Y-3.7681
X3.8547Y-3.8681
X3.8547Y-3.9681
X3.8547Y-4.0681
X3.8547Y-4.1681
X3.8547Y-4.2681
X3.8547Y-4.3681
X4.0047Y-3.7581
X4.1047Y-3.7581
X5.2047Y-3.9681
X5.3047Y-3.9681
X5.4047Y-3.9681
X5.4297Y-4.1181
X5.4297Y-4.2181
X5.4297Y-4.3181
X5.5047Y-3.9681
X5.5297Y-4.1181
X5.5297Y-4.2181
X5.5297Y-4.3181
X5.6047Y-3.9681
X5.7047Y-3.9681
X5.8047Y-3.9681
X7.2547Y-2.4681
X7.2547Y-2.5681
X7.2547Y-2.6681
X7.2547Y-2.7681
X7.2547Y-2.8681
X7.2547Y-2.9681
X7.2547Y-3.0681
X7.2547Y-3.1681
X7.2547Y-3.2681
X7.2547Y-3.3681
X7.2547Y-3.4681
X7.2547Y-3.5681
X7.2547Y-3.6681
X7.2547Y-3.7681
X7.2547Y-3.8681
X7.2547Y-3.9681
X7.2547Y-4.0681
X7.2547Y-4.1681
X7.2547Y-4.2681
X7.2547Y-4.3681
X7.3547Y-2.4681
X7.3547Y-2.5681
X7.3547Y-2.6681
X7.3547Y-2.7681
X7.3547Y-2.8681
X7.3547Y-2.9681
X7.3547Y-3.0681
X7.3547Y-3.1681
X7.3547Y-3.2681
X7.3547Y-3.3681
X7.3547Y-3.4681
X7.3547Y-3.5681
X7.3547Y-3.6681
X7.3547Y-3.7681
X7.3547Y-3.8681
X7.3547Y-3.9681
X7.3547Y-4.0681
X7.3547Y-4.1681
X7.3547Y-4.2681
X7.3547Y-4.3681
T8
X4.0547Y-2.5681
X4.0547Y-4.2681
X7.0547Y-2.5681
X7.0547Y-4.2681
T9
X4.9047Y-2.6197
X4.9047Y-2.8953
T6
X5.4205Y-2.5591G85X5.4205Y-2.5984
G05
X5.4205Y-2.7894G85X5.4205Y-2.8445
G05
X5.9953Y-2.5591G85X5.9953Y-2.5984
G05
X5.9953Y-2.7894G85X5.9953Y-2.8445
G05
T0
M30
