G04 #@! TF.GenerationSoftware,KiCad,Pcbnew,5.0.0-rc2-dev-unknown+dfsg1+20180318-2*
G04 #@! TF.CreationDate,2018-05-15T23:44:12+02:00*
G04 #@! TF.ProjectId,ulx3s,756C7833732E6B696361645F70636200,rev?*
G04 #@! TF.SameCoordinates,Original*
G04 #@! TF.FileFunction,Legend,Top*
G04 #@! TF.FilePolarity,Positive*
%FSLAX46Y46*%
G04 Gerber Fmt 4.6, Leading zero omitted, Abs format (unit mm)*
G04 Created by KiCad (PCBNEW 5.0.0-rc2-dev-unknown+dfsg1+20180318-2) date Tue May 15 23:44:12 2018*
%MOMM*%
%LPD*%
G01*
G04 APERTURE LIST*
%ADD10C,0.300000*%
%ADD11C,0.200000*%
%ADD12C,0.250000*%
%ADD13C,0.150000*%
%ADD14C,0.120000*%
%ADD15C,0.700000*%
%ADD16C,0.152400*%
%ADD17C,0.124460*%
%ADD18C,0.075000*%
G04 APERTURE END LIST*
D10*
X134560428Y-62144714D02*
X134560428Y-63073285D01*
X133989000Y-62573285D01*
X133989000Y-62787571D01*
X133917571Y-62930428D01*
X133846142Y-63001857D01*
X133703285Y-63073285D01*
X133346142Y-63073285D01*
X133203285Y-63001857D01*
X133131857Y-62930428D01*
X133060428Y-62787571D01*
X133060428Y-62359000D01*
X133131857Y-62216142D01*
X133203285Y-62144714D01*
X133203285Y-63716142D02*
X133131857Y-63787571D01*
X133060428Y-63716142D01*
X133131857Y-63644714D01*
X133203285Y-63716142D01*
X133060428Y-63716142D01*
X134560428Y-64287571D02*
X134560428Y-65216142D01*
X133989000Y-64716142D01*
X133989000Y-64930428D01*
X133917571Y-65073285D01*
X133846142Y-65144714D01*
X133703285Y-65216142D01*
X133346142Y-65216142D01*
X133203285Y-65144714D01*
X133131857Y-65073285D01*
X133060428Y-64930428D01*
X133060428Y-64501857D01*
X133131857Y-64359000D01*
X133203285Y-64287571D01*
X134560428Y-65644714D02*
X133060428Y-66144714D01*
X134560428Y-66644714D01*
X131877571Y-62216142D02*
X131949000Y-62287571D01*
X132020428Y-62430428D01*
X132020428Y-62787571D01*
X131949000Y-62930428D01*
X131877571Y-63001857D01*
X131734714Y-63073285D01*
X131591857Y-63073285D01*
X131377571Y-63001857D01*
X130520428Y-62144714D01*
X130520428Y-63073285D01*
X130663285Y-63716142D02*
X130591857Y-63787571D01*
X130520428Y-63716142D01*
X130591857Y-63644714D01*
X130663285Y-63716142D01*
X130520428Y-63716142D01*
X132020428Y-65144714D02*
X132020428Y-64430428D01*
X131306142Y-64359000D01*
X131377571Y-64430428D01*
X131449000Y-64573285D01*
X131449000Y-64930428D01*
X131377571Y-65073285D01*
X131306142Y-65144714D01*
X131163285Y-65216142D01*
X130806142Y-65216142D01*
X130663285Y-65144714D01*
X130591857Y-65073285D01*
X130520428Y-64930428D01*
X130520428Y-64573285D01*
X130591857Y-64430428D01*
X130663285Y-64359000D01*
X132020428Y-65644714D02*
X130520428Y-66144714D01*
X132020428Y-66644714D01*
X102760000Y-100897142D02*
X103902857Y-100897142D01*
X103331428Y-101468571D02*
X103331428Y-100325714D01*
X104617142Y-100897142D02*
X105760000Y-100897142D01*
X167847714Y-69226571D02*
X168204857Y-70226571D01*
X168562000Y-69226571D01*
X169919142Y-70226571D02*
X169062000Y-70226571D01*
X169490571Y-70226571D02*
X169490571Y-68726571D01*
X169347714Y-68940857D01*
X169204857Y-69083714D01*
X169062000Y-69155142D01*
X170562000Y-70083714D02*
X170633428Y-70155142D01*
X170562000Y-70226571D01*
X170490571Y-70155142D01*
X170562000Y-70083714D01*
X170562000Y-70226571D01*
X171490571Y-69369428D02*
X171347714Y-69298000D01*
X171276285Y-69226571D01*
X171204857Y-69083714D01*
X171204857Y-69012285D01*
X171276285Y-68869428D01*
X171347714Y-68798000D01*
X171490571Y-68726571D01*
X171776285Y-68726571D01*
X171919142Y-68798000D01*
X171990571Y-68869428D01*
X172062000Y-69012285D01*
X172062000Y-69083714D01*
X171990571Y-69226571D01*
X171919142Y-69298000D01*
X171776285Y-69369428D01*
X171490571Y-69369428D01*
X171347714Y-69440857D01*
X171276285Y-69512285D01*
X171204857Y-69655142D01*
X171204857Y-69940857D01*
X171276285Y-70083714D01*
X171347714Y-70155142D01*
X171490571Y-70226571D01*
X171776285Y-70226571D01*
X171919142Y-70155142D01*
X171990571Y-70083714D01*
X172062000Y-69940857D01*
X172062000Y-69655142D01*
X171990571Y-69512285D01*
X171919142Y-69440857D01*
X171776285Y-69369428D01*
X172704857Y-70083714D02*
X172776285Y-70155142D01*
X172704857Y-70226571D01*
X172633428Y-70155142D01*
X172704857Y-70083714D01*
X172704857Y-70226571D01*
X173347714Y-68869428D02*
X173419142Y-68798000D01*
X173562000Y-68726571D01*
X173919142Y-68726571D01*
X174062000Y-68798000D01*
X174133428Y-68869428D01*
X174204857Y-69012285D01*
X174204857Y-69155142D01*
X174133428Y-69369428D01*
X173276285Y-70226571D01*
X174204857Y-70226571D01*
X182492000Y-87582000D02*
X182492000Y-88598000D01*
X181984000Y-88090000D02*
X183254000Y-88090000D01*
X182492000Y-110442000D02*
X182492000Y-111458000D01*
X183254000Y-110950000D02*
X181984000Y-110950000D01*
X99688000Y-110442000D02*
X99688000Y-111458000D01*
X98926000Y-110950000D02*
X100196000Y-110950000D01*
X99688000Y-62182000D02*
X99688000Y-63198000D01*
X98926000Y-62690000D02*
X100196000Y-62690000D01*
X99688000Y-85042000D02*
X99688000Y-86058000D01*
X98926000Y-85550000D02*
X100196000Y-85550000D01*
D11*
X97910000Y-63706000D02*
G75*
G03X97910000Y-61674000I0J1016000D01*
G01*
X184270000Y-109934000D02*
G75*
G03X184270000Y-111966000I0J-1016000D01*
G01*
X95370000Y-111966000D02*
X97910000Y-111966000D01*
X95370000Y-109934000D02*
X97910000Y-109934000D01*
X97910000Y-111966000D02*
G75*
G03X97910000Y-109934000I0J1016000D01*
G01*
X95370000Y-109934000D02*
G75*
G03X95370000Y-111966000I0J-1016000D01*
G01*
X95370000Y-61674000D02*
X97910000Y-61674000D01*
X95370000Y-63706000D02*
X97910000Y-63706000D01*
X95370000Y-61674000D02*
G75*
G03X95370000Y-63706000I0J-1016000D01*
G01*
X95370000Y-84534000D02*
X97910000Y-84534000D01*
X95370000Y-86566000D02*
X97910000Y-86566000D01*
X95370000Y-84534000D02*
G75*
G03X95370000Y-86566000I0J-1016000D01*
G01*
X97910000Y-86566000D02*
G75*
G03X97910000Y-84534000I0J1016000D01*
G01*
X187826000Y-62690000D02*
G75*
G03X187826000Y-62690000I-1016000J0D01*
G01*
X184270000Y-89106000D02*
X186810000Y-89106000D01*
X184270000Y-87074000D02*
X186810000Y-87074000D01*
X184270000Y-87074000D02*
G75*
G03X184270000Y-89106000I0J-1016000D01*
G01*
X186810000Y-89106000D02*
G75*
G03X186810000Y-87074000I0J1016000D01*
G01*
X186810000Y-111966000D02*
X184270000Y-111966000D01*
X186810000Y-109934000D02*
X184270000Y-109934000D01*
X186810000Y-111966000D02*
G75*
G03X186810000Y-109934000I0J1016000D01*
G01*
X94354000Y-66246000D02*
X94354000Y-64214000D01*
X98926000Y-66246000D02*
X94354000Y-66246000D01*
X98926000Y-64214000D02*
X98926000Y-66246000D01*
X94354000Y-64214000D02*
X98926000Y-64214000D01*
X94354000Y-87074000D02*
X98926000Y-87074000D01*
X94354000Y-89106000D02*
X94354000Y-87074000D01*
X98926000Y-89106000D02*
X94354000Y-89106000D01*
X98926000Y-87074000D02*
X98926000Y-89106000D01*
X94354000Y-109426000D02*
X98926000Y-109426000D01*
X94354000Y-107394000D02*
X94354000Y-109426000D01*
X98926000Y-107394000D02*
X94354000Y-107394000D01*
X98926000Y-109426000D02*
X98926000Y-107394000D01*
X183254000Y-109426000D02*
X187826000Y-109426000D01*
X183254000Y-107394000D02*
X183254000Y-109426000D01*
X187826000Y-107394000D02*
X187826000Y-109426000D01*
X183254000Y-107394000D02*
X187826000Y-107394000D01*
X183254000Y-66246000D02*
X187826000Y-66246000D01*
X183254000Y-64214000D02*
X183254000Y-66246000D01*
X187826000Y-64214000D02*
X183254000Y-64214000D01*
X187826000Y-66246000D02*
X187826000Y-64214000D01*
X183254000Y-84534000D02*
X187826000Y-84534000D01*
X183254000Y-86566000D02*
X183254000Y-84534000D01*
X187826000Y-86566000D02*
X183254000Y-86566000D01*
X187826000Y-84534000D02*
X187826000Y-86566000D01*
D12*
X96148000Y-69111428D02*
X96909904Y-69111428D01*
X96528952Y-69492380D02*
X96528952Y-68730476D01*
X97386095Y-69111428D02*
X98148000Y-69111428D01*
X96148000Y-81811428D02*
X96909904Y-81811428D01*
X96528952Y-82192380D02*
X96528952Y-81430476D01*
X97386095Y-81811428D02*
X98148000Y-81811428D01*
X96148000Y-91971428D02*
X96909904Y-91971428D01*
X96528952Y-92352380D02*
X96528952Y-91590476D01*
X97386095Y-91971428D02*
X98148000Y-91971428D01*
X96148000Y-104671428D02*
X96909904Y-104671428D01*
X96528952Y-105052380D02*
X96528952Y-104290476D01*
X97386095Y-104671428D02*
X98148000Y-104671428D01*
X184032000Y-104671428D02*
X184793904Y-104671428D01*
X185270095Y-104671428D02*
X186032000Y-104671428D01*
X185651047Y-105052380D02*
X185651047Y-104290476D01*
X184032000Y-91971428D02*
X184793904Y-91971428D01*
X185270095Y-91971428D02*
X186032000Y-91971428D01*
X185651047Y-92352380D02*
X185651047Y-91590476D01*
X184032000Y-81811428D02*
X184793904Y-81811428D01*
X185270095Y-81811428D02*
X186032000Y-81811428D01*
X185651047Y-82192380D02*
X185651047Y-81430476D01*
X184032000Y-69111428D02*
X184793904Y-69111428D01*
X185270095Y-69111428D02*
X186032000Y-69111428D01*
X185651047Y-69492380D02*
X185651047Y-68730476D01*
D10*
X176420000Y-72957142D02*
X177562857Y-72957142D01*
X178277142Y-72957142D02*
X179420000Y-72957142D01*
X178848571Y-73528571D02*
X178848571Y-72385714D01*
D11*
X187826000Y-67770000D02*
G75*
G03X187826000Y-67770000I-1016000J0D01*
G01*
X187826000Y-70310000D02*
G75*
G03X187826000Y-70310000I-1016000J0D01*
G01*
X187826000Y-72850000D02*
G75*
G03X187826000Y-72850000I-1016000J0D01*
G01*
X187826000Y-75390000D02*
G75*
G03X187826000Y-75390000I-1016000J0D01*
G01*
X187826000Y-77930000D02*
G75*
G03X187826000Y-77930000I-1016000J0D01*
G01*
X187826000Y-80470000D02*
G75*
G03X187826000Y-80470000I-1016000J0D01*
G01*
X187826000Y-83010000D02*
G75*
G03X187826000Y-83010000I-1016000J0D01*
G01*
X187826000Y-90630000D02*
G75*
G03X187826000Y-90630000I-1016000J0D01*
G01*
X187826000Y-93170000D02*
G75*
G03X187826000Y-93170000I-1016000J0D01*
G01*
X187826000Y-95710000D02*
G75*
G03X187826000Y-95710000I-1016000J0D01*
G01*
X187826000Y-98250000D02*
G75*
G03X187826000Y-98250000I-1016000J0D01*
G01*
X187826000Y-100790000D02*
G75*
G03X187826000Y-100790000I-1016000J0D01*
G01*
X187826000Y-103330000D02*
G75*
G03X187826000Y-103330000I-1016000J0D01*
G01*
X187826000Y-105870000D02*
G75*
G03X187826000Y-105870000I-1016000J0D01*
G01*
X96386000Y-105870000D02*
G75*
G03X96386000Y-105870000I-1016000J0D01*
G01*
X96386000Y-103330000D02*
G75*
G03X96386000Y-103330000I-1016000J0D01*
G01*
X96386000Y-100790000D02*
G75*
G03X96386000Y-100790000I-1016000J0D01*
G01*
X96386000Y-98250000D02*
G75*
G03X96386000Y-98250000I-1016000J0D01*
G01*
X96386000Y-95710000D02*
G75*
G03X96386000Y-95710000I-1016000J0D01*
G01*
X96386000Y-93170000D02*
G75*
G03X96386000Y-93170000I-1016000J0D01*
G01*
X96386000Y-90630000D02*
G75*
G03X96386000Y-90630000I-1016000J0D01*
G01*
X96386000Y-83010000D02*
G75*
G03X96386000Y-83010000I-1016000J0D01*
G01*
X96386000Y-80470000D02*
G75*
G03X96386000Y-80470000I-1016000J0D01*
G01*
X96386000Y-77930000D02*
G75*
G03X96386000Y-77930000I-1016000J0D01*
G01*
X96386000Y-75390000D02*
G75*
G03X96386000Y-75390000I-1016000J0D01*
G01*
X96386000Y-72850000D02*
G75*
G03X96386000Y-72850000I-1016000J0D01*
G01*
X96386000Y-70310000D02*
G75*
G03X96386000Y-70310000I-1016000J0D01*
G01*
X96386000Y-67770000D02*
G75*
G03X96386000Y-67770000I-1016000J0D01*
G01*
D10*
X177793142Y-84800000D02*
X177650285Y-84728571D01*
X177436000Y-84728571D01*
X177221714Y-84800000D01*
X177078857Y-84942857D01*
X177007428Y-85085714D01*
X176936000Y-85371428D01*
X176936000Y-85585714D01*
X177007428Y-85871428D01*
X177078857Y-86014285D01*
X177221714Y-86157142D01*
X177436000Y-86228571D01*
X177578857Y-86228571D01*
X177793142Y-86157142D01*
X177864571Y-86085714D01*
X177864571Y-85585714D01*
X177578857Y-85585714D01*
X178507428Y-86228571D02*
X178507428Y-84728571D01*
X179364571Y-86228571D01*
X179364571Y-84728571D01*
X180078857Y-86228571D02*
X180078857Y-84728571D01*
X180436000Y-84728571D01*
X180650285Y-84800000D01*
X180793142Y-84942857D01*
X180864571Y-85085714D01*
X180936000Y-85371428D01*
X180936000Y-85585714D01*
X180864571Y-85871428D01*
X180793142Y-86014285D01*
X180650285Y-86157142D01*
X180436000Y-86228571D01*
X180078857Y-86228571D01*
X182492000Y-86058000D02*
X182492000Y-85042000D01*
X183254000Y-85550000D02*
X182492000Y-85550000D01*
X182492000Y-107902000D02*
X182492000Y-108918000D01*
X182492000Y-108410000D02*
X183254000Y-108410000D01*
D12*
X182047523Y-106322380D02*
X181476095Y-106322380D01*
X181761809Y-106322380D02*
X181761809Y-105322380D01*
X181666571Y-105465238D01*
X181571333Y-105560476D01*
X181476095Y-105608095D01*
X182904666Y-105655714D02*
X182904666Y-106322380D01*
X182666571Y-105274761D02*
X182428476Y-105989047D01*
X183047523Y-105989047D01*
X181476095Y-67317619D02*
X181523714Y-67270000D01*
X181618952Y-67222380D01*
X181857047Y-67222380D01*
X181952285Y-67270000D01*
X181999904Y-67317619D01*
X182047523Y-67412857D01*
X182047523Y-67508095D01*
X181999904Y-67650952D01*
X181428476Y-68222380D01*
X182047523Y-68222380D01*
X182380857Y-67222380D02*
X183047523Y-67222380D01*
X182618952Y-68222380D01*
D10*
X182492000Y-64722000D02*
X182492000Y-65738000D01*
X182492000Y-65230000D02*
X183254000Y-65230000D01*
X99688000Y-107902000D02*
X99688000Y-108918000D01*
X98926000Y-108410000D02*
X99688000Y-108410000D01*
X99315000Y-74568571D02*
X100243571Y-74568571D01*
X99743571Y-75140000D01*
X99957857Y-75140000D01*
X100100714Y-75211428D01*
X100172142Y-75282857D01*
X100243571Y-75425714D01*
X100243571Y-75782857D01*
X100172142Y-75925714D01*
X100100714Y-75997142D01*
X99957857Y-76068571D01*
X99529285Y-76068571D01*
X99386428Y-75997142D01*
X99315000Y-75925714D01*
X100100714Y-77608571D02*
X100100714Y-78608571D01*
X99743571Y-77037142D02*
X99386428Y-78108571D01*
X100315000Y-78108571D01*
X100172142Y-79648571D02*
X99457857Y-79648571D01*
X99386428Y-80362857D01*
X99457857Y-80291428D01*
X99600714Y-80220000D01*
X99957857Y-80220000D01*
X100100714Y-80291428D01*
X100172142Y-80362857D01*
X100243571Y-80505714D01*
X100243571Y-80862857D01*
X100172142Y-81005714D01*
X100100714Y-81077142D01*
X99957857Y-81148571D01*
X99600714Y-81148571D01*
X99457857Y-81077142D01*
X99386428Y-81005714D01*
D12*
X99751523Y-106322380D02*
X99180095Y-106322380D01*
X99465809Y-106322380D02*
X99465809Y-105322380D01*
X99370571Y-105465238D01*
X99275333Y-105560476D01*
X99180095Y-105608095D01*
X100084857Y-105322380D02*
X100703904Y-105322380D01*
X100370571Y-105703333D01*
X100513428Y-105703333D01*
X100608666Y-105750952D01*
X100656285Y-105798571D01*
X100703904Y-105893809D01*
X100703904Y-106131904D01*
X100656285Y-106227142D01*
X100608666Y-106274761D01*
X100513428Y-106322380D01*
X100227714Y-106322380D01*
X100132476Y-106274761D01*
X100084857Y-106227142D01*
D10*
X99315000Y-89808571D02*
X100315000Y-89808571D01*
X99672142Y-91308571D01*
X99688000Y-87582000D02*
X99688000Y-88598000D01*
X98926000Y-88090000D02*
X99688000Y-88090000D01*
X99688000Y-64722000D02*
X99688000Y-65738000D01*
X98926000Y-65230000D02*
X99688000Y-65230000D01*
D12*
X100817976Y-61874619D02*
X100865595Y-61827000D01*
X100960833Y-61779380D01*
X101198928Y-61779380D01*
X101294166Y-61827000D01*
X101341785Y-61874619D01*
X101389404Y-61969857D01*
X101389404Y-62065095D01*
X101341785Y-62207952D01*
X100770357Y-62779380D01*
X101389404Y-62779380D01*
X101817976Y-62684142D02*
X101865595Y-62731761D01*
X101817976Y-62779380D01*
X101770357Y-62731761D01*
X101817976Y-62684142D01*
X101817976Y-62779380D01*
X102770357Y-61779380D02*
X102294166Y-61779380D01*
X102246547Y-62255571D01*
X102294166Y-62207952D01*
X102389404Y-62160333D01*
X102627500Y-62160333D01*
X102722738Y-62207952D01*
X102770357Y-62255571D01*
X102817976Y-62350809D01*
X102817976Y-62588904D01*
X102770357Y-62684142D01*
X102722738Y-62731761D01*
X102627500Y-62779380D01*
X102389404Y-62779380D01*
X102294166Y-62731761D01*
X102246547Y-62684142D01*
X103960833Y-61731761D02*
X103103690Y-63017476D01*
X104198928Y-61779380D02*
X104817976Y-61779380D01*
X104484642Y-62160333D01*
X104627500Y-62160333D01*
X104722738Y-62207952D01*
X104770357Y-62255571D01*
X104817976Y-62350809D01*
X104817976Y-62588904D01*
X104770357Y-62684142D01*
X104722738Y-62731761D01*
X104627500Y-62779380D01*
X104341785Y-62779380D01*
X104246547Y-62731761D01*
X104198928Y-62684142D01*
X105246547Y-62684142D02*
X105294166Y-62731761D01*
X105246547Y-62779380D01*
X105198928Y-62731761D01*
X105246547Y-62684142D01*
X105246547Y-62779380D01*
X105627500Y-61779380D02*
X106246547Y-61779380D01*
X105913214Y-62160333D01*
X106056071Y-62160333D01*
X106151309Y-62207952D01*
X106198928Y-62255571D01*
X106246547Y-62350809D01*
X106246547Y-62588904D01*
X106198928Y-62684142D01*
X106151309Y-62731761D01*
X106056071Y-62779380D01*
X105770357Y-62779380D01*
X105675119Y-62731761D01*
X105627500Y-62684142D01*
X106532261Y-61779380D02*
X106865595Y-62779380D01*
X107198928Y-61779380D01*
X178360261Y-110910380D02*
X178979309Y-110910380D01*
X178645976Y-111291333D01*
X178788833Y-111291333D01*
X178884071Y-111338952D01*
X178931690Y-111386571D01*
X178979309Y-111481809D01*
X178979309Y-111719904D01*
X178931690Y-111815142D01*
X178884071Y-111862761D01*
X178788833Y-111910380D01*
X178503119Y-111910380D01*
X178407880Y-111862761D01*
X178360261Y-111815142D01*
X179407880Y-111815142D02*
X179455500Y-111862761D01*
X179407880Y-111910380D01*
X179360261Y-111862761D01*
X179407880Y-111815142D01*
X179407880Y-111910380D01*
X179788833Y-110910380D02*
X180407880Y-110910380D01*
X180074547Y-111291333D01*
X180217404Y-111291333D01*
X180312642Y-111338952D01*
X180360261Y-111386571D01*
X180407880Y-111481809D01*
X180407880Y-111719904D01*
X180360261Y-111815142D01*
X180312642Y-111862761D01*
X180217404Y-111910380D01*
X179931690Y-111910380D01*
X179836452Y-111862761D01*
X179788833Y-111815142D01*
X180693595Y-110910380D02*
X181026928Y-111910380D01*
X181360261Y-110910380D01*
D10*
X101199714Y-84381428D02*
X101271142Y-84310000D01*
X101414000Y-84238571D01*
X101771142Y-84238571D01*
X101914000Y-84310000D01*
X101985428Y-84381428D01*
X102056857Y-84524285D01*
X102056857Y-84667142D01*
X101985428Y-84881428D01*
X101128285Y-85738571D01*
X102056857Y-85738571D01*
X102699714Y-85595714D02*
X102771142Y-85667142D01*
X102699714Y-85738571D01*
X102628285Y-85667142D01*
X102699714Y-85595714D01*
X102699714Y-85738571D01*
X104128285Y-84238571D02*
X103414000Y-84238571D01*
X103342571Y-84952857D01*
X103414000Y-84881428D01*
X103556857Y-84810000D01*
X103914000Y-84810000D01*
X104056857Y-84881428D01*
X104128285Y-84952857D01*
X104199714Y-85095714D01*
X104199714Y-85452857D01*
X104128285Y-85595714D01*
X104056857Y-85667142D01*
X103914000Y-85738571D01*
X103556857Y-85738571D01*
X103414000Y-85667142D01*
X103342571Y-85595714D01*
X105914000Y-84167142D02*
X104628285Y-86095714D01*
X106271142Y-84238571D02*
X107199714Y-84238571D01*
X106699714Y-84810000D01*
X106914000Y-84810000D01*
X107056857Y-84881428D01*
X107128285Y-84952857D01*
X107199714Y-85095714D01*
X107199714Y-85452857D01*
X107128285Y-85595714D01*
X107056857Y-85667142D01*
X106914000Y-85738571D01*
X106485428Y-85738571D01*
X106342571Y-85667142D01*
X106271142Y-85595714D01*
X107842571Y-85595714D02*
X107914000Y-85667142D01*
X107842571Y-85738571D01*
X107771142Y-85667142D01*
X107842571Y-85595714D01*
X107842571Y-85738571D01*
X108414000Y-84238571D02*
X109342571Y-84238571D01*
X108842571Y-84810000D01*
X109056857Y-84810000D01*
X109199714Y-84881428D01*
X109271142Y-84952857D01*
X109342571Y-85095714D01*
X109342571Y-85452857D01*
X109271142Y-85595714D01*
X109199714Y-85667142D01*
X109056857Y-85738571D01*
X108628285Y-85738571D01*
X108485428Y-85667142D01*
X108414000Y-85595714D01*
X109771142Y-84238571D02*
X110271142Y-85738571D01*
X110771142Y-84238571D01*
D12*
X100817976Y-111023619D02*
X100865595Y-110976000D01*
X100960833Y-110928380D01*
X101198928Y-110928380D01*
X101294166Y-110976000D01*
X101341785Y-111023619D01*
X101389404Y-111118857D01*
X101389404Y-111214095D01*
X101341785Y-111356952D01*
X100770357Y-111928380D01*
X101389404Y-111928380D01*
X101817976Y-111833142D02*
X101865595Y-111880761D01*
X101817976Y-111928380D01*
X101770357Y-111880761D01*
X101817976Y-111833142D01*
X101817976Y-111928380D01*
X102770357Y-110928380D02*
X102294166Y-110928380D01*
X102246547Y-111404571D01*
X102294166Y-111356952D01*
X102389404Y-111309333D01*
X102627500Y-111309333D01*
X102722738Y-111356952D01*
X102770357Y-111404571D01*
X102817976Y-111499809D01*
X102817976Y-111737904D01*
X102770357Y-111833142D01*
X102722738Y-111880761D01*
X102627500Y-111928380D01*
X102389404Y-111928380D01*
X102294166Y-111880761D01*
X102246547Y-111833142D01*
X103960833Y-110880761D02*
X103103690Y-112166476D01*
X104198928Y-110928380D02*
X104817976Y-110928380D01*
X104484642Y-111309333D01*
X104627500Y-111309333D01*
X104722738Y-111356952D01*
X104770357Y-111404571D01*
X104817976Y-111499809D01*
X104817976Y-111737904D01*
X104770357Y-111833142D01*
X104722738Y-111880761D01*
X104627500Y-111928380D01*
X104341785Y-111928380D01*
X104246547Y-111880761D01*
X104198928Y-111833142D01*
X105246547Y-111833142D02*
X105294166Y-111880761D01*
X105246547Y-111928380D01*
X105198928Y-111880761D01*
X105246547Y-111833142D01*
X105246547Y-111928380D01*
X105627500Y-110928380D02*
X106246547Y-110928380D01*
X105913214Y-111309333D01*
X106056071Y-111309333D01*
X106151309Y-111356952D01*
X106198928Y-111404571D01*
X106246547Y-111499809D01*
X106246547Y-111737904D01*
X106198928Y-111833142D01*
X106151309Y-111880761D01*
X106056071Y-111928380D01*
X105770357Y-111928380D01*
X105675119Y-111880761D01*
X105627500Y-111833142D01*
X106532261Y-110928380D02*
X106865595Y-111928380D01*
X107198928Y-110928380D01*
X182047523Y-62015380D02*
X181571333Y-62015380D01*
X181523714Y-62491571D01*
X181571333Y-62443952D01*
X181666571Y-62396333D01*
X181904666Y-62396333D01*
X181999904Y-62443952D01*
X182047523Y-62491571D01*
X182095142Y-62586809D01*
X182095142Y-62824904D01*
X182047523Y-62920142D01*
X181999904Y-62967761D01*
X181904666Y-63015380D01*
X181666571Y-63015380D01*
X181571333Y-62967761D01*
X181523714Y-62920142D01*
X182380857Y-62015380D02*
X182714190Y-63015380D01*
X183047523Y-62015380D01*
D10*
X180587142Y-69631428D02*
X180658571Y-69560000D01*
X180801428Y-69488571D01*
X181158571Y-69488571D01*
X181301428Y-69560000D01*
X181372857Y-69631428D01*
X181444285Y-69774285D01*
X181444285Y-69917142D01*
X181372857Y-70131428D01*
X180515714Y-70988571D01*
X181444285Y-70988571D01*
X182730000Y-69488571D02*
X182444285Y-69488571D01*
X182301428Y-69560000D01*
X182230000Y-69631428D01*
X182087142Y-69845714D01*
X182015714Y-70131428D01*
X182015714Y-70702857D01*
X182087142Y-70845714D01*
X182158571Y-70917142D01*
X182301428Y-70988571D01*
X182587142Y-70988571D01*
X182730000Y-70917142D01*
X182801428Y-70845714D01*
X182872857Y-70702857D01*
X182872857Y-70345714D01*
X182801428Y-70202857D01*
X182730000Y-70131428D01*
X182587142Y-70060000D01*
X182301428Y-70060000D01*
X182158571Y-70131428D01*
X182087142Y-70202857D01*
X182015714Y-70345714D01*
X180587142Y-72171428D02*
X180658571Y-72100000D01*
X180801428Y-72028571D01*
X181158571Y-72028571D01*
X181301428Y-72100000D01*
X181372857Y-72171428D01*
X181444285Y-72314285D01*
X181444285Y-72457142D01*
X181372857Y-72671428D01*
X180515714Y-73528571D01*
X181444285Y-73528571D01*
X182801428Y-72028571D02*
X182087142Y-72028571D01*
X182015714Y-72742857D01*
X182087142Y-72671428D01*
X182230000Y-72600000D01*
X182587142Y-72600000D01*
X182730000Y-72671428D01*
X182801428Y-72742857D01*
X182872857Y-72885714D01*
X182872857Y-73242857D01*
X182801428Y-73385714D01*
X182730000Y-73457142D01*
X182587142Y-73528571D01*
X182230000Y-73528571D01*
X182087142Y-73457142D01*
X182015714Y-73385714D01*
X180587142Y-74711428D02*
X180658571Y-74640000D01*
X180801428Y-74568571D01*
X181158571Y-74568571D01*
X181301428Y-74640000D01*
X181372857Y-74711428D01*
X181444285Y-74854285D01*
X181444285Y-74997142D01*
X181372857Y-75211428D01*
X180515714Y-76068571D01*
X181444285Y-76068571D01*
X182730000Y-75068571D02*
X182730000Y-76068571D01*
X182372857Y-74497142D02*
X182015714Y-75568571D01*
X182944285Y-75568571D01*
X180587142Y-77251428D02*
X180658571Y-77180000D01*
X180801428Y-77108571D01*
X181158571Y-77108571D01*
X181301428Y-77180000D01*
X181372857Y-77251428D01*
X181444285Y-77394285D01*
X181444285Y-77537142D01*
X181372857Y-77751428D01*
X180515714Y-78608571D01*
X181444285Y-78608571D01*
X181944285Y-77108571D02*
X182872857Y-77108571D01*
X182372857Y-77680000D01*
X182587142Y-77680000D01*
X182730000Y-77751428D01*
X182801428Y-77822857D01*
X182872857Y-77965714D01*
X182872857Y-78322857D01*
X182801428Y-78465714D01*
X182730000Y-78537142D01*
X182587142Y-78608571D01*
X182158571Y-78608571D01*
X182015714Y-78537142D01*
X181944285Y-78465714D01*
X180587142Y-79791428D02*
X180658571Y-79720000D01*
X180801428Y-79648571D01*
X181158571Y-79648571D01*
X181301428Y-79720000D01*
X181372857Y-79791428D01*
X181444285Y-79934285D01*
X181444285Y-80077142D01*
X181372857Y-80291428D01*
X180515714Y-81148571D01*
X181444285Y-81148571D01*
X182015714Y-79791428D02*
X182087142Y-79720000D01*
X182230000Y-79648571D01*
X182587142Y-79648571D01*
X182730000Y-79720000D01*
X182801428Y-79791428D01*
X182872857Y-79934285D01*
X182872857Y-80077142D01*
X182801428Y-80291428D01*
X181944285Y-81148571D01*
X182872857Y-81148571D01*
X180587142Y-82331428D02*
X180658571Y-82260000D01*
X180801428Y-82188571D01*
X181158571Y-82188571D01*
X181301428Y-82260000D01*
X181372857Y-82331428D01*
X181444285Y-82474285D01*
X181444285Y-82617142D01*
X181372857Y-82831428D01*
X180515714Y-83688571D01*
X181444285Y-83688571D01*
X182872857Y-83688571D02*
X182015714Y-83688571D01*
X182444285Y-83688571D02*
X182444285Y-82188571D01*
X182301428Y-82402857D01*
X182158571Y-82545714D01*
X182015714Y-82617142D01*
X176975714Y-87268571D02*
X177904285Y-87268571D01*
X177404285Y-87840000D01*
X177618571Y-87840000D01*
X177761428Y-87911428D01*
X177832857Y-87982857D01*
X177904285Y-88125714D01*
X177904285Y-88482857D01*
X177832857Y-88625714D01*
X177761428Y-88697142D01*
X177618571Y-88768571D01*
X177190000Y-88768571D01*
X177047142Y-88697142D01*
X176975714Y-88625714D01*
X178547142Y-88625714D02*
X178618571Y-88697142D01*
X178547142Y-88768571D01*
X178475714Y-88697142D01*
X178547142Y-88625714D01*
X178547142Y-88768571D01*
X179118571Y-87268571D02*
X180047142Y-87268571D01*
X179547142Y-87840000D01*
X179761428Y-87840000D01*
X179904285Y-87911428D01*
X179975714Y-87982857D01*
X180047142Y-88125714D01*
X180047142Y-88482857D01*
X179975714Y-88625714D01*
X179904285Y-88697142D01*
X179761428Y-88768571D01*
X179332857Y-88768571D01*
X179190000Y-88697142D01*
X179118571Y-88625714D01*
X180475714Y-87268571D02*
X180975714Y-88768571D01*
X181475714Y-87268571D01*
X180587142Y-89951428D02*
X180658571Y-89880000D01*
X180801428Y-89808571D01*
X181158571Y-89808571D01*
X181301428Y-89880000D01*
X181372857Y-89951428D01*
X181444285Y-90094285D01*
X181444285Y-90237142D01*
X181372857Y-90451428D01*
X180515714Y-91308571D01*
X181444285Y-91308571D01*
X182372857Y-89808571D02*
X182515714Y-89808571D01*
X182658571Y-89880000D01*
X182730000Y-89951428D01*
X182801428Y-90094285D01*
X182872857Y-90380000D01*
X182872857Y-90737142D01*
X182801428Y-91022857D01*
X182730000Y-91165714D01*
X182658571Y-91237142D01*
X182515714Y-91308571D01*
X182372857Y-91308571D01*
X182230000Y-91237142D01*
X182158571Y-91165714D01*
X182087142Y-91022857D01*
X182015714Y-90737142D01*
X182015714Y-90380000D01*
X182087142Y-90094285D01*
X182158571Y-89951428D01*
X182230000Y-89880000D01*
X182372857Y-89808571D01*
X181444285Y-93848571D02*
X180587142Y-93848571D01*
X181015714Y-93848571D02*
X181015714Y-92348571D01*
X180872857Y-92562857D01*
X180730000Y-92705714D01*
X180587142Y-92777142D01*
X182158571Y-93848571D02*
X182444285Y-93848571D01*
X182587142Y-93777142D01*
X182658571Y-93705714D01*
X182801428Y-93491428D01*
X182872857Y-93205714D01*
X182872857Y-92634285D01*
X182801428Y-92491428D01*
X182730000Y-92420000D01*
X182587142Y-92348571D01*
X182301428Y-92348571D01*
X182158571Y-92420000D01*
X182087142Y-92491428D01*
X182015714Y-92634285D01*
X182015714Y-92991428D01*
X182087142Y-93134285D01*
X182158571Y-93205714D01*
X182301428Y-93277142D01*
X182587142Y-93277142D01*
X182730000Y-93205714D01*
X182801428Y-93134285D01*
X182872857Y-92991428D01*
X181444285Y-96388571D02*
X180587142Y-96388571D01*
X181015714Y-96388571D02*
X181015714Y-94888571D01*
X180872857Y-95102857D01*
X180730000Y-95245714D01*
X180587142Y-95317142D01*
X182301428Y-95531428D02*
X182158571Y-95460000D01*
X182087142Y-95388571D01*
X182015714Y-95245714D01*
X182015714Y-95174285D01*
X182087142Y-95031428D01*
X182158571Y-94960000D01*
X182301428Y-94888571D01*
X182587142Y-94888571D01*
X182730000Y-94960000D01*
X182801428Y-95031428D01*
X182872857Y-95174285D01*
X182872857Y-95245714D01*
X182801428Y-95388571D01*
X182730000Y-95460000D01*
X182587142Y-95531428D01*
X182301428Y-95531428D01*
X182158571Y-95602857D01*
X182087142Y-95674285D01*
X182015714Y-95817142D01*
X182015714Y-96102857D01*
X182087142Y-96245714D01*
X182158571Y-96317142D01*
X182301428Y-96388571D01*
X182587142Y-96388571D01*
X182730000Y-96317142D01*
X182801428Y-96245714D01*
X182872857Y-96102857D01*
X182872857Y-95817142D01*
X182801428Y-95674285D01*
X182730000Y-95602857D01*
X182587142Y-95531428D01*
X181444285Y-98928571D02*
X180587142Y-98928571D01*
X181015714Y-98928571D02*
X181015714Y-97428571D01*
X180872857Y-97642857D01*
X180730000Y-97785714D01*
X180587142Y-97857142D01*
X181944285Y-97428571D02*
X182944285Y-97428571D01*
X182301428Y-98928571D01*
X181444285Y-101468571D02*
X180587142Y-101468571D01*
X181015714Y-101468571D02*
X181015714Y-99968571D01*
X180872857Y-100182857D01*
X180730000Y-100325714D01*
X180587142Y-100397142D01*
X182730000Y-99968571D02*
X182444285Y-99968571D01*
X182301428Y-100040000D01*
X182230000Y-100111428D01*
X182087142Y-100325714D01*
X182015714Y-100611428D01*
X182015714Y-101182857D01*
X182087142Y-101325714D01*
X182158571Y-101397142D01*
X182301428Y-101468571D01*
X182587142Y-101468571D01*
X182730000Y-101397142D01*
X182801428Y-101325714D01*
X182872857Y-101182857D01*
X182872857Y-100825714D01*
X182801428Y-100682857D01*
X182730000Y-100611428D01*
X182587142Y-100540000D01*
X182301428Y-100540000D01*
X182158571Y-100611428D01*
X182087142Y-100682857D01*
X182015714Y-100825714D01*
X181444285Y-104008571D02*
X180587142Y-104008571D01*
X181015714Y-104008571D02*
X181015714Y-102508571D01*
X180872857Y-102722857D01*
X180730000Y-102865714D01*
X180587142Y-102937142D01*
X182801428Y-102508571D02*
X182087142Y-102508571D01*
X182015714Y-103222857D01*
X182087142Y-103151428D01*
X182230000Y-103080000D01*
X182587142Y-103080000D01*
X182730000Y-103151428D01*
X182801428Y-103222857D01*
X182872857Y-103365714D01*
X182872857Y-103722857D01*
X182801428Y-103865714D01*
X182730000Y-103937142D01*
X182587142Y-104008571D01*
X182230000Y-104008571D01*
X182087142Y-103937142D01*
X182015714Y-103865714D01*
D11*
X186810000Y-66500000D02*
X186810000Y-66754000D01*
X187826000Y-67770000D02*
X188080000Y-67770000D01*
X185540000Y-67770000D02*
X185794000Y-67770000D01*
X186810000Y-69294000D02*
X186810000Y-68786000D01*
X187826000Y-70310000D02*
X188080000Y-70310000D01*
X185540000Y-70310000D02*
X185794000Y-70310000D01*
X186810000Y-71326000D02*
X186810000Y-71834000D01*
X187826000Y-72850000D02*
X188080000Y-72850000D01*
X185540000Y-72850000D02*
X185794000Y-72850000D01*
X186810000Y-73866000D02*
X186810000Y-74374000D01*
X187826000Y-75390000D02*
X188080000Y-75390000D01*
X185540000Y-75390000D02*
X185794000Y-75390000D01*
X186810000Y-76406000D02*
X186810000Y-76914000D01*
X187826000Y-77930000D02*
X188080000Y-77930000D01*
X185540000Y-77930000D02*
X185794000Y-77930000D01*
X186810000Y-79454000D02*
X186810000Y-78946000D01*
X187826000Y-80470000D02*
X188080000Y-80470000D01*
X185540000Y-80470000D02*
X185794000Y-80470000D01*
X186810000Y-81994000D02*
X186810000Y-81486000D01*
X187826000Y-83010000D02*
X188080000Y-83010000D01*
X185540000Y-83010000D02*
X185794000Y-83010000D01*
X186810000Y-84026000D02*
X186810000Y-84280000D01*
X186810000Y-89360000D02*
X186810000Y-89614000D01*
X187826000Y-90630000D02*
X188080000Y-90630000D01*
X185540000Y-90630000D02*
X185794000Y-90630000D01*
X186810000Y-91646000D02*
X186810000Y-92154000D01*
X187826000Y-93170000D02*
X188080000Y-93170000D01*
X185540000Y-93170000D02*
X185794000Y-93170000D01*
X186810000Y-94186000D02*
X186810000Y-94694000D01*
X187826000Y-95710000D02*
X188080000Y-95710000D01*
X185540000Y-95710000D02*
X185794000Y-95710000D01*
X186810000Y-97234000D02*
X186810000Y-96726000D01*
X187826000Y-98250000D02*
X188080000Y-98250000D01*
X185540000Y-98250000D02*
X185794000Y-98250000D01*
X187826000Y-100790000D02*
X188080000Y-100790000D01*
X185540000Y-100790000D02*
X185794000Y-100790000D01*
X186810000Y-99266000D02*
X186810000Y-99774000D01*
X186810000Y-102314000D02*
X186810000Y-101806000D01*
X187826000Y-103330000D02*
X188080000Y-103330000D01*
X185540000Y-103330000D02*
X185794000Y-103330000D01*
X186810000Y-104346000D02*
X186810000Y-104854000D01*
X185540000Y-105870000D02*
X185794000Y-105870000D01*
X187826000Y-105870000D02*
X188080000Y-105870000D01*
X186810000Y-106886000D02*
X186810000Y-107140000D01*
X95370000Y-66754000D02*
X95370000Y-66500000D01*
X96386000Y-67770000D02*
X96640000Y-67770000D01*
X94100000Y-67770000D02*
X94354000Y-67770000D01*
X95370000Y-68786000D02*
X95370000Y-69294000D01*
X96386000Y-70310000D02*
X96640000Y-70310000D01*
X94100000Y-70310000D02*
X94354000Y-70310000D01*
X95370000Y-71326000D02*
X95370000Y-71834000D01*
X96386000Y-72850000D02*
X96640000Y-72850000D01*
X94100000Y-72850000D02*
X94354000Y-72850000D01*
X95370000Y-73866000D02*
X95370000Y-74374000D01*
X96386000Y-75390000D02*
X96640000Y-75390000D01*
X95370000Y-76406000D02*
X95370000Y-76914000D01*
X96386000Y-77930000D02*
X96640000Y-77930000D01*
X94100000Y-77930000D02*
X94354000Y-77930000D01*
X95370000Y-79454000D02*
X95370000Y-78946000D01*
X96386000Y-80470000D02*
X96640000Y-80470000D01*
X94100000Y-80470000D02*
X94354000Y-80470000D01*
X95370000Y-81486000D02*
X95370000Y-81994000D01*
X96386000Y-83010000D02*
X96640000Y-83010000D01*
X95370000Y-84026000D02*
X95370000Y-84280000D01*
X94100000Y-83010000D02*
X94354000Y-83010000D01*
X95370000Y-106886000D02*
X95370000Y-107140000D01*
X95370000Y-89360000D02*
X95370000Y-89614000D01*
X96386000Y-93170000D02*
X96640000Y-93170000D01*
X94100000Y-93170000D02*
X94354000Y-93170000D01*
X95370000Y-94186000D02*
X95370000Y-94694000D01*
X94100000Y-90630000D02*
X94354000Y-90630000D01*
X96386000Y-90630000D02*
X96640000Y-90630000D01*
X95370000Y-92154000D02*
X95370000Y-91646000D01*
X96386000Y-95710000D02*
X96640000Y-95710000D01*
X94100000Y-95710000D02*
X94354000Y-95710000D01*
X96386000Y-98250000D02*
X96640000Y-98250000D01*
X94354000Y-98250000D02*
X94100000Y-98250000D01*
X95370000Y-96726000D02*
X95370000Y-97234000D01*
X95370000Y-99266000D02*
X95370000Y-99774000D01*
X94100000Y-100790000D02*
X94354000Y-100790000D01*
X96386000Y-100790000D02*
X96640000Y-100790000D01*
X94100000Y-103330000D02*
X94354000Y-103330000D01*
X96386000Y-103330000D02*
X96640000Y-103330000D01*
X95370000Y-101806000D02*
X95370000Y-102314000D01*
X95370000Y-104346000D02*
X95370000Y-104854000D01*
X96386000Y-105870000D02*
X96640000Y-105870000D01*
X94100000Y-105870000D02*
X94354000Y-105870000D01*
D10*
X100164285Y-104008571D02*
X99307142Y-104008571D01*
X99735714Y-104008571D02*
X99735714Y-102508571D01*
X99592857Y-102722857D01*
X99450000Y-102865714D01*
X99307142Y-102937142D01*
X100735714Y-102651428D02*
X100807142Y-102580000D01*
X100950000Y-102508571D01*
X101307142Y-102508571D01*
X101450000Y-102580000D01*
X101521428Y-102651428D01*
X101592857Y-102794285D01*
X101592857Y-102937142D01*
X101521428Y-103151428D01*
X100664285Y-104008571D01*
X101592857Y-104008571D01*
X100164285Y-101468571D02*
X99307142Y-101468571D01*
X99735714Y-101468571D02*
X99735714Y-99968571D01*
X99592857Y-100182857D01*
X99450000Y-100325714D01*
X99307142Y-100397142D01*
X101592857Y-101468571D02*
X100735714Y-101468571D01*
X101164285Y-101468571D02*
X101164285Y-99968571D01*
X101021428Y-100182857D01*
X100878571Y-100325714D01*
X100735714Y-100397142D01*
X100164285Y-98928571D02*
X99307142Y-98928571D01*
X99735714Y-98928571D02*
X99735714Y-97428571D01*
X99592857Y-97642857D01*
X99450000Y-97785714D01*
X99307142Y-97857142D01*
X101092857Y-97428571D02*
X101235714Y-97428571D01*
X101378571Y-97500000D01*
X101450000Y-97571428D01*
X101521428Y-97714285D01*
X101592857Y-98000000D01*
X101592857Y-98357142D01*
X101521428Y-98642857D01*
X101450000Y-98785714D01*
X101378571Y-98857142D01*
X101235714Y-98928571D01*
X101092857Y-98928571D01*
X100950000Y-98857142D01*
X100878571Y-98785714D01*
X100807142Y-98642857D01*
X100735714Y-98357142D01*
X100735714Y-98000000D01*
X100807142Y-97714285D01*
X100878571Y-97571428D01*
X100950000Y-97500000D01*
X101092857Y-97428571D01*
X99529285Y-96388571D02*
X99815000Y-96388571D01*
X99957857Y-96317142D01*
X100029285Y-96245714D01*
X100172142Y-96031428D01*
X100243571Y-95745714D01*
X100243571Y-95174285D01*
X100172142Y-95031428D01*
X100100714Y-94960000D01*
X99957857Y-94888571D01*
X99672142Y-94888571D01*
X99529285Y-94960000D01*
X99457857Y-95031428D01*
X99386428Y-95174285D01*
X99386428Y-95531428D01*
X99457857Y-95674285D01*
X99529285Y-95745714D01*
X99672142Y-95817142D01*
X99957857Y-95817142D01*
X100100714Y-95745714D01*
X100172142Y-95674285D01*
X100243571Y-95531428D01*
X99672142Y-92991428D02*
X99529285Y-92920000D01*
X99457857Y-92848571D01*
X99386428Y-92705714D01*
X99386428Y-92634285D01*
X99457857Y-92491428D01*
X99529285Y-92420000D01*
X99672142Y-92348571D01*
X99957857Y-92348571D01*
X100100714Y-92420000D01*
X100172142Y-92491428D01*
X100243571Y-92634285D01*
X100243571Y-92705714D01*
X100172142Y-92848571D01*
X100100714Y-92920000D01*
X99957857Y-92991428D01*
X99672142Y-92991428D01*
X99529285Y-93062857D01*
X99457857Y-93134285D01*
X99386428Y-93277142D01*
X99386428Y-93562857D01*
X99457857Y-93705714D01*
X99529285Y-93777142D01*
X99672142Y-93848571D01*
X99957857Y-93848571D01*
X100100714Y-93777142D01*
X100172142Y-93705714D01*
X100243571Y-93562857D01*
X100243571Y-93277142D01*
X100172142Y-93134285D01*
X100100714Y-93062857D01*
X99957857Y-92991428D01*
X100100714Y-82188571D02*
X99815000Y-82188571D01*
X99672142Y-82260000D01*
X99600714Y-82331428D01*
X99457857Y-82545714D01*
X99386428Y-82831428D01*
X99386428Y-83402857D01*
X99457857Y-83545714D01*
X99529285Y-83617142D01*
X99672142Y-83688571D01*
X99957857Y-83688571D01*
X100100714Y-83617142D01*
X100172142Y-83545714D01*
X100243571Y-83402857D01*
X100243571Y-83045714D01*
X100172142Y-82902857D01*
X100100714Y-82831428D01*
X99957857Y-82760000D01*
X99672142Y-82760000D01*
X99529285Y-82831428D01*
X99457857Y-82902857D01*
X99386428Y-83045714D01*
X99386428Y-72171428D02*
X99457857Y-72100000D01*
X99600714Y-72028571D01*
X99957857Y-72028571D01*
X100100714Y-72100000D01*
X100172142Y-72171428D01*
X100243571Y-72314285D01*
X100243571Y-72457142D01*
X100172142Y-72671428D01*
X99315000Y-73528571D01*
X100243571Y-73528571D01*
X100243571Y-70988571D02*
X99386428Y-70988571D01*
X99815000Y-70988571D02*
X99815000Y-69488571D01*
X99672142Y-69702857D01*
X99529285Y-69845714D01*
X99386428Y-69917142D01*
X99743571Y-66948571D02*
X99886428Y-66948571D01*
X100029285Y-67020000D01*
X100100714Y-67091428D01*
X100172142Y-67234285D01*
X100243571Y-67520000D01*
X100243571Y-67877142D01*
X100172142Y-68162857D01*
X100100714Y-68305714D01*
X100029285Y-68377142D01*
X99886428Y-68448571D01*
X99743571Y-68448571D01*
X99600714Y-68377142D01*
X99529285Y-68305714D01*
X99457857Y-68162857D01*
X99386428Y-67877142D01*
X99386428Y-67520000D01*
X99457857Y-67234285D01*
X99529285Y-67091428D01*
X99600714Y-67020000D01*
X99743571Y-66948571D01*
X129148428Y-75076571D02*
X129148428Y-76290857D01*
X129219857Y-76433714D01*
X129291285Y-76505142D01*
X129434142Y-76576571D01*
X129719857Y-76576571D01*
X129862714Y-76505142D01*
X129934142Y-76433714D01*
X130005571Y-76290857D01*
X130005571Y-75076571D01*
X131434142Y-76576571D02*
X130719857Y-76576571D01*
X130719857Y-75076571D01*
X131791285Y-75076571D02*
X132791285Y-76576571D01*
X132791285Y-75076571D02*
X131791285Y-76576571D01*
X133219857Y-75076571D02*
X134148428Y-75076571D01*
X133648428Y-75648000D01*
X133862714Y-75648000D01*
X134005571Y-75719428D01*
X134077000Y-75790857D01*
X134148428Y-75933714D01*
X134148428Y-76290857D01*
X134077000Y-76433714D01*
X134005571Y-76505142D01*
X133862714Y-76576571D01*
X133434142Y-76576571D01*
X133291285Y-76505142D01*
X133219857Y-76433714D01*
X134719857Y-76505142D02*
X134934142Y-76576571D01*
X135291285Y-76576571D01*
X135434142Y-76505142D01*
X135505571Y-76433714D01*
X135577000Y-76290857D01*
X135577000Y-76148000D01*
X135505571Y-76005142D01*
X135434142Y-75933714D01*
X135291285Y-75862285D01*
X135005571Y-75790857D01*
X134862714Y-75719428D01*
X134791285Y-75648000D01*
X134719857Y-75505142D01*
X134719857Y-75362285D01*
X134791285Y-75219428D01*
X134862714Y-75148000D01*
X135005571Y-75076571D01*
X135362714Y-75076571D01*
X135577000Y-75148000D01*
X123413428Y-96110857D02*
X122913428Y-96110857D01*
X122913428Y-96896571D02*
X122913428Y-95396571D01*
X123627714Y-95396571D01*
X124199142Y-96896571D02*
X124199142Y-95396571D01*
X124770571Y-95396571D01*
X124913428Y-95468000D01*
X124984857Y-95539428D01*
X125056285Y-95682285D01*
X125056285Y-95896571D01*
X124984857Y-96039428D01*
X124913428Y-96110857D01*
X124770571Y-96182285D01*
X124199142Y-96182285D01*
X126484857Y-95468000D02*
X126342000Y-95396571D01*
X126127714Y-95396571D01*
X125913428Y-95468000D01*
X125770571Y-95610857D01*
X125699142Y-95753714D01*
X125627714Y-96039428D01*
X125627714Y-96253714D01*
X125699142Y-96539428D01*
X125770571Y-96682285D01*
X125913428Y-96825142D01*
X126127714Y-96896571D01*
X126270571Y-96896571D01*
X126484857Y-96825142D01*
X126556285Y-96753714D01*
X126556285Y-96253714D01*
X126270571Y-96253714D01*
X127127714Y-96468000D02*
X127842000Y-96468000D01*
X126984857Y-96896571D02*
X127484857Y-95396571D01*
X127984857Y-96896571D01*
X168077928Y-80886642D02*
X168292214Y-80958071D01*
X168649357Y-80958071D01*
X168792214Y-80886642D01*
X168863642Y-80815214D01*
X168935071Y-80672357D01*
X168935071Y-80529500D01*
X168863642Y-80386642D01*
X168792214Y-80315214D01*
X168649357Y-80243785D01*
X168363642Y-80172357D01*
X168220785Y-80100928D01*
X168149357Y-80029500D01*
X168077928Y-79886642D01*
X168077928Y-79743785D01*
X168149357Y-79600928D01*
X168220785Y-79529500D01*
X168363642Y-79458071D01*
X168720785Y-79458071D01*
X168935071Y-79529500D01*
X169577928Y-80958071D02*
X169577928Y-79458071D01*
X169935071Y-79458071D01*
X170149357Y-79529500D01*
X170292214Y-79672357D01*
X170363642Y-79815214D01*
X170435071Y-80100928D01*
X170435071Y-80315214D01*
X170363642Y-80600928D01*
X170292214Y-80743785D01*
X170149357Y-80886642D01*
X169935071Y-80958071D01*
X169577928Y-80958071D01*
X171935071Y-80958071D02*
X171435071Y-80243785D01*
X171077928Y-80958071D02*
X171077928Y-79458071D01*
X171649357Y-79458071D01*
X171792214Y-79529500D01*
X171863642Y-79600928D01*
X171935071Y-79743785D01*
X171935071Y-79958071D01*
X171863642Y-80100928D01*
X171792214Y-80172357D01*
X171649357Y-80243785D01*
X171077928Y-80243785D01*
X172506500Y-80529500D02*
X173220785Y-80529500D01*
X172363642Y-80958071D02*
X172863642Y-79458071D01*
X173363642Y-80958071D01*
X173863642Y-80958071D02*
X173863642Y-79458071D01*
X174363642Y-80529500D01*
X174863642Y-79458071D01*
X174863642Y-80958071D01*
X169822857Y-100450000D02*
X170537142Y-100450000D01*
X169680000Y-100878571D02*
X170180000Y-99378571D01*
X170680000Y-100878571D01*
X171180000Y-100878571D02*
X171180000Y-99378571D01*
X171537142Y-99378571D01*
X171751428Y-99450000D01*
X171894285Y-99592857D01*
X171965714Y-99735714D01*
X172037142Y-100021428D01*
X172037142Y-100235714D01*
X171965714Y-100521428D01*
X171894285Y-100664285D01*
X171751428Y-100807142D01*
X171537142Y-100878571D01*
X171180000Y-100878571D01*
X173537142Y-100735714D02*
X173465714Y-100807142D01*
X173251428Y-100878571D01*
X173108571Y-100878571D01*
X172894285Y-100807142D01*
X172751428Y-100664285D01*
X172680000Y-100521428D01*
X172608571Y-100235714D01*
X172608571Y-100021428D01*
X172680000Y-99735714D01*
X172751428Y-99592857D01*
X172894285Y-99450000D01*
X173108571Y-99378571D01*
X173251428Y-99378571D01*
X173465714Y-99450000D01*
X173537142Y-99521428D01*
D12*
X142447380Y-111521333D02*
X142447380Y-110949904D01*
X143447380Y-111235619D02*
X142447380Y-111235619D01*
X143447380Y-110616571D02*
X142447380Y-110616571D01*
X143161666Y-110283238D01*
X142447380Y-109949904D01*
X143447380Y-109949904D01*
X143399761Y-109521333D02*
X143447380Y-109378476D01*
X143447380Y-109140380D01*
X143399761Y-109045142D01*
X143352142Y-108997523D01*
X143256904Y-108949904D01*
X143161666Y-108949904D01*
X143066428Y-108997523D01*
X143018809Y-109045142D01*
X142971190Y-109140380D01*
X142923571Y-109330857D01*
X142875952Y-109426095D01*
X142828333Y-109473714D01*
X142733095Y-109521333D01*
X142637857Y-109521333D01*
X142542619Y-109473714D01*
X142495000Y-109426095D01*
X142447380Y-109330857D01*
X142447380Y-109092761D01*
X142495000Y-108949904D01*
X142447380Y-108163809D02*
X142447380Y-107592380D01*
X143447380Y-107878095D02*
X142447380Y-107878095D01*
X143447380Y-107259047D02*
X142447380Y-107259047D01*
X142447380Y-107020952D01*
X142495000Y-106878095D01*
X142590238Y-106782857D01*
X142685476Y-106735238D01*
X142875952Y-106687619D01*
X143018809Y-106687619D01*
X143209285Y-106735238D01*
X143304523Y-106782857D01*
X143399761Y-106878095D01*
X143447380Y-107020952D01*
X143447380Y-107259047D01*
X143447380Y-106259047D02*
X142447380Y-106259047D01*
X142495000Y-104726904D02*
X142447380Y-104822142D01*
X142447380Y-104965000D01*
X142495000Y-105107857D01*
X142590238Y-105203095D01*
X142685476Y-105250714D01*
X142875952Y-105298333D01*
X143018809Y-105298333D01*
X143209285Y-105250714D01*
X143304523Y-105203095D01*
X143399761Y-105107857D01*
X143447380Y-104965000D01*
X143447380Y-104869761D01*
X143399761Y-104726904D01*
X143352142Y-104679285D01*
X143018809Y-104679285D01*
X143018809Y-104869761D01*
X143447380Y-104250714D02*
X142447380Y-104250714D01*
X143447380Y-103679285D01*
X142447380Y-103679285D01*
X143447380Y-103203095D02*
X142447380Y-103203095D01*
X142447380Y-102965000D01*
X142495000Y-102822142D01*
X142590238Y-102726904D01*
X142685476Y-102679285D01*
X142875952Y-102631666D01*
X143018809Y-102631666D01*
X143209285Y-102679285D01*
X143304523Y-102726904D01*
X143399761Y-102822142D01*
X143447380Y-102965000D01*
X143447380Y-103203095D01*
X134827380Y-111624523D02*
X134827380Y-111053095D01*
X135827380Y-111338809D02*
X134827380Y-111338809D01*
X135827380Y-110719761D02*
X134827380Y-110719761D01*
X134827380Y-110481666D01*
X134875000Y-110338809D01*
X134970238Y-110243571D01*
X135065476Y-110195952D01*
X135255952Y-110148333D01*
X135398809Y-110148333D01*
X135589285Y-110195952D01*
X135684523Y-110243571D01*
X135779761Y-110338809D01*
X135827380Y-110481666D01*
X135827380Y-110719761D01*
X134827380Y-109529285D02*
X134827380Y-109338809D01*
X134875000Y-109243571D01*
X134970238Y-109148333D01*
X135160714Y-109100714D01*
X135494047Y-109100714D01*
X135684523Y-109148333D01*
X135779761Y-109243571D01*
X135827380Y-109338809D01*
X135827380Y-109529285D01*
X135779761Y-109624523D01*
X135684523Y-109719761D01*
X135494047Y-109767380D01*
X135160714Y-109767380D01*
X134970238Y-109719761D01*
X134875000Y-109624523D01*
X134827380Y-109529285D01*
X134827380Y-108425714D02*
X134827380Y-107854285D01*
X135827380Y-108140000D02*
X134827380Y-108140000D01*
X135732142Y-106949523D02*
X135779761Y-106997142D01*
X135827380Y-107140000D01*
X135827380Y-107235238D01*
X135779761Y-107378095D01*
X135684523Y-107473333D01*
X135589285Y-107520952D01*
X135398809Y-107568571D01*
X135255952Y-107568571D01*
X135065476Y-107520952D01*
X134970238Y-107473333D01*
X134875000Y-107378095D01*
X134827380Y-107235238D01*
X134827380Y-107140000D01*
X134875000Y-106997142D01*
X134922619Y-106949523D01*
X135827380Y-106520952D02*
X134827380Y-106520952D01*
X135827380Y-105949523D02*
X135255952Y-106378095D01*
X134827380Y-105949523D02*
X135398809Y-106520952D01*
X134827380Y-105203095D02*
X134827380Y-104584047D01*
X135208333Y-104917380D01*
X135208333Y-104774523D01*
X135255952Y-104679285D01*
X135303571Y-104631666D01*
X135398809Y-104584047D01*
X135636904Y-104584047D01*
X135732142Y-104631666D01*
X135779761Y-104679285D01*
X135827380Y-104774523D01*
X135827380Y-105060238D01*
X135779761Y-105155476D01*
X135732142Y-105203095D01*
X134827380Y-104298333D02*
X135827380Y-103965000D01*
X134827380Y-103631666D01*
X134827380Y-103393571D02*
X134827380Y-102774523D01*
X135208333Y-103107857D01*
X135208333Y-102965000D01*
X135255952Y-102869761D01*
X135303571Y-102822142D01*
X135398809Y-102774523D01*
X135636904Y-102774523D01*
X135732142Y-102822142D01*
X135779761Y-102869761D01*
X135827380Y-102965000D01*
X135827380Y-103250714D01*
X135779761Y-103345952D01*
X135732142Y-103393571D01*
D13*
X85270000Y-112220000D02*
X94100000Y-112220000D01*
X85270000Y-109680000D02*
X85270000Y-112220000D01*
X94100000Y-109680000D02*
X94100000Y-112220000D01*
X94100000Y-112220000D02*
X85270000Y-112220000D01*
X94100000Y-109680000D02*
X85270000Y-109680000D01*
X94100000Y-107140000D02*
X94100000Y-109680000D01*
X85270000Y-107140000D02*
X85270000Y-109680000D01*
X85270000Y-109680000D02*
X94100000Y-109680000D01*
X85270000Y-91900000D02*
X94100000Y-91900000D01*
X85270000Y-89360000D02*
X85270000Y-91900000D01*
X94100000Y-89360000D02*
X94100000Y-91900000D01*
X94100000Y-91900000D02*
X85270000Y-91900000D01*
X94100000Y-94440000D02*
X85270000Y-94440000D01*
X94100000Y-91900000D02*
X94100000Y-94440000D01*
X85270000Y-91900000D02*
X85270000Y-94440000D01*
X85270000Y-94440000D02*
X94100000Y-94440000D01*
X85270000Y-107140000D02*
X94100000Y-107140000D01*
X85270000Y-104600000D02*
X85270000Y-107140000D01*
X94100000Y-104600000D02*
X94100000Y-107140000D01*
X94100000Y-107140000D02*
X85270000Y-107140000D01*
X94100000Y-104600000D02*
X85270000Y-104600000D01*
X94100000Y-102060000D02*
X94100000Y-104600000D01*
X85270000Y-102060000D02*
X85270000Y-104600000D01*
X85270000Y-104600000D02*
X94100000Y-104600000D01*
X85270000Y-102060000D02*
X94100000Y-102060000D01*
X85270000Y-99520000D02*
X85270000Y-102060000D01*
X94100000Y-99520000D02*
X94100000Y-102060000D01*
X94100000Y-102060000D02*
X85270000Y-102060000D01*
X94100000Y-99520000D02*
X85270000Y-99520000D01*
X94100000Y-96980000D02*
X94100000Y-99520000D01*
X85270000Y-96980000D02*
X85270000Y-99520000D01*
X85270000Y-99520000D02*
X94100000Y-99520000D01*
X85270000Y-96980000D02*
X94100000Y-96980000D01*
X85270000Y-94440000D02*
X85270000Y-96980000D01*
X94100000Y-94440000D02*
X94100000Y-96980000D01*
X94100000Y-96980000D02*
X85270000Y-96980000D01*
X94100000Y-79200000D02*
X85270000Y-79200000D01*
X94100000Y-76660000D02*
X94100000Y-79200000D01*
X85270000Y-76660000D02*
X85270000Y-79200000D01*
X85270000Y-79200000D02*
X94100000Y-79200000D01*
X85270000Y-81740000D02*
X94100000Y-81740000D01*
X85270000Y-79200000D02*
X85270000Y-81740000D01*
X94100000Y-79200000D02*
X94100000Y-81740000D01*
X94100000Y-81740000D02*
X85270000Y-81740000D01*
X94100000Y-84280000D02*
X85270000Y-84280000D01*
X94100000Y-81740000D02*
X94100000Y-84280000D01*
X85270000Y-81740000D02*
X85270000Y-84280000D01*
X85270000Y-84280000D02*
X94100000Y-84280000D01*
X85270000Y-86820000D02*
X94100000Y-86820000D01*
X85270000Y-84280000D02*
X85270000Y-86820000D01*
X94100000Y-84280000D02*
X94100000Y-86820000D01*
X94100000Y-86820000D02*
X85270000Y-86820000D01*
X94100000Y-89360000D02*
X85270000Y-89360000D01*
X94100000Y-86820000D02*
X94100000Y-89360000D01*
X85270000Y-86820000D02*
X85270000Y-89360000D01*
X85270000Y-89360000D02*
X94100000Y-89360000D01*
X85270000Y-76660000D02*
X94100000Y-76660000D01*
X85270000Y-74120000D02*
X85270000Y-76660000D01*
X94100000Y-74120000D02*
X94100000Y-76660000D01*
X94100000Y-76660000D02*
X85270000Y-76660000D01*
X94100000Y-74120000D02*
X85270000Y-74120000D01*
X94100000Y-71580000D02*
X94100000Y-74120000D01*
X85270000Y-71580000D02*
X85270000Y-74120000D01*
X85270000Y-74120000D02*
X94100000Y-74120000D01*
X85270000Y-71580000D02*
X94100000Y-71580000D01*
X85270000Y-69040000D02*
X85270000Y-71580000D01*
X94100000Y-69040000D02*
X94100000Y-71580000D01*
X94100000Y-71580000D02*
X85270000Y-71580000D01*
X94100000Y-69040000D02*
X85270000Y-69040000D01*
X94100000Y-66500000D02*
X94100000Y-69040000D01*
X85270000Y-66500000D02*
X85270000Y-69040000D01*
X85270000Y-69040000D02*
X94100000Y-69040000D01*
X85270000Y-66500000D02*
X94100000Y-66500000D01*
X85270000Y-63960000D02*
X85270000Y-66500000D01*
X94100000Y-63960000D02*
X94100000Y-66500000D01*
X94100000Y-66500000D02*
X85270000Y-66500000D01*
X94100000Y-63960000D02*
X85270000Y-63960000D01*
X94100000Y-61420000D02*
X94100000Y-63960000D01*
X99060000Y-62690000D02*
X99060000Y-61140000D01*
X99060000Y-61140000D02*
X97910000Y-61140000D01*
X94100000Y-61420000D02*
X85270000Y-61420000D01*
X85270000Y-61420000D02*
X85270000Y-63960000D01*
X85270000Y-63960000D02*
X94100000Y-63960000D01*
X196910000Y-61420000D02*
X188080000Y-61420000D01*
X196910000Y-63960000D02*
X196910000Y-61420000D01*
X188080000Y-63960000D02*
X188080000Y-61420000D01*
X188080000Y-61420000D02*
X196910000Y-61420000D01*
X188080000Y-63960000D02*
X196910000Y-63960000D01*
X188080000Y-66500000D02*
X188080000Y-63960000D01*
X196910000Y-66500000D02*
X196910000Y-63960000D01*
X196910000Y-63960000D02*
X188080000Y-63960000D01*
X196910000Y-81740000D02*
X188080000Y-81740000D01*
X196910000Y-84280000D02*
X196910000Y-81740000D01*
X188080000Y-84280000D02*
X188080000Y-81740000D01*
X188080000Y-81740000D02*
X196910000Y-81740000D01*
X188080000Y-79200000D02*
X196910000Y-79200000D01*
X188080000Y-81740000D02*
X188080000Y-79200000D01*
X196910000Y-81740000D02*
X196910000Y-79200000D01*
X196910000Y-79200000D02*
X188080000Y-79200000D01*
X196910000Y-66500000D02*
X188080000Y-66500000D01*
X196910000Y-69040000D02*
X196910000Y-66500000D01*
X188080000Y-69040000D02*
X188080000Y-66500000D01*
X188080000Y-66500000D02*
X196910000Y-66500000D01*
X188080000Y-69040000D02*
X196910000Y-69040000D01*
X188080000Y-71580000D02*
X188080000Y-69040000D01*
X196910000Y-71580000D02*
X196910000Y-69040000D01*
X196910000Y-69040000D02*
X188080000Y-69040000D01*
X196910000Y-71580000D02*
X188080000Y-71580000D01*
X196910000Y-74120000D02*
X196910000Y-71580000D01*
X188080000Y-74120000D02*
X188080000Y-71580000D01*
X188080000Y-71580000D02*
X196910000Y-71580000D01*
X188080000Y-74120000D02*
X196910000Y-74120000D01*
X188080000Y-76660000D02*
X188080000Y-74120000D01*
X196910000Y-76660000D02*
X196910000Y-74120000D01*
X196910000Y-74120000D02*
X188080000Y-74120000D01*
X196910000Y-76660000D02*
X188080000Y-76660000D01*
X196910000Y-79200000D02*
X196910000Y-76660000D01*
X188080000Y-79200000D02*
X188080000Y-76660000D01*
X188080000Y-76660000D02*
X196910000Y-76660000D01*
X188080000Y-94440000D02*
X196910000Y-94440000D01*
X188080000Y-96980000D02*
X188080000Y-94440000D01*
X196910000Y-96980000D02*
X196910000Y-94440000D01*
X196910000Y-94440000D02*
X188080000Y-94440000D01*
X196910000Y-91900000D02*
X188080000Y-91900000D01*
X196910000Y-94440000D02*
X196910000Y-91900000D01*
X188080000Y-94440000D02*
X188080000Y-91900000D01*
X188080000Y-91900000D02*
X196910000Y-91900000D01*
X188080000Y-89360000D02*
X196910000Y-89360000D01*
X188080000Y-91900000D02*
X188080000Y-89360000D01*
X196910000Y-91900000D02*
X196910000Y-89360000D01*
X196910000Y-89360000D02*
X188080000Y-89360000D01*
X196910000Y-86820000D02*
X188080000Y-86820000D01*
X196910000Y-89360000D02*
X196910000Y-86820000D01*
X188080000Y-89360000D02*
X188080000Y-86820000D01*
X188080000Y-86820000D02*
X196910000Y-86820000D01*
X188080000Y-84280000D02*
X196910000Y-84280000D01*
X188080000Y-86820000D02*
X188080000Y-84280000D01*
X196910000Y-86820000D02*
X196910000Y-84280000D01*
X196910000Y-84280000D02*
X188080000Y-84280000D01*
X196910000Y-96980000D02*
X188080000Y-96980000D01*
X196910000Y-99520000D02*
X196910000Y-96980000D01*
X188080000Y-99520000D02*
X188080000Y-96980000D01*
X188080000Y-96980000D02*
X196910000Y-96980000D01*
X188080000Y-99520000D02*
X196910000Y-99520000D01*
X188080000Y-102060000D02*
X188080000Y-99520000D01*
X196910000Y-102060000D02*
X196910000Y-99520000D01*
X196910000Y-99520000D02*
X188080000Y-99520000D01*
X196910000Y-102060000D02*
X188080000Y-102060000D01*
X196910000Y-104600000D02*
X196910000Y-102060000D01*
X188080000Y-104600000D02*
X188080000Y-102060000D01*
X188080000Y-102060000D02*
X196910000Y-102060000D01*
X188080000Y-104600000D02*
X196910000Y-104600000D01*
X188080000Y-107140000D02*
X188080000Y-104600000D01*
X196910000Y-107140000D02*
X196910000Y-104600000D01*
X196910000Y-104600000D02*
X188080000Y-104600000D01*
X196910000Y-107140000D02*
X188080000Y-107140000D01*
X196910000Y-109680000D02*
X196910000Y-107140000D01*
X188080000Y-109680000D02*
X188080000Y-107140000D01*
X188080000Y-107140000D02*
X196910000Y-107140000D01*
X188080000Y-109680000D02*
X196910000Y-109680000D01*
X188080000Y-112220000D02*
X188080000Y-109680000D01*
X183120000Y-110950000D02*
X183120000Y-112500000D01*
X183120000Y-112500000D02*
X184270000Y-112500000D01*
X188080000Y-112220000D02*
X196910000Y-112220000D01*
X196910000Y-112220000D02*
X196910000Y-109680000D01*
X196910000Y-109680000D02*
X188080000Y-109680000D01*
X116280000Y-64925000D02*
X116280000Y-66925000D01*
X116280000Y-66925000D02*
X114130000Y-66925000D01*
X109630000Y-66925000D02*
X107480000Y-66925000D01*
X107480000Y-66925000D02*
X107480000Y-64975000D01*
X174700000Y-64925000D02*
X174700000Y-66925000D01*
X174700000Y-66925000D02*
X172550000Y-66925000D01*
X168050000Y-66925000D02*
X165900000Y-66925000D01*
X165900000Y-66925000D02*
X165900000Y-64975000D01*
X141725000Y-110950000D02*
X141725000Y-105870000D01*
X142005000Y-103050000D02*
X142005000Y-104600000D01*
X139185000Y-103330000D02*
X139185000Y-105870000D01*
X139185000Y-105870000D02*
X141725000Y-105870000D01*
X141725000Y-110950000D02*
X136645000Y-110950000D01*
X136645000Y-110950000D02*
X136645000Y-105870000D01*
X142005000Y-103050000D02*
X140455000Y-103050000D01*
X136645000Y-103330000D02*
X139185000Y-103330000D01*
X136645000Y-105870000D02*
X136645000Y-103330000D01*
X174660000Y-102780000D02*
X174660000Y-102030000D01*
X179910000Y-97530000D02*
X179910000Y-98280000D01*
X174660000Y-97530000D02*
X174660000Y-98280000D01*
X179910000Y-102780000D02*
X179160000Y-102780000D01*
X179910000Y-97530000D02*
X179160000Y-97530000D01*
X174660000Y-97530000D02*
X175410000Y-97530000D01*
X174660000Y-102780000D02*
X175410000Y-102780000D01*
X146170000Y-99520000D02*
X130930000Y-99520000D01*
X130930000Y-99520000D02*
X130930000Y-102060000D01*
X130930000Y-102060000D02*
X146170000Y-102060000D01*
X148990000Y-99240000D02*
X147440000Y-99240000D01*
X146170000Y-99520000D02*
X146170000Y-102060000D01*
X147440000Y-102340000D02*
X148990000Y-102340000D01*
X148990000Y-102340000D02*
X148990000Y-99240000D01*
D14*
X168340000Y-77350000D02*
X168340000Y-77320000D01*
X168340000Y-70890000D02*
X168340000Y-70920000D01*
X174800000Y-70890000D02*
X174800000Y-70920000D01*
X174800000Y-77320000D02*
X174800000Y-77350000D01*
X168340000Y-75420000D02*
X168340000Y-72820000D01*
X174800000Y-77350000D02*
X168340000Y-77350000D01*
X174800000Y-75420000D02*
X174800000Y-72820000D01*
X174800000Y-70890000D02*
X168340000Y-70890000D01*
X108760000Y-86130000D02*
X108760000Y-86160000D01*
X108760000Y-92590000D02*
X108760000Y-92560000D01*
X102300000Y-92590000D02*
X102300000Y-92560000D01*
X102300000Y-86160000D02*
X102300000Y-86130000D01*
X108760000Y-88060000D02*
X108760000Y-90660000D01*
X102300000Y-86130000D02*
X108760000Y-86130000D01*
X102300000Y-88060000D02*
X102300000Y-90660000D01*
X102300000Y-92590000D02*
X108760000Y-92590000D01*
X120190000Y-86130000D02*
X120190000Y-86160000D01*
X120190000Y-92590000D02*
X120190000Y-92560000D01*
X113730000Y-92590000D02*
X113730000Y-92560000D01*
X113730000Y-86160000D02*
X113730000Y-86130000D01*
X120190000Y-88060000D02*
X120190000Y-90660000D01*
X113730000Y-86130000D02*
X120190000Y-86130000D01*
X113730000Y-88060000D02*
X113730000Y-90660000D01*
X113730000Y-92590000D02*
X120190000Y-92590000D01*
X163370000Y-96290000D02*
X163370000Y-96320000D01*
X163370000Y-102750000D02*
X163370000Y-102720000D01*
X156910000Y-102750000D02*
X156910000Y-102720000D01*
X156910000Y-96320000D02*
X156910000Y-96290000D01*
X163370000Y-98220000D02*
X163370000Y-100820000D01*
X156910000Y-96290000D02*
X163370000Y-96290000D01*
X156910000Y-98220000D02*
X156910000Y-100820000D01*
X156910000Y-102750000D02*
X163370000Y-102750000D01*
X156910000Y-111640000D02*
X156910000Y-111610000D01*
X156910000Y-105180000D02*
X156910000Y-105210000D01*
X163370000Y-105180000D02*
X163370000Y-105210000D01*
X163370000Y-111610000D02*
X163370000Y-111640000D01*
X156910000Y-109710000D02*
X156910000Y-107110000D01*
X163370000Y-111640000D02*
X156910000Y-111640000D01*
X163370000Y-109710000D02*
X163370000Y-107110000D01*
X163370000Y-105180000D02*
X156910000Y-105180000D01*
X145480000Y-111640000D02*
X145480000Y-111610000D01*
X145480000Y-105180000D02*
X145480000Y-105210000D01*
X151940000Y-105180000D02*
X151940000Y-105210000D01*
X151940000Y-111610000D02*
X151940000Y-111640000D01*
X145480000Y-109710000D02*
X145480000Y-107110000D01*
X151940000Y-111640000D02*
X145480000Y-111640000D01*
X151940000Y-109710000D02*
X151940000Y-107110000D01*
X151940000Y-105180000D02*
X145480000Y-105180000D01*
X168340000Y-111640000D02*
X168340000Y-111610000D01*
X168340000Y-105180000D02*
X168340000Y-105210000D01*
X174800000Y-105180000D02*
X174800000Y-105210000D01*
X174800000Y-111610000D02*
X174800000Y-111640000D01*
X168340000Y-109710000D02*
X168340000Y-107110000D01*
X174800000Y-111640000D02*
X168340000Y-111640000D01*
X174800000Y-109710000D02*
X174800000Y-107110000D01*
X174800000Y-105180000D02*
X168340000Y-105180000D01*
X154160000Y-76965000D02*
X154160000Y-71275000D01*
X154160000Y-71275000D02*
X166120000Y-71275000D01*
X166120000Y-71275000D02*
X166120000Y-76965000D01*
X166120000Y-76965000D02*
X157600000Y-76965000D01*
X155695000Y-75930000D02*
X156965000Y-75930000D01*
X156965000Y-75930000D02*
X156965000Y-72310000D01*
X156965000Y-72310000D02*
X155695000Y-72310000D01*
X155695000Y-72310000D02*
X155695000Y-75930000D01*
X155695000Y-74120000D02*
X156965000Y-74120000D01*
X158235000Y-75930000D02*
X159505000Y-75930000D01*
X159505000Y-75930000D02*
X159505000Y-72310000D01*
X159505000Y-72310000D02*
X158235000Y-72310000D01*
X158235000Y-72310000D02*
X158235000Y-75930000D01*
X158235000Y-74120000D02*
X159505000Y-74120000D01*
X160775000Y-75930000D02*
X162045000Y-75930000D01*
X162045000Y-75930000D02*
X162045000Y-72310000D01*
X162045000Y-72310000D02*
X160775000Y-72310000D01*
X160775000Y-72310000D02*
X160775000Y-75930000D01*
X160775000Y-74120000D02*
X162045000Y-74120000D01*
X163315000Y-75930000D02*
X164585000Y-75930000D01*
X164585000Y-75930000D02*
X164585000Y-72310000D01*
X164585000Y-72310000D02*
X163315000Y-72310000D01*
X163315000Y-72310000D02*
X163315000Y-75930000D01*
X163315000Y-74120000D02*
X164585000Y-74120000D01*
D13*
X130880000Y-80200000D02*
X131080000Y-80200000D01*
X130880000Y-80400000D02*
X130880000Y-80200000D01*
X146080000Y-80200000D02*
X146080000Y-80400000D01*
X145880000Y-80200000D02*
X146080000Y-80200000D01*
X146080000Y-95400000D02*
X146080000Y-95200000D01*
X145880000Y-95400000D02*
X146080000Y-95400000D01*
X130880000Y-95400000D02*
X131080000Y-95400000D01*
X130880000Y-95200000D02*
X130880000Y-95400000D01*
X130280000Y-78800000D02*
X129480000Y-79600000D01*
X129480000Y-96800000D02*
X129480000Y-78800000D01*
X147480000Y-96800000D02*
X129480000Y-96800000D01*
X147480000Y-78800000D02*
X147480000Y-96800000D01*
X129480000Y-78800000D02*
X147480000Y-78800000D01*
X129880000Y-96400000D02*
X129880000Y-79200000D01*
X147080000Y-96400000D02*
X129880000Y-96400000D01*
X147080000Y-79200000D02*
X147080000Y-96400000D01*
X129880000Y-79200000D02*
X147080000Y-79200000D01*
D10*
X149980000Y-94836000D02*
X149980000Y-94136000D01*
X148980000Y-94836000D02*
X148980000Y-94136000D01*
X151980000Y-80836000D02*
X152980000Y-79836000D01*
X152980000Y-81836000D02*
X151980000Y-80836000D01*
X151980000Y-82836000D02*
X152980000Y-81836000D01*
X152980000Y-83836000D02*
X151980000Y-82836000D01*
X151980000Y-84836000D02*
X152980000Y-83836000D01*
X152980000Y-85836000D02*
X151980000Y-84836000D01*
X151980000Y-86836000D02*
X152980000Y-85836000D01*
X152980000Y-87836000D02*
X151980000Y-86836000D01*
X151980000Y-88836000D02*
X152980000Y-87836000D01*
X152980000Y-89836000D02*
X151980000Y-88836000D01*
X151980000Y-90836000D02*
X152980000Y-89836000D01*
X152980000Y-91836000D02*
X151980000Y-90836000D01*
X151980000Y-92836000D02*
X152980000Y-91836000D01*
X152980000Y-93836000D02*
X151980000Y-92836000D01*
X151980000Y-94836000D02*
X152980000Y-93836000D01*
X152980000Y-95836000D02*
X151980000Y-94836000D01*
X150980000Y-90836000D02*
X150980000Y-90536000D01*
X148980000Y-90836000D02*
X148980000Y-90536000D01*
X148980000Y-89036000D02*
X148980000Y-88036000D01*
X150980000Y-89036000D02*
X150980000Y-88036000D01*
X150980000Y-83336000D02*
X148980000Y-83336000D01*
X148980000Y-84736000D02*
X150980000Y-83336000D01*
X149980000Y-94136000D02*
X150980000Y-93536000D01*
X149980000Y-85436000D02*
X150980000Y-86036000D01*
X148980000Y-86036000D02*
X149980000Y-85436000D01*
X149980000Y-87636000D02*
X148980000Y-87036000D01*
X150980000Y-87036000D02*
X149980000Y-87636000D01*
X148980000Y-86036000D02*
X148980000Y-87036000D01*
X150980000Y-87036000D02*
X150980000Y-86036000D01*
X150980000Y-80736000D02*
X150980000Y-82736000D01*
X148980000Y-81736000D02*
X150980000Y-80736000D01*
X150980000Y-82736000D02*
X148980000Y-81736000D01*
X150980000Y-84736000D02*
X148980000Y-84736000D01*
X148980000Y-88536000D02*
X150980000Y-88536000D01*
X150980000Y-90536000D02*
G75*
G03X148980000Y-90536000I-1000000J0D01*
G01*
X150980000Y-90836000D02*
X148980000Y-90836000D01*
X148980000Y-92236000D02*
X150980000Y-91536000D01*
X150980000Y-92936000D02*
X148980000Y-92236000D01*
X149980000Y-94136000D02*
G75*
G03X148980000Y-94136000I-500000J0D01*
G01*
X150980000Y-94836000D02*
X148980000Y-94836000D01*
D15*
X162680000Y-65600000D02*
X162680000Y-66200000D01*
X162680000Y-65600000D02*
G75*
G03X162080000Y-65000000I-600000J0D01*
G01*
X162080000Y-65000000D02*
G75*
G03X162080000Y-63800000I0J600000D01*
G01*
X161480000Y-65000000D02*
X162080000Y-65000000D01*
X161480000Y-63800000D02*
X162080000Y-63800000D01*
X157080000Y-63800000D02*
X157080000Y-66200000D01*
X159280000Y-66200000D02*
X160680000Y-66200000D01*
X159280000Y-65000000D02*
X160680000Y-65000000D01*
X159280000Y-63800000D02*
X160680000Y-63800000D01*
X157080000Y-63800000D02*
X158480000Y-63800000D01*
X157080000Y-65000000D02*
X158480000Y-65000000D01*
D13*
X121968000Y-60418000D02*
X121968000Y-61418000D01*
X126968000Y-60418000D02*
X121968000Y-60418000D01*
X126968000Y-62018000D02*
X126968000Y-60418000D01*
X127468000Y-62018000D02*
X122268000Y-62018000D01*
X120668000Y-64118000D02*
X120668000Y-63818000D01*
X120668000Y-67618000D02*
X120668000Y-66718000D01*
X121468000Y-67618000D02*
X120668000Y-67618000D01*
X121468000Y-73218000D02*
X121468000Y-67618000D01*
X121468000Y-77418000D02*
X121468000Y-76418000D01*
X121468000Y-77418000D02*
X127468000Y-77418000D01*
X127468000Y-68618000D02*
X127468000Y-77418000D01*
X127468000Y-65718000D02*
X127468000Y-66018000D01*
X127468000Y-62018000D02*
X127468000Y-63318000D01*
X121200000Y-111900000D02*
X121200000Y-109750000D01*
X108900000Y-111900000D02*
X121200000Y-111900000D01*
X108900000Y-108650000D02*
X108900000Y-111900000D01*
X108900000Y-100350000D02*
X108900000Y-106250000D01*
X121200000Y-106250000D02*
X121200000Y-100350000D01*
X108900000Y-95100000D02*
X108900000Y-96850000D01*
X121200000Y-95100000D02*
X108900000Y-95100000D01*
X121200000Y-98000000D02*
X121200000Y-95100000D01*
X109300000Y-68920000D02*
X109850000Y-68920000D01*
X109000000Y-72520000D02*
X109000000Y-70320000D01*
X106700000Y-68920000D02*
X104300000Y-68920000D01*
X109000000Y-70320000D02*
X109850000Y-70320000D01*
X106700000Y-73920000D02*
X104300000Y-73920000D01*
X102000000Y-70320000D02*
X102000000Y-72520000D01*
X176193000Y-92880000D02*
X175993000Y-92880000D01*
X176193000Y-82720000D02*
X175993000Y-82720000D01*
X155093000Y-92050000D02*
G75*
G03X155093000Y-92050000I-250000J0D01*
G01*
X154193000Y-92880000D02*
X154193000Y-93700000D01*
X153993000Y-92880000D02*
X154193000Y-92880000D01*
X153993000Y-82720000D02*
X154193000Y-82720000D01*
X176203000Y-82720000D02*
X176203000Y-92880000D01*
X153983000Y-92880000D02*
X153983000Y-82720000D01*
D10*
X124542000Y-89544000D02*
X126142000Y-89544000D01*
X125542000Y-90144000D02*
X124542000Y-89544000D01*
X124542000Y-90744000D02*
X125542000Y-90144000D01*
X126142000Y-90744000D02*
X124542000Y-90744000D01*
X127342000Y-91544000D02*
X126742000Y-91144000D01*
X123342000Y-91544000D02*
X123942000Y-91144000D01*
X123342000Y-93944000D02*
X123342000Y-91544000D01*
X125342000Y-81944000D02*
X124542000Y-85344000D01*
X126142000Y-85344000D02*
X125342000Y-81944000D01*
X124542000Y-85344000D02*
X126142000Y-85344000D01*
X125342000Y-86944000D02*
X126142000Y-85944000D01*
X125342000Y-86544000D02*
X125342000Y-87144000D01*
X124942000Y-85944000D02*
X125342000Y-86544000D01*
X124542000Y-86544000D02*
X124942000Y-85944000D01*
X124542000Y-87144000D02*
X124542000Y-86544000D01*
X124542000Y-87144000D02*
X126142000Y-87144000D01*
X126142000Y-87744000D02*
X125742000Y-88744000D01*
X124542000Y-88344000D02*
X126142000Y-87744000D01*
X126142000Y-88944000D02*
X124542000Y-88344000D01*
X127342000Y-93944000D02*
X127342000Y-91544000D01*
X125342000Y-92944000D02*
X127342000Y-93944000D01*
X123342000Y-93944000D02*
X125342000Y-92944000D01*
D11*
X115000000Y-72653000D02*
X115000000Y-73053000D01*
X115700000Y-71953000D02*
X115700000Y-72353000D01*
X114300000Y-71953000D02*
X114300000Y-72353000D01*
X116400000Y-71253000D02*
X116400000Y-71653000D01*
X113600000Y-71253000D02*
X113600000Y-71653000D01*
X115000000Y-71253000D02*
X115000000Y-71653000D01*
X115700000Y-70553000D02*
X115700000Y-70953000D01*
X116400000Y-69853000D02*
X116400000Y-70253000D01*
X115000000Y-69853000D02*
X115000000Y-70253000D01*
X114300000Y-70553000D02*
X114300000Y-70953000D01*
X113600000Y-69853000D02*
X113600000Y-70253000D01*
X113400000Y-71653000D02*
X113400000Y-71253000D01*
X113400000Y-70253000D02*
X113400000Y-69853000D01*
X114100000Y-70953000D02*
X114100000Y-70553000D01*
X114800000Y-70253000D02*
X114800000Y-69853000D01*
X116200000Y-70253000D02*
X116200000Y-69853000D01*
X115500000Y-70953000D02*
X115500000Y-70553000D01*
X114800000Y-71653000D02*
X114800000Y-71253000D01*
X114100000Y-72353000D02*
X114100000Y-71953000D01*
X116200000Y-71653000D02*
X116200000Y-71253000D01*
X115500000Y-72353000D02*
X115500000Y-71953000D01*
X114800000Y-73053000D02*
X114800000Y-72653000D01*
X116400000Y-72553000D02*
X116000000Y-72553000D01*
X116000000Y-72953000D02*
X116400000Y-72553000D01*
X116000000Y-72553000D02*
X116000000Y-72953000D01*
X115200000Y-72553000D02*
X114600000Y-72553000D01*
X115200000Y-73153000D02*
X115200000Y-72553000D01*
X114600000Y-73153000D02*
X115200000Y-73153000D01*
X114600000Y-72553000D02*
X114600000Y-73153000D01*
X113800000Y-72953000D02*
X113400000Y-72553000D01*
X113800000Y-72553000D02*
X113800000Y-72953000D01*
X113400000Y-72553000D02*
X113800000Y-72553000D01*
X115300000Y-72453000D02*
X115300000Y-71853000D01*
X115900000Y-72453000D02*
X115300000Y-72453000D01*
X115900000Y-71853000D02*
X115900000Y-72453000D01*
X115300000Y-71853000D02*
X115900000Y-71853000D01*
X113900000Y-72453000D02*
X113900000Y-71853000D01*
X114500000Y-72453000D02*
X113900000Y-72453000D01*
X114500000Y-71853000D02*
X114500000Y-72453000D01*
X113900000Y-71853000D02*
X114500000Y-71853000D01*
X116600000Y-71153000D02*
X116000000Y-71153000D01*
X116600000Y-71753000D02*
X116600000Y-71153000D01*
X116000000Y-71753000D02*
X116600000Y-71753000D01*
X116000000Y-71153000D02*
X116000000Y-71753000D01*
X115200000Y-71153000D02*
X114600000Y-71153000D01*
X115200000Y-71753000D02*
X115200000Y-71153000D01*
X114600000Y-71753000D02*
X115200000Y-71753000D01*
X114600000Y-71153000D02*
X114600000Y-71753000D01*
X113200000Y-71753000D02*
X113200000Y-71153000D01*
X113800000Y-71753000D02*
X113200000Y-71753000D01*
X113800000Y-71153000D02*
X113800000Y-71753000D01*
X113200000Y-71153000D02*
X113800000Y-71153000D01*
X115900000Y-70453000D02*
X115300000Y-70453000D01*
X115900000Y-71053000D02*
X115900000Y-70453000D01*
X115300000Y-71053000D02*
X115900000Y-71053000D01*
X115300000Y-70453000D02*
X115300000Y-71053000D01*
X114500000Y-70453000D02*
X113900000Y-70453000D01*
X114500000Y-71053000D02*
X114500000Y-70453000D01*
X113900000Y-71053000D02*
X114500000Y-71053000D01*
X113900000Y-70453000D02*
X113900000Y-71053000D01*
X116600000Y-69753000D02*
X116000000Y-69753000D01*
X116600000Y-70353000D02*
X116600000Y-69753000D01*
X116000000Y-70353000D02*
X116600000Y-70353000D01*
X116000000Y-69753000D02*
X116000000Y-70353000D01*
X114600000Y-70353000D02*
X114600000Y-69753000D01*
X115200000Y-70353000D02*
X114600000Y-70353000D01*
X115200000Y-69753000D02*
X115200000Y-70353000D01*
X114600000Y-69753000D02*
X115200000Y-69753000D01*
X113200000Y-70353000D02*
X113200000Y-69753000D01*
X113800000Y-70353000D02*
X113200000Y-70353000D01*
X113800000Y-69753000D02*
X113800000Y-70353000D01*
X113200000Y-69753000D02*
X113800000Y-69753000D01*
D14*
X149851000Y-75991000D02*
X149851000Y-75551000D01*
X150871000Y-75991000D02*
X150871000Y-75551000D01*
X152268000Y-75991000D02*
X152268000Y-75551000D01*
X151248000Y-75991000D02*
X151248000Y-75551000D01*
X140711000Y-75991000D02*
X140711000Y-75551000D01*
X139691000Y-75991000D02*
X139691000Y-75551000D01*
X142485000Y-75991000D02*
X142485000Y-75551000D01*
X143505000Y-75991000D02*
X143505000Y-75551000D01*
X145279000Y-75991000D02*
X145279000Y-75551000D01*
X146299000Y-75991000D02*
X146299000Y-75551000D01*
X149474000Y-75991000D02*
X149474000Y-75551000D01*
X148454000Y-75991000D02*
X148454000Y-75551000D01*
X138232800Y-75983600D02*
X138232800Y-75543600D01*
X139252800Y-75983600D02*
X139252800Y-75543600D01*
X142108000Y-75991000D02*
X142108000Y-75551000D01*
X141088000Y-75991000D02*
X141088000Y-75551000D01*
X144902000Y-75991000D02*
X144902000Y-75551000D01*
X143882000Y-75991000D02*
X143882000Y-75551000D01*
X147057000Y-75979000D02*
X147057000Y-75539000D01*
X148077000Y-75979000D02*
X148077000Y-75539000D01*
X129920000Y-104870000D02*
X129920000Y-107570000D01*
X129920000Y-107570000D02*
X131940000Y-107570000D01*
X131940000Y-107570000D02*
X131940000Y-104870000D01*
X121780000Y-80599000D02*
X121780000Y-77899000D01*
X121780000Y-77899000D02*
X119760000Y-77899000D01*
X119760000Y-77899000D02*
X119760000Y-80599000D01*
X117220000Y-77899000D02*
X117220000Y-80599000D01*
X119240000Y-77899000D02*
X117220000Y-77899000D01*
X119240000Y-80599000D02*
X119240000Y-77899000D01*
X116700000Y-80599000D02*
X116700000Y-77899000D01*
X116700000Y-77899000D02*
X114680000Y-77899000D01*
X114680000Y-77899000D02*
X114680000Y-80599000D01*
X114160000Y-80599000D02*
X114160000Y-77899000D01*
X114160000Y-77899000D02*
X112140000Y-77899000D01*
X112140000Y-77899000D02*
X112140000Y-80599000D01*
X109600000Y-77899000D02*
X109600000Y-80599000D01*
X111620000Y-77899000D02*
X109600000Y-77899000D01*
X111620000Y-80599000D02*
X111620000Y-77899000D01*
X107060000Y-77899000D02*
X107060000Y-80599000D01*
X109080000Y-77899000D02*
X107060000Y-77899000D01*
X109080000Y-80599000D02*
X109080000Y-77899000D01*
X106555000Y-80599000D02*
X106555000Y-77899000D01*
X106555000Y-77899000D02*
X104535000Y-77899000D01*
X104535000Y-77899000D02*
X104535000Y-80599000D01*
X101980000Y-77899000D02*
X101980000Y-80599000D01*
X104000000Y-77899000D02*
X101980000Y-77899000D01*
X104000000Y-80599000D02*
X104000000Y-77899000D01*
X127380000Y-104870000D02*
X127380000Y-107570000D01*
X127380000Y-107570000D02*
X129400000Y-107570000D01*
X129400000Y-107570000D02*
X129400000Y-104870000D01*
X126860000Y-107570000D02*
X126860000Y-104870000D01*
X124840000Y-107570000D02*
X126860000Y-107570000D01*
X124840000Y-104870000D02*
X124840000Y-107570000D01*
X120260000Y-82722000D02*
X120260000Y-82282000D01*
X121280000Y-82722000D02*
X121280000Y-82282000D01*
X118740000Y-82722000D02*
X118740000Y-82282000D01*
X117720000Y-82722000D02*
X117720000Y-82282000D01*
X115180000Y-82722000D02*
X115180000Y-82282000D01*
X116200000Y-82722000D02*
X116200000Y-82282000D01*
X113660000Y-82722000D02*
X113660000Y-82282000D01*
X112640000Y-82722000D02*
X112640000Y-82282000D01*
X111120000Y-82722000D02*
X111120000Y-82282000D01*
X110100000Y-82722000D02*
X110100000Y-82282000D01*
X107560000Y-82722000D02*
X107560000Y-82282000D01*
X108580000Y-82722000D02*
X108580000Y-82282000D01*
X106040000Y-82722000D02*
X106040000Y-82282000D01*
X105020000Y-82722000D02*
X105020000Y-82282000D01*
X102480000Y-82722000D02*
X102480000Y-82282000D01*
X103500000Y-82722000D02*
X103500000Y-82282000D01*
X127880000Y-109460000D02*
X127880000Y-109900000D01*
X128900000Y-109460000D02*
X128900000Y-109900000D01*
X130420000Y-109900000D02*
X130420000Y-109460000D01*
X131440000Y-109900000D02*
X131440000Y-109460000D01*
X126360000Y-109460000D02*
X126360000Y-109900000D01*
X125340000Y-109460000D02*
X125340000Y-109900000D01*
X130866001Y-69304500D02*
X131306001Y-69304500D01*
X130866001Y-70324500D02*
X131306001Y-70324500D01*
X133900000Y-70324500D02*
X134340000Y-70324500D01*
X133900000Y-69304500D02*
X134340000Y-69304500D01*
X106860000Y-97040000D02*
X106860000Y-94380000D01*
X104260000Y-97040000D02*
X106860000Y-97040000D01*
X104260000Y-94380000D02*
X106860000Y-94380000D01*
X104260000Y-97040000D02*
X104260000Y-94380000D01*
X102990000Y-97040000D02*
X101660000Y-97040000D01*
X101660000Y-97040000D02*
X101660000Y-95710000D01*
X136466000Y-73055000D02*
X136466000Y-70395000D01*
X131326000Y-73055000D02*
X136466000Y-73055000D01*
X131326000Y-70395000D02*
X136466000Y-70395000D01*
X131326000Y-73055000D02*
X131326000Y-70395000D01*
X130056000Y-73055000D02*
X128726000Y-73055000D01*
X128726000Y-73055000D02*
X128726000Y-71725000D01*
D10*
X103760000Y-102508571D02*
X103760000Y-103580000D01*
X103688571Y-103794285D01*
X103545714Y-103937142D01*
X103331428Y-104008571D01*
X103188571Y-104008571D01*
X105260000Y-104008571D02*
X104402857Y-104008571D01*
X104831428Y-104008571D02*
X104831428Y-102508571D01*
X104688571Y-102722857D01*
X104545714Y-102865714D01*
X104402857Y-102937142D01*
X177420000Y-69488571D02*
X177420000Y-70560000D01*
X177348571Y-70774285D01*
X177205714Y-70917142D01*
X176991428Y-70988571D01*
X176848571Y-70988571D01*
X178062857Y-69631428D02*
X178134285Y-69560000D01*
X178277142Y-69488571D01*
X178634285Y-69488571D01*
X178777142Y-69560000D01*
X178848571Y-69631428D01*
X178920000Y-69774285D01*
X178920000Y-69917142D01*
X178848571Y-70131428D01*
X177991428Y-70988571D01*
X178920000Y-70988571D01*
D13*
X111013333Y-67141666D02*
X111013333Y-67708333D01*
X111046666Y-67775000D01*
X111080000Y-67808333D01*
X111146666Y-67841666D01*
X111280000Y-67841666D01*
X111346666Y-67808333D01*
X111380000Y-67775000D01*
X111413333Y-67708333D01*
X111413333Y-67141666D01*
X111713333Y-67808333D02*
X111813333Y-67841666D01*
X111980000Y-67841666D01*
X112046666Y-67808333D01*
X112080000Y-67775000D01*
X112113333Y-67708333D01*
X112113333Y-67641666D01*
X112080000Y-67575000D01*
X112046666Y-67541666D01*
X111980000Y-67508333D01*
X111846666Y-67475000D01*
X111780000Y-67441666D01*
X111746666Y-67408333D01*
X111713333Y-67341666D01*
X111713333Y-67275000D01*
X111746666Y-67208333D01*
X111780000Y-67175000D01*
X111846666Y-67141666D01*
X112013333Y-67141666D01*
X112113333Y-67175000D01*
X112780000Y-67841666D02*
X112380000Y-67841666D01*
X112580000Y-67841666D02*
X112580000Y-67141666D01*
X112513333Y-67241666D01*
X112446666Y-67308333D01*
X112380000Y-67341666D01*
X169433333Y-67141666D02*
X169433333Y-67708333D01*
X169466666Y-67775000D01*
X169500000Y-67808333D01*
X169566666Y-67841666D01*
X169700000Y-67841666D01*
X169766666Y-67808333D01*
X169800000Y-67775000D01*
X169833333Y-67708333D01*
X169833333Y-67141666D01*
X170133333Y-67808333D02*
X170233333Y-67841666D01*
X170400000Y-67841666D01*
X170466666Y-67808333D01*
X170500000Y-67775000D01*
X170533333Y-67708333D01*
X170533333Y-67641666D01*
X170500000Y-67575000D01*
X170466666Y-67541666D01*
X170400000Y-67508333D01*
X170266666Y-67475000D01*
X170200000Y-67441666D01*
X170166666Y-67408333D01*
X170133333Y-67341666D01*
X170133333Y-67275000D01*
X170166666Y-67208333D01*
X170200000Y-67175000D01*
X170266666Y-67141666D01*
X170433333Y-67141666D01*
X170533333Y-67175000D01*
X170800000Y-67208333D02*
X170833333Y-67175000D01*
X170900000Y-67141666D01*
X171066666Y-67141666D01*
X171133333Y-67175000D01*
X171166666Y-67208333D01*
X171200000Y-67275000D01*
X171200000Y-67341666D01*
X171166666Y-67441666D01*
X170766666Y-67841666D01*
X171200000Y-67841666D01*
X137073666Y-102274380D02*
X137073666Y-102988666D01*
X137026047Y-103131523D01*
X136930809Y-103226761D01*
X136787952Y-103274380D01*
X136692714Y-103274380D01*
X137978428Y-102607714D02*
X137978428Y-103274380D01*
X137740333Y-102226761D02*
X137502238Y-102941047D01*
X138121285Y-102941047D01*
X176523095Y-103482380D02*
X176523095Y-104291904D01*
X176570714Y-104387142D01*
X176618333Y-104434761D01*
X176713571Y-104482380D01*
X176904047Y-104482380D01*
X176999285Y-104434761D01*
X177046904Y-104387142D01*
X177094523Y-104291904D01*
X177094523Y-103482380D01*
X177713571Y-103910952D02*
X177618333Y-103863333D01*
X177570714Y-103815714D01*
X177523095Y-103720476D01*
X177523095Y-103672857D01*
X177570714Y-103577619D01*
X177618333Y-103530000D01*
X177713571Y-103482380D01*
X177904047Y-103482380D01*
X177999285Y-103530000D01*
X178046904Y-103577619D01*
X178094523Y-103672857D01*
X178094523Y-103720476D01*
X178046904Y-103815714D01*
X177999285Y-103863333D01*
X177904047Y-103910952D01*
X177713571Y-103910952D01*
X177618333Y-103958571D01*
X177570714Y-104006190D01*
X177523095Y-104101428D01*
X177523095Y-104291904D01*
X177570714Y-104387142D01*
X177618333Y-104434761D01*
X177713571Y-104482380D01*
X177904047Y-104482380D01*
X177999285Y-104434761D01*
X178046904Y-104387142D01*
X178094523Y-104291904D01*
X178094523Y-104101428D01*
X178046904Y-104006190D01*
X177999285Y-103958571D01*
X177904047Y-103910952D01*
X126334428Y-99607380D02*
X126524904Y-99607380D01*
X126620142Y-99655000D01*
X126715380Y-99750238D01*
X126763000Y-99940714D01*
X126763000Y-100274047D01*
X126715380Y-100464523D01*
X126620142Y-100559761D01*
X126524904Y-100607380D01*
X126334428Y-100607380D01*
X126239190Y-100559761D01*
X126143952Y-100464523D01*
X126096333Y-100274047D01*
X126096333Y-99940714D01*
X126143952Y-99750238D01*
X126239190Y-99655000D01*
X126334428Y-99607380D01*
X127667761Y-100607380D02*
X127191571Y-100607380D01*
X127191571Y-99607380D01*
X128001095Y-100083571D02*
X128334428Y-100083571D01*
X128477285Y-100607380D02*
X128001095Y-100607380D01*
X128001095Y-99607380D01*
X128477285Y-99607380D01*
X128905857Y-100607380D02*
X128905857Y-99607380D01*
X129143952Y-99607380D01*
X129286809Y-99655000D01*
X129382047Y-99750238D01*
X129429666Y-99845476D01*
X129477285Y-100035952D01*
X129477285Y-100178809D01*
X129429666Y-100369285D01*
X129382047Y-100464523D01*
X129286809Y-100559761D01*
X129143952Y-100607380D01*
X128905857Y-100607380D01*
X130429666Y-100607380D02*
X129858238Y-100607380D01*
X130143952Y-100607380D02*
X130143952Y-99607380D01*
X130048714Y-99750238D01*
X129953476Y-99845476D01*
X129858238Y-99893095D01*
X123318380Y-101956761D02*
X123461238Y-102004380D01*
X123699333Y-102004380D01*
X123794571Y-101956761D01*
X123842190Y-101909142D01*
X123889809Y-101813904D01*
X123889809Y-101718666D01*
X123842190Y-101623428D01*
X123794571Y-101575809D01*
X123699333Y-101528190D01*
X123508857Y-101480571D01*
X123413619Y-101432952D01*
X123366000Y-101385333D01*
X123318380Y-101290095D01*
X123318380Y-101194857D01*
X123366000Y-101099619D01*
X123413619Y-101052000D01*
X123508857Y-101004380D01*
X123746952Y-101004380D01*
X123889809Y-101052000D01*
X124270761Y-101956761D02*
X124413619Y-102004380D01*
X124651714Y-102004380D01*
X124746952Y-101956761D01*
X124794571Y-101909142D01*
X124842190Y-101813904D01*
X124842190Y-101718666D01*
X124794571Y-101623428D01*
X124746952Y-101575809D01*
X124651714Y-101528190D01*
X124461238Y-101480571D01*
X124366000Y-101432952D01*
X124318380Y-101385333D01*
X124270761Y-101290095D01*
X124270761Y-101194857D01*
X124318380Y-101099619D01*
X124366000Y-101052000D01*
X124461238Y-101004380D01*
X124699333Y-101004380D01*
X124842190Y-101052000D01*
X125270761Y-102004380D02*
X125270761Y-101004380D01*
X125508857Y-101004380D01*
X125651714Y-101052000D01*
X125746952Y-101147238D01*
X125794571Y-101242476D01*
X125842190Y-101432952D01*
X125842190Y-101575809D01*
X125794571Y-101766285D01*
X125746952Y-101861523D01*
X125651714Y-101956761D01*
X125508857Y-102004380D01*
X125270761Y-102004380D01*
X126032666Y-102099619D02*
X126794571Y-102099619D01*
X127556476Y-102004380D02*
X126985047Y-102004380D01*
X127270761Y-102004380D02*
X127270761Y-101004380D01*
X127175523Y-101147238D01*
X127080285Y-101242476D01*
X126985047Y-101290095D01*
X127889809Y-101004380D02*
X128508857Y-101004380D01*
X128175523Y-101385333D01*
X128318380Y-101385333D01*
X128413619Y-101432952D01*
X128461238Y-101480571D01*
X128508857Y-101575809D01*
X128508857Y-101813904D01*
X128461238Y-101909142D01*
X128413619Y-101956761D01*
X128318380Y-102004380D01*
X128032666Y-102004380D01*
X127937428Y-101956761D01*
X127889809Y-101909142D01*
X128842190Y-101004380D02*
X129461238Y-101004380D01*
X129127904Y-101385333D01*
X129270761Y-101385333D01*
X129366000Y-101432952D01*
X129413619Y-101480571D01*
X129461238Y-101575809D01*
X129461238Y-101813904D01*
X129413619Y-101909142D01*
X129366000Y-101956761D01*
X129270761Y-102004380D01*
X128985047Y-102004380D01*
X128889809Y-101956761D01*
X128842190Y-101909142D01*
X130413619Y-102004380D02*
X129842190Y-102004380D01*
X130127904Y-102004380D02*
X130127904Y-101004380D01*
X130032666Y-101147238D01*
X129937428Y-101242476D01*
X129842190Y-101290095D01*
X132075000Y-98607142D02*
X132039285Y-98654761D01*
X131932142Y-98702380D01*
X131860714Y-98702380D01*
X131753571Y-98654761D01*
X131682142Y-98559523D01*
X131646428Y-98464285D01*
X131610714Y-98273809D01*
X131610714Y-98130952D01*
X131646428Y-97940476D01*
X131682142Y-97845238D01*
X131753571Y-97750000D01*
X131860714Y-97702380D01*
X131932142Y-97702380D01*
X132039285Y-97750000D01*
X132075000Y-97797619D01*
X132360714Y-98654761D02*
X132467857Y-98702380D01*
X132646428Y-98702380D01*
X132717857Y-98654761D01*
X132753571Y-98607142D01*
X132789285Y-98511904D01*
X132789285Y-98416666D01*
X132753571Y-98321428D01*
X132717857Y-98273809D01*
X132646428Y-98226190D01*
X132503571Y-98178571D01*
X132432142Y-98130952D01*
X132396428Y-98083333D01*
X132360714Y-97988095D01*
X132360714Y-97892857D01*
X132396428Y-97797619D01*
X132432142Y-97750000D01*
X132503571Y-97702380D01*
X132682142Y-97702380D01*
X132789285Y-97750000D01*
X134168571Y-98702380D02*
X134168571Y-97702380D01*
X134347142Y-97702380D01*
X134454285Y-97750000D01*
X134525714Y-97845238D01*
X134561428Y-97940476D01*
X134597142Y-98130952D01*
X134597142Y-98273809D01*
X134561428Y-98464285D01*
X134525714Y-98559523D01*
X134454285Y-98654761D01*
X134347142Y-98702380D01*
X134168571Y-98702380D01*
X135347142Y-98607142D02*
X135311428Y-98654761D01*
X135204285Y-98702380D01*
X135132857Y-98702380D01*
X135025714Y-98654761D01*
X134954285Y-98559523D01*
X134918571Y-98464285D01*
X134882857Y-98273809D01*
X134882857Y-98130952D01*
X134918571Y-97940476D01*
X134954285Y-97845238D01*
X135025714Y-97750000D01*
X135132857Y-97702380D01*
X135204285Y-97702380D01*
X135311428Y-97750000D01*
X135347142Y-97797619D01*
X136815714Y-98702380D02*
X136565714Y-98226190D01*
X136387142Y-98702380D02*
X136387142Y-97702380D01*
X136672857Y-97702380D01*
X136744285Y-97750000D01*
X136780000Y-97797619D01*
X136815714Y-97892857D01*
X136815714Y-98035714D01*
X136780000Y-98130952D01*
X136744285Y-98178571D01*
X136672857Y-98226190D01*
X136387142Y-98226190D01*
X137137142Y-98178571D02*
X137387142Y-98178571D01*
X137494285Y-98702380D02*
X137137142Y-98702380D01*
X137137142Y-97702380D01*
X137494285Y-97702380D01*
X137780000Y-98654761D02*
X137887142Y-98702380D01*
X138065714Y-98702380D01*
X138137142Y-98654761D01*
X138172857Y-98607142D01*
X138208571Y-98511904D01*
X138208571Y-98416666D01*
X138172857Y-98321428D01*
X138137142Y-98273809D01*
X138065714Y-98226190D01*
X137922857Y-98178571D01*
X137851428Y-98130952D01*
X137815714Y-98083333D01*
X137780000Y-97988095D01*
X137780000Y-97892857D01*
X137815714Y-97797619D01*
X137851428Y-97750000D01*
X137922857Y-97702380D01*
X138101428Y-97702380D01*
X138208571Y-97750000D01*
X138909285Y-98654761D02*
X139016428Y-98702380D01*
X139195000Y-98702380D01*
X139266428Y-98654761D01*
X139302142Y-98607142D01*
X139337857Y-98511904D01*
X139337857Y-98416666D01*
X139302142Y-98321428D01*
X139266428Y-98273809D01*
X139195000Y-98226190D01*
X139052142Y-98178571D01*
X138980714Y-98130952D01*
X138945000Y-98083333D01*
X138909285Y-97988095D01*
X138909285Y-97892857D01*
X138945000Y-97797619D01*
X138980714Y-97750000D01*
X139052142Y-97702380D01*
X139230714Y-97702380D01*
X139337857Y-97750000D01*
X139659285Y-98702380D02*
X139659285Y-97702380D01*
X139837857Y-97702380D01*
X139945000Y-97750000D01*
X140016428Y-97845238D01*
X140052142Y-97940476D01*
X140087857Y-98130952D01*
X140087857Y-98273809D01*
X140052142Y-98464285D01*
X140016428Y-98559523D01*
X139945000Y-98654761D01*
X139837857Y-98702380D01*
X139659285Y-98702380D01*
X140373571Y-98416666D02*
X140730714Y-98416666D01*
X140302142Y-98702380D02*
X140552142Y-97702380D01*
X140802142Y-98702380D01*
X141467142Y-98654761D02*
X141574285Y-98702380D01*
X141752857Y-98702380D01*
X141824285Y-98654761D01*
X141860000Y-98607142D01*
X141895714Y-98511904D01*
X141895714Y-98416666D01*
X141860000Y-98321428D01*
X141824285Y-98273809D01*
X141752857Y-98226190D01*
X141610000Y-98178571D01*
X141538571Y-98130952D01*
X141502857Y-98083333D01*
X141467142Y-97988095D01*
X141467142Y-97892857D01*
X141502857Y-97797619D01*
X141538571Y-97750000D01*
X141610000Y-97702380D01*
X141788571Y-97702380D01*
X141895714Y-97750000D01*
X142645714Y-98607142D02*
X142610000Y-98654761D01*
X142502857Y-98702380D01*
X142431428Y-98702380D01*
X142324285Y-98654761D01*
X142252857Y-98559523D01*
X142217142Y-98464285D01*
X142181428Y-98273809D01*
X142181428Y-98130952D01*
X142217142Y-97940476D01*
X142252857Y-97845238D01*
X142324285Y-97750000D01*
X142431428Y-97702380D01*
X142502857Y-97702380D01*
X142610000Y-97750000D01*
X142645714Y-97797619D01*
X143324285Y-98702380D02*
X142967142Y-98702380D01*
X142967142Y-97702380D01*
X143900000Y-97702380D02*
X144150000Y-98702380D01*
X144400000Y-97702380D01*
X145078571Y-98607142D02*
X145042857Y-98654761D01*
X144935714Y-98702380D01*
X144864285Y-98702380D01*
X144757142Y-98654761D01*
X144685714Y-98559523D01*
X144650000Y-98464285D01*
X144614285Y-98273809D01*
X144614285Y-98130952D01*
X144650000Y-97940476D01*
X144685714Y-97845238D01*
X144757142Y-97750000D01*
X144864285Y-97702380D01*
X144935714Y-97702380D01*
X145042857Y-97750000D01*
X145078571Y-97797619D01*
X145828571Y-98607142D02*
X145792857Y-98654761D01*
X145685714Y-98702380D01*
X145614285Y-98702380D01*
X145507142Y-98654761D01*
X145435714Y-98559523D01*
X145400000Y-98464285D01*
X145364285Y-98273809D01*
X145364285Y-98130952D01*
X145400000Y-97940476D01*
X145435714Y-97845238D01*
X145507142Y-97750000D01*
X145614285Y-97702380D01*
X145685714Y-97702380D01*
X145792857Y-97750000D01*
X145828571Y-97797619D01*
X146868571Y-97750000D02*
X146797142Y-97702380D01*
X146690000Y-97702380D01*
X146582857Y-97750000D01*
X146511428Y-97845238D01*
X146475714Y-97940476D01*
X146440000Y-98130952D01*
X146440000Y-98273809D01*
X146475714Y-98464285D01*
X146511428Y-98559523D01*
X146582857Y-98654761D01*
X146690000Y-98702380D01*
X146761428Y-98702380D01*
X146868571Y-98654761D01*
X146904285Y-98607142D01*
X146904285Y-98273809D01*
X146761428Y-98273809D01*
X147225714Y-98702380D02*
X147225714Y-97702380D01*
X147654285Y-98702380D01*
X147654285Y-97702380D01*
X148011428Y-98702380D02*
X148011428Y-97702380D01*
X148190000Y-97702380D01*
X148297142Y-97750000D01*
X148368571Y-97845238D01*
X148404285Y-97940476D01*
X148440000Y-98130952D01*
X148440000Y-98273809D01*
X148404285Y-98464285D01*
X148368571Y-98559523D01*
X148297142Y-98654761D01*
X148190000Y-98702380D01*
X148011428Y-98702380D01*
X170260476Y-78098571D02*
X170403333Y-78146190D01*
X170450952Y-78193809D01*
X170498571Y-78289047D01*
X170498571Y-78431904D01*
X170450952Y-78527142D01*
X170403333Y-78574761D01*
X170308095Y-78622380D01*
X169927142Y-78622380D01*
X169927142Y-77622380D01*
X170260476Y-77622380D01*
X170355714Y-77670000D01*
X170403333Y-77717619D01*
X170450952Y-77812857D01*
X170450952Y-77908095D01*
X170403333Y-78003333D01*
X170355714Y-78050952D01*
X170260476Y-78098571D01*
X169927142Y-78098571D01*
X170784285Y-77622380D02*
X171355714Y-77622380D01*
X171070000Y-78622380D02*
X171070000Y-77622380D01*
X171689047Y-78622380D02*
X171689047Y-77622380D01*
X172260476Y-78622380D01*
X172260476Y-77622380D01*
X172927142Y-77622380D02*
X173022380Y-77622380D01*
X173117619Y-77670000D01*
X173165238Y-77717619D01*
X173212857Y-77812857D01*
X173260476Y-78003333D01*
X173260476Y-78241428D01*
X173212857Y-78431904D01*
X173165238Y-78527142D01*
X173117619Y-78574761D01*
X173022380Y-78622380D01*
X172927142Y-78622380D01*
X172831904Y-78574761D01*
X172784285Y-78527142D01*
X172736666Y-78431904D01*
X172689047Y-78241428D01*
X172689047Y-78003333D01*
X172736666Y-77812857D01*
X172784285Y-77717619D01*
X172831904Y-77670000D01*
X172927142Y-77622380D01*
X104220476Y-93352571D02*
X104363333Y-93400190D01*
X104410952Y-93447809D01*
X104458571Y-93543047D01*
X104458571Y-93685904D01*
X104410952Y-93781142D01*
X104363333Y-93828761D01*
X104268095Y-93876380D01*
X103887142Y-93876380D01*
X103887142Y-92876380D01*
X104220476Y-92876380D01*
X104315714Y-92924000D01*
X104363333Y-92971619D01*
X104410952Y-93066857D01*
X104410952Y-93162095D01*
X104363333Y-93257333D01*
X104315714Y-93304952D01*
X104220476Y-93352571D01*
X103887142Y-93352571D01*
X104744285Y-92876380D02*
X105315714Y-92876380D01*
X105030000Y-93876380D02*
X105030000Y-92876380D01*
X105649047Y-93876380D02*
X105649047Y-92876380D01*
X106220476Y-93876380D01*
X106220476Y-92876380D01*
X107220476Y-93876380D02*
X106649047Y-93876380D01*
X106934761Y-93876380D02*
X106934761Y-92876380D01*
X106839523Y-93019238D01*
X106744285Y-93114476D01*
X106649047Y-93162095D01*
X115650476Y-93352571D02*
X115793333Y-93400190D01*
X115840952Y-93447809D01*
X115888571Y-93543047D01*
X115888571Y-93685904D01*
X115840952Y-93781142D01*
X115793333Y-93828761D01*
X115698095Y-93876380D01*
X115317142Y-93876380D01*
X115317142Y-92876380D01*
X115650476Y-92876380D01*
X115745714Y-92924000D01*
X115793333Y-92971619D01*
X115840952Y-93066857D01*
X115840952Y-93162095D01*
X115793333Y-93257333D01*
X115745714Y-93304952D01*
X115650476Y-93352571D01*
X115317142Y-93352571D01*
X116174285Y-92876380D02*
X116745714Y-92876380D01*
X116460000Y-93876380D02*
X116460000Y-92876380D01*
X117079047Y-93876380D02*
X117079047Y-92876380D01*
X117650476Y-93876380D01*
X117650476Y-92876380D01*
X118079047Y-92971619D02*
X118126666Y-92924000D01*
X118221904Y-92876380D01*
X118460000Y-92876380D01*
X118555238Y-92924000D01*
X118602857Y-92971619D01*
X118650476Y-93066857D01*
X118650476Y-93162095D01*
X118602857Y-93304952D01*
X118031428Y-93876380D01*
X118650476Y-93876380D01*
X158830476Y-95398571D02*
X158973333Y-95446190D01*
X159020952Y-95493809D01*
X159068571Y-95589047D01*
X159068571Y-95731904D01*
X159020952Y-95827142D01*
X158973333Y-95874761D01*
X158878095Y-95922380D01*
X158497142Y-95922380D01*
X158497142Y-94922380D01*
X158830476Y-94922380D01*
X158925714Y-94970000D01*
X158973333Y-95017619D01*
X159020952Y-95112857D01*
X159020952Y-95208095D01*
X158973333Y-95303333D01*
X158925714Y-95350952D01*
X158830476Y-95398571D01*
X158497142Y-95398571D01*
X159354285Y-94922380D02*
X159925714Y-94922380D01*
X159640000Y-95922380D02*
X159640000Y-94922380D01*
X160259047Y-95922380D02*
X160259047Y-94922380D01*
X160830476Y-95922380D01*
X160830476Y-94922380D01*
X161211428Y-94922380D02*
X161830476Y-94922380D01*
X161497142Y-95303333D01*
X161640000Y-95303333D01*
X161735238Y-95350952D01*
X161782857Y-95398571D01*
X161830476Y-95493809D01*
X161830476Y-95731904D01*
X161782857Y-95827142D01*
X161735238Y-95874761D01*
X161640000Y-95922380D01*
X161354285Y-95922380D01*
X161259047Y-95874761D01*
X161211428Y-95827142D01*
X158830476Y-104274571D02*
X158973333Y-104322190D01*
X159020952Y-104369809D01*
X159068571Y-104465047D01*
X159068571Y-104607904D01*
X159020952Y-104703142D01*
X158973333Y-104750761D01*
X158878095Y-104798380D01*
X158497142Y-104798380D01*
X158497142Y-103798380D01*
X158830476Y-103798380D01*
X158925714Y-103846000D01*
X158973333Y-103893619D01*
X159020952Y-103988857D01*
X159020952Y-104084095D01*
X158973333Y-104179333D01*
X158925714Y-104226952D01*
X158830476Y-104274571D01*
X158497142Y-104274571D01*
X159354285Y-103798380D02*
X159925714Y-103798380D01*
X159640000Y-104798380D02*
X159640000Y-103798380D01*
X160259047Y-104798380D02*
X160259047Y-103798380D01*
X160830476Y-104798380D01*
X160830476Y-103798380D01*
X161735238Y-104131714D02*
X161735238Y-104798380D01*
X161497142Y-103750761D02*
X161259047Y-104465047D01*
X161878095Y-104465047D01*
X147400476Y-104274571D02*
X147543333Y-104322190D01*
X147590952Y-104369809D01*
X147638571Y-104465047D01*
X147638571Y-104607904D01*
X147590952Y-104703142D01*
X147543333Y-104750761D01*
X147448095Y-104798380D01*
X147067142Y-104798380D01*
X147067142Y-103798380D01*
X147400476Y-103798380D01*
X147495714Y-103846000D01*
X147543333Y-103893619D01*
X147590952Y-103988857D01*
X147590952Y-104084095D01*
X147543333Y-104179333D01*
X147495714Y-104226952D01*
X147400476Y-104274571D01*
X147067142Y-104274571D01*
X147924285Y-103798380D02*
X148495714Y-103798380D01*
X148210000Y-104798380D02*
X148210000Y-103798380D01*
X148829047Y-104798380D02*
X148829047Y-103798380D01*
X149400476Y-104798380D01*
X149400476Y-103798380D01*
X150352857Y-103798380D02*
X149876666Y-103798380D01*
X149829047Y-104274571D01*
X149876666Y-104226952D01*
X149971904Y-104179333D01*
X150210000Y-104179333D01*
X150305238Y-104226952D01*
X150352857Y-104274571D01*
X150400476Y-104369809D01*
X150400476Y-104607904D01*
X150352857Y-104703142D01*
X150305238Y-104750761D01*
X150210000Y-104798380D01*
X149971904Y-104798380D01*
X149876666Y-104750761D01*
X149829047Y-104703142D01*
X170260476Y-104274571D02*
X170403333Y-104322190D01*
X170450952Y-104369809D01*
X170498571Y-104465047D01*
X170498571Y-104607904D01*
X170450952Y-104703142D01*
X170403333Y-104750761D01*
X170308095Y-104798380D01*
X169927142Y-104798380D01*
X169927142Y-103798380D01*
X170260476Y-103798380D01*
X170355714Y-103846000D01*
X170403333Y-103893619D01*
X170450952Y-103988857D01*
X170450952Y-104084095D01*
X170403333Y-104179333D01*
X170355714Y-104226952D01*
X170260476Y-104274571D01*
X169927142Y-104274571D01*
X170784285Y-103798380D02*
X171355714Y-103798380D01*
X171070000Y-104798380D02*
X171070000Y-103798380D01*
X171689047Y-104798380D02*
X171689047Y-103798380D01*
X172260476Y-104798380D01*
X172260476Y-103798380D01*
X173165238Y-103798380D02*
X172974761Y-103798380D01*
X172879523Y-103846000D01*
X172831904Y-103893619D01*
X172736666Y-104036476D01*
X172689047Y-104226952D01*
X172689047Y-104607904D01*
X172736666Y-104703142D01*
X172784285Y-104750761D01*
X172879523Y-104798380D01*
X173070000Y-104798380D01*
X173165238Y-104750761D01*
X173212857Y-104703142D01*
X173260476Y-104607904D01*
X173260476Y-104369809D01*
X173212857Y-104274571D01*
X173165238Y-104226952D01*
X173070000Y-104179333D01*
X172879523Y-104179333D01*
X172784285Y-104226952D01*
X172736666Y-104274571D01*
X172689047Y-104369809D01*
X153813761Y-75961333D02*
X153861380Y-75818476D01*
X153861380Y-75580380D01*
X153813761Y-75485142D01*
X153766142Y-75437523D01*
X153670904Y-75389904D01*
X153575666Y-75389904D01*
X153480428Y-75437523D01*
X153432809Y-75485142D01*
X153385190Y-75580380D01*
X153337571Y-75770857D01*
X153289952Y-75866095D01*
X153242333Y-75913714D01*
X153147095Y-75961333D01*
X153051857Y-75961333D01*
X152956619Y-75913714D01*
X152909000Y-75866095D01*
X152861380Y-75770857D01*
X152861380Y-75532761D01*
X152909000Y-75389904D01*
X152861380Y-75056571D02*
X153861380Y-74818476D01*
X153147095Y-74628000D01*
X153861380Y-74437523D01*
X152861380Y-74199428D01*
X153861380Y-73294666D02*
X153861380Y-73866095D01*
X153861380Y-73580380D02*
X152861380Y-73580380D01*
X153004238Y-73675619D01*
X153099476Y-73770857D01*
X153147095Y-73866095D01*
X129518095Y-77452380D02*
X129518095Y-78261904D01*
X129565714Y-78357142D01*
X129613333Y-78404761D01*
X129708571Y-78452380D01*
X129899047Y-78452380D01*
X129994285Y-78404761D01*
X130041904Y-78357142D01*
X130089523Y-78261904D01*
X130089523Y-77452380D01*
X131089523Y-78452380D02*
X130518095Y-78452380D01*
X130803809Y-78452380D02*
X130803809Y-77452380D01*
X130708571Y-77595238D01*
X130613333Y-77690476D01*
X130518095Y-77738095D01*
D16*
X121009098Y-71325350D02*
X121009098Y-71035064D01*
X121183269Y-71383407D02*
X120573669Y-71180207D01*
X121183269Y-70977007D01*
X120573669Y-70773807D02*
X121067155Y-70773807D01*
X121125212Y-70744778D01*
X121154240Y-70715750D01*
X121183269Y-70657692D01*
X121183269Y-70541578D01*
X121154240Y-70483521D01*
X121125212Y-70454492D01*
X121067155Y-70425464D01*
X120573669Y-70425464D01*
X121183269Y-70135178D02*
X120573669Y-70135178D01*
X120573669Y-69990035D01*
X120602698Y-69902950D01*
X120660755Y-69844892D01*
X120718812Y-69815864D01*
X120834926Y-69786835D01*
X120922012Y-69786835D01*
X121038126Y-69815864D01*
X121096183Y-69844892D01*
X121154240Y-69902950D01*
X121183269Y-69990035D01*
X121183269Y-70135178D01*
X121183269Y-69525578D02*
X120573669Y-69525578D01*
X120573669Y-69119178D02*
X120573669Y-69003064D01*
X120602698Y-68945007D01*
X120660755Y-68886950D01*
X120776869Y-68857921D01*
X120980069Y-68857921D01*
X121096183Y-68886950D01*
X121154240Y-68945007D01*
X121183269Y-69003064D01*
X121183269Y-69119178D01*
X121154240Y-69177235D01*
X121096183Y-69235292D01*
X120980069Y-69264321D01*
X120776869Y-69264321D01*
X120660755Y-69235292D01*
X120602698Y-69177235D01*
X120573669Y-69119178D01*
X121183269Y-68277350D02*
X121183269Y-68625692D01*
X121183269Y-68451521D02*
X120573669Y-68451521D01*
X120660755Y-68509578D01*
X120718812Y-68567635D01*
X120747840Y-68625692D01*
D13*
X125439878Y-75420397D02*
X126154164Y-75420397D01*
X126297021Y-75468016D01*
X126392259Y-75563254D01*
X126439878Y-75706111D01*
X126439878Y-75801350D01*
X126154164Y-74991826D02*
X126154164Y-74515635D01*
X126439878Y-75087064D02*
X125439878Y-74753730D01*
X126439878Y-74420397D01*
X126344640Y-73515635D02*
X126392259Y-73563254D01*
X126439878Y-73706111D01*
X126439878Y-73801350D01*
X126392259Y-73944207D01*
X126297021Y-74039445D01*
X126201783Y-74087064D01*
X126011307Y-74134683D01*
X125868450Y-74134683D01*
X125677974Y-74087064D01*
X125582736Y-74039445D01*
X125487498Y-73944207D01*
X125439878Y-73801350D01*
X125439878Y-73706111D01*
X125487498Y-73563254D01*
X125535117Y-73515635D01*
X126439878Y-73087064D02*
X125439878Y-73087064D01*
X126439878Y-72515635D02*
X125868450Y-72944207D01*
X125439878Y-72515635D02*
X126011307Y-73087064D01*
X126535117Y-72325159D02*
X126535117Y-71563254D01*
X125439878Y-71468016D02*
X125439878Y-70896588D01*
X126439878Y-71182302D02*
X125439878Y-71182302D01*
X126439878Y-69991826D02*
X125963688Y-70325159D01*
X126439878Y-70563254D02*
X125439878Y-70563254D01*
X125439878Y-70182302D01*
X125487498Y-70087064D01*
X125535117Y-70039445D01*
X125630355Y-69991826D01*
X125773212Y-69991826D01*
X125868450Y-70039445D01*
X125916069Y-70087064D01*
X125963688Y-70182302D01*
X125963688Y-70563254D01*
X126392259Y-69610873D02*
X126439878Y-69468016D01*
X126439878Y-69229921D01*
X126392259Y-69134683D01*
X126344640Y-69087064D01*
X126249402Y-69039445D01*
X126154164Y-69039445D01*
X126058926Y-69087064D01*
X126011307Y-69134683D01*
X125963688Y-69229921D01*
X125916069Y-69420397D01*
X125868450Y-69515635D01*
X125820831Y-69563254D01*
X125725593Y-69610873D01*
X125630355Y-69610873D01*
X125535117Y-69563254D01*
X125487498Y-69515635D01*
X125439878Y-69420397D01*
X125439878Y-69182302D01*
X125487498Y-69039445D01*
X126535117Y-68848969D02*
X126535117Y-68087064D01*
X125439878Y-67420397D02*
X125439878Y-67610873D01*
X125487498Y-67706111D01*
X125535117Y-67753730D01*
X125677974Y-67848969D01*
X125868450Y-67896588D01*
X126249402Y-67896588D01*
X126344640Y-67848969D01*
X126392259Y-67801350D01*
X126439878Y-67706111D01*
X126439878Y-67515635D01*
X126392259Y-67420397D01*
X126344640Y-67372778D01*
X126249402Y-67325159D01*
X126011307Y-67325159D01*
X125916069Y-67372778D01*
X125868450Y-67420397D01*
X125820831Y-67515635D01*
X125820831Y-67706111D01*
X125868450Y-67801350D01*
X125916069Y-67848969D01*
X126011307Y-67896588D01*
X126439878Y-66896588D02*
X125439878Y-66896588D01*
X125439878Y-66515635D01*
X125487498Y-66420397D01*
X125535117Y-66372778D01*
X125630355Y-66325159D01*
X125773212Y-66325159D01*
X125868450Y-66372778D01*
X125916069Y-66420397D01*
X125963688Y-66515635D01*
X125963688Y-66896588D01*
X126439878Y-65896588D02*
X125439878Y-65896588D01*
X126439878Y-65420397D02*
X125439878Y-65420397D01*
X126439878Y-64848969D01*
X125439878Y-64848969D01*
X126392259Y-64420397D02*
X126439878Y-64277540D01*
X126439878Y-64039445D01*
X126392259Y-63944207D01*
X126344640Y-63896588D01*
X126249402Y-63848969D01*
X126154164Y-63848969D01*
X126058926Y-63896588D01*
X126011307Y-63944207D01*
X125963688Y-64039445D01*
X125916069Y-64229921D01*
X125868450Y-64325159D01*
X125820831Y-64372778D01*
X125725593Y-64420397D01*
X125630355Y-64420397D01*
X125535117Y-64372778D01*
X125487498Y-64325159D01*
X125439878Y-64229921D01*
X125439878Y-63991826D01*
X125487498Y-63848969D01*
D17*
X114293563Y-98192630D02*
X114379198Y-98221175D01*
X114521921Y-98221175D01*
X114579011Y-98192630D01*
X114607556Y-98164085D01*
X114636100Y-98106996D01*
X114636100Y-98049906D01*
X114607556Y-97992817D01*
X114579011Y-97964272D01*
X114521921Y-97935727D01*
X114407742Y-97907182D01*
X114350653Y-97878638D01*
X114322108Y-97850093D01*
X114293563Y-97793003D01*
X114293563Y-97735914D01*
X114322108Y-97678824D01*
X114350653Y-97650280D01*
X114407742Y-97621735D01*
X114550466Y-97621735D01*
X114636100Y-97650280D01*
X114893003Y-98221175D02*
X114893003Y-97621735D01*
X115035727Y-97621735D01*
X115121361Y-97650280D01*
X115178451Y-97707369D01*
X115206996Y-97764459D01*
X115235540Y-97878638D01*
X115235540Y-97964272D01*
X115206996Y-98078451D01*
X115178451Y-98135540D01*
X115121361Y-98192630D01*
X115035727Y-98221175D01*
X114893003Y-98221175D01*
X115806436Y-98221175D02*
X115463899Y-98221175D01*
X115635167Y-98221175D02*
X115635167Y-97621735D01*
X115578078Y-97707369D01*
X115520988Y-97764459D01*
X115463899Y-97793003D01*
X112281158Y-99462630D02*
X112366792Y-99491175D01*
X112509516Y-99491175D01*
X112566605Y-99462630D01*
X112595150Y-99434085D01*
X112623695Y-99376996D01*
X112623695Y-99319906D01*
X112595150Y-99262817D01*
X112566605Y-99234272D01*
X112509516Y-99205727D01*
X112395337Y-99177182D01*
X112338247Y-99148638D01*
X112309702Y-99120093D01*
X112281158Y-99063003D01*
X112281158Y-99005914D01*
X112309702Y-98948824D01*
X112338247Y-98920280D01*
X112395337Y-98891735D01*
X112538060Y-98891735D01*
X112623695Y-98920280D01*
X113223135Y-99434085D02*
X113194590Y-99462630D01*
X113108956Y-99491175D01*
X113051866Y-99491175D01*
X112966232Y-99462630D01*
X112909142Y-99405540D01*
X112880598Y-99348451D01*
X112852053Y-99234272D01*
X112852053Y-99148638D01*
X112880598Y-99034459D01*
X112909142Y-98977369D01*
X112966232Y-98920280D01*
X113051866Y-98891735D01*
X113108956Y-98891735D01*
X113194590Y-98920280D01*
X113223135Y-98948824D01*
X113480038Y-99491175D02*
X113480038Y-98891735D01*
X113480038Y-99177182D02*
X113822575Y-99177182D01*
X113822575Y-99491175D02*
X113822575Y-98891735D01*
X114108022Y-99491175D02*
X114108022Y-98891735D01*
X114250746Y-98891735D01*
X114336380Y-98920280D01*
X114393470Y-98977369D01*
X114422015Y-99034459D01*
X114450560Y-99148638D01*
X114450560Y-99234272D01*
X114422015Y-99348451D01*
X114393470Y-99405540D01*
X114336380Y-99462630D01*
X114250746Y-99491175D01*
X114108022Y-99491175D01*
X114650373Y-98891735D02*
X115021455Y-98891735D01*
X114821641Y-99120093D01*
X114907276Y-99120093D01*
X114964365Y-99148638D01*
X114992910Y-99177182D01*
X115021455Y-99234272D01*
X115021455Y-99376996D01*
X114992910Y-99434085D01*
X114964365Y-99462630D01*
X114907276Y-99491175D01*
X114736007Y-99491175D01*
X114678918Y-99462630D01*
X114650373Y-99434085D01*
X115249813Y-99319906D02*
X115535260Y-99319906D01*
X115192723Y-99491175D02*
X115392537Y-98891735D01*
X115592350Y-99491175D01*
X115906342Y-98891735D02*
X115963432Y-98891735D01*
X116020521Y-98920280D01*
X116049066Y-98948824D01*
X116077611Y-99005914D01*
X116106156Y-99120093D01*
X116106156Y-99262817D01*
X116077611Y-99376996D01*
X116049066Y-99434085D01*
X116020521Y-99462630D01*
X115963432Y-99491175D01*
X115906342Y-99491175D01*
X115849253Y-99462630D01*
X115820708Y-99434085D01*
X115792163Y-99376996D01*
X115763619Y-99262817D01*
X115763619Y-99120093D01*
X115792163Y-99005914D01*
X115820708Y-98948824D01*
X115849253Y-98920280D01*
X115906342Y-98891735D01*
X116677051Y-99491175D02*
X116334514Y-99491175D01*
X116505782Y-99491175D02*
X116505782Y-98891735D01*
X116448693Y-98977369D01*
X116391603Y-99034459D01*
X116334514Y-99063003D01*
X117048133Y-98891735D02*
X117105222Y-98891735D01*
X117162312Y-98920280D01*
X117190857Y-98948824D01*
X117219401Y-99005914D01*
X117247946Y-99120093D01*
X117247946Y-99262817D01*
X117219401Y-99376996D01*
X117190857Y-99434085D01*
X117162312Y-99462630D01*
X117105222Y-99491175D01*
X117048133Y-99491175D01*
X116991043Y-99462630D01*
X116962499Y-99434085D01*
X116933954Y-99376996D01*
X116905409Y-99262817D01*
X116905409Y-99120093D01*
X116933954Y-99005914D01*
X116962499Y-98948824D01*
X116991043Y-98920280D01*
X117048133Y-98891735D01*
X117619028Y-98891735D02*
X117676118Y-98891735D01*
X117733207Y-98920280D01*
X117761752Y-98948824D01*
X117790297Y-99005914D01*
X117818841Y-99120093D01*
X117818841Y-99262817D01*
X117790297Y-99376996D01*
X117761752Y-99434085D01*
X117733207Y-99462630D01*
X117676118Y-99491175D01*
X117619028Y-99491175D01*
X117561939Y-99462630D01*
X117533394Y-99434085D01*
X117504849Y-99376996D01*
X117476304Y-99262817D01*
X117476304Y-99120093D01*
X117504849Y-99005914D01*
X117533394Y-98948824D01*
X117561939Y-98920280D01*
X117619028Y-98891735D01*
D13*
X110423809Y-69596190D02*
X110423809Y-70072380D01*
X110090476Y-69072380D02*
X110423809Y-69596190D01*
X110757142Y-69072380D01*
X111614285Y-70072380D02*
X111042857Y-70072380D01*
X111328571Y-70072380D02*
X111328571Y-69072380D01*
X111233333Y-69215238D01*
X111138095Y-69310476D01*
X111042857Y-69358095D01*
X154338095Y-80272380D02*
X154338095Y-81081904D01*
X154385714Y-81177142D01*
X154433333Y-81224761D01*
X154528571Y-81272380D01*
X154719047Y-81272380D01*
X154814285Y-81224761D01*
X154861904Y-81177142D01*
X154909523Y-81081904D01*
X154909523Y-80272380D01*
X155338095Y-80367619D02*
X155385714Y-80320000D01*
X155480952Y-80272380D01*
X155719047Y-80272380D01*
X155814285Y-80320000D01*
X155861904Y-80367619D01*
X155909523Y-80462857D01*
X155909523Y-80558095D01*
X155861904Y-80700952D01*
X155290476Y-81272380D01*
X155909523Y-81272380D01*
D18*
X113346428Y-73956571D02*
X113346428Y-73506571D01*
X113517857Y-73506571D01*
X113560714Y-73528000D01*
X113582142Y-73549428D01*
X113603571Y-73592285D01*
X113603571Y-73656571D01*
X113582142Y-73699428D01*
X113560714Y-73720857D01*
X113517857Y-73742285D01*
X113346428Y-73742285D01*
X114053571Y-73956571D02*
X113903571Y-73742285D01*
X113796428Y-73956571D02*
X113796428Y-73506571D01*
X113967857Y-73506571D01*
X114010714Y-73528000D01*
X114032142Y-73549428D01*
X114053571Y-73592285D01*
X114053571Y-73656571D01*
X114032142Y-73699428D01*
X114010714Y-73720857D01*
X113967857Y-73742285D01*
X113796428Y-73742285D01*
X114332142Y-73506571D02*
X114417857Y-73506571D01*
X114460714Y-73528000D01*
X114503571Y-73570857D01*
X114525000Y-73656571D01*
X114525000Y-73806571D01*
X114503571Y-73892285D01*
X114460714Y-73935142D01*
X114417857Y-73956571D01*
X114332142Y-73956571D01*
X114289285Y-73935142D01*
X114246428Y-73892285D01*
X114225000Y-73806571D01*
X114225000Y-73656571D01*
X114246428Y-73570857D01*
X114289285Y-73528000D01*
X114332142Y-73506571D01*
X114717857Y-73956571D02*
X114717857Y-73506571D01*
X114889285Y-73506571D02*
X115189285Y-73506571D01*
X114889285Y-73956571D01*
X115189285Y-73956571D01*
X115296428Y-73506571D02*
X115446428Y-73956571D01*
X115596428Y-73506571D01*
X115832142Y-73506571D02*
X115917857Y-73506571D01*
X115960714Y-73528000D01*
X116003571Y-73570857D01*
X116025000Y-73656571D01*
X116025000Y-73806571D01*
X116003571Y-73892285D01*
X115960714Y-73935142D01*
X115917857Y-73956571D01*
X115832142Y-73956571D01*
X115789285Y-73935142D01*
X115746428Y-73892285D01*
X115725000Y-73806571D01*
X115725000Y-73656571D01*
X115746428Y-73570857D01*
X115789285Y-73528000D01*
X115832142Y-73506571D01*
X116217857Y-73956571D02*
X116217857Y-73506571D01*
X116325000Y-73506571D01*
X116389285Y-73528000D01*
X116432142Y-73570857D01*
X116453571Y-73613714D01*
X116475000Y-73699428D01*
X116475000Y-73763714D01*
X116453571Y-73849428D01*
X116432142Y-73892285D01*
X116389285Y-73935142D01*
X116325000Y-73956571D01*
X116217857Y-73956571D01*
X113280952Y-69379190D02*
X113280952Y-68879190D01*
X113280952Y-69117285D02*
X113566666Y-69117285D01*
X113566666Y-69379190D02*
X113566666Y-68879190D01*
X114090476Y-69379190D02*
X113923809Y-69141095D01*
X113804761Y-69379190D02*
X113804761Y-68879190D01*
X113995238Y-68879190D01*
X114042857Y-68903000D01*
X114066666Y-68926809D01*
X114090476Y-68974428D01*
X114090476Y-69045857D01*
X114066666Y-69093476D01*
X114042857Y-69117285D01*
X113995238Y-69141095D01*
X113804761Y-69141095D01*
X114233333Y-68879190D02*
X114400000Y-69379190D01*
X114566666Y-68879190D01*
X114709523Y-69236333D02*
X114947619Y-69236333D01*
X114661904Y-69379190D02*
X114828571Y-68879190D01*
X114995238Y-69379190D01*
X115090476Y-68879190D02*
X115376190Y-68879190D01*
X115233333Y-69379190D02*
X115233333Y-68879190D01*
X115519047Y-69355380D02*
X115590476Y-69379190D01*
X115709523Y-69379190D01*
X115757142Y-69355380D01*
X115780952Y-69331571D01*
X115804761Y-69283952D01*
X115804761Y-69236333D01*
X115780952Y-69188714D01*
X115757142Y-69164904D01*
X115709523Y-69141095D01*
X115614285Y-69117285D01*
X115566666Y-69093476D01*
X115542857Y-69069666D01*
X115519047Y-69022047D01*
X115519047Y-68974428D01*
X115542857Y-68926809D01*
X115566666Y-68903000D01*
X115614285Y-68879190D01*
X115733333Y-68879190D01*
X115804761Y-68903000D01*
X116019047Y-69379190D02*
X116019047Y-68879190D01*
X116304761Y-69379190D02*
X116090476Y-69093476D01*
X116304761Y-68879190D02*
X116019047Y-69164904D01*
X116519047Y-69379190D02*
X116519047Y-68879190D01*
D13*
X149068142Y-76413857D02*
X149115761Y-76461476D01*
X149163380Y-76604333D01*
X149163380Y-76699571D01*
X149115761Y-76842428D01*
X149020523Y-76937666D01*
X148925285Y-76985285D01*
X148734809Y-77032904D01*
X148591952Y-77032904D01*
X148401476Y-76985285D01*
X148306238Y-76937666D01*
X148211000Y-76842428D01*
X148163380Y-76699571D01*
X148163380Y-76604333D01*
X148211000Y-76461476D01*
X148258619Y-76413857D01*
X148163380Y-76080523D02*
X148163380Y-75461476D01*
X148544333Y-75794809D01*
X148544333Y-75651952D01*
X148591952Y-75556714D01*
X148639571Y-75509095D01*
X148734809Y-75461476D01*
X148972904Y-75461476D01*
X149068142Y-75509095D01*
X149115761Y-75556714D01*
X149163380Y-75651952D01*
X149163380Y-75937666D01*
X149115761Y-76032904D01*
X149068142Y-76080523D01*
X148163380Y-74604333D02*
X148163380Y-74794809D01*
X148211000Y-74890047D01*
X148258619Y-74937666D01*
X148401476Y-75032904D01*
X148591952Y-75080523D01*
X148972904Y-75080523D01*
X149068142Y-75032904D01*
X149115761Y-74985285D01*
X149163380Y-74890047D01*
X149163380Y-74699571D01*
X149115761Y-74604333D01*
X149068142Y-74556714D01*
X148972904Y-74509095D01*
X148734809Y-74509095D01*
X148639571Y-74556714D01*
X148591952Y-74604333D01*
X148544333Y-74699571D01*
X148544333Y-74890047D01*
X148591952Y-74985285D01*
X148639571Y-75032904D01*
X148734809Y-75080523D01*
X150465142Y-76413857D02*
X150512761Y-76461476D01*
X150560380Y-76604333D01*
X150560380Y-76699571D01*
X150512761Y-76842428D01*
X150417523Y-76937666D01*
X150322285Y-76985285D01*
X150131809Y-77032904D01*
X149988952Y-77032904D01*
X149798476Y-76985285D01*
X149703238Y-76937666D01*
X149608000Y-76842428D01*
X149560380Y-76699571D01*
X149560380Y-76604333D01*
X149608000Y-76461476D01*
X149655619Y-76413857D01*
X149560380Y-76080523D02*
X149560380Y-75461476D01*
X149941333Y-75794809D01*
X149941333Y-75651952D01*
X149988952Y-75556714D01*
X150036571Y-75509095D01*
X150131809Y-75461476D01*
X150369904Y-75461476D01*
X150465142Y-75509095D01*
X150512761Y-75556714D01*
X150560380Y-75651952D01*
X150560380Y-75937666D01*
X150512761Y-76032904D01*
X150465142Y-76080523D01*
X149560380Y-75128142D02*
X149560380Y-74461476D01*
X150560380Y-74890047D01*
X138908142Y-76413857D02*
X138955761Y-76461476D01*
X139003380Y-76604333D01*
X139003380Y-76699571D01*
X138955761Y-76842428D01*
X138860523Y-76937666D01*
X138765285Y-76985285D01*
X138574809Y-77032904D01*
X138431952Y-77032904D01*
X138241476Y-76985285D01*
X138146238Y-76937666D01*
X138051000Y-76842428D01*
X138003380Y-76699571D01*
X138003380Y-76604333D01*
X138051000Y-76461476D01*
X138098619Y-76413857D01*
X138003380Y-76080523D02*
X138003380Y-75461476D01*
X138384333Y-75794809D01*
X138384333Y-75651952D01*
X138431952Y-75556714D01*
X138479571Y-75509095D01*
X138574809Y-75461476D01*
X138812904Y-75461476D01*
X138908142Y-75509095D01*
X138955761Y-75556714D01*
X139003380Y-75651952D01*
X139003380Y-75937666D01*
X138955761Y-76032904D01*
X138908142Y-76080523D01*
X138431952Y-74890047D02*
X138384333Y-74985285D01*
X138336714Y-75032904D01*
X138241476Y-75080523D01*
X138193857Y-75080523D01*
X138098619Y-75032904D01*
X138051000Y-74985285D01*
X138003380Y-74890047D01*
X138003380Y-74699571D01*
X138051000Y-74604333D01*
X138098619Y-74556714D01*
X138193857Y-74509095D01*
X138241476Y-74509095D01*
X138336714Y-74556714D01*
X138384333Y-74604333D01*
X138431952Y-74699571D01*
X138431952Y-74890047D01*
X138479571Y-74985285D01*
X138527190Y-75032904D01*
X138622428Y-75080523D01*
X138812904Y-75080523D01*
X138908142Y-75032904D01*
X138955761Y-74985285D01*
X139003380Y-74890047D01*
X139003380Y-74699571D01*
X138955761Y-74604333D01*
X138908142Y-74556714D01*
X138812904Y-74509095D01*
X138622428Y-74509095D01*
X138527190Y-74556714D01*
X138479571Y-74604333D01*
X138431952Y-74699571D01*
X141702142Y-76413857D02*
X141749761Y-76461476D01*
X141797380Y-76604333D01*
X141797380Y-76699571D01*
X141749761Y-76842428D01*
X141654523Y-76937666D01*
X141559285Y-76985285D01*
X141368809Y-77032904D01*
X141225952Y-77032904D01*
X141035476Y-76985285D01*
X140940238Y-76937666D01*
X140845000Y-76842428D01*
X140797380Y-76699571D01*
X140797380Y-76604333D01*
X140845000Y-76461476D01*
X140892619Y-76413857D01*
X140797380Y-76080523D02*
X140797380Y-75461476D01*
X141178333Y-75794809D01*
X141178333Y-75651952D01*
X141225952Y-75556714D01*
X141273571Y-75509095D01*
X141368809Y-75461476D01*
X141606904Y-75461476D01*
X141702142Y-75509095D01*
X141749761Y-75556714D01*
X141797380Y-75651952D01*
X141797380Y-75937666D01*
X141749761Y-76032904D01*
X141702142Y-76080523D01*
X141797380Y-74985285D02*
X141797380Y-74794809D01*
X141749761Y-74699571D01*
X141702142Y-74651952D01*
X141559285Y-74556714D01*
X141368809Y-74509095D01*
X140987857Y-74509095D01*
X140892619Y-74556714D01*
X140845000Y-74604333D01*
X140797380Y-74699571D01*
X140797380Y-74890047D01*
X140845000Y-74985285D01*
X140892619Y-75032904D01*
X140987857Y-75080523D01*
X141225952Y-75080523D01*
X141321190Y-75032904D01*
X141368809Y-74985285D01*
X141416428Y-74890047D01*
X141416428Y-74699571D01*
X141368809Y-74604333D01*
X141321190Y-74556714D01*
X141225952Y-74509095D01*
X144496142Y-76413857D02*
X144543761Y-76461476D01*
X144591380Y-76604333D01*
X144591380Y-76699571D01*
X144543761Y-76842428D01*
X144448523Y-76937666D01*
X144353285Y-76985285D01*
X144162809Y-77032904D01*
X144019952Y-77032904D01*
X143829476Y-76985285D01*
X143734238Y-76937666D01*
X143639000Y-76842428D01*
X143591380Y-76699571D01*
X143591380Y-76604333D01*
X143639000Y-76461476D01*
X143686619Y-76413857D01*
X143924714Y-75556714D02*
X144591380Y-75556714D01*
X143543761Y-75794809D02*
X144258047Y-76032904D01*
X144258047Y-75413857D01*
X143591380Y-74842428D02*
X143591380Y-74747190D01*
X143639000Y-74651952D01*
X143686619Y-74604333D01*
X143781857Y-74556714D01*
X143972333Y-74509095D01*
X144210428Y-74509095D01*
X144400904Y-74556714D01*
X144496142Y-74604333D01*
X144543761Y-74651952D01*
X144591380Y-74747190D01*
X144591380Y-74842428D01*
X144543761Y-74937666D01*
X144496142Y-74985285D01*
X144400904Y-75032904D01*
X144210428Y-75080523D01*
X143972333Y-75080523D01*
X143781857Y-75032904D01*
X143686619Y-74985285D01*
X143639000Y-74937666D01*
X143591380Y-74842428D01*
X147671142Y-76413857D02*
X147718761Y-76461476D01*
X147766380Y-76604333D01*
X147766380Y-76699571D01*
X147718761Y-76842428D01*
X147623523Y-76937666D01*
X147528285Y-76985285D01*
X147337809Y-77032904D01*
X147194952Y-77032904D01*
X147004476Y-76985285D01*
X146909238Y-76937666D01*
X146814000Y-76842428D01*
X146766380Y-76699571D01*
X146766380Y-76604333D01*
X146814000Y-76461476D01*
X146861619Y-76413857D01*
X147099714Y-75556714D02*
X147766380Y-75556714D01*
X146718761Y-75794809D02*
X147433047Y-76032904D01*
X147433047Y-75413857D01*
X147766380Y-74509095D02*
X147766380Y-75080523D01*
X147766380Y-74794809D02*
X146766380Y-74794809D01*
X146909238Y-74890047D01*
X147004476Y-74985285D01*
X147052095Y-75080523D01*
X137449942Y-76406457D02*
X137497561Y-76454076D01*
X137545180Y-76596933D01*
X137545180Y-76692171D01*
X137497561Y-76835028D01*
X137402323Y-76930266D01*
X137307085Y-76977885D01*
X137116609Y-77025504D01*
X136973752Y-77025504D01*
X136783276Y-76977885D01*
X136688038Y-76930266D01*
X136592800Y-76835028D01*
X136545180Y-76692171D01*
X136545180Y-76596933D01*
X136592800Y-76454076D01*
X136640419Y-76406457D01*
X136878514Y-75549314D02*
X137545180Y-75549314D01*
X136497561Y-75787409D02*
X137211847Y-76025504D01*
X137211847Y-75406457D01*
X136640419Y-75073123D02*
X136592800Y-75025504D01*
X136545180Y-74930266D01*
X136545180Y-74692171D01*
X136592800Y-74596933D01*
X136640419Y-74549314D01*
X136735657Y-74501695D01*
X136830895Y-74501695D01*
X136973752Y-74549314D01*
X137545180Y-75120742D01*
X137545180Y-74501695D01*
X140305142Y-76413857D02*
X140352761Y-76461476D01*
X140400380Y-76604333D01*
X140400380Y-76699571D01*
X140352761Y-76842428D01*
X140257523Y-76937666D01*
X140162285Y-76985285D01*
X139971809Y-77032904D01*
X139828952Y-77032904D01*
X139638476Y-76985285D01*
X139543238Y-76937666D01*
X139448000Y-76842428D01*
X139400380Y-76699571D01*
X139400380Y-76604333D01*
X139448000Y-76461476D01*
X139495619Y-76413857D01*
X139733714Y-75556714D02*
X140400380Y-75556714D01*
X139352761Y-75794809D02*
X140067047Y-76032904D01*
X140067047Y-75413857D01*
X139400380Y-75128142D02*
X139400380Y-74509095D01*
X139781333Y-74842428D01*
X139781333Y-74699571D01*
X139828952Y-74604333D01*
X139876571Y-74556714D01*
X139971809Y-74509095D01*
X140209904Y-74509095D01*
X140305142Y-74556714D01*
X140352761Y-74604333D01*
X140400380Y-74699571D01*
X140400380Y-74985285D01*
X140352761Y-75080523D01*
X140305142Y-75128142D01*
X143099142Y-76413857D02*
X143146761Y-76461476D01*
X143194380Y-76604333D01*
X143194380Y-76699571D01*
X143146761Y-76842428D01*
X143051523Y-76937666D01*
X142956285Y-76985285D01*
X142765809Y-77032904D01*
X142622952Y-77032904D01*
X142432476Y-76985285D01*
X142337238Y-76937666D01*
X142242000Y-76842428D01*
X142194380Y-76699571D01*
X142194380Y-76604333D01*
X142242000Y-76461476D01*
X142289619Y-76413857D01*
X142527714Y-75556714D02*
X143194380Y-75556714D01*
X142146761Y-75794809D02*
X142861047Y-76032904D01*
X142861047Y-75413857D01*
X142527714Y-74604333D02*
X143194380Y-74604333D01*
X142146761Y-74842428D02*
X142861047Y-75080523D01*
X142861047Y-74461476D01*
X146274142Y-76401857D02*
X146321761Y-76449476D01*
X146369380Y-76592333D01*
X146369380Y-76687571D01*
X146321761Y-76830428D01*
X146226523Y-76925666D01*
X146131285Y-76973285D01*
X145940809Y-77020904D01*
X145797952Y-77020904D01*
X145607476Y-76973285D01*
X145512238Y-76925666D01*
X145417000Y-76830428D01*
X145369380Y-76687571D01*
X145369380Y-76592333D01*
X145417000Y-76449476D01*
X145464619Y-76401857D01*
X145702714Y-75544714D02*
X146369380Y-75544714D01*
X145321761Y-75782809D02*
X146036047Y-76020904D01*
X146036047Y-75401857D01*
X145369380Y-74544714D02*
X145369380Y-75020904D01*
X145845571Y-75068523D01*
X145797952Y-75020904D01*
X145750333Y-74925666D01*
X145750333Y-74687571D01*
X145797952Y-74592333D01*
X145845571Y-74544714D01*
X145940809Y-74497095D01*
X146178904Y-74497095D01*
X146274142Y-74544714D01*
X146321761Y-74592333D01*
X146369380Y-74687571D01*
X146369380Y-74925666D01*
X146321761Y-75020904D01*
X146274142Y-75068523D01*
X133302380Y-107084285D02*
X132302380Y-107084285D01*
X132302380Y-106846190D01*
X132350000Y-106703333D01*
X132445238Y-106608095D01*
X132540476Y-106560476D01*
X132730952Y-106512857D01*
X132873809Y-106512857D01*
X133064285Y-106560476D01*
X133159523Y-106608095D01*
X133254761Y-106703333D01*
X133302380Y-106846190D01*
X133302380Y-107084285D01*
X133302380Y-105560476D02*
X133302380Y-106131904D01*
X133302380Y-105846190D02*
X132302380Y-105846190D01*
X132445238Y-105941428D01*
X132540476Y-106036666D01*
X132588095Y-106131904D01*
X133302380Y-105084285D02*
X133302380Y-104893809D01*
X133254761Y-104798571D01*
X133207142Y-104750952D01*
X133064285Y-104655714D01*
X132873809Y-104608095D01*
X132492857Y-104608095D01*
X132397619Y-104655714D01*
X132350000Y-104703333D01*
X132302380Y-104798571D01*
X132302380Y-104989047D01*
X132350000Y-105084285D01*
X132397619Y-105131904D01*
X132492857Y-105179523D01*
X132730952Y-105179523D01*
X132826190Y-105131904D01*
X132873809Y-105084285D01*
X132921428Y-104989047D01*
X132921428Y-104798571D01*
X132873809Y-104703333D01*
X132826190Y-104655714D01*
X132730952Y-104608095D01*
X123142380Y-80337095D02*
X122142380Y-80337095D01*
X122142380Y-80099000D01*
X122190000Y-79956142D01*
X122285238Y-79860904D01*
X122380476Y-79813285D01*
X122570952Y-79765666D01*
X122713809Y-79765666D01*
X122904285Y-79813285D01*
X122999523Y-79860904D01*
X123094761Y-79956142D01*
X123142380Y-80099000D01*
X123142380Y-80337095D01*
X122142380Y-79146619D02*
X122142380Y-79051380D01*
X122190000Y-78956142D01*
X122237619Y-78908523D01*
X122332857Y-78860904D01*
X122523333Y-78813285D01*
X122761428Y-78813285D01*
X122951904Y-78860904D01*
X123047142Y-78908523D01*
X123094761Y-78956142D01*
X123142380Y-79051380D01*
X123142380Y-79146619D01*
X123094761Y-79241857D01*
X123047142Y-79289476D01*
X122951904Y-79337095D01*
X122761428Y-79384714D01*
X122523333Y-79384714D01*
X122332857Y-79337095D01*
X122237619Y-79289476D01*
X122190000Y-79241857D01*
X122142380Y-79146619D01*
X118697380Y-77543095D02*
X117697380Y-77543095D01*
X117697380Y-77305000D01*
X117745000Y-77162142D01*
X117840238Y-77066904D01*
X117935476Y-77019285D01*
X118125952Y-76971666D01*
X118268809Y-76971666D01*
X118459285Y-77019285D01*
X118554523Y-77066904D01*
X118649761Y-77162142D01*
X118697380Y-77305000D01*
X118697380Y-77543095D01*
X118697380Y-76019285D02*
X118697380Y-76590714D01*
X118697380Y-76305000D02*
X117697380Y-76305000D01*
X117840238Y-76400238D01*
X117935476Y-76495476D01*
X117983095Y-76590714D01*
X116157380Y-77543095D02*
X115157380Y-77543095D01*
X115157380Y-77305000D01*
X115205000Y-77162142D01*
X115300238Y-77066904D01*
X115395476Y-77019285D01*
X115585952Y-76971666D01*
X115728809Y-76971666D01*
X115919285Y-77019285D01*
X116014523Y-77066904D01*
X116109761Y-77162142D01*
X116157380Y-77305000D01*
X116157380Y-77543095D01*
X115252619Y-76590714D02*
X115205000Y-76543095D01*
X115157380Y-76447857D01*
X115157380Y-76209761D01*
X115205000Y-76114523D01*
X115252619Y-76066904D01*
X115347857Y-76019285D01*
X115443095Y-76019285D01*
X115585952Y-76066904D01*
X116157380Y-76638333D01*
X116157380Y-76019285D01*
X113617380Y-77543095D02*
X112617380Y-77543095D01*
X112617380Y-77305000D01*
X112665000Y-77162142D01*
X112760238Y-77066904D01*
X112855476Y-77019285D01*
X113045952Y-76971666D01*
X113188809Y-76971666D01*
X113379285Y-77019285D01*
X113474523Y-77066904D01*
X113569761Y-77162142D01*
X113617380Y-77305000D01*
X113617380Y-77543095D01*
X112617380Y-76638333D02*
X112617380Y-76019285D01*
X112998333Y-76352619D01*
X112998333Y-76209761D01*
X113045952Y-76114523D01*
X113093571Y-76066904D01*
X113188809Y-76019285D01*
X113426904Y-76019285D01*
X113522142Y-76066904D01*
X113569761Y-76114523D01*
X113617380Y-76209761D01*
X113617380Y-76495476D01*
X113569761Y-76590714D01*
X113522142Y-76638333D01*
X111077380Y-77543095D02*
X110077380Y-77543095D01*
X110077380Y-77305000D01*
X110125000Y-77162142D01*
X110220238Y-77066904D01*
X110315476Y-77019285D01*
X110505952Y-76971666D01*
X110648809Y-76971666D01*
X110839285Y-77019285D01*
X110934523Y-77066904D01*
X111029761Y-77162142D01*
X111077380Y-77305000D01*
X111077380Y-77543095D01*
X110410714Y-76114523D02*
X111077380Y-76114523D01*
X110029761Y-76352619D02*
X110744047Y-76590714D01*
X110744047Y-75971666D01*
X108537380Y-77543095D02*
X107537380Y-77543095D01*
X107537380Y-77305000D01*
X107585000Y-77162142D01*
X107680238Y-77066904D01*
X107775476Y-77019285D01*
X107965952Y-76971666D01*
X108108809Y-76971666D01*
X108299285Y-77019285D01*
X108394523Y-77066904D01*
X108489761Y-77162142D01*
X108537380Y-77305000D01*
X108537380Y-77543095D01*
X107537380Y-76066904D02*
X107537380Y-76543095D01*
X108013571Y-76590714D01*
X107965952Y-76543095D01*
X107918333Y-76447857D01*
X107918333Y-76209761D01*
X107965952Y-76114523D01*
X108013571Y-76066904D01*
X108108809Y-76019285D01*
X108346904Y-76019285D01*
X108442142Y-76066904D01*
X108489761Y-76114523D01*
X108537380Y-76209761D01*
X108537380Y-76447857D01*
X108489761Y-76543095D01*
X108442142Y-76590714D01*
X105997380Y-77543095D02*
X104997380Y-77543095D01*
X104997380Y-77305000D01*
X105045000Y-77162142D01*
X105140238Y-77066904D01*
X105235476Y-77019285D01*
X105425952Y-76971666D01*
X105568809Y-76971666D01*
X105759285Y-77019285D01*
X105854523Y-77066904D01*
X105949761Y-77162142D01*
X105997380Y-77305000D01*
X105997380Y-77543095D01*
X104997380Y-76114523D02*
X104997380Y-76305000D01*
X105045000Y-76400238D01*
X105092619Y-76447857D01*
X105235476Y-76543095D01*
X105425952Y-76590714D01*
X105806904Y-76590714D01*
X105902142Y-76543095D01*
X105949761Y-76495476D01*
X105997380Y-76400238D01*
X105997380Y-76209761D01*
X105949761Y-76114523D01*
X105902142Y-76066904D01*
X105806904Y-76019285D01*
X105568809Y-76019285D01*
X105473571Y-76066904D01*
X105425952Y-76114523D01*
X105378333Y-76209761D01*
X105378333Y-76400238D01*
X105425952Y-76495476D01*
X105473571Y-76543095D01*
X105568809Y-76590714D01*
X103457380Y-77543095D02*
X102457380Y-77543095D01*
X102457380Y-77305000D01*
X102505000Y-77162142D01*
X102600238Y-77066904D01*
X102695476Y-77019285D01*
X102885952Y-76971666D01*
X103028809Y-76971666D01*
X103219285Y-77019285D01*
X103314523Y-77066904D01*
X103409761Y-77162142D01*
X103457380Y-77305000D01*
X103457380Y-77543095D01*
X102457380Y-76638333D02*
X102457380Y-75971666D01*
X103457380Y-76400238D01*
X127190714Y-104181380D02*
X127190714Y-103181380D01*
X127428809Y-103181380D01*
X127571666Y-103229000D01*
X127666904Y-103324238D01*
X127714523Y-103419476D01*
X127762142Y-103609952D01*
X127762142Y-103752809D01*
X127714523Y-103943285D01*
X127666904Y-104038523D01*
X127571666Y-104133761D01*
X127428809Y-104181380D01*
X127190714Y-104181380D01*
X128714523Y-104181380D02*
X128143095Y-104181380D01*
X128428809Y-104181380D02*
X128428809Y-103181380D01*
X128333571Y-103324238D01*
X128238333Y-103419476D01*
X128143095Y-103467095D01*
X129285952Y-103609952D02*
X129190714Y-103562333D01*
X129143095Y-103514714D01*
X129095476Y-103419476D01*
X129095476Y-103371857D01*
X129143095Y-103276619D01*
X129190714Y-103229000D01*
X129285952Y-103181380D01*
X129476428Y-103181380D01*
X129571666Y-103229000D01*
X129619285Y-103276619D01*
X129666904Y-103371857D01*
X129666904Y-103419476D01*
X129619285Y-103514714D01*
X129571666Y-103562333D01*
X129476428Y-103609952D01*
X129285952Y-103609952D01*
X129190714Y-103657571D01*
X129143095Y-103705190D01*
X129095476Y-103800428D01*
X129095476Y-103990904D01*
X129143095Y-104086142D01*
X129190714Y-104133761D01*
X129285952Y-104181380D01*
X129476428Y-104181380D01*
X129571666Y-104133761D01*
X129619285Y-104086142D01*
X129666904Y-103990904D01*
X129666904Y-103800428D01*
X129619285Y-103705190D01*
X129571666Y-103657571D01*
X129476428Y-103609952D01*
X124539380Y-107102285D02*
X123539380Y-107102285D01*
X123539380Y-106864190D01*
X123587000Y-106721333D01*
X123682238Y-106626095D01*
X123777476Y-106578476D01*
X123967952Y-106530857D01*
X124110809Y-106530857D01*
X124301285Y-106578476D01*
X124396523Y-106626095D01*
X124491761Y-106721333D01*
X124539380Y-106864190D01*
X124539380Y-107102285D01*
X123634619Y-106149904D02*
X123587000Y-106102285D01*
X123539380Y-106007047D01*
X123539380Y-105768952D01*
X123587000Y-105673714D01*
X123634619Y-105626095D01*
X123729857Y-105578476D01*
X123825095Y-105578476D01*
X123967952Y-105626095D01*
X124539380Y-106197523D01*
X124539380Y-105578476D01*
X123634619Y-105197523D02*
X123587000Y-105149904D01*
X123539380Y-105054666D01*
X123539380Y-104816571D01*
X123587000Y-104721333D01*
X123634619Y-104673714D01*
X123729857Y-104626095D01*
X123825095Y-104626095D01*
X123967952Y-104673714D01*
X124539380Y-105245142D01*
X124539380Y-104626095D01*
X143843619Y-71923500D02*
X143748380Y-71875880D01*
X143605523Y-71875880D01*
X143462666Y-71923500D01*
X143367428Y-72018738D01*
X143319809Y-72113976D01*
X143272190Y-72304452D01*
X143272190Y-72447309D01*
X143319809Y-72637785D01*
X143367428Y-72733023D01*
X143462666Y-72828261D01*
X143605523Y-72875880D01*
X143700761Y-72875880D01*
X143843619Y-72828261D01*
X143891238Y-72780642D01*
X143891238Y-72447309D01*
X143700761Y-72447309D01*
X144319809Y-72875880D02*
X144319809Y-71875880D01*
X144700761Y-71875880D01*
X144796000Y-71923500D01*
X144843619Y-71971119D01*
X144891238Y-72066357D01*
X144891238Y-72209214D01*
X144843619Y-72304452D01*
X144796000Y-72352071D01*
X144700761Y-72399690D01*
X144319809Y-72399690D01*
X145319809Y-72875880D02*
X145319809Y-71875880D01*
X145557904Y-71875880D01*
X145700761Y-71923500D01*
X145796000Y-72018738D01*
X145843619Y-72113976D01*
X145891238Y-72304452D01*
X145891238Y-72447309D01*
X145843619Y-72637785D01*
X145796000Y-72733023D01*
X145700761Y-72828261D01*
X145557904Y-72875880D01*
X145319809Y-72875880D01*
X146319809Y-72875880D02*
X146319809Y-71875880D01*
X147319809Y-72875880D02*
X146748380Y-72875880D01*
X147034095Y-72875880D02*
X147034095Y-71875880D01*
X146938857Y-72018738D01*
X146843619Y-72113976D01*
X146748380Y-72161595D01*
X122761380Y-83144857D02*
X122285190Y-83478190D01*
X122761380Y-83716285D02*
X121761380Y-83716285D01*
X121761380Y-83335333D01*
X121809000Y-83240095D01*
X121856619Y-83192476D01*
X121951857Y-83144857D01*
X122094714Y-83144857D01*
X122189952Y-83192476D01*
X122237571Y-83240095D01*
X122285190Y-83335333D01*
X122285190Y-83716285D01*
X122094714Y-82287714D02*
X122761380Y-82287714D01*
X121713761Y-82525809D02*
X122428047Y-82763904D01*
X122428047Y-82144857D01*
X122761380Y-81240095D02*
X122761380Y-81811523D01*
X122761380Y-81525809D02*
X121761380Y-81525809D01*
X121904238Y-81621047D01*
X121999476Y-81716285D01*
X122047095Y-81811523D01*
X101792380Y-83144857D02*
X101316190Y-83478190D01*
X101792380Y-83716285D02*
X100792380Y-83716285D01*
X100792380Y-83335333D01*
X100840000Y-83240095D01*
X100887619Y-83192476D01*
X100982857Y-83144857D01*
X101125714Y-83144857D01*
X101220952Y-83192476D01*
X101268571Y-83240095D01*
X101316190Y-83335333D01*
X101316190Y-83716285D01*
X101125714Y-82287714D02*
X101792380Y-82287714D01*
X100744761Y-82525809D02*
X101459047Y-82763904D01*
X101459047Y-82144857D01*
X101220952Y-81621047D02*
X101173333Y-81716285D01*
X101125714Y-81763904D01*
X101030476Y-81811523D01*
X100982857Y-81811523D01*
X100887619Y-81763904D01*
X100840000Y-81716285D01*
X100792380Y-81621047D01*
X100792380Y-81430571D01*
X100840000Y-81335333D01*
X100887619Y-81287714D01*
X100982857Y-81240095D01*
X101030476Y-81240095D01*
X101125714Y-81287714D01*
X101173333Y-81335333D01*
X101220952Y-81430571D01*
X101220952Y-81621047D01*
X101268571Y-81716285D01*
X101316190Y-81763904D01*
X101411428Y-81811523D01*
X101601904Y-81811523D01*
X101697142Y-81763904D01*
X101744761Y-81716285D01*
X101792380Y-81621047D01*
X101792380Y-81430571D01*
X101744761Y-81335333D01*
X101697142Y-81287714D01*
X101601904Y-81240095D01*
X101411428Y-81240095D01*
X101316190Y-81287714D01*
X101268571Y-81335333D01*
X101220952Y-81430571D01*
X127587380Y-110340857D02*
X127111190Y-110674190D01*
X127587380Y-110912285D02*
X126587380Y-110912285D01*
X126587380Y-110531333D01*
X126635000Y-110436095D01*
X126682619Y-110388476D01*
X126777857Y-110340857D01*
X126920714Y-110340857D01*
X127015952Y-110388476D01*
X127063571Y-110436095D01*
X127111190Y-110531333D01*
X127111190Y-110912285D01*
X126587380Y-110007523D02*
X126587380Y-109388476D01*
X126968333Y-109721809D01*
X126968333Y-109578952D01*
X127015952Y-109483714D01*
X127063571Y-109436095D01*
X127158809Y-109388476D01*
X127396904Y-109388476D01*
X127492142Y-109436095D01*
X127539761Y-109483714D01*
X127587380Y-109578952D01*
X127587380Y-109864666D01*
X127539761Y-109959904D01*
X127492142Y-110007523D01*
X126587380Y-108531333D02*
X126587380Y-108721809D01*
X126635000Y-108817047D01*
X126682619Y-108864666D01*
X126825476Y-108959904D01*
X127015952Y-109007523D01*
X127396904Y-109007523D01*
X127492142Y-108959904D01*
X127539761Y-108912285D01*
X127587380Y-108817047D01*
X127587380Y-108626571D01*
X127539761Y-108531333D01*
X127492142Y-108483714D01*
X127396904Y-108436095D01*
X127158809Y-108436095D01*
X127063571Y-108483714D01*
X127015952Y-108531333D01*
X126968333Y-108626571D01*
X126968333Y-108817047D01*
X127015952Y-108912285D01*
X127063571Y-108959904D01*
X127158809Y-109007523D01*
X130127380Y-110322857D02*
X129651190Y-110656190D01*
X130127380Y-110894285D02*
X129127380Y-110894285D01*
X129127380Y-110513333D01*
X129175000Y-110418095D01*
X129222619Y-110370476D01*
X129317857Y-110322857D01*
X129460714Y-110322857D01*
X129555952Y-110370476D01*
X129603571Y-110418095D01*
X129651190Y-110513333D01*
X129651190Y-110894285D01*
X129127380Y-109989523D02*
X129127380Y-109370476D01*
X129508333Y-109703809D01*
X129508333Y-109560952D01*
X129555952Y-109465714D01*
X129603571Y-109418095D01*
X129698809Y-109370476D01*
X129936904Y-109370476D01*
X130032142Y-109418095D01*
X130079761Y-109465714D01*
X130127380Y-109560952D01*
X130127380Y-109846666D01*
X130079761Y-109941904D01*
X130032142Y-109989523D01*
X129127380Y-109037142D02*
X129127380Y-108370476D01*
X130127380Y-108799047D01*
X124920380Y-110340857D02*
X124444190Y-110674190D01*
X124920380Y-110912285D02*
X123920380Y-110912285D01*
X123920380Y-110531333D01*
X123968000Y-110436095D01*
X124015619Y-110388476D01*
X124110857Y-110340857D01*
X124253714Y-110340857D01*
X124348952Y-110388476D01*
X124396571Y-110436095D01*
X124444190Y-110531333D01*
X124444190Y-110912285D01*
X123920380Y-109483714D02*
X123920380Y-109674190D01*
X123968000Y-109769428D01*
X124015619Y-109817047D01*
X124158476Y-109912285D01*
X124348952Y-109959904D01*
X124729904Y-109959904D01*
X124825142Y-109912285D01*
X124872761Y-109864666D01*
X124920380Y-109769428D01*
X124920380Y-109578952D01*
X124872761Y-109483714D01*
X124825142Y-109436095D01*
X124729904Y-109388476D01*
X124491809Y-109388476D01*
X124396571Y-109436095D01*
X124348952Y-109483714D01*
X124301333Y-109578952D01*
X124301333Y-109769428D01*
X124348952Y-109864666D01*
X124396571Y-109912285D01*
X124491809Y-109959904D01*
X124015619Y-109007523D02*
X123968000Y-108959904D01*
X123920380Y-108864666D01*
X123920380Y-108626571D01*
X123968000Y-108531333D01*
X124015619Y-108483714D01*
X124110857Y-108436095D01*
X124206095Y-108436095D01*
X124348952Y-108483714D01*
X124920380Y-109055142D01*
X124920380Y-108436095D01*
X130490762Y-68616880D02*
X130157429Y-68140690D01*
X129919334Y-68616880D02*
X129919334Y-67616880D01*
X130300286Y-67616880D01*
X130395524Y-67664500D01*
X130443143Y-67712119D01*
X130490762Y-67807357D01*
X130490762Y-67950214D01*
X130443143Y-68045452D01*
X130395524Y-68093071D01*
X130300286Y-68140690D01*
X129919334Y-68140690D01*
X130776477Y-67616880D02*
X131109810Y-68616880D01*
X131443143Y-67616880D01*
X131728858Y-67712119D02*
X131776477Y-67664500D01*
X131871715Y-67616880D01*
X132109810Y-67616880D01*
X132205048Y-67664500D01*
X132252667Y-67712119D01*
X132300286Y-67807357D01*
X132300286Y-67902595D01*
X132252667Y-68045452D01*
X131681239Y-68616880D01*
X132300286Y-68616880D01*
X133524761Y-68616880D02*
X133191428Y-68140690D01*
X132953333Y-68616880D02*
X132953333Y-67616880D01*
X133334285Y-67616880D01*
X133429523Y-67664500D01*
X133477142Y-67712119D01*
X133524761Y-67807357D01*
X133524761Y-67950214D01*
X133477142Y-68045452D01*
X133429523Y-68093071D01*
X133334285Y-68140690D01*
X132953333Y-68140690D01*
X133810476Y-67616880D02*
X134143809Y-68616880D01*
X134477142Y-67616880D01*
X134715238Y-67616880D02*
X135334285Y-67616880D01*
X135000952Y-67997833D01*
X135143809Y-67997833D01*
X135239047Y-68045452D01*
X135286666Y-68093071D01*
X135334285Y-68188309D01*
X135334285Y-68426404D01*
X135286666Y-68521642D01*
X135239047Y-68569261D01*
X135143809Y-68616880D01*
X134858095Y-68616880D01*
X134762857Y-68569261D01*
X134715238Y-68521642D01*
X100112380Y-96043333D02*
X100826666Y-96043333D01*
X100969523Y-96090952D01*
X101064761Y-96186190D01*
X101112380Y-96329047D01*
X101112380Y-96424285D01*
X100112380Y-95662380D02*
X100112380Y-95043333D01*
X100493333Y-95376666D01*
X100493333Y-95233809D01*
X100540952Y-95138571D01*
X100588571Y-95090952D01*
X100683809Y-95043333D01*
X100921904Y-95043333D01*
X101017142Y-95090952D01*
X101064761Y-95138571D01*
X101112380Y-95233809D01*
X101112380Y-95519523D01*
X101064761Y-95614761D01*
X101017142Y-95662380D01*
X127178380Y-72058333D02*
X127892666Y-72058333D01*
X128035523Y-72105952D01*
X128130761Y-72201190D01*
X128178380Y-72344047D01*
X128178380Y-72439285D01*
X127178380Y-71105952D02*
X127178380Y-71582142D01*
X127654571Y-71629761D01*
X127606952Y-71582142D01*
X127559333Y-71486904D01*
X127559333Y-71248809D01*
X127606952Y-71153571D01*
X127654571Y-71105952D01*
X127749809Y-71058333D01*
X127987904Y-71058333D01*
X128083142Y-71105952D01*
X128130761Y-71153571D01*
X128178380Y-71248809D01*
X128178380Y-71486904D01*
X128130761Y-71582142D01*
X128083142Y-71629761D01*
M02*
