%FSLAX45Y45*%
G04 Gerber Fmt 4.5, Leading zero omitted, Abs format (unit mm)*
G04 Created by KiCad (PCBNEW 4.0.5+dfsg1-4) date Thu Jul  6 11:21:00 2017*
%MOMM*%
%LPD*%
G01*
G04 APERTURE LIST*
%ADD10C,0.127000*%
%ADD11C,0.300000*%
%ADD12C,0.200000*%
G04 APERTURE END LIST*
D10*
D11*
X9410000Y-6142000D02*
X9410000Y-11222000D01*
X18808000Y-6142000D02*
X9410000Y-6142000D01*
X18808000Y-11222000D02*
X18808000Y-6142000D01*
X9410000Y-11222000D02*
X18808000Y-11222000D01*
D12*
X9998000Y-10410000D02*
X10018000Y-10430000D01*
X10018000Y-10410000D02*
X9998000Y-10430000D01*
X10153120Y-7655925D02*
X10173120Y-7675925D01*
X10173120Y-7655925D02*
X10153120Y-7675925D01*
X10536244Y-8738297D02*
X10556244Y-8758297D01*
X10556244Y-8738297D02*
X10536244Y-8758297D01*
X10598000Y-10390000D02*
X10618000Y-10410000D01*
X10618000Y-10390000D02*
X10598000Y-10410000D01*
X10921500Y-7783000D02*
X10941500Y-7803000D01*
X10941500Y-7783000D02*
X10921500Y-7803000D01*
X10924000Y-7402000D02*
X10944000Y-7422000D01*
X10944000Y-7402000D02*
X10924000Y-7422000D01*
X11018000Y-10490000D02*
X11038000Y-10510000D01*
X11038000Y-10490000D02*
X11018000Y-10510000D01*
X11042966Y-10966034D02*
X11062966Y-10986034D01*
X11062966Y-10966034D02*
X11042966Y-10986034D01*
X11241500Y-8291000D02*
X11261500Y-8311000D01*
X11261500Y-8291000D02*
X11241500Y-8311000D01*
X11241500Y-8608500D02*
X11261500Y-8628500D01*
X11261500Y-8608500D02*
X11241500Y-8628500D01*
X11283591Y-9924409D02*
X11303591Y-9944409D01*
X11303591Y-9924409D02*
X11283591Y-9944409D01*
X11298000Y-8870000D02*
X11318000Y-8890000D01*
X11318000Y-8870000D02*
X11298000Y-8890000D01*
X11368500Y-7402000D02*
X11388500Y-7422000D01*
X11388500Y-7402000D02*
X11368500Y-7422000D01*
X11655434Y-7867799D02*
X11675434Y-7887799D01*
X11675434Y-7867799D02*
X11655434Y-7887799D01*
X11702166Y-9771727D02*
X11722166Y-9791727D01*
X11722166Y-9771727D02*
X11702166Y-9791727D01*
X11749500Y-6640000D02*
X11769500Y-6660000D01*
X11769500Y-6640000D02*
X11749500Y-6660000D01*
X11764953Y-6903902D02*
X11784953Y-6923902D01*
X11784953Y-6903902D02*
X11764953Y-6923902D01*
X11874380Y-9539822D02*
X11894380Y-9559822D01*
X11894380Y-9539822D02*
X11874380Y-9559822D01*
X11875869Y-6255897D02*
X11895869Y-6275897D01*
X11895869Y-6255897D02*
X11875869Y-6275897D01*
X12033000Y-9695000D02*
X12053000Y-9715000D01*
X12053000Y-9695000D02*
X12033000Y-9715000D01*
X12067000Y-7211500D02*
X12087000Y-7231500D01*
X12087000Y-7211500D02*
X12067000Y-7231500D01*
X12078000Y-9090000D02*
X12098000Y-9110000D01*
X12098000Y-9090000D02*
X12078000Y-9110000D01*
X12130862Y-9053246D02*
X12150862Y-9073246D01*
X12150862Y-9053246D02*
X12130862Y-9073246D01*
X12180203Y-6743283D02*
X12200203Y-6763283D01*
X12200203Y-6743283D02*
X12180203Y-6763283D01*
X12410242Y-10710764D02*
X12430242Y-10730764D01*
X12430242Y-10710764D02*
X12410242Y-10730764D01*
X12415398Y-10588254D02*
X12435398Y-10608254D01*
X12435398Y-10588254D02*
X12415398Y-10608254D01*
X12572728Y-9335266D02*
X12592728Y-9355266D01*
X12592728Y-9335266D02*
X12572728Y-9355266D01*
X12754366Y-7925556D02*
X12774366Y-7945556D01*
X12774366Y-7925556D02*
X12754366Y-7945556D01*
X12771644Y-8821207D02*
X12791644Y-8841207D01*
X12791644Y-8821207D02*
X12771644Y-8841207D01*
X12784042Y-8514419D02*
X12804042Y-8534419D01*
X12804042Y-8514419D02*
X12784042Y-8534419D01*
X12788700Y-8380353D02*
X12808700Y-8400353D01*
X12808700Y-8380353D02*
X12788700Y-8400353D01*
X12802169Y-8464934D02*
X12822169Y-8484934D01*
X12822169Y-8464934D02*
X12802169Y-8484934D01*
X12834133Y-10069588D02*
X12854133Y-10089588D01*
X12854133Y-10069588D02*
X12834133Y-10089588D01*
X12839057Y-8917988D02*
X12859057Y-8937988D01*
X12859057Y-8917988D02*
X12839057Y-8937988D01*
X12841590Y-7889418D02*
X12861590Y-7909418D01*
X12861590Y-7889418D02*
X12841590Y-7909418D01*
X12844557Y-7737658D02*
X12864557Y-7757658D01*
X12864557Y-7737658D02*
X12844557Y-7757658D01*
X12846973Y-7836992D02*
X12866973Y-7856992D01*
X12866973Y-7836992D02*
X12846973Y-7856992D01*
X12850280Y-10377254D02*
X12870280Y-10397254D01*
X12870280Y-10377254D02*
X12850280Y-10397254D01*
X12851011Y-10461457D02*
X12871011Y-10481457D01*
X12871011Y-10461457D02*
X12851011Y-10481457D01*
X12855211Y-8522878D02*
X12875211Y-8542878D01*
X12875211Y-8522878D02*
X12855211Y-8542878D01*
X12860120Y-8420770D02*
X12880120Y-8440770D01*
X12880120Y-8420770D02*
X12860120Y-8440770D01*
X12864323Y-9162956D02*
X12884323Y-9182956D01*
X12884323Y-9162956D02*
X12864323Y-9182956D01*
X12881408Y-8334012D02*
X12901408Y-8354012D01*
X12901408Y-8334012D02*
X12881408Y-8354012D01*
X12888829Y-8276216D02*
X12908829Y-8296216D01*
X12908829Y-8276216D02*
X12888829Y-8296216D01*
X12896827Y-7603421D02*
X12916827Y-7623421D01*
X12916827Y-7603421D02*
X12896827Y-7623421D01*
X12899530Y-8694825D02*
X12919530Y-8714825D01*
X12919530Y-8694825D02*
X12899530Y-8714825D01*
X12916126Y-7407777D02*
X12936126Y-7427777D01*
X12936126Y-7407777D02*
X12916126Y-7427777D01*
X12917915Y-9311667D02*
X12937915Y-9331667D01*
X12937915Y-9311667D02*
X12917915Y-9331667D01*
X12920650Y-9163578D02*
X12940650Y-9183578D01*
X12940650Y-9163578D02*
X12920650Y-9183578D01*
X12923458Y-8938264D02*
X12943458Y-8958264D01*
X12943458Y-8938264D02*
X12923458Y-8958264D01*
X12940061Y-8376602D02*
X12960061Y-8396602D01*
X12960061Y-8376602D02*
X12940061Y-8396602D01*
X12944985Y-7563644D02*
X12964985Y-7583644D01*
X12964985Y-7563644D02*
X12944985Y-7583644D01*
X12949953Y-8654407D02*
X12969953Y-8674407D01*
X12969953Y-8654407D02*
X12949953Y-8674407D01*
X12973842Y-9243977D02*
X12993842Y-9263977D01*
X12993842Y-9243977D02*
X12973842Y-9263977D01*
X12974244Y-9138787D02*
X12994244Y-9158787D01*
X12994244Y-9138787D02*
X12974244Y-9158787D01*
X12977096Y-7521443D02*
X12997096Y-7541443D01*
X12997096Y-7521443D02*
X12977096Y-7541443D01*
X13002401Y-9331328D02*
X13022401Y-9351328D01*
X13022401Y-9331328D02*
X13002401Y-9351328D01*
X13007344Y-8029822D02*
X13027344Y-8049822D01*
X13027344Y-8029822D02*
X13007344Y-8049822D01*
X13070707Y-9535414D02*
X13090707Y-9555414D01*
X13090707Y-9535414D02*
X13070707Y-9555414D01*
X13073949Y-10325498D02*
X13093949Y-10345498D01*
X13093949Y-10325498D02*
X13073949Y-10345498D01*
X13075683Y-7764262D02*
X13095683Y-7784262D01*
X13095683Y-7764262D02*
X13075683Y-7784262D01*
X13081453Y-10236965D02*
X13101453Y-10256965D01*
X13101453Y-10236965D02*
X13081453Y-10256965D01*
X13082744Y-6701962D02*
X13102744Y-6721962D01*
X13102744Y-6701962D02*
X13082744Y-6721962D01*
X13093936Y-9738729D02*
X13113936Y-9758729D01*
X13113936Y-9738729D02*
X13093936Y-9758729D01*
X13108000Y-8040000D02*
X13128000Y-8060000D01*
X13128000Y-8040000D02*
X13108000Y-8060000D01*
X13113091Y-7801384D02*
X13133091Y-7821384D01*
X13133091Y-7801384D02*
X13113091Y-7821384D01*
X13115453Y-8615136D02*
X13135453Y-8635136D01*
X13135453Y-8615136D02*
X13115453Y-8635136D01*
X13118000Y-8930000D02*
X13138000Y-8950000D01*
X13138000Y-8930000D02*
X13118000Y-8950000D01*
X13135385Y-10319621D02*
X13155385Y-10339621D01*
X13155385Y-10319621D02*
X13135385Y-10339621D01*
X13160933Y-7864587D02*
X13180933Y-7884587D01*
X13180933Y-7864587D02*
X13160933Y-7884587D01*
X13174731Y-7948989D02*
X13194731Y-7968989D01*
X13194731Y-7948989D02*
X13174731Y-7968989D01*
X13182329Y-7748485D02*
X13202329Y-7768485D01*
X13202329Y-7748485D02*
X13182329Y-7768485D01*
X13197765Y-9087799D02*
X13217765Y-9107799D01*
X13217765Y-9087799D02*
X13197765Y-9107799D01*
X13197789Y-8617215D02*
X13217789Y-8637215D01*
X13217789Y-8617215D02*
X13197789Y-8637215D01*
X13197962Y-8532814D02*
X13217962Y-8552814D01*
X13217962Y-8532814D02*
X13197962Y-8552814D01*
X13198000Y-8440334D02*
X13218000Y-8460334D01*
X13218000Y-8440334D02*
X13198000Y-8460334D01*
X13198000Y-8130000D02*
X13218000Y-8150000D01*
X13218000Y-8130000D02*
X13198000Y-8150000D01*
X13198000Y-8207799D02*
X13218000Y-8227799D01*
X13218000Y-8207799D02*
X13198000Y-8227799D01*
X13198000Y-8690000D02*
X13218000Y-8710000D01*
X13218000Y-8690000D02*
X13198000Y-8710000D01*
X13198000Y-8934402D02*
X13218000Y-8954402D01*
X13218000Y-8934402D02*
X13198000Y-8954402D01*
X13198000Y-9250000D02*
X13218000Y-9270000D01*
X13218000Y-9250000D02*
X13198000Y-9270000D01*
X13198000Y-9330000D02*
X13218000Y-9350000D01*
X13218000Y-9330000D02*
X13198000Y-9350000D01*
X13198000Y-9410000D02*
X13218000Y-9430000D01*
X13218000Y-9410000D02*
X13198000Y-9430000D01*
X13198482Y-8292201D02*
X13218482Y-8312201D01*
X13218482Y-8292201D02*
X13198482Y-8312201D01*
X13201744Y-8376602D02*
X13221744Y-8396602D01*
X13221744Y-8376602D02*
X13201744Y-8396602D01*
X13205028Y-10978912D02*
X13225028Y-10998912D01*
X13225028Y-10978912D02*
X13205028Y-10998912D01*
X13218000Y-10870000D02*
X13238000Y-10890000D01*
X13238000Y-10870000D02*
X13218000Y-10890000D01*
X13244000Y-10530000D02*
X13264000Y-10550000D01*
X13264000Y-10530000D02*
X13244000Y-10550000D01*
X13247282Y-9628386D02*
X13267282Y-9648386D01*
X13267282Y-9628386D02*
X13247282Y-9648386D01*
X13255619Y-10587619D02*
X13275619Y-10607619D01*
X13275619Y-10587619D02*
X13255619Y-10607619D01*
X13263724Y-7657621D02*
X13283724Y-7677621D01*
X13283724Y-7657621D02*
X13263724Y-7677621D01*
X13264803Y-10932068D02*
X13284803Y-10952068D01*
X13284803Y-10932068D02*
X13264803Y-10952068D01*
X13265267Y-9807892D02*
X13285267Y-9827892D01*
X13285267Y-9807892D02*
X13265267Y-9827892D01*
X13266117Y-7710267D02*
X13286117Y-7730267D01*
X13286117Y-7710267D02*
X13266117Y-7730267D01*
X13268333Y-8129999D02*
X13288333Y-8149999D01*
X13288333Y-8129999D02*
X13268333Y-8149999D01*
X13271035Y-8207799D02*
X13291035Y-8227799D01*
X13291035Y-8207799D02*
X13271035Y-8227799D01*
X13274623Y-9409707D02*
X13294623Y-9429707D01*
X13294623Y-9409707D02*
X13274623Y-9429707D01*
X13277580Y-8532814D02*
X13297580Y-8552814D01*
X13297580Y-8532814D02*
X13277580Y-8552814D01*
X13278000Y-8292201D02*
X13298000Y-8312201D01*
X13298000Y-8292201D02*
X13278000Y-8312201D01*
X13278000Y-8850000D02*
X13298000Y-8870000D01*
X13298000Y-8850000D02*
X13278000Y-8870000D01*
X13278000Y-9090000D02*
X13298000Y-9110000D01*
X13298000Y-9090000D02*
X13278000Y-9110000D01*
X13278000Y-9170000D02*
X13298000Y-9190000D01*
X13298000Y-9170000D02*
X13278000Y-9190000D01*
X13278000Y-9250000D02*
X13298000Y-9270000D01*
X13298000Y-9250000D02*
X13278000Y-9270000D01*
X13278000Y-9330000D02*
X13298000Y-9350000D01*
X13298000Y-9330000D02*
X13278000Y-9350000D01*
X13278042Y-8446122D02*
X13298042Y-8466122D01*
X13298042Y-8446122D02*
X13278042Y-8466122D01*
X13278650Y-8367799D02*
X13298650Y-8387799D01*
X13298650Y-8367799D02*
X13278650Y-8387799D01*
X13281858Y-10470000D02*
X13301858Y-10490000D01*
X13301858Y-10470000D02*
X13281858Y-10490000D01*
X13305701Y-10773989D02*
X13325701Y-10793989D01*
X13325701Y-10773989D02*
X13305701Y-10793989D01*
X13311600Y-10983400D02*
X13331600Y-11003400D01*
X13331600Y-10983400D02*
X13311600Y-11003400D01*
X13352734Y-8129641D02*
X13372734Y-8149641D01*
X13372734Y-8129641D02*
X13352734Y-8149641D01*
X13355436Y-8207799D02*
X13375436Y-8227799D01*
X13375436Y-8207799D02*
X13355436Y-8227799D01*
X13357194Y-8449520D02*
X13377194Y-8469520D01*
X13377194Y-8449520D02*
X13357194Y-8469520D01*
X13358000Y-9170000D02*
X13378000Y-9190000D01*
X13378000Y-9170000D02*
X13358000Y-9190000D01*
X13358000Y-9250000D02*
X13378000Y-9270000D01*
X13378000Y-9250000D02*
X13358000Y-9270000D01*
X13358567Y-9330248D02*
X13378567Y-9350248D01*
X13378567Y-9330248D02*
X13358567Y-9350248D01*
X13359024Y-9408016D02*
X13379024Y-9428016D01*
X13379024Y-9408016D02*
X13359024Y-9428016D01*
X13378000Y-6330000D02*
X13398000Y-6350000D01*
X13398000Y-6330000D02*
X13378000Y-6350000D01*
X13381998Y-9593873D02*
X13401998Y-9613873D01*
X13401998Y-9593873D02*
X13381998Y-9613873D01*
X13382219Y-7775484D02*
X13402219Y-7795484D01*
X13402219Y-7775484D02*
X13382219Y-7795484D01*
X13437135Y-8124791D02*
X13457135Y-8144791D01*
X13457135Y-8124791D02*
X13437135Y-8144791D01*
X13438000Y-8370000D02*
X13458000Y-8390000D01*
X13458000Y-8370000D02*
X13438000Y-8390000D01*
X13438000Y-9090000D02*
X13458000Y-9110000D01*
X13458000Y-9090000D02*
X13438000Y-9110000D01*
X13440141Y-8207758D02*
X13460141Y-8227758D01*
X13460141Y-8207758D02*
X13440141Y-8227758D01*
X13460201Y-7710000D02*
X13480201Y-7730000D01*
X13480201Y-7710000D02*
X13460201Y-7730000D01*
X13498546Y-9743179D02*
X13518546Y-9763179D01*
X13518546Y-9743179D02*
X13498546Y-9763179D01*
X13514800Y-10551600D02*
X13534800Y-10571600D01*
X13534800Y-10551600D02*
X13514800Y-10571600D01*
X13517331Y-8851860D02*
X13537331Y-8871860D01*
X13537331Y-8851860D02*
X13517331Y-8871860D01*
X13518000Y-8292201D02*
X13538000Y-8312201D01*
X13538000Y-8292201D02*
X13518000Y-8312201D01*
X13518000Y-8610000D02*
X13538000Y-8630000D01*
X13538000Y-8610000D02*
X13518000Y-8630000D01*
X13518000Y-9250000D02*
X13538000Y-9270000D01*
X13538000Y-9250000D02*
X13518000Y-9270000D01*
X13518000Y-9410000D02*
X13538000Y-9430000D01*
X13538000Y-9410000D02*
X13518000Y-9430000D01*
X13518000Y-9490000D02*
X13538000Y-9510000D01*
X13538000Y-9490000D02*
X13518000Y-9510000D01*
X13524542Y-8207681D02*
X13544542Y-8227681D01*
X13544542Y-8207681D02*
X13524542Y-8227681D01*
X13537195Y-10926588D02*
X13557195Y-10946588D01*
X13557195Y-10926588D02*
X13537195Y-10946588D01*
X13546744Y-8060230D02*
X13566744Y-8080230D01*
X13566744Y-8060230D02*
X13546744Y-8080230D01*
X13546744Y-8138922D02*
X13566744Y-8158922D01*
X13566744Y-8138922D02*
X13546744Y-8158922D01*
X13558000Y-10493799D02*
X13578000Y-10513799D01*
X13578000Y-10493799D02*
X13558000Y-10513799D01*
X13558000Y-11010000D02*
X13578000Y-11030000D01*
X13578000Y-11010000D02*
X13558000Y-11030000D01*
X13566755Y-7754855D02*
X13586755Y-7774855D01*
X13586755Y-7754855D02*
X13566755Y-7774855D01*
X13567000Y-9723813D02*
X13587000Y-9743813D01*
X13587000Y-9723813D02*
X13567000Y-9743813D01*
X13573070Y-7680538D02*
X13593070Y-7700538D01*
X13593070Y-7680538D02*
X13573070Y-7700538D01*
X13575325Y-10869239D02*
X13595325Y-10889239D01*
X13595325Y-10869239D02*
X13575325Y-10889239D01*
X13575519Y-10792264D02*
X13595519Y-10812264D01*
X13595519Y-10792264D02*
X13575519Y-10812264D01*
X13578416Y-10659601D02*
X13598416Y-10679601D01*
X13598416Y-10659601D02*
X13578416Y-10679601D01*
X13587133Y-7599451D02*
X13607133Y-7619451D01*
X13607133Y-7599451D02*
X13587133Y-7619451D01*
X13598000Y-8210000D02*
X13618000Y-8230000D01*
X13618000Y-8210000D02*
X13598000Y-8230000D01*
X13598000Y-8290000D02*
X13618000Y-8310000D01*
X13618000Y-8290000D02*
X13598000Y-8310000D01*
X13598000Y-9330000D02*
X13618000Y-9350000D01*
X13618000Y-9330000D02*
X13598000Y-9350000D01*
X13598517Y-8929483D02*
X13618517Y-8949483D01*
X13618517Y-8929483D02*
X13598517Y-8949483D01*
X13631144Y-8139731D02*
X13651144Y-8159731D01*
X13651144Y-8139731D02*
X13631144Y-8159731D01*
X13653412Y-7835167D02*
X13673412Y-7855167D01*
X13673412Y-7835167D02*
X13653412Y-7855167D01*
X13678000Y-9250000D02*
X13698000Y-9270000D01*
X13698000Y-9250000D02*
X13678000Y-9270000D01*
X13678517Y-9009483D02*
X13698517Y-9029483D01*
X13698517Y-9009483D02*
X13678517Y-9029483D01*
X13682857Y-7746298D02*
X13702857Y-7766298D01*
X13702857Y-7746298D02*
X13682857Y-7766298D01*
X13701602Y-7687474D02*
X13721602Y-7707474D01*
X13721602Y-7687474D02*
X13701602Y-7707474D01*
X13718870Y-9743874D02*
X13738870Y-9763874D01*
X13738870Y-9743874D02*
X13718870Y-9763874D01*
X13739832Y-7641053D02*
X13759832Y-7661053D01*
X13759832Y-7641053D02*
X13739832Y-7661053D01*
X13756589Y-9130245D02*
X13776589Y-9150245D01*
X13776589Y-9130245D02*
X13756589Y-9150245D01*
X13758000Y-8130000D02*
X13778000Y-8150000D01*
X13778000Y-8130000D02*
X13758000Y-8150000D01*
X13758000Y-9007299D02*
X13778000Y-9027299D01*
X13778000Y-9007299D02*
X13758000Y-9027299D01*
X13758000Y-9330000D02*
X13778000Y-9350000D01*
X13778000Y-9330000D02*
X13758000Y-9350000D01*
X13758056Y-8443409D02*
X13778056Y-8463409D01*
X13778056Y-8443409D02*
X13758056Y-8463409D01*
X13856357Y-7574044D02*
X13876357Y-7594044D01*
X13876357Y-7574044D02*
X13856357Y-7594044D01*
X13861610Y-7632585D02*
X13881610Y-7652585D01*
X13881610Y-7632585D02*
X13861610Y-7652585D01*
X13862361Y-7706570D02*
X13882361Y-7726570D01*
X13882361Y-7706570D02*
X13862361Y-7726570D01*
X13894062Y-7793672D02*
X13914062Y-7813672D01*
X13914062Y-7793672D02*
X13894062Y-7813672D01*
X13898000Y-6950000D02*
X13918000Y-6970000D01*
X13918000Y-6950000D02*
X13898000Y-6970000D01*
X13904536Y-7870917D02*
X13924536Y-7890917D01*
X13924536Y-7870917D02*
X13904536Y-7890917D01*
X13917252Y-8451135D02*
X13937252Y-8471135D01*
X13937252Y-8451135D02*
X13917252Y-8471135D01*
X13918000Y-8130000D02*
X13938000Y-8150000D01*
X13938000Y-8130000D02*
X13918000Y-8150000D01*
X13918000Y-9002299D02*
X13938000Y-9022299D01*
X13938000Y-9002299D02*
X13918000Y-9022299D01*
X13918000Y-9330000D02*
X13938000Y-9350000D01*
X13938000Y-9330000D02*
X13918000Y-9350000D01*
X13972000Y-6767000D02*
X13992000Y-6787000D01*
X13992000Y-6767000D02*
X13972000Y-6787000D01*
X13993599Y-8130000D02*
X14013599Y-8150000D01*
X14013599Y-8130000D02*
X13993599Y-8150000D01*
X13998000Y-8210000D02*
X14018000Y-8230000D01*
X14018000Y-8210000D02*
X13998000Y-8230000D01*
X13999489Y-9002299D02*
X14019489Y-9022299D01*
X14019489Y-9002299D02*
X13999489Y-9022299D01*
X14076403Y-8294140D02*
X14096403Y-8314140D01*
X14096403Y-8294140D02*
X14076403Y-8314140D01*
X14077419Y-9133335D02*
X14097419Y-9153335D01*
X14097419Y-9133335D02*
X14077419Y-9153335D01*
X14078000Y-8130000D02*
X14098000Y-8150000D01*
X14098000Y-8130000D02*
X14078000Y-8150000D01*
X14078000Y-8530000D02*
X14098000Y-8550000D01*
X14098000Y-8530000D02*
X14078000Y-8550000D01*
X14078000Y-8770000D02*
X14098000Y-8790000D01*
X14098000Y-8770000D02*
X14078000Y-8790000D01*
X14078000Y-8930000D02*
X14098000Y-8950000D01*
X14098000Y-8930000D02*
X14078000Y-8950000D01*
X14078000Y-9330000D02*
X14098000Y-9350000D01*
X14098000Y-9330000D02*
X14078000Y-9350000D01*
X14082401Y-8207928D02*
X14102401Y-8227928D01*
X14102401Y-8207928D02*
X14082401Y-8227928D01*
X14094664Y-7477380D02*
X14114664Y-7497380D01*
X14114664Y-7477380D02*
X14094664Y-7497380D01*
X14118000Y-9750000D02*
X14138000Y-9770000D01*
X14138000Y-9750000D02*
X14118000Y-9770000D01*
X14120451Y-7531857D02*
X14140451Y-7551857D01*
X14140451Y-7531857D02*
X14120451Y-7551857D01*
X14128449Y-7809926D02*
X14148449Y-7829926D01*
X14148449Y-7809926D02*
X14128449Y-7829926D01*
X14130699Y-7645500D02*
X14150699Y-7665500D01*
X14150699Y-7645500D02*
X14130699Y-7665500D01*
X14155799Y-8203034D02*
X14175799Y-8223034D01*
X14175799Y-8203034D02*
X14155799Y-8223034D01*
X14158000Y-8530000D02*
X14178000Y-8550000D01*
X14178000Y-8530000D02*
X14158000Y-8550000D01*
X14158000Y-8610000D02*
X14178000Y-8630000D01*
X14178000Y-8610000D02*
X14158000Y-8630000D01*
X14158000Y-8850000D02*
X14178000Y-8870000D01*
X14178000Y-8850000D02*
X14158000Y-8870000D01*
X14189303Y-7195617D02*
X14209303Y-7215617D01*
X14209303Y-7195617D02*
X14189303Y-7215617D01*
X14229642Y-8209139D02*
X14249642Y-8229139D01*
X14249642Y-8209139D02*
X14229642Y-8229139D01*
X14231398Y-8128224D02*
X14251398Y-8148224D01*
X14251398Y-8128224D02*
X14231398Y-8148224D01*
X14237355Y-8289891D02*
X14257355Y-8309891D01*
X14257355Y-8289891D02*
X14237355Y-8309891D01*
X14238000Y-7750000D02*
X14258000Y-7770000D01*
X14258000Y-7750000D02*
X14238000Y-7770000D01*
X14238000Y-8370000D02*
X14258000Y-8390000D01*
X14258000Y-8370000D02*
X14238000Y-8390000D01*
X14238000Y-9090000D02*
X14258000Y-9110000D01*
X14258000Y-9090000D02*
X14238000Y-9110000D01*
X14238000Y-9410000D02*
X14258000Y-9430000D01*
X14258000Y-9410000D02*
X14238000Y-9430000D01*
X14275162Y-7865975D02*
X14295162Y-7885975D01*
X14295162Y-7865975D02*
X14275162Y-7885975D01*
X14300511Y-7819522D02*
X14320511Y-7839522D01*
X14320511Y-7819522D02*
X14300511Y-7839522D01*
X14315799Y-8127963D02*
X14335799Y-8147963D01*
X14335799Y-8127963D02*
X14315799Y-8147963D01*
X14315799Y-8210715D02*
X14335799Y-8230715D01*
X14335799Y-8210715D02*
X14315799Y-8230715D01*
X14315799Y-8290000D02*
X14335799Y-8310000D01*
X14335799Y-8290000D02*
X14315799Y-8310000D01*
X14315801Y-9332315D02*
X14335801Y-9352315D01*
X14335801Y-9332315D02*
X14315801Y-9352315D01*
X14317803Y-8849503D02*
X14337803Y-8869503D01*
X14337803Y-8849503D02*
X14317803Y-8869503D01*
X14318000Y-8370000D02*
X14338000Y-8390000D01*
X14338000Y-8370000D02*
X14318000Y-8390000D01*
X14318000Y-9090000D02*
X14338000Y-9110000D01*
X14338000Y-9090000D02*
X14318000Y-9110000D01*
X14318000Y-9170000D02*
X14338000Y-9190000D01*
X14338000Y-9170000D02*
X14318000Y-9190000D01*
X14318182Y-9010195D02*
X14338182Y-9030195D01*
X14338182Y-9010195D02*
X14318182Y-9030195D01*
X14323180Y-7771946D02*
X14343180Y-7791946D01*
X14343180Y-7771946D02*
X14323180Y-7791946D01*
X14338578Y-7193017D02*
X14358578Y-7213017D01*
X14358578Y-7193017D02*
X14338578Y-7213017D01*
X14355067Y-6376252D02*
X14375067Y-6396252D01*
X14375067Y-6376252D02*
X14355067Y-6396252D01*
X14388995Y-8907799D02*
X14408995Y-8927799D01*
X14408995Y-8907799D02*
X14388995Y-8927799D01*
X14396483Y-9177765D02*
X14416483Y-9197765D01*
X14416483Y-9177765D02*
X14396483Y-9197765D01*
X14398000Y-9090000D02*
X14418000Y-9110000D01*
X14418000Y-9090000D02*
X14398000Y-9110000D01*
X14398242Y-9003286D02*
X14418242Y-9023286D01*
X14418242Y-9003286D02*
X14398242Y-9023286D01*
X14398283Y-8848451D02*
X14418283Y-8868451D01*
X14418283Y-8848451D02*
X14398283Y-8868451D01*
X14400201Y-8208560D02*
X14420201Y-8228560D01*
X14420201Y-8208560D02*
X14400201Y-8228560D01*
X14400201Y-8290000D02*
X14420201Y-8310000D01*
X14420201Y-8290000D02*
X14400201Y-8310000D01*
X14400201Y-8370000D02*
X14420201Y-8390000D01*
X14420201Y-8370000D02*
X14400201Y-8390000D01*
X14400201Y-8450000D02*
X14420201Y-8470000D01*
X14420201Y-8450000D02*
X14400201Y-8470000D01*
X14400201Y-8529722D02*
X14420201Y-8549722D01*
X14420201Y-8529722D02*
X14400201Y-8549722D01*
X14400201Y-9250000D02*
X14420201Y-9270000D01*
X14420201Y-9250000D02*
X14400201Y-9270000D01*
X14404602Y-8127478D02*
X14424602Y-8147478D01*
X14424602Y-8127478D02*
X14404602Y-8147478D01*
X14471061Y-8907799D02*
X14491061Y-8927799D01*
X14491061Y-8907799D02*
X14471061Y-8927799D01*
X14476639Y-8123398D02*
X14496639Y-8143398D01*
X14496639Y-8123398D02*
X14476639Y-8143398D01*
X14476724Y-9006446D02*
X14496724Y-9026446D01*
X14496724Y-9006446D02*
X14476724Y-9026446D01*
X14477765Y-8852201D02*
X14497765Y-8872201D01*
X14497765Y-8852201D02*
X14477765Y-8872201D01*
X14477769Y-8443293D02*
X14497769Y-8463293D01*
X14497769Y-8443293D02*
X14477769Y-8463293D01*
X14478235Y-9247799D02*
X14498235Y-9267799D01*
X14498235Y-9247799D02*
X14478235Y-9267799D01*
X14478509Y-8207799D02*
X14498509Y-8227799D01*
X14498509Y-8207799D02*
X14478509Y-8227799D01*
X14478654Y-8528519D02*
X14498654Y-8548519D01*
X14498654Y-8528519D02*
X14478654Y-8548519D01*
X14478856Y-8689382D02*
X14498856Y-8709382D01*
X14498856Y-8689382D02*
X14478856Y-8709382D01*
X14479038Y-8376602D02*
X14499038Y-8396602D01*
X14499038Y-8376602D02*
X14479038Y-8396602D01*
X14479163Y-9090847D02*
X14499163Y-9110847D01*
X14499163Y-9090847D02*
X14479163Y-9110847D01*
X14479410Y-8292201D02*
X14499410Y-8312201D01*
X14499410Y-8292201D02*
X14479410Y-8312201D01*
X14479577Y-9177444D02*
X14499577Y-9197444D01*
X14499577Y-9177444D02*
X14479577Y-9197444D01*
X14480128Y-8616874D02*
X14500128Y-8636874D01*
X14500128Y-8616874D02*
X14480128Y-8636874D01*
X14489572Y-7110852D02*
X14509572Y-7130852D01*
X14509572Y-7110852D02*
X14489572Y-7130852D01*
X14519546Y-7349985D02*
X14539546Y-7369985D01*
X14539546Y-7349985D02*
X14519546Y-7369985D01*
X14539401Y-7595533D02*
X14559401Y-7615533D01*
X14559401Y-7595533D02*
X14539401Y-7615533D01*
X14558000Y-8130000D02*
X14578000Y-8150000D01*
X14578000Y-8130000D02*
X14558000Y-8150000D01*
X14558000Y-8532201D02*
X14578000Y-8552201D01*
X14578000Y-8532201D02*
X14558000Y-8552201D01*
X14558000Y-9407799D02*
X14578000Y-9427799D01*
X14578000Y-9407799D02*
X14558000Y-9427799D01*
X14561303Y-9092201D02*
X14581303Y-9112201D01*
X14581303Y-9092201D02*
X14561303Y-9112201D01*
X14628717Y-7781899D02*
X14648717Y-7801899D01*
X14648717Y-7781899D02*
X14628717Y-7801899D01*
X14637797Y-7557201D02*
X14657797Y-7577201D01*
X14657797Y-7557201D02*
X14637797Y-7577201D01*
X14642641Y-7127779D02*
X14662641Y-7147779D01*
X14662641Y-7127779D02*
X14642641Y-7147779D01*
X14674429Y-10335274D02*
X14694429Y-10355274D01*
X14694429Y-10335274D02*
X14674429Y-10355274D01*
X14702593Y-8970288D02*
X14722593Y-8990288D01*
X14722593Y-8970288D02*
X14702593Y-8990288D01*
X14732247Y-8475859D02*
X14752247Y-8495859D01*
X14752247Y-8475859D02*
X14732247Y-8495859D01*
X14737067Y-8822484D02*
X14757067Y-8842484D01*
X14757067Y-8822484D02*
X14737067Y-8842484D01*
X14738000Y-7772201D02*
X14758000Y-7792201D01*
X14758000Y-7772201D02*
X14738000Y-7792201D01*
X14779417Y-8323581D02*
X14799417Y-8343581D01*
X14799417Y-8323581D02*
X14779417Y-8343581D01*
X14788736Y-7127779D02*
X14808736Y-7147779D01*
X14808736Y-7127779D02*
X14788736Y-7147779D01*
X14789768Y-8822484D02*
X14809768Y-8842484D01*
X14809768Y-8822484D02*
X14789768Y-8842484D01*
X14800281Y-9523902D02*
X14820281Y-9543902D01*
X14820281Y-9523902D02*
X14800281Y-9543902D01*
X14823777Y-8087578D02*
X14843777Y-8107578D01*
X14843777Y-8087578D02*
X14823777Y-8107578D01*
X14853988Y-7705470D02*
X14873988Y-7725470D01*
X14873988Y-7705470D02*
X14853988Y-7725470D01*
X14856880Y-8445039D02*
X14876880Y-8465039D01*
X14876880Y-8445039D02*
X14856880Y-8465039D01*
X14883585Y-8079901D02*
X14903585Y-8099901D01*
X14903585Y-8079901D02*
X14883585Y-8099901D01*
X14887565Y-8265534D02*
X14907565Y-8285534D01*
X14907565Y-8265534D02*
X14887565Y-8285534D01*
X14889119Y-7127779D02*
X14909119Y-7147779D01*
X14909119Y-7127779D02*
X14889119Y-7147779D01*
X14910771Y-9550529D02*
X14930771Y-9570529D01*
X14930771Y-9550529D02*
X14910771Y-9570529D01*
X14920341Y-6242799D02*
X14940341Y-6262799D01*
X14940341Y-6242799D02*
X14920341Y-6262799D01*
X14998000Y-8150000D02*
X15018000Y-8170000D01*
X15018000Y-8150000D02*
X14998000Y-8170000D01*
X15035722Y-7127779D02*
X15055722Y-7147779D01*
X15055722Y-7127779D02*
X15035722Y-7147779D01*
X15179638Y-10341072D02*
X15199638Y-10361072D01*
X15199638Y-10341072D02*
X15179638Y-10361072D01*
X15538000Y-7170480D02*
X15558000Y-7190480D01*
X15558000Y-7170480D02*
X15538000Y-7190480D01*
X15877000Y-10831000D02*
X15897000Y-10851000D01*
X15897000Y-10831000D02*
X15877000Y-10851000D01*
X16021635Y-7494264D02*
X16041635Y-7514264D01*
X16041635Y-7494264D02*
X16021635Y-7514264D01*
X16067500Y-6894000D02*
X16087500Y-6914000D01*
X16087500Y-6894000D02*
X16067500Y-6914000D01*
X16075441Y-7469425D02*
X16095441Y-7489425D01*
X16095441Y-7469425D02*
X16075441Y-7489425D01*
X16274230Y-9866230D02*
X16294230Y-9886230D01*
X16294230Y-9866230D02*
X16274230Y-9886230D01*
X16353258Y-7181391D02*
X16373258Y-7201391D01*
X16373258Y-7181391D02*
X16353258Y-7201391D01*
X16428771Y-9740623D02*
X16448771Y-9760623D01*
X16448771Y-9740623D02*
X16428771Y-9760623D01*
X16448309Y-6786252D02*
X16468309Y-6806252D01*
X16468309Y-6786252D02*
X16448309Y-6806252D01*
X16821917Y-6878201D02*
X16841917Y-6898201D01*
X16841917Y-6878201D02*
X16821917Y-6898201D01*
X16856913Y-6947812D02*
X16876913Y-6967812D01*
X16876913Y-6947812D02*
X16856913Y-6967812D01*
X16893000Y-7719500D02*
X16913000Y-7739500D01*
X16913000Y-7719500D02*
X16893000Y-7739500D01*
X16994600Y-8570400D02*
X17014600Y-8590400D01*
X17014600Y-8570400D02*
X16994600Y-8590400D01*
X17083500Y-7148000D02*
X17103500Y-7168000D01*
X17103500Y-7148000D02*
X17083500Y-7168000D01*
X17172400Y-10602400D02*
X17192400Y-10622400D01*
X17192400Y-10602400D02*
X17172400Y-10622400D01*
X17174868Y-10959591D02*
X17194868Y-10979591D01*
X17194868Y-10959591D02*
X17174868Y-10979591D01*
X17218956Y-8702405D02*
X17238956Y-8722405D01*
X17238956Y-8702405D02*
X17218956Y-8722405D01*
X17299400Y-8748200D02*
X17319400Y-8768200D01*
X17319400Y-8748200D02*
X17299400Y-8768200D01*
X17300268Y-10055836D02*
X17320268Y-10075836D01*
X17320268Y-10055836D02*
X17300268Y-10075836D01*
X17339796Y-10105762D02*
X17359796Y-10125762D01*
X17359796Y-10105762D02*
X17339796Y-10125762D01*
X17352053Y-9955794D02*
X17372053Y-9975794D01*
X17372053Y-9955794D02*
X17352053Y-9975794D01*
X17358000Y-6250000D02*
X17378000Y-6270000D01*
X17378000Y-6250000D02*
X17358000Y-6270000D01*
X17376791Y-10155514D02*
X17396791Y-10175514D01*
X17396791Y-10155514D02*
X17376791Y-10175514D01*
X17380238Y-9852552D02*
X17400238Y-9872552D01*
X17400238Y-9852552D02*
X17380238Y-9872552D01*
X17401000Y-10831000D02*
X17421000Y-10851000D01*
X17421000Y-10831000D02*
X17401000Y-10851000D01*
X17618500Y-10323000D02*
X17638500Y-10343000D01*
X17638500Y-10323000D02*
X17618500Y-10343000D01*
X17717400Y-10497912D02*
X17737400Y-10517912D01*
X17737400Y-10497912D02*
X17717400Y-10517912D01*
X17718500Y-9561000D02*
X17738500Y-9581000D01*
X17738500Y-9561000D02*
X17718500Y-9581000D01*
X17856591Y-8961390D02*
X17876591Y-8981390D01*
X17876591Y-8961390D02*
X17856591Y-8981390D01*
X17927598Y-8921781D02*
X17947598Y-8941781D01*
X17947598Y-8921781D02*
X17927598Y-8941781D01*
X18096500Y-7868500D02*
X18116500Y-7888500D01*
X18116500Y-7868500D02*
X18096500Y-7888500D01*
X12010516Y-9541295D02*
G75*
G03X12010516Y-9541295I-12700J0D01*
G01*
X12076103Y-9497760D02*
G75*
G03X12076103Y-9497760I-12700J0D01*
G01*
X13357629Y-10223262D02*
G75*
G03X13357629Y-10223262I-12700J0D01*
G01*
X13420141Y-10275223D02*
G75*
G03X13420141Y-10275223I-12700J0D01*
G01*
X13620700Y-8460000D02*
G75*
G03X13620700Y-8460000I-12700J0D01*
G01*
X13620700Y-8540000D02*
G75*
G03X13620700Y-8540000I-12700J0D01*
G01*
X13623799Y-8699540D02*
G75*
G03X13623799Y-8699540I-12700J0D01*
G01*
X13780700Y-8700000D02*
G75*
G03X13780700Y-8700000I-12700J0D01*
G01*
X13935280Y-7333766D02*
G75*
G03X13935280Y-7333766I-12700J0D01*
G01*
X13940700Y-8700000D02*
G75*
G03X13940700Y-8700000I-12700J0D01*
G01*
X13940700Y-8860000D02*
G75*
G03X13940700Y-8860000I-12700J0D01*
G01*
X13943964Y-9135970D02*
G75*
G03X13943964Y-9135970I-12700J0D01*
G01*
X14115614Y-7339101D02*
G75*
G03X14115614Y-7339101I-12700J0D01*
G01*
X14116986Y-8699500D02*
G75*
G03X14116986Y-8699500I-12700J0D01*
G01*
X14261953Y-7565583D02*
G75*
G03X14261953Y-7565583I-12700J0D01*
G01*
X14365259Y-7462277D02*
G75*
G03X14365259Y-7462277I-12700J0D01*
G01*
X14597886Y-6518923D02*
G75*
G03X14597886Y-6518923I-12700J0D01*
G01*
X14600073Y-6392085D02*
G75*
G03X14600073Y-6392085I-12700J0D01*
G01*
X14698950Y-9661750D02*
G75*
G03X14698950Y-9661750I-12700J0D01*
G01*
X14752658Y-9320914D02*
G75*
G03X14752658Y-9320914I-12700J0D01*
G01*
X14766147Y-9591326D02*
G75*
G03X14766147Y-9591326I-12700J0D01*
G01*
X14790471Y-9369101D02*
G75*
G03X14790471Y-9369101I-12700J0D01*
G01*
X14811790Y-9315052D02*
G75*
G03X14811790Y-9315052I-12700J0D01*
G01*
X14878093Y-9524901D02*
G75*
G03X14878093Y-9524901I-12700J0D01*
G01*
X14974686Y-9437887D02*
G75*
G03X14974686Y-9437887I-12700J0D01*
G01*
X14990624Y-9494419D02*
G75*
G03X14990624Y-9494419I-12700J0D01*
G01*
X15019903Y-9544603D02*
G75*
G03X15019903Y-9544603I-12700J0D01*
G01*
X15032486Y-9601326D02*
G75*
G03X15032486Y-9601326I-12700J0D01*
G01*
X15064591Y-9649751D02*
G75*
G03X15064591Y-9649751I-12700J0D01*
G01*
X15102216Y-9710492D02*
G75*
G03X15102216Y-9710492I-12700J0D01*
G01*
X15155392Y-9658465D02*
G75*
G03X15155392Y-9658465I-12700J0D01*
G01*
X15472629Y-9402136D02*
X15472629Y-9432136D01*
X15457629Y-9417136D02*
X15487629Y-9417136D01*
X15607711Y-9423078D02*
X15607711Y-9453078D01*
X15592711Y-9438078D02*
X15622711Y-9438078D01*
X15628000Y-8106084D02*
X15628000Y-8136084D01*
X15613000Y-8121084D02*
X15643000Y-8121084D01*
X15868000Y-8106084D02*
X15868000Y-8136084D01*
X15853000Y-8121084D02*
X15883000Y-8121084D01*
X16106799Y-8106612D02*
X16106799Y-8136612D01*
X16091799Y-8121612D02*
X16121799Y-8121612D01*
X16342203Y-8097066D02*
X16342203Y-8127066D01*
X16327203Y-8112066D02*
X16357203Y-8112066D01*
X16474183Y-8098057D02*
X16474183Y-8128057D01*
X16459183Y-8113057D02*
X16489183Y-8113057D01*
X10065668Y-9324068D02*
X10065668Y-9288713D01*
X10030313Y-9288713D01*
X10030313Y-9324068D01*
X10065668Y-9324068D01*
X10290863Y-8366301D02*
X10290863Y-8330946D01*
X10255507Y-8330946D01*
X10255507Y-8366301D01*
X10290863Y-8366301D01*
X11079415Y-8946398D02*
X11079415Y-8911042D01*
X11044059Y-8911042D01*
X11044059Y-8946398D01*
X11079415Y-8946398D01*
X14992842Y-7763148D02*
X14992842Y-7727793D01*
X14957486Y-7727793D01*
X14957486Y-7763148D01*
X14992842Y-7763148D01*
X15279782Y-9869675D02*
X15279782Y-9834319D01*
X15244427Y-9834319D01*
X15244427Y-9869675D01*
X15279782Y-9869675D01*
X15841046Y-9502939D02*
X15841046Y-9467584D01*
X15805691Y-9467584D01*
X15805691Y-9502939D01*
X15841046Y-9502939D01*
X15965678Y-6477678D02*
X15965678Y-6442322D01*
X15930322Y-6442322D01*
X15930322Y-6477678D01*
X15965678Y-6477678D01*
X16108519Y-9502730D02*
X16108519Y-9467375D01*
X16073163Y-9467375D01*
X16073163Y-9502730D01*
X16108519Y-9502730D01*
X16316953Y-9499696D02*
X16316953Y-9464341D01*
X16281597Y-9464341D01*
X16281597Y-9499696D01*
X16316953Y-9499696D01*
X16483055Y-9500233D02*
X16483055Y-9464877D01*
X16447699Y-9464877D01*
X16447699Y-9500233D01*
X16483055Y-9500233D01*
X16641076Y-9814155D02*
X16641076Y-9778799D01*
X16605721Y-9778799D01*
X16605721Y-9814155D01*
X16641076Y-9814155D01*
X16642779Y-7700284D02*
X16642779Y-7664928D01*
X16607423Y-7664928D01*
X16607423Y-7700284D01*
X16642779Y-7700284D01*
X16642779Y-7956567D02*
X16642779Y-7921212D01*
X16607423Y-7921212D01*
X16607423Y-7956567D01*
X16642779Y-7956567D01*
X16645678Y-9497678D02*
X16645678Y-9462322D01*
X16610322Y-9462322D01*
X16610322Y-9497678D01*
X16645678Y-9497678D01*
X17665108Y-9424587D02*
X17665108Y-9389232D01*
X17629753Y-9389232D01*
X17629753Y-9424587D01*
X17665108Y-9424587D01*
X17740669Y-8245813D02*
X17740669Y-8210457D01*
X17705313Y-8210457D01*
X17705313Y-8245813D01*
X17740669Y-8245813D01*
X13768000Y-6400000D02*
X13808000Y-6360000D01*
X13768000Y-6320000D01*
X13728000Y-6360000D01*
X13768000Y-6400000D01*
X13738000Y-6310000D02*
X13738000Y-6410000D01*
X13798000Y-6310000D02*
X13798000Y-6410000D01*
X13738000Y-6410000D02*
G75*
G03X13798000Y-6410000I30000J0D01*
G01*
X13798000Y-6310000D02*
G75*
G03X13738000Y-6310000I-30000J0D01*
G01*
X13768000Y-7005000D02*
X13808000Y-6965000D01*
X13768000Y-6925000D01*
X13728000Y-6965000D01*
X13768000Y-7005000D01*
X13738000Y-6895000D02*
X13738000Y-7035000D01*
X13798000Y-6895000D02*
X13798000Y-7035000D01*
X13738000Y-7035000D02*
G75*
G03X13798000Y-7035000I30000J0D01*
G01*
X13798000Y-6895000D02*
G75*
G03X13738000Y-6895000I-30000J0D01*
G01*
X15228000Y-6400000D02*
X15268000Y-6360000D01*
X15228000Y-6320000D01*
X15188000Y-6360000D01*
X15228000Y-6400000D01*
X15198000Y-6310000D02*
X15198000Y-6410000D01*
X15258000Y-6310000D02*
X15258000Y-6410000D01*
X15198000Y-6410000D02*
G75*
G03X15258000Y-6410000I30000J0D01*
G01*
X15258000Y-6310000D02*
G75*
G03X15198000Y-6310000I-30000J0D01*
G01*
X15228000Y-7005000D02*
X15268000Y-6965000D01*
X15228000Y-6925000D01*
X15188000Y-6965000D01*
X15228000Y-7005000D01*
X15198000Y-6895000D02*
X15198000Y-7035000D01*
X15258000Y-6895000D02*
X15258000Y-7035000D01*
X15198000Y-7035000D02*
G75*
G03X15258000Y-7035000I30000J0D01*
G01*
X15258000Y-6895000D02*
G75*
G03X15198000Y-6895000I-30000J0D01*
G01*
X9486200Y-6218200D02*
X9587800Y-6319800D01*
X9587800Y-6218200D02*
X9486200Y-6319800D01*
X9587800Y-6269000D02*
G75*
G03X9587800Y-6269000I-50800J0D01*
G01*
X9486200Y-6472200D02*
X9587800Y-6573800D01*
X9587800Y-6472200D02*
X9486200Y-6573800D01*
X9587800Y-6523000D02*
G75*
G03X9587800Y-6523000I-50800J0D01*
G01*
X9486200Y-6726200D02*
X9587800Y-6827800D01*
X9587800Y-6726200D02*
X9486200Y-6827800D01*
X9587800Y-6777000D02*
G75*
G03X9587800Y-6777000I-50800J0D01*
G01*
X9486200Y-6980200D02*
X9587800Y-7081800D01*
X9587800Y-6980200D02*
X9486200Y-7081800D01*
X9587800Y-7031000D02*
G75*
G03X9587800Y-7031000I-50800J0D01*
G01*
X9486200Y-7234200D02*
X9587800Y-7335800D01*
X9587800Y-7234200D02*
X9486200Y-7335800D01*
X9587800Y-7285000D02*
G75*
G03X9587800Y-7285000I-50800J0D01*
G01*
X9486200Y-7488200D02*
X9587800Y-7589800D01*
X9587800Y-7488200D02*
X9486200Y-7589800D01*
X9587800Y-7539000D02*
G75*
G03X9587800Y-7539000I-50800J0D01*
G01*
X9486200Y-7742200D02*
X9587800Y-7843800D01*
X9587800Y-7742200D02*
X9486200Y-7843800D01*
X9587800Y-7793000D02*
G75*
G03X9587800Y-7793000I-50800J0D01*
G01*
X9486200Y-7996200D02*
X9587800Y-8097800D01*
X9587800Y-7996200D02*
X9486200Y-8097800D01*
X9587800Y-8047000D02*
G75*
G03X9587800Y-8047000I-50800J0D01*
G01*
X9486200Y-8250200D02*
X9587800Y-8351800D01*
X9587800Y-8250200D02*
X9486200Y-8351800D01*
X9587800Y-8301000D02*
G75*
G03X9587800Y-8301000I-50800J0D01*
G01*
X9486200Y-8504200D02*
X9587800Y-8605800D01*
X9587800Y-8504200D02*
X9486200Y-8605800D01*
X9587800Y-8555000D02*
G75*
G03X9587800Y-8555000I-50800J0D01*
G01*
X9486200Y-8758200D02*
X9587800Y-8859800D01*
X9587800Y-8758200D02*
X9486200Y-8859800D01*
X9587800Y-8809000D02*
G75*
G03X9587800Y-8809000I-50800J0D01*
G01*
X9486200Y-9012200D02*
X9587800Y-9113800D01*
X9587800Y-9012200D02*
X9486200Y-9113800D01*
X9587800Y-9063000D02*
G75*
G03X9587800Y-9063000I-50800J0D01*
G01*
X9486200Y-9266200D02*
X9587800Y-9367800D01*
X9587800Y-9266200D02*
X9486200Y-9367800D01*
X9587800Y-9317000D02*
G75*
G03X9587800Y-9317000I-50800J0D01*
G01*
X9486200Y-9520200D02*
X9587800Y-9621800D01*
X9587800Y-9520200D02*
X9486200Y-9621800D01*
X9587800Y-9571000D02*
G75*
G03X9587800Y-9571000I-50800J0D01*
G01*
X9486200Y-9774200D02*
X9587800Y-9875800D01*
X9587800Y-9774200D02*
X9486200Y-9875800D01*
X9587800Y-9825000D02*
G75*
G03X9587800Y-9825000I-50800J0D01*
G01*
X9486200Y-10028200D02*
X9587800Y-10129800D01*
X9587800Y-10028200D02*
X9486200Y-10129800D01*
X9587800Y-10079000D02*
G75*
G03X9587800Y-10079000I-50800J0D01*
G01*
X9486200Y-10282200D02*
X9587800Y-10383800D01*
X9587800Y-10282200D02*
X9486200Y-10383800D01*
X9587800Y-10333000D02*
G75*
G03X9587800Y-10333000I-50800J0D01*
G01*
X9486200Y-10536200D02*
X9587800Y-10637800D01*
X9587800Y-10536200D02*
X9486200Y-10637800D01*
X9587800Y-10587000D02*
G75*
G03X9587800Y-10587000I-50800J0D01*
G01*
X9486200Y-10790200D02*
X9587800Y-10891800D01*
X9587800Y-10790200D02*
X9486200Y-10891800D01*
X9587800Y-10841000D02*
G75*
G03X9587800Y-10841000I-50800J0D01*
G01*
X9486200Y-11044200D02*
X9587800Y-11145800D01*
X9587800Y-11044200D02*
X9486200Y-11145800D01*
X9587800Y-11095000D02*
G75*
G03X9587800Y-11095000I-50800J0D01*
G01*
X9740200Y-6218200D02*
X9841800Y-6319800D01*
X9841800Y-6218200D02*
X9740200Y-6319800D01*
X9841800Y-6269000D02*
G75*
G03X9841800Y-6269000I-50800J0D01*
G01*
X9740200Y-6472200D02*
X9841800Y-6573800D01*
X9841800Y-6472200D02*
X9740200Y-6573800D01*
X9841800Y-6523000D02*
G75*
G03X9841800Y-6523000I-50800J0D01*
G01*
X9740200Y-6726200D02*
X9841800Y-6827800D01*
X9841800Y-6726200D02*
X9740200Y-6827800D01*
X9841800Y-6777000D02*
G75*
G03X9841800Y-6777000I-50800J0D01*
G01*
X9740200Y-6980200D02*
X9841800Y-7081800D01*
X9841800Y-6980200D02*
X9740200Y-7081800D01*
X9841800Y-7031000D02*
G75*
G03X9841800Y-7031000I-50800J0D01*
G01*
X9740200Y-7234200D02*
X9841800Y-7335800D01*
X9841800Y-7234200D02*
X9740200Y-7335800D01*
X9841800Y-7285000D02*
G75*
G03X9841800Y-7285000I-50800J0D01*
G01*
X9740200Y-7488200D02*
X9841800Y-7589800D01*
X9841800Y-7488200D02*
X9740200Y-7589800D01*
X9841800Y-7539000D02*
G75*
G03X9841800Y-7539000I-50800J0D01*
G01*
X9740200Y-7742200D02*
X9841800Y-7843800D01*
X9841800Y-7742200D02*
X9740200Y-7843800D01*
X9841800Y-7793000D02*
G75*
G03X9841800Y-7793000I-50800J0D01*
G01*
X9740200Y-7996200D02*
X9841800Y-8097800D01*
X9841800Y-7996200D02*
X9740200Y-8097800D01*
X9841800Y-8047000D02*
G75*
G03X9841800Y-8047000I-50800J0D01*
G01*
X9740200Y-8250200D02*
X9841800Y-8351800D01*
X9841800Y-8250200D02*
X9740200Y-8351800D01*
X9841800Y-8301000D02*
G75*
G03X9841800Y-8301000I-50800J0D01*
G01*
X9740200Y-8504200D02*
X9841800Y-8605800D01*
X9841800Y-8504200D02*
X9740200Y-8605800D01*
X9841800Y-8555000D02*
G75*
G03X9841800Y-8555000I-50800J0D01*
G01*
X9740200Y-8758200D02*
X9841800Y-8859800D01*
X9841800Y-8758200D02*
X9740200Y-8859800D01*
X9841800Y-8809000D02*
G75*
G03X9841800Y-8809000I-50800J0D01*
G01*
X9740200Y-9012200D02*
X9841800Y-9113800D01*
X9841800Y-9012200D02*
X9740200Y-9113800D01*
X9841800Y-9063000D02*
G75*
G03X9841800Y-9063000I-50800J0D01*
G01*
X9740200Y-9266200D02*
X9841800Y-9367800D01*
X9841800Y-9266200D02*
X9740200Y-9367800D01*
X9841800Y-9317000D02*
G75*
G03X9841800Y-9317000I-50800J0D01*
G01*
X9740200Y-9520200D02*
X9841800Y-9621800D01*
X9841800Y-9520200D02*
X9740200Y-9621800D01*
X9841800Y-9571000D02*
G75*
G03X9841800Y-9571000I-50800J0D01*
G01*
X9740200Y-9774200D02*
X9841800Y-9875800D01*
X9841800Y-9774200D02*
X9740200Y-9875800D01*
X9841800Y-9825000D02*
G75*
G03X9841800Y-9825000I-50800J0D01*
G01*
X9740200Y-10028200D02*
X9841800Y-10129800D01*
X9841800Y-10028200D02*
X9740200Y-10129800D01*
X9841800Y-10079000D02*
G75*
G03X9841800Y-10079000I-50800J0D01*
G01*
X9740200Y-10282200D02*
X9841800Y-10383800D01*
X9841800Y-10282200D02*
X9740200Y-10383800D01*
X9841800Y-10333000D02*
G75*
G03X9841800Y-10333000I-50800J0D01*
G01*
X9740200Y-10536200D02*
X9841800Y-10637800D01*
X9841800Y-10536200D02*
X9740200Y-10637800D01*
X9841800Y-10587000D02*
G75*
G03X9841800Y-10587000I-50800J0D01*
G01*
X9740200Y-10790200D02*
X9841800Y-10891800D01*
X9841800Y-10790200D02*
X9740200Y-10891800D01*
X9841800Y-10841000D02*
G75*
G03X9841800Y-10841000I-50800J0D01*
G01*
X9740200Y-11044200D02*
X9841800Y-11145800D01*
X9841800Y-11044200D02*
X9740200Y-11145800D01*
X9841800Y-11095000D02*
G75*
G03X9841800Y-11095000I-50800J0D01*
G01*
X10121200Y-9901200D02*
X10222800Y-10002800D01*
X10222800Y-9901200D02*
X10121200Y-10002800D01*
X10222800Y-9952000D02*
G75*
G03X10222800Y-9952000I-50800J0D01*
G01*
X10375200Y-9901200D02*
X10476800Y-10002800D01*
X10476800Y-9901200D02*
X10375200Y-10002800D01*
X10476800Y-9952000D02*
G75*
G03X10476800Y-9952000I-50800J0D01*
G01*
X13169200Y-10028200D02*
X13270800Y-10129800D01*
X13270800Y-10028200D02*
X13169200Y-10129800D01*
X13270800Y-10079000D02*
G75*
G03X13270800Y-10079000I-50800J0D01*
G01*
X13423200Y-10028200D02*
X13524800Y-10129800D01*
X13524800Y-10028200D02*
X13423200Y-10129800D01*
X13524800Y-10079000D02*
G75*
G03X13524800Y-10079000I-50800J0D01*
G01*
X13677200Y-10028200D02*
X13778800Y-10129800D01*
X13778800Y-10028200D02*
X13677200Y-10129800D01*
X13778800Y-10079000D02*
G75*
G03X13778800Y-10079000I-50800J0D01*
G01*
X13931200Y-10028200D02*
X14032800Y-10129800D01*
X14032800Y-10028200D02*
X13931200Y-10129800D01*
X14032800Y-10079000D02*
G75*
G03X14032800Y-10079000I-50800J0D01*
G01*
X13931200Y-10409200D02*
X14032800Y-10510800D01*
X14032800Y-10409200D02*
X13931200Y-10510800D01*
X14032800Y-10460000D02*
G75*
G03X14032800Y-10460000I-50800J0D01*
G01*
X13931200Y-10663200D02*
X14032800Y-10764800D01*
X14032800Y-10663200D02*
X13931200Y-10764800D01*
X14032800Y-10714000D02*
G75*
G03X14032800Y-10714000I-50800J0D01*
G01*
X13931200Y-10917200D02*
X14032800Y-11018800D01*
X14032800Y-10917200D02*
X13931200Y-11018800D01*
X14032800Y-10968000D02*
G75*
G03X14032800Y-10968000I-50800J0D01*
G01*
X14185200Y-10028200D02*
X14286800Y-10129800D01*
X14286800Y-10028200D02*
X14185200Y-10129800D01*
X14286800Y-10079000D02*
G75*
G03X14286800Y-10079000I-50800J0D01*
G01*
X14185200Y-10409200D02*
X14286800Y-10510800D01*
X14286800Y-10409200D02*
X14185200Y-10510800D01*
X14286800Y-10460000D02*
G75*
G03X14286800Y-10460000I-50800J0D01*
G01*
X14185200Y-10663200D02*
X14286800Y-10764800D01*
X14286800Y-10663200D02*
X14185200Y-10764800D01*
X14286800Y-10714000D02*
G75*
G03X14286800Y-10714000I-50800J0D01*
G01*
X14185200Y-10917200D02*
X14286800Y-11018800D01*
X14286800Y-10917200D02*
X14185200Y-11018800D01*
X14286800Y-10968000D02*
G75*
G03X14286800Y-10968000I-50800J0D01*
G01*
X14439200Y-10028200D02*
X14540800Y-10129800D01*
X14540800Y-10028200D02*
X14439200Y-10129800D01*
X14540800Y-10079000D02*
G75*
G03X14540800Y-10079000I-50800J0D01*
G01*
X14693200Y-10028200D02*
X14794800Y-10129800D01*
X14794800Y-10028200D02*
X14693200Y-10129800D01*
X14794800Y-10079000D02*
G75*
G03X14794800Y-10079000I-50800J0D01*
G01*
X18376200Y-6218200D02*
X18477800Y-6319800D01*
X18477800Y-6218200D02*
X18376200Y-6319800D01*
X18477800Y-6269000D02*
G75*
G03X18477800Y-6269000I-50800J0D01*
G01*
X18376200Y-6472200D02*
X18477800Y-6573800D01*
X18477800Y-6472200D02*
X18376200Y-6573800D01*
X18477800Y-6523000D02*
G75*
G03X18477800Y-6523000I-50800J0D01*
G01*
X18376200Y-6726200D02*
X18477800Y-6827800D01*
X18477800Y-6726200D02*
X18376200Y-6827800D01*
X18477800Y-6777000D02*
G75*
G03X18477800Y-6777000I-50800J0D01*
G01*
X18376200Y-6980200D02*
X18477800Y-7081800D01*
X18477800Y-6980200D02*
X18376200Y-7081800D01*
X18477800Y-7031000D02*
G75*
G03X18477800Y-7031000I-50800J0D01*
G01*
X18376200Y-7234200D02*
X18477800Y-7335800D01*
X18477800Y-7234200D02*
X18376200Y-7335800D01*
X18477800Y-7285000D02*
G75*
G03X18477800Y-7285000I-50800J0D01*
G01*
X18376200Y-7488200D02*
X18477800Y-7589800D01*
X18477800Y-7488200D02*
X18376200Y-7589800D01*
X18477800Y-7539000D02*
G75*
G03X18477800Y-7539000I-50800J0D01*
G01*
X18376200Y-7742200D02*
X18477800Y-7843800D01*
X18477800Y-7742200D02*
X18376200Y-7843800D01*
X18477800Y-7793000D02*
G75*
G03X18477800Y-7793000I-50800J0D01*
G01*
X18376200Y-7996200D02*
X18477800Y-8097800D01*
X18477800Y-7996200D02*
X18376200Y-8097800D01*
X18477800Y-8047000D02*
G75*
G03X18477800Y-8047000I-50800J0D01*
G01*
X18376200Y-8250200D02*
X18477800Y-8351800D01*
X18477800Y-8250200D02*
X18376200Y-8351800D01*
X18477800Y-8301000D02*
G75*
G03X18477800Y-8301000I-50800J0D01*
G01*
X18376200Y-8504200D02*
X18477800Y-8605800D01*
X18477800Y-8504200D02*
X18376200Y-8605800D01*
X18477800Y-8555000D02*
G75*
G03X18477800Y-8555000I-50800J0D01*
G01*
X18376200Y-8758200D02*
X18477800Y-8859800D01*
X18477800Y-8758200D02*
X18376200Y-8859800D01*
X18477800Y-8809000D02*
G75*
G03X18477800Y-8809000I-50800J0D01*
G01*
X18376200Y-9012200D02*
X18477800Y-9113800D01*
X18477800Y-9012200D02*
X18376200Y-9113800D01*
X18477800Y-9063000D02*
G75*
G03X18477800Y-9063000I-50800J0D01*
G01*
X18376200Y-9266200D02*
X18477800Y-9367800D01*
X18477800Y-9266200D02*
X18376200Y-9367800D01*
X18477800Y-9317000D02*
G75*
G03X18477800Y-9317000I-50800J0D01*
G01*
X18376200Y-9520200D02*
X18477800Y-9621800D01*
X18477800Y-9520200D02*
X18376200Y-9621800D01*
X18477800Y-9571000D02*
G75*
G03X18477800Y-9571000I-50800J0D01*
G01*
X18376200Y-9774200D02*
X18477800Y-9875800D01*
X18477800Y-9774200D02*
X18376200Y-9875800D01*
X18477800Y-9825000D02*
G75*
G03X18477800Y-9825000I-50800J0D01*
G01*
X18376200Y-10028200D02*
X18477800Y-10129800D01*
X18477800Y-10028200D02*
X18376200Y-10129800D01*
X18477800Y-10079000D02*
G75*
G03X18477800Y-10079000I-50800J0D01*
G01*
X18376200Y-10282200D02*
X18477800Y-10383800D01*
X18477800Y-10282200D02*
X18376200Y-10383800D01*
X18477800Y-10333000D02*
G75*
G03X18477800Y-10333000I-50800J0D01*
G01*
X18376200Y-10536200D02*
X18477800Y-10637800D01*
X18477800Y-10536200D02*
X18376200Y-10637800D01*
X18477800Y-10587000D02*
G75*
G03X18477800Y-10587000I-50800J0D01*
G01*
X18376200Y-10790200D02*
X18477800Y-10891800D01*
X18477800Y-10790200D02*
X18376200Y-10891800D01*
X18477800Y-10841000D02*
G75*
G03X18477800Y-10841000I-50800J0D01*
G01*
X18376200Y-11044200D02*
X18477800Y-11145800D01*
X18477800Y-11044200D02*
X18376200Y-11145800D01*
X18477800Y-11095000D02*
G75*
G03X18477800Y-11095000I-50800J0D01*
G01*
X18630200Y-6218200D02*
X18731800Y-6319800D01*
X18731800Y-6218200D02*
X18630200Y-6319800D01*
X18731800Y-6269000D02*
G75*
G03X18731800Y-6269000I-50800J0D01*
G01*
X18630200Y-6472200D02*
X18731800Y-6573800D01*
X18731800Y-6472200D02*
X18630200Y-6573800D01*
X18731800Y-6523000D02*
G75*
G03X18731800Y-6523000I-50800J0D01*
G01*
X18630200Y-6726200D02*
X18731800Y-6827800D01*
X18731800Y-6726200D02*
X18630200Y-6827800D01*
X18731800Y-6777000D02*
G75*
G03X18731800Y-6777000I-50800J0D01*
G01*
X18630200Y-6980200D02*
X18731800Y-7081800D01*
X18731800Y-6980200D02*
X18630200Y-7081800D01*
X18731800Y-7031000D02*
G75*
G03X18731800Y-7031000I-50800J0D01*
G01*
X18630200Y-7234200D02*
X18731800Y-7335800D01*
X18731800Y-7234200D02*
X18630200Y-7335800D01*
X18731800Y-7285000D02*
G75*
G03X18731800Y-7285000I-50800J0D01*
G01*
X18630200Y-7488200D02*
X18731800Y-7589800D01*
X18731800Y-7488200D02*
X18630200Y-7589800D01*
X18731800Y-7539000D02*
G75*
G03X18731800Y-7539000I-50800J0D01*
G01*
X18630200Y-7742200D02*
X18731800Y-7843800D01*
X18731800Y-7742200D02*
X18630200Y-7843800D01*
X18731800Y-7793000D02*
G75*
G03X18731800Y-7793000I-50800J0D01*
G01*
X18630200Y-7996200D02*
X18731800Y-8097800D01*
X18731800Y-7996200D02*
X18630200Y-8097800D01*
X18731800Y-8047000D02*
G75*
G03X18731800Y-8047000I-50800J0D01*
G01*
X18630200Y-8250200D02*
X18731800Y-8351800D01*
X18731800Y-8250200D02*
X18630200Y-8351800D01*
X18731800Y-8301000D02*
G75*
G03X18731800Y-8301000I-50800J0D01*
G01*
X18630200Y-8504200D02*
X18731800Y-8605800D01*
X18731800Y-8504200D02*
X18630200Y-8605800D01*
X18731800Y-8555000D02*
G75*
G03X18731800Y-8555000I-50800J0D01*
G01*
X18630200Y-8758200D02*
X18731800Y-8859800D01*
X18731800Y-8758200D02*
X18630200Y-8859800D01*
X18731800Y-8809000D02*
G75*
G03X18731800Y-8809000I-50800J0D01*
G01*
X18630200Y-9012200D02*
X18731800Y-9113800D01*
X18731800Y-9012200D02*
X18630200Y-9113800D01*
X18731800Y-9063000D02*
G75*
G03X18731800Y-9063000I-50800J0D01*
G01*
X18630200Y-9266200D02*
X18731800Y-9367800D01*
X18731800Y-9266200D02*
X18630200Y-9367800D01*
X18731800Y-9317000D02*
G75*
G03X18731800Y-9317000I-50800J0D01*
G01*
X18630200Y-9520200D02*
X18731800Y-9621800D01*
X18731800Y-9520200D02*
X18630200Y-9621800D01*
X18731800Y-9571000D02*
G75*
G03X18731800Y-9571000I-50800J0D01*
G01*
X18630200Y-9774200D02*
X18731800Y-9875800D01*
X18731800Y-9774200D02*
X18630200Y-9875800D01*
X18731800Y-9825000D02*
G75*
G03X18731800Y-9825000I-50800J0D01*
G01*
X18630200Y-10028200D02*
X18731800Y-10129800D01*
X18731800Y-10028200D02*
X18630200Y-10129800D01*
X18731800Y-10079000D02*
G75*
G03X18731800Y-10079000I-50800J0D01*
G01*
X18630200Y-10282200D02*
X18731800Y-10383800D01*
X18731800Y-10282200D02*
X18630200Y-10383800D01*
X18731800Y-10333000D02*
G75*
G03X18731800Y-10333000I-50800J0D01*
G01*
X18630200Y-10536200D02*
X18731800Y-10637800D01*
X18731800Y-10536200D02*
X18630200Y-10637800D01*
X18731800Y-10587000D02*
G75*
G03X18731800Y-10587000I-50800J0D01*
G01*
X18630200Y-10790200D02*
X18731800Y-10891800D01*
X18731800Y-10790200D02*
X18630200Y-10891800D01*
X18731800Y-10841000D02*
G75*
G03X18731800Y-10841000I-50800J0D01*
G01*
X18630200Y-11044200D02*
X18731800Y-11145800D01*
X18731800Y-11044200D02*
X18630200Y-11145800D01*
X18731800Y-11095000D02*
G75*
G03X18731800Y-11095000I-50800J0D01*
G01*
X10139000Y-6363000D02*
X10459000Y-6683000D01*
X10459000Y-6363000D02*
X10139000Y-6683000D01*
X10299000Y-6363000D02*
X10299000Y-6683000D01*
X10139000Y-6523000D02*
X10459000Y-6523000D01*
X10139000Y-10681000D02*
X10459000Y-11001000D01*
X10459000Y-10681000D02*
X10139000Y-11001000D01*
X10299000Y-10681000D02*
X10299000Y-11001000D01*
X10139000Y-10841000D02*
X10459000Y-10841000D01*
X17759000Y-6363000D02*
X18079000Y-6683000D01*
X18079000Y-6363000D02*
X17759000Y-6683000D01*
X17919000Y-6363000D02*
X17919000Y-6683000D01*
X17759000Y-6523000D02*
X18079000Y-6523000D01*
X17759000Y-10681000D02*
X18079000Y-11001000D01*
X18079000Y-10681000D02*
X17759000Y-11001000D01*
X17919000Y-10681000D02*
X17919000Y-11001000D01*
X17759000Y-10841000D02*
X18079000Y-10841000D01*
X12373000Y-6569000D02*
X12543000Y-6739000D01*
X12543000Y-6569000D02*
X12373000Y-6739000D01*
X12518105Y-6714105D02*
X12518105Y-6593895D01*
X12397895Y-6593895D01*
X12397895Y-6714105D01*
X12518105Y-6714105D01*
X12373000Y-7269000D02*
X12543000Y-7439000D01*
X12543000Y-7269000D02*
X12373000Y-7439000D01*
X12518105Y-7414105D02*
X12518105Y-7293895D01*
X12397895Y-7293895D01*
X12397895Y-7414105D01*
X12518105Y-7414105D01*
D11*
X9666429Y-11702714D02*
X9666429Y-11402714D01*
X9737857Y-11402714D01*
X9780714Y-11417000D01*
X9809286Y-11445571D01*
X9823571Y-11474143D01*
X9837857Y-11531286D01*
X9837857Y-11574143D01*
X9823571Y-11631286D01*
X9809286Y-11659857D01*
X9780714Y-11688429D01*
X9737857Y-11702714D01*
X9666429Y-11702714D01*
X9966429Y-11702714D02*
X9966429Y-11502714D01*
X9966429Y-11559857D02*
X9980714Y-11531286D01*
X9995000Y-11517000D01*
X10023571Y-11502714D01*
X10052143Y-11502714D01*
X10152143Y-11702714D02*
X10152143Y-11502714D01*
X10152143Y-11402714D02*
X10137857Y-11417000D01*
X10152143Y-11431286D01*
X10166429Y-11417000D01*
X10152143Y-11402714D01*
X10152143Y-11431286D01*
X10337857Y-11702714D02*
X10309286Y-11688429D01*
X10295000Y-11659857D01*
X10295000Y-11402714D01*
X10495000Y-11702714D02*
X10466429Y-11688429D01*
X10452143Y-11659857D01*
X10452143Y-11402714D01*
X10837857Y-11702714D02*
X10837857Y-11402714D01*
X10937857Y-11617000D01*
X11037857Y-11402714D01*
X11037857Y-11702714D01*
X11309286Y-11702714D02*
X11309286Y-11545571D01*
X11295000Y-11517000D01*
X11266428Y-11502714D01*
X11209286Y-11502714D01*
X11180714Y-11517000D01*
X11309286Y-11688429D02*
X11280714Y-11702714D01*
X11209286Y-11702714D01*
X11180714Y-11688429D01*
X11166429Y-11659857D01*
X11166429Y-11631286D01*
X11180714Y-11602714D01*
X11209286Y-11588429D01*
X11280714Y-11588429D01*
X11309286Y-11574143D01*
X11452143Y-11502714D02*
X11452143Y-11802714D01*
X11452143Y-11517000D02*
X11480714Y-11502714D01*
X11537857Y-11502714D01*
X11566428Y-11517000D01*
X11580714Y-11531286D01*
X11595000Y-11559857D01*
X11595000Y-11645571D01*
X11580714Y-11674143D01*
X11566428Y-11688429D01*
X11537857Y-11702714D01*
X11480714Y-11702714D01*
X11452143Y-11688429D01*
X11723571Y-11674143D02*
X11737857Y-11688429D01*
X11723571Y-11702714D01*
X11709286Y-11688429D01*
X11723571Y-11674143D01*
X11723571Y-11702714D01*
X11723571Y-11517000D02*
X11737857Y-11531286D01*
X11723571Y-11545571D01*
X11709286Y-11531286D01*
X11723571Y-11517000D01*
X11723571Y-11545571D01*
X9375000Y-12187000D02*
X9395000Y-12207000D01*
X9395000Y-12187000D02*
X9375000Y-12207000D01*
X9723571Y-12032714D02*
X9752143Y-12032714D01*
X9780714Y-12047000D01*
X9795000Y-12061286D01*
X9809286Y-12089857D01*
X9823571Y-12147000D01*
X9823571Y-12218429D01*
X9809286Y-12275571D01*
X9795000Y-12304143D01*
X9780714Y-12318429D01*
X9752143Y-12332714D01*
X9723571Y-12332714D01*
X9695000Y-12318429D01*
X9680714Y-12304143D01*
X9666429Y-12275571D01*
X9652143Y-12218429D01*
X9652143Y-12147000D01*
X9666429Y-12089857D01*
X9680714Y-12061286D01*
X9695000Y-12047000D01*
X9723571Y-12032714D01*
X9952143Y-12304143D02*
X9966429Y-12318429D01*
X9952143Y-12332714D01*
X9937857Y-12318429D01*
X9952143Y-12304143D01*
X9952143Y-12332714D01*
X10080714Y-12061286D02*
X10095000Y-12047000D01*
X10123571Y-12032714D01*
X10195000Y-12032714D01*
X10223571Y-12047000D01*
X10237857Y-12061286D01*
X10252143Y-12089857D01*
X10252143Y-12118429D01*
X10237857Y-12161286D01*
X10066428Y-12332714D01*
X10252143Y-12332714D01*
X10437857Y-12032714D02*
X10466429Y-12032714D01*
X10495000Y-12047000D01*
X10509286Y-12061286D01*
X10523571Y-12089857D01*
X10537857Y-12147000D01*
X10537857Y-12218429D01*
X10523571Y-12275571D01*
X10509286Y-12304143D01*
X10495000Y-12318429D01*
X10466429Y-12332714D01*
X10437857Y-12332714D01*
X10409286Y-12318429D01*
X10395000Y-12304143D01*
X10380714Y-12275571D01*
X10366429Y-12218429D01*
X10366429Y-12147000D01*
X10380714Y-12089857D01*
X10395000Y-12061286D01*
X10409286Y-12047000D01*
X10437857Y-12032714D01*
X10666429Y-12332714D02*
X10666429Y-12132714D01*
X10666429Y-12161286D02*
X10680714Y-12147000D01*
X10709286Y-12132714D01*
X10752143Y-12132714D01*
X10780714Y-12147000D01*
X10795000Y-12175571D01*
X10795000Y-12332714D01*
X10795000Y-12175571D02*
X10809286Y-12147000D01*
X10837857Y-12132714D01*
X10880714Y-12132714D01*
X10909286Y-12147000D01*
X10923571Y-12175571D01*
X10923571Y-12332714D01*
X11066429Y-12332714D02*
X11066429Y-12132714D01*
X11066429Y-12161286D02*
X11080714Y-12147000D01*
X11109286Y-12132714D01*
X11152143Y-12132714D01*
X11180714Y-12147000D01*
X11195000Y-12175571D01*
X11195000Y-12332714D01*
X11195000Y-12175571D02*
X11209286Y-12147000D01*
X11237857Y-12132714D01*
X11280714Y-12132714D01*
X11309286Y-12147000D01*
X11323571Y-12175571D01*
X11323571Y-12332714D01*
X11909286Y-12018429D02*
X11652143Y-12404143D01*
X12295000Y-12032714D02*
X12323571Y-12032714D01*
X12352143Y-12047000D01*
X12366428Y-12061286D01*
X12380714Y-12089857D01*
X12395000Y-12147000D01*
X12395000Y-12218429D01*
X12380714Y-12275571D01*
X12366428Y-12304143D01*
X12352143Y-12318429D01*
X12323571Y-12332714D01*
X12295000Y-12332714D01*
X12266428Y-12318429D01*
X12252143Y-12304143D01*
X12237857Y-12275571D01*
X12223571Y-12218429D01*
X12223571Y-12147000D01*
X12237857Y-12089857D01*
X12252143Y-12061286D01*
X12266428Y-12047000D01*
X12295000Y-12032714D01*
X12523571Y-12304143D02*
X12537857Y-12318429D01*
X12523571Y-12332714D01*
X12509286Y-12318429D01*
X12523571Y-12304143D01*
X12523571Y-12332714D01*
X12723571Y-12032714D02*
X12752143Y-12032714D01*
X12780714Y-12047000D01*
X12795000Y-12061286D01*
X12809285Y-12089857D01*
X12823571Y-12147000D01*
X12823571Y-12218429D01*
X12809285Y-12275571D01*
X12795000Y-12304143D01*
X12780714Y-12318429D01*
X12752143Y-12332714D01*
X12723571Y-12332714D01*
X12695000Y-12318429D01*
X12680714Y-12304143D01*
X12666428Y-12275571D01*
X12652143Y-12218429D01*
X12652143Y-12147000D01*
X12666428Y-12089857D01*
X12680714Y-12061286D01*
X12695000Y-12047000D01*
X12723571Y-12032714D01*
X13009285Y-12032714D02*
X13037857Y-12032714D01*
X13066428Y-12047000D01*
X13080714Y-12061286D01*
X13095000Y-12089857D01*
X13109285Y-12147000D01*
X13109285Y-12218429D01*
X13095000Y-12275571D01*
X13080714Y-12304143D01*
X13066428Y-12318429D01*
X13037857Y-12332714D01*
X13009285Y-12332714D01*
X12980714Y-12318429D01*
X12966428Y-12304143D01*
X12952143Y-12275571D01*
X12937857Y-12218429D01*
X12937857Y-12147000D01*
X12952143Y-12089857D01*
X12966428Y-12061286D01*
X12980714Y-12047000D01*
X13009285Y-12032714D01*
X13280714Y-12161286D02*
X13252143Y-12147000D01*
X13237857Y-12132714D01*
X13223571Y-12104143D01*
X13223571Y-12089857D01*
X13237857Y-12061286D01*
X13252143Y-12047000D01*
X13280714Y-12032714D01*
X13337857Y-12032714D01*
X13366428Y-12047000D01*
X13380714Y-12061286D01*
X13395000Y-12089857D01*
X13395000Y-12104143D01*
X13380714Y-12132714D01*
X13366428Y-12147000D01*
X13337857Y-12161286D01*
X13280714Y-12161286D01*
X13252143Y-12175571D01*
X13237857Y-12189857D01*
X13223571Y-12218429D01*
X13223571Y-12275571D01*
X13237857Y-12304143D01*
X13252143Y-12318429D01*
X13280714Y-12332714D01*
X13337857Y-12332714D01*
X13366428Y-12318429D01*
X13380714Y-12304143D01*
X13395000Y-12275571D01*
X13395000Y-12218429D01*
X13380714Y-12189857D01*
X13366428Y-12175571D01*
X13337857Y-12161286D01*
X13509286Y-12032714D02*
X13509286Y-12089857D01*
X13623571Y-12032714D02*
X13623571Y-12089857D01*
X14066428Y-12447000D02*
X14052143Y-12432714D01*
X14023571Y-12389857D01*
X14009285Y-12361286D01*
X13995000Y-12318429D01*
X13980714Y-12247000D01*
X13980714Y-12189857D01*
X13995000Y-12118429D01*
X14009285Y-12075571D01*
X14023571Y-12047000D01*
X14052143Y-12004143D01*
X14066428Y-11989857D01*
X14152143Y-12032714D02*
X14337857Y-12032714D01*
X14237857Y-12147000D01*
X14280714Y-12147000D01*
X14309285Y-12161286D01*
X14323571Y-12175571D01*
X14337857Y-12204143D01*
X14337857Y-12275571D01*
X14323571Y-12304143D01*
X14309285Y-12318429D01*
X14280714Y-12332714D01*
X14195000Y-12332714D01*
X14166428Y-12318429D01*
X14152143Y-12304143D01*
X14523571Y-12032714D02*
X14552143Y-12032714D01*
X14580714Y-12047000D01*
X14595000Y-12061286D01*
X14609285Y-12089857D01*
X14623571Y-12147000D01*
X14623571Y-12218429D01*
X14609285Y-12275571D01*
X14595000Y-12304143D01*
X14580714Y-12318429D01*
X14552143Y-12332714D01*
X14523571Y-12332714D01*
X14495000Y-12318429D01*
X14480714Y-12304143D01*
X14466428Y-12275571D01*
X14452143Y-12218429D01*
X14452143Y-12147000D01*
X14466428Y-12089857D01*
X14480714Y-12061286D01*
X14495000Y-12047000D01*
X14523571Y-12032714D01*
X14737857Y-12061286D02*
X14752143Y-12047000D01*
X14780714Y-12032714D01*
X14852143Y-12032714D01*
X14880714Y-12047000D01*
X14895000Y-12061286D01*
X14909285Y-12089857D01*
X14909285Y-12118429D01*
X14895000Y-12161286D01*
X14723571Y-12332714D01*
X14909285Y-12332714D01*
X15266428Y-12332714D02*
X15266428Y-12032714D01*
X15395000Y-12332714D02*
X15395000Y-12175571D01*
X15380714Y-12147000D01*
X15352143Y-12132714D01*
X15309285Y-12132714D01*
X15280714Y-12147000D01*
X15266428Y-12161286D01*
X15580714Y-12332714D02*
X15552143Y-12318429D01*
X15537857Y-12304143D01*
X15523571Y-12275571D01*
X15523571Y-12189857D01*
X15537857Y-12161286D01*
X15552143Y-12147000D01*
X15580714Y-12132714D01*
X15623571Y-12132714D01*
X15652143Y-12147000D01*
X15666428Y-12161286D01*
X15680714Y-12189857D01*
X15680714Y-12275571D01*
X15666428Y-12304143D01*
X15652143Y-12318429D01*
X15623571Y-12332714D01*
X15580714Y-12332714D01*
X15852143Y-12332714D02*
X15823571Y-12318429D01*
X15809286Y-12289857D01*
X15809286Y-12032714D01*
X16080714Y-12318429D02*
X16052143Y-12332714D01*
X15995000Y-12332714D01*
X15966428Y-12318429D01*
X15952143Y-12289857D01*
X15952143Y-12175571D01*
X15966428Y-12147000D01*
X15995000Y-12132714D01*
X16052143Y-12132714D01*
X16080714Y-12147000D01*
X16095000Y-12175571D01*
X16095000Y-12204143D01*
X15952143Y-12232714D01*
X16209286Y-12318429D02*
X16237857Y-12332714D01*
X16295000Y-12332714D01*
X16323571Y-12318429D01*
X16337857Y-12289857D01*
X16337857Y-12275571D01*
X16323571Y-12247000D01*
X16295000Y-12232714D01*
X16252143Y-12232714D01*
X16223571Y-12218429D01*
X16209286Y-12189857D01*
X16209286Y-12175571D01*
X16223571Y-12147000D01*
X16252143Y-12132714D01*
X16295000Y-12132714D01*
X16323571Y-12147000D01*
X16437857Y-12447000D02*
X16452143Y-12432714D01*
X16480714Y-12389857D01*
X16495000Y-12361286D01*
X16509286Y-12318429D01*
X16523571Y-12247000D01*
X16523571Y-12189857D01*
X16509286Y-12118429D01*
X16495000Y-12075571D01*
X16480714Y-12047000D01*
X16452143Y-12004143D01*
X16437857Y-11989857D01*
X9395000Y-12593000D02*
G75*
G03X9395000Y-12593000I-12700J0D01*
G01*
X9723571Y-12428714D02*
X9752143Y-12428714D01*
X9780714Y-12443000D01*
X9795000Y-12457286D01*
X9809286Y-12485857D01*
X9823571Y-12543000D01*
X9823571Y-12614429D01*
X9809286Y-12671571D01*
X9795000Y-12700143D01*
X9780714Y-12714429D01*
X9752143Y-12728714D01*
X9723571Y-12728714D01*
X9695000Y-12714429D01*
X9680714Y-12700143D01*
X9666429Y-12671571D01*
X9652143Y-12614429D01*
X9652143Y-12543000D01*
X9666429Y-12485857D01*
X9680714Y-12457286D01*
X9695000Y-12443000D01*
X9723571Y-12428714D01*
X9952143Y-12700143D02*
X9966429Y-12714429D01*
X9952143Y-12728714D01*
X9937857Y-12714429D01*
X9952143Y-12700143D01*
X9952143Y-12728714D01*
X10080714Y-12457286D02*
X10095000Y-12443000D01*
X10123571Y-12428714D01*
X10195000Y-12428714D01*
X10223571Y-12443000D01*
X10237857Y-12457286D01*
X10252143Y-12485857D01*
X10252143Y-12514429D01*
X10237857Y-12557286D01*
X10066428Y-12728714D01*
X10252143Y-12728714D01*
X10523571Y-12428714D02*
X10380714Y-12428714D01*
X10366429Y-12571571D01*
X10380714Y-12557286D01*
X10409286Y-12543000D01*
X10480714Y-12543000D01*
X10509286Y-12557286D01*
X10523571Y-12571571D01*
X10537857Y-12600143D01*
X10537857Y-12671571D01*
X10523571Y-12700143D01*
X10509286Y-12714429D01*
X10480714Y-12728714D01*
X10409286Y-12728714D01*
X10380714Y-12714429D01*
X10366429Y-12700143D01*
X10666429Y-12728714D02*
X10666429Y-12528714D01*
X10666429Y-12557286D02*
X10680714Y-12543000D01*
X10709286Y-12528714D01*
X10752143Y-12528714D01*
X10780714Y-12543000D01*
X10795000Y-12571571D01*
X10795000Y-12728714D01*
X10795000Y-12571571D02*
X10809286Y-12543000D01*
X10837857Y-12528714D01*
X10880714Y-12528714D01*
X10909286Y-12543000D01*
X10923571Y-12571571D01*
X10923571Y-12728714D01*
X11066429Y-12728714D02*
X11066429Y-12528714D01*
X11066429Y-12557286D02*
X11080714Y-12543000D01*
X11109286Y-12528714D01*
X11152143Y-12528714D01*
X11180714Y-12543000D01*
X11195000Y-12571571D01*
X11195000Y-12728714D01*
X11195000Y-12571571D02*
X11209286Y-12543000D01*
X11237857Y-12528714D01*
X11280714Y-12528714D01*
X11309286Y-12543000D01*
X11323571Y-12571571D01*
X11323571Y-12728714D01*
X11909286Y-12414429D02*
X11652143Y-12800143D01*
X12295000Y-12428714D02*
X12323571Y-12428714D01*
X12352143Y-12443000D01*
X12366428Y-12457286D01*
X12380714Y-12485857D01*
X12395000Y-12543000D01*
X12395000Y-12614429D01*
X12380714Y-12671571D01*
X12366428Y-12700143D01*
X12352143Y-12714429D01*
X12323571Y-12728714D01*
X12295000Y-12728714D01*
X12266428Y-12714429D01*
X12252143Y-12700143D01*
X12237857Y-12671571D01*
X12223571Y-12614429D01*
X12223571Y-12543000D01*
X12237857Y-12485857D01*
X12252143Y-12457286D01*
X12266428Y-12443000D01*
X12295000Y-12428714D01*
X12523571Y-12700143D02*
X12537857Y-12714429D01*
X12523571Y-12728714D01*
X12509286Y-12714429D01*
X12523571Y-12700143D01*
X12523571Y-12728714D01*
X12723571Y-12428714D02*
X12752143Y-12428714D01*
X12780714Y-12443000D01*
X12795000Y-12457286D01*
X12809285Y-12485857D01*
X12823571Y-12543000D01*
X12823571Y-12614429D01*
X12809285Y-12671571D01*
X12795000Y-12700143D01*
X12780714Y-12714429D01*
X12752143Y-12728714D01*
X12723571Y-12728714D01*
X12695000Y-12714429D01*
X12680714Y-12700143D01*
X12666428Y-12671571D01*
X12652143Y-12614429D01*
X12652143Y-12543000D01*
X12666428Y-12485857D01*
X12680714Y-12457286D01*
X12695000Y-12443000D01*
X12723571Y-12428714D01*
X13109285Y-12728714D02*
X12937857Y-12728714D01*
X13023571Y-12728714D02*
X13023571Y-12428714D01*
X12995000Y-12471571D01*
X12966428Y-12500143D01*
X12937857Y-12514429D01*
X13295000Y-12428714D02*
X13323571Y-12428714D01*
X13352143Y-12443000D01*
X13366428Y-12457286D01*
X13380714Y-12485857D01*
X13395000Y-12543000D01*
X13395000Y-12614429D01*
X13380714Y-12671571D01*
X13366428Y-12700143D01*
X13352143Y-12714429D01*
X13323571Y-12728714D01*
X13295000Y-12728714D01*
X13266428Y-12714429D01*
X13252143Y-12700143D01*
X13237857Y-12671571D01*
X13223571Y-12614429D01*
X13223571Y-12543000D01*
X13237857Y-12485857D01*
X13252143Y-12457286D01*
X13266428Y-12443000D01*
X13295000Y-12428714D01*
X13509286Y-12428714D02*
X13509286Y-12485857D01*
X13623571Y-12428714D02*
X13623571Y-12485857D01*
X14066428Y-12843000D02*
X14052143Y-12828714D01*
X14023571Y-12785857D01*
X14009285Y-12757286D01*
X13995000Y-12714429D01*
X13980714Y-12643000D01*
X13980714Y-12585857D01*
X13995000Y-12514429D01*
X14009285Y-12471571D01*
X14023571Y-12443000D01*
X14052143Y-12400143D01*
X14066428Y-12385857D01*
X14152143Y-12428714D02*
X14337857Y-12428714D01*
X14237857Y-12543000D01*
X14280714Y-12543000D01*
X14309285Y-12557286D01*
X14323571Y-12571571D01*
X14337857Y-12600143D01*
X14337857Y-12671571D01*
X14323571Y-12700143D01*
X14309285Y-12714429D01*
X14280714Y-12728714D01*
X14195000Y-12728714D01*
X14166428Y-12714429D01*
X14152143Y-12700143D01*
X14623571Y-12728714D02*
X14452143Y-12728714D01*
X14537857Y-12728714D02*
X14537857Y-12428714D01*
X14509285Y-12471571D01*
X14480714Y-12500143D01*
X14452143Y-12514429D01*
X14980714Y-12728714D02*
X14980714Y-12428714D01*
X15109285Y-12728714D02*
X15109285Y-12571571D01*
X15095000Y-12543000D01*
X15066428Y-12528714D01*
X15023571Y-12528714D01*
X14995000Y-12543000D01*
X14980714Y-12557286D01*
X15295000Y-12728714D02*
X15266428Y-12714429D01*
X15252143Y-12700143D01*
X15237857Y-12671571D01*
X15237857Y-12585857D01*
X15252143Y-12557286D01*
X15266428Y-12543000D01*
X15295000Y-12528714D01*
X15337857Y-12528714D01*
X15366428Y-12543000D01*
X15380714Y-12557286D01*
X15395000Y-12585857D01*
X15395000Y-12671571D01*
X15380714Y-12700143D01*
X15366428Y-12714429D01*
X15337857Y-12728714D01*
X15295000Y-12728714D01*
X15566428Y-12728714D02*
X15537857Y-12714429D01*
X15523571Y-12685857D01*
X15523571Y-12428714D01*
X15795000Y-12714429D02*
X15766428Y-12728714D01*
X15709286Y-12728714D01*
X15680714Y-12714429D01*
X15666428Y-12685857D01*
X15666428Y-12571571D01*
X15680714Y-12543000D01*
X15709286Y-12528714D01*
X15766428Y-12528714D01*
X15795000Y-12543000D01*
X15809286Y-12571571D01*
X15809286Y-12600143D01*
X15666428Y-12628714D01*
X15923571Y-12714429D02*
X15952143Y-12728714D01*
X16009286Y-12728714D01*
X16037857Y-12714429D01*
X16052143Y-12685857D01*
X16052143Y-12671571D01*
X16037857Y-12643000D01*
X16009286Y-12628714D01*
X15966428Y-12628714D01*
X15937857Y-12614429D01*
X15923571Y-12585857D01*
X15923571Y-12571571D01*
X15937857Y-12543000D01*
X15966428Y-12528714D01*
X16009286Y-12528714D01*
X16037857Y-12543000D01*
X16152143Y-12843000D02*
X16166428Y-12828714D01*
X16195000Y-12785857D01*
X16209286Y-12757286D01*
X16223571Y-12714429D01*
X16237857Y-12643000D01*
X16237857Y-12585857D01*
X16223571Y-12514429D01*
X16209286Y-12471571D01*
X16195000Y-12443000D01*
X16166428Y-12400143D01*
X16152143Y-12385857D01*
X9380000Y-12974000D02*
X9380000Y-13004000D01*
X9365000Y-12989000D02*
X9395000Y-12989000D01*
X9723571Y-12824714D02*
X9752143Y-12824714D01*
X9780714Y-12839000D01*
X9795000Y-12853286D01*
X9809286Y-12881857D01*
X9823571Y-12939000D01*
X9823571Y-13010429D01*
X9809286Y-13067571D01*
X9795000Y-13096143D01*
X9780714Y-13110429D01*
X9752143Y-13124714D01*
X9723571Y-13124714D01*
X9695000Y-13110429D01*
X9680714Y-13096143D01*
X9666429Y-13067571D01*
X9652143Y-13010429D01*
X9652143Y-12939000D01*
X9666429Y-12881857D01*
X9680714Y-12853286D01*
X9695000Y-12839000D01*
X9723571Y-12824714D01*
X9952143Y-13096143D02*
X9966429Y-13110429D01*
X9952143Y-13124714D01*
X9937857Y-13110429D01*
X9952143Y-13096143D01*
X9952143Y-13124714D01*
X10066428Y-12824714D02*
X10252143Y-12824714D01*
X10152143Y-12939000D01*
X10195000Y-12939000D01*
X10223571Y-12953286D01*
X10237857Y-12967571D01*
X10252143Y-12996143D01*
X10252143Y-13067571D01*
X10237857Y-13096143D01*
X10223571Y-13110429D01*
X10195000Y-13124714D01*
X10109286Y-13124714D01*
X10080714Y-13110429D01*
X10066428Y-13096143D01*
X10437857Y-12824714D02*
X10466429Y-12824714D01*
X10495000Y-12839000D01*
X10509286Y-12853286D01*
X10523571Y-12881857D01*
X10537857Y-12939000D01*
X10537857Y-13010429D01*
X10523571Y-13067571D01*
X10509286Y-13096143D01*
X10495000Y-13110429D01*
X10466429Y-13124714D01*
X10437857Y-13124714D01*
X10409286Y-13110429D01*
X10395000Y-13096143D01*
X10380714Y-13067571D01*
X10366429Y-13010429D01*
X10366429Y-12939000D01*
X10380714Y-12881857D01*
X10395000Y-12853286D01*
X10409286Y-12839000D01*
X10437857Y-12824714D01*
X10666429Y-13124714D02*
X10666429Y-12924714D01*
X10666429Y-12953286D02*
X10680714Y-12939000D01*
X10709286Y-12924714D01*
X10752143Y-12924714D01*
X10780714Y-12939000D01*
X10795000Y-12967571D01*
X10795000Y-13124714D01*
X10795000Y-12967571D02*
X10809286Y-12939000D01*
X10837857Y-12924714D01*
X10880714Y-12924714D01*
X10909286Y-12939000D01*
X10923571Y-12967571D01*
X10923571Y-13124714D01*
X11066429Y-13124714D02*
X11066429Y-12924714D01*
X11066429Y-12953286D02*
X11080714Y-12939000D01*
X11109286Y-12924714D01*
X11152143Y-12924714D01*
X11180714Y-12939000D01*
X11195000Y-12967571D01*
X11195000Y-13124714D01*
X11195000Y-12967571D02*
X11209286Y-12939000D01*
X11237857Y-12924714D01*
X11280714Y-12924714D01*
X11309286Y-12939000D01*
X11323571Y-12967571D01*
X11323571Y-13124714D01*
X11909286Y-12810429D02*
X11652143Y-13196143D01*
X12295000Y-12824714D02*
X12323571Y-12824714D01*
X12352143Y-12839000D01*
X12366428Y-12853286D01*
X12380714Y-12881857D01*
X12395000Y-12939000D01*
X12395000Y-13010429D01*
X12380714Y-13067571D01*
X12366428Y-13096143D01*
X12352143Y-13110429D01*
X12323571Y-13124714D01*
X12295000Y-13124714D01*
X12266428Y-13110429D01*
X12252143Y-13096143D01*
X12237857Y-13067571D01*
X12223571Y-13010429D01*
X12223571Y-12939000D01*
X12237857Y-12881857D01*
X12252143Y-12853286D01*
X12266428Y-12839000D01*
X12295000Y-12824714D01*
X12523571Y-13096143D02*
X12537857Y-13110429D01*
X12523571Y-13124714D01*
X12509286Y-13110429D01*
X12523571Y-13096143D01*
X12523571Y-13124714D01*
X12723571Y-12824714D02*
X12752143Y-12824714D01*
X12780714Y-12839000D01*
X12795000Y-12853286D01*
X12809285Y-12881857D01*
X12823571Y-12939000D01*
X12823571Y-13010429D01*
X12809285Y-13067571D01*
X12795000Y-13096143D01*
X12780714Y-13110429D01*
X12752143Y-13124714D01*
X12723571Y-13124714D01*
X12695000Y-13110429D01*
X12680714Y-13096143D01*
X12666428Y-13067571D01*
X12652143Y-13010429D01*
X12652143Y-12939000D01*
X12666428Y-12881857D01*
X12680714Y-12853286D01*
X12695000Y-12839000D01*
X12723571Y-12824714D01*
X13109285Y-13124714D02*
X12937857Y-13124714D01*
X13023571Y-13124714D02*
X13023571Y-12824714D01*
X12995000Y-12867571D01*
X12966428Y-12896143D01*
X12937857Y-12910429D01*
X13223571Y-12853286D02*
X13237857Y-12839000D01*
X13266428Y-12824714D01*
X13337857Y-12824714D01*
X13366428Y-12839000D01*
X13380714Y-12853286D01*
X13395000Y-12881857D01*
X13395000Y-12910429D01*
X13380714Y-12953286D01*
X13209285Y-13124714D01*
X13395000Y-13124714D01*
X13509286Y-12824714D02*
X13509286Y-12881857D01*
X13623571Y-12824714D02*
X13623571Y-12881857D01*
X14066428Y-13239000D02*
X14052143Y-13224714D01*
X14023571Y-13181857D01*
X14009285Y-13153286D01*
X13995000Y-13110429D01*
X13980714Y-13039000D01*
X13980714Y-12981857D01*
X13995000Y-12910429D01*
X14009285Y-12867571D01*
X14023571Y-12839000D01*
X14052143Y-12796143D01*
X14066428Y-12781857D01*
X14152143Y-12824714D02*
X14352143Y-12824714D01*
X14223571Y-13124714D01*
X14695000Y-13124714D02*
X14695000Y-12824714D01*
X14823571Y-13124714D02*
X14823571Y-12967571D01*
X14809285Y-12939000D01*
X14780714Y-12924714D01*
X14737857Y-12924714D01*
X14709285Y-12939000D01*
X14695000Y-12953286D01*
X15009285Y-13124714D02*
X14980714Y-13110429D01*
X14966428Y-13096143D01*
X14952143Y-13067571D01*
X14952143Y-12981857D01*
X14966428Y-12953286D01*
X14980714Y-12939000D01*
X15009285Y-12924714D01*
X15052143Y-12924714D01*
X15080714Y-12939000D01*
X15095000Y-12953286D01*
X15109285Y-12981857D01*
X15109285Y-13067571D01*
X15095000Y-13096143D01*
X15080714Y-13110429D01*
X15052143Y-13124714D01*
X15009285Y-13124714D01*
X15280714Y-13124714D02*
X15252143Y-13110429D01*
X15237857Y-13081857D01*
X15237857Y-12824714D01*
X15509286Y-13110429D02*
X15480714Y-13124714D01*
X15423571Y-13124714D01*
X15395000Y-13110429D01*
X15380714Y-13081857D01*
X15380714Y-12967571D01*
X15395000Y-12939000D01*
X15423571Y-12924714D01*
X15480714Y-12924714D01*
X15509286Y-12939000D01*
X15523571Y-12967571D01*
X15523571Y-12996143D01*
X15380714Y-13024714D01*
X15637857Y-13110429D02*
X15666428Y-13124714D01*
X15723571Y-13124714D01*
X15752143Y-13110429D01*
X15766428Y-13081857D01*
X15766428Y-13067571D01*
X15752143Y-13039000D01*
X15723571Y-13024714D01*
X15680714Y-13024714D01*
X15652143Y-13010429D01*
X15637857Y-12981857D01*
X15637857Y-12967571D01*
X15652143Y-12939000D01*
X15680714Y-12924714D01*
X15723571Y-12924714D01*
X15752143Y-12939000D01*
X15866428Y-13239000D02*
X15880714Y-13224714D01*
X15909286Y-13181857D01*
X15923571Y-13153286D01*
X15937857Y-13110429D01*
X15952143Y-13039000D01*
X15952143Y-12981857D01*
X15937857Y-12910429D01*
X15923571Y-12867571D01*
X15909286Y-12839000D01*
X15880714Y-12796143D01*
X15866428Y-12781857D01*
X9387678Y-13402678D02*
X9387678Y-13367322D01*
X9352322Y-13367322D01*
X9352322Y-13402678D01*
X9387678Y-13402678D01*
X9723571Y-13220714D02*
X9752143Y-13220714D01*
X9780714Y-13235000D01*
X9795000Y-13249286D01*
X9809286Y-13277857D01*
X9823571Y-13335000D01*
X9823571Y-13406429D01*
X9809286Y-13463571D01*
X9795000Y-13492143D01*
X9780714Y-13506429D01*
X9752143Y-13520714D01*
X9723571Y-13520714D01*
X9695000Y-13506429D01*
X9680714Y-13492143D01*
X9666429Y-13463571D01*
X9652143Y-13406429D01*
X9652143Y-13335000D01*
X9666429Y-13277857D01*
X9680714Y-13249286D01*
X9695000Y-13235000D01*
X9723571Y-13220714D01*
X9952143Y-13492143D02*
X9966429Y-13506429D01*
X9952143Y-13520714D01*
X9937857Y-13506429D01*
X9952143Y-13492143D01*
X9952143Y-13520714D01*
X10237857Y-13220714D02*
X10095000Y-13220714D01*
X10080714Y-13363571D01*
X10095000Y-13349286D01*
X10123571Y-13335000D01*
X10195000Y-13335000D01*
X10223571Y-13349286D01*
X10237857Y-13363571D01*
X10252143Y-13392143D01*
X10252143Y-13463571D01*
X10237857Y-13492143D01*
X10223571Y-13506429D01*
X10195000Y-13520714D01*
X10123571Y-13520714D01*
X10095000Y-13506429D01*
X10080714Y-13492143D01*
X10437857Y-13220714D02*
X10466429Y-13220714D01*
X10495000Y-13235000D01*
X10509286Y-13249286D01*
X10523571Y-13277857D01*
X10537857Y-13335000D01*
X10537857Y-13406429D01*
X10523571Y-13463571D01*
X10509286Y-13492143D01*
X10495000Y-13506429D01*
X10466429Y-13520714D01*
X10437857Y-13520714D01*
X10409286Y-13506429D01*
X10395000Y-13492143D01*
X10380714Y-13463571D01*
X10366429Y-13406429D01*
X10366429Y-13335000D01*
X10380714Y-13277857D01*
X10395000Y-13249286D01*
X10409286Y-13235000D01*
X10437857Y-13220714D01*
X10666429Y-13520714D02*
X10666429Y-13320714D01*
X10666429Y-13349286D02*
X10680714Y-13335000D01*
X10709286Y-13320714D01*
X10752143Y-13320714D01*
X10780714Y-13335000D01*
X10795000Y-13363571D01*
X10795000Y-13520714D01*
X10795000Y-13363571D02*
X10809286Y-13335000D01*
X10837857Y-13320714D01*
X10880714Y-13320714D01*
X10909286Y-13335000D01*
X10923571Y-13363571D01*
X10923571Y-13520714D01*
X11066429Y-13520714D02*
X11066429Y-13320714D01*
X11066429Y-13349286D02*
X11080714Y-13335000D01*
X11109286Y-13320714D01*
X11152143Y-13320714D01*
X11180714Y-13335000D01*
X11195000Y-13363571D01*
X11195000Y-13520714D01*
X11195000Y-13363571D02*
X11209286Y-13335000D01*
X11237857Y-13320714D01*
X11280714Y-13320714D01*
X11309286Y-13335000D01*
X11323571Y-13363571D01*
X11323571Y-13520714D01*
X11909286Y-13206429D02*
X11652143Y-13592143D01*
X12295000Y-13220714D02*
X12323571Y-13220714D01*
X12352143Y-13235000D01*
X12366428Y-13249286D01*
X12380714Y-13277857D01*
X12395000Y-13335000D01*
X12395000Y-13406429D01*
X12380714Y-13463571D01*
X12366428Y-13492143D01*
X12352143Y-13506429D01*
X12323571Y-13520714D01*
X12295000Y-13520714D01*
X12266428Y-13506429D01*
X12252143Y-13492143D01*
X12237857Y-13463571D01*
X12223571Y-13406429D01*
X12223571Y-13335000D01*
X12237857Y-13277857D01*
X12252143Y-13249286D01*
X12266428Y-13235000D01*
X12295000Y-13220714D01*
X12523571Y-13492143D02*
X12537857Y-13506429D01*
X12523571Y-13520714D01*
X12509286Y-13506429D01*
X12523571Y-13492143D01*
X12523571Y-13520714D01*
X12723571Y-13220714D02*
X12752143Y-13220714D01*
X12780714Y-13235000D01*
X12795000Y-13249286D01*
X12809285Y-13277857D01*
X12823571Y-13335000D01*
X12823571Y-13406429D01*
X12809285Y-13463571D01*
X12795000Y-13492143D01*
X12780714Y-13506429D01*
X12752143Y-13520714D01*
X12723571Y-13520714D01*
X12695000Y-13506429D01*
X12680714Y-13492143D01*
X12666428Y-13463571D01*
X12652143Y-13406429D01*
X12652143Y-13335000D01*
X12666428Y-13277857D01*
X12680714Y-13249286D01*
X12695000Y-13235000D01*
X12723571Y-13220714D01*
X12937857Y-13249286D02*
X12952143Y-13235000D01*
X12980714Y-13220714D01*
X13052143Y-13220714D01*
X13080714Y-13235000D01*
X13095000Y-13249286D01*
X13109285Y-13277857D01*
X13109285Y-13306429D01*
X13095000Y-13349286D01*
X12923571Y-13520714D01*
X13109285Y-13520714D01*
X13295000Y-13220714D02*
X13323571Y-13220714D01*
X13352143Y-13235000D01*
X13366428Y-13249286D01*
X13380714Y-13277857D01*
X13395000Y-13335000D01*
X13395000Y-13406429D01*
X13380714Y-13463571D01*
X13366428Y-13492143D01*
X13352143Y-13506429D01*
X13323571Y-13520714D01*
X13295000Y-13520714D01*
X13266428Y-13506429D01*
X13252143Y-13492143D01*
X13237857Y-13463571D01*
X13223571Y-13406429D01*
X13223571Y-13335000D01*
X13237857Y-13277857D01*
X13252143Y-13249286D01*
X13266428Y-13235000D01*
X13295000Y-13220714D01*
X13509286Y-13220714D02*
X13509286Y-13277857D01*
X13623571Y-13220714D02*
X13623571Y-13277857D01*
X14066428Y-13635000D02*
X14052143Y-13620714D01*
X14023571Y-13577857D01*
X14009285Y-13549286D01*
X13995000Y-13506429D01*
X13980714Y-13435000D01*
X13980714Y-13377857D01*
X13995000Y-13306429D01*
X14009285Y-13263571D01*
X14023571Y-13235000D01*
X14052143Y-13192143D01*
X14066428Y-13177857D01*
X14337857Y-13520714D02*
X14166428Y-13520714D01*
X14252143Y-13520714D02*
X14252143Y-13220714D01*
X14223571Y-13263571D01*
X14195000Y-13292143D01*
X14166428Y-13306429D01*
X14595000Y-13220714D02*
X14537857Y-13220714D01*
X14509285Y-13235000D01*
X14495000Y-13249286D01*
X14466428Y-13292143D01*
X14452143Y-13349286D01*
X14452143Y-13463571D01*
X14466428Y-13492143D01*
X14480714Y-13506429D01*
X14509285Y-13520714D01*
X14566428Y-13520714D01*
X14595000Y-13506429D01*
X14609285Y-13492143D01*
X14623571Y-13463571D01*
X14623571Y-13392143D01*
X14609285Y-13363571D01*
X14595000Y-13349286D01*
X14566428Y-13335000D01*
X14509285Y-13335000D01*
X14480714Y-13349286D01*
X14466428Y-13363571D01*
X14452143Y-13392143D01*
X14980714Y-13520714D02*
X14980714Y-13220714D01*
X15109285Y-13520714D02*
X15109285Y-13363571D01*
X15095000Y-13335000D01*
X15066428Y-13320714D01*
X15023571Y-13320714D01*
X14995000Y-13335000D01*
X14980714Y-13349286D01*
X15295000Y-13520714D02*
X15266428Y-13506429D01*
X15252143Y-13492143D01*
X15237857Y-13463571D01*
X15237857Y-13377857D01*
X15252143Y-13349286D01*
X15266428Y-13335000D01*
X15295000Y-13320714D01*
X15337857Y-13320714D01*
X15366428Y-13335000D01*
X15380714Y-13349286D01*
X15395000Y-13377857D01*
X15395000Y-13463571D01*
X15380714Y-13492143D01*
X15366428Y-13506429D01*
X15337857Y-13520714D01*
X15295000Y-13520714D01*
X15566428Y-13520714D02*
X15537857Y-13506429D01*
X15523571Y-13477857D01*
X15523571Y-13220714D01*
X15795000Y-13506429D02*
X15766428Y-13520714D01*
X15709286Y-13520714D01*
X15680714Y-13506429D01*
X15666428Y-13477857D01*
X15666428Y-13363571D01*
X15680714Y-13335000D01*
X15709286Y-13320714D01*
X15766428Y-13320714D01*
X15795000Y-13335000D01*
X15809286Y-13363571D01*
X15809286Y-13392143D01*
X15666428Y-13420714D01*
X15923571Y-13506429D02*
X15952143Y-13520714D01*
X16009286Y-13520714D01*
X16037857Y-13506429D01*
X16052143Y-13477857D01*
X16052143Y-13463571D01*
X16037857Y-13435000D01*
X16009286Y-13420714D01*
X15966428Y-13420714D01*
X15937857Y-13406429D01*
X15923571Y-13377857D01*
X15923571Y-13363571D01*
X15937857Y-13335000D01*
X15966428Y-13320714D01*
X16009286Y-13320714D01*
X16037857Y-13335000D01*
X16152143Y-13635000D02*
X16166428Y-13620714D01*
X16195000Y-13577857D01*
X16209286Y-13549286D01*
X16223571Y-13506429D01*
X16237857Y-13435000D01*
X16237857Y-13377857D01*
X16223571Y-13306429D01*
X16209286Y-13263571D01*
X16195000Y-13235000D01*
X16166428Y-13192143D01*
X16152143Y-13177857D01*
X9355000Y-13821000D02*
X9395000Y-13781000D01*
X9355000Y-13741000D01*
X9315000Y-13781000D01*
X9355000Y-13821000D01*
X9723571Y-13616714D02*
X9752143Y-13616714D01*
X9780714Y-13631000D01*
X9795000Y-13645286D01*
X9809286Y-13673857D01*
X9823571Y-13731000D01*
X9823571Y-13802429D01*
X9809286Y-13859571D01*
X9795000Y-13888143D01*
X9780714Y-13902429D01*
X9752143Y-13916714D01*
X9723571Y-13916714D01*
X9695000Y-13902429D01*
X9680714Y-13888143D01*
X9666429Y-13859571D01*
X9652143Y-13802429D01*
X9652143Y-13731000D01*
X9666429Y-13673857D01*
X9680714Y-13645286D01*
X9695000Y-13631000D01*
X9723571Y-13616714D01*
X9952143Y-13888143D02*
X9966429Y-13902429D01*
X9952143Y-13916714D01*
X9937857Y-13902429D01*
X9952143Y-13888143D01*
X9952143Y-13916714D01*
X10137857Y-13745286D02*
X10109286Y-13731000D01*
X10095000Y-13716714D01*
X10080714Y-13688143D01*
X10080714Y-13673857D01*
X10095000Y-13645286D01*
X10109286Y-13631000D01*
X10137857Y-13616714D01*
X10195000Y-13616714D01*
X10223571Y-13631000D01*
X10237857Y-13645286D01*
X10252143Y-13673857D01*
X10252143Y-13688143D01*
X10237857Y-13716714D01*
X10223571Y-13731000D01*
X10195000Y-13745286D01*
X10137857Y-13745286D01*
X10109286Y-13759571D01*
X10095000Y-13773857D01*
X10080714Y-13802429D01*
X10080714Y-13859571D01*
X10095000Y-13888143D01*
X10109286Y-13902429D01*
X10137857Y-13916714D01*
X10195000Y-13916714D01*
X10223571Y-13902429D01*
X10237857Y-13888143D01*
X10252143Y-13859571D01*
X10252143Y-13802429D01*
X10237857Y-13773857D01*
X10223571Y-13759571D01*
X10195000Y-13745286D01*
X10437857Y-13616714D02*
X10466429Y-13616714D01*
X10495000Y-13631000D01*
X10509286Y-13645286D01*
X10523571Y-13673857D01*
X10537857Y-13731000D01*
X10537857Y-13802429D01*
X10523571Y-13859571D01*
X10509286Y-13888143D01*
X10495000Y-13902429D01*
X10466429Y-13916714D01*
X10437857Y-13916714D01*
X10409286Y-13902429D01*
X10395000Y-13888143D01*
X10380714Y-13859571D01*
X10366429Y-13802429D01*
X10366429Y-13731000D01*
X10380714Y-13673857D01*
X10395000Y-13645286D01*
X10409286Y-13631000D01*
X10437857Y-13616714D01*
X10666429Y-13916714D02*
X10666429Y-13716714D01*
X10666429Y-13745286D02*
X10680714Y-13731000D01*
X10709286Y-13716714D01*
X10752143Y-13716714D01*
X10780714Y-13731000D01*
X10795000Y-13759571D01*
X10795000Y-13916714D01*
X10795000Y-13759571D02*
X10809286Y-13731000D01*
X10837857Y-13716714D01*
X10880714Y-13716714D01*
X10909286Y-13731000D01*
X10923571Y-13759571D01*
X10923571Y-13916714D01*
X11066429Y-13916714D02*
X11066429Y-13716714D01*
X11066429Y-13745286D02*
X11080714Y-13731000D01*
X11109286Y-13716714D01*
X11152143Y-13716714D01*
X11180714Y-13731000D01*
X11195000Y-13759571D01*
X11195000Y-13916714D01*
X11195000Y-13759571D02*
X11209286Y-13731000D01*
X11237857Y-13716714D01*
X11280714Y-13716714D01*
X11309286Y-13731000D01*
X11323571Y-13759571D01*
X11323571Y-13916714D01*
X11909286Y-13602429D02*
X11652143Y-13988143D01*
X12295000Y-13616714D02*
X12323571Y-13616714D01*
X12352143Y-13631000D01*
X12366428Y-13645286D01*
X12380714Y-13673857D01*
X12395000Y-13731000D01*
X12395000Y-13802429D01*
X12380714Y-13859571D01*
X12366428Y-13888143D01*
X12352143Y-13902429D01*
X12323571Y-13916714D01*
X12295000Y-13916714D01*
X12266428Y-13902429D01*
X12252143Y-13888143D01*
X12237857Y-13859571D01*
X12223571Y-13802429D01*
X12223571Y-13731000D01*
X12237857Y-13673857D01*
X12252143Y-13645286D01*
X12266428Y-13631000D01*
X12295000Y-13616714D01*
X12523571Y-13888143D02*
X12537857Y-13902429D01*
X12523571Y-13916714D01*
X12509286Y-13902429D01*
X12523571Y-13888143D01*
X12523571Y-13916714D01*
X12723571Y-13616714D02*
X12752143Y-13616714D01*
X12780714Y-13631000D01*
X12795000Y-13645286D01*
X12809285Y-13673857D01*
X12823571Y-13731000D01*
X12823571Y-13802429D01*
X12809285Y-13859571D01*
X12795000Y-13888143D01*
X12780714Y-13902429D01*
X12752143Y-13916714D01*
X12723571Y-13916714D01*
X12695000Y-13902429D01*
X12680714Y-13888143D01*
X12666428Y-13859571D01*
X12652143Y-13802429D01*
X12652143Y-13731000D01*
X12666428Y-13673857D01*
X12680714Y-13645286D01*
X12695000Y-13631000D01*
X12723571Y-13616714D01*
X12923571Y-13616714D02*
X13109285Y-13616714D01*
X13009285Y-13731000D01*
X13052143Y-13731000D01*
X13080714Y-13745286D01*
X13095000Y-13759571D01*
X13109285Y-13788143D01*
X13109285Y-13859571D01*
X13095000Y-13888143D01*
X13080714Y-13902429D01*
X13052143Y-13916714D01*
X12966428Y-13916714D01*
X12937857Y-13902429D01*
X12923571Y-13888143D01*
X13395000Y-13916714D02*
X13223571Y-13916714D01*
X13309285Y-13916714D02*
X13309285Y-13616714D01*
X13280714Y-13659571D01*
X13252143Y-13688143D01*
X13223571Y-13702429D01*
X13509286Y-13616714D02*
X13509286Y-13673857D01*
X13623571Y-13616714D02*
X13623571Y-13673857D01*
X14066428Y-14031000D02*
X14052143Y-14016714D01*
X14023571Y-13973857D01*
X14009285Y-13945286D01*
X13995000Y-13902429D01*
X13980714Y-13831000D01*
X13980714Y-13773857D01*
X13995000Y-13702429D01*
X14009285Y-13659571D01*
X14023571Y-13631000D01*
X14052143Y-13588143D01*
X14066428Y-13573857D01*
X14237857Y-13616714D02*
X14266428Y-13616714D01*
X14295000Y-13631000D01*
X14309285Y-13645286D01*
X14323571Y-13673857D01*
X14337857Y-13731000D01*
X14337857Y-13802429D01*
X14323571Y-13859571D01*
X14309285Y-13888143D01*
X14295000Y-13902429D01*
X14266428Y-13916714D01*
X14237857Y-13916714D01*
X14209285Y-13902429D01*
X14195000Y-13888143D01*
X14180714Y-13859571D01*
X14166428Y-13802429D01*
X14166428Y-13731000D01*
X14180714Y-13673857D01*
X14195000Y-13645286D01*
X14209285Y-13631000D01*
X14237857Y-13616714D01*
X14695000Y-13916714D02*
X14695000Y-13616714D01*
X14823571Y-13916714D02*
X14823571Y-13759571D01*
X14809285Y-13731000D01*
X14780714Y-13716714D01*
X14737857Y-13716714D01*
X14709285Y-13731000D01*
X14695000Y-13745286D01*
X15009285Y-13916714D02*
X14980714Y-13902429D01*
X14966428Y-13888143D01*
X14952143Y-13859571D01*
X14952143Y-13773857D01*
X14966428Y-13745286D01*
X14980714Y-13731000D01*
X15009285Y-13716714D01*
X15052143Y-13716714D01*
X15080714Y-13731000D01*
X15095000Y-13745286D01*
X15109285Y-13773857D01*
X15109285Y-13859571D01*
X15095000Y-13888143D01*
X15080714Y-13902429D01*
X15052143Y-13916714D01*
X15009285Y-13916714D01*
X15280714Y-13916714D02*
X15252143Y-13902429D01*
X15237857Y-13873857D01*
X15237857Y-13616714D01*
X15509286Y-13902429D02*
X15480714Y-13916714D01*
X15423571Y-13916714D01*
X15395000Y-13902429D01*
X15380714Y-13873857D01*
X15380714Y-13759571D01*
X15395000Y-13731000D01*
X15423571Y-13716714D01*
X15480714Y-13716714D01*
X15509286Y-13731000D01*
X15523571Y-13759571D01*
X15523571Y-13788143D01*
X15380714Y-13816714D01*
X15637857Y-13902429D02*
X15666428Y-13916714D01*
X15723571Y-13916714D01*
X15752143Y-13902429D01*
X15766428Y-13873857D01*
X15766428Y-13859571D01*
X15752143Y-13831000D01*
X15723571Y-13816714D01*
X15680714Y-13816714D01*
X15652143Y-13802429D01*
X15637857Y-13773857D01*
X15637857Y-13759571D01*
X15652143Y-13731000D01*
X15680714Y-13716714D01*
X15723571Y-13716714D01*
X15752143Y-13731000D01*
X16123571Y-13802429D02*
X16352143Y-13802429D01*
X16237857Y-13916714D02*
X16237857Y-13688143D01*
X16852143Y-13716714D02*
X16852143Y-13916714D01*
X16780714Y-13602429D02*
X16709286Y-13816714D01*
X16895000Y-13816714D01*
X17223571Y-13902429D02*
X17252143Y-13916714D01*
X17309286Y-13916714D01*
X17337857Y-13902429D01*
X17352143Y-13873857D01*
X17352143Y-13859571D01*
X17337857Y-13831000D01*
X17309286Y-13816714D01*
X17266428Y-13816714D01*
X17237857Y-13802429D01*
X17223571Y-13773857D01*
X17223571Y-13759571D01*
X17237857Y-13731000D01*
X17266428Y-13716714D01*
X17309286Y-13716714D01*
X17337857Y-13731000D01*
X17523571Y-13916714D02*
X17495000Y-13902429D01*
X17480714Y-13873857D01*
X17480714Y-13616714D01*
X17680714Y-13916714D02*
X17652143Y-13902429D01*
X17637857Y-13888143D01*
X17623571Y-13859571D01*
X17623571Y-13773857D01*
X17637857Y-13745286D01*
X17652143Y-13731000D01*
X17680714Y-13716714D01*
X17723571Y-13716714D01*
X17752143Y-13731000D01*
X17766428Y-13745286D01*
X17780714Y-13773857D01*
X17780714Y-13859571D01*
X17766428Y-13888143D01*
X17752143Y-13902429D01*
X17723571Y-13916714D01*
X17680714Y-13916714D01*
X17866428Y-13716714D02*
X17980714Y-13716714D01*
X17909286Y-13616714D02*
X17909286Y-13873857D01*
X17923571Y-13902429D01*
X17952143Y-13916714D01*
X17980714Y-13916714D01*
X18066429Y-13902429D02*
X18095000Y-13916714D01*
X18152143Y-13916714D01*
X18180714Y-13902429D01*
X18195000Y-13873857D01*
X18195000Y-13859571D01*
X18180714Y-13831000D01*
X18152143Y-13816714D01*
X18109286Y-13816714D01*
X18080714Y-13802429D01*
X18066429Y-13773857D01*
X18066429Y-13759571D01*
X18080714Y-13731000D01*
X18109286Y-13716714D01*
X18152143Y-13716714D01*
X18180714Y-13731000D01*
X18295000Y-14031000D02*
X18309286Y-14016714D01*
X18337857Y-13973857D01*
X18352143Y-13945286D01*
X18366428Y-13902429D01*
X18380714Y-13831000D01*
X18380714Y-13773857D01*
X18366428Y-13702429D01*
X18352143Y-13659571D01*
X18337857Y-13631000D01*
X18309286Y-13588143D01*
X18295000Y-13573857D01*
X9293400Y-14126200D02*
X9395000Y-14227800D01*
X9395000Y-14126200D02*
X9293400Y-14227800D01*
X9395000Y-14177000D02*
G75*
G03X9395000Y-14177000I-50800J0D01*
G01*
X9823571Y-14312714D02*
X9652143Y-14312714D01*
X9737857Y-14312714D02*
X9737857Y-14012714D01*
X9709286Y-14055571D01*
X9680714Y-14084143D01*
X9652143Y-14098429D01*
X9952143Y-14284143D02*
X9966429Y-14298429D01*
X9952143Y-14312714D01*
X9937857Y-14298429D01*
X9952143Y-14284143D01*
X9952143Y-14312714D01*
X10152143Y-14012714D02*
X10180714Y-14012714D01*
X10209286Y-14027000D01*
X10223571Y-14041286D01*
X10237857Y-14069857D01*
X10252143Y-14127000D01*
X10252143Y-14198429D01*
X10237857Y-14255571D01*
X10223571Y-14284143D01*
X10209286Y-14298429D01*
X10180714Y-14312714D01*
X10152143Y-14312714D01*
X10123571Y-14298429D01*
X10109286Y-14284143D01*
X10095000Y-14255571D01*
X10080714Y-14198429D01*
X10080714Y-14127000D01*
X10095000Y-14069857D01*
X10109286Y-14041286D01*
X10123571Y-14027000D01*
X10152143Y-14012714D01*
X10366429Y-14041286D02*
X10380714Y-14027000D01*
X10409286Y-14012714D01*
X10480714Y-14012714D01*
X10509286Y-14027000D01*
X10523571Y-14041286D01*
X10537857Y-14069857D01*
X10537857Y-14098429D01*
X10523571Y-14141286D01*
X10352143Y-14312714D01*
X10537857Y-14312714D01*
X10666429Y-14312714D02*
X10666429Y-14112714D01*
X10666429Y-14141286D02*
X10680714Y-14127000D01*
X10709286Y-14112714D01*
X10752143Y-14112714D01*
X10780714Y-14127000D01*
X10795000Y-14155571D01*
X10795000Y-14312714D01*
X10795000Y-14155571D02*
X10809286Y-14127000D01*
X10837857Y-14112714D01*
X10880714Y-14112714D01*
X10909286Y-14127000D01*
X10923571Y-14155571D01*
X10923571Y-14312714D01*
X11066429Y-14312714D02*
X11066429Y-14112714D01*
X11066429Y-14141286D02*
X11080714Y-14127000D01*
X11109286Y-14112714D01*
X11152143Y-14112714D01*
X11180714Y-14127000D01*
X11195000Y-14155571D01*
X11195000Y-14312714D01*
X11195000Y-14155571D02*
X11209286Y-14127000D01*
X11237857Y-14112714D01*
X11280714Y-14112714D01*
X11309286Y-14127000D01*
X11323571Y-14155571D01*
X11323571Y-14312714D01*
X11909286Y-13998429D02*
X11652143Y-14384143D01*
X12295000Y-14012714D02*
X12323571Y-14012714D01*
X12352143Y-14027000D01*
X12366428Y-14041286D01*
X12380714Y-14069857D01*
X12395000Y-14127000D01*
X12395000Y-14198429D01*
X12380714Y-14255571D01*
X12366428Y-14284143D01*
X12352143Y-14298429D01*
X12323571Y-14312714D01*
X12295000Y-14312714D01*
X12266428Y-14298429D01*
X12252143Y-14284143D01*
X12237857Y-14255571D01*
X12223571Y-14198429D01*
X12223571Y-14127000D01*
X12237857Y-14069857D01*
X12252143Y-14041286D01*
X12266428Y-14027000D01*
X12295000Y-14012714D01*
X12523571Y-14284143D02*
X12537857Y-14298429D01*
X12523571Y-14312714D01*
X12509286Y-14298429D01*
X12523571Y-14284143D01*
X12523571Y-14312714D01*
X12723571Y-14012714D02*
X12752143Y-14012714D01*
X12780714Y-14027000D01*
X12795000Y-14041286D01*
X12809285Y-14069857D01*
X12823571Y-14127000D01*
X12823571Y-14198429D01*
X12809285Y-14255571D01*
X12795000Y-14284143D01*
X12780714Y-14298429D01*
X12752143Y-14312714D01*
X12723571Y-14312714D01*
X12695000Y-14298429D01*
X12680714Y-14284143D01*
X12666428Y-14255571D01*
X12652143Y-14198429D01*
X12652143Y-14127000D01*
X12666428Y-14069857D01*
X12680714Y-14041286D01*
X12695000Y-14027000D01*
X12723571Y-14012714D01*
X13080714Y-14112714D02*
X13080714Y-14312714D01*
X13009285Y-13998429D02*
X12937857Y-14212714D01*
X13123571Y-14212714D01*
X13295000Y-14012714D02*
X13323571Y-14012714D01*
X13352143Y-14027000D01*
X13366428Y-14041286D01*
X13380714Y-14069857D01*
X13395000Y-14127000D01*
X13395000Y-14198429D01*
X13380714Y-14255571D01*
X13366428Y-14284143D01*
X13352143Y-14298429D01*
X13323571Y-14312714D01*
X13295000Y-14312714D01*
X13266428Y-14298429D01*
X13252143Y-14284143D01*
X13237857Y-14255571D01*
X13223571Y-14198429D01*
X13223571Y-14127000D01*
X13237857Y-14069857D01*
X13252143Y-14041286D01*
X13266428Y-14027000D01*
X13295000Y-14012714D01*
X13509286Y-14012714D02*
X13509286Y-14069857D01*
X13623571Y-14012714D02*
X13623571Y-14069857D01*
X14066428Y-14427000D02*
X14052143Y-14412714D01*
X14023571Y-14369857D01*
X14009285Y-14341286D01*
X13995000Y-14298429D01*
X13980714Y-14227000D01*
X13980714Y-14169857D01*
X13995000Y-14098429D01*
X14009285Y-14055571D01*
X14023571Y-14027000D01*
X14052143Y-13984143D01*
X14066428Y-13969857D01*
X14195000Y-14312714D02*
X14252143Y-14312714D01*
X14280714Y-14298429D01*
X14295000Y-14284143D01*
X14323571Y-14241286D01*
X14337857Y-14184143D01*
X14337857Y-14069857D01*
X14323571Y-14041286D01*
X14309285Y-14027000D01*
X14280714Y-14012714D01*
X14223571Y-14012714D01*
X14195000Y-14027000D01*
X14180714Y-14041286D01*
X14166428Y-14069857D01*
X14166428Y-14141286D01*
X14180714Y-14169857D01*
X14195000Y-14184143D01*
X14223571Y-14198429D01*
X14280714Y-14198429D01*
X14309285Y-14184143D01*
X14323571Y-14169857D01*
X14337857Y-14141286D01*
X14609285Y-14012714D02*
X14466428Y-14012714D01*
X14452143Y-14155571D01*
X14466428Y-14141286D01*
X14495000Y-14127000D01*
X14566428Y-14127000D01*
X14595000Y-14141286D01*
X14609285Y-14155571D01*
X14623571Y-14184143D01*
X14623571Y-14255571D01*
X14609285Y-14284143D01*
X14595000Y-14298429D01*
X14566428Y-14312714D01*
X14495000Y-14312714D01*
X14466428Y-14298429D01*
X14452143Y-14284143D01*
X14980714Y-14312714D02*
X14980714Y-14012714D01*
X15109285Y-14312714D02*
X15109285Y-14155571D01*
X15095000Y-14127000D01*
X15066428Y-14112714D01*
X15023571Y-14112714D01*
X14995000Y-14127000D01*
X14980714Y-14141286D01*
X15295000Y-14312714D02*
X15266428Y-14298429D01*
X15252143Y-14284143D01*
X15237857Y-14255571D01*
X15237857Y-14169857D01*
X15252143Y-14141286D01*
X15266428Y-14127000D01*
X15295000Y-14112714D01*
X15337857Y-14112714D01*
X15366428Y-14127000D01*
X15380714Y-14141286D01*
X15395000Y-14169857D01*
X15395000Y-14255571D01*
X15380714Y-14284143D01*
X15366428Y-14298429D01*
X15337857Y-14312714D01*
X15295000Y-14312714D01*
X15566428Y-14312714D02*
X15537857Y-14298429D01*
X15523571Y-14269857D01*
X15523571Y-14012714D01*
X15795000Y-14298429D02*
X15766428Y-14312714D01*
X15709286Y-14312714D01*
X15680714Y-14298429D01*
X15666428Y-14269857D01*
X15666428Y-14155571D01*
X15680714Y-14127000D01*
X15709286Y-14112714D01*
X15766428Y-14112714D01*
X15795000Y-14127000D01*
X15809286Y-14155571D01*
X15809286Y-14184143D01*
X15666428Y-14212714D01*
X15923571Y-14298429D02*
X15952143Y-14312714D01*
X16009286Y-14312714D01*
X16037857Y-14298429D01*
X16052143Y-14269857D01*
X16052143Y-14255571D01*
X16037857Y-14227000D01*
X16009286Y-14212714D01*
X15966428Y-14212714D01*
X15937857Y-14198429D01*
X15923571Y-14169857D01*
X15923571Y-14155571D01*
X15937857Y-14127000D01*
X15966428Y-14112714D01*
X16009286Y-14112714D01*
X16037857Y-14127000D01*
X16152143Y-14427000D02*
X16166428Y-14412714D01*
X16195000Y-14369857D01*
X16209286Y-14341286D01*
X16223571Y-14298429D01*
X16237857Y-14227000D01*
X16237857Y-14169857D01*
X16223571Y-14098429D01*
X16209286Y-14055571D01*
X16195000Y-14027000D01*
X16166428Y-13984143D01*
X16152143Y-13969857D01*
X9075000Y-14413000D02*
X9395000Y-14733000D01*
X9395000Y-14413000D02*
X9075000Y-14733000D01*
X9235000Y-14413000D02*
X9235000Y-14733000D01*
X9075000Y-14573000D02*
X9395000Y-14573000D01*
X9637857Y-14408714D02*
X9823571Y-14408714D01*
X9723571Y-14523000D01*
X9766429Y-14523000D01*
X9795000Y-14537286D01*
X9809286Y-14551571D01*
X9823571Y-14580143D01*
X9823571Y-14651571D01*
X9809286Y-14680143D01*
X9795000Y-14694429D01*
X9766429Y-14708714D01*
X9680714Y-14708714D01*
X9652143Y-14694429D01*
X9637857Y-14680143D01*
X9952143Y-14680143D02*
X9966429Y-14694429D01*
X9952143Y-14708714D01*
X9937857Y-14694429D01*
X9952143Y-14680143D01*
X9952143Y-14708714D01*
X10080714Y-14437286D02*
X10095000Y-14423000D01*
X10123571Y-14408714D01*
X10195000Y-14408714D01*
X10223571Y-14423000D01*
X10237857Y-14437286D01*
X10252143Y-14465857D01*
X10252143Y-14494429D01*
X10237857Y-14537286D01*
X10066428Y-14708714D01*
X10252143Y-14708714D01*
X10437857Y-14408714D02*
X10466429Y-14408714D01*
X10495000Y-14423000D01*
X10509286Y-14437286D01*
X10523571Y-14465857D01*
X10537857Y-14523000D01*
X10537857Y-14594429D01*
X10523571Y-14651571D01*
X10509286Y-14680143D01*
X10495000Y-14694429D01*
X10466429Y-14708714D01*
X10437857Y-14708714D01*
X10409286Y-14694429D01*
X10395000Y-14680143D01*
X10380714Y-14651571D01*
X10366429Y-14594429D01*
X10366429Y-14523000D01*
X10380714Y-14465857D01*
X10395000Y-14437286D01*
X10409286Y-14423000D01*
X10437857Y-14408714D01*
X10666429Y-14708714D02*
X10666429Y-14508714D01*
X10666429Y-14537286D02*
X10680714Y-14523000D01*
X10709286Y-14508714D01*
X10752143Y-14508714D01*
X10780714Y-14523000D01*
X10795000Y-14551571D01*
X10795000Y-14708714D01*
X10795000Y-14551571D02*
X10809286Y-14523000D01*
X10837857Y-14508714D01*
X10880714Y-14508714D01*
X10909286Y-14523000D01*
X10923571Y-14551571D01*
X10923571Y-14708714D01*
X11066429Y-14708714D02*
X11066429Y-14508714D01*
X11066429Y-14537286D02*
X11080714Y-14523000D01*
X11109286Y-14508714D01*
X11152143Y-14508714D01*
X11180714Y-14523000D01*
X11195000Y-14551571D01*
X11195000Y-14708714D01*
X11195000Y-14551571D02*
X11209286Y-14523000D01*
X11237857Y-14508714D01*
X11280714Y-14508714D01*
X11309286Y-14523000D01*
X11323571Y-14551571D01*
X11323571Y-14708714D01*
X11909286Y-14394429D02*
X11652143Y-14780143D01*
X12295000Y-14408714D02*
X12323571Y-14408714D01*
X12352143Y-14423000D01*
X12366428Y-14437286D01*
X12380714Y-14465857D01*
X12395000Y-14523000D01*
X12395000Y-14594429D01*
X12380714Y-14651571D01*
X12366428Y-14680143D01*
X12352143Y-14694429D01*
X12323571Y-14708714D01*
X12295000Y-14708714D01*
X12266428Y-14694429D01*
X12252143Y-14680143D01*
X12237857Y-14651571D01*
X12223571Y-14594429D01*
X12223571Y-14523000D01*
X12237857Y-14465857D01*
X12252143Y-14437286D01*
X12266428Y-14423000D01*
X12295000Y-14408714D01*
X12523571Y-14680143D02*
X12537857Y-14694429D01*
X12523571Y-14708714D01*
X12509286Y-14694429D01*
X12523571Y-14680143D01*
X12523571Y-14708714D01*
X12823571Y-14708714D02*
X12652143Y-14708714D01*
X12737857Y-14708714D02*
X12737857Y-14408714D01*
X12709285Y-14451571D01*
X12680714Y-14480143D01*
X12652143Y-14494429D01*
X12937857Y-14437286D02*
X12952143Y-14423000D01*
X12980714Y-14408714D01*
X13052143Y-14408714D01*
X13080714Y-14423000D01*
X13095000Y-14437286D01*
X13109285Y-14465857D01*
X13109285Y-14494429D01*
X13095000Y-14537286D01*
X12923571Y-14708714D01*
X13109285Y-14708714D01*
X13366428Y-14408714D02*
X13309285Y-14408714D01*
X13280714Y-14423000D01*
X13266428Y-14437286D01*
X13237857Y-14480143D01*
X13223571Y-14537286D01*
X13223571Y-14651571D01*
X13237857Y-14680143D01*
X13252143Y-14694429D01*
X13280714Y-14708714D01*
X13337857Y-14708714D01*
X13366428Y-14694429D01*
X13380714Y-14680143D01*
X13395000Y-14651571D01*
X13395000Y-14580143D01*
X13380714Y-14551571D01*
X13366428Y-14537286D01*
X13337857Y-14523000D01*
X13280714Y-14523000D01*
X13252143Y-14537286D01*
X13237857Y-14551571D01*
X13223571Y-14580143D01*
X13509286Y-14408714D02*
X13509286Y-14465857D01*
X13623571Y-14408714D02*
X13623571Y-14465857D01*
X14066428Y-14823000D02*
X14052143Y-14808714D01*
X14023571Y-14765857D01*
X14009285Y-14737286D01*
X13995000Y-14694429D01*
X13980714Y-14623000D01*
X13980714Y-14565857D01*
X13995000Y-14494429D01*
X14009285Y-14451571D01*
X14023571Y-14423000D01*
X14052143Y-14380143D01*
X14066428Y-14365857D01*
X14309285Y-14508714D02*
X14309285Y-14708714D01*
X14237857Y-14394429D02*
X14166428Y-14608714D01*
X14352143Y-14608714D01*
X14695000Y-14708714D02*
X14695000Y-14408714D01*
X14823571Y-14708714D02*
X14823571Y-14551571D01*
X14809285Y-14523000D01*
X14780714Y-14508714D01*
X14737857Y-14508714D01*
X14709285Y-14523000D01*
X14695000Y-14537286D01*
X15009285Y-14708714D02*
X14980714Y-14694429D01*
X14966428Y-14680143D01*
X14952143Y-14651571D01*
X14952143Y-14565857D01*
X14966428Y-14537286D01*
X14980714Y-14523000D01*
X15009285Y-14508714D01*
X15052143Y-14508714D01*
X15080714Y-14523000D01*
X15095000Y-14537286D01*
X15109285Y-14565857D01*
X15109285Y-14651571D01*
X15095000Y-14680143D01*
X15080714Y-14694429D01*
X15052143Y-14708714D01*
X15009285Y-14708714D01*
X15280714Y-14708714D02*
X15252143Y-14694429D01*
X15237857Y-14665857D01*
X15237857Y-14408714D01*
X15509286Y-14694429D02*
X15480714Y-14708714D01*
X15423571Y-14708714D01*
X15395000Y-14694429D01*
X15380714Y-14665857D01*
X15380714Y-14551571D01*
X15395000Y-14523000D01*
X15423571Y-14508714D01*
X15480714Y-14508714D01*
X15509286Y-14523000D01*
X15523571Y-14551571D01*
X15523571Y-14580143D01*
X15380714Y-14608714D01*
X15637857Y-14694429D02*
X15666428Y-14708714D01*
X15723571Y-14708714D01*
X15752143Y-14694429D01*
X15766428Y-14665857D01*
X15766428Y-14651571D01*
X15752143Y-14623000D01*
X15723571Y-14608714D01*
X15680714Y-14608714D01*
X15652143Y-14594429D01*
X15637857Y-14565857D01*
X15637857Y-14551571D01*
X15652143Y-14523000D01*
X15680714Y-14508714D01*
X15723571Y-14508714D01*
X15752143Y-14523000D01*
X15866428Y-14823000D02*
X15880714Y-14808714D01*
X15909286Y-14765857D01*
X15923571Y-14737286D01*
X15937857Y-14694429D01*
X15952143Y-14623000D01*
X15952143Y-14565857D01*
X15937857Y-14494429D01*
X15923571Y-14451571D01*
X15909286Y-14423000D01*
X15880714Y-14380143D01*
X15866428Y-14365857D01*
X9225000Y-14938000D02*
X9395000Y-15108000D01*
X9395000Y-14938000D02*
X9225000Y-15108000D01*
X9370105Y-15083105D02*
X9370105Y-14962895D01*
X9249895Y-14962895D01*
X9249895Y-15083105D01*
X9370105Y-15083105D01*
X9823571Y-15158714D02*
X9652143Y-15158714D01*
X9737857Y-15158714D02*
X9737857Y-14858714D01*
X9709286Y-14901571D01*
X9680714Y-14930143D01*
X9652143Y-14944429D01*
X9952143Y-15130143D02*
X9966429Y-15144429D01*
X9952143Y-15158714D01*
X9937857Y-15144429D01*
X9952143Y-15130143D01*
X9952143Y-15158714D01*
X10066428Y-14858714D02*
X10266428Y-14858714D01*
X10137857Y-15158714D01*
X10437857Y-14858714D02*
X10466429Y-14858714D01*
X10495000Y-14873000D01*
X10509286Y-14887286D01*
X10523571Y-14915857D01*
X10537857Y-14973000D01*
X10537857Y-15044429D01*
X10523571Y-15101571D01*
X10509286Y-15130143D01*
X10495000Y-15144429D01*
X10466429Y-15158714D01*
X10437857Y-15158714D01*
X10409286Y-15144429D01*
X10395000Y-15130143D01*
X10380714Y-15101571D01*
X10366429Y-15044429D01*
X10366429Y-14973000D01*
X10380714Y-14915857D01*
X10395000Y-14887286D01*
X10409286Y-14873000D01*
X10437857Y-14858714D01*
X10666429Y-15158714D02*
X10666429Y-14958714D01*
X10666429Y-14987286D02*
X10680714Y-14973000D01*
X10709286Y-14958714D01*
X10752143Y-14958714D01*
X10780714Y-14973000D01*
X10795000Y-15001571D01*
X10795000Y-15158714D01*
X10795000Y-15001571D02*
X10809286Y-14973000D01*
X10837857Y-14958714D01*
X10880714Y-14958714D01*
X10909286Y-14973000D01*
X10923571Y-15001571D01*
X10923571Y-15158714D01*
X11066429Y-15158714D02*
X11066429Y-14958714D01*
X11066429Y-14987286D02*
X11080714Y-14973000D01*
X11109286Y-14958714D01*
X11152143Y-14958714D01*
X11180714Y-14973000D01*
X11195000Y-15001571D01*
X11195000Y-15158714D01*
X11195000Y-15001571D02*
X11209286Y-14973000D01*
X11237857Y-14958714D01*
X11280714Y-14958714D01*
X11309286Y-14973000D01*
X11323571Y-15001571D01*
X11323571Y-15158714D01*
X11909286Y-14844429D02*
X11652143Y-15230143D01*
X12295000Y-14858714D02*
X12323571Y-14858714D01*
X12352143Y-14873000D01*
X12366428Y-14887286D01*
X12380714Y-14915857D01*
X12395000Y-14973000D01*
X12395000Y-15044429D01*
X12380714Y-15101571D01*
X12366428Y-15130143D01*
X12352143Y-15144429D01*
X12323571Y-15158714D01*
X12295000Y-15158714D01*
X12266428Y-15144429D01*
X12252143Y-15130143D01*
X12237857Y-15101571D01*
X12223571Y-15044429D01*
X12223571Y-14973000D01*
X12237857Y-14915857D01*
X12252143Y-14887286D01*
X12266428Y-14873000D01*
X12295000Y-14858714D01*
X12523571Y-15130143D02*
X12537857Y-15144429D01*
X12523571Y-15158714D01*
X12509286Y-15144429D01*
X12523571Y-15130143D01*
X12523571Y-15158714D01*
X12723571Y-14858714D02*
X12752143Y-14858714D01*
X12780714Y-14873000D01*
X12795000Y-14887286D01*
X12809285Y-14915857D01*
X12823571Y-14973000D01*
X12823571Y-15044429D01*
X12809285Y-15101571D01*
X12795000Y-15130143D01*
X12780714Y-15144429D01*
X12752143Y-15158714D01*
X12723571Y-15158714D01*
X12695000Y-15144429D01*
X12680714Y-15130143D01*
X12666428Y-15101571D01*
X12652143Y-15044429D01*
X12652143Y-14973000D01*
X12666428Y-14915857D01*
X12680714Y-14887286D01*
X12695000Y-14873000D01*
X12723571Y-14858714D01*
X13080714Y-14858714D02*
X13023571Y-14858714D01*
X12995000Y-14873000D01*
X12980714Y-14887286D01*
X12952143Y-14930143D01*
X12937857Y-14987286D01*
X12937857Y-15101571D01*
X12952143Y-15130143D01*
X12966428Y-15144429D01*
X12995000Y-15158714D01*
X13052143Y-15158714D01*
X13080714Y-15144429D01*
X13095000Y-15130143D01*
X13109285Y-15101571D01*
X13109285Y-15030143D01*
X13095000Y-15001571D01*
X13080714Y-14987286D01*
X13052143Y-14973000D01*
X12995000Y-14973000D01*
X12966428Y-14987286D01*
X12952143Y-15001571D01*
X12937857Y-15030143D01*
X13209285Y-14858714D02*
X13409285Y-14858714D01*
X13280714Y-15158714D01*
X13509286Y-14858714D02*
X13509286Y-14915857D01*
X13623571Y-14858714D02*
X13623571Y-14915857D01*
X14066428Y-15273000D02*
X14052143Y-15258714D01*
X14023571Y-15215857D01*
X14009285Y-15187286D01*
X13995000Y-15144429D01*
X13980714Y-15073000D01*
X13980714Y-15015857D01*
X13995000Y-14944429D01*
X14009285Y-14901571D01*
X14023571Y-14873000D01*
X14052143Y-14830143D01*
X14066428Y-14815857D01*
X14166428Y-14887286D02*
X14180714Y-14873000D01*
X14209285Y-14858714D01*
X14280714Y-14858714D01*
X14309285Y-14873000D01*
X14323571Y-14887286D01*
X14337857Y-14915857D01*
X14337857Y-14944429D01*
X14323571Y-14987286D01*
X14152143Y-15158714D01*
X14337857Y-15158714D01*
X14695000Y-15158714D02*
X14695000Y-14858714D01*
X14823571Y-15158714D02*
X14823571Y-15001571D01*
X14809285Y-14973000D01*
X14780714Y-14958714D01*
X14737857Y-14958714D01*
X14709285Y-14973000D01*
X14695000Y-14987286D01*
X15009285Y-15158714D02*
X14980714Y-15144429D01*
X14966428Y-15130143D01*
X14952143Y-15101571D01*
X14952143Y-15015857D01*
X14966428Y-14987286D01*
X14980714Y-14973000D01*
X15009285Y-14958714D01*
X15052143Y-14958714D01*
X15080714Y-14973000D01*
X15095000Y-14987286D01*
X15109285Y-15015857D01*
X15109285Y-15101571D01*
X15095000Y-15130143D01*
X15080714Y-15144429D01*
X15052143Y-15158714D01*
X15009285Y-15158714D01*
X15280714Y-15158714D02*
X15252143Y-15144429D01*
X15237857Y-15115857D01*
X15237857Y-14858714D01*
X15509286Y-15144429D02*
X15480714Y-15158714D01*
X15423571Y-15158714D01*
X15395000Y-15144429D01*
X15380714Y-15115857D01*
X15380714Y-15001571D01*
X15395000Y-14973000D01*
X15423571Y-14958714D01*
X15480714Y-14958714D01*
X15509286Y-14973000D01*
X15523571Y-15001571D01*
X15523571Y-15030143D01*
X15380714Y-15058714D01*
X15637857Y-15144429D02*
X15666428Y-15158714D01*
X15723571Y-15158714D01*
X15752143Y-15144429D01*
X15766428Y-15115857D01*
X15766428Y-15101571D01*
X15752143Y-15073000D01*
X15723571Y-15058714D01*
X15680714Y-15058714D01*
X15652143Y-15044429D01*
X15637857Y-15015857D01*
X15637857Y-15001571D01*
X15652143Y-14973000D01*
X15680714Y-14958714D01*
X15723571Y-14958714D01*
X15752143Y-14973000D01*
X15866428Y-15273000D02*
X15880714Y-15258714D01*
X15909286Y-15215857D01*
X15923571Y-15187286D01*
X15937857Y-15144429D01*
X15952143Y-15073000D01*
X15952143Y-15015857D01*
X15937857Y-14944429D01*
X15923571Y-14901571D01*
X15909286Y-14873000D01*
X15880714Y-14830143D01*
X15866428Y-14815857D01*
X16409286Y-15273000D02*
X16395000Y-15258714D01*
X16366428Y-15215857D01*
X16352143Y-15187286D01*
X16337857Y-15144429D01*
X16323571Y-15073000D01*
X16323571Y-15015857D01*
X16337857Y-14944429D01*
X16352143Y-14901571D01*
X16366428Y-14873000D01*
X16395000Y-14830143D01*
X16409286Y-14815857D01*
X16523571Y-14958714D02*
X16523571Y-15158714D01*
X16523571Y-14987286D02*
X16537857Y-14973000D01*
X16566428Y-14958714D01*
X16609286Y-14958714D01*
X16637857Y-14973000D01*
X16652143Y-15001571D01*
X16652143Y-15158714D01*
X16837857Y-15158714D02*
X16809286Y-15144429D01*
X16795000Y-15130143D01*
X16780714Y-15101571D01*
X16780714Y-15015857D01*
X16795000Y-14987286D01*
X16809286Y-14973000D01*
X16837857Y-14958714D01*
X16880714Y-14958714D01*
X16909286Y-14973000D01*
X16923571Y-14987286D01*
X16937857Y-15015857D01*
X16937857Y-15101571D01*
X16923571Y-15130143D01*
X16909286Y-15144429D01*
X16880714Y-15158714D01*
X16837857Y-15158714D01*
X17023571Y-14958714D02*
X17137857Y-14958714D01*
X17066429Y-14858714D02*
X17066429Y-15115857D01*
X17080714Y-15144429D01*
X17109286Y-15158714D01*
X17137857Y-15158714D01*
X17466429Y-14958714D02*
X17466429Y-15258714D01*
X17466429Y-14973000D02*
X17495000Y-14958714D01*
X17552143Y-14958714D01*
X17580714Y-14973000D01*
X17595000Y-14987286D01*
X17609286Y-15015857D01*
X17609286Y-15101571D01*
X17595000Y-15130143D01*
X17580714Y-15144429D01*
X17552143Y-15158714D01*
X17495000Y-15158714D01*
X17466429Y-15144429D01*
X17780714Y-15158714D02*
X17752143Y-15144429D01*
X17737857Y-15115857D01*
X17737857Y-14858714D01*
X18023571Y-15158714D02*
X18023571Y-15001571D01*
X18009286Y-14973000D01*
X17980714Y-14958714D01*
X17923571Y-14958714D01*
X17895000Y-14973000D01*
X18023571Y-15144429D02*
X17995000Y-15158714D01*
X17923571Y-15158714D01*
X17895000Y-15144429D01*
X17880714Y-15115857D01*
X17880714Y-15087286D01*
X17895000Y-15058714D01*
X17923571Y-15044429D01*
X17995000Y-15044429D01*
X18023571Y-15030143D01*
X18123571Y-14958714D02*
X18237857Y-14958714D01*
X18166429Y-14858714D02*
X18166429Y-15115857D01*
X18180714Y-15144429D01*
X18209286Y-15158714D01*
X18237857Y-15158714D01*
X18452143Y-15144429D02*
X18423572Y-15158714D01*
X18366429Y-15158714D01*
X18337857Y-15144429D01*
X18323572Y-15115857D01*
X18323572Y-15001571D01*
X18337857Y-14973000D01*
X18366429Y-14958714D01*
X18423572Y-14958714D01*
X18452143Y-14973000D01*
X18466429Y-15001571D01*
X18466429Y-15030143D01*
X18323572Y-15058714D01*
X18723572Y-15158714D02*
X18723572Y-14858714D01*
X18723572Y-15144429D02*
X18695000Y-15158714D01*
X18637857Y-15158714D01*
X18609286Y-15144429D01*
X18595000Y-15130143D01*
X18580714Y-15101571D01*
X18580714Y-15015857D01*
X18595000Y-14987286D01*
X18609286Y-14973000D01*
X18637857Y-14958714D01*
X18695000Y-14958714D01*
X18723572Y-14973000D01*
X18837857Y-15273000D02*
X18852143Y-15258714D01*
X18880714Y-15215857D01*
X18895000Y-15187286D01*
X18909286Y-15144429D01*
X18923572Y-15073000D01*
X18923572Y-15015857D01*
X18909286Y-14944429D01*
X18895000Y-14901571D01*
X18880714Y-14873000D01*
X18852143Y-14830143D01*
X18837857Y-14815857D01*
M02*
