G04 #@! TF.FileFunction,Copper,L1,Top,Signal*
%FSLAX46Y46*%
G04 Gerber Fmt 4.6, Leading zero omitted, Abs format (unit mm)*
G04 Created by KiCad (PCBNEW 4.0.5+dfsg1-4) date Sat May  6 12:26:19 2017*
%MOMM*%
%LPD*%
G01*
G04 APERTURE LIST*
%ADD10C,0.100000*%
%ADD11C,0.350000*%
%ADD12R,2.032000X1.524000*%
%ADD13R,0.700000X1.800000*%
%ADD14R,1.600000X1.400000*%
%ADD15R,1.800000X1.400000*%
%ADD16R,1.400000X1.900000*%
%ADD17R,1.800000X1.100000*%
%ADD18R,1.198880X1.198880*%
%ADD19R,2.800000X2.200000*%
%ADD20R,2.800000X2.800000*%
%ADD21R,2.800000X2.000000*%
%ADD22R,0.560000X0.900000*%
%ADD23O,1.300000X2.700000*%
%ADD24O,1.300000X2.300000*%
%ADD25R,0.250000X1.600000*%
%ADD26R,1.727200X1.727200*%
%ADD27O,1.727200X1.727200*%
%ADD28C,5.500000*%
%ADD29R,1.200000X0.900000*%
%ADD30R,1.727200X2.032000*%
%ADD31O,1.727200X2.032000*%
%ADD32R,0.750000X1.200000*%
%ADD33R,0.900000X1.200000*%
%ADD34C,0.400000*%
%ADD35C,0.454000*%
%ADD36C,0.300000*%
%ADD37C,0.190000*%
%ADD38C,0.200000*%
G04 APERTURE END LIST*
D10*
D11*
X131680000Y-80200000D03*
X132480000Y-80200000D03*
X133280000Y-80200000D03*
X134080000Y-80200000D03*
X134880000Y-80200000D03*
X135680000Y-80200000D03*
X136480000Y-80200000D03*
X137280000Y-80200000D03*
X138080000Y-80200000D03*
X138880000Y-80200000D03*
X139680000Y-80200000D03*
X140480000Y-80200000D03*
X141280000Y-80200000D03*
X142080000Y-80200000D03*
X142880000Y-80200000D03*
X143680000Y-80200000D03*
X144480000Y-80200000D03*
X145280000Y-80200000D03*
X130880000Y-81000000D03*
X131680000Y-81000000D03*
X132480000Y-81000000D03*
X133280000Y-81000000D03*
X134080000Y-81000000D03*
X134880000Y-81000000D03*
X135680000Y-81000000D03*
X136480000Y-81000000D03*
X137280000Y-81000000D03*
X138080000Y-81000000D03*
X138880000Y-81000000D03*
X139680000Y-81000000D03*
X140480000Y-81000000D03*
X141280000Y-81000000D03*
X142080000Y-81000000D03*
X142880000Y-81000000D03*
X143680000Y-81000000D03*
X144480000Y-81000000D03*
X145280000Y-81000000D03*
X146080000Y-81000000D03*
X130880000Y-81800000D03*
X131680000Y-81800000D03*
X132480000Y-81800000D03*
X133280000Y-81800000D03*
X134080000Y-81800000D03*
X134880000Y-81800000D03*
X135680000Y-81800000D03*
X136480000Y-81800000D03*
X137280000Y-81800000D03*
X138080000Y-81800000D03*
X138880000Y-81800000D03*
X139680000Y-81800000D03*
X140480000Y-81800000D03*
X141280000Y-81800000D03*
X142080000Y-81800000D03*
X142880000Y-81800000D03*
X143680000Y-81800000D03*
X144480000Y-81800000D03*
X145280000Y-81800000D03*
X146080000Y-81800000D03*
X130880000Y-82600000D03*
X131680000Y-82600000D03*
X132480000Y-82600000D03*
X133280000Y-82600000D03*
X134080000Y-82600000D03*
X134880000Y-82600000D03*
X135680000Y-82600000D03*
X136480000Y-82600000D03*
X137280000Y-82600000D03*
X138080000Y-82600000D03*
X138880000Y-82600000D03*
X139680000Y-82600000D03*
X140480000Y-82600000D03*
X141280000Y-82600000D03*
X142080000Y-82600000D03*
X142880000Y-82600000D03*
X143680000Y-82600000D03*
X144480000Y-82600000D03*
X145280000Y-82600000D03*
X146080000Y-82600000D03*
X130880000Y-83400000D03*
X131680000Y-83400000D03*
X132480000Y-83400000D03*
X133280000Y-83400000D03*
X134080000Y-83400000D03*
X134880000Y-83400000D03*
X135680000Y-83400000D03*
X136480000Y-83400000D03*
X137280000Y-83400000D03*
X138080000Y-83400000D03*
X138880000Y-83400000D03*
X139680000Y-83400000D03*
X140480000Y-83400000D03*
X141280000Y-83400000D03*
X142080000Y-83400000D03*
X142880000Y-83400000D03*
X143680000Y-83400000D03*
X144480000Y-83400000D03*
X145280000Y-83400000D03*
X146080000Y-83400000D03*
X130880000Y-84200000D03*
X131680000Y-84200000D03*
X132480000Y-84200000D03*
X133280000Y-84200000D03*
X134080000Y-84200000D03*
X134880000Y-84200000D03*
X135680000Y-84200000D03*
X136480000Y-84200000D03*
X137280000Y-84200000D03*
X138080000Y-84200000D03*
X138880000Y-84200000D03*
X139680000Y-84200000D03*
X140480000Y-84200000D03*
X141280000Y-84200000D03*
X142080000Y-84200000D03*
X142880000Y-84200000D03*
X143680000Y-84200000D03*
X144480000Y-84200000D03*
X145280000Y-84200000D03*
X146080000Y-84200000D03*
X130880000Y-85000000D03*
X131680000Y-85000000D03*
X132480000Y-85000000D03*
X133280000Y-85000000D03*
X134080000Y-85000000D03*
X134880000Y-85000000D03*
X135680000Y-85000000D03*
X136480000Y-85000000D03*
X137280000Y-85000000D03*
X138080000Y-85000000D03*
X138880000Y-85000000D03*
X139680000Y-85000000D03*
X140480000Y-85000000D03*
X141280000Y-85000000D03*
X142080000Y-85000000D03*
X142880000Y-85000000D03*
X143680000Y-85000000D03*
X144480000Y-85000000D03*
X145280000Y-85000000D03*
X146080000Y-85000000D03*
X130880000Y-85800000D03*
X131680000Y-85800000D03*
X132480000Y-85800000D03*
X133280000Y-85800000D03*
X134080000Y-85800000D03*
X134880000Y-85800000D03*
X135680000Y-85800000D03*
X136480000Y-85800000D03*
X137280000Y-85800000D03*
X138080000Y-85800000D03*
X138880000Y-85800000D03*
X139680000Y-85800000D03*
X140480000Y-85800000D03*
X141280000Y-85800000D03*
X142080000Y-85800000D03*
X142880000Y-85800000D03*
X143680000Y-85800000D03*
X144480000Y-85800000D03*
X145280000Y-85800000D03*
X146080000Y-85800000D03*
X130880000Y-86600000D03*
X131680000Y-86600000D03*
X132480000Y-86600000D03*
X133280000Y-86600000D03*
X134080000Y-86600000D03*
X134880000Y-86600000D03*
X135680000Y-86600000D03*
X136480000Y-86600000D03*
X137280000Y-86600000D03*
X138080000Y-86600000D03*
X138880000Y-86600000D03*
X139680000Y-86600000D03*
X140480000Y-86600000D03*
X141280000Y-86600000D03*
X142080000Y-86600000D03*
X142880000Y-86600000D03*
X143680000Y-86600000D03*
X144480000Y-86600000D03*
X145280000Y-86600000D03*
X146080000Y-86600000D03*
X130880000Y-87400000D03*
X131680000Y-87400000D03*
X132480000Y-87400000D03*
X133280000Y-87400000D03*
X134080000Y-87400000D03*
X134880000Y-87400000D03*
X135680000Y-87400000D03*
X136480000Y-87400000D03*
X137280000Y-87400000D03*
X138080000Y-87400000D03*
X138880000Y-87400000D03*
X139680000Y-87400000D03*
X140480000Y-87400000D03*
X141280000Y-87400000D03*
X142080000Y-87400000D03*
X142880000Y-87400000D03*
X143680000Y-87400000D03*
X144480000Y-87400000D03*
X145280000Y-87400000D03*
X146080000Y-87400000D03*
X130880000Y-88200000D03*
X131680000Y-88200000D03*
X132480000Y-88200000D03*
X133280000Y-88200000D03*
X134080000Y-88200000D03*
X134880000Y-88200000D03*
X135680000Y-88200000D03*
X136480000Y-88200000D03*
X137280000Y-88200000D03*
X138080000Y-88200000D03*
X138880000Y-88200000D03*
X139680000Y-88200000D03*
X140480000Y-88200000D03*
X141280000Y-88200000D03*
X142080000Y-88200000D03*
X142880000Y-88200000D03*
X143680000Y-88200000D03*
X144480000Y-88200000D03*
X145280000Y-88200000D03*
X146080000Y-88200000D03*
X130880000Y-89000000D03*
X131680000Y-89000000D03*
X132480000Y-89000000D03*
X133280000Y-89000000D03*
X134080000Y-89000000D03*
X134880000Y-89000000D03*
X135680000Y-89000000D03*
X136480000Y-89000000D03*
X137280000Y-89000000D03*
X138080000Y-89000000D03*
X138880000Y-89000000D03*
X139680000Y-89000000D03*
X140480000Y-89000000D03*
X141280000Y-89000000D03*
X142080000Y-89000000D03*
X142880000Y-89000000D03*
X143680000Y-89000000D03*
X144480000Y-89000000D03*
X145280000Y-89000000D03*
X146080000Y-89000000D03*
X130880000Y-89800000D03*
X131680000Y-89800000D03*
X132480000Y-89800000D03*
X133280000Y-89800000D03*
X134080000Y-89800000D03*
X134880000Y-89800000D03*
X135680000Y-89800000D03*
X136480000Y-89800000D03*
X137280000Y-89800000D03*
X138080000Y-89800000D03*
X138880000Y-89800000D03*
X139680000Y-89800000D03*
X140480000Y-89800000D03*
X141280000Y-89800000D03*
X142080000Y-89800000D03*
X142880000Y-89800000D03*
X143680000Y-89800000D03*
X144480000Y-89800000D03*
X145280000Y-89800000D03*
X146080000Y-89800000D03*
X130880000Y-90600000D03*
X131680000Y-90600000D03*
X132480000Y-90600000D03*
X133280000Y-90600000D03*
X134080000Y-90600000D03*
X134880000Y-90600000D03*
X135680000Y-90600000D03*
X136480000Y-90600000D03*
X137280000Y-90600000D03*
X138080000Y-90600000D03*
X138880000Y-90600000D03*
X139680000Y-90600000D03*
X140480000Y-90600000D03*
X141280000Y-90600000D03*
X142080000Y-90600000D03*
X142880000Y-90600000D03*
X143680000Y-90600000D03*
X144480000Y-90600000D03*
X145280000Y-90600000D03*
X146080000Y-90600000D03*
X130880000Y-91400000D03*
X131680000Y-91400000D03*
X132480000Y-91400000D03*
X133280000Y-91400000D03*
X134080000Y-91400000D03*
X142880000Y-91400000D03*
X143680000Y-91400000D03*
X144480000Y-91400000D03*
X145280000Y-91400000D03*
X146080000Y-91400000D03*
X130880000Y-92200000D03*
X131680000Y-92200000D03*
X132480000Y-92200000D03*
X133280000Y-92200000D03*
X134080000Y-92200000D03*
X134880000Y-92200000D03*
X135680000Y-92200000D03*
X136480000Y-92200000D03*
X137280000Y-92200000D03*
X138080000Y-92200000D03*
X138880000Y-92200000D03*
X139680000Y-92200000D03*
X140480000Y-92200000D03*
X141280000Y-92200000D03*
X142080000Y-92200000D03*
X142880000Y-92200000D03*
X143680000Y-92200000D03*
X144480000Y-92200000D03*
X145280000Y-92200000D03*
X146080000Y-92200000D03*
X130880000Y-93000000D03*
X131680000Y-93000000D03*
X132480000Y-93000000D03*
X133280000Y-93000000D03*
X134080000Y-93000000D03*
X134880000Y-93000000D03*
X135680000Y-93000000D03*
X136480000Y-93000000D03*
X137280000Y-93000000D03*
X138080000Y-93000000D03*
X138880000Y-93000000D03*
X139680000Y-93000000D03*
X140480000Y-93000000D03*
X141280000Y-93000000D03*
X142080000Y-93000000D03*
X142880000Y-93000000D03*
X143680000Y-93000000D03*
X144480000Y-93000000D03*
X145280000Y-93000000D03*
X146080000Y-93000000D03*
X130880000Y-93800000D03*
X131680000Y-93800000D03*
X132480000Y-93800000D03*
X133280000Y-93800000D03*
X134080000Y-93800000D03*
X134880000Y-93800000D03*
X135680000Y-93800000D03*
X136480000Y-93800000D03*
X137280000Y-93800000D03*
X138080000Y-93800000D03*
X138880000Y-93800000D03*
X139680000Y-93800000D03*
X140480000Y-93800000D03*
X141280000Y-93800000D03*
X142080000Y-93800000D03*
X142880000Y-93800000D03*
X143680000Y-93800000D03*
X144480000Y-93800000D03*
X145280000Y-93800000D03*
X146080000Y-93800000D03*
X130880000Y-94600000D03*
X131680000Y-94600000D03*
X132480000Y-94600000D03*
X133280000Y-94600000D03*
X134080000Y-94600000D03*
X134880000Y-94600000D03*
X135680000Y-94600000D03*
X136480000Y-94600000D03*
X137280000Y-94600000D03*
X138080000Y-94600000D03*
X138880000Y-94600000D03*
X139680000Y-94600000D03*
X140480000Y-94600000D03*
X141280000Y-94600000D03*
X142080000Y-94600000D03*
X142880000Y-94600000D03*
X143680000Y-94600000D03*
X144480000Y-94600000D03*
X145280000Y-94600000D03*
X146080000Y-94600000D03*
X131680000Y-95400000D03*
X132480000Y-95400000D03*
X134080000Y-95400000D03*
X134880000Y-95400000D03*
X135680000Y-95400000D03*
X136480000Y-95400000D03*
X138880000Y-95400000D03*
X139680000Y-95400000D03*
X141280000Y-95400000D03*
X142080000Y-95400000D03*
X142880000Y-95400000D03*
X143680000Y-95400000D03*
X145280000Y-95400000D03*
D12*
X171570000Y-65992000D03*
X171570000Y-62690000D03*
D13*
X114930000Y-99520000D03*
X116030000Y-99520000D03*
X117130000Y-99520000D03*
X118230000Y-99520000D03*
X119330000Y-99520000D03*
X120430000Y-99520000D03*
X121530000Y-99520000D03*
X122630000Y-99520000D03*
D14*
X121920000Y-110120000D03*
D15*
X116120000Y-110120000D03*
D16*
X124320000Y-96970000D03*
X110270000Y-95970000D03*
D17*
X101160000Y-87510000D03*
X107360000Y-87510000D03*
X101160000Y-91210000D03*
X107360000Y-91210000D03*
X112590000Y-87510000D03*
X118790000Y-87510000D03*
X112590000Y-91210000D03*
X118790000Y-91210000D03*
X155770000Y-98940000D03*
X161970000Y-98940000D03*
X155770000Y-102640000D03*
X161970000Y-102640000D03*
X161970000Y-110260000D03*
X155770000Y-110260000D03*
X161970000Y-106560000D03*
X155770000Y-106560000D03*
X150540000Y-110260000D03*
X144340000Y-110260000D03*
X150540000Y-106560000D03*
X144340000Y-106560000D03*
X173400000Y-110260000D03*
X167200000Y-110260000D03*
X173400000Y-106560000D03*
X167200000Y-106560000D03*
D18*
X119500000Y-81519020D03*
X119500000Y-79420980D03*
X116960000Y-81519020D03*
X116960000Y-79420980D03*
X114420000Y-81519020D03*
X114420000Y-79420980D03*
X111880000Y-81519020D03*
X111880000Y-79420980D03*
X109340000Y-81519020D03*
X109340000Y-79420980D03*
X106800000Y-81519020D03*
X106800000Y-79420980D03*
X104260000Y-81519020D03*
X104260000Y-79420980D03*
X101720000Y-81519020D03*
X101720000Y-79420980D03*
D19*
X119610000Y-62640000D03*
X119610000Y-65440000D03*
D20*
X119610000Y-74840000D03*
X124060000Y-78940000D03*
D21*
X127010000Y-67340000D03*
X127010000Y-64540000D03*
D22*
X175480000Y-82270000D03*
X154680000Y-93330000D03*
X155480000Y-93330000D03*
X156280000Y-93330000D03*
X157080000Y-93330000D03*
X157880000Y-93330000D03*
X158680000Y-93330000D03*
X159480000Y-93330000D03*
X160280000Y-93330000D03*
X161080000Y-93330000D03*
X161880000Y-93330000D03*
X162680000Y-93330000D03*
X163480000Y-93330000D03*
X164280000Y-93330000D03*
X165080000Y-93330000D03*
X165880000Y-93330000D03*
X166680000Y-93330000D03*
X167480000Y-93330000D03*
X168280000Y-93330000D03*
X169080000Y-93330000D03*
X169880000Y-93330000D03*
X170680000Y-93330000D03*
X171480000Y-93330000D03*
X172280000Y-93330000D03*
X173080000Y-93330000D03*
X173880000Y-93330000D03*
X174680000Y-93330000D03*
X175480000Y-93330000D03*
X174680000Y-82270000D03*
X173880000Y-82270000D03*
X173080000Y-82270000D03*
X172280000Y-82270000D03*
X171480000Y-82270000D03*
X170680000Y-82270000D03*
X169880000Y-82270000D03*
X169080000Y-82270000D03*
X168280000Y-82270000D03*
X167480000Y-82270000D03*
X166680000Y-82270000D03*
X165880000Y-82270000D03*
X165080000Y-82270000D03*
X164280000Y-82270000D03*
X163480000Y-82270000D03*
X162680000Y-82270000D03*
X161880000Y-82270000D03*
X161080000Y-82270000D03*
X160280000Y-82270000D03*
X159480000Y-82270000D03*
X158680000Y-82270000D03*
X157880000Y-82270000D03*
X157080000Y-82270000D03*
X156280000Y-82270000D03*
X155480000Y-82270000D03*
X154680000Y-82270000D03*
D23*
X152280000Y-69650000D03*
X137680000Y-69650000D03*
D24*
X137680000Y-63600000D03*
D25*
X140480000Y-70600000D03*
X140980000Y-70600000D03*
X141480000Y-70600000D03*
X141980000Y-70600000D03*
X142480000Y-70600000D03*
X142980000Y-70600000D03*
X143480000Y-70600000D03*
X143980000Y-70600000D03*
X144480000Y-70600000D03*
X144980000Y-70600000D03*
X145480000Y-70600000D03*
X145980000Y-70600000D03*
X146480000Y-70600000D03*
X146980000Y-70600000D03*
X147480000Y-70600000D03*
X147980000Y-70600000D03*
X148480000Y-70600000D03*
X148980000Y-70600000D03*
X149480000Y-70600000D03*
D24*
X152280000Y-63600000D03*
D26*
X97910000Y-62690000D03*
D27*
X95370000Y-62690000D03*
X97910000Y-65230000D03*
X95370000Y-65230000D03*
X97910000Y-67770000D03*
X95370000Y-67770000D03*
X97910000Y-70310000D03*
X95370000Y-70310000D03*
X97910000Y-72850000D03*
X95370000Y-72850000D03*
X97910000Y-75390000D03*
X95370000Y-75390000D03*
X97910000Y-77930000D03*
X95370000Y-77930000D03*
X97910000Y-80470000D03*
X95370000Y-80470000D03*
X97910000Y-83010000D03*
X95370000Y-83010000D03*
X97910000Y-85550000D03*
X95370000Y-85550000D03*
X97910000Y-88090000D03*
X95370000Y-88090000D03*
X97910000Y-90630000D03*
X95370000Y-90630000D03*
X97910000Y-93170000D03*
X95370000Y-93170000D03*
X97910000Y-95710000D03*
X95370000Y-95710000D03*
X97910000Y-98250000D03*
X95370000Y-98250000D03*
X97910000Y-100790000D03*
X95370000Y-100790000D03*
X97910000Y-103330000D03*
X95370000Y-103330000D03*
X97910000Y-105870000D03*
X95370000Y-105870000D03*
X97910000Y-108410000D03*
X95370000Y-108410000D03*
X97910000Y-110950000D03*
X95370000Y-110950000D03*
D26*
X184270000Y-110950000D03*
D27*
X186810000Y-110950000D03*
X184270000Y-108410000D03*
X186810000Y-108410000D03*
X184270000Y-105870000D03*
X186810000Y-105870000D03*
X184270000Y-103330000D03*
X186810000Y-103330000D03*
X184270000Y-100790000D03*
X186810000Y-100790000D03*
X184270000Y-98250000D03*
X186810000Y-98250000D03*
X184270000Y-95710000D03*
X186810000Y-95710000D03*
X184270000Y-93170000D03*
X186810000Y-93170000D03*
X184270000Y-90630000D03*
X186810000Y-90630000D03*
X184270000Y-88090000D03*
X186810000Y-88090000D03*
X184270000Y-85550000D03*
X186810000Y-85550000D03*
X184270000Y-83010000D03*
X186810000Y-83010000D03*
X184270000Y-80470000D03*
X186810000Y-80470000D03*
X184270000Y-77930000D03*
X186810000Y-77930000D03*
X184270000Y-75390000D03*
X186810000Y-75390000D03*
X184270000Y-72850000D03*
X186810000Y-72850000D03*
X184270000Y-70310000D03*
X186810000Y-70310000D03*
X184270000Y-67770000D03*
X186810000Y-67770000D03*
X184270000Y-65230000D03*
X186810000Y-65230000D03*
X184270000Y-62690000D03*
X186810000Y-62690000D03*
D28*
X102990000Y-108410000D03*
X179190000Y-108410000D03*
X179190000Y-65230000D03*
X102990000Y-65230000D03*
D17*
X162120000Y-63380000D03*
X168320000Y-63380000D03*
X162120000Y-67080000D03*
X168320000Y-67080000D03*
D29*
X151080000Y-73485000D03*
X148880000Y-73485000D03*
D26*
X104260000Y-99520000D03*
D27*
X101720000Y-99520000D03*
D30*
X147440000Y-100790000D03*
D31*
X144900000Y-100790000D03*
X142360000Y-100790000D03*
X139820000Y-100790000D03*
X137280000Y-100790000D03*
X134740000Y-100790000D03*
X132200000Y-100790000D03*
D32*
X107480000Y-100750000D03*
X107480000Y-98850000D03*
D33*
X107480000Y-102700000D03*
X107480000Y-104900000D03*
D34*
X133690245Y-94180159D03*
D35*
X139312644Y-91359700D03*
D34*
X140874194Y-91433353D03*
X147987057Y-71874961D03*
X146490444Y-71976266D03*
X144992193Y-71935857D03*
X145680000Y-85422010D03*
X100017740Y-79439515D03*
X132880424Y-84565132D03*
X143480000Y-71900000D03*
X141986140Y-71899854D03*
X144080000Y-84600000D03*
X145680000Y-94200000D03*
X136080000Y-89400000D03*
X135280000Y-95000000D03*
X135280000Y-94200000D03*
X142480000Y-94200000D03*
X140880000Y-93400000D03*
X139280000Y-93400000D03*
X137680000Y-93400000D03*
X136080000Y-93400000D03*
X136880000Y-92600000D03*
X135280000Y-92600000D03*
X132880000Y-91800000D03*
X132880000Y-93400000D03*
X132880000Y-82200000D03*
D35*
X141042859Y-86994997D03*
X139280000Y-87000000D03*
X136110990Y-86995403D03*
X139280000Y-88600000D03*
X137680000Y-87000000D03*
X136080000Y-84600000D03*
D34*
X149585000Y-77295000D03*
X137665894Y-91402446D03*
X135273306Y-88618602D03*
X139272517Y-84611349D03*
X137680556Y-84534085D03*
X141680000Y-86200000D03*
X135280000Y-86200000D03*
X132880000Y-92600000D03*
X132080000Y-92600000D03*
X141680000Y-88600000D03*
X141680000Y-85400000D03*
X152095000Y-98400000D03*
X140094890Y-90122990D03*
X139280000Y-90122990D03*
X140880000Y-89400000D03*
X137680000Y-90172990D03*
X140880000Y-87800000D03*
X140880000Y-85400000D03*
X136880000Y-90200000D03*
D35*
X136080000Y-85400000D03*
D34*
X129541426Y-91206659D03*
X121408624Y-90632457D03*
X129813284Y-92511909D03*
X120880000Y-91000000D03*
X139280000Y-82200000D03*
X110593658Y-88756708D03*
X142480000Y-91000000D03*
X142480000Y-83800000D03*
X134480000Y-83800000D03*
X134480000Y-91000000D03*
X134989752Y-97256032D03*
X135884156Y-106800406D03*
X133680000Y-91800000D03*
D35*
X134074414Y-102752225D03*
D34*
X135855186Y-108022639D03*
X134198152Y-97269984D03*
D35*
X133449289Y-102232615D03*
D34*
X133680000Y-92600000D03*
X132606156Y-97170044D03*
X129563728Y-104680338D03*
X132918584Y-104800000D03*
X135853254Y-108792386D03*
X133685668Y-93402482D03*
X132846234Y-94197073D03*
X132090078Y-97276836D03*
X131019992Y-102364188D03*
X135471949Y-109409592D03*
X122480000Y-62900000D03*
D35*
X145851858Y-65189228D03*
X145873729Y-63920849D03*
D34*
X143680000Y-63900000D03*
X140080000Y-81400000D03*
X129373612Y-86363428D03*
X132080000Y-86200000D03*
X117280000Y-97600000D03*
X119260183Y-96350895D03*
D35*
X119709193Y-95550883D03*
X120634035Y-94977604D03*
D34*
X147480000Y-77822010D03*
X146387166Y-77918991D03*
X131453853Y-103296209D03*
D35*
X148653935Y-95239949D03*
D34*
X144885216Y-91021238D03*
D35*
X149619858Y-94378867D03*
D34*
X144885689Y-90132858D03*
D35*
X150895161Y-97104924D03*
D34*
X144890381Y-83866022D03*
D35*
X151426924Y-96525191D03*
D34*
X144894101Y-83022010D03*
D35*
X150518912Y-96497510D03*
D34*
X144901285Y-86268736D03*
D35*
X150197861Y-96013257D03*
D34*
X144888562Y-86993817D03*
D35*
X150072035Y-95446034D03*
D34*
X144877648Y-88622010D03*
D35*
X149779241Y-94944191D03*
D34*
X144869421Y-89288847D03*
D35*
X148110244Y-93760618D03*
D34*
X144882782Y-91877646D03*
D35*
X147402091Y-93209005D03*
D34*
X144080000Y-92600000D03*
D35*
X147982902Y-93193733D03*
D34*
X144882352Y-92577990D03*
X131191207Y-95514394D03*
X130123876Y-93413277D03*
X132080000Y-93400000D03*
X129280000Y-93200000D03*
X132080000Y-94200000D03*
X128649840Y-85087828D03*
X111080000Y-106000000D03*
X129212070Y-89291543D03*
X132080000Y-89444020D03*
X130839486Y-103354982D03*
X132880000Y-86200000D03*
X129880000Y-104200000D03*
X128388593Y-88745409D03*
X132880000Y-88600000D03*
X135778649Y-106163691D03*
X128476551Y-87584386D03*
X124253981Y-105982535D03*
X132080000Y-87000000D03*
X125899900Y-93452662D03*
X124202418Y-107207639D03*
X139782500Y-74073458D03*
D35*
X139185419Y-73378045D03*
X141029139Y-73391006D03*
X143625670Y-75521246D03*
X142775852Y-75939146D03*
D34*
X135274882Y-81390604D03*
X134480367Y-81390604D03*
X134058357Y-77465303D03*
X133668154Y-77111081D03*
X126773709Y-78308800D03*
X126604386Y-78926444D03*
X127445822Y-79226361D03*
X127566271Y-78713298D03*
X132504562Y-78200000D03*
X132505009Y-78796823D03*
X132884441Y-81391117D03*
X128013789Y-82814208D03*
X132084319Y-83022010D03*
X128395011Y-83178075D03*
X132886504Y-83777990D03*
X128874210Y-83399899D03*
X132117443Y-83866021D03*
X128177048Y-84021806D03*
X132032194Y-84565132D03*
X128656426Y-84243816D03*
X133671942Y-84595200D03*
X128146548Y-84865817D03*
X132875802Y-85421990D03*
D35*
X147131990Y-96348010D03*
X147526704Y-95921658D03*
D34*
X148074116Y-95229326D03*
X143280000Y-91000000D03*
X149207706Y-95605291D03*
X144082424Y-90132858D03*
X147124159Y-89779295D03*
X144035793Y-89397606D03*
X143281824Y-90201951D03*
X144080517Y-85397219D03*
X147611689Y-84811014D03*
X144886544Y-85385186D03*
X149110027Y-82710554D03*
X144080000Y-83000000D03*
X144885092Y-82177990D03*
X147473323Y-88301262D03*
X144082832Y-88584510D03*
X147997681Y-88248440D03*
X143278026Y-88595030D03*
X149131913Y-81202010D03*
X144076901Y-82186448D03*
X148337768Y-80975785D03*
X144866392Y-81333979D03*
X139280000Y-81400000D03*
X139030990Y-78600803D03*
X138474753Y-78117762D03*
X138291969Y-77164182D03*
X137754556Y-75974186D03*
X137974958Y-76577236D03*
X137680000Y-81400000D03*
X136967862Y-76797850D03*
X136540508Y-77107981D03*
X136123321Y-77473680D03*
X136102010Y-78268593D03*
X136080000Y-81400000D03*
X148441027Y-84498152D03*
X144877691Y-84532933D03*
X147904113Y-83328694D03*
X144080000Y-83800000D03*
X143019945Y-78903038D03*
X142473549Y-82998913D03*
X143086704Y-78380271D03*
X142457990Y-82191394D03*
X145494004Y-75718570D03*
X144146021Y-81374784D03*
X143323210Y-77837480D03*
X146456648Y-75056695D03*
X143302010Y-82194992D03*
X143302010Y-81381735D03*
X145172870Y-74240536D03*
X141853043Y-78968642D03*
X141657990Y-82130345D03*
X142457990Y-81382236D03*
X140924011Y-81375594D03*
X141346021Y-77170289D03*
X141046643Y-74873804D03*
X140864029Y-83041403D03*
X141329877Y-75415642D03*
X140902010Y-82179283D03*
X133680000Y-82977990D03*
X132080000Y-81400000D03*
X132080000Y-82177990D03*
X130976883Y-77755103D03*
X133680000Y-81400000D03*
X133680000Y-83822010D03*
X129376114Y-91707073D03*
X132880000Y-91000000D03*
X128844976Y-91174475D03*
X132077648Y-90977990D03*
X129680000Y-80500000D03*
X131180000Y-80500000D03*
X134480000Y-82200000D03*
X138500159Y-104911875D03*
X135680000Y-105400000D03*
D36*
X133699841Y-94180159D02*
X133690245Y-94180159D01*
X134080000Y-93800000D02*
X133699841Y-94180159D01*
X139085645Y-91132701D02*
X139312644Y-91359700D01*
X138880000Y-90927056D02*
X139085645Y-91132701D01*
X138880000Y-90600000D02*
X138880000Y-90927056D01*
X140874194Y-90605806D02*
X140874194Y-91150511D01*
X140880000Y-90600000D02*
X140874194Y-90605806D01*
X140874194Y-91150511D02*
X140874194Y-91433353D01*
X140480000Y-90600000D02*
X140880000Y-90600000D01*
X140880000Y-90600000D02*
X141280000Y-90600000D01*
X139680000Y-90600000D02*
X140480000Y-90600000D01*
X138880000Y-90600000D02*
X139680000Y-90600000D01*
X147980000Y-71867904D02*
X147987057Y-71874961D01*
X147980000Y-70600000D02*
X147980000Y-71867904D01*
X146480000Y-71965822D02*
X146490444Y-71976266D01*
X146480000Y-70600000D02*
X146480000Y-71965822D01*
X144980000Y-70600000D02*
X144980000Y-71923664D01*
X144980000Y-71923664D02*
X144992193Y-71935857D01*
X145280000Y-85800000D02*
X145657990Y-85422010D01*
X145657990Y-85422010D02*
X145680000Y-85422010D01*
X100036275Y-79420980D02*
X100017740Y-79439515D01*
X101720000Y-79420980D02*
X100036275Y-79420980D01*
X133280000Y-85000000D02*
X132880424Y-84600424D01*
X132880424Y-84600424D02*
X132880424Y-84565132D01*
X141280000Y-85000000D02*
X141280000Y-84800000D01*
X141280000Y-84200000D02*
X141280000Y-85000000D01*
X140480000Y-84200000D02*
X141280000Y-84200000D01*
X141280000Y-84800000D02*
X141280000Y-84200000D01*
X141905001Y-84825001D02*
X141305001Y-84825001D01*
X141305001Y-84825001D02*
X141280000Y-84800000D01*
X140480000Y-85000000D02*
X140480000Y-84200000D01*
X139680000Y-85000000D02*
X139680000Y-84898347D01*
X139680000Y-84898347D02*
X139753346Y-84825001D01*
X138280000Y-85088351D02*
X138680000Y-85088351D01*
X137463975Y-85088351D02*
X138280000Y-85088351D01*
X138280000Y-85088351D02*
X139489996Y-85088351D01*
X138080000Y-85000000D02*
X138191649Y-85000000D01*
X138191649Y-85000000D02*
X138280000Y-85088351D01*
X138880000Y-85000000D02*
X138768351Y-85000000D01*
X138768351Y-85000000D02*
X138680000Y-85088351D01*
X135680000Y-84200000D02*
X135680000Y-84800000D01*
X135680000Y-84800000D02*
X135680000Y-85000000D01*
X135054999Y-84825001D02*
X135654999Y-84825001D01*
X135654999Y-84825001D02*
X135680000Y-84800000D01*
X136480000Y-85000000D02*
X136480000Y-84200000D01*
X134880000Y-85000000D02*
X135054999Y-84825001D01*
X138880000Y-87400000D02*
X139680000Y-87400000D01*
X138880000Y-88200000D02*
X138880000Y-89000000D01*
X138880000Y-88200000D02*
X139680000Y-88200000D01*
X137280000Y-88200000D02*
X138080000Y-88200000D01*
X141454999Y-89174999D02*
X141280000Y-89000000D01*
X141454999Y-90425001D02*
X141454999Y-89174999D01*
X141280000Y-90600000D02*
X141454999Y-90425001D01*
X142280000Y-69200000D02*
X143480000Y-69200000D01*
X143480000Y-69200000D02*
X144980000Y-69200000D01*
X143480000Y-70600000D02*
X143480000Y-69200000D01*
X144980000Y-69200000D02*
X146480000Y-69200000D01*
X144980000Y-70600000D02*
X144980000Y-69200000D01*
X146480000Y-69200000D02*
X147780000Y-69200000D01*
X146480000Y-70600000D02*
X146480000Y-69200000D01*
X147980000Y-69400000D02*
X147980000Y-70600000D01*
X147780000Y-69200000D02*
X147980000Y-69400000D01*
X141980000Y-70600000D02*
X141980000Y-69500000D01*
X141980000Y-69500000D02*
X142280000Y-69200000D01*
X143480000Y-70600000D02*
X143480000Y-71900000D01*
X116960000Y-79420980D02*
X119500000Y-79420980D01*
X114420000Y-79420980D02*
X116960000Y-79420980D01*
X111880000Y-79420980D02*
X114420000Y-79420980D01*
X109340000Y-79420980D02*
X111880000Y-79420980D01*
X106800000Y-79420980D02*
X109340000Y-79420980D01*
X104260000Y-79420980D02*
X106800000Y-79420980D01*
X101720000Y-79420980D02*
X104260000Y-79420980D01*
X141980000Y-71893714D02*
X141986140Y-71899854D01*
X141980000Y-70600000D02*
X141980000Y-71893714D01*
X143680000Y-85000000D02*
X144080000Y-84600000D01*
X142080000Y-89800000D02*
X142880000Y-89000000D01*
X145680000Y-93800000D02*
X145280000Y-93800000D01*
X146080000Y-93800000D02*
X145680000Y-93800000D01*
X145680000Y-93800000D02*
X145680000Y-94200000D01*
X135680000Y-89400000D02*
X135680000Y-89800000D01*
X135680000Y-89000000D02*
X135680000Y-89400000D01*
X135680000Y-89400000D02*
X136080000Y-89400000D01*
X135280000Y-95400000D02*
X135680000Y-95400000D01*
X134880000Y-95400000D02*
X135280000Y-95400000D01*
X135280000Y-95400000D02*
X135280000Y-95000000D01*
X135280000Y-93800000D02*
X135680000Y-93800000D01*
X134880000Y-93800000D02*
X135280000Y-93800000D01*
X135280000Y-93800000D02*
X135280000Y-94200000D01*
X142480000Y-93800000D02*
X142080000Y-93800000D01*
X142880000Y-93800000D02*
X142480000Y-93800000D01*
X142480000Y-93800000D02*
X142480000Y-94200000D01*
X140880000Y-93000000D02*
X141280000Y-93000000D01*
X140480000Y-93000000D02*
X140880000Y-93000000D01*
X140880000Y-93000000D02*
X140880000Y-93400000D01*
X139280000Y-93000000D02*
X138880000Y-93000000D01*
X139680000Y-93000000D02*
X139280000Y-93000000D01*
X139280000Y-93000000D02*
X139280000Y-93400000D01*
X137680000Y-93000000D02*
X137280000Y-93000000D01*
X137680000Y-93000000D02*
X137680000Y-93400000D01*
X138080000Y-93000000D02*
X137680000Y-93000000D01*
X136080000Y-93000000D02*
X135680000Y-93000000D01*
X136480000Y-93000000D02*
X136080000Y-93000000D01*
X136080000Y-93000000D02*
X136080000Y-93400000D01*
X136880000Y-93000000D02*
X136480000Y-93000000D01*
X137280000Y-93000000D02*
X136880000Y-93000000D01*
X136880000Y-93000000D02*
X136880000Y-92600000D01*
X135280000Y-93000000D02*
X135680000Y-93000000D01*
X134880000Y-93000000D02*
X135280000Y-93000000D01*
X135280000Y-93000000D02*
X135280000Y-92600000D01*
X133280000Y-91400000D02*
X132880000Y-91800000D01*
X133280000Y-93000000D02*
X132880000Y-93400000D01*
X133280000Y-82600000D02*
X132880000Y-82200000D01*
X139753346Y-84825001D02*
X141905001Y-84825001D01*
X135054999Y-84825001D02*
X137200625Y-84825001D01*
X137200625Y-84825001D02*
X137463975Y-85088351D01*
X139489996Y-85088351D02*
X139753346Y-84825001D01*
X141905001Y-84825001D02*
X142080000Y-85000000D01*
X141042859Y-86837141D02*
X141042859Y-86994997D01*
X141280000Y-86600000D02*
X141042859Y-86837141D01*
X139680000Y-87000000D02*
X139680000Y-89000000D01*
X139680000Y-86600000D02*
X139680000Y-87000000D01*
X139680000Y-87000000D02*
X139280000Y-87000000D01*
X135684597Y-86995403D02*
X135789964Y-86995403D01*
X135680000Y-87000000D02*
X135684597Y-86995403D01*
X135789964Y-86995403D02*
X136110990Y-86995403D01*
X135680000Y-87000000D02*
X135680000Y-86600000D01*
X135680000Y-87400000D02*
X135680000Y-87000000D01*
X138880000Y-90600000D02*
X138880000Y-91091880D01*
X138880000Y-91091880D02*
X138080000Y-91891880D01*
X138080000Y-91891880D02*
X138080000Y-92200000D01*
X136480000Y-90600000D02*
X136480000Y-92200000D01*
X139680000Y-89000000D02*
X139280000Y-88600000D01*
X137280000Y-86600000D02*
X137680000Y-87000000D01*
X136480000Y-84200000D02*
X136080000Y-84600000D01*
X141280000Y-86600000D02*
X141280000Y-87400000D01*
X142080000Y-87400000D02*
X141280000Y-87400000D01*
X141280000Y-89800000D02*
X142080000Y-89800000D01*
X135680000Y-84200000D02*
X136480000Y-84200000D01*
X134880000Y-87400000D02*
X135680000Y-87400000D01*
X138880000Y-86600000D02*
X138880000Y-89000000D01*
X138080000Y-86600000D02*
X138080000Y-89000000D01*
X139680000Y-87400000D02*
X137280000Y-87400000D01*
X137280000Y-88200000D02*
X139680000Y-88200000D01*
X137280000Y-86600000D02*
X137280000Y-89000000D01*
X138880000Y-86600000D02*
X139680000Y-86600000D01*
X138080000Y-86600000D02*
X138880000Y-86600000D01*
X137280000Y-86600000D02*
X138080000Y-86600000D01*
X138880000Y-89000000D02*
X139680000Y-89000000D01*
X138080000Y-89000000D02*
X138880000Y-89000000D01*
X137280000Y-89000000D02*
X138080000Y-89000000D01*
X135680000Y-89800000D02*
X134880000Y-89800000D01*
X135680000Y-90600000D02*
X135680000Y-89800000D01*
X135680000Y-90600000D02*
X136480000Y-90600000D01*
X140480000Y-93000000D02*
X139680000Y-93000000D01*
X139680000Y-93800000D02*
X140480000Y-93800000D01*
X139680000Y-93800000D02*
X139680000Y-94600000D01*
X139680000Y-95400000D02*
X139680000Y-94600000D01*
X138880000Y-95400000D02*
X139680000Y-95400000D01*
X135680000Y-95400000D02*
X136480000Y-95400000D01*
X135680000Y-95400000D02*
X135680000Y-94600000D01*
X134880000Y-95400000D02*
X134080000Y-95400000D01*
X134880000Y-94600000D02*
X134880000Y-95400000D01*
X134080000Y-93800000D02*
X134880000Y-93800000D01*
X134880000Y-94600000D02*
X134880000Y-93800000D01*
X135680000Y-94600000D02*
X134880000Y-94600000D01*
X135680000Y-93800000D02*
X135680000Y-94600000D01*
X134880000Y-93000000D02*
X134880000Y-93800000D01*
X134880000Y-92200000D02*
X134880000Y-93000000D01*
X135680000Y-92200000D02*
X134880000Y-92200000D01*
X135680000Y-93800000D02*
X136480000Y-93800000D01*
X135680000Y-93000000D02*
X135680000Y-93800000D01*
X135680000Y-92200000D02*
X135680000Y-93000000D01*
X135680000Y-92200000D02*
X136480000Y-92200000D01*
X136480000Y-92200000D02*
X137280000Y-92200000D01*
X137280000Y-93800000D02*
X137280000Y-93000000D01*
X136480000Y-93800000D02*
X137280000Y-93800000D01*
X136480000Y-93000000D02*
X136480000Y-93800000D01*
X136480000Y-92200000D02*
X136480000Y-93000000D01*
X137280000Y-92200000D02*
X138080000Y-92200000D01*
X137280000Y-93800000D02*
X138080000Y-93800000D01*
X137280000Y-92200000D02*
X137280000Y-93000000D01*
X138080000Y-92200000D02*
X138080000Y-93000000D01*
X138080000Y-93000000D02*
X138880000Y-93000000D01*
X138080000Y-93800000D02*
X138080000Y-93000000D01*
X138880000Y-93800000D02*
X138080000Y-93800000D01*
X138880000Y-93000000D02*
X138880000Y-93800000D01*
X139680000Y-93800000D02*
X139680000Y-93000000D01*
X138880000Y-93800000D02*
X139680000Y-93800000D01*
X140480000Y-93000000D02*
X140480000Y-93800000D01*
X141280000Y-93000000D02*
X141280000Y-93800000D01*
X141280000Y-93800000D02*
X142080000Y-93800000D01*
X140480000Y-93800000D02*
X141280000Y-93800000D01*
X142080000Y-94600000D02*
X142880000Y-94600000D01*
X142080000Y-93800000D02*
X142080000Y-94600000D01*
X142880000Y-94600000D02*
X142880000Y-93800000D01*
X145280000Y-93800000D02*
X145280000Y-94600000D01*
X149480000Y-71885000D02*
X151080000Y-73485000D01*
X149480000Y-70600000D02*
X149480000Y-71885000D01*
X137665894Y-91119604D02*
X137665894Y-91402446D01*
X137665894Y-90814106D02*
X137665894Y-91119604D01*
X137680000Y-90800000D02*
X137665894Y-90814106D01*
X137680000Y-90800000D02*
X137880000Y-90800000D01*
X137480000Y-90800000D02*
X137680000Y-90800000D01*
X137880000Y-90800000D02*
X138080000Y-90600000D01*
X137280000Y-90600000D02*
X137480000Y-90800000D01*
X132880000Y-92600000D02*
X133280000Y-92200000D01*
X132480000Y-92200000D02*
X132880000Y-92600000D01*
X134990464Y-88618602D02*
X135273306Y-88618602D01*
X134898602Y-88618602D02*
X134990464Y-88618602D01*
X134880000Y-88600000D02*
X134898602Y-88618602D01*
X139272517Y-84328507D02*
X139272517Y-84611349D01*
X139272517Y-84207483D02*
X139272517Y-84328507D01*
X139280000Y-84200000D02*
X139272517Y-84207483D01*
X137680556Y-84200556D02*
X137680556Y-84251243D01*
X137680000Y-84200000D02*
X137680556Y-84200556D01*
X137680556Y-84251243D02*
X137680556Y-84534085D01*
X142080000Y-88600000D02*
X142080000Y-89000000D01*
X142080000Y-88200000D02*
X142080000Y-88600000D01*
X141680000Y-85800000D02*
X141680000Y-86200000D01*
X135280000Y-85800000D02*
X135680000Y-85800000D01*
X134880000Y-85800000D02*
X135280000Y-85800000D01*
X135280000Y-85800000D02*
X135280000Y-86200000D01*
X132080000Y-92200000D02*
X132480000Y-92200000D01*
X131680000Y-92200000D02*
X132080000Y-92200000D01*
X132080000Y-92200000D02*
X132080000Y-92600000D01*
X131680000Y-93000000D02*
X131680000Y-92200000D01*
X134880000Y-88600000D02*
X134880000Y-89000000D01*
X134880000Y-88200000D02*
X134880000Y-88600000D01*
X134880000Y-86200000D02*
X134880000Y-86600000D01*
X134880000Y-85800000D02*
X134880000Y-86200000D01*
X141680000Y-88200000D02*
X142080000Y-88200000D01*
X141280000Y-88200000D02*
X141680000Y-88200000D01*
X141680000Y-88200000D02*
X141680000Y-88600000D01*
X141680000Y-85800000D02*
X142080000Y-85800000D01*
X141280000Y-85800000D02*
X141680000Y-85800000D01*
X141680000Y-85800000D02*
X141680000Y-85400000D01*
X139280000Y-84200000D02*
X139680000Y-84200000D01*
X138880000Y-84200000D02*
X139280000Y-84200000D01*
X137680000Y-84200000D02*
X138080000Y-84200000D01*
X137280000Y-84200000D02*
X137680000Y-84200000D01*
X142080000Y-85800000D02*
X142080000Y-86600000D01*
X134880000Y-88200000D02*
X135680000Y-88200000D01*
X140094890Y-89840148D02*
X140094890Y-90122990D01*
X140094890Y-89639891D02*
X140094890Y-89840148D01*
X140080000Y-89625001D02*
X140094890Y-89639891D01*
X139280000Y-89625001D02*
X139280000Y-90122990D01*
X139280000Y-89625001D02*
X139680000Y-89625001D01*
X137680000Y-89625001D02*
X139280000Y-89625001D01*
X139680000Y-89625001D02*
X140080000Y-89625001D01*
X140080000Y-89625001D02*
X140305001Y-89625001D01*
X139680000Y-89800000D02*
X139680000Y-89625001D01*
X140305001Y-89400000D02*
X140305001Y-89000000D01*
X140305001Y-89000000D02*
X140305001Y-88200000D01*
X140480000Y-89000000D02*
X140305001Y-89000000D01*
X140305001Y-88200000D02*
X140305001Y-87800000D01*
X140480000Y-88200000D02*
X140305001Y-88200000D01*
X140305001Y-87800000D02*
X140305001Y-87400000D01*
X140305001Y-87400000D02*
X140305001Y-86600000D01*
X140480000Y-87400000D02*
X140305001Y-87400000D01*
X140305001Y-86600000D02*
X140305001Y-85974999D01*
X140480000Y-86600000D02*
X140305001Y-86600000D01*
X140480000Y-85800000D02*
X139480000Y-85800000D01*
X139480000Y-85800000D02*
X138680000Y-85800000D01*
X139680000Y-85800000D02*
X139480000Y-85800000D01*
X138680000Y-85800000D02*
X137880000Y-85800000D01*
X138880000Y-85800000D02*
X138680000Y-85800000D01*
X137880000Y-85800000D02*
X137080000Y-85800000D01*
X138080000Y-85800000D02*
X137880000Y-85800000D01*
X137080000Y-85800000D02*
X136480000Y-85800000D01*
X137280000Y-85800000D02*
X137080000Y-85800000D01*
X136654999Y-85974999D02*
X136654999Y-86600000D01*
X136654999Y-86600000D02*
X136654999Y-89000000D01*
X136480000Y-86600000D02*
X136654999Y-86600000D01*
X136654999Y-89000000D02*
X136654999Y-89625001D01*
X136480000Y-89000000D02*
X136654999Y-89000000D01*
X140305001Y-89400000D02*
X140880000Y-89400000D01*
X137054999Y-89625001D02*
X137680000Y-89625001D01*
X137680000Y-89625001D02*
X137680000Y-90172990D01*
X136880000Y-89800000D02*
X137054999Y-89625001D01*
X140305001Y-89625001D02*
X140480000Y-89800000D01*
X140305001Y-87800000D02*
X140880000Y-87800000D01*
X140305001Y-89625001D02*
X140305001Y-89400000D01*
X140480000Y-85800000D02*
X140880000Y-85400000D01*
X136480000Y-89800000D02*
X136880000Y-89800000D01*
X136880000Y-89800000D02*
X136880000Y-90200000D01*
X136480000Y-85800000D02*
X136080000Y-85400000D01*
X140305001Y-85974999D02*
X140480000Y-85800000D01*
X136480000Y-85800000D02*
X136654999Y-85974999D01*
X136654999Y-89625001D02*
X136480000Y-89800000D01*
D37*
X155770000Y-105820000D02*
X155770000Y-106560000D01*
X148678556Y-98358968D02*
X150857011Y-100537423D01*
X155770000Y-105797374D02*
X155770000Y-105820000D01*
X145683364Y-96431023D02*
X147611309Y-98358968D01*
X130662702Y-96431023D02*
X145683364Y-96431023D01*
X150857011Y-100884385D02*
X155770000Y-105797374D01*
X150857011Y-100537423D02*
X150857011Y-100884385D01*
X129819806Y-95588127D02*
X130662702Y-96431023D01*
X129819806Y-94860194D02*
X129819806Y-95588127D01*
X147611309Y-98358968D02*
X148678556Y-98358968D01*
X130880000Y-93800000D02*
X129819806Y-94860194D01*
X155770000Y-106560000D02*
X161970000Y-106560000D01*
X130880000Y-91400000D02*
X129734767Y-91400000D01*
X129734767Y-91400000D02*
X129541426Y-91206659D01*
X109233423Y-90426577D02*
X121202744Y-90426577D01*
X108450000Y-91210000D02*
X109233423Y-90426577D01*
X121208625Y-90432458D02*
X121408624Y-90632457D01*
X121202744Y-90426577D02*
X121208625Y-90432458D01*
X107360000Y-91210000D02*
X108450000Y-91210000D01*
X101160000Y-91210000D02*
X107360000Y-91210000D01*
X130125193Y-92200000D02*
X130013283Y-92311910D01*
X130880000Y-92200000D02*
X130125193Y-92200000D01*
X130013283Y-92311910D02*
X129813284Y-92511909D01*
X118790000Y-91210000D02*
X120670000Y-91210000D01*
X120670000Y-91210000D02*
X120880000Y-91000000D01*
X112590000Y-91210000D02*
X118790000Y-91210000D01*
X129502795Y-95719437D02*
X130531392Y-96748034D01*
X130531392Y-96748034D02*
X145552054Y-96748034D01*
X150540000Y-105820000D02*
X150540000Y-106560000D01*
X150540000Y-100668733D02*
X150540000Y-105820000D01*
X148547246Y-98675979D02*
X150540000Y-100668733D01*
X129702002Y-93402562D02*
X129502795Y-93601769D01*
X145552054Y-96748034D02*
X147479999Y-98675979D01*
X129502795Y-93601769D02*
X129502795Y-95719437D01*
X129702002Y-93226237D02*
X129702002Y-93402562D01*
X130705001Y-92825001D02*
X130103238Y-92825001D01*
X130880000Y-93000000D02*
X130705001Y-92825001D01*
X130103238Y-92825001D02*
X129702002Y-93226237D01*
X147479999Y-98675979D02*
X148547246Y-98675979D01*
X144340000Y-106560000D02*
X150540000Y-106560000D01*
X167200000Y-105820000D02*
X167200000Y-106560000D01*
X145945984Y-95797001D02*
X147873929Y-97724946D01*
X152969032Y-101689032D02*
X163069032Y-101689032D01*
X149004946Y-97724946D02*
X152969032Y-101689032D01*
X147873929Y-97724946D02*
X149004946Y-97724946D01*
X132077001Y-95797001D02*
X145945984Y-95797001D01*
X163069032Y-101689032D02*
X167200000Y-105820000D01*
X131680000Y-95400000D02*
X132077001Y-95797001D01*
X167200000Y-106560000D02*
X173400000Y-106560000D01*
X130480000Y-95800000D02*
X130480000Y-95000000D01*
X130705001Y-94774999D02*
X130880000Y-94600000D01*
X130794012Y-96114012D02*
X130480000Y-95800000D01*
X153407909Y-102640000D02*
X148809866Y-98041957D01*
X130480000Y-95000000D02*
X130705001Y-94774999D01*
X147742619Y-98041957D02*
X145814674Y-96114012D01*
X148809866Y-98041957D02*
X147742619Y-98041957D01*
X145814674Y-96114012D02*
X130794012Y-96114012D01*
X155770000Y-102640000D02*
X153407909Y-102640000D01*
X138880000Y-82600000D02*
X139280000Y-82200000D01*
D36*
X155770000Y-102640000D02*
X161970000Y-102640000D01*
X142080000Y-90600000D02*
X142480000Y-91000000D01*
X142254999Y-84025001D02*
X142480000Y-83800000D01*
X142080000Y-84200000D02*
X142254999Y-84025001D01*
X134880000Y-84200000D02*
X134480000Y-83800000D01*
X134880000Y-90600000D02*
X134480000Y-91000000D01*
D37*
X134080000Y-91400000D02*
X133680000Y-91800000D01*
X134080000Y-92200000D02*
X133680000Y-92600000D01*
X132918584Y-104800000D02*
X129683390Y-104800000D01*
X129683390Y-104800000D02*
X129563728Y-104680338D01*
X133685668Y-93394332D02*
X133685668Y-93402482D01*
X134080000Y-93000000D02*
X133685668Y-93394332D01*
X133280000Y-93800000D02*
X132882927Y-94197073D01*
X132882927Y-94197073D02*
X132846234Y-94197073D01*
D36*
X122480000Y-62900000D02*
X119870000Y-62900000D01*
X119870000Y-62900000D02*
X119610000Y-62640000D01*
D37*
X146078857Y-65416227D02*
X145851858Y-65189228D01*
X148480000Y-67817370D02*
X146078857Y-65416227D01*
X148480000Y-70600000D02*
X148480000Y-67817370D01*
X148480000Y-70600000D02*
X148480000Y-73085000D01*
X148480000Y-73085000D02*
X148880000Y-73485000D01*
X146100728Y-64147848D02*
X145873729Y-63920849D01*
X148980000Y-67027120D02*
X146100728Y-64147848D01*
X148980000Y-70600000D02*
X148980000Y-67027120D01*
X144180000Y-63400000D02*
X143680000Y-63900000D01*
X148880000Y-63400000D02*
X144180000Y-63400000D01*
X149980000Y-64500000D02*
X148880000Y-63400000D01*
X149980000Y-70935398D02*
X149980000Y-64500000D01*
X152280000Y-73235398D02*
X149980000Y-70935398D01*
X152280000Y-74400000D02*
X152280000Y-73235398D01*
X149280000Y-74400000D02*
X152280000Y-74400000D01*
X148280000Y-75400000D02*
X149280000Y-74400000D01*
X148280000Y-80200000D02*
X148280000Y-75400000D01*
X147780000Y-80700000D02*
X148280000Y-80200000D01*
X147480000Y-81000000D02*
X147780000Y-80700000D01*
X146080000Y-81000000D02*
X147480000Y-81000000D01*
X139680000Y-81800000D02*
X140080000Y-81400000D01*
X155770000Y-98940000D02*
X161970000Y-98940000D01*
D36*
X167200000Y-110260000D02*
X173400000Y-110260000D01*
X161970000Y-110260000D02*
X167200000Y-110260000D01*
X155770000Y-110260000D02*
X161970000Y-110260000D01*
X150540000Y-110260000D02*
X155770000Y-110260000D01*
X144340000Y-110260000D02*
X150540000Y-110260000D01*
X112590000Y-87510000D02*
X118790000Y-87510000D01*
X107360000Y-87510000D02*
X112590000Y-87510000D01*
X101160000Y-87510000D02*
X107360000Y-87510000D01*
D37*
X117280000Y-96778472D02*
X124141290Y-89917182D01*
X129221535Y-86211351D02*
X129373612Y-86363428D01*
X117280000Y-97600000D02*
X117280000Y-96778472D01*
X127355365Y-86211351D02*
X129221535Y-86211351D01*
X124141290Y-89917182D02*
X124141290Y-89425426D01*
X124141290Y-89425426D02*
X127355365Y-86211351D01*
X132480000Y-86600000D02*
X132080000Y-86200000D01*
X117130000Y-99520000D02*
X117130000Y-97750000D01*
X117130000Y-97750000D02*
X117280000Y-97600000D01*
X130632513Y-86600000D02*
X130880000Y-86600000D01*
X124458301Y-89556736D02*
X127486675Y-86528362D01*
X129746962Y-86600000D02*
X130632513Y-86600000D01*
X119260183Y-95251607D02*
X124458301Y-90053489D01*
X119260183Y-96350895D02*
X119260183Y-95251607D01*
X127486675Y-86528362D02*
X128941733Y-86528362D01*
X129256876Y-86843506D02*
X129503456Y-86843506D01*
X129503456Y-86843506D02*
X129746962Y-86600000D01*
X124458301Y-90053489D02*
X124458301Y-89556736D01*
X128941733Y-86528362D02*
X129256876Y-86843506D01*
X119330000Y-96420712D02*
X119260183Y-96350895D01*
X119330000Y-99520000D02*
X119330000Y-96420712D01*
X131680000Y-87400000D02*
X131280000Y-87000000D01*
X129632848Y-87162435D02*
X129127485Y-87162435D01*
X124775312Y-89688046D02*
X124775312Y-90184799D01*
X129795283Y-87000000D02*
X129632848Y-87162435D01*
X129127485Y-87162435D02*
X128810423Y-86845373D01*
X119936192Y-95323884D02*
X119709193Y-95550883D01*
X127617985Y-86845373D02*
X124775312Y-89688046D01*
X119936192Y-95023918D02*
X119936192Y-95323884D01*
X124775312Y-90184799D02*
X119936192Y-95023918D01*
X128810423Y-86845373D02*
X127617985Y-86845373D01*
X131280000Y-87000000D02*
X129795283Y-87000000D01*
X121530000Y-99520000D02*
X121530000Y-97050664D01*
X120030219Y-95550883D02*
X119709193Y-95550883D01*
X121530000Y-97050664D02*
X120030219Y-95550883D01*
X120861034Y-94750605D02*
X120634035Y-94977604D01*
X130553067Y-87479446D02*
X128996175Y-87479446D01*
X130632513Y-87400000D02*
X130553067Y-87479446D01*
X128996175Y-87479446D02*
X128679113Y-87162384D01*
X128679113Y-87162384D02*
X127749295Y-87162384D01*
X127749295Y-87162384D02*
X125092323Y-89819356D01*
X125092323Y-90519316D02*
X120861034Y-94750605D01*
X125092323Y-89819356D02*
X125092323Y-90519316D01*
X130880000Y-87400000D02*
X130632513Y-87400000D01*
X122630000Y-99520000D02*
X122630000Y-96973569D01*
X122630000Y-96973569D02*
X120861034Y-95204603D01*
X120861034Y-95204603D02*
X120634035Y-94977604D01*
X147480000Y-70600000D02*
X147480000Y-77539168D01*
X147480000Y-77539168D02*
X147480000Y-77822010D01*
X146387166Y-78201833D02*
X146387166Y-77918991D01*
X145280000Y-80200000D02*
X146387166Y-79092834D01*
X146387166Y-79092834D02*
X146387166Y-78201833D01*
X131453853Y-103296209D02*
X130935246Y-102777602D01*
X130935246Y-102777602D02*
X130830222Y-102777602D01*
X127480000Y-99427380D02*
X127480000Y-94266169D01*
X130830222Y-102777602D02*
X127480000Y-99427380D01*
X127480000Y-94266169D02*
X127272943Y-94059112D01*
X127272943Y-94059112D02*
X127272943Y-92340888D01*
X127272943Y-92340888D02*
X127377934Y-92235897D01*
X129152304Y-89800000D02*
X129577896Y-89800000D01*
X127377934Y-92235897D02*
X127377934Y-90671992D01*
X127377934Y-90671992D02*
X128248485Y-89801441D01*
X128248485Y-89801441D02*
X129150863Y-89801441D01*
X129150863Y-89801441D02*
X129152304Y-89800000D01*
X129577896Y-89800000D02*
X130880000Y-89800000D01*
X149340862Y-85924364D02*
X149417266Y-86000768D01*
X166279232Y-86000768D02*
X168280000Y-84000000D01*
X168280000Y-84000000D02*
X168280000Y-82910000D01*
X145682999Y-86197001D02*
X146245505Y-86197001D01*
X146245505Y-86197001D02*
X146518142Y-85924364D01*
X149417266Y-86000768D02*
X166279232Y-86000768D01*
X168280000Y-82910000D02*
X168280000Y-82270000D01*
X146518142Y-85924364D02*
X149340862Y-85924364D01*
X145280000Y-86600000D02*
X145682999Y-86197001D01*
X145680000Y-87800000D02*
X146225446Y-87800000D01*
X172280000Y-83800000D02*
X172280000Y-82910000D01*
X148892026Y-87268812D02*
X168811188Y-87268812D01*
X168811188Y-87268812D02*
X172280000Y-83800000D01*
X146225446Y-87800000D02*
X146264886Y-87760560D01*
X145280000Y-88200000D02*
X145680000Y-87800000D01*
X146500286Y-87760560D02*
X147068438Y-87192408D01*
X147068438Y-87192408D02*
X148815622Y-87192408D01*
X148815622Y-87192408D02*
X148892026Y-87268812D01*
X146264886Y-87760560D02*
X146500286Y-87760560D01*
X172280000Y-82910000D02*
X172280000Y-82270000D01*
X146254999Y-81625001D02*
X146080000Y-81800000D01*
X155480000Y-82270000D02*
X155480000Y-81630000D01*
X146362915Y-81517085D02*
X146254999Y-81625001D01*
X148631914Y-81517085D02*
X146362915Y-81517085D01*
X148739830Y-81625001D02*
X148631914Y-81517085D01*
X149711770Y-81400000D02*
X149486769Y-81625001D01*
X149486769Y-81625001D02*
X148739830Y-81625001D01*
X155480000Y-81630000D02*
X155250000Y-81400000D01*
X155250000Y-81400000D02*
X149711770Y-81400000D01*
X145280000Y-92200000D02*
X145680000Y-91800000D01*
X168111911Y-90121911D02*
X170680000Y-92690000D01*
X145680000Y-91800000D02*
X146918828Y-91800000D01*
X147242140Y-91476687D02*
X151817143Y-91476687D01*
X151817143Y-91476687D02*
X153171919Y-90121911D01*
X153171919Y-90121911D02*
X168111911Y-90121911D01*
X170680000Y-92690000D02*
X170680000Y-93330000D01*
X146918828Y-91800000D02*
X147242140Y-91476687D01*
X163930988Y-92340988D02*
X154091089Y-92340988D01*
X152637963Y-93794114D02*
X149540087Y-93794114D01*
X164280000Y-92690000D02*
X163930988Y-92340988D01*
X149540087Y-93794114D02*
X148653935Y-94680266D01*
X164280000Y-93330000D02*
X164280000Y-92690000D01*
X154091089Y-92340988D02*
X152637963Y-93794114D01*
X148653935Y-94918923D02*
X148653935Y-95239949D01*
X148653935Y-94680266D02*
X148653935Y-94918923D01*
X144480000Y-90600000D02*
X144885216Y-91005216D01*
X144885216Y-91005216D02*
X144885216Y-91021238D01*
X146631596Y-88077571D02*
X147199748Y-87509419D01*
X146273767Y-88200000D02*
X146396196Y-88077571D01*
X148684312Y-87509419D02*
X148760716Y-87585823D01*
X169094177Y-87585823D02*
X173080000Y-83600000D01*
X148760716Y-87585823D02*
X169094177Y-87585823D01*
X146080000Y-88200000D02*
X146273767Y-88200000D01*
X146396196Y-88077571D02*
X146631596Y-88077571D01*
X173080000Y-82910000D02*
X173080000Y-82270000D01*
X147199748Y-87509419D02*
X148684312Y-87509419D01*
X173080000Y-83600000D02*
X173080000Y-82910000D01*
X167480000Y-84000000D02*
X167480000Y-82910000D01*
X167480000Y-82910000D02*
X167480000Y-82270000D01*
X146080000Y-85800000D02*
X146272647Y-85607353D01*
X148913995Y-85536912D02*
X165943088Y-85536912D01*
X148843554Y-85607353D02*
X148913995Y-85536912D01*
X146272647Y-85607353D02*
X148843554Y-85607353D01*
X165943088Y-85536912D02*
X167480000Y-84000000D01*
X147317377Y-82272662D02*
X153104739Y-82272662D01*
X146080000Y-82600000D02*
X146990039Y-82600000D01*
X146990039Y-82600000D02*
X147317377Y-82272662D01*
X153104739Y-82272662D02*
X154091089Y-83259012D01*
X154091089Y-83259012D02*
X156868911Y-83259012D01*
X156868911Y-83259012D02*
X157115977Y-83011946D01*
X157115977Y-83011946D02*
X157778054Y-83011946D01*
X157778054Y-83011946D02*
X157880000Y-82910000D01*
X157880000Y-82910000D02*
X157880000Y-82270000D01*
X146401171Y-92126316D02*
X147040833Y-92126316D01*
X147040833Y-92126316D02*
X147373450Y-91793698D01*
X153303229Y-90438922D02*
X167628922Y-90438922D01*
X151948453Y-91793698D02*
X153303229Y-90438922D01*
X147373450Y-91793698D02*
X151948453Y-91793698D01*
X146327487Y-92200000D02*
X146401171Y-92126316D01*
X146080000Y-92200000D02*
X146327487Y-92200000D01*
X167628922Y-90438922D02*
X169880000Y-92690000D01*
X169880000Y-92690000D02*
X169880000Y-93330000D01*
X152769273Y-94111125D02*
X149887600Y-94111125D01*
X149846857Y-94151868D02*
X149619858Y-94378867D01*
X154222399Y-92657999D02*
X152769273Y-94111125D01*
X162680000Y-92690000D02*
X162647999Y-92657999D01*
X162680000Y-93330000D02*
X162680000Y-92690000D01*
X162647999Y-92657999D02*
X154222399Y-92657999D01*
X149887600Y-94111125D02*
X149846857Y-94151868D01*
X144812858Y-90132858D02*
X144885689Y-90132858D01*
X144480000Y-89800000D02*
X144812858Y-90132858D01*
X148629406Y-87902834D02*
X169977166Y-87902834D01*
X145280000Y-89000000D02*
X145680000Y-88600000D01*
X145680000Y-88600000D02*
X146322088Y-88600000D01*
X146322088Y-88600000D02*
X146527506Y-88394582D01*
X146762906Y-88394582D02*
X147331058Y-87826430D01*
X173880000Y-82910000D02*
X173880000Y-82270000D01*
X173880000Y-84000000D02*
X173880000Y-82910000D01*
X148553002Y-87826430D02*
X148629406Y-87902834D01*
X147331058Y-87826430D02*
X148553002Y-87826430D01*
X146527506Y-88394582D02*
X146762906Y-88394582D01*
X169977166Y-87902834D02*
X173880000Y-84000000D01*
X157080000Y-82270000D02*
X157080000Y-82599602D01*
X145454999Y-82425001D02*
X145280000Y-82600000D01*
X157080000Y-82599602D02*
X156737601Y-82942001D01*
X145677001Y-82202999D02*
X145454999Y-82425001D01*
X156737601Y-82942001D02*
X154222399Y-82942001D01*
X154222399Y-82942001D02*
X153236049Y-81955651D01*
X153236049Y-81955651D02*
X147186068Y-81955651D01*
X147186068Y-81955651D02*
X146938720Y-82202999D01*
X146938720Y-82202999D02*
X145677001Y-82202999D01*
X146080000Y-86600000D02*
X146315883Y-86600000D01*
X149209552Y-86241375D02*
X149285956Y-86317779D01*
X149285956Y-86317779D02*
X166472221Y-86317779D01*
X166472221Y-86317779D02*
X169880000Y-82910000D01*
X146315883Y-86600000D02*
X146674508Y-86241375D01*
X146674508Y-86241375D02*
X149209552Y-86241375D01*
X169880000Y-82910000D02*
X169880000Y-82270000D01*
X147448687Y-82589673D02*
X148371001Y-82589673D01*
X148371001Y-82589673D02*
X148913883Y-83132555D01*
X148913883Y-83132555D02*
X149212103Y-83132555D01*
X145682999Y-82997001D02*
X147041359Y-82997001D01*
X157000224Y-83576020D02*
X157247286Y-83328957D01*
X149655568Y-83576020D02*
X157000224Y-83576020D01*
X145280000Y-83400000D02*
X145682999Y-82997001D01*
X149212103Y-83132555D02*
X149655568Y-83576020D01*
X157247286Y-83328957D02*
X159061043Y-83328957D01*
X159061043Y-83328957D02*
X159480000Y-82910000D01*
X159480000Y-82910000D02*
X159480000Y-82270000D01*
X147041359Y-82997001D02*
X147448687Y-82589673D01*
D38*
X151122160Y-97331923D02*
X150895161Y-97104924D01*
X161880000Y-93980000D02*
X158446195Y-97413805D01*
X151204042Y-97413805D02*
X151122160Y-97331923D01*
X161880000Y-93330000D02*
X161880000Y-93980000D01*
X158446195Y-97413805D02*
X151204042Y-97413805D01*
X144480000Y-84200000D02*
X144813978Y-83866022D01*
X144813978Y-83866022D02*
X144890381Y-83866022D01*
D37*
X146647147Y-88723263D02*
X147745966Y-88723263D01*
X152384059Y-88219845D02*
X170260155Y-88219845D01*
X146080000Y-89000000D02*
X146370410Y-89000000D01*
X147757644Y-88711585D02*
X151892319Y-88711585D01*
X147745966Y-88723263D02*
X147757644Y-88711585D01*
X146370410Y-89000000D02*
X146647147Y-88723263D01*
X170260155Y-88219845D02*
X174680000Y-83800000D01*
X174680000Y-83800000D02*
X174680000Y-82910000D01*
X151892319Y-88711585D02*
X152384059Y-88219845D01*
X174680000Y-82910000D02*
X174680000Y-82270000D01*
X168594900Y-89804900D02*
X171480000Y-92690000D01*
X146080000Y-91400000D02*
X146320324Y-91159676D01*
X151685833Y-91159676D02*
X153040609Y-89804900D01*
X171480000Y-92690000D02*
X171480000Y-93330000D01*
X153040609Y-89804900D02*
X168594900Y-89804900D01*
X146320324Y-91159676D02*
X151685833Y-91159676D01*
X146080000Y-83400000D02*
X147086681Y-83400000D01*
X159544032Y-83645968D02*
X160280000Y-82910000D01*
X148782573Y-83449566D02*
X148936583Y-83449566D01*
X147086681Y-83400000D02*
X147579997Y-82906684D01*
X160280000Y-82910000D02*
X160280000Y-82270000D01*
X148239691Y-82906684D02*
X148782573Y-83449566D01*
X147579997Y-82906684D02*
X148239691Y-82906684D01*
X148936583Y-83449566D02*
X149380048Y-83893031D01*
X157131535Y-83893030D02*
X157378597Y-83645968D01*
X157378597Y-83645968D02*
X159544032Y-83645968D01*
X149380048Y-83893031D02*
X157131535Y-83893030D01*
X174680000Y-92690000D02*
X174680000Y-93330000D01*
X146778456Y-89040274D02*
X147877276Y-89040274D01*
X152515369Y-88536856D02*
X170526856Y-88536856D01*
X152023629Y-89028596D02*
X152515369Y-88536856D01*
X147888954Y-89028596D02*
X152023629Y-89028596D01*
X147877276Y-89040274D02*
X147888954Y-89028596D01*
X145280000Y-89800000D02*
X145680000Y-89400000D01*
X170526856Y-88536856D02*
X174680000Y-92690000D01*
X146418730Y-89400000D02*
X146778456Y-89040274D01*
X145680000Y-89400000D02*
X146418730Y-89400000D01*
X151986546Y-97084813D02*
X151653923Y-96752190D01*
X157165187Y-97084813D02*
X151986546Y-97084813D01*
X160280000Y-93970000D02*
X157165187Y-97084813D01*
X151653923Y-96752190D02*
X151426924Y-96525191D01*
X160280000Y-93330000D02*
X160280000Y-93970000D01*
D38*
X144480000Y-83400000D02*
X144857990Y-83022010D01*
X144857990Y-83022010D02*
X144894101Y-83022010D01*
D37*
X148635381Y-83750695D02*
X148651263Y-83766577D01*
X147110126Y-83802561D02*
X147161992Y-83750695D01*
X148651263Y-83766577D02*
X148805273Y-83766577D01*
X147161992Y-83750695D02*
X148635381Y-83750695D01*
X148805273Y-83766577D02*
X149248738Y-84210042D01*
X145280000Y-84200000D02*
X145677439Y-83802561D01*
X145677439Y-83802561D02*
X147110126Y-83802561D01*
X160579958Y-84210042D02*
X161880000Y-82910000D01*
X161880000Y-82910000D02*
X161880000Y-82270000D01*
X149248738Y-84210042D02*
X160579958Y-84210042D01*
X147277818Y-84072002D02*
X148508367Y-84072002D01*
X146080000Y-84200000D02*
X147149820Y-84200000D01*
X161062947Y-84527053D02*
X162680000Y-82910000D01*
X148519953Y-84083588D02*
X148673489Y-84083588D01*
X147149820Y-84200000D02*
X147277818Y-84072002D01*
X148508367Y-84072002D02*
X148519953Y-84083588D01*
X148673489Y-84083588D02*
X149116954Y-84527053D01*
X149116954Y-84527053D02*
X161062947Y-84527053D01*
X162680000Y-82910000D02*
X162680000Y-82270000D01*
X170680000Y-82910000D02*
X170680000Y-82270000D01*
X145280000Y-87400000D02*
X145680000Y-87000000D01*
X145680000Y-87000000D02*
X146364204Y-87000000D01*
X149078242Y-86558386D02*
X149154646Y-86634790D01*
X167845210Y-86634790D02*
X170680000Y-83800000D01*
X170680000Y-83800000D02*
X170680000Y-82910000D01*
X146364204Y-87000000D02*
X146805818Y-86558386D01*
X149154646Y-86634790D02*
X167845210Y-86634790D01*
X146805818Y-86558386D02*
X149078242Y-86558386D01*
X150940232Y-96076190D02*
X150745911Y-96270511D01*
X151642244Y-96076190D02*
X150940232Y-96076190D01*
X150745911Y-96270511D02*
X150518912Y-96497510D01*
X152076873Y-96510819D02*
X151642244Y-96076190D01*
X159480000Y-93970000D02*
X156939181Y-96510819D01*
X156939181Y-96510819D02*
X152076873Y-96510819D01*
X159480000Y-93330000D02*
X159480000Y-93970000D01*
X144811264Y-86268736D02*
X144901285Y-86268736D01*
X144480000Y-86600000D02*
X144811264Y-86268736D01*
X148719677Y-84844064D02*
X162345936Y-84844064D01*
X145280000Y-85000000D02*
X145682999Y-84597001D01*
X147814250Y-84389013D02*
X148019026Y-84593789D01*
X145682999Y-84597001D02*
X147201140Y-84597001D01*
X162345936Y-84844064D02*
X164280000Y-82910000D01*
X147409128Y-84389013D02*
X147814250Y-84389013D01*
X147201140Y-84597001D02*
X147409128Y-84389013D01*
X148019026Y-84593789D02*
X148019026Y-84700713D01*
X148019026Y-84700713D02*
X148238466Y-84920153D01*
X148643588Y-84920153D02*
X148719677Y-84844064D01*
X148238466Y-84920153D02*
X148643588Y-84920153D01*
X164280000Y-82910000D02*
X164280000Y-82270000D01*
X146937128Y-86875397D02*
X148946932Y-86875397D01*
X149023336Y-86951801D02*
X168420465Y-86951801D01*
X148946932Y-86875397D02*
X149023336Y-86951801D01*
X146080000Y-87400000D02*
X146412525Y-87400000D01*
X171480000Y-83892266D02*
X171480000Y-82910000D01*
X146412525Y-87400000D02*
X146937128Y-86875397D01*
X168420465Y-86951801D02*
X171480000Y-83892266D01*
X171480000Y-82910000D02*
X171480000Y-82270000D01*
X146909766Y-89357285D02*
X148008586Y-89357285D01*
X173880000Y-92690000D02*
X173880000Y-93330000D01*
X146467051Y-89800000D02*
X146909766Y-89357285D01*
X152646679Y-88853867D02*
X170043867Y-88853867D01*
X170043867Y-88853867D02*
X173880000Y-92690000D01*
X146080000Y-89800000D02*
X146467051Y-89800000D01*
X148020264Y-89345607D02*
X152154939Y-89345607D01*
X152154939Y-89345607D02*
X152646679Y-88853867D01*
X148008586Y-89357285D02*
X148020264Y-89345607D01*
X173080000Y-92351680D02*
X173080000Y-92690000D01*
X169899199Y-89170878D02*
X173080000Y-92351680D01*
X173080000Y-92690000D02*
X173080000Y-93330000D01*
X145678704Y-90201296D02*
X147580172Y-90201296D01*
X145280000Y-90600000D02*
X145678704Y-90201296D01*
X147830316Y-89951152D02*
X151997715Y-89951152D01*
X152777989Y-89170878D02*
X169899199Y-89170878D01*
X151997715Y-89951152D02*
X152777989Y-89170878D01*
X147580172Y-90201296D02*
X147830316Y-89951152D01*
X146080000Y-90600000D02*
X147648812Y-90600000D01*
X147648812Y-90600000D02*
X147980649Y-90268163D01*
X147980649Y-90268163D02*
X152129025Y-90268163D01*
X152909299Y-89487889D02*
X169767889Y-89487889D01*
X152129025Y-90268163D02*
X152909299Y-89487889D01*
X169767889Y-89487889D02*
X172280000Y-92000000D01*
X172280000Y-92000000D02*
X172280000Y-92690000D01*
X172280000Y-92690000D02*
X172280000Y-93330000D01*
X157880000Y-93330000D02*
X157880000Y-93970000D01*
X150424860Y-95786258D02*
X150197861Y-96013257D01*
X151148960Y-95062158D02*
X150424860Y-95786258D01*
X156787842Y-95062158D02*
X151148960Y-95062158D01*
X157880000Y-93970000D02*
X156787842Y-95062158D01*
X144886183Y-86993817D02*
X144888562Y-86993817D01*
X144480000Y-87400000D02*
X144886183Y-86993817D01*
X150772922Y-94745147D02*
X150299034Y-95219035D01*
X150299034Y-95219035D02*
X150072035Y-95446034D01*
X156304853Y-94745147D02*
X150772922Y-94745147D01*
X157080000Y-93970000D02*
X156304853Y-94745147D01*
X157080000Y-93330000D02*
X157080000Y-93970000D01*
X144877648Y-88597648D02*
X144877648Y-88622010D01*
X144480000Y-88200000D02*
X144877648Y-88597648D01*
X155480000Y-93970000D02*
X155038334Y-94411666D01*
X152900583Y-94428136D02*
X150295296Y-94428136D01*
X155480000Y-93330000D02*
X155480000Y-93970000D01*
X152917053Y-94411666D02*
X152900583Y-94428136D01*
X150006240Y-94717192D02*
X149779241Y-94944191D01*
X155038334Y-94411666D02*
X152917053Y-94411666D01*
X150295296Y-94428136D02*
X150006240Y-94717192D01*
X144768847Y-89288847D02*
X144869421Y-89288847D01*
X144480000Y-89000000D02*
X144768847Y-89288847D01*
X152506653Y-93477103D02*
X148782154Y-93477103D01*
X148498639Y-93760618D02*
X148431270Y-93760618D01*
X165880000Y-93330000D02*
X165880000Y-92690000D01*
X153959779Y-92023977D02*
X152506653Y-93477103D01*
X165213977Y-92023977D02*
X153959779Y-92023977D01*
X165880000Y-92690000D02*
X165213977Y-92023977D01*
X148431270Y-93760618D02*
X148110244Y-93760618D01*
X148782154Y-93477103D02*
X148498639Y-93760618D01*
X144882782Y-91802782D02*
X144882782Y-91877646D01*
X144480000Y-91400000D02*
X144882782Y-91802782D01*
X153434539Y-90755933D02*
X167145933Y-90755933D01*
X169080000Y-92690000D02*
X169080000Y-93330000D01*
X145280000Y-93000000D02*
X145680000Y-92600000D01*
X145680000Y-92600000D02*
X146923298Y-92600000D01*
X147172143Y-92443327D02*
X147504760Y-92110709D01*
X147079971Y-92443327D02*
X147172143Y-92443327D01*
X146923298Y-92600000D02*
X147079971Y-92443327D01*
X167145933Y-90755933D02*
X169080000Y-92690000D01*
X152079763Y-92110709D02*
X153434539Y-90755933D01*
X147504760Y-92110709D02*
X152079763Y-92110709D01*
X152211073Y-92427720D02*
X153565849Y-91072944D01*
X166662944Y-91072944D02*
X168280000Y-92690000D01*
X147636070Y-92427720D02*
X152211073Y-92427720D01*
X153565849Y-91072944D02*
X166662944Y-91072944D01*
X147211281Y-92760338D02*
X147303452Y-92760338D01*
X147303452Y-92760338D02*
X147636070Y-92427720D01*
X146080000Y-93000000D02*
X146971619Y-93000000D01*
X146971619Y-93000000D02*
X147211281Y-92760338D01*
X168280000Y-92690000D02*
X168280000Y-93330000D01*
X166680000Y-82910000D02*
X166680000Y-82270000D01*
X146080000Y-85000000D02*
X146317162Y-85237162D01*
X146317162Y-85237162D02*
X148774888Y-85237162D01*
X148774888Y-85237162D02*
X148835089Y-85176961D01*
X164413039Y-85176961D02*
X166680000Y-82910000D01*
X148835089Y-85176961D02*
X164413039Y-85176961D01*
X147402091Y-93110020D02*
X147402091Y-93209005D01*
X166179955Y-91389955D02*
X153697159Y-91389955D01*
X167480000Y-93330000D02*
X167480000Y-92690000D01*
X147767380Y-92744731D02*
X147402091Y-93110020D01*
X167480000Y-92690000D02*
X166179955Y-91389955D01*
X153697159Y-91389955D02*
X152342383Y-92744731D01*
X152342383Y-92744731D02*
X147767380Y-92744731D01*
X143680000Y-92200000D02*
X144080000Y-92600000D01*
X153828469Y-91706966D02*
X152375343Y-93160092D01*
X166680000Y-92690000D02*
X165696966Y-91706966D01*
X148303928Y-93193733D02*
X147982902Y-93193733D01*
X148337569Y-93160092D02*
X148303928Y-93193733D01*
X152375343Y-93160092D02*
X148337569Y-93160092D01*
X166680000Y-93330000D02*
X166680000Y-92690000D01*
X165696966Y-91706966D02*
X153828469Y-91706966D01*
X144857990Y-92577990D02*
X144882352Y-92577990D01*
X144480000Y-92200000D02*
X144857990Y-92577990D01*
X131191207Y-95231552D02*
X131191207Y-95514394D01*
X131191207Y-95088793D02*
X131191207Y-95231552D01*
X131680000Y-94600000D02*
X131191207Y-95088793D01*
X131280000Y-93400000D02*
X130419995Y-93400000D01*
X131680000Y-93800000D02*
X131280000Y-93400000D01*
X130419995Y-93400000D02*
X130406718Y-93413277D01*
X130406718Y-93413277D02*
X130123876Y-93413277D01*
X132080000Y-93400000D02*
X132480000Y-93000000D01*
X129280000Y-92400000D02*
X129280000Y-93200000D01*
X129480000Y-92200000D02*
X129280000Y-92400000D01*
X129880000Y-91800000D02*
X129480000Y-92200000D01*
X131280000Y-91800000D02*
X129880000Y-91800000D01*
X131680000Y-91400000D02*
X131280000Y-91800000D01*
X132480000Y-93800000D02*
X132080000Y-94200000D01*
X128450514Y-97028829D02*
X128450514Y-93891719D01*
X131505001Y-90774999D02*
X131680000Y-90600000D01*
X129743988Y-90784657D02*
X129956418Y-90997087D01*
X129079720Y-90784657D02*
X129743988Y-90784657D01*
X129047537Y-90752474D02*
X129079720Y-90784657D01*
X128642415Y-90752474D02*
X129047537Y-90752474D01*
X135054253Y-98411853D02*
X129833538Y-98411853D01*
X137280000Y-100790000D02*
X137280000Y-100637600D01*
X128450514Y-93891719D02*
X128223976Y-93665182D01*
X128223976Y-93665182D02*
X128223976Y-92734818D01*
X128328967Y-91065922D02*
X128642415Y-90752474D01*
X128223976Y-92734818D02*
X128328967Y-92629827D01*
X137280000Y-100637600D02*
X135054253Y-98411853D01*
X129956418Y-90997087D02*
X131282913Y-90997087D01*
X128328967Y-92629827D02*
X128328967Y-91065922D01*
X131282913Y-90997087D02*
X131505001Y-90774999D01*
X129833538Y-98411853D02*
X128450514Y-97028829D01*
X134740000Y-100637600D02*
X132831264Y-98728864D01*
X129875298Y-90467646D02*
X130007652Y-90600000D01*
X128511105Y-90435463D02*
X129178847Y-90435463D01*
X128011956Y-90934612D02*
X128511105Y-90435463D01*
X128011956Y-92498517D02*
X128011956Y-90934612D01*
X129211030Y-90467646D02*
X129875298Y-90467646D01*
X128133503Y-94023030D02*
X127906965Y-93796492D01*
X129702228Y-98728864D02*
X128133503Y-97160139D01*
X132831264Y-98728864D02*
X129702228Y-98728864D01*
X127906965Y-93796492D02*
X127906965Y-92603508D01*
X130632513Y-90600000D02*
X130880000Y-90600000D01*
X134740000Y-100790000D02*
X134740000Y-100637600D01*
X127906965Y-92603508D02*
X128011956Y-92498517D01*
X129178847Y-90435463D02*
X129211030Y-90467646D01*
X128133503Y-97160139D02*
X128133503Y-94023030D01*
X130007652Y-90600000D02*
X130632513Y-90600000D01*
X127816492Y-94154339D02*
X127816492Y-97291449D01*
X128379795Y-90118452D02*
X127694945Y-90803302D01*
X131146400Y-99584000D02*
X132200000Y-100637600D01*
X130109043Y-99584000D02*
X131146400Y-99584000D01*
X130006608Y-90150635D02*
X129342340Y-90150635D01*
X131680000Y-89800000D02*
X131277001Y-90202999D01*
X131277001Y-90202999D02*
X130058972Y-90202999D01*
X127816492Y-97291449D02*
X130109043Y-99584000D01*
X127589954Y-92472198D02*
X127589954Y-93927802D01*
X132200000Y-100637600D02*
X132200000Y-100790000D01*
X130058972Y-90202999D02*
X130006608Y-90150635D01*
X129310157Y-90118452D02*
X128379795Y-90118452D01*
X127694945Y-92367207D02*
X127589954Y-92472198D01*
X129342340Y-90150635D02*
X129310157Y-90118452D01*
X127589954Y-93927802D02*
X127816492Y-94154339D01*
X127694945Y-90803302D02*
X127694945Y-92367207D01*
X128849839Y-84887829D02*
X128649840Y-85087828D01*
X129137668Y-84600000D02*
X128849839Y-84887829D01*
X131680000Y-85000000D02*
X131280000Y-84600000D01*
X131280000Y-84600000D02*
X129137668Y-84600000D01*
X130839486Y-103354982D02*
X127162990Y-99678486D01*
X129019183Y-89484430D02*
X129212070Y-89291543D01*
X127060923Y-90540682D02*
X128117175Y-89484430D01*
X128117175Y-89484430D02*
X129019183Y-89484430D01*
X127162990Y-94397479D02*
X126955932Y-94190422D01*
X127060923Y-92104587D02*
X127060923Y-90540682D01*
X126955932Y-92209578D02*
X127060923Y-92104587D01*
X126955932Y-94190422D02*
X126955932Y-92209578D01*
X127162990Y-99678486D02*
X127162990Y-94397479D01*
X132080000Y-89400000D02*
X132080000Y-89444020D01*
X132480000Y-89000000D02*
X132080000Y-89400000D01*
X133280000Y-86600000D02*
X132880000Y-86200000D01*
X126638921Y-92078268D02*
X126743912Y-91973277D01*
X129414632Y-88869541D02*
X129545091Y-89000000D01*
X129545091Y-89000000D02*
X130632513Y-89000000D01*
X126638921Y-94321732D02*
X126638921Y-92078268D01*
X129009508Y-88869541D02*
X129414632Y-88869541D01*
X126845979Y-100883137D02*
X126845979Y-94528790D01*
X130632513Y-89000000D02*
X130880000Y-89000000D01*
X128711630Y-89167419D02*
X129009508Y-88869541D01*
X126743912Y-91973277D02*
X126743912Y-90409372D01*
X126845979Y-94528790D02*
X126638921Y-94321732D01*
X129880000Y-103917158D02*
X126845979Y-100883137D01*
X127985865Y-89167419D02*
X128711630Y-89167419D01*
X129880000Y-104200000D02*
X129880000Y-103917158D01*
X126743912Y-90409372D02*
X127985865Y-89167419D01*
X126426901Y-91841967D02*
X126426901Y-90278062D01*
X126321910Y-94453042D02*
X126321910Y-91946958D01*
X126528968Y-94660099D02*
X126321910Y-94453042D01*
X130232662Y-106163691D02*
X126872484Y-102803513D01*
X135778649Y-106163691D02*
X130232662Y-106163691D01*
X126426901Y-90278062D02*
X127959554Y-88745409D01*
X128105751Y-88745409D02*
X128388593Y-88745409D01*
X126528968Y-101068154D02*
X126528968Y-94660099D01*
X126321910Y-91946958D02*
X126426901Y-91841967D01*
X126872484Y-102803513D02*
X126872484Y-101411670D01*
X127959554Y-88745409D02*
X128105751Y-88745409D01*
X126872484Y-101411670D02*
X126528968Y-101068154D01*
X133280000Y-88200000D02*
X132880000Y-88600000D01*
X125265880Y-104970636D02*
X125265880Y-93891527D01*
X128193709Y-87584386D02*
X128476551Y-87584386D01*
X125265880Y-93891527D02*
X125160887Y-93786534D01*
X125409334Y-91514571D02*
X125409334Y-89950666D01*
X125409334Y-89950666D02*
X127775614Y-87584386D01*
X124253981Y-105982535D02*
X125265880Y-104970636D01*
X127775614Y-87584386D02*
X128193709Y-87584386D01*
X125160887Y-93786534D02*
X125160887Y-91763018D01*
X125160887Y-91763018D02*
X125409334Y-91514571D01*
X132480000Y-87400000D02*
X132080000Y-87000000D01*
X126043356Y-91777191D02*
X125899900Y-91920647D01*
X127933235Y-88323407D02*
X126043356Y-90213286D01*
X131280000Y-88600000D02*
X129588220Y-88600000D01*
X125899900Y-93169820D02*
X125899900Y-93452662D01*
X129588220Y-88600000D02*
X129311627Y-88323407D01*
X125899900Y-91920647D02*
X125899900Y-93169820D01*
X129311627Y-88323407D02*
X127933235Y-88323407D01*
X131680000Y-88200000D02*
X131280000Y-88600000D01*
X126043356Y-90213286D02*
X126043356Y-91777191D01*
X125801966Y-93979292D02*
X125801966Y-100789474D01*
X125801966Y-100789474D02*
X126555473Y-101542981D01*
X125726345Y-90081976D02*
X125726345Y-91645881D01*
X126555473Y-105203042D02*
X124550876Y-107207639D01*
X126555473Y-101542981D02*
X126555473Y-105203042D01*
X125477898Y-91894328D02*
X125477898Y-93655224D01*
X128722465Y-88006396D02*
X127801925Y-88006396D01*
X128928861Y-87800000D02*
X128722465Y-88006396D01*
X124550876Y-107207639D02*
X124485260Y-107207639D01*
X125477898Y-93655224D02*
X125801966Y-93979292D01*
X133280000Y-87400000D02*
X132880000Y-87800000D01*
X132880000Y-87800000D02*
X128928861Y-87800000D01*
X124485260Y-107207639D02*
X124202418Y-107207639D01*
X127801925Y-88006396D02*
X125726345Y-90081976D01*
X125726345Y-91645881D02*
X125477898Y-91894328D01*
X140078435Y-74369393D02*
X139982499Y-74273457D01*
X140078435Y-80601565D02*
X140078435Y-74369393D01*
X139680000Y-81000000D02*
X140078435Y-80601565D01*
X139982499Y-74273457D02*
X139782500Y-74073458D01*
X140480000Y-73200478D02*
X140480000Y-71590000D01*
X140513619Y-73234097D02*
X140480000Y-73200478D01*
X140513619Y-75190945D02*
X140513619Y-73234097D01*
X140457998Y-77402562D02*
X140457998Y-75246566D01*
X140480000Y-80200000D02*
X140480000Y-77424564D01*
X140480000Y-77424564D02*
X140457998Y-77402562D01*
X140457998Y-75246566D02*
X140513619Y-75190945D01*
X140480000Y-71590000D02*
X140480000Y-70600000D01*
X139185419Y-74829983D02*
X139185419Y-73699071D01*
X139680000Y-75324564D02*
X139185419Y-74829983D01*
X139680000Y-80200000D02*
X139680000Y-75324564D01*
X139185419Y-73699071D02*
X139185419Y-73378045D01*
X140980000Y-73341867D02*
X141029139Y-73391006D01*
X140980000Y-70600000D02*
X140980000Y-73341867D01*
X141280000Y-79952513D02*
X141280000Y-80200000D01*
X141480000Y-74879631D02*
X141768023Y-75167654D01*
X141280000Y-79691524D02*
X141280000Y-79952513D01*
X141768023Y-75167654D02*
X141768023Y-77372851D01*
X141480000Y-70600000D02*
X141480000Y-74879631D01*
X141114022Y-79525545D02*
X141280000Y-79691524D01*
X141114022Y-78026852D02*
X141114022Y-79525545D01*
X141768023Y-77372851D02*
X141114022Y-78026852D01*
X141431033Y-79392929D02*
X141678144Y-79640040D01*
X142236998Y-75241358D02*
X142236998Y-77352197D01*
X141431033Y-78158162D02*
X141431033Y-79392929D01*
X141454999Y-81625001D02*
X141280000Y-81800000D01*
X141678144Y-79640040D02*
X141678144Y-81401856D01*
X141678144Y-81401856D02*
X141454999Y-81625001D01*
X142236998Y-77352197D02*
X141431033Y-78158162D01*
X142480000Y-74998356D02*
X142236998Y-75241358D01*
X142480000Y-70600000D02*
X142480000Y-74998356D01*
X142980000Y-71590000D02*
X142980000Y-70600000D01*
X143224854Y-77260983D02*
X143224854Y-75723624D01*
X142980000Y-75478770D02*
X142980000Y-71590000D01*
X142592055Y-77893782D02*
X143224854Y-77260983D01*
X142880000Y-79384234D02*
X142592055Y-79096287D01*
X142880000Y-80200000D02*
X142880000Y-79384234D01*
X143224854Y-75723624D02*
X142980000Y-75478770D01*
X142592055Y-79096287D02*
X142592055Y-77893782D01*
X142775852Y-76260172D02*
X142775852Y-75939146D01*
X142775852Y-77261664D02*
X142775852Y-76260172D01*
X142275044Y-77762472D02*
X142775852Y-77261664D01*
X142275044Y-79227598D02*
X142275044Y-77762472D01*
X142481747Y-79434301D02*
X142275044Y-79227598D01*
X142481747Y-80601747D02*
X142481747Y-79434301D01*
X142880000Y-81000000D02*
X142481747Y-80601747D01*
X143852669Y-75294247D02*
X143625670Y-75521246D01*
X143980000Y-70600000D02*
X143980000Y-75166916D01*
X143980000Y-75166916D02*
X143852669Y-75294247D01*
X143759349Y-78867315D02*
X143759349Y-79873164D01*
X143759349Y-79873164D02*
X143680000Y-79952513D01*
X144480000Y-72345795D02*
X144749556Y-72615351D01*
X144749556Y-72615351D02*
X144749556Y-77877108D01*
X144749556Y-77877108D02*
X143759349Y-78867315D01*
X143680000Y-79952513D02*
X143680000Y-80200000D01*
X144480000Y-70600000D02*
X144480000Y-72345795D01*
X145480000Y-70600000D02*
X145480000Y-71472718D01*
X145066567Y-75521445D02*
X145066567Y-78115651D01*
X145480000Y-71472718D02*
X145640988Y-71633706D01*
X145640988Y-71633706D02*
X145640988Y-74947024D01*
X145640988Y-74947024D02*
X145066567Y-75521445D01*
X145066567Y-78115651D02*
X144076359Y-79105859D01*
X144080000Y-80449943D02*
X144480000Y-80849943D01*
X144480000Y-80849943D02*
X144480000Y-81000000D01*
X144080000Y-79109500D02*
X144080000Y-80449943D01*
X144076359Y-79105859D02*
X144080000Y-79109500D01*
X144076359Y-79105859D02*
X144077001Y-79106501D01*
X145980000Y-77727460D02*
X145980000Y-71590000D01*
X144480000Y-79227460D02*
X145980000Y-77727460D01*
X145980000Y-71590000D02*
X145980000Y-70600000D01*
X144480000Y-80200000D02*
X144480000Y-79227460D01*
X145980000Y-70600000D02*
X145970211Y-70600000D01*
X146980000Y-79300000D02*
X146980000Y-71590000D01*
X145280000Y-81000000D02*
X146980000Y-79300000D01*
X146980000Y-71590000D02*
X146980000Y-70600000D01*
X135680000Y-81800000D02*
X135274882Y-81394882D01*
X135274882Y-81394882D02*
X135274882Y-81390604D01*
X134480367Y-81400367D02*
X134480367Y-81390604D01*
X134880000Y-81800000D02*
X134480367Y-81400367D01*
X134480099Y-80600099D02*
X134480099Y-77887045D01*
X134880000Y-81000000D02*
X134480099Y-80600099D01*
X134480099Y-77887045D02*
X134258356Y-77665302D01*
X134258356Y-77665302D02*
X134058357Y-77465303D01*
X134880000Y-80200000D02*
X134880000Y-77204970D01*
X134586112Y-76911082D02*
X133868153Y-76911082D01*
X134880000Y-77204970D02*
X134586112Y-76911082D01*
X133868153Y-76911082D02*
X133668154Y-77111081D01*
X132698723Y-76760987D02*
X128038680Y-76760987D01*
X126773709Y-78025958D02*
X126773709Y-78308800D01*
X134080000Y-78142264D02*
X132698723Y-76760987D01*
X134080000Y-80200000D02*
X134080000Y-78142264D01*
X128038680Y-76760987D02*
X126773709Y-78025958D01*
X126763379Y-78926444D02*
X126604386Y-78926444D01*
X128447949Y-77077998D02*
X127195711Y-78330236D01*
X133280000Y-80200000D02*
X133280000Y-78350876D01*
X127195711Y-78330236D02*
X127195711Y-78494112D01*
X132007122Y-77077998D02*
X128447949Y-77077998D01*
X127195711Y-78494112D02*
X126763379Y-78926444D01*
X133280000Y-78350876D02*
X132007122Y-77077998D01*
X127728664Y-79226361D02*
X127445822Y-79226361D01*
X129106361Y-79226361D02*
X127728664Y-79226361D01*
X130880000Y-81000000D02*
X129106361Y-79226361D01*
X130193298Y-78713298D02*
X127849113Y-78713298D01*
X127849113Y-78713298D02*
X127566271Y-78713298D01*
X131680000Y-80200000D02*
X130193298Y-78713298D01*
X132927010Y-78999384D02*
X132927010Y-78594262D01*
X132877001Y-80597001D02*
X132877001Y-79049393D01*
X132732747Y-78399999D02*
X132704561Y-78399999D01*
X133280000Y-81000000D02*
X132877001Y-80597001D01*
X132704561Y-78399999D02*
X132504562Y-78200000D01*
X132927010Y-78594262D02*
X132732747Y-78399999D01*
X132877001Y-79049393D02*
X132927010Y-78999384D01*
X132504562Y-78200000D02*
X132474002Y-78200000D01*
D38*
X132884441Y-81404441D02*
X132884441Y-81391117D01*
X133280000Y-81800000D02*
X132884441Y-81404441D01*
D37*
X132480000Y-83400000D02*
X132102010Y-83022010D01*
X132102010Y-83022010D02*
X132084319Y-83022010D01*
X133280000Y-84200000D02*
X132886504Y-83806504D01*
X132886504Y-83806504D02*
X132886504Y-83777990D01*
D38*
X132146021Y-83866021D02*
X132117443Y-83866021D01*
X132480000Y-84200000D02*
X132146021Y-83866021D01*
X132480000Y-85000000D02*
X132045132Y-84565132D01*
X132045132Y-84565132D02*
X132032194Y-84565132D01*
X133675200Y-84595200D02*
X133671942Y-84595200D01*
X134080000Y-85000000D02*
X133675200Y-84595200D01*
X132901990Y-85421990D02*
X132875802Y-85421990D01*
X133280000Y-85800000D02*
X132901990Y-85421990D01*
D37*
X144082999Y-93402999D02*
X144082999Y-94790561D01*
X146904991Y-96121011D02*
X147131990Y-96348010D01*
X145786979Y-95002999D02*
X146904991Y-96121011D01*
X144295437Y-95002999D02*
X145786979Y-95002999D01*
X143680000Y-93000000D02*
X144082999Y-93402999D01*
X144082999Y-94790561D02*
X144295437Y-95002999D01*
X147526704Y-95600632D02*
X147526704Y-95921658D01*
X147526704Y-94646704D02*
X147526704Y-95600632D01*
X144880000Y-93400000D02*
X146280000Y-93400000D01*
X144480000Y-93000000D02*
X144880000Y-93400000D01*
X146280000Y-93400000D02*
X147526704Y-94646704D01*
X143280000Y-91000000D02*
X142880000Y-90600000D01*
X144012858Y-90132858D02*
X144082424Y-90132858D01*
X143680000Y-89800000D02*
X144012858Y-90132858D01*
X143680000Y-89000000D02*
X144035793Y-89355793D01*
X144035793Y-89355793D02*
X144035793Y-89397606D01*
X143281824Y-90201824D02*
X143281824Y-90201951D01*
X142880000Y-89800000D02*
X143281824Y-90201824D01*
X143680000Y-85800000D02*
X144080517Y-85399483D01*
X144080517Y-85399483D02*
X144080517Y-85397219D01*
X144480000Y-85800000D02*
X144886544Y-85393456D01*
X144886544Y-85393456D02*
X144886544Y-85385186D01*
X143680000Y-83400000D02*
X144080000Y-83000000D01*
X144480000Y-82600000D02*
X144885092Y-82194908D01*
X144885092Y-82194908D02*
X144885092Y-82177990D01*
X144064510Y-88584510D02*
X144082832Y-88584510D01*
X143680000Y-88200000D02*
X144064510Y-88584510D01*
X143275030Y-88595030D02*
X143278026Y-88595030D01*
X142880000Y-88200000D02*
X143275030Y-88595030D01*
X143680000Y-82600000D02*
X143680000Y-82583349D01*
X143680000Y-82583349D02*
X144076901Y-82186448D01*
X144866392Y-81413608D02*
X144866392Y-81333979D01*
X144480000Y-81800000D02*
X144866392Y-81413608D01*
X139280000Y-81400000D02*
X138880000Y-81800000D01*
X139280000Y-78849813D02*
X139257989Y-78827802D01*
X139280000Y-80600000D02*
X139280000Y-78849813D01*
X139257989Y-78827802D02*
X139030990Y-78600803D01*
X138880000Y-81000000D02*
X139280000Y-80600000D01*
X138474753Y-79794753D02*
X138474753Y-78400604D01*
X138880000Y-80200000D02*
X138474753Y-79794753D01*
X138474753Y-78400604D02*
X138474753Y-78117762D01*
X138291969Y-77447024D02*
X138291969Y-77164182D01*
X138080000Y-80200000D02*
X138080000Y-79952513D01*
X138080000Y-79952513D02*
X138052751Y-79925264D01*
X138052751Y-77732978D02*
X138291969Y-77493760D01*
X138291969Y-77493760D02*
X138291969Y-77447024D01*
X138052751Y-79925264D02*
X138052751Y-77732978D01*
X137390198Y-77277808D02*
X137390198Y-76338544D01*
X137280000Y-77388006D02*
X137390198Y-77277808D01*
X137280000Y-80200000D02*
X137280000Y-77388006D01*
X137390198Y-76338544D02*
X137554557Y-76174185D01*
X137554557Y-76174185D02*
X137754556Y-75974186D01*
X137774959Y-77341368D02*
X137774959Y-76777235D01*
X137682630Y-77433697D02*
X137774959Y-77341368D01*
X137682630Y-80602630D02*
X137682630Y-77433697D01*
X138080000Y-81000000D02*
X137682630Y-80602630D01*
X137774959Y-76777235D02*
X137974958Y-76577236D01*
X137680000Y-81400000D02*
X138080000Y-81800000D01*
X137280000Y-81000000D02*
X136880000Y-80600000D01*
X136967862Y-77080692D02*
X136967862Y-76797850D01*
X136967862Y-77317619D02*
X136967862Y-77080692D01*
X136880000Y-80600000D02*
X136880000Y-77405481D01*
X136880000Y-77405481D02*
X136967862Y-77317619D01*
X136480000Y-80200000D02*
X136480000Y-79952513D01*
X136562981Y-79869532D02*
X136562981Y-77413296D01*
X136480000Y-79952513D02*
X136562981Y-79869532D01*
X136562981Y-77413296D02*
X136540508Y-77390823D01*
X136540508Y-77390823D02*
X136540508Y-77107981D01*
X135923322Y-77673679D02*
X136123321Y-77473680D01*
X135680000Y-77917001D02*
X135923322Y-77673679D01*
X135680000Y-80200000D02*
X135680000Y-77917001D01*
X136082655Y-78570790D02*
X136102010Y-78551435D01*
X136082655Y-80602655D02*
X136082655Y-78570790D01*
X136102010Y-78551435D02*
X136102010Y-78268593D01*
X136480000Y-81000000D02*
X136082655Y-80602655D01*
X136480000Y-81800000D02*
X136080000Y-81400000D01*
X144480000Y-85000000D02*
X144877691Y-84602309D01*
X144877691Y-84602309D02*
X144877691Y-84532933D01*
X143680000Y-84200000D02*
X144080000Y-83800000D01*
X142473549Y-83006451D02*
X142473549Y-82998913D01*
X142080000Y-83400000D02*
X142473549Y-83006451D01*
X142080000Y-82600000D02*
X142457990Y-82222010D01*
X142457990Y-82222010D02*
X142457990Y-82191394D01*
X144105216Y-81374784D02*
X144146021Y-81374784D01*
X143680000Y-81800000D02*
X144105216Y-81374784D01*
X143282999Y-80570443D02*
X143282999Y-79321563D01*
X143442338Y-78614558D02*
X143523209Y-78533687D01*
X143523209Y-78533687D02*
X143523209Y-78037479D01*
X143282999Y-79321563D02*
X143442338Y-79162224D01*
X143271122Y-80582320D02*
X143282999Y-80570443D01*
X143442338Y-79162224D02*
X143442338Y-78614558D01*
X143523209Y-78037479D02*
X143323210Y-77837480D01*
X143271122Y-80582320D02*
X143271122Y-80591122D01*
X143271122Y-80591122D02*
X143680000Y-81000000D01*
X143285964Y-80597162D02*
X143271122Y-80582320D01*
X143285008Y-82194992D02*
X143302010Y-82194992D01*
X142880000Y-82600000D02*
X143285008Y-82194992D01*
X143298265Y-81381735D02*
X143302010Y-81381735D01*
X142880000Y-81800000D02*
X143298265Y-81381735D01*
X142080000Y-81800000D02*
X141749655Y-82130345D01*
X141749655Y-82130345D02*
X141657990Y-82130345D01*
X142457990Y-81377990D02*
X142457990Y-81382236D01*
X142080000Y-81000000D02*
X142457990Y-81377990D01*
X140904406Y-81375594D02*
X140924011Y-81375594D01*
X140480000Y-81800000D02*
X140904406Y-81375594D01*
X140480000Y-81000000D02*
X140878407Y-80601593D01*
X140797011Y-79656855D02*
X140797011Y-77719299D01*
X141146022Y-77370288D02*
X141346021Y-77170289D01*
X140797011Y-77719299D02*
X141146022Y-77370288D01*
X140878407Y-79738251D02*
X140797011Y-79656855D01*
X140878407Y-80601593D02*
X140878407Y-79738251D01*
X140838597Y-83041403D02*
X140864029Y-83041403D01*
X140480000Y-83400000D02*
X140838597Y-83041403D01*
X140480000Y-82600000D02*
X140900717Y-82179283D01*
X140900717Y-82179283D02*
X140902010Y-82179283D01*
X123824279Y-89785872D02*
X116030000Y-97580151D01*
X127224055Y-85894340D02*
X123824279Y-89294116D01*
X116030000Y-98430000D02*
X116030000Y-99520000D01*
X116030000Y-97580151D02*
X116030000Y-98430000D01*
X130538173Y-85894340D02*
X127224055Y-85894340D01*
X130632513Y-85800000D02*
X130538173Y-85894340D01*
X123824279Y-89294116D02*
X123824279Y-89785872D01*
X130880000Y-85800000D02*
X130632513Y-85800000D01*
X134080000Y-83400000D02*
X133680000Y-83000000D01*
X133680000Y-83000000D02*
X133680000Y-82977990D01*
X132480000Y-81800000D02*
X132080000Y-81400000D01*
X132080000Y-82200000D02*
X132080000Y-82177990D01*
X132480000Y-82600000D02*
X132080000Y-82200000D01*
X132480000Y-81000000D02*
X132082999Y-80602999D01*
X130976883Y-78037945D02*
X130976883Y-77755103D01*
X132480000Y-80200000D02*
X130976883Y-78696883D01*
X130976883Y-78696883D02*
X130976883Y-78037945D01*
X134080000Y-81000000D02*
X133680000Y-80600000D01*
X133680000Y-80600000D02*
X133680000Y-78251952D01*
X134080000Y-81800000D02*
X133680000Y-81400000D01*
X133702010Y-83822010D02*
X133680000Y-83822010D01*
X134080000Y-84200000D02*
X133702010Y-83822010D01*
X129176115Y-91907072D02*
X129376114Y-91707073D01*
X128962990Y-92120197D02*
X129176115Y-91907072D01*
X128962989Y-92892447D02*
X128962990Y-92120197D01*
X129176165Y-96857838D02*
X129176165Y-93720729D01*
X130096158Y-97777831D02*
X129176165Y-96857838D01*
X129176165Y-93720729D02*
X128857998Y-93402562D01*
X128857998Y-93402562D02*
X128857998Y-92997438D01*
X139500231Y-97777831D02*
X130096158Y-97777831D01*
X142360000Y-100637600D02*
X139500231Y-97777831D01*
X128857998Y-92997438D02*
X128962989Y-92892447D01*
X142360000Y-100790000D02*
X142360000Y-100637600D01*
X133280000Y-90600000D02*
X132880000Y-91000000D01*
X128844976Y-93837861D02*
X128540987Y-93533872D01*
X128844976Y-96974970D02*
X128844976Y-93837861D01*
X128645979Y-92761136D02*
X128645979Y-91656314D01*
X128540987Y-92866128D02*
X128645979Y-92761136D01*
X129964848Y-98094842D02*
X128844976Y-96974970D01*
X137277242Y-98094842D02*
X129964848Y-98094842D01*
X139820000Y-100790000D02*
X139820000Y-100637600D01*
X139820000Y-100637600D02*
X137277242Y-98094842D01*
X128645979Y-91656314D02*
X128844976Y-91457317D01*
X128844976Y-91457317D02*
X128844976Y-91174475D01*
X128540987Y-93533872D02*
X128540987Y-92866128D01*
X132102010Y-90977990D02*
X132077648Y-90977990D01*
X132480000Y-90600000D02*
X132102010Y-90977990D01*
X139820000Y-100790000D02*
X139820000Y-100942400D01*
X126321951Y-80173130D02*
X124976061Y-81519020D01*
X129680000Y-80500000D02*
X129353130Y-80173130D01*
X124976061Y-81519020D02*
X120289440Y-81519020D01*
X129353130Y-80173130D02*
X126321951Y-80173130D01*
X120289440Y-81519020D02*
X119500000Y-81519020D01*
X131680000Y-81000000D02*
X131180000Y-80500000D01*
X129863519Y-81075324D02*
X129638343Y-81075324D01*
X129053160Y-80490141D02*
X126453260Y-80490141D01*
X129638343Y-81075324D02*
X129053160Y-80490141D01*
X117749440Y-81519020D02*
X116960000Y-81519020D01*
X130188193Y-81400000D02*
X129863519Y-81075324D01*
X126453260Y-80490141D02*
X124143401Y-82800000D01*
X131680000Y-81800000D02*
X131280000Y-81400000D01*
X131280000Y-81400000D02*
X130188193Y-81400000D01*
X119030420Y-82800000D02*
X117749440Y-81519020D01*
X124143401Y-82800000D02*
X119030420Y-82800000D01*
X129507031Y-81392335D02*
X128921848Y-80807152D01*
X115209440Y-81519020D02*
X114420000Y-81519020D01*
X126584570Y-80807152D02*
X124274711Y-83117011D01*
X130139872Y-81800000D02*
X129732209Y-81392335D01*
X129732209Y-81392335D02*
X129507031Y-81392335D01*
X128921848Y-80807152D02*
X126584570Y-80807152D01*
X124274711Y-83117011D02*
X116807431Y-83117011D01*
X116807431Y-83117011D02*
X115209440Y-81519020D01*
X130880000Y-81800000D02*
X130139872Y-81800000D01*
X131680000Y-82600000D02*
X131282047Y-82202047D01*
X128790538Y-81124163D02*
X126715880Y-81124163D01*
X124406021Y-83434022D02*
X114584442Y-83434022D01*
X130093599Y-82202047D02*
X129600899Y-81709346D01*
X126715880Y-81124163D02*
X124406021Y-83434022D01*
X129375721Y-81709346D02*
X128790538Y-81124163D01*
X129600899Y-81709346D02*
X129375721Y-81709346D01*
X131282047Y-82202047D02*
X130093599Y-82202047D01*
X114584442Y-83434022D02*
X112669440Y-81519020D01*
X112669440Y-81519020D02*
X111880000Y-81519020D01*
X112427431Y-83817011D02*
X110129440Y-81519020D01*
X128659229Y-81441174D02*
X126847190Y-81441174D01*
X130880000Y-82600000D02*
X130043232Y-82600000D01*
X129469589Y-82026357D02*
X129244412Y-82026357D01*
X126847190Y-81441174D02*
X124471353Y-83817011D01*
X129244412Y-82026357D02*
X128659229Y-81441174D01*
X110129440Y-81519020D02*
X109340000Y-81519020D01*
X130043232Y-82600000D02*
X129469589Y-82026357D01*
X124471353Y-83817011D02*
X112427431Y-83817011D01*
X110204442Y-84134022D02*
X107589440Y-81519020D01*
X131680000Y-83400000D02*
X131277001Y-82997001D01*
X129113103Y-82343368D02*
X128527920Y-81758185D01*
X107589440Y-81519020D02*
X106800000Y-81519020D01*
X131277001Y-82997001D02*
X129991912Y-82997001D01*
X128527920Y-81758185D02*
X126978500Y-81758185D01*
X126978500Y-81758185D02*
X124602663Y-84134022D01*
X124602663Y-84134022D02*
X110204442Y-84134022D01*
X129991912Y-82997001D02*
X129338279Y-82343368D01*
X129338279Y-82343368D02*
X129113103Y-82343368D01*
X105049440Y-81519020D02*
X104260000Y-81519020D01*
X128945331Y-82660379D02*
X128360148Y-82075196D01*
X128360148Y-82075196D02*
X127109810Y-82075196D01*
X130880000Y-83400000D02*
X129946590Y-83400000D01*
X127109810Y-82075196D02*
X124733973Y-84451033D01*
X107981453Y-84451033D02*
X105049440Y-81519020D01*
X129206969Y-82660379D02*
X128945331Y-82660379D01*
X124733973Y-84451033D02*
X107981453Y-84451033D01*
X129946590Y-83400000D02*
X129206969Y-82660379D01*
X131680000Y-84200000D02*
X131277001Y-83797001D01*
X127241120Y-82392207D02*
X124865283Y-84768044D01*
X129872975Y-83797001D02*
X129053364Y-82977390D01*
X128801533Y-82977390D02*
X128216350Y-82392207D01*
X129053364Y-82977390D02*
X128801533Y-82977390D01*
X131277001Y-83797001D02*
X129872975Y-83797001D01*
X102509440Y-81519020D02*
X101720000Y-81519020D01*
X128216350Y-82392207D02*
X127241120Y-82392207D01*
X105758464Y-84768044D02*
X102509440Y-81519020D01*
X124865283Y-84768044D02*
X105758464Y-84768044D01*
X134880000Y-82600000D02*
X134480000Y-82200000D01*
D36*
X138012034Y-105400000D02*
X138300160Y-105111874D01*
X135680000Y-105400000D02*
X138012034Y-105400000D01*
X138300160Y-105111874D02*
X138500159Y-104911875D01*
X107480000Y-101800000D02*
X117480000Y-101800000D01*
X117480000Y-101800000D02*
X118230000Y-101050000D01*
X118230000Y-101050000D02*
X118230000Y-99520000D01*
X107480000Y-101800000D02*
X107480000Y-102700000D01*
X107480000Y-100750000D02*
X107480000Y-101800000D01*
D37*
X114930000Y-97843027D02*
X121830625Y-90942402D01*
X127160245Y-85509829D02*
X128852401Y-85509829D01*
X131280000Y-85400000D02*
X131505001Y-85625001D01*
X128962230Y-85400000D02*
X131280000Y-85400000D01*
X131505001Y-85625001D02*
X131680000Y-85800000D01*
X128852401Y-85509829D02*
X128962230Y-85400000D01*
X121830625Y-90839449D02*
X127160245Y-85509829D01*
X121830625Y-90942402D02*
X121830625Y-90839449D01*
X114930000Y-99520000D02*
X114930000Y-97843027D01*
M02*
