M48
;DRILL file {KiCad 4.0.5+dfsg1-4} date Wed May 10 16:42:41 2017
;FORMAT={-:-/ absolute / inch / decimal}
FMAT,2
INCH,TZ
T1C0.008
T2C0.010
T3C0.016
T4C0.020
T5C0.031
T6C0.040
T7C0.126
T8C0.067
%
G90
G05
M72
T1
X3.9377Y-3.1275
X3.9402Y-4.1024
X4.3047Y-3.0681
X4.3417Y-4.1339
X4.3516Y-4.3213
X4.3732Y-4.1732
X4.4441Y-3.9134
X4.452Y-3.4961
X4.5547Y-3.0713
X4.6111Y-3.8511
X4.6252Y-2.9449
X4.6902Y-3.7662
X4.7413Y-3.8209
X4.7591Y-3.5827
X4.7799Y-3.5682
X4.822Y-2.4764
X4.885Y-4.2756
X4.8899Y-4.2208
X4.8919Y-4.1725
X4.9008Y-3.4409
X4.9567Y-3.6792
X4.9844Y-3.1073
X4.9911Y-3.083
X5.0176Y-3.1191
X5.0223Y-3.0989
X5.0399Y-3.2604
X5.0451Y-3.3412
X5.0463Y-3.3079
X5.0547Y-3.4939
X5.0549Y-3.2747
X5.0581Y-3.4482
X5.065Y-3.3499
X5.0652Y-3.3167
X5.0728Y-3.5897
X5.0738Y-3.2835
X5.0871Y-3.5154
X5.0898Y-3.6693
X5.0934Y-3.4001
X5.0935Y-3.6105
X5.1001Y-3.5908
X5.1009Y-4.1213
X5.1055Y-3.1693
X5.1055Y-4.1969
X5.1108Y-3.6422
X5.1134Y-4.1024
X5.123Y-3.6777
X5.1512Y-4.0691
X5.1566Y-3.0612
X5.1583Y-4.0301
X5.1646Y-3.1693
X5.165Y-3.7604
X5.1685Y-3.3937
X5.1685Y-3.5197
X5.1753Y-4.0668
X5.1981Y-3.3293
X5.1999Y-3.5818
X5.2Y-3.2047
X5.2Y-3.2354
X5.2Y-3.3937
X5.2Y-3.4252
X5.2Y-3.5214
X5.2Y-3.6457
X5.2Y-3.6772
X5.2Y-3.7087
X5.2002Y-3.2686
X5.2004Y-3.8298
X5.2015Y-3.3018
X5.2049Y-2.5749
X5.2167Y-3.0787
X5.2167Y-3.1022
X5.2207Y-3.8256
X5.2302Y-3.7085
X5.2313Y-3.3631
X5.2315Y-3.2362
X5.2315Y-3.3937
X5.2315Y-3.4882
X5.2315Y-3.5827
X5.2315Y-3.6142
X5.2315Y-3.6457
X5.2315Y-3.6772
X5.2315Y-3.3293
X5.2317Y-3.2044
X5.2318Y-3.2983
X5.233Y-4.126
X5.2625Y-3.0359
X5.2627Y-3.3305
X5.263Y-3.2047
X5.263Y-3.2668
X5.263Y-3.3001
X5.263Y-3.6142
X5.263Y-3.6457
X5.2632Y-3.6773
X5.2634Y-3.7079
X5.2779Y-3.0498
X5.2834Y-3.8295
X5.2945Y-3.2362
X5.2945Y-3.2992
X5.2945Y-3.5827
X5.2945Y-3.2044
X5.3138Y-3.8282
X5.3172Y-3.0508
X5.3257Y-3.4889
X5.3258Y-3.2044
X5.326Y-3.1732
X5.326Y-3.3937
X5.326Y-3.6457
X5.326Y-3.7087
X5.326Y-3.7402
X5.3335Y-4.3075
X5.3336Y-3.0295
X5.3417Y-4.1496
X5.3456Y-4.1797
X5.3486Y-4.2832
X5.3486Y-4.2529
X5.3498Y-4.2047
X5.3575Y-3.2047
X5.3575Y-3.6772
X5.3577Y-3.5195
X5.3583Y-3.0814
X5.361Y-3.0524
X5.3797Y-3.0358
X5.389Y-3.6457
X5.3892Y-3.551
X5.3946Y-3.0214
X5.4199Y-3.5985
X5.4205Y-3.2047
X5.4205Y-3.5501
X5.4205Y-3.6772
X5.4205Y-3.3281
X5.4234Y-2.9911
X5.4321Y-3.0149
X5.4446Y-3.038
X5.4518Y-3.0755
X5.4528Y-4.1304
X5.4737Y-3.0945
X5.4756Y-2.7402
X5.4832Y-3.3312
X5.4835Y-3.2047
X5.4835Y-3.2362
X5.4835Y-3.5481
X5.4835Y-3.6772
X5.5032Y-2.9163
X5.5047Y-2.6681
X5.515Y-3.2047
X5.5155Y-3.5481
X5.5458Y-3.2693
X5.5462Y-3.5997
X5.5465Y-3.3622
X5.5465Y-3.4567
X5.5465Y-3.5197
X5.5465Y-3.6772
X5.5473Y-3.2354
X5.5482Y-3.2038
X5.553Y-2.9478
X5.5642Y-2.9691
X5.5648Y-3.0382
X5.5771Y-3.2335
X5.578Y-3.3622
X5.578Y-3.3937
X5.578Y-3.4882
X5.5848Y-3.109
X5.59Y-2.8307
X5.6086Y-3.204
X5.6086Y-3.2359
X5.6092Y-3.2677
X5.6094Y-3.2992
X5.6094Y-3.5827
X5.6094Y-3.7087
X5.6307Y-3.1064
X5.6333Y-3.0858
X5.6409Y-3.488
X5.6409Y-3.5827
X5.641Y-3.5513
X5.6418Y-3.204
X5.6418Y-3.236
X5.6426Y-3.0645
X5.6488Y-2.8307
X5.6567Y-2.5157
X5.6707Y-3.5196
X5.6723Y-3.2357
X5.6724Y-3.2677
X5.6724Y-3.2992
X5.6724Y-3.3307
X5.6724Y-3.6457
X5.6725Y-3.3621
X5.6725Y-3.5485
X5.6726Y-3.4876
X5.675Y-3.2037
X5.7034Y-3.2021
X5.7035Y-3.5153
X5.7038Y-3.4891
X5.7038Y-3.3281
X5.704Y-3.6448
X5.704Y-3.6172
X5.7041Y-3.2354
X5.7041Y-3.5835
X5.7042Y-3.5485
X5.7042Y-3.3616
X5.7043Y-3.425
X5.7043Y-3.3018
X5.7045Y-3.2686
X5.7048Y-3.3964
X5.7084Y-2.8321
X5.7155Y-2.9229
X5.7281Y-2.981
X5.7354Y-3.2047
X5.7354Y-3.3631
X5.7354Y-3.5827
X5.7354Y-3.7087
X5.7633Y-3.0677
X5.766Y-2.955
X5.7673Y-2.8337
X5.7923Y-3.5346
X5.806Y-3.4764
X5.8063Y-3.0639
X5.8115Y-3.339
X5.823Y-3.2807
X5.8263Y-2.8297
X5.8267Y-3.4743
X5.8297Y-3.7492
X5.8401Y-3.188
X5.8441Y-3.3267
X5.8705Y-3.2563
X5.8713Y-3.1969
X5.8743Y-3.764
X5.9087Y-3.2126
X6.0819Y-3.7165
X6.1396Y-3.7183
X6.1528Y-3.1969
X6.2236Y-3.7244
X6.2472Y-3.1969
X6.3181Y-2.6772
X6.3281Y-3.7207
X6.3417Y-3.2047
X6.4Y-3.7402
X6.4362Y-3.1969
X6.4824Y-3.7333
X6.4992Y-3.1969
X6.6531Y-2.7008
X6.8929Y-3.5039
X6.948Y-3.7244
X6.9795Y-3.2362
T2
X4.7235Y-3.7564
X4.7494Y-3.7393
X5.2539Y-4.0249
X5.2785Y-4.0454
X5.3575Y-3.3307
X5.3575Y-3.3622
X5.3587Y-3.425
X5.4205Y-3.4252
X5.4797Y-2.8889
X5.4835Y-3.4252
X5.4835Y-3.4882
X5.4847Y-3.5968
X5.5523Y-2.8894
X5.5529Y-3.425
X5.6211Y-2.9897
X5.6546Y-2.9733
X5.7422Y-2.5665
X5.7431Y-2.5166
X5.7926Y-3.7932
X5.8032Y-3.6696
X5.8081Y-3.7764
X5.8261Y-3.669
X5.8311Y-3.6914
X5.8525Y-3.7496
X5.8905Y-3.7157
X5.8968Y-3.738
X5.9083Y-3.7577
X5.9133Y-3.78
X5.9259Y-3.7991
X5.9408Y-3.823
X5.9617Y-3.8002
T3
X4.3541Y-3.4944
T4
X5.8941Y-3.0429
X5.988Y-3.874
T6
X3.7547Y-2.4681
X3.7547Y-2.5681
X3.7547Y-2.6681
X3.7547Y-2.7681
X3.7547Y-2.8681
X3.7547Y-2.9681
X3.7547Y-3.0681
X3.7547Y-3.1681
X3.7547Y-3.2681
X3.7547Y-3.3681
X3.7547Y-3.4681
X3.7547Y-3.5681
X3.7547Y-3.6681
X3.7547Y-3.7681
X3.7547Y-3.8681
X3.7547Y-3.9681
X3.7547Y-4.0681
X3.7547Y-4.1681
X3.7547Y-4.2681
X3.7547Y-4.3681
X3.8547Y-2.4681
X3.8547Y-2.5681
X3.8547Y-2.6681
X3.8547Y-2.7681
X3.8547Y-2.8681
X3.8547Y-2.9681
X3.8547Y-3.0681
X3.8547Y-3.1681
X3.8547Y-3.2681
X3.8547Y-3.3681
X3.8547Y-3.4681
X3.8547Y-3.5681
X3.8547Y-3.6681
X3.8547Y-3.7681
X3.8547Y-3.8681
X3.8547Y-3.9681
X3.8547Y-4.0681
X3.8547Y-4.1681
X3.8547Y-4.2681
X3.8547Y-4.3681
X4.0047Y-3.9181
X4.1047Y-3.9181
X5.2047Y-3.9681
X5.3047Y-3.9681
X5.4047Y-3.9681
X5.5047Y-3.9681
X5.6047Y-3.9681
X5.7047Y-3.9681
X5.8047Y-3.9681
X7.2547Y-2.4681
X7.2547Y-2.5681
X7.2547Y-2.6681
X7.2547Y-2.7681
X7.2547Y-2.8681
X7.2547Y-2.9681
X7.2547Y-3.0681
X7.2547Y-3.1681
X7.2547Y-3.2681
X7.2547Y-3.3681
X7.2547Y-3.4681
X7.2547Y-3.5681
X7.2547Y-3.6681
X7.2547Y-3.7681
X7.2547Y-3.8681
X7.2547Y-3.9681
X7.2547Y-4.0681
X7.2547Y-4.1681
X7.2547Y-4.2681
X7.2547Y-4.3681
X7.3547Y-2.4681
X7.3547Y-2.5681
X7.3547Y-2.6681
X7.3547Y-2.7681
X7.3547Y-2.8681
X7.3547Y-2.9681
X7.3547Y-3.0681
X7.3547Y-3.1681
X7.3547Y-3.2681
X7.3547Y-3.3681
X7.3547Y-3.4681
X7.3547Y-3.5681
X7.3547Y-3.6681
X7.3547Y-3.7681
X7.3547Y-3.8681
X7.3547Y-3.9681
X7.3547Y-4.0681
X7.3547Y-4.1681
X7.3547Y-4.2681
X7.3547Y-4.3681
T7
X4.0547Y-2.5681
X4.0547Y-4.2681
X7.0547Y-2.5681
X7.0547Y-4.2681
T8
X4.8547Y-2.6197
X4.8547Y-2.8953
T5
X5.4205Y-2.4843G85X5.4205Y-2.5236
G05
X5.4205Y-2.7146G85X5.4205Y-2.7697
G05
X5.9953Y-2.4843G85X5.9953Y-2.5236
G05
X5.9953Y-2.7146G85X5.9953Y-2.7697
G05
T0
M30
