%FSLAX45Y45*%
G04 Gerber Fmt 4.5, Leading zero omitted, Abs format (unit mm)*
G04 Created by KiCad (PCBNEW 4.0.5+dfsg1-4) date Mon Mar 27 15:17:09 2017*
%MOMM*%
%LPD*%
G01*
G04 APERTURE LIST*
%ADD10C,0.127000*%
%ADD11C,0.300000*%
%ADD12C,0.200000*%
G04 APERTURE END LIST*
D10*
D11*
X9410000Y-6142000D02*
X9410000Y-10968000D01*
X17792000Y-6142000D02*
X9410000Y-6142000D01*
X17792000Y-10968000D02*
X17792000Y-6142000D01*
X9410000Y-10968000D02*
X17792000Y-10968000D01*
D12*
X10218500Y-8370500D02*
X10233500Y-8385500D01*
X10233500Y-8370500D02*
X10218500Y-8385500D01*
X10618500Y-8410500D02*
X10633500Y-8425500D01*
X10633500Y-8410500D02*
X10618500Y-8425500D01*
X13060500Y-8872500D02*
X13075500Y-8887500D01*
X13075500Y-8872500D02*
X13060500Y-8887500D01*
X13060500Y-8952500D02*
X13075500Y-8967500D01*
X13075500Y-8952500D02*
X13060500Y-8967500D01*
X13800000Y-6352600D02*
G75*
G03X13800000Y-6352600I-40000J0D01*
G01*
X13790000Y-6402600D02*
X13790000Y-6302600D01*
X13730000Y-6402600D02*
X13730000Y-6302600D01*
X13790000Y-6302600D02*
G75*
G03X13730000Y-6302600I-30000J0D01*
G01*
X13730000Y-6402600D02*
G75*
G03X13790000Y-6402600I30000J0D01*
G01*
X13800000Y-6957600D02*
G75*
G03X13800000Y-6957600I-40000J0D01*
G01*
X13790000Y-7027600D02*
X13790000Y-6887600D01*
X13730000Y-7027600D02*
X13730000Y-6887600D01*
X13790000Y-6887600D02*
G75*
G03X13730000Y-6887600I-30000J0D01*
G01*
X13730000Y-7027600D02*
G75*
G03X13790000Y-7027600I30000J0D01*
G01*
X15260000Y-6352600D02*
G75*
G03X15260000Y-6352600I-40000J0D01*
G01*
X15250000Y-6402600D02*
X15250000Y-6302600D01*
X15190000Y-6402600D02*
X15190000Y-6302600D01*
X15250000Y-6302600D02*
G75*
G03X15190000Y-6302600I-30000J0D01*
G01*
X15190000Y-6402600D02*
G75*
G03X15250000Y-6402600I30000J0D01*
G01*
X15260000Y-6957600D02*
G75*
G03X15260000Y-6957600I-40000J0D01*
G01*
X15250000Y-7027600D02*
X15250000Y-6887600D01*
X15190000Y-7027600D02*
X15190000Y-6887600D01*
X15250000Y-6887600D02*
G75*
G03X15190000Y-6887600I-30000J0D01*
G01*
X15190000Y-7027600D02*
G75*
G03X15250000Y-7027600I30000J0D01*
G01*
X9664000Y-6345200D02*
X9664000Y-6446800D01*
X9613200Y-6396000D02*
X9714800Y-6396000D01*
X9664000Y-6599200D02*
X9664000Y-6700800D01*
X9613200Y-6650000D02*
X9714800Y-6650000D01*
X9664000Y-6853200D02*
X9664000Y-6954800D01*
X9613200Y-6904000D02*
X9714800Y-6904000D01*
X9664000Y-7107200D02*
X9664000Y-7208800D01*
X9613200Y-7158000D02*
X9714800Y-7158000D01*
X9664000Y-7361200D02*
X9664000Y-7462800D01*
X9613200Y-7412000D02*
X9714800Y-7412000D01*
X9664000Y-7615200D02*
X9664000Y-7716800D01*
X9613200Y-7666000D02*
X9714800Y-7666000D01*
X9664000Y-10409200D02*
X9664000Y-10510800D01*
X9613200Y-10460000D02*
X9714800Y-10460000D01*
X9664000Y-10663200D02*
X9664000Y-10764800D01*
X9613200Y-10714000D02*
X9714800Y-10714000D01*
X9918000Y-6345200D02*
X9918000Y-6446800D01*
X9867200Y-6396000D02*
X9968800Y-6396000D01*
X9918000Y-6599200D02*
X9918000Y-6700800D01*
X9867200Y-6650000D02*
X9968800Y-6650000D01*
X9918000Y-6853200D02*
X9918000Y-6954800D01*
X9867200Y-6904000D02*
X9968800Y-6904000D01*
X9918000Y-7107200D02*
X9918000Y-7208800D01*
X9867200Y-7158000D02*
X9968800Y-7158000D01*
X9918000Y-7361200D02*
X9918000Y-7462800D01*
X9867200Y-7412000D02*
X9968800Y-7412000D01*
X9918000Y-7615200D02*
X9918000Y-7716800D01*
X9867200Y-7666000D02*
X9968800Y-7666000D01*
X9918000Y-10409200D02*
X9918000Y-10510800D01*
X9867200Y-10460000D02*
X9968800Y-10460000D01*
X9918000Y-10663200D02*
X9918000Y-10764800D01*
X9867200Y-10714000D02*
X9968800Y-10714000D01*
X10172000Y-10409200D02*
X10172000Y-10510800D01*
X10121200Y-10460000D02*
X10222800Y-10460000D01*
X10172000Y-10663200D02*
X10172000Y-10764800D01*
X10121200Y-10714000D02*
X10222800Y-10714000D01*
X10426000Y-10409200D02*
X10426000Y-10510800D01*
X10375200Y-10460000D02*
X10476800Y-10460000D01*
X10426000Y-10663200D02*
X10426000Y-10764800D01*
X10375200Y-10714000D02*
X10476800Y-10714000D01*
X10680000Y-10409200D02*
X10680000Y-10510800D01*
X10629200Y-10460000D02*
X10730800Y-10460000D01*
X10680000Y-10663200D02*
X10680000Y-10764800D01*
X10629200Y-10714000D02*
X10730800Y-10714000D01*
X10934000Y-10409200D02*
X10934000Y-10510800D01*
X10883200Y-10460000D02*
X10984800Y-10460000D01*
X10934000Y-10663200D02*
X10934000Y-10764800D01*
X10883200Y-10714000D02*
X10984800Y-10714000D01*
X11188000Y-10409200D02*
X11188000Y-10510800D01*
X11137200Y-10460000D02*
X11238800Y-10460000D01*
X11188000Y-10663200D02*
X11188000Y-10764800D01*
X11137200Y-10714000D02*
X11238800Y-10714000D01*
X11442000Y-10409200D02*
X11442000Y-10510800D01*
X11391200Y-10460000D02*
X11492800Y-10460000D01*
X11442000Y-10663200D02*
X11442000Y-10764800D01*
X11391200Y-10714000D02*
X11492800Y-10714000D01*
X11696000Y-10409200D02*
X11696000Y-10510800D01*
X11645200Y-10460000D02*
X11746800Y-10460000D01*
X11696000Y-10663200D02*
X11696000Y-10764800D01*
X11645200Y-10714000D02*
X11746800Y-10714000D01*
X11950000Y-10409200D02*
X11950000Y-10510800D01*
X11899200Y-10460000D02*
X12000800Y-10460000D01*
X11950000Y-10663200D02*
X11950000Y-10764800D01*
X11899200Y-10714000D02*
X12000800Y-10714000D01*
X12204000Y-10409200D02*
X12204000Y-10510800D01*
X12153200Y-10460000D02*
X12254800Y-10460000D01*
X12204000Y-10663200D02*
X12204000Y-10764800D01*
X12153200Y-10714000D02*
X12254800Y-10714000D01*
X12458000Y-10409200D02*
X12458000Y-10510800D01*
X12407200Y-10460000D02*
X12508800Y-10460000D01*
X12458000Y-10663200D02*
X12458000Y-10764800D01*
X12407200Y-10714000D02*
X12508800Y-10714000D01*
X12712000Y-10409200D02*
X12712000Y-10510800D01*
X12661200Y-10460000D02*
X12762800Y-10460000D01*
X12712000Y-10663200D02*
X12712000Y-10764800D01*
X12661200Y-10714000D02*
X12762800Y-10714000D01*
X12966000Y-10409200D02*
X12966000Y-10510800D01*
X12915200Y-10460000D02*
X13016800Y-10460000D01*
X12966000Y-10663200D02*
X12966000Y-10764800D01*
X12915200Y-10714000D02*
X13016800Y-10714000D01*
X13220000Y-10409200D02*
X13220000Y-10510800D01*
X13169200Y-10460000D02*
X13270800Y-10460000D01*
X13220000Y-10663200D02*
X13220000Y-10764800D01*
X13169200Y-10714000D02*
X13270800Y-10714000D01*
X13474000Y-10409200D02*
X13474000Y-10510800D01*
X13423200Y-10460000D02*
X13524800Y-10460000D01*
X13474000Y-10663200D02*
X13474000Y-10764800D01*
X13423200Y-10714000D02*
X13524800Y-10714000D01*
X13728000Y-10409200D02*
X13728000Y-10510800D01*
X13677200Y-10460000D02*
X13778800Y-10460000D01*
X13728000Y-10663200D02*
X13728000Y-10764800D01*
X13677200Y-10714000D02*
X13778800Y-10714000D01*
X13982000Y-10409200D02*
X13982000Y-10510800D01*
X13931200Y-10460000D02*
X14032800Y-10460000D01*
X13982000Y-10663200D02*
X13982000Y-10764800D01*
X13931200Y-10714000D02*
X14032800Y-10714000D01*
X14236000Y-10409200D02*
X14236000Y-10510800D01*
X14185200Y-10460000D02*
X14286800Y-10460000D01*
X14236000Y-10663200D02*
X14236000Y-10764800D01*
X14185200Y-10714000D02*
X14286800Y-10714000D01*
X14490000Y-10409200D02*
X14490000Y-10510800D01*
X14439200Y-10460000D02*
X14540800Y-10460000D01*
X14490000Y-10663200D02*
X14490000Y-10764800D01*
X14439200Y-10714000D02*
X14540800Y-10714000D01*
X14744000Y-10409200D02*
X14744000Y-10510800D01*
X14693200Y-10460000D02*
X14794800Y-10460000D01*
X14744000Y-10663200D02*
X14744000Y-10764800D01*
X14693200Y-10714000D02*
X14794800Y-10714000D01*
X14998000Y-10409200D02*
X14998000Y-10510800D01*
X14947200Y-10460000D02*
X15048800Y-10460000D01*
X14998000Y-10663200D02*
X14998000Y-10764800D01*
X14947200Y-10714000D02*
X15048800Y-10714000D01*
X15252000Y-10409200D02*
X15252000Y-10510800D01*
X15201200Y-10460000D02*
X15302800Y-10460000D01*
X15252000Y-10663200D02*
X15252000Y-10764800D01*
X15201200Y-10714000D02*
X15302800Y-10714000D01*
X15506000Y-10409200D02*
X15506000Y-10510800D01*
X15455200Y-10460000D02*
X15556800Y-10460000D01*
X15506000Y-10663200D02*
X15506000Y-10764800D01*
X15455200Y-10714000D02*
X15556800Y-10714000D01*
X15760000Y-10409200D02*
X15760000Y-10510800D01*
X15709200Y-10460000D02*
X15810800Y-10460000D01*
X15760000Y-10663200D02*
X15760000Y-10764800D01*
X15709200Y-10714000D02*
X15810800Y-10714000D01*
X16014000Y-10409200D02*
X16014000Y-10510800D01*
X15963200Y-10460000D02*
X16064800Y-10460000D01*
X16014000Y-10663200D02*
X16014000Y-10764800D01*
X15963200Y-10714000D02*
X16064800Y-10714000D01*
X16268000Y-10409200D02*
X16268000Y-10510800D01*
X16217200Y-10460000D02*
X16318800Y-10460000D01*
X16268000Y-10663200D02*
X16268000Y-10764800D01*
X16217200Y-10714000D02*
X16318800Y-10714000D01*
X16522000Y-10409200D02*
X16522000Y-10510800D01*
X16471200Y-10460000D02*
X16572800Y-10460000D01*
X16522000Y-10663200D02*
X16522000Y-10764800D01*
X16471200Y-10714000D02*
X16572800Y-10714000D01*
X16776000Y-10409200D02*
X16776000Y-10510800D01*
X16725200Y-10460000D02*
X16826800Y-10460000D01*
X16776000Y-10663200D02*
X16776000Y-10764800D01*
X16725200Y-10714000D02*
X16826800Y-10714000D01*
X17030000Y-7361200D02*
X17030000Y-7462800D01*
X16979200Y-7412000D02*
X17080800Y-7412000D01*
X17030000Y-7615200D02*
X17030000Y-7716800D01*
X16979200Y-7666000D02*
X17080800Y-7666000D01*
X17030000Y-7869200D02*
X17030000Y-7970800D01*
X16979200Y-7920000D02*
X17080800Y-7920000D01*
X17030000Y-8123200D02*
X17030000Y-8224800D01*
X16979200Y-8174000D02*
X17080800Y-8174000D01*
X17030000Y-8377200D02*
X17030000Y-8478800D01*
X16979200Y-8428000D02*
X17080800Y-8428000D01*
X17030000Y-8631200D02*
X17030000Y-8732800D01*
X16979200Y-8682000D02*
X17080800Y-8682000D01*
X17030000Y-8885200D02*
X17030000Y-8986800D01*
X16979200Y-8936000D02*
X17080800Y-8936000D01*
X17030000Y-10409200D02*
X17030000Y-10510800D01*
X16979200Y-10460000D02*
X17080800Y-10460000D01*
X17030000Y-10663200D02*
X17030000Y-10764800D01*
X16979200Y-10714000D02*
X17080800Y-10714000D01*
X17284000Y-6345200D02*
X17284000Y-6446800D01*
X17233200Y-6396000D02*
X17334800Y-6396000D01*
X17284000Y-6599200D02*
X17284000Y-6700800D01*
X17233200Y-6650000D02*
X17334800Y-6650000D01*
X17284000Y-6853200D02*
X17284000Y-6954800D01*
X17233200Y-6904000D02*
X17334800Y-6904000D01*
X17284000Y-7107200D02*
X17284000Y-7208800D01*
X17233200Y-7158000D02*
X17334800Y-7158000D01*
X17284000Y-7361200D02*
X17284000Y-7462800D01*
X17233200Y-7412000D02*
X17334800Y-7412000D01*
X17284000Y-7615200D02*
X17284000Y-7716800D01*
X17233200Y-7666000D02*
X17334800Y-7666000D01*
X17284000Y-7869200D02*
X17284000Y-7970800D01*
X17233200Y-7920000D02*
X17334800Y-7920000D01*
X17284000Y-8123200D02*
X17284000Y-8224800D01*
X17233200Y-8174000D02*
X17334800Y-8174000D01*
X17284000Y-8377200D02*
X17284000Y-8478800D01*
X17233200Y-8428000D02*
X17334800Y-8428000D01*
X17284000Y-8631200D02*
X17284000Y-8732800D01*
X17233200Y-8682000D02*
X17334800Y-8682000D01*
X17284000Y-8885200D02*
X17284000Y-8986800D01*
X17233200Y-8936000D02*
X17334800Y-8936000D01*
X17284000Y-9139200D02*
X17284000Y-9240800D01*
X17233200Y-9190000D02*
X17334800Y-9190000D01*
X17284000Y-9393200D02*
X17284000Y-9494800D01*
X17233200Y-9444000D02*
X17334800Y-9444000D01*
X17284000Y-9647200D02*
X17284000Y-9748800D01*
X17233200Y-9698000D02*
X17334800Y-9698000D01*
X17284000Y-9901200D02*
X17284000Y-10002800D01*
X17233200Y-9952000D02*
X17334800Y-9952000D01*
X17284000Y-10409200D02*
X17284000Y-10510800D01*
X17233200Y-10460000D02*
X17334800Y-10460000D01*
X17284000Y-10663200D02*
X17284000Y-10764800D01*
X17233200Y-10714000D02*
X17334800Y-10714000D01*
X17538000Y-6345200D02*
X17538000Y-6446800D01*
X17487200Y-6396000D02*
X17588800Y-6396000D01*
X17538000Y-6599200D02*
X17538000Y-6700800D01*
X17487200Y-6650000D02*
X17588800Y-6650000D01*
X17538000Y-6853200D02*
X17538000Y-6954800D01*
X17487200Y-6904000D02*
X17588800Y-6904000D01*
X17538000Y-7107200D02*
X17538000Y-7208800D01*
X17487200Y-7158000D02*
X17588800Y-7158000D01*
X17538000Y-7361200D02*
X17538000Y-7462800D01*
X17487200Y-7412000D02*
X17588800Y-7412000D01*
X17538000Y-7615200D02*
X17538000Y-7716800D01*
X17487200Y-7666000D02*
X17588800Y-7666000D01*
X17538000Y-7869200D02*
X17538000Y-7970800D01*
X17487200Y-7920000D02*
X17588800Y-7920000D01*
X17538000Y-8123200D02*
X17538000Y-8224800D01*
X17487200Y-8174000D02*
X17588800Y-8174000D01*
X17538000Y-8377200D02*
X17538000Y-8478800D01*
X17487200Y-8428000D02*
X17588800Y-8428000D01*
X17538000Y-8631200D02*
X17538000Y-8732800D01*
X17487200Y-8682000D02*
X17588800Y-8682000D01*
X17538000Y-8885200D02*
X17538000Y-8986800D01*
X17487200Y-8936000D02*
X17588800Y-8936000D01*
X17538000Y-9139200D02*
X17538000Y-9240800D01*
X17487200Y-9190000D02*
X17588800Y-9190000D01*
X17538000Y-9393200D02*
X17538000Y-9494800D01*
X17487200Y-9444000D02*
X17588800Y-9444000D01*
X17538000Y-9647200D02*
X17538000Y-9748800D01*
X17487200Y-9698000D02*
X17588800Y-9698000D01*
X17538000Y-9901200D02*
X17538000Y-10002800D01*
X17487200Y-9952000D02*
X17588800Y-9952000D01*
X17538000Y-10409200D02*
X17538000Y-10510800D01*
X17487200Y-10460000D02*
X17588800Y-10460000D01*
X17538000Y-10663200D02*
X17538000Y-10764800D01*
X17487200Y-10714000D02*
X17588800Y-10714000D01*
D11*
X9666429Y-11448714D02*
X9666429Y-11148714D01*
X9737857Y-11148714D01*
X9780714Y-11163000D01*
X9809286Y-11191571D01*
X9823571Y-11220143D01*
X9837857Y-11277286D01*
X9837857Y-11320143D01*
X9823571Y-11377286D01*
X9809286Y-11405857D01*
X9780714Y-11434429D01*
X9737857Y-11448714D01*
X9666429Y-11448714D01*
X9966429Y-11448714D02*
X9966429Y-11248714D01*
X9966429Y-11305857D02*
X9980714Y-11277286D01*
X9995000Y-11263000D01*
X10023571Y-11248714D01*
X10052143Y-11248714D01*
X10152143Y-11448714D02*
X10152143Y-11248714D01*
X10152143Y-11148714D02*
X10137857Y-11163000D01*
X10152143Y-11177286D01*
X10166429Y-11163000D01*
X10152143Y-11148714D01*
X10152143Y-11177286D01*
X10337857Y-11448714D02*
X10309286Y-11434429D01*
X10295000Y-11405857D01*
X10295000Y-11148714D01*
X10495000Y-11448714D02*
X10466429Y-11434429D01*
X10452143Y-11405857D01*
X10452143Y-11148714D01*
X10837857Y-11448714D02*
X10837857Y-11148714D01*
X10937857Y-11363000D01*
X11037857Y-11148714D01*
X11037857Y-11448714D01*
X11309286Y-11448714D02*
X11309286Y-11291571D01*
X11295000Y-11263000D01*
X11266428Y-11248714D01*
X11209286Y-11248714D01*
X11180714Y-11263000D01*
X11309286Y-11434429D02*
X11280714Y-11448714D01*
X11209286Y-11448714D01*
X11180714Y-11434429D01*
X11166429Y-11405857D01*
X11166429Y-11377286D01*
X11180714Y-11348714D01*
X11209286Y-11334429D01*
X11280714Y-11334429D01*
X11309286Y-11320143D01*
X11452143Y-11248714D02*
X11452143Y-11548714D01*
X11452143Y-11263000D02*
X11480714Y-11248714D01*
X11537857Y-11248714D01*
X11566428Y-11263000D01*
X11580714Y-11277286D01*
X11595000Y-11305857D01*
X11595000Y-11391571D01*
X11580714Y-11420143D01*
X11566428Y-11434429D01*
X11537857Y-11448714D01*
X11480714Y-11448714D01*
X11452143Y-11434429D01*
X11723571Y-11420143D02*
X11737857Y-11434429D01*
X11723571Y-11448714D01*
X11709286Y-11434429D01*
X11723571Y-11420143D01*
X11723571Y-11448714D01*
X11723571Y-11263000D02*
X11737857Y-11277286D01*
X11723571Y-11291571D01*
X11709286Y-11277286D01*
X11723571Y-11263000D01*
X11723571Y-11291571D01*
X9380000Y-11935500D02*
X9395000Y-11950500D01*
X9395000Y-11935500D02*
X9380000Y-11950500D01*
X9723571Y-11778714D02*
X9752143Y-11778714D01*
X9780714Y-11793000D01*
X9795000Y-11807286D01*
X9809286Y-11835857D01*
X9823571Y-11893000D01*
X9823571Y-11964429D01*
X9809286Y-12021571D01*
X9795000Y-12050143D01*
X9780714Y-12064429D01*
X9752143Y-12078714D01*
X9723571Y-12078714D01*
X9695000Y-12064429D01*
X9680714Y-12050143D01*
X9666429Y-12021571D01*
X9652143Y-11964429D01*
X9652143Y-11893000D01*
X9666429Y-11835857D01*
X9680714Y-11807286D01*
X9695000Y-11793000D01*
X9723571Y-11778714D01*
X9952143Y-12050143D02*
X9966429Y-12064429D01*
X9952143Y-12078714D01*
X9937857Y-12064429D01*
X9952143Y-12050143D01*
X9952143Y-12078714D01*
X10252143Y-12078714D02*
X10080714Y-12078714D01*
X10166428Y-12078714D02*
X10166428Y-11778714D01*
X10137857Y-11821571D01*
X10109286Y-11850143D01*
X10080714Y-11864429D01*
X10523571Y-11778714D02*
X10380714Y-11778714D01*
X10366429Y-11921571D01*
X10380714Y-11907286D01*
X10409286Y-11893000D01*
X10480714Y-11893000D01*
X10509286Y-11907286D01*
X10523571Y-11921571D01*
X10537857Y-11950143D01*
X10537857Y-12021571D01*
X10523571Y-12050143D01*
X10509286Y-12064429D01*
X10480714Y-12078714D01*
X10409286Y-12078714D01*
X10380714Y-12064429D01*
X10366429Y-12050143D01*
X10666429Y-12078714D02*
X10666429Y-11878714D01*
X10666429Y-11907286D02*
X10680714Y-11893000D01*
X10709286Y-11878714D01*
X10752143Y-11878714D01*
X10780714Y-11893000D01*
X10795000Y-11921571D01*
X10795000Y-12078714D01*
X10795000Y-11921571D02*
X10809286Y-11893000D01*
X10837857Y-11878714D01*
X10880714Y-11878714D01*
X10909286Y-11893000D01*
X10923571Y-11921571D01*
X10923571Y-12078714D01*
X11066429Y-12078714D02*
X11066429Y-11878714D01*
X11066429Y-11907286D02*
X11080714Y-11893000D01*
X11109286Y-11878714D01*
X11152143Y-11878714D01*
X11180714Y-11893000D01*
X11195000Y-11921571D01*
X11195000Y-12078714D01*
X11195000Y-11921571D02*
X11209286Y-11893000D01*
X11237857Y-11878714D01*
X11280714Y-11878714D01*
X11309286Y-11893000D01*
X11323571Y-11921571D01*
X11323571Y-12078714D01*
X11909286Y-11764429D02*
X11652143Y-12150143D01*
X12295000Y-11778714D02*
X12323571Y-11778714D01*
X12352143Y-11793000D01*
X12366428Y-11807286D01*
X12380714Y-11835857D01*
X12395000Y-11893000D01*
X12395000Y-11964429D01*
X12380714Y-12021571D01*
X12366428Y-12050143D01*
X12352143Y-12064429D01*
X12323571Y-12078714D01*
X12295000Y-12078714D01*
X12266428Y-12064429D01*
X12252143Y-12050143D01*
X12237857Y-12021571D01*
X12223571Y-11964429D01*
X12223571Y-11893000D01*
X12237857Y-11835857D01*
X12252143Y-11807286D01*
X12266428Y-11793000D01*
X12295000Y-11778714D01*
X12523571Y-12050143D02*
X12537857Y-12064429D01*
X12523571Y-12078714D01*
X12509286Y-12064429D01*
X12523571Y-12050143D01*
X12523571Y-12078714D01*
X12723571Y-11778714D02*
X12752143Y-11778714D01*
X12780714Y-11793000D01*
X12795000Y-11807286D01*
X12809285Y-11835857D01*
X12823571Y-11893000D01*
X12823571Y-11964429D01*
X12809285Y-12021571D01*
X12795000Y-12050143D01*
X12780714Y-12064429D01*
X12752143Y-12078714D01*
X12723571Y-12078714D01*
X12695000Y-12064429D01*
X12680714Y-12050143D01*
X12666428Y-12021571D01*
X12652143Y-11964429D01*
X12652143Y-11893000D01*
X12666428Y-11835857D01*
X12680714Y-11807286D01*
X12695000Y-11793000D01*
X12723571Y-11778714D01*
X13009285Y-11778714D02*
X13037857Y-11778714D01*
X13066428Y-11793000D01*
X13080714Y-11807286D01*
X13095000Y-11835857D01*
X13109285Y-11893000D01*
X13109285Y-11964429D01*
X13095000Y-12021571D01*
X13080714Y-12050143D01*
X13066428Y-12064429D01*
X13037857Y-12078714D01*
X13009285Y-12078714D01*
X12980714Y-12064429D01*
X12966428Y-12050143D01*
X12952143Y-12021571D01*
X12937857Y-11964429D01*
X12937857Y-11893000D01*
X12952143Y-11835857D01*
X12966428Y-11807286D01*
X12980714Y-11793000D01*
X13009285Y-11778714D01*
X13366428Y-11778714D02*
X13309285Y-11778714D01*
X13280714Y-11793000D01*
X13266428Y-11807286D01*
X13237857Y-11850143D01*
X13223571Y-11907286D01*
X13223571Y-12021571D01*
X13237857Y-12050143D01*
X13252143Y-12064429D01*
X13280714Y-12078714D01*
X13337857Y-12078714D01*
X13366428Y-12064429D01*
X13380714Y-12050143D01*
X13395000Y-12021571D01*
X13395000Y-11950143D01*
X13380714Y-11921571D01*
X13366428Y-11907286D01*
X13337857Y-11893000D01*
X13280714Y-11893000D01*
X13252143Y-11907286D01*
X13237857Y-11921571D01*
X13223571Y-11950143D01*
X13509286Y-11778714D02*
X13509286Y-11835857D01*
X13623571Y-11778714D02*
X13623571Y-11835857D01*
X14066428Y-12193000D02*
X14052143Y-12178714D01*
X14023571Y-12135857D01*
X14009285Y-12107286D01*
X13995000Y-12064429D01*
X13980714Y-11993000D01*
X13980714Y-11935857D01*
X13995000Y-11864429D01*
X14009285Y-11821571D01*
X14023571Y-11793000D01*
X14052143Y-11750143D01*
X14066428Y-11735857D01*
X14309285Y-11878714D02*
X14309285Y-12078714D01*
X14237857Y-11764429D02*
X14166428Y-11978714D01*
X14352143Y-11978714D01*
X14695000Y-12078714D02*
X14695000Y-11778714D01*
X14823571Y-12078714D02*
X14823571Y-11921571D01*
X14809285Y-11893000D01*
X14780714Y-11878714D01*
X14737857Y-11878714D01*
X14709285Y-11893000D01*
X14695000Y-11907286D01*
X15009285Y-12078714D02*
X14980714Y-12064429D01*
X14966428Y-12050143D01*
X14952143Y-12021571D01*
X14952143Y-11935857D01*
X14966428Y-11907286D01*
X14980714Y-11893000D01*
X15009285Y-11878714D01*
X15052143Y-11878714D01*
X15080714Y-11893000D01*
X15095000Y-11907286D01*
X15109285Y-11935857D01*
X15109285Y-12021571D01*
X15095000Y-12050143D01*
X15080714Y-12064429D01*
X15052143Y-12078714D01*
X15009285Y-12078714D01*
X15280714Y-12078714D02*
X15252143Y-12064429D01*
X15237857Y-12035857D01*
X15237857Y-11778714D01*
X15509286Y-12064429D02*
X15480714Y-12078714D01*
X15423571Y-12078714D01*
X15395000Y-12064429D01*
X15380714Y-12035857D01*
X15380714Y-11921571D01*
X15395000Y-11893000D01*
X15423571Y-11878714D01*
X15480714Y-11878714D01*
X15509286Y-11893000D01*
X15523571Y-11921571D01*
X15523571Y-11950143D01*
X15380714Y-11978714D01*
X15637857Y-12064429D02*
X15666428Y-12078714D01*
X15723571Y-12078714D01*
X15752143Y-12064429D01*
X15766428Y-12035857D01*
X15766428Y-12021571D01*
X15752143Y-11993000D01*
X15723571Y-11978714D01*
X15680714Y-11978714D01*
X15652143Y-11964429D01*
X15637857Y-11935857D01*
X15637857Y-11921571D01*
X15652143Y-11893000D01*
X15680714Y-11878714D01*
X15723571Y-11878714D01*
X15752143Y-11893000D01*
X15866428Y-12193000D02*
X15880714Y-12178714D01*
X15909286Y-12135857D01*
X15923571Y-12107286D01*
X15937857Y-12064429D01*
X15952143Y-11993000D01*
X15952143Y-11935857D01*
X15937857Y-11864429D01*
X15923571Y-11821571D01*
X15909286Y-11793000D01*
X15880714Y-11750143D01*
X15866428Y-11735857D01*
X9395000Y-12339000D02*
G75*
G03X9395000Y-12339000I-40000J0D01*
G01*
X9723571Y-12174714D02*
X9752143Y-12174714D01*
X9780714Y-12189000D01*
X9795000Y-12203286D01*
X9809286Y-12231857D01*
X9823571Y-12289000D01*
X9823571Y-12360429D01*
X9809286Y-12417571D01*
X9795000Y-12446143D01*
X9780714Y-12460429D01*
X9752143Y-12474714D01*
X9723571Y-12474714D01*
X9695000Y-12460429D01*
X9680714Y-12446143D01*
X9666429Y-12417571D01*
X9652143Y-12360429D01*
X9652143Y-12289000D01*
X9666429Y-12231857D01*
X9680714Y-12203286D01*
X9695000Y-12189000D01*
X9723571Y-12174714D01*
X9952143Y-12446143D02*
X9966429Y-12460429D01*
X9952143Y-12474714D01*
X9937857Y-12460429D01*
X9952143Y-12446143D01*
X9952143Y-12474714D01*
X10137857Y-12303286D02*
X10109286Y-12289000D01*
X10095000Y-12274714D01*
X10080714Y-12246143D01*
X10080714Y-12231857D01*
X10095000Y-12203286D01*
X10109286Y-12189000D01*
X10137857Y-12174714D01*
X10195000Y-12174714D01*
X10223571Y-12189000D01*
X10237857Y-12203286D01*
X10252143Y-12231857D01*
X10252143Y-12246143D01*
X10237857Y-12274714D01*
X10223571Y-12289000D01*
X10195000Y-12303286D01*
X10137857Y-12303286D01*
X10109286Y-12317571D01*
X10095000Y-12331857D01*
X10080714Y-12360429D01*
X10080714Y-12417571D01*
X10095000Y-12446143D01*
X10109286Y-12460429D01*
X10137857Y-12474714D01*
X10195000Y-12474714D01*
X10223571Y-12460429D01*
X10237857Y-12446143D01*
X10252143Y-12417571D01*
X10252143Y-12360429D01*
X10237857Y-12331857D01*
X10223571Y-12317571D01*
X10195000Y-12303286D01*
X10437857Y-12174714D02*
X10466429Y-12174714D01*
X10495000Y-12189000D01*
X10509286Y-12203286D01*
X10523571Y-12231857D01*
X10537857Y-12289000D01*
X10537857Y-12360429D01*
X10523571Y-12417571D01*
X10509286Y-12446143D01*
X10495000Y-12460429D01*
X10466429Y-12474714D01*
X10437857Y-12474714D01*
X10409286Y-12460429D01*
X10395000Y-12446143D01*
X10380714Y-12417571D01*
X10366429Y-12360429D01*
X10366429Y-12289000D01*
X10380714Y-12231857D01*
X10395000Y-12203286D01*
X10409286Y-12189000D01*
X10437857Y-12174714D01*
X10666429Y-12474714D02*
X10666429Y-12274714D01*
X10666429Y-12303286D02*
X10680714Y-12289000D01*
X10709286Y-12274714D01*
X10752143Y-12274714D01*
X10780714Y-12289000D01*
X10795000Y-12317571D01*
X10795000Y-12474714D01*
X10795000Y-12317571D02*
X10809286Y-12289000D01*
X10837857Y-12274714D01*
X10880714Y-12274714D01*
X10909286Y-12289000D01*
X10923571Y-12317571D01*
X10923571Y-12474714D01*
X11066429Y-12474714D02*
X11066429Y-12274714D01*
X11066429Y-12303286D02*
X11080714Y-12289000D01*
X11109286Y-12274714D01*
X11152143Y-12274714D01*
X11180714Y-12289000D01*
X11195000Y-12317571D01*
X11195000Y-12474714D01*
X11195000Y-12317571D02*
X11209286Y-12289000D01*
X11237857Y-12274714D01*
X11280714Y-12274714D01*
X11309286Y-12289000D01*
X11323571Y-12317571D01*
X11323571Y-12474714D01*
X11909286Y-12160429D02*
X11652143Y-12546143D01*
X12295000Y-12174714D02*
X12323571Y-12174714D01*
X12352143Y-12189000D01*
X12366428Y-12203286D01*
X12380714Y-12231857D01*
X12395000Y-12289000D01*
X12395000Y-12360429D01*
X12380714Y-12417571D01*
X12366428Y-12446143D01*
X12352143Y-12460429D01*
X12323571Y-12474714D01*
X12295000Y-12474714D01*
X12266428Y-12460429D01*
X12252143Y-12446143D01*
X12237857Y-12417571D01*
X12223571Y-12360429D01*
X12223571Y-12289000D01*
X12237857Y-12231857D01*
X12252143Y-12203286D01*
X12266428Y-12189000D01*
X12295000Y-12174714D01*
X12523571Y-12446143D02*
X12537857Y-12460429D01*
X12523571Y-12474714D01*
X12509286Y-12460429D01*
X12523571Y-12446143D01*
X12523571Y-12474714D01*
X12723571Y-12174714D02*
X12752143Y-12174714D01*
X12780714Y-12189000D01*
X12795000Y-12203286D01*
X12809285Y-12231857D01*
X12823571Y-12289000D01*
X12823571Y-12360429D01*
X12809285Y-12417571D01*
X12795000Y-12446143D01*
X12780714Y-12460429D01*
X12752143Y-12474714D01*
X12723571Y-12474714D01*
X12695000Y-12460429D01*
X12680714Y-12446143D01*
X12666428Y-12417571D01*
X12652143Y-12360429D01*
X12652143Y-12289000D01*
X12666428Y-12231857D01*
X12680714Y-12203286D01*
X12695000Y-12189000D01*
X12723571Y-12174714D01*
X12923571Y-12174714D02*
X13109285Y-12174714D01*
X13009285Y-12289000D01*
X13052143Y-12289000D01*
X13080714Y-12303286D01*
X13095000Y-12317571D01*
X13109285Y-12346143D01*
X13109285Y-12417571D01*
X13095000Y-12446143D01*
X13080714Y-12460429D01*
X13052143Y-12474714D01*
X12966428Y-12474714D01*
X12937857Y-12460429D01*
X12923571Y-12446143D01*
X13395000Y-12474714D02*
X13223571Y-12474714D01*
X13309285Y-12474714D02*
X13309285Y-12174714D01*
X13280714Y-12217571D01*
X13252143Y-12246143D01*
X13223571Y-12260429D01*
X13509286Y-12174714D02*
X13509286Y-12231857D01*
X13623571Y-12174714D02*
X13623571Y-12231857D01*
X14066428Y-12589000D02*
X14052143Y-12574714D01*
X14023571Y-12531857D01*
X14009285Y-12503286D01*
X13995000Y-12460429D01*
X13980714Y-12389000D01*
X13980714Y-12331857D01*
X13995000Y-12260429D01*
X14009285Y-12217571D01*
X14023571Y-12189000D01*
X14052143Y-12146143D01*
X14066428Y-12131857D01*
X14237857Y-12174714D02*
X14266428Y-12174714D01*
X14295000Y-12189000D01*
X14309285Y-12203286D01*
X14323571Y-12231857D01*
X14337857Y-12289000D01*
X14337857Y-12360429D01*
X14323571Y-12417571D01*
X14309285Y-12446143D01*
X14295000Y-12460429D01*
X14266428Y-12474714D01*
X14237857Y-12474714D01*
X14209285Y-12460429D01*
X14195000Y-12446143D01*
X14180714Y-12417571D01*
X14166428Y-12360429D01*
X14166428Y-12289000D01*
X14180714Y-12231857D01*
X14195000Y-12203286D01*
X14209285Y-12189000D01*
X14237857Y-12174714D01*
X14695000Y-12474714D02*
X14695000Y-12174714D01*
X14823571Y-12474714D02*
X14823571Y-12317571D01*
X14809285Y-12289000D01*
X14780714Y-12274714D01*
X14737857Y-12274714D01*
X14709285Y-12289000D01*
X14695000Y-12303286D01*
X15009285Y-12474714D02*
X14980714Y-12460429D01*
X14966428Y-12446143D01*
X14952143Y-12417571D01*
X14952143Y-12331857D01*
X14966428Y-12303286D01*
X14980714Y-12289000D01*
X15009285Y-12274714D01*
X15052143Y-12274714D01*
X15080714Y-12289000D01*
X15095000Y-12303286D01*
X15109285Y-12331857D01*
X15109285Y-12417571D01*
X15095000Y-12446143D01*
X15080714Y-12460429D01*
X15052143Y-12474714D01*
X15009285Y-12474714D01*
X15280714Y-12474714D02*
X15252143Y-12460429D01*
X15237857Y-12431857D01*
X15237857Y-12174714D01*
X15509286Y-12460429D02*
X15480714Y-12474714D01*
X15423571Y-12474714D01*
X15395000Y-12460429D01*
X15380714Y-12431857D01*
X15380714Y-12317571D01*
X15395000Y-12289000D01*
X15423571Y-12274714D01*
X15480714Y-12274714D01*
X15509286Y-12289000D01*
X15523571Y-12317571D01*
X15523571Y-12346143D01*
X15380714Y-12374714D01*
X15637857Y-12460429D02*
X15666428Y-12474714D01*
X15723571Y-12474714D01*
X15752143Y-12460429D01*
X15766428Y-12431857D01*
X15766428Y-12417571D01*
X15752143Y-12389000D01*
X15723571Y-12374714D01*
X15680714Y-12374714D01*
X15652143Y-12360429D01*
X15637857Y-12331857D01*
X15637857Y-12317571D01*
X15652143Y-12289000D01*
X15680714Y-12274714D01*
X15723571Y-12274714D01*
X15752143Y-12289000D01*
X16123571Y-12360429D02*
X16352143Y-12360429D01*
X16237857Y-12474714D02*
X16237857Y-12246143D01*
X16852143Y-12274714D02*
X16852143Y-12474714D01*
X16780714Y-12160429D02*
X16709286Y-12374714D01*
X16895000Y-12374714D01*
X17223571Y-12460429D02*
X17252143Y-12474714D01*
X17309286Y-12474714D01*
X17337857Y-12460429D01*
X17352143Y-12431857D01*
X17352143Y-12417571D01*
X17337857Y-12389000D01*
X17309286Y-12374714D01*
X17266428Y-12374714D01*
X17237857Y-12360429D01*
X17223571Y-12331857D01*
X17223571Y-12317571D01*
X17237857Y-12289000D01*
X17266428Y-12274714D01*
X17309286Y-12274714D01*
X17337857Y-12289000D01*
X17523571Y-12474714D02*
X17495000Y-12460429D01*
X17480714Y-12431857D01*
X17480714Y-12174714D01*
X17680714Y-12474714D02*
X17652143Y-12460429D01*
X17637857Y-12446143D01*
X17623571Y-12417571D01*
X17623571Y-12331857D01*
X17637857Y-12303286D01*
X17652143Y-12289000D01*
X17680714Y-12274714D01*
X17723571Y-12274714D01*
X17752143Y-12289000D01*
X17766428Y-12303286D01*
X17780714Y-12331857D01*
X17780714Y-12417571D01*
X17766428Y-12446143D01*
X17752143Y-12460429D01*
X17723571Y-12474714D01*
X17680714Y-12474714D01*
X17866428Y-12274714D02*
X17980714Y-12274714D01*
X17909286Y-12174714D02*
X17909286Y-12431857D01*
X17923571Y-12460429D01*
X17952143Y-12474714D01*
X17980714Y-12474714D01*
X18066429Y-12460429D02*
X18095000Y-12474714D01*
X18152143Y-12474714D01*
X18180714Y-12460429D01*
X18195000Y-12431857D01*
X18195000Y-12417571D01*
X18180714Y-12389000D01*
X18152143Y-12374714D01*
X18109286Y-12374714D01*
X18080714Y-12360429D01*
X18066429Y-12331857D01*
X18066429Y-12317571D01*
X18080714Y-12289000D01*
X18109286Y-12274714D01*
X18152143Y-12274714D01*
X18180714Y-12289000D01*
X18295000Y-12589000D02*
X18309286Y-12574714D01*
X18337857Y-12531857D01*
X18352143Y-12503286D01*
X18366428Y-12460429D01*
X18380714Y-12389000D01*
X18380714Y-12331857D01*
X18366428Y-12260429D01*
X18352143Y-12217571D01*
X18337857Y-12189000D01*
X18309286Y-12146143D01*
X18295000Y-12131857D01*
X9344200Y-12684200D02*
X9344200Y-12785800D01*
X9293400Y-12735000D02*
X9395000Y-12735000D01*
X9823571Y-12870714D02*
X9652143Y-12870714D01*
X9737857Y-12870714D02*
X9737857Y-12570714D01*
X9709286Y-12613571D01*
X9680714Y-12642143D01*
X9652143Y-12656429D01*
X9952143Y-12842143D02*
X9966429Y-12856429D01*
X9952143Y-12870714D01*
X9937857Y-12856429D01*
X9952143Y-12842143D01*
X9952143Y-12870714D01*
X10152143Y-12570714D02*
X10180714Y-12570714D01*
X10209286Y-12585000D01*
X10223571Y-12599286D01*
X10237857Y-12627857D01*
X10252143Y-12685000D01*
X10252143Y-12756429D01*
X10237857Y-12813571D01*
X10223571Y-12842143D01*
X10209286Y-12856429D01*
X10180714Y-12870714D01*
X10152143Y-12870714D01*
X10123571Y-12856429D01*
X10109286Y-12842143D01*
X10095000Y-12813571D01*
X10080714Y-12756429D01*
X10080714Y-12685000D01*
X10095000Y-12627857D01*
X10109286Y-12599286D01*
X10123571Y-12585000D01*
X10152143Y-12570714D01*
X10366429Y-12599286D02*
X10380714Y-12585000D01*
X10409286Y-12570714D01*
X10480714Y-12570714D01*
X10509286Y-12585000D01*
X10523571Y-12599286D01*
X10537857Y-12627857D01*
X10537857Y-12656429D01*
X10523571Y-12699286D01*
X10352143Y-12870714D01*
X10537857Y-12870714D01*
X10666429Y-12870714D02*
X10666429Y-12670714D01*
X10666429Y-12699286D02*
X10680714Y-12685000D01*
X10709286Y-12670714D01*
X10752143Y-12670714D01*
X10780714Y-12685000D01*
X10795000Y-12713571D01*
X10795000Y-12870714D01*
X10795000Y-12713571D02*
X10809286Y-12685000D01*
X10837857Y-12670714D01*
X10880714Y-12670714D01*
X10909286Y-12685000D01*
X10923571Y-12713571D01*
X10923571Y-12870714D01*
X11066429Y-12870714D02*
X11066429Y-12670714D01*
X11066429Y-12699286D02*
X11080714Y-12685000D01*
X11109286Y-12670714D01*
X11152143Y-12670714D01*
X11180714Y-12685000D01*
X11195000Y-12713571D01*
X11195000Y-12870714D01*
X11195000Y-12713571D02*
X11209286Y-12685000D01*
X11237857Y-12670714D01*
X11280714Y-12670714D01*
X11309286Y-12685000D01*
X11323571Y-12713571D01*
X11323571Y-12870714D01*
X11909286Y-12556429D02*
X11652143Y-12942143D01*
X12295000Y-12570714D02*
X12323571Y-12570714D01*
X12352143Y-12585000D01*
X12366428Y-12599286D01*
X12380714Y-12627857D01*
X12395000Y-12685000D01*
X12395000Y-12756429D01*
X12380714Y-12813571D01*
X12366428Y-12842143D01*
X12352143Y-12856429D01*
X12323571Y-12870714D01*
X12295000Y-12870714D01*
X12266428Y-12856429D01*
X12252143Y-12842143D01*
X12237857Y-12813571D01*
X12223571Y-12756429D01*
X12223571Y-12685000D01*
X12237857Y-12627857D01*
X12252143Y-12599286D01*
X12266428Y-12585000D01*
X12295000Y-12570714D01*
X12523571Y-12842143D02*
X12537857Y-12856429D01*
X12523571Y-12870714D01*
X12509286Y-12856429D01*
X12523571Y-12842143D01*
X12523571Y-12870714D01*
X12723571Y-12570714D02*
X12752143Y-12570714D01*
X12780714Y-12585000D01*
X12795000Y-12599286D01*
X12809285Y-12627857D01*
X12823571Y-12685000D01*
X12823571Y-12756429D01*
X12809285Y-12813571D01*
X12795000Y-12842143D01*
X12780714Y-12856429D01*
X12752143Y-12870714D01*
X12723571Y-12870714D01*
X12695000Y-12856429D01*
X12680714Y-12842143D01*
X12666428Y-12813571D01*
X12652143Y-12756429D01*
X12652143Y-12685000D01*
X12666428Y-12627857D01*
X12680714Y-12599286D01*
X12695000Y-12585000D01*
X12723571Y-12570714D01*
X13080714Y-12670714D02*
X13080714Y-12870714D01*
X13009285Y-12556429D02*
X12937857Y-12770714D01*
X13123571Y-12770714D01*
X13295000Y-12570714D02*
X13323571Y-12570714D01*
X13352143Y-12585000D01*
X13366428Y-12599286D01*
X13380714Y-12627857D01*
X13395000Y-12685000D01*
X13395000Y-12756429D01*
X13380714Y-12813571D01*
X13366428Y-12842143D01*
X13352143Y-12856429D01*
X13323571Y-12870714D01*
X13295000Y-12870714D01*
X13266428Y-12856429D01*
X13252143Y-12842143D01*
X13237857Y-12813571D01*
X13223571Y-12756429D01*
X13223571Y-12685000D01*
X13237857Y-12627857D01*
X13252143Y-12599286D01*
X13266428Y-12585000D01*
X13295000Y-12570714D01*
X13509286Y-12570714D02*
X13509286Y-12627857D01*
X13623571Y-12570714D02*
X13623571Y-12627857D01*
X14066428Y-12985000D02*
X14052143Y-12970714D01*
X14023571Y-12927857D01*
X14009285Y-12899286D01*
X13995000Y-12856429D01*
X13980714Y-12785000D01*
X13980714Y-12727857D01*
X13995000Y-12656429D01*
X14009285Y-12613571D01*
X14023571Y-12585000D01*
X14052143Y-12542143D01*
X14066428Y-12527857D01*
X14337857Y-12870714D02*
X14166428Y-12870714D01*
X14252143Y-12870714D02*
X14252143Y-12570714D01*
X14223571Y-12613571D01*
X14195000Y-12642143D01*
X14166428Y-12656429D01*
X14623571Y-12870714D02*
X14452143Y-12870714D01*
X14537857Y-12870714D02*
X14537857Y-12570714D01*
X14509285Y-12613571D01*
X14480714Y-12642143D01*
X14452143Y-12656429D01*
X14723571Y-12570714D02*
X14909285Y-12570714D01*
X14809285Y-12685000D01*
X14852143Y-12685000D01*
X14880714Y-12699286D01*
X14895000Y-12713571D01*
X14909285Y-12742143D01*
X14909285Y-12813571D01*
X14895000Y-12842143D01*
X14880714Y-12856429D01*
X14852143Y-12870714D01*
X14766428Y-12870714D01*
X14737857Y-12856429D01*
X14723571Y-12842143D01*
X15266428Y-12870714D02*
X15266428Y-12570714D01*
X15395000Y-12870714D02*
X15395000Y-12713571D01*
X15380714Y-12685000D01*
X15352143Y-12670714D01*
X15309285Y-12670714D01*
X15280714Y-12685000D01*
X15266428Y-12699286D01*
X15580714Y-12870714D02*
X15552143Y-12856429D01*
X15537857Y-12842143D01*
X15523571Y-12813571D01*
X15523571Y-12727857D01*
X15537857Y-12699286D01*
X15552143Y-12685000D01*
X15580714Y-12670714D01*
X15623571Y-12670714D01*
X15652143Y-12685000D01*
X15666428Y-12699286D01*
X15680714Y-12727857D01*
X15680714Y-12813571D01*
X15666428Y-12842143D01*
X15652143Y-12856429D01*
X15623571Y-12870714D01*
X15580714Y-12870714D01*
X15852143Y-12870714D02*
X15823571Y-12856429D01*
X15809286Y-12827857D01*
X15809286Y-12570714D01*
X16080714Y-12856429D02*
X16052143Y-12870714D01*
X15995000Y-12870714D01*
X15966428Y-12856429D01*
X15952143Y-12827857D01*
X15952143Y-12713571D01*
X15966428Y-12685000D01*
X15995000Y-12670714D01*
X16052143Y-12670714D01*
X16080714Y-12685000D01*
X16095000Y-12713571D01*
X16095000Y-12742143D01*
X15952143Y-12770714D01*
X16209286Y-12856429D02*
X16237857Y-12870714D01*
X16295000Y-12870714D01*
X16323571Y-12856429D01*
X16337857Y-12827857D01*
X16337857Y-12813571D01*
X16323571Y-12785000D01*
X16295000Y-12770714D01*
X16252143Y-12770714D01*
X16223571Y-12756429D01*
X16209286Y-12727857D01*
X16209286Y-12713571D01*
X16223571Y-12685000D01*
X16252143Y-12670714D01*
X16295000Y-12670714D01*
X16323571Y-12685000D01*
X16437857Y-12985000D02*
X16452143Y-12970714D01*
X16480714Y-12927857D01*
X16495000Y-12899286D01*
X16509286Y-12856429D01*
X16523571Y-12785000D01*
X16523571Y-12727857D01*
X16509286Y-12656429D01*
X16495000Y-12613571D01*
X16480714Y-12585000D01*
X16452143Y-12542143D01*
X16437857Y-12527857D01*
M02*
