G04 #@! TF.FileFunction,Soldermask,Bot*
%FSLAX46Y46*%
G04 Gerber Fmt 4.6, Leading zero omitted, Abs format (unit mm)*
G04 Created by KiCad (PCBNEW 4.0.5+dfsg1-4) date Fri May  5 14:20:23 2017*
%MOMM*%
%LPD*%
G01*
G04 APERTURE LIST*
%ADD10C,0.100000*%
%ADD11R,3.900000X3.700000*%
%ADD12C,9.400000*%
%ADD13R,2.432000X1.924000*%
%ADD14R,2.400000X2.900000*%
%ADD15R,1.100000X1.600000*%
%ADD16R,1.650000X1.900000*%
%ADD17R,1.900000X1.650000*%
%ADD18R,1.924000X2.432000*%
%ADD19O,1.873200X1.009600*%
%ADD20R,1.200000X1.300000*%
%ADD21R,2.500000X2.000000*%
%ADD22R,2.300000X2.300000*%
%ADD23R,0.800000X1.750000*%
%ADD24R,2.200000X2.300000*%
%ADD25C,2.100000*%
%ADD26R,2.300000X1.200000*%
%ADD27R,1.600000X1.150000*%
%ADD28R,1.150000X1.600000*%
%ADD29R,1.300000X1.600000*%
%ADD30R,1.600000X1.300000*%
%ADD31O,1.700000X3.100000*%
%ADD32O,1.700000X2.700000*%
%ADD33R,1.000000X1.950000*%
%ADD34R,1.950000X1.000000*%
%ADD35O,2.900000X1.300000*%
%ADD36O,1.300000X2.900000*%
%ADD37R,6.400000X6.400000*%
%ADD38R,2.127200X2.127200*%
%ADD39O,2.127200X2.127200*%
%ADD40C,5.900000*%
%ADD41R,1.300000X1.200000*%
%ADD42R,1.400000X0.800000*%
%ADD43R,2.200000X1.600000*%
%ADD44R,1.800000X2.600000*%
%ADD45R,2.127200X2.432000*%
%ADD46O,2.127200X2.432000*%
%ADD47R,1.598880X1.598880*%
G04 APERTURE END LIST*
D10*
D11*
X174390000Y-105870000D03*
X158590000Y-105870000D03*
D12*
X166490000Y-105870000D03*
D13*
X171570000Y-62944000D03*
X171570000Y-66246000D03*
D14*
X107975000Y-88090000D03*
X111975000Y-88090000D03*
D15*
X105845000Y-85580000D03*
X104895000Y-85580000D03*
X103945000Y-85580000D03*
X103945000Y-82980000D03*
X105845000Y-82980000D03*
D14*
X155155000Y-80470000D03*
X151155000Y-80470000D03*
D15*
X156650000Y-84220000D03*
X157600000Y-84220000D03*
X158550000Y-84220000D03*
X158550000Y-86820000D03*
X156650000Y-86820000D03*
D14*
X107340000Y-76660000D03*
X111340000Y-76660000D03*
D15*
X105845000Y-72880000D03*
X104895000Y-72880000D03*
X103945000Y-72880000D03*
X103945000Y-70280000D03*
X105845000Y-70280000D03*
D16*
X102355000Y-70330000D03*
X102355000Y-72830000D03*
D17*
X111860000Y-85550000D03*
X109360000Y-85550000D03*
X111860000Y-83645000D03*
X109360000Y-83645000D03*
D16*
X102355000Y-83030000D03*
X102355000Y-85530000D03*
D17*
X150635000Y-84915000D03*
X153135000Y-84915000D03*
X150635000Y-83010000D03*
X153135000Y-83010000D03*
D16*
X160140000Y-86800000D03*
X160140000Y-84300000D03*
D17*
X111860000Y-72215000D03*
X109360000Y-72215000D03*
X111860000Y-74120000D03*
X109360000Y-74120000D03*
D18*
X162680000Y-74120000D03*
X165982000Y-74120000D03*
D13*
X158870000Y-66246000D03*
X158870000Y-62944000D03*
D19*
X174364000Y-93170000D03*
X174364000Y-94440000D03*
X174364000Y-95710000D03*
X174364000Y-96980000D03*
X168776000Y-96980000D03*
X168776000Y-95710000D03*
X168776000Y-94440000D03*
X168776000Y-93170000D03*
D17*
X161430000Y-93170000D03*
X163930000Y-93170000D03*
D20*
X159725000Y-96345000D03*
X161825000Y-96345000D03*
X179430000Y-88000000D03*
X181530000Y-88000000D03*
X176650000Y-77295000D03*
X174550000Y-77295000D03*
X170715000Y-81105000D03*
X168615000Y-81105000D03*
D21*
X154350000Y-107130000D03*
X148150000Y-107130000D03*
D22*
X152450000Y-109680000D03*
X150050000Y-109680000D03*
D23*
X152550000Y-107005000D03*
X151900000Y-107005000D03*
X151250000Y-107005000D03*
X150600000Y-107005000D03*
X149950000Y-107005000D03*
D24*
X155050000Y-109680000D03*
X147450000Y-109680000D03*
D21*
X162120000Y-66510000D03*
X168320000Y-66510000D03*
D22*
X164020000Y-63960000D03*
X166420000Y-63960000D03*
D23*
X163920000Y-66635000D03*
X164570000Y-66635000D03*
X165220000Y-66635000D03*
X165870000Y-66635000D03*
X166520000Y-66635000D03*
D24*
X161420000Y-63960000D03*
X169020000Y-63960000D03*
D25*
X123310000Y-66540000D03*
X123310000Y-73540000D03*
D26*
X164585000Y-89360000D03*
X164585000Y-91260000D03*
X161585000Y-90310000D03*
X174340000Y-85870000D03*
X174340000Y-87770000D03*
X171340000Y-86820000D03*
D27*
X111560000Y-80470000D03*
X109660000Y-80470000D03*
X150935000Y-88090000D03*
X152835000Y-88090000D03*
X111560000Y-69040000D03*
X109660000Y-69040000D03*
D28*
X174110000Y-82060000D03*
X174110000Y-83960000D03*
D29*
X159505000Y-94270000D03*
X159505000Y-92070000D03*
X176650000Y-87920000D03*
X176650000Y-85720000D03*
D30*
X179020000Y-89360000D03*
X176820000Y-89360000D03*
D29*
X176650000Y-81445000D03*
X176650000Y-83645000D03*
X166490000Y-90800000D03*
X166490000Y-93000000D03*
D30*
X155230000Y-99520000D03*
X157430000Y-99520000D03*
D29*
X172205000Y-81275000D03*
X172205000Y-83475000D03*
X129280000Y-107900000D03*
X129280000Y-110100000D03*
D30*
X166955000Y-81105000D03*
X164755000Y-81105000D03*
D29*
X172205000Y-76830000D03*
X172205000Y-79030000D03*
D30*
X111710000Y-81740000D03*
X109510000Y-81740000D03*
X111710000Y-70310000D03*
X109510000Y-70310000D03*
X150785000Y-86820000D03*
X152985000Y-86820000D03*
D29*
X107435000Y-85380000D03*
X107435000Y-83180000D03*
X107435000Y-72680000D03*
X107435000Y-70480000D03*
X155060000Y-84450000D03*
X155060000Y-86650000D03*
D30*
X126782000Y-86185000D03*
X124582000Y-86185000D03*
X126782000Y-84279000D03*
X124582000Y-84279000D03*
X126782000Y-82375000D03*
X124582000Y-82375000D03*
X126782000Y-80470000D03*
X124582000Y-80470000D03*
D29*
X130930000Y-75687000D03*
X130930000Y-73487000D03*
X132835000Y-75687000D03*
X132835000Y-73487000D03*
X134740000Y-75687000D03*
X134740000Y-73487000D03*
X136645000Y-75687000D03*
X136645000Y-73487000D03*
D31*
X152280000Y-69650000D03*
X137680000Y-69650000D03*
D32*
X137680000Y-63600000D03*
X152280000Y-63600000D03*
D33*
X116325000Y-84120000D03*
X117595000Y-84120000D03*
X118865000Y-84120000D03*
X120135000Y-84120000D03*
X120135000Y-89520000D03*
X118865000Y-89520000D03*
X117595000Y-89520000D03*
X116325000Y-89520000D03*
D27*
X161095000Y-98885000D03*
X162995000Y-98885000D03*
D34*
X141980000Y-67705000D03*
X141980000Y-66435000D03*
X141980000Y-65165000D03*
X141980000Y-63895000D03*
X147380000Y-63895000D03*
X147380000Y-65165000D03*
X147380000Y-66435000D03*
X147380000Y-67705000D03*
D20*
X166270000Y-96345000D03*
X164170000Y-96345000D03*
X174330000Y-79200000D03*
X176430000Y-79200000D03*
D35*
X126260434Y-111030338D03*
X126260434Y-109760338D03*
X126260434Y-108490338D03*
X126260434Y-107220338D03*
X126260434Y-105950338D03*
X126260434Y-104680338D03*
X126260434Y-103410338D03*
X126260434Y-102140338D03*
X126260434Y-100870338D03*
X126260434Y-99600338D03*
X126260434Y-98330338D03*
X126260434Y-97060338D03*
X126260434Y-95790338D03*
X126260434Y-94520338D03*
D36*
X122975434Y-93030338D03*
X121705434Y-93030338D03*
X120435434Y-93030338D03*
X119165434Y-93030338D03*
X117895434Y-93030338D03*
X116625434Y-93030338D03*
X115355434Y-93030338D03*
X114085434Y-93030338D03*
X112815434Y-93030338D03*
X111545434Y-93030338D03*
D35*
X108260434Y-94520338D03*
X108260434Y-95790338D03*
X108260434Y-97060338D03*
X108260434Y-98330338D03*
X108260434Y-99600338D03*
X108260434Y-100870338D03*
X108260434Y-102140338D03*
X108260434Y-103410338D03*
X108260434Y-104680338D03*
X108260434Y-105950338D03*
X108260434Y-107220338D03*
X108260434Y-108490338D03*
X108260434Y-109760338D03*
X108260434Y-111030338D03*
D37*
X116960434Y-103330338D03*
D38*
X97910000Y-62690000D03*
D39*
X95370000Y-62690000D03*
X97910000Y-65230000D03*
X95370000Y-65230000D03*
X97910000Y-67770000D03*
X95370000Y-67770000D03*
X97910000Y-70310000D03*
X95370000Y-70310000D03*
X97910000Y-72850000D03*
X95370000Y-72850000D03*
X97910000Y-75390000D03*
X95370000Y-75390000D03*
X97910000Y-77930000D03*
X95370000Y-77930000D03*
X97910000Y-80470000D03*
X95370000Y-80470000D03*
X97910000Y-83010000D03*
X95370000Y-83010000D03*
X97910000Y-85550000D03*
X95370000Y-85550000D03*
X97910000Y-88090000D03*
X95370000Y-88090000D03*
X97910000Y-90630000D03*
X95370000Y-90630000D03*
X97910000Y-93170000D03*
X95370000Y-93170000D03*
X97910000Y-95710000D03*
X95370000Y-95710000D03*
X97910000Y-98250000D03*
X95370000Y-98250000D03*
X97910000Y-100790000D03*
X95370000Y-100790000D03*
X97910000Y-103330000D03*
X95370000Y-103330000D03*
X97910000Y-105870000D03*
X95370000Y-105870000D03*
X97910000Y-108410000D03*
X95370000Y-108410000D03*
X97910000Y-110950000D03*
X95370000Y-110950000D03*
D38*
X184270000Y-110950000D03*
D39*
X186810000Y-110950000D03*
X184270000Y-108410000D03*
X186810000Y-108410000D03*
X184270000Y-105870000D03*
X186810000Y-105870000D03*
X184270000Y-103330000D03*
X186810000Y-103330000D03*
X184270000Y-100790000D03*
X186810000Y-100790000D03*
X184270000Y-98250000D03*
X186810000Y-98250000D03*
X184270000Y-95710000D03*
X186810000Y-95710000D03*
X184270000Y-93170000D03*
X186810000Y-93170000D03*
X184270000Y-90630000D03*
X186810000Y-90630000D03*
X184270000Y-88090000D03*
X186810000Y-88090000D03*
X184270000Y-85550000D03*
X186810000Y-85550000D03*
X184270000Y-83010000D03*
X186810000Y-83010000D03*
X184270000Y-80470000D03*
X186810000Y-80470000D03*
X184270000Y-77930000D03*
X186810000Y-77930000D03*
X184270000Y-75390000D03*
X186810000Y-75390000D03*
X184270000Y-72850000D03*
X186810000Y-72850000D03*
X184270000Y-70310000D03*
X186810000Y-70310000D03*
X184270000Y-67770000D03*
X186810000Y-67770000D03*
X184270000Y-65230000D03*
X186810000Y-65230000D03*
X184270000Y-62690000D03*
X186810000Y-62690000D03*
D40*
X102990000Y-108410000D03*
X179190000Y-108410000D03*
X179190000Y-65230000D03*
X102990000Y-65230000D03*
D41*
X167125000Y-69260000D03*
X167125000Y-71360000D03*
X164585000Y-69260000D03*
X164585000Y-71360000D03*
D29*
X162045000Y-71410000D03*
X162045000Y-69210000D03*
X139820000Y-66330000D03*
X139820000Y-64130000D03*
X135375000Y-63300000D03*
X135375000Y-65500000D03*
X150615000Y-68870000D03*
X150615000Y-66670000D03*
X147440000Y-75220000D03*
X147440000Y-73020000D03*
D42*
X137005000Y-104215000D03*
X137005000Y-104865000D03*
X137005000Y-105515000D03*
X137005000Y-106165000D03*
X137005000Y-106815000D03*
X137005000Y-107465000D03*
X137005000Y-108115000D03*
X137005000Y-108765000D03*
X137005000Y-109415000D03*
X137005000Y-110065000D03*
X131205000Y-110065000D03*
X131205000Y-109415000D03*
X131205000Y-108765000D03*
X131205000Y-108115000D03*
X131205000Y-107465000D03*
X131205000Y-106815000D03*
X131205000Y-106165000D03*
X131205000Y-105515000D03*
X131205000Y-104865000D03*
X131205000Y-104215000D03*
D29*
X119500000Y-79370000D03*
X119500000Y-81570000D03*
X114480000Y-89500000D03*
X114480000Y-87300000D03*
X129660000Y-99985000D03*
X129660000Y-97785000D03*
X117595000Y-79370000D03*
X117595000Y-81570000D03*
X122280000Y-86300000D03*
X122280000Y-88500000D03*
X115690000Y-79370000D03*
X115690000Y-81570000D03*
D30*
X144730000Y-98250000D03*
X142530000Y-98250000D03*
X138380000Y-98250000D03*
X136180000Y-98250000D03*
X131735000Y-98250000D03*
X133935000Y-98250000D03*
X101890000Y-103965000D03*
X104090000Y-103965000D03*
D43*
X177190000Y-95200000D03*
X181190000Y-95200000D03*
X181190000Y-92800000D03*
X177190000Y-92800000D03*
D44*
X133450000Y-63350000D03*
X133450000Y-69650000D03*
X130950000Y-69650000D03*
X130950000Y-63350000D03*
D38*
X104260000Y-99520000D03*
D39*
X101720000Y-99520000D03*
D45*
X147440000Y-100790000D03*
D46*
X144900000Y-100790000D03*
X142360000Y-100790000D03*
X139820000Y-100790000D03*
X137280000Y-100790000D03*
X134740000Y-100790000D03*
X132200000Y-100790000D03*
D30*
X101890000Y-102060000D03*
X104090000Y-102060000D03*
D47*
X143630980Y-104000000D03*
X145729020Y-104000000D03*
X141504020Y-107775000D03*
X139405980Y-107775000D03*
D30*
X139355000Y-103965000D03*
X141555000Y-103965000D03*
X139355000Y-109680000D03*
X141555000Y-109680000D03*
M02*
