%FSLAX45Y45*%
G04 Gerber Fmt 4.5, Leading zero omitted, Abs format (unit mm)*
G04 Created by KiCad (PCBNEW 5.1.6+dfsg1-1) date 2020-05-20 13:22:55*
%MOMM*%
%LPD*%
G01*
G04 APERTURE LIST*
%TA.AperFunction,Profile*%
%ADD10C,0.300000*%
%TD*%
%ADD11C,0.200000*%
%ADD12C,0.300000*%
G04 APERTURE END LIST*
D10*
X9410000Y-6142000D02*
X9410000Y-11222000D01*
X18808000Y-6142000D02*
X9410000Y-6142000D01*
X18808000Y-11222000D02*
X18808000Y-6142000D01*
X9410000Y-11222000D02*
X18808000Y-11222000D01*
D11*
X9969000Y-8676600D02*
X9989000Y-8696600D01*
X9989000Y-8676600D02*
X9969000Y-8696600D01*
X9990550Y-7986200D02*
X10010550Y-8006200D01*
X10010550Y-7986200D02*
X9990550Y-8006200D01*
X10007100Y-8752800D02*
X10027100Y-8772800D01*
X10027100Y-8752800D02*
X10007100Y-8772800D01*
X10032500Y-7393900D02*
X10052500Y-7413900D01*
X10052500Y-7393900D02*
X10032500Y-7413900D01*
X10032500Y-7686000D02*
X10052500Y-7706000D01*
X10052500Y-7686000D02*
X10032500Y-7706000D01*
X10035000Y-10094400D02*
X10055000Y-10114400D01*
X10055000Y-10094400D02*
X10035000Y-10114400D01*
X10035000Y-10373800D02*
X10055000Y-10393800D01*
X10055000Y-10373800D02*
X10035000Y-10393800D01*
X10125400Y-7619700D02*
X10145400Y-7639700D01*
X10145400Y-7619700D02*
X10125400Y-7639700D01*
X10136600Y-8240200D02*
X10156600Y-8260200D01*
X10156600Y-8240200D02*
X10136600Y-8260200D01*
X10187400Y-8868850D02*
X10207400Y-8888850D01*
X10207400Y-8868850D02*
X10187400Y-8888850D01*
X10200100Y-10373800D02*
X10220100Y-10393800D01*
X10220100Y-10373800D02*
X10200100Y-10393800D01*
X10517600Y-10094400D02*
X10537600Y-10114400D01*
X10537600Y-10094400D02*
X10517600Y-10114400D01*
X10535000Y-10302000D02*
X10555000Y-10322000D01*
X10555000Y-10302000D02*
X10535000Y-10322000D01*
X10535450Y-8649900D02*
X10555450Y-8669900D01*
X10555450Y-8649900D02*
X10535450Y-8669900D01*
X10555000Y-10432000D02*
X10575000Y-10452000D01*
X10575000Y-10432000D02*
X10555000Y-10452000D01*
X10579488Y-10351488D02*
X10599488Y-10371488D01*
X10599488Y-10351488D02*
X10579488Y-10371488D01*
X10615000Y-9725701D02*
X10635000Y-9745701D01*
X10635000Y-9725701D02*
X10615000Y-9745701D01*
X10625000Y-10477000D02*
X10645000Y-10497000D01*
X10645000Y-10477000D02*
X10625000Y-10497000D01*
X10640000Y-9792000D02*
X10660000Y-9812000D01*
X10660000Y-9792000D02*
X10640000Y-9812000D01*
X10640000Y-9877000D02*
X10660000Y-9897000D01*
X10660000Y-9877000D02*
X10640000Y-9897000D01*
X10640000Y-9992000D02*
X10660000Y-10012000D01*
X10660000Y-9992000D02*
X10640000Y-10012000D01*
X10652500Y-10139500D02*
X10672500Y-10159500D01*
X10672500Y-10139500D02*
X10652500Y-10159500D01*
X10733500Y-6741600D02*
X10753500Y-6761600D01*
X10753500Y-6741600D02*
X10733500Y-6761600D01*
X10733500Y-7668700D02*
X10753500Y-7688700D01*
X10753500Y-7668700D02*
X10733500Y-7688700D01*
X10924000Y-8164000D02*
X10944000Y-8184000D01*
X10944000Y-8164000D02*
X10924000Y-8184000D01*
X10962100Y-10411900D02*
X10982100Y-10431900D01*
X10982100Y-10411900D02*
X10962100Y-10431900D01*
X10980000Y-9612000D02*
X11000000Y-9632000D01*
X11000000Y-9612000D02*
X10980000Y-9632000D01*
X10994655Y-9666656D02*
X11014655Y-9686656D01*
X11014655Y-9666656D02*
X10994655Y-9686656D01*
X11001700Y-7175200D02*
X11021700Y-7195200D01*
X11021700Y-7175200D02*
X11001700Y-7195200D01*
X11049908Y-7448938D02*
X11069908Y-7468938D01*
X11069908Y-7448938D02*
X11049908Y-7468938D01*
X11090600Y-7645100D02*
X11110600Y-7665100D01*
X11110600Y-7645100D02*
X11090600Y-7665100D01*
X11100000Y-9452000D02*
X11120000Y-9472000D01*
X11120000Y-9452000D02*
X11100000Y-9472000D01*
X11178000Y-7344850D02*
X11198000Y-7364850D01*
X11198000Y-7344850D02*
X11178000Y-7364850D01*
X11179522Y-8615379D02*
X11199522Y-8635379D01*
X11199522Y-8615379D02*
X11179522Y-8635379D01*
X11260550Y-7344851D02*
X11280550Y-7364851D01*
X11280550Y-7344851D02*
X11260550Y-7364851D01*
X11305725Y-6724363D02*
X11325725Y-6744363D01*
X11325725Y-6724363D02*
X11305725Y-6744363D01*
X11344600Y-8845973D02*
X11364600Y-8865973D01*
X11364600Y-8845973D02*
X11344600Y-8865973D01*
X11400408Y-7451220D02*
X11420408Y-7471220D01*
X11420408Y-7451220D02*
X11400408Y-7471220D01*
X11408100Y-7657800D02*
X11428100Y-7677800D01*
X11428100Y-7657800D02*
X11408100Y-7677800D01*
X11441393Y-8230943D02*
X11461393Y-8250943D01*
X11461393Y-8230943D02*
X11441393Y-8250943D01*
X11514550Y-9827700D02*
X11534550Y-9847700D01*
X11534550Y-9827700D02*
X11514550Y-9847700D01*
X11578000Y-7370000D02*
X11598000Y-7390000D01*
X11598000Y-7370000D02*
X11578000Y-7390000D01*
X11633852Y-9827700D02*
X11653852Y-9847700D01*
X11653852Y-9827700D02*
X11633852Y-9847700D01*
X11635200Y-7414700D02*
X11655200Y-7434700D01*
X11655200Y-7414700D02*
X11635200Y-7434700D01*
X11747000Y-7114500D02*
X11767000Y-7134500D01*
X11767000Y-7114500D02*
X11747000Y-7134500D01*
X11870412Y-9644112D02*
X11890412Y-9664112D01*
X11890412Y-9644112D02*
X11870412Y-9664112D01*
X11940000Y-9772000D02*
X11960000Y-9792000D01*
X11960000Y-9772000D02*
X11940000Y-9792000D01*
X11959215Y-7739412D02*
X11979215Y-7759412D01*
X11979215Y-7739412D02*
X11959215Y-7759412D01*
X11990800Y-6690800D02*
X12010800Y-6710800D01*
X12010800Y-6690800D02*
X11990800Y-6710800D01*
X12056498Y-7133651D02*
X12076498Y-7153651D01*
X12076498Y-7133651D02*
X12056498Y-7153651D01*
X12175507Y-9114247D02*
X12195507Y-9134247D01*
X12195507Y-9114247D02*
X12175507Y-9134247D01*
X12180000Y-8992000D02*
X12200000Y-9012000D01*
X12200000Y-8992000D02*
X12180000Y-9012000D01*
X12182191Y-9451184D02*
X12202191Y-9471184D01*
X12202191Y-9451184D02*
X12182191Y-9471184D01*
X12182800Y-9575500D02*
X12202800Y-9595500D01*
X12202800Y-9575500D02*
X12182800Y-9595500D01*
X12214629Y-9520678D02*
X12234629Y-9540678D01*
X12234629Y-9520678D02*
X12214629Y-9540678D01*
X12219400Y-7656000D02*
X12239400Y-7676000D01*
X12239400Y-7656000D02*
X12219400Y-7676000D01*
X12282618Y-6643232D02*
X12302618Y-6663232D01*
X12302618Y-6643232D02*
X12282618Y-6663232D01*
X12284400Y-6768800D02*
X12304400Y-6788800D01*
X12304400Y-6768800D02*
X12284400Y-6788800D01*
X12295000Y-9642000D02*
X12315000Y-9662000D01*
X12315000Y-9642000D02*
X12295000Y-9662000D01*
X12321001Y-10424600D02*
X12341001Y-10444600D01*
X12341001Y-10424600D02*
X12321001Y-10444600D01*
X12325000Y-9692000D02*
X12345000Y-9712000D01*
X12345000Y-9692000D02*
X12325000Y-9712000D01*
X12370241Y-10586650D02*
X12390241Y-10606650D01*
X12390241Y-10586650D02*
X12370241Y-10606650D01*
X12402344Y-9062286D02*
X12422344Y-9082286D01*
X12422344Y-9062286D02*
X12402344Y-9082286D01*
X12410242Y-10710764D02*
X12430242Y-10730764D01*
X12430242Y-10710764D02*
X12410242Y-10730764D01*
X12426088Y-9013119D02*
X12446088Y-9033119D01*
X12446088Y-9013119D02*
X12426088Y-9033119D01*
X12437809Y-9139636D02*
X12457809Y-9159636D01*
X12457809Y-9139636D02*
X12437809Y-9159636D01*
X12450242Y-9992800D02*
X12470242Y-10012800D01*
X12470242Y-9992800D02*
X12450242Y-10012800D01*
X12460000Y-9295151D02*
X12480000Y-9315151D01*
X12480000Y-9295151D02*
X12460000Y-9315151D01*
X12460000Y-9392000D02*
X12480000Y-9412000D01*
X12480000Y-9392000D02*
X12460000Y-9412000D01*
X12461746Y-9507000D02*
X12481746Y-9527000D01*
X12481746Y-9507000D02*
X12461746Y-9527000D01*
X12480480Y-9008344D02*
X12500480Y-9028344D01*
X12500480Y-9008344D02*
X12480480Y-9028344D01*
X12487007Y-9062554D02*
X12507007Y-9082554D01*
X12507007Y-9062554D02*
X12487007Y-9082554D01*
X12490000Y-8732000D02*
X12510000Y-8752000D01*
X12510000Y-8732000D02*
X12490000Y-8752000D01*
X12696597Y-8875329D02*
X12716597Y-8895329D01*
X12716597Y-8875329D02*
X12696597Y-8895329D01*
X12733880Y-8744526D02*
X12753880Y-8764526D01*
X12753880Y-8744526D02*
X12733880Y-8764526D01*
X12748660Y-10777504D02*
X12768660Y-10797504D01*
X12768660Y-10777504D02*
X12748660Y-10797504D01*
X12753627Y-8582021D02*
X12773627Y-8602021D01*
X12773627Y-8582021D02*
X12753627Y-8602021D01*
X12759150Y-8405300D02*
X12779150Y-8425300D01*
X12779150Y-8405300D02*
X12759150Y-8425300D01*
X12778201Y-10958000D02*
X12798201Y-10978000D01*
X12798201Y-10958000D02*
X12778201Y-10978000D01*
X12780000Y-10372000D02*
X12800000Y-10392000D01*
X12800000Y-10372000D02*
X12780000Y-10392000D01*
X12820974Y-9132974D02*
X12840974Y-9152974D01*
X12840974Y-9132974D02*
X12820974Y-9152974D01*
X12827867Y-8982390D02*
X12847867Y-9002390D01*
X12847867Y-8982390D02*
X12827867Y-9002390D01*
X12829000Y-8030650D02*
X12849000Y-8050650D01*
X12849000Y-8030650D02*
X12829000Y-8050650D01*
X12835350Y-8379900D02*
X12855350Y-8399900D01*
X12855350Y-8379900D02*
X12835350Y-8399900D01*
X12839484Y-10212509D02*
X12859484Y-10232509D01*
X12859484Y-10212509D02*
X12839484Y-10232509D01*
X12841700Y-7765451D02*
X12861700Y-7785451D01*
X12861700Y-7765451D02*
X12841700Y-7785451D01*
X12842714Y-10340889D02*
X12862714Y-10360889D01*
X12862714Y-10340889D02*
X12842714Y-10360889D01*
X12845000Y-8582000D02*
X12865000Y-8602000D01*
X12865000Y-8582000D02*
X12845000Y-8602000D01*
X12860114Y-8462438D02*
X12880114Y-8482438D01*
X12880114Y-8462438D02*
X12860114Y-8482438D01*
X12867100Y-7865550D02*
X12887100Y-7885550D01*
X12887100Y-7865550D02*
X12867100Y-7885550D01*
X12873450Y-7998900D02*
X12893450Y-8018900D01*
X12893450Y-7998900D02*
X12873450Y-8018900D01*
X12880000Y-8937386D02*
X12900000Y-8957386D01*
X12900000Y-8937386D02*
X12880000Y-8957386D01*
X12886150Y-8278300D02*
X12906150Y-8298300D01*
X12906150Y-8278300D02*
X12886150Y-8298300D01*
X12899584Y-8580636D02*
X12919584Y-8600636D01*
X12919584Y-8580636D02*
X12899584Y-8600636D01*
X12918854Y-9377377D02*
X12938854Y-9397377D01*
X12938854Y-9377377D02*
X12918854Y-9397377D01*
X12924250Y-7833800D02*
X12944250Y-7853800D01*
X12944250Y-7833800D02*
X12924250Y-7853800D01*
X12927000Y-10364150D02*
X12947000Y-10384150D01*
X12947000Y-10364150D02*
X12927000Y-10384150D01*
X12928637Y-9211778D02*
X12948637Y-9231778D01*
X12948637Y-9211778D02*
X12928637Y-9231778D01*
X12930501Y-8400852D02*
X12950501Y-8420852D01*
X12950501Y-8400852D02*
X12930501Y-8420852D01*
X12940751Y-8030650D02*
X12960751Y-8050650D01*
X12960751Y-8030650D02*
X12940751Y-8050650D01*
X12945819Y-8987337D02*
X12965819Y-9007337D01*
X12965819Y-8987337D02*
X12945819Y-9007337D01*
X12962350Y-8273851D02*
X12982350Y-8293851D01*
X12982350Y-8273851D02*
X12962350Y-8293851D01*
X12980000Y-9432000D02*
X13000000Y-9452000D01*
X13000000Y-9432000D02*
X12980000Y-9452000D01*
X12981400Y-7802050D02*
X13001400Y-7822050D01*
X13001400Y-7802050D02*
X12981400Y-7822050D01*
X12981741Y-9315376D02*
X13001741Y-9335376D01*
X13001741Y-9315376D02*
X12981741Y-9335376D01*
X12984711Y-7994431D02*
X13004711Y-8014431D01*
X13004711Y-7994431D02*
X12984711Y-8014431D01*
X12989629Y-9166908D02*
X13009629Y-9186908D01*
X13009629Y-9166908D02*
X12989629Y-9186908D01*
X13018305Y-7852464D02*
X13038305Y-7872464D01*
X13038305Y-7852464D02*
X13018305Y-7872464D01*
X13019500Y-8087800D02*
X13039500Y-8107800D01*
X13039500Y-8087800D02*
X13019500Y-8107800D01*
X13021717Y-9270980D02*
X13041717Y-9290980D01*
X13041717Y-9270980D02*
X13021717Y-9290980D01*
X13023410Y-8375410D02*
X13043410Y-8395410D01*
X13043410Y-8375410D02*
X13023410Y-8395410D01*
X13033440Y-9133772D02*
X13053440Y-9153772D01*
X13053440Y-9133772D02*
X13033440Y-9153772D01*
X13033700Y-6718000D02*
X13053700Y-6738000D01*
X13053700Y-6718000D02*
X13033700Y-6738000D01*
X13035062Y-9544425D02*
X13055062Y-9564425D01*
X13055062Y-9544425D02*
X13035062Y-9564425D01*
X13063950Y-7808400D02*
X13083950Y-7828400D01*
X13083950Y-7808400D02*
X13063950Y-7828400D01*
X13080000Y-9952000D02*
X13100000Y-9972000D01*
X13100000Y-9952000D02*
X13080000Y-9972000D01*
X13080000Y-10292000D02*
X13100000Y-10312000D01*
X13100000Y-10292000D02*
X13080000Y-10312000D01*
X13098471Y-9546418D02*
X13118471Y-9566418D01*
X13118471Y-9546418D02*
X13098471Y-9566418D01*
X13114818Y-7892343D02*
X13134818Y-7912343D01*
X13134818Y-7892343D02*
X13114818Y-7912343D01*
X13118000Y-8052363D02*
X13138000Y-8072363D01*
X13138000Y-8052363D02*
X13118000Y-8072363D01*
X13118000Y-8610000D02*
X13138000Y-8630000D01*
X13138000Y-8610000D02*
X13118000Y-8630000D01*
X13118000Y-9490000D02*
X13138000Y-9510000D01*
X13138000Y-9490000D02*
X13118000Y-9510000D01*
X13118285Y-8930285D02*
X13138285Y-8950285D01*
X13138285Y-8930285D02*
X13118285Y-8950285D01*
X13118565Y-7722735D02*
X13138565Y-7742735D01*
X13138565Y-7722735D02*
X13118565Y-7742735D01*
X13119785Y-7972345D02*
X13139785Y-7992345D01*
X13139785Y-7972345D02*
X13119785Y-7992345D01*
X13178250Y-10964350D02*
X13198250Y-10984350D01*
X13198250Y-10964350D02*
X13178250Y-10984350D01*
X13189750Y-9640500D02*
X13209750Y-9660500D01*
X13209750Y-9640500D02*
X13189750Y-9660500D01*
X13197734Y-9090201D02*
X13217734Y-9110201D01*
X13217734Y-9090201D02*
X13197734Y-9110201D01*
X13198000Y-8130000D02*
X13218000Y-8150000D01*
X13218000Y-8130000D02*
X13198000Y-8150000D01*
X13198000Y-8210000D02*
X13218000Y-8230000D01*
X13218000Y-8210000D02*
X13198000Y-8230000D01*
X13198000Y-8290000D02*
X13218000Y-8310000D01*
X13218000Y-8290000D02*
X13198000Y-8310000D01*
X13198000Y-8370000D02*
X13218000Y-8390000D01*
X13218000Y-8370000D02*
X13198000Y-8390000D01*
X13198000Y-8450000D02*
X13218000Y-8470000D01*
X13218000Y-8450000D02*
X13198000Y-8470000D01*
X13198000Y-8531500D02*
X13218000Y-8551500D01*
X13218000Y-8531500D02*
X13198000Y-8551500D01*
X13198000Y-8610000D02*
X13218000Y-8630000D01*
X13218000Y-8610000D02*
X13198000Y-8630000D01*
X13198000Y-8690000D02*
X13218000Y-8710000D01*
X13218000Y-8690000D02*
X13198000Y-8710000D01*
X13198000Y-8930287D02*
X13218000Y-8950287D01*
X13218000Y-8930287D02*
X13198000Y-8950287D01*
X13198000Y-9010000D02*
X13218000Y-9030000D01*
X13218000Y-9010000D02*
X13198000Y-9030000D01*
X13198000Y-9250000D02*
X13218000Y-9270000D01*
X13218000Y-9250000D02*
X13198000Y-9270000D01*
X13198000Y-9330000D02*
X13218000Y-9350000D01*
X13218000Y-9330000D02*
X13198000Y-9350000D01*
X13198000Y-9410000D02*
X13218000Y-9430000D01*
X13218000Y-9410000D02*
X13198000Y-9430000D01*
X13198285Y-8850286D02*
X13218285Y-8870286D01*
X13218285Y-8850286D02*
X13198285Y-8870286D01*
X13206286Y-10608587D02*
X13226286Y-10628587D01*
X13226286Y-10608587D02*
X13206286Y-10628587D01*
X13217511Y-10908296D02*
X13237511Y-10928296D01*
X13237511Y-10908296D02*
X13217511Y-10928296D01*
X13217788Y-10550812D02*
X13237788Y-10570812D01*
X13237788Y-10550812D02*
X13217788Y-10570812D01*
X13220903Y-7724256D02*
X13240903Y-7744256D01*
X13240903Y-7724256D02*
X13220903Y-7744256D01*
X13227850Y-7652950D02*
X13247850Y-7672950D01*
X13247850Y-7652950D02*
X13227850Y-7672950D01*
X13234200Y-10840650D02*
X13254200Y-10860650D01*
X13254200Y-10840650D02*
X13234200Y-10860650D01*
X13238262Y-10449238D02*
X13258262Y-10469238D01*
X13258262Y-10449238D02*
X13238262Y-10469238D01*
X13245600Y-6416000D02*
X13265600Y-6436000D01*
X13265600Y-6416000D02*
X13245600Y-6436000D01*
X13258300Y-6657300D02*
X13278300Y-6677300D01*
X13278300Y-6657300D02*
X13258300Y-6677300D01*
X13260800Y-10958000D02*
X13280800Y-10978000D01*
X13280800Y-10958000D02*
X13260800Y-10978000D01*
X13278000Y-8130000D02*
X13298000Y-8150000D01*
X13298000Y-8130000D02*
X13278000Y-8150000D01*
X13278000Y-8210000D02*
X13298000Y-8230000D01*
X13298000Y-8210000D02*
X13278000Y-8230000D01*
X13278000Y-8290000D02*
X13298000Y-8310000D01*
X13298000Y-8290000D02*
X13278000Y-8310000D01*
X13278000Y-8370000D02*
X13298000Y-8390000D01*
X13298000Y-8370000D02*
X13278000Y-8390000D01*
X13278000Y-8450000D02*
X13298000Y-8470000D01*
X13298000Y-8450000D02*
X13278000Y-8470000D01*
X13278000Y-8530000D02*
X13298000Y-8550000D01*
X13298000Y-8530000D02*
X13278000Y-8550000D01*
X13278000Y-8850000D02*
X13298000Y-8870000D01*
X13298000Y-8850000D02*
X13278000Y-8870000D01*
X13278000Y-8930000D02*
X13298000Y-8950000D01*
X13298000Y-8930000D02*
X13278000Y-8950000D01*
X13278000Y-9010000D02*
X13298000Y-9030000D01*
X13298000Y-9010000D02*
X13278000Y-9030000D01*
X13278000Y-9090000D02*
X13298000Y-9110000D01*
X13298000Y-9090000D02*
X13278000Y-9110000D01*
X13278000Y-9170000D02*
X13298000Y-9190000D01*
X13298000Y-9170000D02*
X13278000Y-9190000D01*
X13278000Y-9250000D02*
X13298000Y-9270000D01*
X13298000Y-9250000D02*
X13278000Y-9270000D01*
X13278000Y-9330000D02*
X13298000Y-9350000D01*
X13298000Y-9330000D02*
X13278000Y-9350000D01*
X13278000Y-9410000D02*
X13298000Y-9430000D01*
X13298000Y-9410000D02*
X13278000Y-9430000D01*
X13278537Y-8689462D02*
X13298537Y-8709462D01*
X13298537Y-8689462D02*
X13278537Y-8709462D01*
X13281247Y-10733530D02*
X13301247Y-10753530D01*
X13301247Y-10733530D02*
X13281247Y-10753530D01*
X13324300Y-10856400D02*
X13344300Y-10876400D01*
X13344300Y-10856400D02*
X13324300Y-10876400D01*
X13357494Y-8689494D02*
X13377494Y-8709494D01*
X13377494Y-8689494D02*
X13357494Y-8709494D01*
X13358000Y-8130000D02*
X13378000Y-8150000D01*
X13378000Y-8130000D02*
X13358000Y-8150000D01*
X13358000Y-8210000D02*
X13378000Y-8230000D01*
X13378000Y-8210000D02*
X13358000Y-8230000D01*
X13358000Y-8290000D02*
X13378000Y-8310000D01*
X13378000Y-8290000D02*
X13358000Y-8310000D01*
X13358000Y-8370000D02*
X13378000Y-8390000D01*
X13378000Y-8370000D02*
X13358000Y-8390000D01*
X13358000Y-8450000D02*
X13378000Y-8470000D01*
X13378000Y-8450000D02*
X13358000Y-8470000D01*
X13358000Y-8530000D02*
X13378000Y-8550000D01*
X13378000Y-8530000D02*
X13358000Y-8550000D01*
X13358000Y-8770000D02*
X13378000Y-8790000D01*
X13378000Y-8770000D02*
X13358000Y-8790000D01*
X13358000Y-8850000D02*
X13378000Y-8870000D01*
X13378000Y-8850000D02*
X13358000Y-8870000D01*
X13358000Y-9010000D02*
X13378000Y-9030000D01*
X13378000Y-9010000D02*
X13358000Y-9030000D01*
X13358000Y-9170000D02*
X13378000Y-9190000D01*
X13378000Y-9170000D02*
X13358000Y-9190000D01*
X13358000Y-9250000D02*
X13378000Y-9270000D01*
X13378000Y-9250000D02*
X13358000Y-9270000D01*
X13358000Y-9330000D02*
X13378000Y-9350000D01*
X13378000Y-9330000D02*
X13358000Y-9350000D01*
X13358000Y-9650000D02*
X13378000Y-9670000D01*
X13378000Y-9650000D02*
X13358000Y-9670000D01*
X13378000Y-9590000D02*
X13398000Y-9610000D01*
X13398000Y-9590000D02*
X13378000Y-9610000D01*
X13411163Y-7748395D02*
X13431163Y-7768395D01*
X13431163Y-7748395D02*
X13411163Y-7768395D01*
X13413200Y-10843700D02*
X13433200Y-10863700D01*
X13433200Y-10843700D02*
X13413200Y-10863700D01*
X13415020Y-7815418D02*
X13435020Y-7835418D01*
X13435020Y-7815418D02*
X13415020Y-7835418D01*
X13415467Y-10536950D02*
X13435467Y-10556950D01*
X13435467Y-10536950D02*
X13415467Y-10556950D01*
X13425900Y-10665900D02*
X13445900Y-10685900D01*
X13445900Y-10665900D02*
X13425900Y-10685900D01*
X13432035Y-10792450D02*
X13452035Y-10812450D01*
X13452035Y-10792450D02*
X13432035Y-10812450D01*
X13438000Y-8130000D02*
X13458000Y-8150000D01*
X13458000Y-8130000D02*
X13438000Y-8150000D01*
X13438000Y-8210000D02*
X13458000Y-8230000D01*
X13458000Y-8210000D02*
X13438000Y-8230000D01*
X13438000Y-8370000D02*
X13458000Y-8390000D01*
X13458000Y-8370000D02*
X13438000Y-8390000D01*
X13438000Y-9090000D02*
X13458000Y-9110000D01*
X13458000Y-9090000D02*
X13438000Y-9110000D01*
X13438000Y-9410000D02*
X13458000Y-9430000D01*
X13458000Y-9410000D02*
X13438000Y-9430000D01*
X13438000Y-9490000D02*
X13458000Y-9510000D01*
X13458000Y-9490000D02*
X13438000Y-9510000D01*
X13443447Y-8771043D02*
X13463447Y-8791043D01*
X13463447Y-8771043D02*
X13443447Y-8791043D01*
X13489399Y-7662350D02*
X13509399Y-7682350D01*
X13509399Y-7662350D02*
X13489399Y-7682350D01*
X13492132Y-7892495D02*
X13512132Y-7912495D01*
X13512132Y-7892495D02*
X13492132Y-7912495D01*
X13499600Y-6416000D02*
X13519600Y-6436000D01*
X13519600Y-6416000D02*
X13499600Y-6436000D01*
X13507250Y-7792650D02*
X13527250Y-7812650D01*
X13527250Y-7792650D02*
X13507250Y-7812650D01*
X13518000Y-8050000D02*
X13538000Y-8070000D01*
X13538000Y-8050000D02*
X13518000Y-8070000D01*
X13518000Y-8130000D02*
X13538000Y-8150000D01*
X13538000Y-8130000D02*
X13518000Y-8150000D01*
X13518000Y-8210000D02*
X13538000Y-8230000D01*
X13538000Y-8210000D02*
X13518000Y-8230000D01*
X13518000Y-8290000D02*
X13538000Y-8310000D01*
X13538000Y-8290000D02*
X13518000Y-8310000D01*
X13518000Y-8450000D02*
X13538000Y-8470000D01*
X13538000Y-8450000D02*
X13518000Y-8470000D01*
X13518000Y-8530000D02*
X13538000Y-8550000D01*
X13538000Y-8530000D02*
X13518000Y-8550000D01*
X13518000Y-8610000D02*
X13538000Y-8630000D01*
X13538000Y-8610000D02*
X13518000Y-8630000D01*
X13518000Y-8690000D02*
X13538000Y-8710000D01*
X13538000Y-8690000D02*
X13518000Y-8710000D01*
X13518000Y-9250000D02*
X13538000Y-9270000D01*
X13538000Y-9250000D02*
X13518000Y-9270000D01*
X13518000Y-9410000D02*
X13538000Y-9430000D01*
X13538000Y-9410000D02*
X13518000Y-9430000D01*
X13518000Y-9490000D02*
X13538000Y-9510000D01*
X13538000Y-9490000D02*
X13518000Y-9510000D01*
X13522401Y-8925599D02*
X13542401Y-8945599D01*
X13542401Y-8925599D02*
X13522401Y-8945599D01*
X13546550Y-7706800D02*
X13566550Y-7726800D01*
X13566550Y-7706800D02*
X13546550Y-7726800D01*
X13549150Y-7827659D02*
X13569150Y-7847659D01*
X13569150Y-7827659D02*
X13549150Y-7847659D01*
X13555656Y-11051071D02*
X13575656Y-11071071D01*
X13575656Y-11051071D02*
X13555656Y-11071071D01*
X13563536Y-9755796D02*
X13583536Y-9775796D01*
X13583536Y-9755796D02*
X13563536Y-9775796D01*
X13594882Y-7754550D02*
X13614882Y-7774550D01*
X13614882Y-7754550D02*
X13594882Y-7774550D01*
X13598000Y-8130000D02*
X13618000Y-8150000D01*
X13618000Y-8130000D02*
X13598000Y-8150000D01*
X13598000Y-8210000D02*
X13618000Y-8230000D01*
X13618000Y-8210000D02*
X13598000Y-8230000D01*
X13598000Y-8290000D02*
X13618000Y-8310000D01*
X13618000Y-8290000D02*
X13598000Y-8310000D01*
X13598000Y-8450000D02*
X13618000Y-8470000D01*
X13618000Y-8450000D02*
X13598000Y-8470000D01*
X13598000Y-8770000D02*
X13618000Y-8790000D01*
X13618000Y-8770000D02*
X13598000Y-8790000D01*
X13598000Y-9330000D02*
X13618000Y-9350000D01*
X13618000Y-9330000D02*
X13598000Y-9350000D01*
X13662124Y-9755796D02*
X13682124Y-9775796D01*
X13682124Y-9755796D02*
X13662124Y-9775796D01*
X13664259Y-7547941D02*
X13684259Y-7567941D01*
X13684259Y-7547941D02*
X13664259Y-7567941D01*
X13676320Y-7718760D02*
X13696320Y-7738760D01*
X13696320Y-7718760D02*
X13676320Y-7738760D01*
X13678000Y-8450000D02*
X13698000Y-8470000D01*
X13698000Y-8450000D02*
X13678000Y-8470000D01*
X13678000Y-8610000D02*
X13698000Y-8630000D01*
X13698000Y-8610000D02*
X13678000Y-8630000D01*
X13678000Y-8930000D02*
X13698000Y-8950000D01*
X13698000Y-8930000D02*
X13678000Y-8950000D01*
X13678000Y-9490000D02*
X13698000Y-9510000D01*
X13698000Y-9490000D02*
X13678000Y-9510000D01*
X13679461Y-7776107D02*
X13699461Y-7796107D01*
X13699461Y-7776107D02*
X13679461Y-7796107D01*
X13707437Y-7652487D02*
X13727437Y-7672487D01*
X13727437Y-7652487D02*
X13707437Y-7672487D01*
X13738000Y-7490000D02*
X13758000Y-7510000D01*
X13758000Y-7490000D02*
X13738000Y-7510000D01*
X13758000Y-8130000D02*
X13778000Y-8150000D01*
X13778000Y-8130000D02*
X13758000Y-8150000D01*
X13758000Y-8450000D02*
X13778000Y-8470000D01*
X13778000Y-8450000D02*
X13758000Y-8470000D01*
X13758000Y-8850000D02*
X13778000Y-8870000D01*
X13778000Y-8850000D02*
X13758000Y-8870000D01*
X13758000Y-8930000D02*
X13778000Y-8950000D01*
X13778000Y-8930000D02*
X13758000Y-8950000D01*
X13758000Y-9330000D02*
X13778000Y-9350000D01*
X13778000Y-9330000D02*
X13758000Y-9350000D01*
X13758000Y-9490000D02*
X13778000Y-9510000D01*
X13778000Y-9490000D02*
X13758000Y-9510000D01*
X13778000Y-9150000D02*
X13798000Y-9170000D01*
X13798000Y-9150000D02*
X13778000Y-9170000D01*
X13781499Y-9791999D02*
X13801499Y-9811999D01*
X13801499Y-9791999D02*
X13781499Y-9811999D01*
X13830592Y-7745154D02*
X13850592Y-7765154D01*
X13850592Y-7745154D02*
X13830592Y-7765154D01*
X13838000Y-8850000D02*
X13858000Y-8870000D01*
X13858000Y-8850000D02*
X13838000Y-8870000D01*
X13838000Y-8930000D02*
X13858000Y-8950000D01*
X13858000Y-8930000D02*
X13838000Y-8950000D01*
X13838000Y-9490000D02*
X13858000Y-9510000D01*
X13858000Y-9490000D02*
X13838000Y-9510000D01*
X13862850Y-7818050D02*
X13882850Y-7838050D01*
X13882850Y-7818050D02*
X13862850Y-7838050D01*
X13894600Y-7881550D02*
X13914600Y-7901550D01*
X13914600Y-7881550D02*
X13894600Y-7901550D01*
X13910000Y-6603700D02*
X13930000Y-6623700D01*
X13930000Y-6603700D02*
X13910000Y-6623700D01*
X13918000Y-8130000D02*
X13938000Y-8150000D01*
X13938000Y-8130000D02*
X13918000Y-8150000D01*
X13918000Y-8450000D02*
X13938000Y-8470000D01*
X13938000Y-8450000D02*
X13918000Y-8470000D01*
X13918000Y-8850000D02*
X13938000Y-8870000D01*
X13938000Y-8850000D02*
X13918000Y-8870000D01*
X13918000Y-8930000D02*
X13938000Y-8950000D01*
X13938000Y-8930000D02*
X13918000Y-8950000D01*
X13918000Y-9170000D02*
X13938000Y-9190000D01*
X13938000Y-9170000D02*
X13918000Y-9190000D01*
X13918000Y-9330000D02*
X13938000Y-9350000D01*
X13938000Y-9330000D02*
X13918000Y-9350000D01*
X13918000Y-9490000D02*
X13938000Y-9510000D01*
X13938000Y-9490000D02*
X13918000Y-9510000D01*
X13933900Y-9624500D02*
X13953900Y-9644500D01*
X13953900Y-9624500D02*
X13933900Y-9644500D01*
X13945400Y-7932350D02*
X13965400Y-7952350D01*
X13965400Y-7932350D02*
X13945400Y-7952350D01*
X13987649Y-7567100D02*
X14007649Y-7587100D01*
X14007649Y-7567100D02*
X13987649Y-7587100D01*
X13996000Y-8292000D02*
X14016000Y-8312000D01*
X14016000Y-8292000D02*
X13996000Y-8312000D01*
X13998000Y-8130000D02*
X14018000Y-8150000D01*
X14018000Y-8130000D02*
X13998000Y-8150000D01*
X13998000Y-8210000D02*
X14018000Y-8230000D01*
X14018000Y-8210000D02*
X13998000Y-8230000D01*
X13998000Y-8450000D02*
X14018000Y-8470000D01*
X14018000Y-8450000D02*
X13998000Y-8470000D01*
X13998000Y-8610000D02*
X14018000Y-8630000D01*
X14018000Y-8610000D02*
X13998000Y-8630000D01*
X13998000Y-8930000D02*
X14018000Y-8950000D01*
X14018000Y-8930000D02*
X13998000Y-8950000D01*
X13998000Y-9490000D02*
X14018000Y-9510000D01*
X14018000Y-9490000D02*
X13998000Y-9510000D01*
X14054550Y-7567100D02*
X14074550Y-7587100D01*
X14074550Y-7567100D02*
X14054550Y-7587100D01*
X14078000Y-8130000D02*
X14098000Y-8150000D01*
X14098000Y-8130000D02*
X14078000Y-8150000D01*
X14078000Y-8210000D02*
X14098000Y-8230000D01*
X14098000Y-8210000D02*
X14078000Y-8230000D01*
X14078000Y-8290000D02*
X14098000Y-8310000D01*
X14098000Y-8290000D02*
X14078000Y-8310000D01*
X14078000Y-8450000D02*
X14098000Y-8470000D01*
X14098000Y-8450000D02*
X14078000Y-8470000D01*
X14078000Y-8770000D02*
X14098000Y-8790000D01*
X14098000Y-8770000D02*
X14078000Y-8790000D01*
X14078000Y-9130000D02*
X14098000Y-9150000D01*
X14098000Y-9130000D02*
X14078000Y-9150000D01*
X14078000Y-9250000D02*
X14098000Y-9270000D01*
X14098000Y-9250000D02*
X14078000Y-9270000D01*
X14078000Y-9330000D02*
X14098000Y-9350000D01*
X14098000Y-9330000D02*
X14078000Y-9350000D01*
X14124400Y-7567100D02*
X14144400Y-7587100D01*
X14144400Y-7567100D02*
X14124400Y-7587100D01*
X14135900Y-7786300D02*
X14155900Y-7806300D01*
X14155900Y-7786300D02*
X14135900Y-7806300D01*
X14138000Y-6870000D02*
X14158000Y-6890000D01*
X14158000Y-6870000D02*
X14138000Y-6890000D01*
X14154000Y-9100700D02*
X14174000Y-9120700D01*
X14174000Y-9100700D02*
X14154000Y-9120700D01*
X14158000Y-8210000D02*
X14178000Y-8230000D01*
X14178000Y-8210000D02*
X14158000Y-8230000D01*
X14158000Y-8290000D02*
X14178000Y-8310000D01*
X14178000Y-8290000D02*
X14158000Y-8310000D01*
X14158000Y-8450000D02*
X14178000Y-8470000D01*
X14178000Y-8450000D02*
X14158000Y-8470000D01*
X14158000Y-8530000D02*
X14178000Y-8550000D01*
X14178000Y-8530000D02*
X14158000Y-8550000D01*
X14158000Y-8610000D02*
X14178000Y-8630000D01*
X14178000Y-8610000D02*
X14158000Y-8630000D01*
X14158000Y-8690000D02*
X14178000Y-8710000D01*
X14178000Y-8690000D02*
X14158000Y-8710000D01*
X14158000Y-8930000D02*
X14178000Y-8950000D01*
X14178000Y-8930000D02*
X14158000Y-8950000D01*
X14218000Y-7410000D02*
X14238000Y-7430000D01*
X14238000Y-7410000D02*
X14218000Y-7430000D01*
X14236000Y-8292000D02*
X14256000Y-8312000D01*
X14256000Y-8292000D02*
X14236000Y-8312000D01*
X14236377Y-7893109D02*
X14256377Y-7913109D01*
X14256377Y-7893109D02*
X14236377Y-7913109D01*
X14238000Y-8130000D02*
X14258000Y-8150000D01*
X14258000Y-8130000D02*
X14238000Y-8150000D01*
X14238000Y-8210000D02*
X14258000Y-8230000D01*
X14258000Y-8210000D02*
X14238000Y-8230000D01*
X14238000Y-8370000D02*
X14258000Y-8390000D01*
X14258000Y-8370000D02*
X14238000Y-8390000D01*
X14238000Y-8770000D02*
X14258000Y-8790000D01*
X14258000Y-8770000D02*
X14238000Y-8790000D01*
X14238000Y-9410000D02*
X14258000Y-9430000D01*
X14258000Y-9410000D02*
X14238000Y-9430000D01*
X14238000Y-9490000D02*
X14258000Y-9510000D01*
X14258000Y-9490000D02*
X14238000Y-9510000D01*
X14267329Y-7833800D02*
X14287329Y-7853800D01*
X14287329Y-7833800D02*
X14267329Y-7853800D01*
X14268583Y-7723660D02*
X14288583Y-7743660D01*
X14288583Y-7723660D02*
X14268583Y-7743660D01*
X14316000Y-8452000D02*
X14336000Y-8472000D01*
X14336000Y-8452000D02*
X14316000Y-8472000D01*
X14318000Y-8130000D02*
X14338000Y-8150000D01*
X14338000Y-8130000D02*
X14318000Y-8150000D01*
X14318000Y-8210000D02*
X14338000Y-8230000D01*
X14338000Y-8210000D02*
X14318000Y-8230000D01*
X14318000Y-8290000D02*
X14338000Y-8310000D01*
X14338000Y-8290000D02*
X14318000Y-8310000D01*
X14318000Y-8370000D02*
X14338000Y-8390000D01*
X14338000Y-8370000D02*
X14318000Y-8390000D01*
X14318000Y-8610000D02*
X14338000Y-8630000D01*
X14338000Y-8610000D02*
X14318000Y-8630000D01*
X14318000Y-8690000D02*
X14338000Y-8710000D01*
X14338000Y-8690000D02*
X14318000Y-8710000D01*
X14318000Y-8850000D02*
X14338000Y-8870000D01*
X14338000Y-8850000D02*
X14318000Y-8870000D01*
X14318000Y-9010000D02*
X14338000Y-9030000D01*
X14338000Y-9010000D02*
X14318000Y-9030000D01*
X14318000Y-9090000D02*
X14338000Y-9110000D01*
X14338000Y-9090000D02*
X14318000Y-9110000D01*
X14318000Y-9170000D02*
X14338000Y-9190000D01*
X14338000Y-9170000D02*
X14318000Y-9190000D01*
X14318000Y-9330000D02*
X14338000Y-9350000D01*
X14338000Y-9330000D02*
X14318000Y-9350000D01*
X14318000Y-9410000D02*
X14338000Y-9430000D01*
X14338000Y-9410000D02*
X14318000Y-9430000D01*
X14318000Y-9490000D02*
X14338000Y-9510000D01*
X14338000Y-9490000D02*
X14318000Y-9510000D01*
X14331863Y-7387513D02*
X14351863Y-7407513D01*
X14351863Y-7387513D02*
X14331863Y-7407513D01*
X14355067Y-6376252D02*
X14375067Y-6396252D01*
X14375067Y-6376252D02*
X14355067Y-6396252D01*
X14360888Y-7571730D02*
X14380888Y-7591730D01*
X14380888Y-7571730D02*
X14360888Y-7591730D01*
X14398000Y-9570000D02*
X14418000Y-9590000D01*
X14418000Y-9570000D02*
X14398000Y-9590000D01*
X14398000Y-8130000D02*
X14418000Y-8150000D01*
X14418000Y-8130000D02*
X14398000Y-8150000D01*
X14398000Y-8210000D02*
X14418000Y-8230000D01*
X14418000Y-8210000D02*
X14398000Y-8230000D01*
X14398000Y-8290000D02*
X14418000Y-8310000D01*
X14418000Y-8290000D02*
X14398000Y-8310000D01*
X14398000Y-8370000D02*
X14418000Y-8390000D01*
X14418000Y-8370000D02*
X14398000Y-8390000D01*
X14398000Y-8450000D02*
X14418000Y-8470000D01*
X14418000Y-8450000D02*
X14398000Y-8470000D01*
X14398000Y-8530000D02*
X14418000Y-8550000D01*
X14418000Y-8530000D02*
X14398000Y-8550000D01*
X14398000Y-8610000D02*
X14418000Y-8630000D01*
X14418000Y-8610000D02*
X14398000Y-8630000D01*
X14398000Y-8850000D02*
X14418000Y-8870000D01*
X14418000Y-8850000D02*
X14398000Y-8870000D01*
X14398000Y-8930000D02*
X14418000Y-8950000D01*
X14418000Y-8930000D02*
X14398000Y-8950000D01*
X14398000Y-9010000D02*
X14418000Y-9030000D01*
X14418000Y-9010000D02*
X14398000Y-9030000D01*
X14398000Y-9090000D02*
X14418000Y-9110000D01*
X14418000Y-9090000D02*
X14398000Y-9110000D01*
X14398000Y-9170000D02*
X14418000Y-9190000D01*
X14418000Y-9170000D02*
X14398000Y-9190000D01*
X14398000Y-9250000D02*
X14418000Y-9270000D01*
X14418000Y-9250000D02*
X14398000Y-9270000D01*
X14398000Y-9330000D02*
X14418000Y-9350000D01*
X14418000Y-9330000D02*
X14398000Y-9350000D01*
X14441900Y-7802050D02*
X14461900Y-7822050D01*
X14461900Y-7802050D02*
X14441900Y-7822050D01*
X14453400Y-7942279D02*
X14473400Y-7962279D01*
X14473400Y-7942279D02*
X14453400Y-7962279D01*
X14478000Y-8130000D02*
X14498000Y-8150000D01*
X14498000Y-8130000D02*
X14478000Y-8150000D01*
X14478000Y-8210000D02*
X14498000Y-8230000D01*
X14498000Y-8210000D02*
X14478000Y-8230000D01*
X14478000Y-8290000D02*
X14498000Y-8310000D01*
X14498000Y-8290000D02*
X14478000Y-8310000D01*
X14478000Y-8370000D02*
X14498000Y-8390000D01*
X14498000Y-8370000D02*
X14478000Y-8390000D01*
X14478000Y-8450000D02*
X14498000Y-8470000D01*
X14498000Y-8450000D02*
X14478000Y-8470000D01*
X14478000Y-8530000D02*
X14498000Y-8550000D01*
X14498000Y-8530000D02*
X14478000Y-8550000D01*
X14478000Y-8610000D02*
X14498000Y-8630000D01*
X14498000Y-8610000D02*
X14478000Y-8630000D01*
X14478000Y-8690000D02*
X14498000Y-8710000D01*
X14498000Y-8690000D02*
X14478000Y-8710000D01*
X14478000Y-8850000D02*
X14498000Y-8870000D01*
X14498000Y-8850000D02*
X14478000Y-8870000D01*
X14478000Y-8930000D02*
X14498000Y-8950000D01*
X14498000Y-8930000D02*
X14478000Y-8950000D01*
X14478000Y-9010000D02*
X14498000Y-9030000D01*
X14498000Y-9010000D02*
X14478000Y-9030000D01*
X14478000Y-9090000D02*
X14498000Y-9110000D01*
X14498000Y-9090000D02*
X14478000Y-9110000D01*
X14478000Y-9170000D02*
X14498000Y-9190000D01*
X14498000Y-9170000D02*
X14478000Y-9190000D01*
X14478000Y-9250000D02*
X14498000Y-9270000D01*
X14498000Y-9250000D02*
X14478000Y-9270000D01*
X14478000Y-9330000D02*
X14498000Y-9350000D01*
X14498000Y-9330000D02*
X14478000Y-9350000D01*
X14478000Y-9410000D02*
X14498000Y-9430000D01*
X14498000Y-9410000D02*
X14478000Y-9430000D01*
X14478000Y-9490000D02*
X14498000Y-9510000D01*
X14498000Y-9490000D02*
X14478000Y-9510000D01*
X14511750Y-7802050D02*
X14531750Y-7822050D01*
X14531750Y-7802050D02*
X14511750Y-7822050D01*
X14558000Y-8130000D02*
X14578000Y-8150000D01*
X14578000Y-8130000D02*
X14558000Y-8150000D01*
X14558000Y-8530000D02*
X14578000Y-8550000D01*
X14578000Y-8530000D02*
X14558000Y-8550000D01*
X14558000Y-9090000D02*
X14578000Y-9110000D01*
X14578000Y-9090000D02*
X14558000Y-9110000D01*
X14558000Y-9410000D02*
X14578000Y-9430000D01*
X14578000Y-9410000D02*
X14558000Y-9430000D01*
X14558000Y-9490000D02*
X14578000Y-9510000D01*
X14578000Y-9490000D02*
X14558000Y-9510000D01*
X14598000Y-6870000D02*
X14618000Y-6890000D01*
X14618000Y-6870000D02*
X14598000Y-6890000D01*
X14600000Y-7972000D02*
X14620000Y-7992000D01*
X14620000Y-7972000D02*
X14600000Y-7992000D01*
X14638000Y-8530000D02*
X14658000Y-8550000D01*
X14658000Y-8530000D02*
X14638000Y-8550000D01*
X14646600Y-7187799D02*
X14666600Y-7207799D01*
X14666600Y-7187799D02*
X14646600Y-7207799D01*
X14660029Y-7625502D02*
X14680029Y-7645502D01*
X14680029Y-7625502D02*
X14660029Y-7645502D01*
X14676850Y-7560750D02*
X14696850Y-7580750D01*
X14696850Y-7560750D02*
X14676850Y-7580750D01*
X14694701Y-9716700D02*
X14714701Y-9736700D01*
X14714701Y-9716700D02*
X14694701Y-9736700D01*
X14720100Y-8116500D02*
X14740100Y-8136500D01*
X14740100Y-8116500D02*
X14720100Y-8136500D01*
X14724389Y-9311713D02*
X14744389Y-9331713D01*
X14744389Y-9311713D02*
X14724389Y-9331713D01*
X14733095Y-9013302D02*
X14753095Y-9033302D01*
X14753095Y-9013302D02*
X14733095Y-9033302D01*
X14748200Y-7146252D02*
X14768200Y-7166252D01*
X14768200Y-7146252D02*
X14748200Y-7166252D01*
X14751215Y-8517186D02*
X14771215Y-8537186D01*
X14771215Y-8517186D02*
X14751215Y-8537186D01*
X14760000Y-9366849D02*
X14780000Y-9386849D01*
X14780000Y-9366849D02*
X14760000Y-9386849D01*
X14760000Y-9652000D02*
X14780000Y-9672000D01*
X14780000Y-9652000D02*
X14760000Y-9672000D01*
X14781079Y-8758342D02*
X14801079Y-8778342D01*
X14801079Y-8758342D02*
X14781079Y-8778342D01*
X14784800Y-6855900D02*
X14804800Y-6875900D01*
X14804800Y-6855900D02*
X14784800Y-6875900D01*
X14785679Y-9521109D02*
X14805679Y-9541109D01*
X14805679Y-9521109D02*
X14785679Y-9541109D01*
X14810200Y-8024300D02*
X14830200Y-8044300D01*
X14830200Y-8024300D02*
X14810200Y-8044300D01*
X14824901Y-9322231D02*
X14844901Y-9342231D01*
X14844901Y-9322231D02*
X14824901Y-9342231D01*
X14838354Y-8752346D02*
X14858354Y-8772346D01*
X14858354Y-8752346D02*
X14838354Y-8772346D01*
X14841950Y-8164000D02*
X14861950Y-8184000D01*
X14861950Y-8164000D02*
X14841950Y-8184000D01*
X14858001Y-6750000D02*
X14878001Y-6770000D01*
X14878001Y-6750000D02*
X14858001Y-6770000D01*
X14886400Y-8329101D02*
X14906400Y-8349101D01*
X14906400Y-8329101D02*
X14886400Y-8349101D01*
X14899100Y-6855900D02*
X14919100Y-6875900D01*
X14919100Y-6855900D02*
X14899100Y-6875900D01*
X14899100Y-9586400D02*
X14919100Y-9606400D01*
X14919100Y-9586400D02*
X14899100Y-9606400D01*
X14903412Y-6332405D02*
X14923412Y-6352405D01*
X14923412Y-6332405D02*
X14903412Y-6352405D01*
X14910600Y-9526200D02*
X14930600Y-9546200D01*
X14930600Y-9526200D02*
X14910600Y-9546200D01*
X14937199Y-8100500D02*
X14957199Y-8120500D01*
X14957199Y-8100500D02*
X14937199Y-8120500D01*
X14947550Y-8699301D02*
X14967550Y-8719301D01*
X14967550Y-8699301D02*
X14947550Y-8719301D01*
X14947728Y-10322085D02*
X14967728Y-10342085D01*
X14967728Y-10322085D02*
X14947728Y-10342085D01*
X14966401Y-8381402D02*
X14986401Y-8401402D01*
X14986401Y-8381402D02*
X14966401Y-8401402D01*
X14967749Y-9507150D02*
X14987749Y-9527150D01*
X14987749Y-9507150D02*
X14967749Y-9527150D01*
X14991381Y-8107272D02*
X15011381Y-8127272D01*
X15011381Y-8107272D02*
X14991381Y-8127272D01*
X15000700Y-8164000D02*
X15020700Y-8184000D01*
X15020700Y-8164000D02*
X15000700Y-8184000D01*
X15037600Y-9507150D02*
X15057600Y-9527150D01*
X15057600Y-9507150D02*
X15037600Y-9527150D01*
X15043950Y-9424600D02*
X15063950Y-9444600D01*
X15063950Y-9424600D02*
X15043950Y-9444600D01*
X15045980Y-8106843D02*
X15065980Y-8126843D01*
X15065980Y-8106843D02*
X15045980Y-8126843D01*
X15109016Y-9455085D02*
X15129016Y-9475085D01*
X15129016Y-9455085D02*
X15109016Y-9475085D01*
X15167300Y-6337000D02*
X15187300Y-6357000D01*
X15187300Y-6337000D02*
X15167300Y-6357000D01*
X15201400Y-10429200D02*
X15221400Y-10449200D01*
X15221400Y-10429200D02*
X15201400Y-10449200D01*
X15230800Y-7206950D02*
X15250800Y-7226950D01*
X15250800Y-7206950D02*
X15230800Y-7226950D01*
X15239707Y-7909347D02*
X15259707Y-7929347D01*
X15259707Y-7909347D02*
X15239707Y-7929347D01*
X15290300Y-10429200D02*
X15310300Y-10449200D01*
X15310300Y-10429200D02*
X15290300Y-10449200D01*
X15303000Y-10099000D02*
X15323000Y-10119000D01*
X15323000Y-10099000D02*
X15303000Y-10119000D01*
X15305500Y-9281600D02*
X15325500Y-9301600D01*
X15325500Y-9281600D02*
X15305500Y-9301600D01*
X15394400Y-6792400D02*
X15414400Y-6812400D01*
X15414400Y-6792400D02*
X15394400Y-6812400D01*
X15419800Y-6906700D02*
X15439800Y-6926700D01*
X15439800Y-6906700D02*
X15419800Y-6926700D01*
X15432558Y-10288777D02*
X15452558Y-10308777D01*
X15452558Y-10288777D02*
X15432558Y-10308777D01*
X15459400Y-7238700D02*
X15479400Y-7258700D01*
X15479400Y-7238700D02*
X15459400Y-7258700D01*
X15584900Y-8114958D02*
X15604900Y-8134958D01*
X15604900Y-8114958D02*
X15584900Y-8134958D01*
X15662600Y-10820100D02*
X15682600Y-10840100D01*
X15682600Y-10820100D02*
X15662600Y-10840100D01*
X15700700Y-6311600D02*
X15720700Y-6331600D01*
X15720700Y-6311600D02*
X15700700Y-6331600D01*
X15752461Y-6738631D02*
X15772461Y-6758631D01*
X15772461Y-6738631D02*
X15752461Y-6758631D01*
X15789600Y-7238700D02*
X15809600Y-7258700D01*
X15809600Y-7238700D02*
X15789600Y-7258700D01*
X15827700Y-6400500D02*
X15847700Y-6420500D01*
X15847700Y-6400500D02*
X15827700Y-6420500D01*
X16217147Y-6618496D02*
X16237147Y-6638496D01*
X16237147Y-6618496D02*
X16217147Y-6638496D01*
X16234100Y-9717000D02*
X16254100Y-9737000D01*
X16254100Y-9717000D02*
X16234100Y-9737000D01*
X16359090Y-7131693D02*
X16379090Y-7151693D01*
X16379090Y-7131693D02*
X16359090Y-7151693D01*
X16418510Y-9184590D02*
X16438510Y-9204590D01*
X16438510Y-9184590D02*
X16418510Y-9204590D01*
X16570337Y-9724488D02*
X16590337Y-9744488D01*
X16590337Y-9724488D02*
X16570337Y-9744488D01*
X16588200Y-7102746D02*
X16608200Y-7122746D01*
X16608200Y-7102746D02*
X16588200Y-7122746D01*
X16618469Y-9492515D02*
X16638469Y-9512515D01*
X16638469Y-9492515D02*
X16618469Y-9512515D01*
X16626300Y-7744900D02*
X16646300Y-7764900D01*
X16646300Y-7744900D02*
X16626300Y-7764900D01*
X16626301Y-7937352D02*
X16646301Y-7957352D01*
X16646301Y-7937352D02*
X16626301Y-7957352D01*
X16753300Y-9065700D02*
X16773300Y-9085700D01*
X16773300Y-9065700D02*
X16753300Y-9085700D01*
X16791400Y-7922700D02*
X16811400Y-7942700D01*
X16811400Y-7922700D02*
X16791400Y-7942700D01*
X16804100Y-9103800D02*
X16824100Y-9123800D01*
X16824100Y-9103800D02*
X16804100Y-9123800D01*
X16804608Y-9776390D02*
X16824608Y-9796390D01*
X16824608Y-9776390D02*
X16804608Y-9796390D01*
X16816800Y-9946228D02*
X16836800Y-9966228D01*
X16836800Y-9946228D02*
X16816800Y-9966228D01*
X16880300Y-7465500D02*
X16900300Y-7485500D01*
X16900300Y-7465500D02*
X16880300Y-7485500D01*
X16880300Y-7687203D02*
X16900300Y-7707203D01*
X16900300Y-7687203D02*
X16880300Y-7707203D01*
X16941704Y-6958649D02*
X16961704Y-6978649D01*
X16961704Y-6958649D02*
X16941704Y-6978649D01*
X16962549Y-10564300D02*
X16982549Y-10584300D01*
X16982549Y-10564300D02*
X16962549Y-10584300D01*
X17007300Y-6703500D02*
X17027300Y-6723500D01*
X17027300Y-6703500D02*
X17007300Y-6723500D01*
X17020954Y-8534153D02*
X17040954Y-8554153D01*
X17040954Y-8534153D02*
X17020954Y-8554153D01*
X17032700Y-10773850D02*
X17052700Y-10793850D01*
X17052700Y-10773850D02*
X17032700Y-10793850D01*
X17058000Y-7450000D02*
X17078000Y-7470000D01*
X17078000Y-7450000D02*
X17058000Y-7470000D01*
X17075950Y-10097700D02*
X17095950Y-10117700D01*
X17095950Y-10097700D02*
X17075950Y-10117700D01*
X17083500Y-6703500D02*
X17103500Y-6723500D01*
X17103500Y-6703500D02*
X17083500Y-6723500D01*
X17095000Y-10034200D02*
X17115000Y-10054200D01*
X17115000Y-10034200D02*
X17095000Y-10054200D01*
X17095000Y-10152849D02*
X17115000Y-10172849D01*
X17115000Y-10152849D02*
X17095000Y-10172849D01*
X17173900Y-7102746D02*
X17193900Y-7122746D01*
X17193900Y-7102746D02*
X17173900Y-7122746D01*
X17288200Y-7416500D02*
X17308200Y-7436500D01*
X17308200Y-7416500D02*
X17288200Y-7436500D01*
X17421312Y-7102746D02*
X17441312Y-7122746D01*
X17441312Y-7102746D02*
X17421312Y-7122746D01*
X17427900Y-8564300D02*
X17447900Y-8584300D01*
X17447900Y-8564300D02*
X17427900Y-8584300D01*
X17514451Y-10716700D02*
X17534451Y-10736700D01*
X17534451Y-10716700D02*
X17514451Y-10736700D01*
X17540700Y-10500800D02*
X17560700Y-10520800D01*
X17560700Y-10500800D02*
X17540700Y-10520800D01*
X17566100Y-8418000D02*
X17586100Y-8438000D01*
X17586100Y-8418000D02*
X17566100Y-8438000D01*
X17616900Y-10437300D02*
X17636900Y-10457300D01*
X17636900Y-10437300D02*
X17616900Y-10457300D01*
X17642300Y-8138600D02*
X17662300Y-8158600D01*
X17662300Y-8138600D02*
X17642300Y-8158600D01*
X17650543Y-8840716D02*
X17670543Y-8860716D01*
X17670543Y-8840716D02*
X17650543Y-8860716D01*
X17669708Y-7102746D02*
X17689708Y-7122746D01*
X17689708Y-7102746D02*
X17669708Y-7122746D01*
X17708899Y-8866403D02*
X17728899Y-8886403D01*
X17728899Y-8866403D02*
X17708899Y-8886403D01*
X17718798Y-9667866D02*
X17738798Y-9687866D01*
X17738798Y-9667866D02*
X17718798Y-9687866D01*
X17792200Y-8956000D02*
X17812200Y-8976000D01*
X17812200Y-8956000D02*
X17792200Y-8976000D01*
X17970000Y-8308300D02*
X17990000Y-8328300D01*
X17990000Y-8308300D02*
X17970000Y-8328300D01*
X18015551Y-7730221D02*
X18035551Y-7750221D01*
X18035551Y-7730221D02*
X18015551Y-7750221D01*
X18034471Y-6919244D02*
X18054471Y-6939244D01*
X18054471Y-6919244D02*
X18034471Y-6939244D01*
X18036000Y-7427400D02*
X18056000Y-7447400D01*
X18056000Y-7427400D02*
X18036000Y-7447400D01*
X18158000Y-9310000D02*
X18178000Y-9330000D01*
X18178000Y-9310000D02*
X18158000Y-9330000D01*
X18177200Y-11150300D02*
X18197200Y-11170300D01*
X18197200Y-11150300D02*
X18177200Y-11170300D01*
X15416900Y-8174000D02*
G75*
G03*
X15416900Y-8174000I-12500J0D01*
G01*
X15772500Y-7894600D02*
G75*
G03*
X15772500Y-7894600I-12500J0D01*
G01*
X15880450Y-8116850D02*
G75*
G03*
X15880450Y-8116850I-12500J0D01*
G01*
X16147150Y-8110500D02*
G75*
G03*
X16147150Y-8110500I-12500J0D01*
G01*
X16363050Y-8116850D02*
G75*
G03*
X16363050Y-8116850I-12500J0D01*
G01*
X13350000Y-10249300D02*
X13350000Y-10274700D01*
X13337300Y-10262000D02*
X13362700Y-10262000D01*
X15950500Y-10294900D02*
X15950500Y-10320300D01*
X15937800Y-10307600D02*
X15963200Y-10307600D01*
X16991900Y-10294900D02*
X16991900Y-10320300D01*
X16979200Y-10307600D02*
X17004600Y-10307600D01*
X17055400Y-10294900D02*
X17055400Y-10320300D01*
X17042700Y-10307600D02*
X17068100Y-10307600D01*
X10093707Y-9003757D02*
X10093707Y-8982543D01*
X10072493Y-8982543D01*
X10072493Y-9003757D01*
X10093707Y-9003757D01*
X12354307Y-10907807D02*
X12354307Y-10886593D01*
X12333093Y-10886593D01*
X12333093Y-10907807D01*
X12354307Y-10907807D01*
X12827531Y-9995308D02*
X12827531Y-9974094D01*
X12806318Y-9974094D01*
X12806318Y-9995308D01*
X12827531Y-9995308D01*
X15251407Y-9310357D02*
X15251407Y-9289143D01*
X15230193Y-9289143D01*
X15230193Y-9310357D01*
X15251407Y-9310357D01*
X15467307Y-7928459D02*
X15467307Y-7907245D01*
X15446093Y-7907245D01*
X15446093Y-7928459D01*
X15467307Y-7928459D01*
X15469997Y-9471401D02*
X15469997Y-9450188D01*
X15448783Y-9450188D01*
X15448783Y-9471401D01*
X15469997Y-9471401D01*
X15619707Y-9469107D02*
X15619707Y-9447893D01*
X15598493Y-9447893D01*
X15598493Y-9469107D01*
X15619707Y-9469107D01*
X16932657Y-7975057D02*
X16932657Y-7953843D01*
X16911443Y-7953843D01*
X16911443Y-7975057D01*
X16932657Y-7975057D01*
X18054107Y-7071607D02*
X18054107Y-7050393D01*
X18032893Y-7050393D01*
X18032893Y-7071607D01*
X18054107Y-7071607D01*
X18126199Y-10508678D02*
X18126199Y-10487464D01*
X18104985Y-10487464D01*
X18104985Y-10508678D01*
X18126199Y-10508678D01*
X10248200Y-9842500D02*
X10265700Y-9825000D01*
X10248200Y-9807500D01*
X10230700Y-9825000D01*
X10248200Y-9842500D01*
X11039391Y-10843646D02*
X11079391Y-10883646D01*
X11079391Y-10843646D02*
X11039391Y-10883646D01*
X11079391Y-10863646D02*
G75*
G03*
X11079391Y-10863646I-20000J0D01*
G01*
X11259458Y-10144408D02*
X11299458Y-10184408D01*
X11299458Y-10144408D02*
X11259458Y-10184408D01*
X11299458Y-10164408D02*
G75*
G03*
X11299458Y-10164408I-20000J0D01*
G01*
X16730600Y-6845900D02*
X16770600Y-6885900D01*
X16770600Y-6845900D02*
X16730600Y-6885900D01*
X16770600Y-6865900D02*
G75*
G03*
X16770600Y-6865900I-20000J0D01*
G01*
X17149700Y-8725500D02*
X17189700Y-8765500D01*
X17189700Y-8725500D02*
X17149700Y-8765500D01*
X17189700Y-8745500D02*
G75*
G03*
X17189700Y-8745500I-20000J0D01*
G01*
X17283050Y-7701248D02*
X17323050Y-7741248D01*
X17323050Y-7701248D02*
X17283050Y-7741248D01*
X17323050Y-7721248D02*
G75*
G03*
X17323050Y-7721248I-20000J0D01*
G01*
X17391000Y-7938100D02*
X17431000Y-7978100D01*
X17431000Y-7938100D02*
X17391000Y-7978100D01*
X17431000Y-7958100D02*
G75*
G03*
X17431000Y-7958100I-20000J0D01*
G01*
X17619600Y-8700100D02*
X17659600Y-8740100D01*
X17659600Y-8700100D02*
X17619600Y-8740100D01*
X17659600Y-8720100D02*
G75*
G03*
X17659600Y-8720100I-20000J0D01*
G01*
X18002100Y-9451200D02*
X18042100Y-9491200D01*
X18042100Y-9451200D02*
X18002100Y-9491200D01*
X18042100Y-9471200D02*
G75*
G03*
X18042100Y-9471200I-20000J0D01*
G01*
X10060589Y-7132486D02*
X10110589Y-7182486D01*
X10110589Y-7132486D02*
X10060589Y-7182486D01*
X10085589Y-7132486D02*
X10085589Y-7182486D01*
X10060589Y-7157486D02*
X10110589Y-7157486D01*
X10064450Y-9463450D02*
X10114450Y-9513450D01*
X10114450Y-9463450D02*
X10064450Y-9513450D01*
X10089450Y-9463450D02*
X10089450Y-9513450D01*
X10064450Y-9488450D02*
X10114450Y-9488450D01*
X10159700Y-10054000D02*
X10209700Y-10104000D01*
X10209700Y-10054000D02*
X10159700Y-10104000D01*
X10184700Y-10054000D02*
X10184700Y-10104000D01*
X10159700Y-10079000D02*
X10209700Y-10079000D01*
X10415200Y-7668200D02*
X10465200Y-7718200D01*
X10465200Y-7668200D02*
X10415200Y-7718200D01*
X10440200Y-7668200D02*
X10440200Y-7718200D01*
X10415200Y-7693200D02*
X10465200Y-7693200D01*
X10489900Y-7147701D02*
X10539900Y-7197701D01*
X10539900Y-7147701D02*
X10489900Y-7197701D01*
X10514900Y-7147701D02*
X10514900Y-7197701D01*
X10489900Y-7172701D02*
X10539900Y-7172701D01*
X10672481Y-6470397D02*
X10722481Y-6520397D01*
X10722481Y-6470397D02*
X10672481Y-6520397D01*
X10697481Y-6470397D02*
X10697481Y-6520397D01*
X10672481Y-6495397D02*
X10722481Y-6495397D01*
X10808900Y-7160200D02*
X10858900Y-7210200D01*
X10858900Y-7160200D02*
X10808900Y-7210200D01*
X10833900Y-7160200D02*
X10833900Y-7210200D01*
X10808900Y-7185200D02*
X10858900Y-7185200D01*
X11077510Y-9016310D02*
X11127510Y-9066310D01*
X11127510Y-9016310D02*
X11077510Y-9066310D01*
X11102510Y-9016310D02*
X11102510Y-9066310D01*
X11077510Y-9041310D02*
X11127510Y-9041310D01*
X11663050Y-6455294D02*
X11713050Y-6505294D01*
X11713050Y-6455294D02*
X11663050Y-6505294D01*
X11688050Y-6455294D02*
X11688050Y-6505294D01*
X11663050Y-6480294D02*
X11713050Y-6480294D01*
X11799500Y-6728400D02*
X11849500Y-6778400D01*
X11849500Y-6728400D02*
X11799500Y-6778400D01*
X11824500Y-6728400D02*
X11824500Y-6778400D01*
X11799500Y-6753400D02*
X11849500Y-6753400D01*
X12142400Y-10436800D02*
X12192400Y-10486800D01*
X12192400Y-10436800D02*
X12142400Y-10486800D01*
X12167400Y-10436800D02*
X12167400Y-10486800D01*
X12142400Y-10461800D02*
X12192400Y-10461800D01*
X12294800Y-6398200D02*
X12344800Y-6448200D01*
X12344800Y-6398200D02*
X12294800Y-6448200D01*
X12319800Y-6398200D02*
X12319800Y-6448200D01*
X12294800Y-6423200D02*
X12344800Y-6423200D01*
X13485559Y-6585399D02*
X13535559Y-6635399D01*
X13535559Y-6585399D02*
X13485559Y-6635399D01*
X13510559Y-6585399D02*
X13510559Y-6635399D01*
X13485559Y-6610399D02*
X13535559Y-6610399D01*
X14720500Y-10678100D02*
X14770500Y-10728100D01*
X14770500Y-10678100D02*
X14720500Y-10728100D01*
X14745500Y-10678100D02*
X14745500Y-10728100D01*
X14720500Y-10703100D02*
X14770500Y-10703100D01*
X14801839Y-7890602D02*
X14851839Y-7940602D01*
X14851839Y-7890602D02*
X14801839Y-7940602D01*
X14826839Y-7890602D02*
X14826839Y-7940602D01*
X14801839Y-7915602D02*
X14851839Y-7915602D01*
X14949100Y-10855900D02*
X14999100Y-10905900D01*
X14999100Y-10855900D02*
X14949100Y-10905900D01*
X14974100Y-10855900D02*
X14974100Y-10905900D01*
X14949100Y-10880900D02*
X14999100Y-10880900D01*
X15150800Y-9952400D02*
X15200800Y-10002400D01*
X15200800Y-9952400D02*
X15150800Y-10002400D01*
X15175800Y-9952400D02*
X15175800Y-10002400D01*
X15150800Y-9977400D02*
X15200800Y-9977400D01*
X15828999Y-9461877D02*
X15878999Y-9511877D01*
X15878999Y-9461877D02*
X15828999Y-9511877D01*
X15853999Y-9461877D02*
X15853999Y-9511877D01*
X15828999Y-9486877D02*
X15878999Y-9486877D01*
X15839500Y-9838500D02*
X15889500Y-9888500D01*
X15889500Y-9838500D02*
X15839500Y-9888500D01*
X15864500Y-9838500D02*
X15864500Y-9888500D01*
X15839500Y-9863500D02*
X15889500Y-9863500D01*
X15901600Y-7195593D02*
X15951600Y-7245593D01*
X15951600Y-7195593D02*
X15901600Y-7245593D01*
X15926600Y-7195593D02*
X15926600Y-7245593D01*
X15901600Y-7220593D02*
X15951600Y-7220593D01*
X15963600Y-9838100D02*
X16013600Y-9888100D01*
X16013600Y-9838100D02*
X15963600Y-9888100D01*
X15988600Y-9838100D02*
X15988600Y-9888100D01*
X15963600Y-9863100D02*
X16013600Y-9863100D01*
X16065001Y-9477000D02*
X16115001Y-9527000D01*
X16115001Y-9477000D02*
X16065001Y-9527000D01*
X16090001Y-9477000D02*
X16090001Y-9527000D01*
X16065001Y-9502000D02*
X16115001Y-9502000D01*
X16295300Y-9471600D02*
X16345300Y-9521600D01*
X16345300Y-9471600D02*
X16295300Y-9521600D01*
X16320300Y-9471600D02*
X16320300Y-9521600D01*
X16295300Y-9496600D02*
X16345300Y-9496600D01*
X16437573Y-9473247D02*
X16487573Y-9523247D01*
X16487573Y-9473247D02*
X16437573Y-9523247D01*
X16462573Y-9473247D02*
X16462573Y-9523247D01*
X16437573Y-9498247D02*
X16487573Y-9498247D01*
X16460400Y-6309300D02*
X16510400Y-6359300D01*
X16510400Y-6309300D02*
X16460400Y-6359300D01*
X16485400Y-6309300D02*
X16485400Y-6359300D01*
X16460400Y-6334300D02*
X16510400Y-6334300D01*
X16638200Y-9611300D02*
X16688200Y-9661300D01*
X16688200Y-9611300D02*
X16638200Y-9661300D01*
X16663200Y-9611300D02*
X16663200Y-9661300D01*
X16638200Y-9636300D02*
X16688200Y-9636300D01*
X17347900Y-6828200D02*
X17397900Y-6878200D01*
X17397900Y-6828200D02*
X17347900Y-6878200D01*
X17372900Y-6828200D02*
X17372900Y-6878200D01*
X17347900Y-6853200D02*
X17397900Y-6853200D01*
X17552600Y-6309300D02*
X17602600Y-6359300D01*
X17602600Y-6309300D02*
X17552600Y-6359300D01*
X17577600Y-6309300D02*
X17577600Y-6359300D01*
X17552600Y-6334300D02*
X17602600Y-6334300D01*
X17589200Y-9431700D02*
X17639200Y-9481700D01*
X17639200Y-9431700D02*
X17589200Y-9481700D01*
X17614200Y-9431700D02*
X17614200Y-9481700D01*
X17589200Y-9456700D02*
X17639200Y-9456700D01*
X17740844Y-8203135D02*
X17790844Y-8253135D01*
X17790844Y-8203135D02*
X17740844Y-8253135D01*
X17765844Y-8203135D02*
X17765844Y-8253135D01*
X17740844Y-8228135D02*
X17790844Y-8228135D01*
X17767000Y-10460400D02*
X17817000Y-10510400D01*
X17817000Y-10460400D02*
X17767000Y-10510400D01*
X17792000Y-10460400D02*
X17792000Y-10510400D01*
X17767000Y-10485400D02*
X17817000Y-10485400D01*
X18046400Y-9165000D02*
X18096400Y-9215000D01*
X18096400Y-9165000D02*
X18046400Y-9215000D01*
X18071400Y-9165000D02*
X18071400Y-9215000D01*
X18046400Y-9190000D02*
X18096400Y-9190000D01*
X18145500Y-8534600D02*
X18195500Y-8584600D01*
X18195500Y-8534600D02*
X18145500Y-8584600D01*
X18170500Y-8534600D02*
X18170500Y-8584600D01*
X18145500Y-8559600D02*
X18195500Y-8559600D01*
X17319000Y-9439400D02*
X17379000Y-9499400D01*
X17379000Y-9439400D02*
X17319000Y-9499400D01*
X17370213Y-9490613D02*
X17370213Y-9448187D01*
X17327787Y-9448187D01*
X17327787Y-9490613D01*
X17370213Y-9490613D01*
X10249000Y-9521000D02*
X10349000Y-9621000D01*
X10349000Y-9521000D02*
X10249000Y-9621000D01*
X10299000Y-9621000D02*
X10349000Y-9571000D01*
X10299000Y-9521000D01*
X10249000Y-9571000D01*
X10299000Y-9621000D01*
X10503000Y-9521000D02*
X10603000Y-9621000D01*
X10603000Y-9521000D02*
X10503000Y-9621000D01*
X10553000Y-9621000D02*
X10603000Y-9571000D01*
X10553000Y-9521000D01*
X10503000Y-9571000D01*
X10553000Y-9621000D01*
X12955600Y-7122500D02*
X13055600Y-7222500D01*
X13055600Y-7122500D02*
X12955600Y-7222500D01*
X13005600Y-7222500D02*
X13055600Y-7172500D01*
X13005600Y-7122500D01*
X12955600Y-7172500D01*
X13005600Y-7222500D01*
X13209600Y-7122500D02*
X13309600Y-7222500D01*
X13309600Y-7122500D02*
X13209600Y-7222500D01*
X13259600Y-7222500D02*
X13309600Y-7172500D01*
X13259600Y-7122500D01*
X13209600Y-7172500D01*
X13259600Y-7222500D01*
X13463600Y-7122500D02*
X13563600Y-7222500D01*
X13563600Y-7122500D02*
X13463600Y-7222500D01*
X13513600Y-7222500D02*
X13563600Y-7172500D01*
X13513600Y-7122500D01*
X13463600Y-7172500D01*
X13513600Y-7222500D01*
X13791500Y-10409200D02*
X13791500Y-10510800D01*
X13740700Y-10460000D02*
X13842300Y-10460000D01*
X13842300Y-10460000D02*
G75*
G03*
X13842300Y-10460000I-50800J0D01*
G01*
X13791500Y-10663200D02*
X13791500Y-10764800D01*
X13740700Y-10714000D02*
X13842300Y-10714000D01*
X13842300Y-10714000D02*
G75*
G03*
X13842300Y-10714000I-50800J0D01*
G01*
X13791500Y-10917200D02*
X13791500Y-11018800D01*
X13740700Y-10968000D02*
X13842300Y-10968000D01*
X13842300Y-10968000D02*
G75*
G03*
X13842300Y-10968000I-50800J0D01*
G01*
X14045500Y-10409200D02*
X14045500Y-10510800D01*
X13994700Y-10460000D02*
X14096300Y-10460000D01*
X14096300Y-10460000D02*
G75*
G03*
X14096300Y-10460000I-50800J0D01*
G01*
X14045500Y-10663200D02*
X14045500Y-10764800D01*
X13994700Y-10714000D02*
X14096300Y-10714000D01*
X14096300Y-10714000D02*
G75*
G03*
X14096300Y-10714000I-50800J0D01*
G01*
X14045500Y-10917200D02*
X14045500Y-11018800D01*
X13994700Y-10968000D02*
X14096300Y-10968000D01*
X14096300Y-10968000D02*
G75*
G03*
X14096300Y-10968000I-50800J0D01*
G01*
X9537000Y-6218200D02*
X9537000Y-6319800D01*
X9486200Y-6269000D02*
X9587800Y-6269000D01*
X9587800Y-6269000D02*
G75*
G03*
X9587800Y-6269000I-50800J0D01*
G01*
X9537000Y-6472200D02*
X9537000Y-6573800D01*
X9486200Y-6523000D02*
X9587800Y-6523000D01*
X9587800Y-6523000D02*
G75*
G03*
X9587800Y-6523000I-50800J0D01*
G01*
X9537000Y-6726200D02*
X9537000Y-6827800D01*
X9486200Y-6777000D02*
X9587800Y-6777000D01*
X9587800Y-6777000D02*
G75*
G03*
X9587800Y-6777000I-50800J0D01*
G01*
X9537000Y-6980200D02*
X9537000Y-7081800D01*
X9486200Y-7031000D02*
X9587800Y-7031000D01*
X9587800Y-7031000D02*
G75*
G03*
X9587800Y-7031000I-50800J0D01*
G01*
X9537000Y-7234200D02*
X9537000Y-7335800D01*
X9486200Y-7285000D02*
X9587800Y-7285000D01*
X9587800Y-7285000D02*
G75*
G03*
X9587800Y-7285000I-50800J0D01*
G01*
X9537000Y-7488200D02*
X9537000Y-7589800D01*
X9486200Y-7539000D02*
X9587800Y-7539000D01*
X9587800Y-7539000D02*
G75*
G03*
X9587800Y-7539000I-50800J0D01*
G01*
X9537000Y-7742200D02*
X9537000Y-7843800D01*
X9486200Y-7793000D02*
X9587800Y-7793000D01*
X9587800Y-7793000D02*
G75*
G03*
X9587800Y-7793000I-50800J0D01*
G01*
X9537000Y-7996200D02*
X9537000Y-8097800D01*
X9486200Y-8047000D02*
X9587800Y-8047000D01*
X9587800Y-8047000D02*
G75*
G03*
X9587800Y-8047000I-50800J0D01*
G01*
X9537000Y-8250200D02*
X9537000Y-8351800D01*
X9486200Y-8301000D02*
X9587800Y-8301000D01*
X9587800Y-8301000D02*
G75*
G03*
X9587800Y-8301000I-50800J0D01*
G01*
X9537000Y-8504200D02*
X9537000Y-8605800D01*
X9486200Y-8555000D02*
X9587800Y-8555000D01*
X9587800Y-8555000D02*
G75*
G03*
X9587800Y-8555000I-50800J0D01*
G01*
X9537000Y-8758200D02*
X9537000Y-8859800D01*
X9486200Y-8809000D02*
X9587800Y-8809000D01*
X9587800Y-8809000D02*
G75*
G03*
X9587800Y-8809000I-50800J0D01*
G01*
X9537000Y-9012200D02*
X9537000Y-9113800D01*
X9486200Y-9063000D02*
X9587800Y-9063000D01*
X9587800Y-9063000D02*
G75*
G03*
X9587800Y-9063000I-50800J0D01*
G01*
X9537000Y-9266200D02*
X9537000Y-9367800D01*
X9486200Y-9317000D02*
X9587800Y-9317000D01*
X9587800Y-9317000D02*
G75*
G03*
X9587800Y-9317000I-50800J0D01*
G01*
X9537000Y-9520200D02*
X9537000Y-9621800D01*
X9486200Y-9571000D02*
X9587800Y-9571000D01*
X9587800Y-9571000D02*
G75*
G03*
X9587800Y-9571000I-50800J0D01*
G01*
X9537000Y-9774200D02*
X9537000Y-9875800D01*
X9486200Y-9825000D02*
X9587800Y-9825000D01*
X9587800Y-9825000D02*
G75*
G03*
X9587800Y-9825000I-50800J0D01*
G01*
X9537000Y-10028200D02*
X9537000Y-10129800D01*
X9486200Y-10079000D02*
X9587800Y-10079000D01*
X9587800Y-10079000D02*
G75*
G03*
X9587800Y-10079000I-50800J0D01*
G01*
X9537000Y-10282200D02*
X9537000Y-10383800D01*
X9486200Y-10333000D02*
X9587800Y-10333000D01*
X9587800Y-10333000D02*
G75*
G03*
X9587800Y-10333000I-50800J0D01*
G01*
X9537000Y-10536200D02*
X9537000Y-10637800D01*
X9486200Y-10587000D02*
X9587800Y-10587000D01*
X9587800Y-10587000D02*
G75*
G03*
X9587800Y-10587000I-50800J0D01*
G01*
X9537000Y-10790200D02*
X9537000Y-10891800D01*
X9486200Y-10841000D02*
X9587800Y-10841000D01*
X9587800Y-10841000D02*
G75*
G03*
X9587800Y-10841000I-50800J0D01*
G01*
X9537000Y-11044200D02*
X9537000Y-11145800D01*
X9486200Y-11095000D02*
X9587800Y-11095000D01*
X9587800Y-11095000D02*
G75*
G03*
X9587800Y-11095000I-50800J0D01*
G01*
X9791000Y-6218200D02*
X9791000Y-6319800D01*
X9740200Y-6269000D02*
X9841800Y-6269000D01*
X9841800Y-6269000D02*
G75*
G03*
X9841800Y-6269000I-50800J0D01*
G01*
X9791000Y-6472200D02*
X9791000Y-6573800D01*
X9740200Y-6523000D02*
X9841800Y-6523000D01*
X9841800Y-6523000D02*
G75*
G03*
X9841800Y-6523000I-50800J0D01*
G01*
X9791000Y-6726200D02*
X9791000Y-6827800D01*
X9740200Y-6777000D02*
X9841800Y-6777000D01*
X9841800Y-6777000D02*
G75*
G03*
X9841800Y-6777000I-50800J0D01*
G01*
X9791000Y-6980200D02*
X9791000Y-7081800D01*
X9740200Y-7031000D02*
X9841800Y-7031000D01*
X9841800Y-7031000D02*
G75*
G03*
X9841800Y-7031000I-50800J0D01*
G01*
X9791000Y-7234200D02*
X9791000Y-7335800D01*
X9740200Y-7285000D02*
X9841800Y-7285000D01*
X9841800Y-7285000D02*
G75*
G03*
X9841800Y-7285000I-50800J0D01*
G01*
X9791000Y-7488200D02*
X9791000Y-7589800D01*
X9740200Y-7539000D02*
X9841800Y-7539000D01*
X9841800Y-7539000D02*
G75*
G03*
X9841800Y-7539000I-50800J0D01*
G01*
X9791000Y-7742200D02*
X9791000Y-7843800D01*
X9740200Y-7793000D02*
X9841800Y-7793000D01*
X9841800Y-7793000D02*
G75*
G03*
X9841800Y-7793000I-50800J0D01*
G01*
X9791000Y-7996200D02*
X9791000Y-8097800D01*
X9740200Y-8047000D02*
X9841800Y-8047000D01*
X9841800Y-8047000D02*
G75*
G03*
X9841800Y-8047000I-50800J0D01*
G01*
X9791000Y-8250200D02*
X9791000Y-8351800D01*
X9740200Y-8301000D02*
X9841800Y-8301000D01*
X9841800Y-8301000D02*
G75*
G03*
X9841800Y-8301000I-50800J0D01*
G01*
X9791000Y-8504200D02*
X9791000Y-8605800D01*
X9740200Y-8555000D02*
X9841800Y-8555000D01*
X9841800Y-8555000D02*
G75*
G03*
X9841800Y-8555000I-50800J0D01*
G01*
X9791000Y-8758200D02*
X9791000Y-8859800D01*
X9740200Y-8809000D02*
X9841800Y-8809000D01*
X9841800Y-8809000D02*
G75*
G03*
X9841800Y-8809000I-50800J0D01*
G01*
X9791000Y-9012200D02*
X9791000Y-9113800D01*
X9740200Y-9063000D02*
X9841800Y-9063000D01*
X9841800Y-9063000D02*
G75*
G03*
X9841800Y-9063000I-50800J0D01*
G01*
X9791000Y-9266200D02*
X9791000Y-9367800D01*
X9740200Y-9317000D02*
X9841800Y-9317000D01*
X9841800Y-9317000D02*
G75*
G03*
X9841800Y-9317000I-50800J0D01*
G01*
X9791000Y-9520200D02*
X9791000Y-9621800D01*
X9740200Y-9571000D02*
X9841800Y-9571000D01*
X9841800Y-9571000D02*
G75*
G03*
X9841800Y-9571000I-50800J0D01*
G01*
X9791000Y-9774200D02*
X9791000Y-9875800D01*
X9740200Y-9825000D02*
X9841800Y-9825000D01*
X9841800Y-9825000D02*
G75*
G03*
X9841800Y-9825000I-50800J0D01*
G01*
X9791000Y-10028200D02*
X9791000Y-10129800D01*
X9740200Y-10079000D02*
X9841800Y-10079000D01*
X9841800Y-10079000D02*
G75*
G03*
X9841800Y-10079000I-50800J0D01*
G01*
X9791000Y-10282200D02*
X9791000Y-10383800D01*
X9740200Y-10333000D02*
X9841800Y-10333000D01*
X9841800Y-10333000D02*
G75*
G03*
X9841800Y-10333000I-50800J0D01*
G01*
X9791000Y-10536200D02*
X9791000Y-10637800D01*
X9740200Y-10587000D02*
X9841800Y-10587000D01*
X9841800Y-10587000D02*
G75*
G03*
X9841800Y-10587000I-50800J0D01*
G01*
X9791000Y-10790200D02*
X9791000Y-10891800D01*
X9740200Y-10841000D02*
X9841800Y-10841000D01*
X9841800Y-10841000D02*
G75*
G03*
X9841800Y-10841000I-50800J0D01*
G01*
X9791000Y-11044200D02*
X9791000Y-11145800D01*
X9740200Y-11095000D02*
X9841800Y-11095000D01*
X9841800Y-11095000D02*
G75*
G03*
X9841800Y-11095000I-50800J0D01*
G01*
X12966000Y-10028200D02*
X12966000Y-10129800D01*
X12915200Y-10079000D02*
X13016800Y-10079000D01*
X13016800Y-10079000D02*
G75*
G03*
X13016800Y-10079000I-50800J0D01*
G01*
X13220000Y-10028200D02*
X13220000Y-10129800D01*
X13169200Y-10079000D02*
X13270800Y-10079000D01*
X13270800Y-10079000D02*
G75*
G03*
X13270800Y-10079000I-50800J0D01*
G01*
X13474000Y-10028200D02*
X13474000Y-10129800D01*
X13423200Y-10079000D02*
X13524800Y-10079000D01*
X13524800Y-10079000D02*
G75*
G03*
X13524800Y-10079000I-50800J0D01*
G01*
X13728000Y-10028200D02*
X13728000Y-10129800D01*
X13677200Y-10079000D02*
X13778800Y-10079000D01*
X13778800Y-10079000D02*
G75*
G03*
X13778800Y-10079000I-50800J0D01*
G01*
X13982000Y-10028200D02*
X13982000Y-10129800D01*
X13931200Y-10079000D02*
X14032800Y-10079000D01*
X14032800Y-10079000D02*
G75*
G03*
X14032800Y-10079000I-50800J0D01*
G01*
X14236000Y-10028200D02*
X14236000Y-10129800D01*
X14185200Y-10079000D02*
X14286800Y-10079000D01*
X14286800Y-10079000D02*
G75*
G03*
X14286800Y-10079000I-50800J0D01*
G01*
X14490000Y-10028200D02*
X14490000Y-10129800D01*
X14439200Y-10079000D02*
X14540800Y-10079000D01*
X14540800Y-10079000D02*
G75*
G03*
X14540800Y-10079000I-50800J0D01*
G01*
X14744000Y-10028200D02*
X14744000Y-10129800D01*
X14693200Y-10079000D02*
X14794800Y-10079000D01*
X14794800Y-10079000D02*
G75*
G03*
X14794800Y-10079000I-50800J0D01*
G01*
X18427000Y-6218200D02*
X18427000Y-6319800D01*
X18376200Y-6269000D02*
X18477800Y-6269000D01*
X18477800Y-6269000D02*
G75*
G03*
X18477800Y-6269000I-50800J0D01*
G01*
X18427000Y-6472200D02*
X18427000Y-6573800D01*
X18376200Y-6523000D02*
X18477800Y-6523000D01*
X18477800Y-6523000D02*
G75*
G03*
X18477800Y-6523000I-50800J0D01*
G01*
X18427000Y-6726200D02*
X18427000Y-6827800D01*
X18376200Y-6777000D02*
X18477800Y-6777000D01*
X18477800Y-6777000D02*
G75*
G03*
X18477800Y-6777000I-50800J0D01*
G01*
X18427000Y-6980200D02*
X18427000Y-7081800D01*
X18376200Y-7031000D02*
X18477800Y-7031000D01*
X18477800Y-7031000D02*
G75*
G03*
X18477800Y-7031000I-50800J0D01*
G01*
X18427000Y-7234200D02*
X18427000Y-7335800D01*
X18376200Y-7285000D02*
X18477800Y-7285000D01*
X18477800Y-7285000D02*
G75*
G03*
X18477800Y-7285000I-50800J0D01*
G01*
X18427000Y-7488200D02*
X18427000Y-7589800D01*
X18376200Y-7539000D02*
X18477800Y-7539000D01*
X18477800Y-7539000D02*
G75*
G03*
X18477800Y-7539000I-50800J0D01*
G01*
X18427000Y-7742200D02*
X18427000Y-7843800D01*
X18376200Y-7793000D02*
X18477800Y-7793000D01*
X18477800Y-7793000D02*
G75*
G03*
X18477800Y-7793000I-50800J0D01*
G01*
X18427000Y-7996200D02*
X18427000Y-8097800D01*
X18376200Y-8047000D02*
X18477800Y-8047000D01*
X18477800Y-8047000D02*
G75*
G03*
X18477800Y-8047000I-50800J0D01*
G01*
X18427000Y-8250200D02*
X18427000Y-8351800D01*
X18376200Y-8301000D02*
X18477800Y-8301000D01*
X18477800Y-8301000D02*
G75*
G03*
X18477800Y-8301000I-50800J0D01*
G01*
X18427000Y-8504200D02*
X18427000Y-8605800D01*
X18376200Y-8555000D02*
X18477800Y-8555000D01*
X18477800Y-8555000D02*
G75*
G03*
X18477800Y-8555000I-50800J0D01*
G01*
X18427000Y-8758200D02*
X18427000Y-8859800D01*
X18376200Y-8809000D02*
X18477800Y-8809000D01*
X18477800Y-8809000D02*
G75*
G03*
X18477800Y-8809000I-50800J0D01*
G01*
X18427000Y-9012200D02*
X18427000Y-9113800D01*
X18376200Y-9063000D02*
X18477800Y-9063000D01*
X18477800Y-9063000D02*
G75*
G03*
X18477800Y-9063000I-50800J0D01*
G01*
X18427000Y-9266200D02*
X18427000Y-9367800D01*
X18376200Y-9317000D02*
X18477800Y-9317000D01*
X18477800Y-9317000D02*
G75*
G03*
X18477800Y-9317000I-50800J0D01*
G01*
X18427000Y-9520200D02*
X18427000Y-9621800D01*
X18376200Y-9571000D02*
X18477800Y-9571000D01*
X18477800Y-9571000D02*
G75*
G03*
X18477800Y-9571000I-50800J0D01*
G01*
X18427000Y-9774200D02*
X18427000Y-9875800D01*
X18376200Y-9825000D02*
X18477800Y-9825000D01*
X18477800Y-9825000D02*
G75*
G03*
X18477800Y-9825000I-50800J0D01*
G01*
X18427000Y-10028200D02*
X18427000Y-10129800D01*
X18376200Y-10079000D02*
X18477800Y-10079000D01*
X18477800Y-10079000D02*
G75*
G03*
X18477800Y-10079000I-50800J0D01*
G01*
X18427000Y-10282200D02*
X18427000Y-10383800D01*
X18376200Y-10333000D02*
X18477800Y-10333000D01*
X18477800Y-10333000D02*
G75*
G03*
X18477800Y-10333000I-50800J0D01*
G01*
X18427000Y-10536200D02*
X18427000Y-10637800D01*
X18376200Y-10587000D02*
X18477800Y-10587000D01*
X18477800Y-10587000D02*
G75*
G03*
X18477800Y-10587000I-50800J0D01*
G01*
X18427000Y-10790200D02*
X18427000Y-10891800D01*
X18376200Y-10841000D02*
X18477800Y-10841000D01*
X18477800Y-10841000D02*
G75*
G03*
X18477800Y-10841000I-50800J0D01*
G01*
X18427000Y-11044200D02*
X18427000Y-11145800D01*
X18376200Y-11095000D02*
X18477800Y-11095000D01*
X18477800Y-11095000D02*
G75*
G03*
X18477800Y-11095000I-50800J0D01*
G01*
X18681000Y-6218200D02*
X18681000Y-6319800D01*
X18630200Y-6269000D02*
X18731800Y-6269000D01*
X18731800Y-6269000D02*
G75*
G03*
X18731800Y-6269000I-50800J0D01*
G01*
X18681000Y-6472200D02*
X18681000Y-6573800D01*
X18630200Y-6523000D02*
X18731800Y-6523000D01*
X18731800Y-6523000D02*
G75*
G03*
X18731800Y-6523000I-50800J0D01*
G01*
X18681000Y-6726200D02*
X18681000Y-6827800D01*
X18630200Y-6777000D02*
X18731800Y-6777000D01*
X18731800Y-6777000D02*
G75*
G03*
X18731800Y-6777000I-50800J0D01*
G01*
X18681000Y-6980200D02*
X18681000Y-7081800D01*
X18630200Y-7031000D02*
X18731800Y-7031000D01*
X18731800Y-7031000D02*
G75*
G03*
X18731800Y-7031000I-50800J0D01*
G01*
X18681000Y-7234200D02*
X18681000Y-7335800D01*
X18630200Y-7285000D02*
X18731800Y-7285000D01*
X18731800Y-7285000D02*
G75*
G03*
X18731800Y-7285000I-50800J0D01*
G01*
X18681000Y-7488200D02*
X18681000Y-7589800D01*
X18630200Y-7539000D02*
X18731800Y-7539000D01*
X18731800Y-7539000D02*
G75*
G03*
X18731800Y-7539000I-50800J0D01*
G01*
X18681000Y-7742200D02*
X18681000Y-7843800D01*
X18630200Y-7793000D02*
X18731800Y-7793000D01*
X18731800Y-7793000D02*
G75*
G03*
X18731800Y-7793000I-50800J0D01*
G01*
X18681000Y-7996200D02*
X18681000Y-8097800D01*
X18630200Y-8047000D02*
X18731800Y-8047000D01*
X18731800Y-8047000D02*
G75*
G03*
X18731800Y-8047000I-50800J0D01*
G01*
X18681000Y-8250200D02*
X18681000Y-8351800D01*
X18630200Y-8301000D02*
X18731800Y-8301000D01*
X18731800Y-8301000D02*
G75*
G03*
X18731800Y-8301000I-50800J0D01*
G01*
X18681000Y-8504200D02*
X18681000Y-8605800D01*
X18630200Y-8555000D02*
X18731800Y-8555000D01*
X18731800Y-8555000D02*
G75*
G03*
X18731800Y-8555000I-50800J0D01*
G01*
X18681000Y-8758200D02*
X18681000Y-8859800D01*
X18630200Y-8809000D02*
X18731800Y-8809000D01*
X18731800Y-8809000D02*
G75*
G03*
X18731800Y-8809000I-50800J0D01*
G01*
X18681000Y-9012200D02*
X18681000Y-9113800D01*
X18630200Y-9063000D02*
X18731800Y-9063000D01*
X18731800Y-9063000D02*
G75*
G03*
X18731800Y-9063000I-50800J0D01*
G01*
X18681000Y-9266200D02*
X18681000Y-9367800D01*
X18630200Y-9317000D02*
X18731800Y-9317000D01*
X18731800Y-9317000D02*
G75*
G03*
X18731800Y-9317000I-50800J0D01*
G01*
X18681000Y-9520200D02*
X18681000Y-9621800D01*
X18630200Y-9571000D02*
X18731800Y-9571000D01*
X18731800Y-9571000D02*
G75*
G03*
X18731800Y-9571000I-50800J0D01*
G01*
X18681000Y-9774200D02*
X18681000Y-9875800D01*
X18630200Y-9825000D02*
X18731800Y-9825000D01*
X18731800Y-9825000D02*
G75*
G03*
X18731800Y-9825000I-50800J0D01*
G01*
X18681000Y-10028200D02*
X18681000Y-10129800D01*
X18630200Y-10079000D02*
X18731800Y-10079000D01*
X18731800Y-10079000D02*
G75*
G03*
X18731800Y-10079000I-50800J0D01*
G01*
X18681000Y-10282200D02*
X18681000Y-10383800D01*
X18630200Y-10333000D02*
X18731800Y-10333000D01*
X18731800Y-10333000D02*
G75*
G03*
X18731800Y-10333000I-50800J0D01*
G01*
X18681000Y-10536200D02*
X18681000Y-10637800D01*
X18630200Y-10587000D02*
X18731800Y-10587000D01*
X18731800Y-10587000D02*
G75*
G03*
X18731800Y-10587000I-50800J0D01*
G01*
X18681000Y-10790200D02*
X18681000Y-10891800D01*
X18630200Y-10841000D02*
X18731800Y-10841000D01*
X18731800Y-10841000D02*
G75*
G03*
X18731800Y-10841000I-50800J0D01*
G01*
X18681000Y-11044200D02*
X18681000Y-11145800D01*
X18630200Y-11095000D02*
X18731800Y-11095000D01*
X18731800Y-11095000D02*
G75*
G03*
X18731800Y-11095000I-50800J0D01*
G01*
X13790562Y-6487162D02*
X13790562Y-6395238D01*
X13698638Y-6395238D01*
X13698638Y-6487162D01*
X13790562Y-6487162D01*
X13809600Y-6441200D02*
G75*
G03*
X13809600Y-6441200I-65000J0D01*
G01*
X13850562Y-6977162D02*
X13850562Y-6885238D01*
X13758638Y-6885238D01*
X13758638Y-6977162D01*
X13850562Y-6977162D01*
X13869600Y-6931200D02*
G75*
G03*
X13869600Y-6931200I-65000J0D01*
G01*
X15300562Y-6977162D02*
X15300562Y-6885238D01*
X15208638Y-6885238D01*
X15208638Y-6977162D01*
X15300562Y-6977162D01*
X15319600Y-6931200D02*
G75*
G03*
X15319600Y-6931200I-65000J0D01*
G01*
X15360562Y-6487162D02*
X15360562Y-6395238D01*
X15268638Y-6395238D01*
X15268638Y-6487162D01*
X15360562Y-6487162D01*
X15379600Y-6441200D02*
G75*
G03*
X15379600Y-6441200I-65000J0D01*
G01*
X11519700Y-10211600D02*
X11599700Y-10131600D01*
X11519700Y-10051600D01*
X11439700Y-10131600D01*
X11519700Y-10211600D01*
X11599700Y-10131600D02*
G75*
G03*
X11599700Y-10131600I-80000J0D01*
G01*
X11868950Y-10211600D02*
X11948950Y-10131600D01*
X11868950Y-10051600D01*
X11788950Y-10131600D01*
X11868950Y-10211600D01*
X11948950Y-10131600D02*
G75*
G03*
X11948950Y-10131600I-80000J0D01*
G01*
X17919000Y-10681000D02*
X17919000Y-11001000D01*
X17759000Y-10841000D02*
X18079000Y-10841000D01*
X18032138Y-10954138D02*
X18032138Y-10727862D01*
X17805862Y-10727862D01*
X17805862Y-10954138D01*
X18032138Y-10954138D01*
X17919000Y-6363000D02*
X17919000Y-6683000D01*
X17759000Y-6523000D02*
X18079000Y-6523000D01*
X18032138Y-6636138D02*
X18032138Y-6409862D01*
X17805862Y-6409862D01*
X17805862Y-6636138D01*
X18032138Y-6636138D01*
X10299000Y-6363000D02*
X10299000Y-6683000D01*
X10139000Y-6523000D02*
X10459000Y-6523000D01*
X10412138Y-6636138D02*
X10412138Y-6409862D01*
X10185862Y-6409862D01*
X10185862Y-6636138D01*
X10412138Y-6636138D01*
X10299000Y-10681000D02*
X10299000Y-11001000D01*
X10139000Y-10841000D02*
X10459000Y-10841000D01*
X10412138Y-10954138D02*
X10412138Y-10727862D01*
X10185862Y-10727862D01*
X10185862Y-10954138D01*
X10412138Y-10954138D01*
X12446800Y-6566800D02*
X12446800Y-6736800D01*
X12361800Y-6651800D02*
X12531800Y-6651800D01*
X12446800Y-6736800D02*
X12531800Y-6651800D01*
X12446800Y-6566800D01*
X12361800Y-6651800D01*
X12446800Y-6736800D01*
X12446800Y-7266800D02*
X12446800Y-7436800D01*
X12361800Y-7351800D02*
X12531800Y-7351800D01*
X12446800Y-7436800D02*
X12531800Y-7351800D01*
X12446800Y-7266800D01*
X12361800Y-7351800D01*
X12446800Y-7436800D01*
D12*
X286429Y-465714D02*
X286429Y-165714D01*
X357857Y-165714D01*
X400714Y-180000D01*
X429286Y-208571D01*
X443571Y-237143D01*
X457857Y-294286D01*
X457857Y-337143D01*
X443571Y-394286D01*
X429286Y-422857D01*
X400714Y-451428D01*
X357857Y-465714D01*
X286429Y-465714D01*
X586429Y-465714D02*
X586429Y-265714D01*
X586429Y-322857D02*
X600714Y-294286D01*
X615000Y-280000D01*
X643571Y-265714D01*
X672143Y-265714D01*
X772143Y-465714D02*
X772143Y-265714D01*
X772143Y-165714D02*
X757857Y-180000D01*
X772143Y-194286D01*
X786428Y-180000D01*
X772143Y-165714D01*
X772143Y-194286D01*
X957857Y-465714D02*
X929286Y-451428D01*
X915000Y-422857D01*
X915000Y-165714D01*
X1115000Y-465714D02*
X1086429Y-451428D01*
X1072143Y-422857D01*
X1072143Y-165714D01*
X1457857Y-465714D02*
X1457857Y-165714D01*
X1557857Y-380000D01*
X1657857Y-165714D01*
X1657857Y-465714D01*
X1929286Y-465714D02*
X1929286Y-308571D01*
X1915000Y-280000D01*
X1886428Y-265714D01*
X1829286Y-265714D01*
X1800714Y-280000D01*
X1929286Y-451428D02*
X1900714Y-465714D01*
X1829286Y-465714D01*
X1800714Y-451428D01*
X1786428Y-422857D01*
X1786428Y-394286D01*
X1800714Y-365714D01*
X1829286Y-351428D01*
X1900714Y-351428D01*
X1929286Y-337143D01*
X2072143Y-265714D02*
X2072143Y-565714D01*
X2072143Y-280000D02*
X2100714Y-265714D01*
X2157857Y-265714D01*
X2186429Y-280000D01*
X2200714Y-294286D01*
X2215000Y-322857D01*
X2215000Y-408571D01*
X2200714Y-437143D01*
X2186429Y-451428D01*
X2157857Y-465714D01*
X2100714Y-465714D01*
X2072143Y-451428D01*
X2343571Y-437143D02*
X2357857Y-451428D01*
X2343571Y-465714D01*
X2329286Y-451428D01*
X2343571Y-437143D01*
X2343571Y-465714D01*
X2343571Y-280000D02*
X2357857Y-294286D01*
X2343571Y-308571D01*
X2329286Y-294286D01*
X2343571Y-280000D01*
X2343571Y-308571D01*
X-20000Y-950000D02*
X0Y-970000D01*
X0Y-950000D02*
X-20000Y-970000D01*
X343571Y-795714D02*
X372143Y-795714D01*
X400714Y-810000D01*
X415000Y-824286D01*
X429286Y-852857D01*
X443571Y-910000D01*
X443571Y-981428D01*
X429286Y-1038571D01*
X415000Y-1067143D01*
X400714Y-1081429D01*
X372143Y-1095714D01*
X343571Y-1095714D01*
X315000Y-1081429D01*
X300714Y-1067143D01*
X286429Y-1038571D01*
X272143Y-981428D01*
X272143Y-910000D01*
X286429Y-852857D01*
X300714Y-824286D01*
X315000Y-810000D01*
X343571Y-795714D01*
X572143Y-1067143D02*
X586429Y-1081429D01*
X572143Y-1095714D01*
X557857Y-1081429D01*
X572143Y-1067143D01*
X572143Y-1095714D01*
X700714Y-824286D02*
X715000Y-810000D01*
X743571Y-795714D01*
X815000Y-795714D01*
X843571Y-810000D01*
X857857Y-824286D01*
X872143Y-852857D01*
X872143Y-881428D01*
X857857Y-924286D01*
X686429Y-1095714D01*
X872143Y-1095714D01*
X1057857Y-795714D02*
X1086429Y-795714D01*
X1115000Y-810000D01*
X1129286Y-824286D01*
X1143571Y-852857D01*
X1157857Y-910000D01*
X1157857Y-981428D01*
X1143571Y-1038571D01*
X1129286Y-1067143D01*
X1115000Y-1081429D01*
X1086429Y-1095714D01*
X1057857Y-1095714D01*
X1029286Y-1081429D01*
X1015000Y-1067143D01*
X1000714Y-1038571D01*
X986428Y-981428D01*
X986428Y-910000D01*
X1000714Y-852857D01*
X1015000Y-824286D01*
X1029286Y-810000D01*
X1057857Y-795714D01*
X1286429Y-1095714D02*
X1286429Y-895714D01*
X1286429Y-924286D02*
X1300714Y-910000D01*
X1329286Y-895714D01*
X1372143Y-895714D01*
X1400714Y-910000D01*
X1415000Y-938571D01*
X1415000Y-1095714D01*
X1415000Y-938571D02*
X1429286Y-910000D01*
X1457857Y-895714D01*
X1500714Y-895714D01*
X1529286Y-910000D01*
X1543571Y-938571D01*
X1543571Y-1095714D01*
X1686428Y-1095714D02*
X1686428Y-895714D01*
X1686428Y-924286D02*
X1700714Y-910000D01*
X1729286Y-895714D01*
X1772143Y-895714D01*
X1800714Y-910000D01*
X1815000Y-938571D01*
X1815000Y-1095714D01*
X1815000Y-938571D02*
X1829286Y-910000D01*
X1857857Y-895714D01*
X1900714Y-895714D01*
X1929286Y-910000D01*
X1943571Y-938571D01*
X1943571Y-1095714D01*
X2529286Y-781428D02*
X2272143Y-1167143D01*
X2915000Y-795714D02*
X2943571Y-795714D01*
X2972143Y-810000D01*
X2986428Y-824286D01*
X3000714Y-852857D01*
X3015000Y-910000D01*
X3015000Y-981428D01*
X3000714Y-1038571D01*
X2986428Y-1067143D01*
X2972143Y-1081429D01*
X2943571Y-1095714D01*
X2915000Y-1095714D01*
X2886428Y-1081429D01*
X2872143Y-1067143D01*
X2857857Y-1038571D01*
X2843571Y-981428D01*
X2843571Y-910000D01*
X2857857Y-852857D01*
X2872143Y-824286D01*
X2886428Y-810000D01*
X2915000Y-795714D01*
X3143571Y-1067143D02*
X3157857Y-1081429D01*
X3143571Y-1095714D01*
X3129286Y-1081429D01*
X3143571Y-1067143D01*
X3143571Y-1095714D01*
X3343571Y-795714D02*
X3372143Y-795714D01*
X3400714Y-810000D01*
X3415000Y-824286D01*
X3429286Y-852857D01*
X3443571Y-910000D01*
X3443571Y-981428D01*
X3429286Y-1038571D01*
X3415000Y-1067143D01*
X3400714Y-1081429D01*
X3372143Y-1095714D01*
X3343571Y-1095714D01*
X3315000Y-1081429D01*
X3300714Y-1067143D01*
X3286428Y-1038571D01*
X3272143Y-981428D01*
X3272143Y-910000D01*
X3286428Y-852857D01*
X3300714Y-824286D01*
X3315000Y-810000D01*
X3343571Y-795714D01*
X3629286Y-795714D02*
X3657857Y-795714D01*
X3686428Y-810000D01*
X3700714Y-824286D01*
X3715000Y-852857D01*
X3729286Y-910000D01*
X3729286Y-981428D01*
X3715000Y-1038571D01*
X3700714Y-1067143D01*
X3686428Y-1081429D01*
X3657857Y-1095714D01*
X3629286Y-1095714D01*
X3600714Y-1081429D01*
X3586428Y-1067143D01*
X3572143Y-1038571D01*
X3557857Y-981428D01*
X3557857Y-910000D01*
X3572143Y-852857D01*
X3586428Y-824286D01*
X3600714Y-810000D01*
X3629286Y-795714D01*
X3900714Y-924286D02*
X3872143Y-910000D01*
X3857857Y-895714D01*
X3843571Y-867143D01*
X3843571Y-852857D01*
X3857857Y-824286D01*
X3872143Y-810000D01*
X3900714Y-795714D01*
X3957857Y-795714D01*
X3986428Y-810000D01*
X4000714Y-824286D01*
X4015000Y-852857D01*
X4015000Y-867143D01*
X4000714Y-895714D01*
X3986428Y-910000D01*
X3957857Y-924286D01*
X3900714Y-924286D01*
X3872143Y-938571D01*
X3857857Y-952857D01*
X3843571Y-981428D01*
X3843571Y-1038571D01*
X3857857Y-1067143D01*
X3872143Y-1081429D01*
X3900714Y-1095714D01*
X3957857Y-1095714D01*
X3986428Y-1081429D01*
X4000714Y-1067143D01*
X4015000Y-1038571D01*
X4015000Y-981428D01*
X4000714Y-952857D01*
X3986428Y-938571D01*
X3957857Y-924286D01*
X4129286Y-795714D02*
X4129286Y-852857D01*
X4243571Y-795714D02*
X4243571Y-852857D01*
X4686429Y-1210000D02*
X4672143Y-1195714D01*
X4643571Y-1152857D01*
X4629286Y-1124286D01*
X4615000Y-1081429D01*
X4600714Y-1010000D01*
X4600714Y-952857D01*
X4615000Y-881428D01*
X4629286Y-838571D01*
X4643571Y-810000D01*
X4672143Y-767143D01*
X4686429Y-752857D01*
X4929286Y-895714D02*
X4929286Y-1095714D01*
X4857857Y-781428D02*
X4786429Y-995714D01*
X4972143Y-995714D01*
X5229286Y-795714D02*
X5086429Y-795714D01*
X5072143Y-938571D01*
X5086429Y-924286D01*
X5115000Y-910000D01*
X5186429Y-910000D01*
X5215000Y-924286D01*
X5229286Y-938571D01*
X5243571Y-967143D01*
X5243571Y-1038571D01*
X5229286Y-1067143D01*
X5215000Y-1081429D01*
X5186429Y-1095714D01*
X5115000Y-1095714D01*
X5086429Y-1081429D01*
X5072143Y-1067143D01*
X5515000Y-795714D02*
X5372143Y-795714D01*
X5357857Y-938571D01*
X5372143Y-924286D01*
X5400714Y-910000D01*
X5472143Y-910000D01*
X5500714Y-924286D01*
X5515000Y-938571D01*
X5529286Y-967143D01*
X5529286Y-1038571D01*
X5515000Y-1067143D01*
X5500714Y-1081429D01*
X5472143Y-1095714D01*
X5400714Y-1095714D01*
X5372143Y-1081429D01*
X5357857Y-1067143D01*
X5886428Y-1095714D02*
X5886428Y-795714D01*
X6015000Y-1095714D02*
X6015000Y-938571D01*
X6000714Y-910000D01*
X5972143Y-895714D01*
X5929286Y-895714D01*
X5900714Y-910000D01*
X5886428Y-924286D01*
X6200714Y-1095714D02*
X6172143Y-1081429D01*
X6157857Y-1067143D01*
X6143571Y-1038571D01*
X6143571Y-952857D01*
X6157857Y-924286D01*
X6172143Y-910000D01*
X6200714Y-895714D01*
X6243571Y-895714D01*
X6272143Y-910000D01*
X6286428Y-924286D01*
X6300714Y-952857D01*
X6300714Y-1038571D01*
X6286428Y-1067143D01*
X6272143Y-1081429D01*
X6243571Y-1095714D01*
X6200714Y-1095714D01*
X6472143Y-1095714D02*
X6443571Y-1081429D01*
X6429286Y-1052857D01*
X6429286Y-795714D01*
X6700714Y-1081429D02*
X6672143Y-1095714D01*
X6615000Y-1095714D01*
X6586428Y-1081429D01*
X6572143Y-1052857D01*
X6572143Y-938571D01*
X6586428Y-910000D01*
X6615000Y-895714D01*
X6672143Y-895714D01*
X6700714Y-910000D01*
X6715000Y-938571D01*
X6715000Y-967143D01*
X6572143Y-995714D01*
X6829286Y-1081429D02*
X6857857Y-1095714D01*
X6915000Y-1095714D01*
X6943571Y-1081429D01*
X6957857Y-1052857D01*
X6957857Y-1038571D01*
X6943571Y-1010000D01*
X6915000Y-995714D01*
X6872143Y-995714D01*
X6843571Y-981428D01*
X6829286Y-952857D01*
X6829286Y-938571D01*
X6843571Y-910000D01*
X6872143Y-895714D01*
X6915000Y-895714D01*
X6943571Y-910000D01*
X7057857Y-1210000D02*
X7072143Y-1195714D01*
X7100714Y-1152857D01*
X7115000Y-1124286D01*
X7129286Y-1081429D01*
X7143571Y-1010000D01*
X7143571Y-952857D01*
X7129286Y-881428D01*
X7115000Y-838571D01*
X7100714Y-810000D01*
X7072143Y-767143D01*
X7057857Y-752857D01*
X0Y-1356000D02*
G75*
G03*
X0Y-1356000I-12500J0D01*
G01*
X343571Y-1191714D02*
X372143Y-1191714D01*
X400714Y-1206000D01*
X415000Y-1220286D01*
X429286Y-1248857D01*
X443571Y-1306000D01*
X443571Y-1377429D01*
X429286Y-1434571D01*
X415000Y-1463143D01*
X400714Y-1477428D01*
X372143Y-1491714D01*
X343571Y-1491714D01*
X315000Y-1477428D01*
X300714Y-1463143D01*
X286429Y-1434571D01*
X272143Y-1377429D01*
X272143Y-1306000D01*
X286429Y-1248857D01*
X300714Y-1220286D01*
X315000Y-1206000D01*
X343571Y-1191714D01*
X572143Y-1463143D02*
X586429Y-1477428D01*
X572143Y-1491714D01*
X557857Y-1477428D01*
X572143Y-1463143D01*
X572143Y-1491714D01*
X700714Y-1220286D02*
X715000Y-1206000D01*
X743571Y-1191714D01*
X815000Y-1191714D01*
X843571Y-1206000D01*
X857857Y-1220286D01*
X872143Y-1248857D01*
X872143Y-1277429D01*
X857857Y-1320286D01*
X686429Y-1491714D01*
X872143Y-1491714D01*
X1143571Y-1191714D02*
X1000714Y-1191714D01*
X986428Y-1334571D01*
X1000714Y-1320286D01*
X1029286Y-1306000D01*
X1100714Y-1306000D01*
X1129286Y-1320286D01*
X1143571Y-1334571D01*
X1157857Y-1363143D01*
X1157857Y-1434571D01*
X1143571Y-1463143D01*
X1129286Y-1477428D01*
X1100714Y-1491714D01*
X1029286Y-1491714D01*
X1000714Y-1477428D01*
X986428Y-1463143D01*
X1286429Y-1491714D02*
X1286429Y-1291714D01*
X1286429Y-1320286D02*
X1300714Y-1306000D01*
X1329286Y-1291714D01*
X1372143Y-1291714D01*
X1400714Y-1306000D01*
X1415000Y-1334571D01*
X1415000Y-1491714D01*
X1415000Y-1334571D02*
X1429286Y-1306000D01*
X1457857Y-1291714D01*
X1500714Y-1291714D01*
X1529286Y-1306000D01*
X1543571Y-1334571D01*
X1543571Y-1491714D01*
X1686428Y-1491714D02*
X1686428Y-1291714D01*
X1686428Y-1320286D02*
X1700714Y-1306000D01*
X1729286Y-1291714D01*
X1772143Y-1291714D01*
X1800714Y-1306000D01*
X1815000Y-1334571D01*
X1815000Y-1491714D01*
X1815000Y-1334571D02*
X1829286Y-1306000D01*
X1857857Y-1291714D01*
X1900714Y-1291714D01*
X1929286Y-1306000D01*
X1943571Y-1334571D01*
X1943571Y-1491714D01*
X2529286Y-1177429D02*
X2272143Y-1563143D01*
X2915000Y-1191714D02*
X2943571Y-1191714D01*
X2972143Y-1206000D01*
X2986428Y-1220286D01*
X3000714Y-1248857D01*
X3015000Y-1306000D01*
X3015000Y-1377429D01*
X3000714Y-1434571D01*
X2986428Y-1463143D01*
X2972143Y-1477428D01*
X2943571Y-1491714D01*
X2915000Y-1491714D01*
X2886428Y-1477428D01*
X2872143Y-1463143D01*
X2857857Y-1434571D01*
X2843571Y-1377429D01*
X2843571Y-1306000D01*
X2857857Y-1248857D01*
X2872143Y-1220286D01*
X2886428Y-1206000D01*
X2915000Y-1191714D01*
X3143571Y-1463143D02*
X3157857Y-1477428D01*
X3143571Y-1491714D01*
X3129286Y-1477428D01*
X3143571Y-1463143D01*
X3143571Y-1491714D01*
X3343571Y-1191714D02*
X3372143Y-1191714D01*
X3400714Y-1206000D01*
X3415000Y-1220286D01*
X3429286Y-1248857D01*
X3443571Y-1306000D01*
X3443571Y-1377429D01*
X3429286Y-1434571D01*
X3415000Y-1463143D01*
X3400714Y-1477428D01*
X3372143Y-1491714D01*
X3343571Y-1491714D01*
X3315000Y-1477428D01*
X3300714Y-1463143D01*
X3286428Y-1434571D01*
X3272143Y-1377429D01*
X3272143Y-1306000D01*
X3286428Y-1248857D01*
X3300714Y-1220286D01*
X3315000Y-1206000D01*
X3343571Y-1191714D01*
X3729286Y-1491714D02*
X3557857Y-1491714D01*
X3643571Y-1491714D02*
X3643571Y-1191714D01*
X3615000Y-1234571D01*
X3586428Y-1263143D01*
X3557857Y-1277429D01*
X3915000Y-1191714D02*
X3943571Y-1191714D01*
X3972143Y-1206000D01*
X3986428Y-1220286D01*
X4000714Y-1248857D01*
X4015000Y-1306000D01*
X4015000Y-1377429D01*
X4000714Y-1434571D01*
X3986428Y-1463143D01*
X3972143Y-1477428D01*
X3943571Y-1491714D01*
X3915000Y-1491714D01*
X3886428Y-1477428D01*
X3872143Y-1463143D01*
X3857857Y-1434571D01*
X3843571Y-1377429D01*
X3843571Y-1306000D01*
X3857857Y-1248857D01*
X3872143Y-1220286D01*
X3886428Y-1206000D01*
X3915000Y-1191714D01*
X4129286Y-1191714D02*
X4129286Y-1248857D01*
X4243571Y-1191714D02*
X4243571Y-1248857D01*
X4686429Y-1606000D02*
X4672143Y-1591714D01*
X4643571Y-1548857D01*
X4629286Y-1520286D01*
X4615000Y-1477428D01*
X4600714Y-1406000D01*
X4600714Y-1348857D01*
X4615000Y-1277429D01*
X4629286Y-1234571D01*
X4643571Y-1206000D01*
X4672143Y-1163143D01*
X4686429Y-1148857D01*
X4943571Y-1191714D02*
X4800714Y-1191714D01*
X4786429Y-1334571D01*
X4800714Y-1320286D01*
X4829286Y-1306000D01*
X4900714Y-1306000D01*
X4929286Y-1320286D01*
X4943571Y-1334571D01*
X4957857Y-1363143D01*
X4957857Y-1434571D01*
X4943571Y-1463143D01*
X4929286Y-1477428D01*
X4900714Y-1491714D01*
X4829286Y-1491714D01*
X4800714Y-1477428D01*
X4786429Y-1463143D01*
X5315000Y-1491714D02*
X5315000Y-1191714D01*
X5443571Y-1491714D02*
X5443571Y-1334571D01*
X5429286Y-1306000D01*
X5400714Y-1291714D01*
X5357857Y-1291714D01*
X5329286Y-1306000D01*
X5315000Y-1320286D01*
X5629286Y-1491714D02*
X5600714Y-1477428D01*
X5586429Y-1463143D01*
X5572143Y-1434571D01*
X5572143Y-1348857D01*
X5586429Y-1320286D01*
X5600714Y-1306000D01*
X5629286Y-1291714D01*
X5672143Y-1291714D01*
X5700714Y-1306000D01*
X5715000Y-1320286D01*
X5729286Y-1348857D01*
X5729286Y-1434571D01*
X5715000Y-1463143D01*
X5700714Y-1477428D01*
X5672143Y-1491714D01*
X5629286Y-1491714D01*
X5900714Y-1491714D02*
X5872143Y-1477428D01*
X5857857Y-1448857D01*
X5857857Y-1191714D01*
X6129286Y-1477428D02*
X6100714Y-1491714D01*
X6043571Y-1491714D01*
X6015000Y-1477428D01*
X6000714Y-1448857D01*
X6000714Y-1334571D01*
X6015000Y-1306000D01*
X6043571Y-1291714D01*
X6100714Y-1291714D01*
X6129286Y-1306000D01*
X6143571Y-1334571D01*
X6143571Y-1363143D01*
X6000714Y-1391714D01*
X6257857Y-1477428D02*
X6286428Y-1491714D01*
X6343571Y-1491714D01*
X6372143Y-1477428D01*
X6386428Y-1448857D01*
X6386428Y-1434571D01*
X6372143Y-1406000D01*
X6343571Y-1391714D01*
X6300714Y-1391714D01*
X6272143Y-1377429D01*
X6257857Y-1348857D01*
X6257857Y-1334571D01*
X6272143Y-1306000D01*
X6300714Y-1291714D01*
X6343571Y-1291714D01*
X6372143Y-1306000D01*
X6486428Y-1606000D02*
X6500714Y-1591714D01*
X6529286Y-1548857D01*
X6543571Y-1520286D01*
X6557857Y-1477428D01*
X6572143Y-1406000D01*
X6572143Y-1348857D01*
X6557857Y-1277429D01*
X6543571Y-1234571D01*
X6529286Y-1206000D01*
X6500714Y-1163143D01*
X6486428Y-1148857D01*
X-12700Y-1739300D02*
X-12700Y-1764700D01*
X-25400Y-1752000D02*
X0Y-1752000D01*
X343571Y-1587714D02*
X372143Y-1587714D01*
X400714Y-1602000D01*
X415000Y-1616286D01*
X429286Y-1644857D01*
X443571Y-1702000D01*
X443571Y-1773428D01*
X429286Y-1830571D01*
X415000Y-1859143D01*
X400714Y-1873428D01*
X372143Y-1887714D01*
X343571Y-1887714D01*
X315000Y-1873428D01*
X300714Y-1859143D01*
X286429Y-1830571D01*
X272143Y-1773428D01*
X272143Y-1702000D01*
X286429Y-1644857D01*
X300714Y-1616286D01*
X315000Y-1602000D01*
X343571Y-1587714D01*
X572143Y-1859143D02*
X586429Y-1873428D01*
X572143Y-1887714D01*
X557857Y-1873428D01*
X572143Y-1859143D01*
X572143Y-1887714D01*
X700714Y-1616286D02*
X715000Y-1602000D01*
X743571Y-1587714D01*
X815000Y-1587714D01*
X843571Y-1602000D01*
X857857Y-1616286D01*
X872143Y-1644857D01*
X872143Y-1673428D01*
X857857Y-1716286D01*
X686429Y-1887714D01*
X872143Y-1887714D01*
X1143571Y-1587714D02*
X1000714Y-1587714D01*
X986428Y-1730571D01*
X1000714Y-1716286D01*
X1029286Y-1702000D01*
X1100714Y-1702000D01*
X1129286Y-1716286D01*
X1143571Y-1730571D01*
X1157857Y-1759143D01*
X1157857Y-1830571D01*
X1143571Y-1859143D01*
X1129286Y-1873428D01*
X1100714Y-1887714D01*
X1029286Y-1887714D01*
X1000714Y-1873428D01*
X986428Y-1859143D01*
X1286429Y-1887714D02*
X1286429Y-1687714D01*
X1286429Y-1716286D02*
X1300714Y-1702000D01*
X1329286Y-1687714D01*
X1372143Y-1687714D01*
X1400714Y-1702000D01*
X1415000Y-1730571D01*
X1415000Y-1887714D01*
X1415000Y-1730571D02*
X1429286Y-1702000D01*
X1457857Y-1687714D01*
X1500714Y-1687714D01*
X1529286Y-1702000D01*
X1543571Y-1730571D01*
X1543571Y-1887714D01*
X1686428Y-1887714D02*
X1686428Y-1687714D01*
X1686428Y-1716286D02*
X1700714Y-1702000D01*
X1729286Y-1687714D01*
X1772143Y-1687714D01*
X1800714Y-1702000D01*
X1815000Y-1730571D01*
X1815000Y-1887714D01*
X1815000Y-1730571D02*
X1829286Y-1702000D01*
X1857857Y-1687714D01*
X1900714Y-1687714D01*
X1929286Y-1702000D01*
X1943571Y-1730571D01*
X1943571Y-1887714D01*
X2529286Y-1573428D02*
X2272143Y-1959143D01*
X2915000Y-1587714D02*
X2943571Y-1587714D01*
X2972143Y-1602000D01*
X2986428Y-1616286D01*
X3000714Y-1644857D01*
X3015000Y-1702000D01*
X3015000Y-1773428D01*
X3000714Y-1830571D01*
X2986428Y-1859143D01*
X2972143Y-1873428D01*
X2943571Y-1887714D01*
X2915000Y-1887714D01*
X2886428Y-1873428D01*
X2872143Y-1859143D01*
X2857857Y-1830571D01*
X2843571Y-1773428D01*
X2843571Y-1702000D01*
X2857857Y-1644857D01*
X2872143Y-1616286D01*
X2886428Y-1602000D01*
X2915000Y-1587714D01*
X3143571Y-1859143D02*
X3157857Y-1873428D01*
X3143571Y-1887714D01*
X3129286Y-1873428D01*
X3143571Y-1859143D01*
X3143571Y-1887714D01*
X3343571Y-1587714D02*
X3372143Y-1587714D01*
X3400714Y-1602000D01*
X3415000Y-1616286D01*
X3429286Y-1644857D01*
X3443571Y-1702000D01*
X3443571Y-1773428D01*
X3429286Y-1830571D01*
X3415000Y-1859143D01*
X3400714Y-1873428D01*
X3372143Y-1887714D01*
X3343571Y-1887714D01*
X3315000Y-1873428D01*
X3300714Y-1859143D01*
X3286428Y-1830571D01*
X3272143Y-1773428D01*
X3272143Y-1702000D01*
X3286428Y-1644857D01*
X3300714Y-1616286D01*
X3315000Y-1602000D01*
X3343571Y-1587714D01*
X3729286Y-1887714D02*
X3557857Y-1887714D01*
X3643571Y-1887714D02*
X3643571Y-1587714D01*
X3615000Y-1630571D01*
X3586428Y-1659143D01*
X3557857Y-1673428D01*
X3915000Y-1587714D02*
X3943571Y-1587714D01*
X3972143Y-1602000D01*
X3986428Y-1616286D01*
X4000714Y-1644857D01*
X4015000Y-1702000D01*
X4015000Y-1773428D01*
X4000714Y-1830571D01*
X3986428Y-1859143D01*
X3972143Y-1873428D01*
X3943571Y-1887714D01*
X3915000Y-1887714D01*
X3886428Y-1873428D01*
X3872143Y-1859143D01*
X3857857Y-1830571D01*
X3843571Y-1773428D01*
X3843571Y-1702000D01*
X3857857Y-1644857D01*
X3872143Y-1616286D01*
X3886428Y-1602000D01*
X3915000Y-1587714D01*
X4129286Y-1587714D02*
X4129286Y-1644857D01*
X4243571Y-1587714D02*
X4243571Y-1644857D01*
X4686429Y-2002000D02*
X4672143Y-1987714D01*
X4643571Y-1944857D01*
X4629286Y-1916286D01*
X4615000Y-1873428D01*
X4600714Y-1802000D01*
X4600714Y-1744857D01*
X4615000Y-1673428D01*
X4629286Y-1630571D01*
X4643571Y-1602000D01*
X4672143Y-1559143D01*
X4686429Y-1544857D01*
X4929286Y-1687714D02*
X4929286Y-1887714D01*
X4857857Y-1573428D02*
X4786429Y-1787714D01*
X4972143Y-1787714D01*
X5315000Y-1887714D02*
X5315000Y-1587714D01*
X5443571Y-1887714D02*
X5443571Y-1730571D01*
X5429286Y-1702000D01*
X5400714Y-1687714D01*
X5357857Y-1687714D01*
X5329286Y-1702000D01*
X5315000Y-1716286D01*
X5629286Y-1887714D02*
X5600714Y-1873428D01*
X5586429Y-1859143D01*
X5572143Y-1830571D01*
X5572143Y-1744857D01*
X5586429Y-1716286D01*
X5600714Y-1702000D01*
X5629286Y-1687714D01*
X5672143Y-1687714D01*
X5700714Y-1702000D01*
X5715000Y-1716286D01*
X5729286Y-1744857D01*
X5729286Y-1830571D01*
X5715000Y-1859143D01*
X5700714Y-1873428D01*
X5672143Y-1887714D01*
X5629286Y-1887714D01*
X5900714Y-1887714D02*
X5872143Y-1873428D01*
X5857857Y-1844857D01*
X5857857Y-1587714D01*
X6129286Y-1873428D02*
X6100714Y-1887714D01*
X6043571Y-1887714D01*
X6015000Y-1873428D01*
X6000714Y-1844857D01*
X6000714Y-1730571D01*
X6015000Y-1702000D01*
X6043571Y-1687714D01*
X6100714Y-1687714D01*
X6129286Y-1702000D01*
X6143571Y-1730571D01*
X6143571Y-1759143D01*
X6000714Y-1787714D01*
X6257857Y-1873428D02*
X6286428Y-1887714D01*
X6343571Y-1887714D01*
X6372143Y-1873428D01*
X6386428Y-1844857D01*
X6386428Y-1830571D01*
X6372143Y-1802000D01*
X6343571Y-1787714D01*
X6300714Y-1787714D01*
X6272143Y-1773428D01*
X6257857Y-1744857D01*
X6257857Y-1730571D01*
X6272143Y-1702000D01*
X6300714Y-1687714D01*
X6343571Y-1687714D01*
X6372143Y-1702000D01*
X6486428Y-2002000D02*
X6500714Y-1987714D01*
X6529286Y-1944857D01*
X6543571Y-1916286D01*
X6557857Y-1873428D01*
X6572143Y-1802000D01*
X6572143Y-1744857D01*
X6557857Y-1673428D01*
X6543571Y-1630571D01*
X6529286Y-1602000D01*
X6500714Y-1559143D01*
X6486428Y-1544857D01*
X-4393Y-2158607D02*
X-4393Y-2137393D01*
X-25607Y-2137393D01*
X-25607Y-2158607D01*
X-4393Y-2158607D01*
X343571Y-1983714D02*
X372143Y-1983714D01*
X400714Y-1998000D01*
X415000Y-2012286D01*
X429286Y-2040857D01*
X443571Y-2098000D01*
X443571Y-2169429D01*
X429286Y-2226571D01*
X415000Y-2255143D01*
X400714Y-2269429D01*
X372143Y-2283714D01*
X343571Y-2283714D01*
X315000Y-2269429D01*
X300714Y-2255143D01*
X286429Y-2226571D01*
X272143Y-2169429D01*
X272143Y-2098000D01*
X286429Y-2040857D01*
X300714Y-2012286D01*
X315000Y-1998000D01*
X343571Y-1983714D01*
X572143Y-2255143D02*
X586429Y-2269429D01*
X572143Y-2283714D01*
X557857Y-2269429D01*
X572143Y-2255143D01*
X572143Y-2283714D01*
X686429Y-1983714D02*
X872143Y-1983714D01*
X772143Y-2098000D01*
X815000Y-2098000D01*
X843571Y-2112286D01*
X857857Y-2126571D01*
X872143Y-2155143D01*
X872143Y-2226571D01*
X857857Y-2255143D01*
X843571Y-2269429D01*
X815000Y-2283714D01*
X729286Y-2283714D01*
X700714Y-2269429D01*
X686429Y-2255143D01*
X1057857Y-1983714D02*
X1086429Y-1983714D01*
X1115000Y-1998000D01*
X1129286Y-2012286D01*
X1143571Y-2040857D01*
X1157857Y-2098000D01*
X1157857Y-2169429D01*
X1143571Y-2226571D01*
X1129286Y-2255143D01*
X1115000Y-2269429D01*
X1086429Y-2283714D01*
X1057857Y-2283714D01*
X1029286Y-2269429D01*
X1015000Y-2255143D01*
X1000714Y-2226571D01*
X986428Y-2169429D01*
X986428Y-2098000D01*
X1000714Y-2040857D01*
X1015000Y-2012286D01*
X1029286Y-1998000D01*
X1057857Y-1983714D01*
X1286429Y-2283714D02*
X1286429Y-2083714D01*
X1286429Y-2112286D02*
X1300714Y-2098000D01*
X1329286Y-2083714D01*
X1372143Y-2083714D01*
X1400714Y-2098000D01*
X1415000Y-2126571D01*
X1415000Y-2283714D01*
X1415000Y-2126571D02*
X1429286Y-2098000D01*
X1457857Y-2083714D01*
X1500714Y-2083714D01*
X1529286Y-2098000D01*
X1543571Y-2126571D01*
X1543571Y-2283714D01*
X1686428Y-2283714D02*
X1686428Y-2083714D01*
X1686428Y-2112286D02*
X1700714Y-2098000D01*
X1729286Y-2083714D01*
X1772143Y-2083714D01*
X1800714Y-2098000D01*
X1815000Y-2126571D01*
X1815000Y-2283714D01*
X1815000Y-2126571D02*
X1829286Y-2098000D01*
X1857857Y-2083714D01*
X1900714Y-2083714D01*
X1929286Y-2098000D01*
X1943571Y-2126571D01*
X1943571Y-2283714D01*
X2529286Y-1969428D02*
X2272143Y-2355143D01*
X2915000Y-1983714D02*
X2943571Y-1983714D01*
X2972143Y-1998000D01*
X2986428Y-2012286D01*
X3000714Y-2040857D01*
X3015000Y-2098000D01*
X3015000Y-2169429D01*
X3000714Y-2226571D01*
X2986428Y-2255143D01*
X2972143Y-2269429D01*
X2943571Y-2283714D01*
X2915000Y-2283714D01*
X2886428Y-2269429D01*
X2872143Y-2255143D01*
X2857857Y-2226571D01*
X2843571Y-2169429D01*
X2843571Y-2098000D01*
X2857857Y-2040857D01*
X2872143Y-2012286D01*
X2886428Y-1998000D01*
X2915000Y-1983714D01*
X3143571Y-2255143D02*
X3157857Y-2269429D01*
X3143571Y-2283714D01*
X3129286Y-2269429D01*
X3143571Y-2255143D01*
X3143571Y-2283714D01*
X3343571Y-1983714D02*
X3372143Y-1983714D01*
X3400714Y-1998000D01*
X3415000Y-2012286D01*
X3429286Y-2040857D01*
X3443571Y-2098000D01*
X3443571Y-2169429D01*
X3429286Y-2226571D01*
X3415000Y-2255143D01*
X3400714Y-2269429D01*
X3372143Y-2283714D01*
X3343571Y-2283714D01*
X3315000Y-2269429D01*
X3300714Y-2255143D01*
X3286428Y-2226571D01*
X3272143Y-2169429D01*
X3272143Y-2098000D01*
X3286428Y-2040857D01*
X3300714Y-2012286D01*
X3315000Y-1998000D01*
X3343571Y-1983714D01*
X3729286Y-2283714D02*
X3557857Y-2283714D01*
X3643571Y-2283714D02*
X3643571Y-1983714D01*
X3615000Y-2026571D01*
X3586428Y-2055143D01*
X3557857Y-2069428D01*
X3843571Y-2012286D02*
X3857857Y-1998000D01*
X3886428Y-1983714D01*
X3957857Y-1983714D01*
X3986428Y-1998000D01*
X4000714Y-2012286D01*
X4015000Y-2040857D01*
X4015000Y-2069428D01*
X4000714Y-2112286D01*
X3829286Y-2283714D01*
X4015000Y-2283714D01*
X4129286Y-1983714D02*
X4129286Y-2040857D01*
X4243571Y-1983714D02*
X4243571Y-2040857D01*
X4686429Y-2398000D02*
X4672143Y-2383714D01*
X4643571Y-2340857D01*
X4629286Y-2312286D01*
X4615000Y-2269429D01*
X4600714Y-2198000D01*
X4600714Y-2140857D01*
X4615000Y-2069428D01*
X4629286Y-2026571D01*
X4643571Y-1998000D01*
X4672143Y-1955143D01*
X4686429Y-1940857D01*
X4957857Y-2283714D02*
X4786429Y-2283714D01*
X4872143Y-2283714D02*
X4872143Y-1983714D01*
X4843571Y-2026571D01*
X4815000Y-2055143D01*
X4786429Y-2069428D01*
X5143571Y-1983714D02*
X5172143Y-1983714D01*
X5200714Y-1998000D01*
X5215000Y-2012286D01*
X5229286Y-2040857D01*
X5243571Y-2098000D01*
X5243571Y-2169429D01*
X5229286Y-2226571D01*
X5215000Y-2255143D01*
X5200714Y-2269429D01*
X5172143Y-2283714D01*
X5143571Y-2283714D01*
X5115000Y-2269429D01*
X5100714Y-2255143D01*
X5086429Y-2226571D01*
X5072143Y-2169429D01*
X5072143Y-2098000D01*
X5086429Y-2040857D01*
X5100714Y-2012286D01*
X5115000Y-1998000D01*
X5143571Y-1983714D01*
X5600714Y-2283714D02*
X5600714Y-1983714D01*
X5729286Y-2283714D02*
X5729286Y-2126571D01*
X5715000Y-2098000D01*
X5686428Y-2083714D01*
X5643571Y-2083714D01*
X5615000Y-2098000D01*
X5600714Y-2112286D01*
X5915000Y-2283714D02*
X5886428Y-2269429D01*
X5872143Y-2255143D01*
X5857857Y-2226571D01*
X5857857Y-2140857D01*
X5872143Y-2112286D01*
X5886428Y-2098000D01*
X5915000Y-2083714D01*
X5957857Y-2083714D01*
X5986428Y-2098000D01*
X6000714Y-2112286D01*
X6015000Y-2140857D01*
X6015000Y-2226571D01*
X6000714Y-2255143D01*
X5986428Y-2269429D01*
X5957857Y-2283714D01*
X5915000Y-2283714D01*
X6186428Y-2283714D02*
X6157857Y-2269429D01*
X6143571Y-2240857D01*
X6143571Y-1983714D01*
X6415000Y-2269429D02*
X6386428Y-2283714D01*
X6329286Y-2283714D01*
X6300714Y-2269429D01*
X6286428Y-2240857D01*
X6286428Y-2126571D01*
X6300714Y-2098000D01*
X6329286Y-2083714D01*
X6386428Y-2083714D01*
X6415000Y-2098000D01*
X6429286Y-2126571D01*
X6429286Y-2155143D01*
X6286428Y-2183714D01*
X6543571Y-2269429D02*
X6572143Y-2283714D01*
X6629286Y-2283714D01*
X6657857Y-2269429D01*
X6672143Y-2240857D01*
X6672143Y-2226571D01*
X6657857Y-2198000D01*
X6629286Y-2183714D01*
X6586428Y-2183714D01*
X6557857Y-2169429D01*
X6543571Y-2140857D01*
X6543571Y-2126571D01*
X6557857Y-2098000D01*
X6586428Y-2083714D01*
X6629286Y-2083714D01*
X6657857Y-2098000D01*
X6772143Y-2398000D02*
X6786428Y-2383714D01*
X6815000Y-2340857D01*
X6829286Y-2312286D01*
X6843571Y-2269429D01*
X6857857Y-2198000D01*
X6857857Y-2140857D01*
X6843571Y-2069428D01*
X6829286Y-2026571D01*
X6815000Y-1998000D01*
X6786428Y-1955143D01*
X6772143Y-1940857D01*
X-17500Y-2561500D02*
X0Y-2544000D01*
X-17500Y-2526500D01*
X-35000Y-2544000D01*
X-17500Y-2561500D01*
X343571Y-2379714D02*
X372143Y-2379714D01*
X400714Y-2394000D01*
X415000Y-2408286D01*
X429286Y-2436857D01*
X443571Y-2494000D01*
X443571Y-2565429D01*
X429286Y-2622571D01*
X415000Y-2651143D01*
X400714Y-2665429D01*
X372143Y-2679714D01*
X343571Y-2679714D01*
X315000Y-2665429D01*
X300714Y-2651143D01*
X286429Y-2622571D01*
X272143Y-2565429D01*
X272143Y-2494000D01*
X286429Y-2436857D01*
X300714Y-2408286D01*
X315000Y-2394000D01*
X343571Y-2379714D01*
X572143Y-2651143D02*
X586429Y-2665429D01*
X572143Y-2679714D01*
X557857Y-2665429D01*
X572143Y-2651143D01*
X572143Y-2679714D01*
X686429Y-2379714D02*
X872143Y-2379714D01*
X772143Y-2494000D01*
X815000Y-2494000D01*
X843571Y-2508286D01*
X857857Y-2522571D01*
X872143Y-2551143D01*
X872143Y-2622571D01*
X857857Y-2651143D01*
X843571Y-2665429D01*
X815000Y-2679714D01*
X729286Y-2679714D01*
X700714Y-2665429D01*
X686429Y-2651143D01*
X1143571Y-2379714D02*
X1000714Y-2379714D01*
X986428Y-2522571D01*
X1000714Y-2508286D01*
X1029286Y-2494000D01*
X1100714Y-2494000D01*
X1129286Y-2508286D01*
X1143571Y-2522571D01*
X1157857Y-2551143D01*
X1157857Y-2622571D01*
X1143571Y-2651143D01*
X1129286Y-2665429D01*
X1100714Y-2679714D01*
X1029286Y-2679714D01*
X1000714Y-2665429D01*
X986428Y-2651143D01*
X1286429Y-2679714D02*
X1286429Y-2479714D01*
X1286429Y-2508286D02*
X1300714Y-2494000D01*
X1329286Y-2479714D01*
X1372143Y-2479714D01*
X1400714Y-2494000D01*
X1415000Y-2522571D01*
X1415000Y-2679714D01*
X1415000Y-2522571D02*
X1429286Y-2494000D01*
X1457857Y-2479714D01*
X1500714Y-2479714D01*
X1529286Y-2494000D01*
X1543571Y-2522571D01*
X1543571Y-2679714D01*
X1686428Y-2679714D02*
X1686428Y-2479714D01*
X1686428Y-2508286D02*
X1700714Y-2494000D01*
X1729286Y-2479714D01*
X1772143Y-2479714D01*
X1800714Y-2494000D01*
X1815000Y-2522571D01*
X1815000Y-2679714D01*
X1815000Y-2522571D02*
X1829286Y-2494000D01*
X1857857Y-2479714D01*
X1900714Y-2479714D01*
X1929286Y-2494000D01*
X1943571Y-2522571D01*
X1943571Y-2679714D01*
X2529286Y-2365429D02*
X2272143Y-2751143D01*
X2915000Y-2379714D02*
X2943571Y-2379714D01*
X2972143Y-2394000D01*
X2986428Y-2408286D01*
X3000714Y-2436857D01*
X3015000Y-2494000D01*
X3015000Y-2565429D01*
X3000714Y-2622571D01*
X2986428Y-2651143D01*
X2972143Y-2665429D01*
X2943571Y-2679714D01*
X2915000Y-2679714D01*
X2886428Y-2665429D01*
X2872143Y-2651143D01*
X2857857Y-2622571D01*
X2843571Y-2565429D01*
X2843571Y-2494000D01*
X2857857Y-2436857D01*
X2872143Y-2408286D01*
X2886428Y-2394000D01*
X2915000Y-2379714D01*
X3143571Y-2651143D02*
X3157857Y-2665429D01*
X3143571Y-2679714D01*
X3129286Y-2665429D01*
X3143571Y-2651143D01*
X3143571Y-2679714D01*
X3343571Y-2379714D02*
X3372143Y-2379714D01*
X3400714Y-2394000D01*
X3415000Y-2408286D01*
X3429286Y-2436857D01*
X3443571Y-2494000D01*
X3443571Y-2565429D01*
X3429286Y-2622571D01*
X3415000Y-2651143D01*
X3400714Y-2665429D01*
X3372143Y-2679714D01*
X3343571Y-2679714D01*
X3315000Y-2665429D01*
X3300714Y-2651143D01*
X3286428Y-2622571D01*
X3272143Y-2565429D01*
X3272143Y-2494000D01*
X3286428Y-2436857D01*
X3300714Y-2408286D01*
X3315000Y-2394000D01*
X3343571Y-2379714D01*
X3729286Y-2679714D02*
X3557857Y-2679714D01*
X3643571Y-2679714D02*
X3643571Y-2379714D01*
X3615000Y-2422571D01*
X3586428Y-2451143D01*
X3557857Y-2465429D01*
X3986428Y-2479714D02*
X3986428Y-2679714D01*
X3915000Y-2365429D02*
X3843571Y-2579714D01*
X4029286Y-2579714D01*
X4129286Y-2379714D02*
X4129286Y-2436857D01*
X4243571Y-2379714D02*
X4243571Y-2436857D01*
X4686429Y-2794000D02*
X4672143Y-2779714D01*
X4643571Y-2736857D01*
X4629286Y-2708286D01*
X4615000Y-2665429D01*
X4600714Y-2594000D01*
X4600714Y-2536857D01*
X4615000Y-2465429D01*
X4629286Y-2422571D01*
X4643571Y-2394000D01*
X4672143Y-2351143D01*
X4686429Y-2336857D01*
X4957857Y-2679714D02*
X4786429Y-2679714D01*
X4872143Y-2679714D02*
X4872143Y-2379714D01*
X4843571Y-2422571D01*
X4815000Y-2451143D01*
X4786429Y-2465429D01*
X5315000Y-2679714D02*
X5315000Y-2379714D01*
X5443571Y-2679714D02*
X5443571Y-2522571D01*
X5429286Y-2494000D01*
X5400714Y-2479714D01*
X5357857Y-2479714D01*
X5329286Y-2494000D01*
X5315000Y-2508286D01*
X5629286Y-2679714D02*
X5600714Y-2665429D01*
X5586429Y-2651143D01*
X5572143Y-2622571D01*
X5572143Y-2536857D01*
X5586429Y-2508286D01*
X5600714Y-2494000D01*
X5629286Y-2479714D01*
X5672143Y-2479714D01*
X5700714Y-2494000D01*
X5715000Y-2508286D01*
X5729286Y-2536857D01*
X5729286Y-2622571D01*
X5715000Y-2651143D01*
X5700714Y-2665429D01*
X5672143Y-2679714D01*
X5629286Y-2679714D01*
X5900714Y-2679714D02*
X5872143Y-2665429D01*
X5857857Y-2636857D01*
X5857857Y-2379714D01*
X6129286Y-2665429D02*
X6100714Y-2679714D01*
X6043571Y-2679714D01*
X6015000Y-2665429D01*
X6000714Y-2636857D01*
X6000714Y-2522571D01*
X6015000Y-2494000D01*
X6043571Y-2479714D01*
X6100714Y-2479714D01*
X6129286Y-2494000D01*
X6143571Y-2522571D01*
X6143571Y-2551143D01*
X6000714Y-2579714D01*
X6243571Y-2794000D02*
X6257857Y-2779714D01*
X6286428Y-2736857D01*
X6300714Y-2708286D01*
X6315000Y-2665429D01*
X6329286Y-2594000D01*
X6329286Y-2536857D01*
X6315000Y-2465429D01*
X6300714Y-2422571D01*
X6286428Y-2394000D01*
X6257857Y-2351143D01*
X6243571Y-2336857D01*
X-40000Y-2920000D02*
X0Y-2960000D01*
X0Y-2920000D02*
X-40000Y-2960000D01*
X0Y-2940000D02*
G75*
G03*
X0Y-2940000I-20000J0D01*
G01*
X343571Y-2775714D02*
X372143Y-2775714D01*
X400714Y-2790000D01*
X415000Y-2804286D01*
X429286Y-2832857D01*
X443571Y-2890000D01*
X443571Y-2961428D01*
X429286Y-3018571D01*
X415000Y-3047143D01*
X400714Y-3061428D01*
X372143Y-3075714D01*
X343571Y-3075714D01*
X315000Y-3061428D01*
X300714Y-3047143D01*
X286429Y-3018571D01*
X272143Y-2961428D01*
X272143Y-2890000D01*
X286429Y-2832857D01*
X300714Y-2804286D01*
X315000Y-2790000D01*
X343571Y-2775714D01*
X572143Y-3047143D02*
X586429Y-3061428D01*
X572143Y-3075714D01*
X557857Y-3061428D01*
X572143Y-3047143D01*
X572143Y-3075714D01*
X843571Y-2875714D02*
X843571Y-3075714D01*
X772143Y-2761429D02*
X700714Y-2975714D01*
X886428Y-2975714D01*
X1057857Y-2775714D02*
X1086429Y-2775714D01*
X1115000Y-2790000D01*
X1129286Y-2804286D01*
X1143571Y-2832857D01*
X1157857Y-2890000D01*
X1157857Y-2961428D01*
X1143571Y-3018571D01*
X1129286Y-3047143D01*
X1115000Y-3061428D01*
X1086429Y-3075714D01*
X1057857Y-3075714D01*
X1029286Y-3061428D01*
X1015000Y-3047143D01*
X1000714Y-3018571D01*
X986428Y-2961428D01*
X986428Y-2890000D01*
X1000714Y-2832857D01*
X1015000Y-2804286D01*
X1029286Y-2790000D01*
X1057857Y-2775714D01*
X1286429Y-3075714D02*
X1286429Y-2875714D01*
X1286429Y-2904286D02*
X1300714Y-2890000D01*
X1329286Y-2875714D01*
X1372143Y-2875714D01*
X1400714Y-2890000D01*
X1415000Y-2918571D01*
X1415000Y-3075714D01*
X1415000Y-2918571D02*
X1429286Y-2890000D01*
X1457857Y-2875714D01*
X1500714Y-2875714D01*
X1529286Y-2890000D01*
X1543571Y-2918571D01*
X1543571Y-3075714D01*
X1686428Y-3075714D02*
X1686428Y-2875714D01*
X1686428Y-2904286D02*
X1700714Y-2890000D01*
X1729286Y-2875714D01*
X1772143Y-2875714D01*
X1800714Y-2890000D01*
X1815000Y-2918571D01*
X1815000Y-3075714D01*
X1815000Y-2918571D02*
X1829286Y-2890000D01*
X1857857Y-2875714D01*
X1900714Y-2875714D01*
X1929286Y-2890000D01*
X1943571Y-2918571D01*
X1943571Y-3075714D01*
X2529286Y-2761429D02*
X2272143Y-3147143D01*
X2915000Y-2775714D02*
X2943571Y-2775714D01*
X2972143Y-2790000D01*
X2986428Y-2804286D01*
X3000714Y-2832857D01*
X3015000Y-2890000D01*
X3015000Y-2961428D01*
X3000714Y-3018571D01*
X2986428Y-3047143D01*
X2972143Y-3061428D01*
X2943571Y-3075714D01*
X2915000Y-3075714D01*
X2886428Y-3061428D01*
X2872143Y-3047143D01*
X2857857Y-3018571D01*
X2843571Y-2961428D01*
X2843571Y-2890000D01*
X2857857Y-2832857D01*
X2872143Y-2804286D01*
X2886428Y-2790000D01*
X2915000Y-2775714D01*
X3143571Y-3047143D02*
X3157857Y-3061428D01*
X3143571Y-3075714D01*
X3129286Y-3061428D01*
X3143571Y-3047143D01*
X3143571Y-3075714D01*
X3343571Y-2775714D02*
X3372143Y-2775714D01*
X3400714Y-2790000D01*
X3415000Y-2804286D01*
X3429286Y-2832857D01*
X3443571Y-2890000D01*
X3443571Y-2961428D01*
X3429286Y-3018571D01*
X3415000Y-3047143D01*
X3400714Y-3061428D01*
X3372143Y-3075714D01*
X3343571Y-3075714D01*
X3315000Y-3061428D01*
X3300714Y-3047143D01*
X3286428Y-3018571D01*
X3272143Y-2961428D01*
X3272143Y-2890000D01*
X3286428Y-2832857D01*
X3300714Y-2804286D01*
X3315000Y-2790000D01*
X3343571Y-2775714D01*
X3729286Y-3075714D02*
X3557857Y-3075714D01*
X3643571Y-3075714D02*
X3643571Y-2775714D01*
X3615000Y-2818571D01*
X3586428Y-2847143D01*
X3557857Y-2861428D01*
X3986428Y-2775714D02*
X3929286Y-2775714D01*
X3900714Y-2790000D01*
X3886428Y-2804286D01*
X3857857Y-2847143D01*
X3843571Y-2904286D01*
X3843571Y-3018571D01*
X3857857Y-3047143D01*
X3872143Y-3061428D01*
X3900714Y-3075714D01*
X3957857Y-3075714D01*
X3986428Y-3061428D01*
X4000714Y-3047143D01*
X4015000Y-3018571D01*
X4015000Y-2947143D01*
X4000714Y-2918571D01*
X3986428Y-2904286D01*
X3957857Y-2890000D01*
X3900714Y-2890000D01*
X3872143Y-2904286D01*
X3857857Y-2918571D01*
X3843571Y-2947143D01*
X4129286Y-2775714D02*
X4129286Y-2832857D01*
X4243571Y-2775714D02*
X4243571Y-2832857D01*
X4686429Y-3190000D02*
X4672143Y-3175714D01*
X4643571Y-3132857D01*
X4629286Y-3104286D01*
X4615000Y-3061428D01*
X4600714Y-2990000D01*
X4600714Y-2932857D01*
X4615000Y-2861428D01*
X4629286Y-2818571D01*
X4643571Y-2790000D01*
X4672143Y-2747143D01*
X4686429Y-2732857D01*
X4843571Y-2904286D02*
X4815000Y-2890000D01*
X4800714Y-2875714D01*
X4786429Y-2847143D01*
X4786429Y-2832857D01*
X4800714Y-2804286D01*
X4815000Y-2790000D01*
X4843571Y-2775714D01*
X4900714Y-2775714D01*
X4929286Y-2790000D01*
X4943571Y-2804286D01*
X4957857Y-2832857D01*
X4957857Y-2847143D01*
X4943571Y-2875714D01*
X4929286Y-2890000D01*
X4900714Y-2904286D01*
X4843571Y-2904286D01*
X4815000Y-2918571D01*
X4800714Y-2932857D01*
X4786429Y-2961428D01*
X4786429Y-3018571D01*
X4800714Y-3047143D01*
X4815000Y-3061428D01*
X4843571Y-3075714D01*
X4900714Y-3075714D01*
X4929286Y-3061428D01*
X4943571Y-3047143D01*
X4957857Y-3018571D01*
X4957857Y-2961428D01*
X4943571Y-2932857D01*
X4929286Y-2918571D01*
X4900714Y-2904286D01*
X5315000Y-3075714D02*
X5315000Y-2775714D01*
X5443571Y-3075714D02*
X5443571Y-2918571D01*
X5429286Y-2890000D01*
X5400714Y-2875714D01*
X5357857Y-2875714D01*
X5329286Y-2890000D01*
X5315000Y-2904286D01*
X5629286Y-3075714D02*
X5600714Y-3061428D01*
X5586429Y-3047143D01*
X5572143Y-3018571D01*
X5572143Y-2932857D01*
X5586429Y-2904286D01*
X5600714Y-2890000D01*
X5629286Y-2875714D01*
X5672143Y-2875714D01*
X5700714Y-2890000D01*
X5715000Y-2904286D01*
X5729286Y-2932857D01*
X5729286Y-3018571D01*
X5715000Y-3047143D01*
X5700714Y-3061428D01*
X5672143Y-3075714D01*
X5629286Y-3075714D01*
X5900714Y-3075714D02*
X5872143Y-3061428D01*
X5857857Y-3032857D01*
X5857857Y-2775714D01*
X6129286Y-3061428D02*
X6100714Y-3075714D01*
X6043571Y-3075714D01*
X6015000Y-3061428D01*
X6000714Y-3032857D01*
X6000714Y-2918571D01*
X6015000Y-2890000D01*
X6043571Y-2875714D01*
X6100714Y-2875714D01*
X6129286Y-2890000D01*
X6143571Y-2918571D01*
X6143571Y-2947143D01*
X6000714Y-2975714D01*
X6257857Y-3061428D02*
X6286428Y-3075714D01*
X6343571Y-3075714D01*
X6372143Y-3061428D01*
X6386428Y-3032857D01*
X6386428Y-3018571D01*
X6372143Y-2990000D01*
X6343571Y-2975714D01*
X6300714Y-2975714D01*
X6272143Y-2961428D01*
X6257857Y-2932857D01*
X6257857Y-2918571D01*
X6272143Y-2890000D01*
X6300714Y-2875714D01*
X6343571Y-2875714D01*
X6372143Y-2890000D01*
X6486428Y-3190000D02*
X6500714Y-3175714D01*
X6529286Y-3132857D01*
X6543571Y-3104286D01*
X6557857Y-3061428D01*
X6572143Y-2990000D01*
X6572143Y-2932857D01*
X6557857Y-2861428D01*
X6543571Y-2818571D01*
X6529286Y-2790000D01*
X6500714Y-2747143D01*
X6486428Y-2732857D01*
X-50000Y-3311000D02*
X0Y-3361000D01*
X0Y-3311000D02*
X-50000Y-3361000D01*
X-25000Y-3311000D02*
X-25000Y-3361000D01*
X-50000Y-3336000D02*
X0Y-3336000D01*
X343571Y-3171714D02*
X372143Y-3171714D01*
X400714Y-3186000D01*
X415000Y-3200286D01*
X429286Y-3228857D01*
X443571Y-3286000D01*
X443571Y-3357428D01*
X429286Y-3414571D01*
X415000Y-3443143D01*
X400714Y-3457428D01*
X372143Y-3471714D01*
X343571Y-3471714D01*
X315000Y-3457428D01*
X300714Y-3443143D01*
X286429Y-3414571D01*
X272143Y-3357428D01*
X272143Y-3286000D01*
X286429Y-3228857D01*
X300714Y-3200286D01*
X315000Y-3186000D01*
X343571Y-3171714D01*
X572143Y-3443143D02*
X586429Y-3457428D01*
X572143Y-3471714D01*
X557857Y-3457428D01*
X572143Y-3443143D01*
X572143Y-3471714D01*
X857857Y-3171714D02*
X715000Y-3171714D01*
X700714Y-3314571D01*
X715000Y-3300286D01*
X743571Y-3286000D01*
X815000Y-3286000D01*
X843571Y-3300286D01*
X857857Y-3314571D01*
X872143Y-3343143D01*
X872143Y-3414571D01*
X857857Y-3443143D01*
X843571Y-3457428D01*
X815000Y-3471714D01*
X743571Y-3471714D01*
X715000Y-3457428D01*
X700714Y-3443143D01*
X1057857Y-3171714D02*
X1086429Y-3171714D01*
X1115000Y-3186000D01*
X1129286Y-3200286D01*
X1143571Y-3228857D01*
X1157857Y-3286000D01*
X1157857Y-3357428D01*
X1143571Y-3414571D01*
X1129286Y-3443143D01*
X1115000Y-3457428D01*
X1086429Y-3471714D01*
X1057857Y-3471714D01*
X1029286Y-3457428D01*
X1015000Y-3443143D01*
X1000714Y-3414571D01*
X986428Y-3357428D01*
X986428Y-3286000D01*
X1000714Y-3228857D01*
X1015000Y-3200286D01*
X1029286Y-3186000D01*
X1057857Y-3171714D01*
X1286429Y-3471714D02*
X1286429Y-3271714D01*
X1286429Y-3300286D02*
X1300714Y-3286000D01*
X1329286Y-3271714D01*
X1372143Y-3271714D01*
X1400714Y-3286000D01*
X1415000Y-3314571D01*
X1415000Y-3471714D01*
X1415000Y-3314571D02*
X1429286Y-3286000D01*
X1457857Y-3271714D01*
X1500714Y-3271714D01*
X1529286Y-3286000D01*
X1543571Y-3314571D01*
X1543571Y-3471714D01*
X1686428Y-3471714D02*
X1686428Y-3271714D01*
X1686428Y-3300286D02*
X1700714Y-3286000D01*
X1729286Y-3271714D01*
X1772143Y-3271714D01*
X1800714Y-3286000D01*
X1815000Y-3314571D01*
X1815000Y-3471714D01*
X1815000Y-3314571D02*
X1829286Y-3286000D01*
X1857857Y-3271714D01*
X1900714Y-3271714D01*
X1929286Y-3286000D01*
X1943571Y-3314571D01*
X1943571Y-3471714D01*
X2529286Y-3157428D02*
X2272143Y-3543143D01*
X2915000Y-3171714D02*
X2943571Y-3171714D01*
X2972143Y-3186000D01*
X2986428Y-3200286D01*
X3000714Y-3228857D01*
X3015000Y-3286000D01*
X3015000Y-3357428D01*
X3000714Y-3414571D01*
X2986428Y-3443143D01*
X2972143Y-3457428D01*
X2943571Y-3471714D01*
X2915000Y-3471714D01*
X2886428Y-3457428D01*
X2872143Y-3443143D01*
X2857857Y-3414571D01*
X2843571Y-3357428D01*
X2843571Y-3286000D01*
X2857857Y-3228857D01*
X2872143Y-3200286D01*
X2886428Y-3186000D01*
X2915000Y-3171714D01*
X3143571Y-3443143D02*
X3157857Y-3457428D01*
X3143571Y-3471714D01*
X3129286Y-3457428D01*
X3143571Y-3443143D01*
X3143571Y-3471714D01*
X3343571Y-3171714D02*
X3372143Y-3171714D01*
X3400714Y-3186000D01*
X3415000Y-3200286D01*
X3429286Y-3228857D01*
X3443571Y-3286000D01*
X3443571Y-3357428D01*
X3429286Y-3414571D01*
X3415000Y-3443143D01*
X3400714Y-3457428D01*
X3372143Y-3471714D01*
X3343571Y-3471714D01*
X3315000Y-3457428D01*
X3300714Y-3443143D01*
X3286428Y-3414571D01*
X3272143Y-3357428D01*
X3272143Y-3286000D01*
X3286428Y-3228857D01*
X3300714Y-3200286D01*
X3315000Y-3186000D01*
X3343571Y-3171714D01*
X3557857Y-3200286D02*
X3572143Y-3186000D01*
X3600714Y-3171714D01*
X3672143Y-3171714D01*
X3700714Y-3186000D01*
X3715000Y-3200286D01*
X3729286Y-3228857D01*
X3729286Y-3257428D01*
X3715000Y-3300286D01*
X3543571Y-3471714D01*
X3729286Y-3471714D01*
X3915000Y-3171714D02*
X3943571Y-3171714D01*
X3972143Y-3186000D01*
X3986428Y-3200286D01*
X4000714Y-3228857D01*
X4015000Y-3286000D01*
X4015000Y-3357428D01*
X4000714Y-3414571D01*
X3986428Y-3443143D01*
X3972143Y-3457428D01*
X3943571Y-3471714D01*
X3915000Y-3471714D01*
X3886428Y-3457428D01*
X3872143Y-3443143D01*
X3857857Y-3414571D01*
X3843571Y-3357428D01*
X3843571Y-3286000D01*
X3857857Y-3228857D01*
X3872143Y-3200286D01*
X3886428Y-3186000D01*
X3915000Y-3171714D01*
X4129286Y-3171714D02*
X4129286Y-3228857D01*
X4243571Y-3171714D02*
X4243571Y-3228857D01*
X4686429Y-3586000D02*
X4672143Y-3571714D01*
X4643571Y-3528857D01*
X4629286Y-3500286D01*
X4615000Y-3457428D01*
X4600714Y-3386000D01*
X4600714Y-3328857D01*
X4615000Y-3257428D01*
X4629286Y-3214571D01*
X4643571Y-3186000D01*
X4672143Y-3143143D01*
X4686429Y-3128857D01*
X4772143Y-3171714D02*
X4957857Y-3171714D01*
X4857857Y-3286000D01*
X4900714Y-3286000D01*
X4929286Y-3300286D01*
X4943571Y-3314571D01*
X4957857Y-3343143D01*
X4957857Y-3414571D01*
X4943571Y-3443143D01*
X4929286Y-3457428D01*
X4900714Y-3471714D01*
X4815000Y-3471714D01*
X4786429Y-3457428D01*
X4772143Y-3443143D01*
X5057857Y-3171714D02*
X5243571Y-3171714D01*
X5143571Y-3286000D01*
X5186429Y-3286000D01*
X5215000Y-3300286D01*
X5229286Y-3314571D01*
X5243571Y-3343143D01*
X5243571Y-3414571D01*
X5229286Y-3443143D01*
X5215000Y-3457428D01*
X5186429Y-3471714D01*
X5100714Y-3471714D01*
X5072143Y-3457428D01*
X5057857Y-3443143D01*
X5600714Y-3471714D02*
X5600714Y-3171714D01*
X5729286Y-3471714D02*
X5729286Y-3314571D01*
X5715000Y-3286000D01*
X5686428Y-3271714D01*
X5643571Y-3271714D01*
X5615000Y-3286000D01*
X5600714Y-3300286D01*
X5915000Y-3471714D02*
X5886428Y-3457428D01*
X5872143Y-3443143D01*
X5857857Y-3414571D01*
X5857857Y-3328857D01*
X5872143Y-3300286D01*
X5886428Y-3286000D01*
X5915000Y-3271714D01*
X5957857Y-3271714D01*
X5986428Y-3286000D01*
X6000714Y-3300286D01*
X6015000Y-3328857D01*
X6015000Y-3414571D01*
X6000714Y-3443143D01*
X5986428Y-3457428D01*
X5957857Y-3471714D01*
X5915000Y-3471714D01*
X6186428Y-3471714D02*
X6157857Y-3457428D01*
X6143571Y-3428857D01*
X6143571Y-3171714D01*
X6415000Y-3457428D02*
X6386428Y-3471714D01*
X6329286Y-3471714D01*
X6300714Y-3457428D01*
X6286428Y-3428857D01*
X6286428Y-3314571D01*
X6300714Y-3286000D01*
X6329286Y-3271714D01*
X6386428Y-3271714D01*
X6415000Y-3286000D01*
X6429286Y-3314571D01*
X6429286Y-3343143D01*
X6286428Y-3371714D01*
X6543571Y-3457428D02*
X6572143Y-3471714D01*
X6629286Y-3471714D01*
X6657857Y-3457428D01*
X6672143Y-3428857D01*
X6672143Y-3414571D01*
X6657857Y-3386000D01*
X6629286Y-3371714D01*
X6586428Y-3371714D01*
X6557857Y-3357428D01*
X6543571Y-3328857D01*
X6543571Y-3314571D01*
X6557857Y-3286000D01*
X6586428Y-3271714D01*
X6629286Y-3271714D01*
X6657857Y-3286000D01*
X6772143Y-3586000D02*
X6786428Y-3571714D01*
X6815000Y-3528857D01*
X6829286Y-3500286D01*
X6843571Y-3457428D01*
X6857857Y-3386000D01*
X6857857Y-3328857D01*
X6843571Y-3257428D01*
X6829286Y-3214571D01*
X6815000Y-3186000D01*
X6786428Y-3143143D01*
X6772143Y-3128857D01*
X-60000Y-3702000D02*
X0Y-3762000D01*
X0Y-3702000D02*
X-60000Y-3762000D01*
X-8787Y-3753213D02*
X-8787Y-3710787D01*
X-51213Y-3710787D01*
X-51213Y-3753213D01*
X-8787Y-3753213D01*
X343571Y-3567714D02*
X372143Y-3567714D01*
X400714Y-3582000D01*
X415000Y-3596286D01*
X429286Y-3624857D01*
X443571Y-3682000D01*
X443571Y-3753428D01*
X429286Y-3810571D01*
X415000Y-3839143D01*
X400714Y-3853428D01*
X372143Y-3867714D01*
X343571Y-3867714D01*
X315000Y-3853428D01*
X300714Y-3839143D01*
X286429Y-3810571D01*
X272143Y-3753428D01*
X272143Y-3682000D01*
X286429Y-3624857D01*
X300714Y-3596286D01*
X315000Y-3582000D01*
X343571Y-3567714D01*
X572143Y-3839143D02*
X586429Y-3853428D01*
X572143Y-3867714D01*
X557857Y-3853428D01*
X572143Y-3839143D01*
X572143Y-3867714D01*
X843571Y-3567714D02*
X786428Y-3567714D01*
X757857Y-3582000D01*
X743571Y-3596286D01*
X715000Y-3639143D01*
X700714Y-3696286D01*
X700714Y-3810571D01*
X715000Y-3839143D01*
X729286Y-3853428D01*
X757857Y-3867714D01*
X815000Y-3867714D01*
X843571Y-3853428D01*
X857857Y-3839143D01*
X872143Y-3810571D01*
X872143Y-3739143D01*
X857857Y-3710571D01*
X843571Y-3696286D01*
X815000Y-3682000D01*
X757857Y-3682000D01*
X729286Y-3696286D01*
X715000Y-3710571D01*
X700714Y-3739143D01*
X1057857Y-3567714D02*
X1086429Y-3567714D01*
X1115000Y-3582000D01*
X1129286Y-3596286D01*
X1143571Y-3624857D01*
X1157857Y-3682000D01*
X1157857Y-3753428D01*
X1143571Y-3810571D01*
X1129286Y-3839143D01*
X1115000Y-3853428D01*
X1086429Y-3867714D01*
X1057857Y-3867714D01*
X1029286Y-3853428D01*
X1015000Y-3839143D01*
X1000714Y-3810571D01*
X986428Y-3753428D01*
X986428Y-3682000D01*
X1000714Y-3624857D01*
X1015000Y-3596286D01*
X1029286Y-3582000D01*
X1057857Y-3567714D01*
X1286429Y-3867714D02*
X1286429Y-3667714D01*
X1286429Y-3696286D02*
X1300714Y-3682000D01*
X1329286Y-3667714D01*
X1372143Y-3667714D01*
X1400714Y-3682000D01*
X1415000Y-3710571D01*
X1415000Y-3867714D01*
X1415000Y-3710571D02*
X1429286Y-3682000D01*
X1457857Y-3667714D01*
X1500714Y-3667714D01*
X1529286Y-3682000D01*
X1543571Y-3710571D01*
X1543571Y-3867714D01*
X1686428Y-3867714D02*
X1686428Y-3667714D01*
X1686428Y-3696286D02*
X1700714Y-3682000D01*
X1729286Y-3667714D01*
X1772143Y-3667714D01*
X1800714Y-3682000D01*
X1815000Y-3710571D01*
X1815000Y-3867714D01*
X1815000Y-3710571D02*
X1829286Y-3682000D01*
X1857857Y-3667714D01*
X1900714Y-3667714D01*
X1929286Y-3682000D01*
X1943571Y-3710571D01*
X1943571Y-3867714D01*
X2529286Y-3553428D02*
X2272143Y-3939143D01*
X2915000Y-3567714D02*
X2943571Y-3567714D01*
X2972143Y-3582000D01*
X2986428Y-3596286D01*
X3000714Y-3624857D01*
X3015000Y-3682000D01*
X3015000Y-3753428D01*
X3000714Y-3810571D01*
X2986428Y-3839143D01*
X2972143Y-3853428D01*
X2943571Y-3867714D01*
X2915000Y-3867714D01*
X2886428Y-3853428D01*
X2872143Y-3839143D01*
X2857857Y-3810571D01*
X2843571Y-3753428D01*
X2843571Y-3682000D01*
X2857857Y-3624857D01*
X2872143Y-3596286D01*
X2886428Y-3582000D01*
X2915000Y-3567714D01*
X3143571Y-3839143D02*
X3157857Y-3853428D01*
X3143571Y-3867714D01*
X3129286Y-3853428D01*
X3143571Y-3839143D01*
X3143571Y-3867714D01*
X3343571Y-3567714D02*
X3372143Y-3567714D01*
X3400714Y-3582000D01*
X3415000Y-3596286D01*
X3429286Y-3624857D01*
X3443571Y-3682000D01*
X3443571Y-3753428D01*
X3429286Y-3810571D01*
X3415000Y-3839143D01*
X3400714Y-3853428D01*
X3372143Y-3867714D01*
X3343571Y-3867714D01*
X3315000Y-3853428D01*
X3300714Y-3839143D01*
X3286428Y-3810571D01*
X3272143Y-3753428D01*
X3272143Y-3682000D01*
X3286428Y-3624857D01*
X3300714Y-3596286D01*
X3315000Y-3582000D01*
X3343571Y-3567714D01*
X3557857Y-3596286D02*
X3572143Y-3582000D01*
X3600714Y-3567714D01*
X3672143Y-3567714D01*
X3700714Y-3582000D01*
X3715000Y-3596286D01*
X3729286Y-3624857D01*
X3729286Y-3653428D01*
X3715000Y-3696286D01*
X3543571Y-3867714D01*
X3729286Y-3867714D01*
X3986428Y-3667714D02*
X3986428Y-3867714D01*
X3915000Y-3553428D02*
X3843571Y-3767714D01*
X4029286Y-3767714D01*
X4129286Y-3567714D02*
X4129286Y-3624857D01*
X4243571Y-3567714D02*
X4243571Y-3624857D01*
X4686429Y-3982000D02*
X4672143Y-3967714D01*
X4643571Y-3924857D01*
X4629286Y-3896286D01*
X4615000Y-3853428D01*
X4600714Y-3782000D01*
X4600714Y-3724857D01*
X4615000Y-3653428D01*
X4629286Y-3610571D01*
X4643571Y-3582000D01*
X4672143Y-3539143D01*
X4686429Y-3524857D01*
X4957857Y-3867714D02*
X4786429Y-3867714D01*
X4872143Y-3867714D02*
X4872143Y-3567714D01*
X4843571Y-3610571D01*
X4815000Y-3639143D01*
X4786429Y-3653428D01*
X5315000Y-3867714D02*
X5315000Y-3567714D01*
X5443571Y-3867714D02*
X5443571Y-3710571D01*
X5429286Y-3682000D01*
X5400714Y-3667714D01*
X5357857Y-3667714D01*
X5329286Y-3682000D01*
X5315000Y-3696286D01*
X5629286Y-3867714D02*
X5600714Y-3853428D01*
X5586429Y-3839143D01*
X5572143Y-3810571D01*
X5572143Y-3724857D01*
X5586429Y-3696286D01*
X5600714Y-3682000D01*
X5629286Y-3667714D01*
X5672143Y-3667714D01*
X5700714Y-3682000D01*
X5715000Y-3696286D01*
X5729286Y-3724857D01*
X5729286Y-3810571D01*
X5715000Y-3839143D01*
X5700714Y-3853428D01*
X5672143Y-3867714D01*
X5629286Y-3867714D01*
X5900714Y-3867714D02*
X5872143Y-3853428D01*
X5857857Y-3824857D01*
X5857857Y-3567714D01*
X6129286Y-3853428D02*
X6100714Y-3867714D01*
X6043571Y-3867714D01*
X6015000Y-3853428D01*
X6000714Y-3824857D01*
X6000714Y-3710571D01*
X6015000Y-3682000D01*
X6043571Y-3667714D01*
X6100714Y-3667714D01*
X6129286Y-3682000D01*
X6143571Y-3710571D01*
X6143571Y-3739143D01*
X6000714Y-3767714D01*
X6243571Y-3982000D02*
X6257857Y-3967714D01*
X6286428Y-3924857D01*
X6300714Y-3896286D01*
X6315000Y-3853428D01*
X6329286Y-3782000D01*
X6329286Y-3724857D01*
X6315000Y-3653428D01*
X6300714Y-3610571D01*
X6286428Y-3582000D01*
X6257857Y-3539143D01*
X6243571Y-3524857D01*
X-100000Y-4078000D02*
X0Y-4178000D01*
X0Y-4078000D02*
X-100000Y-4178000D01*
X-50000Y-4178000D02*
X0Y-4128000D01*
X-50000Y-4078000D01*
X-100000Y-4128000D01*
X-50000Y-4178000D01*
X443571Y-4263714D02*
X272143Y-4263714D01*
X357857Y-4263714D02*
X357857Y-3963714D01*
X329286Y-4006571D01*
X300714Y-4035143D01*
X272143Y-4049428D01*
X572143Y-4235143D02*
X586429Y-4249429D01*
X572143Y-4263714D01*
X557857Y-4249429D01*
X572143Y-4235143D01*
X572143Y-4263714D01*
X772143Y-3963714D02*
X800714Y-3963714D01*
X829286Y-3978000D01*
X843571Y-3992286D01*
X857857Y-4020857D01*
X872143Y-4078000D01*
X872143Y-4149428D01*
X857857Y-4206571D01*
X843571Y-4235143D01*
X829286Y-4249429D01*
X800714Y-4263714D01*
X772143Y-4263714D01*
X743571Y-4249429D01*
X729286Y-4235143D01*
X715000Y-4206571D01*
X700714Y-4149428D01*
X700714Y-4078000D01*
X715000Y-4020857D01*
X729286Y-3992286D01*
X743571Y-3978000D01*
X772143Y-3963714D01*
X1057857Y-3963714D02*
X1086429Y-3963714D01*
X1115000Y-3978000D01*
X1129286Y-3992286D01*
X1143571Y-4020857D01*
X1157857Y-4078000D01*
X1157857Y-4149428D01*
X1143571Y-4206571D01*
X1129286Y-4235143D01*
X1115000Y-4249429D01*
X1086429Y-4263714D01*
X1057857Y-4263714D01*
X1029286Y-4249429D01*
X1015000Y-4235143D01*
X1000714Y-4206571D01*
X986428Y-4149428D01*
X986428Y-4078000D01*
X1000714Y-4020857D01*
X1015000Y-3992286D01*
X1029286Y-3978000D01*
X1057857Y-3963714D01*
X1286429Y-4263714D02*
X1286429Y-4063714D01*
X1286429Y-4092286D02*
X1300714Y-4078000D01*
X1329286Y-4063714D01*
X1372143Y-4063714D01*
X1400714Y-4078000D01*
X1415000Y-4106571D01*
X1415000Y-4263714D01*
X1415000Y-4106571D02*
X1429286Y-4078000D01*
X1457857Y-4063714D01*
X1500714Y-4063714D01*
X1529286Y-4078000D01*
X1543571Y-4106571D01*
X1543571Y-4263714D01*
X1686428Y-4263714D02*
X1686428Y-4063714D01*
X1686428Y-4092286D02*
X1700714Y-4078000D01*
X1729286Y-4063714D01*
X1772143Y-4063714D01*
X1800714Y-4078000D01*
X1815000Y-4106571D01*
X1815000Y-4263714D01*
X1815000Y-4106571D02*
X1829286Y-4078000D01*
X1857857Y-4063714D01*
X1900714Y-4063714D01*
X1929286Y-4078000D01*
X1943571Y-4106571D01*
X1943571Y-4263714D01*
X2529286Y-3949428D02*
X2272143Y-4335143D01*
X2915000Y-3963714D02*
X2943571Y-3963714D01*
X2972143Y-3978000D01*
X2986428Y-3992286D01*
X3000714Y-4020857D01*
X3015000Y-4078000D01*
X3015000Y-4149428D01*
X3000714Y-4206571D01*
X2986428Y-4235143D01*
X2972143Y-4249429D01*
X2943571Y-4263714D01*
X2915000Y-4263714D01*
X2886428Y-4249429D01*
X2872143Y-4235143D01*
X2857857Y-4206571D01*
X2843571Y-4149428D01*
X2843571Y-4078000D01*
X2857857Y-4020857D01*
X2872143Y-3992286D01*
X2886428Y-3978000D01*
X2915000Y-3963714D01*
X3143571Y-4235143D02*
X3157857Y-4249429D01*
X3143571Y-4263714D01*
X3129286Y-4249429D01*
X3143571Y-4235143D01*
X3143571Y-4263714D01*
X3343571Y-3963714D02*
X3372143Y-3963714D01*
X3400714Y-3978000D01*
X3415000Y-3992286D01*
X3429286Y-4020857D01*
X3443571Y-4078000D01*
X3443571Y-4149428D01*
X3429286Y-4206571D01*
X3415000Y-4235143D01*
X3400714Y-4249429D01*
X3372143Y-4263714D01*
X3343571Y-4263714D01*
X3315000Y-4249429D01*
X3300714Y-4235143D01*
X3286428Y-4206571D01*
X3272143Y-4149428D01*
X3272143Y-4078000D01*
X3286428Y-4020857D01*
X3300714Y-3992286D01*
X3315000Y-3978000D01*
X3343571Y-3963714D01*
X3543571Y-3963714D02*
X3729286Y-3963714D01*
X3629286Y-4078000D01*
X3672143Y-4078000D01*
X3700714Y-4092286D01*
X3715000Y-4106571D01*
X3729286Y-4135143D01*
X3729286Y-4206571D01*
X3715000Y-4235143D01*
X3700714Y-4249429D01*
X3672143Y-4263714D01*
X3586428Y-4263714D01*
X3557857Y-4249429D01*
X3543571Y-4235143D01*
X3872143Y-4263714D02*
X3929286Y-4263714D01*
X3957857Y-4249429D01*
X3972143Y-4235143D01*
X4000714Y-4192286D01*
X4015000Y-4135143D01*
X4015000Y-4020857D01*
X4000714Y-3992286D01*
X3986428Y-3978000D01*
X3957857Y-3963714D01*
X3900714Y-3963714D01*
X3872143Y-3978000D01*
X3857857Y-3992286D01*
X3843571Y-4020857D01*
X3843571Y-4092286D01*
X3857857Y-4120857D01*
X3872143Y-4135143D01*
X3900714Y-4149428D01*
X3957857Y-4149428D01*
X3986428Y-4135143D01*
X4000714Y-4120857D01*
X4015000Y-4092286D01*
X4129286Y-3963714D02*
X4129286Y-4020857D01*
X4243571Y-3963714D02*
X4243571Y-4020857D01*
X4686429Y-4378000D02*
X4672143Y-4363714D01*
X4643571Y-4320857D01*
X4629286Y-4292286D01*
X4615000Y-4249429D01*
X4600714Y-4178000D01*
X4600714Y-4120857D01*
X4615000Y-4049428D01*
X4629286Y-4006571D01*
X4643571Y-3978000D01*
X4672143Y-3935143D01*
X4686429Y-3920857D01*
X4943571Y-3963714D02*
X4800714Y-3963714D01*
X4786429Y-4106571D01*
X4800714Y-4092286D01*
X4829286Y-4078000D01*
X4900714Y-4078000D01*
X4929286Y-4092286D01*
X4943571Y-4106571D01*
X4957857Y-4135143D01*
X4957857Y-4206571D01*
X4943571Y-4235143D01*
X4929286Y-4249429D01*
X4900714Y-4263714D01*
X4829286Y-4263714D01*
X4800714Y-4249429D01*
X4786429Y-4235143D01*
X5315000Y-4263714D02*
X5315000Y-3963714D01*
X5443571Y-4263714D02*
X5443571Y-4106571D01*
X5429286Y-4078000D01*
X5400714Y-4063714D01*
X5357857Y-4063714D01*
X5329286Y-4078000D01*
X5315000Y-4092286D01*
X5629286Y-4263714D02*
X5600714Y-4249429D01*
X5586429Y-4235143D01*
X5572143Y-4206571D01*
X5572143Y-4120857D01*
X5586429Y-4092286D01*
X5600714Y-4078000D01*
X5629286Y-4063714D01*
X5672143Y-4063714D01*
X5700714Y-4078000D01*
X5715000Y-4092286D01*
X5729286Y-4120857D01*
X5729286Y-4206571D01*
X5715000Y-4235143D01*
X5700714Y-4249429D01*
X5672143Y-4263714D01*
X5629286Y-4263714D01*
X5900714Y-4263714D02*
X5872143Y-4249429D01*
X5857857Y-4220857D01*
X5857857Y-3963714D01*
X6129286Y-4249429D02*
X6100714Y-4263714D01*
X6043571Y-4263714D01*
X6015000Y-4249429D01*
X6000714Y-4220857D01*
X6000714Y-4106571D01*
X6015000Y-4078000D01*
X6043571Y-4063714D01*
X6100714Y-4063714D01*
X6129286Y-4078000D01*
X6143571Y-4106571D01*
X6143571Y-4135143D01*
X6000714Y-4163714D01*
X6257857Y-4249429D02*
X6286428Y-4263714D01*
X6343571Y-4263714D01*
X6372143Y-4249429D01*
X6386428Y-4220857D01*
X6386428Y-4206571D01*
X6372143Y-4178000D01*
X6343571Y-4163714D01*
X6300714Y-4163714D01*
X6272143Y-4149428D01*
X6257857Y-4120857D01*
X6257857Y-4106571D01*
X6272143Y-4078000D01*
X6300714Y-4063714D01*
X6343571Y-4063714D01*
X6372143Y-4078000D01*
X6486428Y-4378000D02*
X6500714Y-4363714D01*
X6529286Y-4320857D01*
X6543571Y-4292286D01*
X6557857Y-4249429D01*
X6572143Y-4178000D01*
X6572143Y-4120857D01*
X6557857Y-4049428D01*
X6543571Y-4006571D01*
X6529286Y-3978000D01*
X6500714Y-3935143D01*
X6486428Y-3920857D01*
X-50800Y-4473200D02*
X-50800Y-4574800D01*
X-101600Y-4524000D02*
X0Y-4524000D01*
X0Y-4524000D02*
G75*
G03*
X0Y-4524000I-50800J0D01*
G01*
X443571Y-4659714D02*
X272143Y-4659714D01*
X357857Y-4659714D02*
X357857Y-4359714D01*
X329286Y-4402571D01*
X300714Y-4431143D01*
X272143Y-4445429D01*
X572143Y-4631143D02*
X586429Y-4645429D01*
X572143Y-4659714D01*
X557857Y-4645429D01*
X572143Y-4631143D01*
X572143Y-4659714D01*
X772143Y-4359714D02*
X800714Y-4359714D01*
X829286Y-4374000D01*
X843571Y-4388286D01*
X857857Y-4416857D01*
X872143Y-4474000D01*
X872143Y-4545429D01*
X857857Y-4602571D01*
X843571Y-4631143D01*
X829286Y-4645429D01*
X800714Y-4659714D01*
X772143Y-4659714D01*
X743571Y-4645429D01*
X729286Y-4631143D01*
X715000Y-4602571D01*
X700714Y-4545429D01*
X700714Y-4474000D01*
X715000Y-4416857D01*
X729286Y-4388286D01*
X743571Y-4374000D01*
X772143Y-4359714D01*
X986428Y-4388286D02*
X1000714Y-4374000D01*
X1029286Y-4359714D01*
X1100714Y-4359714D01*
X1129286Y-4374000D01*
X1143571Y-4388286D01*
X1157857Y-4416857D01*
X1157857Y-4445429D01*
X1143571Y-4488286D01*
X972143Y-4659714D01*
X1157857Y-4659714D01*
X1286429Y-4659714D02*
X1286429Y-4459714D01*
X1286429Y-4488286D02*
X1300714Y-4474000D01*
X1329286Y-4459714D01*
X1372143Y-4459714D01*
X1400714Y-4474000D01*
X1415000Y-4502571D01*
X1415000Y-4659714D01*
X1415000Y-4502571D02*
X1429286Y-4474000D01*
X1457857Y-4459714D01*
X1500714Y-4459714D01*
X1529286Y-4474000D01*
X1543571Y-4502571D01*
X1543571Y-4659714D01*
X1686428Y-4659714D02*
X1686428Y-4459714D01*
X1686428Y-4488286D02*
X1700714Y-4474000D01*
X1729286Y-4459714D01*
X1772143Y-4459714D01*
X1800714Y-4474000D01*
X1815000Y-4502571D01*
X1815000Y-4659714D01*
X1815000Y-4502571D02*
X1829286Y-4474000D01*
X1857857Y-4459714D01*
X1900714Y-4459714D01*
X1929286Y-4474000D01*
X1943571Y-4502571D01*
X1943571Y-4659714D01*
X2529286Y-4345429D02*
X2272143Y-4731143D01*
X2915000Y-4359714D02*
X2943571Y-4359714D01*
X2972143Y-4374000D01*
X2986428Y-4388286D01*
X3000714Y-4416857D01*
X3015000Y-4474000D01*
X3015000Y-4545429D01*
X3000714Y-4602571D01*
X2986428Y-4631143D01*
X2972143Y-4645429D01*
X2943571Y-4659714D01*
X2915000Y-4659714D01*
X2886428Y-4645429D01*
X2872143Y-4631143D01*
X2857857Y-4602571D01*
X2843571Y-4545429D01*
X2843571Y-4474000D01*
X2857857Y-4416857D01*
X2872143Y-4388286D01*
X2886428Y-4374000D01*
X2915000Y-4359714D01*
X3143571Y-4631143D02*
X3157857Y-4645429D01*
X3143571Y-4659714D01*
X3129286Y-4645429D01*
X3143571Y-4631143D01*
X3143571Y-4659714D01*
X3343571Y-4359714D02*
X3372143Y-4359714D01*
X3400714Y-4374000D01*
X3415000Y-4388286D01*
X3429286Y-4416857D01*
X3443571Y-4474000D01*
X3443571Y-4545429D01*
X3429286Y-4602571D01*
X3415000Y-4631143D01*
X3400714Y-4645429D01*
X3372143Y-4659714D01*
X3343571Y-4659714D01*
X3315000Y-4645429D01*
X3300714Y-4631143D01*
X3286428Y-4602571D01*
X3272143Y-4545429D01*
X3272143Y-4474000D01*
X3286428Y-4416857D01*
X3300714Y-4388286D01*
X3315000Y-4374000D01*
X3343571Y-4359714D01*
X3700714Y-4459714D02*
X3700714Y-4659714D01*
X3629286Y-4345429D02*
X3557857Y-4559714D01*
X3743571Y-4559714D01*
X3915000Y-4359714D02*
X3943571Y-4359714D01*
X3972143Y-4374000D01*
X3986428Y-4388286D01*
X4000714Y-4416857D01*
X4015000Y-4474000D01*
X4015000Y-4545429D01*
X4000714Y-4602571D01*
X3986428Y-4631143D01*
X3972143Y-4645429D01*
X3943571Y-4659714D01*
X3915000Y-4659714D01*
X3886428Y-4645429D01*
X3872143Y-4631143D01*
X3857857Y-4602571D01*
X3843571Y-4545429D01*
X3843571Y-4474000D01*
X3857857Y-4416857D01*
X3872143Y-4388286D01*
X3886428Y-4374000D01*
X3915000Y-4359714D01*
X4129286Y-4359714D02*
X4129286Y-4416857D01*
X4243571Y-4359714D02*
X4243571Y-4416857D01*
X4686429Y-4774000D02*
X4672143Y-4759714D01*
X4643571Y-4716857D01*
X4629286Y-4688286D01*
X4615000Y-4645429D01*
X4600714Y-4574000D01*
X4600714Y-4516857D01*
X4615000Y-4445429D01*
X4629286Y-4402571D01*
X4643571Y-4374000D01*
X4672143Y-4331143D01*
X4686429Y-4316857D01*
X4815000Y-4659714D02*
X4872143Y-4659714D01*
X4900714Y-4645429D01*
X4915000Y-4631143D01*
X4943571Y-4588286D01*
X4957857Y-4531143D01*
X4957857Y-4416857D01*
X4943571Y-4388286D01*
X4929286Y-4374000D01*
X4900714Y-4359714D01*
X4843571Y-4359714D01*
X4815000Y-4374000D01*
X4800714Y-4388286D01*
X4786429Y-4416857D01*
X4786429Y-4488286D01*
X4800714Y-4516857D01*
X4815000Y-4531143D01*
X4843571Y-4545429D01*
X4900714Y-4545429D01*
X4929286Y-4531143D01*
X4943571Y-4516857D01*
X4957857Y-4488286D01*
X5215000Y-4459714D02*
X5215000Y-4659714D01*
X5143571Y-4345429D02*
X5072143Y-4559714D01*
X5257857Y-4559714D01*
X5600714Y-4659714D02*
X5600714Y-4359714D01*
X5729286Y-4659714D02*
X5729286Y-4502571D01*
X5715000Y-4474000D01*
X5686428Y-4459714D01*
X5643571Y-4459714D01*
X5615000Y-4474000D01*
X5600714Y-4488286D01*
X5915000Y-4659714D02*
X5886428Y-4645429D01*
X5872143Y-4631143D01*
X5857857Y-4602571D01*
X5857857Y-4516857D01*
X5872143Y-4488286D01*
X5886428Y-4474000D01*
X5915000Y-4459714D01*
X5957857Y-4459714D01*
X5986428Y-4474000D01*
X6000714Y-4488286D01*
X6015000Y-4516857D01*
X6015000Y-4602571D01*
X6000714Y-4631143D01*
X5986428Y-4645429D01*
X5957857Y-4659714D01*
X5915000Y-4659714D01*
X6186428Y-4659714D02*
X6157857Y-4645429D01*
X6143571Y-4616857D01*
X6143571Y-4359714D01*
X6415000Y-4645429D02*
X6386428Y-4659714D01*
X6329286Y-4659714D01*
X6300714Y-4645429D01*
X6286428Y-4616857D01*
X6286428Y-4502571D01*
X6300714Y-4474000D01*
X6329286Y-4459714D01*
X6386428Y-4459714D01*
X6415000Y-4474000D01*
X6429286Y-4502571D01*
X6429286Y-4531143D01*
X6286428Y-4559714D01*
X6543571Y-4645429D02*
X6572143Y-4659714D01*
X6629286Y-4659714D01*
X6657857Y-4645429D01*
X6672143Y-4616857D01*
X6672143Y-4602571D01*
X6657857Y-4574000D01*
X6629286Y-4559714D01*
X6586428Y-4559714D01*
X6557857Y-4545429D01*
X6543571Y-4516857D01*
X6543571Y-4502571D01*
X6557857Y-4474000D01*
X6586428Y-4459714D01*
X6629286Y-4459714D01*
X6657857Y-4474000D01*
X6772143Y-4774000D02*
X6786428Y-4759714D01*
X6815000Y-4716857D01*
X6829286Y-4688286D01*
X6843571Y-4645429D01*
X6857857Y-4574000D01*
X6857857Y-4516857D01*
X6843571Y-4445429D01*
X6829286Y-4402571D01*
X6815000Y-4374000D01*
X6786428Y-4331143D01*
X6772143Y-4316857D01*
X-19038Y-4965962D02*
X-19038Y-4874038D01*
X-110962Y-4874038D01*
X-110962Y-4965962D01*
X-19038Y-4965962D01*
X0Y-4920000D02*
G75*
G03*
X0Y-4920000I-65000J0D01*
G01*
X443571Y-5055714D02*
X272143Y-5055714D01*
X357857Y-5055714D02*
X357857Y-4755714D01*
X329286Y-4798571D01*
X300714Y-4827143D01*
X272143Y-4841429D01*
X572143Y-5027143D02*
X586429Y-5041429D01*
X572143Y-5055714D01*
X557857Y-5041429D01*
X572143Y-5027143D01*
X572143Y-5055714D01*
X686429Y-4755714D02*
X872143Y-4755714D01*
X772143Y-4870000D01*
X815000Y-4870000D01*
X843571Y-4884286D01*
X857857Y-4898571D01*
X872143Y-4927143D01*
X872143Y-4998571D01*
X857857Y-5027143D01*
X843571Y-5041429D01*
X815000Y-5055714D01*
X729286Y-5055714D01*
X700714Y-5041429D01*
X686429Y-5027143D01*
X1057857Y-4755714D02*
X1086429Y-4755714D01*
X1115000Y-4770000D01*
X1129286Y-4784286D01*
X1143571Y-4812857D01*
X1157857Y-4870000D01*
X1157857Y-4941429D01*
X1143571Y-4998571D01*
X1129286Y-5027143D01*
X1115000Y-5041429D01*
X1086429Y-5055714D01*
X1057857Y-5055714D01*
X1029286Y-5041429D01*
X1015000Y-5027143D01*
X1000714Y-4998571D01*
X986428Y-4941429D01*
X986428Y-4870000D01*
X1000714Y-4812857D01*
X1015000Y-4784286D01*
X1029286Y-4770000D01*
X1057857Y-4755714D01*
X1286429Y-5055714D02*
X1286429Y-4855714D01*
X1286429Y-4884286D02*
X1300714Y-4870000D01*
X1329286Y-4855714D01*
X1372143Y-4855714D01*
X1400714Y-4870000D01*
X1415000Y-4898571D01*
X1415000Y-5055714D01*
X1415000Y-4898571D02*
X1429286Y-4870000D01*
X1457857Y-4855714D01*
X1500714Y-4855714D01*
X1529286Y-4870000D01*
X1543571Y-4898571D01*
X1543571Y-5055714D01*
X1686428Y-5055714D02*
X1686428Y-4855714D01*
X1686428Y-4884286D02*
X1700714Y-4870000D01*
X1729286Y-4855714D01*
X1772143Y-4855714D01*
X1800714Y-4870000D01*
X1815000Y-4898571D01*
X1815000Y-5055714D01*
X1815000Y-4898571D02*
X1829286Y-4870000D01*
X1857857Y-4855714D01*
X1900714Y-4855714D01*
X1929286Y-4870000D01*
X1943571Y-4898571D01*
X1943571Y-5055714D01*
X2529286Y-4741429D02*
X2272143Y-5127143D01*
X2915000Y-4755714D02*
X2943571Y-4755714D01*
X2972143Y-4770000D01*
X2986428Y-4784286D01*
X3000714Y-4812857D01*
X3015000Y-4870000D01*
X3015000Y-4941429D01*
X3000714Y-4998571D01*
X2986428Y-5027143D01*
X2972143Y-5041429D01*
X2943571Y-5055714D01*
X2915000Y-5055714D01*
X2886428Y-5041429D01*
X2872143Y-5027143D01*
X2857857Y-4998571D01*
X2843571Y-4941429D01*
X2843571Y-4870000D01*
X2857857Y-4812857D01*
X2872143Y-4784286D01*
X2886428Y-4770000D01*
X2915000Y-4755714D01*
X3143571Y-5027143D02*
X3157857Y-5041429D01*
X3143571Y-5055714D01*
X3129286Y-5041429D01*
X3143571Y-5027143D01*
X3143571Y-5055714D01*
X3343571Y-4755714D02*
X3372143Y-4755714D01*
X3400714Y-4770000D01*
X3415000Y-4784286D01*
X3429286Y-4812857D01*
X3443571Y-4870000D01*
X3443571Y-4941429D01*
X3429286Y-4998571D01*
X3415000Y-5027143D01*
X3400714Y-5041429D01*
X3372143Y-5055714D01*
X3343571Y-5055714D01*
X3315000Y-5041429D01*
X3300714Y-5027143D01*
X3286428Y-4998571D01*
X3272143Y-4941429D01*
X3272143Y-4870000D01*
X3286428Y-4812857D01*
X3300714Y-4784286D01*
X3315000Y-4770000D01*
X3343571Y-4755714D01*
X3715000Y-4755714D02*
X3572143Y-4755714D01*
X3557857Y-4898571D01*
X3572143Y-4884286D01*
X3600714Y-4870000D01*
X3672143Y-4870000D01*
X3700714Y-4884286D01*
X3715000Y-4898571D01*
X3729286Y-4927143D01*
X3729286Y-4998571D01*
X3715000Y-5027143D01*
X3700714Y-5041429D01*
X3672143Y-5055714D01*
X3600714Y-5055714D01*
X3572143Y-5041429D01*
X3557857Y-5027143D01*
X4015000Y-5055714D02*
X3843571Y-5055714D01*
X3929286Y-5055714D02*
X3929286Y-4755714D01*
X3900714Y-4798571D01*
X3872143Y-4827143D01*
X3843571Y-4841429D01*
X4129286Y-4755714D02*
X4129286Y-4812857D01*
X4243571Y-4755714D02*
X4243571Y-4812857D01*
X4686429Y-5170000D02*
X4672143Y-5155714D01*
X4643571Y-5112857D01*
X4629286Y-5084286D01*
X4615000Y-5041429D01*
X4600714Y-4970000D01*
X4600714Y-4912857D01*
X4615000Y-4841429D01*
X4629286Y-4798571D01*
X4643571Y-4770000D01*
X4672143Y-4727143D01*
X4686429Y-4712857D01*
X4929286Y-4855714D02*
X4929286Y-5055714D01*
X4857857Y-4741429D02*
X4786429Y-4955714D01*
X4972143Y-4955714D01*
X5315000Y-5055714D02*
X5315000Y-4755714D01*
X5443571Y-5055714D02*
X5443571Y-4898571D01*
X5429286Y-4870000D01*
X5400714Y-4855714D01*
X5357857Y-4855714D01*
X5329286Y-4870000D01*
X5315000Y-4884286D01*
X5629286Y-5055714D02*
X5600714Y-5041429D01*
X5586429Y-5027143D01*
X5572143Y-4998571D01*
X5572143Y-4912857D01*
X5586429Y-4884286D01*
X5600714Y-4870000D01*
X5629286Y-4855714D01*
X5672143Y-4855714D01*
X5700714Y-4870000D01*
X5715000Y-4884286D01*
X5729286Y-4912857D01*
X5729286Y-4998571D01*
X5715000Y-5027143D01*
X5700714Y-5041429D01*
X5672143Y-5055714D01*
X5629286Y-5055714D01*
X5900714Y-5055714D02*
X5872143Y-5041429D01*
X5857857Y-5012857D01*
X5857857Y-4755714D01*
X6129286Y-5041429D02*
X6100714Y-5055714D01*
X6043571Y-5055714D01*
X6015000Y-5041429D01*
X6000714Y-5012857D01*
X6000714Y-4898571D01*
X6015000Y-4870000D01*
X6043571Y-4855714D01*
X6100714Y-4855714D01*
X6129286Y-4870000D01*
X6143571Y-4898571D01*
X6143571Y-4927143D01*
X6000714Y-4955714D01*
X6257857Y-5041429D02*
X6286428Y-5055714D01*
X6343571Y-5055714D01*
X6372143Y-5041429D01*
X6386428Y-5012857D01*
X6386428Y-4998571D01*
X6372143Y-4970000D01*
X6343571Y-4955714D01*
X6300714Y-4955714D01*
X6272143Y-4941429D01*
X6257857Y-4912857D01*
X6257857Y-4898571D01*
X6272143Y-4870000D01*
X6300714Y-4855714D01*
X6343571Y-4855714D01*
X6372143Y-4870000D01*
X6486428Y-5170000D02*
X6500714Y-5155714D01*
X6529286Y-5112857D01*
X6543571Y-5084286D01*
X6557857Y-5041429D01*
X6572143Y-4970000D01*
X6572143Y-4912857D01*
X6557857Y-4841429D01*
X6543571Y-4798571D01*
X6529286Y-4770000D01*
X6500714Y-4727143D01*
X6486428Y-4712857D01*
X-80000Y-5396000D02*
X0Y-5316000D01*
X-80000Y-5236000D01*
X-160000Y-5316000D01*
X-80000Y-5396000D01*
X0Y-5316000D02*
G75*
G03*
X0Y-5316000I-80000J0D01*
G01*
X443571Y-5451714D02*
X272143Y-5451714D01*
X357857Y-5451714D02*
X357857Y-5151714D01*
X329286Y-5194571D01*
X300714Y-5223143D01*
X272143Y-5237429D01*
X572143Y-5423143D02*
X586429Y-5437429D01*
X572143Y-5451714D01*
X557857Y-5437429D01*
X572143Y-5423143D01*
X572143Y-5451714D01*
X843571Y-5151714D02*
X786428Y-5151714D01*
X757857Y-5166000D01*
X743571Y-5180286D01*
X715000Y-5223143D01*
X700714Y-5280286D01*
X700714Y-5394571D01*
X715000Y-5423143D01*
X729286Y-5437429D01*
X757857Y-5451714D01*
X815000Y-5451714D01*
X843571Y-5437429D01*
X857857Y-5423143D01*
X872143Y-5394571D01*
X872143Y-5323143D01*
X857857Y-5294571D01*
X843571Y-5280286D01*
X815000Y-5266000D01*
X757857Y-5266000D01*
X729286Y-5280286D01*
X715000Y-5294571D01*
X700714Y-5323143D01*
X1057857Y-5151714D02*
X1086429Y-5151714D01*
X1115000Y-5166000D01*
X1129286Y-5180286D01*
X1143571Y-5208857D01*
X1157857Y-5266000D01*
X1157857Y-5337429D01*
X1143571Y-5394571D01*
X1129286Y-5423143D01*
X1115000Y-5437429D01*
X1086429Y-5451714D01*
X1057857Y-5451714D01*
X1029286Y-5437429D01*
X1015000Y-5423143D01*
X1000714Y-5394571D01*
X986428Y-5337429D01*
X986428Y-5266000D01*
X1000714Y-5208857D01*
X1015000Y-5180286D01*
X1029286Y-5166000D01*
X1057857Y-5151714D01*
X1286429Y-5451714D02*
X1286429Y-5251714D01*
X1286429Y-5280286D02*
X1300714Y-5266000D01*
X1329286Y-5251714D01*
X1372143Y-5251714D01*
X1400714Y-5266000D01*
X1415000Y-5294571D01*
X1415000Y-5451714D01*
X1415000Y-5294571D02*
X1429286Y-5266000D01*
X1457857Y-5251714D01*
X1500714Y-5251714D01*
X1529286Y-5266000D01*
X1543571Y-5294571D01*
X1543571Y-5451714D01*
X1686428Y-5451714D02*
X1686428Y-5251714D01*
X1686428Y-5280286D02*
X1700714Y-5266000D01*
X1729286Y-5251714D01*
X1772143Y-5251714D01*
X1800714Y-5266000D01*
X1815000Y-5294571D01*
X1815000Y-5451714D01*
X1815000Y-5294571D02*
X1829286Y-5266000D01*
X1857857Y-5251714D01*
X1900714Y-5251714D01*
X1929286Y-5266000D01*
X1943571Y-5294571D01*
X1943571Y-5451714D01*
X2529286Y-5137429D02*
X2272143Y-5523143D01*
X2915000Y-5151714D02*
X2943571Y-5151714D01*
X2972143Y-5166000D01*
X2986428Y-5180286D01*
X3000714Y-5208857D01*
X3015000Y-5266000D01*
X3015000Y-5337429D01*
X3000714Y-5394571D01*
X2986428Y-5423143D01*
X2972143Y-5437429D01*
X2943571Y-5451714D01*
X2915000Y-5451714D01*
X2886428Y-5437429D01*
X2872143Y-5423143D01*
X2857857Y-5394571D01*
X2843571Y-5337429D01*
X2843571Y-5266000D01*
X2857857Y-5208857D01*
X2872143Y-5180286D01*
X2886428Y-5166000D01*
X2915000Y-5151714D01*
X3143571Y-5423143D02*
X3157857Y-5437429D01*
X3143571Y-5451714D01*
X3129286Y-5437429D01*
X3143571Y-5423143D01*
X3143571Y-5451714D01*
X3343571Y-5151714D02*
X3372143Y-5151714D01*
X3400714Y-5166000D01*
X3415000Y-5180286D01*
X3429286Y-5208857D01*
X3443571Y-5266000D01*
X3443571Y-5337429D01*
X3429286Y-5394571D01*
X3415000Y-5423143D01*
X3400714Y-5437429D01*
X3372143Y-5451714D01*
X3343571Y-5451714D01*
X3315000Y-5437429D01*
X3300714Y-5423143D01*
X3286428Y-5394571D01*
X3272143Y-5337429D01*
X3272143Y-5266000D01*
X3286428Y-5208857D01*
X3300714Y-5180286D01*
X3315000Y-5166000D01*
X3343571Y-5151714D01*
X3700714Y-5151714D02*
X3643571Y-5151714D01*
X3615000Y-5166000D01*
X3600714Y-5180286D01*
X3572143Y-5223143D01*
X3557857Y-5280286D01*
X3557857Y-5394571D01*
X3572143Y-5423143D01*
X3586428Y-5437429D01*
X3615000Y-5451714D01*
X3672143Y-5451714D01*
X3700714Y-5437429D01*
X3715000Y-5423143D01*
X3729286Y-5394571D01*
X3729286Y-5323143D01*
X3715000Y-5294571D01*
X3700714Y-5280286D01*
X3672143Y-5266000D01*
X3615000Y-5266000D01*
X3586428Y-5280286D01*
X3572143Y-5294571D01*
X3557857Y-5323143D01*
X3829286Y-5151714D02*
X4015000Y-5151714D01*
X3915000Y-5266000D01*
X3957857Y-5266000D01*
X3986428Y-5280286D01*
X4000714Y-5294571D01*
X4015000Y-5323143D01*
X4015000Y-5394571D01*
X4000714Y-5423143D01*
X3986428Y-5437429D01*
X3957857Y-5451714D01*
X3872143Y-5451714D01*
X3843571Y-5437429D01*
X3829286Y-5423143D01*
X4129286Y-5151714D02*
X4129286Y-5208857D01*
X4243571Y-5151714D02*
X4243571Y-5208857D01*
X4686429Y-5566000D02*
X4672143Y-5551714D01*
X4643571Y-5508857D01*
X4629286Y-5480286D01*
X4615000Y-5437429D01*
X4600714Y-5366000D01*
X4600714Y-5308857D01*
X4615000Y-5237429D01*
X4629286Y-5194571D01*
X4643571Y-5166000D01*
X4672143Y-5123143D01*
X4686429Y-5108857D01*
X4786429Y-5180286D02*
X4800714Y-5166000D01*
X4829286Y-5151714D01*
X4900714Y-5151714D01*
X4929286Y-5166000D01*
X4943571Y-5180286D01*
X4957857Y-5208857D01*
X4957857Y-5237429D01*
X4943571Y-5280286D01*
X4772143Y-5451714D01*
X4957857Y-5451714D01*
X5315000Y-5451714D02*
X5315000Y-5151714D01*
X5443571Y-5451714D02*
X5443571Y-5294571D01*
X5429286Y-5266000D01*
X5400714Y-5251714D01*
X5357857Y-5251714D01*
X5329286Y-5266000D01*
X5315000Y-5280286D01*
X5629286Y-5451714D02*
X5600714Y-5437429D01*
X5586429Y-5423143D01*
X5572143Y-5394571D01*
X5572143Y-5308857D01*
X5586429Y-5280286D01*
X5600714Y-5266000D01*
X5629286Y-5251714D01*
X5672143Y-5251714D01*
X5700714Y-5266000D01*
X5715000Y-5280286D01*
X5729286Y-5308857D01*
X5729286Y-5394571D01*
X5715000Y-5423143D01*
X5700714Y-5437429D01*
X5672143Y-5451714D01*
X5629286Y-5451714D01*
X5900714Y-5451714D02*
X5872143Y-5437429D01*
X5857857Y-5408857D01*
X5857857Y-5151714D01*
X6129286Y-5437429D02*
X6100714Y-5451714D01*
X6043571Y-5451714D01*
X6015000Y-5437429D01*
X6000714Y-5408857D01*
X6000714Y-5294571D01*
X6015000Y-5266000D01*
X6043571Y-5251714D01*
X6100714Y-5251714D01*
X6129286Y-5266000D01*
X6143571Y-5294571D01*
X6143571Y-5323143D01*
X6000714Y-5351714D01*
X6257857Y-5437429D02*
X6286428Y-5451714D01*
X6343571Y-5451714D01*
X6372143Y-5437429D01*
X6386428Y-5408857D01*
X6386428Y-5394571D01*
X6372143Y-5366000D01*
X6343571Y-5351714D01*
X6300714Y-5351714D01*
X6272143Y-5337429D01*
X6257857Y-5308857D01*
X6257857Y-5294571D01*
X6272143Y-5266000D01*
X6300714Y-5251714D01*
X6343571Y-5251714D01*
X6372143Y-5266000D01*
X6486428Y-5566000D02*
X6500714Y-5551714D01*
X6529286Y-5508857D01*
X6543571Y-5480286D01*
X6557857Y-5437429D01*
X6572143Y-5366000D01*
X6572143Y-5308857D01*
X6557857Y-5237429D01*
X6543571Y-5194571D01*
X6529286Y-5166000D01*
X6500714Y-5123143D01*
X6486428Y-5108857D01*
X-160000Y-5552000D02*
X-160000Y-5872000D01*
X-320000Y-5712000D02*
X0Y-5712000D01*
X-46862Y-5825138D02*
X-46862Y-5598862D01*
X-273138Y-5598862D01*
X-273138Y-5825138D01*
X-46862Y-5825138D01*
X257857Y-5547714D02*
X443571Y-5547714D01*
X343571Y-5662000D01*
X386428Y-5662000D01*
X415000Y-5676286D01*
X429286Y-5690571D01*
X443571Y-5719143D01*
X443571Y-5790571D01*
X429286Y-5819143D01*
X415000Y-5833428D01*
X386428Y-5847714D01*
X300714Y-5847714D01*
X272143Y-5833428D01*
X257857Y-5819143D01*
X572143Y-5819143D02*
X586429Y-5833428D01*
X572143Y-5847714D01*
X557857Y-5833428D01*
X572143Y-5819143D01*
X572143Y-5847714D01*
X700714Y-5576286D02*
X715000Y-5562000D01*
X743571Y-5547714D01*
X815000Y-5547714D01*
X843571Y-5562000D01*
X857857Y-5576286D01*
X872143Y-5604857D01*
X872143Y-5633428D01*
X857857Y-5676286D01*
X686429Y-5847714D01*
X872143Y-5847714D01*
X1057857Y-5547714D02*
X1086429Y-5547714D01*
X1115000Y-5562000D01*
X1129286Y-5576286D01*
X1143571Y-5604857D01*
X1157857Y-5662000D01*
X1157857Y-5733428D01*
X1143571Y-5790571D01*
X1129286Y-5819143D01*
X1115000Y-5833428D01*
X1086429Y-5847714D01*
X1057857Y-5847714D01*
X1029286Y-5833428D01*
X1015000Y-5819143D01*
X1000714Y-5790571D01*
X986428Y-5733428D01*
X986428Y-5662000D01*
X1000714Y-5604857D01*
X1015000Y-5576286D01*
X1029286Y-5562000D01*
X1057857Y-5547714D01*
X1286429Y-5847714D02*
X1286429Y-5647714D01*
X1286429Y-5676286D02*
X1300714Y-5662000D01*
X1329286Y-5647714D01*
X1372143Y-5647714D01*
X1400714Y-5662000D01*
X1415000Y-5690571D01*
X1415000Y-5847714D01*
X1415000Y-5690571D02*
X1429286Y-5662000D01*
X1457857Y-5647714D01*
X1500714Y-5647714D01*
X1529286Y-5662000D01*
X1543571Y-5690571D01*
X1543571Y-5847714D01*
X1686428Y-5847714D02*
X1686428Y-5647714D01*
X1686428Y-5676286D02*
X1700714Y-5662000D01*
X1729286Y-5647714D01*
X1772143Y-5647714D01*
X1800714Y-5662000D01*
X1815000Y-5690571D01*
X1815000Y-5847714D01*
X1815000Y-5690571D02*
X1829286Y-5662000D01*
X1857857Y-5647714D01*
X1900714Y-5647714D01*
X1929286Y-5662000D01*
X1943571Y-5690571D01*
X1943571Y-5847714D01*
X2529286Y-5533429D02*
X2272143Y-5919143D01*
X2915000Y-5547714D02*
X2943571Y-5547714D01*
X2972143Y-5562000D01*
X2986428Y-5576286D01*
X3000714Y-5604857D01*
X3015000Y-5662000D01*
X3015000Y-5733428D01*
X3000714Y-5790571D01*
X2986428Y-5819143D01*
X2972143Y-5833428D01*
X2943571Y-5847714D01*
X2915000Y-5847714D01*
X2886428Y-5833428D01*
X2872143Y-5819143D01*
X2857857Y-5790571D01*
X2843571Y-5733428D01*
X2843571Y-5662000D01*
X2857857Y-5604857D01*
X2872143Y-5576286D01*
X2886428Y-5562000D01*
X2915000Y-5547714D01*
X3143571Y-5819143D02*
X3157857Y-5833428D01*
X3143571Y-5847714D01*
X3129286Y-5833428D01*
X3143571Y-5819143D01*
X3143571Y-5847714D01*
X3443571Y-5847714D02*
X3272143Y-5847714D01*
X3357857Y-5847714D02*
X3357857Y-5547714D01*
X3329286Y-5590571D01*
X3300714Y-5619143D01*
X3272143Y-5633428D01*
X3557857Y-5576286D02*
X3572143Y-5562000D01*
X3600714Y-5547714D01*
X3672143Y-5547714D01*
X3700714Y-5562000D01*
X3715000Y-5576286D01*
X3729286Y-5604857D01*
X3729286Y-5633428D01*
X3715000Y-5676286D01*
X3543571Y-5847714D01*
X3729286Y-5847714D01*
X3986428Y-5547714D02*
X3929286Y-5547714D01*
X3900714Y-5562000D01*
X3886428Y-5576286D01*
X3857857Y-5619143D01*
X3843571Y-5676286D01*
X3843571Y-5790571D01*
X3857857Y-5819143D01*
X3872143Y-5833428D01*
X3900714Y-5847714D01*
X3957857Y-5847714D01*
X3986428Y-5833428D01*
X4000714Y-5819143D01*
X4015000Y-5790571D01*
X4015000Y-5719143D01*
X4000714Y-5690571D01*
X3986428Y-5676286D01*
X3957857Y-5662000D01*
X3900714Y-5662000D01*
X3872143Y-5676286D01*
X3857857Y-5690571D01*
X3843571Y-5719143D01*
X4129286Y-5547714D02*
X4129286Y-5604857D01*
X4243571Y-5547714D02*
X4243571Y-5604857D01*
X4686429Y-5962000D02*
X4672143Y-5947714D01*
X4643571Y-5904857D01*
X4629286Y-5876286D01*
X4615000Y-5833428D01*
X4600714Y-5762000D01*
X4600714Y-5704857D01*
X4615000Y-5633428D01*
X4629286Y-5590571D01*
X4643571Y-5562000D01*
X4672143Y-5519143D01*
X4686429Y-5504857D01*
X4929286Y-5647714D02*
X4929286Y-5847714D01*
X4857857Y-5533429D02*
X4786429Y-5747714D01*
X4972143Y-5747714D01*
X5315000Y-5847714D02*
X5315000Y-5547714D01*
X5443571Y-5847714D02*
X5443571Y-5690571D01*
X5429286Y-5662000D01*
X5400714Y-5647714D01*
X5357857Y-5647714D01*
X5329286Y-5662000D01*
X5315000Y-5676286D01*
X5629286Y-5847714D02*
X5600714Y-5833428D01*
X5586429Y-5819143D01*
X5572143Y-5790571D01*
X5572143Y-5704857D01*
X5586429Y-5676286D01*
X5600714Y-5662000D01*
X5629286Y-5647714D01*
X5672143Y-5647714D01*
X5700714Y-5662000D01*
X5715000Y-5676286D01*
X5729286Y-5704857D01*
X5729286Y-5790571D01*
X5715000Y-5819143D01*
X5700714Y-5833428D01*
X5672143Y-5847714D01*
X5629286Y-5847714D01*
X5900714Y-5847714D02*
X5872143Y-5833428D01*
X5857857Y-5804857D01*
X5857857Y-5547714D01*
X6129286Y-5833428D02*
X6100714Y-5847714D01*
X6043571Y-5847714D01*
X6015000Y-5833428D01*
X6000714Y-5804857D01*
X6000714Y-5690571D01*
X6015000Y-5662000D01*
X6043571Y-5647714D01*
X6100714Y-5647714D01*
X6129286Y-5662000D01*
X6143571Y-5690571D01*
X6143571Y-5719143D01*
X6000714Y-5747714D01*
X6257857Y-5833428D02*
X6286428Y-5847714D01*
X6343571Y-5847714D01*
X6372143Y-5833428D01*
X6386428Y-5804857D01*
X6386428Y-5790571D01*
X6372143Y-5762000D01*
X6343571Y-5747714D01*
X6300714Y-5747714D01*
X6272143Y-5733428D01*
X6257857Y-5704857D01*
X6257857Y-5690571D01*
X6272143Y-5662000D01*
X6300714Y-5647714D01*
X6343571Y-5647714D01*
X6372143Y-5662000D01*
X6486428Y-5962000D02*
X6500714Y-5947714D01*
X6529286Y-5904857D01*
X6543571Y-5876286D01*
X6557857Y-5833428D01*
X6572143Y-5762000D01*
X6572143Y-5704857D01*
X6557857Y-5633428D01*
X6543571Y-5590571D01*
X6529286Y-5562000D01*
X6500714Y-5519143D01*
X6486428Y-5504857D01*
X-85000Y-6077000D02*
X-85000Y-6247000D01*
X-170000Y-6162000D02*
X0Y-6162000D01*
X-85000Y-6247000D02*
X0Y-6162000D01*
X-85000Y-6077000D01*
X-170000Y-6162000D01*
X-85000Y-6247000D01*
X443571Y-6297714D02*
X272143Y-6297714D01*
X357857Y-6297714D02*
X357857Y-5997714D01*
X329286Y-6040571D01*
X300714Y-6069143D01*
X272143Y-6083428D01*
X572143Y-6269143D02*
X586429Y-6283428D01*
X572143Y-6297714D01*
X557857Y-6283428D01*
X572143Y-6269143D01*
X572143Y-6297714D01*
X686429Y-5997714D02*
X886428Y-5997714D01*
X757857Y-6297714D01*
X1057857Y-5997714D02*
X1086429Y-5997714D01*
X1115000Y-6012000D01*
X1129286Y-6026286D01*
X1143571Y-6054857D01*
X1157857Y-6112000D01*
X1157857Y-6183428D01*
X1143571Y-6240571D01*
X1129286Y-6269143D01*
X1115000Y-6283428D01*
X1086429Y-6297714D01*
X1057857Y-6297714D01*
X1029286Y-6283428D01*
X1015000Y-6269143D01*
X1000714Y-6240571D01*
X986428Y-6183428D01*
X986428Y-6112000D01*
X1000714Y-6054857D01*
X1015000Y-6026286D01*
X1029286Y-6012000D01*
X1057857Y-5997714D01*
X1286429Y-6297714D02*
X1286429Y-6097714D01*
X1286429Y-6126286D02*
X1300714Y-6112000D01*
X1329286Y-6097714D01*
X1372143Y-6097714D01*
X1400714Y-6112000D01*
X1415000Y-6140571D01*
X1415000Y-6297714D01*
X1415000Y-6140571D02*
X1429286Y-6112000D01*
X1457857Y-6097714D01*
X1500714Y-6097714D01*
X1529286Y-6112000D01*
X1543571Y-6140571D01*
X1543571Y-6297714D01*
X1686428Y-6297714D02*
X1686428Y-6097714D01*
X1686428Y-6126286D02*
X1700714Y-6112000D01*
X1729286Y-6097714D01*
X1772143Y-6097714D01*
X1800714Y-6112000D01*
X1815000Y-6140571D01*
X1815000Y-6297714D01*
X1815000Y-6140571D02*
X1829286Y-6112000D01*
X1857857Y-6097714D01*
X1900714Y-6097714D01*
X1929286Y-6112000D01*
X1943571Y-6140571D01*
X1943571Y-6297714D01*
X2529286Y-5983428D02*
X2272143Y-6369143D01*
X2915000Y-5997714D02*
X2943571Y-5997714D01*
X2972143Y-6012000D01*
X2986428Y-6026286D01*
X3000714Y-6054857D01*
X3015000Y-6112000D01*
X3015000Y-6183428D01*
X3000714Y-6240571D01*
X2986428Y-6269143D01*
X2972143Y-6283428D01*
X2943571Y-6297714D01*
X2915000Y-6297714D01*
X2886428Y-6283428D01*
X2872143Y-6269143D01*
X2857857Y-6240571D01*
X2843571Y-6183428D01*
X2843571Y-6112000D01*
X2857857Y-6054857D01*
X2872143Y-6026286D01*
X2886428Y-6012000D01*
X2915000Y-5997714D01*
X3143571Y-6269143D02*
X3157857Y-6283428D01*
X3143571Y-6297714D01*
X3129286Y-6283428D01*
X3143571Y-6269143D01*
X3143571Y-6297714D01*
X3343571Y-5997714D02*
X3372143Y-5997714D01*
X3400714Y-6012000D01*
X3415000Y-6026286D01*
X3429286Y-6054857D01*
X3443571Y-6112000D01*
X3443571Y-6183428D01*
X3429286Y-6240571D01*
X3415000Y-6269143D01*
X3400714Y-6283428D01*
X3372143Y-6297714D01*
X3343571Y-6297714D01*
X3315000Y-6283428D01*
X3300714Y-6269143D01*
X3286428Y-6240571D01*
X3272143Y-6183428D01*
X3272143Y-6112000D01*
X3286428Y-6054857D01*
X3300714Y-6026286D01*
X3315000Y-6012000D01*
X3343571Y-5997714D01*
X3700714Y-5997714D02*
X3643571Y-5997714D01*
X3615000Y-6012000D01*
X3600714Y-6026286D01*
X3572143Y-6069143D01*
X3557857Y-6126286D01*
X3557857Y-6240571D01*
X3572143Y-6269143D01*
X3586428Y-6283428D01*
X3615000Y-6297714D01*
X3672143Y-6297714D01*
X3700714Y-6283428D01*
X3715000Y-6269143D01*
X3729286Y-6240571D01*
X3729286Y-6169143D01*
X3715000Y-6140571D01*
X3700714Y-6126286D01*
X3672143Y-6112000D01*
X3615000Y-6112000D01*
X3586428Y-6126286D01*
X3572143Y-6140571D01*
X3557857Y-6169143D01*
X3829286Y-5997714D02*
X4029286Y-5997714D01*
X3900714Y-6297714D01*
X4129286Y-5997714D02*
X4129286Y-6054857D01*
X4243571Y-5997714D02*
X4243571Y-6054857D01*
X4686429Y-6412000D02*
X4672143Y-6397714D01*
X4643571Y-6354857D01*
X4629286Y-6326286D01*
X4615000Y-6283428D01*
X4600714Y-6212000D01*
X4600714Y-6154857D01*
X4615000Y-6083428D01*
X4629286Y-6040571D01*
X4643571Y-6012000D01*
X4672143Y-5969143D01*
X4686429Y-5954857D01*
X4786429Y-6026286D02*
X4800714Y-6012000D01*
X4829286Y-5997714D01*
X4900714Y-5997714D01*
X4929286Y-6012000D01*
X4943571Y-6026286D01*
X4957857Y-6054857D01*
X4957857Y-6083428D01*
X4943571Y-6126286D01*
X4772143Y-6297714D01*
X4957857Y-6297714D01*
X5315000Y-6297714D02*
X5315000Y-5997714D01*
X5443571Y-6297714D02*
X5443571Y-6140571D01*
X5429286Y-6112000D01*
X5400714Y-6097714D01*
X5357857Y-6097714D01*
X5329286Y-6112000D01*
X5315000Y-6126286D01*
X5629286Y-6297714D02*
X5600714Y-6283428D01*
X5586429Y-6269143D01*
X5572143Y-6240571D01*
X5572143Y-6154857D01*
X5586429Y-6126286D01*
X5600714Y-6112000D01*
X5629286Y-6097714D01*
X5672143Y-6097714D01*
X5700714Y-6112000D01*
X5715000Y-6126286D01*
X5729286Y-6154857D01*
X5729286Y-6240571D01*
X5715000Y-6269143D01*
X5700714Y-6283428D01*
X5672143Y-6297714D01*
X5629286Y-6297714D01*
X5900714Y-6297714D02*
X5872143Y-6283428D01*
X5857857Y-6254857D01*
X5857857Y-5997714D01*
X6129286Y-6283428D02*
X6100714Y-6297714D01*
X6043571Y-6297714D01*
X6015000Y-6283428D01*
X6000714Y-6254857D01*
X6000714Y-6140571D01*
X6015000Y-6112000D01*
X6043571Y-6097714D01*
X6100714Y-6097714D01*
X6129286Y-6112000D01*
X6143571Y-6140571D01*
X6143571Y-6169143D01*
X6000714Y-6197714D01*
X6257857Y-6283428D02*
X6286428Y-6297714D01*
X6343571Y-6297714D01*
X6372143Y-6283428D01*
X6386428Y-6254857D01*
X6386428Y-6240571D01*
X6372143Y-6212000D01*
X6343571Y-6197714D01*
X6300714Y-6197714D01*
X6272143Y-6183428D01*
X6257857Y-6154857D01*
X6257857Y-6140571D01*
X6272143Y-6112000D01*
X6300714Y-6097714D01*
X6343571Y-6097714D01*
X6372143Y-6112000D01*
X6486428Y-6412000D02*
X6500714Y-6397714D01*
X6529286Y-6354857D01*
X6543571Y-6326286D01*
X6557857Y-6283428D01*
X6572143Y-6212000D01*
X6572143Y-6154857D01*
X6557857Y-6083428D01*
X6543571Y-6040571D01*
X6529286Y-6012000D01*
X6500714Y-5969143D01*
X6486428Y-5954857D01*
X7029286Y-6412000D02*
X7015000Y-6397714D01*
X6986428Y-6354857D01*
X6972143Y-6326286D01*
X6957857Y-6283428D01*
X6943571Y-6212000D01*
X6943571Y-6154857D01*
X6957857Y-6083428D01*
X6972143Y-6040571D01*
X6986428Y-6012000D01*
X7015000Y-5969143D01*
X7029286Y-5954857D01*
X7143571Y-6097714D02*
X7143571Y-6297714D01*
X7143571Y-6126286D02*
X7157857Y-6112000D01*
X7186428Y-6097714D01*
X7229286Y-6097714D01*
X7257857Y-6112000D01*
X7272143Y-6140571D01*
X7272143Y-6297714D01*
X7457857Y-6297714D02*
X7429286Y-6283428D01*
X7415000Y-6269143D01*
X7400714Y-6240571D01*
X7400714Y-6154857D01*
X7415000Y-6126286D01*
X7429286Y-6112000D01*
X7457857Y-6097714D01*
X7500714Y-6097714D01*
X7529286Y-6112000D01*
X7543571Y-6126286D01*
X7557857Y-6154857D01*
X7557857Y-6240571D01*
X7543571Y-6269143D01*
X7529286Y-6283428D01*
X7500714Y-6297714D01*
X7457857Y-6297714D01*
X7643571Y-6097714D02*
X7757857Y-6097714D01*
X7686428Y-5997714D02*
X7686428Y-6254857D01*
X7700714Y-6283428D01*
X7729286Y-6297714D01*
X7757857Y-6297714D01*
X8086428Y-6097714D02*
X8086428Y-6397714D01*
X8086428Y-6112000D02*
X8115000Y-6097714D01*
X8172143Y-6097714D01*
X8200714Y-6112000D01*
X8215000Y-6126286D01*
X8229286Y-6154857D01*
X8229286Y-6240571D01*
X8215000Y-6269143D01*
X8200714Y-6283428D01*
X8172143Y-6297714D01*
X8115000Y-6297714D01*
X8086428Y-6283428D01*
X8400714Y-6297714D02*
X8372143Y-6283428D01*
X8357857Y-6254857D01*
X8357857Y-5997714D01*
X8643571Y-6297714D02*
X8643571Y-6140571D01*
X8629286Y-6112000D01*
X8600714Y-6097714D01*
X8543571Y-6097714D01*
X8515000Y-6112000D01*
X8643571Y-6283428D02*
X8615000Y-6297714D01*
X8543571Y-6297714D01*
X8515000Y-6283428D01*
X8500714Y-6254857D01*
X8500714Y-6226286D01*
X8515000Y-6197714D01*
X8543571Y-6183428D01*
X8615000Y-6183428D01*
X8643571Y-6169143D01*
X8743571Y-6097714D02*
X8857857Y-6097714D01*
X8786429Y-5997714D02*
X8786429Y-6254857D01*
X8800714Y-6283428D01*
X8829286Y-6297714D01*
X8857857Y-6297714D01*
X9072143Y-6283428D02*
X9043571Y-6297714D01*
X8986429Y-6297714D01*
X8957857Y-6283428D01*
X8943571Y-6254857D01*
X8943571Y-6140571D01*
X8957857Y-6112000D01*
X8986429Y-6097714D01*
X9043571Y-6097714D01*
X9072143Y-6112000D01*
X9086429Y-6140571D01*
X9086429Y-6169143D01*
X8943571Y-6197714D01*
X9343571Y-6297714D02*
X9343571Y-5997714D01*
X9343571Y-6283428D02*
X9315000Y-6297714D01*
X9257857Y-6297714D01*
X9229286Y-6283428D01*
X9215000Y-6269143D01*
X9200714Y-6240571D01*
X9200714Y-6154857D01*
X9215000Y-6126286D01*
X9229286Y-6112000D01*
X9257857Y-6097714D01*
X9315000Y-6097714D01*
X9343571Y-6112000D01*
X9457857Y-6412000D02*
X9472143Y-6397714D01*
X9500714Y-6354857D01*
X9515000Y-6326286D01*
X9529286Y-6283428D01*
X9543571Y-6212000D01*
X9543571Y-6154857D01*
X9529286Y-6083428D01*
X9515000Y-6040571D01*
X9500714Y-6012000D01*
X9472143Y-5969143D01*
X9457857Y-5954857D01*
M02*
