G04 #@! TF.FileFunction,Copper,L3,Inr,Signal*
%FSLAX46Y46*%
G04 Gerber Fmt 4.6, Leading zero omitted, Abs format (unit mm)*
G04 Created by KiCad (PCBNEW 4.0.7+dfsg1-1) date Sun Nov 19 11:12:19 2017*
%MOMM*%
%LPD*%
G01*
G04 APERTURE LIST*
%ADD10C,0.100000*%
%ADD11R,1.727200X1.727200*%
%ADD12O,1.727200X1.727200*%
%ADD13C,5.500000*%
%ADD14R,1.727200X2.032000*%
%ADD15O,1.727200X2.032000*%
%ADD16O,1.300000X2.700000*%
%ADD17O,1.300000X2.300000*%
%ADD18C,0.600000*%
%ADD19C,1.000000*%
%ADD20C,0.400000*%
%ADD21C,0.454000*%
%ADD22C,0.800000*%
%ADD23C,0.700000*%
%ADD24C,0.300000*%
%ADD25C,0.190000*%
%ADD26C,0.200000*%
%ADD27C,0.127000*%
G04 APERTURE END LIST*
D10*
D11*
X97910000Y-62690000D03*
D12*
X95370000Y-62690000D03*
X97910000Y-65230000D03*
X95370000Y-65230000D03*
X97910000Y-67770000D03*
X95370000Y-67770000D03*
X97910000Y-70310000D03*
X95370000Y-70310000D03*
X97910000Y-72850000D03*
X95370000Y-72850000D03*
X97910000Y-75390000D03*
X95370000Y-75390000D03*
X97910000Y-77930000D03*
X95370000Y-77930000D03*
X97910000Y-80470000D03*
X95370000Y-80470000D03*
X97910000Y-83010000D03*
X95370000Y-83010000D03*
X97910000Y-85550000D03*
X95370000Y-85550000D03*
X97910000Y-88090000D03*
X95370000Y-88090000D03*
X97910000Y-90630000D03*
X95370000Y-90630000D03*
X97910000Y-93170000D03*
X95370000Y-93170000D03*
X97910000Y-95710000D03*
X95370000Y-95710000D03*
X97910000Y-98250000D03*
X95370000Y-98250000D03*
X97910000Y-100790000D03*
X95370000Y-100790000D03*
X97910000Y-103330000D03*
X95370000Y-103330000D03*
X97910000Y-105870000D03*
X95370000Y-105870000D03*
X97910000Y-108410000D03*
X95370000Y-108410000D03*
X97910000Y-110950000D03*
X95370000Y-110950000D03*
D11*
X184270000Y-110950000D03*
D12*
X186810000Y-110950000D03*
X184270000Y-108410000D03*
X186810000Y-108410000D03*
X184270000Y-105870000D03*
X186810000Y-105870000D03*
X184270000Y-103330000D03*
X186810000Y-103330000D03*
X184270000Y-100790000D03*
X186810000Y-100790000D03*
X184270000Y-98250000D03*
X186810000Y-98250000D03*
X184270000Y-95710000D03*
X186810000Y-95710000D03*
X184270000Y-93170000D03*
X186810000Y-93170000D03*
X184270000Y-90630000D03*
X186810000Y-90630000D03*
X184270000Y-88090000D03*
X186810000Y-88090000D03*
X184270000Y-85550000D03*
X186810000Y-85550000D03*
X184270000Y-83010000D03*
X186810000Y-83010000D03*
X184270000Y-80470000D03*
X186810000Y-80470000D03*
X184270000Y-77930000D03*
X186810000Y-77930000D03*
X184270000Y-75390000D03*
X186810000Y-75390000D03*
X184270000Y-72850000D03*
X186810000Y-72850000D03*
X184270000Y-70310000D03*
X186810000Y-70310000D03*
X184270000Y-67770000D03*
X186810000Y-67770000D03*
X184270000Y-65230000D03*
X186810000Y-65230000D03*
X184270000Y-62690000D03*
X186810000Y-62690000D03*
D13*
X102990000Y-108410000D03*
X179190000Y-108410000D03*
X179190000Y-65230000D03*
X102990000Y-65230000D03*
D11*
X101720000Y-95456000D03*
D12*
X104260000Y-95456000D03*
D11*
X140455000Y-104600000D03*
D12*
X137915000Y-104600000D03*
X140455000Y-107140000D03*
X137915000Y-107140000D03*
X140455000Y-109680000D03*
X137915000Y-109680000D03*
D14*
X147440000Y-100790000D03*
D15*
X144900000Y-100790000D03*
X142360000Y-100790000D03*
X139820000Y-100790000D03*
X137280000Y-100790000D03*
X134740000Y-100790000D03*
X132200000Y-100790000D03*
D16*
X152280000Y-71550000D03*
X137680000Y-71550000D03*
D17*
X137680000Y-65500000D03*
X152280000Y-65500000D03*
D18*
X152525938Y-81463870D03*
D19*
X162956098Y-95078488D03*
X158539988Y-94868772D03*
D18*
X161075765Y-80992022D03*
X164882869Y-80938986D03*
X156262773Y-81349374D03*
D19*
X177229911Y-82281349D03*
D18*
X123437000Y-108972000D03*
D20*
X132871770Y-84533979D03*
X132862998Y-82124544D03*
X131278306Y-86213101D03*
X135281276Y-80583119D03*
X131279502Y-89407325D03*
X170309539Y-85441529D03*
X145698456Y-91073766D03*
X145672808Y-85396062D03*
X144103186Y-84622010D03*
X133216000Y-107465000D03*
X137680000Y-88600000D03*
X142480000Y-95000000D03*
X141680000Y-92600000D03*
X140836000Y-84534000D03*
X135284627Y-94985297D03*
X135288625Y-94225619D03*
X134455822Y-94267172D03*
X136095958Y-93369652D03*
D21*
X139264636Y-91615205D03*
D19*
X116880503Y-64802940D03*
X106974809Y-64953974D03*
X175210328Y-64948943D03*
X165417246Y-64954666D03*
D20*
X175495631Y-71457432D03*
X145680000Y-94177990D03*
X177285000Y-95710000D03*
X140880000Y-81400000D03*
X136085174Y-89394826D03*
X145680000Y-81400000D03*
X140874194Y-91433353D03*
X142480000Y-94200000D03*
X140880000Y-93400000D03*
X139280000Y-93400000D03*
X137680000Y-93400000D03*
X136880000Y-92600000D03*
X135280000Y-92600000D03*
X132880000Y-91800000D03*
X132880000Y-93400000D03*
D21*
X141042859Y-86994997D03*
X139280000Y-87000000D03*
X136110990Y-86995403D03*
X137680000Y-87000000D03*
X136080000Y-84600000D03*
X139280000Y-88600000D03*
D19*
X166284693Y-95025145D03*
X166248957Y-79348409D03*
X166343357Y-77477990D03*
D20*
X172564535Y-87722010D03*
D19*
X121861867Y-105030174D03*
D20*
X150030853Y-71331848D03*
D19*
X156235582Y-66548363D03*
X101932065Y-82585048D03*
X106417803Y-68312483D03*
D20*
X127586603Y-107875044D03*
D19*
X157600000Y-62944000D03*
X160905403Y-95006436D03*
D18*
X158731133Y-81048929D03*
X154593901Y-94607945D03*
X156088245Y-94762980D03*
D19*
X164625730Y-94982471D03*
D18*
X163462982Y-80942429D03*
D19*
X176254940Y-94288458D03*
D22*
X110593913Y-108636458D03*
D20*
X180340784Y-77316932D03*
X109828000Y-72830000D03*
X148271935Y-77777990D03*
X173137949Y-87594275D03*
D19*
X148202454Y-79278787D03*
D23*
X102710050Y-98594954D03*
D20*
X154794000Y-72426000D03*
X129005202Y-100174798D03*
X137659051Y-91638034D03*
X139820000Y-68665673D03*
X172834633Y-99599920D03*
X172879922Y-98618650D03*
X176305593Y-103279812D03*
X164433885Y-63737451D03*
X134079160Y-66786153D03*
X116654336Y-78777990D03*
X112515000Y-83010000D03*
X100080000Y-104200000D03*
X113080000Y-88800000D03*
X135273306Y-88618602D03*
X139272517Y-84611349D03*
X137680556Y-84534085D03*
X141680000Y-86200000D03*
X135280000Y-86200000D03*
X132880000Y-92600000D03*
X132080000Y-92600000D03*
X141680000Y-88600000D03*
X141680000Y-85400000D03*
X165349214Y-97422919D03*
X121401947Y-90251871D03*
X129988160Y-91721995D03*
X130302262Y-92700329D03*
X121041200Y-91125073D03*
D19*
X110991000Y-89360000D03*
D20*
X142480000Y-91000000D03*
X142480000Y-83800000D03*
X134480000Y-83800000D03*
X134480000Y-91000000D03*
X105160274Y-86610828D03*
X125193541Y-69156848D03*
X155149360Y-71764535D03*
X170182962Y-69571012D03*
X170362901Y-107286196D03*
X158716651Y-107325176D03*
X128216338Y-109760338D03*
X132708000Y-109680000D03*
X137295592Y-97538017D03*
X134750646Y-106810513D03*
X133680000Y-91800000D03*
X136740903Y-97514503D03*
X134675868Y-108131585D03*
D21*
X133449289Y-102232615D03*
D20*
X133680000Y-92600000D03*
X132936956Y-103711000D03*
X127385678Y-104203668D03*
X133685482Y-93402296D03*
X134463998Y-108841973D03*
X131039072Y-102187000D03*
X131808905Y-96227367D03*
X134636872Y-109719950D03*
X132846234Y-94197073D03*
X120834553Y-76779094D03*
X130761990Y-67119621D03*
X147186000Y-71200000D03*
X147983153Y-71347080D03*
X149475951Y-69619684D03*
X153297112Y-68608292D03*
X177926984Y-89812061D03*
X154329326Y-64643767D03*
X152497066Y-79193467D03*
X146481406Y-79819384D03*
X143650666Y-63862520D03*
X179351513Y-88868327D03*
X149134122Y-63424051D03*
X140035989Y-81400000D03*
X115759823Y-98502036D03*
X132083026Y-86260405D03*
X128776655Y-87135140D03*
X119008515Y-95662939D03*
D21*
X119978162Y-95412951D03*
X120634035Y-94977604D03*
D20*
X113212238Y-68244401D03*
X146180000Y-70800000D03*
X131453853Y-103208291D03*
X149771692Y-81825658D03*
X144080000Y-86200000D03*
X149520824Y-86769192D03*
X144894316Y-86977564D03*
X144873936Y-83860397D03*
X149549750Y-80868432D03*
D21*
X147355672Y-93219294D03*
D20*
X144113248Y-92588762D03*
X144875155Y-86218896D03*
X149846468Y-81303978D03*
X144916886Y-83016385D03*
X148719886Y-81056015D03*
D21*
X147915304Y-93063131D03*
D20*
X144882352Y-92577990D03*
X148747982Y-95669626D03*
X144891634Y-91073766D03*
X149795895Y-95251084D03*
X144867244Y-90229755D03*
X150278898Y-95040253D03*
X144892596Y-89385743D03*
X150345974Y-94517527D03*
X144877648Y-88622010D03*
X150889207Y-94332565D03*
X143280000Y-87000000D03*
X130807074Y-95454141D03*
X130171404Y-93544341D03*
X132080000Y-93400000D03*
X129196652Y-93209125D03*
X133852393Y-95875797D03*
X141280000Y-97600000D03*
X133762848Y-96395146D03*
X132080000Y-94200000D03*
X128610772Y-84072485D03*
X105895603Y-103765816D03*
X130839486Y-103208291D03*
X132075624Y-89410644D03*
X129449238Y-89926948D03*
X128806823Y-103185900D03*
X128251440Y-89564206D03*
X132162861Y-106185868D03*
X132880000Y-88600000D03*
X124329568Y-104994951D03*
X127040053Y-88481065D03*
X132080000Y-87000000D03*
X125499542Y-93250681D03*
X124202418Y-107207639D03*
X132024412Y-109766775D03*
X110313517Y-74380698D03*
X132219727Y-109277292D03*
X114166000Y-74247000D03*
X135315381Y-81391918D03*
X135280062Y-77463305D03*
X134471370Y-81406751D03*
X134758050Y-77130140D03*
X132761172Y-77202673D03*
X132737245Y-76676207D03*
X128644933Y-77050030D03*
X128152012Y-77257840D03*
X128125571Y-78233647D03*
X110718734Y-94451783D03*
X128590544Y-77894041D03*
X110249038Y-93533767D03*
X106368514Y-97598098D03*
X131253134Y-78134216D03*
X106477197Y-98487772D03*
X132783339Y-81400004D03*
X131709326Y-78745875D03*
X132079024Y-82984045D03*
X129109095Y-82655074D03*
X105572759Y-101661319D03*
X106276126Y-101893466D03*
X132880889Y-83897835D03*
X129054383Y-83179239D03*
X129487667Y-84079929D03*
X132083682Y-83828056D03*
X105813763Y-102819336D03*
X132062099Y-84533979D03*
X128165458Y-83528763D03*
X105627254Y-103312241D03*
X128183315Y-84380742D03*
X105992720Y-104283802D03*
X133671942Y-84595200D03*
X132834641Y-85377990D03*
X128203260Y-84907376D03*
X106088753Y-104974041D03*
D21*
X146862501Y-96617499D03*
X147534467Y-95913260D03*
D20*
X147927932Y-95329243D03*
X143280000Y-91000000D03*
X149284391Y-95377990D03*
X144077013Y-90266968D03*
X147207648Y-89973043D03*
X144076240Y-89395301D03*
X143281824Y-90201951D03*
X144102010Y-85397219D03*
X147687522Y-85093328D03*
X144868096Y-85371354D03*
X148610669Y-81900026D03*
X144102010Y-83000000D03*
X144888125Y-82172374D03*
X147695541Y-87403214D03*
X144082832Y-88584510D03*
X148578814Y-87496879D03*
X143278026Y-88595030D03*
X144125486Y-82186468D03*
X148298275Y-80739810D03*
X144876540Y-81328363D03*
X147802234Y-80917812D03*
X139280000Y-81400000D03*
X139578623Y-78205862D03*
X139034115Y-78040948D03*
X139046749Y-77514088D03*
X138580000Y-76200000D03*
X138779198Y-75400762D03*
X137680000Y-81400000D03*
X137308732Y-76415018D03*
X137106948Y-76979922D03*
X136859538Y-77550820D03*
X136922059Y-78097889D03*
X136096392Y-81395070D03*
X135830698Y-76200613D03*
X148878722Y-83261032D03*
X144915665Y-84598743D03*
X148001372Y-82958777D03*
X144103186Y-83777990D03*
X142841210Y-78784254D03*
X142473549Y-82998913D03*
X142864275Y-78217369D03*
X142437464Y-82181475D03*
X146089079Y-77300571D03*
X144144931Y-81387081D03*
X144394875Y-77219934D03*
X146577729Y-76500816D03*
X143281475Y-82206074D03*
X146130802Y-76060132D03*
X143300920Y-81377293D03*
X145255695Y-74817220D03*
X141662690Y-82207782D03*
X142456909Y-81405800D03*
X140030954Y-82200000D03*
X141342967Y-76554996D03*
X141046643Y-74873804D03*
X140864029Y-83041403D03*
X140874966Y-82177164D03*
X140980062Y-75681941D03*
X115149319Y-98625494D03*
X132872609Y-82968555D03*
X132080007Y-82103333D03*
X132080000Y-81400000D03*
X131847310Y-79589886D03*
X130856828Y-77786820D03*
X131923295Y-77584853D03*
X133648389Y-82190597D03*
X133627359Y-81414685D03*
X129477855Y-92000822D03*
X132880000Y-91000000D03*
X128879646Y-92111037D03*
X132077648Y-90977990D03*
X131275302Y-80595752D03*
X130489904Y-80167235D03*
X128823114Y-85153560D03*
X132072985Y-85377990D03*
X134476508Y-82180155D03*
X133942383Y-77980766D03*
X163908850Y-71651861D03*
X135656559Y-110610712D03*
X132468001Y-104503413D03*
X146844288Y-103452739D03*
X132285867Y-108754446D03*
X134707351Y-105508447D03*
D23*
X104260000Y-100790000D03*
D20*
X114604320Y-98573680D03*
X112515000Y-86185000D03*
X164144561Y-98511733D03*
X170157734Y-105666345D03*
X169506589Y-107953726D03*
X170735900Y-74464979D03*
X143257990Y-83000000D03*
X168166438Y-79108038D03*
X151896383Y-103510715D03*
X114039000Y-72342000D03*
X110483000Y-72215000D03*
X143269694Y-93414905D03*
X177274002Y-105079115D03*
X172761273Y-101651681D03*
X143280000Y-91800000D03*
X172193360Y-101105663D03*
X144064831Y-91877646D03*
X171540304Y-100645743D03*
X144080000Y-91000000D03*
X154052298Y-69302298D03*
X128333179Y-75769807D03*
X134613000Y-78819000D03*
X135280000Y-83022010D03*
X135320520Y-82196441D03*
X129493343Y-75737814D03*
X136080000Y-82200000D03*
X129125079Y-75315804D03*
X136080000Y-83000000D03*
X129252218Y-74142461D03*
X142377451Y-77497451D03*
X172746637Y-74347988D03*
X143280000Y-83800000D03*
X170300000Y-68151000D03*
X170950000Y-68125562D03*
X125167387Y-92841517D03*
X121206217Y-89762554D03*
X132082956Y-90210779D03*
X182675150Y-111637626D03*
X124027706Y-87347706D03*
X124027707Y-87347707D03*
X166678914Y-70803555D03*
X129660000Y-100155000D03*
X124580000Y-100155000D03*
X132084049Y-88558274D03*
X126880008Y-90276109D03*
X128280000Y-103200000D03*
X100450000Y-101044000D03*
X120008000Y-67008000D03*
X127889625Y-80407426D03*
X133680000Y-85400000D03*
X130204628Y-83599483D03*
X128416582Y-80399850D03*
X133680000Y-83800000D03*
X128943593Y-80399729D03*
X133680000Y-83000000D03*
X129457990Y-80285112D03*
X144780000Y-74590382D03*
X124453000Y-93043000D03*
X137689001Y-90122990D03*
D19*
X151758000Y-99774000D03*
D20*
X136885174Y-90194826D03*
X140094890Y-90122990D03*
X139280000Y-90122990D03*
X140880000Y-89400000D03*
X140880000Y-87800000D03*
X140880000Y-85400000D03*
D21*
X136080000Y-85400000D03*
D24*
X147440000Y-100790000D02*
X147440000Y-99474000D01*
X147440000Y-99474000D02*
X146166000Y-98200000D01*
D25*
X129788161Y-91521996D02*
X122672072Y-91521996D01*
X129988160Y-91721995D02*
X129788161Y-91521996D01*
X121601946Y-90451870D02*
X121401947Y-90251871D01*
X122672072Y-91521996D02*
X121601946Y-90451870D01*
X122335643Y-92419516D02*
X125369948Y-92419516D01*
X125369948Y-92419516D02*
X125650761Y-92700329D01*
X121041200Y-91125073D02*
X122335643Y-92419516D01*
X130019420Y-92700329D02*
X130302262Y-92700329D01*
X125650761Y-92700329D02*
X130019420Y-92700329D01*
D24*
X125476383Y-69156848D02*
X125193541Y-69156848D01*
X125490557Y-69142674D02*
X125476383Y-69156848D01*
X155149360Y-71764535D02*
X152527499Y-69142674D01*
X152527499Y-69142674D02*
X125490557Y-69142674D01*
D25*
X134750646Y-106810513D02*
X134750646Y-106168251D01*
X134750646Y-106168251D02*
X134074414Y-105492019D01*
X134074414Y-105492019D02*
X134074414Y-103482768D01*
X137295592Y-97820859D02*
X137295592Y-97538017D01*
X134074414Y-103482768D02*
X136032257Y-101524925D01*
X136032257Y-101524925D02*
X136032257Y-99084194D01*
X136032257Y-99084194D02*
X137295592Y-97820859D01*
X136458061Y-97514503D02*
X136740903Y-97514503D01*
X133449289Y-102232615D02*
X133449289Y-100383943D01*
X136318729Y-97514503D02*
X136458061Y-97514503D01*
X133449289Y-100383943D02*
X136318729Y-97514503D01*
X134475869Y-107931586D02*
X134675868Y-108131585D01*
X133449289Y-102232615D02*
X133449289Y-105671174D01*
X133449289Y-105671174D02*
X134303719Y-106525604D01*
X134303719Y-107759436D02*
X134475869Y-107931586D01*
X134303719Y-106525604D02*
X134303719Y-107759436D01*
X132936956Y-104698915D02*
X132936956Y-103711000D01*
X132936956Y-103711000D02*
X132936956Y-103456956D01*
X133685482Y-93685138D02*
X133685482Y-93402296D01*
X131114390Y-98016986D02*
X133685482Y-95445894D01*
X131114390Y-101634390D02*
X131114390Y-98016986D01*
X133685482Y-95445894D02*
X133685482Y-93685138D01*
X132936956Y-103456956D02*
X131114390Y-101634390D01*
X133986708Y-106694648D02*
X132936956Y-105644896D01*
X132936956Y-105644896D02*
X132936956Y-104981757D01*
X133986708Y-108364683D02*
X133986708Y-106694648D01*
X132936956Y-104981757D02*
X132936956Y-104698915D01*
X134463998Y-108841973D02*
X133986708Y-108364683D01*
X131875854Y-103023782D02*
X131039072Y-102187000D01*
X131039072Y-102187000D02*
X130692380Y-101840308D01*
X134636872Y-109719950D02*
X133669697Y-108752775D01*
X133669697Y-108752775D02*
X133669697Y-106879462D01*
X133669697Y-106879462D02*
X131875854Y-105085619D01*
X131875854Y-105085619D02*
X131875854Y-103023782D01*
X130692380Y-101840308D02*
X130692380Y-97343892D01*
X130692380Y-97343892D02*
X131608906Y-96427366D01*
X131608906Y-96427366D02*
X131808905Y-96227367D01*
X148253900Y-80000797D02*
X148254705Y-79999992D01*
X148254705Y-79999992D02*
X148680008Y-79999992D01*
X148680008Y-79999992D02*
X149486533Y-79193467D01*
X146764248Y-79819384D02*
X146945661Y-80000797D01*
X146481406Y-79819384D02*
X146764248Y-79819384D01*
X152214224Y-79193467D02*
X152497066Y-79193467D01*
X149486533Y-79193467D02*
X152214224Y-79193467D01*
X146945661Y-80000797D02*
X148253900Y-80000797D01*
X141280000Y-97600000D02*
X139555797Y-95875797D01*
X139555797Y-95875797D02*
X134135235Y-95875797D01*
X134135235Y-95875797D02*
X133852393Y-95875797D01*
X118073967Y-90666526D02*
X122146527Y-86593966D01*
X122146527Y-86593966D02*
X123263289Y-86593966D01*
X125906482Y-83950773D02*
X128489060Y-83950773D01*
X123263289Y-86593966D02*
X125906482Y-83950773D01*
X128489060Y-83950773D02*
X128610772Y-84072485D01*
X118073967Y-91870294D02*
X118073967Y-90666526D01*
X106178445Y-103765816D02*
X118073967Y-91870294D01*
X105895603Y-103765816D02*
X106178445Y-103765816D01*
X97910000Y-83010000D02*
X99796991Y-83010000D01*
X99796991Y-83010000D02*
X101504925Y-81302066D01*
X101504925Y-81302066D02*
X121549224Y-81302066D01*
X121549224Y-81302066D02*
X128274498Y-74576791D01*
X128274498Y-74576791D02*
X133401753Y-74576791D01*
X135280062Y-77180463D02*
X135280062Y-77463305D01*
X133401753Y-74576791D02*
X135091677Y-76266715D01*
X135091677Y-76266715D02*
X135091677Y-76839205D01*
X135091677Y-76839205D02*
X135280062Y-77027590D01*
X135280062Y-77027590D02*
X135280062Y-77180463D01*
X128405808Y-74893802D02*
X121680534Y-81619077D01*
X99246408Y-84183069D02*
X96543069Y-84183069D01*
X121680534Y-81619077D02*
X101810400Y-81619077D01*
X133270443Y-74893802D02*
X128405808Y-74893802D01*
X134280000Y-75903359D02*
X133270443Y-74893802D01*
X96233599Y-83873599D02*
X95370000Y-83010000D01*
X101810400Y-81619077D02*
X99246408Y-84183069D01*
X96543069Y-84183069D02*
X96233599Y-83873599D01*
X134758050Y-76847298D02*
X134758050Y-77130140D01*
X134758050Y-76381409D02*
X134758050Y-76847298D01*
X134280000Y-75903359D02*
X134758050Y-76381409D01*
X134344206Y-75967565D02*
X134280000Y-75903359D01*
D26*
X128736940Y-76513819D02*
X129221339Y-76998218D01*
X132273875Y-76998218D02*
X132478330Y-77202673D01*
X127689504Y-76513819D02*
X128736940Y-76513819D01*
X132478330Y-77202673D02*
X132761172Y-77202673D01*
X129221339Y-76998218D02*
X132273875Y-76998218D01*
X126708542Y-77494781D02*
X127689504Y-76513819D01*
D25*
X126708542Y-77494781D02*
X126708542Y-77536188D01*
X126708542Y-77536188D02*
X121137885Y-83106845D01*
X97910000Y-90630000D02*
X98018914Y-90738914D01*
X98018914Y-90738914D02*
X112786810Y-90738914D01*
X112786810Y-90738914D02*
X120418879Y-83106845D01*
X120418879Y-83106845D02*
X121137885Y-83106845D01*
X96455601Y-89544399D02*
X96233599Y-89766401D01*
X96233599Y-89766401D02*
X95370000Y-90630000D01*
X120958097Y-82789834D02*
X120287569Y-82789834D01*
X127556123Y-76191808D02*
X120958097Y-82789834D01*
X128870321Y-76191808D02*
X127556123Y-76191808D01*
X99292440Y-90405750D02*
X98431089Y-89544399D01*
X120287569Y-82789834D02*
X112671654Y-90405750D01*
X98431089Y-89544399D02*
X96455601Y-89544399D01*
X132737245Y-76676207D02*
X129354720Y-76676207D01*
X112671654Y-90405750D02*
X99292440Y-90405750D01*
X129354720Y-76676207D02*
X128870321Y-76191808D01*
X121765681Y-83423856D02*
X127030553Y-78158984D01*
X127822885Y-76835830D02*
X128430733Y-76835830D01*
X127030553Y-77628162D02*
X127822885Y-76835830D01*
X128430733Y-76835830D02*
X128444934Y-76850031D01*
X111719092Y-92254953D02*
X120550189Y-83423856D01*
X97910000Y-93170000D02*
X98825047Y-92254953D01*
X127030553Y-78158984D02*
X127030553Y-77628162D01*
X128444934Y-76850031D02*
X128644933Y-77050030D01*
X120550189Y-83423856D02*
X121765681Y-83423856D01*
X98825047Y-92254953D02*
X111719092Y-92254953D01*
X95370000Y-93170000D02*
X96455601Y-94255601D01*
X127869170Y-77257840D02*
X128152012Y-77257840D01*
X127849196Y-77257840D02*
X127869170Y-77257840D01*
X127347564Y-77759472D02*
X127849196Y-77257840D01*
X111850402Y-92571964D02*
X120681499Y-83740867D01*
X100151394Y-92571964D02*
X111850402Y-92571964D01*
X127347564Y-78290293D02*
X127347564Y-77759472D01*
X98467757Y-94255601D02*
X100151394Y-92571964D01*
X121896990Y-83740867D02*
X127347564Y-78290293D01*
X120681499Y-83740867D02*
X121896990Y-83740867D01*
X96455601Y-94255601D02*
X98467757Y-94255601D01*
X120944119Y-84374889D02*
X122166864Y-84374889D01*
X110918733Y-94251784D02*
X111067224Y-94251784D01*
X111067224Y-94251784D02*
X120944119Y-84374889D01*
X128125571Y-78416182D02*
X128125571Y-78233647D01*
X122166864Y-84374889D02*
X128125571Y-78416182D01*
X110718734Y-94451783D02*
X110918733Y-94251784D01*
X110718734Y-94600276D02*
X110718734Y-94451783D01*
X97910000Y-95710000D02*
X100414014Y-93205986D01*
X109324444Y-93205986D02*
X110718734Y-94600276D01*
X100414014Y-93205986D02*
X109324444Y-93205986D01*
X122035554Y-84057878D02*
X127664575Y-78428857D01*
X128390545Y-77694042D02*
X128590544Y-77894041D01*
X127861315Y-77694042D02*
X128390545Y-77694042D01*
X127664575Y-77890782D02*
X127861315Y-77694042D01*
X111336920Y-93533767D02*
X120812809Y-84057878D01*
X127664575Y-78428857D02*
X127664575Y-77890782D01*
X120812809Y-84057878D02*
X122035554Y-84057878D01*
X110249038Y-93533767D02*
X111336920Y-93533767D01*
X96507388Y-94572612D02*
X98599067Y-94572612D01*
X95370000Y-95710000D02*
X96507388Y-94572612D01*
X109604246Y-92888975D02*
X110049039Y-93333768D01*
X110049039Y-93333768D02*
X110249038Y-93533767D01*
X100282704Y-92888975D02*
X109604246Y-92888975D01*
X98599067Y-94572612D02*
X100282704Y-92888975D01*
X106156817Y-97386401D02*
X106168515Y-97398099D01*
X98773599Y-97386401D02*
X106156817Y-97386401D01*
X131253134Y-78134216D02*
X130434363Y-78952987D01*
X106651356Y-97598098D02*
X106368514Y-97598098D01*
X106168515Y-97398099D02*
X106368514Y-97598098D01*
X121075429Y-84691900D02*
X108169231Y-97598098D01*
X128037087Y-78952987D02*
X122298174Y-84691900D01*
X97910000Y-98250000D02*
X98773599Y-97386401D01*
X108169231Y-97598098D02*
X106651356Y-97598098D01*
X122298174Y-84691900D02*
X121075429Y-84691900D01*
X130434363Y-78952987D02*
X128037087Y-78952987D01*
X95370000Y-98250000D02*
X96520000Y-99400000D01*
X96520000Y-99400000D02*
X99130000Y-99400000D01*
X100630000Y-97900000D02*
X105889425Y-97900000D01*
X99130000Y-99400000D02*
X100630000Y-97900000D01*
X105889425Y-97900000D02*
X106477197Y-98487772D01*
X106760039Y-98487772D02*
X106477197Y-98487772D01*
X121206739Y-85008911D02*
X107727878Y-98487772D01*
X122570707Y-85008911D02*
X121206739Y-85008911D01*
X128309620Y-79269998D02*
X122570707Y-85008911D01*
X131185203Y-79269998D02*
X128309620Y-79269998D01*
X131709326Y-78745875D02*
X131185203Y-79269998D01*
X107727878Y-98487772D02*
X106760039Y-98487772D01*
X105572759Y-101661319D02*
X105572759Y-101368697D01*
X128909096Y-82455075D02*
X129109095Y-82655074D01*
X122702017Y-85325922D02*
X125572864Y-82455075D01*
X105572759Y-101368697D02*
X121615534Y-85325922D01*
X121615534Y-85325922D02*
X122702017Y-85325922D01*
X125572864Y-82455075D02*
X128909096Y-82455075D01*
X105143422Y-101690658D02*
X105172761Y-101661319D01*
X105172761Y-101661319D02*
X105572759Y-101661319D01*
X97910000Y-100790000D02*
X98810658Y-101690658D01*
X98810658Y-101690658D02*
X105143422Y-101690658D01*
X95370000Y-100790000D02*
X96673465Y-102093465D01*
X96673465Y-102093465D02*
X106076127Y-102093465D01*
X125697494Y-82778766D02*
X122833327Y-85642933D01*
X106276126Y-101115193D02*
X106276126Y-101610624D01*
X121748386Y-85642933D02*
X106276126Y-101115193D01*
X122833327Y-85642933D02*
X121748386Y-85642933D01*
X128922202Y-83179239D02*
X128521729Y-82778766D01*
X129054383Y-83179239D02*
X128922202Y-83179239D01*
X128521729Y-82778766D02*
X125697494Y-82778766D01*
X106276126Y-101610624D02*
X106276126Y-101893466D01*
X106076127Y-102093465D02*
X106276126Y-101893466D01*
X106013762Y-102619337D02*
X106179742Y-102619337D01*
X106179742Y-102619337D02*
X117439945Y-91359134D01*
X129141189Y-83879930D02*
X129287668Y-83879930D01*
X129287668Y-83879930D02*
X129487667Y-84079929D01*
X121883907Y-85959944D02*
X123000670Y-85959944D01*
X105813763Y-102819336D02*
X106013762Y-102619337D01*
X123000670Y-85959944D02*
X125853853Y-83106761D01*
X117439945Y-91359134D02*
X117439945Y-90403906D01*
X125853853Y-83106761D02*
X128368020Y-83106761D01*
X128368020Y-83106761D02*
X129141189Y-83879930D01*
X117439945Y-90403906D02*
X121883907Y-85959944D01*
X105530921Y-102819336D02*
X105813763Y-102819336D01*
X99131314Y-103330000D02*
X99641978Y-102819336D01*
X99641978Y-102819336D02*
X105530921Y-102819336D01*
X97910000Y-103330000D02*
X99131314Y-103330000D01*
X117756956Y-91497275D02*
X117756956Y-90535216D01*
X105941990Y-103312241D02*
X117756956Y-91497275D01*
X117756956Y-90535216D02*
X122015217Y-86276955D01*
X105627254Y-103312241D02*
X105941990Y-103312241D01*
X127882616Y-83528763D02*
X128165458Y-83528763D01*
X125880171Y-83528763D02*
X127882616Y-83528763D01*
X123131979Y-86276955D02*
X125880171Y-83528763D01*
X122015217Y-86276955D02*
X123131979Y-86276955D01*
X95370000Y-103330000D02*
X96455601Y-104415601D01*
X105344412Y-103312241D02*
X105627254Y-103312241D01*
X96455601Y-104415601D02*
X98916078Y-104415601D01*
X100019438Y-103312241D02*
X105344412Y-103312241D01*
X98916078Y-104415601D02*
X100019438Y-103312241D01*
X118390978Y-92168386D02*
X118390978Y-90797836D01*
X106275562Y-104283802D02*
X118390978Y-92168386D01*
X122277837Y-86910977D02*
X123394600Y-86910977D01*
X127900473Y-84380742D02*
X128183315Y-84380742D01*
X125924835Y-84380742D02*
X127900473Y-84380742D01*
X123394600Y-86910977D02*
X125924835Y-84380742D01*
X118390978Y-90797836D02*
X122277837Y-86910977D01*
X105992720Y-104283802D02*
X106275562Y-104283802D01*
X105650602Y-104625920D02*
X105792721Y-104483801D01*
X97910000Y-105870000D02*
X99154080Y-104625920D01*
X99154080Y-104625920D02*
X105650602Y-104625920D01*
X105792721Y-104483801D02*
X105992720Y-104283802D01*
X98924399Y-106955601D02*
X100905959Y-104974041D01*
X123525910Y-87227988D02*
X125846522Y-84907376D01*
X125846522Y-84907376D02*
X127920418Y-84907376D01*
X122409147Y-87227988D02*
X123525910Y-87227988D01*
X106088753Y-104974041D02*
X118707989Y-92354805D01*
X127920418Y-84907376D02*
X128203260Y-84907376D01*
X118707989Y-92354805D02*
X118707989Y-90929146D01*
X118707989Y-90929146D02*
X122409147Y-87227988D01*
X96455601Y-106955601D02*
X98924399Y-106955601D01*
X95370000Y-105870000D02*
X96455601Y-106955601D01*
X105805911Y-104974041D02*
X106088753Y-104974041D01*
X100905959Y-104974041D02*
X105805911Y-104974041D01*
X146862501Y-96617499D02*
X148622002Y-98377000D01*
X153167129Y-98377000D02*
X159251000Y-104460871D01*
X148622002Y-98377000D02*
X153167129Y-98377000D01*
X159251000Y-104460871D02*
X182860871Y-104460871D01*
X182860871Y-104460871D02*
X184270000Y-105870000D01*
X147534467Y-95913260D02*
X149681196Y-98059989D01*
X149681196Y-98059989D02*
X153298439Y-98059989D01*
X153298439Y-98059989D02*
X159382309Y-104143860D01*
X159382309Y-104143860D02*
X182992181Y-104143860D01*
X182992181Y-104143860D02*
X183514583Y-104666262D01*
X183514583Y-104666262D02*
X185606262Y-104666262D01*
X185606262Y-104666262D02*
X185946401Y-105006401D01*
X185946401Y-105006401D02*
X186810000Y-105870000D01*
X184270000Y-103330000D02*
X183048686Y-103330000D01*
X183048686Y-103330000D02*
X182303816Y-102585130D01*
X182303816Y-102585130D02*
X158362000Y-102585130D01*
X158362000Y-102585130D02*
X153519848Y-97742978D01*
X153519848Y-97742978D02*
X150017620Y-97742978D01*
X150017620Y-97742978D02*
X147927932Y-95653290D01*
X147927932Y-95653290D02*
X147927932Y-95612085D01*
X147927932Y-95612085D02*
X147927932Y-95329243D01*
X149484390Y-95577989D02*
X149284391Y-95377990D01*
X153744658Y-97396777D02*
X151303178Y-97396777D01*
X151303178Y-97396777D02*
X149484390Y-95577989D01*
X186810000Y-103330000D02*
X185672612Y-102192612D01*
X158540493Y-102192612D02*
X153744658Y-97396777D01*
X185672612Y-102192612D02*
X158540493Y-102192612D01*
X184270000Y-100790000D02*
X183561407Y-100081407D01*
X183561407Y-100081407D02*
X183068967Y-100081407D01*
X183068967Y-100081407D02*
X172760604Y-89773044D01*
X172760604Y-89773044D02*
X147407647Y-89773044D01*
X147407647Y-89773044D02*
X147207648Y-89973043D01*
X186810000Y-100790000D02*
X185540000Y-99520000D01*
X144292310Y-89807744D02*
X144255096Y-89844958D01*
X143481823Y-90001952D02*
X143281824Y-90201951D01*
X185540000Y-99520000D02*
X183000000Y-99520000D01*
X146887276Y-89360000D02*
X146439532Y-89807744D01*
X183000000Y-99520000D02*
X172840000Y-89360000D01*
X144255096Y-89844958D02*
X143638817Y-89844958D01*
X172840000Y-89360000D02*
X146887276Y-89360000D01*
X146439532Y-89807744D02*
X144292310Y-89807744D01*
X143638817Y-89844958D02*
X143481823Y-90001952D01*
X144280516Y-85597218D02*
X144480184Y-85796886D01*
X144480184Y-85796886D02*
X145152301Y-85796886D01*
X145152301Y-85796886D02*
X145253541Y-85898126D01*
X182539275Y-95710000D02*
X183048686Y-95710000D01*
X145253541Y-85898126D02*
X150836126Y-85898126D01*
X150836126Y-85898126D02*
X151710725Y-86772725D01*
X151710725Y-86772725D02*
X173602000Y-86772725D01*
X173602000Y-86772725D02*
X182539275Y-95710000D01*
X183048686Y-95710000D02*
X184270000Y-95710000D01*
X144102010Y-85418712D02*
X144102010Y-85397219D01*
X144280516Y-85597218D02*
X144102010Y-85418712D01*
X144280516Y-85597218D02*
X144280516Y-85600516D01*
X147687522Y-85093328D02*
X147887521Y-84893329D01*
X147887521Y-84893329D02*
X150593329Y-84893329D01*
X150593329Y-84893329D02*
X152012000Y-86312000D01*
X152012000Y-86312000D02*
X173589596Y-86312000D01*
X173589596Y-86312000D02*
X181857596Y-94580000D01*
X181857596Y-94580000D02*
X185680000Y-94580000D01*
X185680000Y-94580000D02*
X186810000Y-95710000D01*
X183406401Y-89766401D02*
X182846401Y-89766401D01*
X148810668Y-82100025D02*
X148610669Y-81900026D01*
X182846401Y-89766401D02*
X175699335Y-82619335D01*
X149329978Y-82619335D02*
X148810668Y-82100025D01*
X175699335Y-82619335D02*
X149329978Y-82619335D01*
X184270000Y-90630000D02*
X183406401Y-89766401D01*
X147713759Y-82172374D02*
X145170967Y-82172374D01*
X148813230Y-81478025D02*
X148408108Y-81478025D01*
X149587402Y-82252197D02*
X148813230Y-81478025D01*
X182958475Y-89400000D02*
X175806134Y-82247659D01*
X186810000Y-90630000D02*
X185580000Y-89400000D01*
X145170967Y-82172374D02*
X144888125Y-82172374D01*
X152765402Y-82252197D02*
X149587402Y-82252197D01*
X175806134Y-82247659D02*
X152769940Y-82247659D01*
X148408108Y-81478025D02*
X147713759Y-82172374D01*
X152769940Y-82247659D02*
X152765402Y-82252197D01*
X185580000Y-89400000D02*
X182958475Y-89400000D01*
X172976640Y-88600000D02*
X148892327Y-88600000D01*
X182626640Y-98250000D02*
X172976640Y-88600000D01*
X148892327Y-88600000D02*
X147895540Y-87603213D01*
X184270000Y-98250000D02*
X182626640Y-98250000D01*
X147895540Y-87603213D02*
X147695541Y-87403214D01*
X186810000Y-98250000D02*
X185560000Y-97000000D01*
X185560000Y-97000000D02*
X181880000Y-97000000D01*
X173104678Y-88224678D02*
X149306613Y-88224678D01*
X148778813Y-87696878D02*
X148578814Y-87496879D01*
X181880000Y-97000000D02*
X173104678Y-88224678D01*
X149306613Y-88224678D02*
X148778813Y-87696878D01*
X148982296Y-80634014D02*
X148517325Y-80634014D01*
X149691992Y-80387430D02*
X149682561Y-80377999D01*
X183048686Y-83010000D02*
X180426116Y-80387430D01*
X148517325Y-80634014D02*
X148411529Y-80739810D01*
X149682561Y-80377999D02*
X149238311Y-80377999D01*
X184270000Y-83010000D02*
X183048686Y-83010000D01*
X180426116Y-80387430D02*
X149691992Y-80387430D01*
X149238311Y-80377999D02*
X148982296Y-80634014D01*
X148411529Y-80739810D02*
X148298275Y-80739810D01*
X149074030Y-80060988D02*
X148818015Y-80317003D01*
X148385210Y-80317808D02*
X148119396Y-80317808D01*
X147802234Y-80634970D02*
X147802234Y-80917812D01*
X148386015Y-80317003D02*
X148385210Y-80317808D01*
X165225754Y-80060988D02*
X149074030Y-80060988D01*
X180557426Y-80070419D02*
X165235185Y-80070419D01*
X165235185Y-80070419D02*
X165225754Y-80060988D01*
X182207713Y-81720706D02*
X180557426Y-80070419D01*
X186810000Y-83010000D02*
X185520706Y-81720706D01*
X148119396Y-80317808D02*
X147802234Y-80634970D01*
X185520706Y-81720706D02*
X182207713Y-81720706D01*
X148818015Y-80317003D02*
X148386015Y-80317003D01*
X140558052Y-80121948D02*
X139479999Y-81200001D01*
X140550981Y-75110934D02*
X140558052Y-75118005D01*
X140550981Y-71541440D02*
X140550981Y-75110934D01*
X140558052Y-75118005D02*
X140558052Y-80121948D01*
X99131314Y-67770000D02*
X101008057Y-69646743D01*
X97910000Y-67770000D02*
X99131314Y-67770000D01*
X138656284Y-69646743D02*
X140550981Y-71541440D01*
X101008057Y-69646743D02*
X138656284Y-69646743D01*
X139479999Y-81200001D02*
X139280000Y-81400000D01*
X140233970Y-71672750D02*
X140233970Y-77550515D01*
X138525607Y-69964387D02*
X140233970Y-71672750D01*
X100877380Y-69964387D02*
X138525607Y-69964387D01*
X99768594Y-68855601D02*
X100877380Y-69964387D01*
X139778622Y-78005863D02*
X139578623Y-78205862D01*
X96455601Y-68855601D02*
X99768594Y-68855601D01*
X140233970Y-77550515D02*
X139778622Y-78005863D01*
X95370000Y-67770000D02*
X96455601Y-68855601D01*
X138753038Y-74575900D02*
X139314541Y-74575900D01*
X139314541Y-74575900D02*
X139582273Y-74843632D01*
X139582273Y-74843632D02*
X139582273Y-77578746D01*
X139582273Y-77578746D02*
X139120071Y-78040948D01*
X139120071Y-78040948D02*
X139034115Y-78040948D01*
X97910000Y-70310000D02*
X100326351Y-70310000D01*
X100326351Y-70310000D02*
X100354953Y-70281398D01*
X100354953Y-70281398D02*
X134458538Y-70281398D01*
X134458538Y-70281398D02*
X138753038Y-74575900D01*
X139183231Y-74892911D02*
X139246748Y-74956428D01*
X134327228Y-70598409D02*
X138621729Y-74892911D01*
X139246748Y-77314089D02*
X139046749Y-77514088D01*
X100486263Y-70598409D02*
X134327228Y-70598409D01*
X139246748Y-74956428D02*
X139246748Y-77314089D01*
X138621729Y-74892911D02*
X139183231Y-74892911D01*
X99684672Y-71400000D02*
X100486263Y-70598409D01*
X96460000Y-71400000D02*
X99684672Y-71400000D01*
X95370000Y-70310000D02*
X96460000Y-71400000D01*
X138357197Y-75577197D02*
X138580000Y-75800000D01*
X138580000Y-75800000D02*
X138580000Y-76200000D01*
X138357197Y-75525020D02*
X138357197Y-75577197D01*
X134064608Y-71232431D02*
X138357197Y-75525020D01*
X100748883Y-71232431D02*
X134064608Y-71232431D01*
X99131314Y-72850000D02*
X100748883Y-71232431D01*
X97910000Y-72850000D02*
X99131314Y-72850000D01*
X138681260Y-75400762D02*
X138779198Y-75400762D01*
X134195918Y-70915420D02*
X138681260Y-75400762D01*
X95370000Y-72850000D02*
X96463654Y-71756346D01*
X96463654Y-71756346D02*
X99776647Y-71756346D01*
X99776647Y-71756346D02*
X100617573Y-70915420D01*
X100617573Y-70915420D02*
X134195918Y-70915420D01*
X137680000Y-81400000D02*
X137879999Y-81200001D01*
X137879999Y-81200001D02*
X137879999Y-75496139D01*
X137879999Y-75496139D02*
X134484764Y-72100904D01*
X120878883Y-79282481D02*
X101802481Y-79282481D01*
X134484764Y-72100904D02*
X128060460Y-72100904D01*
X128060460Y-72100904D02*
X120878883Y-79282481D01*
X101802481Y-79282481D02*
X97910000Y-75390000D01*
X137308732Y-76132176D02*
X137308732Y-76415018D01*
X134353454Y-72417915D02*
X137308732Y-75373195D01*
X137308732Y-75373195D02*
X137308732Y-76132176D01*
X96739277Y-76759277D02*
X98830956Y-76759277D01*
X120965674Y-79644011D02*
X128191769Y-72417915D01*
X95370000Y-75390000D02*
X96739277Y-76759277D01*
X101715690Y-79644011D02*
X120965674Y-79644011D01*
X98830956Y-76759277D02*
X101715690Y-79644011D01*
X128191769Y-72417915D02*
X134353454Y-72417915D01*
X97910000Y-77930000D02*
X99553358Y-77930000D01*
X101584380Y-79961022D02*
X121096984Y-79961022D01*
X134222144Y-72734926D02*
X136886722Y-75399504D01*
X128323079Y-72734926D02*
X134222144Y-72734926D01*
X136906949Y-76779923D02*
X137106948Y-76979922D01*
X136886722Y-75399504D02*
X136886722Y-76759696D01*
X99553358Y-77930000D02*
X101584380Y-79961022D01*
X136886722Y-76759696D02*
X136906949Y-76779923D01*
X121096984Y-79961022D02*
X128323079Y-72734926D01*
X136569711Y-77260993D02*
X136659539Y-77350821D01*
X128454389Y-73051937D02*
X134090834Y-73051937D01*
X101453070Y-80278033D02*
X121228294Y-80278033D01*
X136569711Y-75530814D02*
X136569711Y-77260993D01*
X136659539Y-77350821D02*
X136859538Y-77550820D01*
X100190639Y-79015601D02*
X101453070Y-80278033D01*
X96455601Y-79015601D02*
X100190639Y-79015601D01*
X134090834Y-73051937D02*
X136569711Y-75530814D01*
X121228294Y-80278033D02*
X128454389Y-73051937D01*
X95370000Y-77930000D02*
X96455601Y-79015601D01*
X136639217Y-78097889D02*
X136922059Y-78097889D01*
X136252700Y-75958873D02*
X136252700Y-77711372D01*
X136252700Y-77711372D02*
X136639217Y-78097889D01*
X128585699Y-73368948D02*
X133662775Y-73368948D01*
X97910000Y-80470000D02*
X99131314Y-80470000D01*
X121359604Y-80595044D02*
X128585699Y-73368948D01*
X99256358Y-80595044D02*
X121359604Y-80595044D01*
X99131314Y-80470000D02*
X99256358Y-80595044D01*
X133662775Y-73368948D02*
X136252700Y-75958873D01*
X99486624Y-80985055D02*
X121417914Y-80985055D01*
X95370000Y-80470000D02*
X96500000Y-81600000D01*
X135830698Y-76106578D02*
X135830698Y-76200613D01*
X133410079Y-73685959D02*
X135830698Y-76106578D01*
X121417914Y-80985055D02*
X128717009Y-73685959D01*
X96500000Y-81600000D02*
X98871679Y-81600000D01*
X128717009Y-73685959D02*
X133410079Y-73685959D01*
X98871679Y-81600000D02*
X99486624Y-80985055D01*
X184270000Y-93170000D02*
X183406401Y-92306401D01*
X183406401Y-92306401D02*
X183386401Y-92306401D01*
X183386401Y-92306401D02*
X178953976Y-87873976D01*
X178953976Y-87873976D02*
X178953976Y-87853976D01*
X178953976Y-87853976D02*
X174561031Y-83461031D01*
X174561031Y-83461031D02*
X149078721Y-83461031D01*
X149078721Y-83461031D02*
X148878722Y-83261032D01*
X186810000Y-93170000D02*
X185440000Y-91800000D01*
X149300724Y-83061240D02*
X148998262Y-82758778D01*
X185440000Y-91800000D02*
X183348320Y-91800000D01*
X183348320Y-91800000D02*
X174609560Y-83061240D01*
X174609560Y-83061240D02*
X149300724Y-83061240D01*
X148998262Y-82758778D02*
X148201371Y-82758778D01*
X148201371Y-82758778D02*
X148001372Y-82958777D01*
X169135116Y-78526366D02*
X143381940Y-78526366D01*
X170215151Y-79606401D02*
X169135116Y-78526366D01*
X143381940Y-78526366D02*
X143124052Y-78784254D01*
X183406401Y-79606401D02*
X170215151Y-79606401D01*
X184270000Y-80470000D02*
X183406401Y-79606401D01*
X143124052Y-78784254D02*
X142841210Y-78784254D01*
X142881644Y-78200000D02*
X142864275Y-78217369D01*
X186810000Y-80470000D02*
X185540000Y-79200000D01*
X185540000Y-79200000D02*
X170280000Y-79200000D01*
X170280000Y-79200000D02*
X169280000Y-78200000D01*
X169280000Y-78200000D02*
X142881644Y-78200000D01*
X164759076Y-77300571D02*
X165634203Y-76425444D01*
X146089079Y-77300571D02*
X164759076Y-77300571D01*
X165634203Y-76425444D02*
X181622444Y-76425444D01*
X181622444Y-76425444D02*
X183127000Y-77930000D01*
X183127000Y-77930000D02*
X184270000Y-77930000D01*
X146396753Y-76944404D02*
X146325742Y-76873393D01*
X165502893Y-76108433D02*
X164666922Y-76944404D01*
X144741416Y-76873393D02*
X144594874Y-77019935D01*
X146325742Y-76873393D02*
X144741416Y-76873393D01*
X181753754Y-76108433D02*
X165502893Y-76108433D01*
X185430266Y-76550266D02*
X182195586Y-76550266D01*
X164666922Y-76944404D02*
X146396753Y-76944404D01*
X186810000Y-77930000D02*
X185430266Y-76550266D01*
X182195586Y-76550266D02*
X181753754Y-76108433D01*
X144594874Y-77019935D02*
X144394875Y-77219934D01*
X184270000Y-75390000D02*
X165773005Y-75390000D01*
X165773005Y-75390000D02*
X164662189Y-76500816D01*
X146860571Y-76500816D02*
X146577729Y-76500816D01*
X164662189Y-76500816D02*
X146860571Y-76500816D01*
X186810000Y-75390000D02*
X185672612Y-74252612D01*
X183627388Y-74252612D02*
X182880000Y-75000000D01*
X165680001Y-75000000D02*
X164619869Y-76060132D01*
X182880000Y-75000000D02*
X165680001Y-75000000D01*
X146413644Y-76060132D02*
X146130802Y-76060132D01*
X185672612Y-74252612D02*
X183627388Y-74252612D01*
X164619869Y-76060132D02*
X146413644Y-76060132D01*
X164401335Y-74485383D02*
X145587532Y-74485383D01*
X145455694Y-74617221D02*
X145255695Y-74817220D01*
X145587532Y-74485383D02*
X145455694Y-74617221D01*
X165594753Y-73291965D02*
X164401335Y-74485383D01*
X182606721Y-73291965D02*
X165594753Y-73291965D01*
X183048686Y-72850000D02*
X182606721Y-73291965D01*
X184270000Y-72850000D02*
X183048686Y-72850000D01*
X141740988Y-77238533D02*
X141740988Y-80689879D01*
X165726063Y-73608976D02*
X164532645Y-74802394D01*
X164532645Y-74802394D02*
X145895085Y-74802394D01*
X145458257Y-75239222D02*
X143740299Y-75239222D01*
X141740988Y-80689879D02*
X142256910Y-81205801D01*
X183748911Y-73935601D02*
X183422286Y-73608976D01*
X145895085Y-74802394D02*
X145458257Y-75239222D01*
X143740299Y-75239222D02*
X141740988Y-77238533D01*
X185724399Y-73935601D02*
X183748911Y-73935601D01*
X183422286Y-73608976D02*
X165726063Y-73608976D01*
X142256910Y-81205801D02*
X142456909Y-81405800D01*
X186810000Y-72850000D02*
X185724399Y-73935601D01*
X180278699Y-72657943D02*
X165332133Y-72657943D01*
X182626642Y-70310000D02*
X180278699Y-72657943D01*
X140896977Y-76376424D02*
X140896977Y-80758461D01*
X165332133Y-72657943D02*
X164138715Y-73851361D01*
X184270000Y-70310000D02*
X182626642Y-70310000D01*
X143422040Y-73851361D02*
X140896977Y-76376424D01*
X140230953Y-82000001D02*
X140030954Y-82200000D01*
X140457999Y-81197439D02*
X140457999Y-81772955D01*
X164138715Y-73851361D02*
X143422040Y-73851361D01*
X140457999Y-81772955D02*
X140230953Y-82000001D01*
X140896977Y-80758461D02*
X140457999Y-81197439D01*
X180410009Y-72974954D02*
X165463443Y-72974954D01*
X143729591Y-74168372D02*
X141542966Y-76354997D01*
X186810000Y-70310000D02*
X185724399Y-71395601D01*
X164270025Y-74168372D02*
X143729591Y-74168372D01*
X165463443Y-72974954D02*
X164270025Y-74168372D01*
X141542966Y-76354997D02*
X141342967Y-76554996D01*
X181989362Y-71395601D02*
X180410009Y-72974954D01*
X185724399Y-71395601D02*
X181989362Y-71395601D01*
X141046643Y-74873804D02*
X142703108Y-73217339D01*
X142703108Y-73217339D02*
X163876095Y-73217339D01*
X163876095Y-73217339D02*
X165132434Y-71961000D01*
X183406401Y-68633599D02*
X184270000Y-67770000D01*
X180079000Y-71961000D02*
X183406401Y-68633599D01*
X165132434Y-71961000D02*
X180079000Y-71961000D01*
X185724399Y-68855601D02*
X183632720Y-68855601D01*
X141180061Y-75481942D02*
X140980062Y-75681941D01*
X180147389Y-72340932D02*
X165200823Y-72340932D01*
X143127653Y-73534350D02*
X141180061Y-75481942D01*
X164007405Y-73534350D02*
X143127653Y-73534350D01*
X165200823Y-72340932D02*
X164007405Y-73534350D01*
X183632720Y-68855601D02*
X180147389Y-72340932D01*
X186810000Y-67770000D02*
X185724399Y-68855601D01*
D24*
X170157734Y-105666345D02*
X169506589Y-106317490D01*
X169506589Y-107670884D02*
X169506589Y-107953726D01*
X169506589Y-106317490D02*
X169506589Y-107670884D01*
D25*
X143257990Y-83000000D02*
X142859465Y-82601475D01*
X142859465Y-82601475D02*
X142859465Y-81623126D01*
X142859465Y-81623126D02*
X142878910Y-81603681D01*
X142878910Y-79446516D02*
X142419209Y-78986815D01*
X142878910Y-81603681D02*
X142878910Y-79446516D01*
X142419209Y-78986815D02*
X142419209Y-78052506D01*
X145720877Y-75873244D02*
X146157705Y-75436416D01*
X142419209Y-78052506D02*
X142878651Y-77593064D01*
X142878651Y-77593064D02*
X142878651Y-77293328D01*
X142878651Y-77293328D02*
X144298735Y-75873244D01*
X146157705Y-75436416D02*
X164795265Y-75436416D01*
X144298735Y-75873244D02*
X145720877Y-75873244D01*
X164795265Y-75436416D02*
X165766701Y-74464979D01*
X170453058Y-74464979D02*
X170735900Y-74464979D01*
X165766701Y-74464979D02*
X170453058Y-74464979D01*
X143269694Y-93697747D02*
X143269694Y-93414905D01*
X154631138Y-105079115D02*
X143269694Y-93717671D01*
X177274002Y-105079115D02*
X154631138Y-105079115D01*
X143269694Y-93717671D02*
X143269694Y-93697747D01*
X143280000Y-91800000D02*
X143280000Y-92800649D01*
X143280000Y-92800649D02*
X143691695Y-93212344D01*
X147726840Y-94917011D02*
X148874137Y-93769714D01*
X143691695Y-93212344D02*
X143691695Y-93260016D01*
X143691695Y-93260016D02*
X145348690Y-94917011D01*
X145348690Y-94917011D02*
X147726840Y-94917011D01*
X148874137Y-93769714D02*
X151001394Y-93769714D01*
X151001394Y-93769714D02*
X158883361Y-101651681D01*
X158883361Y-101651681D02*
X172478431Y-101651681D01*
X172478431Y-101651681D02*
X172761273Y-101651681D01*
X145480000Y-94600000D02*
X147595530Y-94600000D01*
X148906754Y-93288776D02*
X151168776Y-93288776D01*
X144008706Y-93081034D02*
X144008706Y-93128706D01*
X143603565Y-92338912D02*
X143603565Y-92675893D01*
X144064831Y-91877646D02*
X143603565Y-92338912D01*
X171910518Y-101105663D02*
X172193360Y-101105663D01*
X147595530Y-94600000D02*
X148906754Y-93288776D01*
X158985663Y-101105663D02*
X171910518Y-101105663D01*
X144008706Y-93128706D02*
X145480000Y-94600000D01*
X143603565Y-92675893D02*
X144008706Y-93081034D01*
X151168776Y-93288776D02*
X158985663Y-101105663D01*
X144428244Y-90651756D02*
X145069805Y-90651756D01*
X145069805Y-90651756D02*
X145121561Y-90600000D01*
X159125743Y-100645743D02*
X171257462Y-100645743D01*
X146761722Y-90600000D02*
X146873777Y-90712055D01*
X145121561Y-90600000D02*
X146761722Y-90600000D01*
X171257462Y-100645743D02*
X171540304Y-100645743D01*
X146873777Y-90712055D02*
X149192055Y-90712055D01*
X149192055Y-90712055D02*
X159125743Y-100645743D01*
X144080000Y-91000000D02*
X144428244Y-90651756D01*
X128896641Y-75769807D02*
X128616021Y-75769807D01*
X132948911Y-76162488D02*
X129289322Y-76162488D01*
X133471738Y-76685315D02*
X132948911Y-76162488D01*
X134183804Y-78819000D02*
X133471738Y-78106934D01*
X134613000Y-78819000D02*
X134183804Y-78819000D01*
X129289322Y-76162488D02*
X128896641Y-75769807D01*
X128616021Y-75769807D02*
X128333179Y-75769807D01*
X133471738Y-78106934D02*
X133471738Y-76685315D01*
X129493343Y-75737814D02*
X133169493Y-75737814D01*
X135035002Y-78452227D02*
X135035002Y-79600000D01*
X133169493Y-75737814D02*
X133956113Y-76524434D01*
X133956113Y-76524434D02*
X133956113Y-77373338D01*
X133956113Y-77373338D02*
X135035002Y-78452227D01*
D27*
X135705882Y-80270880D02*
X135035002Y-79600000D01*
X135680000Y-81836961D02*
X135705882Y-81811079D01*
X135705882Y-81811079D02*
X135705882Y-80270880D01*
D25*
X135320520Y-82196441D02*
X135680000Y-81836961D01*
X135320520Y-82159480D02*
X135320520Y-82196441D01*
X135328212Y-82151788D02*
X135320520Y-82159480D01*
X136080000Y-82200000D02*
X136362842Y-82200000D01*
X136362842Y-82200000D02*
X136724012Y-81838830D01*
X136724012Y-81838830D02*
X136724012Y-80511144D01*
X129407921Y-75315804D02*
X129125079Y-75315804D01*
X136724012Y-80511144D02*
X135408410Y-79195542D01*
X133244127Y-75315804D02*
X129407921Y-75315804D01*
X135408410Y-79195542D02*
X135408410Y-78377314D01*
X135408410Y-78377314D02*
X134274552Y-77243456D01*
X134274552Y-77243456D02*
X134274552Y-76346229D01*
X134274552Y-76346229D02*
X133244127Y-75315804D01*
X135725421Y-77192218D02*
X135725421Y-76909376D01*
X135725421Y-79064233D02*
X135725421Y-77192218D01*
X137045064Y-80383876D02*
X135725421Y-79064233D01*
X137045064Y-82034936D02*
X137045064Y-80383876D01*
X136080000Y-83000000D02*
X137045064Y-82034936D01*
X129252218Y-74142461D02*
X133415744Y-74142461D01*
X135408688Y-76592643D02*
X135525422Y-76709377D01*
X133415744Y-74142461D02*
X135408688Y-76135405D01*
X135525422Y-76709377D02*
X135725421Y-76909376D01*
X135408688Y-76135405D02*
X135408688Y-76592643D01*
X144035827Y-75556233D02*
X142377451Y-77214609D01*
X172441626Y-74042977D02*
X165740383Y-74042977D01*
X164663955Y-75119405D02*
X146026395Y-75119405D01*
X146026395Y-75119405D02*
X145589567Y-75556233D01*
X145589567Y-75556233D02*
X144035827Y-75556233D01*
X165740383Y-74042977D02*
X164663955Y-75119405D01*
X172746637Y-74347988D02*
X172441626Y-74042977D01*
X142377451Y-77214609D02*
X142377451Y-77497451D01*
X121489059Y-89762554D02*
X121206217Y-89762554D01*
X122524186Y-90698110D02*
X121588630Y-89762554D01*
X121588630Y-89762554D02*
X121489059Y-89762554D01*
X132082956Y-90210779D02*
X131595625Y-90698110D01*
X131595625Y-90698110D02*
X122524186Y-90698110D01*
D24*
X124027707Y-87347707D02*
X122189432Y-89185982D01*
X119080000Y-91083238D02*
X119080000Y-93283513D01*
X182392308Y-111637626D02*
X182675150Y-111637626D01*
X108717626Y-111637626D02*
X182392308Y-111637626D01*
X107080000Y-105283513D02*
X107080000Y-110000000D01*
X107080000Y-110000000D02*
X108717626Y-111637626D01*
X122189432Y-89185982D02*
X120977256Y-89185982D01*
X120977256Y-89185982D02*
X119080000Y-91083238D01*
X119080000Y-93283513D02*
X107080000Y-105283513D01*
X129025000Y-99520000D02*
X129660000Y-100155000D01*
X128390000Y-99520000D02*
X129025000Y-99520000D01*
X127755000Y-100155000D02*
X128390000Y-99520000D01*
X124580000Y-100155000D02*
X127755000Y-100155000D01*
D25*
X127889625Y-80407426D02*
X127889625Y-80690268D01*
X127889625Y-80690268D02*
X129557707Y-82358350D01*
X129557707Y-82358350D02*
X129557707Y-83549843D01*
X129557707Y-83549843D02*
X131813118Y-85805254D01*
X131813118Y-85805254D02*
X133274746Y-85805254D01*
X133274746Y-85805254D02*
X133680000Y-85400000D01*
X130204628Y-83599483D02*
X130204628Y-82736596D01*
X130204628Y-82736596D02*
X129874718Y-82406686D01*
X129874718Y-82406686D02*
X129874718Y-82140828D01*
X129874718Y-82140828D02*
X128416582Y-80682692D01*
X128416582Y-80682692D02*
X128416582Y-80399850D01*
X133680000Y-83800000D02*
X133355834Y-83475834D01*
X133355834Y-83475834D02*
X132358427Y-83475834D01*
X131668614Y-83406046D02*
X131662568Y-83400000D01*
X132288639Y-83406046D02*
X131668614Y-83406046D01*
X132358427Y-83475834D02*
X132288639Y-83406046D01*
D27*
X131662568Y-83400000D02*
X131661795Y-83400773D01*
X131661795Y-83400773D02*
X131661022Y-83400000D01*
D25*
X131661022Y-83400000D02*
X128943593Y-80682571D01*
X128943593Y-80682571D02*
X128943593Y-80399729D01*
X131763315Y-82546545D02*
X131754088Y-82555772D01*
X133226545Y-82546545D02*
X131763315Y-82546545D01*
X133680000Y-83000000D02*
X133226545Y-82546545D01*
D27*
X131754088Y-82555772D02*
X131741369Y-82568491D01*
D25*
X131741369Y-82568491D02*
X129657989Y-80485111D01*
X129657989Y-80485111D02*
X129457990Y-80285112D01*
D10*
G36*
X138974748Y-77137025D02*
X138972088Y-77137023D01*
X138833475Y-77194296D01*
X138727330Y-77300256D01*
X138669814Y-77438769D01*
X138669684Y-77588749D01*
X138726957Y-77727362D01*
X138770714Y-77771196D01*
X138714696Y-77827116D01*
X138657180Y-77965629D01*
X138657050Y-78115609D01*
X138714323Y-78254222D01*
X138820283Y-78360367D01*
X138958796Y-78417883D01*
X139108776Y-78418013D01*
X139236553Y-78365217D01*
X139258831Y-78419136D01*
X139364791Y-78525281D01*
X139503304Y-78582797D01*
X139653284Y-78582927D01*
X139791897Y-78525654D01*
X139898042Y-78419694D01*
X139955558Y-78281181D01*
X139955617Y-78213534D01*
X140286052Y-77883099D01*
X140286052Y-80009282D01*
X139272341Y-81022993D01*
X139205339Y-81022935D01*
X139066726Y-81080208D01*
X138960581Y-81186168D01*
X138903065Y-81324681D01*
X138902935Y-81474661D01*
X138960208Y-81613274D01*
X139066168Y-81719419D01*
X139204681Y-81776935D01*
X139354661Y-81777065D01*
X139493274Y-81719792D01*
X139599419Y-81613832D01*
X139656935Y-81475319D01*
X139656994Y-81407672D01*
X139658984Y-81405682D01*
X139658924Y-81474661D01*
X139716197Y-81613274D01*
X139822157Y-81719419D01*
X139960670Y-81776935D01*
X140069259Y-81777029D01*
X140023295Y-81822993D01*
X139956293Y-81822935D01*
X139817680Y-81880208D01*
X139711535Y-81986168D01*
X139654019Y-82124681D01*
X139653889Y-82274661D01*
X139711162Y-82413274D01*
X139817122Y-82519419D01*
X139955635Y-82576935D01*
X140105615Y-82577065D01*
X140244228Y-82519792D01*
X140350373Y-82413832D01*
X140407889Y-82275319D01*
X140407948Y-82207672D01*
X140498017Y-82117603D01*
X140497901Y-82251825D01*
X140555174Y-82390438D01*
X140661134Y-82496583D01*
X140799647Y-82554099D01*
X140949627Y-82554229D01*
X141088240Y-82496956D01*
X141194385Y-82390996D01*
X141239460Y-82282443D01*
X141285625Y-82282443D01*
X141342898Y-82421056D01*
X141448858Y-82527201D01*
X141587371Y-82584717D01*
X141737351Y-82584847D01*
X141875964Y-82527574D01*
X141982109Y-82421614D01*
X142039625Y-82283101D01*
X142039755Y-82133121D01*
X141982482Y-81994508D01*
X141876522Y-81888363D01*
X141738009Y-81830847D01*
X141588029Y-81830717D01*
X141449416Y-81887990D01*
X141343271Y-81993950D01*
X141285755Y-82132463D01*
X141285625Y-82282443D01*
X141239460Y-82282443D01*
X141251901Y-82252483D01*
X141252031Y-82102503D01*
X141194758Y-81963890D01*
X141088798Y-81857745D01*
X140950285Y-81800229D01*
X140800305Y-81800099D01*
X140717820Y-81834181D01*
X140729999Y-81772955D01*
X140729999Y-81310105D01*
X141089310Y-80950794D01*
X141105267Y-80926913D01*
X141148272Y-80862551D01*
X141168977Y-80758461D01*
X141168977Y-76890959D01*
X141267648Y-76931931D01*
X141417628Y-76932061D01*
X141556241Y-76874788D01*
X141662386Y-76768828D01*
X141711728Y-76650000D01*
X141944855Y-76650000D01*
X141548655Y-77046200D01*
X141489693Y-77134443D01*
X141468988Y-77238533D01*
X141468988Y-80689879D01*
X141489693Y-80793969D01*
X141548655Y-80882212D01*
X142079902Y-81413459D01*
X142079844Y-81480461D01*
X142137117Y-81619074D01*
X142243077Y-81725219D01*
X142381590Y-81782735D01*
X142531570Y-81782865D01*
X142587465Y-81759770D01*
X142587465Y-81835551D01*
X142512783Y-81804540D01*
X142362803Y-81804410D01*
X142224190Y-81861683D01*
X142118045Y-81967643D01*
X142060529Y-82106156D01*
X142060399Y-82256136D01*
X142117672Y-82394749D01*
X142223632Y-82500894D01*
X142362145Y-82558410D01*
X142512125Y-82558540D01*
X142587465Y-82527411D01*
X142587465Y-82601475D01*
X142595386Y-82641294D01*
X142548868Y-82621978D01*
X142398888Y-82621848D01*
X142260275Y-82679121D01*
X142154130Y-82785081D01*
X142096614Y-82923594D01*
X142096484Y-83073574D01*
X142153757Y-83212187D01*
X142259717Y-83318332D01*
X142398230Y-83375848D01*
X142548210Y-83375978D01*
X142686823Y-83318705D01*
X142792968Y-83212745D01*
X142850484Y-83074232D01*
X142850568Y-82977244D01*
X142880983Y-83007659D01*
X142880925Y-83074661D01*
X142938198Y-83213274D01*
X143044158Y-83319419D01*
X143182671Y-83376935D01*
X143332651Y-83377065D01*
X143471264Y-83319792D01*
X143577409Y-83213832D01*
X143634925Y-83075319D01*
X143634925Y-83074661D01*
X143724945Y-83074661D01*
X143782218Y-83213274D01*
X143888178Y-83319419D01*
X144026691Y-83376935D01*
X144176671Y-83377065D01*
X144315284Y-83319792D01*
X144421429Y-83213832D01*
X144472414Y-83091046D01*
X144539821Y-83091046D01*
X144597094Y-83229659D01*
X144703054Y-83335804D01*
X144841567Y-83393320D01*
X144991547Y-83393450D01*
X145130160Y-83336177D01*
X145236305Y-83230217D01*
X145293821Y-83091704D01*
X145293951Y-82941724D01*
X145236678Y-82803111D01*
X145130718Y-82696966D01*
X144992205Y-82639450D01*
X144842225Y-82639320D01*
X144703612Y-82696593D01*
X144597467Y-82802553D01*
X144539951Y-82941066D01*
X144539821Y-83091046D01*
X144472414Y-83091046D01*
X144478945Y-83075319D01*
X144479075Y-82925339D01*
X144421802Y-82786726D01*
X144315842Y-82680581D01*
X144177329Y-82623065D01*
X144027349Y-82622935D01*
X143888736Y-82680208D01*
X143782591Y-82786168D01*
X143725075Y-82924681D01*
X143724945Y-83074661D01*
X143634925Y-83074661D01*
X143635055Y-82925339D01*
X143577782Y-82786726D01*
X143471822Y-82680581D01*
X143333309Y-82623065D01*
X143265662Y-82623006D01*
X143225682Y-82583026D01*
X143356136Y-82583139D01*
X143494749Y-82525866D01*
X143600894Y-82419906D01*
X143658410Y-82281393D01*
X143658427Y-82261129D01*
X143748421Y-82261129D01*
X143805694Y-82399742D01*
X143911654Y-82505887D01*
X144050167Y-82563403D01*
X144200147Y-82563533D01*
X144338760Y-82506260D01*
X144444905Y-82400300D01*
X144502421Y-82261787D01*
X144502551Y-82111807D01*
X144445278Y-81973194D01*
X144339318Y-81867049D01*
X144200805Y-81809533D01*
X144050825Y-81809403D01*
X143912212Y-81866676D01*
X143806067Y-81972636D01*
X143748551Y-82111149D01*
X143748421Y-82261129D01*
X143658427Y-82261129D01*
X143658540Y-82131413D01*
X143601267Y-81992800D01*
X143495307Y-81886655D01*
X143356794Y-81829139D01*
X143206814Y-81829009D01*
X143131465Y-81860142D01*
X143131465Y-81715139D01*
X143225601Y-81754228D01*
X143375581Y-81754358D01*
X143514194Y-81697085D01*
X143620339Y-81591125D01*
X143674063Y-81461742D01*
X143767866Y-81461742D01*
X143825139Y-81600355D01*
X143931099Y-81706500D01*
X144069612Y-81764016D01*
X144219592Y-81764146D01*
X144358205Y-81706873D01*
X144464350Y-81600913D01*
X144521866Y-81462400D01*
X144521870Y-81457226D01*
X144556748Y-81541637D01*
X144662708Y-81647782D01*
X144801221Y-81705298D01*
X144951201Y-81705428D01*
X145089814Y-81648155D01*
X145195959Y-81542195D01*
X145253475Y-81403682D01*
X145253605Y-81253702D01*
X145196332Y-81115089D01*
X145090372Y-81008944D01*
X144951859Y-80951428D01*
X144801879Y-80951298D01*
X144663266Y-81008571D01*
X144557121Y-81114531D01*
X144499605Y-81253044D01*
X144499601Y-81258218D01*
X144464723Y-81173807D01*
X144358763Y-81067662D01*
X144220250Y-81010146D01*
X144070270Y-81010016D01*
X143931657Y-81067289D01*
X143825512Y-81173249D01*
X143767996Y-81311762D01*
X143767866Y-81461742D01*
X143674063Y-81461742D01*
X143677855Y-81452612D01*
X143677985Y-81302632D01*
X143620712Y-81164019D01*
X143514752Y-81057874D01*
X143376239Y-81000358D01*
X143226259Y-81000228D01*
X143150910Y-81031361D01*
X143150910Y-79446516D01*
X143130205Y-79342426D01*
X143071243Y-79254183D01*
X142960103Y-79143043D01*
X143054484Y-79104046D01*
X143102359Y-79056254D01*
X143124052Y-79056254D01*
X143228142Y-79035549D01*
X143316385Y-78976587D01*
X143494606Y-78798366D01*
X147725455Y-78798366D01*
X147628856Y-78894797D01*
X147525572Y-79143533D01*
X147525337Y-79412860D01*
X147628187Y-79661776D01*
X147695091Y-79728797D01*
X147058327Y-79728797D01*
X146956581Y-79627051D01*
X146868338Y-79568089D01*
X146764248Y-79547384D01*
X146742574Y-79547384D01*
X146695238Y-79499965D01*
X146556725Y-79442449D01*
X146406745Y-79442319D01*
X146268132Y-79499592D01*
X146161987Y-79605552D01*
X146104471Y-79744065D01*
X146104341Y-79894045D01*
X146161614Y-80032658D01*
X146267574Y-80138803D01*
X146406087Y-80196319D01*
X146556067Y-80196449D01*
X146694680Y-80139176D01*
X146697029Y-80136831D01*
X146753328Y-80193130D01*
X146841571Y-80252092D01*
X146945661Y-80272797D01*
X147779741Y-80272797D01*
X147609901Y-80442637D01*
X147550939Y-80530880D01*
X147530234Y-80634970D01*
X147530234Y-80656644D01*
X147482815Y-80703980D01*
X147425299Y-80842493D01*
X147425169Y-80992473D01*
X147482442Y-81131086D01*
X147588402Y-81237231D01*
X147726915Y-81294747D01*
X147876895Y-81294877D01*
X148015508Y-81237604D01*
X148121653Y-81131644D01*
X148141828Y-81083057D01*
X148222956Y-81116745D01*
X148342833Y-81116849D01*
X148342821Y-81130676D01*
X148376548Y-81212303D01*
X148304018Y-81226730D01*
X148240324Y-81269289D01*
X148215775Y-81285692D01*
X147601093Y-81900374D01*
X145149293Y-81900374D01*
X145101957Y-81852955D01*
X144963444Y-81795439D01*
X144813464Y-81795309D01*
X144674851Y-81852582D01*
X144568706Y-81958542D01*
X144511190Y-82097055D01*
X144511060Y-82247035D01*
X144568333Y-82385648D01*
X144674293Y-82491793D01*
X144812806Y-82549309D01*
X144962786Y-82549439D01*
X145101399Y-82492166D01*
X145149274Y-82444374D01*
X147713759Y-82444374D01*
X147817849Y-82423669D01*
X147906092Y-82364707D01*
X148251880Y-82018919D01*
X148290877Y-82113300D01*
X148396837Y-82219445D01*
X148535350Y-82276961D01*
X148602997Y-82277020D01*
X148812755Y-82486778D01*
X148201371Y-82486778D01*
X148097281Y-82507483D01*
X148009038Y-82566445D01*
X147993713Y-82581770D01*
X147926711Y-82581712D01*
X147788098Y-82638985D01*
X147681953Y-82744945D01*
X147624437Y-82883458D01*
X147624307Y-83033438D01*
X147681580Y-83172051D01*
X147787540Y-83278196D01*
X147926053Y-83335712D01*
X148076033Y-83335842D01*
X148214646Y-83278569D01*
X148320791Y-83172609D01*
X148378307Y-83034096D01*
X148378310Y-83030778D01*
X148575754Y-83030778D01*
X148559303Y-83047200D01*
X148501787Y-83185713D01*
X148501657Y-83335693D01*
X148558930Y-83474306D01*
X148664890Y-83580451D01*
X148803403Y-83637967D01*
X148871050Y-83638026D01*
X148886388Y-83653364D01*
X148974631Y-83712326D01*
X149078721Y-83733031D01*
X149630000Y-83733031D01*
X149630000Y-84621329D01*
X147887521Y-84621329D01*
X147783431Y-84642034D01*
X147695188Y-84700996D01*
X147679863Y-84716321D01*
X147612861Y-84716263D01*
X147474248Y-84773536D01*
X147368103Y-84879496D01*
X147310587Y-85018009D01*
X147310457Y-85167989D01*
X147367730Y-85306602D01*
X147473690Y-85412747D01*
X147612203Y-85470263D01*
X147762183Y-85470393D01*
X147900796Y-85413120D01*
X148006941Y-85307160D01*
X148064457Y-85168647D01*
X148064460Y-85165329D01*
X149630000Y-85165329D01*
X149630000Y-85626126D01*
X145366207Y-85626126D01*
X145344634Y-85604553D01*
X145256391Y-85545591D01*
X145207957Y-85535957D01*
X145245031Y-85446673D01*
X145245161Y-85296693D01*
X145187888Y-85158080D01*
X145081928Y-85051935D01*
X144943415Y-84994419D01*
X144793435Y-84994289D01*
X144654822Y-85051562D01*
X144548677Y-85157522D01*
X144491161Y-85296035D01*
X144491051Y-85423087D01*
X144478998Y-85411034D01*
X144479075Y-85322558D01*
X144421802Y-85183945D01*
X144315842Y-85077800D01*
X144177329Y-85020284D01*
X144027349Y-85020154D01*
X143888736Y-85077427D01*
X143782591Y-85183387D01*
X143725075Y-85321900D01*
X143724945Y-85471880D01*
X143782218Y-85610493D01*
X143888178Y-85716638D01*
X144026691Y-85774154D01*
X144072826Y-85774194D01*
X144081542Y-85782910D01*
X144088183Y-85792849D01*
X144098122Y-85799490D01*
X144121668Y-85823036D01*
X144005339Y-85822935D01*
X143866726Y-85880208D01*
X143760581Y-85986168D01*
X143703065Y-86124681D01*
X143702935Y-86274661D01*
X143760208Y-86413274D01*
X143866168Y-86519419D01*
X144004681Y-86576935D01*
X144154661Y-86577065D01*
X144293274Y-86519792D01*
X144399419Y-86413832D01*
X144456935Y-86275319D01*
X144457065Y-86125339D01*
X144429580Y-86058820D01*
X144480184Y-86068886D01*
X144529235Y-86068886D01*
X144498220Y-86143577D01*
X144498090Y-86293557D01*
X144555363Y-86432170D01*
X144661323Y-86538315D01*
X144799836Y-86595831D01*
X144949816Y-86595961D01*
X145088429Y-86538688D01*
X145194574Y-86432728D01*
X145252090Y-86294215D01*
X145252198Y-86169859D01*
X145253541Y-86170126D01*
X149630000Y-86170126D01*
X149630000Y-86406316D01*
X149596143Y-86392257D01*
X149446163Y-86392127D01*
X149307550Y-86449400D01*
X149201405Y-86555360D01*
X149143889Y-86693873D01*
X149143759Y-86843853D01*
X149201032Y-86982466D01*
X149306992Y-87088611D01*
X149445505Y-87146127D01*
X149595485Y-87146257D01*
X149630000Y-87131996D01*
X149630000Y-87952678D01*
X149419279Y-87952678D01*
X148955821Y-87489220D01*
X148955879Y-87422218D01*
X148898606Y-87283605D01*
X148792646Y-87177460D01*
X148654133Y-87119944D01*
X148504153Y-87119814D01*
X148365540Y-87177087D01*
X148259395Y-87283047D01*
X148201879Y-87421560D01*
X148201790Y-87524797D01*
X148072548Y-87395555D01*
X148072606Y-87328553D01*
X148015333Y-87189940D01*
X147909373Y-87083795D01*
X147770860Y-87026279D01*
X147620880Y-87026149D01*
X147482267Y-87083422D01*
X147376122Y-87189382D01*
X147318606Y-87327895D01*
X147318476Y-87477875D01*
X147375749Y-87616488D01*
X147481709Y-87722633D01*
X147620222Y-87780149D01*
X147687869Y-87780208D01*
X148699994Y-88792333D01*
X148788237Y-88851295D01*
X148892327Y-88872000D01*
X149630000Y-88872000D01*
X149630000Y-89088000D01*
X146887276Y-89088000D01*
X146783186Y-89108705D01*
X146694943Y-89167667D01*
X146326866Y-89535744D01*
X145238520Y-89535744D01*
X145269531Y-89461062D01*
X145269661Y-89311082D01*
X145212388Y-89172469D01*
X145106428Y-89066324D01*
X144967915Y-89008808D01*
X144817935Y-89008678D01*
X144679322Y-89065951D01*
X144573177Y-89171911D01*
X144515661Y-89310424D01*
X144515531Y-89460404D01*
X144546660Y-89535744D01*
X144426133Y-89535744D01*
X144453175Y-89470620D01*
X144453305Y-89320640D01*
X144396032Y-89182027D01*
X144290072Y-89075882D01*
X144151559Y-89018366D01*
X144001579Y-89018236D01*
X143862966Y-89075509D01*
X143756821Y-89181469D01*
X143699305Y-89319982D01*
X143699175Y-89469962D01*
X143741732Y-89572958D01*
X143638817Y-89572958D01*
X143534727Y-89593663D01*
X143446484Y-89652625D01*
X143274165Y-89824944D01*
X143207163Y-89824886D01*
X143068550Y-89882159D01*
X142962405Y-89988119D01*
X142904889Y-90126632D01*
X142904759Y-90276612D01*
X142962032Y-90415225D01*
X143067992Y-90521370D01*
X143206505Y-90578886D01*
X143356485Y-90579016D01*
X143495098Y-90521743D01*
X143601243Y-90415783D01*
X143658759Y-90277270D01*
X143658818Y-90209623D01*
X143716613Y-90151828D01*
X143700078Y-90191649D01*
X143699948Y-90341629D01*
X143757221Y-90480242D01*
X143863181Y-90586387D01*
X143978201Y-90634148D01*
X143866726Y-90680208D01*
X143760581Y-90786168D01*
X143703065Y-90924681D01*
X143702935Y-91074661D01*
X143760208Y-91213274D01*
X143866168Y-91319419D01*
X144004681Y-91376935D01*
X144154661Y-91377065D01*
X144293274Y-91319792D01*
X144399419Y-91213832D01*
X144456935Y-91075319D01*
X144456994Y-91007672D01*
X144540910Y-90923756D01*
X144545714Y-90923756D01*
X144514699Y-90998447D01*
X144514569Y-91148427D01*
X144571842Y-91287040D01*
X144677802Y-91393185D01*
X144816315Y-91450701D01*
X144966295Y-91450831D01*
X145104908Y-91393558D01*
X145211053Y-91287598D01*
X145268569Y-91149085D01*
X145268699Y-90999105D01*
X145217086Y-90874191D01*
X145220366Y-90872000D01*
X146649056Y-90872000D01*
X146681444Y-90904388D01*
X146769687Y-90963350D01*
X146873777Y-90984055D01*
X149079389Y-90984055D01*
X149630000Y-91534666D01*
X149630000Y-93016776D01*
X148906754Y-93016776D01*
X148802664Y-93037481D01*
X148715853Y-93095486D01*
X148714421Y-93096443D01*
X147482864Y-94328000D01*
X145592666Y-94328000D01*
X144563968Y-93299302D01*
X146951602Y-93299302D01*
X147012978Y-93447843D01*
X147126525Y-93561589D01*
X147274959Y-93623224D01*
X147435680Y-93623364D01*
X147584221Y-93561988D01*
X147697967Y-93448441D01*
X147711465Y-93415935D01*
X147834591Y-93467061D01*
X147995312Y-93467201D01*
X148143853Y-93405825D01*
X148257599Y-93292278D01*
X148319234Y-93143844D01*
X148319374Y-92983123D01*
X148257998Y-92834582D01*
X148144451Y-92720836D01*
X147996017Y-92659201D01*
X147835296Y-92659061D01*
X147686755Y-92720437D01*
X147573009Y-92833984D01*
X147559511Y-92866490D01*
X147436385Y-92815364D01*
X147275664Y-92815224D01*
X147127123Y-92876600D01*
X147013377Y-92990147D01*
X146951742Y-93138581D01*
X146951602Y-93299302D01*
X144563968Y-93299302D01*
X144264568Y-92999902D01*
X144260001Y-92976944D01*
X144238583Y-92944889D01*
X144326522Y-92908554D01*
X144432667Y-92802594D01*
X144490183Y-92664081D01*
X144490192Y-92652651D01*
X144505287Y-92652651D01*
X144562560Y-92791264D01*
X144668520Y-92897409D01*
X144807033Y-92954925D01*
X144957013Y-92955055D01*
X145095626Y-92897782D01*
X145201771Y-92791822D01*
X145259287Y-92653309D01*
X145259417Y-92503329D01*
X145202144Y-92364716D01*
X145096184Y-92258571D01*
X144957671Y-92201055D01*
X144807691Y-92200925D01*
X144669078Y-92258198D01*
X144562933Y-92364158D01*
X144505417Y-92502671D01*
X144505287Y-92652651D01*
X144490192Y-92652651D01*
X144490313Y-92514101D01*
X144433040Y-92375488D01*
X144327080Y-92269343D01*
X144215856Y-92223158D01*
X144278105Y-92197438D01*
X144384250Y-92091478D01*
X144441766Y-91952965D01*
X144441896Y-91802985D01*
X144384623Y-91664372D01*
X144278663Y-91558227D01*
X144140150Y-91500711D01*
X143990170Y-91500581D01*
X143851557Y-91557854D01*
X143745412Y-91663814D01*
X143687896Y-91802327D01*
X143687837Y-91869974D01*
X143638787Y-91919024D01*
X143656935Y-91875319D01*
X143657065Y-91725339D01*
X143599792Y-91586726D01*
X143493832Y-91480581D01*
X143355319Y-91423065D01*
X143205339Y-91422935D01*
X143066726Y-91480208D01*
X142960581Y-91586168D01*
X142903065Y-91724681D01*
X142902935Y-91874661D01*
X142960208Y-92013274D01*
X143008000Y-92061149D01*
X143008000Y-92800649D01*
X143028705Y-92904739D01*
X143087667Y-92992982D01*
X143150801Y-93056116D01*
X143056420Y-93095113D01*
X142950275Y-93201073D01*
X142892759Y-93339586D01*
X142892629Y-93489566D01*
X142949902Y-93628179D01*
X142997694Y-93676054D01*
X142997694Y-93717671D01*
X143018399Y-93821761D01*
X143077361Y-93910004D01*
X148117357Y-98950000D01*
X136551117Y-98950000D01*
X137487925Y-98013192D01*
X137546887Y-97924949D01*
X137567592Y-97820859D01*
X137567592Y-97799185D01*
X137615011Y-97751849D01*
X137672527Y-97613336D01*
X137672657Y-97463356D01*
X137615384Y-97324743D01*
X137509424Y-97218598D01*
X137370911Y-97161082D01*
X137220931Y-97160952D01*
X137082318Y-97218225D01*
X137029986Y-97270466D01*
X136954735Y-97195084D01*
X136816222Y-97137568D01*
X136666242Y-97137438D01*
X136527629Y-97194711D01*
X136479754Y-97242503D01*
X136318729Y-97242503D01*
X136214639Y-97263208D01*
X136126396Y-97322170D01*
X134498566Y-98950000D01*
X131386390Y-98950000D01*
X131386390Y-98129652D01*
X133501717Y-96014325D01*
X133532601Y-96089071D01*
X133534214Y-96090687D01*
X133443429Y-96181314D01*
X133385913Y-96319827D01*
X133385783Y-96469807D01*
X133443056Y-96608420D01*
X133549016Y-96714565D01*
X133687529Y-96772081D01*
X133837509Y-96772211D01*
X133976122Y-96714938D01*
X134082267Y-96608978D01*
X134139783Y-96470465D01*
X134139913Y-96320485D01*
X134082640Y-96181872D01*
X134081027Y-96180256D01*
X134113542Y-96147797D01*
X139443131Y-96147797D01*
X140902993Y-97607659D01*
X140902935Y-97674661D01*
X140960208Y-97813274D01*
X141066168Y-97919419D01*
X141204681Y-97976935D01*
X141354661Y-97977065D01*
X141493274Y-97919792D01*
X141599419Y-97813832D01*
X141656935Y-97675319D01*
X141657065Y-97525339D01*
X141599792Y-97386726D01*
X141493832Y-97280581D01*
X141355319Y-97223065D01*
X141287672Y-97223006D01*
X139748130Y-95683464D01*
X139659887Y-95624502D01*
X139555797Y-95603797D01*
X134113561Y-95603797D01*
X134066225Y-95556378D01*
X133945478Y-95506239D01*
X133957482Y-95445894D01*
X133957482Y-93663464D01*
X134004901Y-93616128D01*
X134062417Y-93477615D01*
X134062547Y-93327635D01*
X134005274Y-93189022D01*
X133899314Y-93082877D01*
X133760801Y-93025361D01*
X133610821Y-93025231D01*
X133472208Y-93082504D01*
X133366063Y-93188464D01*
X133308547Y-93326977D01*
X133308417Y-93476957D01*
X133365690Y-93615570D01*
X133413482Y-93663445D01*
X133413482Y-95333228D01*
X130964380Y-97782330D01*
X130964380Y-97456558D01*
X131816564Y-96604374D01*
X131883566Y-96604432D01*
X132022179Y-96547159D01*
X132128324Y-96441199D01*
X132185840Y-96302686D01*
X132185970Y-96152706D01*
X132128697Y-96014093D01*
X132022737Y-95907948D01*
X131884224Y-95850432D01*
X131734244Y-95850302D01*
X131595631Y-95907575D01*
X131489486Y-96013535D01*
X131431970Y-96152048D01*
X131431911Y-96219695D01*
X130500047Y-97151559D01*
X130441085Y-97239802D01*
X130420380Y-97343892D01*
X130420380Y-98950000D01*
X127330000Y-98950000D01*
X127330000Y-95528802D01*
X130430009Y-95528802D01*
X130487282Y-95667415D01*
X130593242Y-95773560D01*
X130731755Y-95831076D01*
X130881735Y-95831206D01*
X131020348Y-95773933D01*
X131126493Y-95667973D01*
X131184009Y-95529460D01*
X131184139Y-95379480D01*
X131126866Y-95240867D01*
X131020906Y-95134722D01*
X130882393Y-95077206D01*
X130732413Y-95077076D01*
X130593800Y-95134349D01*
X130487655Y-95240309D01*
X130430139Y-95378822D01*
X130430009Y-95528802D01*
X127330000Y-95528802D01*
X127330000Y-94274661D01*
X131702935Y-94274661D01*
X131760208Y-94413274D01*
X131866168Y-94519419D01*
X132004681Y-94576935D01*
X132154661Y-94577065D01*
X132293274Y-94519792D01*
X132399419Y-94413832D01*
X132456935Y-94275319D01*
X132456938Y-94271734D01*
X132469169Y-94271734D01*
X132526442Y-94410347D01*
X132632402Y-94516492D01*
X132770915Y-94574008D01*
X132920895Y-94574138D01*
X133059508Y-94516865D01*
X133165653Y-94410905D01*
X133223169Y-94272392D01*
X133223299Y-94122412D01*
X133166026Y-93983799D01*
X133060066Y-93877654D01*
X132921553Y-93820138D01*
X132771573Y-93820008D01*
X132632960Y-93877281D01*
X132526815Y-93983241D01*
X132469299Y-94121754D01*
X132469169Y-94271734D01*
X132456938Y-94271734D01*
X132457065Y-94125339D01*
X132399792Y-93986726D01*
X132293832Y-93880581D01*
X132155319Y-93823065D01*
X132005339Y-93822935D01*
X131866726Y-93880208D01*
X131760581Y-93986168D01*
X131703065Y-94124681D01*
X131702935Y-94274661D01*
X127330000Y-94274661D01*
X127330000Y-93619002D01*
X129794339Y-93619002D01*
X129851612Y-93757615D01*
X129957572Y-93863760D01*
X130096085Y-93921276D01*
X130246065Y-93921406D01*
X130384678Y-93864133D01*
X130490823Y-93758173D01*
X130548339Y-93619660D01*
X130548464Y-93474661D01*
X131702935Y-93474661D01*
X131760208Y-93613274D01*
X131866168Y-93719419D01*
X132004681Y-93776935D01*
X132154661Y-93777065D01*
X132293274Y-93719792D01*
X132399419Y-93613832D01*
X132456935Y-93475319D01*
X132457065Y-93325339D01*
X132399792Y-93186726D01*
X132293832Y-93080581D01*
X132155319Y-93023065D01*
X132005339Y-93022935D01*
X131866726Y-93080208D01*
X131760581Y-93186168D01*
X131703065Y-93324681D01*
X131702935Y-93474661D01*
X130548464Y-93474661D01*
X130548469Y-93469680D01*
X130491196Y-93331067D01*
X130385236Y-93224922D01*
X130246723Y-93167406D01*
X130096743Y-93167276D01*
X129958130Y-93224549D01*
X129851985Y-93330509D01*
X129794469Y-93469022D01*
X129794339Y-93619002D01*
X127330000Y-93619002D01*
X127330000Y-92972329D01*
X128900237Y-92972329D01*
X128877233Y-92995293D01*
X128819717Y-93133806D01*
X128819587Y-93283786D01*
X128876860Y-93422399D01*
X128982820Y-93528544D01*
X129121333Y-93586060D01*
X129271313Y-93586190D01*
X129409926Y-93528917D01*
X129516071Y-93422957D01*
X129573587Y-93284444D01*
X129573717Y-93134464D01*
X129516444Y-92995851D01*
X129492963Y-92972329D01*
X130041094Y-92972329D01*
X130088430Y-93019748D01*
X130226943Y-93077264D01*
X130376923Y-93077394D01*
X130515536Y-93020121D01*
X130621681Y-92914161D01*
X130679197Y-92775648D01*
X130679284Y-92674661D01*
X131702935Y-92674661D01*
X131760208Y-92813274D01*
X131866168Y-92919419D01*
X132004681Y-92976935D01*
X132154661Y-92977065D01*
X132293274Y-92919792D01*
X132399419Y-92813832D01*
X132456935Y-92675319D01*
X132456935Y-92674661D01*
X132502935Y-92674661D01*
X132560208Y-92813274D01*
X132666168Y-92919419D01*
X132804681Y-92976935D01*
X132954661Y-92977065D01*
X133093274Y-92919792D01*
X133199419Y-92813832D01*
X133256935Y-92675319D01*
X133256935Y-92674661D01*
X133302935Y-92674661D01*
X133360208Y-92813274D01*
X133466168Y-92919419D01*
X133604681Y-92976935D01*
X133754661Y-92977065D01*
X133893274Y-92919792D01*
X133999419Y-92813832D01*
X134056935Y-92675319D01*
X134057065Y-92525339D01*
X133999792Y-92386726D01*
X133893832Y-92280581D01*
X133755319Y-92223065D01*
X133605339Y-92222935D01*
X133466726Y-92280208D01*
X133360581Y-92386168D01*
X133303065Y-92524681D01*
X133302935Y-92674661D01*
X133256935Y-92674661D01*
X133257065Y-92525339D01*
X133199792Y-92386726D01*
X133093832Y-92280581D01*
X132955319Y-92223065D01*
X132805339Y-92222935D01*
X132666726Y-92280208D01*
X132560581Y-92386168D01*
X132503065Y-92524681D01*
X132502935Y-92674661D01*
X132456935Y-92674661D01*
X132457065Y-92525339D01*
X132399792Y-92386726D01*
X132293832Y-92280581D01*
X132155319Y-92223065D01*
X132005339Y-92222935D01*
X131866726Y-92280208D01*
X131760581Y-92386168D01*
X131703065Y-92524681D01*
X131702935Y-92674661D01*
X130679284Y-92674661D01*
X130679327Y-92625668D01*
X130622054Y-92487055D01*
X130516094Y-92380910D01*
X130377581Y-92323394D01*
X130227601Y-92323264D01*
X130088988Y-92380537D01*
X130041113Y-92428329D01*
X129095424Y-92428329D01*
X129199065Y-92324869D01*
X129219505Y-92275645D01*
X129264023Y-92320241D01*
X129402536Y-92377757D01*
X129552516Y-92377887D01*
X129691129Y-92320614D01*
X129797274Y-92214654D01*
X129854790Y-92076141D01*
X129854791Y-92074825D01*
X129912841Y-92098930D01*
X130062821Y-92099060D01*
X130201434Y-92041787D01*
X130307579Y-91935827D01*
X130332977Y-91874661D01*
X133302935Y-91874661D01*
X133360208Y-92013274D01*
X133466168Y-92119419D01*
X133604681Y-92176935D01*
X133754661Y-92177065D01*
X133893274Y-92119792D01*
X133999419Y-92013832D01*
X134056935Y-91875319D01*
X134057065Y-91725339D01*
X134051841Y-91712695D01*
X137281986Y-91712695D01*
X137339259Y-91851308D01*
X137445219Y-91957453D01*
X137583732Y-92014969D01*
X137733712Y-92015099D01*
X137872325Y-91957826D01*
X137978470Y-91851866D01*
X138035986Y-91713353D01*
X138036116Y-91563373D01*
X137978843Y-91424760D01*
X137872883Y-91318615D01*
X137734370Y-91261099D01*
X137584390Y-91260969D01*
X137445777Y-91318242D01*
X137339632Y-91424202D01*
X137282116Y-91562715D01*
X137281986Y-91712695D01*
X134051841Y-91712695D01*
X133999792Y-91586726D01*
X133893832Y-91480581D01*
X133755319Y-91423065D01*
X133605339Y-91422935D01*
X133466726Y-91480208D01*
X133360581Y-91586168D01*
X133303065Y-91724681D01*
X133302935Y-91874661D01*
X130332977Y-91874661D01*
X130365095Y-91797314D01*
X130365225Y-91647334D01*
X130307952Y-91508721D01*
X130201992Y-91402576D01*
X130063479Y-91345060D01*
X129995832Y-91345001D01*
X129980494Y-91329663D01*
X129892251Y-91270701D01*
X129788161Y-91249996D01*
X127330000Y-91249996D01*
X127330000Y-90970110D01*
X131595625Y-90970110D01*
X131699715Y-90949405D01*
X131700673Y-90948765D01*
X131700583Y-91052651D01*
X131757856Y-91191264D01*
X131863816Y-91297409D01*
X132002329Y-91354925D01*
X132152309Y-91355055D01*
X132290922Y-91297782D01*
X132397067Y-91191822D01*
X132445716Y-91074661D01*
X132502935Y-91074661D01*
X132560208Y-91213274D01*
X132666168Y-91319419D01*
X132804681Y-91376935D01*
X132954661Y-91377065D01*
X133093274Y-91319792D01*
X133199419Y-91213832D01*
X133256935Y-91075319D01*
X133256935Y-91074661D01*
X134102935Y-91074661D01*
X134160208Y-91213274D01*
X134266168Y-91319419D01*
X134404681Y-91376935D01*
X134554661Y-91377065D01*
X134693274Y-91319792D01*
X134799419Y-91213832D01*
X134856935Y-91075319D01*
X134856935Y-91074661D01*
X142102935Y-91074661D01*
X142160208Y-91213274D01*
X142266168Y-91319419D01*
X142404681Y-91376935D01*
X142554661Y-91377065D01*
X142693274Y-91319792D01*
X142799419Y-91213832D01*
X142856935Y-91075319D01*
X142856935Y-91074661D01*
X142902935Y-91074661D01*
X142960208Y-91213274D01*
X143066168Y-91319419D01*
X143204681Y-91376935D01*
X143354661Y-91377065D01*
X143493274Y-91319792D01*
X143599419Y-91213832D01*
X143656935Y-91075319D01*
X143657065Y-90925339D01*
X143599792Y-90786726D01*
X143493832Y-90680581D01*
X143355319Y-90623065D01*
X143205339Y-90622935D01*
X143066726Y-90680208D01*
X142960581Y-90786168D01*
X142903065Y-90924681D01*
X142902935Y-91074661D01*
X142856935Y-91074661D01*
X142857065Y-90925339D01*
X142799792Y-90786726D01*
X142693832Y-90680581D01*
X142555319Y-90623065D01*
X142405339Y-90622935D01*
X142266726Y-90680208D01*
X142160581Y-90786168D01*
X142103065Y-90924681D01*
X142102935Y-91074661D01*
X134856935Y-91074661D01*
X134857065Y-90925339D01*
X134799792Y-90786726D01*
X134693832Y-90680581D01*
X134555319Y-90623065D01*
X134405339Y-90622935D01*
X134266726Y-90680208D01*
X134160581Y-90786168D01*
X134103065Y-90924681D01*
X134102935Y-91074661D01*
X133256935Y-91074661D01*
X133257065Y-90925339D01*
X133199792Y-90786726D01*
X133093832Y-90680581D01*
X132955319Y-90623065D01*
X132805339Y-90622935D01*
X132666726Y-90680208D01*
X132560581Y-90786168D01*
X132503065Y-90924681D01*
X132502935Y-91074661D01*
X132445716Y-91074661D01*
X132454583Y-91053309D01*
X132454713Y-90903329D01*
X132397440Y-90764716D01*
X132291480Y-90658571D01*
X132152967Y-90601055D01*
X132077411Y-90600990D01*
X132090615Y-90587786D01*
X132157617Y-90587844D01*
X132296230Y-90530571D01*
X132402375Y-90424611D01*
X132459891Y-90286098D01*
X132459905Y-90269487D01*
X136508109Y-90269487D01*
X136565382Y-90408100D01*
X136671342Y-90514245D01*
X136809855Y-90571761D01*
X136959835Y-90571891D01*
X137098448Y-90514618D01*
X137204593Y-90408658D01*
X137262109Y-90270145D01*
X137262171Y-90197651D01*
X137311936Y-90197651D01*
X137369209Y-90336264D01*
X137475169Y-90442409D01*
X137613682Y-90499925D01*
X137763662Y-90500055D01*
X137902275Y-90442782D01*
X138008420Y-90336822D01*
X138065936Y-90198309D01*
X138065936Y-90197651D01*
X138902935Y-90197651D01*
X138960208Y-90336264D01*
X139066168Y-90442409D01*
X139204681Y-90499925D01*
X139354661Y-90500055D01*
X139493274Y-90442782D01*
X139599419Y-90336822D01*
X139656935Y-90198309D01*
X139656935Y-90197651D01*
X139717825Y-90197651D01*
X139775098Y-90336264D01*
X139881058Y-90442409D01*
X140019571Y-90499925D01*
X140169551Y-90500055D01*
X140308164Y-90442782D01*
X140414309Y-90336822D01*
X140471825Y-90198309D01*
X140471955Y-90048329D01*
X140414682Y-89909716D01*
X140308722Y-89803571D01*
X140170209Y-89746055D01*
X140020229Y-89745925D01*
X139881616Y-89803198D01*
X139775471Y-89909158D01*
X139717955Y-90047671D01*
X139717825Y-90197651D01*
X139656935Y-90197651D01*
X139657065Y-90048329D01*
X139599792Y-89909716D01*
X139493832Y-89803571D01*
X139355319Y-89746055D01*
X139205339Y-89745925D01*
X139066726Y-89803198D01*
X138960581Y-89909158D01*
X138903065Y-90047671D01*
X138902935Y-90197651D01*
X138065936Y-90197651D01*
X138066066Y-90048329D01*
X138008793Y-89909716D01*
X137902833Y-89803571D01*
X137764320Y-89746055D01*
X137614340Y-89745925D01*
X137475727Y-89803198D01*
X137369582Y-89909158D01*
X137312066Y-90047671D01*
X137311936Y-90197651D01*
X137262171Y-90197651D01*
X137262239Y-90120165D01*
X137204966Y-89981552D01*
X137099006Y-89875407D01*
X136960493Y-89817891D01*
X136810513Y-89817761D01*
X136671900Y-89875034D01*
X136565755Y-89980994D01*
X136508239Y-90119507D01*
X136508109Y-90269487D01*
X132459905Y-90269487D01*
X132460021Y-90136118D01*
X132402748Y-89997505D01*
X132296788Y-89891360D01*
X132158275Y-89833844D01*
X132008295Y-89833714D01*
X131869682Y-89890987D01*
X131763537Y-89996947D01*
X131706021Y-90135460D01*
X131705962Y-90203107D01*
X131482959Y-90426110D01*
X127330000Y-90426110D01*
X127330000Y-90001609D01*
X129072173Y-90001609D01*
X129129446Y-90140222D01*
X129235406Y-90246367D01*
X129373919Y-90303883D01*
X129523899Y-90304013D01*
X129662512Y-90246740D01*
X129768657Y-90140780D01*
X129826173Y-90002267D01*
X129826303Y-89852287D01*
X129769030Y-89713674D01*
X129663070Y-89607529D01*
X129524557Y-89550013D01*
X129374577Y-89549883D01*
X129235964Y-89607156D01*
X129129819Y-89713116D01*
X129072303Y-89851629D01*
X129072173Y-90001609D01*
X127330000Y-90001609D01*
X127330000Y-89638867D01*
X127874375Y-89638867D01*
X127931648Y-89777480D01*
X128037608Y-89883625D01*
X128176121Y-89941141D01*
X128326101Y-89941271D01*
X128464714Y-89883998D01*
X128570859Y-89778038D01*
X128628375Y-89639525D01*
X128628505Y-89489545D01*
X128626754Y-89485305D01*
X131698559Y-89485305D01*
X131755832Y-89623918D01*
X131861792Y-89730063D01*
X132000305Y-89787579D01*
X132150285Y-89787709D01*
X132288898Y-89730436D01*
X132395043Y-89624476D01*
X132452559Y-89485963D01*
X132452568Y-89474661D01*
X140502935Y-89474661D01*
X140560208Y-89613274D01*
X140666168Y-89719419D01*
X140804681Y-89776935D01*
X140954661Y-89777065D01*
X141093274Y-89719792D01*
X141199419Y-89613832D01*
X141256935Y-89475319D01*
X141257065Y-89325339D01*
X141199792Y-89186726D01*
X141093832Y-89080581D01*
X140955319Y-89023065D01*
X140805339Y-89022935D01*
X140666726Y-89080208D01*
X140560581Y-89186168D01*
X140503065Y-89324681D01*
X140502935Y-89474661D01*
X132452568Y-89474661D01*
X132452689Y-89335983D01*
X132395416Y-89197370D01*
X132289456Y-89091225D01*
X132150943Y-89033709D01*
X132000963Y-89033579D01*
X131862350Y-89090852D01*
X131756205Y-89196812D01*
X131698689Y-89335325D01*
X131698559Y-89485305D01*
X128626754Y-89485305D01*
X128571232Y-89350932D01*
X128465272Y-89244787D01*
X128326759Y-89187271D01*
X128176779Y-89187141D01*
X128038166Y-89244414D01*
X127932021Y-89350374D01*
X127874505Y-89488887D01*
X127874375Y-89638867D01*
X127330000Y-89638867D01*
X127330000Y-88724318D01*
X127359472Y-88694897D01*
X127385201Y-88632935D01*
X131706984Y-88632935D01*
X131764257Y-88771548D01*
X131870217Y-88877693D01*
X132008730Y-88935209D01*
X132158710Y-88935339D01*
X132297323Y-88878066D01*
X132403468Y-88772106D01*
X132443930Y-88674661D01*
X132502935Y-88674661D01*
X132560208Y-88813274D01*
X132666168Y-88919419D01*
X132804681Y-88976935D01*
X132954661Y-88977065D01*
X133093274Y-88919792D01*
X133199419Y-88813832D01*
X133249483Y-88693263D01*
X134896241Y-88693263D01*
X134953514Y-88831876D01*
X135059474Y-88938021D01*
X135197987Y-88995537D01*
X135347967Y-88995667D01*
X135486580Y-88938394D01*
X135592725Y-88832434D01*
X135650241Y-88693921D01*
X135650257Y-88674661D01*
X141302935Y-88674661D01*
X141360208Y-88813274D01*
X141466168Y-88919419D01*
X141604681Y-88976935D01*
X141754661Y-88977065D01*
X141893274Y-88919792D01*
X141999419Y-88813832D01*
X142056935Y-88675319D01*
X142056939Y-88669691D01*
X142900961Y-88669691D01*
X142958234Y-88808304D01*
X143064194Y-88914449D01*
X143202707Y-88971965D01*
X143352687Y-88972095D01*
X143491300Y-88914822D01*
X143597445Y-88808862D01*
X143654961Y-88670349D01*
X143654970Y-88659171D01*
X143705767Y-88659171D01*
X143763040Y-88797784D01*
X143869000Y-88903929D01*
X144007513Y-88961445D01*
X144157493Y-88961575D01*
X144296106Y-88904302D01*
X144402251Y-88798342D01*
X144444468Y-88696671D01*
X144500583Y-88696671D01*
X144557856Y-88835284D01*
X144663816Y-88941429D01*
X144802329Y-88998945D01*
X144952309Y-88999075D01*
X145090922Y-88941802D01*
X145197067Y-88835842D01*
X145254583Y-88697329D01*
X145254713Y-88547349D01*
X145197440Y-88408736D01*
X145091480Y-88302591D01*
X144952967Y-88245075D01*
X144802987Y-88244945D01*
X144664374Y-88302218D01*
X144558229Y-88408178D01*
X144500713Y-88546691D01*
X144500583Y-88696671D01*
X144444468Y-88696671D01*
X144459767Y-88659829D01*
X144459897Y-88509849D01*
X144402624Y-88371236D01*
X144296664Y-88265091D01*
X144158151Y-88207575D01*
X144008171Y-88207445D01*
X143869558Y-88264718D01*
X143763413Y-88370678D01*
X143705897Y-88509191D01*
X143705767Y-88659171D01*
X143654970Y-88659171D01*
X143655091Y-88520369D01*
X143597818Y-88381756D01*
X143491858Y-88275611D01*
X143353345Y-88218095D01*
X143203365Y-88217965D01*
X143064752Y-88275238D01*
X142958607Y-88381198D01*
X142901091Y-88519711D01*
X142900961Y-88669691D01*
X142056939Y-88669691D01*
X142057065Y-88525339D01*
X141999792Y-88386726D01*
X141893832Y-88280581D01*
X141755319Y-88223065D01*
X141605339Y-88222935D01*
X141466726Y-88280208D01*
X141360581Y-88386168D01*
X141303065Y-88524681D01*
X141302935Y-88674661D01*
X135650257Y-88674661D01*
X135650371Y-88543941D01*
X135593098Y-88405328D01*
X135487138Y-88299183D01*
X135348625Y-88241667D01*
X135198645Y-88241537D01*
X135060032Y-88298810D01*
X134953887Y-88404770D01*
X134896371Y-88543283D01*
X134896241Y-88693263D01*
X133249483Y-88693263D01*
X133256935Y-88675319D01*
X133257065Y-88525339D01*
X133199792Y-88386726D01*
X133093832Y-88280581D01*
X132955319Y-88223065D01*
X132805339Y-88222935D01*
X132666726Y-88280208D01*
X132560581Y-88386168D01*
X132503065Y-88524681D01*
X132502935Y-88674661D01*
X132443930Y-88674661D01*
X132460984Y-88633593D01*
X132461114Y-88483613D01*
X132403841Y-88345000D01*
X132297881Y-88238855D01*
X132159368Y-88181339D01*
X132009388Y-88181209D01*
X131870775Y-88238482D01*
X131764630Y-88344442D01*
X131707114Y-88482955D01*
X131706984Y-88632935D01*
X127385201Y-88632935D01*
X127416988Y-88556384D01*
X127417118Y-88406404D01*
X127359845Y-88267791D01*
X127330000Y-88237894D01*
X127330000Y-87874661D01*
X140502935Y-87874661D01*
X140560208Y-88013274D01*
X140666168Y-88119419D01*
X140804681Y-88176935D01*
X140954661Y-88177065D01*
X141093274Y-88119792D01*
X141199419Y-88013832D01*
X141256935Y-87875319D01*
X141257065Y-87725339D01*
X141199792Y-87586726D01*
X141093832Y-87480581D01*
X140955319Y-87423065D01*
X140805339Y-87422935D01*
X140666726Y-87480208D01*
X140560581Y-87586168D01*
X140503065Y-87724681D01*
X140502935Y-87874661D01*
X127330000Y-87874661D01*
X127330000Y-87209801D01*
X128399590Y-87209801D01*
X128456863Y-87348414D01*
X128562823Y-87454559D01*
X128701336Y-87512075D01*
X128851316Y-87512205D01*
X128989929Y-87454932D01*
X129096074Y-87348972D01*
X129153590Y-87210459D01*
X129153720Y-87060479D01*
X129096447Y-86921866D01*
X128990487Y-86815721D01*
X128851974Y-86758205D01*
X128701994Y-86758075D01*
X128563381Y-86815348D01*
X128457236Y-86921308D01*
X128399720Y-87059821D01*
X128399590Y-87209801D01*
X127330000Y-87209801D01*
X127330000Y-85179376D01*
X127942092Y-85179376D01*
X127989428Y-85226795D01*
X128127941Y-85284311D01*
X128277921Y-85284441D01*
X128416534Y-85227168D01*
X128446075Y-85197678D01*
X128446049Y-85228221D01*
X128503322Y-85366834D01*
X128609282Y-85472979D01*
X128747795Y-85530495D01*
X128897775Y-85530625D01*
X129036388Y-85473352D01*
X129142533Y-85367392D01*
X129200049Y-85228879D01*
X129200179Y-85078899D01*
X129142906Y-84940286D01*
X129036946Y-84834141D01*
X128898433Y-84776625D01*
X128748453Y-84776495D01*
X128609840Y-84833768D01*
X128580299Y-84863258D01*
X128580325Y-84832715D01*
X128523052Y-84694102D01*
X128463147Y-84634092D01*
X128502734Y-84594574D01*
X128560250Y-84456061D01*
X128560256Y-84449441D01*
X128685433Y-84449550D01*
X128824046Y-84392277D01*
X128930191Y-84286317D01*
X128987707Y-84147804D01*
X128987750Y-84098251D01*
X129037099Y-84131225D01*
X129110610Y-84145847D01*
X129110602Y-84154590D01*
X129167875Y-84293203D01*
X129273835Y-84399348D01*
X129412348Y-84456864D01*
X129562328Y-84456994D01*
X129700941Y-84399721D01*
X129807086Y-84293761D01*
X129839323Y-84216125D01*
X131620785Y-85997587D01*
X131709028Y-86056549D01*
X131755617Y-86065816D01*
X131706091Y-86185086D01*
X131705961Y-86335066D01*
X131763234Y-86473679D01*
X131869194Y-86579824D01*
X131989138Y-86629629D01*
X131866726Y-86680208D01*
X131760581Y-86786168D01*
X131703065Y-86924681D01*
X131702935Y-87074661D01*
X131760208Y-87213274D01*
X131866168Y-87319419D01*
X132004681Y-87376935D01*
X132154661Y-87377065D01*
X132293274Y-87319792D01*
X132399419Y-87213832D01*
X132456935Y-87075319D01*
X132456935Y-87074661D01*
X142902935Y-87074661D01*
X142960208Y-87213274D01*
X143066168Y-87319419D01*
X143204681Y-87376935D01*
X143354661Y-87377065D01*
X143493274Y-87319792D01*
X143599419Y-87213832D01*
X143656935Y-87075319D01*
X143656955Y-87052225D01*
X144517251Y-87052225D01*
X144574524Y-87190838D01*
X144680484Y-87296983D01*
X144818997Y-87354499D01*
X144968977Y-87354629D01*
X145107590Y-87297356D01*
X145213735Y-87191396D01*
X145271251Y-87052883D01*
X145271381Y-86902903D01*
X145214108Y-86764290D01*
X145108148Y-86658145D01*
X144969635Y-86600629D01*
X144819655Y-86600499D01*
X144681042Y-86657772D01*
X144574897Y-86763732D01*
X144517381Y-86902245D01*
X144517251Y-87052225D01*
X143656955Y-87052225D01*
X143657065Y-86925339D01*
X143599792Y-86786726D01*
X143493832Y-86680581D01*
X143355319Y-86623065D01*
X143205339Y-86622935D01*
X143066726Y-86680208D01*
X142960581Y-86786168D01*
X142903065Y-86924681D01*
X142902935Y-87074661D01*
X132456935Y-87074661D01*
X132457065Y-86925339D01*
X132399792Y-86786726D01*
X132293832Y-86680581D01*
X132173888Y-86630776D01*
X132296300Y-86580197D01*
X132402445Y-86474237D01*
X132459961Y-86335724D01*
X132460013Y-86274661D01*
X134902935Y-86274661D01*
X134960208Y-86413274D01*
X135066168Y-86519419D01*
X135204681Y-86576935D01*
X135354661Y-86577065D01*
X135493274Y-86519792D01*
X135599419Y-86413832D01*
X135656935Y-86275319D01*
X135656935Y-86274661D01*
X141302935Y-86274661D01*
X141360208Y-86413274D01*
X141466168Y-86519419D01*
X141604681Y-86576935D01*
X141754661Y-86577065D01*
X141893274Y-86519792D01*
X141999419Y-86413832D01*
X142056935Y-86275319D01*
X142057065Y-86125339D01*
X141999792Y-85986726D01*
X141893832Y-85880581D01*
X141755319Y-85823065D01*
X141605339Y-85822935D01*
X141466726Y-85880208D01*
X141360581Y-85986168D01*
X141303065Y-86124681D01*
X141302935Y-86274661D01*
X135656935Y-86274661D01*
X135657065Y-86125339D01*
X135599792Y-85986726D01*
X135493832Y-85880581D01*
X135355319Y-85823065D01*
X135205339Y-85822935D01*
X135066726Y-85880208D01*
X134960581Y-85986168D01*
X134903065Y-86124681D01*
X134902935Y-86274661D01*
X132460013Y-86274661D01*
X132460091Y-86185744D01*
X132415264Y-86077254D01*
X133274746Y-86077254D01*
X133378836Y-86056549D01*
X133467079Y-85997587D01*
X133687659Y-85777007D01*
X133754661Y-85777065D01*
X133893274Y-85719792D01*
X133999419Y-85613832D01*
X134054987Y-85480008D01*
X135675930Y-85480008D01*
X135737306Y-85628549D01*
X135850853Y-85742295D01*
X135999287Y-85803930D01*
X136160008Y-85804070D01*
X136308549Y-85742694D01*
X136422295Y-85629147D01*
X136483930Y-85480713D01*
X136483935Y-85474661D01*
X140502935Y-85474661D01*
X140560208Y-85613274D01*
X140666168Y-85719419D01*
X140804681Y-85776935D01*
X140954661Y-85777065D01*
X141093274Y-85719792D01*
X141199419Y-85613832D01*
X141256935Y-85475319D01*
X141256935Y-85474661D01*
X141302935Y-85474661D01*
X141360208Y-85613274D01*
X141466168Y-85719419D01*
X141604681Y-85776935D01*
X141754661Y-85777065D01*
X141893274Y-85719792D01*
X141999419Y-85613832D01*
X142056935Y-85475319D01*
X142057065Y-85325339D01*
X141999792Y-85186726D01*
X141893832Y-85080581D01*
X141755319Y-85023065D01*
X141605339Y-85022935D01*
X141466726Y-85080208D01*
X141360581Y-85186168D01*
X141303065Y-85324681D01*
X141302935Y-85474661D01*
X141256935Y-85474661D01*
X141257065Y-85325339D01*
X141199792Y-85186726D01*
X141093832Y-85080581D01*
X140955319Y-85023065D01*
X140805339Y-85022935D01*
X140666726Y-85080208D01*
X140560581Y-85186168D01*
X140503065Y-85324681D01*
X140502935Y-85474661D01*
X136483935Y-85474661D01*
X136484070Y-85319992D01*
X136422694Y-85171451D01*
X136309147Y-85057705D01*
X136160713Y-84996070D01*
X135999992Y-84995930D01*
X135851451Y-85057306D01*
X135737705Y-85170853D01*
X135676070Y-85319287D01*
X135675930Y-85480008D01*
X134054987Y-85480008D01*
X134056935Y-85475319D01*
X134057065Y-85325339D01*
X133999792Y-85186726D01*
X133893832Y-85080581D01*
X133755319Y-85023065D01*
X133605339Y-85022935D01*
X133466726Y-85080208D01*
X133360581Y-85186168D01*
X133303065Y-85324681D01*
X133303006Y-85392328D01*
X133189954Y-85505380D01*
X133211576Y-85453309D01*
X133211706Y-85303329D01*
X133154433Y-85164716D01*
X133048473Y-85058571D01*
X132909960Y-85001055D01*
X132759980Y-85000925D01*
X132621367Y-85058198D01*
X132515222Y-85164158D01*
X132457706Y-85302671D01*
X132457576Y-85452651D01*
X132490880Y-85533254D01*
X132416724Y-85533254D01*
X132449920Y-85453309D01*
X132450050Y-85303329D01*
X132392777Y-85164716D01*
X132286817Y-85058571D01*
X132148304Y-85001055D01*
X131998324Y-85000925D01*
X131859711Y-85058198D01*
X131753566Y-85164158D01*
X131696050Y-85302671D01*
X131696049Y-85303519D01*
X130342826Y-83950296D01*
X130417902Y-83919275D01*
X130524047Y-83813315D01*
X130581563Y-83674802D01*
X130581693Y-83524822D01*
X130524420Y-83386209D01*
X130476628Y-83338334D01*
X130476628Y-82736596D01*
X130455923Y-82632506D01*
X130396961Y-82544263D01*
X130146718Y-82294020D01*
X130146718Y-82270362D01*
X131468689Y-83592333D01*
X131473348Y-83595446D01*
X131476281Y-83598379D01*
X131564524Y-83657341D01*
X131668614Y-83678046D01*
X131737762Y-83678046D01*
X131706747Y-83752737D01*
X131706617Y-83902717D01*
X131763890Y-84041330D01*
X131869850Y-84147475D01*
X131939892Y-84176559D01*
X131848825Y-84214187D01*
X131742680Y-84320147D01*
X131685164Y-84458660D01*
X131685034Y-84608640D01*
X131742307Y-84747253D01*
X131848267Y-84853398D01*
X131986780Y-84910914D01*
X132136760Y-84911044D01*
X132275373Y-84853771D01*
X132381518Y-84747811D01*
X132413885Y-84669861D01*
X133294877Y-84669861D01*
X133352150Y-84808474D01*
X133458110Y-84914619D01*
X133596623Y-84972135D01*
X133746603Y-84972265D01*
X133885216Y-84914992D01*
X133991361Y-84809032D01*
X134048877Y-84670519D01*
X134048930Y-84608746D01*
X137303491Y-84608746D01*
X137360764Y-84747359D01*
X137466724Y-84853504D01*
X137605237Y-84911020D01*
X137755217Y-84911150D01*
X137893830Y-84853877D01*
X137999975Y-84747917D01*
X138025681Y-84686010D01*
X138895452Y-84686010D01*
X138952725Y-84824623D01*
X139058685Y-84930768D01*
X139197198Y-84988284D01*
X139347178Y-84988414D01*
X139485791Y-84931141D01*
X139591936Y-84825181D01*
X139649452Y-84686668D01*
X139649582Y-84536688D01*
X139592309Y-84398075D01*
X139486349Y-84291930D01*
X139347836Y-84234414D01*
X139197856Y-84234284D01*
X139059243Y-84291557D01*
X138953098Y-84397517D01*
X138895582Y-84536030D01*
X138895452Y-84686010D01*
X138025681Y-84686010D01*
X138057491Y-84609404D01*
X138057621Y-84459424D01*
X138000348Y-84320811D01*
X137894388Y-84214666D01*
X137755875Y-84157150D01*
X137605895Y-84157020D01*
X137467282Y-84214293D01*
X137361137Y-84320253D01*
X137303621Y-84458766D01*
X137303491Y-84608746D01*
X134048930Y-84608746D01*
X134049007Y-84520539D01*
X133991734Y-84381926D01*
X133885774Y-84275781D01*
X133747261Y-84218265D01*
X133597281Y-84218135D01*
X133458668Y-84275408D01*
X133352523Y-84381368D01*
X133295007Y-84519881D01*
X133294877Y-84669861D01*
X132413885Y-84669861D01*
X132439034Y-84609298D01*
X132439164Y-84459318D01*
X132381891Y-84320705D01*
X132275931Y-84214560D01*
X132205889Y-84185476D01*
X132296956Y-84147848D01*
X132403101Y-84041888D01*
X132460617Y-83903375D01*
X132460747Y-83753395D01*
X132458449Y-83747834D01*
X132534965Y-83747834D01*
X132503954Y-83822516D01*
X132503824Y-83972496D01*
X132561097Y-84111109D01*
X132667057Y-84217254D01*
X132805570Y-84274770D01*
X132955550Y-84274900D01*
X133094163Y-84217627D01*
X133200308Y-84111667D01*
X133257824Y-83973154D01*
X133257954Y-83823174D01*
X133226825Y-83747834D01*
X133243168Y-83747834D01*
X133302993Y-83807659D01*
X133302935Y-83874661D01*
X133360208Y-84013274D01*
X133466168Y-84119419D01*
X133604681Y-84176935D01*
X133754661Y-84177065D01*
X133893274Y-84119792D01*
X133999419Y-84013832D01*
X134056935Y-83875319D01*
X134056935Y-83874661D01*
X134102935Y-83874661D01*
X134160208Y-84013274D01*
X134266168Y-84119419D01*
X134404681Y-84176935D01*
X134554661Y-84177065D01*
X134693274Y-84119792D01*
X134799419Y-84013832D01*
X134856935Y-83875319D01*
X134856935Y-83874661D01*
X142102935Y-83874661D01*
X142160208Y-84013274D01*
X142266168Y-84119419D01*
X142404681Y-84176935D01*
X142554661Y-84177065D01*
X142693274Y-84119792D01*
X142799419Y-84013832D01*
X142856935Y-83875319D01*
X142856935Y-83874661D01*
X142902935Y-83874661D01*
X142960208Y-84013274D01*
X143066168Y-84119419D01*
X143204681Y-84176935D01*
X143354661Y-84177065D01*
X143493274Y-84119792D01*
X143599419Y-84013832D01*
X143656935Y-83875319D01*
X143656954Y-83852651D01*
X143726121Y-83852651D01*
X143783394Y-83991264D01*
X143889354Y-84097409D01*
X144027867Y-84154925D01*
X144177847Y-84155055D01*
X144316460Y-84097782D01*
X144422605Y-83991822D01*
X144446175Y-83935058D01*
X144496871Y-83935058D01*
X144554144Y-84073671D01*
X144660104Y-84179816D01*
X144798617Y-84237332D01*
X144803109Y-84237336D01*
X144702391Y-84278951D01*
X144596246Y-84384911D01*
X144538730Y-84523424D01*
X144538600Y-84673404D01*
X144595873Y-84812017D01*
X144701833Y-84918162D01*
X144840346Y-84975678D01*
X144990326Y-84975808D01*
X145128939Y-84918535D01*
X145235084Y-84812575D01*
X145292600Y-84674062D01*
X145292730Y-84524082D01*
X145235457Y-84385469D01*
X145129497Y-84279324D01*
X144990984Y-84221808D01*
X144986492Y-84221804D01*
X145087210Y-84180189D01*
X145193355Y-84074229D01*
X145250871Y-83935716D01*
X145251001Y-83785736D01*
X145193728Y-83647123D01*
X145087768Y-83540978D01*
X144949255Y-83483462D01*
X144799275Y-83483332D01*
X144660662Y-83540605D01*
X144554517Y-83646565D01*
X144497001Y-83785078D01*
X144496871Y-83935058D01*
X144446175Y-83935058D01*
X144480121Y-83853309D01*
X144480251Y-83703329D01*
X144422978Y-83564716D01*
X144317018Y-83458571D01*
X144178505Y-83401055D01*
X144028525Y-83400925D01*
X143889912Y-83458198D01*
X143783767Y-83564158D01*
X143726251Y-83702671D01*
X143726121Y-83852651D01*
X143656954Y-83852651D01*
X143657065Y-83725339D01*
X143599792Y-83586726D01*
X143493832Y-83480581D01*
X143355319Y-83423065D01*
X143205339Y-83422935D01*
X143066726Y-83480208D01*
X142960581Y-83586168D01*
X142903065Y-83724681D01*
X142902935Y-83874661D01*
X142856935Y-83874661D01*
X142857065Y-83725339D01*
X142799792Y-83586726D01*
X142693832Y-83480581D01*
X142555319Y-83423065D01*
X142405339Y-83422935D01*
X142266726Y-83480208D01*
X142160581Y-83586168D01*
X142103065Y-83724681D01*
X142102935Y-83874661D01*
X134856935Y-83874661D01*
X134857065Y-83725339D01*
X134799792Y-83586726D01*
X134693832Y-83480581D01*
X134555319Y-83423065D01*
X134405339Y-83422935D01*
X134266726Y-83480208D01*
X134160581Y-83586168D01*
X134103065Y-83724681D01*
X134102935Y-83874661D01*
X134056935Y-83874661D01*
X134057065Y-83725339D01*
X133999792Y-83586726D01*
X133893832Y-83480581D01*
X133755319Y-83423065D01*
X133687672Y-83423006D01*
X133641633Y-83376967D01*
X133754661Y-83377065D01*
X133893274Y-83319792D01*
X133999419Y-83213832D01*
X134048068Y-83096671D01*
X134902935Y-83096671D01*
X134960208Y-83235284D01*
X135066168Y-83341429D01*
X135204681Y-83398945D01*
X135354661Y-83399075D01*
X135493274Y-83341802D01*
X135599419Y-83235842D01*
X135656935Y-83097329D01*
X135657065Y-82947349D01*
X135599792Y-82808736D01*
X135493832Y-82702591D01*
X135355319Y-82645075D01*
X135205339Y-82644945D01*
X135066726Y-82702218D01*
X134960581Y-82808178D01*
X134903065Y-82946691D01*
X134902935Y-83096671D01*
X134048068Y-83096671D01*
X134056935Y-83075319D01*
X134057065Y-82925339D01*
X133999792Y-82786726D01*
X133893832Y-82680581D01*
X133755319Y-82623065D01*
X133687672Y-82623006D01*
X133632249Y-82567583D01*
X133723050Y-82567662D01*
X133861663Y-82510389D01*
X133967808Y-82404429D01*
X134025324Y-82265916D01*
X134025333Y-82254816D01*
X134099443Y-82254816D01*
X134156716Y-82393429D01*
X134262676Y-82499574D01*
X134401189Y-82557090D01*
X134551169Y-82557220D01*
X134689782Y-82499947D01*
X134795927Y-82393987D01*
X134853443Y-82255474D01*
X134853573Y-82105494D01*
X134796300Y-81966881D01*
X134690340Y-81860736D01*
X134551827Y-81803220D01*
X134401847Y-81803090D01*
X134263234Y-81860363D01*
X134157089Y-81966323D01*
X134099573Y-82104836D01*
X134099443Y-82254816D01*
X134025333Y-82254816D01*
X134025454Y-82115936D01*
X133968181Y-81977323D01*
X133862221Y-81871178D01*
X133723708Y-81813662D01*
X133573728Y-81813532D01*
X133435115Y-81870805D01*
X133328970Y-81976765D01*
X133271454Y-82115278D01*
X133271324Y-82265258D01*
X133279515Y-82285081D01*
X133226545Y-82274545D01*
X132417123Y-82274545D01*
X132456942Y-82178652D01*
X132457072Y-82028672D01*
X132399799Y-81890059D01*
X132293839Y-81783914D01*
X132216155Y-81751657D01*
X132293274Y-81719792D01*
X132399419Y-81613832D01*
X132431677Y-81536146D01*
X132463547Y-81613278D01*
X132569507Y-81719423D01*
X132708020Y-81776939D01*
X132858000Y-81777069D01*
X132996613Y-81719796D01*
X133102758Y-81613836D01*
X133154451Y-81489346D01*
X133250294Y-81489346D01*
X133307567Y-81627959D01*
X133413527Y-81734104D01*
X133552040Y-81791620D01*
X133702020Y-81791750D01*
X133840633Y-81734477D01*
X133946778Y-81628517D01*
X134004294Y-81490004D01*
X134004301Y-81481412D01*
X134094305Y-81481412D01*
X134151578Y-81620025D01*
X134257538Y-81726170D01*
X134396051Y-81783686D01*
X134546031Y-81783816D01*
X134684644Y-81726543D01*
X134790789Y-81620583D01*
X134848305Y-81482070D01*
X134848435Y-81332090D01*
X134791162Y-81193477D01*
X134685202Y-81087332D01*
X134546689Y-81029816D01*
X134396709Y-81029686D01*
X134258096Y-81086959D01*
X134151951Y-81192919D01*
X134094435Y-81331432D01*
X134094305Y-81481412D01*
X134004301Y-81481412D01*
X134004424Y-81340024D01*
X133947151Y-81201411D01*
X133841191Y-81095266D01*
X133702678Y-81037750D01*
X133552698Y-81037620D01*
X133414085Y-81094893D01*
X133307940Y-81200853D01*
X133250424Y-81339366D01*
X133250294Y-81489346D01*
X133154451Y-81489346D01*
X133160274Y-81475323D01*
X133160404Y-81325343D01*
X133103131Y-81186730D01*
X132997171Y-81080585D01*
X132858658Y-81023069D01*
X132708678Y-81022939D01*
X132570065Y-81080212D01*
X132463920Y-81186172D01*
X132431662Y-81263858D01*
X132399792Y-81186726D01*
X132293832Y-81080581D01*
X132155319Y-81023065D01*
X132005339Y-81022935D01*
X131866726Y-81080208D01*
X131760581Y-81186168D01*
X131703065Y-81324681D01*
X131702935Y-81474661D01*
X131760208Y-81613274D01*
X131866168Y-81719419D01*
X131943852Y-81751676D01*
X131866733Y-81783541D01*
X131760588Y-81889501D01*
X131703072Y-82028014D01*
X131702970Y-82145426D01*
X130227957Y-80670413D01*
X130898237Y-80670413D01*
X130955510Y-80809026D01*
X131061470Y-80915171D01*
X131199983Y-80972687D01*
X131349963Y-80972817D01*
X131488576Y-80915544D01*
X131594721Y-80809584D01*
X131652237Y-80671071D01*
X131652367Y-80521091D01*
X131595094Y-80382478D01*
X131489134Y-80276333D01*
X131350621Y-80218817D01*
X131200641Y-80218687D01*
X131062028Y-80275960D01*
X130955883Y-80381920D01*
X130898367Y-80520433D01*
X130898237Y-80670413D01*
X130227957Y-80670413D01*
X129834997Y-80277453D01*
X129835027Y-80241896D01*
X130112839Y-80241896D01*
X130170112Y-80380509D01*
X130276072Y-80486654D01*
X130414585Y-80544170D01*
X130564565Y-80544300D01*
X130703178Y-80487027D01*
X130809323Y-80381067D01*
X130866839Y-80242554D01*
X130866969Y-80092574D01*
X130809696Y-79953961D01*
X130703736Y-79847816D01*
X130565223Y-79790300D01*
X130415243Y-79790170D01*
X130276630Y-79847443D01*
X130170485Y-79953403D01*
X130112969Y-80091916D01*
X130112839Y-80241896D01*
X129835027Y-80241896D01*
X129835055Y-80210451D01*
X129777782Y-80071838D01*
X129671822Y-79965693D01*
X129533309Y-79908177D01*
X129383329Y-79908047D01*
X129244716Y-79965320D01*
X129138571Y-80071280D01*
X129138146Y-80072304D01*
X129018912Y-80022794D01*
X128868932Y-80022664D01*
X128730319Y-80079937D01*
X128680032Y-80130136D01*
X128630414Y-80080431D01*
X128491901Y-80022915D01*
X128341921Y-80022785D01*
X128203308Y-80080058D01*
X128149321Y-80133951D01*
X128103457Y-80088007D01*
X127964944Y-80030491D01*
X127933820Y-80030464D01*
X128299737Y-79664547D01*
X131470245Y-79664547D01*
X131527518Y-79803160D01*
X131633478Y-79909305D01*
X131771991Y-79966821D01*
X131921971Y-79966951D01*
X132060584Y-79909678D01*
X132166729Y-79803718D01*
X132224245Y-79665205D01*
X132224375Y-79515225D01*
X132167102Y-79376612D01*
X132061142Y-79270467D01*
X131922629Y-79212951D01*
X131772649Y-79212821D01*
X131634036Y-79270094D01*
X131527891Y-79376054D01*
X131470375Y-79514567D01*
X131470245Y-79664547D01*
X128299737Y-79664547D01*
X128422286Y-79541998D01*
X131185203Y-79541998D01*
X131289293Y-79521293D01*
X131377536Y-79462331D01*
X131716985Y-79122882D01*
X131783987Y-79122940D01*
X131922600Y-79065667D01*
X132028745Y-78959707D01*
X132086261Y-78821194D01*
X132086391Y-78671214D01*
X132029118Y-78532601D01*
X131923158Y-78426456D01*
X131784645Y-78368940D01*
X131634665Y-78368810D01*
X131496052Y-78426083D01*
X131389907Y-78532043D01*
X131332391Y-78670556D01*
X131332332Y-78738203D01*
X131072537Y-78997998D01*
X130774018Y-78997998D01*
X131260793Y-78511223D01*
X131327795Y-78511281D01*
X131466408Y-78454008D01*
X131572553Y-78348048D01*
X131630069Y-78209535D01*
X131630199Y-78059555D01*
X131572926Y-77920942D01*
X131466966Y-77814797D01*
X131328453Y-77757281D01*
X131233854Y-77757199D01*
X131233893Y-77712159D01*
X131176620Y-77573546D01*
X131070660Y-77467401D01*
X130932147Y-77409885D01*
X130782167Y-77409755D01*
X130643554Y-77467028D01*
X130537409Y-77572988D01*
X130479893Y-77711501D01*
X130479763Y-77861481D01*
X130537036Y-78000094D01*
X130642996Y-78106239D01*
X130781509Y-78163755D01*
X130838879Y-78163805D01*
X130321697Y-78680987D01*
X128245432Y-78680987D01*
X128317904Y-78608515D01*
X128376866Y-78520272D01*
X128378054Y-78514298D01*
X128444990Y-78447479D01*
X128502506Y-78308966D01*
X128502543Y-78265710D01*
X128515225Y-78270976D01*
X128665205Y-78271106D01*
X128803818Y-78213833D01*
X128909963Y-78107873D01*
X128967479Y-77969360D01*
X128967609Y-77819380D01*
X128910336Y-77680767D01*
X128804376Y-77574622D01*
X128665863Y-77517106D01*
X128598216Y-77517047D01*
X128582878Y-77501709D01*
X128494635Y-77442747D01*
X128484296Y-77440690D01*
X128501704Y-77398766D01*
X128569614Y-77426965D01*
X128719594Y-77427095D01*
X128858207Y-77369822D01*
X128964352Y-77263862D01*
X129002757Y-77171373D01*
X129025468Y-77194084D01*
X129025470Y-77194087D01*
X129046170Y-77207918D01*
X129115335Y-77254133D01*
X129221339Y-77275219D01*
X129221344Y-77275218D01*
X131699846Y-77275218D01*
X131603876Y-77371021D01*
X131546360Y-77509534D01*
X131546230Y-77659514D01*
X131603503Y-77798127D01*
X131709463Y-77904272D01*
X131847976Y-77961788D01*
X131997956Y-77961918D01*
X132136569Y-77904645D01*
X132242714Y-77798685D01*
X132300230Y-77660172D01*
X132300360Y-77510192D01*
X132243087Y-77371579D01*
X132146894Y-77275218D01*
X132159137Y-77275218D01*
X132282461Y-77398542D01*
X132372326Y-77458588D01*
X132478330Y-77479674D01*
X132478335Y-77479673D01*
X132504995Y-77479673D01*
X132547340Y-77522092D01*
X132685853Y-77579608D01*
X132835833Y-77579738D01*
X132974446Y-77522465D01*
X133080591Y-77416505D01*
X133138107Y-77277992D01*
X133138237Y-77128012D01*
X133080964Y-76989399D01*
X133019155Y-76927482D01*
X133056664Y-76890039D01*
X133114180Y-76751526D01*
X133114214Y-76712457D01*
X133199738Y-76797981D01*
X133199738Y-78106934D01*
X133220443Y-78211024D01*
X133279405Y-78299267D01*
X133991471Y-79011333D01*
X134079714Y-79070295D01*
X134183804Y-79091000D01*
X134351832Y-79091000D01*
X134399168Y-79138419D01*
X134537681Y-79195935D01*
X134687661Y-79196065D01*
X134763002Y-79164935D01*
X134763002Y-79600000D01*
X134783707Y-79704090D01*
X134842669Y-79792333D01*
X134930912Y-79851295D01*
X134949970Y-79855086D01*
X135465382Y-80370498D01*
X135465382Y-81045994D01*
X135390700Y-81014983D01*
X135240720Y-81014853D01*
X135102107Y-81072126D01*
X134995962Y-81178086D01*
X134938446Y-81316599D01*
X134938316Y-81466579D01*
X134995589Y-81605192D01*
X135101549Y-81711337D01*
X135240062Y-81768853D01*
X135363335Y-81768960D01*
X135312861Y-81819434D01*
X135245859Y-81819376D01*
X135107246Y-81876649D01*
X135001101Y-81982609D01*
X134943585Y-82121122D01*
X134943455Y-82271102D01*
X135000728Y-82409715D01*
X135106688Y-82515860D01*
X135245201Y-82573376D01*
X135395181Y-82573506D01*
X135533794Y-82516233D01*
X135639939Y-82410273D01*
X135697455Y-82271760D01*
X135697514Y-82204113D01*
X135703001Y-82198626D01*
X135702935Y-82274661D01*
X135760208Y-82413274D01*
X135866168Y-82519419D01*
X136004681Y-82576935D01*
X136118301Y-82577033D01*
X136072341Y-82622993D01*
X136005339Y-82622935D01*
X135866726Y-82680208D01*
X135760581Y-82786168D01*
X135703065Y-82924681D01*
X135702935Y-83074661D01*
X135760208Y-83213274D01*
X135866168Y-83319419D01*
X136004681Y-83376935D01*
X136154661Y-83377065D01*
X136293274Y-83319792D01*
X136399419Y-83213832D01*
X136440016Y-83116064D01*
X140486964Y-83116064D01*
X140544237Y-83254677D01*
X140650197Y-83360822D01*
X140788710Y-83418338D01*
X140938690Y-83418468D01*
X141077303Y-83361195D01*
X141183448Y-83255235D01*
X141240964Y-83116722D01*
X141241094Y-82966742D01*
X141183821Y-82828129D01*
X141077861Y-82721984D01*
X140939348Y-82664468D01*
X140789368Y-82664338D01*
X140650755Y-82721611D01*
X140544610Y-82827571D01*
X140487094Y-82966084D01*
X140486964Y-83116064D01*
X136440016Y-83116064D01*
X136456935Y-83075319D01*
X136456994Y-83007672D01*
X137237397Y-82227269D01*
X137252868Y-82204115D01*
X137296359Y-82139026D01*
X137317064Y-82034936D01*
X137317064Y-81508856D01*
X137360208Y-81613274D01*
X137466168Y-81719419D01*
X137604681Y-81776935D01*
X137754661Y-81777065D01*
X137893274Y-81719792D01*
X137999419Y-81613832D01*
X138056935Y-81475319D01*
X138056994Y-81407672D01*
X138072332Y-81392334D01*
X138131294Y-81304091D01*
X138151999Y-81200001D01*
X138151999Y-76650000D01*
X138974748Y-76650000D01*
X138974748Y-77137025D01*
X138974748Y-77137025D01*
G37*
X138974748Y-77137025D02*
X138972088Y-77137023D01*
X138833475Y-77194296D01*
X138727330Y-77300256D01*
X138669814Y-77438769D01*
X138669684Y-77588749D01*
X138726957Y-77727362D01*
X138770714Y-77771196D01*
X138714696Y-77827116D01*
X138657180Y-77965629D01*
X138657050Y-78115609D01*
X138714323Y-78254222D01*
X138820283Y-78360367D01*
X138958796Y-78417883D01*
X139108776Y-78418013D01*
X139236553Y-78365217D01*
X139258831Y-78419136D01*
X139364791Y-78525281D01*
X139503304Y-78582797D01*
X139653284Y-78582927D01*
X139791897Y-78525654D01*
X139898042Y-78419694D01*
X139955558Y-78281181D01*
X139955617Y-78213534D01*
X140286052Y-77883099D01*
X140286052Y-80009282D01*
X139272341Y-81022993D01*
X139205339Y-81022935D01*
X139066726Y-81080208D01*
X138960581Y-81186168D01*
X138903065Y-81324681D01*
X138902935Y-81474661D01*
X138960208Y-81613274D01*
X139066168Y-81719419D01*
X139204681Y-81776935D01*
X139354661Y-81777065D01*
X139493274Y-81719792D01*
X139599419Y-81613832D01*
X139656935Y-81475319D01*
X139656994Y-81407672D01*
X139658984Y-81405682D01*
X139658924Y-81474661D01*
X139716197Y-81613274D01*
X139822157Y-81719419D01*
X139960670Y-81776935D01*
X140069259Y-81777029D01*
X140023295Y-81822993D01*
X139956293Y-81822935D01*
X139817680Y-81880208D01*
X139711535Y-81986168D01*
X139654019Y-82124681D01*
X139653889Y-82274661D01*
X139711162Y-82413274D01*
X139817122Y-82519419D01*
X139955635Y-82576935D01*
X140105615Y-82577065D01*
X140244228Y-82519792D01*
X140350373Y-82413832D01*
X140407889Y-82275319D01*
X140407948Y-82207672D01*
X140498017Y-82117603D01*
X140497901Y-82251825D01*
X140555174Y-82390438D01*
X140661134Y-82496583D01*
X140799647Y-82554099D01*
X140949627Y-82554229D01*
X141088240Y-82496956D01*
X141194385Y-82390996D01*
X141239460Y-82282443D01*
X141285625Y-82282443D01*
X141342898Y-82421056D01*
X141448858Y-82527201D01*
X141587371Y-82584717D01*
X141737351Y-82584847D01*
X141875964Y-82527574D01*
X141982109Y-82421614D01*
X142039625Y-82283101D01*
X142039755Y-82133121D01*
X141982482Y-81994508D01*
X141876522Y-81888363D01*
X141738009Y-81830847D01*
X141588029Y-81830717D01*
X141449416Y-81887990D01*
X141343271Y-81993950D01*
X141285755Y-82132463D01*
X141285625Y-82282443D01*
X141239460Y-82282443D01*
X141251901Y-82252483D01*
X141252031Y-82102503D01*
X141194758Y-81963890D01*
X141088798Y-81857745D01*
X140950285Y-81800229D01*
X140800305Y-81800099D01*
X140717820Y-81834181D01*
X140729999Y-81772955D01*
X140729999Y-81310105D01*
X141089310Y-80950794D01*
X141105267Y-80926913D01*
X141148272Y-80862551D01*
X141168977Y-80758461D01*
X141168977Y-76890959D01*
X141267648Y-76931931D01*
X141417628Y-76932061D01*
X141556241Y-76874788D01*
X141662386Y-76768828D01*
X141711728Y-76650000D01*
X141944855Y-76650000D01*
X141548655Y-77046200D01*
X141489693Y-77134443D01*
X141468988Y-77238533D01*
X141468988Y-80689879D01*
X141489693Y-80793969D01*
X141548655Y-80882212D01*
X142079902Y-81413459D01*
X142079844Y-81480461D01*
X142137117Y-81619074D01*
X142243077Y-81725219D01*
X142381590Y-81782735D01*
X142531570Y-81782865D01*
X142587465Y-81759770D01*
X142587465Y-81835551D01*
X142512783Y-81804540D01*
X142362803Y-81804410D01*
X142224190Y-81861683D01*
X142118045Y-81967643D01*
X142060529Y-82106156D01*
X142060399Y-82256136D01*
X142117672Y-82394749D01*
X142223632Y-82500894D01*
X142362145Y-82558410D01*
X142512125Y-82558540D01*
X142587465Y-82527411D01*
X142587465Y-82601475D01*
X142595386Y-82641294D01*
X142548868Y-82621978D01*
X142398888Y-82621848D01*
X142260275Y-82679121D01*
X142154130Y-82785081D01*
X142096614Y-82923594D01*
X142096484Y-83073574D01*
X142153757Y-83212187D01*
X142259717Y-83318332D01*
X142398230Y-83375848D01*
X142548210Y-83375978D01*
X142686823Y-83318705D01*
X142792968Y-83212745D01*
X142850484Y-83074232D01*
X142850568Y-82977244D01*
X142880983Y-83007659D01*
X142880925Y-83074661D01*
X142938198Y-83213274D01*
X143044158Y-83319419D01*
X143182671Y-83376935D01*
X143332651Y-83377065D01*
X143471264Y-83319792D01*
X143577409Y-83213832D01*
X143634925Y-83075319D01*
X143634925Y-83074661D01*
X143724945Y-83074661D01*
X143782218Y-83213274D01*
X143888178Y-83319419D01*
X144026691Y-83376935D01*
X144176671Y-83377065D01*
X144315284Y-83319792D01*
X144421429Y-83213832D01*
X144472414Y-83091046D01*
X144539821Y-83091046D01*
X144597094Y-83229659D01*
X144703054Y-83335804D01*
X144841567Y-83393320D01*
X144991547Y-83393450D01*
X145130160Y-83336177D01*
X145236305Y-83230217D01*
X145293821Y-83091704D01*
X145293951Y-82941724D01*
X145236678Y-82803111D01*
X145130718Y-82696966D01*
X144992205Y-82639450D01*
X144842225Y-82639320D01*
X144703612Y-82696593D01*
X144597467Y-82802553D01*
X144539951Y-82941066D01*
X144539821Y-83091046D01*
X144472414Y-83091046D01*
X144478945Y-83075319D01*
X144479075Y-82925339D01*
X144421802Y-82786726D01*
X144315842Y-82680581D01*
X144177329Y-82623065D01*
X144027349Y-82622935D01*
X143888736Y-82680208D01*
X143782591Y-82786168D01*
X143725075Y-82924681D01*
X143724945Y-83074661D01*
X143634925Y-83074661D01*
X143635055Y-82925339D01*
X143577782Y-82786726D01*
X143471822Y-82680581D01*
X143333309Y-82623065D01*
X143265662Y-82623006D01*
X143225682Y-82583026D01*
X143356136Y-82583139D01*
X143494749Y-82525866D01*
X143600894Y-82419906D01*
X143658410Y-82281393D01*
X143658427Y-82261129D01*
X143748421Y-82261129D01*
X143805694Y-82399742D01*
X143911654Y-82505887D01*
X144050167Y-82563403D01*
X144200147Y-82563533D01*
X144338760Y-82506260D01*
X144444905Y-82400300D01*
X144502421Y-82261787D01*
X144502551Y-82111807D01*
X144445278Y-81973194D01*
X144339318Y-81867049D01*
X144200805Y-81809533D01*
X144050825Y-81809403D01*
X143912212Y-81866676D01*
X143806067Y-81972636D01*
X143748551Y-82111149D01*
X143748421Y-82261129D01*
X143658427Y-82261129D01*
X143658540Y-82131413D01*
X143601267Y-81992800D01*
X143495307Y-81886655D01*
X143356794Y-81829139D01*
X143206814Y-81829009D01*
X143131465Y-81860142D01*
X143131465Y-81715139D01*
X143225601Y-81754228D01*
X143375581Y-81754358D01*
X143514194Y-81697085D01*
X143620339Y-81591125D01*
X143674063Y-81461742D01*
X143767866Y-81461742D01*
X143825139Y-81600355D01*
X143931099Y-81706500D01*
X144069612Y-81764016D01*
X144219592Y-81764146D01*
X144358205Y-81706873D01*
X144464350Y-81600913D01*
X144521866Y-81462400D01*
X144521870Y-81457226D01*
X144556748Y-81541637D01*
X144662708Y-81647782D01*
X144801221Y-81705298D01*
X144951201Y-81705428D01*
X145089814Y-81648155D01*
X145195959Y-81542195D01*
X145253475Y-81403682D01*
X145253605Y-81253702D01*
X145196332Y-81115089D01*
X145090372Y-81008944D01*
X144951859Y-80951428D01*
X144801879Y-80951298D01*
X144663266Y-81008571D01*
X144557121Y-81114531D01*
X144499605Y-81253044D01*
X144499601Y-81258218D01*
X144464723Y-81173807D01*
X144358763Y-81067662D01*
X144220250Y-81010146D01*
X144070270Y-81010016D01*
X143931657Y-81067289D01*
X143825512Y-81173249D01*
X143767996Y-81311762D01*
X143767866Y-81461742D01*
X143674063Y-81461742D01*
X143677855Y-81452612D01*
X143677985Y-81302632D01*
X143620712Y-81164019D01*
X143514752Y-81057874D01*
X143376239Y-81000358D01*
X143226259Y-81000228D01*
X143150910Y-81031361D01*
X143150910Y-79446516D01*
X143130205Y-79342426D01*
X143071243Y-79254183D01*
X142960103Y-79143043D01*
X143054484Y-79104046D01*
X143102359Y-79056254D01*
X143124052Y-79056254D01*
X143228142Y-79035549D01*
X143316385Y-78976587D01*
X143494606Y-78798366D01*
X147725455Y-78798366D01*
X147628856Y-78894797D01*
X147525572Y-79143533D01*
X147525337Y-79412860D01*
X147628187Y-79661776D01*
X147695091Y-79728797D01*
X147058327Y-79728797D01*
X146956581Y-79627051D01*
X146868338Y-79568089D01*
X146764248Y-79547384D01*
X146742574Y-79547384D01*
X146695238Y-79499965D01*
X146556725Y-79442449D01*
X146406745Y-79442319D01*
X146268132Y-79499592D01*
X146161987Y-79605552D01*
X146104471Y-79744065D01*
X146104341Y-79894045D01*
X146161614Y-80032658D01*
X146267574Y-80138803D01*
X146406087Y-80196319D01*
X146556067Y-80196449D01*
X146694680Y-80139176D01*
X146697029Y-80136831D01*
X146753328Y-80193130D01*
X146841571Y-80252092D01*
X146945661Y-80272797D01*
X147779741Y-80272797D01*
X147609901Y-80442637D01*
X147550939Y-80530880D01*
X147530234Y-80634970D01*
X147530234Y-80656644D01*
X147482815Y-80703980D01*
X147425299Y-80842493D01*
X147425169Y-80992473D01*
X147482442Y-81131086D01*
X147588402Y-81237231D01*
X147726915Y-81294747D01*
X147876895Y-81294877D01*
X148015508Y-81237604D01*
X148121653Y-81131644D01*
X148141828Y-81083057D01*
X148222956Y-81116745D01*
X148342833Y-81116849D01*
X148342821Y-81130676D01*
X148376548Y-81212303D01*
X148304018Y-81226730D01*
X148240324Y-81269289D01*
X148215775Y-81285692D01*
X147601093Y-81900374D01*
X145149293Y-81900374D01*
X145101957Y-81852955D01*
X144963444Y-81795439D01*
X144813464Y-81795309D01*
X144674851Y-81852582D01*
X144568706Y-81958542D01*
X144511190Y-82097055D01*
X144511060Y-82247035D01*
X144568333Y-82385648D01*
X144674293Y-82491793D01*
X144812806Y-82549309D01*
X144962786Y-82549439D01*
X145101399Y-82492166D01*
X145149274Y-82444374D01*
X147713759Y-82444374D01*
X147817849Y-82423669D01*
X147906092Y-82364707D01*
X148251880Y-82018919D01*
X148290877Y-82113300D01*
X148396837Y-82219445D01*
X148535350Y-82276961D01*
X148602997Y-82277020D01*
X148812755Y-82486778D01*
X148201371Y-82486778D01*
X148097281Y-82507483D01*
X148009038Y-82566445D01*
X147993713Y-82581770D01*
X147926711Y-82581712D01*
X147788098Y-82638985D01*
X147681953Y-82744945D01*
X147624437Y-82883458D01*
X147624307Y-83033438D01*
X147681580Y-83172051D01*
X147787540Y-83278196D01*
X147926053Y-83335712D01*
X148076033Y-83335842D01*
X148214646Y-83278569D01*
X148320791Y-83172609D01*
X148378307Y-83034096D01*
X148378310Y-83030778D01*
X148575754Y-83030778D01*
X148559303Y-83047200D01*
X148501787Y-83185713D01*
X148501657Y-83335693D01*
X148558930Y-83474306D01*
X148664890Y-83580451D01*
X148803403Y-83637967D01*
X148871050Y-83638026D01*
X148886388Y-83653364D01*
X148974631Y-83712326D01*
X149078721Y-83733031D01*
X149630000Y-83733031D01*
X149630000Y-84621329D01*
X147887521Y-84621329D01*
X147783431Y-84642034D01*
X147695188Y-84700996D01*
X147679863Y-84716321D01*
X147612861Y-84716263D01*
X147474248Y-84773536D01*
X147368103Y-84879496D01*
X147310587Y-85018009D01*
X147310457Y-85167989D01*
X147367730Y-85306602D01*
X147473690Y-85412747D01*
X147612203Y-85470263D01*
X147762183Y-85470393D01*
X147900796Y-85413120D01*
X148006941Y-85307160D01*
X148064457Y-85168647D01*
X148064460Y-85165329D01*
X149630000Y-85165329D01*
X149630000Y-85626126D01*
X145366207Y-85626126D01*
X145344634Y-85604553D01*
X145256391Y-85545591D01*
X145207957Y-85535957D01*
X145245031Y-85446673D01*
X145245161Y-85296693D01*
X145187888Y-85158080D01*
X145081928Y-85051935D01*
X144943415Y-84994419D01*
X144793435Y-84994289D01*
X144654822Y-85051562D01*
X144548677Y-85157522D01*
X144491161Y-85296035D01*
X144491051Y-85423087D01*
X144478998Y-85411034D01*
X144479075Y-85322558D01*
X144421802Y-85183945D01*
X144315842Y-85077800D01*
X144177329Y-85020284D01*
X144027349Y-85020154D01*
X143888736Y-85077427D01*
X143782591Y-85183387D01*
X143725075Y-85321900D01*
X143724945Y-85471880D01*
X143782218Y-85610493D01*
X143888178Y-85716638D01*
X144026691Y-85774154D01*
X144072826Y-85774194D01*
X144081542Y-85782910D01*
X144088183Y-85792849D01*
X144098122Y-85799490D01*
X144121668Y-85823036D01*
X144005339Y-85822935D01*
X143866726Y-85880208D01*
X143760581Y-85986168D01*
X143703065Y-86124681D01*
X143702935Y-86274661D01*
X143760208Y-86413274D01*
X143866168Y-86519419D01*
X144004681Y-86576935D01*
X144154661Y-86577065D01*
X144293274Y-86519792D01*
X144399419Y-86413832D01*
X144456935Y-86275319D01*
X144457065Y-86125339D01*
X144429580Y-86058820D01*
X144480184Y-86068886D01*
X144529235Y-86068886D01*
X144498220Y-86143577D01*
X144498090Y-86293557D01*
X144555363Y-86432170D01*
X144661323Y-86538315D01*
X144799836Y-86595831D01*
X144949816Y-86595961D01*
X145088429Y-86538688D01*
X145194574Y-86432728D01*
X145252090Y-86294215D01*
X145252198Y-86169859D01*
X145253541Y-86170126D01*
X149630000Y-86170126D01*
X149630000Y-86406316D01*
X149596143Y-86392257D01*
X149446163Y-86392127D01*
X149307550Y-86449400D01*
X149201405Y-86555360D01*
X149143889Y-86693873D01*
X149143759Y-86843853D01*
X149201032Y-86982466D01*
X149306992Y-87088611D01*
X149445505Y-87146127D01*
X149595485Y-87146257D01*
X149630000Y-87131996D01*
X149630000Y-87952678D01*
X149419279Y-87952678D01*
X148955821Y-87489220D01*
X148955879Y-87422218D01*
X148898606Y-87283605D01*
X148792646Y-87177460D01*
X148654133Y-87119944D01*
X148504153Y-87119814D01*
X148365540Y-87177087D01*
X148259395Y-87283047D01*
X148201879Y-87421560D01*
X148201790Y-87524797D01*
X148072548Y-87395555D01*
X148072606Y-87328553D01*
X148015333Y-87189940D01*
X147909373Y-87083795D01*
X147770860Y-87026279D01*
X147620880Y-87026149D01*
X147482267Y-87083422D01*
X147376122Y-87189382D01*
X147318606Y-87327895D01*
X147318476Y-87477875D01*
X147375749Y-87616488D01*
X147481709Y-87722633D01*
X147620222Y-87780149D01*
X147687869Y-87780208D01*
X148699994Y-88792333D01*
X148788237Y-88851295D01*
X148892327Y-88872000D01*
X149630000Y-88872000D01*
X149630000Y-89088000D01*
X146887276Y-89088000D01*
X146783186Y-89108705D01*
X146694943Y-89167667D01*
X146326866Y-89535744D01*
X145238520Y-89535744D01*
X145269531Y-89461062D01*
X145269661Y-89311082D01*
X145212388Y-89172469D01*
X145106428Y-89066324D01*
X144967915Y-89008808D01*
X144817935Y-89008678D01*
X144679322Y-89065951D01*
X144573177Y-89171911D01*
X144515661Y-89310424D01*
X144515531Y-89460404D01*
X144546660Y-89535744D01*
X144426133Y-89535744D01*
X144453175Y-89470620D01*
X144453305Y-89320640D01*
X144396032Y-89182027D01*
X144290072Y-89075882D01*
X144151559Y-89018366D01*
X144001579Y-89018236D01*
X143862966Y-89075509D01*
X143756821Y-89181469D01*
X143699305Y-89319982D01*
X143699175Y-89469962D01*
X143741732Y-89572958D01*
X143638817Y-89572958D01*
X143534727Y-89593663D01*
X143446484Y-89652625D01*
X143274165Y-89824944D01*
X143207163Y-89824886D01*
X143068550Y-89882159D01*
X142962405Y-89988119D01*
X142904889Y-90126632D01*
X142904759Y-90276612D01*
X142962032Y-90415225D01*
X143067992Y-90521370D01*
X143206505Y-90578886D01*
X143356485Y-90579016D01*
X143495098Y-90521743D01*
X143601243Y-90415783D01*
X143658759Y-90277270D01*
X143658818Y-90209623D01*
X143716613Y-90151828D01*
X143700078Y-90191649D01*
X143699948Y-90341629D01*
X143757221Y-90480242D01*
X143863181Y-90586387D01*
X143978201Y-90634148D01*
X143866726Y-90680208D01*
X143760581Y-90786168D01*
X143703065Y-90924681D01*
X143702935Y-91074661D01*
X143760208Y-91213274D01*
X143866168Y-91319419D01*
X144004681Y-91376935D01*
X144154661Y-91377065D01*
X144293274Y-91319792D01*
X144399419Y-91213832D01*
X144456935Y-91075319D01*
X144456994Y-91007672D01*
X144540910Y-90923756D01*
X144545714Y-90923756D01*
X144514699Y-90998447D01*
X144514569Y-91148427D01*
X144571842Y-91287040D01*
X144677802Y-91393185D01*
X144816315Y-91450701D01*
X144966295Y-91450831D01*
X145104908Y-91393558D01*
X145211053Y-91287598D01*
X145268569Y-91149085D01*
X145268699Y-90999105D01*
X145217086Y-90874191D01*
X145220366Y-90872000D01*
X146649056Y-90872000D01*
X146681444Y-90904388D01*
X146769687Y-90963350D01*
X146873777Y-90984055D01*
X149079389Y-90984055D01*
X149630000Y-91534666D01*
X149630000Y-93016776D01*
X148906754Y-93016776D01*
X148802664Y-93037481D01*
X148715853Y-93095486D01*
X148714421Y-93096443D01*
X147482864Y-94328000D01*
X145592666Y-94328000D01*
X144563968Y-93299302D01*
X146951602Y-93299302D01*
X147012978Y-93447843D01*
X147126525Y-93561589D01*
X147274959Y-93623224D01*
X147435680Y-93623364D01*
X147584221Y-93561988D01*
X147697967Y-93448441D01*
X147711465Y-93415935D01*
X147834591Y-93467061D01*
X147995312Y-93467201D01*
X148143853Y-93405825D01*
X148257599Y-93292278D01*
X148319234Y-93143844D01*
X148319374Y-92983123D01*
X148257998Y-92834582D01*
X148144451Y-92720836D01*
X147996017Y-92659201D01*
X147835296Y-92659061D01*
X147686755Y-92720437D01*
X147573009Y-92833984D01*
X147559511Y-92866490D01*
X147436385Y-92815364D01*
X147275664Y-92815224D01*
X147127123Y-92876600D01*
X147013377Y-92990147D01*
X146951742Y-93138581D01*
X146951602Y-93299302D01*
X144563968Y-93299302D01*
X144264568Y-92999902D01*
X144260001Y-92976944D01*
X144238583Y-92944889D01*
X144326522Y-92908554D01*
X144432667Y-92802594D01*
X144490183Y-92664081D01*
X144490192Y-92652651D01*
X144505287Y-92652651D01*
X144562560Y-92791264D01*
X144668520Y-92897409D01*
X144807033Y-92954925D01*
X144957013Y-92955055D01*
X145095626Y-92897782D01*
X145201771Y-92791822D01*
X145259287Y-92653309D01*
X145259417Y-92503329D01*
X145202144Y-92364716D01*
X145096184Y-92258571D01*
X144957671Y-92201055D01*
X144807691Y-92200925D01*
X144669078Y-92258198D01*
X144562933Y-92364158D01*
X144505417Y-92502671D01*
X144505287Y-92652651D01*
X144490192Y-92652651D01*
X144490313Y-92514101D01*
X144433040Y-92375488D01*
X144327080Y-92269343D01*
X144215856Y-92223158D01*
X144278105Y-92197438D01*
X144384250Y-92091478D01*
X144441766Y-91952965D01*
X144441896Y-91802985D01*
X144384623Y-91664372D01*
X144278663Y-91558227D01*
X144140150Y-91500711D01*
X143990170Y-91500581D01*
X143851557Y-91557854D01*
X143745412Y-91663814D01*
X143687896Y-91802327D01*
X143687837Y-91869974D01*
X143638787Y-91919024D01*
X143656935Y-91875319D01*
X143657065Y-91725339D01*
X143599792Y-91586726D01*
X143493832Y-91480581D01*
X143355319Y-91423065D01*
X143205339Y-91422935D01*
X143066726Y-91480208D01*
X142960581Y-91586168D01*
X142903065Y-91724681D01*
X142902935Y-91874661D01*
X142960208Y-92013274D01*
X143008000Y-92061149D01*
X143008000Y-92800649D01*
X143028705Y-92904739D01*
X143087667Y-92992982D01*
X143150801Y-93056116D01*
X143056420Y-93095113D01*
X142950275Y-93201073D01*
X142892759Y-93339586D01*
X142892629Y-93489566D01*
X142949902Y-93628179D01*
X142997694Y-93676054D01*
X142997694Y-93717671D01*
X143018399Y-93821761D01*
X143077361Y-93910004D01*
X148117357Y-98950000D01*
X136551117Y-98950000D01*
X137487925Y-98013192D01*
X137546887Y-97924949D01*
X137567592Y-97820859D01*
X137567592Y-97799185D01*
X137615011Y-97751849D01*
X137672527Y-97613336D01*
X137672657Y-97463356D01*
X137615384Y-97324743D01*
X137509424Y-97218598D01*
X137370911Y-97161082D01*
X137220931Y-97160952D01*
X137082318Y-97218225D01*
X137029986Y-97270466D01*
X136954735Y-97195084D01*
X136816222Y-97137568D01*
X136666242Y-97137438D01*
X136527629Y-97194711D01*
X136479754Y-97242503D01*
X136318729Y-97242503D01*
X136214639Y-97263208D01*
X136126396Y-97322170D01*
X134498566Y-98950000D01*
X131386390Y-98950000D01*
X131386390Y-98129652D01*
X133501717Y-96014325D01*
X133532601Y-96089071D01*
X133534214Y-96090687D01*
X133443429Y-96181314D01*
X133385913Y-96319827D01*
X133385783Y-96469807D01*
X133443056Y-96608420D01*
X133549016Y-96714565D01*
X133687529Y-96772081D01*
X133837509Y-96772211D01*
X133976122Y-96714938D01*
X134082267Y-96608978D01*
X134139783Y-96470465D01*
X134139913Y-96320485D01*
X134082640Y-96181872D01*
X134081027Y-96180256D01*
X134113542Y-96147797D01*
X139443131Y-96147797D01*
X140902993Y-97607659D01*
X140902935Y-97674661D01*
X140960208Y-97813274D01*
X141066168Y-97919419D01*
X141204681Y-97976935D01*
X141354661Y-97977065D01*
X141493274Y-97919792D01*
X141599419Y-97813832D01*
X141656935Y-97675319D01*
X141657065Y-97525339D01*
X141599792Y-97386726D01*
X141493832Y-97280581D01*
X141355319Y-97223065D01*
X141287672Y-97223006D01*
X139748130Y-95683464D01*
X139659887Y-95624502D01*
X139555797Y-95603797D01*
X134113561Y-95603797D01*
X134066225Y-95556378D01*
X133945478Y-95506239D01*
X133957482Y-95445894D01*
X133957482Y-93663464D01*
X134004901Y-93616128D01*
X134062417Y-93477615D01*
X134062547Y-93327635D01*
X134005274Y-93189022D01*
X133899314Y-93082877D01*
X133760801Y-93025361D01*
X133610821Y-93025231D01*
X133472208Y-93082504D01*
X133366063Y-93188464D01*
X133308547Y-93326977D01*
X133308417Y-93476957D01*
X133365690Y-93615570D01*
X133413482Y-93663445D01*
X133413482Y-95333228D01*
X130964380Y-97782330D01*
X130964380Y-97456558D01*
X131816564Y-96604374D01*
X131883566Y-96604432D01*
X132022179Y-96547159D01*
X132128324Y-96441199D01*
X132185840Y-96302686D01*
X132185970Y-96152706D01*
X132128697Y-96014093D01*
X132022737Y-95907948D01*
X131884224Y-95850432D01*
X131734244Y-95850302D01*
X131595631Y-95907575D01*
X131489486Y-96013535D01*
X131431970Y-96152048D01*
X131431911Y-96219695D01*
X130500047Y-97151559D01*
X130441085Y-97239802D01*
X130420380Y-97343892D01*
X130420380Y-98950000D01*
X127330000Y-98950000D01*
X127330000Y-95528802D01*
X130430009Y-95528802D01*
X130487282Y-95667415D01*
X130593242Y-95773560D01*
X130731755Y-95831076D01*
X130881735Y-95831206D01*
X131020348Y-95773933D01*
X131126493Y-95667973D01*
X131184009Y-95529460D01*
X131184139Y-95379480D01*
X131126866Y-95240867D01*
X131020906Y-95134722D01*
X130882393Y-95077206D01*
X130732413Y-95077076D01*
X130593800Y-95134349D01*
X130487655Y-95240309D01*
X130430139Y-95378822D01*
X130430009Y-95528802D01*
X127330000Y-95528802D01*
X127330000Y-94274661D01*
X131702935Y-94274661D01*
X131760208Y-94413274D01*
X131866168Y-94519419D01*
X132004681Y-94576935D01*
X132154661Y-94577065D01*
X132293274Y-94519792D01*
X132399419Y-94413832D01*
X132456935Y-94275319D01*
X132456938Y-94271734D01*
X132469169Y-94271734D01*
X132526442Y-94410347D01*
X132632402Y-94516492D01*
X132770915Y-94574008D01*
X132920895Y-94574138D01*
X133059508Y-94516865D01*
X133165653Y-94410905D01*
X133223169Y-94272392D01*
X133223299Y-94122412D01*
X133166026Y-93983799D01*
X133060066Y-93877654D01*
X132921553Y-93820138D01*
X132771573Y-93820008D01*
X132632960Y-93877281D01*
X132526815Y-93983241D01*
X132469299Y-94121754D01*
X132469169Y-94271734D01*
X132456938Y-94271734D01*
X132457065Y-94125339D01*
X132399792Y-93986726D01*
X132293832Y-93880581D01*
X132155319Y-93823065D01*
X132005339Y-93822935D01*
X131866726Y-93880208D01*
X131760581Y-93986168D01*
X131703065Y-94124681D01*
X131702935Y-94274661D01*
X127330000Y-94274661D01*
X127330000Y-93619002D01*
X129794339Y-93619002D01*
X129851612Y-93757615D01*
X129957572Y-93863760D01*
X130096085Y-93921276D01*
X130246065Y-93921406D01*
X130384678Y-93864133D01*
X130490823Y-93758173D01*
X130548339Y-93619660D01*
X130548464Y-93474661D01*
X131702935Y-93474661D01*
X131760208Y-93613274D01*
X131866168Y-93719419D01*
X132004681Y-93776935D01*
X132154661Y-93777065D01*
X132293274Y-93719792D01*
X132399419Y-93613832D01*
X132456935Y-93475319D01*
X132457065Y-93325339D01*
X132399792Y-93186726D01*
X132293832Y-93080581D01*
X132155319Y-93023065D01*
X132005339Y-93022935D01*
X131866726Y-93080208D01*
X131760581Y-93186168D01*
X131703065Y-93324681D01*
X131702935Y-93474661D01*
X130548464Y-93474661D01*
X130548469Y-93469680D01*
X130491196Y-93331067D01*
X130385236Y-93224922D01*
X130246723Y-93167406D01*
X130096743Y-93167276D01*
X129958130Y-93224549D01*
X129851985Y-93330509D01*
X129794469Y-93469022D01*
X129794339Y-93619002D01*
X127330000Y-93619002D01*
X127330000Y-92972329D01*
X128900237Y-92972329D01*
X128877233Y-92995293D01*
X128819717Y-93133806D01*
X128819587Y-93283786D01*
X128876860Y-93422399D01*
X128982820Y-93528544D01*
X129121333Y-93586060D01*
X129271313Y-93586190D01*
X129409926Y-93528917D01*
X129516071Y-93422957D01*
X129573587Y-93284444D01*
X129573717Y-93134464D01*
X129516444Y-92995851D01*
X129492963Y-92972329D01*
X130041094Y-92972329D01*
X130088430Y-93019748D01*
X130226943Y-93077264D01*
X130376923Y-93077394D01*
X130515536Y-93020121D01*
X130621681Y-92914161D01*
X130679197Y-92775648D01*
X130679284Y-92674661D01*
X131702935Y-92674661D01*
X131760208Y-92813274D01*
X131866168Y-92919419D01*
X132004681Y-92976935D01*
X132154661Y-92977065D01*
X132293274Y-92919792D01*
X132399419Y-92813832D01*
X132456935Y-92675319D01*
X132456935Y-92674661D01*
X132502935Y-92674661D01*
X132560208Y-92813274D01*
X132666168Y-92919419D01*
X132804681Y-92976935D01*
X132954661Y-92977065D01*
X133093274Y-92919792D01*
X133199419Y-92813832D01*
X133256935Y-92675319D01*
X133256935Y-92674661D01*
X133302935Y-92674661D01*
X133360208Y-92813274D01*
X133466168Y-92919419D01*
X133604681Y-92976935D01*
X133754661Y-92977065D01*
X133893274Y-92919792D01*
X133999419Y-92813832D01*
X134056935Y-92675319D01*
X134057065Y-92525339D01*
X133999792Y-92386726D01*
X133893832Y-92280581D01*
X133755319Y-92223065D01*
X133605339Y-92222935D01*
X133466726Y-92280208D01*
X133360581Y-92386168D01*
X133303065Y-92524681D01*
X133302935Y-92674661D01*
X133256935Y-92674661D01*
X133257065Y-92525339D01*
X133199792Y-92386726D01*
X133093832Y-92280581D01*
X132955319Y-92223065D01*
X132805339Y-92222935D01*
X132666726Y-92280208D01*
X132560581Y-92386168D01*
X132503065Y-92524681D01*
X132502935Y-92674661D01*
X132456935Y-92674661D01*
X132457065Y-92525339D01*
X132399792Y-92386726D01*
X132293832Y-92280581D01*
X132155319Y-92223065D01*
X132005339Y-92222935D01*
X131866726Y-92280208D01*
X131760581Y-92386168D01*
X131703065Y-92524681D01*
X131702935Y-92674661D01*
X130679284Y-92674661D01*
X130679327Y-92625668D01*
X130622054Y-92487055D01*
X130516094Y-92380910D01*
X130377581Y-92323394D01*
X130227601Y-92323264D01*
X130088988Y-92380537D01*
X130041113Y-92428329D01*
X129095424Y-92428329D01*
X129199065Y-92324869D01*
X129219505Y-92275645D01*
X129264023Y-92320241D01*
X129402536Y-92377757D01*
X129552516Y-92377887D01*
X129691129Y-92320614D01*
X129797274Y-92214654D01*
X129854790Y-92076141D01*
X129854791Y-92074825D01*
X129912841Y-92098930D01*
X130062821Y-92099060D01*
X130201434Y-92041787D01*
X130307579Y-91935827D01*
X130332977Y-91874661D01*
X133302935Y-91874661D01*
X133360208Y-92013274D01*
X133466168Y-92119419D01*
X133604681Y-92176935D01*
X133754661Y-92177065D01*
X133893274Y-92119792D01*
X133999419Y-92013832D01*
X134056935Y-91875319D01*
X134057065Y-91725339D01*
X134051841Y-91712695D01*
X137281986Y-91712695D01*
X137339259Y-91851308D01*
X137445219Y-91957453D01*
X137583732Y-92014969D01*
X137733712Y-92015099D01*
X137872325Y-91957826D01*
X137978470Y-91851866D01*
X138035986Y-91713353D01*
X138036116Y-91563373D01*
X137978843Y-91424760D01*
X137872883Y-91318615D01*
X137734370Y-91261099D01*
X137584390Y-91260969D01*
X137445777Y-91318242D01*
X137339632Y-91424202D01*
X137282116Y-91562715D01*
X137281986Y-91712695D01*
X134051841Y-91712695D01*
X133999792Y-91586726D01*
X133893832Y-91480581D01*
X133755319Y-91423065D01*
X133605339Y-91422935D01*
X133466726Y-91480208D01*
X133360581Y-91586168D01*
X133303065Y-91724681D01*
X133302935Y-91874661D01*
X130332977Y-91874661D01*
X130365095Y-91797314D01*
X130365225Y-91647334D01*
X130307952Y-91508721D01*
X130201992Y-91402576D01*
X130063479Y-91345060D01*
X129995832Y-91345001D01*
X129980494Y-91329663D01*
X129892251Y-91270701D01*
X129788161Y-91249996D01*
X127330000Y-91249996D01*
X127330000Y-90970110D01*
X131595625Y-90970110D01*
X131699715Y-90949405D01*
X131700673Y-90948765D01*
X131700583Y-91052651D01*
X131757856Y-91191264D01*
X131863816Y-91297409D01*
X132002329Y-91354925D01*
X132152309Y-91355055D01*
X132290922Y-91297782D01*
X132397067Y-91191822D01*
X132445716Y-91074661D01*
X132502935Y-91074661D01*
X132560208Y-91213274D01*
X132666168Y-91319419D01*
X132804681Y-91376935D01*
X132954661Y-91377065D01*
X133093274Y-91319792D01*
X133199419Y-91213832D01*
X133256935Y-91075319D01*
X133256935Y-91074661D01*
X134102935Y-91074661D01*
X134160208Y-91213274D01*
X134266168Y-91319419D01*
X134404681Y-91376935D01*
X134554661Y-91377065D01*
X134693274Y-91319792D01*
X134799419Y-91213832D01*
X134856935Y-91075319D01*
X134856935Y-91074661D01*
X142102935Y-91074661D01*
X142160208Y-91213274D01*
X142266168Y-91319419D01*
X142404681Y-91376935D01*
X142554661Y-91377065D01*
X142693274Y-91319792D01*
X142799419Y-91213832D01*
X142856935Y-91075319D01*
X142856935Y-91074661D01*
X142902935Y-91074661D01*
X142960208Y-91213274D01*
X143066168Y-91319419D01*
X143204681Y-91376935D01*
X143354661Y-91377065D01*
X143493274Y-91319792D01*
X143599419Y-91213832D01*
X143656935Y-91075319D01*
X143657065Y-90925339D01*
X143599792Y-90786726D01*
X143493832Y-90680581D01*
X143355319Y-90623065D01*
X143205339Y-90622935D01*
X143066726Y-90680208D01*
X142960581Y-90786168D01*
X142903065Y-90924681D01*
X142902935Y-91074661D01*
X142856935Y-91074661D01*
X142857065Y-90925339D01*
X142799792Y-90786726D01*
X142693832Y-90680581D01*
X142555319Y-90623065D01*
X142405339Y-90622935D01*
X142266726Y-90680208D01*
X142160581Y-90786168D01*
X142103065Y-90924681D01*
X142102935Y-91074661D01*
X134856935Y-91074661D01*
X134857065Y-90925339D01*
X134799792Y-90786726D01*
X134693832Y-90680581D01*
X134555319Y-90623065D01*
X134405339Y-90622935D01*
X134266726Y-90680208D01*
X134160581Y-90786168D01*
X134103065Y-90924681D01*
X134102935Y-91074661D01*
X133256935Y-91074661D01*
X133257065Y-90925339D01*
X133199792Y-90786726D01*
X133093832Y-90680581D01*
X132955319Y-90623065D01*
X132805339Y-90622935D01*
X132666726Y-90680208D01*
X132560581Y-90786168D01*
X132503065Y-90924681D01*
X132502935Y-91074661D01*
X132445716Y-91074661D01*
X132454583Y-91053309D01*
X132454713Y-90903329D01*
X132397440Y-90764716D01*
X132291480Y-90658571D01*
X132152967Y-90601055D01*
X132077411Y-90600990D01*
X132090615Y-90587786D01*
X132157617Y-90587844D01*
X132296230Y-90530571D01*
X132402375Y-90424611D01*
X132459891Y-90286098D01*
X132459905Y-90269487D01*
X136508109Y-90269487D01*
X136565382Y-90408100D01*
X136671342Y-90514245D01*
X136809855Y-90571761D01*
X136959835Y-90571891D01*
X137098448Y-90514618D01*
X137204593Y-90408658D01*
X137262109Y-90270145D01*
X137262171Y-90197651D01*
X137311936Y-90197651D01*
X137369209Y-90336264D01*
X137475169Y-90442409D01*
X137613682Y-90499925D01*
X137763662Y-90500055D01*
X137902275Y-90442782D01*
X138008420Y-90336822D01*
X138065936Y-90198309D01*
X138065936Y-90197651D01*
X138902935Y-90197651D01*
X138960208Y-90336264D01*
X139066168Y-90442409D01*
X139204681Y-90499925D01*
X139354661Y-90500055D01*
X139493274Y-90442782D01*
X139599419Y-90336822D01*
X139656935Y-90198309D01*
X139656935Y-90197651D01*
X139717825Y-90197651D01*
X139775098Y-90336264D01*
X139881058Y-90442409D01*
X140019571Y-90499925D01*
X140169551Y-90500055D01*
X140308164Y-90442782D01*
X140414309Y-90336822D01*
X140471825Y-90198309D01*
X140471955Y-90048329D01*
X140414682Y-89909716D01*
X140308722Y-89803571D01*
X140170209Y-89746055D01*
X140020229Y-89745925D01*
X139881616Y-89803198D01*
X139775471Y-89909158D01*
X139717955Y-90047671D01*
X139717825Y-90197651D01*
X139656935Y-90197651D01*
X139657065Y-90048329D01*
X139599792Y-89909716D01*
X139493832Y-89803571D01*
X139355319Y-89746055D01*
X139205339Y-89745925D01*
X139066726Y-89803198D01*
X138960581Y-89909158D01*
X138903065Y-90047671D01*
X138902935Y-90197651D01*
X138065936Y-90197651D01*
X138066066Y-90048329D01*
X138008793Y-89909716D01*
X137902833Y-89803571D01*
X137764320Y-89746055D01*
X137614340Y-89745925D01*
X137475727Y-89803198D01*
X137369582Y-89909158D01*
X137312066Y-90047671D01*
X137311936Y-90197651D01*
X137262171Y-90197651D01*
X137262239Y-90120165D01*
X137204966Y-89981552D01*
X137099006Y-89875407D01*
X136960493Y-89817891D01*
X136810513Y-89817761D01*
X136671900Y-89875034D01*
X136565755Y-89980994D01*
X136508239Y-90119507D01*
X136508109Y-90269487D01*
X132459905Y-90269487D01*
X132460021Y-90136118D01*
X132402748Y-89997505D01*
X132296788Y-89891360D01*
X132158275Y-89833844D01*
X132008295Y-89833714D01*
X131869682Y-89890987D01*
X131763537Y-89996947D01*
X131706021Y-90135460D01*
X131705962Y-90203107D01*
X131482959Y-90426110D01*
X127330000Y-90426110D01*
X127330000Y-90001609D01*
X129072173Y-90001609D01*
X129129446Y-90140222D01*
X129235406Y-90246367D01*
X129373919Y-90303883D01*
X129523899Y-90304013D01*
X129662512Y-90246740D01*
X129768657Y-90140780D01*
X129826173Y-90002267D01*
X129826303Y-89852287D01*
X129769030Y-89713674D01*
X129663070Y-89607529D01*
X129524557Y-89550013D01*
X129374577Y-89549883D01*
X129235964Y-89607156D01*
X129129819Y-89713116D01*
X129072303Y-89851629D01*
X129072173Y-90001609D01*
X127330000Y-90001609D01*
X127330000Y-89638867D01*
X127874375Y-89638867D01*
X127931648Y-89777480D01*
X128037608Y-89883625D01*
X128176121Y-89941141D01*
X128326101Y-89941271D01*
X128464714Y-89883998D01*
X128570859Y-89778038D01*
X128628375Y-89639525D01*
X128628505Y-89489545D01*
X128626754Y-89485305D01*
X131698559Y-89485305D01*
X131755832Y-89623918D01*
X131861792Y-89730063D01*
X132000305Y-89787579D01*
X132150285Y-89787709D01*
X132288898Y-89730436D01*
X132395043Y-89624476D01*
X132452559Y-89485963D01*
X132452568Y-89474661D01*
X140502935Y-89474661D01*
X140560208Y-89613274D01*
X140666168Y-89719419D01*
X140804681Y-89776935D01*
X140954661Y-89777065D01*
X141093274Y-89719792D01*
X141199419Y-89613832D01*
X141256935Y-89475319D01*
X141257065Y-89325339D01*
X141199792Y-89186726D01*
X141093832Y-89080581D01*
X140955319Y-89023065D01*
X140805339Y-89022935D01*
X140666726Y-89080208D01*
X140560581Y-89186168D01*
X140503065Y-89324681D01*
X140502935Y-89474661D01*
X132452568Y-89474661D01*
X132452689Y-89335983D01*
X132395416Y-89197370D01*
X132289456Y-89091225D01*
X132150943Y-89033709D01*
X132000963Y-89033579D01*
X131862350Y-89090852D01*
X131756205Y-89196812D01*
X131698689Y-89335325D01*
X131698559Y-89485305D01*
X128626754Y-89485305D01*
X128571232Y-89350932D01*
X128465272Y-89244787D01*
X128326759Y-89187271D01*
X128176779Y-89187141D01*
X128038166Y-89244414D01*
X127932021Y-89350374D01*
X127874505Y-89488887D01*
X127874375Y-89638867D01*
X127330000Y-89638867D01*
X127330000Y-88724318D01*
X127359472Y-88694897D01*
X127385201Y-88632935D01*
X131706984Y-88632935D01*
X131764257Y-88771548D01*
X131870217Y-88877693D01*
X132008730Y-88935209D01*
X132158710Y-88935339D01*
X132297323Y-88878066D01*
X132403468Y-88772106D01*
X132443930Y-88674661D01*
X132502935Y-88674661D01*
X132560208Y-88813274D01*
X132666168Y-88919419D01*
X132804681Y-88976935D01*
X132954661Y-88977065D01*
X133093274Y-88919792D01*
X133199419Y-88813832D01*
X133249483Y-88693263D01*
X134896241Y-88693263D01*
X134953514Y-88831876D01*
X135059474Y-88938021D01*
X135197987Y-88995537D01*
X135347967Y-88995667D01*
X135486580Y-88938394D01*
X135592725Y-88832434D01*
X135650241Y-88693921D01*
X135650257Y-88674661D01*
X141302935Y-88674661D01*
X141360208Y-88813274D01*
X141466168Y-88919419D01*
X141604681Y-88976935D01*
X141754661Y-88977065D01*
X141893274Y-88919792D01*
X141999419Y-88813832D01*
X142056935Y-88675319D01*
X142056939Y-88669691D01*
X142900961Y-88669691D01*
X142958234Y-88808304D01*
X143064194Y-88914449D01*
X143202707Y-88971965D01*
X143352687Y-88972095D01*
X143491300Y-88914822D01*
X143597445Y-88808862D01*
X143654961Y-88670349D01*
X143654970Y-88659171D01*
X143705767Y-88659171D01*
X143763040Y-88797784D01*
X143869000Y-88903929D01*
X144007513Y-88961445D01*
X144157493Y-88961575D01*
X144296106Y-88904302D01*
X144402251Y-88798342D01*
X144444468Y-88696671D01*
X144500583Y-88696671D01*
X144557856Y-88835284D01*
X144663816Y-88941429D01*
X144802329Y-88998945D01*
X144952309Y-88999075D01*
X145090922Y-88941802D01*
X145197067Y-88835842D01*
X145254583Y-88697329D01*
X145254713Y-88547349D01*
X145197440Y-88408736D01*
X145091480Y-88302591D01*
X144952967Y-88245075D01*
X144802987Y-88244945D01*
X144664374Y-88302218D01*
X144558229Y-88408178D01*
X144500713Y-88546691D01*
X144500583Y-88696671D01*
X144444468Y-88696671D01*
X144459767Y-88659829D01*
X144459897Y-88509849D01*
X144402624Y-88371236D01*
X144296664Y-88265091D01*
X144158151Y-88207575D01*
X144008171Y-88207445D01*
X143869558Y-88264718D01*
X143763413Y-88370678D01*
X143705897Y-88509191D01*
X143705767Y-88659171D01*
X143654970Y-88659171D01*
X143655091Y-88520369D01*
X143597818Y-88381756D01*
X143491858Y-88275611D01*
X143353345Y-88218095D01*
X143203365Y-88217965D01*
X143064752Y-88275238D01*
X142958607Y-88381198D01*
X142901091Y-88519711D01*
X142900961Y-88669691D01*
X142056939Y-88669691D01*
X142057065Y-88525339D01*
X141999792Y-88386726D01*
X141893832Y-88280581D01*
X141755319Y-88223065D01*
X141605339Y-88222935D01*
X141466726Y-88280208D01*
X141360581Y-88386168D01*
X141303065Y-88524681D01*
X141302935Y-88674661D01*
X135650257Y-88674661D01*
X135650371Y-88543941D01*
X135593098Y-88405328D01*
X135487138Y-88299183D01*
X135348625Y-88241667D01*
X135198645Y-88241537D01*
X135060032Y-88298810D01*
X134953887Y-88404770D01*
X134896371Y-88543283D01*
X134896241Y-88693263D01*
X133249483Y-88693263D01*
X133256935Y-88675319D01*
X133257065Y-88525339D01*
X133199792Y-88386726D01*
X133093832Y-88280581D01*
X132955319Y-88223065D01*
X132805339Y-88222935D01*
X132666726Y-88280208D01*
X132560581Y-88386168D01*
X132503065Y-88524681D01*
X132502935Y-88674661D01*
X132443930Y-88674661D01*
X132460984Y-88633593D01*
X132461114Y-88483613D01*
X132403841Y-88345000D01*
X132297881Y-88238855D01*
X132159368Y-88181339D01*
X132009388Y-88181209D01*
X131870775Y-88238482D01*
X131764630Y-88344442D01*
X131707114Y-88482955D01*
X131706984Y-88632935D01*
X127385201Y-88632935D01*
X127416988Y-88556384D01*
X127417118Y-88406404D01*
X127359845Y-88267791D01*
X127330000Y-88237894D01*
X127330000Y-87874661D01*
X140502935Y-87874661D01*
X140560208Y-88013274D01*
X140666168Y-88119419D01*
X140804681Y-88176935D01*
X140954661Y-88177065D01*
X141093274Y-88119792D01*
X141199419Y-88013832D01*
X141256935Y-87875319D01*
X141257065Y-87725339D01*
X141199792Y-87586726D01*
X141093832Y-87480581D01*
X140955319Y-87423065D01*
X140805339Y-87422935D01*
X140666726Y-87480208D01*
X140560581Y-87586168D01*
X140503065Y-87724681D01*
X140502935Y-87874661D01*
X127330000Y-87874661D01*
X127330000Y-87209801D01*
X128399590Y-87209801D01*
X128456863Y-87348414D01*
X128562823Y-87454559D01*
X128701336Y-87512075D01*
X128851316Y-87512205D01*
X128989929Y-87454932D01*
X129096074Y-87348972D01*
X129153590Y-87210459D01*
X129153720Y-87060479D01*
X129096447Y-86921866D01*
X128990487Y-86815721D01*
X128851974Y-86758205D01*
X128701994Y-86758075D01*
X128563381Y-86815348D01*
X128457236Y-86921308D01*
X128399720Y-87059821D01*
X128399590Y-87209801D01*
X127330000Y-87209801D01*
X127330000Y-85179376D01*
X127942092Y-85179376D01*
X127989428Y-85226795D01*
X128127941Y-85284311D01*
X128277921Y-85284441D01*
X128416534Y-85227168D01*
X128446075Y-85197678D01*
X128446049Y-85228221D01*
X128503322Y-85366834D01*
X128609282Y-85472979D01*
X128747795Y-85530495D01*
X128897775Y-85530625D01*
X129036388Y-85473352D01*
X129142533Y-85367392D01*
X129200049Y-85228879D01*
X129200179Y-85078899D01*
X129142906Y-84940286D01*
X129036946Y-84834141D01*
X128898433Y-84776625D01*
X128748453Y-84776495D01*
X128609840Y-84833768D01*
X128580299Y-84863258D01*
X128580325Y-84832715D01*
X128523052Y-84694102D01*
X128463147Y-84634092D01*
X128502734Y-84594574D01*
X128560250Y-84456061D01*
X128560256Y-84449441D01*
X128685433Y-84449550D01*
X128824046Y-84392277D01*
X128930191Y-84286317D01*
X128987707Y-84147804D01*
X128987750Y-84098251D01*
X129037099Y-84131225D01*
X129110610Y-84145847D01*
X129110602Y-84154590D01*
X129167875Y-84293203D01*
X129273835Y-84399348D01*
X129412348Y-84456864D01*
X129562328Y-84456994D01*
X129700941Y-84399721D01*
X129807086Y-84293761D01*
X129839323Y-84216125D01*
X131620785Y-85997587D01*
X131709028Y-86056549D01*
X131755617Y-86065816D01*
X131706091Y-86185086D01*
X131705961Y-86335066D01*
X131763234Y-86473679D01*
X131869194Y-86579824D01*
X131989138Y-86629629D01*
X131866726Y-86680208D01*
X131760581Y-86786168D01*
X131703065Y-86924681D01*
X131702935Y-87074661D01*
X131760208Y-87213274D01*
X131866168Y-87319419D01*
X132004681Y-87376935D01*
X132154661Y-87377065D01*
X132293274Y-87319792D01*
X132399419Y-87213832D01*
X132456935Y-87075319D01*
X132456935Y-87074661D01*
X142902935Y-87074661D01*
X142960208Y-87213274D01*
X143066168Y-87319419D01*
X143204681Y-87376935D01*
X143354661Y-87377065D01*
X143493274Y-87319792D01*
X143599419Y-87213832D01*
X143656935Y-87075319D01*
X143656955Y-87052225D01*
X144517251Y-87052225D01*
X144574524Y-87190838D01*
X144680484Y-87296983D01*
X144818997Y-87354499D01*
X144968977Y-87354629D01*
X145107590Y-87297356D01*
X145213735Y-87191396D01*
X145271251Y-87052883D01*
X145271381Y-86902903D01*
X145214108Y-86764290D01*
X145108148Y-86658145D01*
X144969635Y-86600629D01*
X144819655Y-86600499D01*
X144681042Y-86657772D01*
X144574897Y-86763732D01*
X144517381Y-86902245D01*
X144517251Y-87052225D01*
X143656955Y-87052225D01*
X143657065Y-86925339D01*
X143599792Y-86786726D01*
X143493832Y-86680581D01*
X143355319Y-86623065D01*
X143205339Y-86622935D01*
X143066726Y-86680208D01*
X142960581Y-86786168D01*
X142903065Y-86924681D01*
X142902935Y-87074661D01*
X132456935Y-87074661D01*
X132457065Y-86925339D01*
X132399792Y-86786726D01*
X132293832Y-86680581D01*
X132173888Y-86630776D01*
X132296300Y-86580197D01*
X132402445Y-86474237D01*
X132459961Y-86335724D01*
X132460013Y-86274661D01*
X134902935Y-86274661D01*
X134960208Y-86413274D01*
X135066168Y-86519419D01*
X135204681Y-86576935D01*
X135354661Y-86577065D01*
X135493274Y-86519792D01*
X135599419Y-86413832D01*
X135656935Y-86275319D01*
X135656935Y-86274661D01*
X141302935Y-86274661D01*
X141360208Y-86413274D01*
X141466168Y-86519419D01*
X141604681Y-86576935D01*
X141754661Y-86577065D01*
X141893274Y-86519792D01*
X141999419Y-86413832D01*
X142056935Y-86275319D01*
X142057065Y-86125339D01*
X141999792Y-85986726D01*
X141893832Y-85880581D01*
X141755319Y-85823065D01*
X141605339Y-85822935D01*
X141466726Y-85880208D01*
X141360581Y-85986168D01*
X141303065Y-86124681D01*
X141302935Y-86274661D01*
X135656935Y-86274661D01*
X135657065Y-86125339D01*
X135599792Y-85986726D01*
X135493832Y-85880581D01*
X135355319Y-85823065D01*
X135205339Y-85822935D01*
X135066726Y-85880208D01*
X134960581Y-85986168D01*
X134903065Y-86124681D01*
X134902935Y-86274661D01*
X132460013Y-86274661D01*
X132460091Y-86185744D01*
X132415264Y-86077254D01*
X133274746Y-86077254D01*
X133378836Y-86056549D01*
X133467079Y-85997587D01*
X133687659Y-85777007D01*
X133754661Y-85777065D01*
X133893274Y-85719792D01*
X133999419Y-85613832D01*
X134054987Y-85480008D01*
X135675930Y-85480008D01*
X135737306Y-85628549D01*
X135850853Y-85742295D01*
X135999287Y-85803930D01*
X136160008Y-85804070D01*
X136308549Y-85742694D01*
X136422295Y-85629147D01*
X136483930Y-85480713D01*
X136483935Y-85474661D01*
X140502935Y-85474661D01*
X140560208Y-85613274D01*
X140666168Y-85719419D01*
X140804681Y-85776935D01*
X140954661Y-85777065D01*
X141093274Y-85719792D01*
X141199419Y-85613832D01*
X141256935Y-85475319D01*
X141256935Y-85474661D01*
X141302935Y-85474661D01*
X141360208Y-85613274D01*
X141466168Y-85719419D01*
X141604681Y-85776935D01*
X141754661Y-85777065D01*
X141893274Y-85719792D01*
X141999419Y-85613832D01*
X142056935Y-85475319D01*
X142057065Y-85325339D01*
X141999792Y-85186726D01*
X141893832Y-85080581D01*
X141755319Y-85023065D01*
X141605339Y-85022935D01*
X141466726Y-85080208D01*
X141360581Y-85186168D01*
X141303065Y-85324681D01*
X141302935Y-85474661D01*
X141256935Y-85474661D01*
X141257065Y-85325339D01*
X141199792Y-85186726D01*
X141093832Y-85080581D01*
X140955319Y-85023065D01*
X140805339Y-85022935D01*
X140666726Y-85080208D01*
X140560581Y-85186168D01*
X140503065Y-85324681D01*
X140502935Y-85474661D01*
X136483935Y-85474661D01*
X136484070Y-85319992D01*
X136422694Y-85171451D01*
X136309147Y-85057705D01*
X136160713Y-84996070D01*
X135999992Y-84995930D01*
X135851451Y-85057306D01*
X135737705Y-85170853D01*
X135676070Y-85319287D01*
X135675930Y-85480008D01*
X134054987Y-85480008D01*
X134056935Y-85475319D01*
X134057065Y-85325339D01*
X133999792Y-85186726D01*
X133893832Y-85080581D01*
X133755319Y-85023065D01*
X133605339Y-85022935D01*
X133466726Y-85080208D01*
X133360581Y-85186168D01*
X133303065Y-85324681D01*
X133303006Y-85392328D01*
X133189954Y-85505380D01*
X133211576Y-85453309D01*
X133211706Y-85303329D01*
X133154433Y-85164716D01*
X133048473Y-85058571D01*
X132909960Y-85001055D01*
X132759980Y-85000925D01*
X132621367Y-85058198D01*
X132515222Y-85164158D01*
X132457706Y-85302671D01*
X132457576Y-85452651D01*
X132490880Y-85533254D01*
X132416724Y-85533254D01*
X132449920Y-85453309D01*
X132450050Y-85303329D01*
X132392777Y-85164716D01*
X132286817Y-85058571D01*
X132148304Y-85001055D01*
X131998324Y-85000925D01*
X131859711Y-85058198D01*
X131753566Y-85164158D01*
X131696050Y-85302671D01*
X131696049Y-85303519D01*
X130342826Y-83950296D01*
X130417902Y-83919275D01*
X130524047Y-83813315D01*
X130581563Y-83674802D01*
X130581693Y-83524822D01*
X130524420Y-83386209D01*
X130476628Y-83338334D01*
X130476628Y-82736596D01*
X130455923Y-82632506D01*
X130396961Y-82544263D01*
X130146718Y-82294020D01*
X130146718Y-82270362D01*
X131468689Y-83592333D01*
X131473348Y-83595446D01*
X131476281Y-83598379D01*
X131564524Y-83657341D01*
X131668614Y-83678046D01*
X131737762Y-83678046D01*
X131706747Y-83752737D01*
X131706617Y-83902717D01*
X131763890Y-84041330D01*
X131869850Y-84147475D01*
X131939892Y-84176559D01*
X131848825Y-84214187D01*
X131742680Y-84320147D01*
X131685164Y-84458660D01*
X131685034Y-84608640D01*
X131742307Y-84747253D01*
X131848267Y-84853398D01*
X131986780Y-84910914D01*
X132136760Y-84911044D01*
X132275373Y-84853771D01*
X132381518Y-84747811D01*
X132413885Y-84669861D01*
X133294877Y-84669861D01*
X133352150Y-84808474D01*
X133458110Y-84914619D01*
X133596623Y-84972135D01*
X133746603Y-84972265D01*
X133885216Y-84914992D01*
X133991361Y-84809032D01*
X134048877Y-84670519D01*
X134048930Y-84608746D01*
X137303491Y-84608746D01*
X137360764Y-84747359D01*
X137466724Y-84853504D01*
X137605237Y-84911020D01*
X137755217Y-84911150D01*
X137893830Y-84853877D01*
X137999975Y-84747917D01*
X138025681Y-84686010D01*
X138895452Y-84686010D01*
X138952725Y-84824623D01*
X139058685Y-84930768D01*
X139197198Y-84988284D01*
X139347178Y-84988414D01*
X139485791Y-84931141D01*
X139591936Y-84825181D01*
X139649452Y-84686668D01*
X139649582Y-84536688D01*
X139592309Y-84398075D01*
X139486349Y-84291930D01*
X139347836Y-84234414D01*
X139197856Y-84234284D01*
X139059243Y-84291557D01*
X138953098Y-84397517D01*
X138895582Y-84536030D01*
X138895452Y-84686010D01*
X138025681Y-84686010D01*
X138057491Y-84609404D01*
X138057621Y-84459424D01*
X138000348Y-84320811D01*
X137894388Y-84214666D01*
X137755875Y-84157150D01*
X137605895Y-84157020D01*
X137467282Y-84214293D01*
X137361137Y-84320253D01*
X137303621Y-84458766D01*
X137303491Y-84608746D01*
X134048930Y-84608746D01*
X134049007Y-84520539D01*
X133991734Y-84381926D01*
X133885774Y-84275781D01*
X133747261Y-84218265D01*
X133597281Y-84218135D01*
X133458668Y-84275408D01*
X133352523Y-84381368D01*
X133295007Y-84519881D01*
X133294877Y-84669861D01*
X132413885Y-84669861D01*
X132439034Y-84609298D01*
X132439164Y-84459318D01*
X132381891Y-84320705D01*
X132275931Y-84214560D01*
X132205889Y-84185476D01*
X132296956Y-84147848D01*
X132403101Y-84041888D01*
X132460617Y-83903375D01*
X132460747Y-83753395D01*
X132458449Y-83747834D01*
X132534965Y-83747834D01*
X132503954Y-83822516D01*
X132503824Y-83972496D01*
X132561097Y-84111109D01*
X132667057Y-84217254D01*
X132805570Y-84274770D01*
X132955550Y-84274900D01*
X133094163Y-84217627D01*
X133200308Y-84111667D01*
X133257824Y-83973154D01*
X133257954Y-83823174D01*
X133226825Y-83747834D01*
X133243168Y-83747834D01*
X133302993Y-83807659D01*
X133302935Y-83874661D01*
X133360208Y-84013274D01*
X133466168Y-84119419D01*
X133604681Y-84176935D01*
X133754661Y-84177065D01*
X133893274Y-84119792D01*
X133999419Y-84013832D01*
X134056935Y-83875319D01*
X134056935Y-83874661D01*
X134102935Y-83874661D01*
X134160208Y-84013274D01*
X134266168Y-84119419D01*
X134404681Y-84176935D01*
X134554661Y-84177065D01*
X134693274Y-84119792D01*
X134799419Y-84013832D01*
X134856935Y-83875319D01*
X134856935Y-83874661D01*
X142102935Y-83874661D01*
X142160208Y-84013274D01*
X142266168Y-84119419D01*
X142404681Y-84176935D01*
X142554661Y-84177065D01*
X142693274Y-84119792D01*
X142799419Y-84013832D01*
X142856935Y-83875319D01*
X142856935Y-83874661D01*
X142902935Y-83874661D01*
X142960208Y-84013274D01*
X143066168Y-84119419D01*
X143204681Y-84176935D01*
X143354661Y-84177065D01*
X143493274Y-84119792D01*
X143599419Y-84013832D01*
X143656935Y-83875319D01*
X143656954Y-83852651D01*
X143726121Y-83852651D01*
X143783394Y-83991264D01*
X143889354Y-84097409D01*
X144027867Y-84154925D01*
X144177847Y-84155055D01*
X144316460Y-84097782D01*
X144422605Y-83991822D01*
X144446175Y-83935058D01*
X144496871Y-83935058D01*
X144554144Y-84073671D01*
X144660104Y-84179816D01*
X144798617Y-84237332D01*
X144803109Y-84237336D01*
X144702391Y-84278951D01*
X144596246Y-84384911D01*
X144538730Y-84523424D01*
X144538600Y-84673404D01*
X144595873Y-84812017D01*
X144701833Y-84918162D01*
X144840346Y-84975678D01*
X144990326Y-84975808D01*
X145128939Y-84918535D01*
X145235084Y-84812575D01*
X145292600Y-84674062D01*
X145292730Y-84524082D01*
X145235457Y-84385469D01*
X145129497Y-84279324D01*
X144990984Y-84221808D01*
X144986492Y-84221804D01*
X145087210Y-84180189D01*
X145193355Y-84074229D01*
X145250871Y-83935716D01*
X145251001Y-83785736D01*
X145193728Y-83647123D01*
X145087768Y-83540978D01*
X144949255Y-83483462D01*
X144799275Y-83483332D01*
X144660662Y-83540605D01*
X144554517Y-83646565D01*
X144497001Y-83785078D01*
X144496871Y-83935058D01*
X144446175Y-83935058D01*
X144480121Y-83853309D01*
X144480251Y-83703329D01*
X144422978Y-83564716D01*
X144317018Y-83458571D01*
X144178505Y-83401055D01*
X144028525Y-83400925D01*
X143889912Y-83458198D01*
X143783767Y-83564158D01*
X143726251Y-83702671D01*
X143726121Y-83852651D01*
X143656954Y-83852651D01*
X143657065Y-83725339D01*
X143599792Y-83586726D01*
X143493832Y-83480581D01*
X143355319Y-83423065D01*
X143205339Y-83422935D01*
X143066726Y-83480208D01*
X142960581Y-83586168D01*
X142903065Y-83724681D01*
X142902935Y-83874661D01*
X142856935Y-83874661D01*
X142857065Y-83725339D01*
X142799792Y-83586726D01*
X142693832Y-83480581D01*
X142555319Y-83423065D01*
X142405339Y-83422935D01*
X142266726Y-83480208D01*
X142160581Y-83586168D01*
X142103065Y-83724681D01*
X142102935Y-83874661D01*
X134856935Y-83874661D01*
X134857065Y-83725339D01*
X134799792Y-83586726D01*
X134693832Y-83480581D01*
X134555319Y-83423065D01*
X134405339Y-83422935D01*
X134266726Y-83480208D01*
X134160581Y-83586168D01*
X134103065Y-83724681D01*
X134102935Y-83874661D01*
X134056935Y-83874661D01*
X134057065Y-83725339D01*
X133999792Y-83586726D01*
X133893832Y-83480581D01*
X133755319Y-83423065D01*
X133687672Y-83423006D01*
X133641633Y-83376967D01*
X133754661Y-83377065D01*
X133893274Y-83319792D01*
X133999419Y-83213832D01*
X134048068Y-83096671D01*
X134902935Y-83096671D01*
X134960208Y-83235284D01*
X135066168Y-83341429D01*
X135204681Y-83398945D01*
X135354661Y-83399075D01*
X135493274Y-83341802D01*
X135599419Y-83235842D01*
X135656935Y-83097329D01*
X135657065Y-82947349D01*
X135599792Y-82808736D01*
X135493832Y-82702591D01*
X135355319Y-82645075D01*
X135205339Y-82644945D01*
X135066726Y-82702218D01*
X134960581Y-82808178D01*
X134903065Y-82946691D01*
X134902935Y-83096671D01*
X134048068Y-83096671D01*
X134056935Y-83075319D01*
X134057065Y-82925339D01*
X133999792Y-82786726D01*
X133893832Y-82680581D01*
X133755319Y-82623065D01*
X133687672Y-82623006D01*
X133632249Y-82567583D01*
X133723050Y-82567662D01*
X133861663Y-82510389D01*
X133967808Y-82404429D01*
X134025324Y-82265916D01*
X134025333Y-82254816D01*
X134099443Y-82254816D01*
X134156716Y-82393429D01*
X134262676Y-82499574D01*
X134401189Y-82557090D01*
X134551169Y-82557220D01*
X134689782Y-82499947D01*
X134795927Y-82393987D01*
X134853443Y-82255474D01*
X134853573Y-82105494D01*
X134796300Y-81966881D01*
X134690340Y-81860736D01*
X134551827Y-81803220D01*
X134401847Y-81803090D01*
X134263234Y-81860363D01*
X134157089Y-81966323D01*
X134099573Y-82104836D01*
X134099443Y-82254816D01*
X134025333Y-82254816D01*
X134025454Y-82115936D01*
X133968181Y-81977323D01*
X133862221Y-81871178D01*
X133723708Y-81813662D01*
X133573728Y-81813532D01*
X133435115Y-81870805D01*
X133328970Y-81976765D01*
X133271454Y-82115278D01*
X133271324Y-82265258D01*
X133279515Y-82285081D01*
X133226545Y-82274545D01*
X132417123Y-82274545D01*
X132456942Y-82178652D01*
X132457072Y-82028672D01*
X132399799Y-81890059D01*
X132293839Y-81783914D01*
X132216155Y-81751657D01*
X132293274Y-81719792D01*
X132399419Y-81613832D01*
X132431677Y-81536146D01*
X132463547Y-81613278D01*
X132569507Y-81719423D01*
X132708020Y-81776939D01*
X132858000Y-81777069D01*
X132996613Y-81719796D01*
X133102758Y-81613836D01*
X133154451Y-81489346D01*
X133250294Y-81489346D01*
X133307567Y-81627959D01*
X133413527Y-81734104D01*
X133552040Y-81791620D01*
X133702020Y-81791750D01*
X133840633Y-81734477D01*
X133946778Y-81628517D01*
X134004294Y-81490004D01*
X134004301Y-81481412D01*
X134094305Y-81481412D01*
X134151578Y-81620025D01*
X134257538Y-81726170D01*
X134396051Y-81783686D01*
X134546031Y-81783816D01*
X134684644Y-81726543D01*
X134790789Y-81620583D01*
X134848305Y-81482070D01*
X134848435Y-81332090D01*
X134791162Y-81193477D01*
X134685202Y-81087332D01*
X134546689Y-81029816D01*
X134396709Y-81029686D01*
X134258096Y-81086959D01*
X134151951Y-81192919D01*
X134094435Y-81331432D01*
X134094305Y-81481412D01*
X134004301Y-81481412D01*
X134004424Y-81340024D01*
X133947151Y-81201411D01*
X133841191Y-81095266D01*
X133702678Y-81037750D01*
X133552698Y-81037620D01*
X133414085Y-81094893D01*
X133307940Y-81200853D01*
X133250424Y-81339366D01*
X133250294Y-81489346D01*
X133154451Y-81489346D01*
X133160274Y-81475323D01*
X133160404Y-81325343D01*
X133103131Y-81186730D01*
X132997171Y-81080585D01*
X132858658Y-81023069D01*
X132708678Y-81022939D01*
X132570065Y-81080212D01*
X132463920Y-81186172D01*
X132431662Y-81263858D01*
X132399792Y-81186726D01*
X132293832Y-81080581D01*
X132155319Y-81023065D01*
X132005339Y-81022935D01*
X131866726Y-81080208D01*
X131760581Y-81186168D01*
X131703065Y-81324681D01*
X131702935Y-81474661D01*
X131760208Y-81613274D01*
X131866168Y-81719419D01*
X131943852Y-81751676D01*
X131866733Y-81783541D01*
X131760588Y-81889501D01*
X131703072Y-82028014D01*
X131702970Y-82145426D01*
X130227957Y-80670413D01*
X130898237Y-80670413D01*
X130955510Y-80809026D01*
X131061470Y-80915171D01*
X131199983Y-80972687D01*
X131349963Y-80972817D01*
X131488576Y-80915544D01*
X131594721Y-80809584D01*
X131652237Y-80671071D01*
X131652367Y-80521091D01*
X131595094Y-80382478D01*
X131489134Y-80276333D01*
X131350621Y-80218817D01*
X131200641Y-80218687D01*
X131062028Y-80275960D01*
X130955883Y-80381920D01*
X130898367Y-80520433D01*
X130898237Y-80670413D01*
X130227957Y-80670413D01*
X129834997Y-80277453D01*
X129835027Y-80241896D01*
X130112839Y-80241896D01*
X130170112Y-80380509D01*
X130276072Y-80486654D01*
X130414585Y-80544170D01*
X130564565Y-80544300D01*
X130703178Y-80487027D01*
X130809323Y-80381067D01*
X130866839Y-80242554D01*
X130866969Y-80092574D01*
X130809696Y-79953961D01*
X130703736Y-79847816D01*
X130565223Y-79790300D01*
X130415243Y-79790170D01*
X130276630Y-79847443D01*
X130170485Y-79953403D01*
X130112969Y-80091916D01*
X130112839Y-80241896D01*
X129835027Y-80241896D01*
X129835055Y-80210451D01*
X129777782Y-80071838D01*
X129671822Y-79965693D01*
X129533309Y-79908177D01*
X129383329Y-79908047D01*
X129244716Y-79965320D01*
X129138571Y-80071280D01*
X129138146Y-80072304D01*
X129018912Y-80022794D01*
X128868932Y-80022664D01*
X128730319Y-80079937D01*
X128680032Y-80130136D01*
X128630414Y-80080431D01*
X128491901Y-80022915D01*
X128341921Y-80022785D01*
X128203308Y-80080058D01*
X128149321Y-80133951D01*
X128103457Y-80088007D01*
X127964944Y-80030491D01*
X127933820Y-80030464D01*
X128299737Y-79664547D01*
X131470245Y-79664547D01*
X131527518Y-79803160D01*
X131633478Y-79909305D01*
X131771991Y-79966821D01*
X131921971Y-79966951D01*
X132060584Y-79909678D01*
X132166729Y-79803718D01*
X132224245Y-79665205D01*
X132224375Y-79515225D01*
X132167102Y-79376612D01*
X132061142Y-79270467D01*
X131922629Y-79212951D01*
X131772649Y-79212821D01*
X131634036Y-79270094D01*
X131527891Y-79376054D01*
X131470375Y-79514567D01*
X131470245Y-79664547D01*
X128299737Y-79664547D01*
X128422286Y-79541998D01*
X131185203Y-79541998D01*
X131289293Y-79521293D01*
X131377536Y-79462331D01*
X131716985Y-79122882D01*
X131783987Y-79122940D01*
X131922600Y-79065667D01*
X132028745Y-78959707D01*
X132086261Y-78821194D01*
X132086391Y-78671214D01*
X132029118Y-78532601D01*
X131923158Y-78426456D01*
X131784645Y-78368940D01*
X131634665Y-78368810D01*
X131496052Y-78426083D01*
X131389907Y-78532043D01*
X131332391Y-78670556D01*
X131332332Y-78738203D01*
X131072537Y-78997998D01*
X130774018Y-78997998D01*
X131260793Y-78511223D01*
X131327795Y-78511281D01*
X131466408Y-78454008D01*
X131572553Y-78348048D01*
X131630069Y-78209535D01*
X131630199Y-78059555D01*
X131572926Y-77920942D01*
X131466966Y-77814797D01*
X131328453Y-77757281D01*
X131233854Y-77757199D01*
X131233893Y-77712159D01*
X131176620Y-77573546D01*
X131070660Y-77467401D01*
X130932147Y-77409885D01*
X130782167Y-77409755D01*
X130643554Y-77467028D01*
X130537409Y-77572988D01*
X130479893Y-77711501D01*
X130479763Y-77861481D01*
X130537036Y-78000094D01*
X130642996Y-78106239D01*
X130781509Y-78163755D01*
X130838879Y-78163805D01*
X130321697Y-78680987D01*
X128245432Y-78680987D01*
X128317904Y-78608515D01*
X128376866Y-78520272D01*
X128378054Y-78514298D01*
X128444990Y-78447479D01*
X128502506Y-78308966D01*
X128502543Y-78265710D01*
X128515225Y-78270976D01*
X128665205Y-78271106D01*
X128803818Y-78213833D01*
X128909963Y-78107873D01*
X128967479Y-77969360D01*
X128967609Y-77819380D01*
X128910336Y-77680767D01*
X128804376Y-77574622D01*
X128665863Y-77517106D01*
X128598216Y-77517047D01*
X128582878Y-77501709D01*
X128494635Y-77442747D01*
X128484296Y-77440690D01*
X128501704Y-77398766D01*
X128569614Y-77426965D01*
X128719594Y-77427095D01*
X128858207Y-77369822D01*
X128964352Y-77263862D01*
X129002757Y-77171373D01*
X129025468Y-77194084D01*
X129025470Y-77194087D01*
X129046170Y-77207918D01*
X129115335Y-77254133D01*
X129221339Y-77275219D01*
X129221344Y-77275218D01*
X131699846Y-77275218D01*
X131603876Y-77371021D01*
X131546360Y-77509534D01*
X131546230Y-77659514D01*
X131603503Y-77798127D01*
X131709463Y-77904272D01*
X131847976Y-77961788D01*
X131997956Y-77961918D01*
X132136569Y-77904645D01*
X132242714Y-77798685D01*
X132300230Y-77660172D01*
X132300360Y-77510192D01*
X132243087Y-77371579D01*
X132146894Y-77275218D01*
X132159137Y-77275218D01*
X132282461Y-77398542D01*
X132372326Y-77458588D01*
X132478330Y-77479674D01*
X132478335Y-77479673D01*
X132504995Y-77479673D01*
X132547340Y-77522092D01*
X132685853Y-77579608D01*
X132835833Y-77579738D01*
X132974446Y-77522465D01*
X133080591Y-77416505D01*
X133138107Y-77277992D01*
X133138237Y-77128012D01*
X133080964Y-76989399D01*
X133019155Y-76927482D01*
X133056664Y-76890039D01*
X133114180Y-76751526D01*
X133114214Y-76712457D01*
X133199738Y-76797981D01*
X133199738Y-78106934D01*
X133220443Y-78211024D01*
X133279405Y-78299267D01*
X133991471Y-79011333D01*
X134079714Y-79070295D01*
X134183804Y-79091000D01*
X134351832Y-79091000D01*
X134399168Y-79138419D01*
X134537681Y-79195935D01*
X134687661Y-79196065D01*
X134763002Y-79164935D01*
X134763002Y-79600000D01*
X134783707Y-79704090D01*
X134842669Y-79792333D01*
X134930912Y-79851295D01*
X134949970Y-79855086D01*
X135465382Y-80370498D01*
X135465382Y-81045994D01*
X135390700Y-81014983D01*
X135240720Y-81014853D01*
X135102107Y-81072126D01*
X134995962Y-81178086D01*
X134938446Y-81316599D01*
X134938316Y-81466579D01*
X134995589Y-81605192D01*
X135101549Y-81711337D01*
X135240062Y-81768853D01*
X135363335Y-81768960D01*
X135312861Y-81819434D01*
X135245859Y-81819376D01*
X135107246Y-81876649D01*
X135001101Y-81982609D01*
X134943585Y-82121122D01*
X134943455Y-82271102D01*
X135000728Y-82409715D01*
X135106688Y-82515860D01*
X135245201Y-82573376D01*
X135395181Y-82573506D01*
X135533794Y-82516233D01*
X135639939Y-82410273D01*
X135697455Y-82271760D01*
X135697514Y-82204113D01*
X135703001Y-82198626D01*
X135702935Y-82274661D01*
X135760208Y-82413274D01*
X135866168Y-82519419D01*
X136004681Y-82576935D01*
X136118301Y-82577033D01*
X136072341Y-82622993D01*
X136005339Y-82622935D01*
X135866726Y-82680208D01*
X135760581Y-82786168D01*
X135703065Y-82924681D01*
X135702935Y-83074661D01*
X135760208Y-83213274D01*
X135866168Y-83319419D01*
X136004681Y-83376935D01*
X136154661Y-83377065D01*
X136293274Y-83319792D01*
X136399419Y-83213832D01*
X136440016Y-83116064D01*
X140486964Y-83116064D01*
X140544237Y-83254677D01*
X140650197Y-83360822D01*
X140788710Y-83418338D01*
X140938690Y-83418468D01*
X141077303Y-83361195D01*
X141183448Y-83255235D01*
X141240964Y-83116722D01*
X141241094Y-82966742D01*
X141183821Y-82828129D01*
X141077861Y-82721984D01*
X140939348Y-82664468D01*
X140789368Y-82664338D01*
X140650755Y-82721611D01*
X140544610Y-82827571D01*
X140487094Y-82966084D01*
X140486964Y-83116064D01*
X136440016Y-83116064D01*
X136456935Y-83075319D01*
X136456994Y-83007672D01*
X137237397Y-82227269D01*
X137252868Y-82204115D01*
X137296359Y-82139026D01*
X137317064Y-82034936D01*
X137317064Y-81508856D01*
X137360208Y-81613274D01*
X137466168Y-81719419D01*
X137604681Y-81776935D01*
X137754661Y-81777065D01*
X137893274Y-81719792D01*
X137999419Y-81613832D01*
X138056935Y-81475319D01*
X138056994Y-81407672D01*
X138072332Y-81392334D01*
X138131294Y-81304091D01*
X138151999Y-81200001D01*
X138151999Y-76650000D01*
X138974748Y-76650000D01*
X138974748Y-77137025D01*
M02*
