G04 #@! TF.GenerationSoftware,KiCad,Pcbnew,5.0.0-rc2-dev-unknown+dfsg1+20180318-2*
G04 #@! TF.CreationDate,2018-04-18T14:44:27+02:00*
G04 #@! TF.ProjectId,ulx3s,756C7833732E6B696361645F70636200,rev?*
G04 #@! TF.SameCoordinates,Original*
G04 #@! TF.FileFunction,Other,Fab,Top*
%FSLAX46Y46*%
G04 Gerber Fmt 4.6, Leading zero omitted, Abs format (unit mm)*
G04 Created by KiCad (PCBNEW 5.0.0-rc2-dev-unknown+dfsg1+20180318-2) date Wed Apr 18 14:44:27 2018*
%MOMM*%
%LPD*%
G01*
G04 APERTURE LIST*
%ADD10C,0.100000*%
%ADD11C,0.150000*%
%ADD12C,0.075000*%
%ADD13C,0.254000*%
G04 APERTURE END LIST*
D10*
X128786000Y-72360000D02*
X128786000Y-70455000D01*
X128786000Y-70455000D02*
X136406000Y-70455000D01*
X136406000Y-70455000D02*
X136406000Y-72995000D01*
X136406000Y-72995000D02*
X129421000Y-72995000D01*
X129421000Y-72995000D02*
X128786000Y-72360000D01*
X127990000Y-108880000D02*
X128790000Y-108880000D01*
X127990000Y-110480000D02*
X127990000Y-108880000D01*
X128790000Y-110480000D02*
X127990000Y-110480000D01*
X128790000Y-108880000D02*
X128790000Y-110480000D01*
X131330000Y-110480000D02*
X130530000Y-110480000D01*
X131330000Y-108880000D02*
X131330000Y-110480000D01*
X130530000Y-108880000D02*
X131330000Y-108880000D01*
X130530000Y-110480000D02*
X130530000Y-108880000D01*
X116880000Y-60925000D02*
X116880000Y-66925000D01*
X106880000Y-60925000D02*
X116880000Y-60925000D01*
X106880000Y-66925000D02*
X106880000Y-60925000D01*
X116880000Y-66925000D02*
X106880000Y-66925000D01*
X175300000Y-60925000D02*
X175300000Y-66925000D01*
X165300000Y-60925000D02*
X175300000Y-60925000D01*
X165300000Y-66925000D02*
X165300000Y-60925000D01*
X175300000Y-66925000D02*
X165300000Y-66925000D01*
D11*
X178785000Y-102655000D02*
X174785000Y-102655000D01*
X174785000Y-102655000D02*
X174785000Y-97655000D01*
X174785000Y-97655000D02*
X179785000Y-97655000D01*
X179785000Y-97655000D02*
X179785000Y-101655000D01*
X179785000Y-101655000D02*
X178785000Y-102655000D01*
X153790000Y-73485000D02*
G75*
G03X153790000Y-73485000I-1905000J0D01*
G01*
X129660000Y-73485000D02*
G75*
G03X129660000Y-73485000I-1905000J0D01*
G01*
X129660000Y-100155000D02*
G75*
G03X129660000Y-100155000I-1905000J0D01*
G01*
X153790000Y-100155000D02*
G75*
G03X153790000Y-100155000I-1905000J0D01*
G01*
X153790000Y-77930000D02*
X153790000Y-96980000D01*
X125850000Y-77930000D02*
X153790000Y-77930000D01*
X125850000Y-96980000D02*
X125850000Y-77930000D01*
X153790000Y-96980000D02*
X125850000Y-96980000D01*
X155060000Y-70310000D02*
X155060000Y-103330000D01*
X124580000Y-70310000D02*
X155060000Y-70310000D01*
X124580000Y-103330000D02*
X124580000Y-70310000D01*
X155060000Y-103330000D02*
X124580000Y-103330000D01*
D10*
X174570000Y-77120000D02*
X174570000Y-71120000D01*
X174570000Y-71120000D02*
X168570000Y-71120000D01*
X168570000Y-71120000D02*
X168570000Y-77120000D01*
X168570000Y-77120000D02*
X174570000Y-77120000D01*
X173320714Y-74120000D02*
G75*
G03X173320714Y-74120000I-1750714J0D01*
G01*
X102530000Y-86360000D02*
X102530000Y-92360000D01*
X102530000Y-92360000D02*
X108530000Y-92360000D01*
X108530000Y-92360000D02*
X108530000Y-86360000D01*
X108530000Y-86360000D02*
X102530000Y-86360000D01*
X107280714Y-89360000D02*
G75*
G03X107280714Y-89360000I-1750714J0D01*
G01*
X113960000Y-86360000D02*
X113960000Y-92360000D01*
X113960000Y-92360000D02*
X119960000Y-92360000D01*
X119960000Y-92360000D02*
X119960000Y-86360000D01*
X119960000Y-86360000D02*
X113960000Y-86360000D01*
X118710714Y-89360000D02*
G75*
G03X118710714Y-89360000I-1750714J0D01*
G01*
X157140000Y-96520000D02*
X157140000Y-102520000D01*
X157140000Y-102520000D02*
X163140000Y-102520000D01*
X163140000Y-102520000D02*
X163140000Y-96520000D01*
X163140000Y-96520000D02*
X157140000Y-96520000D01*
X161890714Y-99520000D02*
G75*
G03X161890714Y-99520000I-1750714J0D01*
G01*
X163140000Y-111410000D02*
X163140000Y-105410000D01*
X163140000Y-105410000D02*
X157140000Y-105410000D01*
X157140000Y-105410000D02*
X157140000Y-111410000D01*
X157140000Y-111410000D02*
X163140000Y-111410000D01*
X161890714Y-108410000D02*
G75*
G03X161890714Y-108410000I-1750714J0D01*
G01*
X151710000Y-111410000D02*
X151710000Y-105410000D01*
X151710000Y-105410000D02*
X145710000Y-105410000D01*
X145710000Y-105410000D02*
X145710000Y-111410000D01*
X145710000Y-111410000D02*
X151710000Y-111410000D01*
X150460714Y-108410000D02*
G75*
G03X150460714Y-108410000I-1750714J0D01*
G01*
X174570000Y-111410000D02*
X174570000Y-105410000D01*
X174570000Y-105410000D02*
X168570000Y-105410000D01*
X168570000Y-105410000D02*
X168570000Y-111410000D01*
X168570000Y-111410000D02*
X174570000Y-111410000D01*
X173320714Y-108410000D02*
G75*
G03X173320714Y-108410000I-1750714J0D01*
G01*
X154280000Y-76460000D02*
X154280000Y-70780000D01*
X154280000Y-70780000D02*
X166000000Y-70780000D01*
X166000000Y-70780000D02*
X166000000Y-77460000D01*
X166000000Y-77460000D02*
X155280000Y-77460000D01*
X155280000Y-77460000D02*
X154280000Y-76460000D01*
X155695000Y-75930000D02*
X156965000Y-75930000D01*
X156965000Y-75930000D02*
X156965000Y-72310000D01*
X156965000Y-72310000D02*
X155695000Y-72310000D01*
X155695000Y-72310000D02*
X155695000Y-75930000D01*
X155695000Y-74120000D02*
X156965000Y-74120000D01*
X158235000Y-75930000D02*
X159505000Y-75930000D01*
X159505000Y-75930000D02*
X159505000Y-72310000D01*
X159505000Y-72310000D02*
X158235000Y-72310000D01*
X158235000Y-72310000D02*
X158235000Y-75930000D01*
X158235000Y-74120000D02*
X159505000Y-74120000D01*
X160775000Y-75930000D02*
X162045000Y-75930000D01*
X162045000Y-75930000D02*
X162045000Y-72310000D01*
X162045000Y-72310000D02*
X160775000Y-72310000D01*
X160775000Y-72310000D02*
X160775000Y-75930000D01*
X160775000Y-74120000D02*
X162045000Y-74120000D01*
X163315000Y-75930000D02*
X164585000Y-75930000D01*
X164585000Y-75930000D02*
X164585000Y-72310000D01*
X164585000Y-72310000D02*
X163315000Y-72310000D01*
X163315000Y-72310000D02*
X163315000Y-75930000D01*
X163315000Y-74120000D02*
X164585000Y-74120000D01*
X125450000Y-106270000D02*
X126250000Y-106270000D01*
X125850000Y-106270000D02*
X125450000Y-105670000D01*
X126250000Y-105670000D02*
X125850000Y-106270000D01*
X125450000Y-105670000D02*
X126250000Y-105670000D01*
X126450000Y-104870000D02*
X126450000Y-106870000D01*
X125250000Y-104870000D02*
X126450000Y-104870000D01*
X125250000Y-106870000D02*
X125250000Y-104870000D01*
X126450000Y-106870000D02*
X125250000Y-106870000D01*
X125450000Y-108880000D02*
X126250000Y-108880000D01*
X125450000Y-110480000D02*
X125450000Y-108880000D01*
X126250000Y-110480000D02*
X125450000Y-110480000D01*
X126250000Y-108880000D02*
X126250000Y-110480000D01*
X127990000Y-106270000D02*
X128790000Y-106270000D01*
X128390000Y-106270000D02*
X127990000Y-105670000D01*
X128790000Y-105670000D02*
X128390000Y-106270000D01*
X127990000Y-105670000D02*
X128790000Y-105670000D01*
X128990000Y-104870000D02*
X128990000Y-106870000D01*
X127790000Y-104870000D02*
X128990000Y-104870000D01*
X127790000Y-106870000D02*
X127790000Y-104870000D01*
X128990000Y-106870000D02*
X127790000Y-106870000D01*
X121170000Y-79435000D02*
X120370000Y-79435000D01*
X120770000Y-79435000D02*
X121170000Y-80035000D01*
X120370000Y-80035000D02*
X120770000Y-79435000D01*
X121170000Y-80035000D02*
X120370000Y-80035000D01*
X120170000Y-80835000D02*
X120170000Y-78835000D01*
X121370000Y-80835000D02*
X120170000Y-80835000D01*
X121370000Y-78835000D02*
X121370000Y-80835000D01*
X120170000Y-78835000D02*
X121370000Y-78835000D01*
X118630000Y-79435000D02*
X117830000Y-79435000D01*
X118230000Y-79435000D02*
X118630000Y-80035000D01*
X117830000Y-80035000D02*
X118230000Y-79435000D01*
X118630000Y-80035000D02*
X117830000Y-80035000D01*
X117630000Y-80835000D02*
X117630000Y-78835000D01*
X118830000Y-80835000D02*
X117630000Y-80835000D01*
X118830000Y-78835000D02*
X118830000Y-80835000D01*
X117630000Y-78835000D02*
X118830000Y-78835000D01*
X116090000Y-79435000D02*
X115290000Y-79435000D01*
X115690000Y-79435000D02*
X116090000Y-80035000D01*
X115290000Y-80035000D02*
X115690000Y-79435000D01*
X116090000Y-80035000D02*
X115290000Y-80035000D01*
X115090000Y-80835000D02*
X115090000Y-78835000D01*
X116290000Y-80835000D02*
X115090000Y-80835000D01*
X116290000Y-78835000D02*
X116290000Y-80835000D01*
X115090000Y-78835000D02*
X116290000Y-78835000D01*
X113550000Y-79435000D02*
X112750000Y-79435000D01*
X113150000Y-79435000D02*
X113550000Y-80035000D01*
X112750000Y-80035000D02*
X113150000Y-79435000D01*
X113550000Y-80035000D02*
X112750000Y-80035000D01*
X112550000Y-80835000D02*
X112550000Y-78835000D01*
X113750000Y-80835000D02*
X112550000Y-80835000D01*
X113750000Y-78835000D02*
X113750000Y-80835000D01*
X112550000Y-78835000D02*
X113750000Y-78835000D01*
X111010000Y-79435000D02*
X110210000Y-79435000D01*
X110610000Y-79435000D02*
X111010000Y-80035000D01*
X110210000Y-80035000D02*
X110610000Y-79435000D01*
X111010000Y-80035000D02*
X110210000Y-80035000D01*
X110010000Y-80835000D02*
X110010000Y-78835000D01*
X111210000Y-80835000D02*
X110010000Y-80835000D01*
X111210000Y-78835000D02*
X111210000Y-80835000D01*
X110010000Y-78835000D02*
X111210000Y-78835000D01*
X108470000Y-79435000D02*
X107670000Y-79435000D01*
X108070000Y-79435000D02*
X108470000Y-80035000D01*
X107670000Y-80035000D02*
X108070000Y-79435000D01*
X108470000Y-80035000D02*
X107670000Y-80035000D01*
X107470000Y-80835000D02*
X107470000Y-78835000D01*
X108670000Y-80835000D02*
X107470000Y-80835000D01*
X108670000Y-78835000D02*
X108670000Y-80835000D01*
X107470000Y-78835000D02*
X108670000Y-78835000D01*
X105930000Y-79435000D02*
X105130000Y-79435000D01*
X105530000Y-79435000D02*
X105930000Y-80035000D01*
X105130000Y-80035000D02*
X105530000Y-79435000D01*
X105930000Y-80035000D02*
X105130000Y-80035000D01*
X104930000Y-80835000D02*
X104930000Y-78835000D01*
X106130000Y-80835000D02*
X104930000Y-80835000D01*
X106130000Y-78835000D02*
X106130000Y-80835000D01*
X104930000Y-78835000D02*
X106130000Y-78835000D01*
X103390000Y-79435000D02*
X102590000Y-79435000D01*
X102990000Y-79435000D02*
X103390000Y-80035000D01*
X102590000Y-80035000D02*
X102990000Y-79435000D01*
X103390000Y-80035000D02*
X102590000Y-80035000D01*
X102390000Y-80835000D02*
X102390000Y-78835000D01*
X103590000Y-80835000D02*
X102390000Y-80835000D01*
X103590000Y-78835000D02*
X103590000Y-80835000D01*
X102390000Y-78835000D02*
X103590000Y-78835000D01*
X130530000Y-106270000D02*
X131330000Y-106270000D01*
X130930000Y-106270000D02*
X130530000Y-105670000D01*
X131330000Y-105670000D02*
X130930000Y-106270000D01*
X130530000Y-105670000D02*
X131330000Y-105670000D01*
X131530000Y-104870000D02*
X131530000Y-106870000D01*
X130330000Y-104870000D02*
X131530000Y-104870000D01*
X130330000Y-106870000D02*
X130330000Y-104870000D01*
X131530000Y-106870000D02*
X130330000Y-106870000D01*
D11*
X120050000Y-102800000D02*
X111250000Y-107750000D01*
X120050000Y-107750000D02*
X111250000Y-102800000D01*
X120050000Y-102800000D02*
X120050000Y-107750000D01*
X111250000Y-102800000D02*
X111250000Y-107750000D01*
X111250000Y-107750000D02*
X120050000Y-107750000D01*
X120050000Y-102800000D02*
X111250000Y-102800000D01*
X121200000Y-95100000D02*
X108900000Y-95100000D01*
X121200000Y-111900000D02*
X121200000Y-95100000D01*
X108900000Y-111900000D02*
X121200000Y-111900000D01*
X108900000Y-95950000D02*
X108900000Y-111900000D01*
X109000000Y-68920000D02*
X109000000Y-73920000D01*
X102000000Y-68920000D02*
X109000000Y-68920000D01*
X102000000Y-73920000D02*
X102000000Y-68920000D01*
X109000000Y-73920000D02*
X102000000Y-73920000D01*
D10*
X121170000Y-83302000D02*
X120370000Y-83302000D01*
X121170000Y-81702000D02*
X121170000Y-83302000D01*
X120370000Y-81702000D02*
X121170000Y-81702000D01*
X120370000Y-83302000D02*
X120370000Y-81702000D01*
X118630000Y-83302000D02*
X117830000Y-83302000D01*
X118630000Y-81702000D02*
X118630000Y-83302000D01*
X117830000Y-81702000D02*
X118630000Y-81702000D01*
X117830000Y-83302000D02*
X117830000Y-81702000D01*
X116090000Y-83302000D02*
X115290000Y-83302000D01*
X116090000Y-81702000D02*
X116090000Y-83302000D01*
X115290000Y-81702000D02*
X116090000Y-81702000D01*
X115290000Y-83302000D02*
X115290000Y-81702000D01*
X113550000Y-83302000D02*
X112750000Y-83302000D01*
X113550000Y-81702000D02*
X113550000Y-83302000D01*
X112750000Y-81702000D02*
X113550000Y-81702000D01*
X112750000Y-83302000D02*
X112750000Y-81702000D01*
X111010000Y-83302000D02*
X110210000Y-83302000D01*
X111010000Y-81702000D02*
X111010000Y-83302000D01*
X110210000Y-81702000D02*
X111010000Y-81702000D01*
X110210000Y-83302000D02*
X110210000Y-81702000D01*
X108470000Y-83302000D02*
X107670000Y-83302000D01*
X108470000Y-81702000D02*
X108470000Y-83302000D01*
X107670000Y-81702000D02*
X108470000Y-81702000D01*
X107670000Y-83302000D02*
X107670000Y-81702000D01*
X105930000Y-83302000D02*
X105130000Y-83302000D01*
X105930000Y-81702000D02*
X105930000Y-83302000D01*
X105130000Y-81702000D02*
X105930000Y-81702000D01*
X105130000Y-83302000D02*
X105130000Y-81702000D01*
X103390000Y-83302000D02*
X102590000Y-83302000D01*
X103390000Y-81702000D02*
X103390000Y-83302000D01*
X102590000Y-81702000D02*
X103390000Y-81702000D01*
X102590000Y-83302000D02*
X102590000Y-81702000D01*
X149961000Y-76571000D02*
X149961000Y-74971000D01*
X149961000Y-74971000D02*
X150761000Y-74971000D01*
X150761000Y-74971000D02*
X150761000Y-76571000D01*
X150761000Y-76571000D02*
X149961000Y-76571000D01*
X151358000Y-76571000D02*
X151358000Y-74971000D01*
X151358000Y-74971000D02*
X152158000Y-74971000D01*
X152158000Y-74971000D02*
X152158000Y-76571000D01*
X152158000Y-76571000D02*
X151358000Y-76571000D01*
X139801000Y-76571000D02*
X139801000Y-74971000D01*
X139801000Y-74971000D02*
X140601000Y-74971000D01*
X140601000Y-74971000D02*
X140601000Y-76571000D01*
X140601000Y-76571000D02*
X139801000Y-76571000D01*
X142595000Y-76571000D02*
X142595000Y-74971000D01*
X142595000Y-74971000D02*
X143395000Y-74971000D01*
X143395000Y-74971000D02*
X143395000Y-76571000D01*
X143395000Y-76571000D02*
X142595000Y-76571000D01*
X145389000Y-76571000D02*
X145389000Y-74971000D01*
X145389000Y-74971000D02*
X146189000Y-74971000D01*
X146189000Y-74971000D02*
X146189000Y-76571000D01*
X146189000Y-76571000D02*
X145389000Y-76571000D01*
X148564000Y-76571000D02*
X148564000Y-74971000D01*
X148564000Y-74971000D02*
X149364000Y-74971000D01*
X149364000Y-74971000D02*
X149364000Y-76571000D01*
X149364000Y-76571000D02*
X148564000Y-76571000D01*
X138404000Y-76571000D02*
X138404000Y-74971000D01*
X138404000Y-74971000D02*
X139204000Y-74971000D01*
X139204000Y-74971000D02*
X139204000Y-76571000D01*
X139204000Y-76571000D02*
X138404000Y-76571000D01*
X141198000Y-76571000D02*
X141198000Y-74971000D01*
X141198000Y-74971000D02*
X141998000Y-74971000D01*
X141998000Y-74971000D02*
X141998000Y-76571000D01*
X141998000Y-76571000D02*
X141198000Y-76571000D01*
X143992000Y-76571000D02*
X143992000Y-74971000D01*
X143992000Y-74971000D02*
X144792000Y-74971000D01*
X144792000Y-74971000D02*
X144792000Y-76571000D01*
X144792000Y-76571000D02*
X143992000Y-76571000D01*
X147167000Y-76559000D02*
X147167000Y-74959000D01*
X147167000Y-74959000D02*
X147967000Y-74959000D01*
X147967000Y-74959000D02*
X147967000Y-76559000D01*
X147967000Y-76559000D02*
X147167000Y-76559000D01*
D11*
X136918380Y-72915476D02*
X137918380Y-72582142D01*
X136918380Y-72248809D01*
X136918380Y-71629761D02*
X137632666Y-71629761D01*
X137775523Y-71677380D01*
X137870761Y-71772619D01*
X137918380Y-71915476D01*
X137918380Y-72010714D01*
X137918380Y-70629761D02*
X137918380Y-71201190D01*
X137918380Y-70915476D02*
X136918380Y-70915476D01*
X137061238Y-71010714D01*
X137156476Y-71105952D01*
X137204095Y-71201190D01*
X132262666Y-71177380D02*
X132262666Y-71891666D01*
X132215047Y-72034523D01*
X132119809Y-72129761D01*
X131976952Y-72177380D01*
X131881714Y-72177380D01*
X133215047Y-71177380D02*
X132738857Y-71177380D01*
X132691238Y-71653571D01*
X132738857Y-71605952D01*
X132834095Y-71558333D01*
X133072190Y-71558333D01*
X133167428Y-71605952D01*
X133215047Y-71653571D01*
X133262666Y-71748809D01*
X133262666Y-71986904D01*
X133215047Y-72082142D01*
X133167428Y-72129761D01*
X133072190Y-72177380D01*
X132834095Y-72177380D01*
X132738857Y-72129761D01*
X132691238Y-72082142D01*
X101164761Y-97702380D02*
X101402857Y-98702380D01*
X101593333Y-97988095D01*
X101783809Y-98702380D01*
X102021904Y-97702380D01*
X102402857Y-98702380D02*
X102402857Y-97702380D01*
X103212380Y-98178571D02*
X102879047Y-98178571D01*
X102879047Y-98702380D02*
X102879047Y-97702380D01*
X103355238Y-97702380D01*
X103736190Y-98702380D02*
X103736190Y-97702380D01*
X103974285Y-98797619D02*
X104736190Y-98797619D01*
X105164761Y-97702380D02*
X105355238Y-97702380D01*
X105450476Y-97750000D01*
X105545714Y-97845238D01*
X105593333Y-98035714D01*
X105593333Y-98369047D01*
X105545714Y-98559523D01*
X105450476Y-98654761D01*
X105355238Y-98702380D01*
X105164761Y-98702380D01*
X105069523Y-98654761D01*
X104974285Y-98559523D01*
X104926666Y-98369047D01*
X104926666Y-98035714D01*
X104974285Y-97845238D01*
X105069523Y-97750000D01*
X105164761Y-97702380D01*
X106355238Y-98178571D02*
X106021904Y-98178571D01*
X106021904Y-98702380D02*
X106021904Y-97702380D01*
X106498095Y-97702380D01*
X107212380Y-98178571D02*
X106879047Y-98178571D01*
X106879047Y-98702380D02*
X106879047Y-97702380D01*
X107355238Y-97702380D01*
X126942380Y-109799047D02*
X126942380Y-110370476D01*
X126942380Y-110084761D02*
X125942380Y-110084761D01*
X126085238Y-110180000D01*
X126180476Y-110275238D01*
X126228095Y-110370476D01*
X126942380Y-109370476D02*
X125942380Y-109370476D01*
X126561428Y-109275238D02*
X126942380Y-108989523D01*
X126275714Y-108989523D02*
X126656666Y-109370476D01*
X133282380Y-109799047D02*
X133282380Y-110370476D01*
X133282380Y-110084761D02*
X132282380Y-110084761D01*
X132425238Y-110180000D01*
X132520476Y-110275238D01*
X132568095Y-110370476D01*
X133282380Y-109370476D02*
X132282380Y-109370476D01*
X132901428Y-109275238D02*
X133282380Y-108989523D01*
X132615714Y-108989523D02*
X132996666Y-109370476D01*
X110022857Y-67329571D02*
X110022857Y-68543857D01*
X110094285Y-68686714D01*
X110165714Y-68758142D01*
X110308571Y-68829571D01*
X110594285Y-68829571D01*
X110737142Y-68758142D01*
X110808571Y-68686714D01*
X110880000Y-68543857D01*
X110880000Y-67329571D01*
X111522857Y-68758142D02*
X111737142Y-68829571D01*
X112094285Y-68829571D01*
X112237142Y-68758142D01*
X112308571Y-68686714D01*
X112380000Y-68543857D01*
X112380000Y-68401000D01*
X112308571Y-68258142D01*
X112237142Y-68186714D01*
X112094285Y-68115285D01*
X111808571Y-68043857D01*
X111665714Y-67972428D01*
X111594285Y-67901000D01*
X111522857Y-67758142D01*
X111522857Y-67615285D01*
X111594285Y-67472428D01*
X111665714Y-67401000D01*
X111808571Y-67329571D01*
X112165714Y-67329571D01*
X112380000Y-67401000D01*
X113808571Y-68829571D02*
X112951428Y-68829571D01*
X113380000Y-68829571D02*
X113380000Y-67329571D01*
X113237142Y-67543857D01*
X113094285Y-67686714D01*
X112951428Y-67758142D01*
X168442857Y-67329571D02*
X168442857Y-68543857D01*
X168514285Y-68686714D01*
X168585714Y-68758142D01*
X168728571Y-68829571D01*
X169014285Y-68829571D01*
X169157142Y-68758142D01*
X169228571Y-68686714D01*
X169300000Y-68543857D01*
X169300000Y-67329571D01*
X169942857Y-68758142D02*
X170157142Y-68829571D01*
X170514285Y-68829571D01*
X170657142Y-68758142D01*
X170728571Y-68686714D01*
X170800000Y-68543857D01*
X170800000Y-68401000D01*
X170728571Y-68258142D01*
X170657142Y-68186714D01*
X170514285Y-68115285D01*
X170228571Y-68043857D01*
X170085714Y-67972428D01*
X170014285Y-67901000D01*
X169942857Y-67758142D01*
X169942857Y-67615285D01*
X170014285Y-67472428D01*
X170085714Y-67401000D01*
X170228571Y-67329571D01*
X170585714Y-67329571D01*
X170800000Y-67401000D01*
X171371428Y-67472428D02*
X171442857Y-67401000D01*
X171585714Y-67329571D01*
X171942857Y-67329571D01*
X172085714Y-67401000D01*
X172157142Y-67472428D01*
X172228571Y-67615285D01*
X172228571Y-67758142D01*
X172157142Y-67972428D01*
X171300000Y-68829571D01*
X172228571Y-68829571D01*
X173665952Y-96732380D02*
X173665952Y-95732380D01*
X173999285Y-96446666D01*
X174332619Y-95732380D01*
X174332619Y-96732380D01*
X174761190Y-96446666D02*
X175237380Y-96446666D01*
X174665952Y-96732380D02*
X174999285Y-95732380D01*
X175332619Y-96732380D01*
X175570714Y-95732380D02*
X176237380Y-96732380D01*
X176237380Y-95732380D02*
X175570714Y-96732380D01*
X177142142Y-96732380D02*
X176570714Y-96732380D01*
X176856428Y-96732380D02*
X176856428Y-95732380D01*
X176761190Y-95875238D01*
X176665952Y-95970476D01*
X176570714Y-96018095D01*
X178094523Y-96732380D02*
X177523095Y-96732380D01*
X177808809Y-96732380D02*
X177808809Y-95732380D01*
X177713571Y-95875238D01*
X177618333Y-95970476D01*
X177523095Y-96018095D01*
X179046904Y-96732380D02*
X178475476Y-96732380D01*
X178761190Y-96732380D02*
X178761190Y-95732380D01*
X178665952Y-95875238D01*
X178570714Y-95970476D01*
X178475476Y-96018095D01*
X179427857Y-95827619D02*
X179475476Y-95780000D01*
X179570714Y-95732380D01*
X179808809Y-95732380D01*
X179904047Y-95780000D01*
X179951666Y-95827619D01*
X179999285Y-95922857D01*
X179999285Y-96018095D01*
X179951666Y-96160952D01*
X179380238Y-96732380D01*
X179999285Y-96732380D01*
X180904047Y-95732380D02*
X180427857Y-95732380D01*
X180380238Y-96208571D01*
X180427857Y-96160952D01*
X180523095Y-96113333D01*
X180761190Y-96113333D01*
X180856428Y-96160952D01*
X180904047Y-96208571D01*
X180951666Y-96303809D01*
X180951666Y-96541904D01*
X180904047Y-96637142D01*
X180856428Y-96684761D01*
X180761190Y-96732380D01*
X180523095Y-96732380D01*
X180427857Y-96684761D01*
X180380238Y-96637142D01*
X130200952Y-97408761D02*
X130581904Y-97408761D01*
X130772380Y-97504000D01*
X130962857Y-97694476D01*
X131058095Y-98075428D01*
X131058095Y-98742095D01*
X130962857Y-99123047D01*
X130772380Y-99313523D01*
X130581904Y-99408761D01*
X130200952Y-99408761D01*
X130010476Y-99313523D01*
X129820000Y-99123047D01*
X129724761Y-98742095D01*
X129724761Y-98075428D01*
X129820000Y-97694476D01*
X130010476Y-97504000D01*
X130200952Y-97408761D01*
X132867619Y-99408761D02*
X131915238Y-99408761D01*
X131915238Y-97408761D01*
X133534285Y-98361142D02*
X134200952Y-98361142D01*
X134486666Y-99408761D02*
X133534285Y-99408761D01*
X133534285Y-97408761D01*
X134486666Y-97408761D01*
X135343809Y-99408761D02*
X135343809Y-97408761D01*
X135820000Y-97408761D01*
X136105714Y-97504000D01*
X136296190Y-97694476D01*
X136391428Y-97884952D01*
X136486666Y-98265904D01*
X136486666Y-98551619D01*
X136391428Y-98932571D01*
X136296190Y-99123047D01*
X136105714Y-99313523D01*
X135820000Y-99408761D01*
X135343809Y-99408761D01*
X138867619Y-99408761D02*
X138867619Y-97408761D01*
X139343809Y-97408761D01*
X139629523Y-97504000D01*
X139820000Y-97694476D01*
X139915238Y-97884952D01*
X140010476Y-98265904D01*
X140010476Y-98551619D01*
X139915238Y-98932571D01*
X139820000Y-99123047D01*
X139629523Y-99313523D01*
X139343809Y-99408761D01*
X138867619Y-99408761D01*
X140867619Y-99408761D02*
X140867619Y-97408761D01*
X141724761Y-99313523D02*
X142010476Y-99408761D01*
X142486666Y-99408761D01*
X142677142Y-99313523D01*
X142772380Y-99218285D01*
X142867619Y-99027809D01*
X142867619Y-98837333D01*
X142772380Y-98646857D01*
X142677142Y-98551619D01*
X142486666Y-98456380D01*
X142105714Y-98361142D01*
X141915238Y-98265904D01*
X141820000Y-98170666D01*
X141724761Y-97980190D01*
X141724761Y-97789714D01*
X141820000Y-97599238D01*
X141915238Y-97504000D01*
X142105714Y-97408761D01*
X142581904Y-97408761D01*
X142867619Y-97504000D01*
X143724761Y-99408761D02*
X143724761Y-97408761D01*
X144486666Y-97408761D01*
X144677142Y-97504000D01*
X144772380Y-97599238D01*
X144867619Y-97789714D01*
X144867619Y-98075428D01*
X144772380Y-98265904D01*
X144677142Y-98361142D01*
X144486666Y-98456380D01*
X143724761Y-98456380D01*
X146677142Y-99408761D02*
X145724761Y-99408761D01*
X145724761Y-97408761D01*
X147248571Y-98837333D02*
X148200952Y-98837333D01*
X147058095Y-99408761D02*
X147724761Y-97408761D01*
X148391428Y-99408761D01*
X149439047Y-98456380D02*
X149439047Y-99408761D01*
X148772380Y-97408761D02*
X149439047Y-98456380D01*
X150105714Y-97408761D01*
X169022380Y-70422380D02*
X169022380Y-69422380D01*
X169403333Y-69422380D01*
X169498571Y-69470000D01*
X169546190Y-69517619D01*
X169593809Y-69612857D01*
X169593809Y-69755714D01*
X169546190Y-69850952D01*
X169498571Y-69898571D01*
X169403333Y-69946190D01*
X169022380Y-69946190D01*
X169879523Y-69422380D02*
X170450952Y-69422380D01*
X170165238Y-70422380D02*
X170165238Y-69422380D01*
X170736666Y-70374761D02*
X170879523Y-70422380D01*
X171117619Y-70422380D01*
X171212857Y-70374761D01*
X171260476Y-70327142D01*
X171308095Y-70231904D01*
X171308095Y-70136666D01*
X171260476Y-70041428D01*
X171212857Y-69993809D01*
X171117619Y-69946190D01*
X170927142Y-69898571D01*
X170831904Y-69850952D01*
X170784285Y-69803333D01*
X170736666Y-69708095D01*
X170736666Y-69612857D01*
X170784285Y-69517619D01*
X170831904Y-69470000D01*
X170927142Y-69422380D01*
X171165238Y-69422380D01*
X171308095Y-69470000D01*
X172165238Y-69422380D02*
X171974761Y-69422380D01*
X171879523Y-69470000D01*
X171831904Y-69517619D01*
X171736666Y-69660476D01*
X171689047Y-69850952D01*
X171689047Y-70231904D01*
X171736666Y-70327142D01*
X171784285Y-70374761D01*
X171879523Y-70422380D01*
X172070000Y-70422380D01*
X172165238Y-70374761D01*
X172212857Y-70327142D01*
X172260476Y-70231904D01*
X172260476Y-69993809D01*
X172212857Y-69898571D01*
X172165238Y-69850952D01*
X172070000Y-69803333D01*
X171879523Y-69803333D01*
X171784285Y-69850952D01*
X171736666Y-69898571D01*
X171689047Y-69993809D01*
X173117619Y-69755714D02*
X173117619Y-70422380D01*
X172879523Y-69374761D02*
X172641428Y-70089047D01*
X173260476Y-70089047D01*
X174117619Y-69422380D02*
X173641428Y-69422380D01*
X173593809Y-69898571D01*
X173641428Y-69850952D01*
X173736666Y-69803333D01*
X173974761Y-69803333D01*
X174070000Y-69850952D01*
X174117619Y-69898571D01*
X174165238Y-69993809D01*
X174165238Y-70231904D01*
X174117619Y-70327142D01*
X174070000Y-70374761D01*
X173974761Y-70422380D01*
X173736666Y-70422380D01*
X173641428Y-70374761D01*
X173593809Y-70327142D01*
X170260476Y-78098571D02*
X170403333Y-78146190D01*
X170450952Y-78193809D01*
X170498571Y-78289047D01*
X170498571Y-78431904D01*
X170450952Y-78527142D01*
X170403333Y-78574761D01*
X170308095Y-78622380D01*
X169927142Y-78622380D01*
X169927142Y-77622380D01*
X170260476Y-77622380D01*
X170355714Y-77670000D01*
X170403333Y-77717619D01*
X170450952Y-77812857D01*
X170450952Y-77908095D01*
X170403333Y-78003333D01*
X170355714Y-78050952D01*
X170260476Y-78098571D01*
X169927142Y-78098571D01*
X170784285Y-77622380D02*
X171355714Y-77622380D01*
X171070000Y-78622380D02*
X171070000Y-77622380D01*
X171689047Y-78622380D02*
X171689047Y-77622380D01*
X172260476Y-78622380D01*
X172260476Y-77622380D01*
X172927142Y-77622380D02*
X173022380Y-77622380D01*
X173117619Y-77670000D01*
X173165238Y-77717619D01*
X173212857Y-77812857D01*
X173260476Y-78003333D01*
X173260476Y-78241428D01*
X173212857Y-78431904D01*
X173165238Y-78527142D01*
X173117619Y-78574761D01*
X173022380Y-78622380D01*
X172927142Y-78622380D01*
X172831904Y-78574761D01*
X172784285Y-78527142D01*
X172736666Y-78431904D01*
X172689047Y-78241428D01*
X172689047Y-78003333D01*
X172736666Y-77812857D01*
X172784285Y-77717619D01*
X172831904Y-77670000D01*
X172927142Y-77622380D01*
X102982380Y-93962380D02*
X102982380Y-92962380D01*
X103363333Y-92962380D01*
X103458571Y-93010000D01*
X103506190Y-93057619D01*
X103553809Y-93152857D01*
X103553809Y-93295714D01*
X103506190Y-93390952D01*
X103458571Y-93438571D01*
X103363333Y-93486190D01*
X102982380Y-93486190D01*
X103839523Y-92962380D02*
X104410952Y-92962380D01*
X104125238Y-93962380D02*
X104125238Y-92962380D01*
X104696666Y-93914761D02*
X104839523Y-93962380D01*
X105077619Y-93962380D01*
X105172857Y-93914761D01*
X105220476Y-93867142D01*
X105268095Y-93771904D01*
X105268095Y-93676666D01*
X105220476Y-93581428D01*
X105172857Y-93533809D01*
X105077619Y-93486190D01*
X104887142Y-93438571D01*
X104791904Y-93390952D01*
X104744285Y-93343333D01*
X104696666Y-93248095D01*
X104696666Y-93152857D01*
X104744285Y-93057619D01*
X104791904Y-93010000D01*
X104887142Y-92962380D01*
X105125238Y-92962380D01*
X105268095Y-93010000D01*
X106125238Y-92962380D02*
X105934761Y-92962380D01*
X105839523Y-93010000D01*
X105791904Y-93057619D01*
X105696666Y-93200476D01*
X105649047Y-93390952D01*
X105649047Y-93771904D01*
X105696666Y-93867142D01*
X105744285Y-93914761D01*
X105839523Y-93962380D01*
X106030000Y-93962380D01*
X106125238Y-93914761D01*
X106172857Y-93867142D01*
X106220476Y-93771904D01*
X106220476Y-93533809D01*
X106172857Y-93438571D01*
X106125238Y-93390952D01*
X106030000Y-93343333D01*
X105839523Y-93343333D01*
X105744285Y-93390952D01*
X105696666Y-93438571D01*
X105649047Y-93533809D01*
X107077619Y-93295714D02*
X107077619Y-93962380D01*
X106839523Y-92914761D02*
X106601428Y-93629047D01*
X107220476Y-93629047D01*
X108077619Y-92962380D02*
X107601428Y-92962380D01*
X107553809Y-93438571D01*
X107601428Y-93390952D01*
X107696666Y-93343333D01*
X107934761Y-93343333D01*
X108030000Y-93390952D01*
X108077619Y-93438571D01*
X108125238Y-93533809D01*
X108125238Y-93771904D01*
X108077619Y-93867142D01*
X108030000Y-93914761D01*
X107934761Y-93962380D01*
X107696666Y-93962380D01*
X107601428Y-93914761D01*
X107553809Y-93867142D01*
X104220476Y-85238571D02*
X104363333Y-85286190D01*
X104410952Y-85333809D01*
X104458571Y-85429047D01*
X104458571Y-85571904D01*
X104410952Y-85667142D01*
X104363333Y-85714761D01*
X104268095Y-85762380D01*
X103887142Y-85762380D01*
X103887142Y-84762380D01*
X104220476Y-84762380D01*
X104315714Y-84810000D01*
X104363333Y-84857619D01*
X104410952Y-84952857D01*
X104410952Y-85048095D01*
X104363333Y-85143333D01*
X104315714Y-85190952D01*
X104220476Y-85238571D01*
X103887142Y-85238571D01*
X104744285Y-84762380D02*
X105315714Y-84762380D01*
X105030000Y-85762380D02*
X105030000Y-84762380D01*
X105649047Y-85762380D02*
X105649047Y-84762380D01*
X106220476Y-85762380D01*
X106220476Y-84762380D01*
X107220476Y-85762380D02*
X106649047Y-85762380D01*
X106934761Y-85762380D02*
X106934761Y-84762380D01*
X106839523Y-84905238D01*
X106744285Y-85000476D01*
X106649047Y-85048095D01*
X114412380Y-93962380D02*
X114412380Y-92962380D01*
X114793333Y-92962380D01*
X114888571Y-93010000D01*
X114936190Y-93057619D01*
X114983809Y-93152857D01*
X114983809Y-93295714D01*
X114936190Y-93390952D01*
X114888571Y-93438571D01*
X114793333Y-93486190D01*
X114412380Y-93486190D01*
X115269523Y-92962380D02*
X115840952Y-92962380D01*
X115555238Y-93962380D02*
X115555238Y-92962380D01*
X116126666Y-93914761D02*
X116269523Y-93962380D01*
X116507619Y-93962380D01*
X116602857Y-93914761D01*
X116650476Y-93867142D01*
X116698095Y-93771904D01*
X116698095Y-93676666D01*
X116650476Y-93581428D01*
X116602857Y-93533809D01*
X116507619Y-93486190D01*
X116317142Y-93438571D01*
X116221904Y-93390952D01*
X116174285Y-93343333D01*
X116126666Y-93248095D01*
X116126666Y-93152857D01*
X116174285Y-93057619D01*
X116221904Y-93010000D01*
X116317142Y-92962380D01*
X116555238Y-92962380D01*
X116698095Y-93010000D01*
X117555238Y-92962380D02*
X117364761Y-92962380D01*
X117269523Y-93010000D01*
X117221904Y-93057619D01*
X117126666Y-93200476D01*
X117079047Y-93390952D01*
X117079047Y-93771904D01*
X117126666Y-93867142D01*
X117174285Y-93914761D01*
X117269523Y-93962380D01*
X117460000Y-93962380D01*
X117555238Y-93914761D01*
X117602857Y-93867142D01*
X117650476Y-93771904D01*
X117650476Y-93533809D01*
X117602857Y-93438571D01*
X117555238Y-93390952D01*
X117460000Y-93343333D01*
X117269523Y-93343333D01*
X117174285Y-93390952D01*
X117126666Y-93438571D01*
X117079047Y-93533809D01*
X118507619Y-93295714D02*
X118507619Y-93962380D01*
X118269523Y-92914761D02*
X118031428Y-93629047D01*
X118650476Y-93629047D01*
X119507619Y-92962380D02*
X119031428Y-92962380D01*
X118983809Y-93438571D01*
X119031428Y-93390952D01*
X119126666Y-93343333D01*
X119364761Y-93343333D01*
X119460000Y-93390952D01*
X119507619Y-93438571D01*
X119555238Y-93533809D01*
X119555238Y-93771904D01*
X119507619Y-93867142D01*
X119460000Y-93914761D01*
X119364761Y-93962380D01*
X119126666Y-93962380D01*
X119031428Y-93914761D01*
X118983809Y-93867142D01*
X115650476Y-85238571D02*
X115793333Y-85286190D01*
X115840952Y-85333809D01*
X115888571Y-85429047D01*
X115888571Y-85571904D01*
X115840952Y-85667142D01*
X115793333Y-85714761D01*
X115698095Y-85762380D01*
X115317142Y-85762380D01*
X115317142Y-84762380D01*
X115650476Y-84762380D01*
X115745714Y-84810000D01*
X115793333Y-84857619D01*
X115840952Y-84952857D01*
X115840952Y-85048095D01*
X115793333Y-85143333D01*
X115745714Y-85190952D01*
X115650476Y-85238571D01*
X115317142Y-85238571D01*
X116174285Y-84762380D02*
X116745714Y-84762380D01*
X116460000Y-85762380D02*
X116460000Y-84762380D01*
X117079047Y-85762380D02*
X117079047Y-84762380D01*
X117650476Y-85762380D01*
X117650476Y-84762380D01*
X118079047Y-84857619D02*
X118126666Y-84810000D01*
X118221904Y-84762380D01*
X118460000Y-84762380D01*
X118555238Y-84810000D01*
X118602857Y-84857619D01*
X118650476Y-84952857D01*
X118650476Y-85048095D01*
X118602857Y-85190952D01*
X118031428Y-85762380D01*
X118650476Y-85762380D01*
X157592380Y-104122380D02*
X157592380Y-103122380D01*
X157973333Y-103122380D01*
X158068571Y-103170000D01*
X158116190Y-103217619D01*
X158163809Y-103312857D01*
X158163809Y-103455714D01*
X158116190Y-103550952D01*
X158068571Y-103598571D01*
X157973333Y-103646190D01*
X157592380Y-103646190D01*
X158449523Y-103122380D02*
X159020952Y-103122380D01*
X158735238Y-104122380D02*
X158735238Y-103122380D01*
X159306666Y-104074761D02*
X159449523Y-104122380D01*
X159687619Y-104122380D01*
X159782857Y-104074761D01*
X159830476Y-104027142D01*
X159878095Y-103931904D01*
X159878095Y-103836666D01*
X159830476Y-103741428D01*
X159782857Y-103693809D01*
X159687619Y-103646190D01*
X159497142Y-103598571D01*
X159401904Y-103550952D01*
X159354285Y-103503333D01*
X159306666Y-103408095D01*
X159306666Y-103312857D01*
X159354285Y-103217619D01*
X159401904Y-103170000D01*
X159497142Y-103122380D01*
X159735238Y-103122380D01*
X159878095Y-103170000D01*
X160735238Y-103122380D02*
X160544761Y-103122380D01*
X160449523Y-103170000D01*
X160401904Y-103217619D01*
X160306666Y-103360476D01*
X160259047Y-103550952D01*
X160259047Y-103931904D01*
X160306666Y-104027142D01*
X160354285Y-104074761D01*
X160449523Y-104122380D01*
X160640000Y-104122380D01*
X160735238Y-104074761D01*
X160782857Y-104027142D01*
X160830476Y-103931904D01*
X160830476Y-103693809D01*
X160782857Y-103598571D01*
X160735238Y-103550952D01*
X160640000Y-103503333D01*
X160449523Y-103503333D01*
X160354285Y-103550952D01*
X160306666Y-103598571D01*
X160259047Y-103693809D01*
X161687619Y-103455714D02*
X161687619Y-104122380D01*
X161449523Y-103074761D02*
X161211428Y-103789047D01*
X161830476Y-103789047D01*
X162687619Y-103122380D02*
X162211428Y-103122380D01*
X162163809Y-103598571D01*
X162211428Y-103550952D01*
X162306666Y-103503333D01*
X162544761Y-103503333D01*
X162640000Y-103550952D01*
X162687619Y-103598571D01*
X162735238Y-103693809D01*
X162735238Y-103931904D01*
X162687619Y-104027142D01*
X162640000Y-104074761D01*
X162544761Y-104122380D01*
X162306666Y-104122380D01*
X162211428Y-104074761D01*
X162163809Y-104027142D01*
X158830476Y-95398571D02*
X158973333Y-95446190D01*
X159020952Y-95493809D01*
X159068571Y-95589047D01*
X159068571Y-95731904D01*
X159020952Y-95827142D01*
X158973333Y-95874761D01*
X158878095Y-95922380D01*
X158497142Y-95922380D01*
X158497142Y-94922380D01*
X158830476Y-94922380D01*
X158925714Y-94970000D01*
X158973333Y-95017619D01*
X159020952Y-95112857D01*
X159020952Y-95208095D01*
X158973333Y-95303333D01*
X158925714Y-95350952D01*
X158830476Y-95398571D01*
X158497142Y-95398571D01*
X159354285Y-94922380D02*
X159925714Y-94922380D01*
X159640000Y-95922380D02*
X159640000Y-94922380D01*
X160259047Y-95922380D02*
X160259047Y-94922380D01*
X160830476Y-95922380D01*
X160830476Y-94922380D01*
X161211428Y-94922380D02*
X161830476Y-94922380D01*
X161497142Y-95303333D01*
X161640000Y-95303333D01*
X161735238Y-95350952D01*
X161782857Y-95398571D01*
X161830476Y-95493809D01*
X161830476Y-95731904D01*
X161782857Y-95827142D01*
X161735238Y-95874761D01*
X161640000Y-95922380D01*
X161354285Y-95922380D01*
X161259047Y-95874761D01*
X161211428Y-95827142D01*
X157592380Y-104712380D02*
X157592380Y-103712380D01*
X157973333Y-103712380D01*
X158068571Y-103760000D01*
X158116190Y-103807619D01*
X158163809Y-103902857D01*
X158163809Y-104045714D01*
X158116190Y-104140952D01*
X158068571Y-104188571D01*
X157973333Y-104236190D01*
X157592380Y-104236190D01*
X158449523Y-103712380D02*
X159020952Y-103712380D01*
X158735238Y-104712380D02*
X158735238Y-103712380D01*
X159306666Y-104664761D02*
X159449523Y-104712380D01*
X159687619Y-104712380D01*
X159782857Y-104664761D01*
X159830476Y-104617142D01*
X159878095Y-104521904D01*
X159878095Y-104426666D01*
X159830476Y-104331428D01*
X159782857Y-104283809D01*
X159687619Y-104236190D01*
X159497142Y-104188571D01*
X159401904Y-104140952D01*
X159354285Y-104093333D01*
X159306666Y-103998095D01*
X159306666Y-103902857D01*
X159354285Y-103807619D01*
X159401904Y-103760000D01*
X159497142Y-103712380D01*
X159735238Y-103712380D01*
X159878095Y-103760000D01*
X160735238Y-103712380D02*
X160544761Y-103712380D01*
X160449523Y-103760000D01*
X160401904Y-103807619D01*
X160306666Y-103950476D01*
X160259047Y-104140952D01*
X160259047Y-104521904D01*
X160306666Y-104617142D01*
X160354285Y-104664761D01*
X160449523Y-104712380D01*
X160640000Y-104712380D01*
X160735238Y-104664761D01*
X160782857Y-104617142D01*
X160830476Y-104521904D01*
X160830476Y-104283809D01*
X160782857Y-104188571D01*
X160735238Y-104140952D01*
X160640000Y-104093333D01*
X160449523Y-104093333D01*
X160354285Y-104140952D01*
X160306666Y-104188571D01*
X160259047Y-104283809D01*
X161687619Y-104045714D02*
X161687619Y-104712380D01*
X161449523Y-103664761D02*
X161211428Y-104379047D01*
X161830476Y-104379047D01*
X162687619Y-103712380D02*
X162211428Y-103712380D01*
X162163809Y-104188571D01*
X162211428Y-104140952D01*
X162306666Y-104093333D01*
X162544761Y-104093333D01*
X162640000Y-104140952D01*
X162687619Y-104188571D01*
X162735238Y-104283809D01*
X162735238Y-104521904D01*
X162687619Y-104617142D01*
X162640000Y-104664761D01*
X162544761Y-104712380D01*
X162306666Y-104712380D01*
X162211428Y-104664761D01*
X162163809Y-104617142D01*
X158830476Y-112388571D02*
X158973333Y-112436190D01*
X159020952Y-112483809D01*
X159068571Y-112579047D01*
X159068571Y-112721904D01*
X159020952Y-112817142D01*
X158973333Y-112864761D01*
X158878095Y-112912380D01*
X158497142Y-112912380D01*
X158497142Y-111912380D01*
X158830476Y-111912380D01*
X158925714Y-111960000D01*
X158973333Y-112007619D01*
X159020952Y-112102857D01*
X159020952Y-112198095D01*
X158973333Y-112293333D01*
X158925714Y-112340952D01*
X158830476Y-112388571D01*
X158497142Y-112388571D01*
X159354285Y-111912380D02*
X159925714Y-111912380D01*
X159640000Y-112912380D02*
X159640000Y-111912380D01*
X160259047Y-112912380D02*
X160259047Y-111912380D01*
X160830476Y-112912380D01*
X160830476Y-111912380D01*
X161735238Y-112245714D02*
X161735238Y-112912380D01*
X161497142Y-111864761D02*
X161259047Y-112579047D01*
X161878095Y-112579047D01*
X146162380Y-104712380D02*
X146162380Y-103712380D01*
X146543333Y-103712380D01*
X146638571Y-103760000D01*
X146686190Y-103807619D01*
X146733809Y-103902857D01*
X146733809Y-104045714D01*
X146686190Y-104140952D01*
X146638571Y-104188571D01*
X146543333Y-104236190D01*
X146162380Y-104236190D01*
X147019523Y-103712380D02*
X147590952Y-103712380D01*
X147305238Y-104712380D02*
X147305238Y-103712380D01*
X147876666Y-104664761D02*
X148019523Y-104712380D01*
X148257619Y-104712380D01*
X148352857Y-104664761D01*
X148400476Y-104617142D01*
X148448095Y-104521904D01*
X148448095Y-104426666D01*
X148400476Y-104331428D01*
X148352857Y-104283809D01*
X148257619Y-104236190D01*
X148067142Y-104188571D01*
X147971904Y-104140952D01*
X147924285Y-104093333D01*
X147876666Y-103998095D01*
X147876666Y-103902857D01*
X147924285Y-103807619D01*
X147971904Y-103760000D01*
X148067142Y-103712380D01*
X148305238Y-103712380D01*
X148448095Y-103760000D01*
X149305238Y-103712380D02*
X149114761Y-103712380D01*
X149019523Y-103760000D01*
X148971904Y-103807619D01*
X148876666Y-103950476D01*
X148829047Y-104140952D01*
X148829047Y-104521904D01*
X148876666Y-104617142D01*
X148924285Y-104664761D01*
X149019523Y-104712380D01*
X149210000Y-104712380D01*
X149305238Y-104664761D01*
X149352857Y-104617142D01*
X149400476Y-104521904D01*
X149400476Y-104283809D01*
X149352857Y-104188571D01*
X149305238Y-104140952D01*
X149210000Y-104093333D01*
X149019523Y-104093333D01*
X148924285Y-104140952D01*
X148876666Y-104188571D01*
X148829047Y-104283809D01*
X150257619Y-104045714D02*
X150257619Y-104712380D01*
X150019523Y-103664761D02*
X149781428Y-104379047D01*
X150400476Y-104379047D01*
X151257619Y-103712380D02*
X150781428Y-103712380D01*
X150733809Y-104188571D01*
X150781428Y-104140952D01*
X150876666Y-104093333D01*
X151114761Y-104093333D01*
X151210000Y-104140952D01*
X151257619Y-104188571D01*
X151305238Y-104283809D01*
X151305238Y-104521904D01*
X151257619Y-104617142D01*
X151210000Y-104664761D01*
X151114761Y-104712380D01*
X150876666Y-104712380D01*
X150781428Y-104664761D01*
X150733809Y-104617142D01*
X147400476Y-112388571D02*
X147543333Y-112436190D01*
X147590952Y-112483809D01*
X147638571Y-112579047D01*
X147638571Y-112721904D01*
X147590952Y-112817142D01*
X147543333Y-112864761D01*
X147448095Y-112912380D01*
X147067142Y-112912380D01*
X147067142Y-111912380D01*
X147400476Y-111912380D01*
X147495714Y-111960000D01*
X147543333Y-112007619D01*
X147590952Y-112102857D01*
X147590952Y-112198095D01*
X147543333Y-112293333D01*
X147495714Y-112340952D01*
X147400476Y-112388571D01*
X147067142Y-112388571D01*
X147924285Y-111912380D02*
X148495714Y-111912380D01*
X148210000Y-112912380D02*
X148210000Y-111912380D01*
X148829047Y-112912380D02*
X148829047Y-111912380D01*
X149400476Y-112912380D01*
X149400476Y-111912380D01*
X150352857Y-111912380D02*
X149876666Y-111912380D01*
X149829047Y-112388571D01*
X149876666Y-112340952D01*
X149971904Y-112293333D01*
X150210000Y-112293333D01*
X150305238Y-112340952D01*
X150352857Y-112388571D01*
X150400476Y-112483809D01*
X150400476Y-112721904D01*
X150352857Y-112817142D01*
X150305238Y-112864761D01*
X150210000Y-112912380D01*
X149971904Y-112912380D01*
X149876666Y-112864761D01*
X149829047Y-112817142D01*
X169022380Y-104712380D02*
X169022380Y-103712380D01*
X169403333Y-103712380D01*
X169498571Y-103760000D01*
X169546190Y-103807619D01*
X169593809Y-103902857D01*
X169593809Y-104045714D01*
X169546190Y-104140952D01*
X169498571Y-104188571D01*
X169403333Y-104236190D01*
X169022380Y-104236190D01*
X169879523Y-103712380D02*
X170450952Y-103712380D01*
X170165238Y-104712380D02*
X170165238Y-103712380D01*
X170736666Y-104664761D02*
X170879523Y-104712380D01*
X171117619Y-104712380D01*
X171212857Y-104664761D01*
X171260476Y-104617142D01*
X171308095Y-104521904D01*
X171308095Y-104426666D01*
X171260476Y-104331428D01*
X171212857Y-104283809D01*
X171117619Y-104236190D01*
X170927142Y-104188571D01*
X170831904Y-104140952D01*
X170784285Y-104093333D01*
X170736666Y-103998095D01*
X170736666Y-103902857D01*
X170784285Y-103807619D01*
X170831904Y-103760000D01*
X170927142Y-103712380D01*
X171165238Y-103712380D01*
X171308095Y-103760000D01*
X172165238Y-103712380D02*
X171974761Y-103712380D01*
X171879523Y-103760000D01*
X171831904Y-103807619D01*
X171736666Y-103950476D01*
X171689047Y-104140952D01*
X171689047Y-104521904D01*
X171736666Y-104617142D01*
X171784285Y-104664761D01*
X171879523Y-104712380D01*
X172070000Y-104712380D01*
X172165238Y-104664761D01*
X172212857Y-104617142D01*
X172260476Y-104521904D01*
X172260476Y-104283809D01*
X172212857Y-104188571D01*
X172165238Y-104140952D01*
X172070000Y-104093333D01*
X171879523Y-104093333D01*
X171784285Y-104140952D01*
X171736666Y-104188571D01*
X171689047Y-104283809D01*
X173117619Y-104045714D02*
X173117619Y-104712380D01*
X172879523Y-103664761D02*
X172641428Y-104379047D01*
X173260476Y-104379047D01*
X174117619Y-103712380D02*
X173641428Y-103712380D01*
X173593809Y-104188571D01*
X173641428Y-104140952D01*
X173736666Y-104093333D01*
X173974761Y-104093333D01*
X174070000Y-104140952D01*
X174117619Y-104188571D01*
X174165238Y-104283809D01*
X174165238Y-104521904D01*
X174117619Y-104617142D01*
X174070000Y-104664761D01*
X173974761Y-104712380D01*
X173736666Y-104712380D01*
X173641428Y-104664761D01*
X173593809Y-104617142D01*
X170260476Y-112388571D02*
X170403333Y-112436190D01*
X170450952Y-112483809D01*
X170498571Y-112579047D01*
X170498571Y-112721904D01*
X170450952Y-112817142D01*
X170403333Y-112864761D01*
X170308095Y-112912380D01*
X169927142Y-112912380D01*
X169927142Y-111912380D01*
X170260476Y-111912380D01*
X170355714Y-111960000D01*
X170403333Y-112007619D01*
X170450952Y-112102857D01*
X170450952Y-112198095D01*
X170403333Y-112293333D01*
X170355714Y-112340952D01*
X170260476Y-112388571D01*
X169927142Y-112388571D01*
X170784285Y-111912380D02*
X171355714Y-111912380D01*
X171070000Y-112912380D02*
X171070000Y-111912380D01*
X171689047Y-112912380D02*
X171689047Y-111912380D01*
X172260476Y-112912380D01*
X172260476Y-111912380D01*
X173165238Y-111912380D02*
X172974761Y-111912380D01*
X172879523Y-111960000D01*
X172831904Y-112007619D01*
X172736666Y-112150476D01*
X172689047Y-112340952D01*
X172689047Y-112721904D01*
X172736666Y-112817142D01*
X172784285Y-112864761D01*
X172879523Y-112912380D01*
X173070000Y-112912380D01*
X173165238Y-112864761D01*
X173212857Y-112817142D01*
X173260476Y-112721904D01*
X173260476Y-112483809D01*
X173212857Y-112388571D01*
X173165238Y-112340952D01*
X173070000Y-112293333D01*
X172879523Y-112293333D01*
X172784285Y-112340952D01*
X172736666Y-112388571D01*
X172689047Y-112483809D01*
X167572380Y-76167619D02*
X166572380Y-76167619D01*
X166572380Y-75929523D01*
X166620000Y-75786666D01*
X166715238Y-75691428D01*
X166810476Y-75643809D01*
X167000952Y-75596190D01*
X167143809Y-75596190D01*
X167334285Y-75643809D01*
X167429523Y-75691428D01*
X167524761Y-75786666D01*
X167572380Y-75929523D01*
X167572380Y-76167619D01*
X167572380Y-75167619D02*
X166572380Y-75167619D01*
X167572380Y-74691428D02*
X166572380Y-74691428D01*
X166572380Y-74310476D01*
X166620000Y-74215238D01*
X166667619Y-74167619D01*
X166762857Y-74120000D01*
X166905714Y-74120000D01*
X167000952Y-74167619D01*
X167048571Y-74215238D01*
X167096190Y-74310476D01*
X167096190Y-74691428D01*
X167524761Y-73739047D02*
X167572380Y-73596190D01*
X167572380Y-73358095D01*
X167524761Y-73262857D01*
X167477142Y-73215238D01*
X167381904Y-73167619D01*
X167286666Y-73167619D01*
X167191428Y-73215238D01*
X167143809Y-73262857D01*
X167096190Y-73358095D01*
X167048571Y-73548571D01*
X167000952Y-73643809D01*
X166953333Y-73691428D01*
X166858095Y-73739047D01*
X166762857Y-73739047D01*
X166667619Y-73691428D01*
X166620000Y-73643809D01*
X166572380Y-73548571D01*
X166572380Y-73310476D01*
X166620000Y-73167619D01*
X166572380Y-72834285D02*
X167572380Y-72596190D01*
X166858095Y-72405714D01*
X167572380Y-72215238D01*
X166572380Y-71977142D01*
X130954761Y-76350380D02*
X130478571Y-76350380D01*
X130478571Y-75350380D01*
X131621428Y-75826571D02*
X131288095Y-75826571D01*
X131288095Y-76350380D02*
X131288095Y-75350380D01*
X131764285Y-75350380D01*
X132145238Y-75826571D02*
X132478571Y-75826571D01*
X132621428Y-76350380D02*
X132145238Y-76350380D01*
X132145238Y-75350380D01*
X132621428Y-75350380D01*
X133526190Y-75350380D02*
X133050000Y-75350380D01*
X133002380Y-75826571D01*
X133050000Y-75778952D01*
X133145238Y-75731333D01*
X133383333Y-75731333D01*
X133478571Y-75778952D01*
X133526190Y-75826571D01*
X133573809Y-75921809D01*
X133573809Y-76159904D01*
X133526190Y-76255142D01*
X133478571Y-76302761D01*
X133383333Y-76350380D01*
X133145238Y-76350380D01*
X133050000Y-76302761D01*
X133002380Y-76255142D01*
X134002380Y-75350380D02*
X134002380Y-76159904D01*
X134050000Y-76255142D01*
X134097619Y-76302761D01*
X134192857Y-76350380D01*
X134383333Y-76350380D01*
X134478571Y-76302761D01*
X134526190Y-76255142D01*
X134573809Y-76159904D01*
X134573809Y-75350380D01*
X135050000Y-75969428D02*
X135811904Y-75969428D01*
X136716666Y-75683714D02*
X136716666Y-76350380D01*
X136478571Y-75302761D02*
X136240476Y-76017047D01*
X136859523Y-76017047D01*
X137716666Y-75350380D02*
X137240476Y-75350380D01*
X137192857Y-75826571D01*
X137240476Y-75778952D01*
X137335714Y-75731333D01*
X137573809Y-75731333D01*
X137669047Y-75778952D01*
X137716666Y-75826571D01*
X137764285Y-75921809D01*
X137764285Y-76159904D01*
X137716666Y-76255142D01*
X137669047Y-76302761D01*
X137573809Y-76350380D01*
X137335714Y-76350380D01*
X137240476Y-76302761D01*
X137192857Y-76255142D01*
X138526190Y-75826571D02*
X138192857Y-75826571D01*
X138192857Y-76350380D02*
X138192857Y-75350380D01*
X138669047Y-75350380D01*
X139050000Y-75969428D02*
X139811904Y-75969428D01*
X140716666Y-75350380D02*
X140526190Y-75350380D01*
X140430952Y-75398000D01*
X140383333Y-75445619D01*
X140288095Y-75588476D01*
X140240476Y-75778952D01*
X140240476Y-76159904D01*
X140288095Y-76255142D01*
X140335714Y-76302761D01*
X140430952Y-76350380D01*
X140621428Y-76350380D01*
X140716666Y-76302761D01*
X140764285Y-76255142D01*
X140811904Y-76159904D01*
X140811904Y-75921809D01*
X140764285Y-75826571D01*
X140716666Y-75778952D01*
X140621428Y-75731333D01*
X140430952Y-75731333D01*
X140335714Y-75778952D01*
X140288095Y-75826571D01*
X140240476Y-75921809D01*
X141573809Y-75826571D02*
X141716666Y-75874190D01*
X141764285Y-75921809D01*
X141811904Y-76017047D01*
X141811904Y-76159904D01*
X141764285Y-76255142D01*
X141716666Y-76302761D01*
X141621428Y-76350380D01*
X141240476Y-76350380D01*
X141240476Y-75350380D01*
X141573809Y-75350380D01*
X141669047Y-75398000D01*
X141716666Y-75445619D01*
X141764285Y-75540857D01*
X141764285Y-75636095D01*
X141716666Y-75731333D01*
X141669047Y-75778952D01*
X141573809Y-75826571D01*
X141240476Y-75826571D01*
X142764285Y-75398000D02*
X142669047Y-75350380D01*
X142526190Y-75350380D01*
X142383333Y-75398000D01*
X142288095Y-75493238D01*
X142240476Y-75588476D01*
X142192857Y-75778952D01*
X142192857Y-75921809D01*
X142240476Y-76112285D01*
X142288095Y-76207523D01*
X142383333Y-76302761D01*
X142526190Y-76350380D01*
X142621428Y-76350380D01*
X142764285Y-76302761D01*
X142811904Y-76255142D01*
X142811904Y-75921809D01*
X142621428Y-75921809D01*
X143145238Y-75350380D02*
X143764285Y-75350380D01*
X143430952Y-75731333D01*
X143573809Y-75731333D01*
X143669047Y-75778952D01*
X143716666Y-75826571D01*
X143764285Y-75921809D01*
X143764285Y-76159904D01*
X143716666Y-76255142D01*
X143669047Y-76302761D01*
X143573809Y-76350380D01*
X143288095Y-76350380D01*
X143192857Y-76302761D01*
X143145238Y-76255142D01*
X144335714Y-75778952D02*
X144240476Y-75731333D01*
X144192857Y-75683714D01*
X144145238Y-75588476D01*
X144145238Y-75540857D01*
X144192857Y-75445619D01*
X144240476Y-75398000D01*
X144335714Y-75350380D01*
X144526190Y-75350380D01*
X144621428Y-75398000D01*
X144669047Y-75445619D01*
X144716666Y-75540857D01*
X144716666Y-75588476D01*
X144669047Y-75683714D01*
X144621428Y-75731333D01*
X144526190Y-75778952D01*
X144335714Y-75778952D01*
X144240476Y-75826571D01*
X144192857Y-75874190D01*
X144145238Y-75969428D01*
X144145238Y-76159904D01*
X144192857Y-76255142D01*
X144240476Y-76302761D01*
X144335714Y-76350380D01*
X144526190Y-76350380D01*
X144621428Y-76302761D01*
X144669047Y-76255142D01*
X144716666Y-76159904D01*
X144716666Y-75969428D01*
X144669047Y-75874190D01*
X144621428Y-75826571D01*
X144526190Y-75778952D01*
X145669047Y-76350380D02*
X145097619Y-76350380D01*
X145383333Y-76350380D02*
X145383333Y-75350380D01*
X145288095Y-75493238D01*
X145192857Y-75588476D01*
X145097619Y-75636095D01*
X146669047Y-76255142D02*
X146621428Y-76302761D01*
X146478571Y-76350380D01*
X146383333Y-76350380D01*
X146240476Y-76302761D01*
X146145238Y-76207523D01*
X146097619Y-76112285D01*
X146050000Y-75921809D01*
X146050000Y-75778952D01*
X146097619Y-75588476D01*
X146145238Y-75493238D01*
X146240476Y-75398000D01*
X146383333Y-75350380D01*
X146478571Y-75350380D01*
X146621428Y-75398000D01*
X146669047Y-75445619D01*
X127328571Y-107179523D02*
X127376190Y-107036666D01*
X127423809Y-106989047D01*
X127519047Y-106941428D01*
X127661904Y-106941428D01*
X127757142Y-106989047D01*
X127804761Y-107036666D01*
X127852380Y-107131904D01*
X127852380Y-107512857D01*
X126852380Y-107512857D01*
X126852380Y-107179523D01*
X126900000Y-107084285D01*
X126947619Y-107036666D01*
X127042857Y-106989047D01*
X127138095Y-106989047D01*
X127233333Y-107036666D01*
X127280952Y-107084285D01*
X127328571Y-107179523D01*
X127328571Y-107512857D01*
X127852380Y-106036666D02*
X127852380Y-106512857D01*
X126852380Y-106512857D01*
X126852380Y-105703333D02*
X127661904Y-105703333D01*
X127757142Y-105655714D01*
X127804761Y-105608095D01*
X127852380Y-105512857D01*
X127852380Y-105322380D01*
X127804761Y-105227142D01*
X127757142Y-105179523D01*
X127661904Y-105131904D01*
X126852380Y-105131904D01*
X127328571Y-104655714D02*
X127328571Y-104322380D01*
X127852380Y-104179523D02*
X127852380Y-104655714D01*
X126852380Y-104655714D01*
X126852380Y-104179523D01*
D10*
X124780952Y-106355714D02*
X124380952Y-106355714D01*
X124380952Y-106260476D01*
X124400000Y-106203333D01*
X124438095Y-106165238D01*
X124476190Y-106146190D01*
X124552380Y-106127142D01*
X124609523Y-106127142D01*
X124685714Y-106146190D01*
X124723809Y-106165238D01*
X124761904Y-106203333D01*
X124780952Y-106260476D01*
X124780952Y-106355714D01*
X124419047Y-105974761D02*
X124400000Y-105955714D01*
X124380952Y-105917619D01*
X124380952Y-105822380D01*
X124400000Y-105784285D01*
X124419047Y-105765238D01*
X124457142Y-105746190D01*
X124495238Y-105746190D01*
X124552380Y-105765238D01*
X124780952Y-105993809D01*
X124780952Y-105746190D01*
X124419047Y-105593809D02*
X124400000Y-105574761D01*
X124380952Y-105536666D01*
X124380952Y-105441428D01*
X124400000Y-105403333D01*
X124419047Y-105384285D01*
X124457142Y-105365238D01*
X124495238Y-105365238D01*
X124552380Y-105384285D01*
X124780952Y-105612857D01*
X124780952Y-105365238D01*
D11*
X124752380Y-109799047D02*
X124752380Y-110370476D01*
X124752380Y-110084761D02*
X123752380Y-110084761D01*
X123895238Y-110180000D01*
X123990476Y-110275238D01*
X124038095Y-110370476D01*
X124752380Y-109370476D02*
X123752380Y-109370476D01*
X124371428Y-109275238D02*
X124752380Y-108989523D01*
X124085714Y-108989523D02*
X124466666Y-109370476D01*
D12*
X126030952Y-109937142D02*
X125840476Y-110070476D01*
X126030952Y-110165714D02*
X125630952Y-110165714D01*
X125630952Y-110013333D01*
X125650000Y-109975238D01*
X125669047Y-109956190D01*
X125707142Y-109937142D01*
X125764285Y-109937142D01*
X125802380Y-109956190D01*
X125821428Y-109975238D01*
X125840476Y-110013333D01*
X125840476Y-110165714D01*
X125630952Y-109594285D02*
X125630952Y-109670476D01*
X125650000Y-109708571D01*
X125669047Y-109727619D01*
X125726190Y-109765714D01*
X125802380Y-109784761D01*
X125954761Y-109784761D01*
X125992857Y-109765714D01*
X126011904Y-109746666D01*
X126030952Y-109708571D01*
X126030952Y-109632380D01*
X126011904Y-109594285D01*
X125992857Y-109575238D01*
X125954761Y-109556190D01*
X125859523Y-109556190D01*
X125821428Y-109575238D01*
X125802380Y-109594285D01*
X125783333Y-109632380D01*
X125783333Y-109708571D01*
X125802380Y-109746666D01*
X125821428Y-109765714D01*
X125859523Y-109784761D01*
X125669047Y-109403809D02*
X125650000Y-109384761D01*
X125630952Y-109346666D01*
X125630952Y-109251428D01*
X125650000Y-109213333D01*
X125669047Y-109194285D01*
X125707142Y-109175238D01*
X125745238Y-109175238D01*
X125802380Y-109194285D01*
X126030952Y-109422857D01*
X126030952Y-109175238D01*
D11*
X129440000Y-107536666D02*
X129392380Y-107631904D01*
X129392380Y-107774761D01*
X129440000Y-107917619D01*
X129535238Y-108012857D01*
X129630476Y-108060476D01*
X129820952Y-108108095D01*
X129963809Y-108108095D01*
X130154285Y-108060476D01*
X130249523Y-108012857D01*
X130344761Y-107917619D01*
X130392380Y-107774761D01*
X130392380Y-107679523D01*
X130344761Y-107536666D01*
X130297142Y-107489047D01*
X129963809Y-107489047D01*
X129963809Y-107679523D01*
X130392380Y-106489047D02*
X129916190Y-106822380D01*
X130392380Y-107060476D02*
X129392380Y-107060476D01*
X129392380Y-106679523D01*
X129440000Y-106584285D01*
X129487619Y-106536666D01*
X129582857Y-106489047D01*
X129725714Y-106489047D01*
X129820952Y-106536666D01*
X129868571Y-106584285D01*
X129916190Y-106679523D01*
X129916190Y-107060476D01*
X129868571Y-106060476D02*
X129868571Y-105727142D01*
X130392380Y-105584285D02*
X130392380Y-106060476D01*
X129392380Y-106060476D01*
X129392380Y-105584285D01*
X129868571Y-105155714D02*
X129868571Y-104822380D01*
X130392380Y-104679523D02*
X130392380Y-105155714D01*
X129392380Y-105155714D01*
X129392380Y-104679523D01*
X130392380Y-104250952D02*
X129392380Y-104250952D01*
X130392380Y-103679523D01*
X129392380Y-103679523D01*
D10*
X127320952Y-106355714D02*
X126920952Y-106355714D01*
X126920952Y-106260476D01*
X126940000Y-106203333D01*
X126978095Y-106165238D01*
X127016190Y-106146190D01*
X127092380Y-106127142D01*
X127149523Y-106127142D01*
X127225714Y-106146190D01*
X127263809Y-106165238D01*
X127301904Y-106203333D01*
X127320952Y-106260476D01*
X127320952Y-106355714D01*
X127320952Y-105746190D02*
X127320952Y-105974761D01*
X127320952Y-105860476D02*
X126920952Y-105860476D01*
X126978095Y-105898571D01*
X127016190Y-105936666D01*
X127035238Y-105974761D01*
X127092380Y-105517619D02*
X127073333Y-105555714D01*
X127054285Y-105574761D01*
X127016190Y-105593809D01*
X126997142Y-105593809D01*
X126959047Y-105574761D01*
X126940000Y-105555714D01*
X126920952Y-105517619D01*
X126920952Y-105441428D01*
X126940000Y-105403333D01*
X126959047Y-105384285D01*
X126997142Y-105365238D01*
X127016190Y-105365238D01*
X127054285Y-105384285D01*
X127073333Y-105403333D01*
X127092380Y-105441428D01*
X127092380Y-105517619D01*
X127111428Y-105555714D01*
X127130476Y-105574761D01*
X127168571Y-105593809D01*
X127244761Y-105593809D01*
X127282857Y-105574761D01*
X127301904Y-105555714D01*
X127320952Y-105517619D01*
X127320952Y-105441428D01*
X127301904Y-105403333D01*
X127282857Y-105384285D01*
X127244761Y-105365238D01*
X127168571Y-105365238D01*
X127130476Y-105384285D01*
X127111428Y-105403333D01*
X127092380Y-105441428D01*
D11*
X119672380Y-80477857D02*
X119196190Y-80811190D01*
X119672380Y-81049285D02*
X118672380Y-81049285D01*
X118672380Y-80668333D01*
X118720000Y-80573095D01*
X118767619Y-80525476D01*
X118862857Y-80477857D01*
X119005714Y-80477857D01*
X119100952Y-80525476D01*
X119148571Y-80573095D01*
X119196190Y-80668333D01*
X119196190Y-81049285D01*
X119148571Y-80049285D02*
X119148571Y-79715952D01*
X119672380Y-79573095D02*
X119672380Y-80049285D01*
X118672380Y-80049285D01*
X118672380Y-79573095D01*
X119672380Y-79144523D02*
X118672380Y-79144523D01*
X118672380Y-78906428D01*
X118720000Y-78763571D01*
X118815238Y-78668333D01*
X118910476Y-78620714D01*
X119100952Y-78573095D01*
X119243809Y-78573095D01*
X119434285Y-78620714D01*
X119529523Y-78668333D01*
X119624761Y-78763571D01*
X119672380Y-78906428D01*
X119672380Y-79144523D01*
D10*
X122200952Y-80130238D02*
X121800952Y-80130238D01*
X121800952Y-80035000D01*
X121820000Y-79977857D01*
X121858095Y-79939761D01*
X121896190Y-79920714D01*
X121972380Y-79901666D01*
X122029523Y-79901666D01*
X122105714Y-79920714D01*
X122143809Y-79939761D01*
X122181904Y-79977857D01*
X122200952Y-80035000D01*
X122200952Y-80130238D01*
X121800952Y-79654047D02*
X121800952Y-79615952D01*
X121820000Y-79577857D01*
X121839047Y-79558809D01*
X121877142Y-79539761D01*
X121953333Y-79520714D01*
X122048571Y-79520714D01*
X122124761Y-79539761D01*
X122162857Y-79558809D01*
X122181904Y-79577857D01*
X122200952Y-79615952D01*
X122200952Y-79654047D01*
X122181904Y-79692142D01*
X122162857Y-79711190D01*
X122124761Y-79730238D01*
X122048571Y-79749285D01*
X121953333Y-79749285D01*
X121877142Y-79730238D01*
X121839047Y-79711190D01*
X121820000Y-79692142D01*
X121800952Y-79654047D01*
D11*
X116132380Y-82335000D02*
X116132380Y-82144523D01*
X116180000Y-82049285D01*
X116275238Y-81954047D01*
X116465714Y-81906428D01*
X116799047Y-81906428D01*
X116989523Y-81954047D01*
X117084761Y-82049285D01*
X117132380Y-82144523D01*
X117132380Y-82335000D01*
X117084761Y-82430238D01*
X116989523Y-82525476D01*
X116799047Y-82573095D01*
X116465714Y-82573095D01*
X116275238Y-82525476D01*
X116180000Y-82430238D01*
X116132380Y-82335000D01*
X117132380Y-80906428D02*
X116656190Y-81239761D01*
X117132380Y-81477857D02*
X116132380Y-81477857D01*
X116132380Y-81096904D01*
X116180000Y-81001666D01*
X116227619Y-80954047D01*
X116322857Y-80906428D01*
X116465714Y-80906428D01*
X116560952Y-80954047D01*
X116608571Y-81001666D01*
X116656190Y-81096904D01*
X116656190Y-81477857D01*
X116846666Y-80525476D02*
X116846666Y-80049285D01*
X117132380Y-80620714D02*
X116132380Y-80287380D01*
X117132380Y-79954047D01*
X117132380Y-79620714D02*
X116132380Y-79620714D01*
X117132380Y-79049285D01*
X116132380Y-79049285D01*
X116180000Y-78049285D02*
X116132380Y-78144523D01*
X116132380Y-78287380D01*
X116180000Y-78430238D01*
X116275238Y-78525476D01*
X116370476Y-78573095D01*
X116560952Y-78620714D01*
X116703809Y-78620714D01*
X116894285Y-78573095D01*
X116989523Y-78525476D01*
X117084761Y-78430238D01*
X117132380Y-78287380D01*
X117132380Y-78192142D01*
X117084761Y-78049285D01*
X117037142Y-78001666D01*
X116703809Y-78001666D01*
X116703809Y-78192142D01*
X116608571Y-77573095D02*
X116608571Y-77239761D01*
X117132380Y-77096904D02*
X117132380Y-77573095D01*
X116132380Y-77573095D01*
X116132380Y-77096904D01*
D10*
X119660952Y-80130238D02*
X119260952Y-80130238D01*
X119260952Y-80035000D01*
X119280000Y-79977857D01*
X119318095Y-79939761D01*
X119356190Y-79920714D01*
X119432380Y-79901666D01*
X119489523Y-79901666D01*
X119565714Y-79920714D01*
X119603809Y-79939761D01*
X119641904Y-79977857D01*
X119660952Y-80035000D01*
X119660952Y-80130238D01*
X119660952Y-79520714D02*
X119660952Y-79749285D01*
X119660952Y-79635000D02*
X119260952Y-79635000D01*
X119318095Y-79673095D01*
X119356190Y-79711190D01*
X119375238Y-79749285D01*
D11*
X113640000Y-81501666D02*
X113592380Y-81596904D01*
X113592380Y-81739761D01*
X113640000Y-81882619D01*
X113735238Y-81977857D01*
X113830476Y-82025476D01*
X114020952Y-82073095D01*
X114163809Y-82073095D01*
X114354285Y-82025476D01*
X114449523Y-81977857D01*
X114544761Y-81882619D01*
X114592380Y-81739761D01*
X114592380Y-81644523D01*
X114544761Y-81501666D01*
X114497142Y-81454047D01*
X114163809Y-81454047D01*
X114163809Y-81644523D01*
X114592380Y-80454047D02*
X114116190Y-80787380D01*
X114592380Y-81025476D02*
X113592380Y-81025476D01*
X113592380Y-80644523D01*
X113640000Y-80549285D01*
X113687619Y-80501666D01*
X113782857Y-80454047D01*
X113925714Y-80454047D01*
X114020952Y-80501666D01*
X114068571Y-80549285D01*
X114116190Y-80644523D01*
X114116190Y-81025476D01*
X114068571Y-80025476D02*
X114068571Y-79692142D01*
X114592380Y-79549285D02*
X114592380Y-80025476D01*
X113592380Y-80025476D01*
X113592380Y-79549285D01*
X114068571Y-79120714D02*
X114068571Y-78787380D01*
X114592380Y-78644523D02*
X114592380Y-79120714D01*
X113592380Y-79120714D01*
X113592380Y-78644523D01*
X114592380Y-78215952D02*
X113592380Y-78215952D01*
X114592380Y-77644523D01*
X113592380Y-77644523D01*
D10*
X117120952Y-80130238D02*
X116720952Y-80130238D01*
X116720952Y-80035000D01*
X116740000Y-79977857D01*
X116778095Y-79939761D01*
X116816190Y-79920714D01*
X116892380Y-79901666D01*
X116949523Y-79901666D01*
X117025714Y-79920714D01*
X117063809Y-79939761D01*
X117101904Y-79977857D01*
X117120952Y-80035000D01*
X117120952Y-80130238D01*
X116759047Y-79749285D02*
X116740000Y-79730238D01*
X116720952Y-79692142D01*
X116720952Y-79596904D01*
X116740000Y-79558809D01*
X116759047Y-79539761D01*
X116797142Y-79520714D01*
X116835238Y-79520714D01*
X116892380Y-79539761D01*
X117120952Y-79768333D01*
X117120952Y-79520714D01*
D11*
X111528571Y-81144523D02*
X111576190Y-81001666D01*
X111623809Y-80954047D01*
X111719047Y-80906428D01*
X111861904Y-80906428D01*
X111957142Y-80954047D01*
X112004761Y-81001666D01*
X112052380Y-81096904D01*
X112052380Y-81477857D01*
X111052380Y-81477857D01*
X111052380Y-81144523D01*
X111100000Y-81049285D01*
X111147619Y-81001666D01*
X111242857Y-80954047D01*
X111338095Y-80954047D01*
X111433333Y-81001666D01*
X111480952Y-81049285D01*
X111528571Y-81144523D01*
X111528571Y-81477857D01*
X112052380Y-80001666D02*
X112052380Y-80477857D01*
X111052380Y-80477857D01*
X111052380Y-79668333D02*
X111861904Y-79668333D01*
X111957142Y-79620714D01*
X112004761Y-79573095D01*
X112052380Y-79477857D01*
X112052380Y-79287380D01*
X112004761Y-79192142D01*
X111957142Y-79144523D01*
X111861904Y-79096904D01*
X111052380Y-79096904D01*
X111528571Y-78620714D02*
X111528571Y-78287380D01*
X112052380Y-78144523D02*
X112052380Y-78620714D01*
X111052380Y-78620714D01*
X111052380Y-78144523D01*
D10*
X114580952Y-80130238D02*
X114180952Y-80130238D01*
X114180952Y-80035000D01*
X114200000Y-79977857D01*
X114238095Y-79939761D01*
X114276190Y-79920714D01*
X114352380Y-79901666D01*
X114409523Y-79901666D01*
X114485714Y-79920714D01*
X114523809Y-79939761D01*
X114561904Y-79977857D01*
X114580952Y-80035000D01*
X114580952Y-80130238D01*
X114180952Y-79768333D02*
X114180952Y-79520714D01*
X114333333Y-79654047D01*
X114333333Y-79596904D01*
X114352380Y-79558809D01*
X114371428Y-79539761D01*
X114409523Y-79520714D01*
X114504761Y-79520714D01*
X114542857Y-79539761D01*
X114561904Y-79558809D01*
X114580952Y-79596904D01*
X114580952Y-79711190D01*
X114561904Y-79749285D01*
X114542857Y-79768333D01*
D11*
X109512380Y-80477857D02*
X109036190Y-80811190D01*
X109512380Y-81049285D02*
X108512380Y-81049285D01*
X108512380Y-80668333D01*
X108560000Y-80573095D01*
X108607619Y-80525476D01*
X108702857Y-80477857D01*
X108845714Y-80477857D01*
X108940952Y-80525476D01*
X108988571Y-80573095D01*
X109036190Y-80668333D01*
X109036190Y-81049285D01*
X108988571Y-80049285D02*
X108988571Y-79715952D01*
X109512380Y-79573095D02*
X109512380Y-80049285D01*
X108512380Y-80049285D01*
X108512380Y-79573095D01*
X109512380Y-79144523D02*
X108512380Y-79144523D01*
X108512380Y-78906428D01*
X108560000Y-78763571D01*
X108655238Y-78668333D01*
X108750476Y-78620714D01*
X108940952Y-78573095D01*
X109083809Y-78573095D01*
X109274285Y-78620714D01*
X109369523Y-78668333D01*
X109464761Y-78763571D01*
X109512380Y-78906428D01*
X109512380Y-79144523D01*
D10*
X112040952Y-80130238D02*
X111640952Y-80130238D01*
X111640952Y-80035000D01*
X111660000Y-79977857D01*
X111698095Y-79939761D01*
X111736190Y-79920714D01*
X111812380Y-79901666D01*
X111869523Y-79901666D01*
X111945714Y-79920714D01*
X111983809Y-79939761D01*
X112021904Y-79977857D01*
X112040952Y-80035000D01*
X112040952Y-80130238D01*
X111774285Y-79558809D02*
X112040952Y-79558809D01*
X111621904Y-79654047D02*
X111907619Y-79749285D01*
X111907619Y-79501666D01*
D11*
X105972380Y-82335000D02*
X105972380Y-82144523D01*
X106020000Y-82049285D01*
X106115238Y-81954047D01*
X106305714Y-81906428D01*
X106639047Y-81906428D01*
X106829523Y-81954047D01*
X106924761Y-82049285D01*
X106972380Y-82144523D01*
X106972380Y-82335000D01*
X106924761Y-82430238D01*
X106829523Y-82525476D01*
X106639047Y-82573095D01*
X106305714Y-82573095D01*
X106115238Y-82525476D01*
X106020000Y-82430238D01*
X105972380Y-82335000D01*
X106972380Y-80906428D02*
X106496190Y-81239761D01*
X106972380Y-81477857D02*
X105972380Y-81477857D01*
X105972380Y-81096904D01*
X106020000Y-81001666D01*
X106067619Y-80954047D01*
X106162857Y-80906428D01*
X106305714Y-80906428D01*
X106400952Y-80954047D01*
X106448571Y-81001666D01*
X106496190Y-81096904D01*
X106496190Y-81477857D01*
X106686666Y-80525476D02*
X106686666Y-80049285D01*
X106972380Y-80620714D02*
X105972380Y-80287380D01*
X106972380Y-79954047D01*
X106972380Y-79620714D02*
X105972380Y-79620714D01*
X106972380Y-79049285D01*
X105972380Y-79049285D01*
X106020000Y-78049285D02*
X105972380Y-78144523D01*
X105972380Y-78287380D01*
X106020000Y-78430238D01*
X106115238Y-78525476D01*
X106210476Y-78573095D01*
X106400952Y-78620714D01*
X106543809Y-78620714D01*
X106734285Y-78573095D01*
X106829523Y-78525476D01*
X106924761Y-78430238D01*
X106972380Y-78287380D01*
X106972380Y-78192142D01*
X106924761Y-78049285D01*
X106877142Y-78001666D01*
X106543809Y-78001666D01*
X106543809Y-78192142D01*
X106448571Y-77573095D02*
X106448571Y-77239761D01*
X106972380Y-77096904D02*
X106972380Y-77573095D01*
X105972380Y-77573095D01*
X105972380Y-77096904D01*
D10*
X109500952Y-80130238D02*
X109100952Y-80130238D01*
X109100952Y-80035000D01*
X109120000Y-79977857D01*
X109158095Y-79939761D01*
X109196190Y-79920714D01*
X109272380Y-79901666D01*
X109329523Y-79901666D01*
X109405714Y-79920714D01*
X109443809Y-79939761D01*
X109481904Y-79977857D01*
X109500952Y-80035000D01*
X109500952Y-80130238D01*
X109100952Y-79539761D02*
X109100952Y-79730238D01*
X109291428Y-79749285D01*
X109272380Y-79730238D01*
X109253333Y-79692142D01*
X109253333Y-79596904D01*
X109272380Y-79558809D01*
X109291428Y-79539761D01*
X109329523Y-79520714D01*
X109424761Y-79520714D01*
X109462857Y-79539761D01*
X109481904Y-79558809D01*
X109500952Y-79596904D01*
X109500952Y-79692142D01*
X109481904Y-79730238D01*
X109462857Y-79749285D01*
D11*
X103480000Y-81501666D02*
X103432380Y-81596904D01*
X103432380Y-81739761D01*
X103480000Y-81882619D01*
X103575238Y-81977857D01*
X103670476Y-82025476D01*
X103860952Y-82073095D01*
X104003809Y-82073095D01*
X104194285Y-82025476D01*
X104289523Y-81977857D01*
X104384761Y-81882619D01*
X104432380Y-81739761D01*
X104432380Y-81644523D01*
X104384761Y-81501666D01*
X104337142Y-81454047D01*
X104003809Y-81454047D01*
X104003809Y-81644523D01*
X104432380Y-80454047D02*
X103956190Y-80787380D01*
X104432380Y-81025476D02*
X103432380Y-81025476D01*
X103432380Y-80644523D01*
X103480000Y-80549285D01*
X103527619Y-80501666D01*
X103622857Y-80454047D01*
X103765714Y-80454047D01*
X103860952Y-80501666D01*
X103908571Y-80549285D01*
X103956190Y-80644523D01*
X103956190Y-81025476D01*
X103908571Y-80025476D02*
X103908571Y-79692142D01*
X104432380Y-79549285D02*
X104432380Y-80025476D01*
X103432380Y-80025476D01*
X103432380Y-79549285D01*
X103908571Y-79120714D02*
X103908571Y-78787380D01*
X104432380Y-78644523D02*
X104432380Y-79120714D01*
X103432380Y-79120714D01*
X103432380Y-78644523D01*
X104432380Y-78215952D02*
X103432380Y-78215952D01*
X104432380Y-77644523D01*
X103432380Y-77644523D01*
D10*
X106960952Y-80130238D02*
X106560952Y-80130238D01*
X106560952Y-80035000D01*
X106580000Y-79977857D01*
X106618095Y-79939761D01*
X106656190Y-79920714D01*
X106732380Y-79901666D01*
X106789523Y-79901666D01*
X106865714Y-79920714D01*
X106903809Y-79939761D01*
X106941904Y-79977857D01*
X106960952Y-80035000D01*
X106960952Y-80130238D01*
X106560952Y-79558809D02*
X106560952Y-79635000D01*
X106580000Y-79673095D01*
X106599047Y-79692142D01*
X106656190Y-79730238D01*
X106732380Y-79749285D01*
X106884761Y-79749285D01*
X106922857Y-79730238D01*
X106941904Y-79711190D01*
X106960952Y-79673095D01*
X106960952Y-79596904D01*
X106941904Y-79558809D01*
X106922857Y-79539761D01*
X106884761Y-79520714D01*
X106789523Y-79520714D01*
X106751428Y-79539761D01*
X106732380Y-79558809D01*
X106713333Y-79596904D01*
X106713333Y-79673095D01*
X106732380Y-79711190D01*
X106751428Y-79730238D01*
X106789523Y-79749285D01*
D11*
X101368571Y-81144523D02*
X101416190Y-81001666D01*
X101463809Y-80954047D01*
X101559047Y-80906428D01*
X101701904Y-80906428D01*
X101797142Y-80954047D01*
X101844761Y-81001666D01*
X101892380Y-81096904D01*
X101892380Y-81477857D01*
X100892380Y-81477857D01*
X100892380Y-81144523D01*
X100940000Y-81049285D01*
X100987619Y-81001666D01*
X101082857Y-80954047D01*
X101178095Y-80954047D01*
X101273333Y-81001666D01*
X101320952Y-81049285D01*
X101368571Y-81144523D01*
X101368571Y-81477857D01*
X101892380Y-80001666D02*
X101892380Y-80477857D01*
X100892380Y-80477857D01*
X100892380Y-79668333D02*
X101701904Y-79668333D01*
X101797142Y-79620714D01*
X101844761Y-79573095D01*
X101892380Y-79477857D01*
X101892380Y-79287380D01*
X101844761Y-79192142D01*
X101797142Y-79144523D01*
X101701904Y-79096904D01*
X100892380Y-79096904D01*
X101368571Y-78620714D02*
X101368571Y-78287380D01*
X101892380Y-78144523D02*
X101892380Y-78620714D01*
X100892380Y-78620714D01*
X100892380Y-78144523D01*
D10*
X104420952Y-80130238D02*
X104020952Y-80130238D01*
X104020952Y-80035000D01*
X104040000Y-79977857D01*
X104078095Y-79939761D01*
X104116190Y-79920714D01*
X104192380Y-79901666D01*
X104249523Y-79901666D01*
X104325714Y-79920714D01*
X104363809Y-79939761D01*
X104401904Y-79977857D01*
X104420952Y-80035000D01*
X104420952Y-80130238D01*
X104020952Y-79768333D02*
X104020952Y-79501666D01*
X104420952Y-79673095D01*
D11*
X132932380Y-106512857D02*
X132456190Y-106846190D01*
X132932380Y-107084285D02*
X131932380Y-107084285D01*
X131932380Y-106703333D01*
X131980000Y-106608095D01*
X132027619Y-106560476D01*
X132122857Y-106512857D01*
X132265714Y-106512857D01*
X132360952Y-106560476D01*
X132408571Y-106608095D01*
X132456190Y-106703333D01*
X132456190Y-107084285D01*
X132408571Y-106084285D02*
X132408571Y-105750952D01*
X132932380Y-105608095D02*
X132932380Y-106084285D01*
X131932380Y-106084285D01*
X131932380Y-105608095D01*
X132932380Y-105179523D02*
X131932380Y-105179523D01*
X131932380Y-104941428D01*
X131980000Y-104798571D01*
X132075238Y-104703333D01*
X132170476Y-104655714D01*
X132360952Y-104608095D01*
X132503809Y-104608095D01*
X132694285Y-104655714D01*
X132789523Y-104703333D01*
X132884761Y-104798571D01*
X132932380Y-104941428D01*
X132932380Y-105179523D01*
D10*
X129860952Y-106355714D02*
X129460952Y-106355714D01*
X129460952Y-106260476D01*
X129480000Y-106203333D01*
X129518095Y-106165238D01*
X129556190Y-106146190D01*
X129632380Y-106127142D01*
X129689523Y-106127142D01*
X129765714Y-106146190D01*
X129803809Y-106165238D01*
X129841904Y-106203333D01*
X129860952Y-106260476D01*
X129860952Y-106355714D01*
X129860952Y-105746190D02*
X129860952Y-105974761D01*
X129860952Y-105860476D02*
X129460952Y-105860476D01*
X129518095Y-105898571D01*
X129556190Y-105936666D01*
X129575238Y-105974761D01*
X129860952Y-105555714D02*
X129860952Y-105479523D01*
X129841904Y-105441428D01*
X129822857Y-105422380D01*
X129765714Y-105384285D01*
X129689523Y-105365238D01*
X129537142Y-105365238D01*
X129499047Y-105384285D01*
X129480000Y-105403333D01*
X129460952Y-105441428D01*
X129460952Y-105517619D01*
X129480000Y-105555714D01*
X129499047Y-105574761D01*
X129537142Y-105593809D01*
X129632380Y-105593809D01*
X129670476Y-105574761D01*
X129689523Y-105555714D01*
X129708571Y-105517619D01*
X129708571Y-105441428D01*
X129689523Y-105403333D01*
X129670476Y-105384285D01*
X129632380Y-105365238D01*
D13*
X142239047Y-67897000D02*
X142118095Y-67836523D01*
X141936666Y-67836523D01*
X141755238Y-67897000D01*
X141634285Y-68017952D01*
X141573809Y-68138904D01*
X141513333Y-68380809D01*
X141513333Y-68562238D01*
X141573809Y-68804142D01*
X141634285Y-68925095D01*
X141755238Y-69046047D01*
X141936666Y-69106523D01*
X142057619Y-69106523D01*
X142239047Y-69046047D01*
X142299523Y-68985571D01*
X142299523Y-68562238D01*
X142057619Y-68562238D01*
X142843809Y-69106523D02*
X142843809Y-67836523D01*
X143327619Y-67836523D01*
X143448571Y-67897000D01*
X143509047Y-67957476D01*
X143569523Y-68078428D01*
X143569523Y-68259857D01*
X143509047Y-68380809D01*
X143448571Y-68441285D01*
X143327619Y-68501761D01*
X142843809Y-68501761D01*
X144113809Y-69106523D02*
X144113809Y-67836523D01*
X144416190Y-67836523D01*
X144597619Y-67897000D01*
X144718571Y-68017952D01*
X144779047Y-68138904D01*
X144839523Y-68380809D01*
X144839523Y-68562238D01*
X144779047Y-68804142D01*
X144718571Y-68925095D01*
X144597619Y-69046047D01*
X144416190Y-69106523D01*
X144113809Y-69106523D01*
X145383809Y-69106523D02*
X145383809Y-67836523D01*
X145988571Y-68622714D02*
X146956190Y-68622714D01*
X147560952Y-69106523D02*
X147560952Y-67836523D01*
X147863333Y-67836523D01*
X148044761Y-67897000D01*
X148165714Y-68017952D01*
X148226190Y-68138904D01*
X148286666Y-68380809D01*
X148286666Y-68562238D01*
X148226190Y-68804142D01*
X148165714Y-68925095D01*
X148044761Y-69046047D01*
X147863333Y-69106523D01*
X147560952Y-69106523D01*
D11*
X177545380Y-94633333D02*
X176545380Y-94633333D01*
X177259666Y-94300000D01*
X176545380Y-93966666D01*
X177545380Y-93966666D01*
X176545380Y-93633333D02*
X176545380Y-93061904D01*
X177545380Y-93347619D02*
X176545380Y-93347619D01*
X176878714Y-92300000D02*
X177545380Y-92300000D01*
X176497761Y-92538095D02*
X177212047Y-92776190D01*
X177212047Y-92157142D01*
X176973952Y-91633333D02*
X176926333Y-91728571D01*
X176878714Y-91776190D01*
X176783476Y-91823809D01*
X176735857Y-91823809D01*
X176640619Y-91776190D01*
X176593000Y-91728571D01*
X176545380Y-91633333D01*
X176545380Y-91442857D01*
X176593000Y-91347619D01*
X176640619Y-91300000D01*
X176735857Y-91252380D01*
X176783476Y-91252380D01*
X176878714Y-91300000D01*
X176926333Y-91347619D01*
X176973952Y-91442857D01*
X176973952Y-91633333D01*
X177021571Y-91728571D01*
X177069190Y-91776190D01*
X177164428Y-91823809D01*
X177354904Y-91823809D01*
X177450142Y-91776190D01*
X177497761Y-91728571D01*
X177545380Y-91633333D01*
X177545380Y-91442857D01*
X177497761Y-91347619D01*
X177450142Y-91300000D01*
X177354904Y-91252380D01*
X177164428Y-91252380D01*
X177069190Y-91300000D01*
X177021571Y-91347619D01*
X176973952Y-91442857D01*
X177545380Y-90347619D02*
X177545380Y-90823809D01*
X176545380Y-90823809D01*
X177450142Y-89442857D02*
X177497761Y-89490476D01*
X177545380Y-89633333D01*
X177545380Y-89728571D01*
X177497761Y-89871428D01*
X177402523Y-89966666D01*
X177307285Y-90014285D01*
X177116809Y-90061904D01*
X176973952Y-90061904D01*
X176783476Y-90014285D01*
X176688238Y-89966666D01*
X176593000Y-89871428D01*
X176545380Y-89728571D01*
X176545380Y-89633333D01*
X176593000Y-89490476D01*
X176640619Y-89442857D01*
X177545380Y-88490476D02*
X177545380Y-89061904D01*
X177545380Y-88776190D02*
X176545380Y-88776190D01*
X176688238Y-88871428D01*
X176783476Y-88966666D01*
X176831095Y-89061904D01*
X176545380Y-87633333D02*
X176545380Y-87823809D01*
X176593000Y-87919047D01*
X176640619Y-87966666D01*
X176783476Y-88061904D01*
X176973952Y-88109523D01*
X177354904Y-88109523D01*
X177450142Y-88061904D01*
X177497761Y-88014285D01*
X177545380Y-87919047D01*
X177545380Y-87728571D01*
X177497761Y-87633333D01*
X177450142Y-87585714D01*
X177354904Y-87538095D01*
X177116809Y-87538095D01*
X177021571Y-87585714D01*
X176973952Y-87633333D01*
X176926333Y-87728571D01*
X176926333Y-87919047D01*
X176973952Y-88014285D01*
X177021571Y-88061904D01*
X177116809Y-88109523D01*
X177545380Y-87109523D02*
X176545380Y-87109523D01*
X177259666Y-86776190D01*
X176545380Y-86442857D01*
X177545380Y-86442857D01*
X177545380Y-85442857D02*
X177545380Y-86014285D01*
X177545380Y-85728571D02*
X176545380Y-85728571D01*
X176688238Y-85823809D01*
X176783476Y-85919047D01*
X176831095Y-86014285D01*
X176545380Y-84585714D02*
X176545380Y-84776190D01*
X176593000Y-84871428D01*
X176640619Y-84919047D01*
X176783476Y-85014285D01*
X176973952Y-85061904D01*
X177354904Y-85061904D01*
X177450142Y-85014285D01*
X177497761Y-84966666D01*
X177545380Y-84871428D01*
X177545380Y-84680952D01*
X177497761Y-84585714D01*
X177450142Y-84538095D01*
X177354904Y-84490476D01*
X177116809Y-84490476D01*
X177021571Y-84538095D01*
X176973952Y-84585714D01*
X176926333Y-84680952D01*
X176926333Y-84871428D01*
X176973952Y-84966666D01*
X177021571Y-85014285D01*
X177116809Y-85061904D01*
X177259666Y-84109523D02*
X177259666Y-83633333D01*
X177545380Y-84204761D02*
X176545380Y-83871428D01*
X177545380Y-83538095D01*
X176640619Y-83252380D02*
X176593000Y-83204761D01*
X176545380Y-83109523D01*
X176545380Y-82871428D01*
X176593000Y-82776190D01*
X176640619Y-82728571D01*
X176735857Y-82680952D01*
X176831095Y-82680952D01*
X176973952Y-82728571D01*
X177545380Y-83300000D01*
X177545380Y-82680952D01*
X176545380Y-82395238D02*
X176545380Y-81823809D01*
X177545380Y-82109523D02*
X176545380Y-82109523D01*
X176593000Y-80966666D02*
X176545380Y-81061904D01*
X176545380Y-81204761D01*
X176593000Y-81347619D01*
X176688238Y-81442857D01*
X176783476Y-81490476D01*
X176973952Y-81538095D01*
X177116809Y-81538095D01*
X177307285Y-81490476D01*
X177402523Y-81442857D01*
X177497761Y-81347619D01*
X177545380Y-81204761D01*
X177545380Y-81109523D01*
X177497761Y-80966666D01*
X177450142Y-80919047D01*
X177116809Y-80919047D01*
X177116809Y-81109523D01*
X122722380Y-82621047D02*
X122722380Y-83192476D01*
X122722380Y-82906761D02*
X121722380Y-82906761D01*
X121865238Y-83002000D01*
X121960476Y-83097238D01*
X122008095Y-83192476D01*
X122722380Y-82192476D02*
X121722380Y-82192476D01*
X122341428Y-82097238D02*
X122722380Y-81811523D01*
X122055714Y-81811523D02*
X122436666Y-82192476D01*
D12*
X120950952Y-82759142D02*
X120760476Y-82892476D01*
X120950952Y-82987714D02*
X120550952Y-82987714D01*
X120550952Y-82835333D01*
X120570000Y-82797238D01*
X120589047Y-82778190D01*
X120627142Y-82759142D01*
X120684285Y-82759142D01*
X120722380Y-82778190D01*
X120741428Y-82797238D01*
X120760476Y-82835333D01*
X120760476Y-82987714D01*
X120684285Y-82416285D02*
X120950952Y-82416285D01*
X120531904Y-82511523D02*
X120817619Y-82606761D01*
X120817619Y-82359142D01*
X120950952Y-81997238D02*
X120950952Y-82225809D01*
X120950952Y-82111523D02*
X120550952Y-82111523D01*
X120608095Y-82149619D01*
X120646190Y-82187714D01*
X120665238Y-82225809D01*
D11*
X120182380Y-82621047D02*
X120182380Y-83192476D01*
X120182380Y-82906761D02*
X119182380Y-82906761D01*
X119325238Y-83002000D01*
X119420476Y-83097238D01*
X119468095Y-83192476D01*
X120182380Y-82192476D02*
X119182380Y-82192476D01*
X119801428Y-82097238D02*
X120182380Y-81811523D01*
X119515714Y-81811523D02*
X119896666Y-82192476D01*
D12*
X118410952Y-82759142D02*
X118220476Y-82892476D01*
X118410952Y-82987714D02*
X118010952Y-82987714D01*
X118010952Y-82835333D01*
X118030000Y-82797238D01*
X118049047Y-82778190D01*
X118087142Y-82759142D01*
X118144285Y-82759142D01*
X118182380Y-82778190D01*
X118201428Y-82797238D01*
X118220476Y-82835333D01*
X118220476Y-82987714D01*
X118144285Y-82416285D02*
X118410952Y-82416285D01*
X117991904Y-82511523D02*
X118277619Y-82606761D01*
X118277619Y-82359142D01*
X118049047Y-82225809D02*
X118030000Y-82206761D01*
X118010952Y-82168666D01*
X118010952Y-82073428D01*
X118030000Y-82035333D01*
X118049047Y-82016285D01*
X118087142Y-81997238D01*
X118125238Y-81997238D01*
X118182380Y-82016285D01*
X118410952Y-82244857D01*
X118410952Y-81997238D01*
D11*
X117642380Y-82621047D02*
X117642380Y-83192476D01*
X117642380Y-82906761D02*
X116642380Y-82906761D01*
X116785238Y-83002000D01*
X116880476Y-83097238D01*
X116928095Y-83192476D01*
X117642380Y-82192476D02*
X116642380Y-82192476D01*
X117261428Y-82097238D02*
X117642380Y-81811523D01*
X116975714Y-81811523D02*
X117356666Y-82192476D01*
D12*
X115870952Y-82759142D02*
X115680476Y-82892476D01*
X115870952Y-82987714D02*
X115470952Y-82987714D01*
X115470952Y-82835333D01*
X115490000Y-82797238D01*
X115509047Y-82778190D01*
X115547142Y-82759142D01*
X115604285Y-82759142D01*
X115642380Y-82778190D01*
X115661428Y-82797238D01*
X115680476Y-82835333D01*
X115680476Y-82987714D01*
X115604285Y-82416285D02*
X115870952Y-82416285D01*
X115451904Y-82511523D02*
X115737619Y-82606761D01*
X115737619Y-82359142D01*
X115470952Y-82244857D02*
X115470952Y-81997238D01*
X115623333Y-82130571D01*
X115623333Y-82073428D01*
X115642380Y-82035333D01*
X115661428Y-82016285D01*
X115699523Y-81997238D01*
X115794761Y-81997238D01*
X115832857Y-82016285D01*
X115851904Y-82035333D01*
X115870952Y-82073428D01*
X115870952Y-82187714D01*
X115851904Y-82225809D01*
X115832857Y-82244857D01*
D11*
X115102380Y-82621047D02*
X115102380Y-83192476D01*
X115102380Y-82906761D02*
X114102380Y-82906761D01*
X114245238Y-83002000D01*
X114340476Y-83097238D01*
X114388095Y-83192476D01*
X115102380Y-82192476D02*
X114102380Y-82192476D01*
X114721428Y-82097238D02*
X115102380Y-81811523D01*
X114435714Y-81811523D02*
X114816666Y-82192476D01*
D12*
X113330952Y-82759142D02*
X113140476Y-82892476D01*
X113330952Y-82987714D02*
X112930952Y-82987714D01*
X112930952Y-82835333D01*
X112950000Y-82797238D01*
X112969047Y-82778190D01*
X113007142Y-82759142D01*
X113064285Y-82759142D01*
X113102380Y-82778190D01*
X113121428Y-82797238D01*
X113140476Y-82835333D01*
X113140476Y-82987714D01*
X113064285Y-82416285D02*
X113330952Y-82416285D01*
X112911904Y-82511523D02*
X113197619Y-82606761D01*
X113197619Y-82359142D01*
X113064285Y-82035333D02*
X113330952Y-82035333D01*
X112911904Y-82130571D02*
X113197619Y-82225809D01*
X113197619Y-81978190D01*
D11*
X112562380Y-82621047D02*
X112562380Y-83192476D01*
X112562380Y-82906761D02*
X111562380Y-82906761D01*
X111705238Y-83002000D01*
X111800476Y-83097238D01*
X111848095Y-83192476D01*
X112562380Y-82192476D02*
X111562380Y-82192476D01*
X112181428Y-82097238D02*
X112562380Y-81811523D01*
X111895714Y-81811523D02*
X112276666Y-82192476D01*
D12*
X110790952Y-82759142D02*
X110600476Y-82892476D01*
X110790952Y-82987714D02*
X110390952Y-82987714D01*
X110390952Y-82835333D01*
X110410000Y-82797238D01*
X110429047Y-82778190D01*
X110467142Y-82759142D01*
X110524285Y-82759142D01*
X110562380Y-82778190D01*
X110581428Y-82797238D01*
X110600476Y-82835333D01*
X110600476Y-82987714D01*
X110524285Y-82416285D02*
X110790952Y-82416285D01*
X110371904Y-82511523D02*
X110657619Y-82606761D01*
X110657619Y-82359142D01*
X110390952Y-82016285D02*
X110390952Y-82206761D01*
X110581428Y-82225809D01*
X110562380Y-82206761D01*
X110543333Y-82168666D01*
X110543333Y-82073428D01*
X110562380Y-82035333D01*
X110581428Y-82016285D01*
X110619523Y-81997238D01*
X110714761Y-81997238D01*
X110752857Y-82016285D01*
X110771904Y-82035333D01*
X110790952Y-82073428D01*
X110790952Y-82168666D01*
X110771904Y-82206761D01*
X110752857Y-82225809D01*
D11*
X110022380Y-82621047D02*
X110022380Y-83192476D01*
X110022380Y-82906761D02*
X109022380Y-82906761D01*
X109165238Y-83002000D01*
X109260476Y-83097238D01*
X109308095Y-83192476D01*
X110022380Y-82192476D02*
X109022380Y-82192476D01*
X109641428Y-82097238D02*
X110022380Y-81811523D01*
X109355714Y-81811523D02*
X109736666Y-82192476D01*
D12*
X108250952Y-82759142D02*
X108060476Y-82892476D01*
X108250952Y-82987714D02*
X107850952Y-82987714D01*
X107850952Y-82835333D01*
X107870000Y-82797238D01*
X107889047Y-82778190D01*
X107927142Y-82759142D01*
X107984285Y-82759142D01*
X108022380Y-82778190D01*
X108041428Y-82797238D01*
X108060476Y-82835333D01*
X108060476Y-82987714D01*
X107984285Y-82416285D02*
X108250952Y-82416285D01*
X107831904Y-82511523D02*
X108117619Y-82606761D01*
X108117619Y-82359142D01*
X107850952Y-82035333D02*
X107850952Y-82111523D01*
X107870000Y-82149619D01*
X107889047Y-82168666D01*
X107946190Y-82206761D01*
X108022380Y-82225809D01*
X108174761Y-82225809D01*
X108212857Y-82206761D01*
X108231904Y-82187714D01*
X108250952Y-82149619D01*
X108250952Y-82073428D01*
X108231904Y-82035333D01*
X108212857Y-82016285D01*
X108174761Y-81997238D01*
X108079523Y-81997238D01*
X108041428Y-82016285D01*
X108022380Y-82035333D01*
X108003333Y-82073428D01*
X108003333Y-82149619D01*
X108022380Y-82187714D01*
X108041428Y-82206761D01*
X108079523Y-82225809D01*
D11*
X107482380Y-82621047D02*
X107482380Y-83192476D01*
X107482380Y-82906761D02*
X106482380Y-82906761D01*
X106625238Y-83002000D01*
X106720476Y-83097238D01*
X106768095Y-83192476D01*
X107482380Y-82192476D02*
X106482380Y-82192476D01*
X107101428Y-82097238D02*
X107482380Y-81811523D01*
X106815714Y-81811523D02*
X107196666Y-82192476D01*
D12*
X105710952Y-82759142D02*
X105520476Y-82892476D01*
X105710952Y-82987714D02*
X105310952Y-82987714D01*
X105310952Y-82835333D01*
X105330000Y-82797238D01*
X105349047Y-82778190D01*
X105387142Y-82759142D01*
X105444285Y-82759142D01*
X105482380Y-82778190D01*
X105501428Y-82797238D01*
X105520476Y-82835333D01*
X105520476Y-82987714D01*
X105444285Y-82416285D02*
X105710952Y-82416285D01*
X105291904Y-82511523D02*
X105577619Y-82606761D01*
X105577619Y-82359142D01*
X105310952Y-82244857D02*
X105310952Y-81978190D01*
X105710952Y-82149619D01*
D11*
X104942380Y-82621047D02*
X104942380Y-83192476D01*
X104942380Y-82906761D02*
X103942380Y-82906761D01*
X104085238Y-83002000D01*
X104180476Y-83097238D01*
X104228095Y-83192476D01*
X104942380Y-82192476D02*
X103942380Y-82192476D01*
X104561428Y-82097238D02*
X104942380Y-81811523D01*
X104275714Y-81811523D02*
X104656666Y-82192476D01*
D12*
X103170952Y-82759142D02*
X102980476Y-82892476D01*
X103170952Y-82987714D02*
X102770952Y-82987714D01*
X102770952Y-82835333D01*
X102790000Y-82797238D01*
X102809047Y-82778190D01*
X102847142Y-82759142D01*
X102904285Y-82759142D01*
X102942380Y-82778190D01*
X102961428Y-82797238D01*
X102980476Y-82835333D01*
X102980476Y-82987714D01*
X102904285Y-82416285D02*
X103170952Y-82416285D01*
X102751904Y-82511523D02*
X103037619Y-82606761D01*
X103037619Y-82359142D01*
X102942380Y-82149619D02*
X102923333Y-82187714D01*
X102904285Y-82206761D01*
X102866190Y-82225809D01*
X102847142Y-82225809D01*
X102809047Y-82206761D01*
X102790000Y-82187714D01*
X102770952Y-82149619D01*
X102770952Y-82073428D01*
X102790000Y-82035333D01*
X102809047Y-82016285D01*
X102847142Y-81997238D01*
X102866190Y-81997238D01*
X102904285Y-82016285D01*
X102923333Y-82035333D01*
X102942380Y-82073428D01*
X102942380Y-82149619D01*
X102961428Y-82187714D01*
X102980476Y-82206761D01*
X103018571Y-82225809D01*
X103094761Y-82225809D01*
X103132857Y-82206761D01*
X103151904Y-82187714D01*
X103170952Y-82149619D01*
X103170952Y-82073428D01*
X103151904Y-82035333D01*
X103132857Y-82016285D01*
X103094761Y-81997238D01*
X103018571Y-81997238D01*
X102980476Y-82016285D01*
X102961428Y-82035333D01*
X102942380Y-82073428D01*
D11*
X152313380Y-77318619D02*
X152313380Y-77890047D01*
X152313380Y-77604333D02*
X151313380Y-77604333D01*
X151456238Y-77699571D01*
X151551476Y-77794809D01*
X151599095Y-77890047D01*
X151313380Y-76699571D02*
X151313380Y-76604333D01*
X151361000Y-76509095D01*
X151408619Y-76461476D01*
X151503857Y-76413857D01*
X151694333Y-76366238D01*
X151932428Y-76366238D01*
X152122904Y-76413857D01*
X152218142Y-76461476D01*
X152265761Y-76509095D01*
X152313380Y-76604333D01*
X152313380Y-76699571D01*
X152265761Y-76794809D01*
X152218142Y-76842428D01*
X152122904Y-76890047D01*
X151932428Y-76937666D01*
X151694333Y-76937666D01*
X151503857Y-76890047D01*
X151408619Y-76842428D01*
X151361000Y-76794809D01*
X151313380Y-76699571D01*
X151313380Y-75747190D02*
X151313380Y-75651952D01*
X151361000Y-75556714D01*
X151408619Y-75509095D01*
X151503857Y-75461476D01*
X151694333Y-75413857D01*
X151932428Y-75413857D01*
X152122904Y-75461476D01*
X152218142Y-75509095D01*
X152265761Y-75556714D01*
X152313380Y-75651952D01*
X152313380Y-75747190D01*
X152265761Y-75842428D01*
X152218142Y-75890047D01*
X152122904Y-75937666D01*
X151932428Y-75985285D01*
X151694333Y-75985285D01*
X151503857Y-75937666D01*
X151408619Y-75890047D01*
X151361000Y-75842428D01*
X151313380Y-75747190D01*
X151646714Y-74985285D02*
X152313380Y-74985285D01*
X151741952Y-74985285D02*
X151694333Y-74937666D01*
X151646714Y-74842428D01*
X151646714Y-74699571D01*
X151694333Y-74604333D01*
X151789571Y-74556714D01*
X152313380Y-74556714D01*
X151789571Y-73747190D02*
X151789571Y-74080523D01*
X152313380Y-74080523D02*
X151313380Y-74080523D01*
X151313380Y-73604333D01*
D12*
X150468142Y-75963857D02*
X150482428Y-75978142D01*
X150496714Y-76021000D01*
X150496714Y-76049571D01*
X150482428Y-76092428D01*
X150453857Y-76121000D01*
X150425285Y-76135285D01*
X150368142Y-76149571D01*
X150325285Y-76149571D01*
X150268142Y-76135285D01*
X150239571Y-76121000D01*
X150211000Y-76092428D01*
X150196714Y-76049571D01*
X150196714Y-76021000D01*
X150211000Y-75978142D01*
X150225285Y-75963857D01*
X150196714Y-75863857D02*
X150196714Y-75678142D01*
X150311000Y-75778142D01*
X150311000Y-75735285D01*
X150325285Y-75706714D01*
X150339571Y-75692428D01*
X150368142Y-75678142D01*
X150439571Y-75678142D01*
X150468142Y-75692428D01*
X150482428Y-75706714D01*
X150496714Y-75735285D01*
X150496714Y-75821000D01*
X150482428Y-75849571D01*
X150468142Y-75863857D01*
X150196714Y-75421000D02*
X150196714Y-75478142D01*
X150211000Y-75506714D01*
X150225285Y-75521000D01*
X150268142Y-75549571D01*
X150325285Y-75563857D01*
X150439571Y-75563857D01*
X150468142Y-75549571D01*
X150482428Y-75535285D01*
X150496714Y-75506714D01*
X150496714Y-75449571D01*
X150482428Y-75421000D01*
X150468142Y-75406714D01*
X150439571Y-75392428D01*
X150368142Y-75392428D01*
X150339571Y-75406714D01*
X150325285Y-75421000D01*
X150311000Y-75449571D01*
X150311000Y-75506714D01*
X150325285Y-75535285D01*
X150339571Y-75549571D01*
X150368142Y-75563857D01*
D11*
X153710380Y-77318619D02*
X153710380Y-77890047D01*
X153710380Y-77604333D02*
X152710380Y-77604333D01*
X152853238Y-77699571D01*
X152948476Y-77794809D01*
X152996095Y-77890047D01*
X152710380Y-76699571D02*
X152710380Y-76604333D01*
X152758000Y-76509095D01*
X152805619Y-76461476D01*
X152900857Y-76413857D01*
X153091333Y-76366238D01*
X153329428Y-76366238D01*
X153519904Y-76413857D01*
X153615142Y-76461476D01*
X153662761Y-76509095D01*
X153710380Y-76604333D01*
X153710380Y-76699571D01*
X153662761Y-76794809D01*
X153615142Y-76842428D01*
X153519904Y-76890047D01*
X153329428Y-76937666D01*
X153091333Y-76937666D01*
X152900857Y-76890047D01*
X152805619Y-76842428D01*
X152758000Y-76794809D01*
X152710380Y-76699571D01*
X152710380Y-75747190D02*
X152710380Y-75651952D01*
X152758000Y-75556714D01*
X152805619Y-75509095D01*
X152900857Y-75461476D01*
X153091333Y-75413857D01*
X153329428Y-75413857D01*
X153519904Y-75461476D01*
X153615142Y-75509095D01*
X153662761Y-75556714D01*
X153710380Y-75651952D01*
X153710380Y-75747190D01*
X153662761Y-75842428D01*
X153615142Y-75890047D01*
X153519904Y-75937666D01*
X153329428Y-75985285D01*
X153091333Y-75985285D01*
X152900857Y-75937666D01*
X152805619Y-75890047D01*
X152758000Y-75842428D01*
X152710380Y-75747190D01*
X153043714Y-74985285D02*
X153710380Y-74985285D01*
X153138952Y-74985285D02*
X153091333Y-74937666D01*
X153043714Y-74842428D01*
X153043714Y-74699571D01*
X153091333Y-74604333D01*
X153186571Y-74556714D01*
X153710380Y-74556714D01*
X153186571Y-73747190D02*
X153186571Y-74080523D01*
X153710380Y-74080523D02*
X152710380Y-74080523D01*
X152710380Y-73604333D01*
D12*
X151865142Y-75963857D02*
X151879428Y-75978142D01*
X151893714Y-76021000D01*
X151893714Y-76049571D01*
X151879428Y-76092428D01*
X151850857Y-76121000D01*
X151822285Y-76135285D01*
X151765142Y-76149571D01*
X151722285Y-76149571D01*
X151665142Y-76135285D01*
X151636571Y-76121000D01*
X151608000Y-76092428D01*
X151593714Y-76049571D01*
X151593714Y-76021000D01*
X151608000Y-75978142D01*
X151622285Y-75963857D01*
X151593714Y-75863857D02*
X151593714Y-75678142D01*
X151708000Y-75778142D01*
X151708000Y-75735285D01*
X151722285Y-75706714D01*
X151736571Y-75692428D01*
X151765142Y-75678142D01*
X151836571Y-75678142D01*
X151865142Y-75692428D01*
X151879428Y-75706714D01*
X151893714Y-75735285D01*
X151893714Y-75821000D01*
X151879428Y-75849571D01*
X151865142Y-75863857D01*
X151593714Y-75578142D02*
X151593714Y-75378142D01*
X151893714Y-75506714D01*
D11*
X142153380Y-77318619D02*
X142153380Y-77890047D01*
X142153380Y-77604333D02*
X141153380Y-77604333D01*
X141296238Y-77699571D01*
X141391476Y-77794809D01*
X141439095Y-77890047D01*
X141153380Y-76699571D02*
X141153380Y-76604333D01*
X141201000Y-76509095D01*
X141248619Y-76461476D01*
X141343857Y-76413857D01*
X141534333Y-76366238D01*
X141772428Y-76366238D01*
X141962904Y-76413857D01*
X142058142Y-76461476D01*
X142105761Y-76509095D01*
X142153380Y-76604333D01*
X142153380Y-76699571D01*
X142105761Y-76794809D01*
X142058142Y-76842428D01*
X141962904Y-76890047D01*
X141772428Y-76937666D01*
X141534333Y-76937666D01*
X141343857Y-76890047D01*
X141248619Y-76842428D01*
X141201000Y-76794809D01*
X141153380Y-76699571D01*
X141153380Y-75747190D02*
X141153380Y-75651952D01*
X141201000Y-75556714D01*
X141248619Y-75509095D01*
X141343857Y-75461476D01*
X141534333Y-75413857D01*
X141772428Y-75413857D01*
X141962904Y-75461476D01*
X142058142Y-75509095D01*
X142105761Y-75556714D01*
X142153380Y-75651952D01*
X142153380Y-75747190D01*
X142105761Y-75842428D01*
X142058142Y-75890047D01*
X141962904Y-75937666D01*
X141772428Y-75985285D01*
X141534333Y-75985285D01*
X141343857Y-75937666D01*
X141248619Y-75890047D01*
X141201000Y-75842428D01*
X141153380Y-75747190D01*
X141486714Y-74985285D02*
X142153380Y-74985285D01*
X141581952Y-74985285D02*
X141534333Y-74937666D01*
X141486714Y-74842428D01*
X141486714Y-74699571D01*
X141534333Y-74604333D01*
X141629571Y-74556714D01*
X142153380Y-74556714D01*
X141629571Y-73747190D02*
X141629571Y-74080523D01*
X142153380Y-74080523D02*
X141153380Y-74080523D01*
X141153380Y-73604333D01*
D12*
X140308142Y-75963857D02*
X140322428Y-75978142D01*
X140336714Y-76021000D01*
X140336714Y-76049571D01*
X140322428Y-76092428D01*
X140293857Y-76121000D01*
X140265285Y-76135285D01*
X140208142Y-76149571D01*
X140165285Y-76149571D01*
X140108142Y-76135285D01*
X140079571Y-76121000D01*
X140051000Y-76092428D01*
X140036714Y-76049571D01*
X140036714Y-76021000D01*
X140051000Y-75978142D01*
X140065285Y-75963857D01*
X140036714Y-75863857D02*
X140036714Y-75678142D01*
X140151000Y-75778142D01*
X140151000Y-75735285D01*
X140165285Y-75706714D01*
X140179571Y-75692428D01*
X140208142Y-75678142D01*
X140279571Y-75678142D01*
X140308142Y-75692428D01*
X140322428Y-75706714D01*
X140336714Y-75735285D01*
X140336714Y-75821000D01*
X140322428Y-75849571D01*
X140308142Y-75863857D01*
X140165285Y-75506714D02*
X140151000Y-75535285D01*
X140136714Y-75549571D01*
X140108142Y-75563857D01*
X140093857Y-75563857D01*
X140065285Y-75549571D01*
X140051000Y-75535285D01*
X140036714Y-75506714D01*
X140036714Y-75449571D01*
X140051000Y-75421000D01*
X140065285Y-75406714D01*
X140093857Y-75392428D01*
X140108142Y-75392428D01*
X140136714Y-75406714D01*
X140151000Y-75421000D01*
X140165285Y-75449571D01*
X140165285Y-75506714D01*
X140179571Y-75535285D01*
X140193857Y-75549571D01*
X140222428Y-75563857D01*
X140279571Y-75563857D01*
X140308142Y-75549571D01*
X140322428Y-75535285D01*
X140336714Y-75506714D01*
X140336714Y-75449571D01*
X140322428Y-75421000D01*
X140308142Y-75406714D01*
X140279571Y-75392428D01*
X140222428Y-75392428D01*
X140193857Y-75406714D01*
X140179571Y-75421000D01*
X140165285Y-75449571D01*
D11*
X144947380Y-77318619D02*
X144947380Y-77890047D01*
X144947380Y-77604333D02*
X143947380Y-77604333D01*
X144090238Y-77699571D01*
X144185476Y-77794809D01*
X144233095Y-77890047D01*
X143947380Y-76699571D02*
X143947380Y-76604333D01*
X143995000Y-76509095D01*
X144042619Y-76461476D01*
X144137857Y-76413857D01*
X144328333Y-76366238D01*
X144566428Y-76366238D01*
X144756904Y-76413857D01*
X144852142Y-76461476D01*
X144899761Y-76509095D01*
X144947380Y-76604333D01*
X144947380Y-76699571D01*
X144899761Y-76794809D01*
X144852142Y-76842428D01*
X144756904Y-76890047D01*
X144566428Y-76937666D01*
X144328333Y-76937666D01*
X144137857Y-76890047D01*
X144042619Y-76842428D01*
X143995000Y-76794809D01*
X143947380Y-76699571D01*
X143947380Y-75747190D02*
X143947380Y-75651952D01*
X143995000Y-75556714D01*
X144042619Y-75509095D01*
X144137857Y-75461476D01*
X144328333Y-75413857D01*
X144566428Y-75413857D01*
X144756904Y-75461476D01*
X144852142Y-75509095D01*
X144899761Y-75556714D01*
X144947380Y-75651952D01*
X144947380Y-75747190D01*
X144899761Y-75842428D01*
X144852142Y-75890047D01*
X144756904Y-75937666D01*
X144566428Y-75985285D01*
X144328333Y-75985285D01*
X144137857Y-75937666D01*
X144042619Y-75890047D01*
X143995000Y-75842428D01*
X143947380Y-75747190D01*
X144280714Y-74985285D02*
X144947380Y-74985285D01*
X144375952Y-74985285D02*
X144328333Y-74937666D01*
X144280714Y-74842428D01*
X144280714Y-74699571D01*
X144328333Y-74604333D01*
X144423571Y-74556714D01*
X144947380Y-74556714D01*
X144423571Y-73747190D02*
X144423571Y-74080523D01*
X144947380Y-74080523D02*
X143947380Y-74080523D01*
X143947380Y-73604333D01*
D12*
X143102142Y-75963857D02*
X143116428Y-75978142D01*
X143130714Y-76021000D01*
X143130714Y-76049571D01*
X143116428Y-76092428D01*
X143087857Y-76121000D01*
X143059285Y-76135285D01*
X143002142Y-76149571D01*
X142959285Y-76149571D01*
X142902142Y-76135285D01*
X142873571Y-76121000D01*
X142845000Y-76092428D01*
X142830714Y-76049571D01*
X142830714Y-76021000D01*
X142845000Y-75978142D01*
X142859285Y-75963857D01*
X142830714Y-75863857D02*
X142830714Y-75678142D01*
X142945000Y-75778142D01*
X142945000Y-75735285D01*
X142959285Y-75706714D01*
X142973571Y-75692428D01*
X143002142Y-75678142D01*
X143073571Y-75678142D01*
X143102142Y-75692428D01*
X143116428Y-75706714D01*
X143130714Y-75735285D01*
X143130714Y-75821000D01*
X143116428Y-75849571D01*
X143102142Y-75863857D01*
X143130714Y-75535285D02*
X143130714Y-75478142D01*
X143116428Y-75449571D01*
X143102142Y-75435285D01*
X143059285Y-75406714D01*
X143002142Y-75392428D01*
X142887857Y-75392428D01*
X142859285Y-75406714D01*
X142845000Y-75421000D01*
X142830714Y-75449571D01*
X142830714Y-75506714D01*
X142845000Y-75535285D01*
X142859285Y-75549571D01*
X142887857Y-75563857D01*
X142959285Y-75563857D01*
X142987857Y-75549571D01*
X143002142Y-75535285D01*
X143016428Y-75506714D01*
X143016428Y-75449571D01*
X143002142Y-75421000D01*
X142987857Y-75406714D01*
X142959285Y-75392428D01*
D11*
X147741380Y-77318619D02*
X147741380Y-77890047D01*
X147741380Y-77604333D02*
X146741380Y-77604333D01*
X146884238Y-77699571D01*
X146979476Y-77794809D01*
X147027095Y-77890047D01*
X146741380Y-76699571D02*
X146741380Y-76604333D01*
X146789000Y-76509095D01*
X146836619Y-76461476D01*
X146931857Y-76413857D01*
X147122333Y-76366238D01*
X147360428Y-76366238D01*
X147550904Y-76413857D01*
X147646142Y-76461476D01*
X147693761Y-76509095D01*
X147741380Y-76604333D01*
X147741380Y-76699571D01*
X147693761Y-76794809D01*
X147646142Y-76842428D01*
X147550904Y-76890047D01*
X147360428Y-76937666D01*
X147122333Y-76937666D01*
X146931857Y-76890047D01*
X146836619Y-76842428D01*
X146789000Y-76794809D01*
X146741380Y-76699571D01*
X146741380Y-75747190D02*
X146741380Y-75651952D01*
X146789000Y-75556714D01*
X146836619Y-75509095D01*
X146931857Y-75461476D01*
X147122333Y-75413857D01*
X147360428Y-75413857D01*
X147550904Y-75461476D01*
X147646142Y-75509095D01*
X147693761Y-75556714D01*
X147741380Y-75651952D01*
X147741380Y-75747190D01*
X147693761Y-75842428D01*
X147646142Y-75890047D01*
X147550904Y-75937666D01*
X147360428Y-75985285D01*
X147122333Y-75985285D01*
X146931857Y-75937666D01*
X146836619Y-75890047D01*
X146789000Y-75842428D01*
X146741380Y-75747190D01*
X147074714Y-74985285D02*
X147741380Y-74985285D01*
X147169952Y-74985285D02*
X147122333Y-74937666D01*
X147074714Y-74842428D01*
X147074714Y-74699571D01*
X147122333Y-74604333D01*
X147217571Y-74556714D01*
X147741380Y-74556714D01*
X147217571Y-73747190D02*
X147217571Y-74080523D01*
X147741380Y-74080523D02*
X146741380Y-74080523D01*
X146741380Y-73604333D01*
D12*
X145896142Y-75963857D02*
X145910428Y-75978142D01*
X145924714Y-76021000D01*
X145924714Y-76049571D01*
X145910428Y-76092428D01*
X145881857Y-76121000D01*
X145853285Y-76135285D01*
X145796142Y-76149571D01*
X145753285Y-76149571D01*
X145696142Y-76135285D01*
X145667571Y-76121000D01*
X145639000Y-76092428D01*
X145624714Y-76049571D01*
X145624714Y-76021000D01*
X145639000Y-75978142D01*
X145653285Y-75963857D01*
X145724714Y-75706714D02*
X145924714Y-75706714D01*
X145610428Y-75778142D02*
X145824714Y-75849571D01*
X145824714Y-75663857D01*
X145624714Y-75492428D02*
X145624714Y-75463857D01*
X145639000Y-75435285D01*
X145653285Y-75421000D01*
X145681857Y-75406714D01*
X145739000Y-75392428D01*
X145810428Y-75392428D01*
X145867571Y-75406714D01*
X145896142Y-75421000D01*
X145910428Y-75435285D01*
X145924714Y-75463857D01*
X145924714Y-75492428D01*
X145910428Y-75521000D01*
X145896142Y-75535285D01*
X145867571Y-75549571D01*
X145810428Y-75563857D01*
X145739000Y-75563857D01*
X145681857Y-75549571D01*
X145653285Y-75535285D01*
X145639000Y-75521000D01*
X145624714Y-75492428D01*
D11*
X149416380Y-73369619D02*
X149416380Y-73941047D01*
X149416380Y-73655333D02*
X148416380Y-73655333D01*
X148559238Y-73750571D01*
X148654476Y-73845809D01*
X148702095Y-73941047D01*
X148416380Y-72750571D02*
X148416380Y-72655333D01*
X148464000Y-72560095D01*
X148511619Y-72512476D01*
X148606857Y-72464857D01*
X148797333Y-72417238D01*
X149035428Y-72417238D01*
X149225904Y-72464857D01*
X149321142Y-72512476D01*
X149368761Y-72560095D01*
X149416380Y-72655333D01*
X149416380Y-72750571D01*
X149368761Y-72845809D01*
X149321142Y-72893428D01*
X149225904Y-72941047D01*
X149035428Y-72988666D01*
X148797333Y-72988666D01*
X148606857Y-72941047D01*
X148511619Y-72893428D01*
X148464000Y-72845809D01*
X148416380Y-72750571D01*
X148416380Y-71798190D02*
X148416380Y-71702952D01*
X148464000Y-71607714D01*
X148511619Y-71560095D01*
X148606857Y-71512476D01*
X148797333Y-71464857D01*
X149035428Y-71464857D01*
X149225904Y-71512476D01*
X149321142Y-71560095D01*
X149368761Y-71607714D01*
X149416380Y-71702952D01*
X149416380Y-71798190D01*
X149368761Y-71893428D01*
X149321142Y-71941047D01*
X149225904Y-71988666D01*
X149035428Y-72036285D01*
X148797333Y-72036285D01*
X148606857Y-71988666D01*
X148511619Y-71941047D01*
X148464000Y-71893428D01*
X148416380Y-71798190D01*
X148749714Y-71036285D02*
X149416380Y-71036285D01*
X148844952Y-71036285D02*
X148797333Y-70988666D01*
X148749714Y-70893428D01*
X148749714Y-70750571D01*
X148797333Y-70655333D01*
X148892571Y-70607714D01*
X149416380Y-70607714D01*
X148892571Y-69798190D02*
X148892571Y-70131523D01*
X149416380Y-70131523D02*
X148416380Y-70131523D01*
X148416380Y-69655333D01*
D12*
X149071142Y-75963857D02*
X149085428Y-75978142D01*
X149099714Y-76021000D01*
X149099714Y-76049571D01*
X149085428Y-76092428D01*
X149056857Y-76121000D01*
X149028285Y-76135285D01*
X148971142Y-76149571D01*
X148928285Y-76149571D01*
X148871142Y-76135285D01*
X148842571Y-76121000D01*
X148814000Y-76092428D01*
X148799714Y-76049571D01*
X148799714Y-76021000D01*
X148814000Y-75978142D01*
X148828285Y-75963857D01*
X148899714Y-75706714D02*
X149099714Y-75706714D01*
X148785428Y-75778142D02*
X148999714Y-75849571D01*
X148999714Y-75663857D01*
X149099714Y-75392428D02*
X149099714Y-75563857D01*
X149099714Y-75478142D02*
X148799714Y-75478142D01*
X148842571Y-75506714D01*
X148871142Y-75535285D01*
X148885428Y-75563857D01*
D11*
X140756380Y-77318619D02*
X140756380Y-77890047D01*
X140756380Y-77604333D02*
X139756380Y-77604333D01*
X139899238Y-77699571D01*
X139994476Y-77794809D01*
X140042095Y-77890047D01*
X139756380Y-76699571D02*
X139756380Y-76604333D01*
X139804000Y-76509095D01*
X139851619Y-76461476D01*
X139946857Y-76413857D01*
X140137333Y-76366238D01*
X140375428Y-76366238D01*
X140565904Y-76413857D01*
X140661142Y-76461476D01*
X140708761Y-76509095D01*
X140756380Y-76604333D01*
X140756380Y-76699571D01*
X140708761Y-76794809D01*
X140661142Y-76842428D01*
X140565904Y-76890047D01*
X140375428Y-76937666D01*
X140137333Y-76937666D01*
X139946857Y-76890047D01*
X139851619Y-76842428D01*
X139804000Y-76794809D01*
X139756380Y-76699571D01*
X139756380Y-75747190D02*
X139756380Y-75651952D01*
X139804000Y-75556714D01*
X139851619Y-75509095D01*
X139946857Y-75461476D01*
X140137333Y-75413857D01*
X140375428Y-75413857D01*
X140565904Y-75461476D01*
X140661142Y-75509095D01*
X140708761Y-75556714D01*
X140756380Y-75651952D01*
X140756380Y-75747190D01*
X140708761Y-75842428D01*
X140661142Y-75890047D01*
X140565904Y-75937666D01*
X140375428Y-75985285D01*
X140137333Y-75985285D01*
X139946857Y-75937666D01*
X139851619Y-75890047D01*
X139804000Y-75842428D01*
X139756380Y-75747190D01*
X140089714Y-74985285D02*
X140756380Y-74985285D01*
X140184952Y-74985285D02*
X140137333Y-74937666D01*
X140089714Y-74842428D01*
X140089714Y-74699571D01*
X140137333Y-74604333D01*
X140232571Y-74556714D01*
X140756380Y-74556714D01*
X140232571Y-73747190D02*
X140232571Y-74080523D01*
X140756380Y-74080523D02*
X139756380Y-74080523D01*
X139756380Y-73604333D01*
D12*
X138911142Y-75963857D02*
X138925428Y-75978142D01*
X138939714Y-76021000D01*
X138939714Y-76049571D01*
X138925428Y-76092428D01*
X138896857Y-76121000D01*
X138868285Y-76135285D01*
X138811142Y-76149571D01*
X138768285Y-76149571D01*
X138711142Y-76135285D01*
X138682571Y-76121000D01*
X138654000Y-76092428D01*
X138639714Y-76049571D01*
X138639714Y-76021000D01*
X138654000Y-75978142D01*
X138668285Y-75963857D01*
X138739714Y-75706714D02*
X138939714Y-75706714D01*
X138625428Y-75778142D02*
X138839714Y-75849571D01*
X138839714Y-75663857D01*
X138668285Y-75563857D02*
X138654000Y-75549571D01*
X138639714Y-75521000D01*
X138639714Y-75449571D01*
X138654000Y-75421000D01*
X138668285Y-75406714D01*
X138696857Y-75392428D01*
X138725428Y-75392428D01*
X138768285Y-75406714D01*
X138939714Y-75578142D01*
X138939714Y-75392428D01*
D11*
X143550380Y-77318619D02*
X143550380Y-77890047D01*
X143550380Y-77604333D02*
X142550380Y-77604333D01*
X142693238Y-77699571D01*
X142788476Y-77794809D01*
X142836095Y-77890047D01*
X142550380Y-76699571D02*
X142550380Y-76604333D01*
X142598000Y-76509095D01*
X142645619Y-76461476D01*
X142740857Y-76413857D01*
X142931333Y-76366238D01*
X143169428Y-76366238D01*
X143359904Y-76413857D01*
X143455142Y-76461476D01*
X143502761Y-76509095D01*
X143550380Y-76604333D01*
X143550380Y-76699571D01*
X143502761Y-76794809D01*
X143455142Y-76842428D01*
X143359904Y-76890047D01*
X143169428Y-76937666D01*
X142931333Y-76937666D01*
X142740857Y-76890047D01*
X142645619Y-76842428D01*
X142598000Y-76794809D01*
X142550380Y-76699571D01*
X142550380Y-75747190D02*
X142550380Y-75651952D01*
X142598000Y-75556714D01*
X142645619Y-75509095D01*
X142740857Y-75461476D01*
X142931333Y-75413857D01*
X143169428Y-75413857D01*
X143359904Y-75461476D01*
X143455142Y-75509095D01*
X143502761Y-75556714D01*
X143550380Y-75651952D01*
X143550380Y-75747190D01*
X143502761Y-75842428D01*
X143455142Y-75890047D01*
X143359904Y-75937666D01*
X143169428Y-75985285D01*
X142931333Y-75985285D01*
X142740857Y-75937666D01*
X142645619Y-75890047D01*
X142598000Y-75842428D01*
X142550380Y-75747190D01*
X142883714Y-74985285D02*
X143550380Y-74985285D01*
X142978952Y-74985285D02*
X142931333Y-74937666D01*
X142883714Y-74842428D01*
X142883714Y-74699571D01*
X142931333Y-74604333D01*
X143026571Y-74556714D01*
X143550380Y-74556714D01*
X143026571Y-73747190D02*
X143026571Y-74080523D01*
X143550380Y-74080523D02*
X142550380Y-74080523D01*
X142550380Y-73604333D01*
D12*
X141705142Y-75963857D02*
X141719428Y-75978142D01*
X141733714Y-76021000D01*
X141733714Y-76049571D01*
X141719428Y-76092428D01*
X141690857Y-76121000D01*
X141662285Y-76135285D01*
X141605142Y-76149571D01*
X141562285Y-76149571D01*
X141505142Y-76135285D01*
X141476571Y-76121000D01*
X141448000Y-76092428D01*
X141433714Y-76049571D01*
X141433714Y-76021000D01*
X141448000Y-75978142D01*
X141462285Y-75963857D01*
X141533714Y-75706714D02*
X141733714Y-75706714D01*
X141419428Y-75778142D02*
X141633714Y-75849571D01*
X141633714Y-75663857D01*
X141433714Y-75578142D02*
X141433714Y-75392428D01*
X141548000Y-75492428D01*
X141548000Y-75449571D01*
X141562285Y-75421000D01*
X141576571Y-75406714D01*
X141605142Y-75392428D01*
X141676571Y-75392428D01*
X141705142Y-75406714D01*
X141719428Y-75421000D01*
X141733714Y-75449571D01*
X141733714Y-75535285D01*
X141719428Y-75563857D01*
X141705142Y-75578142D01*
D11*
X146344380Y-77318619D02*
X146344380Y-77890047D01*
X146344380Y-77604333D02*
X145344380Y-77604333D01*
X145487238Y-77699571D01*
X145582476Y-77794809D01*
X145630095Y-77890047D01*
X145344380Y-76699571D02*
X145344380Y-76604333D01*
X145392000Y-76509095D01*
X145439619Y-76461476D01*
X145534857Y-76413857D01*
X145725333Y-76366238D01*
X145963428Y-76366238D01*
X146153904Y-76413857D01*
X146249142Y-76461476D01*
X146296761Y-76509095D01*
X146344380Y-76604333D01*
X146344380Y-76699571D01*
X146296761Y-76794809D01*
X146249142Y-76842428D01*
X146153904Y-76890047D01*
X145963428Y-76937666D01*
X145725333Y-76937666D01*
X145534857Y-76890047D01*
X145439619Y-76842428D01*
X145392000Y-76794809D01*
X145344380Y-76699571D01*
X145344380Y-75747190D02*
X145344380Y-75651952D01*
X145392000Y-75556714D01*
X145439619Y-75509095D01*
X145534857Y-75461476D01*
X145725333Y-75413857D01*
X145963428Y-75413857D01*
X146153904Y-75461476D01*
X146249142Y-75509095D01*
X146296761Y-75556714D01*
X146344380Y-75651952D01*
X146344380Y-75747190D01*
X146296761Y-75842428D01*
X146249142Y-75890047D01*
X146153904Y-75937666D01*
X145963428Y-75985285D01*
X145725333Y-75985285D01*
X145534857Y-75937666D01*
X145439619Y-75890047D01*
X145392000Y-75842428D01*
X145344380Y-75747190D01*
X145677714Y-74985285D02*
X146344380Y-74985285D01*
X145772952Y-74985285D02*
X145725333Y-74937666D01*
X145677714Y-74842428D01*
X145677714Y-74699571D01*
X145725333Y-74604333D01*
X145820571Y-74556714D01*
X146344380Y-74556714D01*
X145820571Y-73747190D02*
X145820571Y-74080523D01*
X146344380Y-74080523D02*
X145344380Y-74080523D01*
X145344380Y-73604333D01*
D12*
X144499142Y-75963857D02*
X144513428Y-75978142D01*
X144527714Y-76021000D01*
X144527714Y-76049571D01*
X144513428Y-76092428D01*
X144484857Y-76121000D01*
X144456285Y-76135285D01*
X144399142Y-76149571D01*
X144356285Y-76149571D01*
X144299142Y-76135285D01*
X144270571Y-76121000D01*
X144242000Y-76092428D01*
X144227714Y-76049571D01*
X144227714Y-76021000D01*
X144242000Y-75978142D01*
X144256285Y-75963857D01*
X144327714Y-75706714D02*
X144527714Y-75706714D01*
X144213428Y-75778142D02*
X144427714Y-75849571D01*
X144427714Y-75663857D01*
X144327714Y-75421000D02*
X144527714Y-75421000D01*
X144213428Y-75492428D02*
X144427714Y-75563857D01*
X144427714Y-75378142D01*
D11*
X148019380Y-73611619D02*
X148019380Y-74183047D01*
X148019380Y-73897333D02*
X147019380Y-73897333D01*
X147162238Y-73992571D01*
X147257476Y-74087809D01*
X147305095Y-74183047D01*
X147019380Y-72992571D02*
X147019380Y-72897333D01*
X147067000Y-72802095D01*
X147114619Y-72754476D01*
X147209857Y-72706857D01*
X147400333Y-72659238D01*
X147638428Y-72659238D01*
X147828904Y-72706857D01*
X147924142Y-72754476D01*
X147971761Y-72802095D01*
X148019380Y-72897333D01*
X148019380Y-72992571D01*
X147971761Y-73087809D01*
X147924142Y-73135428D01*
X147828904Y-73183047D01*
X147638428Y-73230666D01*
X147400333Y-73230666D01*
X147209857Y-73183047D01*
X147114619Y-73135428D01*
X147067000Y-73087809D01*
X147019380Y-72992571D01*
X147019380Y-72040190D02*
X147019380Y-71944952D01*
X147067000Y-71849714D01*
X147114619Y-71802095D01*
X147209857Y-71754476D01*
X147400333Y-71706857D01*
X147638428Y-71706857D01*
X147828904Y-71754476D01*
X147924142Y-71802095D01*
X147971761Y-71849714D01*
X148019380Y-71944952D01*
X148019380Y-72040190D01*
X147971761Y-72135428D01*
X147924142Y-72183047D01*
X147828904Y-72230666D01*
X147638428Y-72278285D01*
X147400333Y-72278285D01*
X147209857Y-72230666D01*
X147114619Y-72183047D01*
X147067000Y-72135428D01*
X147019380Y-72040190D01*
X147352714Y-71278285D02*
X148019380Y-71278285D01*
X147447952Y-71278285D02*
X147400333Y-71230666D01*
X147352714Y-71135428D01*
X147352714Y-70992571D01*
X147400333Y-70897333D01*
X147495571Y-70849714D01*
X148019380Y-70849714D01*
X147495571Y-70040190D02*
X147495571Y-70373523D01*
X148019380Y-70373523D02*
X147019380Y-70373523D01*
X147019380Y-69897333D01*
D12*
X147674142Y-75951857D02*
X147688428Y-75966142D01*
X147702714Y-76009000D01*
X147702714Y-76037571D01*
X147688428Y-76080428D01*
X147659857Y-76109000D01*
X147631285Y-76123285D01*
X147574142Y-76137571D01*
X147531285Y-76137571D01*
X147474142Y-76123285D01*
X147445571Y-76109000D01*
X147417000Y-76080428D01*
X147402714Y-76037571D01*
X147402714Y-76009000D01*
X147417000Y-75966142D01*
X147431285Y-75951857D01*
X147502714Y-75694714D02*
X147702714Y-75694714D01*
X147388428Y-75766142D02*
X147602714Y-75837571D01*
X147602714Y-75651857D01*
X147402714Y-75394714D02*
X147402714Y-75537571D01*
X147545571Y-75551857D01*
X147531285Y-75537571D01*
X147517000Y-75509000D01*
X147517000Y-75437571D01*
X147531285Y-75409000D01*
X147545571Y-75394714D01*
X147574142Y-75380428D01*
X147645571Y-75380428D01*
X147674142Y-75394714D01*
X147688428Y-75409000D01*
X147702714Y-75437571D01*
X147702714Y-75509000D01*
X147688428Y-75537571D01*
X147674142Y-75551857D01*
M02*
