G04 #@! TF.FileFunction,Paste,Top*
%FSLAX46Y46*%
G04 Gerber Fmt 4.6, Leading zero omitted, Abs format (unit mm)*
G04 Created by KiCad (PCBNEW 4.0.7+dfsg1-1) date Tue Apr  3 21:34:01 2018*
%MOMM*%
%LPD*%
G01*
G04 APERTURE LIST*
%ADD10C,0.100000*%
%ADD11R,0.500000X0.500000*%
%ADD12R,0.900000X1.200000*%
%ADD13R,2.100000X1.600000*%
%ADD14R,1.900000X1.900000*%
%ADD15R,0.400000X1.350000*%
%ADD16R,1.800000X1.900000*%
%ADD17O,0.850000X0.300000*%
%ADD18O,0.300000X0.850000*%
%ADD19R,1.005000X1.005000*%
%ADD20R,1.550000X1.300000*%
%ADD21C,0.350000*%
%ADD22R,1.200000X1.200000*%
%ADD23R,2.800000X2.000000*%
%ADD24R,2.800000X2.200000*%
%ADD25R,2.800000X2.800000*%
%ADD26R,0.230000X1.580000*%
%ADD27R,0.700000X1.500000*%
%ADD28R,1.450000X0.900000*%
%ADD29R,1.450000X2.000000*%
%ADD30R,2.200000X1.800000*%
%ADD31R,0.560000X0.900000*%
%ADD32R,0.900000X0.500000*%
%ADD33R,0.750000X0.800000*%
G04 APERTURE END LIST*
D10*
D11*
X182675150Y-111637626D03*
D12*
X128390000Y-108580000D03*
X128390000Y-110780000D03*
X130930000Y-110780000D03*
X130930000Y-108580000D03*
D13*
X114980000Y-65875000D03*
X108780000Y-65875000D03*
D14*
X113080000Y-63325000D03*
X110680000Y-63325000D03*
D15*
X113180000Y-66000000D03*
X112530000Y-66000000D03*
X111880000Y-66000000D03*
X111230000Y-66000000D03*
X110580000Y-66000000D03*
D16*
X115680000Y-63325000D03*
X108080000Y-63325000D03*
D13*
X173400000Y-65875000D03*
X167200000Y-65875000D03*
D14*
X171500000Y-63325000D03*
X169100000Y-63325000D03*
D15*
X171600000Y-66000000D03*
X170950000Y-66000000D03*
X170300000Y-66000000D03*
X169650000Y-66000000D03*
X169000000Y-66000000D03*
D16*
X174100000Y-63325000D03*
X166500000Y-63325000D03*
D17*
X179735000Y-101655000D03*
X179735000Y-101155000D03*
X179735000Y-100655000D03*
X179735000Y-100155000D03*
X179735000Y-99655000D03*
X179735000Y-99155000D03*
X179735000Y-98655000D03*
D18*
X178785000Y-97705000D03*
X178285000Y-97705000D03*
X177785000Y-97705000D03*
X177285000Y-97705000D03*
X176785000Y-97705000D03*
X176285000Y-97705000D03*
X175785000Y-97705000D03*
D17*
X174835000Y-98655000D03*
X174835000Y-99155000D03*
X174835000Y-99655000D03*
X174835000Y-100155000D03*
X174835000Y-100655000D03*
X174835000Y-101155000D03*
X174835000Y-101655000D03*
D18*
X175785000Y-102605000D03*
X176285000Y-102605000D03*
X176785000Y-102605000D03*
X177285000Y-102605000D03*
X177785000Y-102605000D03*
X178285000Y-102605000D03*
X178785000Y-102605000D03*
D19*
X176447500Y-99317500D03*
X176447500Y-100992500D03*
X178122500Y-99317500D03*
X178122500Y-100992500D03*
D20*
X175550000Y-71870000D03*
X175550000Y-76370000D03*
X167590000Y-76370000D03*
X167590000Y-71870000D03*
X101550000Y-91610000D03*
X101550000Y-87110000D03*
X109510000Y-87110000D03*
X109510000Y-91610000D03*
X112980000Y-91610000D03*
X112980000Y-87110000D03*
X120940000Y-87110000D03*
X120940000Y-91610000D03*
X156160000Y-101770000D03*
X156160000Y-97270000D03*
X164120000Y-97270000D03*
X164120000Y-101770000D03*
X164120000Y-106160000D03*
X164120000Y-110660000D03*
X156160000Y-110660000D03*
X156160000Y-106160000D03*
X152690000Y-106160000D03*
X152690000Y-110660000D03*
X144730000Y-110660000D03*
X144730000Y-106160000D03*
X175550000Y-106160000D03*
X175550000Y-110660000D03*
X167590000Y-110660000D03*
X167590000Y-106160000D03*
D21*
X131680000Y-80200000D03*
X132480000Y-80200000D03*
X133280000Y-80200000D03*
X134080000Y-80200000D03*
X134880000Y-80200000D03*
X135680000Y-80200000D03*
X136480000Y-80200000D03*
X137280000Y-80200000D03*
X138080000Y-80200000D03*
X138880000Y-80200000D03*
X139680000Y-80200000D03*
X140480000Y-80200000D03*
X141280000Y-80200000D03*
X142080000Y-80200000D03*
X142880000Y-80200000D03*
X143680000Y-80200000D03*
X144480000Y-80200000D03*
X145280000Y-80200000D03*
X130880000Y-81000000D03*
X131680000Y-81000000D03*
X132480000Y-81000000D03*
X133280000Y-81000000D03*
X134080000Y-81000000D03*
X134880000Y-81000000D03*
X135680000Y-81000000D03*
X136480000Y-81000000D03*
X137280000Y-81000000D03*
X138080000Y-81000000D03*
X138880000Y-81000000D03*
X139680000Y-81000000D03*
X140480000Y-81000000D03*
X141280000Y-81000000D03*
X142080000Y-81000000D03*
X142880000Y-81000000D03*
X143680000Y-81000000D03*
X144480000Y-81000000D03*
X145280000Y-81000000D03*
X146080000Y-81000000D03*
X130880000Y-81800000D03*
X131680000Y-81800000D03*
X132480000Y-81800000D03*
X133280000Y-81800000D03*
X134080000Y-81800000D03*
X134880000Y-81800000D03*
X135680000Y-81800000D03*
X136480000Y-81800000D03*
X137280000Y-81800000D03*
X138080000Y-81800000D03*
X138880000Y-81800000D03*
X139680000Y-81800000D03*
X140480000Y-81800000D03*
X141280000Y-81800000D03*
X142080000Y-81800000D03*
X142880000Y-81800000D03*
X143680000Y-81800000D03*
X144480000Y-81800000D03*
X145280000Y-81800000D03*
X146080000Y-81800000D03*
X130880000Y-82600000D03*
X131680000Y-82600000D03*
X132480000Y-82600000D03*
X133280000Y-82600000D03*
X134080000Y-82600000D03*
X134880000Y-82600000D03*
X135680000Y-82600000D03*
X136480000Y-82600000D03*
X137280000Y-82600000D03*
X138080000Y-82600000D03*
X138880000Y-82600000D03*
X139680000Y-82600000D03*
X140480000Y-82600000D03*
X141280000Y-82600000D03*
X142080000Y-82600000D03*
X142880000Y-82600000D03*
X143680000Y-82600000D03*
X144480000Y-82600000D03*
X145280000Y-82600000D03*
X146080000Y-82600000D03*
X130880000Y-83400000D03*
X131680000Y-83400000D03*
X132480000Y-83400000D03*
X133280000Y-83400000D03*
X134080000Y-83400000D03*
X134880000Y-83400000D03*
X135680000Y-83400000D03*
X136480000Y-83400000D03*
X137280000Y-83400000D03*
X138080000Y-83400000D03*
X138880000Y-83400000D03*
X139680000Y-83400000D03*
X140480000Y-83400000D03*
X141280000Y-83400000D03*
X142080000Y-83400000D03*
X142880000Y-83400000D03*
X143680000Y-83400000D03*
X144480000Y-83400000D03*
X145280000Y-83400000D03*
X146080000Y-83400000D03*
X130880000Y-84200000D03*
X131680000Y-84200000D03*
X132480000Y-84200000D03*
X133280000Y-84200000D03*
X134080000Y-84200000D03*
X134880000Y-84200000D03*
X135680000Y-84200000D03*
X136480000Y-84200000D03*
X137280000Y-84200000D03*
X138080000Y-84200000D03*
X138880000Y-84200000D03*
X139680000Y-84200000D03*
X140480000Y-84200000D03*
X141280000Y-84200000D03*
X142080000Y-84200000D03*
X142880000Y-84200000D03*
X143680000Y-84200000D03*
X144480000Y-84200000D03*
X145280000Y-84200000D03*
X146080000Y-84200000D03*
X130880000Y-85000000D03*
X131680000Y-85000000D03*
X132480000Y-85000000D03*
X133280000Y-85000000D03*
X134080000Y-85000000D03*
X134880000Y-85000000D03*
X135680000Y-85000000D03*
X136480000Y-85000000D03*
X137280000Y-85000000D03*
X138080000Y-85000000D03*
X138880000Y-85000000D03*
X139680000Y-85000000D03*
X140480000Y-85000000D03*
X141280000Y-85000000D03*
X142080000Y-85000000D03*
X142880000Y-85000000D03*
X143680000Y-85000000D03*
X144480000Y-85000000D03*
X145280000Y-85000000D03*
X146080000Y-85000000D03*
X130880000Y-85800000D03*
X131680000Y-85800000D03*
X132480000Y-85800000D03*
X133280000Y-85800000D03*
X134080000Y-85800000D03*
X134880000Y-85800000D03*
X135680000Y-85800000D03*
X136480000Y-85800000D03*
X137280000Y-85800000D03*
X138080000Y-85800000D03*
X138880000Y-85800000D03*
X139680000Y-85800000D03*
X140480000Y-85800000D03*
X141280000Y-85800000D03*
X142080000Y-85800000D03*
X142880000Y-85800000D03*
X143680000Y-85800000D03*
X144480000Y-85800000D03*
X145280000Y-85800000D03*
X146080000Y-85800000D03*
X130880000Y-86600000D03*
X131680000Y-86600000D03*
X132480000Y-86600000D03*
X133280000Y-86600000D03*
X134080000Y-86600000D03*
X134880000Y-86600000D03*
X135680000Y-86600000D03*
X136480000Y-86600000D03*
X137280000Y-86600000D03*
X138080000Y-86600000D03*
X138880000Y-86600000D03*
X139680000Y-86600000D03*
X140480000Y-86600000D03*
X141280000Y-86600000D03*
X142080000Y-86600000D03*
X142880000Y-86600000D03*
X143680000Y-86600000D03*
X144480000Y-86600000D03*
X145280000Y-86600000D03*
X146080000Y-86600000D03*
X130880000Y-87400000D03*
X131680000Y-87400000D03*
X132480000Y-87400000D03*
X133280000Y-87400000D03*
X134080000Y-87400000D03*
X134880000Y-87400000D03*
X135680000Y-87400000D03*
X136480000Y-87400000D03*
X137280000Y-87400000D03*
X138080000Y-87400000D03*
X138880000Y-87400000D03*
X139680000Y-87400000D03*
X140480000Y-87400000D03*
X141280000Y-87400000D03*
X142080000Y-87400000D03*
X142880000Y-87400000D03*
X143680000Y-87400000D03*
X144480000Y-87400000D03*
X145280000Y-87400000D03*
X146080000Y-87400000D03*
X130880000Y-88200000D03*
X131680000Y-88200000D03*
X132480000Y-88200000D03*
X133280000Y-88200000D03*
X134080000Y-88200000D03*
X134880000Y-88200000D03*
X135680000Y-88200000D03*
X136480000Y-88200000D03*
X137280000Y-88200000D03*
X138080000Y-88200000D03*
X138880000Y-88200000D03*
X139680000Y-88200000D03*
X140480000Y-88200000D03*
X141280000Y-88200000D03*
X142080000Y-88200000D03*
X142880000Y-88200000D03*
X143680000Y-88200000D03*
X144480000Y-88200000D03*
X145280000Y-88200000D03*
X146080000Y-88200000D03*
X130880000Y-89000000D03*
X131680000Y-89000000D03*
X132480000Y-89000000D03*
X133280000Y-89000000D03*
X134080000Y-89000000D03*
X134880000Y-89000000D03*
X135680000Y-89000000D03*
X136480000Y-89000000D03*
X137280000Y-89000000D03*
X138080000Y-89000000D03*
X138880000Y-89000000D03*
X139680000Y-89000000D03*
X140480000Y-89000000D03*
X141280000Y-89000000D03*
X142080000Y-89000000D03*
X142880000Y-89000000D03*
X143680000Y-89000000D03*
X144480000Y-89000000D03*
X145280000Y-89000000D03*
X146080000Y-89000000D03*
X130880000Y-89800000D03*
X131680000Y-89800000D03*
X132480000Y-89800000D03*
X133280000Y-89800000D03*
X134080000Y-89800000D03*
X134880000Y-89800000D03*
X135680000Y-89800000D03*
X136480000Y-89800000D03*
X137280000Y-89800000D03*
X138080000Y-89800000D03*
X138880000Y-89800000D03*
X139680000Y-89800000D03*
X140480000Y-89800000D03*
X141280000Y-89800000D03*
X142080000Y-89800000D03*
X142880000Y-89800000D03*
X143680000Y-89800000D03*
X144480000Y-89800000D03*
X145280000Y-89800000D03*
X146080000Y-89800000D03*
X130880000Y-90600000D03*
X131680000Y-90600000D03*
X132480000Y-90600000D03*
X133280000Y-90600000D03*
X134080000Y-90600000D03*
X134880000Y-90600000D03*
X135680000Y-90600000D03*
X136480000Y-90600000D03*
X137280000Y-90600000D03*
X138080000Y-90600000D03*
X138880000Y-90600000D03*
X139680000Y-90600000D03*
X140480000Y-90600000D03*
X141280000Y-90600000D03*
X142080000Y-90600000D03*
X142880000Y-90600000D03*
X143680000Y-90600000D03*
X144480000Y-90600000D03*
X145280000Y-90600000D03*
X146080000Y-90600000D03*
X130880000Y-91400000D03*
X131680000Y-91400000D03*
X132480000Y-91400000D03*
X133280000Y-91400000D03*
X134080000Y-91400000D03*
X142880000Y-91400000D03*
X143680000Y-91400000D03*
X144480000Y-91400000D03*
X145280000Y-91400000D03*
X146080000Y-91400000D03*
X130880000Y-92200000D03*
X131680000Y-92200000D03*
X132480000Y-92200000D03*
X133280000Y-92200000D03*
X134080000Y-92200000D03*
X134880000Y-92200000D03*
X135680000Y-92200000D03*
X136480000Y-92200000D03*
X137280000Y-92200000D03*
X138080000Y-92200000D03*
X138880000Y-92200000D03*
X139680000Y-92200000D03*
X140480000Y-92200000D03*
X141280000Y-92200000D03*
X142080000Y-92200000D03*
X142880000Y-92200000D03*
X143680000Y-92200000D03*
X144480000Y-92200000D03*
X145280000Y-92200000D03*
X146080000Y-92200000D03*
X130880000Y-93000000D03*
X131680000Y-93000000D03*
X132480000Y-93000000D03*
X133280000Y-93000000D03*
X134080000Y-93000000D03*
X134880000Y-93000000D03*
X135680000Y-93000000D03*
X136480000Y-93000000D03*
X137280000Y-93000000D03*
X138080000Y-93000000D03*
X138880000Y-93000000D03*
X139680000Y-93000000D03*
X140480000Y-93000000D03*
X141280000Y-93000000D03*
X142080000Y-93000000D03*
X142880000Y-93000000D03*
X143680000Y-93000000D03*
X144480000Y-93000000D03*
X145280000Y-93000000D03*
X146080000Y-93000000D03*
X130880000Y-93800000D03*
X131680000Y-93800000D03*
X132480000Y-93800000D03*
X133280000Y-93800000D03*
X134080000Y-93800000D03*
X134880000Y-93800000D03*
X135680000Y-93800000D03*
X136480000Y-93800000D03*
X137280000Y-93800000D03*
X138080000Y-93800000D03*
X138880000Y-93800000D03*
X139680000Y-93800000D03*
X140480000Y-93800000D03*
X141280000Y-93800000D03*
X142080000Y-93800000D03*
X142880000Y-93800000D03*
X143680000Y-93800000D03*
X144480000Y-93800000D03*
X145280000Y-93800000D03*
X146080000Y-93800000D03*
X130880000Y-94600000D03*
X131680000Y-94600000D03*
X132480000Y-94600000D03*
X133280000Y-94600000D03*
X134080000Y-94600000D03*
X134880000Y-94600000D03*
X135680000Y-94600000D03*
X136480000Y-94600000D03*
X137280000Y-94600000D03*
X138080000Y-94600000D03*
X138880000Y-94600000D03*
X139680000Y-94600000D03*
X140480000Y-94600000D03*
X141280000Y-94600000D03*
X142080000Y-94600000D03*
X142880000Y-94600000D03*
X143680000Y-94600000D03*
X144480000Y-94600000D03*
X145280000Y-94600000D03*
X146080000Y-94600000D03*
X131680000Y-95400000D03*
X132480000Y-95400000D03*
X134080000Y-95400000D03*
X134880000Y-95400000D03*
X135680000Y-95400000D03*
X136480000Y-95400000D03*
X138880000Y-95400000D03*
X139680000Y-95400000D03*
X141280000Y-95400000D03*
X142080000Y-95400000D03*
X142880000Y-95400000D03*
X143680000Y-95400000D03*
X145280000Y-95400000D03*
D22*
X125850000Y-104770000D03*
X125850000Y-106970000D03*
D12*
X125850000Y-108580000D03*
X125850000Y-110780000D03*
D22*
X128390000Y-104770000D03*
X128390000Y-106970000D03*
X120770000Y-80935000D03*
X120770000Y-78735000D03*
X118230000Y-80935000D03*
X118230000Y-78735000D03*
X115690000Y-80935000D03*
X115690000Y-78735000D03*
X113150000Y-80935000D03*
X113150000Y-78735000D03*
X110610000Y-80935000D03*
X110610000Y-78735000D03*
X108070000Y-80935000D03*
X108070000Y-78735000D03*
X105530000Y-80935000D03*
X105530000Y-78735000D03*
X102990000Y-80935000D03*
X102990000Y-78735000D03*
X130930000Y-104770000D03*
X130930000Y-106970000D03*
D23*
X120668000Y-62618000D03*
D24*
X120668000Y-65418000D03*
D25*
X120668000Y-74818000D03*
X125218000Y-78918000D03*
D24*
X128268000Y-67318000D03*
D23*
X128268000Y-64518000D03*
D26*
X140480000Y-72500000D03*
X140980000Y-72500000D03*
X141480000Y-72500000D03*
X141980000Y-72500000D03*
X142480000Y-72500000D03*
X142980000Y-72500000D03*
X143480000Y-72500000D03*
X143980000Y-72500000D03*
X144480000Y-72500000D03*
X144980000Y-72500000D03*
X145480000Y-72500000D03*
X145980000Y-72500000D03*
X146480000Y-72500000D03*
X146980000Y-72500000D03*
X147480000Y-72500000D03*
X147980000Y-72500000D03*
X148480000Y-72500000D03*
X148980000Y-72500000D03*
X149480000Y-72500000D03*
D27*
X111850000Y-101750000D03*
X112950000Y-101750000D03*
X114050000Y-101750000D03*
X115150000Y-101750000D03*
X116250000Y-101750000D03*
X117350000Y-101750000D03*
X118450000Y-101750000D03*
X119550000Y-101750000D03*
D28*
X108175000Y-97450000D03*
X121925000Y-109150000D03*
D29*
X121925000Y-99150000D03*
X108175000Y-99150000D03*
X108175000Y-107450000D03*
X121925000Y-107450000D03*
D30*
X108040000Y-69220000D03*
X102960000Y-69220000D03*
X102960000Y-73620000D03*
X108040000Y-73620000D03*
D31*
X175493000Y-82270000D03*
X154693000Y-93330000D03*
X155493000Y-93330000D03*
X156293000Y-93330000D03*
X157093000Y-93330000D03*
X157893000Y-93330000D03*
X158693000Y-93330000D03*
X159493000Y-93330000D03*
X160293000Y-93330000D03*
X161093000Y-93330000D03*
X161893000Y-93330000D03*
X162693000Y-93330000D03*
X163493000Y-93330000D03*
X164293000Y-93330000D03*
X165093000Y-93330000D03*
X165893000Y-93330000D03*
X166693000Y-93330000D03*
X167493000Y-93330000D03*
X168293000Y-93330000D03*
X169093000Y-93330000D03*
X169893000Y-93330000D03*
X170693000Y-93330000D03*
X171493000Y-93330000D03*
X172293000Y-93330000D03*
X173093000Y-93330000D03*
X173893000Y-93330000D03*
X174693000Y-93330000D03*
X175493000Y-93330000D03*
X174693000Y-82270000D03*
X173893000Y-82270000D03*
X173093000Y-82270000D03*
X172293000Y-82270000D03*
X171493000Y-82270000D03*
X170693000Y-82270000D03*
X169893000Y-82270000D03*
X169093000Y-82270000D03*
X168293000Y-82270000D03*
X167493000Y-82270000D03*
X166693000Y-82270000D03*
X165893000Y-82270000D03*
X165093000Y-82270000D03*
X164293000Y-82270000D03*
X163493000Y-82270000D03*
X162693000Y-82270000D03*
X161893000Y-82270000D03*
X161093000Y-82270000D03*
X160293000Y-82270000D03*
X159493000Y-82270000D03*
X158693000Y-82270000D03*
X157893000Y-82270000D03*
X157093000Y-82270000D03*
X156293000Y-82270000D03*
X155493000Y-82270000D03*
X154693000Y-82270000D03*
D32*
X120770000Y-83252000D03*
X120770000Y-81752000D03*
X118230000Y-83252000D03*
X118230000Y-81752000D03*
X115690000Y-83252000D03*
X115690000Y-81752000D03*
X113150000Y-83252000D03*
X113150000Y-81752000D03*
X110610000Y-83252000D03*
X110610000Y-81752000D03*
X108070000Y-83252000D03*
X108070000Y-81752000D03*
X105530000Y-83252000D03*
X105530000Y-81752000D03*
X102990000Y-83252000D03*
X102990000Y-81752000D03*
D33*
X150361000Y-75021000D03*
X150361000Y-76521000D03*
X151758000Y-75021000D03*
X151758000Y-76521000D03*
X140201000Y-75021000D03*
X140201000Y-76521000D03*
X142995000Y-75021000D03*
X142995000Y-76521000D03*
X145789000Y-75021000D03*
X145789000Y-76521000D03*
X148964000Y-75021000D03*
X148964000Y-76521000D03*
X138804000Y-75021000D03*
X138804000Y-76521000D03*
X141598000Y-75021000D03*
X141598000Y-76521000D03*
X144392000Y-75021000D03*
X144392000Y-76521000D03*
X147567000Y-75009000D03*
X147567000Y-76509000D03*
M02*
