G04 #@! TF.FileFunction,Copper,L3,Inr,Signal*
%FSLAX46Y46*%
G04 Gerber Fmt 4.6, Leading zero omitted, Abs format (unit mm)*
G04 Created by KiCad (PCBNEW 4.0.7+dfsg1-1) date Fri Feb  2 20:30:48 2018*
%MOMM*%
%LPD*%
G01*
G04 APERTURE LIST*
%ADD10C,0.100000*%
%ADD11O,1.727200X1.727200*%
%ADD12R,1.727200X1.727200*%
%ADD13C,5.500000*%
%ADD14R,1.727200X2.032000*%
%ADD15O,1.727200X2.032000*%
%ADD16O,1.300000X2.700000*%
%ADD17O,1.300000X2.300000*%
%ADD18C,0.400000*%
%ADD19C,1.000000*%
%ADD20C,0.600000*%
%ADD21C,0.454000*%
%ADD22C,0.800000*%
%ADD23C,0.700000*%
%ADD24C,0.300000*%
%ADD25C,0.200000*%
%ADD26C,1.000000*%
%ADD27C,0.190000*%
%ADD28C,0.140000*%
%ADD29C,0.127000*%
G04 APERTURE END LIST*
D10*
D11*
X97910000Y-62690000D03*
X95370000Y-62690000D03*
D12*
X97910000Y-65230000D03*
X95370000Y-65230000D03*
D11*
X97910000Y-67770000D03*
X95370000Y-67770000D03*
X97910000Y-70310000D03*
X95370000Y-70310000D03*
X97910000Y-72850000D03*
X95370000Y-72850000D03*
X97910000Y-75390000D03*
X95370000Y-75390000D03*
X97910000Y-77930000D03*
X95370000Y-77930000D03*
X97910000Y-80470000D03*
X95370000Y-80470000D03*
X97910000Y-83010000D03*
X95370000Y-83010000D03*
X97910000Y-85550000D03*
X95370000Y-85550000D03*
D12*
X97910000Y-88090000D03*
X95370000Y-88090000D03*
D11*
X97910000Y-90630000D03*
X95370000Y-90630000D03*
X97910000Y-93170000D03*
X95370000Y-93170000D03*
X97910000Y-95710000D03*
X95370000Y-95710000D03*
X97910000Y-98250000D03*
X95370000Y-98250000D03*
X97910000Y-100790000D03*
X95370000Y-100790000D03*
X97910000Y-103330000D03*
X95370000Y-103330000D03*
X97910000Y-105870000D03*
X95370000Y-105870000D03*
D12*
X97910000Y-108410000D03*
X95370000Y-108410000D03*
D11*
X97910000Y-110950000D03*
X95370000Y-110950000D03*
X184270000Y-110950000D03*
X186810000Y-110950000D03*
D12*
X184270000Y-108410000D03*
X186810000Y-108410000D03*
D11*
X184270000Y-105870000D03*
X186810000Y-105870000D03*
X184270000Y-103330000D03*
X186810000Y-103330000D03*
X184270000Y-100790000D03*
X186810000Y-100790000D03*
X184270000Y-98250000D03*
X186810000Y-98250000D03*
X184270000Y-95710000D03*
X186810000Y-95710000D03*
X184270000Y-93170000D03*
X186810000Y-93170000D03*
X184270000Y-90630000D03*
X186810000Y-90630000D03*
X184270000Y-88090000D03*
X186810000Y-88090000D03*
D12*
X184270000Y-85550000D03*
X186810000Y-85550000D03*
D11*
X184270000Y-83010000D03*
X186810000Y-83010000D03*
X184270000Y-80470000D03*
X186810000Y-80470000D03*
X184270000Y-77930000D03*
X186810000Y-77930000D03*
X184270000Y-75390000D03*
X186810000Y-75390000D03*
X184270000Y-72850000D03*
X186810000Y-72850000D03*
X184270000Y-70310000D03*
X186810000Y-70310000D03*
X184270000Y-67770000D03*
X186810000Y-67770000D03*
D12*
X184270000Y-65230000D03*
X186810000Y-65230000D03*
D11*
X184270000Y-62690000D03*
X186810000Y-62690000D03*
D13*
X102990000Y-108410000D03*
X179190000Y-108410000D03*
X179190000Y-65230000D03*
X102990000Y-65230000D03*
D12*
X101720000Y-95456000D03*
D11*
X104260000Y-95456000D03*
D12*
X140455000Y-104600000D03*
D11*
X137915000Y-104600000D03*
X140455000Y-107140000D03*
X137915000Y-107140000D03*
X140455000Y-109680000D03*
X137915000Y-109680000D03*
D14*
X147440000Y-100790000D03*
D15*
X144900000Y-100790000D03*
X142360000Y-100790000D03*
X139820000Y-100790000D03*
X137280000Y-100790000D03*
X134740000Y-100790000D03*
X132200000Y-100790000D03*
D16*
X152280000Y-71550000D03*
X137680000Y-71550000D03*
D17*
X137680000Y-65500000D03*
X152280000Y-65500000D03*
D18*
X173856000Y-71538990D03*
D19*
X164947008Y-63194069D03*
X175494572Y-64322557D03*
D18*
X135342764Y-89381630D03*
X144103496Y-84660400D03*
D19*
X177658444Y-82281349D03*
D18*
X145680000Y-81405125D03*
X145691238Y-94166752D03*
X145759873Y-91010176D03*
D20*
X152525938Y-81463870D03*
D19*
X162956098Y-95078488D03*
X158539988Y-94868772D03*
D20*
X161075765Y-80992022D03*
X164882869Y-80938986D03*
X156262773Y-81349374D03*
X123437000Y-108972000D03*
D18*
X132871770Y-84533979D03*
X132862998Y-82124544D03*
X131278306Y-86213101D03*
X135281276Y-80583119D03*
X131279502Y-89407325D03*
X170309539Y-85441529D03*
X145672808Y-85396062D03*
X133216000Y-107465000D03*
X137680000Y-88600000D03*
X142480000Y-95000000D03*
X141680000Y-92600000D03*
X140836000Y-84534000D03*
X135284627Y-94985297D03*
X135288625Y-94225619D03*
X134455822Y-94267172D03*
X136095958Y-93369652D03*
D21*
X139264636Y-91615205D03*
D19*
X116880503Y-64802940D03*
X106974809Y-64953974D03*
D18*
X177285000Y-95710000D03*
X140880000Y-81400000D03*
X140874194Y-91433353D03*
X142480000Y-94200000D03*
X140880000Y-93400000D03*
X139280000Y-93400000D03*
X137680000Y-93400000D03*
X136880000Y-92600000D03*
X135280000Y-92600000D03*
X132880000Y-91800000D03*
X132880000Y-93400000D03*
D21*
X141042859Y-86994997D03*
X139280000Y-87000000D03*
X136110990Y-86995403D03*
X137680000Y-87000000D03*
X136080000Y-84600000D03*
X139280000Y-88600000D03*
D19*
X157807568Y-67669269D03*
X101707889Y-82423180D03*
X107021491Y-67228122D03*
X166284693Y-95025145D03*
X166248957Y-79348409D03*
X166343357Y-77477990D03*
D18*
X172564535Y-87722010D03*
X150030853Y-71331848D03*
D19*
X157600000Y-62944000D03*
D18*
X134124945Y-66775980D03*
X139864366Y-68665673D03*
X137659051Y-91638034D03*
X135273306Y-88618602D03*
X135280000Y-86200000D03*
X135280000Y-85440000D03*
X158870000Y-72596000D03*
X114513935Y-82409431D03*
X116912932Y-77355158D03*
X109760378Y-68177900D03*
X109840000Y-73620000D03*
X132110753Y-92527478D03*
X113658000Y-89360000D03*
X165803369Y-97344883D03*
D19*
X148237462Y-79019093D03*
D18*
X148271935Y-77558071D03*
D19*
X160905403Y-95006436D03*
D20*
X158731133Y-81048929D03*
X154593901Y-94607945D03*
X156088245Y-94762980D03*
D19*
X164625730Y-94982471D03*
D20*
X163462982Y-80942429D03*
D19*
X176254940Y-94288458D03*
D22*
X110593913Y-108636458D03*
D18*
X180340784Y-77316932D03*
X173137949Y-87594275D03*
D23*
X102710050Y-98594954D03*
D18*
X129005202Y-100174798D03*
X172834633Y-99599920D03*
X172879922Y-98618650D03*
X176305593Y-103279812D03*
X100080000Y-104200000D03*
X139272517Y-84611349D03*
X137680556Y-84534085D03*
X141680000Y-86200000D03*
X132880000Y-92600000D03*
X141680000Y-88600000D03*
X141680000Y-85400000D03*
X129983242Y-91668979D03*
X121431221Y-90311593D03*
X121088335Y-90753785D03*
X130583026Y-92475628D03*
X146394787Y-97333919D03*
X143300000Y-86220000D03*
X147175985Y-97333919D03*
X147700000Y-93820000D03*
X144900000Y-91820000D03*
X142277990Y-91000000D03*
D19*
X110128890Y-90028152D03*
D18*
X142480000Y-83800000D03*
X134480000Y-83800000D03*
X134480000Y-91000000D03*
X125193541Y-68962993D03*
X155115280Y-71563465D03*
X105245010Y-86595559D03*
X170182962Y-69571012D03*
X170362901Y-107286196D03*
X158716651Y-107325176D03*
X136028224Y-97922729D03*
X128216338Y-109760338D03*
X132708000Y-109680000D03*
X134750646Y-106810513D03*
X133680000Y-91800000D03*
X135517016Y-98167170D03*
X134675868Y-108131585D03*
D21*
X133449289Y-102232615D03*
D18*
X133680000Y-92600000D03*
X132936956Y-103711000D03*
X127385678Y-104203668D03*
X133685482Y-93402296D03*
X134463998Y-108841973D03*
X131986331Y-96404793D03*
X131039072Y-102187000D03*
X134636872Y-109719950D03*
X132846234Y-94197073D03*
X176700000Y-84220000D03*
X143260000Y-84620000D03*
X120739932Y-76694083D03*
X130704878Y-67105564D03*
X147186000Y-71200000D03*
X147983153Y-71347080D03*
X149475951Y-69619684D03*
X153297112Y-68665673D03*
X177926984Y-89812061D03*
X154329326Y-64643767D03*
X152497066Y-79193467D03*
X146481406Y-79819384D03*
X143650666Y-63862520D03*
X179351513Y-88868327D03*
X149134122Y-63424051D03*
X140035989Y-81400000D03*
X121687479Y-94718249D03*
X128776655Y-87127857D03*
X132083026Y-86260405D03*
X113700000Y-98020000D03*
X116325960Y-98790853D03*
X122932649Y-94724357D03*
X124849021Y-96102869D03*
X122527919Y-95725900D03*
X116198000Y-72088000D03*
X127586603Y-107875044D03*
X113157250Y-67567056D03*
X146180000Y-70800000D03*
X131453853Y-103208291D03*
X149771692Y-81825658D03*
X144080000Y-86200000D03*
X149533922Y-86909940D03*
X144894316Y-86977564D03*
X144896700Y-83835368D03*
X149549750Y-80868432D03*
D21*
X147343891Y-93217126D03*
D18*
X144113248Y-92588762D03*
X144875155Y-86292748D03*
X149846468Y-81303978D03*
X148696112Y-80861847D03*
X144916886Y-82991356D03*
D21*
X148349010Y-93322307D03*
D18*
X144882352Y-92577990D03*
X144902941Y-90956495D03*
X148747982Y-95669626D03*
X144867244Y-90112484D03*
X149795895Y-95251084D03*
X144855814Y-89268481D03*
X150278898Y-95040253D03*
X150345974Y-94517527D03*
X144877648Y-88622010D03*
X150889207Y-94332565D03*
X143280000Y-87000000D03*
X130211351Y-93284273D03*
X131084713Y-95564177D03*
X130422000Y-95456000D03*
X131316164Y-94959140D03*
X130053332Y-94113207D03*
X132031990Y-93400000D03*
X129371747Y-93601166D03*
X141280657Y-97642010D03*
X133852393Y-95875797D03*
X133762848Y-96395146D03*
X132080000Y-94200000D03*
X128622659Y-84064643D03*
X105895603Y-103765816D03*
X130839477Y-103208987D03*
X129449238Y-89873934D03*
X132075624Y-89410644D03*
X128806823Y-103185900D03*
X128312094Y-89556924D03*
X132162861Y-106185868D03*
X132880000Y-88600000D03*
X127040053Y-88426410D03*
X124322162Y-105002357D03*
X132080000Y-87000000D03*
X125525099Y-93236764D03*
X124202418Y-107207639D03*
X110599084Y-74589383D03*
X132024412Y-109766775D03*
X114104080Y-74612196D03*
X132219727Y-109277292D03*
X115190634Y-98572389D03*
X131847310Y-79589886D03*
X132080000Y-81400000D03*
X132080007Y-82103333D03*
X132872609Y-82968555D03*
X133627359Y-81414685D03*
X133648389Y-82190597D03*
X131923295Y-77584853D03*
X130856828Y-77786820D03*
X129555604Y-91985990D03*
X132880000Y-91000000D03*
X129028593Y-91985999D03*
X132077338Y-91002010D03*
X131275302Y-80595752D03*
X130489904Y-80167235D03*
X128823114Y-85153560D03*
X132072985Y-85377990D03*
X133927939Y-77995210D03*
X134433979Y-82180155D03*
X163908850Y-71651861D03*
X135656559Y-110610712D03*
X132468001Y-104503413D03*
X146844288Y-103452739D03*
D23*
X104260000Y-100790000D03*
D18*
X114560994Y-98539563D03*
X116800000Y-98320000D03*
X111895217Y-86253790D03*
X165170594Y-97666317D03*
X170157734Y-105666345D03*
X169506589Y-107953726D03*
X142571021Y-82204353D03*
X143287402Y-83042010D03*
X170735900Y-74464979D03*
X168166438Y-79108038D03*
X151896383Y-103510715D03*
X112614274Y-71803529D03*
X112074854Y-71810535D03*
X143269694Y-93414905D03*
X177274002Y-105079115D03*
X172761273Y-101651681D03*
X143280000Y-91800000D03*
X172193360Y-101105663D03*
X144064831Y-91877646D03*
X144080000Y-90956495D03*
X171540304Y-100645743D03*
X135277990Y-82193851D03*
X129493343Y-75737814D03*
X136124555Y-82260038D03*
X129125079Y-75315804D03*
X135382945Y-76183471D03*
X136080000Y-83000000D03*
X129252218Y-74142461D03*
X142454428Y-77497451D03*
X142460000Y-83020000D03*
X172746637Y-74347988D03*
X143280000Y-83800000D03*
X170300000Y-68151000D03*
X170950000Y-68125562D03*
X125110333Y-92787995D03*
X124361185Y-87274371D03*
X124361184Y-87274370D03*
X182675150Y-111637626D03*
X166678914Y-70803555D03*
X123273881Y-101715917D03*
X129660000Y-100155000D03*
X127308270Y-90221456D03*
X132084049Y-88558274D03*
X128280000Y-103200000D03*
X120008000Y-67008000D03*
X133680000Y-83000000D03*
X129457990Y-80285112D03*
X133680000Y-83800000D03*
X128943593Y-80399729D03*
X130204628Y-83599483D03*
X128416582Y-80399850D03*
X127889625Y-80407426D03*
X133680000Y-85400000D03*
X144780000Y-74590382D03*
X140896226Y-87816226D03*
X140038941Y-89350966D03*
X136944530Y-89373464D03*
D21*
X136938110Y-86196311D03*
D18*
X140014602Y-86192969D03*
X139285803Y-90177691D03*
X137689001Y-90122990D03*
D19*
X151758000Y-99774000D03*
D18*
X136885174Y-90194826D03*
X140094890Y-90122990D03*
X128333179Y-75769807D03*
X134613000Y-78819000D03*
X135280000Y-83022010D03*
X154298000Y-72596000D03*
X100450000Y-101044000D03*
X132285867Y-108754446D03*
X134707351Y-105508447D03*
X139280000Y-81400000D03*
X139655433Y-77904002D03*
X139544632Y-77388769D03*
X139544632Y-76821137D03*
X139544634Y-76294124D03*
X139618475Y-75609426D03*
X137680000Y-81400000D03*
X137177990Y-75950190D03*
X137133428Y-76690852D03*
X137078886Y-77215034D03*
X137097649Y-77741712D03*
X135576944Y-76974283D03*
X136160979Y-81416027D03*
X135316968Y-81442010D03*
X135280062Y-77463305D03*
X134732932Y-77130506D03*
X134471370Y-81406751D03*
D21*
X146942280Y-96452058D03*
X147534467Y-95913260D03*
D18*
X147928857Y-95339016D03*
X143322010Y-91000657D03*
X149284391Y-95377990D03*
X144077013Y-90266968D03*
X147430953Y-90112484D03*
X144076240Y-89395301D03*
X143322010Y-90201951D03*
X147910791Y-87683418D03*
X144082832Y-88584510D03*
X143322010Y-88595030D03*
X148483539Y-87608166D03*
X144102010Y-85397219D03*
X144889349Y-85448737D03*
X147687390Y-85374093D03*
X149732494Y-83807694D03*
X144912409Y-84635817D03*
X148921512Y-83442010D03*
X144103186Y-83777990D03*
X144131413Y-83000000D03*
X148610661Y-81705858D03*
X144888125Y-82147345D03*
X144176662Y-82199998D03*
X148175253Y-80781550D03*
X147688311Y-80983115D03*
X144880008Y-81303333D03*
X142897396Y-78799640D03*
X142460000Y-81420000D03*
X142899303Y-78260230D03*
X142460000Y-80620000D03*
X144175043Y-81398770D03*
X146089079Y-77300571D03*
X144394875Y-77219934D03*
X143332651Y-82197990D03*
X146577729Y-76500816D03*
X143331031Y-81377293D03*
X146130802Y-76060132D03*
X141727010Y-82998875D03*
X145255695Y-74817220D03*
X141727010Y-82194937D03*
X140028978Y-82200000D03*
X141666300Y-76561028D03*
X141314467Y-74741289D03*
X140861329Y-83041266D03*
X141413519Y-75564114D03*
X140872990Y-82177164D03*
X132761172Y-77202673D03*
X132737245Y-76676207D03*
X128644933Y-77050030D03*
X128152012Y-77257840D03*
X128125571Y-78233647D03*
X128590544Y-77894041D03*
X131253134Y-78134216D03*
X106477197Y-98487772D03*
X131709326Y-78745875D03*
X132783339Y-81400004D03*
X132079024Y-82984045D03*
X129109095Y-82655074D03*
X105572759Y-101661319D03*
X106276126Y-101893466D03*
X132880889Y-83897835D03*
X129054383Y-83179239D03*
X129487667Y-84079929D03*
X132083682Y-83828056D03*
X105813763Y-102819336D03*
X128165458Y-83509725D03*
X132062099Y-84533979D03*
X105627254Y-103312241D03*
X128182016Y-84353737D03*
X105992720Y-104283802D03*
X133671942Y-84595200D03*
X128207686Y-84880123D03*
X106088753Y-104974041D03*
X132834641Y-85377990D03*
X123714874Y-91057383D03*
X124326000Y-100028000D03*
X124681087Y-93093755D03*
X132900000Y-90180000D03*
X123846546Y-90451525D03*
X132100000Y-90157990D03*
X162271466Y-66284958D03*
X137100000Y-78320000D03*
X136900000Y-82220000D03*
X131329207Y-66928055D03*
X174611510Y-70367022D03*
X136900000Y-83020000D03*
X131644095Y-67620000D03*
D24*
X140880000Y-81400000D02*
X141294120Y-81814120D01*
X141294120Y-81814120D02*
X141300000Y-81814120D01*
D25*
X141300000Y-84070000D02*
X141300000Y-81814120D01*
D24*
X140836000Y-84534000D02*
X141300000Y-84070000D01*
D26*
X147440000Y-100790000D02*
X147440000Y-99474000D01*
X147440000Y-99474000D02*
X146166000Y-98200000D01*
D27*
X129873237Y-91558974D02*
X129983242Y-91668979D01*
X122678602Y-91558974D02*
X129873237Y-91558974D01*
X121431221Y-90311593D02*
X122678602Y-91558974D01*
X121288334Y-90953784D02*
X121088335Y-90753785D01*
X122700544Y-92365994D02*
X121288334Y-90953784D01*
X125312894Y-92365994D02*
X122700544Y-92365994D01*
X125422528Y-92475628D02*
X125312894Y-92365994D01*
X130583026Y-92475628D02*
X125422528Y-92475628D01*
X143300000Y-86220000D02*
X142847693Y-86672307D01*
X142847693Y-86672307D02*
X142847693Y-93786825D01*
X142847693Y-93786825D02*
X146194788Y-97133920D01*
X146194788Y-97133920D02*
X146394787Y-97333919D01*
X147900000Y-93620000D02*
X147700000Y-93820000D01*
X147900000Y-92873306D02*
X147900000Y-93620000D01*
X147100000Y-91820000D02*
X147900000Y-92620000D01*
X147900000Y-92620000D02*
X147900000Y-92873306D01*
X144900000Y-91820000D02*
X147100000Y-91820000D01*
D24*
X125730069Y-68426465D02*
X125393540Y-68762994D01*
X125393540Y-68762994D02*
X125193541Y-68962993D01*
X138919196Y-68426465D02*
X125730069Y-68426465D01*
X152694489Y-69142674D02*
X139635405Y-69142674D01*
X155115280Y-71563465D02*
X152694489Y-69142674D01*
X139635405Y-69142674D02*
X138919196Y-68426465D01*
D27*
X136028224Y-98205571D02*
X136028224Y-97922729D01*
X136028224Y-105532935D02*
X136028224Y-98205571D01*
X134750646Y-106810513D02*
X136028224Y-105532935D01*
X135317017Y-98367169D02*
X135517016Y-98167170D01*
X133449289Y-102232615D02*
X133449289Y-100234897D01*
X133449289Y-100234897D02*
X135317017Y-98367169D01*
X134475869Y-107931586D02*
X134675868Y-108131585D01*
X133449289Y-102232615D02*
X133449289Y-105671174D01*
X133449289Y-105671174D02*
X134303719Y-106525604D01*
X134303719Y-107759436D02*
X134475869Y-107931586D01*
X134303719Y-106525604D02*
X134303719Y-107759436D01*
X132936956Y-104698915D02*
X132936956Y-103711000D01*
X132936956Y-103711000D02*
X132936956Y-103456956D01*
X133685482Y-93685138D02*
X133685482Y-93402296D01*
X131114390Y-98016986D02*
X133685482Y-95445894D01*
X131114390Y-101634390D02*
X131114390Y-98016986D01*
X133685482Y-95445894D02*
X133685482Y-93685138D01*
X132936956Y-103456956D02*
X131114390Y-101634390D01*
X133986708Y-106694648D02*
X132936956Y-105644896D01*
X132936956Y-105644896D02*
X132936956Y-104981757D01*
X133986708Y-108364683D02*
X133986708Y-106694648D01*
X132936956Y-104981757D02*
X132936956Y-104698915D01*
X134463998Y-108841973D02*
X133986708Y-108364683D01*
X130692380Y-101840308D02*
X130692380Y-97698744D01*
X131786332Y-96604792D02*
X131986331Y-96404793D01*
X130692380Y-97698744D02*
X131786332Y-96604792D01*
X131039072Y-102187000D02*
X130692380Y-101840308D01*
X131875854Y-103023782D02*
X131039072Y-102187000D01*
X134636872Y-109719950D02*
X133669697Y-108752775D01*
X133669697Y-108752775D02*
X133669697Y-106879462D01*
X133669697Y-106879462D02*
X131875854Y-105085619D01*
X131875854Y-105085619D02*
X131875854Y-103023782D01*
X176700000Y-84220000D02*
X175500000Y-83020000D01*
X147128702Y-83020000D02*
X145910312Y-84238390D01*
X175500000Y-83020000D02*
X147128702Y-83020000D01*
X145910312Y-84238390D02*
X145300000Y-84238390D01*
D28*
X144500000Y-84238390D02*
X145300000Y-84238390D01*
D27*
X143678390Y-84238390D02*
X144500000Y-84238390D01*
D29*
X143660000Y-84220000D02*
X143678390Y-84238390D01*
D27*
X143260000Y-84620000D02*
X143660000Y-84220000D01*
X146764248Y-79819384D02*
X146842529Y-79741103D01*
X152297067Y-79393466D02*
X152497066Y-79193467D01*
X146842529Y-79741103D02*
X151949430Y-79741103D01*
X151949430Y-79741103D02*
X152297067Y-79393466D01*
X146481406Y-79819384D02*
X146764248Y-79819384D01*
X122904888Y-96102869D02*
X124566179Y-96102869D01*
X122527919Y-95725900D02*
X122904888Y-96102869D01*
X124566179Y-96102869D02*
X124849021Y-96102869D01*
X130411350Y-93484272D02*
X130211351Y-93284273D01*
X130884714Y-95364178D02*
X130884714Y-93957636D01*
X130884714Y-93957636D02*
X130411350Y-93484272D01*
X131084713Y-95564177D02*
X130884714Y-95364178D01*
X133852393Y-95875797D02*
X139514444Y-95875797D01*
X139514444Y-95875797D02*
X141080658Y-97442011D01*
X141080658Y-97442011D02*
X141280657Y-97642010D01*
X128489751Y-83931735D02*
X128622659Y-84064643D01*
X123263289Y-86593966D02*
X125925520Y-83931735D01*
X105895603Y-103765816D02*
X106178445Y-103765816D01*
X125925520Y-83931735D02*
X128489751Y-83931735D01*
X122146527Y-86593966D02*
X123263289Y-86593966D01*
X118073967Y-90666526D02*
X122146527Y-86593966D01*
X118073967Y-91870294D02*
X118073967Y-90666526D01*
X106178445Y-103765816D02*
X118073967Y-91870294D01*
D24*
X170157734Y-105666345D02*
X169506589Y-106317490D01*
X169506589Y-107670884D02*
X169506589Y-107953726D01*
X169506589Y-106317490D02*
X169506589Y-107670884D01*
D27*
X142909030Y-82220000D02*
X142893383Y-82204353D01*
X142853863Y-82204353D02*
X142571021Y-82204353D01*
X142893383Y-82204353D02*
X142853863Y-82204353D01*
X145720877Y-75873244D02*
X146157705Y-75436416D01*
X142419209Y-78052506D02*
X142552262Y-77919453D01*
X142909030Y-82220000D02*
X142909030Y-79476636D01*
X170453058Y-74464979D02*
X170735900Y-74464979D01*
X165766701Y-74464979D02*
X170453058Y-74464979D01*
X146157705Y-75436416D02*
X164795265Y-75436416D01*
X142650377Y-77919453D02*
X144696586Y-75873244D01*
X164795265Y-75436416D02*
X165766701Y-74464979D01*
X142909030Y-79476636D02*
X142419209Y-78986815D01*
X142419209Y-78986815D02*
X142419209Y-78052506D01*
X142552262Y-77919453D02*
X142650377Y-77919453D01*
X144696586Y-75873244D02*
X145720877Y-75873244D01*
X142909030Y-82220000D02*
X142909030Y-82663638D01*
X143087403Y-82842011D02*
X143287402Y-83042010D01*
X142909030Y-82663638D02*
X143087403Y-82842011D01*
X146436816Y-96884793D02*
X143269694Y-93717671D01*
X146553948Y-96884793D02*
X146436816Y-96884793D01*
X146570223Y-96901068D02*
X146553948Y-96884793D01*
X147351420Y-96901068D02*
X146570223Y-96901068D01*
X155052069Y-105079115D02*
X147597986Y-97625032D01*
X147597986Y-97147634D02*
X147351420Y-96901068D01*
X147597986Y-97625032D02*
X147597986Y-97147634D01*
X177274002Y-105079115D02*
X155052069Y-105079115D01*
X143269694Y-93717671D02*
X143269694Y-93697747D01*
X143269694Y-93697747D02*
X143269694Y-93414905D01*
X172478431Y-101651681D02*
X172761273Y-101651681D01*
X158883361Y-101651681D02*
X172478431Y-101651681D01*
X151001394Y-93769714D02*
X158883361Y-101651681D01*
X150193215Y-93769714D02*
X151001394Y-93769714D01*
X149045919Y-94917011D02*
X150193215Y-93769714D01*
X145396362Y-94917011D02*
X149045919Y-94917011D01*
X143280000Y-92800649D02*
X145396362Y-94917011D01*
X143280000Y-91800000D02*
X143280000Y-92800649D01*
X145527672Y-94600000D02*
X148914609Y-94600000D01*
X143603565Y-92675893D02*
X145527672Y-94600000D01*
X151168776Y-93288776D02*
X158985663Y-101105663D01*
X150225833Y-93288776D02*
X151168776Y-93288776D01*
X148914609Y-94600000D02*
X150225833Y-93288776D01*
X158985663Y-101105663D02*
X171910518Y-101105663D01*
X171910518Y-101105663D02*
X172193360Y-101105663D01*
X143603565Y-92338912D02*
X143603565Y-92675893D01*
X144064831Y-91877646D02*
X143603565Y-92338912D01*
X149014494Y-90534494D02*
X144502001Y-90534494D01*
X171540304Y-100645743D02*
X159125743Y-100645743D01*
X159125743Y-100645743D02*
X149014494Y-90534494D01*
X144502001Y-90534494D02*
X144279999Y-90756496D01*
X144279999Y-90756496D02*
X144080000Y-90956495D01*
X135738978Y-79209435D02*
X133956113Y-77426570D01*
X135738978Y-81732863D02*
X135738978Y-79209435D01*
X129776185Y-75737814D02*
X129493343Y-75737814D01*
X133956113Y-76524434D02*
X133169493Y-75737814D01*
X133956113Y-77426570D02*
X133956113Y-76524434D01*
X135277990Y-82193851D02*
X135738978Y-81732863D01*
X133169493Y-75737814D02*
X129776185Y-75737814D01*
X135286149Y-82193851D02*
X135277990Y-82193851D01*
X135328212Y-82151788D02*
X135286149Y-82193851D01*
X133244127Y-75315804D02*
X134310931Y-76382608D01*
X129125079Y-75315804D02*
X133244127Y-75315804D01*
X134310931Y-76382608D02*
X134310931Y-77312427D01*
X136324554Y-82060039D02*
X136124555Y-82260038D01*
X136582989Y-79584485D02*
X136582989Y-81801604D01*
X134310931Y-77312427D02*
X136582989Y-79584485D01*
X136582989Y-81801604D02*
X136324554Y-82060039D01*
X135382945Y-75900629D02*
X135382945Y-76183471D01*
X129252218Y-74142461D02*
X133624777Y-74142461D01*
X133624777Y-74142461D02*
X135382945Y-75900629D01*
X142654427Y-77297452D02*
X142454428Y-77497451D01*
X165740383Y-74042977D02*
X164663955Y-75119405D01*
X144395646Y-75556233D02*
X142654427Y-77297452D01*
X146026395Y-75119405D02*
X145589567Y-75556233D01*
X164663955Y-75119405D02*
X146026395Y-75119405D01*
X172746637Y-74347988D02*
X172441626Y-74042977D01*
X145589567Y-75556233D02*
X144395646Y-75556233D01*
X172441626Y-74042977D02*
X165740383Y-74042977D01*
D24*
X182675150Y-111637626D02*
X108717626Y-111637626D01*
X108717626Y-111637626D02*
X107080000Y-110000000D01*
X124161186Y-87474370D02*
X124361185Y-87274371D01*
X107080000Y-110000000D02*
X107080000Y-105345962D01*
X107080000Y-105345962D02*
X119080000Y-93345962D01*
X119080000Y-93345962D02*
X119080000Y-91083238D01*
X119080000Y-91083238D02*
X120977256Y-89185982D01*
X120977256Y-89185982D02*
X122449574Y-89185982D01*
X122449574Y-89185982D02*
X124161186Y-87474370D01*
X123556723Y-101715917D02*
X123273881Y-101715917D01*
X128381925Y-101715917D02*
X123556723Y-101715917D01*
X129660000Y-100155000D02*
X129660000Y-100437842D01*
X129660000Y-100437842D02*
X128381925Y-101715917D01*
D27*
X131763315Y-82546545D02*
X131754088Y-82555772D01*
X133226545Y-82546545D02*
X131763315Y-82546545D01*
X133680000Y-83000000D02*
X133226545Y-82546545D01*
D29*
X131754088Y-82555772D02*
X131741369Y-82568491D01*
D27*
X131741369Y-82568491D02*
X129657989Y-80485111D01*
X129657989Y-80485111D02*
X129457990Y-80285112D01*
X133680000Y-83800000D02*
X133355834Y-83475834D01*
X133355834Y-83475834D02*
X132358427Y-83475834D01*
X131668614Y-83406046D02*
X131662568Y-83400000D01*
X132288639Y-83406046D02*
X131668614Y-83406046D01*
X132358427Y-83475834D02*
X132288639Y-83406046D01*
D29*
X131662568Y-83400000D02*
X131661795Y-83400773D01*
X131661795Y-83400773D02*
X131661022Y-83400000D01*
D27*
X131661022Y-83400000D02*
X128943593Y-80682571D01*
X128943593Y-80682571D02*
X128943593Y-80399729D01*
X130204628Y-83599483D02*
X130204628Y-82736596D01*
X130204628Y-82736596D02*
X129874718Y-82406686D01*
X129874718Y-82406686D02*
X129874718Y-82140828D01*
X129874718Y-82140828D02*
X128416582Y-80682692D01*
X128416582Y-80682692D02*
X128416582Y-80399850D01*
X127889625Y-80407426D02*
X127889625Y-80690268D01*
X127889625Y-80690268D02*
X129557707Y-82358350D01*
X129557707Y-82358350D02*
X129557707Y-83549843D01*
X129557707Y-83549843D02*
X131813118Y-85805254D01*
X131813118Y-85805254D02*
X133274746Y-85805254D01*
X133274746Y-85805254D02*
X133680000Y-85400000D01*
X128616021Y-75769807D02*
X128333179Y-75769807D01*
X134147807Y-78819000D02*
X133471738Y-78142931D01*
X133471738Y-78142931D02*
X133471738Y-76685315D01*
X134613000Y-78819000D02*
X134147807Y-78819000D01*
X129289322Y-76162488D02*
X128896641Y-75769807D01*
X133471738Y-76685315D02*
X132948911Y-76162488D01*
X132948911Y-76162488D02*
X129289322Y-76162488D01*
X128896641Y-75769807D02*
X128616021Y-75769807D01*
X136190709Y-68798476D02*
X138765104Y-68798476D01*
X140917668Y-79762332D02*
X139479999Y-81200001D01*
X139479999Y-81200001D02*
X139280000Y-81400000D01*
X140991509Y-76205917D02*
X140917668Y-76279758D01*
X140917668Y-76279758D02*
X140917668Y-79762332D01*
X140425037Y-74446464D02*
X140991509Y-75012935D01*
X140991509Y-75012935D02*
X140991509Y-76205917D01*
X138765104Y-68798476D02*
X140425037Y-70458409D01*
X99131314Y-67770000D02*
X100746317Y-69385003D01*
X100746317Y-69385003D02*
X135604183Y-69385003D01*
X135604183Y-69385003D02*
X136190709Y-68798476D01*
X97910000Y-67770000D02*
X99131314Y-67770000D01*
X140425037Y-70458409D02*
X140425037Y-74446464D01*
X139855432Y-77704003D02*
X139655433Y-77904002D01*
X140600657Y-76958778D02*
X139855432Y-77704003D01*
X140600657Y-76148448D02*
X140600657Y-76958778D01*
X140108026Y-70589719D02*
X140108026Y-74577774D01*
X138633794Y-69115487D02*
X140108026Y-70589719D01*
X136322019Y-69115487D02*
X138633794Y-69115487D01*
X135735493Y-69702014D02*
X136322019Y-69115487D01*
X100615007Y-69702014D02*
X135735493Y-69702014D01*
X99768594Y-68855601D02*
X100615007Y-69702014D01*
X95370000Y-67770000D02*
X96455601Y-68855601D01*
X96455601Y-68855601D02*
X99768594Y-68855601D01*
X140108026Y-74577774D02*
X140674498Y-75144245D01*
X140674498Y-76074607D02*
X140600657Y-76148448D01*
X140674498Y-75144245D02*
X140674498Y-76074607D01*
X139587191Y-77388769D02*
X139544632Y-77388769D01*
X140283646Y-76017138D02*
X140283646Y-76692314D01*
X140357487Y-75943297D02*
X140283646Y-76017138D01*
X140357487Y-75275555D02*
X140357487Y-75943297D01*
X139791015Y-74709084D02*
X140357487Y-75275555D01*
X140283646Y-76692314D02*
X139587191Y-77388769D01*
X139791015Y-70721029D02*
X139791015Y-74709084D01*
X99131314Y-70310000D02*
X99422289Y-70019025D01*
X138502484Y-69432498D02*
X139791015Y-70721029D01*
X99422289Y-70019025D02*
X135866803Y-70019025D01*
X97910000Y-70310000D02*
X99131314Y-70310000D01*
X135866803Y-70019025D02*
X136453329Y-69432498D01*
X136453329Y-69432498D02*
X138502484Y-69432498D01*
X139966635Y-75885828D02*
X139966635Y-76557226D01*
X139474004Y-70852338D02*
X139474004Y-74840394D01*
X135998113Y-70336036D02*
X136584639Y-69749509D01*
X136584639Y-69749509D02*
X138371175Y-69749509D01*
X100748636Y-70336036D02*
X135998113Y-70336036D01*
X140040476Y-75811987D02*
X139966635Y-75885828D01*
X99684672Y-71400000D02*
X100748636Y-70336036D01*
X95370000Y-70310000D02*
X96460000Y-71400000D01*
X96460000Y-71400000D02*
X99684672Y-71400000D01*
X139702724Y-76821137D02*
X139544632Y-76821137D01*
X138371175Y-69749509D02*
X139474004Y-70852338D01*
X140040476Y-75406865D02*
X140040476Y-75811987D01*
X139474004Y-74840394D02*
X140040476Y-75406865D01*
X139966635Y-76557226D02*
X139702724Y-76821137D01*
X134139073Y-71257863D02*
X139175334Y-76294124D01*
X100723451Y-71257863D02*
X134139073Y-71257863D01*
X139175334Y-76294124D02*
X139261792Y-76294124D01*
X139261792Y-76294124D02*
X139544634Y-76294124D01*
X99131314Y-72850000D02*
X100723451Y-71257863D01*
X97910000Y-72850000D02*
X99131314Y-72850000D01*
X95370000Y-72850000D02*
X96463654Y-71756346D01*
X96463654Y-71756346D02*
X99776647Y-71756346D01*
X99776647Y-71756346D02*
X100592141Y-70940852D01*
X100592141Y-70940852D02*
X134342895Y-70940852D01*
X134342895Y-70940852D02*
X139014599Y-75612556D01*
X139014599Y-75612556D02*
X139615345Y-75612556D01*
X139615345Y-75612556D02*
X139618475Y-75609426D01*
X134504414Y-72100904D02*
X128060459Y-72100904D01*
X137970507Y-81109493D02*
X137970507Y-75566997D01*
X99131314Y-75390000D02*
X97910000Y-75390000D01*
X124771364Y-75390000D02*
X99131314Y-75390000D01*
X128060459Y-72100904D02*
X124771364Y-75390000D01*
X137680000Y-81400000D02*
X137970507Y-81109493D01*
X137970507Y-75566997D02*
X134504414Y-72100904D01*
X134373104Y-72417915D02*
X137177990Y-75222801D01*
X137177990Y-75667348D02*
X137177990Y-75950190D01*
X137177990Y-75222801D02*
X137177990Y-75667348D01*
X120965674Y-79644011D02*
X128191769Y-72417915D01*
X98830956Y-76759277D02*
X101715690Y-79644011D01*
X128191769Y-72417915D02*
X134373104Y-72417915D01*
X96739277Y-76759277D02*
X98830956Y-76759277D01*
X95370000Y-75390000D02*
X96739277Y-76759277D01*
X101715690Y-79644011D02*
X120965674Y-79644011D01*
X128323079Y-72734926D02*
X134241794Y-72734926D01*
X97910000Y-77930000D02*
X99553358Y-77930000D01*
X136755988Y-76313412D02*
X136933429Y-76490853D01*
X136755988Y-75249120D02*
X136755988Y-76313412D01*
X101584380Y-79961022D02*
X121096984Y-79961022D01*
X99553358Y-77930000D02*
X101584380Y-79961022D01*
X136933429Y-76490853D02*
X137133428Y-76690852D01*
X134241794Y-72734926D02*
X136755988Y-75249120D01*
X121096984Y-79961022D02*
X128323079Y-72734926D01*
X100190639Y-79015601D02*
X101453070Y-80278033D01*
X101453070Y-80278033D02*
X121228294Y-80278033D01*
X136438977Y-75380430D02*
X136438977Y-76857967D01*
X121228294Y-80278033D02*
X128454389Y-73051937D01*
X134110484Y-73051937D02*
X136438977Y-75380430D01*
X128454389Y-73051937D02*
X134110484Y-73051937D01*
X95370000Y-77930000D02*
X96455601Y-79015601D01*
X136438977Y-76857967D02*
X136796044Y-77215034D01*
X96455601Y-79015601D02*
X100190639Y-79015601D01*
X136796044Y-77215034D02*
X137078886Y-77215034D01*
X136121966Y-75511741D02*
X136121966Y-77048871D01*
X133979174Y-73368948D02*
X136121966Y-75511741D01*
X136121966Y-77048871D02*
X136814807Y-77741712D01*
X128585699Y-73368948D02*
X133979174Y-73368948D01*
X121359604Y-80595044D02*
X128585699Y-73368948D01*
X99256358Y-80595044D02*
X121359604Y-80595044D01*
X136814807Y-77741712D02*
X137097649Y-77741712D01*
X97910000Y-80470000D02*
X99131314Y-80470000D01*
X99131314Y-80470000D02*
X99256358Y-80595044D01*
X135804955Y-76746272D02*
X135776943Y-76774284D01*
X135804955Y-75709500D02*
X135804955Y-76746272D01*
X98871679Y-81600000D02*
X99486624Y-80985055D01*
X95370000Y-80470000D02*
X96500000Y-81600000D01*
X96500000Y-81600000D02*
X98871679Y-81600000D01*
X128717009Y-73685959D02*
X133781414Y-73685959D01*
X99486624Y-80985055D02*
X121417914Y-80985055D01*
X135776943Y-76774284D02*
X135576944Y-76974283D01*
X133781414Y-73685959D02*
X135804955Y-75709500D01*
X121417914Y-80985055D02*
X128717009Y-73685959D01*
X97910000Y-83010000D02*
X99617934Y-81302066D01*
X135154942Y-77338185D02*
X135280062Y-77463305D01*
X135154942Y-76589489D02*
X135154942Y-77338185D01*
X134960944Y-76135982D02*
X134960944Y-76395491D01*
X133401753Y-74576791D02*
X134960944Y-76135982D01*
X128274498Y-74576791D02*
X133401753Y-74576791D01*
X121549224Y-81302066D02*
X128274498Y-74576791D01*
X134960944Y-76395491D02*
X135154942Y-76589489D01*
X99617934Y-81302066D02*
X121549224Y-81302066D01*
X134732932Y-76847664D02*
X134732932Y-77130506D01*
X134643933Y-76758665D02*
X134732932Y-76847664D01*
X134643933Y-76267292D02*
X134643933Y-76758665D01*
X134280000Y-75903359D02*
X134643933Y-76267292D01*
X98903449Y-84183069D02*
X96543069Y-84183069D01*
X133270443Y-74893802D02*
X128405808Y-74893802D01*
X96543069Y-84183069D02*
X96233599Y-83873599D01*
X128405808Y-74893802D02*
X121680534Y-81619077D01*
X121680534Y-81619077D02*
X101467441Y-81619077D01*
X101467441Y-81619077D02*
X98903449Y-84183069D01*
X96233599Y-83873599D02*
X95370000Y-83010000D01*
X134280000Y-75903359D02*
X133270443Y-74893802D01*
X134344206Y-75967565D02*
X134280000Y-75903359D01*
X147453805Y-96452058D02*
X147263306Y-96452058D01*
X147263306Y-96452058D02*
X146942280Y-96452058D01*
X154927720Y-104460871D02*
X148012645Y-97545796D01*
X184270000Y-105870000D02*
X182860871Y-104460871D01*
X182860871Y-104460871D02*
X154927720Y-104460871D01*
X148012645Y-97010898D02*
X147453805Y-96452058D01*
X148012645Y-97545796D02*
X148012645Y-97010898D01*
X147534467Y-95913260D02*
X149681196Y-98059989D01*
X149681196Y-98059989D02*
X153298439Y-98059989D01*
X153298439Y-98059989D02*
X159382309Y-104143860D01*
X159382309Y-104143860D02*
X182992181Y-104143860D01*
X182992181Y-104143860D02*
X183514583Y-104666262D01*
X183514583Y-104666262D02*
X185606262Y-104666262D01*
X185606262Y-104666262D02*
X185946401Y-105006401D01*
X185946401Y-105006401D02*
X186810000Y-105870000D01*
X183048686Y-103330000D02*
X182303816Y-102585130D01*
X150049977Y-97742978D02*
X147928857Y-95621858D01*
X147928857Y-95621858D02*
X147928857Y-95339016D01*
X153519848Y-97742978D02*
X150049977Y-97742978D01*
X182303816Y-102585130D02*
X158362000Y-102585130D01*
X158362000Y-102585130D02*
X153519848Y-97742978D01*
X184270000Y-103330000D02*
X183048686Y-103330000D01*
X149484390Y-95577989D02*
X149284391Y-95377990D01*
X153744658Y-97396777D02*
X151303178Y-97396777D01*
X151303178Y-97396777D02*
X149484390Y-95577989D01*
X186810000Y-103330000D02*
X185672612Y-102192612D01*
X158540493Y-102192612D02*
X153744658Y-97396777D01*
X185672612Y-102192612D02*
X158540493Y-102192612D01*
X183406401Y-99926401D02*
X182913961Y-99926401D01*
X147713795Y-90112484D02*
X147430953Y-90112484D01*
X184270000Y-100790000D02*
X183406401Y-99926401D01*
X182913961Y-99926401D02*
X173100044Y-90112484D01*
X173100044Y-90112484D02*
X147713795Y-90112484D01*
X144409571Y-89690483D02*
X144255096Y-89844958D01*
X145069805Y-89690483D02*
X144409571Y-89690483D01*
X143522009Y-90001952D02*
X143322010Y-90201951D01*
X143679003Y-89844958D02*
X143522009Y-90001952D01*
X144255096Y-89844958D02*
X143679003Y-89844958D01*
X186810000Y-100790000D02*
X185540000Y-99520000D01*
X185540000Y-99520000D02*
X183000000Y-99520000D01*
X183000000Y-99520000D02*
X172840000Y-89360000D01*
X172840000Y-89360000D02*
X145400288Y-89360000D01*
X145400288Y-89360000D02*
X145069805Y-89690483D01*
X148110790Y-87883417D02*
X147910791Y-87683418D01*
X172976640Y-88600000D02*
X148827373Y-88600000D01*
X148827373Y-88600000D02*
X148110790Y-87883417D01*
X184270000Y-98250000D02*
X182626640Y-98250000D01*
X182626640Y-98250000D02*
X172976640Y-88600000D01*
X185560000Y-97000000D02*
X181880000Y-97000000D01*
X186810000Y-98250000D02*
X185560000Y-97000000D01*
X148683538Y-87808165D02*
X148483539Y-87608166D01*
X181880000Y-97000000D02*
X173104678Y-88224678D01*
X149100051Y-88224678D02*
X148683538Y-87808165D01*
X173104678Y-88224678D02*
X149100051Y-88224678D01*
X145253541Y-85898126D02*
X150836126Y-85898126D01*
X145226153Y-85870738D02*
X145253541Y-85898126D01*
X182539275Y-95710000D02*
X183048686Y-95710000D01*
X173602000Y-86772725D02*
X182539275Y-95710000D01*
X144280516Y-85597218D02*
X144554036Y-85870738D01*
X144554036Y-85870738D02*
X145226153Y-85870738D01*
X150836126Y-85898126D02*
X151710725Y-86772725D01*
X151710725Y-86772725D02*
X173602000Y-86772725D01*
X183048686Y-95710000D02*
X184270000Y-95710000D01*
X144102010Y-85418712D02*
X144102010Y-85397219D01*
X144280516Y-85597218D02*
X144102010Y-85418712D01*
X144280516Y-85597218D02*
X144280516Y-85600516D01*
X147970232Y-85374093D02*
X147687390Y-85374093D01*
X186810000Y-95710000D02*
X185680000Y-94580000D01*
X185680000Y-94580000D02*
X181857596Y-94580000D01*
X181857596Y-94580000D02*
X173589596Y-86312000D01*
X173589596Y-86312000D02*
X152012000Y-86312000D01*
X152012000Y-86312000D02*
X151074093Y-85374093D01*
X151074093Y-85374093D02*
X147970232Y-85374093D01*
X174954021Y-83854021D02*
X150061663Y-83854021D01*
X150015336Y-83807694D02*
X149732494Y-83807694D01*
X150061663Y-83854021D02*
X150015336Y-83807694D01*
X184270000Y-93170000D02*
X174954021Y-83854021D01*
X149204354Y-83442010D02*
X148921512Y-83442010D01*
X183348320Y-91800000D02*
X174885331Y-83337011D01*
X185440000Y-91800000D02*
X183348320Y-91800000D01*
X186810000Y-93170000D02*
X185440000Y-91800000D01*
X149309353Y-83337011D02*
X149204354Y-83442010D01*
X174885331Y-83337011D02*
X149309353Y-83337011D01*
X183406401Y-89766401D02*
X182846401Y-89766401D01*
X184270000Y-90630000D02*
X183406401Y-89766401D01*
X149347655Y-82619335D02*
X148610661Y-81882341D01*
X175699335Y-82619335D02*
X149347655Y-82619335D01*
X148610661Y-81882341D02*
X148610661Y-81705858D01*
X182846401Y-89766401D02*
X175699335Y-82619335D01*
X147479898Y-82147345D02*
X145170967Y-82147345D01*
X186810000Y-90630000D02*
X185580000Y-89400000D01*
X149582864Y-82247659D02*
X149032671Y-81697466D01*
X148343395Y-81283848D02*
X147479898Y-82147345D01*
X175806134Y-82247659D02*
X149582864Y-82247659D01*
X148877943Y-81283848D02*
X148343395Y-81283848D01*
X185580000Y-89400000D02*
X182958475Y-89400000D01*
X149032671Y-81697466D02*
X149032671Y-81438576D01*
X145170967Y-82147345D02*
X144888125Y-82147345D01*
X182958475Y-89400000D02*
X175806134Y-82247659D01*
X149032671Y-81438576D02*
X148877943Y-81283848D01*
X183048686Y-83010000D02*
X180426116Y-80387430D01*
X148375252Y-80581551D02*
X148175253Y-80781550D01*
X180426116Y-80387430D02*
X148569373Y-80387430D01*
X148569373Y-80387430D02*
X148375252Y-80581551D01*
X184270000Y-83010000D02*
X183048686Y-83010000D01*
X186810000Y-83010000D02*
X185520706Y-81720706D01*
X185520706Y-81720706D02*
X182207713Y-81720706D01*
X182207713Y-81720706D02*
X180557426Y-80070419D01*
X147688311Y-80700273D02*
X147688311Y-80983115D01*
X148257454Y-80070419D02*
X147688311Y-80639562D01*
X147688311Y-80639562D02*
X147688311Y-80700273D01*
X180557426Y-80070419D02*
X148257454Y-80070419D01*
X184270000Y-80470000D02*
X183406401Y-79606401D01*
X143180238Y-78799640D02*
X142897396Y-78799640D01*
X183406401Y-79606401D02*
X170215151Y-79606401D01*
X170215151Y-79606401D02*
X169135116Y-78526366D01*
X169135116Y-78526366D02*
X148813297Y-78526366D01*
X143682786Y-78297092D02*
X143180238Y-78799640D01*
X148584023Y-78297092D02*
X143682786Y-78297092D01*
X148813297Y-78526366D02*
X148584023Y-78297092D01*
X185540000Y-79200000D02*
X170280000Y-79200000D01*
X148935251Y-78200000D02*
X148715333Y-77980081D01*
X169280000Y-78200000D02*
X148935251Y-78200000D01*
X143179452Y-77980081D02*
X143099302Y-78060231D01*
X186810000Y-80470000D02*
X185540000Y-79200000D01*
X170280000Y-79200000D02*
X169280000Y-78200000D01*
X148715333Y-77980081D02*
X143179452Y-77980081D01*
X143099302Y-78060231D02*
X142899303Y-78260230D01*
X147904873Y-77300571D02*
X148069374Y-77136070D01*
X146089079Y-77300571D02*
X147904873Y-77300571D01*
X165634203Y-76425444D02*
X181544130Y-76425444D01*
X181544130Y-76425444D02*
X183048686Y-77930000D01*
X183048686Y-77930000D02*
X184270000Y-77930000D01*
X148069374Y-77136070D02*
X164923577Y-77136070D01*
X164923577Y-77136070D02*
X165634203Y-76425444D01*
X182195586Y-76550266D02*
X181753754Y-76108433D01*
X164792267Y-76819059D02*
X147938064Y-76819059D01*
X165502893Y-76108433D02*
X164792267Y-76819059D01*
X186810000Y-77930000D02*
X185430266Y-76550266D01*
X185430266Y-76550266D02*
X182195586Y-76550266D01*
X147938064Y-76819059D02*
X147812719Y-76944404D01*
X146396753Y-76944404D02*
X146325742Y-76873393D01*
X146325742Y-76873393D02*
X144741416Y-76873393D01*
X181753754Y-76108433D02*
X165502893Y-76108433D01*
X144594874Y-77019935D02*
X144394875Y-77219934D01*
X144741416Y-76873393D02*
X144594874Y-77019935D01*
X147812719Y-76944404D02*
X146396753Y-76944404D01*
X184270000Y-75390000D02*
X165773005Y-75390000D01*
X165773005Y-75390000D02*
X164662189Y-76500816D01*
X146860571Y-76500816D02*
X146577729Y-76500816D01*
X164662189Y-76500816D02*
X146860571Y-76500816D01*
X186810000Y-75390000D02*
X185672612Y-74252612D01*
X183627388Y-74252612D02*
X182880000Y-75000000D01*
X165680001Y-75000000D02*
X164619869Y-76060132D01*
X182880000Y-75000000D02*
X165680001Y-75000000D01*
X146413644Y-76060132D02*
X146130802Y-76060132D01*
X185672612Y-74252612D02*
X183627388Y-74252612D01*
X164619869Y-76060132D02*
X146413644Y-76060132D01*
X164401335Y-74485383D02*
X145587532Y-74485383D01*
X145455694Y-74617221D02*
X145255695Y-74817220D01*
X145587532Y-74485383D02*
X145455694Y-74617221D01*
X165594753Y-73291965D02*
X164401335Y-74485383D01*
X182606721Y-73291965D02*
X165594753Y-73291965D01*
X183048686Y-72850000D02*
X182606721Y-73291965D01*
X184270000Y-72850000D02*
X183048686Y-72850000D01*
X165726063Y-73608976D02*
X164532645Y-74802394D01*
X145895085Y-74802394D02*
X145458257Y-75239222D01*
X145458257Y-75239222D02*
X143740299Y-75239222D01*
X141727010Y-77252511D02*
X141727010Y-81912095D01*
X164532645Y-74802394D02*
X145895085Y-74802394D01*
X183422286Y-73608976D02*
X165726063Y-73608976D01*
X185724399Y-73935601D02*
X183748911Y-73935601D01*
X186810000Y-72850000D02*
X185724399Y-73935601D01*
X143740299Y-75239222D02*
X141727010Y-77252511D01*
X141727010Y-81912095D02*
X141727010Y-82194937D01*
X183748911Y-73935601D02*
X183422286Y-73608976D01*
X180278699Y-72657943D02*
X165332133Y-72657943D01*
X143758287Y-73851361D02*
X141308520Y-76301128D01*
X141308520Y-76301128D02*
X141308520Y-76337227D01*
X140228977Y-82000001D02*
X140028978Y-82200000D01*
X184270000Y-70310000D02*
X182626642Y-70310000D01*
X141308520Y-76337227D02*
X141234679Y-76411068D01*
X141234679Y-76411068D02*
X141234679Y-80420759D01*
X140457999Y-81197439D02*
X140457999Y-81770979D01*
X140457999Y-81770979D02*
X140228977Y-82000001D01*
X182626642Y-70310000D02*
X180278699Y-72657943D01*
X164138715Y-73851361D02*
X143758287Y-73851361D01*
X165332133Y-72657943D02*
X164138715Y-73851361D01*
X141234679Y-80420759D02*
X140457999Y-81197439D01*
X144058956Y-74168372D02*
X141866299Y-76361029D01*
X164270025Y-74168372D02*
X144058956Y-74168372D01*
X181989362Y-71395601D02*
X180410009Y-72974954D01*
X185724399Y-71395601D02*
X181989362Y-71395601D01*
X141866299Y-76361029D02*
X141666300Y-76561028D01*
X180410009Y-72974954D02*
X165463443Y-72974954D01*
X165463443Y-72974954D02*
X164270025Y-74168372D01*
X186810000Y-70310000D02*
X185724399Y-71395601D01*
X141514466Y-74541290D02*
X141314467Y-74741289D01*
X163876095Y-73217339D02*
X142838417Y-73217339D01*
X180079000Y-71961000D02*
X165132434Y-71961000D01*
X184270000Y-67770000D02*
X180079000Y-71961000D01*
X165132434Y-71961000D02*
X163876095Y-73217339D01*
X142838417Y-73217339D02*
X141514466Y-74541290D01*
X164007405Y-73534350D02*
X143443283Y-73534350D01*
X141613518Y-75364115D02*
X141413519Y-75564114D01*
X143443283Y-73534350D02*
X141613518Y-75364115D01*
X185724399Y-68855601D02*
X183632720Y-68855601D01*
X186810000Y-67770000D02*
X185724399Y-68855601D01*
X183632720Y-68855601D02*
X180147389Y-72340932D01*
X180147389Y-72340932D02*
X165200823Y-72340932D01*
X165200823Y-72340932D02*
X164007405Y-73534350D01*
X120587202Y-83106845D02*
X121096478Y-83106845D01*
X121096478Y-83106845D02*
X126708542Y-77494781D01*
X98773599Y-91493599D02*
X112032125Y-91493599D01*
X97910000Y-90630000D02*
X98773599Y-91493599D01*
X113912046Y-89782001D02*
X120587202Y-83106845D01*
X113743723Y-89782001D02*
X113912046Y-89782001D01*
X112032125Y-91493599D02*
X113743723Y-89782001D01*
D25*
X128736940Y-76513819D02*
X129221339Y-76998218D01*
X132273875Y-76998218D02*
X132478330Y-77202673D01*
X127689504Y-76513819D02*
X128736940Y-76513819D01*
X132478330Y-77202673D02*
X132761172Y-77202673D01*
X129221339Y-76998218D02*
X132273875Y-76998218D01*
X126708542Y-77494781D02*
X127689504Y-76513819D01*
D27*
X99636843Y-90750153D02*
X98431089Y-89544399D01*
X111709419Y-89475526D02*
X110434792Y-90750153D01*
X132737245Y-76676207D02*
X129354720Y-76676207D01*
X96455601Y-89544399D02*
X96233599Y-89766401D01*
X98431089Y-89544399D02*
X96455601Y-89544399D01*
X96233599Y-89766401D02*
X95370000Y-90630000D01*
X118143115Y-82789834D02*
X111709419Y-89223530D01*
X120958097Y-82789834D02*
X118143115Y-82789834D01*
X129354720Y-76676207D02*
X128870321Y-76191808D01*
X110434792Y-90750153D02*
X99636843Y-90750153D01*
X111709419Y-89223530D02*
X111709419Y-89475526D01*
X128870321Y-76191808D02*
X127556123Y-76191808D01*
X127556123Y-76191808D02*
X120958097Y-82789834D01*
X121234859Y-83423856D02*
X127822885Y-76835830D01*
X120718512Y-83423856D02*
X121234859Y-83423856D01*
X128444934Y-76850031D02*
X128644933Y-77050030D01*
X128430733Y-76835830D02*
X128444934Y-76850031D01*
X127822885Y-76835830D02*
X128430733Y-76835830D01*
X114043356Y-90099012D02*
X120718512Y-83423856D01*
X113875033Y-90099012D02*
X114043356Y-90099012D01*
X98825047Y-92254953D02*
X111719092Y-92254953D01*
X97910000Y-93170000D02*
X98825047Y-92254953D01*
X111719092Y-92254953D02*
X113875033Y-90099012D01*
X95370000Y-93170000D02*
X96455601Y-94255601D01*
X100151394Y-92571964D02*
X111850402Y-92571964D01*
X114174666Y-90416023D02*
X120849822Y-83740867D01*
X127849196Y-77257840D02*
X127869170Y-77257840D01*
X120849822Y-83740867D02*
X121366169Y-83740867D01*
X114006343Y-90416023D02*
X114174666Y-90416023D01*
X98467757Y-94255601D02*
X100151394Y-92571964D01*
X96455601Y-94255601D02*
X98467757Y-94255601D01*
X127869170Y-77257840D02*
X128152012Y-77257840D01*
X111850402Y-92571964D02*
X114006343Y-90416023D01*
X121366169Y-83740867D02*
X127849196Y-77257840D01*
X110050458Y-93932000D02*
X111356992Y-93932000D01*
X111356992Y-93932000D02*
X111372000Y-93947008D01*
X109324444Y-93205986D02*
X110050458Y-93932000D01*
X111372000Y-93947008D02*
X114268963Y-91050045D01*
X121112442Y-84374889D02*
X121984329Y-84374889D01*
X114437286Y-91050045D02*
X121112442Y-84374889D01*
X127925572Y-78433646D02*
X128125571Y-78233647D01*
X121984329Y-84374889D02*
X127925572Y-78433646D01*
X114268963Y-91050045D02*
X114437286Y-91050045D01*
X97910000Y-95710000D02*
X100414014Y-93205986D01*
X100414014Y-93205986D02*
X109324444Y-93205986D01*
X100282704Y-92888975D02*
X109628023Y-92888975D01*
X95370000Y-95710000D02*
X96507388Y-94572612D01*
X98599067Y-94572612D02*
X100282704Y-92888975D01*
X110531880Y-93509990D02*
X110249038Y-93509990D01*
X114305976Y-90733034D02*
X114137653Y-90733034D01*
X109628023Y-92888975D02*
X110049039Y-93309991D01*
X120981132Y-84057878D02*
X114305976Y-90733034D01*
X121497479Y-84057878D02*
X120981132Y-84057878D01*
X128590544Y-77894041D02*
X128390545Y-77694042D01*
X111360697Y-93509990D02*
X110531880Y-93509990D01*
X127861315Y-77694042D02*
X121497479Y-84057878D01*
X128390545Y-77694042D02*
X127861315Y-77694042D01*
X114137653Y-90733034D02*
X111360697Y-93509990D01*
X96507388Y-94572612D02*
X98599067Y-94572612D01*
X110049039Y-93309991D02*
X110249038Y-93509990D01*
X114400273Y-91367056D02*
X108169231Y-97598098D01*
X114568596Y-91367056D02*
X114400273Y-91367056D01*
X108169231Y-97598098D02*
X106651356Y-97598098D01*
X121243752Y-84691900D02*
X114568596Y-91367056D01*
X122298174Y-84691900D02*
X121243752Y-84691900D01*
X128037087Y-78952987D02*
X122298174Y-84691900D01*
X130434363Y-78952987D02*
X128037087Y-78952987D01*
X131253134Y-78134216D02*
X130434363Y-78952987D01*
X106651356Y-97598098D02*
X106368514Y-97598098D01*
X106156817Y-97386401D02*
X106168515Y-97398099D01*
X98773599Y-97386401D02*
X106156817Y-97386401D01*
X106168515Y-97398099D02*
X106368514Y-97598098D01*
X97910000Y-98250000D02*
X98773599Y-97386401D01*
X106760039Y-98487772D02*
X106477197Y-98487772D01*
X114699906Y-91684067D02*
X114531583Y-91684067D01*
X107727878Y-98487772D02*
X106760039Y-98487772D01*
X128309620Y-79269998D02*
X122570707Y-85008911D01*
X131185203Y-79269998D02*
X128309620Y-79269998D01*
X122570707Y-85008911D02*
X121375062Y-85008911D01*
X131709326Y-78745875D02*
X131185203Y-79269998D01*
X121375062Y-85008911D02*
X114699906Y-91684067D01*
X114531583Y-91684067D02*
X107727878Y-98487772D01*
X95370000Y-98250000D02*
X96520000Y-99400000D01*
X96520000Y-99400000D02*
X99130000Y-99400000D01*
X100630000Y-97900000D02*
X105889425Y-97900000D01*
X99130000Y-99400000D02*
X100630000Y-97900000D01*
X105889425Y-97900000D02*
X106477197Y-98487772D01*
X128907722Y-82453701D02*
X128909096Y-82455075D01*
X128909096Y-82455075D02*
X129109095Y-82655074D01*
X105572759Y-101368697D02*
X121615534Y-85325922D01*
X121615534Y-85325922D02*
X122702017Y-85325922D01*
X125572864Y-82455075D02*
X127698902Y-82455075D01*
X122702017Y-85325922D02*
X125572864Y-82455075D01*
X105572759Y-101661319D02*
X105572759Y-101368697D01*
X127700276Y-82453701D02*
X128907722Y-82453701D01*
X127698902Y-82455075D02*
X127700276Y-82453701D01*
X105143422Y-101690658D02*
X105172761Y-101661319D01*
X105172761Y-101661319D02*
X105572759Y-101661319D01*
X97910000Y-100790000D02*
X98810658Y-101690658D01*
X98810658Y-101690658D02*
X105143422Y-101690658D01*
X106276126Y-101610624D02*
X106276126Y-101893466D01*
X128499330Y-82770712D02*
X127831586Y-82770712D01*
X127831586Y-82770712D02*
X127823532Y-82778766D01*
X128907857Y-83179239D02*
X128499330Y-82770712D01*
X129054383Y-83179239D02*
X128907857Y-83179239D01*
X125697494Y-82778766D02*
X122833327Y-85642933D01*
X127823532Y-82778766D02*
X125697494Y-82778766D01*
X122833327Y-85642933D02*
X121748386Y-85642933D01*
X121748386Y-85642933D02*
X106276126Y-101115193D01*
X106276126Y-101115193D02*
X106276126Y-101610624D01*
X95370000Y-100790000D02*
X96673465Y-102093465D01*
X96673465Y-102093465D02*
X106076127Y-102093465D01*
X106076127Y-102093465D02*
X106276126Y-101893466D01*
X123000670Y-85959944D02*
X125853853Y-83106761D01*
X125853853Y-83106761D02*
X127943858Y-83106761D01*
X127943858Y-83106761D02*
X127962896Y-83087723D01*
X129287668Y-83879930D02*
X129487667Y-84079929D01*
X127962896Y-83087723D02*
X128348982Y-83087723D01*
X128348982Y-83087723D02*
X129141189Y-83879930D01*
X117439945Y-90403906D02*
X121883907Y-85959944D01*
X106013762Y-102619337D02*
X106179742Y-102619337D01*
X105813763Y-102819336D02*
X106013762Y-102619337D01*
X121883907Y-85959944D02*
X123000670Y-85959944D01*
X129141189Y-83879930D02*
X129287668Y-83879930D01*
X117439945Y-91359134D02*
X117439945Y-90403906D01*
X106179742Y-102619337D02*
X117439945Y-91359134D01*
X105530921Y-102819336D02*
X105813763Y-102819336D01*
X99131314Y-103330000D02*
X99641978Y-102819336D01*
X99641978Y-102819336D02*
X105530921Y-102819336D01*
X97910000Y-103330000D02*
X99131314Y-103330000D01*
X127882616Y-83509725D02*
X128165458Y-83509725D01*
X117756956Y-91497275D02*
X117756956Y-90535216D01*
X105941990Y-103312241D02*
X117756956Y-91497275D01*
X125899209Y-83509725D02*
X127882616Y-83509725D01*
X123131979Y-86276955D02*
X125899209Y-83509725D01*
X122015217Y-86276955D02*
X123131979Y-86276955D01*
X117756956Y-90535216D02*
X122015217Y-86276955D01*
X105627254Y-103312241D02*
X105941990Y-103312241D01*
X95370000Y-103330000D02*
X96455601Y-104415601D01*
X105344412Y-103312241D02*
X105627254Y-103312241D01*
X96455601Y-104415601D02*
X98916078Y-104415601D01*
X100019438Y-103312241D02*
X105344412Y-103312241D01*
X98916078Y-104415601D02*
X100019438Y-103312241D01*
X123394600Y-86910977D02*
X125951840Y-84353737D01*
X122277837Y-86910977D02*
X123394600Y-86910977D01*
X118390978Y-90797836D02*
X122277837Y-86910977D01*
X118390978Y-92156140D02*
X118390978Y-90797836D01*
X106463314Y-104083803D02*
X118390978Y-92156140D01*
X125951840Y-84353737D02*
X127899174Y-84353737D01*
X106192719Y-104083803D02*
X106463314Y-104083803D01*
X105992720Y-104283802D02*
X106192719Y-104083803D01*
X127899174Y-84353737D02*
X128182016Y-84353737D01*
X105650602Y-104625920D02*
X105792721Y-104483801D01*
X97910000Y-105870000D02*
X99154080Y-104625920D01*
X99154080Y-104625920D02*
X105650602Y-104625920D01*
X105792721Y-104483801D02*
X105992720Y-104283802D01*
X118707989Y-90929146D02*
X122409147Y-87227988D01*
X122409147Y-87227988D02*
X123525910Y-87227988D01*
X106088753Y-104974041D02*
X106088753Y-104906685D01*
X106088753Y-104906685D02*
X118707989Y-92287449D01*
X118707989Y-92287449D02*
X118707989Y-90929146D01*
X127924844Y-84880123D02*
X128207686Y-84880123D01*
X123525910Y-87227988D02*
X125873775Y-84880123D01*
X125873775Y-84880123D02*
X127924844Y-84880123D01*
X98924399Y-106955601D02*
X100905959Y-104974041D01*
X96455601Y-106955601D02*
X98924399Y-106955601D01*
X95370000Y-105870000D02*
X96455601Y-106955601D01*
X105805911Y-104974041D02*
X106088753Y-104974041D01*
X100905959Y-104974041D02*
X105805911Y-104974041D01*
X123714874Y-91057383D02*
X123997716Y-91057383D01*
X123997716Y-91057383D02*
X124084934Y-91144601D01*
X124084934Y-91144601D02*
X124084934Y-91159049D01*
X132500000Y-90580000D02*
X129840318Y-90580000D01*
X129261269Y-91159049D02*
X124084934Y-91159049D01*
X132900000Y-90180000D02*
X132500000Y-90580000D01*
X129840318Y-90580000D02*
X129261269Y-91159049D01*
X124046545Y-90651524D02*
X123846546Y-90451525D01*
X129320476Y-90651524D02*
X124046545Y-90651524D01*
X132100000Y-90157990D02*
X129814010Y-90157990D01*
X129814010Y-90157990D02*
X129320476Y-90651524D01*
X161988624Y-66284958D02*
X162271466Y-66284958D01*
X156761964Y-67197990D02*
X157674996Y-66284958D01*
X131599142Y-67197990D02*
X156761964Y-67197990D01*
X131329207Y-66928055D02*
X131599142Y-67197990D01*
X157674996Y-66284958D02*
X161988624Y-66284958D01*
X136900000Y-82220000D02*
X136900000Y-78520000D01*
X136900000Y-78520000D02*
X137100000Y-78320000D01*
X171191756Y-66947268D02*
X174411511Y-70167023D01*
X157461007Y-66947268D02*
X171191756Y-66947268D01*
X156788275Y-67620000D02*
X157461007Y-66947268D01*
X174411511Y-70167023D02*
X174611510Y-70367022D01*
X131644095Y-67620000D02*
X156788275Y-67620000D01*
D10*
G36*
X137698507Y-80996827D02*
X137672341Y-81022993D01*
X137605339Y-81022935D01*
X137466726Y-81080208D01*
X137360581Y-81186168D01*
X137303065Y-81324681D01*
X137302935Y-81474661D01*
X137360208Y-81613274D01*
X137466168Y-81719419D01*
X137604681Y-81776935D01*
X137754661Y-81777065D01*
X137893274Y-81719792D01*
X137999419Y-81613832D01*
X138056935Y-81475319D01*
X138056994Y-81407672D01*
X138162840Y-81301826D01*
X138221802Y-81213583D01*
X138242507Y-81109493D01*
X138242507Y-76650000D01*
X139207484Y-76650000D01*
X139167697Y-76745818D01*
X139167567Y-76895798D01*
X139224840Y-77034411D01*
X139295289Y-77104983D01*
X139225213Y-77174937D01*
X139167697Y-77313450D01*
X139167567Y-77463430D01*
X139224840Y-77602043D01*
X139329198Y-77706584D01*
X139278498Y-77828683D01*
X139278368Y-77978663D01*
X139335641Y-78117276D01*
X139441601Y-78223421D01*
X139580114Y-78280937D01*
X139730094Y-78281067D01*
X139868707Y-78223794D01*
X139974852Y-78117834D01*
X140032368Y-77979321D01*
X140032427Y-77911674D01*
X140645668Y-77298433D01*
X140645668Y-79649666D01*
X139272341Y-81022993D01*
X139205339Y-81022935D01*
X139066726Y-81080208D01*
X138960581Y-81186168D01*
X138903065Y-81324681D01*
X138902935Y-81474661D01*
X138960208Y-81613274D01*
X139066168Y-81719419D01*
X139204681Y-81776935D01*
X139354661Y-81777065D01*
X139493274Y-81719792D01*
X139599419Y-81613832D01*
X139656935Y-81475319D01*
X139656994Y-81407672D01*
X139658984Y-81405682D01*
X139658924Y-81474661D01*
X139716197Y-81613274D01*
X139822157Y-81719419D01*
X139960670Y-81776935D01*
X140067285Y-81777027D01*
X140021319Y-81822993D01*
X139954317Y-81822935D01*
X139815704Y-81880208D01*
X139709559Y-81986168D01*
X139652043Y-82124681D01*
X139651913Y-82274661D01*
X139709186Y-82413274D01*
X139815146Y-82519419D01*
X139953659Y-82576935D01*
X140103639Y-82577065D01*
X140242252Y-82519792D01*
X140348397Y-82413832D01*
X140405913Y-82275319D01*
X140405972Y-82207672D01*
X140496041Y-82117603D01*
X140495925Y-82251825D01*
X140553198Y-82390438D01*
X140659158Y-82496583D01*
X140797671Y-82554099D01*
X140947651Y-82554229D01*
X141086264Y-82496956D01*
X141192409Y-82390996D01*
X141249925Y-82252483D01*
X141250055Y-82102503D01*
X141192782Y-81963890D01*
X141086822Y-81857745D01*
X140948309Y-81800229D01*
X140798329Y-81800099D01*
X140717569Y-81833468D01*
X140729999Y-81770979D01*
X140729999Y-81310105D01*
X141427012Y-80613092D01*
X141455010Y-80571190D01*
X141455010Y-81933769D01*
X141407591Y-81981105D01*
X141350075Y-82119618D01*
X141349945Y-82269598D01*
X141407218Y-82408211D01*
X141513178Y-82514356D01*
X141651691Y-82571872D01*
X141801671Y-82572002D01*
X141940284Y-82514729D01*
X142046429Y-82408769D01*
X142103945Y-82270256D01*
X142104075Y-82120276D01*
X142046802Y-81981663D01*
X141999010Y-81933788D01*
X141999010Y-77365177D01*
X142714187Y-76650000D01*
X142917213Y-76650000D01*
X142446769Y-77120444D01*
X142379767Y-77120386D01*
X142241154Y-77177659D01*
X142135009Y-77283619D01*
X142077493Y-77422132D01*
X142077363Y-77572112D01*
X142134636Y-77710725D01*
X142240596Y-77816870D01*
X142261499Y-77825550D01*
X142226876Y-77860173D01*
X142167914Y-77948416D01*
X142147209Y-78052506D01*
X142147209Y-78986815D01*
X142167914Y-79090905D01*
X142226876Y-79179148D01*
X142637030Y-79589302D01*
X142637030Y-80285299D01*
X142535319Y-80243065D01*
X142385339Y-80242935D01*
X142246726Y-80300208D01*
X142140581Y-80406168D01*
X142083065Y-80544681D01*
X142082935Y-80694661D01*
X142140208Y-80833274D01*
X142246168Y-80939419D01*
X142384681Y-80996935D01*
X142534661Y-80997065D01*
X142637030Y-80954768D01*
X142637030Y-81085299D01*
X142535319Y-81043065D01*
X142385339Y-81042935D01*
X142246726Y-81100208D01*
X142140581Y-81206168D01*
X142083065Y-81344681D01*
X142082935Y-81494661D01*
X142140208Y-81633274D01*
X142246168Y-81739419D01*
X142384681Y-81796935D01*
X142534661Y-81797065D01*
X142637030Y-81754768D01*
X142637030Y-81827410D01*
X142496360Y-81827288D01*
X142357747Y-81884561D01*
X142251602Y-81990521D01*
X142194086Y-82129034D01*
X142193956Y-82279014D01*
X142251229Y-82417627D01*
X142357189Y-82523772D01*
X142495702Y-82581288D01*
X142637030Y-82581411D01*
X142637030Y-82663638D01*
X142641727Y-82687250D01*
X142535319Y-82643065D01*
X142385339Y-82642935D01*
X142246726Y-82700208D01*
X142140581Y-82806168D01*
X142097835Y-82909111D01*
X142046802Y-82785601D01*
X141940842Y-82679456D01*
X141802329Y-82621940D01*
X141652349Y-82621810D01*
X141513736Y-82679083D01*
X141407591Y-82785043D01*
X141350075Y-82923556D01*
X141349945Y-83073536D01*
X141407218Y-83212149D01*
X141513178Y-83318294D01*
X141651691Y-83375810D01*
X141801671Y-83375940D01*
X141940284Y-83318667D01*
X142046429Y-83212707D01*
X142089175Y-83109764D01*
X142140208Y-83233274D01*
X142246168Y-83339419D01*
X142384681Y-83396935D01*
X142534661Y-83397065D01*
X142673274Y-83339792D01*
X142779419Y-83233832D01*
X142836935Y-83095319D01*
X142837038Y-82976312D01*
X142910395Y-83049669D01*
X142910337Y-83116671D01*
X142967610Y-83255284D01*
X143073570Y-83361429D01*
X143212083Y-83418945D01*
X143362063Y-83419075D01*
X143500676Y-83361802D01*
X143606821Y-83255842D01*
X143664337Y-83117329D01*
X143664373Y-83074661D01*
X143754348Y-83074661D01*
X143811621Y-83213274D01*
X143917581Y-83319419D01*
X144056094Y-83376935D01*
X144206074Y-83377065D01*
X144344687Y-83319792D01*
X144450832Y-83213832D01*
X144508348Y-83075319D01*
X144508356Y-83066017D01*
X144539821Y-83066017D01*
X144597094Y-83204630D01*
X144703054Y-83310775D01*
X144841567Y-83368291D01*
X144991547Y-83368421D01*
X145130160Y-83311148D01*
X145236305Y-83205188D01*
X145293821Y-83066675D01*
X145293951Y-82916695D01*
X145236678Y-82778082D01*
X145130718Y-82671937D01*
X144992205Y-82614421D01*
X144842225Y-82614291D01*
X144703612Y-82671564D01*
X144597467Y-82777524D01*
X144539951Y-82916037D01*
X144539821Y-83066017D01*
X144508356Y-83066017D01*
X144508478Y-82925339D01*
X144451205Y-82786726D01*
X144345245Y-82680581D01*
X144206732Y-82623065D01*
X144056752Y-82622935D01*
X143918139Y-82680208D01*
X143811994Y-82786168D01*
X143754478Y-82924681D01*
X143754348Y-83074661D01*
X143664373Y-83074661D01*
X143664467Y-82967349D01*
X143607194Y-82828736D01*
X143501234Y-82722591D01*
X143362721Y-82665075D01*
X143295074Y-82665016D01*
X143181030Y-82550972D01*
X143181030Y-82543241D01*
X143257332Y-82574925D01*
X143407312Y-82575055D01*
X143545925Y-82517782D01*
X143652070Y-82411822D01*
X143709586Y-82273309D01*
X143709716Y-82123329D01*
X143652443Y-81984716D01*
X143546483Y-81878571D01*
X143407970Y-81821055D01*
X143257990Y-81820925D01*
X143181030Y-81852724D01*
X143181030Y-81723217D01*
X143255712Y-81754228D01*
X143405692Y-81754358D01*
X143544305Y-81697085D01*
X143650450Y-81591125D01*
X143699321Y-81473431D01*
X143797978Y-81473431D01*
X143855251Y-81612044D01*
X143961211Y-81718189D01*
X144099724Y-81775705D01*
X144249704Y-81775835D01*
X144388317Y-81718562D01*
X144494462Y-81612602D01*
X144547302Y-81485351D01*
X144560216Y-81516607D01*
X144666176Y-81622752D01*
X144804689Y-81680268D01*
X144954669Y-81680398D01*
X145093282Y-81623125D01*
X145199427Y-81517165D01*
X145256943Y-81378652D01*
X145257073Y-81228672D01*
X145199800Y-81090059D01*
X145093840Y-80983914D01*
X144955327Y-80926398D01*
X144805347Y-80926268D01*
X144666734Y-80983541D01*
X144560589Y-81089501D01*
X144507749Y-81216752D01*
X144494835Y-81185496D01*
X144388875Y-81079351D01*
X144250362Y-81021835D01*
X144100382Y-81021705D01*
X143961769Y-81078978D01*
X143855624Y-81184938D01*
X143798108Y-81323451D01*
X143797978Y-81473431D01*
X143699321Y-81473431D01*
X143707966Y-81452612D01*
X143708096Y-81302632D01*
X143650823Y-81164019D01*
X143544863Y-81057874D01*
X143406350Y-81000358D01*
X143256370Y-81000228D01*
X143181030Y-81031357D01*
X143181030Y-79476636D01*
X143160325Y-79372546D01*
X143101363Y-79284303D01*
X142987418Y-79170358D01*
X143110670Y-79119432D01*
X143158545Y-79071640D01*
X143180238Y-79071640D01*
X143284328Y-79050935D01*
X143372571Y-78991973D01*
X143795452Y-78569092D01*
X147729990Y-78569092D01*
X147663864Y-78635103D01*
X147560580Y-78883839D01*
X147560345Y-79153166D01*
X147663195Y-79402082D01*
X147730099Y-79469103D01*
X146842529Y-79469103D01*
X146738439Y-79489808D01*
X146706441Y-79511188D01*
X146695238Y-79499965D01*
X146556725Y-79442449D01*
X146406745Y-79442319D01*
X146268132Y-79499592D01*
X146161987Y-79605552D01*
X146104471Y-79744065D01*
X146104341Y-79894045D01*
X146161614Y-80032658D01*
X146267574Y-80138803D01*
X146406087Y-80196319D01*
X146556067Y-80196449D01*
X146694680Y-80139176D01*
X146742555Y-80091384D01*
X146764248Y-80091384D01*
X146868338Y-80070679D01*
X146954507Y-80013103D01*
X147930104Y-80013103D01*
X147495978Y-80447229D01*
X147437016Y-80535472D01*
X147416311Y-80639562D01*
X147416311Y-80721947D01*
X147368892Y-80769283D01*
X147311376Y-80907796D01*
X147311246Y-81057776D01*
X147368519Y-81196389D01*
X147474479Y-81302534D01*
X147612992Y-81360050D01*
X147762972Y-81360180D01*
X147901585Y-81302907D01*
X148007730Y-81196947D01*
X148034912Y-81131485D01*
X148088740Y-81153837D01*
X147367232Y-81875345D01*
X145149293Y-81875345D01*
X145101957Y-81827926D01*
X144963444Y-81770410D01*
X144813464Y-81770280D01*
X144674851Y-81827553D01*
X144568706Y-81933513D01*
X144521470Y-82047269D01*
X144496454Y-81986724D01*
X144390494Y-81880579D01*
X144251981Y-81823063D01*
X144102001Y-81822933D01*
X143963388Y-81880206D01*
X143857243Y-81986166D01*
X143799727Y-82124679D01*
X143799597Y-82274659D01*
X143856870Y-82413272D01*
X143962830Y-82519417D01*
X144101343Y-82576933D01*
X144251323Y-82577063D01*
X144389936Y-82519790D01*
X144496081Y-82413830D01*
X144543317Y-82300074D01*
X144568333Y-82360619D01*
X144674293Y-82466764D01*
X144812806Y-82524280D01*
X144962786Y-82524410D01*
X145101399Y-82467137D01*
X145149274Y-82419345D01*
X147479898Y-82419345D01*
X147583988Y-82398640D01*
X147672231Y-82339678D01*
X148233598Y-81778311D01*
X148233596Y-81780519D01*
X148290869Y-81919132D01*
X148362029Y-81990416D01*
X148418328Y-82074674D01*
X149091654Y-82748000D01*
X147128702Y-82748000D01*
X147024612Y-82768705D01*
X146950021Y-82818545D01*
X146936369Y-82827667D01*
X145797646Y-83966390D01*
X145300000Y-83966390D01*
X145246049Y-83977122D01*
X145273635Y-83910687D01*
X145273765Y-83760707D01*
X145216492Y-83622094D01*
X145110532Y-83515949D01*
X144972019Y-83458433D01*
X144822039Y-83458303D01*
X144683426Y-83515576D01*
X144577281Y-83621536D01*
X144519765Y-83760049D01*
X144519635Y-83910029D01*
X144546766Y-83975692D01*
X144500000Y-83966390D01*
X144433165Y-83966390D01*
X144480121Y-83853309D01*
X144480251Y-83703329D01*
X144422978Y-83564716D01*
X144317018Y-83458571D01*
X144178505Y-83401055D01*
X144028525Y-83400925D01*
X143889912Y-83458198D01*
X143783767Y-83564158D01*
X143726251Y-83702671D01*
X143726121Y-83852651D01*
X143773116Y-83966390D01*
X143752451Y-83966390D01*
X143660000Y-83948000D01*
X143623762Y-83955208D01*
X143656935Y-83875319D01*
X143657065Y-83725339D01*
X143599792Y-83586726D01*
X143493832Y-83480581D01*
X143355319Y-83423065D01*
X143205339Y-83422935D01*
X143066726Y-83480208D01*
X142960581Y-83586168D01*
X142903065Y-83724681D01*
X142902935Y-83874661D01*
X142960208Y-84013274D01*
X143066168Y-84119419D01*
X143204681Y-84176935D01*
X143318301Y-84177033D01*
X143252341Y-84242993D01*
X143185339Y-84242935D01*
X143046726Y-84300208D01*
X142940581Y-84406168D01*
X142883065Y-84544681D01*
X142882935Y-84694661D01*
X142940208Y-84833274D01*
X143046168Y-84939419D01*
X143184681Y-84996935D01*
X143334661Y-84997065D01*
X143473274Y-84939792D01*
X143579419Y-84833832D01*
X143636935Y-84695319D01*
X143636994Y-84627672D01*
X143754276Y-84510390D01*
X144500000Y-84510390D01*
X144561348Y-84498187D01*
X144535474Y-84560498D01*
X144535344Y-84710478D01*
X144592617Y-84849091D01*
X144698577Y-84955236D01*
X144837090Y-85012752D01*
X144987070Y-85012882D01*
X145125683Y-84955609D01*
X145231828Y-84849649D01*
X145289344Y-84711136D01*
X145289474Y-84561156D01*
X145265677Y-84503563D01*
X145300000Y-84510390D01*
X145910312Y-84510390D01*
X146014402Y-84489685D01*
X146102645Y-84430723D01*
X147241368Y-83292000D01*
X148575592Y-83292000D01*
X148544577Y-83366691D01*
X148544447Y-83516671D01*
X148601720Y-83655284D01*
X148707680Y-83761429D01*
X148846193Y-83818945D01*
X148996173Y-83819075D01*
X149134786Y-83761802D01*
X149182661Y-83714010D01*
X149204354Y-83714010D01*
X149308444Y-83693305D01*
X149396104Y-83634733D01*
X149355559Y-83732375D01*
X149355429Y-83882355D01*
X149412702Y-84020968D01*
X149518662Y-84127113D01*
X149630000Y-84173345D01*
X149630000Y-85102093D01*
X147948558Y-85102093D01*
X147901222Y-85054674D01*
X147762709Y-84997158D01*
X147612729Y-84997028D01*
X147474116Y-85054301D01*
X147367971Y-85160261D01*
X147310455Y-85298774D01*
X147310325Y-85448754D01*
X147367598Y-85587367D01*
X147406289Y-85626126D01*
X145340245Y-85626126D01*
X145330243Y-85619443D01*
X145234577Y-85600414D01*
X145266284Y-85524056D01*
X145266414Y-85374076D01*
X145209141Y-85235463D01*
X145103181Y-85129318D01*
X144964668Y-85071802D01*
X144814688Y-85071672D01*
X144676075Y-85128945D01*
X144569930Y-85234905D01*
X144512414Y-85373418D01*
X144512352Y-85444388D01*
X144478998Y-85411034D01*
X144479075Y-85322558D01*
X144421802Y-85183945D01*
X144315842Y-85077800D01*
X144177329Y-85020284D01*
X144027349Y-85020154D01*
X143888736Y-85077427D01*
X143782591Y-85183387D01*
X143725075Y-85321900D01*
X143724945Y-85471880D01*
X143782218Y-85610493D01*
X143888178Y-85716638D01*
X144026691Y-85774154D01*
X144072826Y-85774194D01*
X144081542Y-85782910D01*
X144088183Y-85792849D01*
X144098122Y-85799490D01*
X144121668Y-85823036D01*
X144005339Y-85822935D01*
X143866726Y-85880208D01*
X143760581Y-85986168D01*
X143703065Y-86124681D01*
X143702935Y-86274661D01*
X143760208Y-86413274D01*
X143866168Y-86519419D01*
X144004681Y-86576935D01*
X144154661Y-86577065D01*
X144293274Y-86519792D01*
X144399419Y-86413832D01*
X144456935Y-86275319D01*
X144457065Y-86125339D01*
X144456214Y-86123280D01*
X144531127Y-86138181D01*
X144498220Y-86217429D01*
X144498090Y-86367409D01*
X144555363Y-86506022D01*
X144661323Y-86612167D01*
X144726208Y-86639110D01*
X144681042Y-86657772D01*
X144574897Y-86763732D01*
X144517381Y-86902245D01*
X144517251Y-87052225D01*
X144574524Y-87190838D01*
X144680484Y-87296983D01*
X144818997Y-87354499D01*
X144968977Y-87354629D01*
X145107590Y-87297356D01*
X145213735Y-87191396D01*
X145271251Y-87052883D01*
X145271381Y-86902903D01*
X145214108Y-86764290D01*
X145108148Y-86658145D01*
X145043263Y-86631202D01*
X145088429Y-86612540D01*
X145194574Y-86506580D01*
X145252090Y-86368067D01*
X145252220Y-86218087D01*
X145230510Y-86165545D01*
X145253541Y-86170126D01*
X149630000Y-86170126D01*
X149630000Y-86541625D01*
X149609241Y-86533005D01*
X149459261Y-86532875D01*
X149320648Y-86590148D01*
X149214503Y-86696108D01*
X149156987Y-86834621D01*
X149156857Y-86984601D01*
X149214130Y-87123214D01*
X149320090Y-87229359D01*
X149458603Y-87286875D01*
X149608583Y-87287005D01*
X149630000Y-87278156D01*
X149630000Y-87952678D01*
X149212717Y-87952678D01*
X148860546Y-87600507D01*
X148860604Y-87533505D01*
X148803331Y-87394892D01*
X148697371Y-87288747D01*
X148558858Y-87231231D01*
X148408878Y-87231101D01*
X148270265Y-87288374D01*
X148164120Y-87394334D01*
X148161413Y-87400853D01*
X148124623Y-87363999D01*
X147986110Y-87306483D01*
X147836130Y-87306353D01*
X147697517Y-87363626D01*
X147591372Y-87469586D01*
X147533856Y-87608099D01*
X147533726Y-87758079D01*
X147590999Y-87896692D01*
X147696959Y-88002837D01*
X147835472Y-88060353D01*
X147903119Y-88060412D01*
X148635040Y-88792333D01*
X148723283Y-88851295D01*
X148827373Y-88872000D01*
X149630000Y-88872000D01*
X149630000Y-89088000D01*
X145400288Y-89088000D01*
X145296198Y-89108705D01*
X145253651Y-89137134D01*
X145219019Y-89160275D01*
X145175606Y-89055207D01*
X145070728Y-88950146D01*
X145090922Y-88941802D01*
X145197067Y-88835842D01*
X145254583Y-88697329D01*
X145254713Y-88547349D01*
X145197440Y-88408736D01*
X145091480Y-88302591D01*
X144952967Y-88245075D01*
X144802987Y-88244945D01*
X144664374Y-88302218D01*
X144558229Y-88408178D01*
X144500713Y-88546691D01*
X144500583Y-88696671D01*
X144557856Y-88835284D01*
X144662734Y-88940345D01*
X144642540Y-88948689D01*
X144536395Y-89054649D01*
X144478879Y-89193162D01*
X144478749Y-89343142D01*
X144509879Y-89418483D01*
X144453220Y-89418483D01*
X144453305Y-89320640D01*
X144396032Y-89182027D01*
X144290072Y-89075882D01*
X144151559Y-89018366D01*
X144001579Y-89018236D01*
X143862966Y-89075509D01*
X143756821Y-89181469D01*
X143699305Y-89319982D01*
X143699175Y-89469962D01*
X143741732Y-89572958D01*
X143679003Y-89572958D01*
X143574913Y-89593663D01*
X143486670Y-89652625D01*
X143314351Y-89824944D01*
X143247349Y-89824886D01*
X143119693Y-89877632D01*
X143119693Y-88919230D01*
X143246691Y-88971965D01*
X143396671Y-88972095D01*
X143535284Y-88914822D01*
X143641429Y-88808862D01*
X143698945Y-88670349D01*
X143698954Y-88659171D01*
X143705767Y-88659171D01*
X143763040Y-88797784D01*
X143869000Y-88903929D01*
X144007513Y-88961445D01*
X144157493Y-88961575D01*
X144296106Y-88904302D01*
X144402251Y-88798342D01*
X144459767Y-88659829D01*
X144459897Y-88509849D01*
X144402624Y-88371236D01*
X144296664Y-88265091D01*
X144158151Y-88207575D01*
X144008171Y-88207445D01*
X143869558Y-88264718D01*
X143763413Y-88370678D01*
X143705897Y-88509191D01*
X143705767Y-88659171D01*
X143698954Y-88659171D01*
X143699075Y-88520369D01*
X143641802Y-88381756D01*
X143535842Y-88275611D01*
X143397329Y-88218095D01*
X143247349Y-88217965D01*
X143119693Y-88270711D01*
X143119693Y-87341645D01*
X143204681Y-87376935D01*
X143354661Y-87377065D01*
X143493274Y-87319792D01*
X143599419Y-87213832D01*
X143656935Y-87075319D01*
X143657065Y-86925339D01*
X143599792Y-86786726D01*
X143493832Y-86680581D01*
X143355319Y-86623065D01*
X143281665Y-86623001D01*
X143307659Y-86597007D01*
X143374661Y-86597065D01*
X143513274Y-86539792D01*
X143619419Y-86433832D01*
X143676935Y-86295319D01*
X143677065Y-86145339D01*
X143619792Y-86006726D01*
X143513832Y-85900581D01*
X143375319Y-85843065D01*
X143225339Y-85842935D01*
X143086726Y-85900208D01*
X142980581Y-86006168D01*
X142923065Y-86144681D01*
X142923006Y-86212328D01*
X142655360Y-86479974D01*
X142596398Y-86568217D01*
X142575693Y-86672307D01*
X142575693Y-90764598D01*
X142491822Y-90680581D01*
X142353309Y-90623065D01*
X142203329Y-90622935D01*
X142064716Y-90680208D01*
X141958571Y-90786168D01*
X141901055Y-90924681D01*
X141900925Y-91074661D01*
X141958198Y-91213274D01*
X142064158Y-91319419D01*
X142202671Y-91376935D01*
X142352651Y-91377065D01*
X142491264Y-91319792D01*
X142575693Y-91235510D01*
X142575693Y-93786825D01*
X142596398Y-93890915D01*
X142655360Y-93979158D01*
X146017780Y-97341578D01*
X146017722Y-97408580D01*
X146074995Y-97547193D01*
X146180955Y-97653338D01*
X146319468Y-97710854D01*
X146469448Y-97710984D01*
X146608061Y-97653711D01*
X146714206Y-97547751D01*
X146771722Y-97409238D01*
X146771852Y-97259258D01*
X146736239Y-97173068D01*
X146834566Y-97173068D01*
X146799050Y-97258600D01*
X146798920Y-97408580D01*
X146856193Y-97547193D01*
X146962153Y-97653338D01*
X147100666Y-97710854D01*
X147250646Y-97710984D01*
X147336063Y-97675691D01*
X147346691Y-97729122D01*
X147405653Y-97817365D01*
X148538288Y-98950000D01*
X136300224Y-98950000D01*
X136300224Y-98183897D01*
X136347643Y-98136561D01*
X136405159Y-97998048D01*
X136405289Y-97848068D01*
X136348016Y-97709455D01*
X136242056Y-97603310D01*
X136103543Y-97545794D01*
X135953563Y-97545664D01*
X135814950Y-97602937D01*
X135708805Y-97708897D01*
X135662869Y-97819523D01*
X135592335Y-97790235D01*
X135442355Y-97790105D01*
X135303742Y-97847378D01*
X135197597Y-97953338D01*
X135140081Y-98091851D01*
X135140022Y-98159498D01*
X134349520Y-98950000D01*
X131386390Y-98950000D01*
X131386390Y-98129652D01*
X133501717Y-96014325D01*
X133532601Y-96089071D01*
X133534214Y-96090687D01*
X133443429Y-96181314D01*
X133385913Y-96319827D01*
X133385783Y-96469807D01*
X133443056Y-96608420D01*
X133549016Y-96714565D01*
X133687529Y-96772081D01*
X133837509Y-96772211D01*
X133976122Y-96714938D01*
X134082267Y-96608978D01*
X134139783Y-96470465D01*
X134139913Y-96320485D01*
X134082640Y-96181872D01*
X134081027Y-96180256D01*
X134113542Y-96147797D01*
X139401778Y-96147797D01*
X140903650Y-97649669D01*
X140903592Y-97716671D01*
X140960865Y-97855284D01*
X141066825Y-97961429D01*
X141205338Y-98018945D01*
X141355318Y-98019075D01*
X141493931Y-97961802D01*
X141600076Y-97855842D01*
X141657592Y-97717329D01*
X141657722Y-97567349D01*
X141600449Y-97428736D01*
X141494489Y-97322591D01*
X141355976Y-97265075D01*
X141288329Y-97265016D01*
X139706777Y-95683464D01*
X139618534Y-95624502D01*
X139514444Y-95603797D01*
X134113561Y-95603797D01*
X134066225Y-95556378D01*
X133945478Y-95506239D01*
X133957482Y-95445894D01*
X133957482Y-93663464D01*
X134004901Y-93616128D01*
X134062417Y-93477615D01*
X134062547Y-93327635D01*
X134005274Y-93189022D01*
X133899314Y-93082877D01*
X133760801Y-93025361D01*
X133610821Y-93025231D01*
X133472208Y-93082504D01*
X133366063Y-93188464D01*
X133308547Y-93326977D01*
X133308417Y-93476957D01*
X133365690Y-93615570D01*
X133413482Y-93663445D01*
X133413482Y-95333228D01*
X132363350Y-96383360D01*
X132363396Y-96330132D01*
X132306123Y-96191519D01*
X132200163Y-96085374D01*
X132061650Y-96027858D01*
X131911670Y-96027728D01*
X131773057Y-96085001D01*
X131666912Y-96190961D01*
X131609396Y-96329474D01*
X131609337Y-96397121D01*
X130500047Y-97506411D01*
X130441085Y-97594654D01*
X130420380Y-97698744D01*
X130420380Y-98950000D01*
X127330000Y-98950000D01*
X127330000Y-94187868D01*
X129676267Y-94187868D01*
X129733540Y-94326481D01*
X129839500Y-94432626D01*
X129978013Y-94490142D01*
X130127993Y-94490272D01*
X130266606Y-94432999D01*
X130372751Y-94327039D01*
X130430267Y-94188526D01*
X130430397Y-94038546D01*
X130373124Y-93899933D01*
X130267164Y-93793788D01*
X130128651Y-93736272D01*
X129978671Y-93736142D01*
X129840058Y-93793415D01*
X129733913Y-93899375D01*
X129676397Y-94037888D01*
X129676267Y-94187868D01*
X127330000Y-94187868D01*
X127330000Y-93675827D01*
X128994682Y-93675827D01*
X129051955Y-93814440D01*
X129157915Y-93920585D01*
X129296428Y-93978101D01*
X129446408Y-93978231D01*
X129585021Y-93920958D01*
X129691166Y-93814998D01*
X129748682Y-93676485D01*
X129748812Y-93526505D01*
X129691539Y-93387892D01*
X129662632Y-93358934D01*
X129834286Y-93358934D01*
X129891559Y-93497547D01*
X129997519Y-93603692D01*
X130136032Y-93661208D01*
X130203679Y-93661267D01*
X130612714Y-94070302D01*
X130612714Y-95126982D01*
X130497319Y-95079065D01*
X130347339Y-95078935D01*
X130208726Y-95136208D01*
X130102581Y-95242168D01*
X130045065Y-95380681D01*
X130044935Y-95530661D01*
X130102208Y-95669274D01*
X130208168Y-95775419D01*
X130346681Y-95832935D01*
X130496661Y-95833065D01*
X130635274Y-95775792D01*
X130726576Y-95684649D01*
X130764921Y-95777451D01*
X130870881Y-95883596D01*
X131009394Y-95941112D01*
X131159374Y-95941242D01*
X131297987Y-95883969D01*
X131404132Y-95778009D01*
X131461648Y-95639496D01*
X131461778Y-95489516D01*
X131404505Y-95350903D01*
X131389832Y-95336204D01*
X131390825Y-95336205D01*
X131529438Y-95278932D01*
X131635583Y-95172972D01*
X131693099Y-95034459D01*
X131693229Y-94884479D01*
X131635956Y-94745866D01*
X131529996Y-94639721D01*
X131391483Y-94582205D01*
X131241503Y-94582075D01*
X131156714Y-94617109D01*
X131156714Y-94274661D01*
X131702935Y-94274661D01*
X131760208Y-94413274D01*
X131866168Y-94519419D01*
X132004681Y-94576935D01*
X132154661Y-94577065D01*
X132293274Y-94519792D01*
X132399419Y-94413832D01*
X132456935Y-94275319D01*
X132456938Y-94271734D01*
X132469169Y-94271734D01*
X132526442Y-94410347D01*
X132632402Y-94516492D01*
X132770915Y-94574008D01*
X132920895Y-94574138D01*
X133059508Y-94516865D01*
X133165653Y-94410905D01*
X133223169Y-94272392D01*
X133223299Y-94122412D01*
X133166026Y-93983799D01*
X133060066Y-93877654D01*
X132921553Y-93820138D01*
X132771573Y-93820008D01*
X132632960Y-93877281D01*
X132526815Y-93983241D01*
X132469299Y-94121754D01*
X132469169Y-94271734D01*
X132456938Y-94271734D01*
X132457065Y-94125339D01*
X132399792Y-93986726D01*
X132293832Y-93880581D01*
X132155319Y-93823065D01*
X132005339Y-93822935D01*
X131866726Y-93880208D01*
X131760581Y-93986168D01*
X131703065Y-94124681D01*
X131702935Y-94274661D01*
X131156714Y-94274661D01*
X131156714Y-93957636D01*
X131136009Y-93853546D01*
X131077047Y-93765303D01*
X130786405Y-93474661D01*
X131654925Y-93474661D01*
X131712198Y-93613274D01*
X131818158Y-93719419D01*
X131956671Y-93776935D01*
X132106651Y-93777065D01*
X132245264Y-93719792D01*
X132351409Y-93613832D01*
X132408925Y-93475319D01*
X132409055Y-93325339D01*
X132351782Y-93186726D01*
X132245822Y-93080581D01*
X132107309Y-93023065D01*
X131957329Y-93022935D01*
X131818716Y-93080208D01*
X131712571Y-93186168D01*
X131655055Y-93324681D01*
X131654925Y-93474661D01*
X130786405Y-93474661D01*
X130588358Y-93276614D01*
X130588416Y-93209612D01*
X130531143Y-93070999D01*
X130425183Y-92964854D01*
X130286670Y-92907338D01*
X130136690Y-92907208D01*
X129998077Y-92964481D01*
X129891932Y-93070441D01*
X129834416Y-93208954D01*
X129834286Y-93358934D01*
X129662632Y-93358934D01*
X129585579Y-93281747D01*
X129447066Y-93224231D01*
X129297086Y-93224101D01*
X129158473Y-93281374D01*
X129052328Y-93387334D01*
X128994812Y-93525847D01*
X128994682Y-93675827D01*
X127330000Y-93675827D01*
X127330000Y-92747628D01*
X130321858Y-92747628D01*
X130369194Y-92795047D01*
X130507707Y-92852563D01*
X130657687Y-92852693D01*
X130796300Y-92795420D01*
X130902445Y-92689460D01*
X130938704Y-92602139D01*
X131733688Y-92602139D01*
X131790961Y-92740752D01*
X131896921Y-92846897D01*
X132035434Y-92904413D01*
X132185414Y-92904543D01*
X132324027Y-92847270D01*
X132430172Y-92741310D01*
X132457847Y-92674661D01*
X132502935Y-92674661D01*
X132560208Y-92813274D01*
X132666168Y-92919419D01*
X132804681Y-92976935D01*
X132954661Y-92977065D01*
X133093274Y-92919792D01*
X133199419Y-92813832D01*
X133256935Y-92675319D01*
X133256935Y-92674661D01*
X133302935Y-92674661D01*
X133360208Y-92813274D01*
X133466168Y-92919419D01*
X133604681Y-92976935D01*
X133754661Y-92977065D01*
X133893274Y-92919792D01*
X133999419Y-92813832D01*
X134056935Y-92675319D01*
X134057065Y-92525339D01*
X133999792Y-92386726D01*
X133893832Y-92280581D01*
X133755319Y-92223065D01*
X133605339Y-92222935D01*
X133466726Y-92280208D01*
X133360581Y-92386168D01*
X133303065Y-92524681D01*
X133302935Y-92674661D01*
X133256935Y-92674661D01*
X133257065Y-92525339D01*
X133199792Y-92386726D01*
X133093832Y-92280581D01*
X132955319Y-92223065D01*
X132805339Y-92222935D01*
X132666726Y-92280208D01*
X132560581Y-92386168D01*
X132503065Y-92524681D01*
X132502935Y-92674661D01*
X132457847Y-92674661D01*
X132487688Y-92602797D01*
X132487818Y-92452817D01*
X132430545Y-92314204D01*
X132324585Y-92208059D01*
X132186072Y-92150543D01*
X132036092Y-92150413D01*
X131897479Y-92207686D01*
X131791334Y-92313646D01*
X131733818Y-92452159D01*
X131733688Y-92602139D01*
X130938704Y-92602139D01*
X130959961Y-92550947D01*
X130960091Y-92400967D01*
X130902818Y-92262354D01*
X130796858Y-92156209D01*
X130658345Y-92098693D01*
X130508365Y-92098563D01*
X130369752Y-92155836D01*
X130321877Y-92203628D01*
X129871210Y-92203628D01*
X129875023Y-92199822D01*
X129932539Y-92061309D01*
X129932552Y-92045935D01*
X130057903Y-92046044D01*
X130196516Y-91988771D01*
X130302661Y-91882811D01*
X130306045Y-91874661D01*
X133302935Y-91874661D01*
X133360208Y-92013274D01*
X133466168Y-92119419D01*
X133604681Y-92176935D01*
X133754661Y-92177065D01*
X133893274Y-92119792D01*
X133999419Y-92013832D01*
X134056935Y-91875319D01*
X134057065Y-91725339D01*
X134051841Y-91712695D01*
X137281986Y-91712695D01*
X137339259Y-91851308D01*
X137445219Y-91957453D01*
X137583732Y-92014969D01*
X137733712Y-92015099D01*
X137872325Y-91957826D01*
X137978470Y-91851866D01*
X138035986Y-91713353D01*
X138036116Y-91563373D01*
X137978843Y-91424760D01*
X137872883Y-91318615D01*
X137734370Y-91261099D01*
X137584390Y-91260969D01*
X137445777Y-91318242D01*
X137339632Y-91424202D01*
X137282116Y-91562715D01*
X137281986Y-91712695D01*
X134051841Y-91712695D01*
X133999792Y-91586726D01*
X133893832Y-91480581D01*
X133755319Y-91423065D01*
X133605339Y-91422935D01*
X133466726Y-91480208D01*
X133360581Y-91586168D01*
X133303065Y-91724681D01*
X133302935Y-91874661D01*
X130306045Y-91874661D01*
X130360177Y-91744298D01*
X130360307Y-91594318D01*
X130303034Y-91455705D01*
X130197074Y-91349560D01*
X130058561Y-91292044D01*
X129908581Y-91291914D01*
X129905166Y-91293325D01*
X129873237Y-91286974D01*
X129518010Y-91286974D01*
X129952984Y-90852000D01*
X131731418Y-90852000D01*
X131700403Y-90926691D01*
X131700273Y-91076671D01*
X131757546Y-91215284D01*
X131863506Y-91321429D01*
X132002019Y-91378945D01*
X132151999Y-91379075D01*
X132290612Y-91321802D01*
X132396757Y-91215842D01*
X132454273Y-91077329D01*
X132454403Y-90927349D01*
X132423270Y-90852000D01*
X132500000Y-90852000D01*
X132536238Y-90844792D01*
X132503065Y-90924681D01*
X132502935Y-91074661D01*
X132560208Y-91213274D01*
X132666168Y-91319419D01*
X132804681Y-91376935D01*
X132954661Y-91377065D01*
X133093274Y-91319792D01*
X133199419Y-91213832D01*
X133256935Y-91075319D01*
X133256935Y-91074661D01*
X134102935Y-91074661D01*
X134160208Y-91213274D01*
X134266168Y-91319419D01*
X134404681Y-91376935D01*
X134554661Y-91377065D01*
X134693274Y-91319792D01*
X134799419Y-91213832D01*
X134856935Y-91075319D01*
X134857065Y-90925339D01*
X134799792Y-90786726D01*
X134693832Y-90680581D01*
X134555319Y-90623065D01*
X134405339Y-90622935D01*
X134266726Y-90680208D01*
X134160581Y-90786168D01*
X134103065Y-90924681D01*
X134102935Y-91074661D01*
X133256935Y-91074661D01*
X133257065Y-90925339D01*
X133199792Y-90786726D01*
X133093832Y-90680581D01*
X132955319Y-90623065D01*
X132841699Y-90622967D01*
X132907659Y-90557007D01*
X132974661Y-90557065D01*
X133113274Y-90499792D01*
X133219419Y-90393832D01*
X133271051Y-90269487D01*
X136508109Y-90269487D01*
X136565382Y-90408100D01*
X136671342Y-90514245D01*
X136809855Y-90571761D01*
X136959835Y-90571891D01*
X137098448Y-90514618D01*
X137204593Y-90408658D01*
X137262109Y-90270145D01*
X137262171Y-90197651D01*
X137311936Y-90197651D01*
X137369209Y-90336264D01*
X137475169Y-90442409D01*
X137613682Y-90499925D01*
X137763662Y-90500055D01*
X137902275Y-90442782D01*
X138008420Y-90336822D01*
X138043495Y-90252352D01*
X138908738Y-90252352D01*
X138966011Y-90390965D01*
X139071971Y-90497110D01*
X139210484Y-90554626D01*
X139360464Y-90554756D01*
X139499077Y-90497483D01*
X139605222Y-90391523D01*
X139662738Y-90253010D01*
X139662785Y-90197651D01*
X139717825Y-90197651D01*
X139775098Y-90336264D01*
X139881058Y-90442409D01*
X140019571Y-90499925D01*
X140169551Y-90500055D01*
X140308164Y-90442782D01*
X140414309Y-90336822D01*
X140471825Y-90198309D01*
X140471955Y-90048329D01*
X140414682Y-89909716D01*
X140308722Y-89803571D01*
X140170209Y-89746055D01*
X140020229Y-89745925D01*
X139881616Y-89803198D01*
X139775471Y-89909158D01*
X139717955Y-90047671D01*
X139717825Y-90197651D01*
X139662785Y-90197651D01*
X139662868Y-90103030D01*
X139605595Y-89964417D01*
X139499635Y-89858272D01*
X139361122Y-89800756D01*
X139211142Y-89800626D01*
X139072529Y-89857899D01*
X138966384Y-89963859D01*
X138908868Y-90102372D01*
X138908738Y-90252352D01*
X138043495Y-90252352D01*
X138065936Y-90198309D01*
X138066066Y-90048329D01*
X138008793Y-89909716D01*
X137902833Y-89803571D01*
X137764320Y-89746055D01*
X137614340Y-89745925D01*
X137475727Y-89803198D01*
X137369582Y-89909158D01*
X137312066Y-90047671D01*
X137311936Y-90197651D01*
X137262171Y-90197651D01*
X137262239Y-90120165D01*
X137204966Y-89981552D01*
X137099006Y-89875407D01*
X136960493Y-89817891D01*
X136810513Y-89817761D01*
X136671900Y-89875034D01*
X136565755Y-89980994D01*
X136508239Y-90119507D01*
X136508109Y-90269487D01*
X133271051Y-90269487D01*
X133276935Y-90255319D01*
X133277065Y-90105339D01*
X133219792Y-89966726D01*
X133113832Y-89860581D01*
X132975319Y-89803065D01*
X132825339Y-89802935D01*
X132686726Y-89860208D01*
X132580581Y-89966168D01*
X132523065Y-90104681D01*
X132523006Y-90172328D01*
X132476948Y-90218386D01*
X132477065Y-90083329D01*
X132419792Y-89944716D01*
X132313832Y-89838571D01*
X132175319Y-89781055D01*
X132166408Y-89781047D01*
X132288898Y-89730436D01*
X132395043Y-89624476D01*
X132452559Y-89485963D01*
X132452591Y-89448125D01*
X136567465Y-89448125D01*
X136624738Y-89586738D01*
X136730698Y-89692883D01*
X136869211Y-89750399D01*
X137019191Y-89750529D01*
X137157804Y-89693256D01*
X137263949Y-89587296D01*
X137321465Y-89448783D01*
X137321485Y-89425627D01*
X139661876Y-89425627D01*
X139719149Y-89564240D01*
X139825109Y-89670385D01*
X139963622Y-89727901D01*
X140113602Y-89728031D01*
X140252215Y-89670758D01*
X140358360Y-89564798D01*
X140415876Y-89426285D01*
X140416006Y-89276305D01*
X140358733Y-89137692D01*
X140252773Y-89031547D01*
X140114260Y-88974031D01*
X139964280Y-88973901D01*
X139825667Y-89031174D01*
X139719522Y-89137134D01*
X139662006Y-89275647D01*
X139661876Y-89425627D01*
X137321485Y-89425627D01*
X137321595Y-89298803D01*
X137264322Y-89160190D01*
X137158362Y-89054045D01*
X137019849Y-88996529D01*
X136869869Y-88996399D01*
X136731256Y-89053672D01*
X136625111Y-89159632D01*
X136567595Y-89298145D01*
X136567465Y-89448125D01*
X132452591Y-89448125D01*
X132452689Y-89335983D01*
X132395416Y-89197370D01*
X132289456Y-89091225D01*
X132150943Y-89033709D01*
X132000963Y-89033579D01*
X131862350Y-89090852D01*
X131756205Y-89196812D01*
X131698689Y-89335325D01*
X131698559Y-89485305D01*
X131755832Y-89623918D01*
X131861792Y-89730063D01*
X132000305Y-89787579D01*
X132009216Y-89787587D01*
X131886726Y-89838198D01*
X131838851Y-89885990D01*
X129826228Y-89885990D01*
X129826303Y-89799273D01*
X129769030Y-89660660D01*
X129663070Y-89554515D01*
X129524557Y-89496999D01*
X129374577Y-89496869D01*
X129235964Y-89554142D01*
X129129819Y-89660102D01*
X129072303Y-89798615D01*
X129072173Y-89948595D01*
X129129446Y-90087208D01*
X129235406Y-90193353D01*
X129347454Y-90239880D01*
X129207810Y-90379524D01*
X127650844Y-90379524D01*
X127685205Y-90296775D01*
X127685335Y-90146795D01*
X127628062Y-90008182D01*
X127522102Y-89902037D01*
X127383589Y-89844521D01*
X127330000Y-89844475D01*
X127330000Y-89631585D01*
X127935029Y-89631585D01*
X127992302Y-89770198D01*
X128098262Y-89876343D01*
X128236775Y-89933859D01*
X128386755Y-89933989D01*
X128525368Y-89876716D01*
X128631513Y-89770756D01*
X128689029Y-89632243D01*
X128689159Y-89482263D01*
X128631886Y-89343650D01*
X128525926Y-89237505D01*
X128387413Y-89179989D01*
X128237433Y-89179859D01*
X128098820Y-89237132D01*
X127992675Y-89343092D01*
X127935159Y-89481605D01*
X127935029Y-89631585D01*
X127330000Y-89631585D01*
X127330000Y-88669663D01*
X127359472Y-88640242D01*
X127362506Y-88632935D01*
X131706984Y-88632935D01*
X131764257Y-88771548D01*
X131870217Y-88877693D01*
X132008730Y-88935209D01*
X132158710Y-88935339D01*
X132297323Y-88878066D01*
X132403468Y-88772106D01*
X132443930Y-88674661D01*
X132502935Y-88674661D01*
X132560208Y-88813274D01*
X132666168Y-88919419D01*
X132804681Y-88976935D01*
X132954661Y-88977065D01*
X133093274Y-88919792D01*
X133199419Y-88813832D01*
X133249483Y-88693263D01*
X134896241Y-88693263D01*
X134953514Y-88831876D01*
X135059474Y-88938021D01*
X135197987Y-88995537D01*
X135347967Y-88995667D01*
X135486580Y-88938394D01*
X135592725Y-88832434D01*
X135650241Y-88693921D01*
X135650257Y-88674661D01*
X141302935Y-88674661D01*
X141360208Y-88813274D01*
X141466168Y-88919419D01*
X141604681Y-88976935D01*
X141754661Y-88977065D01*
X141893274Y-88919792D01*
X141999419Y-88813832D01*
X142056935Y-88675319D01*
X142057065Y-88525339D01*
X141999792Y-88386726D01*
X141893832Y-88280581D01*
X141755319Y-88223065D01*
X141605339Y-88222935D01*
X141466726Y-88280208D01*
X141360581Y-88386168D01*
X141303065Y-88524681D01*
X141302935Y-88674661D01*
X135650257Y-88674661D01*
X135650371Y-88543941D01*
X135593098Y-88405328D01*
X135487138Y-88299183D01*
X135348625Y-88241667D01*
X135198645Y-88241537D01*
X135060032Y-88298810D01*
X134953887Y-88404770D01*
X134896371Y-88543283D01*
X134896241Y-88693263D01*
X133249483Y-88693263D01*
X133256935Y-88675319D01*
X133257065Y-88525339D01*
X133199792Y-88386726D01*
X133093832Y-88280581D01*
X132955319Y-88223065D01*
X132805339Y-88222935D01*
X132666726Y-88280208D01*
X132560581Y-88386168D01*
X132503065Y-88524681D01*
X132502935Y-88674661D01*
X132443930Y-88674661D01*
X132460984Y-88633593D01*
X132461114Y-88483613D01*
X132403841Y-88345000D01*
X132297881Y-88238855D01*
X132159368Y-88181339D01*
X132009388Y-88181209D01*
X131870775Y-88238482D01*
X131764630Y-88344442D01*
X131707114Y-88482955D01*
X131706984Y-88632935D01*
X127362506Y-88632935D01*
X127416988Y-88501729D01*
X127417118Y-88351749D01*
X127359845Y-88213136D01*
X127330000Y-88183239D01*
X127330000Y-87890887D01*
X140519161Y-87890887D01*
X140576434Y-88029500D01*
X140682394Y-88135645D01*
X140820907Y-88193161D01*
X140970887Y-88193291D01*
X141109500Y-88136018D01*
X141215645Y-88030058D01*
X141273161Y-87891545D01*
X141273291Y-87741565D01*
X141216018Y-87602952D01*
X141110058Y-87496807D01*
X140971545Y-87439291D01*
X140821565Y-87439161D01*
X140682952Y-87496434D01*
X140576807Y-87602394D01*
X140519291Y-87740907D01*
X140519161Y-87890887D01*
X127330000Y-87890887D01*
X127330000Y-87202518D01*
X128399590Y-87202518D01*
X128456863Y-87341131D01*
X128562823Y-87447276D01*
X128701336Y-87504792D01*
X128851316Y-87504922D01*
X128989929Y-87447649D01*
X129096074Y-87341689D01*
X129153590Y-87203176D01*
X129153720Y-87053196D01*
X129096447Y-86914583D01*
X128990487Y-86808438D01*
X128851974Y-86750922D01*
X128701994Y-86750792D01*
X128563381Y-86808065D01*
X128457236Y-86914025D01*
X128399720Y-87052538D01*
X128399590Y-87202518D01*
X127330000Y-87202518D01*
X127330000Y-85152123D01*
X127946518Y-85152123D01*
X127993854Y-85199542D01*
X128132367Y-85257058D01*
X128282347Y-85257188D01*
X128420960Y-85199915D01*
X128446095Y-85174824D01*
X128446049Y-85228221D01*
X128503322Y-85366834D01*
X128609282Y-85472979D01*
X128747795Y-85530495D01*
X128897775Y-85530625D01*
X129036388Y-85473352D01*
X129142533Y-85367392D01*
X129200049Y-85228879D01*
X129200179Y-85078899D01*
X129142906Y-84940286D01*
X129036946Y-84834141D01*
X128898433Y-84776625D01*
X128748453Y-84776495D01*
X128609840Y-84833768D01*
X128584705Y-84858859D01*
X128584751Y-84805462D01*
X128527478Y-84666849D01*
X128464839Y-84604101D01*
X128501435Y-84567569D01*
X128553749Y-84441584D01*
X128697320Y-84441708D01*
X128835933Y-84384435D01*
X128942078Y-84278475D01*
X128999594Y-84139962D01*
X128999623Y-84106185D01*
X129037099Y-84131225D01*
X129110610Y-84145847D01*
X129110602Y-84154590D01*
X129167875Y-84293203D01*
X129273835Y-84399348D01*
X129412348Y-84456864D01*
X129562328Y-84456994D01*
X129700941Y-84399721D01*
X129807086Y-84293761D01*
X129839323Y-84216125D01*
X131620785Y-85997587D01*
X131709028Y-86056549D01*
X131755617Y-86065816D01*
X131706091Y-86185086D01*
X131705961Y-86335066D01*
X131763234Y-86473679D01*
X131869194Y-86579824D01*
X131989138Y-86629629D01*
X131866726Y-86680208D01*
X131760581Y-86786168D01*
X131703065Y-86924681D01*
X131702935Y-87074661D01*
X131760208Y-87213274D01*
X131866168Y-87319419D01*
X132004681Y-87376935D01*
X132154661Y-87377065D01*
X132293274Y-87319792D01*
X132399419Y-87213832D01*
X132456935Y-87075319D01*
X132457065Y-86925339D01*
X132399792Y-86786726D01*
X132293832Y-86680581D01*
X132173888Y-86630776D01*
X132296300Y-86580197D01*
X132402445Y-86474237D01*
X132459961Y-86335724D01*
X132460013Y-86274661D01*
X134902935Y-86274661D01*
X134960208Y-86413274D01*
X135066168Y-86519419D01*
X135204681Y-86576935D01*
X135354661Y-86577065D01*
X135493274Y-86519792D01*
X135599419Y-86413832D01*
X135656519Y-86276319D01*
X136534040Y-86276319D01*
X136595416Y-86424860D01*
X136708963Y-86538606D01*
X136857397Y-86600241D01*
X137018118Y-86600381D01*
X137166659Y-86539005D01*
X137280405Y-86425458D01*
X137342040Y-86277024D01*
X137342048Y-86267630D01*
X139637537Y-86267630D01*
X139694810Y-86406243D01*
X139800770Y-86512388D01*
X139939283Y-86569904D01*
X140089263Y-86570034D01*
X140227876Y-86512761D01*
X140334021Y-86406801D01*
X140388890Y-86274661D01*
X141302935Y-86274661D01*
X141360208Y-86413274D01*
X141466168Y-86519419D01*
X141604681Y-86576935D01*
X141754661Y-86577065D01*
X141893274Y-86519792D01*
X141999419Y-86413832D01*
X142056935Y-86275319D01*
X142057065Y-86125339D01*
X141999792Y-85986726D01*
X141893832Y-85880581D01*
X141755319Y-85823065D01*
X141605339Y-85822935D01*
X141466726Y-85880208D01*
X141360581Y-85986168D01*
X141303065Y-86124681D01*
X141302935Y-86274661D01*
X140388890Y-86274661D01*
X140391537Y-86268288D01*
X140391667Y-86118308D01*
X140334394Y-85979695D01*
X140228434Y-85873550D01*
X140089921Y-85816034D01*
X139939941Y-85815904D01*
X139801328Y-85873177D01*
X139695183Y-85979137D01*
X139637667Y-86117650D01*
X139637537Y-86267630D01*
X137342048Y-86267630D01*
X137342180Y-86116303D01*
X137280804Y-85967762D01*
X137167257Y-85854016D01*
X137018823Y-85792381D01*
X136858102Y-85792241D01*
X136709561Y-85853617D01*
X136595815Y-85967164D01*
X136534180Y-86115598D01*
X136534040Y-86276319D01*
X135656519Y-86276319D01*
X135656935Y-86275319D01*
X135657065Y-86125339D01*
X135599792Y-85986726D01*
X135493832Y-85880581D01*
X135355319Y-85823065D01*
X135205339Y-85822935D01*
X135066726Y-85880208D01*
X134960581Y-85986168D01*
X134903065Y-86124681D01*
X134902935Y-86274661D01*
X132460013Y-86274661D01*
X132460091Y-86185744D01*
X132415264Y-86077254D01*
X133274746Y-86077254D01*
X133378836Y-86056549D01*
X133467079Y-85997587D01*
X133687659Y-85777007D01*
X133754661Y-85777065D01*
X133893274Y-85719792D01*
X133999419Y-85613832D01*
X134040598Y-85514661D01*
X134902935Y-85514661D01*
X134960208Y-85653274D01*
X135066168Y-85759419D01*
X135204681Y-85816935D01*
X135354661Y-85817065D01*
X135493274Y-85759792D01*
X135599419Y-85653832D01*
X135656935Y-85515319D01*
X135656970Y-85474661D01*
X141302935Y-85474661D01*
X141360208Y-85613274D01*
X141466168Y-85719419D01*
X141604681Y-85776935D01*
X141754661Y-85777065D01*
X141893274Y-85719792D01*
X141999419Y-85613832D01*
X142056935Y-85475319D01*
X142057065Y-85325339D01*
X141999792Y-85186726D01*
X141893832Y-85080581D01*
X141755319Y-85023065D01*
X141605339Y-85022935D01*
X141466726Y-85080208D01*
X141360581Y-85186168D01*
X141303065Y-85324681D01*
X141302935Y-85474661D01*
X135656970Y-85474661D01*
X135657065Y-85365339D01*
X135599792Y-85226726D01*
X135493832Y-85120581D01*
X135355319Y-85063065D01*
X135205339Y-85062935D01*
X135066726Y-85120208D01*
X134960581Y-85226168D01*
X134903065Y-85364681D01*
X134902935Y-85514661D01*
X134040598Y-85514661D01*
X134056935Y-85475319D01*
X134057065Y-85325339D01*
X133999792Y-85186726D01*
X133893832Y-85080581D01*
X133755319Y-85023065D01*
X133605339Y-85022935D01*
X133466726Y-85080208D01*
X133360581Y-85186168D01*
X133303065Y-85324681D01*
X133303006Y-85392328D01*
X133189954Y-85505380D01*
X133211576Y-85453309D01*
X133211706Y-85303329D01*
X133154433Y-85164716D01*
X133048473Y-85058571D01*
X132909960Y-85001055D01*
X132759980Y-85000925D01*
X132621367Y-85058198D01*
X132515222Y-85164158D01*
X132457706Y-85302671D01*
X132457576Y-85452651D01*
X132490880Y-85533254D01*
X132416724Y-85533254D01*
X132449920Y-85453309D01*
X132450050Y-85303329D01*
X132392777Y-85164716D01*
X132286817Y-85058571D01*
X132148304Y-85001055D01*
X131998324Y-85000925D01*
X131859711Y-85058198D01*
X131753566Y-85164158D01*
X131696050Y-85302671D01*
X131696049Y-85303519D01*
X130342826Y-83950296D01*
X130417902Y-83919275D01*
X130524047Y-83813315D01*
X130581563Y-83674802D01*
X130581693Y-83524822D01*
X130524420Y-83386209D01*
X130476628Y-83338334D01*
X130476628Y-82736596D01*
X130455923Y-82632506D01*
X130396961Y-82544263D01*
X130146718Y-82294020D01*
X130146718Y-82270362D01*
X131468689Y-83592333D01*
X131473348Y-83595446D01*
X131476281Y-83598379D01*
X131564524Y-83657341D01*
X131668614Y-83678046D01*
X131737762Y-83678046D01*
X131706747Y-83752737D01*
X131706617Y-83902717D01*
X131763890Y-84041330D01*
X131869850Y-84147475D01*
X131939892Y-84176559D01*
X131848825Y-84214187D01*
X131742680Y-84320147D01*
X131685164Y-84458660D01*
X131685034Y-84608640D01*
X131742307Y-84747253D01*
X131848267Y-84853398D01*
X131986780Y-84910914D01*
X132136760Y-84911044D01*
X132275373Y-84853771D01*
X132381518Y-84747811D01*
X132413885Y-84669861D01*
X133294877Y-84669861D01*
X133352150Y-84808474D01*
X133458110Y-84914619D01*
X133596623Y-84972135D01*
X133746603Y-84972265D01*
X133885216Y-84914992D01*
X133991361Y-84809032D01*
X134048877Y-84670519D01*
X134048930Y-84608746D01*
X137303491Y-84608746D01*
X137360764Y-84747359D01*
X137466724Y-84853504D01*
X137605237Y-84911020D01*
X137755217Y-84911150D01*
X137893830Y-84853877D01*
X137999975Y-84747917D01*
X138025681Y-84686010D01*
X138895452Y-84686010D01*
X138952725Y-84824623D01*
X139058685Y-84930768D01*
X139197198Y-84988284D01*
X139347178Y-84988414D01*
X139485791Y-84931141D01*
X139591936Y-84825181D01*
X139649452Y-84686668D01*
X139649582Y-84536688D01*
X139592309Y-84398075D01*
X139486349Y-84291930D01*
X139347836Y-84234414D01*
X139197856Y-84234284D01*
X139059243Y-84291557D01*
X138953098Y-84397517D01*
X138895582Y-84536030D01*
X138895452Y-84686010D01*
X138025681Y-84686010D01*
X138057491Y-84609404D01*
X138057621Y-84459424D01*
X138000348Y-84320811D01*
X137894388Y-84214666D01*
X137755875Y-84157150D01*
X137605895Y-84157020D01*
X137467282Y-84214293D01*
X137361137Y-84320253D01*
X137303621Y-84458766D01*
X137303491Y-84608746D01*
X134048930Y-84608746D01*
X134049007Y-84520539D01*
X133991734Y-84381926D01*
X133885774Y-84275781D01*
X133747261Y-84218265D01*
X133597281Y-84218135D01*
X133458668Y-84275408D01*
X133352523Y-84381368D01*
X133295007Y-84519881D01*
X133294877Y-84669861D01*
X132413885Y-84669861D01*
X132439034Y-84609298D01*
X132439164Y-84459318D01*
X132381891Y-84320705D01*
X132275931Y-84214560D01*
X132205889Y-84185476D01*
X132296956Y-84147848D01*
X132403101Y-84041888D01*
X132460617Y-83903375D01*
X132460747Y-83753395D01*
X132458449Y-83747834D01*
X132534965Y-83747834D01*
X132503954Y-83822516D01*
X132503824Y-83972496D01*
X132561097Y-84111109D01*
X132667057Y-84217254D01*
X132805570Y-84274770D01*
X132955550Y-84274900D01*
X133094163Y-84217627D01*
X133200308Y-84111667D01*
X133257824Y-83973154D01*
X133257954Y-83823174D01*
X133226825Y-83747834D01*
X133243168Y-83747834D01*
X133302993Y-83807659D01*
X133302935Y-83874661D01*
X133360208Y-84013274D01*
X133466168Y-84119419D01*
X133604681Y-84176935D01*
X133754661Y-84177065D01*
X133893274Y-84119792D01*
X133999419Y-84013832D01*
X134056935Y-83875319D01*
X134056935Y-83874661D01*
X134102935Y-83874661D01*
X134160208Y-84013274D01*
X134266168Y-84119419D01*
X134404681Y-84176935D01*
X134554661Y-84177065D01*
X134693274Y-84119792D01*
X134799419Y-84013832D01*
X134856935Y-83875319D01*
X134856935Y-83874661D01*
X142102935Y-83874661D01*
X142160208Y-84013274D01*
X142266168Y-84119419D01*
X142404681Y-84176935D01*
X142554661Y-84177065D01*
X142693274Y-84119792D01*
X142799419Y-84013832D01*
X142856935Y-83875319D01*
X142857065Y-83725339D01*
X142799792Y-83586726D01*
X142693832Y-83480581D01*
X142555319Y-83423065D01*
X142405339Y-83422935D01*
X142266726Y-83480208D01*
X142160581Y-83586168D01*
X142103065Y-83724681D01*
X142102935Y-83874661D01*
X134856935Y-83874661D01*
X134857065Y-83725339D01*
X134799792Y-83586726D01*
X134693832Y-83480581D01*
X134555319Y-83423065D01*
X134405339Y-83422935D01*
X134266726Y-83480208D01*
X134160581Y-83586168D01*
X134103065Y-83724681D01*
X134102935Y-83874661D01*
X134056935Y-83874661D01*
X134057065Y-83725339D01*
X133999792Y-83586726D01*
X133893832Y-83480581D01*
X133755319Y-83423065D01*
X133687672Y-83423006D01*
X133641633Y-83376967D01*
X133754661Y-83377065D01*
X133893274Y-83319792D01*
X133999419Y-83213832D01*
X134048068Y-83096671D01*
X134902935Y-83096671D01*
X134960208Y-83235284D01*
X135066168Y-83341429D01*
X135204681Y-83398945D01*
X135354661Y-83399075D01*
X135493274Y-83341802D01*
X135599419Y-83235842D01*
X135656935Y-83097329D01*
X135657065Y-82947349D01*
X135599792Y-82808736D01*
X135493832Y-82702591D01*
X135355319Y-82645075D01*
X135205339Y-82644945D01*
X135066726Y-82702218D01*
X134960581Y-82808178D01*
X134903065Y-82946691D01*
X134902935Y-83096671D01*
X134048068Y-83096671D01*
X134056935Y-83075319D01*
X134057065Y-82925339D01*
X133999792Y-82786726D01*
X133893832Y-82680581D01*
X133755319Y-82623065D01*
X133687672Y-82623006D01*
X133632249Y-82567583D01*
X133723050Y-82567662D01*
X133861663Y-82510389D01*
X133967808Y-82404429D01*
X134025324Y-82265916D01*
X134025333Y-82254816D01*
X134056914Y-82254816D01*
X134114187Y-82393429D01*
X134220147Y-82499574D01*
X134358660Y-82557090D01*
X134508640Y-82557220D01*
X134647253Y-82499947D01*
X134753398Y-82393987D01*
X134810914Y-82255474D01*
X134811044Y-82105494D01*
X134753771Y-81966881D01*
X134647811Y-81860736D01*
X134509298Y-81803220D01*
X134359318Y-81803090D01*
X134220705Y-81860363D01*
X134114560Y-81966323D01*
X134057044Y-82104836D01*
X134056914Y-82254816D01*
X134025333Y-82254816D01*
X134025454Y-82115936D01*
X133968181Y-81977323D01*
X133862221Y-81871178D01*
X133723708Y-81813662D01*
X133573728Y-81813532D01*
X133435115Y-81870805D01*
X133328970Y-81976765D01*
X133271454Y-82115278D01*
X133271324Y-82265258D01*
X133279515Y-82285081D01*
X133226545Y-82274545D01*
X132417123Y-82274545D01*
X132456942Y-82178652D01*
X132457072Y-82028672D01*
X132399799Y-81890059D01*
X132293839Y-81783914D01*
X132216155Y-81751657D01*
X132293274Y-81719792D01*
X132399419Y-81613832D01*
X132431677Y-81536146D01*
X132463547Y-81613278D01*
X132569507Y-81719423D01*
X132708020Y-81776939D01*
X132858000Y-81777069D01*
X132996613Y-81719796D01*
X133102758Y-81613836D01*
X133154451Y-81489346D01*
X133250294Y-81489346D01*
X133307567Y-81627959D01*
X133413527Y-81734104D01*
X133552040Y-81791620D01*
X133702020Y-81791750D01*
X133840633Y-81734477D01*
X133946778Y-81628517D01*
X134004294Y-81490004D01*
X134004301Y-81481412D01*
X134094305Y-81481412D01*
X134151578Y-81620025D01*
X134257538Y-81726170D01*
X134396051Y-81783686D01*
X134546031Y-81783816D01*
X134684644Y-81726543D01*
X134790789Y-81620583D01*
X134848305Y-81482070D01*
X134848435Y-81332090D01*
X134791162Y-81193477D01*
X134685202Y-81087332D01*
X134546689Y-81029816D01*
X134396709Y-81029686D01*
X134258096Y-81086959D01*
X134151951Y-81192919D01*
X134094435Y-81331432D01*
X134094305Y-81481412D01*
X134004301Y-81481412D01*
X134004424Y-81340024D01*
X133947151Y-81201411D01*
X133841191Y-81095266D01*
X133702678Y-81037750D01*
X133552698Y-81037620D01*
X133414085Y-81094893D01*
X133307940Y-81200853D01*
X133250424Y-81339366D01*
X133250294Y-81489346D01*
X133154451Y-81489346D01*
X133160274Y-81475323D01*
X133160404Y-81325343D01*
X133103131Y-81186730D01*
X132997171Y-81080585D01*
X132858658Y-81023069D01*
X132708678Y-81022939D01*
X132570065Y-81080212D01*
X132463920Y-81186172D01*
X132431662Y-81263858D01*
X132399792Y-81186726D01*
X132293832Y-81080581D01*
X132155319Y-81023065D01*
X132005339Y-81022935D01*
X131866726Y-81080208D01*
X131760581Y-81186168D01*
X131703065Y-81324681D01*
X131702935Y-81474661D01*
X131760208Y-81613274D01*
X131866168Y-81719419D01*
X131943852Y-81751676D01*
X131866733Y-81783541D01*
X131760588Y-81889501D01*
X131703072Y-82028014D01*
X131702970Y-82145426D01*
X130227957Y-80670413D01*
X130898237Y-80670413D01*
X130955510Y-80809026D01*
X131061470Y-80915171D01*
X131199983Y-80972687D01*
X131349963Y-80972817D01*
X131488576Y-80915544D01*
X131594721Y-80809584D01*
X131652237Y-80671071D01*
X131652367Y-80521091D01*
X131595094Y-80382478D01*
X131489134Y-80276333D01*
X131350621Y-80218817D01*
X131200641Y-80218687D01*
X131062028Y-80275960D01*
X130955883Y-80381920D01*
X130898367Y-80520433D01*
X130898237Y-80670413D01*
X130227957Y-80670413D01*
X129834997Y-80277453D01*
X129835027Y-80241896D01*
X130112839Y-80241896D01*
X130170112Y-80380509D01*
X130276072Y-80486654D01*
X130414585Y-80544170D01*
X130564565Y-80544300D01*
X130703178Y-80487027D01*
X130809323Y-80381067D01*
X130866839Y-80242554D01*
X130866969Y-80092574D01*
X130809696Y-79953961D01*
X130703736Y-79847816D01*
X130565223Y-79790300D01*
X130415243Y-79790170D01*
X130276630Y-79847443D01*
X130170485Y-79953403D01*
X130112969Y-80091916D01*
X130112839Y-80241896D01*
X129835027Y-80241896D01*
X129835055Y-80210451D01*
X129777782Y-80071838D01*
X129671822Y-79965693D01*
X129533309Y-79908177D01*
X129383329Y-79908047D01*
X129244716Y-79965320D01*
X129138571Y-80071280D01*
X129138146Y-80072304D01*
X129018912Y-80022794D01*
X128868932Y-80022664D01*
X128730319Y-80079937D01*
X128680032Y-80130136D01*
X128630414Y-80080431D01*
X128491901Y-80022915D01*
X128341921Y-80022785D01*
X128203308Y-80080058D01*
X128149321Y-80133951D01*
X128103457Y-80088007D01*
X127964944Y-80030491D01*
X127933820Y-80030464D01*
X128299737Y-79664547D01*
X131470245Y-79664547D01*
X131527518Y-79803160D01*
X131633478Y-79909305D01*
X131771991Y-79966821D01*
X131921971Y-79966951D01*
X132060584Y-79909678D01*
X132166729Y-79803718D01*
X132224245Y-79665205D01*
X132224375Y-79515225D01*
X132167102Y-79376612D01*
X132061142Y-79270467D01*
X131922629Y-79212951D01*
X131772649Y-79212821D01*
X131634036Y-79270094D01*
X131527891Y-79376054D01*
X131470375Y-79514567D01*
X131470245Y-79664547D01*
X128299737Y-79664547D01*
X128422286Y-79541998D01*
X131185203Y-79541998D01*
X131289293Y-79521293D01*
X131377536Y-79462331D01*
X131716985Y-79122882D01*
X131783987Y-79122940D01*
X131922600Y-79065667D01*
X132028745Y-78959707D01*
X132086261Y-78821194D01*
X132086391Y-78671214D01*
X132029118Y-78532601D01*
X131923158Y-78426456D01*
X131784645Y-78368940D01*
X131634665Y-78368810D01*
X131496052Y-78426083D01*
X131389907Y-78532043D01*
X131332391Y-78670556D01*
X131332332Y-78738203D01*
X131072537Y-78997998D01*
X130774018Y-78997998D01*
X131260793Y-78511223D01*
X131327795Y-78511281D01*
X131466408Y-78454008D01*
X131572553Y-78348048D01*
X131630069Y-78209535D01*
X131630199Y-78059555D01*
X131572926Y-77920942D01*
X131466966Y-77814797D01*
X131328453Y-77757281D01*
X131233854Y-77757199D01*
X131233893Y-77712159D01*
X131176620Y-77573546D01*
X131070660Y-77467401D01*
X130932147Y-77409885D01*
X130782167Y-77409755D01*
X130643554Y-77467028D01*
X130537409Y-77572988D01*
X130479893Y-77711501D01*
X130479763Y-77861481D01*
X130537036Y-78000094D01*
X130642996Y-78106239D01*
X130781509Y-78163755D01*
X130838879Y-78163805D01*
X130321697Y-78680987D01*
X128062897Y-78680987D01*
X128133230Y-78610654D01*
X128200232Y-78610712D01*
X128338845Y-78553439D01*
X128444990Y-78447479D01*
X128502506Y-78308966D01*
X128502543Y-78265710D01*
X128515225Y-78270976D01*
X128665205Y-78271106D01*
X128803818Y-78213833D01*
X128909963Y-78107873D01*
X128967479Y-77969360D01*
X128967609Y-77819380D01*
X128910336Y-77680767D01*
X128804376Y-77574622D01*
X128665863Y-77517106D01*
X128598216Y-77517047D01*
X128582878Y-77501709D01*
X128494635Y-77442747D01*
X128484296Y-77440690D01*
X128501704Y-77398766D01*
X128569614Y-77426965D01*
X128719594Y-77427095D01*
X128858207Y-77369822D01*
X128964352Y-77263862D01*
X129002757Y-77171373D01*
X129025468Y-77194084D01*
X129025470Y-77194087D01*
X129046170Y-77207918D01*
X129115335Y-77254133D01*
X129221339Y-77275219D01*
X129221344Y-77275218D01*
X131699846Y-77275218D01*
X131603876Y-77371021D01*
X131546360Y-77509534D01*
X131546230Y-77659514D01*
X131603503Y-77798127D01*
X131709463Y-77904272D01*
X131847976Y-77961788D01*
X131997956Y-77961918D01*
X132136569Y-77904645D01*
X132242714Y-77798685D01*
X132300230Y-77660172D01*
X132300360Y-77510192D01*
X132243087Y-77371579D01*
X132146894Y-77275218D01*
X132159137Y-77275218D01*
X132282461Y-77398542D01*
X132372326Y-77458588D01*
X132478330Y-77479674D01*
X132478335Y-77479673D01*
X132504995Y-77479673D01*
X132547340Y-77522092D01*
X132685853Y-77579608D01*
X132835833Y-77579738D01*
X132974446Y-77522465D01*
X133080591Y-77416505D01*
X133138107Y-77277992D01*
X133138237Y-77128012D01*
X133080964Y-76989399D01*
X133019155Y-76927482D01*
X133056664Y-76890039D01*
X133114180Y-76751526D01*
X133114214Y-76712457D01*
X133199738Y-76797981D01*
X133199738Y-78142931D01*
X133220443Y-78247021D01*
X133279405Y-78335264D01*
X133955474Y-79011333D01*
X134043717Y-79070295D01*
X134147807Y-79091000D01*
X134351832Y-79091000D01*
X134399168Y-79138419D01*
X134537681Y-79195935D01*
X134687661Y-79196065D01*
X134826274Y-79138792D01*
X134932419Y-79032832D01*
X134989935Y-78894319D01*
X134989978Y-78845101D01*
X135466978Y-79322101D01*
X135466978Y-81096090D01*
X135392287Y-81065075D01*
X135242307Y-81064945D01*
X135103694Y-81122218D01*
X134997549Y-81228178D01*
X134940033Y-81366691D01*
X134939903Y-81516671D01*
X134997176Y-81655284D01*
X135103136Y-81761429D01*
X135236519Y-81816815D01*
X135203329Y-81816786D01*
X135064716Y-81874059D01*
X134958571Y-81980019D01*
X134901055Y-82118532D01*
X134900925Y-82268512D01*
X134958198Y-82407125D01*
X135064158Y-82513270D01*
X135202671Y-82570786D01*
X135352651Y-82570916D01*
X135491264Y-82513643D01*
X135597409Y-82407683D01*
X135654925Y-82269170D01*
X135654984Y-82201523D01*
X135801468Y-82055039D01*
X135747620Y-82184719D01*
X135747490Y-82334699D01*
X135804763Y-82473312D01*
X135910723Y-82579457D01*
X136015450Y-82622944D01*
X136005339Y-82622935D01*
X135866726Y-82680208D01*
X135760581Y-82786168D01*
X135703065Y-82924681D01*
X135702935Y-83074661D01*
X135760208Y-83213274D01*
X135866168Y-83319419D01*
X136004681Y-83376935D01*
X136154661Y-83377065D01*
X136293274Y-83319792D01*
X136399419Y-83213832D01*
X136448903Y-83094661D01*
X136522935Y-83094661D01*
X136580208Y-83233274D01*
X136686168Y-83339419D01*
X136824681Y-83396935D01*
X136974661Y-83397065D01*
X137113274Y-83339792D01*
X137219419Y-83233832D01*
X137268377Y-83115927D01*
X140484264Y-83115927D01*
X140541537Y-83254540D01*
X140647497Y-83360685D01*
X140786010Y-83418201D01*
X140935990Y-83418331D01*
X141074603Y-83361058D01*
X141180748Y-83255098D01*
X141238264Y-83116585D01*
X141238394Y-82966605D01*
X141181121Y-82827992D01*
X141075161Y-82721847D01*
X140936648Y-82664331D01*
X140786668Y-82664201D01*
X140648055Y-82721474D01*
X140541910Y-82827434D01*
X140484394Y-82965947D01*
X140484264Y-83115927D01*
X137268377Y-83115927D01*
X137276935Y-83095319D01*
X137277065Y-82945339D01*
X137219792Y-82806726D01*
X137113832Y-82700581D01*
X136975319Y-82643065D01*
X136825339Y-82642935D01*
X136686726Y-82700208D01*
X136580581Y-82806168D01*
X136523065Y-82944681D01*
X136522935Y-83094661D01*
X136448903Y-83094661D01*
X136456935Y-83075319D01*
X136457065Y-82925339D01*
X136399792Y-82786726D01*
X136293832Y-82680581D01*
X136189105Y-82637094D01*
X136199216Y-82637103D01*
X136337829Y-82579830D01*
X136443974Y-82473870D01*
X136501490Y-82335357D01*
X136501549Y-82267710D01*
X136522977Y-82246282D01*
X136522935Y-82294661D01*
X136580208Y-82433274D01*
X136686168Y-82539419D01*
X136824681Y-82596935D01*
X136974661Y-82597065D01*
X137113274Y-82539792D01*
X137219419Y-82433832D01*
X137276935Y-82295319D01*
X137277065Y-82145339D01*
X137219792Y-82006726D01*
X137172000Y-81958851D01*
X137172000Y-78697063D01*
X137174661Y-78697065D01*
X137313274Y-78639792D01*
X137419419Y-78533832D01*
X137476935Y-78395319D01*
X137477065Y-78245339D01*
X137419792Y-78106726D01*
X137342841Y-78029641D01*
X137417068Y-77955544D01*
X137474584Y-77817031D01*
X137474714Y-77667051D01*
X137417441Y-77528438D01*
X137358104Y-77468997D01*
X137398305Y-77428866D01*
X137455821Y-77290353D01*
X137455951Y-77140373D01*
X137398678Y-77001760D01*
X137377177Y-76980222D01*
X137452847Y-76904684D01*
X137510363Y-76766171D01*
X137510464Y-76650000D01*
X137698507Y-76650000D01*
X137698507Y-80996827D01*
X137698507Y-80996827D01*
G37*
X137698507Y-80996827D02*
X137672341Y-81022993D01*
X137605339Y-81022935D01*
X137466726Y-81080208D01*
X137360581Y-81186168D01*
X137303065Y-81324681D01*
X137302935Y-81474661D01*
X137360208Y-81613274D01*
X137466168Y-81719419D01*
X137604681Y-81776935D01*
X137754661Y-81777065D01*
X137893274Y-81719792D01*
X137999419Y-81613832D01*
X138056935Y-81475319D01*
X138056994Y-81407672D01*
X138162840Y-81301826D01*
X138221802Y-81213583D01*
X138242507Y-81109493D01*
X138242507Y-76650000D01*
X139207484Y-76650000D01*
X139167697Y-76745818D01*
X139167567Y-76895798D01*
X139224840Y-77034411D01*
X139295289Y-77104983D01*
X139225213Y-77174937D01*
X139167697Y-77313450D01*
X139167567Y-77463430D01*
X139224840Y-77602043D01*
X139329198Y-77706584D01*
X139278498Y-77828683D01*
X139278368Y-77978663D01*
X139335641Y-78117276D01*
X139441601Y-78223421D01*
X139580114Y-78280937D01*
X139730094Y-78281067D01*
X139868707Y-78223794D01*
X139974852Y-78117834D01*
X140032368Y-77979321D01*
X140032427Y-77911674D01*
X140645668Y-77298433D01*
X140645668Y-79649666D01*
X139272341Y-81022993D01*
X139205339Y-81022935D01*
X139066726Y-81080208D01*
X138960581Y-81186168D01*
X138903065Y-81324681D01*
X138902935Y-81474661D01*
X138960208Y-81613274D01*
X139066168Y-81719419D01*
X139204681Y-81776935D01*
X139354661Y-81777065D01*
X139493274Y-81719792D01*
X139599419Y-81613832D01*
X139656935Y-81475319D01*
X139656994Y-81407672D01*
X139658984Y-81405682D01*
X139658924Y-81474661D01*
X139716197Y-81613274D01*
X139822157Y-81719419D01*
X139960670Y-81776935D01*
X140067285Y-81777027D01*
X140021319Y-81822993D01*
X139954317Y-81822935D01*
X139815704Y-81880208D01*
X139709559Y-81986168D01*
X139652043Y-82124681D01*
X139651913Y-82274661D01*
X139709186Y-82413274D01*
X139815146Y-82519419D01*
X139953659Y-82576935D01*
X140103639Y-82577065D01*
X140242252Y-82519792D01*
X140348397Y-82413832D01*
X140405913Y-82275319D01*
X140405972Y-82207672D01*
X140496041Y-82117603D01*
X140495925Y-82251825D01*
X140553198Y-82390438D01*
X140659158Y-82496583D01*
X140797671Y-82554099D01*
X140947651Y-82554229D01*
X141086264Y-82496956D01*
X141192409Y-82390996D01*
X141249925Y-82252483D01*
X141250055Y-82102503D01*
X141192782Y-81963890D01*
X141086822Y-81857745D01*
X140948309Y-81800229D01*
X140798329Y-81800099D01*
X140717569Y-81833468D01*
X140729999Y-81770979D01*
X140729999Y-81310105D01*
X141427012Y-80613092D01*
X141455010Y-80571190D01*
X141455010Y-81933769D01*
X141407591Y-81981105D01*
X141350075Y-82119618D01*
X141349945Y-82269598D01*
X141407218Y-82408211D01*
X141513178Y-82514356D01*
X141651691Y-82571872D01*
X141801671Y-82572002D01*
X141940284Y-82514729D01*
X142046429Y-82408769D01*
X142103945Y-82270256D01*
X142104075Y-82120276D01*
X142046802Y-81981663D01*
X141999010Y-81933788D01*
X141999010Y-77365177D01*
X142714187Y-76650000D01*
X142917213Y-76650000D01*
X142446769Y-77120444D01*
X142379767Y-77120386D01*
X142241154Y-77177659D01*
X142135009Y-77283619D01*
X142077493Y-77422132D01*
X142077363Y-77572112D01*
X142134636Y-77710725D01*
X142240596Y-77816870D01*
X142261499Y-77825550D01*
X142226876Y-77860173D01*
X142167914Y-77948416D01*
X142147209Y-78052506D01*
X142147209Y-78986815D01*
X142167914Y-79090905D01*
X142226876Y-79179148D01*
X142637030Y-79589302D01*
X142637030Y-80285299D01*
X142535319Y-80243065D01*
X142385339Y-80242935D01*
X142246726Y-80300208D01*
X142140581Y-80406168D01*
X142083065Y-80544681D01*
X142082935Y-80694661D01*
X142140208Y-80833274D01*
X142246168Y-80939419D01*
X142384681Y-80996935D01*
X142534661Y-80997065D01*
X142637030Y-80954768D01*
X142637030Y-81085299D01*
X142535319Y-81043065D01*
X142385339Y-81042935D01*
X142246726Y-81100208D01*
X142140581Y-81206168D01*
X142083065Y-81344681D01*
X142082935Y-81494661D01*
X142140208Y-81633274D01*
X142246168Y-81739419D01*
X142384681Y-81796935D01*
X142534661Y-81797065D01*
X142637030Y-81754768D01*
X142637030Y-81827410D01*
X142496360Y-81827288D01*
X142357747Y-81884561D01*
X142251602Y-81990521D01*
X142194086Y-82129034D01*
X142193956Y-82279014D01*
X142251229Y-82417627D01*
X142357189Y-82523772D01*
X142495702Y-82581288D01*
X142637030Y-82581411D01*
X142637030Y-82663638D01*
X142641727Y-82687250D01*
X142535319Y-82643065D01*
X142385339Y-82642935D01*
X142246726Y-82700208D01*
X142140581Y-82806168D01*
X142097835Y-82909111D01*
X142046802Y-82785601D01*
X141940842Y-82679456D01*
X141802329Y-82621940D01*
X141652349Y-82621810D01*
X141513736Y-82679083D01*
X141407591Y-82785043D01*
X141350075Y-82923556D01*
X141349945Y-83073536D01*
X141407218Y-83212149D01*
X141513178Y-83318294D01*
X141651691Y-83375810D01*
X141801671Y-83375940D01*
X141940284Y-83318667D01*
X142046429Y-83212707D01*
X142089175Y-83109764D01*
X142140208Y-83233274D01*
X142246168Y-83339419D01*
X142384681Y-83396935D01*
X142534661Y-83397065D01*
X142673274Y-83339792D01*
X142779419Y-83233832D01*
X142836935Y-83095319D01*
X142837038Y-82976312D01*
X142910395Y-83049669D01*
X142910337Y-83116671D01*
X142967610Y-83255284D01*
X143073570Y-83361429D01*
X143212083Y-83418945D01*
X143362063Y-83419075D01*
X143500676Y-83361802D01*
X143606821Y-83255842D01*
X143664337Y-83117329D01*
X143664373Y-83074661D01*
X143754348Y-83074661D01*
X143811621Y-83213274D01*
X143917581Y-83319419D01*
X144056094Y-83376935D01*
X144206074Y-83377065D01*
X144344687Y-83319792D01*
X144450832Y-83213832D01*
X144508348Y-83075319D01*
X144508356Y-83066017D01*
X144539821Y-83066017D01*
X144597094Y-83204630D01*
X144703054Y-83310775D01*
X144841567Y-83368291D01*
X144991547Y-83368421D01*
X145130160Y-83311148D01*
X145236305Y-83205188D01*
X145293821Y-83066675D01*
X145293951Y-82916695D01*
X145236678Y-82778082D01*
X145130718Y-82671937D01*
X144992205Y-82614421D01*
X144842225Y-82614291D01*
X144703612Y-82671564D01*
X144597467Y-82777524D01*
X144539951Y-82916037D01*
X144539821Y-83066017D01*
X144508356Y-83066017D01*
X144508478Y-82925339D01*
X144451205Y-82786726D01*
X144345245Y-82680581D01*
X144206732Y-82623065D01*
X144056752Y-82622935D01*
X143918139Y-82680208D01*
X143811994Y-82786168D01*
X143754478Y-82924681D01*
X143754348Y-83074661D01*
X143664373Y-83074661D01*
X143664467Y-82967349D01*
X143607194Y-82828736D01*
X143501234Y-82722591D01*
X143362721Y-82665075D01*
X143295074Y-82665016D01*
X143181030Y-82550972D01*
X143181030Y-82543241D01*
X143257332Y-82574925D01*
X143407312Y-82575055D01*
X143545925Y-82517782D01*
X143652070Y-82411822D01*
X143709586Y-82273309D01*
X143709716Y-82123329D01*
X143652443Y-81984716D01*
X143546483Y-81878571D01*
X143407970Y-81821055D01*
X143257990Y-81820925D01*
X143181030Y-81852724D01*
X143181030Y-81723217D01*
X143255712Y-81754228D01*
X143405692Y-81754358D01*
X143544305Y-81697085D01*
X143650450Y-81591125D01*
X143699321Y-81473431D01*
X143797978Y-81473431D01*
X143855251Y-81612044D01*
X143961211Y-81718189D01*
X144099724Y-81775705D01*
X144249704Y-81775835D01*
X144388317Y-81718562D01*
X144494462Y-81612602D01*
X144547302Y-81485351D01*
X144560216Y-81516607D01*
X144666176Y-81622752D01*
X144804689Y-81680268D01*
X144954669Y-81680398D01*
X145093282Y-81623125D01*
X145199427Y-81517165D01*
X145256943Y-81378652D01*
X145257073Y-81228672D01*
X145199800Y-81090059D01*
X145093840Y-80983914D01*
X144955327Y-80926398D01*
X144805347Y-80926268D01*
X144666734Y-80983541D01*
X144560589Y-81089501D01*
X144507749Y-81216752D01*
X144494835Y-81185496D01*
X144388875Y-81079351D01*
X144250362Y-81021835D01*
X144100382Y-81021705D01*
X143961769Y-81078978D01*
X143855624Y-81184938D01*
X143798108Y-81323451D01*
X143797978Y-81473431D01*
X143699321Y-81473431D01*
X143707966Y-81452612D01*
X143708096Y-81302632D01*
X143650823Y-81164019D01*
X143544863Y-81057874D01*
X143406350Y-81000358D01*
X143256370Y-81000228D01*
X143181030Y-81031357D01*
X143181030Y-79476636D01*
X143160325Y-79372546D01*
X143101363Y-79284303D01*
X142987418Y-79170358D01*
X143110670Y-79119432D01*
X143158545Y-79071640D01*
X143180238Y-79071640D01*
X143284328Y-79050935D01*
X143372571Y-78991973D01*
X143795452Y-78569092D01*
X147729990Y-78569092D01*
X147663864Y-78635103D01*
X147560580Y-78883839D01*
X147560345Y-79153166D01*
X147663195Y-79402082D01*
X147730099Y-79469103D01*
X146842529Y-79469103D01*
X146738439Y-79489808D01*
X146706441Y-79511188D01*
X146695238Y-79499965D01*
X146556725Y-79442449D01*
X146406745Y-79442319D01*
X146268132Y-79499592D01*
X146161987Y-79605552D01*
X146104471Y-79744065D01*
X146104341Y-79894045D01*
X146161614Y-80032658D01*
X146267574Y-80138803D01*
X146406087Y-80196319D01*
X146556067Y-80196449D01*
X146694680Y-80139176D01*
X146742555Y-80091384D01*
X146764248Y-80091384D01*
X146868338Y-80070679D01*
X146954507Y-80013103D01*
X147930104Y-80013103D01*
X147495978Y-80447229D01*
X147437016Y-80535472D01*
X147416311Y-80639562D01*
X147416311Y-80721947D01*
X147368892Y-80769283D01*
X147311376Y-80907796D01*
X147311246Y-81057776D01*
X147368519Y-81196389D01*
X147474479Y-81302534D01*
X147612992Y-81360050D01*
X147762972Y-81360180D01*
X147901585Y-81302907D01*
X148007730Y-81196947D01*
X148034912Y-81131485D01*
X148088740Y-81153837D01*
X147367232Y-81875345D01*
X145149293Y-81875345D01*
X145101957Y-81827926D01*
X144963444Y-81770410D01*
X144813464Y-81770280D01*
X144674851Y-81827553D01*
X144568706Y-81933513D01*
X144521470Y-82047269D01*
X144496454Y-81986724D01*
X144390494Y-81880579D01*
X144251981Y-81823063D01*
X144102001Y-81822933D01*
X143963388Y-81880206D01*
X143857243Y-81986166D01*
X143799727Y-82124679D01*
X143799597Y-82274659D01*
X143856870Y-82413272D01*
X143962830Y-82519417D01*
X144101343Y-82576933D01*
X144251323Y-82577063D01*
X144389936Y-82519790D01*
X144496081Y-82413830D01*
X144543317Y-82300074D01*
X144568333Y-82360619D01*
X144674293Y-82466764D01*
X144812806Y-82524280D01*
X144962786Y-82524410D01*
X145101399Y-82467137D01*
X145149274Y-82419345D01*
X147479898Y-82419345D01*
X147583988Y-82398640D01*
X147672231Y-82339678D01*
X148233598Y-81778311D01*
X148233596Y-81780519D01*
X148290869Y-81919132D01*
X148362029Y-81990416D01*
X148418328Y-82074674D01*
X149091654Y-82748000D01*
X147128702Y-82748000D01*
X147024612Y-82768705D01*
X146950021Y-82818545D01*
X146936369Y-82827667D01*
X145797646Y-83966390D01*
X145300000Y-83966390D01*
X145246049Y-83977122D01*
X145273635Y-83910687D01*
X145273765Y-83760707D01*
X145216492Y-83622094D01*
X145110532Y-83515949D01*
X144972019Y-83458433D01*
X144822039Y-83458303D01*
X144683426Y-83515576D01*
X144577281Y-83621536D01*
X144519765Y-83760049D01*
X144519635Y-83910029D01*
X144546766Y-83975692D01*
X144500000Y-83966390D01*
X144433165Y-83966390D01*
X144480121Y-83853309D01*
X144480251Y-83703329D01*
X144422978Y-83564716D01*
X144317018Y-83458571D01*
X144178505Y-83401055D01*
X144028525Y-83400925D01*
X143889912Y-83458198D01*
X143783767Y-83564158D01*
X143726251Y-83702671D01*
X143726121Y-83852651D01*
X143773116Y-83966390D01*
X143752451Y-83966390D01*
X143660000Y-83948000D01*
X143623762Y-83955208D01*
X143656935Y-83875319D01*
X143657065Y-83725339D01*
X143599792Y-83586726D01*
X143493832Y-83480581D01*
X143355319Y-83423065D01*
X143205339Y-83422935D01*
X143066726Y-83480208D01*
X142960581Y-83586168D01*
X142903065Y-83724681D01*
X142902935Y-83874661D01*
X142960208Y-84013274D01*
X143066168Y-84119419D01*
X143204681Y-84176935D01*
X143318301Y-84177033D01*
X143252341Y-84242993D01*
X143185339Y-84242935D01*
X143046726Y-84300208D01*
X142940581Y-84406168D01*
X142883065Y-84544681D01*
X142882935Y-84694661D01*
X142940208Y-84833274D01*
X143046168Y-84939419D01*
X143184681Y-84996935D01*
X143334661Y-84997065D01*
X143473274Y-84939792D01*
X143579419Y-84833832D01*
X143636935Y-84695319D01*
X143636994Y-84627672D01*
X143754276Y-84510390D01*
X144500000Y-84510390D01*
X144561348Y-84498187D01*
X144535474Y-84560498D01*
X144535344Y-84710478D01*
X144592617Y-84849091D01*
X144698577Y-84955236D01*
X144837090Y-85012752D01*
X144987070Y-85012882D01*
X145125683Y-84955609D01*
X145231828Y-84849649D01*
X145289344Y-84711136D01*
X145289474Y-84561156D01*
X145265677Y-84503563D01*
X145300000Y-84510390D01*
X145910312Y-84510390D01*
X146014402Y-84489685D01*
X146102645Y-84430723D01*
X147241368Y-83292000D01*
X148575592Y-83292000D01*
X148544577Y-83366691D01*
X148544447Y-83516671D01*
X148601720Y-83655284D01*
X148707680Y-83761429D01*
X148846193Y-83818945D01*
X148996173Y-83819075D01*
X149134786Y-83761802D01*
X149182661Y-83714010D01*
X149204354Y-83714010D01*
X149308444Y-83693305D01*
X149396104Y-83634733D01*
X149355559Y-83732375D01*
X149355429Y-83882355D01*
X149412702Y-84020968D01*
X149518662Y-84127113D01*
X149630000Y-84173345D01*
X149630000Y-85102093D01*
X147948558Y-85102093D01*
X147901222Y-85054674D01*
X147762709Y-84997158D01*
X147612729Y-84997028D01*
X147474116Y-85054301D01*
X147367971Y-85160261D01*
X147310455Y-85298774D01*
X147310325Y-85448754D01*
X147367598Y-85587367D01*
X147406289Y-85626126D01*
X145340245Y-85626126D01*
X145330243Y-85619443D01*
X145234577Y-85600414D01*
X145266284Y-85524056D01*
X145266414Y-85374076D01*
X145209141Y-85235463D01*
X145103181Y-85129318D01*
X144964668Y-85071802D01*
X144814688Y-85071672D01*
X144676075Y-85128945D01*
X144569930Y-85234905D01*
X144512414Y-85373418D01*
X144512352Y-85444388D01*
X144478998Y-85411034D01*
X144479075Y-85322558D01*
X144421802Y-85183945D01*
X144315842Y-85077800D01*
X144177329Y-85020284D01*
X144027349Y-85020154D01*
X143888736Y-85077427D01*
X143782591Y-85183387D01*
X143725075Y-85321900D01*
X143724945Y-85471880D01*
X143782218Y-85610493D01*
X143888178Y-85716638D01*
X144026691Y-85774154D01*
X144072826Y-85774194D01*
X144081542Y-85782910D01*
X144088183Y-85792849D01*
X144098122Y-85799490D01*
X144121668Y-85823036D01*
X144005339Y-85822935D01*
X143866726Y-85880208D01*
X143760581Y-85986168D01*
X143703065Y-86124681D01*
X143702935Y-86274661D01*
X143760208Y-86413274D01*
X143866168Y-86519419D01*
X144004681Y-86576935D01*
X144154661Y-86577065D01*
X144293274Y-86519792D01*
X144399419Y-86413832D01*
X144456935Y-86275319D01*
X144457065Y-86125339D01*
X144456214Y-86123280D01*
X144531127Y-86138181D01*
X144498220Y-86217429D01*
X144498090Y-86367409D01*
X144555363Y-86506022D01*
X144661323Y-86612167D01*
X144726208Y-86639110D01*
X144681042Y-86657772D01*
X144574897Y-86763732D01*
X144517381Y-86902245D01*
X144517251Y-87052225D01*
X144574524Y-87190838D01*
X144680484Y-87296983D01*
X144818997Y-87354499D01*
X144968977Y-87354629D01*
X145107590Y-87297356D01*
X145213735Y-87191396D01*
X145271251Y-87052883D01*
X145271381Y-86902903D01*
X145214108Y-86764290D01*
X145108148Y-86658145D01*
X145043263Y-86631202D01*
X145088429Y-86612540D01*
X145194574Y-86506580D01*
X145252090Y-86368067D01*
X145252220Y-86218087D01*
X145230510Y-86165545D01*
X145253541Y-86170126D01*
X149630000Y-86170126D01*
X149630000Y-86541625D01*
X149609241Y-86533005D01*
X149459261Y-86532875D01*
X149320648Y-86590148D01*
X149214503Y-86696108D01*
X149156987Y-86834621D01*
X149156857Y-86984601D01*
X149214130Y-87123214D01*
X149320090Y-87229359D01*
X149458603Y-87286875D01*
X149608583Y-87287005D01*
X149630000Y-87278156D01*
X149630000Y-87952678D01*
X149212717Y-87952678D01*
X148860546Y-87600507D01*
X148860604Y-87533505D01*
X148803331Y-87394892D01*
X148697371Y-87288747D01*
X148558858Y-87231231D01*
X148408878Y-87231101D01*
X148270265Y-87288374D01*
X148164120Y-87394334D01*
X148161413Y-87400853D01*
X148124623Y-87363999D01*
X147986110Y-87306483D01*
X147836130Y-87306353D01*
X147697517Y-87363626D01*
X147591372Y-87469586D01*
X147533856Y-87608099D01*
X147533726Y-87758079D01*
X147590999Y-87896692D01*
X147696959Y-88002837D01*
X147835472Y-88060353D01*
X147903119Y-88060412D01*
X148635040Y-88792333D01*
X148723283Y-88851295D01*
X148827373Y-88872000D01*
X149630000Y-88872000D01*
X149630000Y-89088000D01*
X145400288Y-89088000D01*
X145296198Y-89108705D01*
X145253651Y-89137134D01*
X145219019Y-89160275D01*
X145175606Y-89055207D01*
X145070728Y-88950146D01*
X145090922Y-88941802D01*
X145197067Y-88835842D01*
X145254583Y-88697329D01*
X145254713Y-88547349D01*
X145197440Y-88408736D01*
X145091480Y-88302591D01*
X144952967Y-88245075D01*
X144802987Y-88244945D01*
X144664374Y-88302218D01*
X144558229Y-88408178D01*
X144500713Y-88546691D01*
X144500583Y-88696671D01*
X144557856Y-88835284D01*
X144662734Y-88940345D01*
X144642540Y-88948689D01*
X144536395Y-89054649D01*
X144478879Y-89193162D01*
X144478749Y-89343142D01*
X144509879Y-89418483D01*
X144453220Y-89418483D01*
X144453305Y-89320640D01*
X144396032Y-89182027D01*
X144290072Y-89075882D01*
X144151559Y-89018366D01*
X144001579Y-89018236D01*
X143862966Y-89075509D01*
X143756821Y-89181469D01*
X143699305Y-89319982D01*
X143699175Y-89469962D01*
X143741732Y-89572958D01*
X143679003Y-89572958D01*
X143574913Y-89593663D01*
X143486670Y-89652625D01*
X143314351Y-89824944D01*
X143247349Y-89824886D01*
X143119693Y-89877632D01*
X143119693Y-88919230D01*
X143246691Y-88971965D01*
X143396671Y-88972095D01*
X143535284Y-88914822D01*
X143641429Y-88808862D01*
X143698945Y-88670349D01*
X143698954Y-88659171D01*
X143705767Y-88659171D01*
X143763040Y-88797784D01*
X143869000Y-88903929D01*
X144007513Y-88961445D01*
X144157493Y-88961575D01*
X144296106Y-88904302D01*
X144402251Y-88798342D01*
X144459767Y-88659829D01*
X144459897Y-88509849D01*
X144402624Y-88371236D01*
X144296664Y-88265091D01*
X144158151Y-88207575D01*
X144008171Y-88207445D01*
X143869558Y-88264718D01*
X143763413Y-88370678D01*
X143705897Y-88509191D01*
X143705767Y-88659171D01*
X143698954Y-88659171D01*
X143699075Y-88520369D01*
X143641802Y-88381756D01*
X143535842Y-88275611D01*
X143397329Y-88218095D01*
X143247349Y-88217965D01*
X143119693Y-88270711D01*
X143119693Y-87341645D01*
X143204681Y-87376935D01*
X143354661Y-87377065D01*
X143493274Y-87319792D01*
X143599419Y-87213832D01*
X143656935Y-87075319D01*
X143657065Y-86925339D01*
X143599792Y-86786726D01*
X143493832Y-86680581D01*
X143355319Y-86623065D01*
X143281665Y-86623001D01*
X143307659Y-86597007D01*
X143374661Y-86597065D01*
X143513274Y-86539792D01*
X143619419Y-86433832D01*
X143676935Y-86295319D01*
X143677065Y-86145339D01*
X143619792Y-86006726D01*
X143513832Y-85900581D01*
X143375319Y-85843065D01*
X143225339Y-85842935D01*
X143086726Y-85900208D01*
X142980581Y-86006168D01*
X142923065Y-86144681D01*
X142923006Y-86212328D01*
X142655360Y-86479974D01*
X142596398Y-86568217D01*
X142575693Y-86672307D01*
X142575693Y-90764598D01*
X142491822Y-90680581D01*
X142353309Y-90623065D01*
X142203329Y-90622935D01*
X142064716Y-90680208D01*
X141958571Y-90786168D01*
X141901055Y-90924681D01*
X141900925Y-91074661D01*
X141958198Y-91213274D01*
X142064158Y-91319419D01*
X142202671Y-91376935D01*
X142352651Y-91377065D01*
X142491264Y-91319792D01*
X142575693Y-91235510D01*
X142575693Y-93786825D01*
X142596398Y-93890915D01*
X142655360Y-93979158D01*
X146017780Y-97341578D01*
X146017722Y-97408580D01*
X146074995Y-97547193D01*
X146180955Y-97653338D01*
X146319468Y-97710854D01*
X146469448Y-97710984D01*
X146608061Y-97653711D01*
X146714206Y-97547751D01*
X146771722Y-97409238D01*
X146771852Y-97259258D01*
X146736239Y-97173068D01*
X146834566Y-97173068D01*
X146799050Y-97258600D01*
X146798920Y-97408580D01*
X146856193Y-97547193D01*
X146962153Y-97653338D01*
X147100666Y-97710854D01*
X147250646Y-97710984D01*
X147336063Y-97675691D01*
X147346691Y-97729122D01*
X147405653Y-97817365D01*
X148538288Y-98950000D01*
X136300224Y-98950000D01*
X136300224Y-98183897D01*
X136347643Y-98136561D01*
X136405159Y-97998048D01*
X136405289Y-97848068D01*
X136348016Y-97709455D01*
X136242056Y-97603310D01*
X136103543Y-97545794D01*
X135953563Y-97545664D01*
X135814950Y-97602937D01*
X135708805Y-97708897D01*
X135662869Y-97819523D01*
X135592335Y-97790235D01*
X135442355Y-97790105D01*
X135303742Y-97847378D01*
X135197597Y-97953338D01*
X135140081Y-98091851D01*
X135140022Y-98159498D01*
X134349520Y-98950000D01*
X131386390Y-98950000D01*
X131386390Y-98129652D01*
X133501717Y-96014325D01*
X133532601Y-96089071D01*
X133534214Y-96090687D01*
X133443429Y-96181314D01*
X133385913Y-96319827D01*
X133385783Y-96469807D01*
X133443056Y-96608420D01*
X133549016Y-96714565D01*
X133687529Y-96772081D01*
X133837509Y-96772211D01*
X133976122Y-96714938D01*
X134082267Y-96608978D01*
X134139783Y-96470465D01*
X134139913Y-96320485D01*
X134082640Y-96181872D01*
X134081027Y-96180256D01*
X134113542Y-96147797D01*
X139401778Y-96147797D01*
X140903650Y-97649669D01*
X140903592Y-97716671D01*
X140960865Y-97855284D01*
X141066825Y-97961429D01*
X141205338Y-98018945D01*
X141355318Y-98019075D01*
X141493931Y-97961802D01*
X141600076Y-97855842D01*
X141657592Y-97717329D01*
X141657722Y-97567349D01*
X141600449Y-97428736D01*
X141494489Y-97322591D01*
X141355976Y-97265075D01*
X141288329Y-97265016D01*
X139706777Y-95683464D01*
X139618534Y-95624502D01*
X139514444Y-95603797D01*
X134113561Y-95603797D01*
X134066225Y-95556378D01*
X133945478Y-95506239D01*
X133957482Y-95445894D01*
X133957482Y-93663464D01*
X134004901Y-93616128D01*
X134062417Y-93477615D01*
X134062547Y-93327635D01*
X134005274Y-93189022D01*
X133899314Y-93082877D01*
X133760801Y-93025361D01*
X133610821Y-93025231D01*
X133472208Y-93082504D01*
X133366063Y-93188464D01*
X133308547Y-93326977D01*
X133308417Y-93476957D01*
X133365690Y-93615570D01*
X133413482Y-93663445D01*
X133413482Y-95333228D01*
X132363350Y-96383360D01*
X132363396Y-96330132D01*
X132306123Y-96191519D01*
X132200163Y-96085374D01*
X132061650Y-96027858D01*
X131911670Y-96027728D01*
X131773057Y-96085001D01*
X131666912Y-96190961D01*
X131609396Y-96329474D01*
X131609337Y-96397121D01*
X130500047Y-97506411D01*
X130441085Y-97594654D01*
X130420380Y-97698744D01*
X130420380Y-98950000D01*
X127330000Y-98950000D01*
X127330000Y-94187868D01*
X129676267Y-94187868D01*
X129733540Y-94326481D01*
X129839500Y-94432626D01*
X129978013Y-94490142D01*
X130127993Y-94490272D01*
X130266606Y-94432999D01*
X130372751Y-94327039D01*
X130430267Y-94188526D01*
X130430397Y-94038546D01*
X130373124Y-93899933D01*
X130267164Y-93793788D01*
X130128651Y-93736272D01*
X129978671Y-93736142D01*
X129840058Y-93793415D01*
X129733913Y-93899375D01*
X129676397Y-94037888D01*
X129676267Y-94187868D01*
X127330000Y-94187868D01*
X127330000Y-93675827D01*
X128994682Y-93675827D01*
X129051955Y-93814440D01*
X129157915Y-93920585D01*
X129296428Y-93978101D01*
X129446408Y-93978231D01*
X129585021Y-93920958D01*
X129691166Y-93814998D01*
X129748682Y-93676485D01*
X129748812Y-93526505D01*
X129691539Y-93387892D01*
X129662632Y-93358934D01*
X129834286Y-93358934D01*
X129891559Y-93497547D01*
X129997519Y-93603692D01*
X130136032Y-93661208D01*
X130203679Y-93661267D01*
X130612714Y-94070302D01*
X130612714Y-95126982D01*
X130497319Y-95079065D01*
X130347339Y-95078935D01*
X130208726Y-95136208D01*
X130102581Y-95242168D01*
X130045065Y-95380681D01*
X130044935Y-95530661D01*
X130102208Y-95669274D01*
X130208168Y-95775419D01*
X130346681Y-95832935D01*
X130496661Y-95833065D01*
X130635274Y-95775792D01*
X130726576Y-95684649D01*
X130764921Y-95777451D01*
X130870881Y-95883596D01*
X131009394Y-95941112D01*
X131159374Y-95941242D01*
X131297987Y-95883969D01*
X131404132Y-95778009D01*
X131461648Y-95639496D01*
X131461778Y-95489516D01*
X131404505Y-95350903D01*
X131389832Y-95336204D01*
X131390825Y-95336205D01*
X131529438Y-95278932D01*
X131635583Y-95172972D01*
X131693099Y-95034459D01*
X131693229Y-94884479D01*
X131635956Y-94745866D01*
X131529996Y-94639721D01*
X131391483Y-94582205D01*
X131241503Y-94582075D01*
X131156714Y-94617109D01*
X131156714Y-94274661D01*
X131702935Y-94274661D01*
X131760208Y-94413274D01*
X131866168Y-94519419D01*
X132004681Y-94576935D01*
X132154661Y-94577065D01*
X132293274Y-94519792D01*
X132399419Y-94413832D01*
X132456935Y-94275319D01*
X132456938Y-94271734D01*
X132469169Y-94271734D01*
X132526442Y-94410347D01*
X132632402Y-94516492D01*
X132770915Y-94574008D01*
X132920895Y-94574138D01*
X133059508Y-94516865D01*
X133165653Y-94410905D01*
X133223169Y-94272392D01*
X133223299Y-94122412D01*
X133166026Y-93983799D01*
X133060066Y-93877654D01*
X132921553Y-93820138D01*
X132771573Y-93820008D01*
X132632960Y-93877281D01*
X132526815Y-93983241D01*
X132469299Y-94121754D01*
X132469169Y-94271734D01*
X132456938Y-94271734D01*
X132457065Y-94125339D01*
X132399792Y-93986726D01*
X132293832Y-93880581D01*
X132155319Y-93823065D01*
X132005339Y-93822935D01*
X131866726Y-93880208D01*
X131760581Y-93986168D01*
X131703065Y-94124681D01*
X131702935Y-94274661D01*
X131156714Y-94274661D01*
X131156714Y-93957636D01*
X131136009Y-93853546D01*
X131077047Y-93765303D01*
X130786405Y-93474661D01*
X131654925Y-93474661D01*
X131712198Y-93613274D01*
X131818158Y-93719419D01*
X131956671Y-93776935D01*
X132106651Y-93777065D01*
X132245264Y-93719792D01*
X132351409Y-93613832D01*
X132408925Y-93475319D01*
X132409055Y-93325339D01*
X132351782Y-93186726D01*
X132245822Y-93080581D01*
X132107309Y-93023065D01*
X131957329Y-93022935D01*
X131818716Y-93080208D01*
X131712571Y-93186168D01*
X131655055Y-93324681D01*
X131654925Y-93474661D01*
X130786405Y-93474661D01*
X130588358Y-93276614D01*
X130588416Y-93209612D01*
X130531143Y-93070999D01*
X130425183Y-92964854D01*
X130286670Y-92907338D01*
X130136690Y-92907208D01*
X129998077Y-92964481D01*
X129891932Y-93070441D01*
X129834416Y-93208954D01*
X129834286Y-93358934D01*
X129662632Y-93358934D01*
X129585579Y-93281747D01*
X129447066Y-93224231D01*
X129297086Y-93224101D01*
X129158473Y-93281374D01*
X129052328Y-93387334D01*
X128994812Y-93525847D01*
X128994682Y-93675827D01*
X127330000Y-93675827D01*
X127330000Y-92747628D01*
X130321858Y-92747628D01*
X130369194Y-92795047D01*
X130507707Y-92852563D01*
X130657687Y-92852693D01*
X130796300Y-92795420D01*
X130902445Y-92689460D01*
X130938704Y-92602139D01*
X131733688Y-92602139D01*
X131790961Y-92740752D01*
X131896921Y-92846897D01*
X132035434Y-92904413D01*
X132185414Y-92904543D01*
X132324027Y-92847270D01*
X132430172Y-92741310D01*
X132457847Y-92674661D01*
X132502935Y-92674661D01*
X132560208Y-92813274D01*
X132666168Y-92919419D01*
X132804681Y-92976935D01*
X132954661Y-92977065D01*
X133093274Y-92919792D01*
X133199419Y-92813832D01*
X133256935Y-92675319D01*
X133256935Y-92674661D01*
X133302935Y-92674661D01*
X133360208Y-92813274D01*
X133466168Y-92919419D01*
X133604681Y-92976935D01*
X133754661Y-92977065D01*
X133893274Y-92919792D01*
X133999419Y-92813832D01*
X134056935Y-92675319D01*
X134057065Y-92525339D01*
X133999792Y-92386726D01*
X133893832Y-92280581D01*
X133755319Y-92223065D01*
X133605339Y-92222935D01*
X133466726Y-92280208D01*
X133360581Y-92386168D01*
X133303065Y-92524681D01*
X133302935Y-92674661D01*
X133256935Y-92674661D01*
X133257065Y-92525339D01*
X133199792Y-92386726D01*
X133093832Y-92280581D01*
X132955319Y-92223065D01*
X132805339Y-92222935D01*
X132666726Y-92280208D01*
X132560581Y-92386168D01*
X132503065Y-92524681D01*
X132502935Y-92674661D01*
X132457847Y-92674661D01*
X132487688Y-92602797D01*
X132487818Y-92452817D01*
X132430545Y-92314204D01*
X132324585Y-92208059D01*
X132186072Y-92150543D01*
X132036092Y-92150413D01*
X131897479Y-92207686D01*
X131791334Y-92313646D01*
X131733818Y-92452159D01*
X131733688Y-92602139D01*
X130938704Y-92602139D01*
X130959961Y-92550947D01*
X130960091Y-92400967D01*
X130902818Y-92262354D01*
X130796858Y-92156209D01*
X130658345Y-92098693D01*
X130508365Y-92098563D01*
X130369752Y-92155836D01*
X130321877Y-92203628D01*
X129871210Y-92203628D01*
X129875023Y-92199822D01*
X129932539Y-92061309D01*
X129932552Y-92045935D01*
X130057903Y-92046044D01*
X130196516Y-91988771D01*
X130302661Y-91882811D01*
X130306045Y-91874661D01*
X133302935Y-91874661D01*
X133360208Y-92013274D01*
X133466168Y-92119419D01*
X133604681Y-92176935D01*
X133754661Y-92177065D01*
X133893274Y-92119792D01*
X133999419Y-92013832D01*
X134056935Y-91875319D01*
X134057065Y-91725339D01*
X134051841Y-91712695D01*
X137281986Y-91712695D01*
X137339259Y-91851308D01*
X137445219Y-91957453D01*
X137583732Y-92014969D01*
X137733712Y-92015099D01*
X137872325Y-91957826D01*
X137978470Y-91851866D01*
X138035986Y-91713353D01*
X138036116Y-91563373D01*
X137978843Y-91424760D01*
X137872883Y-91318615D01*
X137734370Y-91261099D01*
X137584390Y-91260969D01*
X137445777Y-91318242D01*
X137339632Y-91424202D01*
X137282116Y-91562715D01*
X137281986Y-91712695D01*
X134051841Y-91712695D01*
X133999792Y-91586726D01*
X133893832Y-91480581D01*
X133755319Y-91423065D01*
X133605339Y-91422935D01*
X133466726Y-91480208D01*
X133360581Y-91586168D01*
X133303065Y-91724681D01*
X133302935Y-91874661D01*
X130306045Y-91874661D01*
X130360177Y-91744298D01*
X130360307Y-91594318D01*
X130303034Y-91455705D01*
X130197074Y-91349560D01*
X130058561Y-91292044D01*
X129908581Y-91291914D01*
X129905166Y-91293325D01*
X129873237Y-91286974D01*
X129518010Y-91286974D01*
X129952984Y-90852000D01*
X131731418Y-90852000D01*
X131700403Y-90926691D01*
X131700273Y-91076671D01*
X131757546Y-91215284D01*
X131863506Y-91321429D01*
X132002019Y-91378945D01*
X132151999Y-91379075D01*
X132290612Y-91321802D01*
X132396757Y-91215842D01*
X132454273Y-91077329D01*
X132454403Y-90927349D01*
X132423270Y-90852000D01*
X132500000Y-90852000D01*
X132536238Y-90844792D01*
X132503065Y-90924681D01*
X132502935Y-91074661D01*
X132560208Y-91213274D01*
X132666168Y-91319419D01*
X132804681Y-91376935D01*
X132954661Y-91377065D01*
X133093274Y-91319792D01*
X133199419Y-91213832D01*
X133256935Y-91075319D01*
X133256935Y-91074661D01*
X134102935Y-91074661D01*
X134160208Y-91213274D01*
X134266168Y-91319419D01*
X134404681Y-91376935D01*
X134554661Y-91377065D01*
X134693274Y-91319792D01*
X134799419Y-91213832D01*
X134856935Y-91075319D01*
X134857065Y-90925339D01*
X134799792Y-90786726D01*
X134693832Y-90680581D01*
X134555319Y-90623065D01*
X134405339Y-90622935D01*
X134266726Y-90680208D01*
X134160581Y-90786168D01*
X134103065Y-90924681D01*
X134102935Y-91074661D01*
X133256935Y-91074661D01*
X133257065Y-90925339D01*
X133199792Y-90786726D01*
X133093832Y-90680581D01*
X132955319Y-90623065D01*
X132841699Y-90622967D01*
X132907659Y-90557007D01*
X132974661Y-90557065D01*
X133113274Y-90499792D01*
X133219419Y-90393832D01*
X133271051Y-90269487D01*
X136508109Y-90269487D01*
X136565382Y-90408100D01*
X136671342Y-90514245D01*
X136809855Y-90571761D01*
X136959835Y-90571891D01*
X137098448Y-90514618D01*
X137204593Y-90408658D01*
X137262109Y-90270145D01*
X137262171Y-90197651D01*
X137311936Y-90197651D01*
X137369209Y-90336264D01*
X137475169Y-90442409D01*
X137613682Y-90499925D01*
X137763662Y-90500055D01*
X137902275Y-90442782D01*
X138008420Y-90336822D01*
X138043495Y-90252352D01*
X138908738Y-90252352D01*
X138966011Y-90390965D01*
X139071971Y-90497110D01*
X139210484Y-90554626D01*
X139360464Y-90554756D01*
X139499077Y-90497483D01*
X139605222Y-90391523D01*
X139662738Y-90253010D01*
X139662785Y-90197651D01*
X139717825Y-90197651D01*
X139775098Y-90336264D01*
X139881058Y-90442409D01*
X140019571Y-90499925D01*
X140169551Y-90500055D01*
X140308164Y-90442782D01*
X140414309Y-90336822D01*
X140471825Y-90198309D01*
X140471955Y-90048329D01*
X140414682Y-89909716D01*
X140308722Y-89803571D01*
X140170209Y-89746055D01*
X140020229Y-89745925D01*
X139881616Y-89803198D01*
X139775471Y-89909158D01*
X139717955Y-90047671D01*
X139717825Y-90197651D01*
X139662785Y-90197651D01*
X139662868Y-90103030D01*
X139605595Y-89964417D01*
X139499635Y-89858272D01*
X139361122Y-89800756D01*
X139211142Y-89800626D01*
X139072529Y-89857899D01*
X138966384Y-89963859D01*
X138908868Y-90102372D01*
X138908738Y-90252352D01*
X138043495Y-90252352D01*
X138065936Y-90198309D01*
X138066066Y-90048329D01*
X138008793Y-89909716D01*
X137902833Y-89803571D01*
X137764320Y-89746055D01*
X137614340Y-89745925D01*
X137475727Y-89803198D01*
X137369582Y-89909158D01*
X137312066Y-90047671D01*
X137311936Y-90197651D01*
X137262171Y-90197651D01*
X137262239Y-90120165D01*
X137204966Y-89981552D01*
X137099006Y-89875407D01*
X136960493Y-89817891D01*
X136810513Y-89817761D01*
X136671900Y-89875034D01*
X136565755Y-89980994D01*
X136508239Y-90119507D01*
X136508109Y-90269487D01*
X133271051Y-90269487D01*
X133276935Y-90255319D01*
X133277065Y-90105339D01*
X133219792Y-89966726D01*
X133113832Y-89860581D01*
X132975319Y-89803065D01*
X132825339Y-89802935D01*
X132686726Y-89860208D01*
X132580581Y-89966168D01*
X132523065Y-90104681D01*
X132523006Y-90172328D01*
X132476948Y-90218386D01*
X132477065Y-90083329D01*
X132419792Y-89944716D01*
X132313832Y-89838571D01*
X132175319Y-89781055D01*
X132166408Y-89781047D01*
X132288898Y-89730436D01*
X132395043Y-89624476D01*
X132452559Y-89485963D01*
X132452591Y-89448125D01*
X136567465Y-89448125D01*
X136624738Y-89586738D01*
X136730698Y-89692883D01*
X136869211Y-89750399D01*
X137019191Y-89750529D01*
X137157804Y-89693256D01*
X137263949Y-89587296D01*
X137321465Y-89448783D01*
X137321485Y-89425627D01*
X139661876Y-89425627D01*
X139719149Y-89564240D01*
X139825109Y-89670385D01*
X139963622Y-89727901D01*
X140113602Y-89728031D01*
X140252215Y-89670758D01*
X140358360Y-89564798D01*
X140415876Y-89426285D01*
X140416006Y-89276305D01*
X140358733Y-89137692D01*
X140252773Y-89031547D01*
X140114260Y-88974031D01*
X139964280Y-88973901D01*
X139825667Y-89031174D01*
X139719522Y-89137134D01*
X139662006Y-89275647D01*
X139661876Y-89425627D01*
X137321485Y-89425627D01*
X137321595Y-89298803D01*
X137264322Y-89160190D01*
X137158362Y-89054045D01*
X137019849Y-88996529D01*
X136869869Y-88996399D01*
X136731256Y-89053672D01*
X136625111Y-89159632D01*
X136567595Y-89298145D01*
X136567465Y-89448125D01*
X132452591Y-89448125D01*
X132452689Y-89335983D01*
X132395416Y-89197370D01*
X132289456Y-89091225D01*
X132150943Y-89033709D01*
X132000963Y-89033579D01*
X131862350Y-89090852D01*
X131756205Y-89196812D01*
X131698689Y-89335325D01*
X131698559Y-89485305D01*
X131755832Y-89623918D01*
X131861792Y-89730063D01*
X132000305Y-89787579D01*
X132009216Y-89787587D01*
X131886726Y-89838198D01*
X131838851Y-89885990D01*
X129826228Y-89885990D01*
X129826303Y-89799273D01*
X129769030Y-89660660D01*
X129663070Y-89554515D01*
X129524557Y-89496999D01*
X129374577Y-89496869D01*
X129235964Y-89554142D01*
X129129819Y-89660102D01*
X129072303Y-89798615D01*
X129072173Y-89948595D01*
X129129446Y-90087208D01*
X129235406Y-90193353D01*
X129347454Y-90239880D01*
X129207810Y-90379524D01*
X127650844Y-90379524D01*
X127685205Y-90296775D01*
X127685335Y-90146795D01*
X127628062Y-90008182D01*
X127522102Y-89902037D01*
X127383589Y-89844521D01*
X127330000Y-89844475D01*
X127330000Y-89631585D01*
X127935029Y-89631585D01*
X127992302Y-89770198D01*
X128098262Y-89876343D01*
X128236775Y-89933859D01*
X128386755Y-89933989D01*
X128525368Y-89876716D01*
X128631513Y-89770756D01*
X128689029Y-89632243D01*
X128689159Y-89482263D01*
X128631886Y-89343650D01*
X128525926Y-89237505D01*
X128387413Y-89179989D01*
X128237433Y-89179859D01*
X128098820Y-89237132D01*
X127992675Y-89343092D01*
X127935159Y-89481605D01*
X127935029Y-89631585D01*
X127330000Y-89631585D01*
X127330000Y-88669663D01*
X127359472Y-88640242D01*
X127362506Y-88632935D01*
X131706984Y-88632935D01*
X131764257Y-88771548D01*
X131870217Y-88877693D01*
X132008730Y-88935209D01*
X132158710Y-88935339D01*
X132297323Y-88878066D01*
X132403468Y-88772106D01*
X132443930Y-88674661D01*
X132502935Y-88674661D01*
X132560208Y-88813274D01*
X132666168Y-88919419D01*
X132804681Y-88976935D01*
X132954661Y-88977065D01*
X133093274Y-88919792D01*
X133199419Y-88813832D01*
X133249483Y-88693263D01*
X134896241Y-88693263D01*
X134953514Y-88831876D01*
X135059474Y-88938021D01*
X135197987Y-88995537D01*
X135347967Y-88995667D01*
X135486580Y-88938394D01*
X135592725Y-88832434D01*
X135650241Y-88693921D01*
X135650257Y-88674661D01*
X141302935Y-88674661D01*
X141360208Y-88813274D01*
X141466168Y-88919419D01*
X141604681Y-88976935D01*
X141754661Y-88977065D01*
X141893274Y-88919792D01*
X141999419Y-88813832D01*
X142056935Y-88675319D01*
X142057065Y-88525339D01*
X141999792Y-88386726D01*
X141893832Y-88280581D01*
X141755319Y-88223065D01*
X141605339Y-88222935D01*
X141466726Y-88280208D01*
X141360581Y-88386168D01*
X141303065Y-88524681D01*
X141302935Y-88674661D01*
X135650257Y-88674661D01*
X135650371Y-88543941D01*
X135593098Y-88405328D01*
X135487138Y-88299183D01*
X135348625Y-88241667D01*
X135198645Y-88241537D01*
X135060032Y-88298810D01*
X134953887Y-88404770D01*
X134896371Y-88543283D01*
X134896241Y-88693263D01*
X133249483Y-88693263D01*
X133256935Y-88675319D01*
X133257065Y-88525339D01*
X133199792Y-88386726D01*
X133093832Y-88280581D01*
X132955319Y-88223065D01*
X132805339Y-88222935D01*
X132666726Y-88280208D01*
X132560581Y-88386168D01*
X132503065Y-88524681D01*
X132502935Y-88674661D01*
X132443930Y-88674661D01*
X132460984Y-88633593D01*
X132461114Y-88483613D01*
X132403841Y-88345000D01*
X132297881Y-88238855D01*
X132159368Y-88181339D01*
X132009388Y-88181209D01*
X131870775Y-88238482D01*
X131764630Y-88344442D01*
X131707114Y-88482955D01*
X131706984Y-88632935D01*
X127362506Y-88632935D01*
X127416988Y-88501729D01*
X127417118Y-88351749D01*
X127359845Y-88213136D01*
X127330000Y-88183239D01*
X127330000Y-87890887D01*
X140519161Y-87890887D01*
X140576434Y-88029500D01*
X140682394Y-88135645D01*
X140820907Y-88193161D01*
X140970887Y-88193291D01*
X141109500Y-88136018D01*
X141215645Y-88030058D01*
X141273161Y-87891545D01*
X141273291Y-87741565D01*
X141216018Y-87602952D01*
X141110058Y-87496807D01*
X140971545Y-87439291D01*
X140821565Y-87439161D01*
X140682952Y-87496434D01*
X140576807Y-87602394D01*
X140519291Y-87740907D01*
X140519161Y-87890887D01*
X127330000Y-87890887D01*
X127330000Y-87202518D01*
X128399590Y-87202518D01*
X128456863Y-87341131D01*
X128562823Y-87447276D01*
X128701336Y-87504792D01*
X128851316Y-87504922D01*
X128989929Y-87447649D01*
X129096074Y-87341689D01*
X129153590Y-87203176D01*
X129153720Y-87053196D01*
X129096447Y-86914583D01*
X128990487Y-86808438D01*
X128851974Y-86750922D01*
X128701994Y-86750792D01*
X128563381Y-86808065D01*
X128457236Y-86914025D01*
X128399720Y-87052538D01*
X128399590Y-87202518D01*
X127330000Y-87202518D01*
X127330000Y-85152123D01*
X127946518Y-85152123D01*
X127993854Y-85199542D01*
X128132367Y-85257058D01*
X128282347Y-85257188D01*
X128420960Y-85199915D01*
X128446095Y-85174824D01*
X128446049Y-85228221D01*
X128503322Y-85366834D01*
X128609282Y-85472979D01*
X128747795Y-85530495D01*
X128897775Y-85530625D01*
X129036388Y-85473352D01*
X129142533Y-85367392D01*
X129200049Y-85228879D01*
X129200179Y-85078899D01*
X129142906Y-84940286D01*
X129036946Y-84834141D01*
X128898433Y-84776625D01*
X128748453Y-84776495D01*
X128609840Y-84833768D01*
X128584705Y-84858859D01*
X128584751Y-84805462D01*
X128527478Y-84666849D01*
X128464839Y-84604101D01*
X128501435Y-84567569D01*
X128553749Y-84441584D01*
X128697320Y-84441708D01*
X128835933Y-84384435D01*
X128942078Y-84278475D01*
X128999594Y-84139962D01*
X128999623Y-84106185D01*
X129037099Y-84131225D01*
X129110610Y-84145847D01*
X129110602Y-84154590D01*
X129167875Y-84293203D01*
X129273835Y-84399348D01*
X129412348Y-84456864D01*
X129562328Y-84456994D01*
X129700941Y-84399721D01*
X129807086Y-84293761D01*
X129839323Y-84216125D01*
X131620785Y-85997587D01*
X131709028Y-86056549D01*
X131755617Y-86065816D01*
X131706091Y-86185086D01*
X131705961Y-86335066D01*
X131763234Y-86473679D01*
X131869194Y-86579824D01*
X131989138Y-86629629D01*
X131866726Y-86680208D01*
X131760581Y-86786168D01*
X131703065Y-86924681D01*
X131702935Y-87074661D01*
X131760208Y-87213274D01*
X131866168Y-87319419D01*
X132004681Y-87376935D01*
X132154661Y-87377065D01*
X132293274Y-87319792D01*
X132399419Y-87213832D01*
X132456935Y-87075319D01*
X132457065Y-86925339D01*
X132399792Y-86786726D01*
X132293832Y-86680581D01*
X132173888Y-86630776D01*
X132296300Y-86580197D01*
X132402445Y-86474237D01*
X132459961Y-86335724D01*
X132460013Y-86274661D01*
X134902935Y-86274661D01*
X134960208Y-86413274D01*
X135066168Y-86519419D01*
X135204681Y-86576935D01*
X135354661Y-86577065D01*
X135493274Y-86519792D01*
X135599419Y-86413832D01*
X135656519Y-86276319D01*
X136534040Y-86276319D01*
X136595416Y-86424860D01*
X136708963Y-86538606D01*
X136857397Y-86600241D01*
X137018118Y-86600381D01*
X137166659Y-86539005D01*
X137280405Y-86425458D01*
X137342040Y-86277024D01*
X137342048Y-86267630D01*
X139637537Y-86267630D01*
X139694810Y-86406243D01*
X139800770Y-86512388D01*
X139939283Y-86569904D01*
X140089263Y-86570034D01*
X140227876Y-86512761D01*
X140334021Y-86406801D01*
X140388890Y-86274661D01*
X141302935Y-86274661D01*
X141360208Y-86413274D01*
X141466168Y-86519419D01*
X141604681Y-86576935D01*
X141754661Y-86577065D01*
X141893274Y-86519792D01*
X141999419Y-86413832D01*
X142056935Y-86275319D01*
X142057065Y-86125339D01*
X141999792Y-85986726D01*
X141893832Y-85880581D01*
X141755319Y-85823065D01*
X141605339Y-85822935D01*
X141466726Y-85880208D01*
X141360581Y-85986168D01*
X141303065Y-86124681D01*
X141302935Y-86274661D01*
X140388890Y-86274661D01*
X140391537Y-86268288D01*
X140391667Y-86118308D01*
X140334394Y-85979695D01*
X140228434Y-85873550D01*
X140089921Y-85816034D01*
X139939941Y-85815904D01*
X139801328Y-85873177D01*
X139695183Y-85979137D01*
X139637667Y-86117650D01*
X139637537Y-86267630D01*
X137342048Y-86267630D01*
X137342180Y-86116303D01*
X137280804Y-85967762D01*
X137167257Y-85854016D01*
X137018823Y-85792381D01*
X136858102Y-85792241D01*
X136709561Y-85853617D01*
X136595815Y-85967164D01*
X136534180Y-86115598D01*
X136534040Y-86276319D01*
X135656519Y-86276319D01*
X135656935Y-86275319D01*
X135657065Y-86125339D01*
X135599792Y-85986726D01*
X135493832Y-85880581D01*
X135355319Y-85823065D01*
X135205339Y-85822935D01*
X135066726Y-85880208D01*
X134960581Y-85986168D01*
X134903065Y-86124681D01*
X134902935Y-86274661D01*
X132460013Y-86274661D01*
X132460091Y-86185744D01*
X132415264Y-86077254D01*
X133274746Y-86077254D01*
X133378836Y-86056549D01*
X133467079Y-85997587D01*
X133687659Y-85777007D01*
X133754661Y-85777065D01*
X133893274Y-85719792D01*
X133999419Y-85613832D01*
X134040598Y-85514661D01*
X134902935Y-85514661D01*
X134960208Y-85653274D01*
X135066168Y-85759419D01*
X135204681Y-85816935D01*
X135354661Y-85817065D01*
X135493274Y-85759792D01*
X135599419Y-85653832D01*
X135656935Y-85515319D01*
X135656970Y-85474661D01*
X141302935Y-85474661D01*
X141360208Y-85613274D01*
X141466168Y-85719419D01*
X141604681Y-85776935D01*
X141754661Y-85777065D01*
X141893274Y-85719792D01*
X141999419Y-85613832D01*
X142056935Y-85475319D01*
X142057065Y-85325339D01*
X141999792Y-85186726D01*
X141893832Y-85080581D01*
X141755319Y-85023065D01*
X141605339Y-85022935D01*
X141466726Y-85080208D01*
X141360581Y-85186168D01*
X141303065Y-85324681D01*
X141302935Y-85474661D01*
X135656970Y-85474661D01*
X135657065Y-85365339D01*
X135599792Y-85226726D01*
X135493832Y-85120581D01*
X135355319Y-85063065D01*
X135205339Y-85062935D01*
X135066726Y-85120208D01*
X134960581Y-85226168D01*
X134903065Y-85364681D01*
X134902935Y-85514661D01*
X134040598Y-85514661D01*
X134056935Y-85475319D01*
X134057065Y-85325339D01*
X133999792Y-85186726D01*
X133893832Y-85080581D01*
X133755319Y-85023065D01*
X133605339Y-85022935D01*
X133466726Y-85080208D01*
X133360581Y-85186168D01*
X133303065Y-85324681D01*
X133303006Y-85392328D01*
X133189954Y-85505380D01*
X133211576Y-85453309D01*
X133211706Y-85303329D01*
X133154433Y-85164716D01*
X133048473Y-85058571D01*
X132909960Y-85001055D01*
X132759980Y-85000925D01*
X132621367Y-85058198D01*
X132515222Y-85164158D01*
X132457706Y-85302671D01*
X132457576Y-85452651D01*
X132490880Y-85533254D01*
X132416724Y-85533254D01*
X132449920Y-85453309D01*
X132450050Y-85303329D01*
X132392777Y-85164716D01*
X132286817Y-85058571D01*
X132148304Y-85001055D01*
X131998324Y-85000925D01*
X131859711Y-85058198D01*
X131753566Y-85164158D01*
X131696050Y-85302671D01*
X131696049Y-85303519D01*
X130342826Y-83950296D01*
X130417902Y-83919275D01*
X130524047Y-83813315D01*
X130581563Y-83674802D01*
X130581693Y-83524822D01*
X130524420Y-83386209D01*
X130476628Y-83338334D01*
X130476628Y-82736596D01*
X130455923Y-82632506D01*
X130396961Y-82544263D01*
X130146718Y-82294020D01*
X130146718Y-82270362D01*
X131468689Y-83592333D01*
X131473348Y-83595446D01*
X131476281Y-83598379D01*
X131564524Y-83657341D01*
X131668614Y-83678046D01*
X131737762Y-83678046D01*
X131706747Y-83752737D01*
X131706617Y-83902717D01*
X131763890Y-84041330D01*
X131869850Y-84147475D01*
X131939892Y-84176559D01*
X131848825Y-84214187D01*
X131742680Y-84320147D01*
X131685164Y-84458660D01*
X131685034Y-84608640D01*
X131742307Y-84747253D01*
X131848267Y-84853398D01*
X131986780Y-84910914D01*
X132136760Y-84911044D01*
X132275373Y-84853771D01*
X132381518Y-84747811D01*
X132413885Y-84669861D01*
X133294877Y-84669861D01*
X133352150Y-84808474D01*
X133458110Y-84914619D01*
X133596623Y-84972135D01*
X133746603Y-84972265D01*
X133885216Y-84914992D01*
X133991361Y-84809032D01*
X134048877Y-84670519D01*
X134048930Y-84608746D01*
X137303491Y-84608746D01*
X137360764Y-84747359D01*
X137466724Y-84853504D01*
X137605237Y-84911020D01*
X137755217Y-84911150D01*
X137893830Y-84853877D01*
X137999975Y-84747917D01*
X138025681Y-84686010D01*
X138895452Y-84686010D01*
X138952725Y-84824623D01*
X139058685Y-84930768D01*
X139197198Y-84988284D01*
X139347178Y-84988414D01*
X139485791Y-84931141D01*
X139591936Y-84825181D01*
X139649452Y-84686668D01*
X139649582Y-84536688D01*
X139592309Y-84398075D01*
X139486349Y-84291930D01*
X139347836Y-84234414D01*
X139197856Y-84234284D01*
X139059243Y-84291557D01*
X138953098Y-84397517D01*
X138895582Y-84536030D01*
X138895452Y-84686010D01*
X138025681Y-84686010D01*
X138057491Y-84609404D01*
X138057621Y-84459424D01*
X138000348Y-84320811D01*
X137894388Y-84214666D01*
X137755875Y-84157150D01*
X137605895Y-84157020D01*
X137467282Y-84214293D01*
X137361137Y-84320253D01*
X137303621Y-84458766D01*
X137303491Y-84608746D01*
X134048930Y-84608746D01*
X134049007Y-84520539D01*
X133991734Y-84381926D01*
X133885774Y-84275781D01*
X133747261Y-84218265D01*
X133597281Y-84218135D01*
X133458668Y-84275408D01*
X133352523Y-84381368D01*
X133295007Y-84519881D01*
X133294877Y-84669861D01*
X132413885Y-84669861D01*
X132439034Y-84609298D01*
X132439164Y-84459318D01*
X132381891Y-84320705D01*
X132275931Y-84214560D01*
X132205889Y-84185476D01*
X132296956Y-84147848D01*
X132403101Y-84041888D01*
X132460617Y-83903375D01*
X132460747Y-83753395D01*
X132458449Y-83747834D01*
X132534965Y-83747834D01*
X132503954Y-83822516D01*
X132503824Y-83972496D01*
X132561097Y-84111109D01*
X132667057Y-84217254D01*
X132805570Y-84274770D01*
X132955550Y-84274900D01*
X133094163Y-84217627D01*
X133200308Y-84111667D01*
X133257824Y-83973154D01*
X133257954Y-83823174D01*
X133226825Y-83747834D01*
X133243168Y-83747834D01*
X133302993Y-83807659D01*
X133302935Y-83874661D01*
X133360208Y-84013274D01*
X133466168Y-84119419D01*
X133604681Y-84176935D01*
X133754661Y-84177065D01*
X133893274Y-84119792D01*
X133999419Y-84013832D01*
X134056935Y-83875319D01*
X134056935Y-83874661D01*
X134102935Y-83874661D01*
X134160208Y-84013274D01*
X134266168Y-84119419D01*
X134404681Y-84176935D01*
X134554661Y-84177065D01*
X134693274Y-84119792D01*
X134799419Y-84013832D01*
X134856935Y-83875319D01*
X134856935Y-83874661D01*
X142102935Y-83874661D01*
X142160208Y-84013274D01*
X142266168Y-84119419D01*
X142404681Y-84176935D01*
X142554661Y-84177065D01*
X142693274Y-84119792D01*
X142799419Y-84013832D01*
X142856935Y-83875319D01*
X142857065Y-83725339D01*
X142799792Y-83586726D01*
X142693832Y-83480581D01*
X142555319Y-83423065D01*
X142405339Y-83422935D01*
X142266726Y-83480208D01*
X142160581Y-83586168D01*
X142103065Y-83724681D01*
X142102935Y-83874661D01*
X134856935Y-83874661D01*
X134857065Y-83725339D01*
X134799792Y-83586726D01*
X134693832Y-83480581D01*
X134555319Y-83423065D01*
X134405339Y-83422935D01*
X134266726Y-83480208D01*
X134160581Y-83586168D01*
X134103065Y-83724681D01*
X134102935Y-83874661D01*
X134056935Y-83874661D01*
X134057065Y-83725339D01*
X133999792Y-83586726D01*
X133893832Y-83480581D01*
X133755319Y-83423065D01*
X133687672Y-83423006D01*
X133641633Y-83376967D01*
X133754661Y-83377065D01*
X133893274Y-83319792D01*
X133999419Y-83213832D01*
X134048068Y-83096671D01*
X134902935Y-83096671D01*
X134960208Y-83235284D01*
X135066168Y-83341429D01*
X135204681Y-83398945D01*
X135354661Y-83399075D01*
X135493274Y-83341802D01*
X135599419Y-83235842D01*
X135656935Y-83097329D01*
X135657065Y-82947349D01*
X135599792Y-82808736D01*
X135493832Y-82702591D01*
X135355319Y-82645075D01*
X135205339Y-82644945D01*
X135066726Y-82702218D01*
X134960581Y-82808178D01*
X134903065Y-82946691D01*
X134902935Y-83096671D01*
X134048068Y-83096671D01*
X134056935Y-83075319D01*
X134057065Y-82925339D01*
X133999792Y-82786726D01*
X133893832Y-82680581D01*
X133755319Y-82623065D01*
X133687672Y-82623006D01*
X133632249Y-82567583D01*
X133723050Y-82567662D01*
X133861663Y-82510389D01*
X133967808Y-82404429D01*
X134025324Y-82265916D01*
X134025333Y-82254816D01*
X134056914Y-82254816D01*
X134114187Y-82393429D01*
X134220147Y-82499574D01*
X134358660Y-82557090D01*
X134508640Y-82557220D01*
X134647253Y-82499947D01*
X134753398Y-82393987D01*
X134810914Y-82255474D01*
X134811044Y-82105494D01*
X134753771Y-81966881D01*
X134647811Y-81860736D01*
X134509298Y-81803220D01*
X134359318Y-81803090D01*
X134220705Y-81860363D01*
X134114560Y-81966323D01*
X134057044Y-82104836D01*
X134056914Y-82254816D01*
X134025333Y-82254816D01*
X134025454Y-82115936D01*
X133968181Y-81977323D01*
X133862221Y-81871178D01*
X133723708Y-81813662D01*
X133573728Y-81813532D01*
X133435115Y-81870805D01*
X133328970Y-81976765D01*
X133271454Y-82115278D01*
X133271324Y-82265258D01*
X133279515Y-82285081D01*
X133226545Y-82274545D01*
X132417123Y-82274545D01*
X132456942Y-82178652D01*
X132457072Y-82028672D01*
X132399799Y-81890059D01*
X132293839Y-81783914D01*
X132216155Y-81751657D01*
X132293274Y-81719792D01*
X132399419Y-81613832D01*
X132431677Y-81536146D01*
X132463547Y-81613278D01*
X132569507Y-81719423D01*
X132708020Y-81776939D01*
X132858000Y-81777069D01*
X132996613Y-81719796D01*
X133102758Y-81613836D01*
X133154451Y-81489346D01*
X133250294Y-81489346D01*
X133307567Y-81627959D01*
X133413527Y-81734104D01*
X133552040Y-81791620D01*
X133702020Y-81791750D01*
X133840633Y-81734477D01*
X133946778Y-81628517D01*
X134004294Y-81490004D01*
X134004301Y-81481412D01*
X134094305Y-81481412D01*
X134151578Y-81620025D01*
X134257538Y-81726170D01*
X134396051Y-81783686D01*
X134546031Y-81783816D01*
X134684644Y-81726543D01*
X134790789Y-81620583D01*
X134848305Y-81482070D01*
X134848435Y-81332090D01*
X134791162Y-81193477D01*
X134685202Y-81087332D01*
X134546689Y-81029816D01*
X134396709Y-81029686D01*
X134258096Y-81086959D01*
X134151951Y-81192919D01*
X134094435Y-81331432D01*
X134094305Y-81481412D01*
X134004301Y-81481412D01*
X134004424Y-81340024D01*
X133947151Y-81201411D01*
X133841191Y-81095266D01*
X133702678Y-81037750D01*
X133552698Y-81037620D01*
X133414085Y-81094893D01*
X133307940Y-81200853D01*
X133250424Y-81339366D01*
X133250294Y-81489346D01*
X133154451Y-81489346D01*
X133160274Y-81475323D01*
X133160404Y-81325343D01*
X133103131Y-81186730D01*
X132997171Y-81080585D01*
X132858658Y-81023069D01*
X132708678Y-81022939D01*
X132570065Y-81080212D01*
X132463920Y-81186172D01*
X132431662Y-81263858D01*
X132399792Y-81186726D01*
X132293832Y-81080581D01*
X132155319Y-81023065D01*
X132005339Y-81022935D01*
X131866726Y-81080208D01*
X131760581Y-81186168D01*
X131703065Y-81324681D01*
X131702935Y-81474661D01*
X131760208Y-81613274D01*
X131866168Y-81719419D01*
X131943852Y-81751676D01*
X131866733Y-81783541D01*
X131760588Y-81889501D01*
X131703072Y-82028014D01*
X131702970Y-82145426D01*
X130227957Y-80670413D01*
X130898237Y-80670413D01*
X130955510Y-80809026D01*
X131061470Y-80915171D01*
X131199983Y-80972687D01*
X131349963Y-80972817D01*
X131488576Y-80915544D01*
X131594721Y-80809584D01*
X131652237Y-80671071D01*
X131652367Y-80521091D01*
X131595094Y-80382478D01*
X131489134Y-80276333D01*
X131350621Y-80218817D01*
X131200641Y-80218687D01*
X131062028Y-80275960D01*
X130955883Y-80381920D01*
X130898367Y-80520433D01*
X130898237Y-80670413D01*
X130227957Y-80670413D01*
X129834997Y-80277453D01*
X129835027Y-80241896D01*
X130112839Y-80241896D01*
X130170112Y-80380509D01*
X130276072Y-80486654D01*
X130414585Y-80544170D01*
X130564565Y-80544300D01*
X130703178Y-80487027D01*
X130809323Y-80381067D01*
X130866839Y-80242554D01*
X130866969Y-80092574D01*
X130809696Y-79953961D01*
X130703736Y-79847816D01*
X130565223Y-79790300D01*
X130415243Y-79790170D01*
X130276630Y-79847443D01*
X130170485Y-79953403D01*
X130112969Y-80091916D01*
X130112839Y-80241896D01*
X129835027Y-80241896D01*
X129835055Y-80210451D01*
X129777782Y-80071838D01*
X129671822Y-79965693D01*
X129533309Y-79908177D01*
X129383329Y-79908047D01*
X129244716Y-79965320D01*
X129138571Y-80071280D01*
X129138146Y-80072304D01*
X129018912Y-80022794D01*
X128868932Y-80022664D01*
X128730319Y-80079937D01*
X128680032Y-80130136D01*
X128630414Y-80080431D01*
X128491901Y-80022915D01*
X128341921Y-80022785D01*
X128203308Y-80080058D01*
X128149321Y-80133951D01*
X128103457Y-80088007D01*
X127964944Y-80030491D01*
X127933820Y-80030464D01*
X128299737Y-79664547D01*
X131470245Y-79664547D01*
X131527518Y-79803160D01*
X131633478Y-79909305D01*
X131771991Y-79966821D01*
X131921971Y-79966951D01*
X132060584Y-79909678D01*
X132166729Y-79803718D01*
X132224245Y-79665205D01*
X132224375Y-79515225D01*
X132167102Y-79376612D01*
X132061142Y-79270467D01*
X131922629Y-79212951D01*
X131772649Y-79212821D01*
X131634036Y-79270094D01*
X131527891Y-79376054D01*
X131470375Y-79514567D01*
X131470245Y-79664547D01*
X128299737Y-79664547D01*
X128422286Y-79541998D01*
X131185203Y-79541998D01*
X131289293Y-79521293D01*
X131377536Y-79462331D01*
X131716985Y-79122882D01*
X131783987Y-79122940D01*
X131922600Y-79065667D01*
X132028745Y-78959707D01*
X132086261Y-78821194D01*
X132086391Y-78671214D01*
X132029118Y-78532601D01*
X131923158Y-78426456D01*
X131784645Y-78368940D01*
X131634665Y-78368810D01*
X131496052Y-78426083D01*
X131389907Y-78532043D01*
X131332391Y-78670556D01*
X131332332Y-78738203D01*
X131072537Y-78997998D01*
X130774018Y-78997998D01*
X131260793Y-78511223D01*
X131327795Y-78511281D01*
X131466408Y-78454008D01*
X131572553Y-78348048D01*
X131630069Y-78209535D01*
X131630199Y-78059555D01*
X131572926Y-77920942D01*
X131466966Y-77814797D01*
X131328453Y-77757281D01*
X131233854Y-77757199D01*
X131233893Y-77712159D01*
X131176620Y-77573546D01*
X131070660Y-77467401D01*
X130932147Y-77409885D01*
X130782167Y-77409755D01*
X130643554Y-77467028D01*
X130537409Y-77572988D01*
X130479893Y-77711501D01*
X130479763Y-77861481D01*
X130537036Y-78000094D01*
X130642996Y-78106239D01*
X130781509Y-78163755D01*
X130838879Y-78163805D01*
X130321697Y-78680987D01*
X128062897Y-78680987D01*
X128133230Y-78610654D01*
X128200232Y-78610712D01*
X128338845Y-78553439D01*
X128444990Y-78447479D01*
X128502506Y-78308966D01*
X128502543Y-78265710D01*
X128515225Y-78270976D01*
X128665205Y-78271106D01*
X128803818Y-78213833D01*
X128909963Y-78107873D01*
X128967479Y-77969360D01*
X128967609Y-77819380D01*
X128910336Y-77680767D01*
X128804376Y-77574622D01*
X128665863Y-77517106D01*
X128598216Y-77517047D01*
X128582878Y-77501709D01*
X128494635Y-77442747D01*
X128484296Y-77440690D01*
X128501704Y-77398766D01*
X128569614Y-77426965D01*
X128719594Y-77427095D01*
X128858207Y-77369822D01*
X128964352Y-77263862D01*
X129002757Y-77171373D01*
X129025468Y-77194084D01*
X129025470Y-77194087D01*
X129046170Y-77207918D01*
X129115335Y-77254133D01*
X129221339Y-77275219D01*
X129221344Y-77275218D01*
X131699846Y-77275218D01*
X131603876Y-77371021D01*
X131546360Y-77509534D01*
X131546230Y-77659514D01*
X131603503Y-77798127D01*
X131709463Y-77904272D01*
X131847976Y-77961788D01*
X131997956Y-77961918D01*
X132136569Y-77904645D01*
X132242714Y-77798685D01*
X132300230Y-77660172D01*
X132300360Y-77510192D01*
X132243087Y-77371579D01*
X132146894Y-77275218D01*
X132159137Y-77275218D01*
X132282461Y-77398542D01*
X132372326Y-77458588D01*
X132478330Y-77479674D01*
X132478335Y-77479673D01*
X132504995Y-77479673D01*
X132547340Y-77522092D01*
X132685853Y-77579608D01*
X132835833Y-77579738D01*
X132974446Y-77522465D01*
X133080591Y-77416505D01*
X133138107Y-77277992D01*
X133138237Y-77128012D01*
X133080964Y-76989399D01*
X133019155Y-76927482D01*
X133056664Y-76890039D01*
X133114180Y-76751526D01*
X133114214Y-76712457D01*
X133199738Y-76797981D01*
X133199738Y-78142931D01*
X133220443Y-78247021D01*
X133279405Y-78335264D01*
X133955474Y-79011333D01*
X134043717Y-79070295D01*
X134147807Y-79091000D01*
X134351832Y-79091000D01*
X134399168Y-79138419D01*
X134537681Y-79195935D01*
X134687661Y-79196065D01*
X134826274Y-79138792D01*
X134932419Y-79032832D01*
X134989935Y-78894319D01*
X134989978Y-78845101D01*
X135466978Y-79322101D01*
X135466978Y-81096090D01*
X135392287Y-81065075D01*
X135242307Y-81064945D01*
X135103694Y-81122218D01*
X134997549Y-81228178D01*
X134940033Y-81366691D01*
X134939903Y-81516671D01*
X134997176Y-81655284D01*
X135103136Y-81761429D01*
X135236519Y-81816815D01*
X135203329Y-81816786D01*
X135064716Y-81874059D01*
X134958571Y-81980019D01*
X134901055Y-82118532D01*
X134900925Y-82268512D01*
X134958198Y-82407125D01*
X135064158Y-82513270D01*
X135202671Y-82570786D01*
X135352651Y-82570916D01*
X135491264Y-82513643D01*
X135597409Y-82407683D01*
X135654925Y-82269170D01*
X135654984Y-82201523D01*
X135801468Y-82055039D01*
X135747620Y-82184719D01*
X135747490Y-82334699D01*
X135804763Y-82473312D01*
X135910723Y-82579457D01*
X136015450Y-82622944D01*
X136005339Y-82622935D01*
X135866726Y-82680208D01*
X135760581Y-82786168D01*
X135703065Y-82924681D01*
X135702935Y-83074661D01*
X135760208Y-83213274D01*
X135866168Y-83319419D01*
X136004681Y-83376935D01*
X136154661Y-83377065D01*
X136293274Y-83319792D01*
X136399419Y-83213832D01*
X136448903Y-83094661D01*
X136522935Y-83094661D01*
X136580208Y-83233274D01*
X136686168Y-83339419D01*
X136824681Y-83396935D01*
X136974661Y-83397065D01*
X137113274Y-83339792D01*
X137219419Y-83233832D01*
X137268377Y-83115927D01*
X140484264Y-83115927D01*
X140541537Y-83254540D01*
X140647497Y-83360685D01*
X140786010Y-83418201D01*
X140935990Y-83418331D01*
X141074603Y-83361058D01*
X141180748Y-83255098D01*
X141238264Y-83116585D01*
X141238394Y-82966605D01*
X141181121Y-82827992D01*
X141075161Y-82721847D01*
X140936648Y-82664331D01*
X140786668Y-82664201D01*
X140648055Y-82721474D01*
X140541910Y-82827434D01*
X140484394Y-82965947D01*
X140484264Y-83115927D01*
X137268377Y-83115927D01*
X137276935Y-83095319D01*
X137277065Y-82945339D01*
X137219792Y-82806726D01*
X137113832Y-82700581D01*
X136975319Y-82643065D01*
X136825339Y-82642935D01*
X136686726Y-82700208D01*
X136580581Y-82806168D01*
X136523065Y-82944681D01*
X136522935Y-83094661D01*
X136448903Y-83094661D01*
X136456935Y-83075319D01*
X136457065Y-82925339D01*
X136399792Y-82786726D01*
X136293832Y-82680581D01*
X136189105Y-82637094D01*
X136199216Y-82637103D01*
X136337829Y-82579830D01*
X136443974Y-82473870D01*
X136501490Y-82335357D01*
X136501549Y-82267710D01*
X136522977Y-82246282D01*
X136522935Y-82294661D01*
X136580208Y-82433274D01*
X136686168Y-82539419D01*
X136824681Y-82596935D01*
X136974661Y-82597065D01*
X137113274Y-82539792D01*
X137219419Y-82433832D01*
X137276935Y-82295319D01*
X137277065Y-82145339D01*
X137219792Y-82006726D01*
X137172000Y-81958851D01*
X137172000Y-78697063D01*
X137174661Y-78697065D01*
X137313274Y-78639792D01*
X137419419Y-78533832D01*
X137476935Y-78395319D01*
X137477065Y-78245339D01*
X137419792Y-78106726D01*
X137342841Y-78029641D01*
X137417068Y-77955544D01*
X137474584Y-77817031D01*
X137474714Y-77667051D01*
X137417441Y-77528438D01*
X137358104Y-77468997D01*
X137398305Y-77428866D01*
X137455821Y-77290353D01*
X137455951Y-77140373D01*
X137398678Y-77001760D01*
X137377177Y-76980222D01*
X137452847Y-76904684D01*
X137510363Y-76766171D01*
X137510464Y-76650000D01*
X137698507Y-76650000D01*
X137698507Y-80996827D01*
G36*
X143699948Y-90341629D02*
X143757221Y-90480242D01*
X143863181Y-90586387D01*
X143925686Y-90612342D01*
X143866726Y-90636703D01*
X143760581Y-90742663D01*
X143703065Y-90881176D01*
X143702935Y-91031156D01*
X143760208Y-91169769D01*
X143866168Y-91275914D01*
X144004681Y-91333430D01*
X144154661Y-91333560D01*
X144293274Y-91276287D01*
X144399419Y-91170327D01*
X144456935Y-91031814D01*
X144456994Y-90964167D01*
X144525994Y-90895167D01*
X144525876Y-91031156D01*
X144583149Y-91169769D01*
X144689109Y-91275914D01*
X144827622Y-91333430D01*
X144977602Y-91333560D01*
X145116215Y-91276287D01*
X145222360Y-91170327D01*
X145279876Y-91031814D01*
X145280006Y-90881834D01*
X145248877Y-90806494D01*
X148901828Y-90806494D01*
X149630000Y-91534666D01*
X149630000Y-93499943D01*
X148801943Y-94328000D01*
X145640338Y-94328000D01*
X144251776Y-92939438D01*
X144326522Y-92908554D01*
X144432667Y-92802594D01*
X144490183Y-92664081D01*
X144490192Y-92652651D01*
X144505287Y-92652651D01*
X144562560Y-92791264D01*
X144668520Y-92897409D01*
X144807033Y-92954925D01*
X144957013Y-92955055D01*
X145095626Y-92897782D01*
X145201771Y-92791822D01*
X145259287Y-92653309D01*
X145259417Y-92503329D01*
X145202144Y-92364716D01*
X145096184Y-92258571D01*
X144957671Y-92201055D01*
X144807691Y-92200925D01*
X144669078Y-92258198D01*
X144562933Y-92364158D01*
X144505417Y-92502671D01*
X144505287Y-92652651D01*
X144490192Y-92652651D01*
X144490313Y-92514101D01*
X144433040Y-92375488D01*
X144327080Y-92269343D01*
X144215856Y-92223158D01*
X144278105Y-92197438D01*
X144384250Y-92091478D01*
X144441766Y-91952965D01*
X144441816Y-91894661D01*
X144522935Y-91894661D01*
X144580208Y-92033274D01*
X144686168Y-92139419D01*
X144824681Y-92196935D01*
X144974661Y-92197065D01*
X145113274Y-92139792D01*
X145161149Y-92092000D01*
X146987334Y-92092000D01*
X147628000Y-92732666D01*
X147628000Y-92929889D01*
X147573038Y-92874831D01*
X147424604Y-92813196D01*
X147263883Y-92813056D01*
X147115342Y-92874432D01*
X147001596Y-92987979D01*
X146939961Y-93136413D01*
X146939821Y-93297134D01*
X147001197Y-93445675D01*
X147114744Y-93559421D01*
X147263178Y-93621056D01*
X147374359Y-93621153D01*
X147323065Y-93744681D01*
X147322935Y-93894661D01*
X147380208Y-94033274D01*
X147486168Y-94139419D01*
X147624681Y-94196935D01*
X147774661Y-94197065D01*
X147913274Y-94139792D01*
X148019419Y-94033832D01*
X148076935Y-93895319D01*
X148076994Y-93827672D01*
X148092333Y-93812333D01*
X148104724Y-93793788D01*
X148151295Y-93724090D01*
X148159827Y-93681197D01*
X148268297Y-93726237D01*
X148429018Y-93726377D01*
X148577559Y-93665001D01*
X148691305Y-93551454D01*
X148752940Y-93403020D01*
X148753080Y-93242299D01*
X148691704Y-93093758D01*
X148578157Y-92980012D01*
X148429723Y-92918377D01*
X148269002Y-92918237D01*
X148172000Y-92958317D01*
X148172000Y-92620000D01*
X148151295Y-92515910D01*
X148092333Y-92427667D01*
X147292333Y-91627667D01*
X147204090Y-91568705D01*
X147100000Y-91548000D01*
X145161168Y-91548000D01*
X145113832Y-91500581D01*
X144975319Y-91443065D01*
X144825339Y-91442935D01*
X144686726Y-91500208D01*
X144580581Y-91606168D01*
X144523065Y-91744681D01*
X144522935Y-91894661D01*
X144441816Y-91894661D01*
X144441896Y-91802985D01*
X144384623Y-91664372D01*
X144278663Y-91558227D01*
X144140150Y-91500711D01*
X143990170Y-91500581D01*
X143851557Y-91557854D01*
X143745412Y-91663814D01*
X143687896Y-91802327D01*
X143687837Y-91869974D01*
X143638787Y-91919024D01*
X143656935Y-91875319D01*
X143657065Y-91725339D01*
X143599792Y-91586726D01*
X143493832Y-91480581D01*
X143355319Y-91423065D01*
X143205339Y-91422935D01*
X143119693Y-91458323D01*
X143119693Y-91324857D01*
X143246691Y-91377592D01*
X143396671Y-91377722D01*
X143535284Y-91320449D01*
X143641429Y-91214489D01*
X143698945Y-91075976D01*
X143699075Y-90925996D01*
X143641802Y-90787383D01*
X143535842Y-90681238D01*
X143397329Y-90623722D01*
X143247349Y-90623592D01*
X143119693Y-90676338D01*
X143119693Y-90526151D01*
X143246691Y-90578886D01*
X143396671Y-90579016D01*
X143535284Y-90521743D01*
X143641429Y-90415783D01*
X143698945Y-90277270D01*
X143699004Y-90209623D01*
X143700063Y-90208564D01*
X143699948Y-90341629D01*
X143699948Y-90341629D01*
G37*
X143699948Y-90341629D02*
X143757221Y-90480242D01*
X143863181Y-90586387D01*
X143925686Y-90612342D01*
X143866726Y-90636703D01*
X143760581Y-90742663D01*
X143703065Y-90881176D01*
X143702935Y-91031156D01*
X143760208Y-91169769D01*
X143866168Y-91275914D01*
X144004681Y-91333430D01*
X144154661Y-91333560D01*
X144293274Y-91276287D01*
X144399419Y-91170327D01*
X144456935Y-91031814D01*
X144456994Y-90964167D01*
X144525994Y-90895167D01*
X144525876Y-91031156D01*
X144583149Y-91169769D01*
X144689109Y-91275914D01*
X144827622Y-91333430D01*
X144977602Y-91333560D01*
X145116215Y-91276287D01*
X145222360Y-91170327D01*
X145279876Y-91031814D01*
X145280006Y-90881834D01*
X145248877Y-90806494D01*
X148901828Y-90806494D01*
X149630000Y-91534666D01*
X149630000Y-93499943D01*
X148801943Y-94328000D01*
X145640338Y-94328000D01*
X144251776Y-92939438D01*
X144326522Y-92908554D01*
X144432667Y-92802594D01*
X144490183Y-92664081D01*
X144490192Y-92652651D01*
X144505287Y-92652651D01*
X144562560Y-92791264D01*
X144668520Y-92897409D01*
X144807033Y-92954925D01*
X144957013Y-92955055D01*
X145095626Y-92897782D01*
X145201771Y-92791822D01*
X145259287Y-92653309D01*
X145259417Y-92503329D01*
X145202144Y-92364716D01*
X145096184Y-92258571D01*
X144957671Y-92201055D01*
X144807691Y-92200925D01*
X144669078Y-92258198D01*
X144562933Y-92364158D01*
X144505417Y-92502671D01*
X144505287Y-92652651D01*
X144490192Y-92652651D01*
X144490313Y-92514101D01*
X144433040Y-92375488D01*
X144327080Y-92269343D01*
X144215856Y-92223158D01*
X144278105Y-92197438D01*
X144384250Y-92091478D01*
X144441766Y-91952965D01*
X144441816Y-91894661D01*
X144522935Y-91894661D01*
X144580208Y-92033274D01*
X144686168Y-92139419D01*
X144824681Y-92196935D01*
X144974661Y-92197065D01*
X145113274Y-92139792D01*
X145161149Y-92092000D01*
X146987334Y-92092000D01*
X147628000Y-92732666D01*
X147628000Y-92929889D01*
X147573038Y-92874831D01*
X147424604Y-92813196D01*
X147263883Y-92813056D01*
X147115342Y-92874432D01*
X147001596Y-92987979D01*
X146939961Y-93136413D01*
X146939821Y-93297134D01*
X147001197Y-93445675D01*
X147114744Y-93559421D01*
X147263178Y-93621056D01*
X147374359Y-93621153D01*
X147323065Y-93744681D01*
X147322935Y-93894661D01*
X147380208Y-94033274D01*
X147486168Y-94139419D01*
X147624681Y-94196935D01*
X147774661Y-94197065D01*
X147913274Y-94139792D01*
X148019419Y-94033832D01*
X148076935Y-93895319D01*
X148076994Y-93827672D01*
X148092333Y-93812333D01*
X148104724Y-93793788D01*
X148151295Y-93724090D01*
X148159827Y-93681197D01*
X148268297Y-93726237D01*
X148429018Y-93726377D01*
X148577559Y-93665001D01*
X148691305Y-93551454D01*
X148752940Y-93403020D01*
X148753080Y-93242299D01*
X148691704Y-93093758D01*
X148578157Y-92980012D01*
X148429723Y-92918377D01*
X148269002Y-92918237D01*
X148172000Y-92958317D01*
X148172000Y-92620000D01*
X148151295Y-92515910D01*
X148092333Y-92427667D01*
X147292333Y-91627667D01*
X147204090Y-91568705D01*
X147100000Y-91548000D01*
X145161168Y-91548000D01*
X145113832Y-91500581D01*
X144975319Y-91443065D01*
X144825339Y-91442935D01*
X144686726Y-91500208D01*
X144580581Y-91606168D01*
X144523065Y-91744681D01*
X144522935Y-91894661D01*
X144441816Y-91894661D01*
X144441896Y-91802985D01*
X144384623Y-91664372D01*
X144278663Y-91558227D01*
X144140150Y-91500711D01*
X143990170Y-91500581D01*
X143851557Y-91557854D01*
X143745412Y-91663814D01*
X143687896Y-91802327D01*
X143687837Y-91869974D01*
X143638787Y-91919024D01*
X143656935Y-91875319D01*
X143657065Y-91725339D01*
X143599792Y-91586726D01*
X143493832Y-91480581D01*
X143355319Y-91423065D01*
X143205339Y-91422935D01*
X143119693Y-91458323D01*
X143119693Y-91324857D01*
X143246691Y-91377592D01*
X143396671Y-91377722D01*
X143535284Y-91320449D01*
X143641429Y-91214489D01*
X143698945Y-91075976D01*
X143699075Y-90925996D01*
X143641802Y-90787383D01*
X143535842Y-90681238D01*
X143397329Y-90623722D01*
X143247349Y-90623592D01*
X143119693Y-90676338D01*
X143119693Y-90526151D01*
X143246691Y-90578886D01*
X143396671Y-90579016D01*
X143535284Y-90521743D01*
X143641429Y-90415783D01*
X143698945Y-90277270D01*
X143699004Y-90209623D01*
X143700063Y-90208564D01*
X143699948Y-90341629D01*
M02*
