M48
INCH,TZ
T1C0.008
T2C0.010
T3C0.012
T4C0.016
T5C0.020
T6C0.031
T7C0.040
T8C0.126
T9C0.067
%
G90
G05
T1
X39402Y-41024
X39547Y-39781
X41435Y-34093
X41564Y-40024
X41586Y-40674
X41659Y-40480
X41691Y-40853
X41729Y-41057
X41767Y-41328
X41841Y-40116
X43213Y-26842
X43244Y-28984
X43543Y-29366
X44053Y-33958
X44124Y-28272
X44336Y-28269
X44550Y-26601
X44748Y-35187
X44764Y-38591
X44923Y-29375
X45084Y-32445
X45103Y-38795
X45351Y-38808
X45747Y-28381
X45798Y-38894
X45984Y-38709
X46029Y-30455
X47247Y-26381
X47535Y-30195
X47673Y-35730
X47808Y-35556
X47908Y-37291
X48239Y-37687
X48399Y-37293
X48533Y-40046
X48707Y-35849
X48828Y-35680
X48899Y-42208
X48946Y-41340
X48961Y-34360
X48961Y-34360
X49068Y-36662
X49097Y-39420
X49153Y-37836
X49256Y-36574
X49289Y-27151
X49419Y-36707
X50016Y-34814
X50121Y-35520
X50165Y-40975
X50231Y-42470
X50350Y-31656
X50443Y-30801
X50454Y-30416
X50459Y-32878
X50465Y-33210
X50475Y-33417
X50479Y-43213
X50504Y-40630
X50517Y-35259
X50525Y-29831
X50558Y-31653
X50626Y-30667
X50639Y-33096
X50648Y-30335
X50699Y-34302
X50711Y-40624
X50718Y-33525
X50765Y-31653
X50789Y-39439
X50799Y-36215
X50809Y-32748
X50830Y-32541
X50837Y-29652
X50887Y-29190
X50934Y-36851
X50964Y-35383
X50968Y-31608
X50979Y-33102
X50982Y-29818
X51006Y-36215
X51047Y-39431
X51175Y-36090
X51202Y-37052
X51262Y-32913
X51264Y-36726
X51347Y-37581
X51374Y-31562
X51411Y-36408
X51459Y-26420
X51512Y-40633
X51518Y-30625
X51590Y-40231
X51608Y-37624
X51674Y-30762
X51683Y-31731
X51684Y-33942
X51685Y-35200
X51699Y-37385
X51704Y-26350
X51753Y-40633
X51828Y-26622
X51854Y-31002
X51908Y-31335
X51938Y-30545
X51963Y-37955
X51978Y-43215
X51981Y-36772
X51993Y-33281
X51997Y-33613
X51998Y-35201
X51999Y-35828
X52000Y-32671
X52000Y-32047
X52000Y-34252
X52000Y-37087
X52000Y-32324
X52001Y-33961
X52001Y-33003
X52002Y-34865
X52008Y-35495
X52012Y-36428
X52033Y-41805
X52055Y-43023
X52081Y-42817
X52153Y-41143
X52247Y-43181
X52259Y-30187
X52268Y-30395
X52277Y-32047
X52297Y-33613
X52302Y-37085
X52308Y-32332
X52312Y-33281
X52312Y-32665
X52315Y-34882
X52315Y-35827
X52315Y-36142
X52315Y-36457
X52315Y-36772
X52315Y-33031
X52323Y-35504
X52337Y-40831
X52447Y-42309
X52609Y-32053
X52617Y-32359
X52627Y-33305
X52630Y-32677
X52630Y-32992
X52630Y-33622
X52630Y-36142
X52630Y-36457
X52632Y-36773
X52663Y-37951
X52698Y-37746
X52707Y-30727
X52805Y-26290
X52927Y-32354
X52935Y-37113
X52939Y-42851
X52941Y-32050
X52945Y-32992
X52945Y-35827
X52997Y-31031
X53004Y-30366
X53007Y-43197
X53022Y-42571
X53034Y-41539
X53051Y-42051
X53219Y-29993
X53242Y-30531
X53257Y-34889
X53259Y-32360
X53260Y-32686
X53260Y-33638
X53260Y-33937
X53260Y-36457
X53260Y-31726
X53262Y-37396
X53263Y-37097
X53274Y-32064
X53285Y-35190
X53336Y-30346
X53353Y-38648
X53408Y-43548
X53554Y-38552
X53575Y-32677
X53581Y-36760
X53592Y-32386
X53607Y-32054
X53890Y-36457
X53892Y-35510
X53898Y-32370
X53898Y-32685
X53915Y-35186
X53925Y-29955
X53934Y-30401
X53934Y-30609
X53940Y-30194
X53945Y-30847
X54181Y-29221
X54196Y-36078
X54205Y-32047
X54205Y-34882
X54205Y-36772
X54205Y-33281
X54208Y-35481
X54567Y-30499
X54692Y-30664
X54832Y-33312
X54835Y-32047
X54835Y-36772
X54837Y-35503
X54873Y-30765
X54960Y-30954
X55065Y-27034
X55124Y-33934
X55130Y-32362
X55132Y-32047
X55133Y-35178
X55155Y-35481
X55447Y-33281
X55457Y-32693
X55462Y-32353
X55462Y-35997
X55465Y-32047
X55465Y-36772
X55465Y-30667
X55471Y-34573
X55622Y-38442
X55780Y-33622
X55780Y-33937
X55780Y-34882
X55780Y-36457
X55798Y-32360
X55798Y-32677
X56015Y-35827
X56059Y-29227
X56084Y-30493
X56087Y-31740
X56087Y-32055
X56087Y-32685
X56094Y-32992
X56094Y-37087
X56094Y-37402
X56130Y-32364
X56207Y-30820
X56210Y-31027
X56402Y-33315
X56405Y-36778
X56409Y-32992
X56409Y-34252
X56409Y-36142
X56412Y-32694
X56417Y-33945
X56426Y-34880
X56426Y-35513
X56426Y-35827
X56430Y-32038
X56430Y-32361
X56479Y-29220
X56555Y-25143
X56578Y-29849
X56718Y-36172
X56723Y-35195
X56723Y-35538
X56724Y-33937
X56724Y-35810
X56726Y-34876
X56733Y-33621
X56734Y-32983
X56734Y-33331
X56737Y-36452
X56745Y-32677
X56762Y-32047
X56762Y-32362
X56917Y-30912
X56928Y-31245
X57002Y-30723
X57030Y-35145
X57034Y-35477
X57037Y-33974
X57038Y-34891
X57039Y-32009
X57040Y-36448
X57043Y-32341
X57043Y-33641
X57045Y-34243
X57046Y-33006
X57047Y-36150
X57048Y-35810
X57052Y-33321
X57054Y-32674
X57351Y-33620
X57354Y-32049
X57359Y-37074
X57386Y-35831
X57551Y-27874
X57636Y-38320
X57670Y-31425
X57712Y-29990
X57835Y-29785
X57943Y-38320
X57947Y-28031
X58044Y-35477
X58145Y-33612
X58145Y-31883
X58150Y-36937
X58233Y-34521
X58240Y-37535
X58261Y-28089
X58337Y-31804
X58458Y-34491
X58508Y-32168
X58542Y-31835
X58562Y-37665
X58631Y-32851
X58714Y-24970
X58773Y-37550
X58849Y-27409
X58856Y-40948
X58872Y-34217
X58878Y-31838
X58950Y-32995
X58965Y-32215
X58975Y-37500
X58995Y-32009
X59067Y-28083
X59165Y-37417
X59191Y-37212
X59405Y-37139
X60038Y-31179
X60353Y-27034
X60747Y-28581
X60760Y-25450
X60797Y-40546
X61069Y-28175
X62487Y-42254
X62547Y-28581
X63886Y-26096
X64450Y-28166
X65028Y-38451
X65277Y-38325
X65493Y-27888
X66207Y-31145
X66735Y-42501
X67001Y-27390
X67047Y-26831
X67051Y-33638
X67072Y-42239
X67080Y-41261
X67219Y-29317
X67303Y-26821
X67536Y-39624
X67793Y-39805
X67939Y-34536
X68010Y-29271
X68016Y-40020
X68045Y-39213
X68063Y-38826
X68165Y-34486
X68447Y-28165
X68745Y-27704
X69412Y-40661
X69567Y-33157
X69793Y-41370
X69797Y-37681
X70050Y-35359
X70611Y-34988
X71000Y-30440
X71919Y-43952
T2
X52539Y-40249
X53575Y-33307
X53587Y-34250
X53913Y-33936
X54205Y-34252
X54829Y-36069
X54835Y-34252
X54835Y-34882
X55529Y-34250
X57851Y-37973
X58009Y-36700
X58084Y-37761
X58405Y-36741
T3
X40437Y-38817
X41047Y-39681
X48597Y-42902
X60050Y-32072
X60864Y-37247
X61452Y-37308
X61521Y-32027
X62493Y-31909
X63416Y-31887
X64356Y-31867
X64915Y-31866
T4
X43541Y-42770
T5
X40042Y-32450
X42116Y-25572
X42134Y-26468
X43358Y-35444
X46016Y-25513
X58373Y-31122
X59747Y-39281
X62047Y-24781
X62129Y-26641
X62417Y-37350
X63349Y-37404
X64156Y-37432
X64813Y-37395
X64940Y-24880
X65455Y-31240
X65463Y-30493
X65466Y-37411
X69092Y-25324
X69392Y-37121
X69944Y-32394
T7
X37547Y-24681
X37547Y-25681
X37547Y-26681
X37547Y-27681
X37547Y-28681
X37547Y-29681
X37547Y-30681
X37547Y-31681
X37547Y-32681
X37547Y-33681
X37547Y-34681
X37547Y-35681
X37547Y-36681
X37547Y-37681
X37547Y-38681
X37547Y-39681
X37547Y-40681
X37547Y-41681
X37547Y-42681
X37547Y-43681
X38547Y-24681
X38547Y-25681
X38547Y-26681
X38547Y-27681
X38547Y-28681
X38547Y-29681
X38547Y-30681
X38547Y-31681
X38547Y-32681
X38547Y-33681
X38547Y-34681
X38547Y-35681
X38547Y-36681
X38547Y-37681
X38547Y-38681
X38547Y-39681
X38547Y-40681
X38547Y-41681
X38547Y-42681
X38547Y-43681
X40047Y-37581
X41047Y-37581
X52047Y-39681
X53047Y-39681
X54047Y-39681
X54297Y-41181
X54297Y-42181
X54297Y-43181
X55047Y-39681
X55297Y-41181
X55297Y-42181
X55297Y-43181
X56047Y-39681
X57047Y-39681
X58047Y-39681
X72547Y-24681
X72547Y-25681
X72547Y-26681
X72547Y-27681
X72547Y-28681
X72547Y-29681
X72547Y-30681
X72547Y-31681
X72547Y-32681
X72547Y-33681
X72547Y-34681
X72547Y-35681
X72547Y-36681
X72547Y-37681
X72547Y-38681
X72547Y-39681
X72547Y-40681
X72547Y-41681
X72547Y-42681
X72547Y-43681
X73547Y-24681
X73547Y-25681
X73547Y-26681
X73547Y-27681
X73547Y-28681
X73547Y-29681
X73547Y-30681
X73547Y-31681
X73547Y-32681
X73547Y-33681
X73547Y-34681
X73547Y-35681
X73547Y-36681
X73547Y-37681
X73547Y-38681
X73547Y-39681
X73547Y-40681
X73547Y-41681
X73547Y-42681
X73547Y-43681
T8
X40547Y-25681
X40547Y-42681
X70547Y-25681
X70547Y-42681
T9
X49047Y-26200
X49047Y-28956
T6
X54205Y-25591G85X54205Y-25984
G05
X54205Y-27894G85X54205Y-28445
G05
X59953Y-25591G85X59953Y-25984
G05
X59953Y-27894G85X59953Y-28445
G05
T0
M30
