G04 #@! TF.FileFunction,Soldermask,Top*
%FSLAX46Y46*%
G04 Gerber Fmt 4.6, Leading zero omitted, Abs format (unit mm)*
G04 Created by KiCad (PCBNEW 4.0.5+dfsg1-4) date Tue May 16 14:48:21 2017*
%MOMM*%
%LPD*%
G01*
G04 APERTURE LIST*
%ADD10C,0.100000*%
%ADD11C,0.430000*%
%ADD12R,2.432000X1.924000*%
%ADD13R,1.100000X2.200000*%
%ADD14R,2.000000X1.800000*%
%ADD15R,2.200000X1.800000*%
%ADD16R,1.800000X2.300000*%
%ADD17R,2.200000X1.500000*%
%ADD18R,1.598880X1.598880*%
%ADD19R,3.200000X2.600000*%
%ADD20R,3.200000X3.200000*%
%ADD21R,3.200000X2.400000*%
%ADD22C,2.100000*%
%ADD23R,0.960000X1.300000*%
%ADD24O,1.700000X3.100000*%
%ADD25O,1.700000X2.700000*%
%ADD26R,0.350000X1.700000*%
%ADD27R,2.127200X2.127200*%
%ADD28O,2.127200X2.127200*%
%ADD29C,5.900000*%
%ADD30R,1.600000X1.300000*%
%ADD31R,2.127200X2.432000*%
%ADD32O,2.127200X2.432000*%
%ADD33R,1.150000X1.600000*%
%ADD34R,1.300000X1.600000*%
G04 APERTURE END LIST*
D10*
D11*
X131680000Y-80200000D03*
X132480000Y-80200000D03*
X133280000Y-80200000D03*
X134080000Y-80200000D03*
X134880000Y-80200000D03*
X135680000Y-80200000D03*
X136480000Y-80200000D03*
X137280000Y-80200000D03*
X138080000Y-80200000D03*
X138880000Y-80200000D03*
X139680000Y-80200000D03*
X140480000Y-80200000D03*
X141280000Y-80200000D03*
X142080000Y-80200000D03*
X142880000Y-80200000D03*
X143680000Y-80200000D03*
X144480000Y-80200000D03*
X145280000Y-80200000D03*
X130880000Y-81000000D03*
X131680000Y-81000000D03*
X132480000Y-81000000D03*
X133280000Y-81000000D03*
X134080000Y-81000000D03*
X134880000Y-81000000D03*
X135680000Y-81000000D03*
X136480000Y-81000000D03*
X137280000Y-81000000D03*
X138080000Y-81000000D03*
X138880000Y-81000000D03*
X139680000Y-81000000D03*
X140480000Y-81000000D03*
X141280000Y-81000000D03*
X142080000Y-81000000D03*
X142880000Y-81000000D03*
X143680000Y-81000000D03*
X144480000Y-81000000D03*
X145280000Y-81000000D03*
X146080000Y-81000000D03*
X130880000Y-81800000D03*
X131680000Y-81800000D03*
X132480000Y-81800000D03*
X133280000Y-81800000D03*
X134080000Y-81800000D03*
X134880000Y-81800000D03*
X135680000Y-81800000D03*
X136480000Y-81800000D03*
X137280000Y-81800000D03*
X138080000Y-81800000D03*
X138880000Y-81800000D03*
X139680000Y-81800000D03*
X140480000Y-81800000D03*
X141280000Y-81800000D03*
X142080000Y-81800000D03*
X142880000Y-81800000D03*
X143680000Y-81800000D03*
X144480000Y-81800000D03*
X145280000Y-81800000D03*
X146080000Y-81800000D03*
X130880000Y-82600000D03*
X131680000Y-82600000D03*
X132480000Y-82600000D03*
X133280000Y-82600000D03*
X134080000Y-82600000D03*
X134880000Y-82600000D03*
X135680000Y-82600000D03*
X136480000Y-82600000D03*
X137280000Y-82600000D03*
X138080000Y-82600000D03*
X138880000Y-82600000D03*
X139680000Y-82600000D03*
X140480000Y-82600000D03*
X141280000Y-82600000D03*
X142080000Y-82600000D03*
X142880000Y-82600000D03*
X143680000Y-82600000D03*
X144480000Y-82600000D03*
X145280000Y-82600000D03*
X146080000Y-82600000D03*
X130880000Y-83400000D03*
X131680000Y-83400000D03*
X132480000Y-83400000D03*
X133280000Y-83400000D03*
X134080000Y-83400000D03*
X134880000Y-83400000D03*
X135680000Y-83400000D03*
X136480000Y-83400000D03*
X137280000Y-83400000D03*
X138080000Y-83400000D03*
X138880000Y-83400000D03*
X139680000Y-83400000D03*
X140480000Y-83400000D03*
X141280000Y-83400000D03*
X142080000Y-83400000D03*
X142880000Y-83400000D03*
X143680000Y-83400000D03*
X144480000Y-83400000D03*
X145280000Y-83400000D03*
X146080000Y-83400000D03*
X130880000Y-84200000D03*
X131680000Y-84200000D03*
X132480000Y-84200000D03*
X133280000Y-84200000D03*
X134080000Y-84200000D03*
X134880000Y-84200000D03*
X135680000Y-84200000D03*
X136480000Y-84200000D03*
X137280000Y-84200000D03*
X138080000Y-84200000D03*
X138880000Y-84200000D03*
X139680000Y-84200000D03*
X140480000Y-84200000D03*
X141280000Y-84200000D03*
X142080000Y-84200000D03*
X142880000Y-84200000D03*
X143680000Y-84200000D03*
X144480000Y-84200000D03*
X145280000Y-84200000D03*
X146080000Y-84200000D03*
X130880000Y-85000000D03*
X131680000Y-85000000D03*
X132480000Y-85000000D03*
X133280000Y-85000000D03*
X134080000Y-85000000D03*
X134880000Y-85000000D03*
X135680000Y-85000000D03*
X136480000Y-85000000D03*
X137280000Y-85000000D03*
X138080000Y-85000000D03*
X138880000Y-85000000D03*
X139680000Y-85000000D03*
X140480000Y-85000000D03*
X141280000Y-85000000D03*
X142080000Y-85000000D03*
X142880000Y-85000000D03*
X143680000Y-85000000D03*
X144480000Y-85000000D03*
X145280000Y-85000000D03*
X146080000Y-85000000D03*
X130880000Y-85800000D03*
X131680000Y-85800000D03*
X132480000Y-85800000D03*
X133280000Y-85800000D03*
X134080000Y-85800000D03*
X134880000Y-85800000D03*
X135680000Y-85800000D03*
X136480000Y-85800000D03*
X137280000Y-85800000D03*
X138080000Y-85800000D03*
X138880000Y-85800000D03*
X139680000Y-85800000D03*
X140480000Y-85800000D03*
X141280000Y-85800000D03*
X142080000Y-85800000D03*
X142880000Y-85800000D03*
X143680000Y-85800000D03*
X144480000Y-85800000D03*
X145280000Y-85800000D03*
X146080000Y-85800000D03*
X130880000Y-86600000D03*
X131680000Y-86600000D03*
X132480000Y-86600000D03*
X133280000Y-86600000D03*
X134080000Y-86600000D03*
X134880000Y-86600000D03*
X135680000Y-86600000D03*
X136480000Y-86600000D03*
X137280000Y-86600000D03*
X138080000Y-86600000D03*
X138880000Y-86600000D03*
X139680000Y-86600000D03*
X140480000Y-86600000D03*
X141280000Y-86600000D03*
X142080000Y-86600000D03*
X142880000Y-86600000D03*
X143680000Y-86600000D03*
X144480000Y-86600000D03*
X145280000Y-86600000D03*
X146080000Y-86600000D03*
X130880000Y-87400000D03*
X131680000Y-87400000D03*
X132480000Y-87400000D03*
X133280000Y-87400000D03*
X134080000Y-87400000D03*
X134880000Y-87400000D03*
X135680000Y-87400000D03*
X136480000Y-87400000D03*
X137280000Y-87400000D03*
X138080000Y-87400000D03*
X138880000Y-87400000D03*
X139680000Y-87400000D03*
X140480000Y-87400000D03*
X141280000Y-87400000D03*
X142080000Y-87400000D03*
X142880000Y-87400000D03*
X143680000Y-87400000D03*
X144480000Y-87400000D03*
X145280000Y-87400000D03*
X146080000Y-87400000D03*
X130880000Y-88200000D03*
X131680000Y-88200000D03*
X132480000Y-88200000D03*
X133280000Y-88200000D03*
X134080000Y-88200000D03*
X134880000Y-88200000D03*
X135680000Y-88200000D03*
X136480000Y-88200000D03*
X137280000Y-88200000D03*
X138080000Y-88200000D03*
X138880000Y-88200000D03*
X139680000Y-88200000D03*
X140480000Y-88200000D03*
X141280000Y-88200000D03*
X142080000Y-88200000D03*
X142880000Y-88200000D03*
X143680000Y-88200000D03*
X144480000Y-88200000D03*
X145280000Y-88200000D03*
X146080000Y-88200000D03*
X130880000Y-89000000D03*
X131680000Y-89000000D03*
X132480000Y-89000000D03*
X133280000Y-89000000D03*
X134080000Y-89000000D03*
X134880000Y-89000000D03*
X135680000Y-89000000D03*
X136480000Y-89000000D03*
X137280000Y-89000000D03*
X138080000Y-89000000D03*
X138880000Y-89000000D03*
X139680000Y-89000000D03*
X140480000Y-89000000D03*
X141280000Y-89000000D03*
X142080000Y-89000000D03*
X142880000Y-89000000D03*
X143680000Y-89000000D03*
X144480000Y-89000000D03*
X145280000Y-89000000D03*
X146080000Y-89000000D03*
X130880000Y-89800000D03*
X131680000Y-89800000D03*
X132480000Y-89800000D03*
X133280000Y-89800000D03*
X134080000Y-89800000D03*
X134880000Y-89800000D03*
X135680000Y-89800000D03*
X136480000Y-89800000D03*
X137280000Y-89800000D03*
X138080000Y-89800000D03*
X138880000Y-89800000D03*
X139680000Y-89800000D03*
X140480000Y-89800000D03*
X141280000Y-89800000D03*
X142080000Y-89800000D03*
X142880000Y-89800000D03*
X143680000Y-89800000D03*
X144480000Y-89800000D03*
X145280000Y-89800000D03*
X146080000Y-89800000D03*
X130880000Y-90600000D03*
X131680000Y-90600000D03*
X132480000Y-90600000D03*
X133280000Y-90600000D03*
X134080000Y-90600000D03*
X134880000Y-90600000D03*
X135680000Y-90600000D03*
X136480000Y-90600000D03*
X137280000Y-90600000D03*
X138080000Y-90600000D03*
X138880000Y-90600000D03*
X139680000Y-90600000D03*
X140480000Y-90600000D03*
X141280000Y-90600000D03*
X142080000Y-90600000D03*
X142880000Y-90600000D03*
X143680000Y-90600000D03*
X144480000Y-90600000D03*
X145280000Y-90600000D03*
X146080000Y-90600000D03*
X130880000Y-91400000D03*
X131680000Y-91400000D03*
X132480000Y-91400000D03*
X133280000Y-91400000D03*
X134080000Y-91400000D03*
X142880000Y-91400000D03*
X143680000Y-91400000D03*
X144480000Y-91400000D03*
X145280000Y-91400000D03*
X146080000Y-91400000D03*
X130880000Y-92200000D03*
X131680000Y-92200000D03*
X132480000Y-92200000D03*
X133280000Y-92200000D03*
X134080000Y-92200000D03*
X134880000Y-92200000D03*
X135680000Y-92200000D03*
X136480000Y-92200000D03*
X137280000Y-92200000D03*
X138080000Y-92200000D03*
X138880000Y-92200000D03*
X139680000Y-92200000D03*
X140480000Y-92200000D03*
X141280000Y-92200000D03*
X142080000Y-92200000D03*
X142880000Y-92200000D03*
X143680000Y-92200000D03*
X144480000Y-92200000D03*
X145280000Y-92200000D03*
X146080000Y-92200000D03*
X130880000Y-93000000D03*
X131680000Y-93000000D03*
X132480000Y-93000000D03*
X133280000Y-93000000D03*
X134080000Y-93000000D03*
X134880000Y-93000000D03*
X135680000Y-93000000D03*
X136480000Y-93000000D03*
X137280000Y-93000000D03*
X138080000Y-93000000D03*
X138880000Y-93000000D03*
X139680000Y-93000000D03*
X140480000Y-93000000D03*
X141280000Y-93000000D03*
X142080000Y-93000000D03*
X142880000Y-93000000D03*
X143680000Y-93000000D03*
X144480000Y-93000000D03*
X145280000Y-93000000D03*
X146080000Y-93000000D03*
X130880000Y-93800000D03*
X131680000Y-93800000D03*
X132480000Y-93800000D03*
X133280000Y-93800000D03*
X134080000Y-93800000D03*
X134880000Y-93800000D03*
X135680000Y-93800000D03*
X136480000Y-93800000D03*
X137280000Y-93800000D03*
X138080000Y-93800000D03*
X138880000Y-93800000D03*
X139680000Y-93800000D03*
X140480000Y-93800000D03*
X141280000Y-93800000D03*
X142080000Y-93800000D03*
X142880000Y-93800000D03*
X143680000Y-93800000D03*
X144480000Y-93800000D03*
X145280000Y-93800000D03*
X146080000Y-93800000D03*
X130880000Y-94600000D03*
X131680000Y-94600000D03*
X132480000Y-94600000D03*
X133280000Y-94600000D03*
X134080000Y-94600000D03*
X134880000Y-94600000D03*
X135680000Y-94600000D03*
X136480000Y-94600000D03*
X137280000Y-94600000D03*
X138080000Y-94600000D03*
X138880000Y-94600000D03*
X139680000Y-94600000D03*
X140480000Y-94600000D03*
X141280000Y-94600000D03*
X142080000Y-94600000D03*
X142880000Y-94600000D03*
X143680000Y-94600000D03*
X144480000Y-94600000D03*
X145280000Y-94600000D03*
X146080000Y-94600000D03*
X131680000Y-95400000D03*
X132480000Y-95400000D03*
X134080000Y-95400000D03*
X134880000Y-95400000D03*
X135680000Y-95400000D03*
X136480000Y-95400000D03*
X138880000Y-95400000D03*
X139680000Y-95400000D03*
X141280000Y-95400000D03*
X142080000Y-95400000D03*
X142880000Y-95400000D03*
X143680000Y-95400000D03*
X145280000Y-95400000D03*
D12*
X171570000Y-65992000D03*
X171570000Y-62690000D03*
D13*
X114930000Y-99520000D03*
X116030000Y-99520000D03*
X117130000Y-99520000D03*
X118230000Y-99520000D03*
X119330000Y-99520000D03*
X120430000Y-99520000D03*
X121530000Y-99520000D03*
X122630000Y-99520000D03*
D14*
X121920000Y-110120000D03*
D15*
X116120000Y-110120000D03*
D16*
X124320000Y-96970000D03*
X110270000Y-95970000D03*
D17*
X101160000Y-87510000D03*
X107360000Y-87510000D03*
X101160000Y-91210000D03*
X107360000Y-91210000D03*
X112590000Y-87510000D03*
X118790000Y-87510000D03*
X112590000Y-91210000D03*
X118790000Y-91210000D03*
X155770000Y-98940000D03*
X161970000Y-98940000D03*
X155770000Y-102640000D03*
X161970000Y-102640000D03*
X161970000Y-110260000D03*
X155770000Y-110260000D03*
X161970000Y-106560000D03*
X155770000Y-106560000D03*
X150540000Y-110260000D03*
X144340000Y-110260000D03*
X150540000Y-106560000D03*
X144340000Y-106560000D03*
X173400000Y-110260000D03*
X167200000Y-110260000D03*
X173400000Y-106560000D03*
X167200000Y-106560000D03*
D18*
X119500000Y-81519020D03*
X119500000Y-79420980D03*
X116960000Y-81519020D03*
X116960000Y-79420980D03*
X114420000Y-81519020D03*
X114420000Y-79420980D03*
X111880000Y-81519020D03*
X111880000Y-79420980D03*
X109340000Y-81519020D03*
X109340000Y-79420980D03*
X106800000Y-81519020D03*
X106800000Y-79420980D03*
X104260000Y-81519020D03*
X104260000Y-79420980D03*
X101720000Y-81519020D03*
X101720000Y-79420980D03*
D19*
X119610000Y-62640000D03*
X119610000Y-65440000D03*
D20*
X119610000Y-74840000D03*
X124060000Y-78940000D03*
D21*
X127010000Y-67340000D03*
X127010000Y-64540000D03*
D22*
X123310000Y-66540000D03*
X123310000Y-73540000D03*
D23*
X175480000Y-82270000D03*
X154680000Y-93330000D03*
X155480000Y-93330000D03*
X156280000Y-93330000D03*
X157080000Y-93330000D03*
X157880000Y-93330000D03*
X158680000Y-93330000D03*
X159480000Y-93330000D03*
X160280000Y-93330000D03*
X161080000Y-93330000D03*
X161880000Y-93330000D03*
X162680000Y-93330000D03*
X163480000Y-93330000D03*
X164280000Y-93330000D03*
X165080000Y-93330000D03*
X165880000Y-93330000D03*
X166680000Y-93330000D03*
X167480000Y-93330000D03*
X168280000Y-93330000D03*
X169080000Y-93330000D03*
X169880000Y-93330000D03*
X170680000Y-93330000D03*
X171480000Y-93330000D03*
X172280000Y-93330000D03*
X173080000Y-93330000D03*
X173880000Y-93330000D03*
X174680000Y-93330000D03*
X175480000Y-93330000D03*
X174680000Y-82270000D03*
X173880000Y-82270000D03*
X173080000Y-82270000D03*
X172280000Y-82270000D03*
X171480000Y-82270000D03*
X170680000Y-82270000D03*
X169880000Y-82270000D03*
X169080000Y-82270000D03*
X168280000Y-82270000D03*
X167480000Y-82270000D03*
X166680000Y-82270000D03*
X165880000Y-82270000D03*
X165080000Y-82270000D03*
X164280000Y-82270000D03*
X163480000Y-82270000D03*
X162680000Y-82270000D03*
X161880000Y-82270000D03*
X161080000Y-82270000D03*
X160280000Y-82270000D03*
X159480000Y-82270000D03*
X158680000Y-82270000D03*
X157880000Y-82270000D03*
X157080000Y-82270000D03*
X156280000Y-82270000D03*
X155480000Y-82270000D03*
X154680000Y-82270000D03*
D24*
X152280000Y-69650000D03*
X137680000Y-69650000D03*
D25*
X137680000Y-63600000D03*
D26*
X140480000Y-70600000D03*
X140980000Y-70600000D03*
X141480000Y-70600000D03*
X141980000Y-70600000D03*
X142480000Y-70600000D03*
X142980000Y-70600000D03*
X143480000Y-70600000D03*
X143980000Y-70600000D03*
X144480000Y-70600000D03*
X144980000Y-70600000D03*
X145480000Y-70600000D03*
X145980000Y-70600000D03*
X146480000Y-70600000D03*
X146980000Y-70600000D03*
X147480000Y-70600000D03*
X147980000Y-70600000D03*
X148480000Y-70600000D03*
X148980000Y-70600000D03*
X149480000Y-70600000D03*
D25*
X152280000Y-63600000D03*
D27*
X97910000Y-62690000D03*
D28*
X95370000Y-62690000D03*
X97910000Y-65230000D03*
X95370000Y-65230000D03*
X97910000Y-67770000D03*
X95370000Y-67770000D03*
X97910000Y-70310000D03*
X95370000Y-70310000D03*
X97910000Y-72850000D03*
X95370000Y-72850000D03*
X97910000Y-75390000D03*
X95370000Y-75390000D03*
X97910000Y-77930000D03*
X95370000Y-77930000D03*
X97910000Y-80470000D03*
X95370000Y-80470000D03*
X97910000Y-83010000D03*
X95370000Y-83010000D03*
X97910000Y-85550000D03*
X95370000Y-85550000D03*
X97910000Y-88090000D03*
X95370000Y-88090000D03*
X97910000Y-90630000D03*
X95370000Y-90630000D03*
X97910000Y-93170000D03*
X95370000Y-93170000D03*
X97910000Y-95710000D03*
X95370000Y-95710000D03*
X97910000Y-98250000D03*
X95370000Y-98250000D03*
X97910000Y-100790000D03*
X95370000Y-100790000D03*
X97910000Y-103330000D03*
X95370000Y-103330000D03*
X97910000Y-105870000D03*
X95370000Y-105870000D03*
X97910000Y-108410000D03*
X95370000Y-108410000D03*
X97910000Y-110950000D03*
X95370000Y-110950000D03*
D27*
X184270000Y-110950000D03*
D28*
X186810000Y-110950000D03*
X184270000Y-108410000D03*
X186810000Y-108410000D03*
X184270000Y-105870000D03*
X186810000Y-105870000D03*
X184270000Y-103330000D03*
X186810000Y-103330000D03*
X184270000Y-100790000D03*
X186810000Y-100790000D03*
X184270000Y-98250000D03*
X186810000Y-98250000D03*
X184270000Y-95710000D03*
X186810000Y-95710000D03*
X184270000Y-93170000D03*
X186810000Y-93170000D03*
X184270000Y-90630000D03*
X186810000Y-90630000D03*
X184270000Y-88090000D03*
X186810000Y-88090000D03*
X184270000Y-85550000D03*
X186810000Y-85550000D03*
X184270000Y-83010000D03*
X186810000Y-83010000D03*
X184270000Y-80470000D03*
X186810000Y-80470000D03*
X184270000Y-77930000D03*
X186810000Y-77930000D03*
X184270000Y-75390000D03*
X186810000Y-75390000D03*
X184270000Y-72850000D03*
X186810000Y-72850000D03*
X184270000Y-70310000D03*
X186810000Y-70310000D03*
X184270000Y-67770000D03*
X186810000Y-67770000D03*
X184270000Y-65230000D03*
X186810000Y-65230000D03*
X184270000Y-62690000D03*
X186810000Y-62690000D03*
D29*
X102990000Y-108410000D03*
X179190000Y-108410000D03*
X179190000Y-65230000D03*
X102990000Y-65230000D03*
D17*
X168320000Y-67080000D03*
X162120000Y-67080000D03*
X168320000Y-63380000D03*
X162120000Y-63380000D03*
D30*
X151080000Y-73485000D03*
X148880000Y-73485000D03*
D27*
X104260000Y-99520000D03*
D28*
X101720000Y-99520000D03*
D31*
X147440000Y-100790000D03*
D32*
X144900000Y-100790000D03*
X142360000Y-100790000D03*
X139820000Y-100790000D03*
X137280000Y-100790000D03*
X134740000Y-100790000D03*
X132200000Y-100790000D03*
D33*
X107480000Y-100750000D03*
X107480000Y-98850000D03*
D34*
X107480000Y-102700000D03*
X107480000Y-104900000D03*
M02*
