M48
;DRILL file {KiCad 4.0.5+dfsg1-4} date Mon Mar 27 15:17:09 2017
;FORMAT={-:-/ absolute / inch / decimal}
FMAT,2
INCH,TZ
T1C0.006
T2C0.031
T3C0.040
%
G90
G05
M72
T1
X4.026Y-3.2984
X4.1835Y-3.3142
X5.1449Y-3.4961
X5.1449Y-3.5276
T3
X3.8047Y-2.5181
X3.8047Y-2.6181
X3.8047Y-2.7181
X3.8047Y-2.8181
X3.8047Y-2.9181
X3.8047Y-3.0181
X3.8047Y-4.1181
X3.8047Y-4.2181
X3.9047Y-2.5181
X3.9047Y-2.6181
X3.9047Y-2.7181
X3.9047Y-2.8181
X3.9047Y-2.9181
X3.9047Y-3.0181
X3.9047Y-4.1181
X3.9047Y-4.2181
X4.0047Y-4.1181
X4.0047Y-4.2181
X4.1047Y-4.1181
X4.1047Y-4.2181
X4.2047Y-4.1181
X4.2047Y-4.2181
X4.3047Y-4.1181
X4.3047Y-4.2181
X4.4047Y-4.1181
X4.4047Y-4.2181
X4.5047Y-4.1181
X4.5047Y-4.2181
X4.6047Y-4.1181
X4.6047Y-4.2181
X4.7047Y-4.1181
X4.7047Y-4.2181
X4.8047Y-4.1181
X4.8047Y-4.2181
X4.9047Y-4.1181
X4.9047Y-4.2181
X5.0047Y-4.1181
X5.0047Y-4.2181
X5.1047Y-4.1181
X5.1047Y-4.2181
X5.2047Y-4.1181
X5.2047Y-4.2181
X5.3047Y-4.1181
X5.3047Y-4.2181
X5.4047Y-4.1181
X5.4047Y-4.2181
X5.5047Y-4.1181
X5.5047Y-4.2181
X5.6047Y-4.1181
X5.6047Y-4.2181
X5.7047Y-4.1181
X5.7047Y-4.2181
X5.8047Y-4.1181
X5.8047Y-4.2181
X5.9047Y-4.1181
X5.9047Y-4.2181
X6.0047Y-4.1181
X6.0047Y-4.2181
X6.1047Y-4.1181
X6.1047Y-4.2181
X6.2047Y-4.1181
X6.2047Y-4.2181
X6.3047Y-4.1181
X6.3047Y-4.2181
X6.4047Y-4.1181
X6.4047Y-4.2181
X6.5047Y-4.1181
X6.5047Y-4.2181
X6.6047Y-4.1181
X6.6047Y-4.2181
X6.7047Y-2.9181
X6.7047Y-3.0181
X6.7047Y-3.1181
X6.7047Y-3.2181
X6.7047Y-3.3181
X6.7047Y-3.4181
X6.7047Y-3.5181
X6.7047Y-4.1181
X6.7047Y-4.2181
X6.8047Y-2.5181
X6.8047Y-2.6181
X6.8047Y-2.7181
X6.8047Y-2.8181
X6.8047Y-2.9181
X6.8047Y-3.0181
X6.8047Y-3.1181
X6.8047Y-3.2181
X6.8047Y-3.3181
X6.8047Y-3.4181
X6.8047Y-3.5181
X6.8047Y-3.6181
X6.8047Y-3.7181
X6.8047Y-3.8181
X6.8047Y-3.9181
X6.8047Y-4.1181
X6.8047Y-4.2181
X6.9047Y-2.5181
X6.9047Y-2.6181
X6.9047Y-2.7181
X6.9047Y-2.8181
X6.9047Y-2.9181
X6.9047Y-3.0181
X6.9047Y-3.1181
X6.9047Y-3.2181
X6.9047Y-3.3181
X6.9047Y-3.4181
X6.9047Y-3.5181
X6.9047Y-3.6181
X6.9047Y-3.7181
X6.9047Y-3.8181
X6.9047Y-3.9181
X6.9047Y-4.1181
X6.9047Y-4.2181
T2
X5.4173Y-2.5207G85X5.4173Y-2.4813
G05
X5.4173Y-2.7668G85X5.4173Y-2.7117
G05
X5.9921Y-2.5207G85X5.9921Y-2.4813
G05
X5.9921Y-2.7668G85X5.9921Y-2.7117
G05
T0
M30
