G04 #@! TF.FileFunction,Soldermask,Bot*
%FSLAX46Y46*%
G04 Gerber Fmt 4.6, Leading zero omitted, Abs format (unit mm)*
G04 Created by KiCad (PCBNEW 4.0.5+dfsg1-4) date Sat May  6 12:26:19 2017*
%MOMM*%
%LPD*%
G01*
G04 APERTURE LIST*
%ADD10C,0.100000*%
%ADD11R,3.900000X3.700000*%
%ADD12C,9.400000*%
%ADD13R,2.432000X1.924000*%
%ADD14R,2.400000X2.900000*%
%ADD15R,1.100000X1.600000*%
%ADD16R,1.650000X1.900000*%
%ADD17R,1.900000X1.650000*%
%ADD18R,1.924000X2.432000*%
%ADD19O,1.009600X1.873200*%
%ADD20R,1.200000X1.300000*%
%ADD21R,1.300000X1.200000*%
%ADD22R,2.500000X2.000000*%
%ADD23R,2.300000X2.300000*%
%ADD24R,0.800000X1.750000*%
%ADD25R,2.200000X2.300000*%
%ADD26C,2.100000*%
%ADD27R,1.200000X2.300000*%
%ADD28R,2.300000X1.200000*%
%ADD29R,1.600000X1.150000*%
%ADD30R,1.150000X1.600000*%
%ADD31R,1.600000X1.300000*%
%ADD32R,1.300000X1.600000*%
%ADD33O,1.700000X3.100000*%
%ADD34O,1.700000X2.700000*%
%ADD35R,1.000000X1.950000*%
%ADD36R,1.950000X1.000000*%
%ADD37O,2.900000X1.300000*%
%ADD38O,1.300000X2.900000*%
%ADD39R,6.400000X6.400000*%
%ADD40R,2.127200X2.127200*%
%ADD41O,2.127200X2.127200*%
%ADD42C,5.900000*%
%ADD43R,1.400000X0.800000*%
%ADD44R,1.600000X2.200000*%
%ADD45R,1.800000X2.600000*%
%ADD46R,2.127200X2.432000*%
%ADD47O,2.127200X2.432000*%
%ADD48R,1.598880X1.598880*%
G04 APERTURE END LIST*
D10*
D11*
X174390000Y-105870000D03*
X158590000Y-105870000D03*
D12*
X166490000Y-105870000D03*
D13*
X171570000Y-62944000D03*
X171570000Y-66246000D03*
D14*
X160870000Y-88090000D03*
X156870000Y-88090000D03*
D15*
X159825000Y-90600000D03*
X160775000Y-90600000D03*
X161725000Y-90600000D03*
X161725000Y-93200000D03*
X159825000Y-93200000D03*
D14*
X158330000Y-74755000D03*
X154330000Y-74755000D03*
D15*
X157285000Y-77235000D03*
X158235000Y-77235000D03*
X159185000Y-77235000D03*
X159185000Y-79835000D03*
X157285000Y-79835000D03*
D14*
X103530000Y-88725000D03*
X107530000Y-88725000D03*
D15*
X104575000Y-86215000D03*
X103625000Y-86215000D03*
X102675000Y-86215000D03*
X102675000Y-83615000D03*
X104575000Y-83615000D03*
D16*
X101085000Y-83665000D03*
X101085000Y-86165000D03*
D17*
X153810000Y-90630000D03*
X156310000Y-90630000D03*
X153810000Y-92535000D03*
X156310000Y-92535000D03*
D16*
X163315000Y-93150000D03*
X163315000Y-90650000D03*
D17*
X151270000Y-79200000D03*
X153770000Y-79200000D03*
X151270000Y-77295000D03*
X153770000Y-77295000D03*
D16*
X160775000Y-79815000D03*
X160775000Y-77315000D03*
D17*
X110590000Y-84280000D03*
X108090000Y-84280000D03*
X110590000Y-86185000D03*
X108090000Y-86185000D03*
D18*
X162680000Y-74120000D03*
X165982000Y-74120000D03*
D13*
X158870000Y-66246000D03*
X158870000Y-62944000D03*
D19*
X181730000Y-96599000D03*
X180460000Y-96599000D03*
X179190000Y-96599000D03*
X177920000Y-96599000D03*
X177920000Y-91011000D03*
X179190000Y-91011000D03*
X180460000Y-91011000D03*
X181730000Y-91011000D03*
D16*
X173221000Y-86038000D03*
X173221000Y-83538000D03*
D20*
X169250000Y-84280000D03*
X171350000Y-84280000D03*
D21*
X179190000Y-80885000D03*
X179190000Y-78785000D03*
X177285000Y-74975000D03*
X177285000Y-77075000D03*
X169030000Y-80885000D03*
X169030000Y-78785000D03*
D22*
X154350000Y-107130000D03*
X148150000Y-107130000D03*
D23*
X152450000Y-109680000D03*
X150050000Y-109680000D03*
D24*
X152550000Y-107005000D03*
X151900000Y-107005000D03*
X151250000Y-107005000D03*
X150600000Y-107005000D03*
X149950000Y-107005000D03*
D25*
X155050000Y-109680000D03*
X147450000Y-109680000D03*
D22*
X162120000Y-66510000D03*
X168320000Y-66510000D03*
D23*
X164020000Y-63960000D03*
X166420000Y-63960000D03*
D24*
X163920000Y-66635000D03*
X164570000Y-66635000D03*
X165220000Y-66635000D03*
X165870000Y-66635000D03*
X166520000Y-66635000D03*
D25*
X161420000Y-63960000D03*
X169020000Y-63960000D03*
D26*
X123310000Y-66540000D03*
X123310000Y-73540000D03*
D27*
X176965000Y-85780000D03*
X175065000Y-85780000D03*
X176015000Y-82780000D03*
D28*
X172435000Y-75075000D03*
X172435000Y-76975000D03*
X169435000Y-76025000D03*
D29*
X154110000Y-95710000D03*
X156010000Y-95710000D03*
X151570000Y-82375000D03*
X153470000Y-82375000D03*
X110290000Y-81105000D03*
X108390000Y-81105000D03*
D30*
X175380000Y-75075000D03*
X175380000Y-76975000D03*
D31*
X169200000Y-82375000D03*
X171400000Y-82375000D03*
D32*
X172840000Y-80935000D03*
X172840000Y-78735000D03*
D31*
X177115000Y-80470000D03*
X174915000Y-80470000D03*
D32*
X174110000Y-74925000D03*
X174110000Y-77125000D03*
X178555000Y-83815000D03*
X178555000Y-86015000D03*
D31*
X157770000Y-98885000D03*
X159970000Y-98885000D03*
D32*
X170935000Y-80935000D03*
X170935000Y-78735000D03*
X129280000Y-107900000D03*
X129280000Y-110100000D03*
D31*
X142825000Y-105870000D03*
X140625000Y-105870000D03*
X177115000Y-78565000D03*
X174915000Y-78565000D03*
X153960000Y-94440000D03*
X156160000Y-94440000D03*
X110440000Y-82375000D03*
X108240000Y-82375000D03*
X151420000Y-81105000D03*
X153620000Y-81105000D03*
D32*
X158235000Y-90800000D03*
X158235000Y-93000000D03*
X106165000Y-86015000D03*
X106165000Y-83815000D03*
X155695000Y-77465000D03*
X155695000Y-79665000D03*
D31*
X126782000Y-86185000D03*
X124582000Y-86185000D03*
X126782000Y-84279000D03*
X124582000Y-84279000D03*
X126782000Y-82375000D03*
X124582000Y-82375000D03*
X126782000Y-80470000D03*
X124582000Y-80470000D03*
D32*
X130930000Y-75687000D03*
X130930000Y-73487000D03*
X132835000Y-75687000D03*
X132835000Y-73487000D03*
X134740000Y-75687000D03*
X134740000Y-73487000D03*
X136645000Y-75687000D03*
X136645000Y-73487000D03*
D33*
X152280000Y-69650000D03*
X137680000Y-69650000D03*
D34*
X137680000Y-63600000D03*
X152280000Y-63600000D03*
D35*
X116325000Y-84120000D03*
X117595000Y-84120000D03*
X118865000Y-84120000D03*
X120135000Y-84120000D03*
X120135000Y-89520000D03*
X118865000Y-89520000D03*
X117595000Y-89520000D03*
X116325000Y-89520000D03*
D29*
X173795000Y-102695000D03*
X175695000Y-102695000D03*
D36*
X141980000Y-67705000D03*
X141980000Y-66435000D03*
X141980000Y-65165000D03*
X141980000Y-63895000D03*
X147380000Y-63895000D03*
X147380000Y-65165000D03*
X147380000Y-66435000D03*
X147380000Y-67705000D03*
D20*
X171350000Y-85804000D03*
X169250000Y-85804000D03*
D21*
X179190000Y-77075000D03*
X179190000Y-74975000D03*
D37*
X126260434Y-111030338D03*
X126260434Y-109760338D03*
X126260434Y-108490338D03*
X126260434Y-107220338D03*
X126260434Y-105950338D03*
X126260434Y-104680338D03*
X126260434Y-103410338D03*
X126260434Y-102140338D03*
X126260434Y-100870338D03*
X126260434Y-99600338D03*
X126260434Y-98330338D03*
X126260434Y-97060338D03*
X126260434Y-95790338D03*
X126260434Y-94520338D03*
D38*
X122975434Y-93030338D03*
X121705434Y-93030338D03*
X120435434Y-93030338D03*
X119165434Y-93030338D03*
X117895434Y-93030338D03*
X116625434Y-93030338D03*
X115355434Y-93030338D03*
X114085434Y-93030338D03*
X112815434Y-93030338D03*
X111545434Y-93030338D03*
D37*
X108260434Y-94520338D03*
X108260434Y-95790338D03*
X108260434Y-97060338D03*
X108260434Y-98330338D03*
X108260434Y-99600338D03*
X108260434Y-100870338D03*
X108260434Y-102140338D03*
X108260434Y-103410338D03*
X108260434Y-104680338D03*
X108260434Y-105950338D03*
X108260434Y-107220338D03*
X108260434Y-108490338D03*
X108260434Y-109760338D03*
X108260434Y-111030338D03*
D39*
X116960434Y-103330338D03*
D40*
X97910000Y-62690000D03*
D41*
X95370000Y-62690000D03*
X97910000Y-65230000D03*
X95370000Y-65230000D03*
X97910000Y-67770000D03*
X95370000Y-67770000D03*
X97910000Y-70310000D03*
X95370000Y-70310000D03*
X97910000Y-72850000D03*
X95370000Y-72850000D03*
X97910000Y-75390000D03*
X95370000Y-75390000D03*
X97910000Y-77930000D03*
X95370000Y-77930000D03*
X97910000Y-80470000D03*
X95370000Y-80470000D03*
X97910000Y-83010000D03*
X95370000Y-83010000D03*
X97910000Y-85550000D03*
X95370000Y-85550000D03*
X97910000Y-88090000D03*
X95370000Y-88090000D03*
X97910000Y-90630000D03*
X95370000Y-90630000D03*
X97910000Y-93170000D03*
X95370000Y-93170000D03*
X97910000Y-95710000D03*
X95370000Y-95710000D03*
X97910000Y-98250000D03*
X95370000Y-98250000D03*
X97910000Y-100790000D03*
X95370000Y-100790000D03*
X97910000Y-103330000D03*
X95370000Y-103330000D03*
X97910000Y-105870000D03*
X95370000Y-105870000D03*
X97910000Y-108410000D03*
X95370000Y-108410000D03*
X97910000Y-110950000D03*
X95370000Y-110950000D03*
D40*
X184270000Y-110950000D03*
D41*
X186810000Y-110950000D03*
X184270000Y-108410000D03*
X186810000Y-108410000D03*
X184270000Y-105870000D03*
X186810000Y-105870000D03*
X184270000Y-103330000D03*
X186810000Y-103330000D03*
X184270000Y-100790000D03*
X186810000Y-100790000D03*
X184270000Y-98250000D03*
X186810000Y-98250000D03*
X184270000Y-95710000D03*
X186810000Y-95710000D03*
X184270000Y-93170000D03*
X186810000Y-93170000D03*
X184270000Y-90630000D03*
X186810000Y-90630000D03*
X184270000Y-88090000D03*
X186810000Y-88090000D03*
X184270000Y-85550000D03*
X186810000Y-85550000D03*
X184270000Y-83010000D03*
X186810000Y-83010000D03*
X184270000Y-80470000D03*
X186810000Y-80470000D03*
X184270000Y-77930000D03*
X186810000Y-77930000D03*
X184270000Y-75390000D03*
X186810000Y-75390000D03*
X184270000Y-72850000D03*
X186810000Y-72850000D03*
X184270000Y-70310000D03*
X186810000Y-70310000D03*
X184270000Y-67770000D03*
X186810000Y-67770000D03*
X184270000Y-65230000D03*
X186810000Y-65230000D03*
X184270000Y-62690000D03*
X186810000Y-62690000D03*
D42*
X102990000Y-108410000D03*
X179190000Y-108410000D03*
X179190000Y-65230000D03*
X102990000Y-65230000D03*
D21*
X167125000Y-69260000D03*
X167125000Y-71360000D03*
X164585000Y-69260000D03*
X164585000Y-71360000D03*
D32*
X162045000Y-71410000D03*
X162045000Y-69210000D03*
X139820000Y-66330000D03*
X139820000Y-64130000D03*
X135375000Y-63300000D03*
X135375000Y-65500000D03*
X150615000Y-68870000D03*
X150615000Y-66670000D03*
X147440000Y-75220000D03*
X147440000Y-73020000D03*
D43*
X137005000Y-104215000D03*
X137005000Y-104865000D03*
X137005000Y-105515000D03*
X137005000Y-106165000D03*
X137005000Y-106815000D03*
X137005000Y-107465000D03*
X137005000Y-108115000D03*
X137005000Y-108765000D03*
X137005000Y-109415000D03*
X137005000Y-110065000D03*
X131205000Y-110065000D03*
X131205000Y-109415000D03*
X131205000Y-108765000D03*
X131205000Y-108115000D03*
X131205000Y-107465000D03*
X131205000Y-106815000D03*
X131205000Y-106165000D03*
X131205000Y-105515000D03*
X131205000Y-104865000D03*
X131205000Y-104215000D03*
D32*
X119500000Y-79370000D03*
X119500000Y-81570000D03*
X114480000Y-89500000D03*
X114480000Y-87300000D03*
X129660000Y-99985000D03*
X129660000Y-97785000D03*
X117595000Y-79370000D03*
X117595000Y-81570000D03*
X122280000Y-86300000D03*
X122280000Y-88500000D03*
X115690000Y-79370000D03*
X115690000Y-81570000D03*
D31*
X144730000Y-98250000D03*
X142530000Y-98250000D03*
X138380000Y-98250000D03*
X136180000Y-98250000D03*
X131735000Y-98250000D03*
X133935000Y-98250000D03*
X101890000Y-103965000D03*
X104090000Y-103965000D03*
D44*
X179260000Y-99425000D03*
X179260000Y-103425000D03*
X181660000Y-103425000D03*
X181660000Y-99425000D03*
D45*
X133450000Y-63350000D03*
X133450000Y-69650000D03*
X130950000Y-69650000D03*
X130950000Y-63350000D03*
D40*
X104260000Y-99520000D03*
D41*
X101720000Y-99520000D03*
D46*
X147440000Y-100790000D03*
D47*
X144900000Y-100790000D03*
X142360000Y-100790000D03*
X139820000Y-100790000D03*
X137280000Y-100790000D03*
X134740000Y-100790000D03*
X132200000Y-100790000D03*
D31*
X101890000Y-102060000D03*
X104090000Y-102060000D03*
D48*
X143630980Y-104000000D03*
X145729020Y-104000000D03*
X141504020Y-107775000D03*
X139405980Y-107775000D03*
D31*
X139355000Y-103965000D03*
X141555000Y-103965000D03*
X139355000Y-109680000D03*
X141555000Y-109680000D03*
M02*
