G04 #@! TF.FileFunction,Legend,Bot*
%FSLAX46Y46*%
G04 Gerber Fmt 4.6, Leading zero omitted, Abs format (unit mm)*
G04 Created by KiCad (PCBNEW 4.0.5+dfsg1-4) date Fri May  5 02:04:24 2017*
%MOMM*%
%LPD*%
G01*
G04 APERTURE LIST*
%ADD10C,0.100000*%
%ADD11C,0.120000*%
%ADD12C,0.150000*%
%ADD13C,0.500000*%
%ADD14C,0.037500*%
G04 APERTURE END LIST*
D10*
D11*
X161075385Y-111454160D02*
G75*
G03X161990000Y-111070000I124615J984160D01*
G01*
X171904615Y-111454160D02*
G75*
G02X170990000Y-111070000I-124615J984160D01*
G01*
X161999339Y-111058671D02*
G75*
G02X170990000Y-111070000I4490661J-3711329D01*
G01*
X159740000Y-109920000D02*
G75*
G03X161190000Y-111470000I1500000J-50000D01*
G01*
X173240000Y-109920000D02*
G75*
G02X171790000Y-111470000I-1500000J-50000D01*
G01*
X159740000Y-107870000D02*
X159740000Y-109970000D01*
X173240000Y-107870000D02*
X173240000Y-109970000D01*
X173240000Y-103870000D02*
X173240000Y-102420000D01*
X173240000Y-102420000D02*
X170640000Y-99820000D01*
X170640000Y-99820000D02*
X170640000Y-99020000D01*
X170640000Y-99020000D02*
X162340000Y-99020000D01*
X162340000Y-99020000D02*
X162340000Y-99820000D01*
X162340000Y-99820000D02*
X159740000Y-102420000D01*
X159740000Y-102420000D02*
X159740000Y-103870000D01*
D12*
X170427000Y-62055000D02*
X170427000Y-61801000D01*
X170427000Y-61801000D02*
X172713000Y-61801000D01*
X172713000Y-61801000D02*
X172713000Y-62055000D01*
X170427000Y-62055000D02*
X172713000Y-62055000D01*
X172713000Y-62055000D02*
X172713000Y-63706000D01*
X170427000Y-65484000D02*
X170427000Y-67135000D01*
X170427000Y-67135000D02*
X172713000Y-67135000D01*
X172713000Y-67135000D02*
X172713000Y-65484000D01*
X170427000Y-63706000D02*
X170427000Y-62055000D01*
X110975000Y-86615000D02*
X108975000Y-86615000D01*
X108975000Y-89565000D02*
X110975000Y-89565000D01*
X106006803Y-84680000D02*
G75*
G03X106006803Y-84680000I-111803J0D01*
G01*
X106395000Y-83380000D02*
X103395000Y-83380000D01*
X103395000Y-83380000D02*
X103395000Y-85180000D01*
X103395000Y-85180000D02*
X106395000Y-85180000D01*
X106395000Y-85180000D02*
X106395000Y-83380000D01*
X152155000Y-81945000D02*
X154155000Y-81945000D01*
X154155000Y-78995000D02*
X152155000Y-78995000D01*
X156711803Y-85120000D02*
G75*
G03X156711803Y-85120000I-111803J0D01*
G01*
X156100000Y-86420000D02*
X159100000Y-86420000D01*
X159100000Y-86420000D02*
X159100000Y-84620000D01*
X159100000Y-84620000D02*
X156100000Y-84620000D01*
X156100000Y-84620000D02*
X156100000Y-86420000D01*
X110340000Y-75185000D02*
X108340000Y-75185000D01*
X108340000Y-78135000D02*
X110340000Y-78135000D01*
X106006803Y-71980000D02*
G75*
G03X106006803Y-71980000I-111803J0D01*
G01*
X106395000Y-70680000D02*
X103395000Y-70680000D01*
X103395000Y-70680000D02*
X103395000Y-72480000D01*
X103395000Y-72480000D02*
X106395000Y-72480000D01*
X106395000Y-72480000D02*
X106395000Y-70680000D01*
X101505000Y-72080000D02*
X101505000Y-71080000D01*
X103205000Y-71080000D02*
X103205000Y-72080000D01*
X110110000Y-84700000D02*
X111110000Y-84700000D01*
X111110000Y-86400000D02*
X110110000Y-86400000D01*
X110110000Y-82795000D02*
X111110000Y-82795000D01*
X111110000Y-84495000D02*
X110110000Y-84495000D01*
X101505000Y-84780000D02*
X101505000Y-83780000D01*
X103205000Y-83780000D02*
X103205000Y-84780000D01*
X152385000Y-85765000D02*
X151385000Y-85765000D01*
X151385000Y-84065000D02*
X152385000Y-84065000D01*
X152385000Y-83860000D02*
X151385000Y-83860000D01*
X151385000Y-82160000D02*
X152385000Y-82160000D01*
X160990000Y-85050000D02*
X160990000Y-86050000D01*
X159290000Y-86050000D02*
X159290000Y-85050000D01*
X110110000Y-71365000D02*
X111110000Y-71365000D01*
X111110000Y-73065000D02*
X110110000Y-73065000D01*
X110110000Y-73270000D02*
X111110000Y-73270000D01*
X111110000Y-74970000D02*
X110110000Y-74970000D01*
X161791000Y-75263000D02*
X161537000Y-75263000D01*
X161537000Y-75263000D02*
X161537000Y-72977000D01*
X161537000Y-72977000D02*
X161791000Y-72977000D01*
X161791000Y-75263000D02*
X161791000Y-72977000D01*
X161791000Y-72977000D02*
X163442000Y-72977000D01*
X165220000Y-75263000D02*
X166871000Y-75263000D01*
X166871000Y-75263000D02*
X166871000Y-72977000D01*
X166871000Y-72977000D02*
X165220000Y-72977000D01*
X163442000Y-75263000D02*
X161791000Y-75263000D01*
X160013000Y-67135000D02*
X160013000Y-67389000D01*
X160013000Y-67389000D02*
X157727000Y-67389000D01*
X157727000Y-67389000D02*
X157727000Y-67135000D01*
X160013000Y-67135000D02*
X157727000Y-67135000D01*
X157727000Y-67135000D02*
X157727000Y-65484000D01*
X160013000Y-63706000D02*
X160013000Y-62055000D01*
X160013000Y-62055000D02*
X157727000Y-62055000D01*
X157727000Y-62055000D02*
X157727000Y-63706000D01*
X160013000Y-65484000D02*
X160013000Y-67135000D01*
X172459000Y-93170000D02*
G75*
G03X172459000Y-93170000I-127000J0D01*
G01*
X172967000Y-92535000D02*
X172967000Y-97615000D01*
X169665000Y-92535000D02*
X169665000Y-97615000D01*
X173475000Y-92535000D02*
X173475000Y-97615000D01*
X173475000Y-92535000D02*
X169665000Y-92535000D01*
X173475000Y-97615000D02*
X169665000Y-97615000D01*
X163180000Y-94020000D02*
X162180000Y-94020000D01*
X162180000Y-92320000D02*
X163180000Y-92320000D01*
X159675000Y-95645000D02*
X161475000Y-95645000D01*
X159675000Y-97045000D02*
X161475000Y-97045000D01*
X179380000Y-87300000D02*
X181180000Y-87300000D01*
X179380000Y-88700000D02*
X181180000Y-88700000D01*
X176700000Y-77995000D02*
X174900000Y-77995000D01*
X176700000Y-76595000D02*
X174900000Y-76595000D01*
X170765000Y-81805000D02*
X168965000Y-81805000D01*
X170765000Y-80405000D02*
X168965000Y-80405000D01*
X155650000Y-108080000D02*
X155650000Y-106080000D01*
X155650000Y-106080000D02*
X153500000Y-106080000D01*
X149000000Y-106080000D02*
X146850000Y-106080000D01*
X146850000Y-106080000D02*
X146850000Y-108030000D01*
X160820000Y-65560000D02*
X160820000Y-67560000D01*
X160820000Y-67560000D02*
X162970000Y-67560000D01*
X167470000Y-67560000D02*
X169620000Y-67560000D01*
X169620000Y-67560000D02*
X169620000Y-65610000D01*
D11*
X162325000Y-91890000D02*
X162325000Y-90960000D01*
X162325000Y-88730000D02*
X162325000Y-89660000D01*
X162325000Y-88730000D02*
X165485000Y-88730000D01*
X162325000Y-91890000D02*
X163785000Y-91890000D01*
X172080000Y-88400000D02*
X172080000Y-87470000D01*
X172080000Y-85240000D02*
X172080000Y-86170000D01*
X172080000Y-85240000D02*
X175240000Y-85240000D01*
X172080000Y-88400000D02*
X173540000Y-88400000D01*
D12*
X110960000Y-79870000D02*
X110260000Y-79870000D01*
X110260000Y-81070000D02*
X110960000Y-81070000D01*
X151535000Y-88690000D02*
X152235000Y-88690000D01*
X152235000Y-87490000D02*
X151535000Y-87490000D01*
X110960000Y-68440000D02*
X110260000Y-68440000D01*
X110260000Y-69640000D02*
X110960000Y-69640000D01*
X173510000Y-82660000D02*
X173510000Y-83360000D01*
X174710000Y-83360000D02*
X174710000Y-82660000D01*
X158830000Y-92670000D02*
X158830000Y-93670000D01*
X160180000Y-93670000D02*
X160180000Y-92670000D01*
X175975000Y-86320000D02*
X175975000Y-87320000D01*
X177325000Y-87320000D02*
X177325000Y-86320000D01*
X177420000Y-90035000D02*
X178420000Y-90035000D01*
X178420000Y-88685000D02*
X177420000Y-88685000D01*
X177325000Y-83045000D02*
X177325000Y-82045000D01*
X175975000Y-82045000D02*
X175975000Y-83045000D01*
X167165000Y-92400000D02*
X167165000Y-91400000D01*
X165815000Y-91400000D02*
X165815000Y-92400000D01*
X156830000Y-98845000D02*
X155830000Y-98845000D01*
X155830000Y-100195000D02*
X156830000Y-100195000D01*
X172880000Y-82875000D02*
X172880000Y-81875000D01*
X171530000Y-81875000D02*
X171530000Y-82875000D01*
X129955000Y-109500000D02*
X129955000Y-108500000D01*
X128605000Y-108500000D02*
X128605000Y-109500000D01*
X165355000Y-81780000D02*
X166355000Y-81780000D01*
X166355000Y-80430000D02*
X165355000Y-80430000D01*
X172880000Y-78430000D02*
X172880000Y-77430000D01*
X171530000Y-77430000D02*
X171530000Y-78430000D01*
X110110000Y-82415000D02*
X111110000Y-82415000D01*
X111110000Y-81065000D02*
X110110000Y-81065000D01*
X110110000Y-70985000D02*
X111110000Y-70985000D01*
X111110000Y-69635000D02*
X110110000Y-69635000D01*
X152385000Y-86145000D02*
X151385000Y-86145000D01*
X151385000Y-87495000D02*
X152385000Y-87495000D01*
X106760000Y-83780000D02*
X106760000Y-84780000D01*
X108110000Y-84780000D02*
X108110000Y-83780000D01*
X106760000Y-71080000D02*
X106760000Y-72080000D01*
X108110000Y-72080000D02*
X108110000Y-71080000D01*
X155735000Y-86050000D02*
X155735000Y-85050000D01*
X154385000Y-85050000D02*
X154385000Y-86050000D01*
X125182000Y-86860000D02*
X126182000Y-86860000D01*
X126182000Y-85510000D02*
X125182000Y-85510000D01*
X125182000Y-84954000D02*
X126182000Y-84954000D01*
X126182000Y-83604000D02*
X125182000Y-83604000D01*
X125182000Y-83050000D02*
X126182000Y-83050000D01*
X126182000Y-81700000D02*
X125182000Y-81700000D01*
X125182000Y-81145000D02*
X126182000Y-81145000D01*
X126182000Y-79795000D02*
X125182000Y-79795000D01*
X130255000Y-74087000D02*
X130255000Y-75087000D01*
X131605000Y-75087000D02*
X131605000Y-74087000D01*
X132160000Y-74087000D02*
X132160000Y-75087000D01*
X133510000Y-75087000D02*
X133510000Y-74087000D01*
X134065000Y-74087000D02*
X134065000Y-75087000D01*
X135415000Y-75087000D02*
X135415000Y-74087000D01*
X135970000Y-74087000D02*
X135970000Y-75087000D01*
X137320000Y-75087000D02*
X137320000Y-74087000D01*
X115655000Y-84745000D02*
X115705000Y-84745000D01*
X115655000Y-88895000D02*
X115800000Y-88895000D01*
X120805000Y-88895000D02*
X120660000Y-88895000D01*
X120805000Y-84745000D02*
X120660000Y-84745000D01*
X115655000Y-84745000D02*
X115655000Y-88895000D01*
X120805000Y-84745000D02*
X120805000Y-88895000D01*
X115705000Y-84745000D02*
X115705000Y-83345000D01*
X161695000Y-99485000D02*
X162395000Y-99485000D01*
X162395000Y-98285000D02*
X161695000Y-98285000D01*
X142605000Y-68375000D02*
X142605000Y-68325000D01*
X146755000Y-68375000D02*
X146755000Y-68230000D01*
X146755000Y-63225000D02*
X146755000Y-63370000D01*
X142605000Y-63225000D02*
X142605000Y-63370000D01*
X142605000Y-68375000D02*
X146755000Y-68375000D01*
X142605000Y-63225000D02*
X146755000Y-63225000D01*
X142605000Y-68325000D02*
X141205000Y-68325000D01*
X166320000Y-97045000D02*
X164520000Y-97045000D01*
X166320000Y-95645000D02*
X164520000Y-95645000D01*
X174280000Y-78500000D02*
X176080000Y-78500000D01*
X174280000Y-79900000D02*
X176080000Y-79900000D01*
D13*
X107638415Y-112384338D02*
G75*
G03X107638415Y-112384338I-283981J0D01*
G01*
D12*
X126260434Y-112530338D02*
X108260434Y-112530338D01*
X108260434Y-118530338D02*
X108260434Y-93030338D01*
X126260434Y-118530338D02*
X126260434Y-93030338D01*
X126260434Y-93030338D02*
X108260434Y-93030338D01*
X126260434Y-118530338D02*
X108260434Y-118530338D01*
X167825000Y-69210000D02*
X167825000Y-71010000D01*
X166425000Y-69210000D02*
X166425000Y-71010000D01*
X165285000Y-69210000D02*
X165285000Y-71010000D01*
X163885000Y-69210000D02*
X163885000Y-71010000D01*
X161370000Y-69810000D02*
X161370000Y-70810000D01*
X162720000Y-70810000D02*
X162720000Y-69810000D01*
X139145000Y-64730000D02*
X139145000Y-65730000D01*
X140495000Y-65730000D02*
X140495000Y-64730000D01*
X136050000Y-64900000D02*
X136050000Y-63900000D01*
X134700000Y-63900000D02*
X134700000Y-64900000D01*
X149940000Y-67270000D02*
X149940000Y-68270000D01*
X151290000Y-68270000D02*
X151290000Y-67270000D01*
X146765000Y-73620000D02*
X146765000Y-74620000D01*
X148115000Y-74620000D02*
X148115000Y-73620000D01*
X131780000Y-103690000D02*
X131780000Y-103790000D01*
X131780000Y-110515000D02*
X131780000Y-110490000D01*
X136430000Y-110515000D02*
X136430000Y-110490000D01*
X137505000Y-103690000D02*
X131780000Y-103690000D01*
X136430000Y-110515000D02*
X131780000Y-110515000D01*
X120175000Y-80970000D02*
X120175000Y-79970000D01*
X118825000Y-79970000D02*
X118825000Y-80970000D01*
X113805000Y-87900000D02*
X113805000Y-88900000D01*
X115155000Y-88900000D02*
X115155000Y-87900000D01*
X128985000Y-98385000D02*
X128985000Y-99385000D01*
X130335000Y-99385000D02*
X130335000Y-98385000D01*
X118270000Y-80970000D02*
X118270000Y-79970000D01*
X116920000Y-79970000D02*
X116920000Y-80970000D01*
X122955000Y-87900000D02*
X122955000Y-86900000D01*
X121605000Y-86900000D02*
X121605000Y-87900000D01*
X116365000Y-80970000D02*
X116365000Y-79970000D01*
X115015000Y-79970000D02*
X115015000Y-80970000D01*
X143130000Y-98925000D02*
X144130000Y-98925000D01*
X144130000Y-97575000D02*
X143130000Y-97575000D01*
X136780000Y-98925000D02*
X137780000Y-98925000D01*
X137780000Y-97575000D02*
X136780000Y-97575000D01*
X133335000Y-97575000D02*
X132335000Y-97575000D01*
X132335000Y-98925000D02*
X133335000Y-98925000D01*
X103490000Y-103290000D02*
X102490000Y-103290000D01*
X102490000Y-104640000D02*
X103490000Y-104640000D01*
X177031000Y-94381000D02*
X177031000Y-93619000D01*
X178290000Y-92200000D02*
X180090000Y-92200000D01*
X181890000Y-93600000D02*
X181890000Y-94400000D01*
X180090000Y-95800000D02*
X178290000Y-95800000D01*
X176490000Y-94400000D02*
X176490000Y-93600000D01*
X134500000Y-62900000D02*
X134500000Y-62350000D01*
X134800000Y-70100000D02*
X134500000Y-70100000D01*
X129600000Y-70100000D02*
X129900000Y-70100000D01*
X129600000Y-62900000D02*
X129900000Y-62900000D01*
X134800000Y-62900000D02*
X134500000Y-62900000D01*
X134800000Y-62900000D02*
X134800000Y-70100000D01*
X132400000Y-62900000D02*
X132400000Y-62350000D01*
X129600000Y-62900000D02*
X129600000Y-70100000D01*
X132400000Y-70100000D02*
X132000000Y-70100000D01*
X132400000Y-62900000D02*
X132000000Y-62900000D01*
X103490000Y-101385000D02*
X102490000Y-101385000D01*
X102490000Y-102735000D02*
X103490000Y-102735000D01*
X146280000Y-104750000D02*
X143580000Y-104750000D01*
X146280000Y-103250000D02*
X143580000Y-103250000D01*
X144780000Y-104150000D02*
X144780000Y-103900000D01*
X144780000Y-103900000D02*
X144930000Y-104050000D01*
X145030000Y-103650000D02*
X145030000Y-104350000D01*
X144680000Y-104000000D02*
X144330000Y-104000000D01*
X145030000Y-104000000D02*
X144680000Y-103650000D01*
X144680000Y-103650000D02*
X144680000Y-104350000D01*
X144680000Y-104350000D02*
X145030000Y-104000000D01*
X138855000Y-107025000D02*
X141555000Y-107025000D01*
X138855000Y-108525000D02*
X141555000Y-108525000D01*
X140355000Y-107625000D02*
X140355000Y-107875000D01*
X140355000Y-107875000D02*
X140205000Y-107725000D01*
X140105000Y-108125000D02*
X140105000Y-107425000D01*
X140455000Y-107775000D02*
X140805000Y-107775000D01*
X140105000Y-107775000D02*
X140455000Y-108125000D01*
X140455000Y-108125000D02*
X140455000Y-107425000D01*
X140455000Y-107425000D02*
X140105000Y-107775000D01*
X140955000Y-103290000D02*
X139955000Y-103290000D01*
X139955000Y-104640000D02*
X140955000Y-104640000D01*
X140955000Y-109005000D02*
X139955000Y-109005000D01*
X139955000Y-110355000D02*
X140955000Y-110355000D01*
X167704285Y-97798571D02*
X167561428Y-97846190D01*
X167513809Y-97893810D01*
X167466190Y-97989048D01*
X167466190Y-98131905D01*
X167513809Y-98227143D01*
X167561428Y-98274762D01*
X167656666Y-98322381D01*
X168037619Y-98322381D01*
X168037619Y-97322381D01*
X167704285Y-97322381D01*
X167609047Y-97370000D01*
X167561428Y-97417619D01*
X167513809Y-97512857D01*
X167513809Y-97608095D01*
X167561428Y-97703333D01*
X167609047Y-97750952D01*
X167704285Y-97798571D01*
X168037619Y-97798571D01*
X167085238Y-98036667D02*
X166609047Y-98036667D01*
X167180476Y-98322381D02*
X166847143Y-97322381D01*
X166513809Y-98322381D01*
X166323333Y-97322381D02*
X165751904Y-97322381D01*
X166037619Y-98322381D02*
X166037619Y-97322381D01*
X164894761Y-98322381D02*
X165466190Y-98322381D01*
X165180476Y-98322381D02*
X165180476Y-97322381D01*
X165275714Y-97465238D01*
X165370952Y-97560476D01*
X165466190Y-97608095D01*
X172022381Y-63380714D02*
X171022381Y-63380714D01*
X171022381Y-63618809D01*
X171070000Y-63761667D01*
X171165238Y-63856905D01*
X171260476Y-63904524D01*
X171450952Y-63952143D01*
X171593810Y-63952143D01*
X171784286Y-63904524D01*
X171879524Y-63856905D01*
X171974762Y-63761667D01*
X172022381Y-63618809D01*
X172022381Y-63380714D01*
X171022381Y-64856905D02*
X171022381Y-64380714D01*
X171498571Y-64333095D01*
X171450952Y-64380714D01*
X171403333Y-64475952D01*
X171403333Y-64714048D01*
X171450952Y-64809286D01*
X171498571Y-64856905D01*
X171593810Y-64904524D01*
X171831905Y-64904524D01*
X171927143Y-64856905D01*
X171974762Y-64809286D01*
X172022381Y-64714048D01*
X172022381Y-64475952D01*
X171974762Y-64380714D01*
X171927143Y-64333095D01*
X172022381Y-65856905D02*
X172022381Y-65285476D01*
X172022381Y-65571190D02*
X171022381Y-65571190D01*
X171165238Y-65475952D01*
X171260476Y-65380714D01*
X171308095Y-65285476D01*
X110141666Y-91242381D02*
X110617857Y-91242381D01*
X110617857Y-90242381D01*
X109284523Y-91242381D02*
X109855952Y-91242381D01*
X109570238Y-91242381D02*
X109570238Y-90242381D01*
X109665476Y-90385238D01*
X109760714Y-90480476D01*
X109855952Y-90528095D01*
D14*
X105009286Y-84697857D02*
X105009286Y-84819286D01*
X105002143Y-84833571D01*
X104995000Y-84840714D01*
X104980714Y-84847857D01*
X104952143Y-84847857D01*
X104937857Y-84840714D01*
X104930714Y-84833571D01*
X104923571Y-84819286D01*
X104923571Y-84697857D01*
X104866428Y-84697857D02*
X104773571Y-84697857D01*
X104823571Y-84755000D01*
X104802143Y-84755000D01*
X104787857Y-84762143D01*
X104780714Y-84769286D01*
X104773571Y-84783571D01*
X104773571Y-84819286D01*
X104780714Y-84833571D01*
X104787857Y-84840714D01*
X104802143Y-84847857D01*
X104845000Y-84847857D01*
X104859286Y-84840714D01*
X104866428Y-84833571D01*
D12*
X153321666Y-78222381D02*
X153797857Y-78222381D01*
X153797857Y-77222381D01*
X153035952Y-77317619D02*
X152988333Y-77270000D01*
X152893095Y-77222381D01*
X152654999Y-77222381D01*
X152559761Y-77270000D01*
X152512142Y-77317619D01*
X152464523Y-77412857D01*
X152464523Y-77508095D01*
X152512142Y-77650952D01*
X153083571Y-78222381D01*
X152464523Y-78222381D01*
D14*
X157714286Y-84937857D02*
X157714286Y-85059286D01*
X157707143Y-85073571D01*
X157700000Y-85080714D01*
X157685714Y-85087857D01*
X157657143Y-85087857D01*
X157642857Y-85080714D01*
X157635714Y-85073571D01*
X157628571Y-85059286D01*
X157628571Y-84937857D01*
X157492857Y-84987857D02*
X157492857Y-85087857D01*
X157528571Y-84930714D02*
X157564286Y-85037857D01*
X157471428Y-85037857D01*
D12*
X109506666Y-79812381D02*
X109982857Y-79812381D01*
X109982857Y-78812381D01*
X109268571Y-78812381D02*
X108649523Y-78812381D01*
X108982857Y-79193333D01*
X108839999Y-79193333D01*
X108744761Y-79240952D01*
X108697142Y-79288571D01*
X108649523Y-79383810D01*
X108649523Y-79621905D01*
X108697142Y-79717143D01*
X108744761Y-79764762D01*
X108839999Y-79812381D01*
X109125714Y-79812381D01*
X109220952Y-79764762D01*
X109268571Y-79717143D01*
D14*
X105009286Y-71997857D02*
X105009286Y-72119286D01*
X105002143Y-72133571D01*
X104995000Y-72140714D01*
X104980714Y-72147857D01*
X104952143Y-72147857D01*
X104937857Y-72140714D01*
X104930714Y-72133571D01*
X104923571Y-72119286D01*
X104923571Y-71997857D01*
X104780714Y-71997857D02*
X104852143Y-71997857D01*
X104859286Y-72069286D01*
X104852143Y-72062143D01*
X104837857Y-72055000D01*
X104802143Y-72055000D01*
X104787857Y-72062143D01*
X104780714Y-72069286D01*
X104773571Y-72083571D01*
X104773571Y-72119286D01*
X104780714Y-72133571D01*
X104787857Y-72140714D01*
X104802143Y-72147857D01*
X104837857Y-72147857D01*
X104852143Y-72140714D01*
X104859286Y-72133571D01*
D12*
X100612143Y-71413334D02*
X100659762Y-71365715D01*
X100707381Y-71222858D01*
X100707381Y-71127620D01*
X100659762Y-70984762D01*
X100564524Y-70889524D01*
X100469286Y-70841905D01*
X100278810Y-70794286D01*
X100135952Y-70794286D01*
X99945476Y-70841905D01*
X99850238Y-70889524D01*
X99755000Y-70984762D01*
X99707381Y-71127620D01*
X99707381Y-71222858D01*
X99755000Y-71365715D01*
X99802619Y-71413334D01*
X100707381Y-72365715D02*
X100707381Y-71794286D01*
X100707381Y-72080000D02*
X99707381Y-72080000D01*
X99850238Y-71984762D01*
X99945476Y-71889524D01*
X99993095Y-71794286D01*
X110776666Y-83807143D02*
X110824285Y-83854762D01*
X110967142Y-83902381D01*
X111062380Y-83902381D01*
X111205238Y-83854762D01*
X111300476Y-83759524D01*
X111348095Y-83664286D01*
X111395714Y-83473810D01*
X111395714Y-83330952D01*
X111348095Y-83140476D01*
X111300476Y-83045238D01*
X111205238Y-82950000D01*
X111062380Y-82902381D01*
X110967142Y-82902381D01*
X110824285Y-82950000D01*
X110776666Y-82997619D01*
X110443333Y-82902381D02*
X109824285Y-82902381D01*
X110157619Y-83283333D01*
X110014761Y-83283333D01*
X109919523Y-83330952D01*
X109871904Y-83378571D01*
X109824285Y-83473810D01*
X109824285Y-83711905D01*
X109871904Y-83807143D01*
X109919523Y-83854762D01*
X110014761Y-83902381D01*
X110300476Y-83902381D01*
X110395714Y-83854762D01*
X110443333Y-83807143D01*
X110776666Y-81902143D02*
X110824285Y-81949762D01*
X110967142Y-81997381D01*
X111062380Y-81997381D01*
X111205238Y-81949762D01*
X111300476Y-81854524D01*
X111348095Y-81759286D01*
X111395714Y-81568810D01*
X111395714Y-81425952D01*
X111348095Y-81235476D01*
X111300476Y-81140238D01*
X111205238Y-81045000D01*
X111062380Y-80997381D01*
X110967142Y-80997381D01*
X110824285Y-81045000D01*
X110776666Y-81092619D01*
X109919523Y-81330714D02*
X109919523Y-81997381D01*
X110157619Y-80949762D02*
X110395714Y-81664048D01*
X109776666Y-81664048D01*
X100612143Y-84113334D02*
X100659762Y-84065715D01*
X100707381Y-83922858D01*
X100707381Y-83827620D01*
X100659762Y-83684762D01*
X100564524Y-83589524D01*
X100469286Y-83541905D01*
X100278810Y-83494286D01*
X100135952Y-83494286D01*
X99945476Y-83541905D01*
X99850238Y-83589524D01*
X99755000Y-83684762D01*
X99707381Y-83827620D01*
X99707381Y-83922858D01*
X99755000Y-84065715D01*
X99802619Y-84113334D01*
X99707381Y-85018096D02*
X99707381Y-84541905D01*
X100183571Y-84494286D01*
X100135952Y-84541905D01*
X100088333Y-84637143D01*
X100088333Y-84875239D01*
X100135952Y-84970477D01*
X100183571Y-85018096D01*
X100278810Y-85065715D01*
X100516905Y-85065715D01*
X100612143Y-85018096D01*
X100659762Y-84970477D01*
X100707381Y-84875239D01*
X100707381Y-84637143D01*
X100659762Y-84541905D01*
X100612143Y-84494286D01*
X152051666Y-87372143D02*
X152099285Y-87419762D01*
X152242142Y-87467381D01*
X152337380Y-87467381D01*
X152480238Y-87419762D01*
X152575476Y-87324524D01*
X152623095Y-87229286D01*
X152670714Y-87038810D01*
X152670714Y-86895952D01*
X152623095Y-86705476D01*
X152575476Y-86610238D01*
X152480238Y-86515000D01*
X152337380Y-86467381D01*
X152242142Y-86467381D01*
X152099285Y-86515000D01*
X152051666Y-86562619D01*
X151718333Y-86467381D02*
X151051666Y-86467381D01*
X151480238Y-87467381D01*
X152051666Y-85467143D02*
X152099285Y-85514762D01*
X152242142Y-85562381D01*
X152337380Y-85562381D01*
X152480238Y-85514762D01*
X152575476Y-85419524D01*
X152623095Y-85324286D01*
X152670714Y-85133810D01*
X152670714Y-84990952D01*
X152623095Y-84800476D01*
X152575476Y-84705238D01*
X152480238Y-84610000D01*
X152337380Y-84562381D01*
X152242142Y-84562381D01*
X152099285Y-84610000D01*
X152051666Y-84657619D01*
X151480238Y-84990952D02*
X151575476Y-84943333D01*
X151623095Y-84895714D01*
X151670714Y-84800476D01*
X151670714Y-84752857D01*
X151623095Y-84657619D01*
X151575476Y-84610000D01*
X151480238Y-84562381D01*
X151289761Y-84562381D01*
X151194523Y-84610000D01*
X151146904Y-84657619D01*
X151099285Y-84752857D01*
X151099285Y-84800476D01*
X151146904Y-84895714D01*
X151194523Y-84943333D01*
X151289761Y-84990952D01*
X151480238Y-84990952D01*
X151575476Y-85038571D01*
X151623095Y-85086190D01*
X151670714Y-85181429D01*
X151670714Y-85371905D01*
X151623095Y-85467143D01*
X151575476Y-85514762D01*
X151480238Y-85562381D01*
X151289761Y-85562381D01*
X151194523Y-85514762D01*
X151146904Y-85467143D01*
X151099285Y-85371905D01*
X151099285Y-85181429D01*
X151146904Y-85086190D01*
X151194523Y-85038571D01*
X151289761Y-84990952D01*
X162597143Y-85383334D02*
X162644762Y-85335715D01*
X162692381Y-85192858D01*
X162692381Y-85097620D01*
X162644762Y-84954762D01*
X162549524Y-84859524D01*
X162454286Y-84811905D01*
X162263810Y-84764286D01*
X162120952Y-84764286D01*
X161930476Y-84811905D01*
X161835238Y-84859524D01*
X161740000Y-84954762D01*
X161692381Y-85097620D01*
X161692381Y-85192858D01*
X161740000Y-85335715D01*
X161787619Y-85383334D01*
X162692381Y-85859524D02*
X162692381Y-86050000D01*
X162644762Y-86145239D01*
X162597143Y-86192858D01*
X162454286Y-86288096D01*
X162263810Y-86335715D01*
X161882857Y-86335715D01*
X161787619Y-86288096D01*
X161740000Y-86240477D01*
X161692381Y-86145239D01*
X161692381Y-85954762D01*
X161740000Y-85859524D01*
X161787619Y-85811905D01*
X161882857Y-85764286D01*
X162120952Y-85764286D01*
X162216190Y-85811905D01*
X162263810Y-85859524D01*
X162311429Y-85954762D01*
X162311429Y-86145239D01*
X162263810Y-86240477D01*
X162216190Y-86288096D01*
X162120952Y-86335715D01*
X111252857Y-70472143D02*
X111300476Y-70519762D01*
X111443333Y-70567381D01*
X111538571Y-70567381D01*
X111681429Y-70519762D01*
X111776667Y-70424524D01*
X111824286Y-70329286D01*
X111871905Y-70138810D01*
X111871905Y-69995952D01*
X111824286Y-69805476D01*
X111776667Y-69710238D01*
X111681429Y-69615000D01*
X111538571Y-69567381D01*
X111443333Y-69567381D01*
X111300476Y-69615000D01*
X111252857Y-69662619D01*
X110300476Y-70567381D02*
X110871905Y-70567381D01*
X110586191Y-70567381D02*
X110586191Y-69567381D01*
X110681429Y-69710238D01*
X110776667Y-69805476D01*
X110871905Y-69853095D01*
X109348095Y-70567381D02*
X109919524Y-70567381D01*
X109633810Y-70567381D02*
X109633810Y-69567381D01*
X109729048Y-69710238D01*
X109824286Y-69805476D01*
X109919524Y-69853095D01*
X111252857Y-72377143D02*
X111300476Y-72424762D01*
X111443333Y-72472381D01*
X111538571Y-72472381D01*
X111681429Y-72424762D01*
X111776667Y-72329524D01*
X111824286Y-72234286D01*
X111871905Y-72043810D01*
X111871905Y-71900952D01*
X111824286Y-71710476D01*
X111776667Y-71615238D01*
X111681429Y-71520000D01*
X111538571Y-71472381D01*
X111443333Y-71472381D01*
X111300476Y-71520000D01*
X111252857Y-71567619D01*
X110300476Y-72472381D02*
X110871905Y-72472381D01*
X110586191Y-72472381D02*
X110586191Y-71472381D01*
X110681429Y-71615238D01*
X110776667Y-71710476D01*
X110871905Y-71758095D01*
X109919524Y-71567619D02*
X109871905Y-71520000D01*
X109776667Y-71472381D01*
X109538571Y-71472381D01*
X109443333Y-71520000D01*
X109395714Y-71567619D01*
X109348095Y-71662857D01*
X109348095Y-71758095D01*
X109395714Y-71900952D01*
X109967143Y-72472381D01*
X109348095Y-72472381D01*
X165069095Y-74572381D02*
X165069095Y-73572381D01*
X164831000Y-73572381D01*
X164688142Y-73620000D01*
X164592904Y-73715238D01*
X164545285Y-73810476D01*
X164497666Y-74000952D01*
X164497666Y-74143810D01*
X164545285Y-74334286D01*
X164592904Y-74429524D01*
X164688142Y-74524762D01*
X164831000Y-74572381D01*
X165069095Y-74572381D01*
X163926238Y-74000952D02*
X164021476Y-73953333D01*
X164069095Y-73905714D01*
X164116714Y-73810476D01*
X164116714Y-73762857D01*
X164069095Y-73667619D01*
X164021476Y-73620000D01*
X163926238Y-73572381D01*
X163735761Y-73572381D01*
X163640523Y-73620000D01*
X163592904Y-73667619D01*
X163545285Y-73762857D01*
X163545285Y-73810476D01*
X163592904Y-73905714D01*
X163640523Y-73953333D01*
X163735761Y-74000952D01*
X163926238Y-74000952D01*
X164021476Y-74048571D01*
X164069095Y-74096190D01*
X164116714Y-74191429D01*
X164116714Y-74381905D01*
X164069095Y-74477143D01*
X164021476Y-74524762D01*
X163926238Y-74572381D01*
X163735761Y-74572381D01*
X163640523Y-74524762D01*
X163592904Y-74477143D01*
X163545285Y-74381905D01*
X163545285Y-74191429D01*
X163592904Y-74096190D01*
X163640523Y-74048571D01*
X163735761Y-74000952D01*
X159322381Y-63856905D02*
X158322381Y-63856905D01*
X158322381Y-64095000D01*
X158370000Y-64237858D01*
X158465238Y-64333096D01*
X158560476Y-64380715D01*
X158750952Y-64428334D01*
X158893810Y-64428334D01*
X159084286Y-64380715D01*
X159179524Y-64333096D01*
X159274762Y-64237858D01*
X159322381Y-64095000D01*
X159322381Y-63856905D01*
X159322381Y-64904524D02*
X159322381Y-65095000D01*
X159274762Y-65190239D01*
X159227143Y-65237858D01*
X159084286Y-65333096D01*
X158893810Y-65380715D01*
X158512857Y-65380715D01*
X158417619Y-65333096D01*
X158370000Y-65285477D01*
X158322381Y-65190239D01*
X158322381Y-64999762D01*
X158370000Y-64904524D01*
X158417619Y-64856905D01*
X158512857Y-64809286D01*
X158750952Y-64809286D01*
X158846190Y-64856905D01*
X158893810Y-64904524D01*
X158941429Y-64999762D01*
X158941429Y-65190239D01*
X158893810Y-65285477D01*
X158846190Y-65333096D01*
X158750952Y-65380715D01*
X171022381Y-94313095D02*
X171831905Y-94313095D01*
X171927143Y-94360714D01*
X171974762Y-94408333D01*
X172022381Y-94503571D01*
X172022381Y-94694048D01*
X171974762Y-94789286D01*
X171927143Y-94836905D01*
X171831905Y-94884524D01*
X171022381Y-94884524D01*
X171022381Y-95265476D02*
X171022381Y-95932143D01*
X172022381Y-95503571D01*
X163322857Y-95627143D02*
X163370476Y-95674762D01*
X163513333Y-95722381D01*
X163608571Y-95722381D01*
X163751429Y-95674762D01*
X163846667Y-95579524D01*
X163894286Y-95484286D01*
X163941905Y-95293810D01*
X163941905Y-95150952D01*
X163894286Y-94960476D01*
X163846667Y-94865238D01*
X163751429Y-94770000D01*
X163608571Y-94722381D01*
X163513333Y-94722381D01*
X163370476Y-94770000D01*
X163322857Y-94817619D01*
X162370476Y-95722381D02*
X162941905Y-95722381D01*
X162656191Y-95722381D02*
X162656191Y-94722381D01*
X162751429Y-94865238D01*
X162846667Y-94960476D01*
X162941905Y-95008095D01*
X162037143Y-94722381D02*
X161418095Y-94722381D01*
X161751429Y-95103333D01*
X161608571Y-95103333D01*
X161513333Y-95150952D01*
X161465714Y-95198571D01*
X161418095Y-95293810D01*
X161418095Y-95531905D01*
X161465714Y-95627143D01*
X161513333Y-95674762D01*
X161608571Y-95722381D01*
X161894286Y-95722381D01*
X161989524Y-95674762D01*
X162037143Y-95627143D01*
X161989286Y-95197381D02*
X161989286Y-94197381D01*
X161751191Y-94197381D01*
X161608333Y-94245000D01*
X161513095Y-94340238D01*
X161465476Y-94435476D01*
X161417857Y-94625952D01*
X161417857Y-94768810D01*
X161465476Y-94959286D01*
X161513095Y-95054524D01*
X161608333Y-95149762D01*
X161751191Y-95197381D01*
X161989286Y-95197381D01*
X160465476Y-95197381D02*
X161036905Y-95197381D01*
X160751191Y-95197381D02*
X160751191Y-94197381D01*
X160846429Y-94340238D01*
X160941667Y-94435476D01*
X161036905Y-94483095D01*
X159846429Y-94197381D02*
X159751190Y-94197381D01*
X159655952Y-94245000D01*
X159608333Y-94292619D01*
X159560714Y-94387857D01*
X159513095Y-94578333D01*
X159513095Y-94816429D01*
X159560714Y-95006905D01*
X159608333Y-95102143D01*
X159655952Y-95149762D01*
X159751190Y-95197381D01*
X159846429Y-95197381D01*
X159941667Y-95149762D01*
X159989286Y-95102143D01*
X160036905Y-95006905D01*
X160084524Y-94816429D01*
X160084524Y-94578333D01*
X160036905Y-94387857D01*
X159989286Y-94292619D01*
X159941667Y-94245000D01*
X159846429Y-94197381D01*
X181694286Y-86852381D02*
X181694286Y-85852381D01*
X181456191Y-85852381D01*
X181313333Y-85900000D01*
X181218095Y-85995238D01*
X181170476Y-86090476D01*
X181122857Y-86280952D01*
X181122857Y-86423810D01*
X181170476Y-86614286D01*
X181218095Y-86709524D01*
X181313333Y-86804762D01*
X181456191Y-86852381D01*
X181694286Y-86852381D01*
X180170476Y-86852381D02*
X180741905Y-86852381D01*
X180456191Y-86852381D02*
X180456191Y-85852381D01*
X180551429Y-85995238D01*
X180646667Y-86090476D01*
X180741905Y-86138095D01*
X179218095Y-86852381D02*
X179789524Y-86852381D01*
X179503810Y-86852381D02*
X179503810Y-85852381D01*
X179599048Y-85995238D01*
X179694286Y-86090476D01*
X179789524Y-86138095D01*
X176814286Y-79347381D02*
X176814286Y-78347381D01*
X176576191Y-78347381D01*
X176433333Y-78395000D01*
X176338095Y-78490238D01*
X176290476Y-78585476D01*
X176242857Y-78775952D01*
X176242857Y-78918810D01*
X176290476Y-79109286D01*
X176338095Y-79204524D01*
X176433333Y-79299762D01*
X176576191Y-79347381D01*
X176814286Y-79347381D01*
X175290476Y-79347381D02*
X175861905Y-79347381D01*
X175576191Y-79347381D02*
X175576191Y-78347381D01*
X175671429Y-78490238D01*
X175766667Y-78585476D01*
X175861905Y-78633095D01*
X174385714Y-78347381D02*
X174861905Y-78347381D01*
X174909524Y-78823571D01*
X174861905Y-78775952D01*
X174766667Y-78728333D01*
X174528571Y-78728333D01*
X174433333Y-78775952D01*
X174385714Y-78823571D01*
X174338095Y-78918810D01*
X174338095Y-79156905D01*
X174385714Y-79252143D01*
X174433333Y-79299762D01*
X174528571Y-79347381D01*
X174766667Y-79347381D01*
X174861905Y-79299762D01*
X174909524Y-79252143D01*
X170879286Y-83157381D02*
X170879286Y-82157381D01*
X170641191Y-82157381D01*
X170498333Y-82205000D01*
X170403095Y-82300238D01*
X170355476Y-82395476D01*
X170307857Y-82585952D01*
X170307857Y-82728810D01*
X170355476Y-82919286D01*
X170403095Y-83014524D01*
X170498333Y-83109762D01*
X170641191Y-83157381D01*
X170879286Y-83157381D01*
X169355476Y-83157381D02*
X169926905Y-83157381D01*
X169641191Y-83157381D02*
X169641191Y-82157381D01*
X169736429Y-82300238D01*
X169831667Y-82395476D01*
X169926905Y-82443095D01*
X168974524Y-82252619D02*
X168926905Y-82205000D01*
X168831667Y-82157381D01*
X168593571Y-82157381D01*
X168498333Y-82205000D01*
X168450714Y-82252619D01*
X168403095Y-82347857D01*
X168403095Y-82443095D01*
X168450714Y-82585952D01*
X169022143Y-83157381D01*
X168403095Y-83157381D01*
X152116666Y-105096667D02*
X152116666Y-105663333D01*
X152083333Y-105730000D01*
X152050000Y-105763333D01*
X151983333Y-105796667D01*
X151850000Y-105796667D01*
X151783333Y-105763333D01*
X151750000Y-105730000D01*
X151716666Y-105663333D01*
X151716666Y-105096667D01*
X151416667Y-105763333D02*
X151316667Y-105796667D01*
X151150000Y-105796667D01*
X151083333Y-105763333D01*
X151050000Y-105730000D01*
X151016667Y-105663333D01*
X151016667Y-105596667D01*
X151050000Y-105530000D01*
X151083333Y-105496667D01*
X151150000Y-105463333D01*
X151283333Y-105430000D01*
X151350000Y-105396667D01*
X151383333Y-105363333D01*
X151416667Y-105296667D01*
X151416667Y-105230000D01*
X151383333Y-105163333D01*
X151350000Y-105130000D01*
X151283333Y-105096667D01*
X151116667Y-105096667D01*
X151016667Y-105130000D01*
X150350000Y-105796667D02*
X150750000Y-105796667D01*
X150550000Y-105796667D02*
X150550000Y-105096667D01*
X150616666Y-105196667D01*
X150683333Y-105263333D01*
X150750000Y-105296667D01*
X166086666Y-67776667D02*
X166086666Y-68343333D01*
X166053333Y-68410000D01*
X166020000Y-68443333D01*
X165953333Y-68476667D01*
X165820000Y-68476667D01*
X165753333Y-68443333D01*
X165720000Y-68410000D01*
X165686666Y-68343333D01*
X165686666Y-67776667D01*
X165386667Y-68443333D02*
X165286667Y-68476667D01*
X165120000Y-68476667D01*
X165053333Y-68443333D01*
X165020000Y-68410000D01*
X164986667Y-68343333D01*
X164986667Y-68276667D01*
X165020000Y-68210000D01*
X165053333Y-68176667D01*
X165120000Y-68143333D01*
X165253333Y-68110000D01*
X165320000Y-68076667D01*
X165353333Y-68043333D01*
X165386667Y-67976667D01*
X165386667Y-67910000D01*
X165353333Y-67843333D01*
X165320000Y-67810000D01*
X165253333Y-67776667D01*
X165086667Y-67776667D01*
X164986667Y-67810000D01*
X164720000Y-67843333D02*
X164686666Y-67810000D01*
X164620000Y-67776667D01*
X164453333Y-67776667D01*
X164386666Y-67810000D01*
X164353333Y-67843333D01*
X164320000Y-67910000D01*
X164320000Y-67976667D01*
X164353333Y-68076667D01*
X164753333Y-68476667D01*
X164320000Y-68476667D01*
X163180238Y-88357619D02*
X163275476Y-88310000D01*
X163370714Y-88214762D01*
X163513571Y-88071905D01*
X163608810Y-88024286D01*
X163704048Y-88024286D01*
X163656429Y-88262381D02*
X163751667Y-88214762D01*
X163846905Y-88119524D01*
X163894524Y-87929048D01*
X163894524Y-87595714D01*
X163846905Y-87405238D01*
X163751667Y-87310000D01*
X163656429Y-87262381D01*
X163465952Y-87262381D01*
X163370714Y-87310000D01*
X163275476Y-87405238D01*
X163227857Y-87595714D01*
X163227857Y-87929048D01*
X163275476Y-88119524D01*
X163370714Y-88214762D01*
X163465952Y-88262381D01*
X163656429Y-88262381D01*
X162275476Y-88262381D02*
X162846905Y-88262381D01*
X162561191Y-88262381D02*
X162561191Y-87262381D01*
X162656429Y-87405238D01*
X162751667Y-87500476D01*
X162846905Y-87548095D01*
X172935238Y-84867619D02*
X173030476Y-84820000D01*
X173125714Y-84724762D01*
X173268571Y-84581905D01*
X173363810Y-84534286D01*
X173459048Y-84534286D01*
X173411429Y-84772381D02*
X173506667Y-84724762D01*
X173601905Y-84629524D01*
X173649524Y-84439048D01*
X173649524Y-84105714D01*
X173601905Y-83915238D01*
X173506667Y-83820000D01*
X173411429Y-83772381D01*
X173220952Y-83772381D01*
X173125714Y-83820000D01*
X173030476Y-83915238D01*
X172982857Y-84105714D01*
X172982857Y-84439048D01*
X173030476Y-84629524D01*
X173125714Y-84724762D01*
X173220952Y-84772381D01*
X173411429Y-84772381D01*
X172601905Y-83867619D02*
X172554286Y-83820000D01*
X172459048Y-83772381D01*
X172220952Y-83772381D01*
X172125714Y-83820000D01*
X172078095Y-83867619D01*
X172030476Y-83962857D01*
X172030476Y-84058095D01*
X172078095Y-84200952D01*
X172649524Y-84772381D01*
X172030476Y-84772381D01*
X110776666Y-78927143D02*
X110824285Y-78974762D01*
X110967142Y-79022381D01*
X111062380Y-79022381D01*
X111205238Y-78974762D01*
X111300476Y-78879524D01*
X111348095Y-78784286D01*
X111395714Y-78593810D01*
X111395714Y-78450952D01*
X111348095Y-78260476D01*
X111300476Y-78165238D01*
X111205238Y-78070000D01*
X111062380Y-78022381D01*
X110967142Y-78022381D01*
X110824285Y-78070000D01*
X110776666Y-78117619D01*
X110395714Y-78117619D02*
X110348095Y-78070000D01*
X110252857Y-78022381D01*
X110014761Y-78022381D01*
X109919523Y-78070000D01*
X109871904Y-78117619D01*
X109824285Y-78212857D01*
X109824285Y-78308095D01*
X109871904Y-78450952D01*
X110443333Y-79022381D01*
X109824285Y-79022381D01*
X152051666Y-90347143D02*
X152099285Y-90394762D01*
X152242142Y-90442381D01*
X152337380Y-90442381D01*
X152480238Y-90394762D01*
X152575476Y-90299524D01*
X152623095Y-90204286D01*
X152670714Y-90013810D01*
X152670714Y-89870952D01*
X152623095Y-89680476D01*
X152575476Y-89585238D01*
X152480238Y-89490000D01*
X152337380Y-89442381D01*
X152242142Y-89442381D01*
X152099285Y-89490000D01*
X152051666Y-89537619D01*
X151194523Y-89442381D02*
X151385000Y-89442381D01*
X151480238Y-89490000D01*
X151527857Y-89537619D01*
X151623095Y-89680476D01*
X151670714Y-89870952D01*
X151670714Y-90251905D01*
X151623095Y-90347143D01*
X151575476Y-90394762D01*
X151480238Y-90442381D01*
X151289761Y-90442381D01*
X151194523Y-90394762D01*
X151146904Y-90347143D01*
X151099285Y-90251905D01*
X151099285Y-90013810D01*
X151146904Y-89918571D01*
X151194523Y-89870952D01*
X151289761Y-89823333D01*
X151480238Y-89823333D01*
X151575476Y-89870952D01*
X151623095Y-89918571D01*
X151670714Y-90013810D01*
X111252857Y-67497143D02*
X111300476Y-67544762D01*
X111443333Y-67592381D01*
X111538571Y-67592381D01*
X111681429Y-67544762D01*
X111776667Y-67449524D01*
X111824286Y-67354286D01*
X111871905Y-67163810D01*
X111871905Y-67020952D01*
X111824286Y-66830476D01*
X111776667Y-66735238D01*
X111681429Y-66640000D01*
X111538571Y-66592381D01*
X111443333Y-66592381D01*
X111300476Y-66640000D01*
X111252857Y-66687619D01*
X110300476Y-67592381D02*
X110871905Y-67592381D01*
X110586191Y-67592381D02*
X110586191Y-66592381D01*
X110681429Y-66735238D01*
X110776667Y-66830476D01*
X110871905Y-66878095D01*
X109681429Y-66592381D02*
X109586190Y-66592381D01*
X109490952Y-66640000D01*
X109443333Y-66687619D01*
X109395714Y-66782857D01*
X109348095Y-66973333D01*
X109348095Y-67211429D01*
X109395714Y-67401905D01*
X109443333Y-67497143D01*
X109490952Y-67544762D01*
X109586190Y-67592381D01*
X109681429Y-67592381D01*
X109776667Y-67544762D01*
X109824286Y-67497143D01*
X109871905Y-67401905D01*
X109919524Y-67211429D01*
X109919524Y-66973333D01*
X109871905Y-66782857D01*
X109824286Y-66687619D01*
X109776667Y-66640000D01*
X109681429Y-66592381D01*
X172567143Y-82367143D02*
X172614762Y-82319524D01*
X172662381Y-82176667D01*
X172662381Y-82081429D01*
X172614762Y-81938571D01*
X172519524Y-81843333D01*
X172424286Y-81795714D01*
X172233810Y-81748095D01*
X172090952Y-81748095D01*
X171900476Y-81795714D01*
X171805238Y-81843333D01*
X171710000Y-81938571D01*
X171662381Y-82081429D01*
X171662381Y-82176667D01*
X171710000Y-82319524D01*
X171757619Y-82367143D01*
X172662381Y-83319524D02*
X172662381Y-82748095D01*
X172662381Y-83033809D02*
X171662381Y-83033809D01*
X171805238Y-82938571D01*
X171900476Y-82843333D01*
X171948095Y-82748095D01*
X171995714Y-84176667D02*
X172662381Y-84176667D01*
X171614762Y-83938571D02*
X172329048Y-83700476D01*
X172329048Y-84319524D01*
X161857381Y-93003334D02*
X161381190Y-92670000D01*
X161857381Y-92431905D02*
X160857381Y-92431905D01*
X160857381Y-92812858D01*
X160905000Y-92908096D01*
X160952619Y-92955715D01*
X161047857Y-93003334D01*
X161190714Y-93003334D01*
X161285952Y-92955715D01*
X161333571Y-92908096D01*
X161381190Y-92812858D01*
X161381190Y-92431905D01*
X161857381Y-93955715D02*
X161857381Y-93384286D01*
X161857381Y-93670000D02*
X160857381Y-93670000D01*
X161000238Y-93574762D01*
X161095476Y-93479524D01*
X161143095Y-93384286D01*
X179002381Y-86653334D02*
X178526190Y-86320000D01*
X179002381Y-86081905D02*
X178002381Y-86081905D01*
X178002381Y-86462858D01*
X178050000Y-86558096D01*
X178097619Y-86605715D01*
X178192857Y-86653334D01*
X178335714Y-86653334D01*
X178430952Y-86605715D01*
X178478571Y-86558096D01*
X178526190Y-86462858D01*
X178526190Y-86081905D01*
X178097619Y-87034286D02*
X178050000Y-87081905D01*
X178002381Y-87177143D01*
X178002381Y-87415239D01*
X178050000Y-87510477D01*
X178097619Y-87558096D01*
X178192857Y-87605715D01*
X178288095Y-87605715D01*
X178430952Y-87558096D01*
X179002381Y-86986667D01*
X179002381Y-87605715D01*
X178086666Y-87912381D02*
X178420000Y-87436190D01*
X178658095Y-87912381D02*
X178658095Y-86912381D01*
X178277142Y-86912381D01*
X178181904Y-86960000D01*
X178134285Y-87007619D01*
X178086666Y-87102857D01*
X178086666Y-87245714D01*
X178134285Y-87340952D01*
X178181904Y-87388571D01*
X178277142Y-87436190D01*
X178658095Y-87436190D01*
X177229523Y-87245714D02*
X177229523Y-87912381D01*
X177467619Y-86864762D02*
X177705714Y-87579048D01*
X177086666Y-87579048D01*
X175202381Y-82378334D02*
X174726190Y-82045000D01*
X175202381Y-81806905D02*
X174202381Y-81806905D01*
X174202381Y-82187858D01*
X174250000Y-82283096D01*
X174297619Y-82330715D01*
X174392857Y-82378334D01*
X174535714Y-82378334D01*
X174630952Y-82330715D01*
X174678571Y-82283096D01*
X174726190Y-82187858D01*
X174726190Y-81806905D01*
X174202381Y-83283096D02*
X174202381Y-82806905D01*
X174678571Y-82759286D01*
X174630952Y-82806905D01*
X174583333Y-82902143D01*
X174583333Y-83140239D01*
X174630952Y-83235477D01*
X174678571Y-83283096D01*
X174773810Y-83330715D01*
X175011905Y-83330715D01*
X175107143Y-83283096D01*
X175154762Y-83235477D01*
X175202381Y-83140239D01*
X175202381Y-82902143D01*
X175154762Y-82806905D01*
X175107143Y-82759286D01*
X165042381Y-91733334D02*
X164566190Y-91400000D01*
X165042381Y-91161905D02*
X164042381Y-91161905D01*
X164042381Y-91542858D01*
X164090000Y-91638096D01*
X164137619Y-91685715D01*
X164232857Y-91733334D01*
X164375714Y-91733334D01*
X164470952Y-91685715D01*
X164518571Y-91638096D01*
X164566190Y-91542858D01*
X164566190Y-91161905D01*
X164042381Y-92590477D02*
X164042381Y-92400000D01*
X164090000Y-92304762D01*
X164137619Y-92257143D01*
X164280476Y-92161905D01*
X164470952Y-92114286D01*
X164851905Y-92114286D01*
X164947143Y-92161905D01*
X164994762Y-92209524D01*
X165042381Y-92304762D01*
X165042381Y-92495239D01*
X164994762Y-92590477D01*
X164947143Y-92638096D01*
X164851905Y-92685715D01*
X164613810Y-92685715D01*
X164518571Y-92638096D01*
X164470952Y-92590477D01*
X164423333Y-92495239D01*
X164423333Y-92304762D01*
X164470952Y-92209524D01*
X164518571Y-92161905D01*
X164613810Y-92114286D01*
X156496666Y-101872381D02*
X156830000Y-101396190D01*
X157068095Y-101872381D02*
X157068095Y-100872381D01*
X156687142Y-100872381D01*
X156591904Y-100920000D01*
X156544285Y-100967619D01*
X156496666Y-101062857D01*
X156496666Y-101205714D01*
X156544285Y-101300952D01*
X156591904Y-101348571D01*
X156687142Y-101396190D01*
X157068095Y-101396190D01*
X156163333Y-100872381D02*
X155496666Y-100872381D01*
X155925238Y-101872381D01*
X170757381Y-82208334D02*
X170281190Y-81875000D01*
X170757381Y-81636905D02*
X169757381Y-81636905D01*
X169757381Y-82017858D01*
X169805000Y-82113096D01*
X169852619Y-82160715D01*
X169947857Y-82208334D01*
X170090714Y-82208334D01*
X170185952Y-82160715D01*
X170233571Y-82113096D01*
X170281190Y-82017858D01*
X170281190Y-81636905D01*
X170185952Y-82779762D02*
X170138333Y-82684524D01*
X170090714Y-82636905D01*
X169995476Y-82589286D01*
X169947857Y-82589286D01*
X169852619Y-82636905D01*
X169805000Y-82684524D01*
X169757381Y-82779762D01*
X169757381Y-82970239D01*
X169805000Y-83065477D01*
X169852619Y-83113096D01*
X169947857Y-83160715D01*
X169995476Y-83160715D01*
X170090714Y-83113096D01*
X170138333Y-83065477D01*
X170185952Y-82970239D01*
X170185952Y-82779762D01*
X170233571Y-82684524D01*
X170281190Y-82636905D01*
X170376429Y-82589286D01*
X170566905Y-82589286D01*
X170662143Y-82636905D01*
X170709762Y-82684524D01*
X170757381Y-82779762D01*
X170757381Y-82970239D01*
X170709762Y-83065477D01*
X170662143Y-83113096D01*
X170566905Y-83160715D01*
X170376429Y-83160715D01*
X170281190Y-83113096D01*
X170233571Y-83065477D01*
X170185952Y-82970239D01*
X127832381Y-108833334D02*
X127356190Y-108500000D01*
X127832381Y-108261905D02*
X126832381Y-108261905D01*
X126832381Y-108642858D01*
X126880000Y-108738096D01*
X126927619Y-108785715D01*
X127022857Y-108833334D01*
X127165714Y-108833334D01*
X127260952Y-108785715D01*
X127308571Y-108738096D01*
X127356190Y-108642858D01*
X127356190Y-108261905D01*
X127832381Y-109309524D02*
X127832381Y-109500000D01*
X127784762Y-109595239D01*
X127737143Y-109642858D01*
X127594286Y-109738096D01*
X127403810Y-109785715D01*
X127022857Y-109785715D01*
X126927619Y-109738096D01*
X126880000Y-109690477D01*
X126832381Y-109595239D01*
X126832381Y-109404762D01*
X126880000Y-109309524D01*
X126927619Y-109261905D01*
X127022857Y-109214286D01*
X127260952Y-109214286D01*
X127356190Y-109261905D01*
X127403810Y-109309524D01*
X127451429Y-109404762D01*
X127451429Y-109595239D01*
X127403810Y-109690477D01*
X127356190Y-109738096D01*
X127260952Y-109785715D01*
X166497857Y-79657381D02*
X166831191Y-79181190D01*
X167069286Y-79657381D02*
X167069286Y-78657381D01*
X166688333Y-78657381D01*
X166593095Y-78705000D01*
X166545476Y-78752619D01*
X166497857Y-78847857D01*
X166497857Y-78990714D01*
X166545476Y-79085952D01*
X166593095Y-79133571D01*
X166688333Y-79181190D01*
X167069286Y-79181190D01*
X165545476Y-79657381D02*
X166116905Y-79657381D01*
X165831191Y-79657381D02*
X165831191Y-78657381D01*
X165926429Y-78800238D01*
X166021667Y-78895476D01*
X166116905Y-78943095D01*
X164926429Y-78657381D02*
X164831190Y-78657381D01*
X164735952Y-78705000D01*
X164688333Y-78752619D01*
X164640714Y-78847857D01*
X164593095Y-79038333D01*
X164593095Y-79276429D01*
X164640714Y-79466905D01*
X164688333Y-79562143D01*
X164735952Y-79609762D01*
X164831190Y-79657381D01*
X164926429Y-79657381D01*
X165021667Y-79609762D01*
X165069286Y-79562143D01*
X165116905Y-79466905D01*
X165164524Y-79276429D01*
X165164524Y-79038333D01*
X165116905Y-78847857D01*
X165069286Y-78752619D01*
X165021667Y-78705000D01*
X164926429Y-78657381D01*
X170757381Y-77287143D02*
X170281190Y-76953809D01*
X170757381Y-76715714D02*
X169757381Y-76715714D01*
X169757381Y-77096667D01*
X169805000Y-77191905D01*
X169852619Y-77239524D01*
X169947857Y-77287143D01*
X170090714Y-77287143D01*
X170185952Y-77239524D01*
X170233571Y-77191905D01*
X170281190Y-77096667D01*
X170281190Y-76715714D01*
X170757381Y-78239524D02*
X170757381Y-77668095D01*
X170757381Y-77953809D02*
X169757381Y-77953809D01*
X169900238Y-77858571D01*
X169995476Y-77763333D01*
X170043095Y-77668095D01*
X169757381Y-78572857D02*
X169757381Y-79191905D01*
X170138333Y-78858571D01*
X170138333Y-79001429D01*
X170185952Y-79096667D01*
X170233571Y-79144286D01*
X170328810Y-79191905D01*
X170566905Y-79191905D01*
X170662143Y-79144286D01*
X170709762Y-79096667D01*
X170757381Y-79001429D01*
X170757381Y-78715714D01*
X170709762Y-78620476D01*
X170662143Y-78572857D01*
X111205238Y-80292381D02*
X111538572Y-79816190D01*
X111776667Y-80292381D02*
X111776667Y-79292381D01*
X111395714Y-79292381D01*
X111300476Y-79340000D01*
X111252857Y-79387619D01*
X111205238Y-79482857D01*
X111205238Y-79625714D01*
X111252857Y-79720952D01*
X111300476Y-79768571D01*
X111395714Y-79816190D01*
X111776667Y-79816190D01*
X110824286Y-80006667D02*
X110348095Y-80006667D01*
X110919524Y-80292381D02*
X110586191Y-79292381D01*
X110252857Y-80292381D01*
X109395714Y-80292381D02*
X109967143Y-80292381D01*
X109681429Y-80292381D02*
X109681429Y-79292381D01*
X109776667Y-79435238D01*
X109871905Y-79530476D01*
X109967143Y-79578095D01*
X111205238Y-68862381D02*
X111538572Y-68386190D01*
X111776667Y-68862381D02*
X111776667Y-67862381D01*
X111395714Y-67862381D01*
X111300476Y-67910000D01*
X111252857Y-67957619D01*
X111205238Y-68052857D01*
X111205238Y-68195714D01*
X111252857Y-68290952D01*
X111300476Y-68338571D01*
X111395714Y-68386190D01*
X111776667Y-68386190D01*
X110824286Y-68576667D02*
X110348095Y-68576667D01*
X110919524Y-68862381D02*
X110586191Y-67862381D01*
X110252857Y-68862381D01*
X109967143Y-67957619D02*
X109919524Y-67910000D01*
X109824286Y-67862381D01*
X109586190Y-67862381D01*
X109490952Y-67910000D01*
X109443333Y-67957619D01*
X109395714Y-68052857D01*
X109395714Y-68148095D01*
X109443333Y-68290952D01*
X110014762Y-68862381D01*
X109395714Y-68862381D01*
X152480238Y-89172381D02*
X152813572Y-88696190D01*
X153051667Y-89172381D02*
X153051667Y-88172381D01*
X152670714Y-88172381D01*
X152575476Y-88220000D01*
X152527857Y-88267619D01*
X152480238Y-88362857D01*
X152480238Y-88505714D01*
X152527857Y-88600952D01*
X152575476Y-88648571D01*
X152670714Y-88696190D01*
X153051667Y-88696190D01*
X152099286Y-88886667D02*
X151623095Y-88886667D01*
X152194524Y-89172381D02*
X151861191Y-88172381D01*
X151527857Y-89172381D01*
X151289762Y-88172381D02*
X150670714Y-88172381D01*
X151004048Y-88553333D01*
X150861190Y-88553333D01*
X150765952Y-88600952D01*
X150718333Y-88648571D01*
X150670714Y-88743810D01*
X150670714Y-88981905D01*
X150718333Y-89077143D01*
X150765952Y-89124762D01*
X150861190Y-89172381D01*
X151146905Y-89172381D01*
X151242143Y-89124762D01*
X151289762Y-89077143D01*
X109787381Y-83613334D02*
X109311190Y-83280000D01*
X109787381Y-83041905D02*
X108787381Y-83041905D01*
X108787381Y-83422858D01*
X108835000Y-83518096D01*
X108882619Y-83565715D01*
X108977857Y-83613334D01*
X109120714Y-83613334D01*
X109215952Y-83565715D01*
X109263571Y-83518096D01*
X109311190Y-83422858D01*
X109311190Y-83041905D01*
X109263571Y-84375239D02*
X109311190Y-84518096D01*
X109358810Y-84565715D01*
X109454048Y-84613334D01*
X109596905Y-84613334D01*
X109692143Y-84565715D01*
X109739762Y-84518096D01*
X109787381Y-84422858D01*
X109787381Y-84041905D01*
X108787381Y-84041905D01*
X108787381Y-84375239D01*
X108835000Y-84470477D01*
X108882619Y-84518096D01*
X108977857Y-84565715D01*
X109073095Y-84565715D01*
X109168333Y-84518096D01*
X109215952Y-84470477D01*
X109263571Y-84375239D01*
X109263571Y-84041905D01*
X109787381Y-85565715D02*
X109787381Y-84994286D01*
X109787381Y-85280000D02*
X108787381Y-85280000D01*
X108930238Y-85184762D01*
X109025476Y-85089524D01*
X109073095Y-84994286D01*
X109787381Y-70913334D02*
X109311190Y-70580000D01*
X109787381Y-70341905D02*
X108787381Y-70341905D01*
X108787381Y-70722858D01*
X108835000Y-70818096D01*
X108882619Y-70865715D01*
X108977857Y-70913334D01*
X109120714Y-70913334D01*
X109215952Y-70865715D01*
X109263571Y-70818096D01*
X109311190Y-70722858D01*
X109311190Y-70341905D01*
X109263571Y-71675239D02*
X109311190Y-71818096D01*
X109358810Y-71865715D01*
X109454048Y-71913334D01*
X109596905Y-71913334D01*
X109692143Y-71865715D01*
X109739762Y-71818096D01*
X109787381Y-71722858D01*
X109787381Y-71341905D01*
X108787381Y-71341905D01*
X108787381Y-71675239D01*
X108835000Y-71770477D01*
X108882619Y-71818096D01*
X108977857Y-71865715D01*
X109073095Y-71865715D01*
X109168333Y-71818096D01*
X109215952Y-71770477D01*
X109263571Y-71675239D01*
X109263571Y-71341905D01*
X108882619Y-72294286D02*
X108835000Y-72341905D01*
X108787381Y-72437143D01*
X108787381Y-72675239D01*
X108835000Y-72770477D01*
X108882619Y-72818096D01*
X108977857Y-72865715D01*
X109073095Y-72865715D01*
X109215952Y-72818096D01*
X109787381Y-72246667D01*
X109787381Y-72865715D01*
X153612381Y-84883334D02*
X153136190Y-84550000D01*
X153612381Y-84311905D02*
X152612381Y-84311905D01*
X152612381Y-84692858D01*
X152660000Y-84788096D01*
X152707619Y-84835715D01*
X152802857Y-84883334D01*
X152945714Y-84883334D01*
X153040952Y-84835715D01*
X153088571Y-84788096D01*
X153136190Y-84692858D01*
X153136190Y-84311905D01*
X153088571Y-85645239D02*
X153136190Y-85788096D01*
X153183810Y-85835715D01*
X153279048Y-85883334D01*
X153421905Y-85883334D01*
X153517143Y-85835715D01*
X153564762Y-85788096D01*
X153612381Y-85692858D01*
X153612381Y-85311905D01*
X152612381Y-85311905D01*
X152612381Y-85645239D01*
X152660000Y-85740477D01*
X152707619Y-85788096D01*
X152802857Y-85835715D01*
X152898095Y-85835715D01*
X152993333Y-85788096D01*
X153040952Y-85740477D01*
X153088571Y-85645239D01*
X153088571Y-85311905D01*
X152612381Y-86216667D02*
X152612381Y-86835715D01*
X152993333Y-86502381D01*
X152993333Y-86645239D01*
X153040952Y-86740477D01*
X153088571Y-86788096D01*
X153183810Y-86835715D01*
X153421905Y-86835715D01*
X153517143Y-86788096D01*
X153564762Y-86740477D01*
X153612381Y-86645239D01*
X153612381Y-86359524D01*
X153564762Y-86264286D01*
X153517143Y-86216667D01*
X126324857Y-84737381D02*
X126658191Y-84261190D01*
X126896286Y-84737381D02*
X126896286Y-83737381D01*
X126515333Y-83737381D01*
X126420095Y-83785000D01*
X126372476Y-83832619D01*
X126324857Y-83927857D01*
X126324857Y-84070714D01*
X126372476Y-84165952D01*
X126420095Y-84213571D01*
X126515333Y-84261190D01*
X126896286Y-84261190D01*
X125372476Y-84737381D02*
X125943905Y-84737381D01*
X125658191Y-84737381D02*
X125658191Y-83737381D01*
X125753429Y-83880238D01*
X125848667Y-83975476D01*
X125943905Y-84023095D01*
X124515333Y-84070714D02*
X124515333Y-84737381D01*
X124753429Y-83689762D02*
X124991524Y-84404048D01*
X124372476Y-84404048D01*
X126324857Y-82831381D02*
X126658191Y-82355190D01*
X126896286Y-82831381D02*
X126896286Y-81831381D01*
X126515333Y-81831381D01*
X126420095Y-81879000D01*
X126372476Y-81926619D01*
X126324857Y-82021857D01*
X126324857Y-82164714D01*
X126372476Y-82259952D01*
X126420095Y-82307571D01*
X126515333Y-82355190D01*
X126896286Y-82355190D01*
X125372476Y-82831381D02*
X125943905Y-82831381D01*
X125658191Y-82831381D02*
X125658191Y-81831381D01*
X125753429Y-81974238D01*
X125848667Y-82069476D01*
X125943905Y-82117095D01*
X124467714Y-81831381D02*
X124943905Y-81831381D01*
X124991524Y-82307571D01*
X124943905Y-82259952D01*
X124848667Y-82212333D01*
X124610571Y-82212333D01*
X124515333Y-82259952D01*
X124467714Y-82307571D01*
X124420095Y-82402810D01*
X124420095Y-82640905D01*
X124467714Y-82736143D01*
X124515333Y-82783762D01*
X124610571Y-82831381D01*
X124848667Y-82831381D01*
X124943905Y-82783762D01*
X124991524Y-82736143D01*
X126324857Y-80927381D02*
X126658191Y-80451190D01*
X126896286Y-80927381D02*
X126896286Y-79927381D01*
X126515333Y-79927381D01*
X126420095Y-79975000D01*
X126372476Y-80022619D01*
X126324857Y-80117857D01*
X126324857Y-80260714D01*
X126372476Y-80355952D01*
X126420095Y-80403571D01*
X126515333Y-80451190D01*
X126896286Y-80451190D01*
X125372476Y-80927381D02*
X125943905Y-80927381D01*
X125658191Y-80927381D02*
X125658191Y-79927381D01*
X125753429Y-80070238D01*
X125848667Y-80165476D01*
X125943905Y-80213095D01*
X124515333Y-79927381D02*
X124705810Y-79927381D01*
X124801048Y-79975000D01*
X124848667Y-80022619D01*
X124943905Y-80165476D01*
X124991524Y-80355952D01*
X124991524Y-80736905D01*
X124943905Y-80832143D01*
X124896286Y-80879762D01*
X124801048Y-80927381D01*
X124610571Y-80927381D01*
X124515333Y-80879762D01*
X124467714Y-80832143D01*
X124420095Y-80736905D01*
X124420095Y-80498810D01*
X124467714Y-80403571D01*
X124515333Y-80355952D01*
X124610571Y-80308333D01*
X124801048Y-80308333D01*
X124896286Y-80355952D01*
X124943905Y-80403571D01*
X124991524Y-80498810D01*
X126324857Y-79022381D02*
X126658191Y-78546190D01*
X126896286Y-79022381D02*
X126896286Y-78022381D01*
X126515333Y-78022381D01*
X126420095Y-78070000D01*
X126372476Y-78117619D01*
X126324857Y-78212857D01*
X126324857Y-78355714D01*
X126372476Y-78450952D01*
X126420095Y-78498571D01*
X126515333Y-78546190D01*
X126896286Y-78546190D01*
X125372476Y-79022381D02*
X125943905Y-79022381D01*
X125658191Y-79022381D02*
X125658191Y-78022381D01*
X125753429Y-78165238D01*
X125848667Y-78260476D01*
X125943905Y-78308095D01*
X125039143Y-78022381D02*
X124372476Y-78022381D01*
X124801048Y-79022381D01*
X133282381Y-73944143D02*
X132806190Y-73610809D01*
X133282381Y-73372714D02*
X132282381Y-73372714D01*
X132282381Y-73753667D01*
X132330000Y-73848905D01*
X132377619Y-73896524D01*
X132472857Y-73944143D01*
X132615714Y-73944143D01*
X132710952Y-73896524D01*
X132758571Y-73848905D01*
X132806190Y-73753667D01*
X132806190Y-73372714D01*
X133282381Y-74896524D02*
X133282381Y-74325095D01*
X133282381Y-74610809D02*
X132282381Y-74610809D01*
X132425238Y-74515571D01*
X132520476Y-74420333D01*
X132568095Y-74325095D01*
X132710952Y-75467952D02*
X132663333Y-75372714D01*
X132615714Y-75325095D01*
X132520476Y-75277476D01*
X132472857Y-75277476D01*
X132377619Y-75325095D01*
X132330000Y-75372714D01*
X132282381Y-75467952D01*
X132282381Y-75658429D01*
X132330000Y-75753667D01*
X132377619Y-75801286D01*
X132472857Y-75848905D01*
X132520476Y-75848905D01*
X132615714Y-75801286D01*
X132663333Y-75753667D01*
X132710952Y-75658429D01*
X132710952Y-75467952D01*
X132758571Y-75372714D01*
X132806190Y-75325095D01*
X132901429Y-75277476D01*
X133091905Y-75277476D01*
X133187143Y-75325095D01*
X133234762Y-75372714D01*
X133282381Y-75467952D01*
X133282381Y-75658429D01*
X133234762Y-75753667D01*
X133187143Y-75801286D01*
X133091905Y-75848905D01*
X132901429Y-75848905D01*
X132806190Y-75801286D01*
X132758571Y-75753667D01*
X132710952Y-75658429D01*
X135187381Y-73944143D02*
X134711190Y-73610809D01*
X135187381Y-73372714D02*
X134187381Y-73372714D01*
X134187381Y-73753667D01*
X134235000Y-73848905D01*
X134282619Y-73896524D01*
X134377857Y-73944143D01*
X134520714Y-73944143D01*
X134615952Y-73896524D01*
X134663571Y-73848905D01*
X134711190Y-73753667D01*
X134711190Y-73372714D01*
X135187381Y-74896524D02*
X135187381Y-74325095D01*
X135187381Y-74610809D02*
X134187381Y-74610809D01*
X134330238Y-74515571D01*
X134425476Y-74420333D01*
X134473095Y-74325095D01*
X135187381Y-75372714D02*
X135187381Y-75563190D01*
X135139762Y-75658429D01*
X135092143Y-75706048D01*
X134949286Y-75801286D01*
X134758810Y-75848905D01*
X134377857Y-75848905D01*
X134282619Y-75801286D01*
X134235000Y-75753667D01*
X134187381Y-75658429D01*
X134187381Y-75467952D01*
X134235000Y-75372714D01*
X134282619Y-75325095D01*
X134377857Y-75277476D01*
X134615952Y-75277476D01*
X134711190Y-75325095D01*
X134758810Y-75372714D01*
X134806429Y-75467952D01*
X134806429Y-75658429D01*
X134758810Y-75753667D01*
X134711190Y-75801286D01*
X134615952Y-75848905D01*
X137092381Y-73944143D02*
X136616190Y-73610809D01*
X137092381Y-73372714D02*
X136092381Y-73372714D01*
X136092381Y-73753667D01*
X136140000Y-73848905D01*
X136187619Y-73896524D01*
X136282857Y-73944143D01*
X136425714Y-73944143D01*
X136520952Y-73896524D01*
X136568571Y-73848905D01*
X136616190Y-73753667D01*
X136616190Y-73372714D01*
X136187619Y-74325095D02*
X136140000Y-74372714D01*
X136092381Y-74467952D01*
X136092381Y-74706048D01*
X136140000Y-74801286D01*
X136187619Y-74848905D01*
X136282857Y-74896524D01*
X136378095Y-74896524D01*
X136520952Y-74848905D01*
X137092381Y-74277476D01*
X137092381Y-74896524D01*
X136092381Y-75515571D02*
X136092381Y-75610810D01*
X136140000Y-75706048D01*
X136187619Y-75753667D01*
X136282857Y-75801286D01*
X136473333Y-75848905D01*
X136711429Y-75848905D01*
X136901905Y-75801286D01*
X136997143Y-75753667D01*
X137044762Y-75706048D01*
X137092381Y-75610810D01*
X137092381Y-75515571D01*
X137044762Y-75420333D01*
X136997143Y-75372714D01*
X136901905Y-75325095D01*
X136711429Y-75277476D01*
X136473333Y-75277476D01*
X136282857Y-75325095D01*
X136187619Y-75372714D01*
X136140000Y-75420333D01*
X136092381Y-75515571D01*
X138997381Y-73944143D02*
X138521190Y-73610809D01*
X138997381Y-73372714D02*
X137997381Y-73372714D01*
X137997381Y-73753667D01*
X138045000Y-73848905D01*
X138092619Y-73896524D01*
X138187857Y-73944143D01*
X138330714Y-73944143D01*
X138425952Y-73896524D01*
X138473571Y-73848905D01*
X138521190Y-73753667D01*
X138521190Y-73372714D01*
X138092619Y-74325095D02*
X138045000Y-74372714D01*
X137997381Y-74467952D01*
X137997381Y-74706048D01*
X138045000Y-74801286D01*
X138092619Y-74848905D01*
X138187857Y-74896524D01*
X138283095Y-74896524D01*
X138425952Y-74848905D01*
X138997381Y-74277476D01*
X138997381Y-74896524D01*
X138997381Y-75848905D02*
X138997381Y-75277476D01*
X138997381Y-75563190D02*
X137997381Y-75563190D01*
X138140238Y-75467952D01*
X138235476Y-75372714D01*
X138283095Y-75277476D01*
X114182381Y-85581905D02*
X114991905Y-85581905D01*
X115087143Y-85629524D01*
X115134762Y-85677143D01*
X115182381Y-85772381D01*
X115182381Y-85962858D01*
X115134762Y-86058096D01*
X115087143Y-86105715D01*
X114991905Y-86153334D01*
X114182381Y-86153334D01*
X115182381Y-87153334D02*
X115182381Y-86581905D01*
X115182381Y-86867619D02*
X114182381Y-86867619D01*
X114325238Y-86772381D01*
X114420476Y-86677143D01*
X114468095Y-86581905D01*
X114182381Y-87772381D02*
X114182381Y-87867620D01*
X114230000Y-87962858D01*
X114277619Y-88010477D01*
X114372857Y-88058096D01*
X114563333Y-88105715D01*
X114801429Y-88105715D01*
X114991905Y-88058096D01*
X115087143Y-88010477D01*
X115134762Y-87962858D01*
X115182381Y-87867620D01*
X115182381Y-87772381D01*
X115134762Y-87677143D01*
X115087143Y-87629524D01*
X114991905Y-87581905D01*
X114801429Y-87534286D01*
X114563333Y-87534286D01*
X114372857Y-87581905D01*
X114277619Y-87629524D01*
X114230000Y-87677143D01*
X114182381Y-87772381D01*
X162687857Y-101142143D02*
X162735476Y-101189762D01*
X162878333Y-101237381D01*
X162973571Y-101237381D01*
X163116429Y-101189762D01*
X163211667Y-101094524D01*
X163259286Y-100999286D01*
X163306905Y-100808810D01*
X163306905Y-100665952D01*
X163259286Y-100475476D01*
X163211667Y-100380238D01*
X163116429Y-100285000D01*
X162973571Y-100237381D01*
X162878333Y-100237381D01*
X162735476Y-100285000D01*
X162687857Y-100332619D01*
X161735476Y-101237381D02*
X162306905Y-101237381D01*
X162021191Y-101237381D02*
X162021191Y-100237381D01*
X162116429Y-100380238D01*
X162211667Y-100475476D01*
X162306905Y-100523095D01*
X161164048Y-100665952D02*
X161259286Y-100618333D01*
X161306905Y-100570714D01*
X161354524Y-100475476D01*
X161354524Y-100427857D01*
X161306905Y-100332619D01*
X161259286Y-100285000D01*
X161164048Y-100237381D01*
X160973571Y-100237381D01*
X160878333Y-100285000D01*
X160830714Y-100332619D01*
X160783095Y-100427857D01*
X160783095Y-100475476D01*
X160830714Y-100570714D01*
X160878333Y-100618333D01*
X160973571Y-100665952D01*
X161164048Y-100665952D01*
X161259286Y-100713571D01*
X161306905Y-100761190D01*
X161354524Y-100856429D01*
X161354524Y-101046905D01*
X161306905Y-101142143D01*
X161259286Y-101189762D01*
X161164048Y-101237381D01*
X160973571Y-101237381D01*
X160878333Y-101189762D01*
X160830714Y-101142143D01*
X160783095Y-101046905D01*
X160783095Y-100856429D01*
X160830714Y-100761190D01*
X160878333Y-100713571D01*
X160973571Y-100665952D01*
X145918095Y-68752381D02*
X145918095Y-69561905D01*
X145870476Y-69657143D01*
X145822857Y-69704762D01*
X145727619Y-69752381D01*
X145537142Y-69752381D01*
X145441904Y-69704762D01*
X145394285Y-69657143D01*
X145346666Y-69561905D01*
X145346666Y-68752381D01*
X144346666Y-69752381D02*
X144918095Y-69752381D01*
X144632381Y-69752381D02*
X144632381Y-68752381D01*
X144727619Y-68895238D01*
X144822857Y-68990476D01*
X144918095Y-69038095D01*
X143394285Y-69752381D02*
X143965714Y-69752381D01*
X143680000Y-69752381D02*
X143680000Y-68752381D01*
X143775238Y-68895238D01*
X143870476Y-68990476D01*
X143965714Y-69038095D01*
X166434286Y-98397381D02*
X166434286Y-97397381D01*
X166196191Y-97397381D01*
X166053333Y-97445000D01*
X165958095Y-97540238D01*
X165910476Y-97635476D01*
X165862857Y-97825952D01*
X165862857Y-97968810D01*
X165910476Y-98159286D01*
X165958095Y-98254524D01*
X166053333Y-98349762D01*
X166196191Y-98397381D01*
X166434286Y-98397381D01*
X164910476Y-98397381D02*
X165481905Y-98397381D01*
X165196191Y-98397381D02*
X165196191Y-97397381D01*
X165291429Y-97540238D01*
X165386667Y-97635476D01*
X165481905Y-97683095D01*
X164577143Y-97397381D02*
X163958095Y-97397381D01*
X164291429Y-97778333D01*
X164148571Y-97778333D01*
X164053333Y-97825952D01*
X164005714Y-97873571D01*
X163958095Y-97968810D01*
X163958095Y-98206905D01*
X164005714Y-98302143D01*
X164053333Y-98349762D01*
X164148571Y-98397381D01*
X164434286Y-98397381D01*
X164529524Y-98349762D01*
X164577143Y-98302143D01*
X176594286Y-78052381D02*
X176594286Y-77052381D01*
X176356191Y-77052381D01*
X176213333Y-77100000D01*
X176118095Y-77195238D01*
X176070476Y-77290476D01*
X176022857Y-77480952D01*
X176022857Y-77623810D01*
X176070476Y-77814286D01*
X176118095Y-77909524D01*
X176213333Y-78004762D01*
X176356191Y-78052381D01*
X176594286Y-78052381D01*
X175070476Y-78052381D02*
X175641905Y-78052381D01*
X175356191Y-78052381D02*
X175356191Y-77052381D01*
X175451429Y-77195238D01*
X175546667Y-77290476D01*
X175641905Y-77338095D01*
X174213333Y-77385714D02*
X174213333Y-78052381D01*
X174451429Y-77004762D02*
X174689524Y-77719048D01*
X174070476Y-77719048D01*
X106865381Y-114551095D02*
X107674905Y-114551095D01*
X107770143Y-114598714D01*
X107817762Y-114646333D01*
X107865381Y-114741571D01*
X107865381Y-114932048D01*
X107817762Y-115027286D01*
X107770143Y-115074905D01*
X107674905Y-115122524D01*
X106865381Y-115122524D01*
X106960619Y-115551095D02*
X106913000Y-115598714D01*
X106865381Y-115693952D01*
X106865381Y-115932048D01*
X106913000Y-116027286D01*
X106960619Y-116074905D01*
X107055857Y-116122524D01*
X107151095Y-116122524D01*
X107293952Y-116074905D01*
X107865381Y-115503476D01*
X107865381Y-116122524D01*
X123779667Y-95446333D02*
X123779667Y-95922524D01*
X124065381Y-95351095D02*
X123065381Y-95684428D01*
X124065381Y-96017762D01*
X124065381Y-96351095D02*
X123065381Y-96351095D01*
X123684429Y-96827285D02*
X123684429Y-97589190D01*
X123065381Y-97922523D02*
X123065381Y-98493952D01*
X124065381Y-98208237D02*
X123065381Y-98208237D01*
X124065381Y-98827285D02*
X123065381Y-98827285D01*
X124065381Y-99255857D02*
X123541571Y-99255857D01*
X123446333Y-99208238D01*
X123398714Y-99113000D01*
X123398714Y-98970142D01*
X123446333Y-98874904D01*
X123493952Y-98827285D01*
X124065381Y-99732047D02*
X123398714Y-99732047D01*
X123065381Y-99732047D02*
X123113000Y-99684428D01*
X123160619Y-99732047D01*
X123113000Y-99779666D01*
X123065381Y-99732047D01*
X123160619Y-99732047D01*
X123398714Y-100208237D02*
X124065381Y-100208237D01*
X123493952Y-100208237D02*
X123446333Y-100255856D01*
X123398714Y-100351094D01*
X123398714Y-100493952D01*
X123446333Y-100589190D01*
X123541571Y-100636809D01*
X124065381Y-100636809D01*
X124065381Y-101112999D02*
X123065381Y-101112999D01*
X123684429Y-101208237D02*
X124065381Y-101493952D01*
X123398714Y-101493952D02*
X123779667Y-101112999D01*
X124017762Y-102303476D02*
X124065381Y-102208238D01*
X124065381Y-102017761D01*
X124017762Y-101922523D01*
X123922524Y-101874904D01*
X123541571Y-101874904D01*
X123446333Y-101922523D01*
X123398714Y-102017761D01*
X123398714Y-102208238D01*
X123446333Y-102303476D01*
X123541571Y-102351095D01*
X123636810Y-102351095D01*
X123732048Y-101874904D01*
X124065381Y-102779666D02*
X123398714Y-102779666D01*
X123589190Y-102779666D02*
X123493952Y-102827285D01*
X123446333Y-102874904D01*
X123398714Y-102970142D01*
X123398714Y-103065381D01*
X123017762Y-104113000D02*
X124303476Y-103255857D01*
X123541571Y-104446333D02*
X123541571Y-104779667D01*
X124065381Y-104922524D02*
X124065381Y-104446333D01*
X123065381Y-104446333D01*
X123065381Y-104922524D01*
X124017762Y-105303476D02*
X124065381Y-105398714D01*
X124065381Y-105589190D01*
X124017762Y-105684429D01*
X123922524Y-105732048D01*
X123874905Y-105732048D01*
X123779667Y-105684429D01*
X123732048Y-105589190D01*
X123732048Y-105446333D01*
X123684429Y-105351095D01*
X123589190Y-105303476D01*
X123541571Y-105303476D01*
X123446333Y-105351095D01*
X123398714Y-105446333D01*
X123398714Y-105589190D01*
X123446333Y-105684429D01*
X123398714Y-106160619D02*
X124398714Y-106160619D01*
X123446333Y-106160619D02*
X123398714Y-106255857D01*
X123398714Y-106446334D01*
X123446333Y-106541572D01*
X123493952Y-106589191D01*
X123589190Y-106636810D01*
X123874905Y-106636810D01*
X123970143Y-106589191D01*
X124017762Y-106541572D01*
X124065381Y-106446334D01*
X124065381Y-106255857D01*
X124017762Y-106160619D01*
X124065381Y-107065381D02*
X123398714Y-107065381D01*
X123589190Y-107065381D02*
X123493952Y-107113000D01*
X123446333Y-107160619D01*
X123398714Y-107255857D01*
X123398714Y-107351096D01*
X124017762Y-108065382D02*
X124065381Y-107970144D01*
X124065381Y-107779667D01*
X124017762Y-107684429D01*
X123922524Y-107636810D01*
X123541571Y-107636810D01*
X123446333Y-107684429D01*
X123398714Y-107779667D01*
X123398714Y-107970144D01*
X123446333Y-108065382D01*
X123541571Y-108113001D01*
X123636810Y-108113001D01*
X123732048Y-107636810D01*
X124017762Y-108493953D02*
X124065381Y-108589191D01*
X124065381Y-108779667D01*
X124017762Y-108874906D01*
X123922524Y-108922525D01*
X123874905Y-108922525D01*
X123779667Y-108874906D01*
X123732048Y-108779667D01*
X123732048Y-108636810D01*
X123684429Y-108541572D01*
X123589190Y-108493953D01*
X123541571Y-108493953D01*
X123446333Y-108541572D01*
X123398714Y-108636810D01*
X123398714Y-108779667D01*
X123446333Y-108874906D01*
X124017762Y-109303477D02*
X124065381Y-109398715D01*
X124065381Y-109589191D01*
X124017762Y-109684430D01*
X123922524Y-109732049D01*
X123874905Y-109732049D01*
X123779667Y-109684430D01*
X123732048Y-109589191D01*
X123732048Y-109446334D01*
X123684429Y-109351096D01*
X123589190Y-109303477D01*
X123541571Y-109303477D01*
X123446333Y-109351096D01*
X123398714Y-109446334D01*
X123398714Y-109589191D01*
X123446333Y-109684430D01*
X124065381Y-110160620D02*
X123398714Y-110160620D01*
X123065381Y-110160620D02*
X123113000Y-110113001D01*
X123160619Y-110160620D01*
X123113000Y-110208239D01*
X123065381Y-110160620D01*
X123160619Y-110160620D01*
X123398714Y-110493953D02*
X123398714Y-110874905D01*
X124065381Y-110636810D02*
X123208238Y-110636810D01*
X123113000Y-110684429D01*
X123065381Y-110779667D01*
X123065381Y-110874905D01*
X122041571Y-95474905D02*
X122041571Y-95808239D01*
X122565381Y-95951096D02*
X122565381Y-95474905D01*
X121565381Y-95474905D01*
X121565381Y-95951096D01*
X122517762Y-96332048D02*
X122565381Y-96474905D01*
X122565381Y-96713001D01*
X122517762Y-96808239D01*
X122470143Y-96855858D01*
X122374905Y-96903477D01*
X122279667Y-96903477D01*
X122184429Y-96855858D01*
X122136810Y-96808239D01*
X122089190Y-96713001D01*
X122041571Y-96522524D01*
X121993952Y-96427286D01*
X121946333Y-96379667D01*
X121851095Y-96332048D01*
X121755857Y-96332048D01*
X121660619Y-96379667D01*
X121613000Y-96427286D01*
X121565381Y-96522524D01*
X121565381Y-96760620D01*
X121613000Y-96903477D01*
X122565381Y-97332048D02*
X121565381Y-97332048D01*
X121565381Y-97713001D01*
X121613000Y-97808239D01*
X121660619Y-97855858D01*
X121755857Y-97903477D01*
X121898714Y-97903477D01*
X121993952Y-97855858D01*
X122041571Y-97808239D01*
X122089190Y-97713001D01*
X122089190Y-97332048D01*
X122184429Y-98332048D02*
X122184429Y-99093953D01*
X121565381Y-99474905D02*
X121565381Y-100093953D01*
X121946333Y-99760619D01*
X121946333Y-99903477D01*
X121993952Y-99998715D01*
X122041571Y-100046334D01*
X122136810Y-100093953D01*
X122374905Y-100093953D01*
X122470143Y-100046334D01*
X122517762Y-99998715D01*
X122565381Y-99903477D01*
X122565381Y-99617762D01*
X122517762Y-99522524D01*
X122470143Y-99474905D01*
X121660619Y-100474905D02*
X121613000Y-100522524D01*
X121565381Y-100617762D01*
X121565381Y-100855858D01*
X121613000Y-100951096D01*
X121660619Y-100998715D01*
X121755857Y-101046334D01*
X121851095Y-101046334D01*
X121993952Y-100998715D01*
X122565381Y-100427286D01*
X122565381Y-101046334D01*
X122517762Y-101427286D02*
X122565381Y-101570143D01*
X122565381Y-101808239D01*
X122517762Y-101903477D01*
X122470143Y-101951096D01*
X122374905Y-101998715D01*
X122279667Y-101998715D01*
X122184429Y-101951096D01*
X122136810Y-101903477D01*
X122089190Y-101808239D01*
X122041571Y-101617762D01*
X121993952Y-101522524D01*
X121946333Y-101474905D01*
X121851095Y-101427286D01*
X121755857Y-101427286D01*
X121660619Y-101474905D01*
X121613000Y-101522524D01*
X121565381Y-101617762D01*
X121565381Y-101855858D01*
X121613000Y-101998715D01*
X169177381Y-69095714D02*
X168177381Y-69095714D01*
X168177381Y-69333809D01*
X168225000Y-69476667D01*
X168320238Y-69571905D01*
X168415476Y-69619524D01*
X168605952Y-69667143D01*
X168748810Y-69667143D01*
X168939286Y-69619524D01*
X169034524Y-69571905D01*
X169129762Y-69476667D01*
X169177381Y-69333809D01*
X169177381Y-69095714D01*
X169177381Y-70619524D02*
X169177381Y-70048095D01*
X169177381Y-70333809D02*
X168177381Y-70333809D01*
X168320238Y-70238571D01*
X168415476Y-70143333D01*
X168463095Y-70048095D01*
X168177381Y-71476667D02*
X168177381Y-71286190D01*
X168225000Y-71190952D01*
X168272619Y-71143333D01*
X168415476Y-71048095D01*
X168605952Y-71000476D01*
X168986905Y-71000476D01*
X169082143Y-71048095D01*
X169129762Y-71095714D01*
X169177381Y-71190952D01*
X169177381Y-71381429D01*
X169129762Y-71476667D01*
X169082143Y-71524286D01*
X168986905Y-71571905D01*
X168748810Y-71571905D01*
X168653571Y-71524286D01*
X168605952Y-71476667D01*
X168558333Y-71381429D01*
X168558333Y-71190952D01*
X168605952Y-71095714D01*
X168653571Y-71048095D01*
X168748810Y-71000476D01*
X166637381Y-69095714D02*
X165637381Y-69095714D01*
X165637381Y-69333809D01*
X165685000Y-69476667D01*
X165780238Y-69571905D01*
X165875476Y-69619524D01*
X166065952Y-69667143D01*
X166208810Y-69667143D01*
X166399286Y-69619524D01*
X166494524Y-69571905D01*
X166589762Y-69476667D01*
X166637381Y-69333809D01*
X166637381Y-69095714D01*
X166637381Y-70619524D02*
X166637381Y-70048095D01*
X166637381Y-70333809D02*
X165637381Y-70333809D01*
X165780238Y-70238571D01*
X165875476Y-70143333D01*
X165923095Y-70048095D01*
X165637381Y-70952857D02*
X165637381Y-71619524D01*
X166637381Y-71190952D01*
X164397381Y-70143334D02*
X163921190Y-69810000D01*
X164397381Y-69571905D02*
X163397381Y-69571905D01*
X163397381Y-69952858D01*
X163445000Y-70048096D01*
X163492619Y-70095715D01*
X163587857Y-70143334D01*
X163730714Y-70143334D01*
X163825952Y-70095715D01*
X163873571Y-70048096D01*
X163921190Y-69952858D01*
X163921190Y-69571905D01*
X163397381Y-70476667D02*
X163397381Y-71095715D01*
X163778333Y-70762381D01*
X163778333Y-70905239D01*
X163825952Y-71000477D01*
X163873571Y-71048096D01*
X163968810Y-71095715D01*
X164206905Y-71095715D01*
X164302143Y-71048096D01*
X164349762Y-71000477D01*
X164397381Y-70905239D01*
X164397381Y-70619524D01*
X164349762Y-70524286D01*
X164302143Y-70476667D01*
X142172381Y-64587143D02*
X141696190Y-64253809D01*
X142172381Y-64015714D02*
X141172381Y-64015714D01*
X141172381Y-64396667D01*
X141220000Y-64491905D01*
X141267619Y-64539524D01*
X141362857Y-64587143D01*
X141505714Y-64587143D01*
X141600952Y-64539524D01*
X141648571Y-64491905D01*
X141696190Y-64396667D01*
X141696190Y-64015714D01*
X141267619Y-64968095D02*
X141220000Y-65015714D01*
X141172381Y-65110952D01*
X141172381Y-65349048D01*
X141220000Y-65444286D01*
X141267619Y-65491905D01*
X141362857Y-65539524D01*
X141458095Y-65539524D01*
X141600952Y-65491905D01*
X142172381Y-64920476D01*
X142172381Y-65539524D01*
X141267619Y-65920476D02*
X141220000Y-65968095D01*
X141172381Y-66063333D01*
X141172381Y-66301429D01*
X141220000Y-66396667D01*
X141267619Y-66444286D01*
X141362857Y-66491905D01*
X141458095Y-66491905D01*
X141600952Y-66444286D01*
X142172381Y-65872857D01*
X142172381Y-66491905D01*
X133927381Y-63757143D02*
X133451190Y-63423809D01*
X133927381Y-63185714D02*
X132927381Y-63185714D01*
X132927381Y-63566667D01*
X132975000Y-63661905D01*
X133022619Y-63709524D01*
X133117857Y-63757143D01*
X133260714Y-63757143D01*
X133355952Y-63709524D01*
X133403571Y-63661905D01*
X133451190Y-63566667D01*
X133451190Y-63185714D01*
X133022619Y-64138095D02*
X132975000Y-64185714D01*
X132927381Y-64280952D01*
X132927381Y-64519048D01*
X132975000Y-64614286D01*
X133022619Y-64661905D01*
X133117857Y-64709524D01*
X133213095Y-64709524D01*
X133355952Y-64661905D01*
X133927381Y-64090476D01*
X133927381Y-64709524D01*
X132927381Y-65042857D02*
X132927381Y-65661905D01*
X133308333Y-65328571D01*
X133308333Y-65471429D01*
X133355952Y-65566667D01*
X133403571Y-65614286D01*
X133498810Y-65661905D01*
X133736905Y-65661905D01*
X133832143Y-65614286D01*
X133879762Y-65566667D01*
X133927381Y-65471429D01*
X133927381Y-65185714D01*
X133879762Y-65090476D01*
X133832143Y-65042857D01*
X152967381Y-67127143D02*
X152491190Y-66793809D01*
X152967381Y-66555714D02*
X151967381Y-66555714D01*
X151967381Y-66936667D01*
X152015000Y-67031905D01*
X152062619Y-67079524D01*
X152157857Y-67127143D01*
X152300714Y-67127143D01*
X152395952Y-67079524D01*
X152443571Y-67031905D01*
X152491190Y-66936667D01*
X152491190Y-66555714D01*
X152062619Y-67508095D02*
X152015000Y-67555714D01*
X151967381Y-67650952D01*
X151967381Y-67889048D01*
X152015000Y-67984286D01*
X152062619Y-68031905D01*
X152157857Y-68079524D01*
X152253095Y-68079524D01*
X152395952Y-68031905D01*
X152967381Y-67460476D01*
X152967381Y-68079524D01*
X152300714Y-68936667D02*
X152967381Y-68936667D01*
X151919762Y-68698571D02*
X152634048Y-68460476D01*
X152634048Y-69079524D01*
X149792381Y-73477143D02*
X149316190Y-73143809D01*
X149792381Y-72905714D02*
X148792381Y-72905714D01*
X148792381Y-73286667D01*
X148840000Y-73381905D01*
X148887619Y-73429524D01*
X148982857Y-73477143D01*
X149125714Y-73477143D01*
X149220952Y-73429524D01*
X149268571Y-73381905D01*
X149316190Y-73286667D01*
X149316190Y-72905714D01*
X148887619Y-73858095D02*
X148840000Y-73905714D01*
X148792381Y-74000952D01*
X148792381Y-74239048D01*
X148840000Y-74334286D01*
X148887619Y-74381905D01*
X148982857Y-74429524D01*
X149078095Y-74429524D01*
X149220952Y-74381905D01*
X149792381Y-73810476D01*
X149792381Y-74429524D01*
X148792381Y-75286667D02*
X148792381Y-75096190D01*
X148840000Y-75000952D01*
X148887619Y-74953333D01*
X149030476Y-74858095D01*
X149220952Y-74810476D01*
X149601905Y-74810476D01*
X149697143Y-74858095D01*
X149744762Y-74905714D01*
X149792381Y-75000952D01*
X149792381Y-75191429D01*
X149744762Y-75286667D01*
X149697143Y-75334286D01*
X149601905Y-75381905D01*
X149363810Y-75381905D01*
X149268571Y-75334286D01*
X149220952Y-75286667D01*
X149173333Y-75191429D01*
X149173333Y-75000952D01*
X149220952Y-74905714D01*
X149268571Y-74858095D01*
X149363810Y-74810476D01*
X134866905Y-102292381D02*
X134866905Y-103101905D01*
X134819286Y-103197143D01*
X134771667Y-103244762D01*
X134676429Y-103292381D01*
X134485952Y-103292381D01*
X134390714Y-103244762D01*
X134343095Y-103197143D01*
X134295476Y-103101905D01*
X134295476Y-102292381D01*
X133390714Y-102292381D02*
X133581191Y-102292381D01*
X133676429Y-102340000D01*
X133724048Y-102387619D01*
X133819286Y-102530476D01*
X133866905Y-102720952D01*
X133866905Y-103101905D01*
X133819286Y-103197143D01*
X133771667Y-103244762D01*
X133676429Y-103292381D01*
X133485952Y-103292381D01*
X133390714Y-103244762D01*
X133343095Y-103197143D01*
X133295476Y-103101905D01*
X133295476Y-102863810D01*
X133343095Y-102768571D01*
X133390714Y-102720952D01*
X133485952Y-102673333D01*
X133676429Y-102673333D01*
X133771667Y-102720952D01*
X133819286Y-102768571D01*
X133866905Y-102863810D01*
X118052381Y-79827143D02*
X117576190Y-79493809D01*
X118052381Y-79255714D02*
X117052381Y-79255714D01*
X117052381Y-79636667D01*
X117100000Y-79731905D01*
X117147619Y-79779524D01*
X117242857Y-79827143D01*
X117385714Y-79827143D01*
X117480952Y-79779524D01*
X117528571Y-79731905D01*
X117576190Y-79636667D01*
X117576190Y-79255714D01*
X118052381Y-80779524D02*
X118052381Y-80208095D01*
X118052381Y-80493809D02*
X117052381Y-80493809D01*
X117195238Y-80398571D01*
X117290476Y-80303333D01*
X117338095Y-80208095D01*
X118052381Y-81731905D02*
X118052381Y-81160476D01*
X118052381Y-81446190D02*
X117052381Y-81446190D01*
X117195238Y-81350952D01*
X117290476Y-81255714D01*
X117338095Y-81160476D01*
X116832381Y-87757143D02*
X116356190Y-87423809D01*
X116832381Y-87185714D02*
X115832381Y-87185714D01*
X115832381Y-87566667D01*
X115880000Y-87661905D01*
X115927619Y-87709524D01*
X116022857Y-87757143D01*
X116165714Y-87757143D01*
X116260952Y-87709524D01*
X116308571Y-87661905D01*
X116356190Y-87566667D01*
X116356190Y-87185714D01*
X116832381Y-88709524D02*
X116832381Y-88138095D01*
X116832381Y-88423809D02*
X115832381Y-88423809D01*
X115975238Y-88328571D01*
X116070476Y-88233333D01*
X116118095Y-88138095D01*
X115927619Y-89090476D02*
X115880000Y-89138095D01*
X115832381Y-89233333D01*
X115832381Y-89471429D01*
X115880000Y-89566667D01*
X115927619Y-89614286D01*
X116022857Y-89661905D01*
X116118095Y-89661905D01*
X116260952Y-89614286D01*
X116832381Y-89042857D01*
X116832381Y-89661905D01*
X132012381Y-98242143D02*
X131536190Y-97908809D01*
X132012381Y-97670714D02*
X131012381Y-97670714D01*
X131012381Y-98051667D01*
X131060000Y-98146905D01*
X131107619Y-98194524D01*
X131202857Y-98242143D01*
X131345714Y-98242143D01*
X131440952Y-98194524D01*
X131488571Y-98146905D01*
X131536190Y-98051667D01*
X131536190Y-97670714D01*
X131107619Y-98623095D02*
X131060000Y-98670714D01*
X131012381Y-98765952D01*
X131012381Y-99004048D01*
X131060000Y-99099286D01*
X131107619Y-99146905D01*
X131202857Y-99194524D01*
X131298095Y-99194524D01*
X131440952Y-99146905D01*
X132012381Y-98575476D01*
X132012381Y-99194524D01*
X131012381Y-99527857D02*
X131012381Y-100194524D01*
X132012381Y-99765952D01*
X116147381Y-79827143D02*
X115671190Y-79493809D01*
X116147381Y-79255714D02*
X115147381Y-79255714D01*
X115147381Y-79636667D01*
X115195000Y-79731905D01*
X115242619Y-79779524D01*
X115337857Y-79827143D01*
X115480714Y-79827143D01*
X115575952Y-79779524D01*
X115623571Y-79731905D01*
X115671190Y-79636667D01*
X115671190Y-79255714D01*
X115242619Y-80208095D02*
X115195000Y-80255714D01*
X115147381Y-80350952D01*
X115147381Y-80589048D01*
X115195000Y-80684286D01*
X115242619Y-80731905D01*
X115337857Y-80779524D01*
X115433095Y-80779524D01*
X115575952Y-80731905D01*
X116147381Y-80160476D01*
X116147381Y-80779524D01*
X115575952Y-81350952D02*
X115528333Y-81255714D01*
X115480714Y-81208095D01*
X115385476Y-81160476D01*
X115337857Y-81160476D01*
X115242619Y-81208095D01*
X115195000Y-81255714D01*
X115147381Y-81350952D01*
X115147381Y-81541429D01*
X115195000Y-81636667D01*
X115242619Y-81684286D01*
X115337857Y-81731905D01*
X115385476Y-81731905D01*
X115480714Y-81684286D01*
X115528333Y-81636667D01*
X115575952Y-81541429D01*
X115575952Y-81350952D01*
X115623571Y-81255714D01*
X115671190Y-81208095D01*
X115766429Y-81160476D01*
X115956905Y-81160476D01*
X116052143Y-81208095D01*
X116099762Y-81255714D01*
X116147381Y-81350952D01*
X116147381Y-81541429D01*
X116099762Y-81636667D01*
X116052143Y-81684286D01*
X115956905Y-81731905D01*
X115766429Y-81731905D01*
X115671190Y-81684286D01*
X115623571Y-81636667D01*
X115575952Y-81541429D01*
X120832381Y-86757143D02*
X120356190Y-86423809D01*
X120832381Y-86185714D02*
X119832381Y-86185714D01*
X119832381Y-86566667D01*
X119880000Y-86661905D01*
X119927619Y-86709524D01*
X120022857Y-86757143D01*
X120165714Y-86757143D01*
X120260952Y-86709524D01*
X120308571Y-86661905D01*
X120356190Y-86566667D01*
X120356190Y-86185714D01*
X119927619Y-87138095D02*
X119880000Y-87185714D01*
X119832381Y-87280952D01*
X119832381Y-87519048D01*
X119880000Y-87614286D01*
X119927619Y-87661905D01*
X120022857Y-87709524D01*
X120118095Y-87709524D01*
X120260952Y-87661905D01*
X120832381Y-87090476D01*
X120832381Y-87709524D01*
X120832381Y-88185714D02*
X120832381Y-88376190D01*
X120784762Y-88471429D01*
X120737143Y-88519048D01*
X120594286Y-88614286D01*
X120403810Y-88661905D01*
X120022857Y-88661905D01*
X119927619Y-88614286D01*
X119880000Y-88566667D01*
X119832381Y-88471429D01*
X119832381Y-88280952D01*
X119880000Y-88185714D01*
X119927619Y-88138095D01*
X120022857Y-88090476D01*
X120260952Y-88090476D01*
X120356190Y-88138095D01*
X120403810Y-88185714D01*
X120451429Y-88280952D01*
X120451429Y-88471429D01*
X120403810Y-88566667D01*
X120356190Y-88614286D01*
X120260952Y-88661905D01*
X114242381Y-79827143D02*
X113766190Y-79493809D01*
X114242381Y-79255714D02*
X113242381Y-79255714D01*
X113242381Y-79636667D01*
X113290000Y-79731905D01*
X113337619Y-79779524D01*
X113432857Y-79827143D01*
X113575714Y-79827143D01*
X113670952Y-79779524D01*
X113718571Y-79731905D01*
X113766190Y-79636667D01*
X113766190Y-79255714D01*
X113242381Y-80160476D02*
X113242381Y-80779524D01*
X113623333Y-80446190D01*
X113623333Y-80589048D01*
X113670952Y-80684286D01*
X113718571Y-80731905D01*
X113813810Y-80779524D01*
X114051905Y-80779524D01*
X114147143Y-80731905D01*
X114194762Y-80684286D01*
X114242381Y-80589048D01*
X114242381Y-80303333D01*
X114194762Y-80208095D01*
X114147143Y-80160476D01*
X113242381Y-81398571D02*
X113242381Y-81493810D01*
X113290000Y-81589048D01*
X113337619Y-81636667D01*
X113432857Y-81684286D01*
X113623333Y-81731905D01*
X113861429Y-81731905D01*
X114051905Y-81684286D01*
X114147143Y-81636667D01*
X114194762Y-81589048D01*
X114242381Y-81493810D01*
X114242381Y-81398571D01*
X114194762Y-81303333D01*
X114147143Y-81255714D01*
X114051905Y-81208095D01*
X113861429Y-81160476D01*
X113623333Y-81160476D01*
X113432857Y-81208095D01*
X113337619Y-81255714D01*
X113290000Y-81303333D01*
X113242381Y-81398571D01*
X144272857Y-96802381D02*
X144606191Y-96326190D01*
X144844286Y-96802381D02*
X144844286Y-95802381D01*
X144463333Y-95802381D01*
X144368095Y-95850000D01*
X144320476Y-95897619D01*
X144272857Y-95992857D01*
X144272857Y-96135714D01*
X144320476Y-96230952D01*
X144368095Y-96278571D01*
X144463333Y-96326190D01*
X144844286Y-96326190D01*
X143939524Y-95802381D02*
X143320476Y-95802381D01*
X143653810Y-96183333D01*
X143510952Y-96183333D01*
X143415714Y-96230952D01*
X143368095Y-96278571D01*
X143320476Y-96373810D01*
X143320476Y-96611905D01*
X143368095Y-96707143D01*
X143415714Y-96754762D01*
X143510952Y-96802381D01*
X143796667Y-96802381D01*
X143891905Y-96754762D01*
X143939524Y-96707143D01*
X142368095Y-96802381D02*
X142939524Y-96802381D01*
X142653810Y-96802381D02*
X142653810Y-95802381D01*
X142749048Y-95945238D01*
X142844286Y-96040476D01*
X142939524Y-96088095D01*
X137922857Y-96802381D02*
X138256191Y-96326190D01*
X138494286Y-96802381D02*
X138494286Y-95802381D01*
X138113333Y-95802381D01*
X138018095Y-95850000D01*
X137970476Y-95897619D01*
X137922857Y-95992857D01*
X137922857Y-96135714D01*
X137970476Y-96230952D01*
X138018095Y-96278571D01*
X138113333Y-96326190D01*
X138494286Y-96326190D01*
X137589524Y-95802381D02*
X136970476Y-95802381D01*
X137303810Y-96183333D01*
X137160952Y-96183333D01*
X137065714Y-96230952D01*
X137018095Y-96278571D01*
X136970476Y-96373810D01*
X136970476Y-96611905D01*
X137018095Y-96707143D01*
X137065714Y-96754762D01*
X137160952Y-96802381D01*
X137446667Y-96802381D01*
X137541905Y-96754762D01*
X137589524Y-96707143D01*
X136589524Y-95897619D02*
X136541905Y-95850000D01*
X136446667Y-95802381D01*
X136208571Y-95802381D01*
X136113333Y-95850000D01*
X136065714Y-95897619D01*
X136018095Y-95992857D01*
X136018095Y-96088095D01*
X136065714Y-96230952D01*
X136637143Y-96802381D01*
X136018095Y-96802381D01*
X133477857Y-100602381D02*
X133811191Y-100126190D01*
X134049286Y-100602381D02*
X134049286Y-99602381D01*
X133668333Y-99602381D01*
X133573095Y-99650000D01*
X133525476Y-99697619D01*
X133477857Y-99792857D01*
X133477857Y-99935714D01*
X133525476Y-100030952D01*
X133573095Y-100078571D01*
X133668333Y-100126190D01*
X134049286Y-100126190D01*
X133144524Y-99602381D02*
X132525476Y-99602381D01*
X132858810Y-99983333D01*
X132715952Y-99983333D01*
X132620714Y-100030952D01*
X132573095Y-100078571D01*
X132525476Y-100173810D01*
X132525476Y-100411905D01*
X132573095Y-100507143D01*
X132620714Y-100554762D01*
X132715952Y-100602381D01*
X133001667Y-100602381D01*
X133096905Y-100554762D01*
X133144524Y-100507143D01*
X132192143Y-99602381D02*
X131573095Y-99602381D01*
X131906429Y-99983333D01*
X131763571Y-99983333D01*
X131668333Y-100030952D01*
X131620714Y-100078571D01*
X131573095Y-100173810D01*
X131573095Y-100411905D01*
X131620714Y-100507143D01*
X131668333Y-100554762D01*
X131763571Y-100602381D01*
X132049286Y-100602381D01*
X132144524Y-100554762D01*
X132192143Y-100507143D01*
X103632857Y-106317381D02*
X103966191Y-105841190D01*
X104204286Y-106317381D02*
X104204286Y-105317381D01*
X103823333Y-105317381D01*
X103728095Y-105365000D01*
X103680476Y-105412619D01*
X103632857Y-105507857D01*
X103632857Y-105650714D01*
X103680476Y-105745952D01*
X103728095Y-105793571D01*
X103823333Y-105841190D01*
X104204286Y-105841190D01*
X103299524Y-105317381D02*
X102680476Y-105317381D01*
X103013810Y-105698333D01*
X102870952Y-105698333D01*
X102775714Y-105745952D01*
X102728095Y-105793571D01*
X102680476Y-105888810D01*
X102680476Y-106126905D01*
X102728095Y-106222143D01*
X102775714Y-106269762D01*
X102870952Y-106317381D01*
X103156667Y-106317381D01*
X103251905Y-106269762D01*
X103299524Y-106222143D01*
X101823333Y-105650714D02*
X101823333Y-106317381D01*
X102061429Y-105269762D02*
X102299524Y-105984048D01*
X101680476Y-105984048D01*
X179666191Y-97176190D02*
X179666191Y-97652381D01*
X179999524Y-96652381D02*
X179666191Y-97176190D01*
X179332857Y-96652381D01*
X179047143Y-96747619D02*
X178999524Y-96700000D01*
X178904286Y-96652381D01*
X178666190Y-96652381D01*
X178570952Y-96700000D01*
X178523333Y-96747619D01*
X178475714Y-96842857D01*
X178475714Y-96938095D01*
X178523333Y-97080952D01*
X179094762Y-97652381D01*
X178475714Y-97652381D01*
X128176190Y-66023809D02*
X128652381Y-66023809D01*
X127652381Y-65690476D02*
X128176190Y-66023809D01*
X127652381Y-66357143D01*
X128652381Y-67214286D02*
X128652381Y-66642857D01*
X128652381Y-66928571D02*
X127652381Y-66928571D01*
X127795238Y-66833333D01*
X127890476Y-66738095D01*
X127938095Y-66642857D01*
X103632857Y-104412381D02*
X103966191Y-103936190D01*
X104204286Y-104412381D02*
X104204286Y-103412381D01*
X103823333Y-103412381D01*
X103728095Y-103460000D01*
X103680476Y-103507619D01*
X103632857Y-103602857D01*
X103632857Y-103745714D01*
X103680476Y-103840952D01*
X103728095Y-103888571D01*
X103823333Y-103936190D01*
X104204286Y-103936190D01*
X103299524Y-103412381D02*
X102680476Y-103412381D01*
X103013810Y-103793333D01*
X102870952Y-103793333D01*
X102775714Y-103840952D01*
X102728095Y-103888571D01*
X102680476Y-103983810D01*
X102680476Y-104221905D01*
X102728095Y-104317143D01*
X102775714Y-104364762D01*
X102870952Y-104412381D01*
X103156667Y-104412381D01*
X103251905Y-104364762D01*
X103299524Y-104317143D01*
X101775714Y-103412381D02*
X102251905Y-103412381D01*
X102299524Y-103888571D01*
X102251905Y-103840952D01*
X102156667Y-103793333D01*
X101918571Y-103793333D01*
X101823333Y-103840952D01*
X101775714Y-103888571D01*
X101728095Y-103983810D01*
X101728095Y-104221905D01*
X101775714Y-104317143D01*
X101823333Y-104364762D01*
X101918571Y-104412381D01*
X102156667Y-104412381D01*
X102251905Y-104364762D01*
X102299524Y-104317143D01*
X145894286Y-102702381D02*
X145894286Y-101702381D01*
X145656191Y-101702381D01*
X145513333Y-101750000D01*
X145418095Y-101845238D01*
X145370476Y-101940476D01*
X145322857Y-102130952D01*
X145322857Y-102273810D01*
X145370476Y-102464286D01*
X145418095Y-102559524D01*
X145513333Y-102654762D01*
X145656191Y-102702381D01*
X145894286Y-102702381D01*
X144370476Y-102702381D02*
X144941905Y-102702381D01*
X144656191Y-102702381D02*
X144656191Y-101702381D01*
X144751429Y-101845238D01*
X144846667Y-101940476D01*
X144941905Y-101988095D01*
X143799048Y-102130952D02*
X143894286Y-102083333D01*
X143941905Y-102035714D01*
X143989524Y-101940476D01*
X143989524Y-101892857D01*
X143941905Y-101797619D01*
X143894286Y-101750000D01*
X143799048Y-101702381D01*
X143608571Y-101702381D01*
X143513333Y-101750000D01*
X143465714Y-101797619D01*
X143418095Y-101892857D01*
X143418095Y-101940476D01*
X143465714Y-102035714D01*
X143513333Y-102083333D01*
X143608571Y-102130952D01*
X143799048Y-102130952D01*
X143894286Y-102178571D01*
X143941905Y-102226190D01*
X143989524Y-102321429D01*
X143989524Y-102511905D01*
X143941905Y-102607143D01*
X143894286Y-102654762D01*
X143799048Y-102702381D01*
X143608571Y-102702381D01*
X143513333Y-102654762D01*
X143465714Y-102607143D01*
X143418095Y-102511905D01*
X143418095Y-102321429D01*
X143465714Y-102226190D01*
X143513333Y-102178571D01*
X143608571Y-102130952D01*
X141669286Y-109977381D02*
X141669286Y-108977381D01*
X141431191Y-108977381D01*
X141288333Y-109025000D01*
X141193095Y-109120238D01*
X141145476Y-109215476D01*
X141097857Y-109405952D01*
X141097857Y-109548810D01*
X141145476Y-109739286D01*
X141193095Y-109834524D01*
X141288333Y-109929762D01*
X141431191Y-109977381D01*
X141669286Y-109977381D01*
X140145476Y-109977381D02*
X140716905Y-109977381D01*
X140431191Y-109977381D02*
X140431191Y-108977381D01*
X140526429Y-109120238D01*
X140621667Y-109215476D01*
X140716905Y-109263095D01*
X139669286Y-109977381D02*
X139478810Y-109977381D01*
X139383571Y-109929762D01*
X139335952Y-109882143D01*
X139240714Y-109739286D01*
X139193095Y-109548810D01*
X139193095Y-109167857D01*
X139240714Y-109072619D01*
X139288333Y-109025000D01*
X139383571Y-108977381D01*
X139574048Y-108977381D01*
X139669286Y-109025000D01*
X139716905Y-109072619D01*
X139764524Y-109167857D01*
X139764524Y-109405952D01*
X139716905Y-109501190D01*
X139669286Y-109548810D01*
X139574048Y-109596429D01*
X139383571Y-109596429D01*
X139288333Y-109548810D01*
X139240714Y-109501190D01*
X139193095Y-109405952D01*
X141097857Y-106317381D02*
X141431191Y-105841190D01*
X141669286Y-106317381D02*
X141669286Y-105317381D01*
X141288333Y-105317381D01*
X141193095Y-105365000D01*
X141145476Y-105412619D01*
X141097857Y-105507857D01*
X141097857Y-105650714D01*
X141145476Y-105745952D01*
X141193095Y-105793571D01*
X141288333Y-105841190D01*
X141669286Y-105841190D01*
X140764524Y-105317381D02*
X140145476Y-105317381D01*
X140478810Y-105698333D01*
X140335952Y-105698333D01*
X140240714Y-105745952D01*
X140193095Y-105793571D01*
X140145476Y-105888810D01*
X140145476Y-106126905D01*
X140193095Y-106222143D01*
X140240714Y-106269762D01*
X140335952Y-106317381D01*
X140621667Y-106317381D01*
X140716905Y-106269762D01*
X140764524Y-106222143D01*
X139288333Y-105317381D02*
X139478810Y-105317381D01*
X139574048Y-105365000D01*
X139621667Y-105412619D01*
X139716905Y-105555476D01*
X139764524Y-105745952D01*
X139764524Y-106126905D01*
X139716905Y-106222143D01*
X139669286Y-106269762D01*
X139574048Y-106317381D01*
X139383571Y-106317381D01*
X139288333Y-106269762D01*
X139240714Y-106222143D01*
X139193095Y-106126905D01*
X139193095Y-105888810D01*
X139240714Y-105793571D01*
X139288333Y-105745952D01*
X139383571Y-105698333D01*
X139574048Y-105698333D01*
X139669286Y-105745952D01*
X139716905Y-105793571D01*
X139764524Y-105888810D01*
X141097857Y-112032381D02*
X141431191Y-111556190D01*
X141669286Y-112032381D02*
X141669286Y-111032381D01*
X141288333Y-111032381D01*
X141193095Y-111080000D01*
X141145476Y-111127619D01*
X141097857Y-111222857D01*
X141097857Y-111365714D01*
X141145476Y-111460952D01*
X141193095Y-111508571D01*
X141288333Y-111556190D01*
X141669286Y-111556190D01*
X140764524Y-111032381D02*
X140145476Y-111032381D01*
X140478810Y-111413333D01*
X140335952Y-111413333D01*
X140240714Y-111460952D01*
X140193095Y-111508571D01*
X140145476Y-111603810D01*
X140145476Y-111841905D01*
X140193095Y-111937143D01*
X140240714Y-111984762D01*
X140335952Y-112032381D01*
X140621667Y-112032381D01*
X140716905Y-111984762D01*
X140764524Y-111937143D01*
X139812143Y-111032381D02*
X139145476Y-111032381D01*
X139574048Y-112032381D01*
M02*
