M48
; DRILL file {KiCad 5.1.6+dfsg1-1} date Sun Aug 30 16:02:04 2020
; FORMAT={-:-/ absolute / inch / decimal}
; #@! TF.CreationDate,2020-08-30T16:02:04+02:00
; #@! TF.GenerationSoftware,Kicad,Pcbnew,5.1.6+dfsg1-1
; #@! TF.FileFunction,Plated,1,4,PTH
FMAT,2
INCH
T1C0.0079
T2C0.0098
T3C0.0100
T4C0.0118
T5C0.0138
T6C0.0157
T7C0.0197
T8C0.0236
T9C0.0394
T10C0.0400
T11C0.0512
T12C0.1260
%
G90
G05
T1
X3.9287Y-3.4199
X3.9372Y-3.1481
X3.9437Y-3.4499
X3.9528Y-3.0047
X3.9537Y-2.9149
X3.9537Y-3.0299
X3.9547Y-3.9781
X3.9547Y-4.0881
X4.0197Y-4.0881
X4.0647Y-3.4931
X4.1447Y-3.9781
X4.1457Y-3.6386
X4.1516Y-4.0598
X4.1594Y-4.111
X4.1614Y-3.052
X4.1691Y-4.0793
X4.1831Y-3.833
X4.187Y-4.1287
X4.1929Y-3.8591
X4.1929Y-3.8925
X4.1929Y-3.9378
X4.1978Y-3.9959
X4.2347Y-3.0281
X4.3114Y-2.8084
X4.3197Y-4.1031
X4.3268Y-3.7882
X4.3325Y-3.8097
X4.374Y-3.7252
X4.3858Y-2.8906
X4.3898Y-2.8039
X4.3937Y-2.6661
X4.4047Y-3.0581
X4.4049Y-3.2483
X4.4409Y-2.6661
X4.4488Y-2.8039
X4.4567Y-2.8945
X4.5197Y-2.9281
X4.5236Y-2.8197
X4.5372Y-3.8731
X4.5669Y-2.8039
X4.5775Y-3.3904
X4.5842Y-3.8731
X4.6047Y-3.0581
X4.6339Y-2.8157
X4.6773Y-3.8008
X4.7047Y-3.8512
X4.7247Y-2.6381
X4.7847Y-2.6281
X4.7851Y-3.7216
X4.7913Y-3.7567
X4.7965Y-3.5441
X4.8004Y-3.7368
X4.8058Y-3.5835
X4.8147Y-3.0181
X4.8189Y-3.7921
X4.836Y-3.8136
X4.8396Y-2.6194
X4.8465Y-4.1081
X4.8591Y-3.9211
X4.8597Y-2.9331
X4.8741Y-4.1719
X4.8819Y-3.9851
X4.8882Y-3.5652
X4.8899Y-4.2208
X4.8976Y-4.2961
X4.8991Y-3.5453
X4.8997Y-3.9381
X4.9048Y-3.4385
X4.9147Y-3.7381
X4.9147Y-3.7881
X4.9297Y-3.5631
X4.9697Y-2.5781
X5.0097Y-3.4217
X5.0197Y-3.2803
X5.0247Y-3.4732
X5.0271Y-3.3159
X5.0315Y-4.247
X5.0347Y-4.3181
X5.0354Y-4.0874
X5.0473Y-3.4766
X5.0547Y-3.1656
X5.0568Y-3.3001
X5.0601Y-4.0752
X5.0602Y-3.378
X5.067Y-3.3315
X5.0702Y-3.5443
X5.0722Y-3.1531
X5.0772Y-3.2631
X5.079Y-3.5246
X5.0797Y-3.4831
X5.0817Y-3.3792
X5.0901Y-3.6958
X5.0933Y-4.0843
X5.0947Y-3.3114
X5.0951Y-3.631
X5.0984Y-3.048
X5.0987Y-3.1656
X5.1063Y-3.0874
X5.1064Y-3.5422
X5.1072Y-3.2614
X5.1138Y-3.6734
X5.1139Y-3.6205
X5.1142Y-3.7173
X5.116Y-3.1514
X5.1181Y-3.0677
X5.1233Y-3.0454
X5.1273Y-3.6037
X5.1297Y-3.1881
X5.131Y-3.6555
X5.1313Y-3.3013
X5.1353Y-2.6488
X5.1363Y-3.762
X5.1378Y-3.0893
X5.1523Y-3.0734
X5.1535Y-3.922
X5.1535Y-4.0559
X5.1608Y-3.7624
X5.1685Y-3.1742
X5.1685Y-3.3937
X5.1685Y-3.7402
X5.1686Y-3.5198
X5.1687Y-3.0444
X5.1689Y-3.1087
X5.17Y-3.1419
X5.1922Y-4.3206
X5.1968Y-3.7994
X5.1999Y-3.5828
X5.2Y-3.2047
X5.2Y-3.2362
X5.2Y-3.2677
X5.2Y-3.2992
X5.2Y-3.3307
X5.2Y-3.3628
X5.2Y-3.3937
X5.2Y-3.4252
X5.2Y-3.5198
X5.2Y-3.6457
X5.2Y-3.6772
X5.2Y-3.7087
X5.2001Y-3.4883
X5.2033Y-4.1805
X5.2077Y-4.2985
X5.2078Y-4.1578
X5.209Y-3.045
X5.2118Y-3.0169
X5.2143Y-4.2719
X5.2159Y-4.1178
X5.2187Y-2.5299
X5.2237Y-2.6249
X5.2247Y-4.3181
X5.2315Y-3.2047
X5.2315Y-3.2362
X5.2315Y-3.2677
X5.2315Y-3.2992
X5.2315Y-3.3307
X5.2315Y-3.3622
X5.2315Y-3.4882
X5.2315Y-3.5197
X5.2315Y-3.5512
X5.2315Y-3.5827
X5.2315Y-3.6142
X5.2315Y-3.6457
X5.2315Y-3.6772
X5.2315Y-3.7087
X5.2317Y-3.425
X5.2328Y-4.2297
X5.2497Y-4.2781
X5.2628Y-3.425
X5.263Y-3.2047
X5.263Y-3.2362
X5.263Y-3.2677
X5.263Y-3.2992
X5.263Y-3.3307
X5.263Y-3.3622
X5.263Y-3.4567
X5.263Y-3.4882
X5.263Y-3.5512
X5.263Y-3.6142
X5.263Y-3.6457
X5.263Y-3.6772
X5.263Y-3.8031
X5.2709Y-3.7795
X5.2839Y-3.0545
X5.2847Y-4.2731
X5.2854Y-3.0809
X5.2856Y-4.1523
X5.2897Y-4.2031
X5.2921Y-4.2529
X5.2945Y-3.2047
X5.2945Y-3.2362
X5.2945Y-3.2992
X5.2945Y-3.5827
X5.2945Y-3.7087
X5.2945Y-3.7402
X5.2966Y-3.4571
X5.3147Y-3.0206
X5.3158Y-3.1112
X5.3187Y-2.5299
X5.3218Y-3.0719
X5.326Y-3.1732
X5.326Y-3.2047
X5.326Y-3.2362
X5.326Y-3.2677
X5.326Y-3.3307
X5.326Y-3.3622
X5.326Y-3.3937
X5.326Y-3.4252
X5.326Y-3.6457
X5.326Y-3.7087
X5.326Y-3.7402
X5.3277Y-3.518
X5.3372Y-3.0381
X5.3382Y-3.0857
X5.3408Y-4.3548
X5.3439Y-3.8448
X5.3563Y-3.0569
X5.3575Y-3.2047
X5.3575Y-3.2362
X5.3575Y-3.2677
X5.3575Y-3.3307
X5.3575Y-3.4567
X5.3575Y-3.6772
X5.3827Y-3.8448
X5.3836Y-2.9756
X5.3883Y-3.0428
X5.389Y-3.3307
X5.389Y-3.3937
X5.389Y-3.5197
X5.389Y-3.7402
X5.3896Y-3.0654
X5.4006Y-3.0167
X5.4126Y-2.9528
X5.4205Y-3.2047
X5.4205Y-3.3307
X5.4205Y-3.4882
X5.4205Y-3.5197
X5.4205Y-3.6772
X5.4205Y-3.7402
X5.4283Y-3.6063
X5.4297Y-3.8591
X5.4491Y-3.0532
X5.452Y-3.4882
X5.452Y-3.5197
X5.452Y-3.7402
X5.4618Y-3.0819
X5.4743Y-3.1069
X5.4803Y-2.6038
X5.4835Y-3.2047
X5.4835Y-3.3307
X5.4835Y-3.4882
X5.4835Y-3.5197
X5.4835Y-3.6142
X5.4835Y-3.6772
X5.4835Y-3.7402
X5.4897Y-3.7931
X5.4943Y-3.1269
X5.5109Y-2.9831
X5.5142Y-3.2685
X5.515Y-3.2047
X5.515Y-3.2362
X5.515Y-3.3307
X5.515Y-3.3937
X5.515Y-3.5197
X5.515Y-3.7402
X5.5372Y-2.9831
X5.5465Y-3.2047
X5.5465Y-3.2362
X5.5465Y-3.2677
X5.5465Y-3.3307
X5.5465Y-3.4567
X5.5465Y-3.5984
X5.5465Y-3.6457
X5.5465Y-3.6772
X5.5647Y-2.9831
X5.5693Y-3.0694
X5.5701Y-2.7087
X5.5764Y-3.5869
X5.578Y-3.2362
X5.578Y-3.2677
X5.578Y-3.3307
X5.578Y-3.3622
X5.578Y-3.3937
X5.578Y-3.4252
X5.578Y-3.5197
X5.6016Y-2.9213
X5.6087Y-3.2685
X5.6088Y-3.1115
X5.6094Y-3.2047
X5.6094Y-3.2362
X5.6094Y-3.2992
X5.6094Y-3.4567
X5.6094Y-3.7087
X5.6094Y-3.7402
X5.621Y-3.0881
X5.6215Y-3.0447
X5.6402Y-3.3315
X5.6409Y-3.2047
X5.6409Y-3.2362
X5.6409Y-3.2677
X5.6409Y-3.2992
X5.6409Y-3.3937
X5.6409Y-3.4252
X5.6409Y-3.4882
X5.6409Y-3.5512
X5.6409Y-3.5827
X5.6409Y-3.6142
X5.6409Y-3.6772
X5.6409Y-3.7087
X5.6409Y-3.7402
X5.6464Y-2.9124
X5.6555Y-2.5143
X5.6578Y-2.9849
X5.6724Y-3.7717
X5.6724Y-3.2047
X5.6724Y-3.2362
X5.6724Y-3.2677
X5.6724Y-3.2992
X5.6724Y-3.3307
X5.6724Y-3.3622
X5.6724Y-3.3937
X5.6724Y-3.4882
X5.6724Y-3.5197
X5.6724Y-3.5512
X5.6724Y-3.5827
X5.6724Y-3.6142
X5.6724Y-3.6457
X5.6724Y-3.6772
X5.6897Y-3.0756
X5.6943Y-3.1308
X5.7039Y-3.2047
X5.7039Y-3.2362
X5.7039Y-3.2677
X5.7039Y-3.2992
X5.7039Y-3.3307
X5.7039Y-3.3622
X5.7039Y-3.3937
X5.7039Y-3.4252
X5.7039Y-3.4882
X5.7039Y-3.5197
X5.7039Y-3.5512
X5.7039Y-3.5827
X5.7039Y-3.6142
X5.7039Y-3.6457
X5.7039Y-3.6772
X5.7039Y-3.7087
X5.7039Y-3.7402
X5.7172Y-3.0756
X5.7354Y-3.2047
X5.7354Y-3.3622
X5.7354Y-3.5827
X5.7354Y-3.7087
X5.7354Y-3.7402
X5.7512Y-2.7087
X5.752Y-3.1425
X5.7669Y-3.3622
X5.7703Y-2.8338
X5.7756Y-3.0061
X5.7822Y-2.9806
X5.7893Y-3.8294
X5.7993Y-3.1994
X5.8009Y-3.67
X5.8044Y-3.5525
X5.8103Y-2.8174
X5.8115Y-3.3572
X5.815Y-3.6917
X5.815Y-3.8039
X5.8233Y-3.4521
X5.8247Y-2.7031
X5.8251Y-3.7524
X5.8347Y-3.1631
X5.8405Y-3.6741
X5.8458Y-3.4497
X5.8472Y-3.2181
X5.8535Y-2.6614
X5.8647Y-3.2831
X5.8697Y-2.7031
X5.8697Y-3.7781
X5.8714Y-2.497
X5.8743Y-3.7544
X5.8847Y-3.1931
X5.8888Y-3.4289
X5.8889Y-4.0677
X5.8962Y-3.3037
X5.8968Y-3.7469
X5.9061Y-3.1958
X5.9097Y-3.2181
X5.9243Y-3.7469
X5.9268Y-3.7144
X5.9276Y-3.1956
X5.9524Y-3.7264
X5.9753Y-2.4988
X5.9887Y-4.1099
X6.0003Y-2.8413
X6.0038Y-3.1179
X6.0237Y-4.1099
X6.0287Y-3.9799
X6.0297Y-3.6581
X6.0647Y-2.6781
X6.0747Y-2.7231
X6.0797Y-4.0546
X6.0903Y-2.8538
X6.1397Y-3.1988
X6.1703Y-4.2638
X6.1853Y-2.4888
X6.2057Y-2.6569
X6.2203Y-2.8538
X6.2353Y-2.5238
X6.3886Y-2.6096
X6.3953Y-3.8295
X6.4445Y-2.8117
X6.4679Y-3.6199
X6.5277Y-3.8325
X6.5347Y-2.8003
X6.5466Y-3.7411
X6.5497Y-3.0531
X6.5497Y-3.1289
X6.5997Y-3.5731
X6.6147Y-3.1231
X6.6197Y-3.5881
X6.6199Y-3.8529
X6.6247Y-3.9198
X6.6497Y-2.9431
X6.6497Y-3.0304
X6.6739Y-2.7436
X6.6821Y-4.1631
X6.6997Y-2.6431
X6.7051Y-3.3638
X6.7097Y-4.2456
X6.7197Y-2.937
X6.7268Y-3.9794
X6.7297Y-2.6431
X6.7343Y-3.9544
X6.7343Y-4.0011
X6.7653Y-2.8003
X6.8103Y-2.9238
X6.8627Y-2.8003
X6.8653Y-3.3757
X6.8994Y-4.2231
X6.9097Y-4.1381
X6.9197Y-3.3181
X6.9397Y-4.1131
X6.9497Y-3.2081
X6.953Y-3.4845
X6.9605Y-2.8003
X6.9759Y-3.4946
X6.9798Y-3.8102
X7.0087Y-3.5299
X7.0787Y-3.2749
X7.0967Y-3.0473
X7.1041Y-2.728
X7.1047Y-2.9281
X7.1528Y-3.6693
X7.1603Y-4.3938
T2
X6.0647Y-3.2181
X6.2047Y-3.1081
X6.2472Y-3.1956
X6.3522Y-3.1931
X6.4372Y-3.1956
T3
X5.2559Y-4.0402
X6.2797Y-4.0581
X6.6897Y-4.0581
X6.7147Y-4.0581
T4
X4.2297Y-2.6581
X4.4843Y-2.6504
X4.8597Y-4.2902
X5.0512Y-3.926
X6.0003Y-3.6613
X6.0853Y-3.1173
X6.0864Y-3.7247
X6.1453Y-3.7238
X6.6622Y-3.1356
X7.1037Y-2.7799
X7.1321Y-4.1331
T5
X4.0347Y-3.8681
T6
X4.2197Y-3.5231
X4.3541Y-4.277
X4.3547Y-3.5231
X4.4407Y-4.0017
X4.5397Y-3.9931
X6.5947Y-2.7031
X6.7597Y-3.4431
X6.8122Y-3.0399
X6.8547Y-3.1331
X6.9447Y-3.4331
X7.0953Y-3.7288
T7
X3.9707Y-2.8179
X3.9722Y-3.7356
X4.0097Y-3.9681
X4.2116Y-2.5572
X4.5097Y-3.0431
X4.5597Y-4.2531
X4.6016Y-2.5513
X4.6457Y-2.6307
X4.6847Y-4.2281
X4.7903Y-4.1188
X4.8543Y-2.5047
X5.3191Y-2.6025
X5.8053Y-4.2138
X5.8373Y-3.1164
X5.8953Y-4.2838
X5.9747Y-3.9281
X6.2417Y-3.735
X6.2459Y-3.8833
X6.2703Y-2.8428
X6.2947Y-3.8831
X6.3346Y-3.7409
X6.4253Y-3.7388
X6.4813Y-3.7395
X6.4903Y-2.4938
X6.5603Y-3.7938
X6.8397Y-2.6981
X6.9203Y-2.4938
X6.9347Y-3.7231
X6.9944Y-3.2394
X7.0047Y-4.1281
X7.1147Y-3.6181
X7.1537Y-3.3699
T8
X6.8303Y-3.7281
T9
X4.0547Y-3.7681
X4.1547Y-3.7681
X5.1203Y-2.8238
X5.2203Y-2.8238
X5.3203Y-2.8238
T10
X3.7547Y-2.4681
X3.7547Y-2.5681
X3.7547Y-2.6681
X3.7547Y-2.7681
X3.7547Y-2.8681
X3.7547Y-2.9681
X3.7547Y-3.0681
X3.7547Y-3.1681
X3.7547Y-3.2681
X3.7547Y-3.3681
X3.7547Y-3.4681
X3.7547Y-3.5681
X3.7547Y-3.6681
X3.7547Y-3.7681
X3.7547Y-3.8681
X3.7547Y-3.9681
X3.7547Y-4.0681
X3.7547Y-4.1681
X3.7547Y-4.2681
X3.7547Y-4.3681
X3.8547Y-2.4681
X3.8547Y-2.5681
X3.8547Y-2.6681
X3.8547Y-2.7681
X3.8547Y-2.8681
X3.8547Y-2.9681
X3.8547Y-3.0681
X3.8547Y-3.1681
X3.8547Y-3.2681
X3.8547Y-3.3681
X3.8547Y-3.4681
X3.8547Y-3.5681
X3.8547Y-3.6681
X3.8547Y-3.7681
X3.8547Y-3.8681
X3.8547Y-3.9681
X3.8547Y-4.0681
X3.8547Y-4.1681
X3.8547Y-4.2681
X3.8547Y-4.3681
X5.4297Y-4.1181
X5.4297Y-4.2181
X5.4297Y-4.3181
X5.5297Y-4.1181
X5.5297Y-4.2181
X5.5297Y-4.3181
X5.1047Y-3.9681
X5.2047Y-3.9681
X5.3047Y-3.9681
X5.4047Y-3.9681
X5.5047Y-3.9681
X5.6047Y-3.9681
X5.7047Y-3.9681
X5.8047Y-3.9681
X7.2547Y-2.4681
X7.2547Y-2.5681
X7.2547Y-2.6681
X7.2547Y-2.7681
X7.2547Y-2.8681
X7.2547Y-2.9681
X7.2547Y-3.0681
X7.2547Y-3.1681
X7.2547Y-3.2681
X7.2547Y-3.3681
X7.2547Y-3.4681
X7.2547Y-3.5681
X7.2547Y-3.6681
X7.2547Y-3.7681
X7.2547Y-3.8681
X7.2547Y-3.9681
X7.2547Y-4.0681
X7.2547Y-4.1681
X7.2547Y-4.2681
X7.2547Y-4.3681
X7.3547Y-2.4681
X7.3547Y-2.5681
X7.3547Y-2.6681
X7.3547Y-2.7681
X7.3547Y-2.8681
X7.3547Y-2.9681
X7.3547Y-3.0681
X7.3547Y-3.1681
X7.3547Y-3.2681
X7.3547Y-3.3681
X7.3547Y-3.4681
X7.3547Y-3.5681
X7.3547Y-3.6681
X7.3547Y-3.7681
X7.3547Y-3.8681
X7.3547Y-3.9681
X7.3547Y-4.0681
X7.3547Y-4.1681
X7.3547Y-4.2681
X7.3547Y-4.3681
T11
X5.4113Y-2.5359
X5.4349Y-2.7288
X6.0057Y-2.7288
X6.0294Y-2.5359
T12
X7.0547Y-2.5681
X4.0547Y-2.5681
X4.0547Y-4.2681
X7.0547Y-4.2681
T0
M30
