G04 #@! TF.GenerationSoftware,KiCad,Pcbnew,5.0.0-rc2-dev-unknown+dfsg1+20180318-2*
G04 #@! TF.CreationDate,2018-04-18T14:44:27+02:00*
G04 #@! TF.ProjectId,ulx3s,756C7833732E6B696361645F70636200,rev?*
G04 #@! TF.SameCoordinates,Original*
G04 #@! TF.FileFunction,Paste,Bot*
G04 #@! TF.FilePolarity,Positive*
%FSLAX46Y46*%
G04 Gerber Fmt 4.6, Leading zero omitted, Abs format (unit mm)*
G04 Created by KiCad (PCBNEW 5.0.0-rc2-dev-unknown+dfsg1+20180318-2) date Wed Apr 18 14:44:27 2018*
%MOMM*%
%LPD*%
G01*
G04 APERTURE LIST*
%ADD10R,0.900000X1.200000*%
%ADD11R,1.800000X3.500000*%
%ADD12R,1.200000X0.900000*%
%ADD13R,2.000000X2.500000*%
%ADD14R,0.700000X1.200000*%
%ADD15R,1.250000X1.500000*%
%ADD16R,1.500000X1.250000*%
%ADD17R,0.800000X1.900000*%
%ADD18R,1.900000X0.800000*%
%ADD19R,1.200000X0.750000*%
%ADD20R,0.750000X1.200000*%
%ADD21R,1.000000X0.400000*%
%ADD22R,3.500000X1.800000*%
%ADD23R,3.500000X3.300000*%
%ADD24R,1.000000X1.000000*%
%ADD25R,0.600000X1.550000*%
%ADD26O,0.600000X1.550000*%
%ADD27R,1.550000X0.600000*%
%ADD28O,1.550000X0.600000*%
%ADD29O,2.500000X0.900000*%
%ADD30O,0.900000X2.500000*%
%ADD31R,6.000000X6.000000*%
%ADD32R,1.800000X1.400000*%
%ADD33R,1.200000X1.200000*%
%ADD34R,0.750000X0.800000*%
%ADD35R,0.800000X0.750000*%
%ADD36R,0.500000X0.900000*%
G04 APERTURE END LIST*
D10*
X169919000Y-68065000D03*
X169919000Y-65865000D03*
X103498000Y-99858000D03*
X103498000Y-97658000D03*
D11*
X155695000Y-69000000D03*
X155695000Y-64000000D03*
D12*
X157430000Y-72850000D03*
X155230000Y-72850000D03*
D13*
X160870000Y-88090000D03*
X156870000Y-88090000D03*
D14*
X159825000Y-90600000D03*
X160775000Y-90600000D03*
X161725000Y-90600000D03*
X161725000Y-93200000D03*
X159825000Y-93200000D03*
D13*
X102895000Y-88725000D03*
X106895000Y-88725000D03*
D14*
X104575000Y-86215000D03*
X103625000Y-86215000D03*
X102675000Y-86215000D03*
X102675000Y-83615000D03*
X104575000Y-83615000D03*
D13*
X158330000Y-74755000D03*
X154330000Y-74755000D03*
D14*
X157285000Y-77392000D03*
X158235000Y-77392000D03*
X159185000Y-77392000D03*
X159185000Y-79992000D03*
X157285000Y-79992000D03*
D15*
X101085000Y-83665000D03*
X101085000Y-86165000D03*
D16*
X153810000Y-90630000D03*
X156310000Y-90630000D03*
X153810000Y-92535000D03*
X156310000Y-92535000D03*
D15*
X163315000Y-93150000D03*
X163315000Y-90650000D03*
D16*
X151270000Y-79200000D03*
X153770000Y-79200000D03*
X151270000Y-77295000D03*
X153770000Y-77295000D03*
D15*
X160775000Y-79815000D03*
X160775000Y-77315000D03*
D16*
X110590000Y-84280000D03*
X108090000Y-84280000D03*
X110590000Y-86185000D03*
X108090000Y-86185000D03*
D15*
X173221000Y-86038000D03*
X173221000Y-83538000D03*
D17*
X176965000Y-85780000D03*
X175065000Y-85780000D03*
X176015000Y-82780000D03*
D18*
X172435000Y-75075000D03*
X172435000Y-76975000D03*
X169435000Y-76025000D03*
D19*
X153910000Y-96910000D03*
X155810000Y-96910000D03*
X151570000Y-82375000D03*
X153470000Y-82375000D03*
X110290000Y-81105000D03*
X108390000Y-81105000D03*
D20*
X175380000Y-75075000D03*
X175380000Y-76975000D03*
D12*
X169200000Y-82375000D03*
X171400000Y-82375000D03*
D10*
X172840000Y-80935000D03*
X172840000Y-78735000D03*
D12*
X177115000Y-80470000D03*
X174915000Y-80470000D03*
D10*
X174110000Y-74925000D03*
X174110000Y-77125000D03*
X178555000Y-83815000D03*
X178555000Y-86015000D03*
X113785000Y-83180000D03*
X113785000Y-85380000D03*
X170935000Y-80935000D03*
X170935000Y-78735000D03*
X128390000Y-108580000D03*
X128390000Y-110780000D03*
D12*
X153239000Y-103076000D03*
X151039000Y-103076000D03*
X177115000Y-78565000D03*
X174915000Y-78565000D03*
X153760000Y-95640000D03*
X155960000Y-95640000D03*
X110440000Y-82375000D03*
X108240000Y-82375000D03*
X151420000Y-81105000D03*
X153620000Y-81105000D03*
D10*
X158235000Y-90800000D03*
X158235000Y-93000000D03*
X106165000Y-86015000D03*
X106165000Y-83815000D03*
X155695000Y-77465000D03*
X155695000Y-79665000D03*
D12*
X126696000Y-85804000D03*
X124496000Y-85804000D03*
X126696000Y-84026000D03*
X124496000Y-84026000D03*
X126696000Y-82248000D03*
X124496000Y-82248000D03*
X126696000Y-80470000D03*
X124496000Y-80470000D03*
D10*
X130422000Y-75873000D03*
X130422000Y-73673000D03*
X132200000Y-75873000D03*
X132200000Y-73673000D03*
X133993000Y-75873000D03*
X133993000Y-73673000D03*
X135771000Y-75873000D03*
X135771000Y-73673000D03*
D20*
X150589600Y-64910000D03*
X150589600Y-63010000D03*
D10*
X162045000Y-71410000D03*
X162045000Y-69210000D03*
X139820000Y-66330000D03*
X139820000Y-64130000D03*
X139835000Y-68212000D03*
X139835000Y-70412000D03*
X150615000Y-68870000D03*
X150615000Y-66670000D03*
D12*
X150275000Y-72215000D03*
X148075000Y-72215000D03*
X150380000Y-70600000D03*
X148180000Y-70600000D03*
D21*
X135735000Y-104215000D03*
X135735000Y-104865000D03*
X135735000Y-105515000D03*
X135735000Y-106165000D03*
X135735000Y-106815000D03*
X135735000Y-107465000D03*
X135735000Y-108115000D03*
X135735000Y-108765000D03*
X135735000Y-109415000D03*
X135735000Y-110065000D03*
X129935000Y-110065000D03*
X129935000Y-109415000D03*
X129935000Y-108765000D03*
X129935000Y-108115000D03*
X129935000Y-107465000D03*
X129935000Y-106815000D03*
X129935000Y-106165000D03*
X129935000Y-105515000D03*
X129935000Y-104865000D03*
X129935000Y-104215000D03*
D10*
X119500000Y-79370000D03*
X119500000Y-81570000D03*
X114420000Y-89444000D03*
X114420000Y-87244000D03*
X129025000Y-97275000D03*
X129025000Y-95075000D03*
X117595000Y-79370000D03*
X117595000Y-81570000D03*
X112896000Y-89444000D03*
X112896000Y-87244000D03*
X115690000Y-79370000D03*
X115690000Y-81570000D03*
D12*
X144730000Y-98250000D03*
X142530000Y-98250000D03*
D10*
X132835000Y-98715000D03*
X132835000Y-96515000D03*
X130930000Y-98715000D03*
X130930000Y-96515000D03*
D12*
X101890000Y-103600000D03*
X104090000Y-103600000D03*
X104090000Y-102060000D03*
X101890000Y-102060000D03*
D15*
X167506000Y-88324000D03*
X167506000Y-85824000D03*
D12*
X164415000Y-96345000D03*
X162215000Y-96345000D03*
D15*
X138500000Y-90370000D03*
X138500000Y-92870000D03*
X138500000Y-82670000D03*
X138500000Y-80170000D03*
X138500000Y-85370000D03*
X138500000Y-87870000D03*
X101593000Y-97762000D03*
X101593000Y-100262000D03*
D10*
X113277000Y-74585000D03*
X113277000Y-72385000D03*
X111372000Y-74585000D03*
X111372000Y-72385000D03*
X171316000Y-68065000D03*
X171316000Y-65865000D03*
D15*
X105276000Y-100262000D03*
X105276000Y-97762000D03*
D22*
X109761000Y-69802000D03*
X114761000Y-69802000D03*
X167212000Y-73612000D03*
X162212000Y-73612000D03*
D11*
X160140000Y-64000000D03*
X160140000Y-69000000D03*
D16*
X154064000Y-98504000D03*
X156564000Y-98504000D03*
X107796000Y-91392000D03*
X105296000Y-91392000D03*
X151484000Y-74882000D03*
X148984000Y-74882000D03*
D10*
X134740000Y-96515000D03*
X134740000Y-98715000D03*
D23*
X172485000Y-105870000D03*
X156685000Y-105870000D03*
D24*
X168756000Y-68659000D03*
X166256000Y-68659000D03*
X172479000Y-68659000D03*
X174979000Y-68659000D03*
X169050000Y-84280000D03*
X171550000Y-84280000D03*
X169030000Y-81085000D03*
X169030000Y-78585000D03*
X171550000Y-85804000D03*
X169050000Y-85804000D03*
X179190000Y-77275000D03*
X179190000Y-74775000D03*
X177285000Y-74775000D03*
X177285000Y-77275000D03*
X172987000Y-72977000D03*
X175487000Y-72977000D03*
X164585000Y-69060000D03*
X164585000Y-71560000D03*
D10*
X128390000Y-106546000D03*
X128390000Y-104346000D03*
X117722000Y-74458000D03*
X117722000Y-72258000D03*
X119246000Y-74458000D03*
X119246000Y-72258000D03*
X120770000Y-74458000D03*
X120770000Y-72258000D03*
X122294000Y-74458000D03*
X122294000Y-72258000D03*
D12*
X145880000Y-69900000D03*
X143680000Y-69900000D03*
D25*
X175395000Y-96015000D03*
D26*
X174125000Y-96015000D03*
X172855000Y-96015000D03*
X171585000Y-96015000D03*
X171585000Y-90615000D03*
X172855000Y-90615000D03*
X174125000Y-90615000D03*
X175395000Y-90615000D03*
D27*
X141980000Y-67706500D03*
D28*
X141980000Y-66436500D03*
X141980000Y-65166500D03*
X141980000Y-63896500D03*
X147380000Y-63896500D03*
X147380000Y-65166500D03*
X147380000Y-66436500D03*
X147380000Y-67706500D03*
D25*
X116325000Y-84120000D03*
D26*
X117595000Y-84120000D03*
X118865000Y-84120000D03*
X120135000Y-84120000D03*
X120135000Y-89520000D03*
X118865000Y-89520000D03*
X117595000Y-89520000D03*
X116325000Y-89520000D03*
D29*
X126230000Y-111000000D03*
X126230000Y-109730000D03*
X126230000Y-108460000D03*
X126230000Y-107190000D03*
X126230000Y-105920000D03*
X126230000Y-104650000D03*
X126230000Y-103380000D03*
X126230000Y-102110000D03*
X126230000Y-100840000D03*
X126230000Y-99570000D03*
X126230000Y-98300000D03*
X126230000Y-97030000D03*
X126230000Y-95760000D03*
X126230000Y-94490000D03*
D30*
X122945000Y-93000000D03*
X121675000Y-93000000D03*
X120405000Y-93000000D03*
X119135000Y-93000000D03*
X117865000Y-93000000D03*
X116595000Y-93000000D03*
X115325000Y-93000000D03*
X114055000Y-93000000D03*
X112785000Y-93000000D03*
X111515000Y-93000000D03*
D29*
X108230000Y-94490000D03*
X108230000Y-95760000D03*
X108230000Y-97030000D03*
X108230000Y-98300000D03*
X108230000Y-99570000D03*
X108230000Y-100840000D03*
X108230000Y-102110000D03*
X108230000Y-103380000D03*
X108230000Y-104650000D03*
X108230000Y-105920000D03*
X108230000Y-107190000D03*
X108230000Y-108460000D03*
X108230000Y-109730000D03*
X108230000Y-111000000D03*
D31*
X116930000Y-103300000D03*
D32*
X178576000Y-98522000D03*
X172976000Y-98522000D03*
X172976000Y-101322000D03*
X178576000Y-101322000D03*
D33*
X179190000Y-78735000D03*
X179190000Y-80935000D03*
D34*
X140900000Y-86970000D03*
X140900000Y-85470000D03*
X136100000Y-86970000D03*
X136100000Y-85470000D03*
X136900000Y-91970000D03*
X136900000Y-90470000D03*
X140100000Y-91970000D03*
X140100000Y-90470000D03*
X142100000Y-91970000D03*
X142100000Y-90470000D03*
X134900000Y-91770000D03*
X134900000Y-90270000D03*
D35*
X136850000Y-88420000D03*
X135350000Y-88420000D03*
X140150000Y-88420000D03*
X141650000Y-88420000D03*
D19*
X163350000Y-82220000D03*
X165250000Y-82220000D03*
X158450000Y-82220000D03*
X156550000Y-82220000D03*
D20*
X177300000Y-93950000D03*
X177300000Y-95850000D03*
D36*
X166756000Y-67135000D03*
X168256000Y-67135000D03*
X174350000Y-67120000D03*
X172850000Y-67120000D03*
D24*
X162700000Y-67262000D03*
X165200000Y-67262000D03*
X165200000Y-65357000D03*
X162700000Y-65357000D03*
X177412000Y-72322000D03*
X177412000Y-69822000D03*
X179444000Y-69822000D03*
X179444000Y-72322000D03*
D36*
X166756000Y-65738000D03*
X168256000Y-65738000D03*
X172852000Y-65738000D03*
X174352000Y-65738000D03*
D10*
X152393000Y-96261000D03*
X152393000Y-98461000D03*
D12*
X109002000Y-88598000D03*
X111202000Y-88598000D03*
D10*
X149472000Y-77211000D03*
X149472000Y-79411000D03*
D16*
X145047000Y-103584000D03*
X147547000Y-103584000D03*
X133251000Y-68550000D03*
X135751000Y-68550000D03*
D35*
X103870000Y-70963000D03*
X102370000Y-70963000D03*
X103120000Y-91410000D03*
X101620000Y-91410000D03*
D34*
X180094000Y-85961000D03*
X180094000Y-87461000D03*
D35*
X178848000Y-103856000D03*
X180348000Y-103856000D03*
X158770000Y-96490000D03*
X160270000Y-96490000D03*
X133230000Y-86200000D03*
X134730000Y-86200000D03*
M02*
