G04 #@! TF.FileFunction,Soldermask,Top*
%FSLAX46Y46*%
G04 Gerber Fmt 4.6, Leading zero omitted, Abs format (unit mm)*
G04 Created by KiCad (PCBNEW 4.0.7+dfsg1-1) date Sun Nov 12 22:07:03 2017*
%MOMM*%
%LPD*%
G01*
G04 APERTURE LIST*
%ADD10C,0.100000*%
%ADD11R,1.827200X1.827200*%
%ADD12O,1.827200X1.827200*%
%ADD13R,0.600000X0.600000*%
%ADD14R,0.660000X1.000000*%
%ADD15C,5.600000*%
%ADD16R,2.300000X1.500000*%
%ADD17R,1.000000X1.300000*%
%ADD18R,2.200000X1.700000*%
%ADD19R,2.000000X2.000000*%
%ADD20R,0.500000X1.450000*%
%ADD21R,1.900000X2.000000*%
%ADD22O,0.950000X0.400000*%
%ADD23O,0.400000X0.950000*%
%ADD24R,1.775000X1.775000*%
%ADD25R,1.827200X2.132000*%
%ADD26O,1.827200X2.132000*%
%ADD27R,2.900000X2.300000*%
%ADD28R,2.900000X2.900000*%
%ADD29R,2.900000X2.100000*%
%ADD30C,1.800000*%
%ADD31O,1.400000X2.800000*%
%ADD32O,1.400000X2.400000*%
%ADD33R,0.350000X1.700000*%
%ADD34R,1.650000X1.400000*%
%ADD35R,1.220000X2.540000*%
%ADD36C,0.430000*%
%ADD37R,0.800000X1.600000*%
%ADD38R,1.550000X1.000000*%
%ADD39R,1.550000X2.100000*%
%ADD40R,1.300000X1.300000*%
G04 APERTURE END LIST*
D10*
D11*
X97910000Y-62690000D03*
D12*
X95370000Y-62690000D03*
X97910000Y-65230000D03*
X95370000Y-65230000D03*
X97910000Y-67770000D03*
X95370000Y-67770000D03*
X97910000Y-70310000D03*
X95370000Y-70310000D03*
X97910000Y-72850000D03*
X95370000Y-72850000D03*
X97910000Y-75390000D03*
X95370000Y-75390000D03*
X97910000Y-77930000D03*
X95370000Y-77930000D03*
X97910000Y-80470000D03*
X95370000Y-80470000D03*
X97910000Y-83010000D03*
X95370000Y-83010000D03*
X97910000Y-85550000D03*
X95370000Y-85550000D03*
X97910000Y-88090000D03*
X95370000Y-88090000D03*
X97910000Y-90630000D03*
X95370000Y-90630000D03*
X97910000Y-93170000D03*
X95370000Y-93170000D03*
X97910000Y-95710000D03*
X95370000Y-95710000D03*
X97910000Y-98250000D03*
X95370000Y-98250000D03*
X97910000Y-100790000D03*
X95370000Y-100790000D03*
X97910000Y-103330000D03*
X95370000Y-103330000D03*
X97910000Y-105870000D03*
X95370000Y-105870000D03*
X97910000Y-108410000D03*
X95370000Y-108410000D03*
X97910000Y-110950000D03*
X95370000Y-110950000D03*
D13*
X182675150Y-111637626D03*
D14*
X175480000Y-82270000D03*
X154680000Y-93330000D03*
X155480000Y-93330000D03*
X156280000Y-93330000D03*
X157080000Y-93330000D03*
X157880000Y-93330000D03*
X158680000Y-93330000D03*
X159480000Y-93330000D03*
X160280000Y-93330000D03*
X161080000Y-93330000D03*
X161880000Y-93330000D03*
X162680000Y-93330000D03*
X163480000Y-93330000D03*
X164280000Y-93330000D03*
X165080000Y-93330000D03*
X165880000Y-93330000D03*
X166680000Y-93330000D03*
X167480000Y-93330000D03*
X168280000Y-93330000D03*
X169080000Y-93330000D03*
X169880000Y-93330000D03*
X170680000Y-93330000D03*
X171480000Y-93330000D03*
X172280000Y-93330000D03*
X173080000Y-93330000D03*
X173880000Y-93330000D03*
X174680000Y-93330000D03*
X175480000Y-93330000D03*
X174680000Y-82270000D03*
X173880000Y-82270000D03*
X173080000Y-82270000D03*
X172280000Y-82270000D03*
X171480000Y-82270000D03*
X170680000Y-82270000D03*
X169880000Y-82270000D03*
X169080000Y-82270000D03*
X168280000Y-82270000D03*
X167480000Y-82270000D03*
X166680000Y-82270000D03*
X165880000Y-82270000D03*
X165080000Y-82270000D03*
X164280000Y-82270000D03*
X163480000Y-82270000D03*
X162680000Y-82270000D03*
X161880000Y-82270000D03*
X161080000Y-82270000D03*
X160280000Y-82270000D03*
X159480000Y-82270000D03*
X158680000Y-82270000D03*
X157880000Y-82270000D03*
X157080000Y-82270000D03*
X156280000Y-82270000D03*
X155480000Y-82270000D03*
X154680000Y-82270000D03*
D11*
X184270000Y-110950000D03*
D12*
X186810000Y-110950000D03*
X184270000Y-108410000D03*
X186810000Y-108410000D03*
X184270000Y-105870000D03*
X186810000Y-105870000D03*
X184270000Y-103330000D03*
X186810000Y-103330000D03*
X184270000Y-100790000D03*
X186810000Y-100790000D03*
X184270000Y-98250000D03*
X186810000Y-98250000D03*
X184270000Y-95710000D03*
X186810000Y-95710000D03*
X184270000Y-93170000D03*
X186810000Y-93170000D03*
X184270000Y-90630000D03*
X186810000Y-90630000D03*
X184270000Y-88090000D03*
X186810000Y-88090000D03*
X184270000Y-85550000D03*
X186810000Y-85550000D03*
X184270000Y-83010000D03*
X186810000Y-83010000D03*
X184270000Y-80470000D03*
X186810000Y-80470000D03*
X184270000Y-77930000D03*
X186810000Y-77930000D03*
X184270000Y-75390000D03*
X186810000Y-75390000D03*
X184270000Y-72850000D03*
X186810000Y-72850000D03*
X184270000Y-70310000D03*
X186810000Y-70310000D03*
X184270000Y-67770000D03*
X186810000Y-67770000D03*
X184270000Y-65230000D03*
X186810000Y-65230000D03*
X184270000Y-62690000D03*
X186810000Y-62690000D03*
D15*
X102990000Y-108410000D03*
X179190000Y-108410000D03*
X179190000Y-65230000D03*
X102990000Y-65230000D03*
D16*
X108274000Y-70330000D03*
X101974000Y-70330000D03*
X101974000Y-72830000D03*
X108274000Y-72830000D03*
D11*
X101720000Y-95456000D03*
D12*
X104260000Y-95456000D03*
D17*
X128390000Y-108580000D03*
X128390000Y-110780000D03*
X130930000Y-110780000D03*
X130930000Y-108580000D03*
D18*
X114980000Y-65875000D03*
X108780000Y-65875000D03*
D19*
X113080000Y-63325000D03*
X110680000Y-63325000D03*
D20*
X113180000Y-66000000D03*
X112530000Y-66000000D03*
X111880000Y-66000000D03*
X111230000Y-66000000D03*
X110580000Y-66000000D03*
D21*
X115680000Y-63325000D03*
X108080000Y-63325000D03*
D18*
X173400000Y-65875000D03*
X167200000Y-65875000D03*
D19*
X171500000Y-63325000D03*
X169100000Y-63325000D03*
D20*
X171600000Y-66000000D03*
X170950000Y-66000000D03*
X170300000Y-66000000D03*
X169650000Y-66000000D03*
X169000000Y-66000000D03*
D21*
X174100000Y-63325000D03*
X166500000Y-63325000D03*
D11*
X140455000Y-104600000D03*
D12*
X137915000Y-104600000D03*
X140455000Y-107140000D03*
X137915000Y-107140000D03*
X140455000Y-109680000D03*
X137915000Y-109680000D03*
D17*
X118230000Y-81570000D03*
X118230000Y-79370000D03*
X115690000Y-81570000D03*
X115690000Y-79370000D03*
X113150000Y-81570000D03*
X113150000Y-79370000D03*
X110610000Y-81570000D03*
X110610000Y-79370000D03*
X108070000Y-81570000D03*
X108070000Y-79370000D03*
X105530000Y-81570000D03*
X105530000Y-79370000D03*
X102990000Y-81570000D03*
X102990000Y-79370000D03*
X100450000Y-81570000D03*
X100450000Y-79370000D03*
D22*
X179735000Y-101655000D03*
X179735000Y-101155000D03*
X179735000Y-100655000D03*
X179735000Y-100155000D03*
X179735000Y-99655000D03*
X179735000Y-99155000D03*
X179735000Y-98655000D03*
D23*
X178785000Y-97705000D03*
X178285000Y-97705000D03*
X177785000Y-97705000D03*
X177285000Y-97705000D03*
X176785000Y-97705000D03*
X176285000Y-97705000D03*
X175785000Y-97705000D03*
D22*
X174835000Y-98655000D03*
X174835000Y-99155000D03*
X174835000Y-99655000D03*
X174835000Y-100155000D03*
X174835000Y-100655000D03*
X174835000Y-101155000D03*
X174835000Y-101655000D03*
D23*
X175785000Y-102605000D03*
X176285000Y-102605000D03*
X176785000Y-102605000D03*
X177285000Y-102605000D03*
X177785000Y-102605000D03*
X178285000Y-102605000D03*
X178785000Y-102605000D03*
D24*
X176447500Y-99317500D03*
X176447500Y-100992500D03*
X178122500Y-99317500D03*
X178122500Y-100992500D03*
D25*
X147440000Y-100790000D03*
D26*
X144900000Y-100790000D03*
X142360000Y-100790000D03*
X139820000Y-100790000D03*
X137280000Y-100790000D03*
X134740000Y-100790000D03*
X132200000Y-100790000D03*
D27*
X120880000Y-62640000D03*
X120880000Y-65440000D03*
D28*
X120880000Y-74840000D03*
X125330000Y-78940000D03*
D29*
X128280000Y-67340000D03*
X128280000Y-64540000D03*
D30*
X124580000Y-66540000D03*
X124580000Y-73540000D03*
D31*
X152280000Y-71550000D03*
X137680000Y-71550000D03*
D32*
X137680000Y-65500000D03*
D33*
X140480000Y-72500000D03*
X140980000Y-72500000D03*
X141480000Y-72500000D03*
X141980000Y-72500000D03*
X142480000Y-72500000D03*
X142980000Y-72500000D03*
X143480000Y-72500000D03*
X143980000Y-72500000D03*
X144480000Y-72500000D03*
X144980000Y-72500000D03*
X145480000Y-72500000D03*
X145980000Y-72500000D03*
X146480000Y-72500000D03*
X146980000Y-72500000D03*
X147480000Y-72500000D03*
X147980000Y-72500000D03*
X148480000Y-72500000D03*
X148980000Y-72500000D03*
X149480000Y-72500000D03*
D32*
X152280000Y-65500000D03*
D34*
X175550000Y-71870000D03*
X175550000Y-76370000D03*
X167590000Y-76370000D03*
X167590000Y-71870000D03*
X100280000Y-91610000D03*
X100280000Y-87110000D03*
X108240000Y-87110000D03*
X108240000Y-91610000D03*
X111710000Y-91610000D03*
X111710000Y-87110000D03*
X119670000Y-87110000D03*
X119670000Y-91610000D03*
X156160000Y-101770000D03*
X156160000Y-97270000D03*
X164120000Y-97270000D03*
X164120000Y-101770000D03*
X164120000Y-106160000D03*
X164120000Y-110660000D03*
X156160000Y-110660000D03*
X156160000Y-106160000D03*
X152690000Y-106160000D03*
X152690000Y-110660000D03*
X144730000Y-110660000D03*
X144730000Y-106160000D03*
X175550000Y-106160000D03*
X175550000Y-110660000D03*
X167590000Y-110660000D03*
X167590000Y-106160000D03*
D35*
X163950000Y-69815000D03*
X156330000Y-78425000D03*
X161410000Y-69815000D03*
X158870000Y-78425000D03*
X158870000Y-69815000D03*
X161410000Y-78425000D03*
X156330000Y-69815000D03*
X163950000Y-78425000D03*
D36*
X131680000Y-80200000D03*
X132480000Y-80200000D03*
X133280000Y-80200000D03*
X134080000Y-80200000D03*
X134880000Y-80200000D03*
X135680000Y-80200000D03*
X136480000Y-80200000D03*
X137280000Y-80200000D03*
X138080000Y-80200000D03*
X138880000Y-80200000D03*
X139680000Y-80200000D03*
X140480000Y-80200000D03*
X141280000Y-80200000D03*
X142080000Y-80200000D03*
X142880000Y-80200000D03*
X143680000Y-80200000D03*
X144480000Y-80200000D03*
X145280000Y-80200000D03*
X130880000Y-81000000D03*
X131680000Y-81000000D03*
X132480000Y-81000000D03*
X133280000Y-81000000D03*
X134080000Y-81000000D03*
X134880000Y-81000000D03*
X135680000Y-81000000D03*
X136480000Y-81000000D03*
X137280000Y-81000000D03*
X138080000Y-81000000D03*
X138880000Y-81000000D03*
X139680000Y-81000000D03*
X140480000Y-81000000D03*
X141280000Y-81000000D03*
X142080000Y-81000000D03*
X142880000Y-81000000D03*
X143680000Y-81000000D03*
X144480000Y-81000000D03*
X145280000Y-81000000D03*
X146080000Y-81000000D03*
X130880000Y-81800000D03*
X131680000Y-81800000D03*
X132480000Y-81800000D03*
X133280000Y-81800000D03*
X134080000Y-81800000D03*
X134880000Y-81800000D03*
X135680000Y-81800000D03*
X136480000Y-81800000D03*
X137280000Y-81800000D03*
X138080000Y-81800000D03*
X138880000Y-81800000D03*
X139680000Y-81800000D03*
X140480000Y-81800000D03*
X141280000Y-81800000D03*
X142080000Y-81800000D03*
X142880000Y-81800000D03*
X143680000Y-81800000D03*
X144480000Y-81800000D03*
X145280000Y-81800000D03*
X146080000Y-81800000D03*
X130880000Y-82600000D03*
X131680000Y-82600000D03*
X132480000Y-82600000D03*
X133280000Y-82600000D03*
X134080000Y-82600000D03*
X134880000Y-82600000D03*
X135680000Y-82600000D03*
X136480000Y-82600000D03*
X137280000Y-82600000D03*
X138080000Y-82600000D03*
X138880000Y-82600000D03*
X139680000Y-82600000D03*
X140480000Y-82600000D03*
X141280000Y-82600000D03*
X142080000Y-82600000D03*
X142880000Y-82600000D03*
X143680000Y-82600000D03*
X144480000Y-82600000D03*
X145280000Y-82600000D03*
X146080000Y-82600000D03*
X130880000Y-83400000D03*
X131680000Y-83400000D03*
X132480000Y-83400000D03*
X133280000Y-83400000D03*
X134080000Y-83400000D03*
X134880000Y-83400000D03*
X135680000Y-83400000D03*
X136480000Y-83400000D03*
X137280000Y-83400000D03*
X138080000Y-83400000D03*
X138880000Y-83400000D03*
X139680000Y-83400000D03*
X140480000Y-83400000D03*
X141280000Y-83400000D03*
X142080000Y-83400000D03*
X142880000Y-83400000D03*
X143680000Y-83400000D03*
X144480000Y-83400000D03*
X145280000Y-83400000D03*
X146080000Y-83400000D03*
X130880000Y-84200000D03*
X131680000Y-84200000D03*
X132480000Y-84200000D03*
X133280000Y-84200000D03*
X134080000Y-84200000D03*
X134880000Y-84200000D03*
X135680000Y-84200000D03*
X136480000Y-84200000D03*
X137280000Y-84200000D03*
X138080000Y-84200000D03*
X138880000Y-84200000D03*
X139680000Y-84200000D03*
X140480000Y-84200000D03*
X141280000Y-84200000D03*
X142080000Y-84200000D03*
X142880000Y-84200000D03*
X143680000Y-84200000D03*
X144480000Y-84200000D03*
X145280000Y-84200000D03*
X146080000Y-84200000D03*
X130880000Y-85000000D03*
X131680000Y-85000000D03*
X132480000Y-85000000D03*
X133280000Y-85000000D03*
X134080000Y-85000000D03*
X134880000Y-85000000D03*
X135680000Y-85000000D03*
X136480000Y-85000000D03*
X137280000Y-85000000D03*
X138080000Y-85000000D03*
X138880000Y-85000000D03*
X139680000Y-85000000D03*
X140480000Y-85000000D03*
X141280000Y-85000000D03*
X142080000Y-85000000D03*
X142880000Y-85000000D03*
X143680000Y-85000000D03*
X144480000Y-85000000D03*
X145280000Y-85000000D03*
X146080000Y-85000000D03*
X130880000Y-85800000D03*
X131680000Y-85800000D03*
X132480000Y-85800000D03*
X133280000Y-85800000D03*
X134080000Y-85800000D03*
X134880000Y-85800000D03*
X135680000Y-85800000D03*
X136480000Y-85800000D03*
X137280000Y-85800000D03*
X138080000Y-85800000D03*
X138880000Y-85800000D03*
X139680000Y-85800000D03*
X140480000Y-85800000D03*
X141280000Y-85800000D03*
X142080000Y-85800000D03*
X142880000Y-85800000D03*
X143680000Y-85800000D03*
X144480000Y-85800000D03*
X145280000Y-85800000D03*
X146080000Y-85800000D03*
X130880000Y-86600000D03*
X131680000Y-86600000D03*
X132480000Y-86600000D03*
X133280000Y-86600000D03*
X134080000Y-86600000D03*
X134880000Y-86600000D03*
X135680000Y-86600000D03*
X136480000Y-86600000D03*
X137280000Y-86600000D03*
X138080000Y-86600000D03*
X138880000Y-86600000D03*
X139680000Y-86600000D03*
X140480000Y-86600000D03*
X141280000Y-86600000D03*
X142080000Y-86600000D03*
X142880000Y-86600000D03*
X143680000Y-86600000D03*
X144480000Y-86600000D03*
X145280000Y-86600000D03*
X146080000Y-86600000D03*
X130880000Y-87400000D03*
X131680000Y-87400000D03*
X132480000Y-87400000D03*
X133280000Y-87400000D03*
X134080000Y-87400000D03*
X134880000Y-87400000D03*
X135680000Y-87400000D03*
X136480000Y-87400000D03*
X137280000Y-87400000D03*
X138080000Y-87400000D03*
X138880000Y-87400000D03*
X139680000Y-87400000D03*
X140480000Y-87400000D03*
X141280000Y-87400000D03*
X142080000Y-87400000D03*
X142880000Y-87400000D03*
X143680000Y-87400000D03*
X144480000Y-87400000D03*
X145280000Y-87400000D03*
X146080000Y-87400000D03*
X130880000Y-88200000D03*
X131680000Y-88200000D03*
X132480000Y-88200000D03*
X133280000Y-88200000D03*
X134080000Y-88200000D03*
X134880000Y-88200000D03*
X135680000Y-88200000D03*
X136480000Y-88200000D03*
X137280000Y-88200000D03*
X138080000Y-88200000D03*
X138880000Y-88200000D03*
X139680000Y-88200000D03*
X140480000Y-88200000D03*
X141280000Y-88200000D03*
X142080000Y-88200000D03*
X142880000Y-88200000D03*
X143680000Y-88200000D03*
X144480000Y-88200000D03*
X145280000Y-88200000D03*
X146080000Y-88200000D03*
X130880000Y-89000000D03*
X131680000Y-89000000D03*
X132480000Y-89000000D03*
X133280000Y-89000000D03*
X134080000Y-89000000D03*
X134880000Y-89000000D03*
X135680000Y-89000000D03*
X136480000Y-89000000D03*
X137280000Y-89000000D03*
X138080000Y-89000000D03*
X138880000Y-89000000D03*
X139680000Y-89000000D03*
X140480000Y-89000000D03*
X141280000Y-89000000D03*
X142080000Y-89000000D03*
X142880000Y-89000000D03*
X143680000Y-89000000D03*
X144480000Y-89000000D03*
X145280000Y-89000000D03*
X146080000Y-89000000D03*
X130880000Y-89800000D03*
X131680000Y-89800000D03*
X132480000Y-89800000D03*
X133280000Y-89800000D03*
X134080000Y-89800000D03*
X134880000Y-89800000D03*
X135680000Y-89800000D03*
X136480000Y-89800000D03*
X137280000Y-89800000D03*
X138080000Y-89800000D03*
X138880000Y-89800000D03*
X139680000Y-89800000D03*
X140480000Y-89800000D03*
X141280000Y-89800000D03*
X142080000Y-89800000D03*
X142880000Y-89800000D03*
X143680000Y-89800000D03*
X144480000Y-89800000D03*
X145280000Y-89800000D03*
X146080000Y-89800000D03*
X130880000Y-90600000D03*
X131680000Y-90600000D03*
X132480000Y-90600000D03*
X133280000Y-90600000D03*
X134080000Y-90600000D03*
X134880000Y-90600000D03*
X135680000Y-90600000D03*
X136480000Y-90600000D03*
X137280000Y-90600000D03*
X138080000Y-90600000D03*
X138880000Y-90600000D03*
X139680000Y-90600000D03*
X140480000Y-90600000D03*
X141280000Y-90600000D03*
X142080000Y-90600000D03*
X142880000Y-90600000D03*
X143680000Y-90600000D03*
X144480000Y-90600000D03*
X145280000Y-90600000D03*
X146080000Y-90600000D03*
X130880000Y-91400000D03*
X131680000Y-91400000D03*
X132480000Y-91400000D03*
X133280000Y-91400000D03*
X134080000Y-91400000D03*
X142880000Y-91400000D03*
X143680000Y-91400000D03*
X144480000Y-91400000D03*
X145280000Y-91400000D03*
X146080000Y-91400000D03*
X130880000Y-92200000D03*
X131680000Y-92200000D03*
X132480000Y-92200000D03*
X133280000Y-92200000D03*
X134080000Y-92200000D03*
X134880000Y-92200000D03*
X135680000Y-92200000D03*
X136480000Y-92200000D03*
X137280000Y-92200000D03*
X138080000Y-92200000D03*
X138880000Y-92200000D03*
X139680000Y-92200000D03*
X140480000Y-92200000D03*
X141280000Y-92200000D03*
X142080000Y-92200000D03*
X142880000Y-92200000D03*
X143680000Y-92200000D03*
X144480000Y-92200000D03*
X145280000Y-92200000D03*
X146080000Y-92200000D03*
X130880000Y-93000000D03*
X131680000Y-93000000D03*
X132480000Y-93000000D03*
X133280000Y-93000000D03*
X134080000Y-93000000D03*
X134880000Y-93000000D03*
X135680000Y-93000000D03*
X136480000Y-93000000D03*
X137280000Y-93000000D03*
X138080000Y-93000000D03*
X138880000Y-93000000D03*
X139680000Y-93000000D03*
X140480000Y-93000000D03*
X141280000Y-93000000D03*
X142080000Y-93000000D03*
X142880000Y-93000000D03*
X143680000Y-93000000D03*
X144480000Y-93000000D03*
X145280000Y-93000000D03*
X146080000Y-93000000D03*
X130880000Y-93800000D03*
X131680000Y-93800000D03*
X132480000Y-93800000D03*
X133280000Y-93800000D03*
X134080000Y-93800000D03*
X134880000Y-93800000D03*
X135680000Y-93800000D03*
X136480000Y-93800000D03*
X137280000Y-93800000D03*
X138080000Y-93800000D03*
X138880000Y-93800000D03*
X139680000Y-93800000D03*
X140480000Y-93800000D03*
X141280000Y-93800000D03*
X142080000Y-93800000D03*
X142880000Y-93800000D03*
X143680000Y-93800000D03*
X144480000Y-93800000D03*
X145280000Y-93800000D03*
X146080000Y-93800000D03*
X130880000Y-94600000D03*
X131680000Y-94600000D03*
X132480000Y-94600000D03*
X133280000Y-94600000D03*
X134080000Y-94600000D03*
X134880000Y-94600000D03*
X135680000Y-94600000D03*
X136480000Y-94600000D03*
X137280000Y-94600000D03*
X138080000Y-94600000D03*
X138880000Y-94600000D03*
X139680000Y-94600000D03*
X140480000Y-94600000D03*
X141280000Y-94600000D03*
X142080000Y-94600000D03*
X142880000Y-94600000D03*
X143680000Y-94600000D03*
X144480000Y-94600000D03*
X145280000Y-94600000D03*
X146080000Y-94600000D03*
X131680000Y-95400000D03*
X132480000Y-95400000D03*
X134080000Y-95400000D03*
X134880000Y-95400000D03*
X135680000Y-95400000D03*
X136480000Y-95400000D03*
X138880000Y-95400000D03*
X139680000Y-95400000D03*
X141280000Y-95400000D03*
X142080000Y-95400000D03*
X142880000Y-95400000D03*
X143680000Y-95400000D03*
X145280000Y-95400000D03*
D37*
X111855000Y-101765000D03*
X112955000Y-101765000D03*
X114055000Y-101765000D03*
X115155000Y-101765000D03*
X116255000Y-101765000D03*
X117355000Y-101765000D03*
X118455000Y-101765000D03*
X119555000Y-101765000D03*
D38*
X108180000Y-97465000D03*
X121930000Y-109115000D03*
D39*
X121930000Y-99165000D03*
X108180000Y-99165000D03*
X108180000Y-107465000D03*
X121930000Y-107465000D03*
D40*
X125977000Y-104770000D03*
X125977000Y-106970000D03*
D17*
X125977000Y-108580000D03*
X125977000Y-110780000D03*
D40*
X128390000Y-104770000D03*
X128390000Y-106970000D03*
X118230000Y-77760000D03*
X118230000Y-75560000D03*
X115690000Y-77760000D03*
X115690000Y-75560000D03*
X113150000Y-77760000D03*
X113150000Y-75560000D03*
X110610000Y-77760000D03*
X110610000Y-75560000D03*
X108070000Y-77760000D03*
X108070000Y-75560000D03*
X105530000Y-77760000D03*
X105530000Y-75560000D03*
X102990000Y-77760000D03*
X102990000Y-75560000D03*
X100450000Y-77760000D03*
X100450000Y-75560000D03*
X130930000Y-104770000D03*
X130930000Y-106970000D03*
M02*
