G04 #@! TF.FileFunction,Copper,L1,Top,Signal*
%FSLAX46Y46*%
G04 Gerber Fmt 4.6, Leading zero omitted, Abs format (unit mm)*
G04 Created by KiCad (PCBNEW 4.0.5+dfsg1-4) date Thu Jul  6 11:20:48 2017*
%MOMM*%
%LPD*%
G01*
G04 APERTURE LIST*
%ADD10C,0.100000*%
%ADD11R,1.270000X3.600000*%
%ADD12C,0.350000*%
%ADD13R,2.032000X1.524000*%
%ADD14R,0.700000X1.800000*%
%ADD15R,1.600000X1.400000*%
%ADD16R,1.800000X1.400000*%
%ADD17R,1.400000X1.900000*%
%ADD18R,1.800000X1.100000*%
%ADD19R,1.198880X1.198880*%
%ADD20R,2.800000X2.200000*%
%ADD21R,2.800000X2.800000*%
%ADD22R,2.800000X2.000000*%
%ADD23R,0.560000X0.900000*%
%ADD24O,1.300000X2.700000*%
%ADD25O,1.300000X2.300000*%
%ADD26R,0.250000X1.600000*%
%ADD27R,1.727200X1.727200*%
%ADD28O,1.727200X1.727200*%
%ADD29C,5.500000*%
%ADD30R,1.200000X0.900000*%
%ADD31R,1.727200X2.032000*%
%ADD32O,1.727200X2.032000*%
%ADD33R,0.900000X1.200000*%
%ADD34R,0.750000X1.200000*%
%ADD35O,0.850000X0.300000*%
%ADD36O,0.300000X0.850000*%
%ADD37R,1.675000X1.675000*%
%ADD38C,0.400000*%
%ADD39C,1.000000*%
%ADD40C,0.600000*%
%ADD41C,0.454000*%
%ADD42C,0.300000*%
%ADD43C,0.500000*%
%ADD44C,1.000000*%
%ADD45C,0.190000*%
%ADD46C,0.200000*%
G04 APERTURE END LIST*
D10*
D11*
X108070000Y-70970000D03*
X110610000Y-70970000D03*
X113150000Y-70970000D03*
X115690000Y-70970000D03*
X115690000Y-64570000D03*
X113150000Y-64570000D03*
X110610000Y-64570000D03*
X108070000Y-64570000D03*
D12*
X131680000Y-80200000D03*
X132480000Y-80200000D03*
X133280000Y-80200000D03*
X134080000Y-80200000D03*
X134880000Y-80200000D03*
X135680000Y-80200000D03*
X136480000Y-80200000D03*
X137280000Y-80200000D03*
X138080000Y-80200000D03*
X138880000Y-80200000D03*
X139680000Y-80200000D03*
X140480000Y-80200000D03*
X141280000Y-80200000D03*
X142080000Y-80200000D03*
X142880000Y-80200000D03*
X143680000Y-80200000D03*
X144480000Y-80200000D03*
X145280000Y-80200000D03*
X130880000Y-81000000D03*
X131680000Y-81000000D03*
X132480000Y-81000000D03*
X133280000Y-81000000D03*
X134080000Y-81000000D03*
X134880000Y-81000000D03*
X135680000Y-81000000D03*
X136480000Y-81000000D03*
X137280000Y-81000000D03*
X138080000Y-81000000D03*
X138880000Y-81000000D03*
X139680000Y-81000000D03*
X140480000Y-81000000D03*
X141280000Y-81000000D03*
X142080000Y-81000000D03*
X142880000Y-81000000D03*
X143680000Y-81000000D03*
X144480000Y-81000000D03*
X145280000Y-81000000D03*
X146080000Y-81000000D03*
X130880000Y-81800000D03*
X131680000Y-81800000D03*
X132480000Y-81800000D03*
X133280000Y-81800000D03*
X134080000Y-81800000D03*
X134880000Y-81800000D03*
X135680000Y-81800000D03*
X136480000Y-81800000D03*
X137280000Y-81800000D03*
X138080000Y-81800000D03*
X138880000Y-81800000D03*
X139680000Y-81800000D03*
X140480000Y-81800000D03*
X141280000Y-81800000D03*
X142080000Y-81800000D03*
X142880000Y-81800000D03*
X143680000Y-81800000D03*
X144480000Y-81800000D03*
X145280000Y-81800000D03*
X146080000Y-81800000D03*
X130880000Y-82600000D03*
X131680000Y-82600000D03*
X132480000Y-82600000D03*
X133280000Y-82600000D03*
X134080000Y-82600000D03*
X134880000Y-82600000D03*
X135680000Y-82600000D03*
X136480000Y-82600000D03*
X137280000Y-82600000D03*
X138080000Y-82600000D03*
X138880000Y-82600000D03*
X139680000Y-82600000D03*
X140480000Y-82600000D03*
X141280000Y-82600000D03*
X142080000Y-82600000D03*
X142880000Y-82600000D03*
X143680000Y-82600000D03*
X144480000Y-82600000D03*
X145280000Y-82600000D03*
X146080000Y-82600000D03*
X130880000Y-83400000D03*
X131680000Y-83400000D03*
X132480000Y-83400000D03*
X133280000Y-83400000D03*
X134080000Y-83400000D03*
X134880000Y-83400000D03*
X135680000Y-83400000D03*
X136480000Y-83400000D03*
X137280000Y-83400000D03*
X138080000Y-83400000D03*
X138880000Y-83400000D03*
X139680000Y-83400000D03*
X140480000Y-83400000D03*
X141280000Y-83400000D03*
X142080000Y-83400000D03*
X142880000Y-83400000D03*
X143680000Y-83400000D03*
X144480000Y-83400000D03*
X145280000Y-83400000D03*
X146080000Y-83400000D03*
X130880000Y-84200000D03*
X131680000Y-84200000D03*
X132480000Y-84200000D03*
X133280000Y-84200000D03*
X134080000Y-84200000D03*
X134880000Y-84200000D03*
X135680000Y-84200000D03*
X136480000Y-84200000D03*
X137280000Y-84200000D03*
X138080000Y-84200000D03*
X138880000Y-84200000D03*
X139680000Y-84200000D03*
X140480000Y-84200000D03*
X141280000Y-84200000D03*
X142080000Y-84200000D03*
X142880000Y-84200000D03*
X143680000Y-84200000D03*
X144480000Y-84200000D03*
X145280000Y-84200000D03*
X146080000Y-84200000D03*
X130880000Y-85000000D03*
X131680000Y-85000000D03*
X132480000Y-85000000D03*
X133280000Y-85000000D03*
X134080000Y-85000000D03*
X134880000Y-85000000D03*
X135680000Y-85000000D03*
X136480000Y-85000000D03*
X137280000Y-85000000D03*
X138080000Y-85000000D03*
X138880000Y-85000000D03*
X139680000Y-85000000D03*
X140480000Y-85000000D03*
X141280000Y-85000000D03*
X142080000Y-85000000D03*
X142880000Y-85000000D03*
X143680000Y-85000000D03*
X144480000Y-85000000D03*
X145280000Y-85000000D03*
X146080000Y-85000000D03*
X130880000Y-85800000D03*
X131680000Y-85800000D03*
X132480000Y-85800000D03*
X133280000Y-85800000D03*
X134080000Y-85800000D03*
X134880000Y-85800000D03*
X135680000Y-85800000D03*
X136480000Y-85800000D03*
X137280000Y-85800000D03*
X138080000Y-85800000D03*
X138880000Y-85800000D03*
X139680000Y-85800000D03*
X140480000Y-85800000D03*
X141280000Y-85800000D03*
X142080000Y-85800000D03*
X142880000Y-85800000D03*
X143680000Y-85800000D03*
X144480000Y-85800000D03*
X145280000Y-85800000D03*
X146080000Y-85800000D03*
X130880000Y-86600000D03*
X131680000Y-86600000D03*
X132480000Y-86600000D03*
X133280000Y-86600000D03*
X134080000Y-86600000D03*
X134880000Y-86600000D03*
X135680000Y-86600000D03*
X136480000Y-86600000D03*
X137280000Y-86600000D03*
X138080000Y-86600000D03*
X138880000Y-86600000D03*
X139680000Y-86600000D03*
X140480000Y-86600000D03*
X141280000Y-86600000D03*
X142080000Y-86600000D03*
X142880000Y-86600000D03*
X143680000Y-86600000D03*
X144480000Y-86600000D03*
X145280000Y-86600000D03*
X146080000Y-86600000D03*
X130880000Y-87400000D03*
X131680000Y-87400000D03*
X132480000Y-87400000D03*
X133280000Y-87400000D03*
X134080000Y-87400000D03*
X134880000Y-87400000D03*
X135680000Y-87400000D03*
X136480000Y-87400000D03*
X137280000Y-87400000D03*
X138080000Y-87400000D03*
X138880000Y-87400000D03*
X139680000Y-87400000D03*
X140480000Y-87400000D03*
X141280000Y-87400000D03*
X142080000Y-87400000D03*
X142880000Y-87400000D03*
X143680000Y-87400000D03*
X144480000Y-87400000D03*
X145280000Y-87400000D03*
X146080000Y-87400000D03*
X130880000Y-88200000D03*
X131680000Y-88200000D03*
X132480000Y-88200000D03*
X133280000Y-88200000D03*
X134080000Y-88200000D03*
X134880000Y-88200000D03*
X135680000Y-88200000D03*
X136480000Y-88200000D03*
X137280000Y-88200000D03*
X138080000Y-88200000D03*
X138880000Y-88200000D03*
X139680000Y-88200000D03*
X140480000Y-88200000D03*
X141280000Y-88200000D03*
X142080000Y-88200000D03*
X142880000Y-88200000D03*
X143680000Y-88200000D03*
X144480000Y-88200000D03*
X145280000Y-88200000D03*
X146080000Y-88200000D03*
X130880000Y-89000000D03*
X131680000Y-89000000D03*
X132480000Y-89000000D03*
X133280000Y-89000000D03*
X134080000Y-89000000D03*
X134880000Y-89000000D03*
X135680000Y-89000000D03*
X136480000Y-89000000D03*
X137280000Y-89000000D03*
X138080000Y-89000000D03*
X138880000Y-89000000D03*
X139680000Y-89000000D03*
X140480000Y-89000000D03*
X141280000Y-89000000D03*
X142080000Y-89000000D03*
X142880000Y-89000000D03*
X143680000Y-89000000D03*
X144480000Y-89000000D03*
X145280000Y-89000000D03*
X146080000Y-89000000D03*
X130880000Y-89800000D03*
X131680000Y-89800000D03*
X132480000Y-89800000D03*
X133280000Y-89800000D03*
X134080000Y-89800000D03*
X134880000Y-89800000D03*
X135680000Y-89800000D03*
X136480000Y-89800000D03*
X137280000Y-89800000D03*
X138080000Y-89800000D03*
X138880000Y-89800000D03*
X139680000Y-89800000D03*
X140480000Y-89800000D03*
X141280000Y-89800000D03*
X142080000Y-89800000D03*
X142880000Y-89800000D03*
X143680000Y-89800000D03*
X144480000Y-89800000D03*
X145280000Y-89800000D03*
X146080000Y-89800000D03*
X130880000Y-90600000D03*
X131680000Y-90600000D03*
X132480000Y-90600000D03*
X133280000Y-90600000D03*
X134080000Y-90600000D03*
X134880000Y-90600000D03*
X135680000Y-90600000D03*
X136480000Y-90600000D03*
X137280000Y-90600000D03*
X138080000Y-90600000D03*
X138880000Y-90600000D03*
X139680000Y-90600000D03*
X140480000Y-90600000D03*
X141280000Y-90600000D03*
X142080000Y-90600000D03*
X142880000Y-90600000D03*
X143680000Y-90600000D03*
X144480000Y-90600000D03*
X145280000Y-90600000D03*
X146080000Y-90600000D03*
X130880000Y-91400000D03*
X131680000Y-91400000D03*
X132480000Y-91400000D03*
X133280000Y-91400000D03*
X134080000Y-91400000D03*
X142880000Y-91400000D03*
X143680000Y-91400000D03*
X144480000Y-91400000D03*
X145280000Y-91400000D03*
X146080000Y-91400000D03*
X130880000Y-92200000D03*
X131680000Y-92200000D03*
X132480000Y-92200000D03*
X133280000Y-92200000D03*
X134080000Y-92200000D03*
X134880000Y-92200000D03*
X135680000Y-92200000D03*
X136480000Y-92200000D03*
X137280000Y-92200000D03*
X138080000Y-92200000D03*
X138880000Y-92200000D03*
X139680000Y-92200000D03*
X140480000Y-92200000D03*
X141280000Y-92200000D03*
X142080000Y-92200000D03*
X142880000Y-92200000D03*
X143680000Y-92200000D03*
X144480000Y-92200000D03*
X145280000Y-92200000D03*
X146080000Y-92200000D03*
X130880000Y-93000000D03*
X131680000Y-93000000D03*
X132480000Y-93000000D03*
X133280000Y-93000000D03*
X134080000Y-93000000D03*
X134880000Y-93000000D03*
X135680000Y-93000000D03*
X136480000Y-93000000D03*
X137280000Y-93000000D03*
X138080000Y-93000000D03*
X138880000Y-93000000D03*
X139680000Y-93000000D03*
X140480000Y-93000000D03*
X141280000Y-93000000D03*
X142080000Y-93000000D03*
X142880000Y-93000000D03*
X143680000Y-93000000D03*
X144480000Y-93000000D03*
X145280000Y-93000000D03*
X146080000Y-93000000D03*
X130880000Y-93800000D03*
X131680000Y-93800000D03*
X132480000Y-93800000D03*
X133280000Y-93800000D03*
X134080000Y-93800000D03*
X134880000Y-93800000D03*
X135680000Y-93800000D03*
X136480000Y-93800000D03*
X137280000Y-93800000D03*
X138080000Y-93800000D03*
X138880000Y-93800000D03*
X139680000Y-93800000D03*
X140480000Y-93800000D03*
X141280000Y-93800000D03*
X142080000Y-93800000D03*
X142880000Y-93800000D03*
X143680000Y-93800000D03*
X144480000Y-93800000D03*
X145280000Y-93800000D03*
X146080000Y-93800000D03*
X130880000Y-94600000D03*
X131680000Y-94600000D03*
X132480000Y-94600000D03*
X133280000Y-94600000D03*
X134080000Y-94600000D03*
X134880000Y-94600000D03*
X135680000Y-94600000D03*
X136480000Y-94600000D03*
X137280000Y-94600000D03*
X138080000Y-94600000D03*
X138880000Y-94600000D03*
X139680000Y-94600000D03*
X140480000Y-94600000D03*
X141280000Y-94600000D03*
X142080000Y-94600000D03*
X142880000Y-94600000D03*
X143680000Y-94600000D03*
X144480000Y-94600000D03*
X145280000Y-94600000D03*
X146080000Y-94600000D03*
X131680000Y-95400000D03*
X132480000Y-95400000D03*
X134080000Y-95400000D03*
X134880000Y-95400000D03*
X135680000Y-95400000D03*
X136480000Y-95400000D03*
X138880000Y-95400000D03*
X139680000Y-95400000D03*
X141280000Y-95400000D03*
X142080000Y-95400000D03*
X142880000Y-95400000D03*
X143680000Y-95400000D03*
X145280000Y-95400000D03*
D13*
X171570000Y-65992000D03*
X171570000Y-62690000D03*
D14*
X114930000Y-99520000D03*
X116030000Y-99520000D03*
X117130000Y-99520000D03*
X118230000Y-99520000D03*
X119330000Y-99520000D03*
X120430000Y-99520000D03*
X121530000Y-99520000D03*
X122630000Y-99520000D03*
D15*
X121920000Y-110120000D03*
D16*
X116120000Y-110120000D03*
D17*
X124320000Y-96970000D03*
X110270000Y-95970000D03*
D18*
X101160000Y-87510000D03*
X107360000Y-87510000D03*
X101160000Y-91210000D03*
X107360000Y-91210000D03*
X112590000Y-87510000D03*
X118790000Y-87510000D03*
X112590000Y-91210000D03*
X118790000Y-91210000D03*
X157040000Y-98940000D03*
X163240000Y-98940000D03*
X157040000Y-102640000D03*
X163240000Y-102640000D03*
X163240000Y-110260000D03*
X157040000Y-110260000D03*
X163240000Y-106560000D03*
X157040000Y-106560000D03*
X151810000Y-110260000D03*
X145610000Y-110260000D03*
X151810000Y-106560000D03*
X145610000Y-106560000D03*
X174670000Y-110260000D03*
X168470000Y-110260000D03*
X174670000Y-106560000D03*
X168470000Y-106560000D03*
D19*
X118230000Y-77709020D03*
X118230000Y-75610980D03*
X115690000Y-77709020D03*
X115690000Y-75610980D03*
X113150000Y-77709020D03*
X113150000Y-75610980D03*
X110610000Y-77709020D03*
X110610000Y-75610980D03*
X108070000Y-77709020D03*
X108070000Y-75610980D03*
X105530000Y-77709020D03*
X105530000Y-75610980D03*
X102990000Y-77709020D03*
X102990000Y-75610980D03*
X100450000Y-77709020D03*
X100450000Y-75610980D03*
D20*
X120880000Y-62640000D03*
X120880000Y-65440000D03*
D21*
X120880000Y-74840000D03*
X125330000Y-78940000D03*
D22*
X128280000Y-67340000D03*
X128280000Y-64540000D03*
D23*
X175480000Y-82270000D03*
X154680000Y-93330000D03*
X155480000Y-93330000D03*
X156280000Y-93330000D03*
X157080000Y-93330000D03*
X157880000Y-93330000D03*
X158680000Y-93330000D03*
X159480000Y-93330000D03*
X160280000Y-93330000D03*
X161080000Y-93330000D03*
X161880000Y-93330000D03*
X162680000Y-93330000D03*
X163480000Y-93330000D03*
X164280000Y-93330000D03*
X165080000Y-93330000D03*
X165880000Y-93330000D03*
X166680000Y-93330000D03*
X167480000Y-93330000D03*
X168280000Y-93330000D03*
X169080000Y-93330000D03*
X169880000Y-93330000D03*
X170680000Y-93330000D03*
X171480000Y-93330000D03*
X172280000Y-93330000D03*
X173080000Y-93330000D03*
X173880000Y-93330000D03*
X174680000Y-93330000D03*
X175480000Y-93330000D03*
X174680000Y-82270000D03*
X173880000Y-82270000D03*
X173080000Y-82270000D03*
X172280000Y-82270000D03*
X171480000Y-82270000D03*
X170680000Y-82270000D03*
X169880000Y-82270000D03*
X169080000Y-82270000D03*
X168280000Y-82270000D03*
X167480000Y-82270000D03*
X166680000Y-82270000D03*
X165880000Y-82270000D03*
X165080000Y-82270000D03*
X164280000Y-82270000D03*
X163480000Y-82270000D03*
X162680000Y-82270000D03*
X161880000Y-82270000D03*
X161080000Y-82270000D03*
X160280000Y-82270000D03*
X159480000Y-82270000D03*
X158680000Y-82270000D03*
X157880000Y-82270000D03*
X157080000Y-82270000D03*
X156280000Y-82270000D03*
X155480000Y-82270000D03*
X154680000Y-82270000D03*
D24*
X152280000Y-69650000D03*
X137680000Y-69650000D03*
D25*
X137680000Y-63600000D03*
D26*
X140480000Y-70600000D03*
X140980000Y-70600000D03*
X141480000Y-70600000D03*
X141980000Y-70600000D03*
X142480000Y-70600000D03*
X142980000Y-70600000D03*
X143480000Y-70600000D03*
X143980000Y-70600000D03*
X144480000Y-70600000D03*
X144980000Y-70600000D03*
X145480000Y-70600000D03*
X145980000Y-70600000D03*
X146480000Y-70600000D03*
X146980000Y-70600000D03*
X147480000Y-70600000D03*
X147980000Y-70600000D03*
X148480000Y-70600000D03*
X148980000Y-70600000D03*
X149480000Y-70600000D03*
D25*
X152280000Y-63600000D03*
D27*
X97910000Y-62690000D03*
D28*
X95370000Y-62690000D03*
X97910000Y-65230000D03*
X95370000Y-65230000D03*
X97910000Y-67770000D03*
X95370000Y-67770000D03*
X97910000Y-70310000D03*
X95370000Y-70310000D03*
X97910000Y-72850000D03*
X95370000Y-72850000D03*
X97910000Y-75390000D03*
X95370000Y-75390000D03*
X97910000Y-77930000D03*
X95370000Y-77930000D03*
X97910000Y-80470000D03*
X95370000Y-80470000D03*
X97910000Y-83010000D03*
X95370000Y-83010000D03*
X97910000Y-85550000D03*
X95370000Y-85550000D03*
X97910000Y-88090000D03*
X95370000Y-88090000D03*
X97910000Y-90630000D03*
X95370000Y-90630000D03*
X97910000Y-93170000D03*
X95370000Y-93170000D03*
X97910000Y-95710000D03*
X95370000Y-95710000D03*
X97910000Y-98250000D03*
X95370000Y-98250000D03*
X97910000Y-100790000D03*
X95370000Y-100790000D03*
X97910000Y-103330000D03*
X95370000Y-103330000D03*
X97910000Y-105870000D03*
X95370000Y-105870000D03*
X97910000Y-108410000D03*
X95370000Y-108410000D03*
X97910000Y-110950000D03*
X95370000Y-110950000D03*
D27*
X184270000Y-110950000D03*
D28*
X186810000Y-110950000D03*
X184270000Y-108410000D03*
X186810000Y-108410000D03*
X184270000Y-105870000D03*
X186810000Y-105870000D03*
X184270000Y-103330000D03*
X186810000Y-103330000D03*
X184270000Y-100790000D03*
X186810000Y-100790000D03*
X184270000Y-98250000D03*
X186810000Y-98250000D03*
X184270000Y-95710000D03*
X186810000Y-95710000D03*
X184270000Y-93170000D03*
X186810000Y-93170000D03*
X184270000Y-90630000D03*
X186810000Y-90630000D03*
X184270000Y-88090000D03*
X186810000Y-88090000D03*
X184270000Y-85550000D03*
X186810000Y-85550000D03*
X184270000Y-83010000D03*
X186810000Y-83010000D03*
X184270000Y-80470000D03*
X186810000Y-80470000D03*
X184270000Y-77930000D03*
X186810000Y-77930000D03*
X184270000Y-75390000D03*
X186810000Y-75390000D03*
X184270000Y-72850000D03*
X186810000Y-72850000D03*
X184270000Y-70310000D03*
X186810000Y-70310000D03*
X184270000Y-67770000D03*
X186810000Y-67770000D03*
X184270000Y-65230000D03*
X186810000Y-65230000D03*
X184270000Y-62690000D03*
X186810000Y-62690000D03*
D29*
X102990000Y-108410000D03*
X179190000Y-108410000D03*
X179190000Y-65230000D03*
X102990000Y-65230000D03*
D18*
X168320000Y-67080000D03*
X162120000Y-67080000D03*
X168320000Y-63380000D03*
X162120000Y-63380000D03*
D30*
X151080000Y-73485000D03*
X148880000Y-73485000D03*
D27*
X104260000Y-99520000D03*
D28*
X101720000Y-99520000D03*
D31*
X147440000Y-100790000D03*
D32*
X144900000Y-100790000D03*
X142360000Y-100790000D03*
X139820000Y-100790000D03*
X137280000Y-100790000D03*
X134740000Y-100790000D03*
X132200000Y-100790000D03*
D19*
X131184000Y-105074980D03*
X131184000Y-107173020D03*
X134232000Y-107173020D03*
X134232000Y-105074980D03*
D33*
X131184000Y-108580000D03*
X131184000Y-110780000D03*
X134232000Y-110780000D03*
X134232000Y-108580000D03*
D34*
X107480000Y-100750000D03*
X107480000Y-98850000D03*
D33*
X107480000Y-102700000D03*
X107480000Y-104900000D03*
D27*
X142360000Y-104600000D03*
D28*
X139820000Y-104600000D03*
X142360000Y-107140000D03*
X139820000Y-107140000D03*
X142360000Y-109680000D03*
X139820000Y-109680000D03*
D33*
X118230000Y-81570000D03*
X118230000Y-79370000D03*
X115690000Y-81570000D03*
X115690000Y-79370000D03*
X113150000Y-81570000D03*
X113150000Y-79370000D03*
X110610000Y-81570000D03*
X110610000Y-79370000D03*
X108070000Y-81570000D03*
X108070000Y-79370000D03*
X105530000Y-81570000D03*
X105530000Y-79370000D03*
X102990000Y-81570000D03*
X102990000Y-79370000D03*
X100450000Y-81570000D03*
X100450000Y-79370000D03*
D35*
X179735000Y-101655000D03*
X179735000Y-101155000D03*
X179735000Y-100655000D03*
X179735000Y-100155000D03*
X179735000Y-99655000D03*
X179735000Y-99155000D03*
X179735000Y-98655000D03*
D36*
X178785000Y-97705000D03*
X178285000Y-97705000D03*
X177785000Y-97705000D03*
X177285000Y-97705000D03*
X176785000Y-97705000D03*
X176285000Y-97705000D03*
X175785000Y-97705000D03*
D35*
X174835000Y-98655000D03*
X174835000Y-99155000D03*
X174835000Y-99655000D03*
X174835000Y-100155000D03*
X174835000Y-100655000D03*
X174835000Y-101155000D03*
X174835000Y-101655000D03*
D36*
X175785000Y-102605000D03*
X176285000Y-102605000D03*
X176785000Y-102605000D03*
X177285000Y-102605000D03*
X177785000Y-102605000D03*
X178285000Y-102605000D03*
X178785000Y-102605000D03*
D37*
X176447500Y-99317500D03*
X176447500Y-100992500D03*
X178122500Y-99317500D03*
X178122500Y-100992500D03*
D38*
X146526413Y-71377791D03*
X147987361Y-71377791D03*
X144102010Y-84600000D03*
X144995724Y-71208517D03*
X132880424Y-84561218D03*
X135567436Y-80702302D03*
X132810347Y-82177990D03*
X145713035Y-91022010D03*
X145680000Y-94177990D03*
X177285000Y-95710000D03*
D39*
X177229911Y-82281349D03*
D38*
X170046000Y-85804000D03*
D40*
X164741832Y-81130572D03*
D38*
X120770000Y-72215000D03*
X133216000Y-109934000D03*
D40*
X161067993Y-81216119D03*
D39*
X158233687Y-94852616D03*
X162992748Y-94820185D03*
D38*
X143485784Y-72030166D03*
X141993027Y-72056172D03*
D40*
X156280000Y-81210838D03*
D38*
X112935911Y-99344089D03*
X131254529Y-86251357D03*
D39*
X159480000Y-64600000D03*
D38*
X140880000Y-81400000D03*
X136085174Y-89394826D03*
X145680000Y-81400000D03*
X139080000Y-69600000D03*
X120430000Y-97050000D03*
X150080000Y-81600000D03*
X131280000Y-89400000D03*
X133690245Y-94180159D03*
D41*
X139312644Y-91359700D03*
D38*
X140874194Y-91433353D03*
X145680000Y-85422010D03*
X135280000Y-95000000D03*
X135280000Y-94200000D03*
X142480000Y-94200000D03*
X140880000Y-93400000D03*
X139280000Y-93400000D03*
X137680000Y-93400000D03*
X136080000Y-93400000D03*
X136880000Y-92600000D03*
X135280000Y-92600000D03*
X132880000Y-91800000D03*
X132880000Y-93400000D03*
D41*
X141042859Y-86994997D03*
X139280000Y-87000000D03*
X136110990Y-86995403D03*
X139280000Y-88600000D03*
X137680000Y-87000000D03*
X136080000Y-84600000D03*
D38*
X150457224Y-71377791D03*
D39*
X166233987Y-97964769D03*
D38*
X172289562Y-87124051D03*
D39*
X166251010Y-79388894D03*
X166251010Y-76826063D03*
D38*
X133157010Y-107839890D03*
D39*
X102731849Y-83486234D03*
D38*
X173680000Y-62600000D03*
D39*
X166280000Y-94800000D03*
D38*
X148639876Y-77154704D03*
D39*
X149751640Y-77454704D03*
D38*
X116654336Y-78777990D03*
X121902031Y-67532835D03*
X173620534Y-99657935D03*
X173902378Y-98625522D03*
X176285000Y-103330000D03*
D39*
X176474303Y-94069095D03*
D38*
X173094000Y-87582000D03*
X164387711Y-97506234D03*
D39*
X100479904Y-93063904D03*
D38*
X109315000Y-77930000D03*
D40*
X163422030Y-81120665D03*
X154726292Y-94171363D03*
X156077107Y-94380779D03*
D39*
X160908408Y-94850523D03*
D40*
X158680000Y-81210838D03*
D38*
X170935000Y-71580000D03*
X112515000Y-83010000D03*
X133880000Y-63400000D03*
X181065000Y-78785000D03*
X128441330Y-100795881D03*
X110529662Y-109760338D03*
X110280000Y-105000000D03*
X100080000Y-104200000D03*
X113080000Y-88800000D03*
X139820000Y-67770000D03*
D39*
X164653770Y-94825547D03*
D38*
X137665894Y-91402446D03*
X135273306Y-88618602D03*
X139272517Y-84611349D03*
X137680556Y-84534085D03*
X141680000Y-86200000D03*
X135280000Y-86200000D03*
X132880000Y-92600000D03*
X132080000Y-92600000D03*
X141680000Y-88600000D03*
X141680000Y-85400000D03*
D39*
X152621047Y-98519969D03*
D38*
X136885174Y-90194826D03*
X140094890Y-90122990D03*
X139280000Y-90122990D03*
X140880000Y-89400000D03*
X137680000Y-90172990D03*
X140880000Y-87800000D03*
X140880000Y-85400000D03*
D41*
X136080000Y-85400000D03*
D38*
X129842442Y-91487871D03*
X121408624Y-90632457D03*
X129838418Y-92539772D03*
X120880000Y-91000000D03*
D39*
X110617371Y-89287199D03*
D38*
X142480000Y-91000000D03*
X142480000Y-83800000D03*
X134480000Y-83800000D03*
X134480000Y-91000000D03*
X155480000Y-71804802D03*
X117749531Y-69139021D03*
X105462439Y-87482966D03*
X174110000Y-108410000D03*
X158870000Y-108410000D03*
X135884156Y-106696010D03*
X137288700Y-97538741D03*
X133680000Y-91800000D03*
D41*
X134074414Y-102752225D03*
D38*
X135085458Y-97531790D03*
X135855186Y-108022639D03*
D41*
X133449289Y-102232615D03*
D38*
X133680000Y-92600000D03*
X132752670Y-98178920D03*
X128610113Y-104714568D03*
X132918584Y-104800000D03*
X135853254Y-108792386D03*
X133685668Y-93402482D03*
X130914528Y-102469652D03*
X131039363Y-97487286D03*
X135471949Y-109365878D03*
X132846234Y-94197073D03*
X118858690Y-62658970D03*
X130927442Y-67119621D03*
D41*
X145851858Y-65189228D03*
D38*
X148991194Y-71377791D03*
D41*
X145873729Y-63920849D03*
D38*
X178665908Y-89713903D03*
X143650666Y-63862520D03*
X179375977Y-89317806D03*
X149303407Y-62527990D03*
X140035989Y-81400000D03*
X132077895Y-86272150D03*
X129095296Y-87048250D03*
X117121665Y-97817265D03*
X118843798Y-95498222D03*
D41*
X119978162Y-95412951D03*
X120634035Y-94977604D03*
D38*
X168319170Y-68882010D03*
X160775000Y-69040000D03*
X147480000Y-77822010D03*
X146387166Y-77918991D03*
X131453853Y-103296209D03*
X144891634Y-91008466D03*
D41*
X148653935Y-95249010D03*
D38*
X144867244Y-90164455D03*
D41*
X149619858Y-94378867D03*
X150895161Y-97104924D03*
D38*
X144890381Y-83866022D03*
D41*
X151426924Y-96584651D03*
D38*
X144894101Y-83022010D03*
D41*
X150518912Y-96497510D03*
D38*
X144901285Y-86268736D03*
D41*
X150197861Y-96013257D03*
D38*
X144888562Y-86993817D03*
D41*
X150072035Y-95446034D03*
D38*
X144877648Y-88622010D03*
X144810610Y-89177990D03*
D41*
X149779241Y-94944191D03*
D38*
X144895773Y-91874444D03*
D41*
X147777713Y-93691005D03*
X147399581Y-93209136D03*
D38*
X144102010Y-92600000D03*
D41*
X147990903Y-93150519D03*
D38*
X144882352Y-92577990D03*
X130807074Y-95454141D03*
X130124012Y-93413277D03*
X132080000Y-93400000D03*
X129279152Y-93216670D03*
X133919980Y-96038729D03*
X141280000Y-97600000D03*
X132572818Y-96383863D03*
X135770000Y-97338127D03*
X132080000Y-94200000D03*
X128701202Y-84307695D03*
X106080000Y-104000000D03*
X129334585Y-89482640D03*
X132080000Y-89444020D03*
X130839486Y-103354982D03*
X128602801Y-103872537D03*
X132656192Y-105976192D03*
X128490573Y-89279880D03*
X132880000Y-88600000D03*
X127816438Y-88312067D03*
X124253981Y-105982535D03*
X132080000Y-87000000D03*
X125827283Y-93452662D03*
X124202418Y-107207639D03*
D41*
X139225799Y-73337665D03*
X141029139Y-73391006D03*
X142492534Y-75655828D03*
X143525587Y-74622774D03*
D38*
X113785000Y-74120000D03*
X132150284Y-109889120D03*
X109340000Y-74120000D03*
X132748035Y-109420684D03*
X135567436Y-81489225D03*
X135767546Y-77648547D03*
X134702010Y-77200000D03*
X134471354Y-81347908D03*
X132761172Y-77202673D03*
X132737245Y-76676207D03*
X128545566Y-77476577D03*
X127643658Y-79355564D03*
X128515897Y-78994176D03*
X128569727Y-78469921D03*
X131230910Y-78113843D03*
X131709326Y-78745875D03*
X132783332Y-81399993D03*
X128988294Y-82862159D03*
X132084821Y-83022010D03*
X128914082Y-83440123D03*
X132886504Y-83777990D03*
X129500613Y-83866021D03*
X132117443Y-83866021D03*
X127987000Y-83903532D03*
X132079996Y-84503337D03*
X128121692Y-84749338D03*
X133671942Y-84595200D03*
X132875802Y-85428138D03*
X127940419Y-85244193D03*
D41*
X146862501Y-96617499D03*
X147534467Y-95913260D03*
D38*
X148102806Y-95339021D03*
X143280000Y-91000000D03*
X149207706Y-95605291D03*
X144082424Y-90132858D03*
X143989948Y-89177990D03*
X147125926Y-89802879D03*
X143281824Y-90201951D03*
X144102010Y-85397219D03*
X147422472Y-84858593D03*
X144886544Y-85385186D03*
X144102010Y-83000000D03*
X148975652Y-82755341D03*
X144885092Y-82177990D03*
X147470668Y-88324835D03*
X144082832Y-88584510D03*
X147997681Y-88324844D03*
X143278026Y-88595030D03*
X144102010Y-82185600D03*
X148935852Y-80899014D03*
X148337768Y-80975785D03*
X144866392Y-81333979D03*
X139280000Y-81400000D03*
X139145358Y-78809170D03*
X139040624Y-78036724D03*
X138723613Y-77165705D03*
X138663568Y-75840437D03*
X138716105Y-76425854D03*
X137680000Y-81400000D03*
X137498321Y-76510532D03*
X137116016Y-76974740D03*
X136928568Y-77562978D03*
X136634118Y-78451672D03*
X136411444Y-81497309D03*
X135971329Y-76094515D03*
X148668800Y-84550385D03*
X144877691Y-84532933D03*
X144102010Y-83800000D03*
X147894174Y-83335809D03*
X142851623Y-78759750D03*
X142473549Y-82998913D03*
X143105106Y-78295223D03*
X142396423Y-82191394D03*
X145494012Y-76055333D03*
X144146021Y-81374784D03*
X143331797Y-77819457D03*
X146477975Y-75672010D03*
X143257990Y-82207154D03*
X143257990Y-81379632D03*
X145295462Y-73599855D03*
X141384492Y-78199263D03*
X141657990Y-82130345D03*
X142413979Y-81382236D03*
X140080000Y-82200000D03*
X141406987Y-76554996D03*
X141046643Y-74873804D03*
X140864029Y-83041403D03*
X141304511Y-75418570D03*
X140924011Y-82179283D03*
X132880000Y-83022010D03*
X129599528Y-86644074D03*
X132080000Y-82177990D03*
X132080000Y-81400000D03*
X131847310Y-79589886D03*
X130856828Y-77742623D03*
X131923295Y-77584853D03*
X133654358Y-82177990D03*
X133627343Y-81396408D03*
X129306502Y-91735782D03*
X132880000Y-91000000D03*
X128743234Y-91729555D03*
X132077648Y-90977990D03*
X130173445Y-80398223D03*
X131180000Y-80500000D03*
X132079620Y-85428138D03*
X128652115Y-85328782D03*
X163632576Y-71913912D03*
X133922194Y-77854836D03*
X134501414Y-82177578D03*
X135680000Y-110200000D03*
X146844288Y-103452739D03*
X132540000Y-105400000D03*
X135680000Y-105037990D03*
X132280000Y-108800000D03*
X135248000Y-105616000D03*
X101631196Y-76659251D03*
X112515000Y-86185000D03*
X171848675Y-109695905D03*
X171824000Y-106124000D03*
X162842298Y-98762298D03*
X160316348Y-75042641D03*
X143257990Y-83000000D03*
X168669128Y-69578121D03*
X151896383Y-103510715D03*
X169030000Y-77295000D03*
X177274002Y-105079115D03*
X143258015Y-93423150D03*
X173867913Y-101655141D03*
X143280000Y-91800000D03*
X144064831Y-91877646D03*
X173497957Y-101157615D03*
X173102681Y-100658357D03*
X144080000Y-91000000D03*
X117595000Y-66500000D03*
X129870959Y-75314435D03*
X135345425Y-82176814D03*
X129261260Y-74177766D03*
X135830698Y-76905381D03*
X136080000Y-82200000D03*
X129549848Y-75736445D03*
X136080000Y-83000000D03*
X129068266Y-76134206D03*
X135280000Y-83022010D03*
X160854413Y-74794248D03*
X164583094Y-67962523D03*
X142480000Y-77600000D03*
X143280000Y-83800000D03*
D42*
X147987361Y-71094949D02*
X147987361Y-71377791D01*
X146526413Y-70646413D02*
X146526413Y-71094949D01*
X147987361Y-70607361D02*
X147987361Y-71094949D01*
X146480000Y-70600000D02*
X146526413Y-70646413D01*
X147980000Y-70600000D02*
X147987361Y-70607361D01*
X146526413Y-71094949D02*
X146526413Y-71377791D01*
X143680000Y-85000000D02*
X144080000Y-84600000D01*
X144080000Y-84600000D02*
X144102010Y-84600000D01*
X144995724Y-70615724D02*
X144995724Y-70925675D01*
X144980000Y-70600000D02*
X144995724Y-70615724D01*
X144995724Y-70925675D02*
X144995724Y-71208517D01*
X132880424Y-84600424D02*
X132880424Y-84561218D01*
X133280000Y-85000000D02*
X132880424Y-84600424D01*
X135680000Y-80752513D02*
X135629789Y-80702302D01*
X135629789Y-80702302D02*
X135567436Y-80702302D01*
X135680000Y-81000000D02*
X135680000Y-80752513D01*
X132857990Y-82177990D02*
X132810347Y-82177990D01*
X133280000Y-82600000D02*
X132857990Y-82177990D01*
X145657990Y-91022010D02*
X145713035Y-91022010D01*
X145280000Y-91400000D02*
X145657990Y-91022010D01*
X145680000Y-93800000D02*
X145680000Y-94177990D01*
X178785000Y-97705000D02*
X178785000Y-98655000D01*
X178785000Y-98655000D02*
X178122500Y-99317500D01*
X176285000Y-97705000D02*
X175785000Y-97705000D01*
X175785000Y-102605000D02*
X175785000Y-101655000D01*
X175785000Y-101655000D02*
X176447500Y-100992500D01*
X178122500Y-99317500D02*
X178122500Y-100992500D01*
X176447500Y-99317500D02*
X178122500Y-99317500D01*
X176447500Y-100992500D02*
X178122500Y-100992500D01*
X177285000Y-97705000D02*
X177285000Y-95710000D01*
X178122500Y-99317500D02*
X178285000Y-99155000D01*
X178285000Y-99155000D02*
X179735000Y-99155000D01*
X179735000Y-98655000D02*
X179735000Y-99155000D01*
X177785000Y-97705000D02*
X177920000Y-97705000D01*
X177920000Y-97705000D02*
X178285000Y-97705000D01*
X178285000Y-97705000D02*
X178785000Y-97705000D01*
X177285000Y-97705000D02*
X177785000Y-97705000D01*
X175785000Y-97705000D02*
X175785000Y-98655000D01*
X175785000Y-98655000D02*
X176447500Y-99317500D01*
X174835000Y-99155000D02*
X176285000Y-99155000D01*
X176285000Y-99155000D02*
X176447500Y-99317500D01*
X177241260Y-82270000D02*
X177229911Y-82281349D01*
X164941831Y-81330571D02*
X164741832Y-81130572D01*
X165080000Y-81468740D02*
X164941831Y-81330571D01*
X165080000Y-82270000D02*
X165080000Y-81468740D01*
X120770000Y-73030000D02*
X120770000Y-72215000D01*
X120880000Y-74840000D02*
X120880000Y-73140000D01*
X120880000Y-73140000D02*
X120770000Y-73030000D01*
X118230000Y-75610980D02*
X120109020Y-75610980D01*
X120109020Y-75610980D02*
X120880000Y-74840000D01*
X131184000Y-110780000D02*
X132368460Y-110780000D01*
X132368460Y-110780000D02*
X133214460Y-109934000D01*
X133214460Y-109934000D02*
X133216000Y-109934000D01*
X142280000Y-69200000D02*
X141880000Y-69200000D01*
X141980000Y-69300000D02*
X141880000Y-69200000D01*
X141880000Y-69200000D02*
X139480000Y-69200000D01*
X141980000Y-70600000D02*
X141980000Y-69300000D01*
X161080000Y-81228126D02*
X161067993Y-81216119D01*
X161080000Y-82270000D02*
X161080000Y-81228126D01*
D43*
X175480000Y-82270000D02*
X177241260Y-82270000D01*
D42*
X158680000Y-94406303D02*
X158433686Y-94652617D01*
X158433686Y-94652617D02*
X158233687Y-94852616D01*
X158680000Y-93330000D02*
X158680000Y-94406303D01*
X163192747Y-94620186D02*
X162992748Y-94820185D01*
X163480000Y-94332933D02*
X163192747Y-94620186D01*
X163480000Y-93330000D02*
X163480000Y-94332933D01*
X143480000Y-72024382D02*
X143485784Y-72030166D01*
X143480000Y-70600000D02*
X143480000Y-72024382D01*
X141980000Y-72043145D02*
X141993027Y-72056172D01*
X141980000Y-70600000D02*
X141980000Y-72043145D01*
X156280000Y-82270000D02*
X156280000Y-81210838D01*
X112735912Y-99144090D02*
X112935911Y-99344089D01*
X107480000Y-98850000D02*
X112441822Y-98850000D01*
X112441822Y-98850000D02*
X112735912Y-99144090D01*
X131331357Y-86251357D02*
X131254529Y-86251357D01*
X131680000Y-86600000D02*
X131331357Y-86251357D01*
D44*
X168320000Y-63380000D02*
X162120000Y-63380000D01*
X162120000Y-63380000D02*
X162120000Y-64230000D01*
X162120000Y-64230000D02*
X161755000Y-64595000D01*
X161755000Y-64595000D02*
X159485000Y-64595000D01*
D42*
X159485000Y-64595000D02*
X159480000Y-64600000D01*
X141280000Y-81000000D02*
X140880000Y-81400000D01*
X135685174Y-89394826D02*
X135802332Y-89394826D01*
X135680000Y-89400000D02*
X135685174Y-89394826D01*
X135802332Y-89394826D02*
X136085174Y-89394826D01*
X135054999Y-84825001D02*
X137080000Y-84825001D01*
X137280000Y-85000000D02*
X137105001Y-84825001D01*
X137105001Y-84825001D02*
X137080000Y-84825001D01*
X138280000Y-85088351D02*
X137368351Y-85088351D01*
X137368351Y-85088351D02*
X137280000Y-85000000D01*
X139680000Y-86600000D02*
X139280000Y-87000000D01*
X139680000Y-88200000D02*
X139680000Y-89000000D01*
X139680000Y-87400000D02*
X139680000Y-88200000D01*
X139680000Y-86600000D02*
X139680000Y-87400000D01*
X137280000Y-88200000D02*
X137280000Y-89000000D01*
X137280000Y-87400000D02*
X137280000Y-88200000D01*
X137280000Y-86600000D02*
X137280000Y-87400000D01*
X138880000Y-87400000D02*
X138880000Y-88200000D01*
X138880000Y-86600000D02*
X138880000Y-87400000D01*
X138080000Y-87400000D02*
X138080000Y-86600000D01*
X138080000Y-88200000D02*
X138080000Y-87400000D01*
X138080000Y-89000000D02*
X138080000Y-88200000D01*
X138080000Y-88200000D02*
X138880000Y-88200000D01*
X138080000Y-87400000D02*
X138880000Y-87400000D01*
X137280000Y-87400000D02*
X138080000Y-87400000D01*
X145454999Y-81625001D02*
X145680000Y-81400000D01*
X145280000Y-81800000D02*
X145454999Y-81625001D01*
X139480000Y-69200000D02*
X139080000Y-69600000D01*
X120430000Y-99520000D02*
X120430000Y-97050000D01*
X153430000Y-81600000D02*
X150080000Y-81600000D01*
X154680000Y-82270000D02*
X154100000Y-82270000D01*
X154100000Y-82270000D02*
X153430000Y-81600000D01*
X141480000Y-89800000D02*
X141480000Y-89200000D01*
X141480000Y-89200000D02*
X141280000Y-89000000D01*
X141280000Y-89800000D02*
X141480000Y-89800000D01*
X141480000Y-89800000D02*
X142080000Y-89800000D01*
X141454999Y-90425001D02*
X141454999Y-89825001D01*
X141454999Y-89825001D02*
X141480000Y-89800000D01*
X131680000Y-89000000D02*
X131280000Y-89400000D01*
X133699841Y-94180159D02*
X133690245Y-94180159D01*
X134080000Y-93800000D02*
X133699841Y-94180159D01*
X139085645Y-91132701D02*
X139312644Y-91359700D01*
X138880000Y-90927056D02*
X139085645Y-91132701D01*
X138880000Y-90600000D02*
X138880000Y-90927056D01*
X140874194Y-90605806D02*
X140874194Y-91150511D01*
X140880000Y-90600000D02*
X140874194Y-90605806D01*
X140874194Y-91150511D02*
X140874194Y-91433353D01*
X140480000Y-90600000D02*
X140880000Y-90600000D01*
X140880000Y-90600000D02*
X141280000Y-90600000D01*
X139680000Y-90600000D02*
X140480000Y-90600000D01*
X138880000Y-90600000D02*
X139680000Y-90600000D01*
X145280000Y-85800000D02*
X145657990Y-85422010D01*
X145657990Y-85422010D02*
X145680000Y-85422010D01*
X141280000Y-85000000D02*
X141280000Y-84800000D01*
X141280000Y-84200000D02*
X141280000Y-85000000D01*
X140480000Y-84200000D02*
X141280000Y-84200000D01*
X141280000Y-84800000D02*
X141280000Y-84200000D01*
X141905001Y-84825001D02*
X141305001Y-84825001D01*
X141305001Y-84825001D02*
X141280000Y-84800000D01*
X140480000Y-85000000D02*
X140480000Y-84200000D01*
X139680000Y-85000000D02*
X139680000Y-84898347D01*
X139680000Y-84898347D02*
X139753346Y-84825001D01*
X138280000Y-85088351D02*
X138680000Y-85088351D01*
X138280000Y-85088351D02*
X139489996Y-85088351D01*
X138080000Y-85000000D02*
X138191649Y-85000000D01*
X138191649Y-85000000D02*
X138280000Y-85088351D01*
X138880000Y-85000000D02*
X138768351Y-85000000D01*
X138768351Y-85000000D02*
X138680000Y-85088351D01*
X135680000Y-84200000D02*
X135680000Y-84800000D01*
X135680000Y-84800000D02*
X135680000Y-85000000D01*
X135054999Y-84825001D02*
X135654999Y-84825001D01*
X135654999Y-84825001D02*
X135680000Y-84800000D01*
X136480000Y-85000000D02*
X136480000Y-84200000D01*
X134880000Y-85000000D02*
X135054999Y-84825001D01*
X138880000Y-87400000D02*
X139680000Y-87400000D01*
X138880000Y-88200000D02*
X138880000Y-89000000D01*
X138880000Y-88200000D02*
X139680000Y-88200000D01*
X137280000Y-88200000D02*
X138080000Y-88200000D01*
X141280000Y-90600000D02*
X141454999Y-90425001D01*
X142280000Y-69200000D02*
X143480000Y-69200000D01*
X143480000Y-69200000D02*
X144980000Y-69200000D01*
X143480000Y-70600000D02*
X143480000Y-69200000D01*
X144980000Y-69200000D02*
X146480000Y-69200000D01*
X144980000Y-70600000D02*
X144980000Y-69200000D01*
X146480000Y-69200000D02*
X147780000Y-69200000D01*
X146480000Y-70600000D02*
X146480000Y-69200000D01*
X147980000Y-69400000D02*
X147980000Y-70600000D01*
X147780000Y-69200000D02*
X147980000Y-69400000D01*
D43*
X115690000Y-75610980D02*
X118230000Y-75610980D01*
X113150000Y-75610980D02*
X115690000Y-75610980D01*
X110610000Y-75610980D02*
X113150000Y-75610980D01*
X108070000Y-75610980D02*
X110610000Y-75610980D01*
X105530000Y-75610980D02*
X108070000Y-75610980D01*
X102990000Y-75610980D02*
X105530000Y-75610980D01*
X100450000Y-75610980D02*
X102990000Y-75610980D01*
D42*
X142080000Y-89800000D02*
X142880000Y-89000000D01*
X145680000Y-93800000D02*
X145280000Y-93800000D01*
X146080000Y-93800000D02*
X145680000Y-93800000D01*
X135680000Y-89400000D02*
X135680000Y-89800000D01*
X135680000Y-89000000D02*
X135680000Y-89400000D01*
X135280000Y-95400000D02*
X135680000Y-95400000D01*
X134880000Y-95400000D02*
X135280000Y-95400000D01*
X135280000Y-95400000D02*
X135280000Y-95000000D01*
X135280000Y-93800000D02*
X135680000Y-93800000D01*
X134880000Y-93800000D02*
X135280000Y-93800000D01*
X135280000Y-93800000D02*
X135280000Y-94200000D01*
X142480000Y-93800000D02*
X142080000Y-93800000D01*
X142880000Y-93800000D02*
X142480000Y-93800000D01*
X142480000Y-93800000D02*
X142480000Y-94200000D01*
X140880000Y-93000000D02*
X141280000Y-93000000D01*
X140480000Y-93000000D02*
X140880000Y-93000000D01*
X140880000Y-93000000D02*
X140880000Y-93400000D01*
X139280000Y-93000000D02*
X138880000Y-93000000D01*
X139680000Y-93000000D02*
X139280000Y-93000000D01*
X139280000Y-93000000D02*
X139280000Y-93400000D01*
X137680000Y-93000000D02*
X137280000Y-93000000D01*
X137680000Y-93000000D02*
X137680000Y-93400000D01*
X138080000Y-93000000D02*
X137680000Y-93000000D01*
X136080000Y-93000000D02*
X135680000Y-93000000D01*
X136480000Y-93000000D02*
X136080000Y-93000000D01*
X136080000Y-93000000D02*
X136080000Y-93400000D01*
X136880000Y-93000000D02*
X136480000Y-93000000D01*
X137280000Y-93000000D02*
X136880000Y-93000000D01*
X136880000Y-93000000D02*
X136880000Y-92600000D01*
X135280000Y-93000000D02*
X135680000Y-93000000D01*
X134880000Y-93000000D02*
X135280000Y-93000000D01*
X135280000Y-93000000D02*
X135280000Y-92600000D01*
X133280000Y-91400000D02*
X132880000Y-91800000D01*
X133280000Y-93000000D02*
X132880000Y-93400000D01*
X139753346Y-84825001D02*
X141905001Y-84825001D01*
X139489996Y-85088351D02*
X139753346Y-84825001D01*
X141905001Y-84825001D02*
X142080000Y-85000000D01*
X141042859Y-86837141D02*
X141042859Y-86994997D01*
X141280000Y-86600000D02*
X141042859Y-86837141D01*
X135684597Y-86995403D02*
X135789964Y-86995403D01*
X135680000Y-87000000D02*
X135684597Y-86995403D01*
X135789964Y-86995403D02*
X136110990Y-86995403D01*
X135680000Y-87000000D02*
X135680000Y-86600000D01*
X135680000Y-87400000D02*
X135680000Y-87000000D01*
X138880000Y-90600000D02*
X138880000Y-91091880D01*
X138880000Y-91091880D02*
X138080000Y-91891880D01*
X138080000Y-91891880D02*
X138080000Y-92200000D01*
X136480000Y-90600000D02*
X136480000Y-92200000D01*
X139680000Y-89000000D02*
X139280000Y-88600000D01*
X137280000Y-86600000D02*
X137680000Y-87000000D01*
X136480000Y-84200000D02*
X136080000Y-84600000D01*
X141280000Y-86600000D02*
X141280000Y-87400000D01*
X142080000Y-87400000D02*
X141280000Y-87400000D01*
X135680000Y-84200000D02*
X136480000Y-84200000D01*
X134880000Y-87400000D02*
X135680000Y-87400000D01*
X138880000Y-86600000D02*
X139680000Y-86600000D01*
X138080000Y-86600000D02*
X138880000Y-86600000D01*
X137280000Y-86600000D02*
X138080000Y-86600000D01*
X138880000Y-89000000D02*
X139680000Y-89000000D01*
X138080000Y-89000000D02*
X138880000Y-89000000D01*
X137280000Y-89000000D02*
X138080000Y-89000000D01*
X135680000Y-89800000D02*
X134880000Y-89800000D01*
X135680000Y-90600000D02*
X135680000Y-89800000D01*
X135680000Y-90600000D02*
X136480000Y-90600000D01*
X140480000Y-93000000D02*
X139680000Y-93000000D01*
X139680000Y-93800000D02*
X140480000Y-93800000D01*
X139680000Y-93800000D02*
X139680000Y-94600000D01*
X139680000Y-95400000D02*
X139680000Y-94600000D01*
X138880000Y-95400000D02*
X139680000Y-95400000D01*
X135680000Y-95400000D02*
X136480000Y-95400000D01*
X135680000Y-95400000D02*
X135680000Y-94600000D01*
X134880000Y-95400000D02*
X134080000Y-95400000D01*
X134880000Y-94600000D02*
X134880000Y-95400000D01*
X134080000Y-93800000D02*
X134880000Y-93800000D01*
X134880000Y-94600000D02*
X134880000Y-93800000D01*
X135680000Y-94600000D02*
X134880000Y-94600000D01*
X135680000Y-93800000D02*
X135680000Y-94600000D01*
X134880000Y-93000000D02*
X134880000Y-93800000D01*
X134880000Y-92200000D02*
X134880000Y-93000000D01*
X135680000Y-92200000D02*
X134880000Y-92200000D01*
X135680000Y-93800000D02*
X136480000Y-93800000D01*
X135680000Y-93000000D02*
X135680000Y-93800000D01*
X135680000Y-92200000D02*
X135680000Y-93000000D01*
X135680000Y-92200000D02*
X136480000Y-92200000D01*
X136480000Y-92200000D02*
X137280000Y-92200000D01*
X137280000Y-93800000D02*
X137280000Y-93000000D01*
X136480000Y-93800000D02*
X137280000Y-93800000D01*
X136480000Y-93000000D02*
X136480000Y-93800000D01*
X136480000Y-92200000D02*
X136480000Y-93000000D01*
X137280000Y-92200000D02*
X138080000Y-92200000D01*
X137280000Y-93800000D02*
X138080000Y-93800000D01*
X137280000Y-92200000D02*
X137280000Y-93000000D01*
X138080000Y-92200000D02*
X138080000Y-93000000D01*
X138080000Y-93000000D02*
X138880000Y-93000000D01*
X138080000Y-93800000D02*
X138080000Y-93000000D01*
X138880000Y-93800000D02*
X138080000Y-93800000D01*
X138880000Y-93000000D02*
X138880000Y-93800000D01*
X139680000Y-93800000D02*
X139680000Y-93000000D01*
X138880000Y-93800000D02*
X139680000Y-93800000D01*
X140480000Y-93000000D02*
X140480000Y-93800000D01*
X141280000Y-93000000D02*
X141280000Y-93800000D01*
X141280000Y-93800000D02*
X142080000Y-93800000D01*
X140480000Y-93800000D02*
X141280000Y-93800000D01*
X142080000Y-94600000D02*
X142880000Y-94600000D01*
X142080000Y-93800000D02*
X142080000Y-94600000D01*
X142880000Y-94600000D02*
X142880000Y-93800000D01*
X145280000Y-93800000D02*
X145280000Y-94600000D01*
X151080000Y-72000567D02*
X150657223Y-71577790D01*
X151080000Y-72735000D02*
X151080000Y-72000567D01*
X150657223Y-71577790D02*
X150457224Y-71377791D01*
X151080000Y-73485000D02*
X151080000Y-72735000D01*
X151080000Y-72200000D02*
X151080000Y-72735000D01*
X149480000Y-70600000D02*
X151080000Y-72200000D01*
X172976000Y-62600000D02*
X173680000Y-62600000D01*
X171570000Y-62690000D02*
X172886000Y-62690000D01*
X172886000Y-62690000D02*
X172976000Y-62600000D01*
X171570000Y-65992000D02*
X172886000Y-65992000D01*
X183245038Y-63965038D02*
X185722827Y-63965038D01*
D43*
X172886000Y-65992000D02*
X177078000Y-61800000D01*
D42*
X186810000Y-62877865D02*
X186810000Y-62690000D01*
D43*
X177078000Y-61800000D02*
X181080000Y-61800000D01*
X181080000Y-61800000D02*
X183245038Y-63965038D01*
D44*
X185722827Y-63965038D02*
X186810000Y-62877865D01*
D42*
X173623469Y-99655000D02*
X173620534Y-99657935D01*
X174835000Y-99655000D02*
X173623469Y-99655000D01*
X173931856Y-98655000D02*
X173902378Y-98625522D01*
X174835000Y-98655000D02*
X173931856Y-98655000D01*
X176280000Y-103335000D02*
X176285000Y-103330000D01*
X176285000Y-102605000D02*
X176285000Y-103330000D01*
X174835000Y-99655000D02*
X174835000Y-100155000D01*
D43*
X176260000Y-93330000D02*
X176474303Y-93544303D01*
X176474303Y-93544303D02*
X176474303Y-94069095D01*
X175480000Y-93330000D02*
X176260000Y-93330000D01*
D42*
X163480000Y-81178635D02*
X163422030Y-81120665D01*
X163480000Y-82270000D02*
X163480000Y-81178635D01*
X154680000Y-93330000D02*
X154680000Y-94125071D01*
X154680000Y-94125071D02*
X154726292Y-94171363D01*
X156280000Y-94177886D02*
X156077107Y-94380779D01*
X156280000Y-93330000D02*
X156280000Y-94177886D01*
D43*
X161080000Y-94678931D02*
X160908408Y-94850523D01*
X161080000Y-93330000D02*
X161080000Y-94678931D01*
D42*
X158680000Y-82270000D02*
X158680000Y-81210838D01*
X134880000Y-86600000D02*
X135280000Y-86200000D01*
X135280000Y-85800000D02*
X135280000Y-86200000D01*
X134880000Y-85800000D02*
X134880000Y-86600000D01*
X108330000Y-105000000D02*
X110280000Y-105000000D01*
X107480000Y-104900000D02*
X108230000Y-104900000D01*
X108230000Y-104900000D02*
X108330000Y-105000000D01*
X164853769Y-94625548D02*
X164653770Y-94825547D01*
X165080000Y-94399317D02*
X164853769Y-94625548D01*
X165080000Y-93330000D02*
X165080000Y-94399317D01*
X137665894Y-91119604D02*
X137665894Y-91402446D01*
X137665894Y-90814106D02*
X137665894Y-91119604D01*
X137680000Y-90800000D02*
X137665894Y-90814106D01*
X137680000Y-90800000D02*
X137880000Y-90800000D01*
X137480000Y-90800000D02*
X137680000Y-90800000D01*
X137880000Y-90800000D02*
X138080000Y-90600000D01*
X137280000Y-90600000D02*
X137480000Y-90800000D01*
X132880000Y-92600000D02*
X133280000Y-92200000D01*
X132480000Y-92200000D02*
X132880000Y-92600000D01*
X134990464Y-88618602D02*
X135273306Y-88618602D01*
X134898602Y-88618602D02*
X134990464Y-88618602D01*
X134880000Y-88600000D02*
X134898602Y-88618602D01*
X139272517Y-84328507D02*
X139272517Y-84611349D01*
X139272517Y-84207483D02*
X139272517Y-84328507D01*
X139280000Y-84200000D02*
X139272517Y-84207483D01*
X137680556Y-84200556D02*
X137680556Y-84251243D01*
X137680000Y-84200000D02*
X137680556Y-84200556D01*
X137680556Y-84251243D02*
X137680556Y-84534085D01*
X142080000Y-88600000D02*
X142080000Y-89000000D01*
X142080000Y-88200000D02*
X142080000Y-88600000D01*
X141680000Y-85800000D02*
X141680000Y-86200000D01*
X135280000Y-85800000D02*
X135680000Y-85800000D01*
X134880000Y-85800000D02*
X135280000Y-85800000D01*
X132080000Y-92200000D02*
X132480000Y-92200000D01*
X131680000Y-92200000D02*
X132080000Y-92200000D01*
X132080000Y-92200000D02*
X132080000Y-92600000D01*
X131680000Y-93000000D02*
X131680000Y-92200000D01*
X134880000Y-88600000D02*
X134880000Y-89000000D01*
X134880000Y-88200000D02*
X134880000Y-88600000D01*
X141680000Y-88200000D02*
X142080000Y-88200000D01*
X141280000Y-88200000D02*
X141680000Y-88200000D01*
X141680000Y-88200000D02*
X141680000Y-88600000D01*
X141680000Y-85800000D02*
X142080000Y-85800000D01*
X141280000Y-85800000D02*
X141680000Y-85800000D01*
X141680000Y-85800000D02*
X141680000Y-85400000D01*
X139280000Y-84200000D02*
X139680000Y-84200000D01*
X138880000Y-84200000D02*
X139280000Y-84200000D01*
X137680000Y-84200000D02*
X138080000Y-84200000D01*
X137280000Y-84200000D02*
X137680000Y-84200000D01*
X142080000Y-85800000D02*
X142080000Y-86600000D01*
X134880000Y-88200000D02*
X135680000Y-88200000D01*
X136654999Y-86800000D02*
X136654999Y-87200000D01*
X136654999Y-86600000D02*
X136654999Y-86800000D01*
X136654999Y-86800000D02*
X136654999Y-86774999D01*
X136654999Y-86774999D02*
X136480000Y-86600000D01*
X136654999Y-87200000D02*
X136654999Y-88200000D01*
X136480000Y-87400000D02*
X136654999Y-87225001D01*
X136654999Y-87225001D02*
X136654999Y-87200000D01*
X136885174Y-89911984D02*
X136885174Y-90194826D01*
X136880000Y-89800000D02*
X136885174Y-89805174D01*
X136885174Y-89805174D02*
X136885174Y-89911984D01*
X138080000Y-89625001D02*
X138880000Y-89625001D01*
X138880000Y-89625001D02*
X139280000Y-89625001D01*
X138880000Y-89800000D02*
X138880000Y-89625001D01*
X138080000Y-89800000D02*
X138080000Y-89625001D01*
X137054999Y-89625001D02*
X137280000Y-89625001D01*
X137280000Y-89625001D02*
X137680000Y-89625001D01*
X137280000Y-89800000D02*
X137280000Y-89625001D01*
X137680000Y-89625001D02*
X138080000Y-89625001D01*
X136480000Y-89000000D02*
X136654999Y-89000000D01*
X136654999Y-88200000D02*
X136654999Y-89000000D01*
X136480000Y-88200000D02*
X136654999Y-88200000D01*
X140094890Y-89840148D02*
X140094890Y-90122990D01*
X140094890Y-89639891D02*
X140094890Y-89840148D01*
X140080000Y-89625001D02*
X140094890Y-89639891D01*
X139280000Y-89625001D02*
X139280000Y-90122990D01*
X139280000Y-89625001D02*
X139680000Y-89625001D01*
X139680000Y-89625001D02*
X140080000Y-89625001D01*
X140080000Y-89625001D02*
X140305001Y-89625001D01*
X139680000Y-89800000D02*
X139680000Y-89625001D01*
X140305001Y-89400000D02*
X140305001Y-89000000D01*
X140305001Y-89000000D02*
X140305001Y-88200000D01*
X140480000Y-89000000D02*
X140305001Y-89000000D01*
X140305001Y-88200000D02*
X140305001Y-87800000D01*
X140480000Y-88200000D02*
X140305001Y-88200000D01*
X140305001Y-87800000D02*
X140305001Y-87400000D01*
X140305001Y-87400000D02*
X140305001Y-86600000D01*
X140480000Y-87400000D02*
X140305001Y-87400000D01*
X140305001Y-86600000D02*
X140305001Y-85974999D01*
X140480000Y-86600000D02*
X140305001Y-86600000D01*
X140480000Y-85800000D02*
X139480000Y-85800000D01*
X139480000Y-85800000D02*
X138680000Y-85800000D01*
X139680000Y-85800000D02*
X139480000Y-85800000D01*
X138680000Y-85800000D02*
X137880000Y-85800000D01*
X138880000Y-85800000D02*
X138680000Y-85800000D01*
X137880000Y-85800000D02*
X137080000Y-85800000D01*
X138080000Y-85800000D02*
X137880000Y-85800000D01*
X137080000Y-85800000D02*
X136480000Y-85800000D01*
X137280000Y-85800000D02*
X137080000Y-85800000D01*
X136654999Y-85974999D02*
X136654999Y-86600000D01*
X136654999Y-89000000D02*
X136654999Y-89625001D01*
X140305001Y-89400000D02*
X140880000Y-89400000D01*
X137680000Y-89625001D02*
X137680000Y-90172990D01*
X136880000Y-89800000D02*
X137054999Y-89625001D01*
X140305001Y-89625001D02*
X140480000Y-89800000D01*
X140305001Y-87800000D02*
X140880000Y-87800000D01*
X140305001Y-89625001D02*
X140305001Y-89400000D01*
X140480000Y-85800000D02*
X140880000Y-85400000D01*
X136480000Y-89800000D02*
X136880000Y-89800000D01*
X136480000Y-85800000D02*
X136080000Y-85400000D01*
X140305001Y-85974999D02*
X140480000Y-85800000D01*
X136480000Y-85800000D02*
X136654999Y-85974999D01*
X136654999Y-89625001D02*
X136480000Y-89800000D01*
D45*
X148488968Y-98358968D02*
X147062304Y-98358968D01*
X134101837Y-97439899D02*
X132070901Y-97439899D01*
X147062304Y-98358968D02*
X145302445Y-96599106D01*
X157040000Y-106560000D02*
X156690000Y-106560000D01*
X156690000Y-106560000D02*
X148488968Y-98358968D01*
X145302445Y-96599106D02*
X134942630Y-96599106D01*
X134942630Y-96599106D02*
X134101837Y-97439899D01*
X131207825Y-96576823D02*
X130706357Y-96576823D01*
X132070901Y-97439899D02*
X131207825Y-96576823D01*
X130706357Y-96576823D02*
X130041550Y-95912016D01*
X130041550Y-95912016D02*
X130041550Y-94638450D01*
X130041550Y-94638450D02*
X130880000Y-93800000D01*
X163240000Y-106560000D02*
X157040000Y-106560000D01*
X130880000Y-91400000D02*
X129930313Y-91400000D01*
X129930313Y-91400000D02*
X129842442Y-91487871D01*
X101160000Y-91210000D02*
X101900000Y-91950000D01*
X101900000Y-91950000D02*
X106270000Y-91950000D01*
X106270000Y-91950000D02*
X107010000Y-91210000D01*
X107010000Y-91210000D02*
X107360000Y-91210000D01*
X107360000Y-91210000D02*
X108450000Y-91210000D01*
X108450000Y-91210000D02*
X109570230Y-90089770D01*
X109570230Y-90089770D02*
X120865937Y-90089770D01*
X120865937Y-90089770D02*
X121208625Y-90432458D01*
X121208625Y-90432458D02*
X121408624Y-90632457D01*
X130880000Y-92200000D02*
X130540228Y-92539772D01*
X130121260Y-92539772D02*
X129838418Y-92539772D01*
X130540228Y-92539772D02*
X130121260Y-92539772D01*
X118790000Y-91210000D02*
X120670000Y-91210000D01*
X120670000Y-91210000D02*
X120880000Y-91000000D01*
X112590000Y-91210000D02*
X118790000Y-91210000D01*
X130880000Y-93000000D02*
X130632513Y-93000000D01*
X145610000Y-106560000D02*
X150615000Y-106560000D01*
X150615000Y-106560000D02*
X151810000Y-106560000D01*
X129702002Y-96020789D02*
X130575047Y-96893834D01*
X129702002Y-93226237D02*
X129702002Y-96020789D01*
X148357659Y-98675979D02*
X150540000Y-100858320D01*
X145171135Y-96916117D02*
X145453236Y-97198218D01*
X130632513Y-93000000D02*
X130577883Y-92945370D01*
X150540000Y-100858320D02*
X150540000Y-106485000D01*
X130577883Y-92945370D02*
X129982869Y-92945370D01*
X145453236Y-97198218D02*
X146930994Y-98675979D01*
X131939591Y-97756910D02*
X134233147Y-97756910D01*
X129982869Y-92945370D02*
X129702002Y-93226237D01*
X130575047Y-96893834D02*
X131076515Y-96893834D01*
X131076515Y-96893834D02*
X131939591Y-97756910D01*
X134233147Y-97756910D02*
X135073940Y-96916117D01*
X135073940Y-96916117D02*
X145171135Y-96916117D01*
X146930994Y-98675979D02*
X148357659Y-98675979D01*
X150540000Y-106485000D02*
X150615000Y-106560000D01*
X131680000Y-95400000D02*
X131680000Y-96142798D01*
X132343079Y-96805877D02*
X133839217Y-96805877D01*
X131680000Y-96142798D02*
X132343079Y-96805877D01*
X168470000Y-105348656D02*
X168470000Y-106560000D01*
X133839217Y-96805877D02*
X134680010Y-95965084D01*
X134680010Y-95965084D02*
X145565065Y-95965084D01*
X145565065Y-95965084D02*
X147324924Y-97724946D01*
X147324924Y-97724946D02*
X148824076Y-97724946D01*
X148824076Y-97724946D02*
X151898308Y-100799179D01*
X163920523Y-100799179D02*
X168470000Y-105348656D01*
X151898308Y-100799179D02*
X163920523Y-100799179D01*
X174670000Y-106560000D02*
X168470000Y-106560000D01*
X157040000Y-102640000D02*
X153290809Y-102640000D01*
X163240000Y-102640000D02*
X157040000Y-102640000D01*
X147193614Y-98041957D02*
X147007913Y-97856256D01*
X134811320Y-96282095D02*
X133970527Y-97122888D01*
X130800127Y-96222272D02*
X130358561Y-95780706D01*
X130358561Y-95121439D02*
X130705001Y-94774999D01*
X132202211Y-97122888D02*
X131301595Y-96222272D01*
X130358561Y-95780706D02*
X130358561Y-95121439D01*
X145433755Y-96282095D02*
X134811320Y-96282095D01*
X148692766Y-98041957D02*
X147193614Y-98041957D01*
X147007913Y-97856256D02*
X145433755Y-96282095D01*
X130705001Y-94774999D02*
X130880000Y-94600000D01*
X133970527Y-97122888D02*
X132202211Y-97122888D01*
X153290809Y-102640000D02*
X148692766Y-98041957D01*
X131301595Y-96222272D02*
X130800127Y-96222272D01*
D42*
X142080000Y-90600000D02*
X142480000Y-91000000D01*
X142254999Y-84025001D02*
X142480000Y-83800000D01*
X142080000Y-84200000D02*
X142254999Y-84025001D01*
X134880000Y-84200000D02*
X134480000Y-83800000D01*
X134880000Y-90600000D02*
X134480000Y-91000000D01*
X158870000Y-108410000D02*
X174110000Y-108410000D01*
D45*
X134080000Y-91400000D02*
X133680000Y-91800000D01*
X134080000Y-92200000D02*
X133680000Y-92600000D01*
X132918584Y-104800000D02*
X132099569Y-103980985D01*
X128892955Y-104714568D02*
X128610113Y-104714568D01*
X132099569Y-103980985D02*
X129626538Y-103980985D01*
X129626538Y-103980985D02*
X128892955Y-104714568D01*
X133685668Y-93394332D02*
X133685668Y-93402482D01*
X134080000Y-93000000D02*
X133685668Y-93394332D01*
X133280000Y-93800000D02*
X132882927Y-94197073D01*
X132882927Y-94197073D02*
X132846234Y-94197073D01*
D42*
X120880000Y-62640000D02*
X118877660Y-62640000D01*
X118877660Y-62640000D02*
X118858690Y-62658970D01*
X130927442Y-67119621D02*
X128500379Y-67119621D01*
X128500379Y-67119621D02*
X128280000Y-67340000D01*
D45*
X146078857Y-65416227D02*
X145851858Y-65189228D01*
X148480000Y-67817370D02*
X146078857Y-65416227D01*
X148480000Y-70600000D02*
X148480000Y-67817370D01*
X148480000Y-70600000D02*
X148480000Y-73085000D01*
X148480000Y-73085000D02*
X148880000Y-73485000D01*
X148991194Y-70611194D02*
X148991194Y-71094949D01*
X148991194Y-71094949D02*
X148991194Y-71377791D01*
X148980000Y-70600000D02*
X148991194Y-70611194D01*
X146100728Y-64147848D02*
X145873729Y-63920849D01*
X148980000Y-67027120D02*
X146100728Y-64147848D01*
X148980000Y-70600000D02*
X148980000Y-67027120D01*
X169007990Y-62227990D02*
X169480000Y-62700000D01*
X169480000Y-66527923D02*
X178980000Y-76027923D01*
X148705016Y-62950000D02*
X150230000Y-62950000D01*
X148692508Y-62962508D02*
X148705016Y-62950000D01*
X146404852Y-62962508D02*
X148692508Y-62962508D01*
X150230000Y-62950000D02*
X150952010Y-62227990D01*
X178980000Y-76027923D02*
X178980000Y-82335908D01*
X150952010Y-62227990D02*
X169007990Y-62227990D01*
X169480000Y-62700000D02*
X169480000Y-66527923D01*
X178665908Y-89431061D02*
X178665908Y-89713903D01*
X178980000Y-82335908D02*
X179110133Y-82466041D01*
X179110133Y-82466041D02*
X179110133Y-88986836D01*
X179110133Y-88986836D02*
X178665908Y-89431061D01*
X152280000Y-72580116D02*
X149980000Y-70280116D01*
X146404852Y-62962508D02*
X144550678Y-62962508D01*
X143850665Y-63662521D02*
X143650666Y-63862520D01*
X152280000Y-74400000D02*
X152280000Y-72580116D01*
X149980000Y-66537656D02*
X146404852Y-62962508D01*
X144550678Y-62962508D02*
X143850665Y-63662521D01*
X149980000Y-70280116D02*
X149980000Y-66537656D01*
X146080000Y-81000000D02*
X147480000Y-81000000D01*
X147480000Y-81000000D02*
X148217875Y-80262125D01*
X148217875Y-80262125D02*
X148217875Y-75462125D01*
X148217875Y-75462125D02*
X149280000Y-74400000D01*
X149280000Y-74400000D02*
X152280000Y-74400000D01*
X179575976Y-89117807D02*
X179375977Y-89317806D01*
X149303407Y-62527990D02*
X149920418Y-61910979D01*
X179374794Y-75974397D02*
X179374794Y-82282381D01*
X170297010Y-66896613D02*
X179374794Y-75974397D01*
X170297010Y-62968689D02*
X170297010Y-66896613D01*
X149920418Y-61910979D02*
X169239300Y-61910979D01*
X179374794Y-82282381D02*
X179575976Y-82483563D01*
X169239300Y-61910979D02*
X170297010Y-62968689D01*
X179575976Y-82483563D02*
X179575976Y-89117807D01*
X139680000Y-81800000D02*
X140035989Y-81444011D01*
X140035989Y-81444011D02*
X140035989Y-81400000D01*
X132152150Y-86272150D02*
X132077895Y-86272150D01*
X132480000Y-86600000D02*
X132152150Y-86272150D01*
X117121665Y-96479539D02*
X126662171Y-86939033D01*
X128812454Y-87048250D02*
X129095296Y-87048250D01*
X128703237Y-86939033D02*
X128812454Y-87048250D01*
X117121665Y-97817265D02*
X117121665Y-96479539D01*
X126662171Y-86939033D02*
X128703237Y-86939033D01*
X117130000Y-99520000D02*
X117130000Y-97825600D01*
X117130000Y-97825600D02*
X117121665Y-97817265D01*
X130880000Y-86600000D02*
X130284125Y-86600000D01*
X118843798Y-95205727D02*
X118843798Y-95215380D01*
X126793481Y-87256044D02*
X118843798Y-95205727D01*
X129413874Y-87470251D02*
X128686840Y-87470251D01*
X128686840Y-87470251D02*
X128472633Y-87256044D01*
X118843798Y-95215380D02*
X118843798Y-95498222D01*
X128472633Y-87256044D02*
X126793481Y-87256044D01*
X130284125Y-86600000D02*
X129413874Y-87470251D01*
X119330000Y-95984424D02*
X119043797Y-95698221D01*
X119330000Y-99520000D02*
X119330000Y-95984424D01*
X119043797Y-95698221D02*
X118843798Y-95498222D01*
X126924791Y-87573055D02*
X119978162Y-94519684D01*
X131280000Y-87000000D02*
X130332446Y-87000000D01*
X128341323Y-87573055D02*
X126924791Y-87573055D01*
X129545184Y-87787262D02*
X128555530Y-87787262D01*
X130332446Y-87000000D02*
X129545184Y-87787262D01*
X131680000Y-87400000D02*
X131280000Y-87000000D01*
X119978162Y-94519684D02*
X119978162Y-95091925D01*
X119978162Y-95091925D02*
X119978162Y-95412951D01*
X128555530Y-87787262D02*
X128341323Y-87573055D01*
X120205161Y-95639950D02*
X119978162Y-95412951D01*
X121530000Y-96964789D02*
X120205161Y-95639950D01*
X121530000Y-99520000D02*
X121530000Y-96964789D01*
X129676494Y-88104273D02*
X128233206Y-88104273D01*
X130380766Y-87400000D02*
X129676494Y-88104273D01*
X120634035Y-94312132D02*
X120634035Y-94656578D01*
X120634035Y-94656578D02*
X120634035Y-94977604D01*
X130880000Y-87400000D02*
X130380766Y-87400000D01*
X128233206Y-88104273D02*
X128018999Y-87890066D01*
X128018999Y-87890066D02*
X127056101Y-87890066D01*
X127056101Y-87890066D02*
X120634035Y-94312132D01*
X122630000Y-99520000D02*
X122630000Y-96973569D01*
X122630000Y-96973569D02*
X120861034Y-95204603D01*
X120861034Y-95204603D02*
X120634035Y-94977604D01*
D42*
X168320000Y-68881180D02*
X168319170Y-68882010D01*
X168320000Y-67080000D02*
X168320000Y-68881180D01*
X160775000Y-69040000D02*
X160775000Y-68425000D01*
X160775000Y-68425000D02*
X162120000Y-67080000D01*
D45*
X147480000Y-70600000D02*
X147480000Y-77539168D01*
X147480000Y-77539168D02*
X147480000Y-77822010D01*
X146387166Y-78201833D02*
X146387166Y-77918991D01*
X145280000Y-80200000D02*
X146387166Y-79092834D01*
X146387166Y-79092834D02*
X146387166Y-78201833D01*
X131453853Y-103296209D02*
X131070118Y-102912474D01*
X131070118Y-102912474D02*
X129952358Y-102912474D01*
X129952358Y-102912474D02*
X127272943Y-100233059D01*
X127272095Y-91205284D02*
X128141475Y-90335904D01*
X127272943Y-100233059D02*
X127272943Y-94060808D01*
X127272943Y-94060808D02*
X127272095Y-94059960D01*
X127272095Y-94059960D02*
X127272095Y-91205284D01*
X128141475Y-90335904D02*
X129052633Y-90335904D01*
X130632513Y-89800000D02*
X130880000Y-89800000D01*
X129052633Y-90335904D02*
X129502549Y-89885988D01*
X129502549Y-89885988D02*
X130546525Y-89885988D01*
X130546525Y-89885988D02*
X130632513Y-89800000D01*
X146441738Y-86000768D02*
X165221281Y-86000768D01*
X168280000Y-82942049D02*
X168280000Y-82910000D01*
X168280000Y-82910000D02*
X168280000Y-82270000D01*
X165221281Y-86000768D02*
X168280000Y-82942049D01*
X146245505Y-86197001D02*
X146441738Y-86000768D01*
X145280000Y-86600000D02*
X145682999Y-86197001D01*
X145682999Y-86197001D02*
X146245505Y-86197001D01*
X172280000Y-82910000D02*
X172280000Y-82270000D01*
X145680000Y-87800000D02*
X146225446Y-87800000D01*
X167921188Y-87268812D02*
X172280000Y-82910000D01*
X146992034Y-87268812D02*
X167921188Y-87268812D01*
X146500286Y-87760560D02*
X146992034Y-87268812D01*
X146264886Y-87760560D02*
X146500286Y-87760560D01*
X146225446Y-87800000D02*
X146264886Y-87760560D01*
X145280000Y-88200000D02*
X145680000Y-87800000D01*
X155480000Y-82270000D02*
X155480000Y-81200000D01*
X155080000Y-80800000D02*
X150080000Y-80800000D01*
X147186067Y-81955651D02*
X146938720Y-82202999D01*
X155480000Y-81200000D02*
X155080000Y-80800000D01*
X150080000Y-80800000D02*
X148924349Y-81955651D01*
X148924349Y-81955651D02*
X147186067Y-81955651D01*
X146938720Y-82202999D02*
X145677001Y-82202999D01*
X145677001Y-82202999D02*
X145280000Y-82600000D01*
X168111911Y-90121911D02*
X170680000Y-92690000D01*
X145680000Y-91800000D02*
X146883615Y-91800000D01*
X170680000Y-92690000D02*
X170680000Y-93330000D01*
X147495218Y-91188397D02*
X149223760Y-91188397D01*
X150290246Y-90121911D02*
X168111911Y-90121911D01*
X146883615Y-91800000D02*
X147495218Y-91188397D01*
X145280000Y-92200000D02*
X145680000Y-91800000D01*
X149223760Y-91188397D02*
X150290246Y-90121911D01*
X144888466Y-91008466D02*
X144891634Y-91008466D01*
X144480000Y-90600000D02*
X144888466Y-91008466D01*
X163930988Y-92340988D02*
X151209416Y-92340988D01*
X148653935Y-94927984D02*
X148653935Y-95249010D01*
X148653935Y-94680266D02*
X148653935Y-94927984D01*
X149926727Y-93407474D02*
X148653935Y-94680266D01*
X151209416Y-92340988D02*
X150142930Y-93407474D01*
X164280000Y-93330000D02*
X164280000Y-92690000D01*
X150142930Y-93407474D02*
X149926727Y-93407474D01*
X164280000Y-92690000D02*
X163930988Y-92340988D01*
X147123344Y-87585823D02*
X168888739Y-87585823D01*
X146631596Y-88077571D02*
X147123344Y-87585823D01*
X146396196Y-88077571D02*
X146631596Y-88077571D01*
X173080000Y-82910000D02*
X173080000Y-82270000D01*
X146273767Y-88200000D02*
X146396196Y-88077571D01*
X146080000Y-88200000D02*
X146273767Y-88200000D01*
X173080000Y-83394562D02*
X173080000Y-82910000D01*
X168888739Y-87585823D02*
X173080000Y-83394562D01*
X146196243Y-85683757D02*
X164752418Y-85683757D01*
X167480000Y-82956175D02*
X167480000Y-82910000D01*
X164752418Y-85683757D02*
X167480000Y-82956175D01*
X167480000Y-82910000D02*
X167480000Y-82270000D01*
X146080000Y-85800000D02*
X146196243Y-85683757D01*
X149089786Y-82272662D02*
X150281803Y-83464680D01*
X157325320Y-83464680D02*
X157880000Y-82910000D01*
X157880000Y-82910000D02*
X157880000Y-82270000D01*
X150281803Y-83464680D02*
X157325320Y-83464680D01*
X146990039Y-82600000D02*
X147317378Y-82272662D01*
X146080000Y-82600000D02*
X146990039Y-82600000D01*
X147317378Y-82272662D02*
X149089786Y-82272662D01*
X146327487Y-92200000D02*
X146401171Y-92126316D01*
X150421556Y-90438922D02*
X167628922Y-90438922D01*
X149355070Y-91505408D02*
X150421556Y-90438922D01*
X167628922Y-90438922D02*
X169880000Y-92690000D01*
X147626528Y-91505408D02*
X149355070Y-91505408D01*
X169880000Y-92690000D02*
X169880000Y-93330000D01*
X146401171Y-92126316D02*
X147005620Y-92126316D01*
X146080000Y-92200000D02*
X146327487Y-92200000D01*
X147005620Y-92126316D02*
X147626528Y-91505408D01*
X144480000Y-89800000D02*
X144844455Y-90164455D01*
X144844455Y-90164455D02*
X144867244Y-90164455D01*
X162680000Y-92690000D02*
X162647999Y-92657999D01*
X151340726Y-92657999D02*
X149846857Y-94151868D01*
X149846857Y-94151868D02*
X149619858Y-94378867D01*
X162680000Y-93330000D02*
X162680000Y-92690000D01*
X162647999Y-92657999D02*
X151340726Y-92657999D01*
X173880000Y-83042883D02*
X173880000Y-82910000D01*
X169020049Y-87902834D02*
X173880000Y-83042883D01*
X145280000Y-89000000D02*
X145680000Y-88600000D01*
X147254654Y-87902834D02*
X169020049Y-87902834D01*
X173880000Y-82910000D02*
X173880000Y-82270000D01*
X146527506Y-88394582D02*
X146762906Y-88394582D01*
X146762906Y-88394582D02*
X147254654Y-87902834D01*
X146322088Y-88600000D02*
X146527506Y-88394582D01*
X145680000Y-88600000D02*
X146322088Y-88600000D01*
X146080000Y-81800000D02*
X146254999Y-81625001D01*
X146254999Y-81625001D02*
X148806678Y-81625001D01*
X148806678Y-81625001D02*
X149961679Y-80470000D01*
X149961679Y-80470000D02*
X156591710Y-80470000D01*
X156591710Y-80470000D02*
X157080000Y-80958290D01*
X157080000Y-80958290D02*
X157080000Y-81630000D01*
X157080000Y-81630000D02*
X157080000Y-82270000D01*
X157080000Y-82270000D02*
X157080000Y-82599602D01*
X169880000Y-82910000D02*
X169880000Y-82270000D01*
X146598104Y-86317779D02*
X167201352Y-86317779D01*
X169880000Y-83639131D02*
X169880000Y-82910000D01*
X167201352Y-86317779D02*
X169880000Y-83639131D01*
X146080000Y-86600000D02*
X146315883Y-86600000D01*
X146315883Y-86600000D02*
X146598104Y-86317779D01*
X148773091Y-83177342D02*
X149546144Y-83177342D01*
X150150493Y-83781691D02*
X158608309Y-83781691D01*
X158608309Y-83781691D02*
X159480000Y-82910000D01*
X149546144Y-83177342D02*
X150150493Y-83781691D01*
X148553651Y-82923035D02*
X148553651Y-82957902D01*
X159480000Y-82910000D02*
X159480000Y-82270000D01*
X148220289Y-82589673D02*
X148553651Y-82923035D01*
X145280000Y-83400000D02*
X145682999Y-82997001D01*
X147448687Y-82589673D02*
X148220289Y-82589673D01*
X147041359Y-82997001D02*
X147448687Y-82589673D01*
X145682999Y-82997001D02*
X147041359Y-82997001D01*
X148553651Y-82957902D02*
X148773091Y-83177342D01*
X161880000Y-94947495D02*
X161880000Y-94638959D01*
X150895161Y-97104924D02*
X159722571Y-97104924D01*
X159722571Y-97104924D02*
X161880000Y-94947495D01*
D46*
X161880000Y-93330000D02*
X161880000Y-94638959D01*
X144480000Y-84200000D02*
X144813978Y-83866022D01*
X144813978Y-83866022D02*
X144890381Y-83866022D01*
D45*
X169417298Y-88219845D02*
X174680000Y-82957143D01*
X174680000Y-82910000D02*
X174680000Y-82270000D01*
X148975386Y-88746846D02*
X149502386Y-88219845D01*
X174680000Y-82957143D02*
X174680000Y-82910000D01*
X146370410Y-89000000D02*
X146623564Y-88746845D01*
X146623564Y-88746845D02*
X148975386Y-88746846D01*
X146080000Y-89000000D02*
X146370410Y-89000000D01*
X149502386Y-88219845D02*
X169417298Y-88219845D01*
X149092450Y-90871386D02*
X150158936Y-89804900D01*
X171480000Y-92690000D02*
X171480000Y-93330000D01*
X146080000Y-91400000D02*
X146608614Y-90871386D01*
X168594900Y-89804900D02*
X171480000Y-92690000D01*
X150158936Y-89804900D02*
X168594900Y-89804900D01*
X146608614Y-90871386D02*
X149092450Y-90871386D01*
X150019183Y-84098702D02*
X159091298Y-84098702D01*
X148088979Y-82906684D02*
X148236640Y-83054345D01*
X147579997Y-82906684D02*
X148088979Y-82906684D01*
X160280000Y-82910000D02*
X160280000Y-82270000D01*
X148236640Y-83054345D02*
X148236640Y-83089212D01*
X146080000Y-83400000D02*
X147086681Y-83400000D01*
X149414834Y-83494353D02*
X150019183Y-84098702D01*
X148236640Y-83089212D02*
X148641781Y-83494353D01*
X159091298Y-84098702D02*
X160280000Y-82910000D01*
X147086681Y-83400000D02*
X147579997Y-82906684D01*
X148641781Y-83494353D02*
X149414834Y-83494353D01*
X149633696Y-88536856D02*
X170035667Y-88536856D01*
X174680000Y-92690000D02*
X174680000Y-93330000D01*
X173664011Y-91674011D02*
X174680000Y-92690000D01*
X146754874Y-89063856D02*
X149106697Y-89063856D01*
X146418730Y-89400000D02*
X146754874Y-89063856D01*
X173172822Y-91674011D02*
X173664011Y-91674011D01*
X145280000Y-89800000D02*
X145680000Y-89400000D01*
X145680000Y-89400000D02*
X146418730Y-89400000D01*
X170035667Y-88536856D02*
X173172822Y-91674011D01*
X149106697Y-89063856D02*
X149633696Y-88536856D01*
X151747950Y-96584651D02*
X151426924Y-96584651D01*
X160280000Y-94494992D02*
X158190341Y-96584651D01*
X160280000Y-93330000D02*
X160280000Y-94494992D01*
X158190341Y-96584651D02*
X151747950Y-96584651D01*
D46*
X144480000Y-83400000D02*
X144857990Y-83022010D01*
X144857990Y-83022010D02*
X144894101Y-83022010D01*
D45*
X148501668Y-83802561D02*
X145677439Y-83802561D01*
X148510471Y-83811364D02*
X148501668Y-83802561D01*
X160374287Y-84415713D02*
X149887873Y-84415713D01*
X145454999Y-84025001D02*
X145280000Y-84200000D01*
X149283527Y-83811364D02*
X148510471Y-83811364D01*
X149702172Y-84230012D02*
X149283527Y-83811364D01*
X149887873Y-84415713D02*
X149702172Y-84230012D01*
X145677439Y-83802561D02*
X145454999Y-84025001D01*
X161880000Y-82910000D02*
X160374287Y-84415713D01*
X161880000Y-82270000D02*
X161880000Y-82910000D01*
X162680000Y-82910000D02*
X162680000Y-82270000D01*
X148379161Y-84128375D02*
X149152218Y-84128375D01*
X148370358Y-84119572D02*
X148379161Y-84128375D01*
X149756563Y-84732724D02*
X160857276Y-84732724D01*
X146407915Y-84119572D02*
X148370358Y-84119572D01*
X146327487Y-84200000D02*
X146407915Y-84119572D01*
X160857276Y-84732724D02*
X162680000Y-82910000D01*
X146080000Y-84200000D02*
X146327487Y-84200000D01*
X149152218Y-84128375D02*
X149756563Y-84732724D01*
X170680000Y-83287452D02*
X170680000Y-82910000D01*
X167332662Y-86634790D02*
X170680000Y-83287452D01*
X145680000Y-87000000D02*
X146364204Y-87000000D01*
X146729414Y-86634790D02*
X167332662Y-86634790D01*
X146364204Y-87000000D02*
X146729414Y-86634790D01*
X145280000Y-87400000D02*
X145680000Y-87000000D01*
X170680000Y-82910000D02*
X170680000Y-82270000D01*
X159480000Y-93330000D02*
X159480000Y-94826632D01*
X159480000Y-94826632D02*
X158170991Y-96135641D01*
X158170991Y-96135641D02*
X150880781Y-96135641D01*
X150880781Y-96135641D02*
X150745911Y-96270511D01*
X150745911Y-96270511D02*
X150518912Y-96497510D01*
X144811264Y-86268736D02*
X144901285Y-86268736D01*
X144480000Y-86600000D02*
X144811264Y-86268736D01*
X147727616Y-84436583D02*
X148340768Y-85049735D01*
X164280000Y-82910000D02*
X164280000Y-82270000D01*
X148340768Y-85049735D02*
X162140265Y-85049735D01*
X147070550Y-84597001D02*
X147230968Y-84436583D01*
X145682999Y-84597001D02*
X147070550Y-84597001D01*
X145280000Y-85000000D02*
X145682999Y-84597001D01*
X162140265Y-85049735D02*
X164280000Y-82910000D01*
X147230968Y-84436583D02*
X147727616Y-84436583D01*
X171480000Y-82910000D02*
X171480000Y-82270000D01*
X171480000Y-82940475D02*
X171480000Y-82910000D01*
X146860724Y-86951801D02*
X167468674Y-86951801D01*
X146080000Y-87400000D02*
X146412525Y-87400000D01*
X146412525Y-87400000D02*
X146860724Y-86951801D01*
X167468674Y-86951801D02*
X171480000Y-82940475D01*
X173880000Y-92829510D02*
X173880000Y-93330000D01*
X169904357Y-88853867D02*
X173880000Y-92829510D01*
X149765006Y-88853867D02*
X169904357Y-88853867D01*
X146467051Y-89800000D02*
X146886184Y-89380867D01*
X146886184Y-89380867D02*
X149238007Y-89380867D01*
X146080000Y-89800000D02*
X146467051Y-89800000D01*
X149238007Y-89380867D02*
X149765006Y-88853867D01*
X145280000Y-90600000D02*
X145678604Y-90201396D01*
X149896316Y-89170878D02*
X169596075Y-89170878D01*
X145678604Y-90201396D02*
X146899881Y-90201396D01*
X169596075Y-89170878D02*
X173080000Y-92654803D01*
X146923365Y-90224880D02*
X148842314Y-90224880D01*
X148842314Y-90224880D02*
X149896316Y-89170878D01*
X146899881Y-90201396D02*
X146923365Y-90224880D01*
X173080000Y-92654803D02*
X173080000Y-92690000D01*
X173080000Y-92690000D02*
X173080000Y-93330000D01*
X172280000Y-92690000D02*
X172280000Y-93330000D01*
X150027626Y-89487889D02*
X169077889Y-89487889D01*
X148961140Y-90554375D02*
X150027626Y-89487889D01*
X146327487Y-90600000D02*
X146373112Y-90554375D01*
X169077889Y-89487889D02*
X172280000Y-92690000D01*
X146080000Y-90600000D02*
X146327487Y-90600000D01*
X146373112Y-90554375D02*
X148961140Y-90554375D01*
X150424860Y-95786258D02*
X150197861Y-96013257D01*
X156365663Y-95676907D02*
X150534211Y-95676907D01*
X157880000Y-94162570D02*
X156365663Y-95676907D01*
X157880000Y-93330000D02*
X157880000Y-94162570D01*
X150534211Y-95676907D02*
X150424860Y-95786258D01*
X144886183Y-86993817D02*
X144888562Y-86993817D01*
X144480000Y-87400000D02*
X144886183Y-86993817D01*
X157080000Y-94514249D02*
X156234353Y-95359896D01*
X150439895Y-95359896D02*
X150299034Y-95219035D01*
X157080000Y-93330000D02*
X157080000Y-94514249D01*
X156234353Y-95359896D02*
X150439895Y-95359896D01*
X150299034Y-95219035D02*
X150072035Y-95446034D01*
X144877648Y-88597648D02*
X144877648Y-88622010D01*
X144480000Y-88200000D02*
X144877648Y-88597648D01*
X144480000Y-89000000D02*
X144657990Y-89177990D01*
X144657990Y-89177990D02*
X144810610Y-89177990D01*
X150100267Y-94944191D02*
X149779241Y-94944191D01*
X150218511Y-94825947D02*
X150100267Y-94944191D01*
X155031091Y-94825947D02*
X150218511Y-94825947D01*
X155480000Y-94377038D02*
X155031091Y-94825947D01*
X155480000Y-93330000D02*
X155480000Y-94377038D01*
X144480000Y-91400000D02*
X144895773Y-91815773D01*
X144895773Y-91815773D02*
X144895773Y-91874444D01*
X165880000Y-93330000D02*
X165880000Y-92690000D01*
X165213977Y-92023977D02*
X151078106Y-92023977D01*
X151078106Y-92023977D02*
X150011620Y-93090463D01*
X148754539Y-93090463D02*
X148153997Y-93691005D01*
X150011620Y-93090463D02*
X148754539Y-93090463D01*
X165880000Y-92690000D02*
X165213977Y-92023977D01*
X148098739Y-93691005D02*
X147777713Y-93691005D01*
X148153997Y-93691005D02*
X148098739Y-93691005D01*
X150552866Y-90755933D02*
X167145933Y-90755933D01*
X147079971Y-92443327D02*
X147136930Y-92443327D01*
X167145933Y-90755933D02*
X169080000Y-92690000D01*
X145680000Y-92600000D02*
X146923298Y-92600000D01*
X147757838Y-91822419D02*
X149486380Y-91822419D01*
X149486380Y-91822419D02*
X150552866Y-90755933D01*
X145280000Y-93000000D02*
X145680000Y-92600000D01*
X169080000Y-92690000D02*
X169080000Y-93330000D01*
X146923298Y-92600000D02*
X147079971Y-92443327D01*
X147136930Y-92443327D02*
X147757838Y-91822419D01*
X150684176Y-91072944D02*
X166662944Y-91072944D01*
X147211281Y-92760338D02*
X147268239Y-92760338D01*
X166662944Y-91072944D02*
X168280000Y-92690000D01*
X149617690Y-92139430D02*
X150684176Y-91072944D01*
X146080000Y-93000000D02*
X146971619Y-93000000D01*
X147268239Y-92760338D02*
X147889147Y-92139430D01*
X147889147Y-92139430D02*
X149617690Y-92139430D01*
X168280000Y-92690000D02*
X168280000Y-93330000D01*
X146971619Y-93000000D02*
X147211281Y-92760338D01*
X146080000Y-85000000D02*
X146446746Y-85366746D01*
X166680000Y-82910000D02*
X166680000Y-82270000D01*
X164223254Y-85366746D02*
X166680000Y-82910000D01*
X146446746Y-85366746D02*
X164223254Y-85366746D01*
X167480000Y-93330000D02*
X167480000Y-92690000D01*
X167480000Y-92690000D02*
X166179955Y-91389955D01*
X149749000Y-92456441D02*
X148020457Y-92456441D01*
X148020457Y-92456441D02*
X147399581Y-93077317D01*
X166179955Y-91389955D02*
X150815486Y-91389955D01*
X147399581Y-93077317D02*
X147399581Y-93209136D01*
X150815486Y-91389955D02*
X149749000Y-92456441D01*
X143680000Y-92200000D02*
X144080000Y-92600000D01*
X144080000Y-92600000D02*
X144102010Y-92600000D01*
X166680000Y-93330000D02*
X166680000Y-92690000D01*
X166680000Y-92690000D02*
X165696966Y-91706966D01*
X165696966Y-91706966D02*
X150946796Y-91706966D01*
X150946796Y-91706966D02*
X149880310Y-92773452D01*
X149880310Y-92773452D02*
X148367970Y-92773452D01*
X148367970Y-92773452D02*
X148217902Y-92923520D01*
X148217902Y-92923520D02*
X147990903Y-93150519D01*
X144857990Y-92577990D02*
X144882352Y-92577990D01*
X144480000Y-92200000D02*
X144857990Y-92577990D01*
X131680000Y-94600000D02*
X130825859Y-95454141D01*
X130825859Y-95454141D02*
X130807074Y-95454141D01*
X131280000Y-93400000D02*
X130420131Y-93400000D01*
X130420131Y-93400000D02*
X130406854Y-93413277D01*
X130406854Y-93413277D02*
X130124012Y-93413277D01*
X131680000Y-93800000D02*
X131280000Y-93400000D01*
X132080000Y-93400000D02*
X132480000Y-93000000D01*
X129616186Y-92097469D02*
X129279152Y-92434503D01*
X129279152Y-92434503D02*
X129279152Y-92933828D01*
X129279152Y-92933828D02*
X129279152Y-93216670D01*
X131680000Y-91400000D02*
X131280000Y-91800000D01*
X131280000Y-91800000D02*
X130154875Y-91800000D01*
X130154875Y-91800000D02*
X129857406Y-92097469D01*
X129857406Y-92097469D02*
X129616186Y-92097469D01*
X133918729Y-96038729D02*
X133919980Y-96038729D01*
X132480000Y-94600000D02*
X133918729Y-96038729D01*
X132480000Y-96291045D02*
X132572818Y-96383863D01*
X132480000Y-95400000D02*
X132480000Y-96291045D01*
X132480000Y-93800000D02*
X132080000Y-94200000D01*
X129446562Y-91286937D02*
X129736412Y-90997087D01*
X135877379Y-99234979D02*
X130656664Y-99234979D01*
X129736412Y-90997087D02*
X131282913Y-90997087D01*
X128223976Y-96802291D02*
X128223976Y-93666878D01*
X128550166Y-91286937D02*
X129446562Y-91286937D01*
X130656664Y-99234979D02*
X128223976Y-96802291D01*
X128223128Y-93666030D02*
X128223128Y-91613975D01*
X137280000Y-100637600D02*
X135877379Y-99234979D01*
X137280000Y-100790000D02*
X137280000Y-100637600D01*
X128223976Y-93666878D02*
X128223128Y-93666030D01*
X131505001Y-90774999D02*
X131680000Y-90600000D01*
X131282913Y-90997087D02*
X131505001Y-90774999D01*
X128223128Y-91613975D02*
X128550166Y-91286937D01*
X127906965Y-93798188D02*
X127906117Y-93797340D01*
X130632513Y-90600000D02*
X130880000Y-90600000D01*
X134740000Y-100637600D02*
X133654390Y-99551990D01*
X127906117Y-93797340D02*
X127906117Y-91467904D01*
X129315252Y-90969926D02*
X129685178Y-90600000D01*
X127906117Y-91467904D02*
X128404095Y-90969926D01*
X127906965Y-96933601D02*
X127906965Y-93798188D01*
X130525354Y-99551990D02*
X127906965Y-96933601D01*
X133654390Y-99551990D02*
X130525354Y-99551990D01*
X134740000Y-100790000D02*
X134740000Y-100637600D01*
X129685178Y-90600000D02*
X130632513Y-90600000D01*
X128404095Y-90969926D02*
X129315252Y-90969926D01*
X128272785Y-90652915D02*
X127589106Y-91336594D01*
X129183943Y-90652915D02*
X128272785Y-90652915D01*
X131277001Y-90202999D02*
X129633859Y-90202999D01*
X127589106Y-91336594D02*
X127589106Y-93928650D01*
X131146400Y-100790000D02*
X132200000Y-100790000D01*
X127589954Y-97233554D02*
X131146400Y-100790000D01*
X127589106Y-93928650D02*
X127589954Y-93929498D01*
X129633859Y-90202999D02*
X129183943Y-90652915D01*
X131680000Y-89800000D02*
X131277001Y-90202999D01*
X127589954Y-93929498D02*
X127589954Y-97233554D01*
X129683501Y-84307695D02*
X128984044Y-84307695D01*
X129791196Y-84200000D02*
X129683501Y-84307695D01*
X130880000Y-84200000D02*
X129791196Y-84200000D01*
X128984044Y-84307695D02*
X128701202Y-84307695D01*
X130839486Y-103354982D02*
X129946545Y-103354982D01*
X128921323Y-90018893D02*
X129334585Y-89605631D01*
X126955932Y-100364369D02*
X126955932Y-94192118D01*
X126955084Y-91073974D02*
X128010165Y-90018893D01*
X129946545Y-103354982D02*
X126955932Y-100364369D01*
X128010165Y-90018893D02*
X128921323Y-90018893D01*
X129334585Y-89605631D02*
X129334585Y-89482640D01*
X126955932Y-94192118D02*
X126955084Y-94191270D01*
X126955084Y-94191270D02*
X126955084Y-91073974D01*
X132080000Y-89400000D02*
X132080000Y-89444020D01*
X132480000Y-89000000D02*
X132080000Y-89400000D01*
X128402802Y-103672538D02*
X128602801Y-103872537D01*
X126638073Y-90942664D02*
X126638073Y-94322580D01*
X127878855Y-89701882D02*
X126638073Y-90942664D01*
X126638073Y-94322580D02*
X126638921Y-94323428D01*
X128912575Y-89187422D02*
X128912575Y-89482442D01*
X126638921Y-101908657D02*
X128402802Y-103672538D01*
X130632513Y-89000000D02*
X130571884Y-89060629D01*
X128912575Y-89482442D02*
X128693135Y-89701882D01*
X130880000Y-89000000D02*
X130632513Y-89000000D01*
X128693135Y-89701882D02*
X127878855Y-89701882D01*
X130571884Y-89060629D02*
X129039368Y-89060629D01*
X129039368Y-89060629D02*
X128912575Y-89187422D01*
X126638921Y-94323428D02*
X126638921Y-101908657D01*
X128490573Y-89279880D02*
X128388262Y-89382191D01*
X127750225Y-89382191D02*
X126321062Y-90811354D01*
X132206309Y-106143233D02*
X132373350Y-105976192D01*
X128388262Y-89382191D02*
X127750225Y-89382191D01*
X126321062Y-90811354D02*
X126321062Y-94453890D01*
X126321062Y-94453890D02*
X126321910Y-94454738D01*
X126321910Y-94454738D02*
X126321910Y-103288034D01*
X126321910Y-103288034D02*
X129177109Y-106143233D01*
X132373350Y-105976192D02*
X132656192Y-105976192D01*
X129177109Y-106143233D02*
X132206309Y-106143233D01*
X133280000Y-88200000D02*
X132880000Y-88600000D01*
X125486323Y-104750193D02*
X125486323Y-94184585D01*
X127533596Y-88312067D02*
X127816438Y-88312067D01*
X125486323Y-94184585D02*
X125088271Y-93786533D01*
X125088271Y-90306217D02*
X127082421Y-88312067D01*
X125088271Y-93786533D02*
X125088271Y-90306217D01*
X124253981Y-105982535D02*
X125486323Y-104750193D01*
X127082421Y-88312067D02*
X127533596Y-88312067D01*
X132480000Y-87400000D02*
X132080000Y-87000000D01*
X127609074Y-89065180D02*
X125827283Y-90846971D01*
X128435345Y-88738295D02*
X128108460Y-89065180D01*
X125827283Y-90846971D02*
X125827283Y-93169820D01*
X128108460Y-89065180D02*
X127609074Y-89065180D01*
X129939114Y-88738295D02*
X128435345Y-88738295D01*
X130077613Y-88599796D02*
X129939114Y-88738295D01*
X131280204Y-88599796D02*
X130077613Y-88599796D01*
X131680000Y-88200000D02*
X131280204Y-88599796D01*
X125827283Y-93169820D02*
X125827283Y-93452662D01*
X127094640Y-88748169D02*
X125405282Y-90437527D01*
X133280000Y-87400000D02*
X132880000Y-87800000D01*
X129807804Y-88421284D02*
X128304035Y-88421284D01*
X124550876Y-107207639D02*
X124485260Y-107207639D01*
X124485260Y-107207639D02*
X124202418Y-107207639D01*
X128304035Y-88421284D02*
X127977150Y-88748169D01*
X125405282Y-90437527D02*
X125405282Y-93635324D01*
X132880000Y-87800000D02*
X130429087Y-87800000D01*
X125803334Y-105955181D02*
X124550876Y-107207639D01*
X125405282Y-93635324D02*
X125803334Y-94033376D01*
X125803334Y-94033376D02*
X125803334Y-105955181D01*
X130429087Y-87800000D02*
X129807804Y-88421284D01*
X127977150Y-88748169D02*
X127094640Y-88748169D01*
X140513619Y-73234097D02*
X140480000Y-73200478D01*
X140480000Y-71590000D02*
X140480000Y-70600000D01*
X140305001Y-80025001D02*
X140305001Y-75399563D01*
X140480000Y-73200478D02*
X140480000Y-71590000D01*
X140480000Y-80200000D02*
X140305001Y-80025001D01*
X140305001Y-75399563D02*
X140513619Y-75190945D01*
X140513619Y-75190945D02*
X140513619Y-73234097D01*
X139680000Y-80200000D02*
X139680000Y-73791866D01*
X139452798Y-73564664D02*
X139225799Y-73337665D01*
X139680000Y-73791866D02*
X139452798Y-73564664D01*
X140980000Y-73341867D02*
X141029139Y-73391006D01*
X140980000Y-70600000D02*
X140980000Y-73341867D01*
X140962491Y-78401824D02*
X141280000Y-78719333D01*
X140962491Y-77596305D02*
X140962491Y-78401824D01*
X141726521Y-76249966D02*
X141921917Y-76445362D01*
X141280000Y-79952513D02*
X141280000Y-80200000D01*
X141280000Y-78719333D02*
X141280000Y-79952513D01*
X141726521Y-72569627D02*
X141726521Y-76249966D01*
X141921917Y-76445362D02*
X141921917Y-76636879D01*
X141921917Y-76636879D02*
X140962491Y-77596305D01*
X141480000Y-70600000D02*
X141480000Y-72323106D01*
X141480000Y-72323106D02*
X141726521Y-72569627D01*
X142238928Y-76066746D02*
X142238928Y-76768189D01*
X141795600Y-78294569D02*
X141795600Y-78615507D01*
X141849902Y-78042785D02*
X141849902Y-78240267D01*
X142238928Y-76768189D02*
X141740988Y-77266129D01*
X142480000Y-70600000D02*
X142480000Y-75003838D01*
X141795600Y-78615507D02*
X141678144Y-78732963D01*
X141678144Y-78732963D02*
X141678144Y-81401856D01*
X141454999Y-81625001D02*
X141280000Y-81800000D01*
X141849902Y-78240267D02*
X141795600Y-78294569D01*
X141678144Y-81401856D02*
X141454999Y-81625001D01*
X142043532Y-75440306D02*
X142043532Y-75871350D01*
X141740988Y-77266129D02*
X141740988Y-77933871D01*
X142043532Y-75871350D02*
X142238928Y-76066746D01*
X142480000Y-75003838D02*
X142043532Y-75440306D01*
X141740988Y-77933871D02*
X141849902Y-78042785D01*
X142980000Y-75478770D02*
X142980000Y-72199160D01*
X143224854Y-75723624D02*
X142980000Y-75478770D01*
X142682561Y-78022001D02*
X142902001Y-77802561D01*
X142880000Y-79412689D02*
X142429622Y-78962311D01*
X142429622Y-78557189D02*
X142682561Y-78304250D01*
X142902001Y-77802561D02*
X142902001Y-77583836D01*
X142970700Y-71599300D02*
X142980000Y-71590000D01*
X142980000Y-72199160D02*
X142970700Y-72189860D01*
X142902001Y-77583836D02*
X143224854Y-77260983D01*
X142682561Y-78304250D02*
X142682561Y-78022001D01*
X142880000Y-80200000D02*
X142880000Y-79412689D01*
X142980000Y-71590000D02*
X142980000Y-70600000D01*
X143224854Y-77260983D02*
X143224854Y-75723624D01*
X142970700Y-72189860D02*
X142970700Y-71599300D01*
X142429622Y-78962311D02*
X142429622Y-78557189D01*
X142481747Y-80601747D02*
X142481747Y-79462757D01*
X142166913Y-78371577D02*
X142166913Y-77911475D01*
X142057999Y-77802561D02*
X142057999Y-77397439D01*
X142880000Y-81000000D02*
X142481747Y-80601747D01*
X142057999Y-77397439D02*
X142719533Y-76735905D01*
X142112611Y-79093621D02*
X142112611Y-78425879D01*
X142112611Y-78425879D02*
X142166913Y-78371577D01*
X142166913Y-77911475D02*
X142057999Y-77802561D01*
X142481747Y-79462757D02*
X142112611Y-79093621D01*
X142719533Y-76735905D02*
X142719533Y-75882827D01*
X143980000Y-74168361D02*
X143752586Y-74395775D01*
X143980000Y-70600000D02*
X143980000Y-74168361D01*
X143752586Y-74395775D02*
X143525587Y-74622774D01*
X142719533Y-75882827D02*
X142492534Y-75655828D01*
X144749556Y-77877108D02*
X143759349Y-78867315D01*
X143759349Y-79873164D02*
X143680000Y-79952513D01*
X143680000Y-79952513D02*
X143680000Y-80200000D01*
X144480000Y-70600000D02*
X144480000Y-72345795D01*
X144480000Y-72345795D02*
X144749556Y-72615351D01*
X144749556Y-72615351D02*
X144749556Y-77877108D01*
X143759349Y-78867315D02*
X143759349Y-79873164D01*
X145752930Y-74461370D02*
X145066567Y-75147733D01*
X145066567Y-75147733D02*
X145066567Y-78115651D01*
X145480000Y-73005975D02*
X145752930Y-73278905D01*
X145066567Y-78115651D02*
X144076359Y-79105859D01*
X145752930Y-73278905D02*
X145752930Y-74461370D01*
X145480000Y-70600000D02*
X145480000Y-73005975D01*
X144080000Y-80449943D02*
X144480000Y-80849943D01*
X144480000Y-80849943D02*
X144480000Y-81000000D01*
X144080000Y-79109500D02*
X144080000Y-80449943D01*
X144076359Y-79105859D02*
X144080000Y-79109500D01*
X144076359Y-79105859D02*
X144077001Y-79106501D01*
X146025720Y-74636901D02*
X146069941Y-74592680D01*
X146069941Y-71679941D02*
X145980000Y-71590000D01*
X144480000Y-80200000D02*
X144480000Y-79227460D01*
X144480000Y-79227460D02*
X146025720Y-77681740D01*
X146069941Y-74592680D02*
X146069941Y-71679941D01*
X145980000Y-71590000D02*
X145980000Y-70600000D01*
X146025720Y-77681740D02*
X146025720Y-74636901D01*
X145980000Y-70600000D02*
X145970211Y-70600000D01*
X145280000Y-81000000D02*
X147040114Y-79239886D01*
X147040114Y-70660114D02*
X146980000Y-70600000D01*
X147040114Y-79239886D02*
X147040114Y-70660114D01*
X135680000Y-81552513D02*
X135616712Y-81489225D01*
X135616712Y-81489225D02*
X135567436Y-81489225D01*
X135680000Y-81800000D02*
X135680000Y-81552513D01*
X134880000Y-81800000D02*
X134471354Y-81391354D01*
X134471354Y-81391354D02*
X134471354Y-81347908D01*
X132762490Y-77201355D02*
X132761172Y-77202673D01*
X134880000Y-81000000D02*
X134480099Y-80600099D01*
X132798256Y-77201355D02*
X132762490Y-77201355D01*
X133403202Y-77806301D02*
X132798256Y-77201355D01*
X134480099Y-79265604D02*
X133403202Y-78188707D01*
X133403202Y-78188707D02*
X133403202Y-77806301D01*
X134480099Y-80600099D02*
X134480099Y-79265604D01*
X134880000Y-78195200D02*
X133361007Y-76676207D01*
X134880000Y-80200000D02*
X134880000Y-78195200D01*
X133361007Y-76676207D02*
X133020087Y-76676207D01*
X133020087Y-76676207D02*
X132737245Y-76676207D01*
X131788503Y-76852273D02*
X129169870Y-76852273D01*
X131960745Y-77025490D02*
X131960745Y-77024515D01*
X134080000Y-80200000D02*
X134080000Y-79313826D01*
X134080000Y-79313826D02*
X133086191Y-78320017D01*
X133086191Y-78320017D02*
X133086191Y-78150936D01*
X133086191Y-78150936D02*
X131960745Y-77025490D01*
X131960745Y-77024515D02*
X131788503Y-76852273D01*
X129169870Y-76852273D02*
X128745565Y-77276578D01*
X128745565Y-77276578D02*
X128545566Y-77476577D01*
X131729266Y-78006854D02*
X131043025Y-77320613D01*
X128748128Y-77898579D02*
X128509436Y-77898579D01*
X128509436Y-77898579D02*
X127643658Y-78764357D01*
X129326094Y-77320613D02*
X128748128Y-77898579D01*
X132045468Y-78006854D02*
X131729266Y-78006854D01*
X132452169Y-78413555D02*
X132045468Y-78006854D01*
X132452169Y-78582637D02*
X132452169Y-78413555D01*
X133280000Y-79410468D02*
X132452169Y-78582637D01*
X127643658Y-78764357D02*
X127643658Y-79072722D01*
X127643658Y-79072722D02*
X127643658Y-79355564D01*
X133280000Y-80200000D02*
X133280000Y-79410468D01*
X131043025Y-77320613D02*
X129326094Y-77320613D01*
X128798739Y-78994176D02*
X128515897Y-78994176D01*
X129386316Y-78994176D02*
X128798739Y-78994176D01*
X130880000Y-81000000D02*
X130705001Y-80825001D01*
X130705001Y-80312861D02*
X129386316Y-78994176D01*
X130705001Y-80825001D02*
X130705001Y-80312861D01*
X128852569Y-78469921D02*
X128569727Y-78469921D01*
X129949921Y-78469921D02*
X128852569Y-78469921D01*
X131680000Y-80200000D02*
X129949921Y-78469921D01*
X131440932Y-78323865D02*
X131430909Y-78313842D01*
X133280000Y-81000000D02*
X132877001Y-80597001D01*
X132877001Y-80597001D02*
X132877001Y-79455789D01*
X132877001Y-79455789D02*
X132135158Y-78713947D01*
X132135158Y-78713947D02*
X132135158Y-78544866D01*
X132135158Y-78544866D02*
X131914158Y-78323865D01*
X131914158Y-78323865D02*
X131440932Y-78323865D01*
X131430909Y-78313842D02*
X131230910Y-78113843D01*
D46*
X132879993Y-81399993D02*
X132783332Y-81399993D01*
X133280000Y-81800000D02*
X132879993Y-81399993D01*
D45*
X132102010Y-83022010D02*
X132084821Y-83022010D01*
X132480000Y-83400000D02*
X132102010Y-83022010D01*
X133280000Y-84200000D02*
X132886504Y-83806504D01*
X132886504Y-83806504D02*
X132886504Y-83777990D01*
D46*
X132146021Y-83866021D02*
X132117443Y-83866021D01*
X132480000Y-84200000D02*
X132146021Y-83866021D01*
X132079996Y-84599996D02*
X132079996Y-84503337D01*
X132480000Y-85000000D02*
X132079996Y-84599996D01*
X133675200Y-84595200D02*
X133671942Y-84595200D01*
X134080000Y-85000000D02*
X133675200Y-84595200D01*
X132908138Y-85428138D02*
X132875802Y-85428138D01*
X133280000Y-85800000D02*
X132908138Y-85428138D01*
D45*
X144082999Y-94790561D02*
X144295437Y-95002999D01*
X143680000Y-93000000D02*
X144082999Y-93402999D01*
X144295437Y-95002999D02*
X145569027Y-95002999D01*
X145569027Y-95002999D02*
X146862501Y-96296473D01*
X146862501Y-96296473D02*
X146862501Y-96617499D01*
X144082999Y-93402999D02*
X144082999Y-94790561D01*
X183406401Y-105006401D02*
X184270000Y-105870000D01*
X179287017Y-105006401D02*
X183406401Y-105006401D01*
X177785000Y-103504384D02*
X179287017Y-105006401D01*
X177785000Y-102605000D02*
X177785000Y-103504384D01*
X178285000Y-102605000D02*
X178285000Y-103556063D01*
X178285000Y-103556063D02*
X179328937Y-104600000D01*
X179328937Y-104600000D02*
X185540000Y-104600000D01*
X185540000Y-104600000D02*
X186810000Y-105870000D01*
X147534467Y-95592234D02*
X147534467Y-95913260D01*
X144480000Y-93000000D02*
X144880000Y-93400000D01*
X144880000Y-93400000D02*
X146280000Y-93400000D01*
X147534467Y-94654467D02*
X147534467Y-95592234D01*
X146280000Y-93400000D02*
X147534467Y-94654467D01*
X178785000Y-102605000D02*
X178785000Y-102880000D01*
X178785000Y-102880000D02*
X179235000Y-103330000D01*
X179235000Y-103330000D02*
X183048686Y-103330000D01*
X183048686Y-103330000D02*
X184270000Y-103330000D01*
X143280000Y-91000000D02*
X142880000Y-90600000D01*
X179735000Y-101655000D02*
X180010000Y-101655000D01*
X180010000Y-101655000D02*
X180350000Y-101995000D01*
X185475000Y-101995000D02*
X185946401Y-102466401D01*
X180350000Y-101995000D02*
X185475000Y-101995000D01*
X185946401Y-102466401D02*
X186810000Y-103330000D01*
X144012858Y-90132858D02*
X144082424Y-90132858D01*
X143680000Y-89800000D02*
X144012858Y-90132858D01*
X143857990Y-89177990D02*
X143989948Y-89177990D01*
X143680000Y-89000000D02*
X143857990Y-89177990D01*
X179735000Y-101155000D02*
X183905000Y-101155000D01*
X183905000Y-101155000D02*
X184270000Y-100790000D01*
X179735000Y-100655000D02*
X182460641Y-100655000D01*
X182460641Y-100655000D02*
X183411242Y-99704399D01*
X183411242Y-99704399D02*
X185724399Y-99704399D01*
X185724399Y-99704399D02*
X185946401Y-99926401D01*
X185946401Y-99926401D02*
X186810000Y-100790000D01*
X143281824Y-90201824D02*
X143281824Y-90201951D01*
X142880000Y-89800000D02*
X143281824Y-90201824D01*
X143680000Y-85800000D02*
X144082781Y-85397219D01*
X144082781Y-85397219D02*
X144102010Y-85397219D01*
X144480000Y-85800000D02*
X144886544Y-85393456D01*
X144886544Y-85393456D02*
X144886544Y-85385186D01*
X143680000Y-83400000D02*
X144080000Y-83000000D01*
X144080000Y-83000000D02*
X144102010Y-83000000D01*
X144480000Y-82600000D02*
X144885092Y-82194908D01*
X144885092Y-82194908D02*
X144885092Y-82177990D01*
X179735000Y-100155000D02*
X180350000Y-100155000D01*
X180350000Y-100155000D02*
X182255000Y-98250000D01*
X182255000Y-98250000D02*
X183048686Y-98250000D01*
X183048686Y-98250000D02*
X184270000Y-98250000D01*
X144064510Y-88584510D02*
X144082832Y-88584510D01*
X143680000Y-88200000D02*
X144064510Y-88584510D01*
X179735000Y-99655000D02*
X180350000Y-99655000D01*
X180350000Y-99655000D02*
X182840601Y-97164399D01*
X182840601Y-97164399D02*
X185724399Y-97164399D01*
X185724399Y-97164399D02*
X185946401Y-97386401D01*
X185946401Y-97386401D02*
X186810000Y-98250000D01*
X143275030Y-88595030D02*
X143278026Y-88595030D01*
X142880000Y-88200000D02*
X143275030Y-88595030D01*
X144094400Y-82185600D02*
X144102010Y-82185600D01*
X143680000Y-82600000D02*
X144094400Y-82185600D01*
X144866392Y-81413608D02*
X144866392Y-81333979D01*
X144480000Y-81800000D02*
X144866392Y-81413608D01*
X139280000Y-81400000D02*
X138880000Y-81800000D01*
X139280000Y-80600000D02*
X139280000Y-79226654D01*
X139280000Y-79226654D02*
X139145358Y-79092012D01*
X139145358Y-79092012D02*
X139145358Y-78809170D01*
X138880000Y-81000000D02*
X139280000Y-80600000D01*
X138705001Y-78652713D02*
X139040624Y-78317090D01*
X138880000Y-80200000D02*
X138705001Y-80025001D01*
X138705001Y-80025001D02*
X138705001Y-78652713D01*
X139040624Y-78317090D02*
X139040624Y-78036724D01*
X138723613Y-77448547D02*
X138723613Y-77165705D01*
X138618614Y-77553546D02*
X138723613Y-77448547D01*
X138618614Y-78290780D02*
X138618614Y-77553546D01*
X138324163Y-78585230D02*
X138618614Y-78290780D01*
X138080000Y-80200000D02*
X138324163Y-79955837D01*
X138324163Y-79955837D02*
X138324163Y-78585230D01*
X137690141Y-78322610D02*
X137984592Y-78028160D01*
X138380726Y-75840437D02*
X138663568Y-75840437D01*
X137920323Y-76713094D02*
X137920323Y-76300840D01*
X137984592Y-76777363D02*
X137920323Y-76713094D01*
X137984592Y-78028160D02*
X137984592Y-76777363D01*
X137690141Y-78916853D02*
X137690141Y-78322610D01*
X137280000Y-79326994D02*
X137690141Y-78916853D01*
X137280000Y-80200000D02*
X137280000Y-79326994D01*
X137920323Y-76300840D02*
X138380726Y-75840437D01*
X138301603Y-76840356D02*
X138516106Y-76625853D01*
X138301603Y-78159470D02*
X138301603Y-76840356D01*
X137682630Y-79372684D02*
X138007152Y-79048163D01*
X138080000Y-81000000D02*
X137682630Y-80602630D01*
X138516106Y-76625853D02*
X138716105Y-76425854D01*
X138007152Y-79048163D02*
X138007152Y-78453920D01*
X137682630Y-80602630D02*
X137682630Y-79372684D01*
X138007152Y-78453920D02*
X138301603Y-78159470D01*
X137680000Y-81400000D02*
X138080000Y-81800000D01*
X136880000Y-80600000D02*
X136880000Y-79278673D01*
X137373130Y-78191301D02*
X137667581Y-77896850D01*
X137667581Y-77896850D02*
X137667581Y-76962634D01*
X136880000Y-79278673D02*
X137373130Y-78785543D01*
X137373130Y-78785543D02*
X137373130Y-78191301D01*
X137667581Y-76962634D02*
X137498321Y-76793374D01*
X137498321Y-76793374D02*
X137498321Y-76510532D01*
X137280000Y-81000000D02*
X136880000Y-80600000D01*
X137316015Y-77174739D02*
X137116016Y-76974740D01*
X136480000Y-80200000D02*
X136480000Y-79230352D01*
X137350570Y-77209294D02*
X137316015Y-77174739D01*
X136480000Y-79230352D02*
X137056119Y-78654233D01*
X137056119Y-78654233D02*
X137056119Y-78059991D01*
X137056119Y-78059991D02*
X137350570Y-77765540D01*
X137350570Y-77765540D02*
X137350570Y-77209294D01*
X135680000Y-80200000D02*
X135680000Y-78528704D01*
X135680000Y-78528704D02*
X136645726Y-77562978D01*
X136645726Y-77562978D02*
X136928568Y-77562978D01*
X136077561Y-80597561D02*
X136077561Y-79008229D01*
X136077561Y-79008229D02*
X136434119Y-78651671D01*
X136434119Y-78651671D02*
X136634118Y-78451672D01*
X136480000Y-81000000D02*
X136077561Y-80597561D01*
X136424796Y-81497309D02*
X136411444Y-81497309D01*
X136480000Y-81800000D02*
X136480000Y-81552513D01*
X136480000Y-81552513D02*
X136424796Y-81497309D01*
X144480000Y-85000000D02*
X144877691Y-84602309D01*
X144877691Y-84602309D02*
X144877691Y-84532933D01*
X144080000Y-83800000D02*
X144102010Y-83800000D01*
X143680000Y-84200000D02*
X144080000Y-83800000D01*
X142473549Y-83006451D02*
X142473549Y-82998913D01*
X142080000Y-83400000D02*
X142473549Y-83006451D01*
X142080000Y-82600000D02*
X142396423Y-82283577D01*
X142396423Y-82283577D02*
X142396423Y-82191394D01*
X144105216Y-81374784D02*
X144146021Y-81374784D01*
X143680000Y-81800000D02*
X144105216Y-81374784D01*
X143271122Y-80582320D02*
X143282999Y-80570443D01*
X143282999Y-80570443D02*
X143282999Y-78863039D01*
X143282999Y-78863039D02*
X143531796Y-78614242D01*
X143531796Y-78614242D02*
X143531796Y-78019456D01*
X143531796Y-78019456D02*
X143331797Y-77819457D01*
X143271122Y-80582320D02*
X143271122Y-80591122D01*
X143271122Y-80591122D02*
X143680000Y-81000000D01*
X143285964Y-80597162D02*
X143271122Y-80582320D01*
X143257990Y-82222010D02*
X143257990Y-82207154D01*
X142880000Y-82600000D02*
X143257990Y-82222010D01*
X142880000Y-81800000D02*
X143257990Y-81422010D01*
X143257990Y-81422010D02*
X143257990Y-81379632D01*
X142080000Y-81800000D02*
X141749655Y-82130345D01*
X141749655Y-82130345D02*
X141657990Y-82130345D01*
X142413979Y-81333979D02*
X142413979Y-81382236D01*
X142080000Y-81000000D02*
X142413979Y-81333979D01*
X140480000Y-81800000D02*
X140080000Y-82200000D01*
X141206988Y-76754995D02*
X141406987Y-76554996D01*
X140645480Y-77316503D02*
X141206988Y-76754995D01*
X140878407Y-80601593D02*
X140878407Y-78766061D01*
X140480000Y-81000000D02*
X140878407Y-80601593D01*
X140878407Y-78766061D02*
X140645480Y-78533134D01*
X140645480Y-78533134D02*
X140645480Y-77316503D01*
X140838597Y-83041403D02*
X140864029Y-83041403D01*
X140480000Y-83400000D02*
X140838597Y-83041403D01*
X140900717Y-82179283D02*
X140924011Y-82179283D01*
X140480000Y-82600000D02*
X140900717Y-82179283D01*
X129846788Y-85800000D02*
X129029561Y-86617227D01*
X126535656Y-86617227D02*
X116030000Y-97122883D01*
X116030000Y-97122883D02*
X116030000Y-98430000D01*
X116030000Y-98430000D02*
X116030000Y-99520000D01*
X129029561Y-86617227D02*
X126535656Y-86617227D01*
X130880000Y-85800000D02*
X129846788Y-85800000D01*
X133280000Y-83400000D02*
X132902010Y-83022010D01*
X132902010Y-83022010D02*
X132880000Y-83022010D01*
X132080000Y-82200000D02*
X132080000Y-82177990D01*
X132480000Y-82600000D02*
X132080000Y-82200000D01*
X132480000Y-81800000D02*
X132080000Y-81400000D01*
X132047309Y-79789885D02*
X131847310Y-79589886D01*
X132082999Y-79825575D02*
X132047309Y-79789885D01*
X132082999Y-80602999D02*
X132082999Y-79825575D01*
X132480000Y-81000000D02*
X132082999Y-80602999D01*
X132140767Y-79167876D02*
X131511031Y-79167876D01*
X131511031Y-79167876D02*
X130656829Y-78313674D01*
X130656829Y-78313674D02*
X130656829Y-77942622D01*
X130656829Y-77942622D02*
X130856828Y-77742623D01*
X132480000Y-80200000D02*
X132480000Y-79507109D01*
X132480000Y-79507109D02*
X132140767Y-79167876D01*
X132769180Y-78451327D02*
X132769180Y-78282246D01*
X132769180Y-78282246D02*
X132071787Y-77584853D01*
X134080000Y-81000000D02*
X133677001Y-80597001D01*
X132071787Y-77584853D02*
X131923295Y-77584853D01*
X133677001Y-79359148D02*
X132769180Y-78451327D01*
X133677001Y-80597001D02*
X133677001Y-79359148D01*
X133657990Y-82177990D02*
X133654358Y-82177990D01*
X134080000Y-82600000D02*
X133657990Y-82177990D01*
X134080000Y-81800000D02*
X133676408Y-81396408D01*
X133676408Y-81396408D02*
X133627343Y-81396408D01*
X128857150Y-92219578D02*
X129306502Y-91770226D01*
X142360000Y-100790000D02*
X142360000Y-100637600D01*
X130919284Y-98600957D02*
X128857998Y-96539671D01*
X142360000Y-100637600D02*
X140323357Y-98600957D01*
X128857150Y-93403410D02*
X128857150Y-92219578D01*
X140323357Y-98600957D02*
X130919284Y-98600957D01*
X128857998Y-96539671D02*
X128857998Y-93404258D01*
X129306502Y-91770226D02*
X129306502Y-91735782D01*
X128857998Y-93404258D02*
X128857150Y-93403410D01*
X133280000Y-90600000D02*
X132880000Y-91000000D01*
X128543235Y-91929554D02*
X128743234Y-91729555D01*
X139820000Y-100790000D02*
X139820000Y-100637600D01*
X130787974Y-98917968D02*
X128540987Y-96670981D01*
X128540139Y-91932650D02*
X128543235Y-91929554D01*
X128540139Y-93534720D02*
X128540139Y-91932650D01*
X128540987Y-96670981D02*
X128540987Y-93535568D01*
X138100368Y-98917968D02*
X130787974Y-98917968D01*
X128540987Y-93535568D02*
X128540139Y-93534720D01*
X139820000Y-100637600D02*
X138100368Y-98917968D01*
X132102010Y-90977990D02*
X132077648Y-90977990D01*
X132480000Y-90600000D02*
X132102010Y-90977990D01*
X139820000Y-100790000D02*
X139820000Y-100942400D01*
X129973446Y-80198224D02*
X130173445Y-80398223D01*
X127620891Y-80192946D02*
X129968168Y-80192946D01*
X126243837Y-81570000D02*
X127620891Y-80192946D01*
X118230000Y-81570000D02*
X126243837Y-81570000D01*
X129968168Y-80192946D02*
X129973446Y-80198224D01*
X131680000Y-81000000D02*
X131180000Y-80500000D01*
X116330000Y-81570000D02*
X117598917Y-82838917D01*
X129688364Y-80509956D02*
X130578408Y-81400000D01*
X131505001Y-81625001D02*
X131680000Y-81800000D01*
X131280000Y-81400000D02*
X131505001Y-81625001D01*
X130578408Y-81400000D02*
X131280000Y-81400000D01*
X127752200Y-80509956D02*
X129688364Y-80509956D01*
X125423239Y-82838917D02*
X127752200Y-80509956D01*
X117598917Y-82838917D02*
X125423239Y-82838917D01*
X115690000Y-81570000D02*
X116330000Y-81570000D01*
X125542879Y-83167596D02*
X127883509Y-80826966D01*
X130632513Y-81800000D02*
X130880000Y-81800000D01*
X130530087Y-81800000D02*
X130632513Y-81800000D01*
X113790000Y-81570000D02*
X115387596Y-83167596D01*
X127883509Y-80826966D02*
X129557053Y-80826966D01*
X129557053Y-80826966D02*
X130530087Y-81800000D01*
X113150000Y-81570000D02*
X113790000Y-81570000D01*
X115387596Y-83167596D02*
X125542879Y-83167596D01*
X128014819Y-81143977D02*
X129425743Y-81143977D01*
X110610000Y-81720000D02*
X112375472Y-83485472D01*
X131505001Y-82425001D02*
X131680000Y-82600000D01*
X131282047Y-82202047D02*
X131505001Y-82425001D01*
X130483813Y-82202047D02*
X131282047Y-82202047D01*
X129425743Y-81143977D02*
X130483813Y-82202047D01*
X125673324Y-83485472D02*
X128014819Y-81143977D01*
X112375472Y-83485472D02*
X125673324Y-83485472D01*
X110610000Y-81570000D02*
X110610000Y-81720000D01*
X125790106Y-83817011D02*
X112515000Y-83817011D01*
X130880000Y-82600000D02*
X130433445Y-82600000D01*
X128146129Y-81460988D02*
X125790106Y-83817011D01*
X129294433Y-81460988D02*
X128146129Y-81460988D01*
X130433445Y-82600000D02*
X129294433Y-81460988D01*
X108070000Y-81570000D02*
X108070000Y-81808518D01*
X108070000Y-81808518D02*
X110078493Y-83817011D01*
X110078493Y-83817011D02*
X112515000Y-83817011D01*
X112515000Y-83817011D02*
X112427431Y-83817011D01*
X130382125Y-82997001D02*
X131277001Y-82997001D01*
X131505001Y-83225001D02*
X131680000Y-83400000D01*
X131277001Y-82997001D02*
X131505001Y-83225001D01*
X129163123Y-81777999D02*
X130382125Y-82997001D01*
X128277439Y-81777999D02*
X129163123Y-81777999D01*
X108734022Y-84134022D02*
X125921416Y-84134022D01*
X105530000Y-81570000D02*
X106170000Y-81570000D01*
X106170000Y-81570000D02*
X108734022Y-84134022D01*
X125921416Y-84134022D02*
X128277439Y-81777999D01*
X103630000Y-81570000D02*
X106511033Y-84451033D01*
X128611348Y-82288092D02*
X129224895Y-82288092D01*
X126448407Y-84451033D02*
X128611348Y-82288092D01*
X130632513Y-83400000D02*
X130880000Y-83400000D01*
X102990000Y-81570000D02*
X103630000Y-81570000D01*
X130336803Y-83400000D02*
X130632513Y-83400000D01*
X129224895Y-82288092D02*
X130336803Y-83400000D01*
X106511033Y-84451033D02*
X126448407Y-84451033D01*
X132480000Y-85800000D02*
X132108138Y-85428138D01*
X132108138Y-85428138D02*
X132079620Y-85428138D01*
X126844649Y-84772985D02*
X127737858Y-85666194D01*
X127737858Y-85666194D02*
X128314703Y-85666194D01*
X100450000Y-82360000D02*
X102862985Y-84772985D01*
X128452116Y-85528781D02*
X128652115Y-85328782D01*
X100450000Y-81570000D02*
X100450000Y-82360000D01*
X102862985Y-84772985D02*
X126844649Y-84772985D01*
X128314703Y-85666194D02*
X128452116Y-85528781D01*
X134501414Y-82221414D02*
X134501414Y-82177578D01*
X134880000Y-82600000D02*
X134501414Y-82221414D01*
X135680000Y-110200000D02*
X134812000Y-110200000D01*
X134812000Y-110200000D02*
X134232000Y-110780000D01*
D42*
X135680000Y-105037990D02*
X137545537Y-103172453D01*
X146561446Y-103452739D02*
X146844288Y-103452739D01*
X137545537Y-103172453D02*
X146281160Y-103172453D01*
X146281160Y-103172453D02*
X146561446Y-103452739D01*
D45*
X132214980Y-105074980D02*
X132540000Y-105400000D01*
X131184000Y-105074980D02*
X132214980Y-105074980D01*
D42*
X131184000Y-107173020D02*
X131184000Y-108580000D01*
X134232000Y-107173020D02*
X134232000Y-108580000D01*
X132680000Y-106626980D02*
X134232000Y-105074980D01*
X132680000Y-108400000D02*
X132680000Y-106626980D01*
X132280000Y-108800000D02*
X132680000Y-108400000D01*
X135248000Y-105616000D02*
X134646020Y-105616000D01*
X134646020Y-105616000D02*
X134105000Y-105074980D01*
X107480000Y-101800000D02*
X117480000Y-101800000D01*
X117480000Y-101800000D02*
X118230000Y-101050000D01*
X118230000Y-101050000D02*
X118230000Y-99520000D01*
X107480000Y-101800000D02*
X107480000Y-102700000D01*
X107480000Y-100750000D02*
X107480000Y-101800000D01*
D45*
X128891572Y-86300216D02*
X129791788Y-85400000D01*
X129791788Y-85400000D02*
X131280000Y-85400000D01*
X114930000Y-97774562D02*
X126404346Y-86300216D01*
X126404346Y-86300216D02*
X128891572Y-86300216D01*
X131280000Y-85400000D02*
X131505001Y-85625001D01*
X131505001Y-85625001D02*
X131680000Y-85800000D01*
X114930000Y-99520000D02*
X114930000Y-97774562D01*
X128696795Y-85983205D02*
X126592857Y-85983205D01*
X99562490Y-76659251D02*
X101348354Y-76659251D01*
X125711986Y-85102334D02*
X101452173Y-85102334D01*
X131280000Y-84600000D02*
X130080000Y-84600000D01*
X131680000Y-85000000D02*
X131280000Y-84600000D01*
X99391404Y-76830337D02*
X99562490Y-76659251D01*
X99391404Y-83041565D02*
X99391404Y-76830337D01*
X130080000Y-84600000D02*
X128696795Y-85983205D01*
X126592857Y-85983205D02*
X125711986Y-85102334D01*
X101452173Y-85102334D02*
X99391404Y-83041565D01*
X101348354Y-76659251D02*
X101631196Y-76659251D01*
D42*
X107360000Y-87510000D02*
X106958972Y-87510000D01*
X106958972Y-87510000D02*
X106378972Y-88090000D01*
X106378972Y-88090000D02*
X102355000Y-88090000D01*
X102355000Y-88090000D02*
X101775000Y-87510000D01*
X101775000Y-87510000D02*
X101160000Y-87510000D01*
X112515000Y-86185000D02*
X112515000Y-87435000D01*
X112515000Y-87435000D02*
X112590000Y-87510000D01*
X112590000Y-87510000D02*
X118790000Y-87510000D01*
X107360000Y-87510000D02*
X112590000Y-87510000D01*
X162842298Y-98762298D02*
X165947724Y-98762298D01*
X165947724Y-98762298D02*
X171817475Y-104632049D01*
X171817475Y-104632049D02*
X171817475Y-106117475D01*
X171817475Y-106117475D02*
X171824000Y-106124000D01*
X171648676Y-109895904D02*
X171848675Y-109695905D01*
X171570000Y-109974580D02*
X171648676Y-109895904D01*
X171570000Y-110260000D02*
X171570000Y-109974580D01*
X171570000Y-110260000D02*
X174670000Y-110260000D01*
X168470000Y-110260000D02*
X171570000Y-110260000D01*
D45*
X157040000Y-98940000D02*
X163240000Y-98940000D01*
D42*
X163240000Y-110260000D02*
X168470000Y-110260000D01*
X157040000Y-110260000D02*
X163240000Y-110260000D01*
X151810000Y-110260000D02*
X157040000Y-110260000D01*
X145610000Y-110260000D02*
X151810000Y-110260000D01*
D45*
X160516347Y-75242640D02*
X160316348Y-75042641D01*
X168669128Y-69578121D02*
X163004609Y-75242640D01*
X163004609Y-75242640D02*
X160516347Y-75242640D01*
X143257990Y-83022010D02*
X143257990Y-83000000D01*
X142880000Y-83400000D02*
X143257990Y-83022010D01*
D42*
X118230000Y-77709020D02*
X118230000Y-79370000D01*
X115690000Y-77709020D02*
X115690000Y-79370000D01*
X113150000Y-77709020D02*
X113150000Y-79370000D01*
X110610000Y-77709020D02*
X110610000Y-79370000D01*
X108070000Y-77709020D02*
X108070000Y-79370000D01*
X105530000Y-77709020D02*
X105530000Y-79370000D01*
X102990000Y-77709020D02*
X102990000Y-79370000D01*
X100450000Y-77709020D02*
X100450000Y-79370000D01*
D45*
X176785000Y-104590113D02*
X177074003Y-104879116D01*
X177074003Y-104879116D02*
X177274002Y-105079115D01*
X176785000Y-102605000D02*
X176785000Y-104590113D01*
X143258015Y-93378015D02*
X143258015Y-93423150D01*
X142880000Y-93000000D02*
X143258015Y-93378015D01*
X173868054Y-101655000D02*
X173867913Y-101655141D01*
X174835000Y-101655000D02*
X173868054Y-101655000D01*
X142880000Y-91400000D02*
X143280000Y-91800000D01*
X144064831Y-91784831D02*
X144064831Y-91877646D01*
X143680000Y-91400000D02*
X144064831Y-91784831D01*
X173500572Y-101155000D02*
X173497957Y-101157615D01*
X174835000Y-101155000D02*
X173500572Y-101155000D01*
X173106038Y-100655000D02*
X173102681Y-100658357D01*
X174835000Y-100655000D02*
X173106038Y-100655000D01*
X143680000Y-90600000D02*
X144080000Y-91000000D01*
D42*
X117595000Y-65540000D02*
X117595000Y-66500000D01*
X115690000Y-64570000D02*
X116625000Y-64570000D01*
X116625000Y-64570000D02*
X117595000Y-65540000D01*
X113150000Y-64570000D02*
X115690000Y-64570000D01*
X110610000Y-64570000D02*
X113150000Y-64570000D01*
X108070000Y-64570000D02*
X110610000Y-64570000D01*
D45*
X129870959Y-75031593D02*
X129870959Y-75314435D01*
X129870959Y-74185922D02*
X129870959Y-75031593D01*
X108070000Y-69805000D02*
X109909022Y-67965978D01*
X123651015Y-67965978D02*
X129870959Y-74185922D01*
X108070000Y-70970000D02*
X108070000Y-69805000D01*
X109909022Y-67965978D02*
X123651015Y-67965978D01*
X135680000Y-82600000D02*
X135345425Y-82265425D01*
X135345425Y-82265425D02*
X135345425Y-82176814D01*
X110610000Y-70970000D02*
X110610000Y-69805000D01*
X123366483Y-68282989D02*
X129061261Y-73977767D01*
X129061261Y-73977767D02*
X129261260Y-74177766D01*
X112132011Y-68282989D02*
X123366483Y-68282989D01*
X110610000Y-69805000D02*
X112132011Y-68282989D01*
X136480000Y-82600000D02*
X136080000Y-82200000D01*
X129385277Y-75571874D02*
X129549848Y-75736445D01*
X129385277Y-74918034D02*
X129385277Y-75571874D01*
X123067243Y-68600000D02*
X129385277Y-74918034D01*
X114355000Y-68600000D02*
X123067243Y-68600000D01*
X113150000Y-69805000D02*
X114355000Y-68600000D01*
X113150000Y-70970000D02*
X113150000Y-69805000D01*
X113150000Y-70970000D02*
X113150000Y-72135000D01*
X109797399Y-72992001D02*
X109752999Y-72947601D01*
X113150000Y-72135000D02*
X112292999Y-72992001D01*
X112292999Y-72992001D02*
X109797399Y-72992001D01*
X136480000Y-83400000D02*
X136080000Y-83000000D01*
X115690000Y-70970000D02*
X124988922Y-70970000D01*
X124988922Y-70970000D02*
X129068266Y-75049344D01*
X129068266Y-75049344D02*
X129068266Y-76134206D01*
X135302010Y-83022010D02*
X135280000Y-83022010D01*
X135680000Y-83400000D02*
X135302010Y-83022010D01*
X160854413Y-74511406D02*
X160854413Y-74794248D01*
X164583094Y-67962523D02*
X160854413Y-71691204D01*
X160854413Y-71691204D02*
X160854413Y-74511406D01*
X142880000Y-84200000D02*
X143280000Y-83800000D01*
M02*
