G04 #@! TF.FileFunction,Soldermask,Bot*
%FSLAX46Y46*%
G04 Gerber Fmt 4.6, Leading zero omitted, Abs format (unit mm)*
G04 Created by KiCad (PCBNEW 4.0.7+dfsg1-1) date Sun Dec 10 11:28:19 2017*
%MOMM*%
%LPD*%
G01*
G04 APERTURE LIST*
%ADD10C,0.100000*%
%ADD11O,1.827200X1.827200*%
%ADD12R,1.827200X1.827200*%
%ADD13R,1.000000X1.300000*%
%ADD14R,1.100000X1.100000*%
%ADD15R,1.900000X3.600000*%
%ADD16R,2.100000X2.600000*%
%ADD17R,0.800000X1.300000*%
%ADD18R,1.350000X1.600000*%
%ADD19R,1.600000X1.350000*%
%ADD20R,0.900000X2.000000*%
%ADD21R,2.000000X0.900000*%
%ADD22R,1.300000X0.850000*%
%ADD23R,0.850000X1.300000*%
%ADD24R,1.300000X1.000000*%
%ADD25C,5.600000*%
%ADD26R,1.100000X0.500000*%
%ADD27R,1.827200X2.132000*%
%ADD28O,1.827200X2.132000*%
%ADD29R,3.600000X1.900000*%
%ADD30R,3.600000X3.400000*%
%ADD31C,9.100000*%
%ADD32C,1.800000*%
%ADD33O,1.400000X2.800000*%
%ADD34O,1.400000X2.400000*%
%ADD35R,0.700000X1.650000*%
%ADD36O,0.700000X1.650000*%
%ADD37R,1.650000X0.700000*%
%ADD38O,1.650000X0.700000*%
%ADD39O,2.600000X1.000000*%
%ADD40O,1.000000X2.600000*%
%ADD41R,6.100000X6.100000*%
%ADD42R,1.900000X1.500000*%
G04 APERTURE END LIST*
D10*
D11*
X97910000Y-62690000D03*
X95370000Y-62690000D03*
D12*
X97910000Y-65230000D03*
X95370000Y-65230000D03*
D11*
X97910000Y-67770000D03*
X95370000Y-67770000D03*
X97910000Y-70310000D03*
X95370000Y-70310000D03*
X97910000Y-72850000D03*
X95370000Y-72850000D03*
X97910000Y-75390000D03*
X95370000Y-75390000D03*
X97910000Y-77930000D03*
X95370000Y-77930000D03*
X97910000Y-80470000D03*
X95370000Y-80470000D03*
X97910000Y-83010000D03*
X95370000Y-83010000D03*
X97910000Y-85550000D03*
X95370000Y-85550000D03*
D12*
X97910000Y-88090000D03*
X95370000Y-88090000D03*
D11*
X97910000Y-90630000D03*
X95370000Y-90630000D03*
X97910000Y-93170000D03*
X95370000Y-93170000D03*
X97910000Y-95710000D03*
X95370000Y-95710000D03*
X97910000Y-98250000D03*
X95370000Y-98250000D03*
X97910000Y-100790000D03*
X95370000Y-100790000D03*
X97910000Y-103330000D03*
X95370000Y-103330000D03*
X97910000Y-105870000D03*
X95370000Y-105870000D03*
D12*
X97910000Y-108410000D03*
X95370000Y-108410000D03*
D11*
X97910000Y-110950000D03*
X95370000Y-110950000D03*
D13*
X103498000Y-99858000D03*
X103498000Y-97658000D03*
D14*
X152393000Y-97142000D03*
X152393000Y-98342000D03*
D15*
X155695000Y-69000000D03*
X155695000Y-64000000D03*
D13*
X154044000Y-72426000D03*
X154044000Y-70226000D03*
D16*
X160870000Y-88090000D03*
X156870000Y-88090000D03*
D17*
X159825000Y-90600000D03*
X160775000Y-90600000D03*
X161725000Y-90600000D03*
X161725000Y-93200000D03*
X159825000Y-93200000D03*
D16*
X102895000Y-88725000D03*
X106895000Y-88725000D03*
D17*
X104575000Y-86215000D03*
X103625000Y-86215000D03*
X102675000Y-86215000D03*
X102675000Y-83615000D03*
X104575000Y-83615000D03*
D16*
X158330000Y-74755000D03*
X154330000Y-74755000D03*
D17*
X157285000Y-77392000D03*
X158235000Y-77392000D03*
X159185000Y-77392000D03*
X159185000Y-79992000D03*
X157285000Y-79992000D03*
D18*
X101085000Y-83665000D03*
X101085000Y-86165000D03*
D19*
X153810000Y-90630000D03*
X156310000Y-90630000D03*
X153810000Y-92535000D03*
X156310000Y-92535000D03*
D18*
X163315000Y-93150000D03*
X163315000Y-90650000D03*
D19*
X151270000Y-79200000D03*
X153770000Y-79200000D03*
X151270000Y-77295000D03*
X153770000Y-77295000D03*
D18*
X160775000Y-79815000D03*
X160775000Y-77315000D03*
D19*
X110590000Y-84280000D03*
X108090000Y-84280000D03*
X110590000Y-86185000D03*
X108090000Y-86185000D03*
D18*
X173221000Y-86038000D03*
X173221000Y-83538000D03*
D20*
X176965000Y-85780000D03*
X175065000Y-85780000D03*
X176015000Y-82780000D03*
D21*
X172435000Y-75075000D03*
X172435000Y-76975000D03*
X169435000Y-76025000D03*
D22*
X153910000Y-96910000D03*
X155810000Y-96910000D03*
X151570000Y-82375000D03*
X153470000Y-82375000D03*
X110290000Y-81105000D03*
X108390000Y-81105000D03*
D23*
X175380000Y-75075000D03*
X175380000Y-76975000D03*
D24*
X169200000Y-82375000D03*
X171400000Y-82375000D03*
D13*
X172840000Y-80935000D03*
X172840000Y-78735000D03*
D24*
X177115000Y-80470000D03*
X174915000Y-80470000D03*
D13*
X174110000Y-74925000D03*
X174110000Y-77125000D03*
X178555000Y-83815000D03*
X178555000Y-86015000D03*
X113785000Y-83180000D03*
X113785000Y-85380000D03*
X170935000Y-80935000D03*
X170935000Y-78735000D03*
X128390000Y-108580000D03*
X128390000Y-110780000D03*
D24*
X150572000Y-103584000D03*
X148372000Y-103584000D03*
X177115000Y-78565000D03*
X174915000Y-78565000D03*
X153760000Y-95640000D03*
X155960000Y-95640000D03*
X110440000Y-82375000D03*
X108240000Y-82375000D03*
X151420000Y-81105000D03*
X153620000Y-81105000D03*
D13*
X158235000Y-90800000D03*
X158235000Y-93000000D03*
X106165000Y-86015000D03*
X106165000Y-83815000D03*
X155695000Y-77465000D03*
X155695000Y-79665000D03*
D24*
X126696000Y-85804000D03*
X124496000Y-85804000D03*
X126696000Y-84026000D03*
X124496000Y-84026000D03*
X126696000Y-82248000D03*
X124496000Y-82248000D03*
X126696000Y-80470000D03*
X124496000Y-80470000D03*
D13*
X130422000Y-74458000D03*
X130422000Y-72258000D03*
X132200000Y-74458000D03*
X132200000Y-72258000D03*
X133978000Y-74458000D03*
X133978000Y-72258000D03*
X135756000Y-74458000D03*
X135756000Y-72258000D03*
D23*
X150589600Y-64910000D03*
X150589600Y-63010000D03*
D11*
X184270000Y-110950000D03*
X186810000Y-110950000D03*
D12*
X184270000Y-108410000D03*
X186810000Y-108410000D03*
D11*
X184270000Y-105870000D03*
X186810000Y-105870000D03*
X184270000Y-103330000D03*
X186810000Y-103330000D03*
X184270000Y-100790000D03*
X186810000Y-100790000D03*
X184270000Y-98250000D03*
X186810000Y-98250000D03*
X184270000Y-95710000D03*
X186810000Y-95710000D03*
X184270000Y-93170000D03*
X186810000Y-93170000D03*
X184270000Y-90630000D03*
X186810000Y-90630000D03*
X184270000Y-88090000D03*
X186810000Y-88090000D03*
D12*
X184270000Y-85550000D03*
X186810000Y-85550000D03*
D11*
X184270000Y-83010000D03*
X186810000Y-83010000D03*
X184270000Y-80470000D03*
X186810000Y-80470000D03*
X184270000Y-77930000D03*
X186810000Y-77930000D03*
X184270000Y-75390000D03*
X186810000Y-75390000D03*
X184270000Y-72850000D03*
X186810000Y-72850000D03*
X184270000Y-70310000D03*
X186810000Y-70310000D03*
X184270000Y-67770000D03*
X186810000Y-67770000D03*
D12*
X184270000Y-65230000D03*
X186810000Y-65230000D03*
D11*
X184270000Y-62690000D03*
X186810000Y-62690000D03*
D25*
X102990000Y-108410000D03*
X179190000Y-108410000D03*
X179190000Y-65230000D03*
X102990000Y-65230000D03*
D13*
X162045000Y-71410000D03*
X162045000Y-69210000D03*
X139820000Y-66330000D03*
X139820000Y-64130000D03*
X135375000Y-68532000D03*
X135375000Y-66332000D03*
X150615000Y-68870000D03*
X150615000Y-66670000D03*
D24*
X150275000Y-72215000D03*
X148075000Y-72215000D03*
X150380000Y-70600000D03*
X148180000Y-70600000D03*
D26*
X135735000Y-104215000D03*
X135735000Y-104865000D03*
X135735000Y-105515000D03*
X135735000Y-106165000D03*
X135735000Y-106815000D03*
X135735000Y-107465000D03*
X135735000Y-108115000D03*
X135735000Y-108765000D03*
X135735000Y-109415000D03*
X135735000Y-110065000D03*
X129935000Y-110065000D03*
X129935000Y-109415000D03*
X129935000Y-108765000D03*
X129935000Y-108115000D03*
X129935000Y-107465000D03*
X129935000Y-106815000D03*
X129935000Y-106165000D03*
X129935000Y-105515000D03*
X129935000Y-104865000D03*
X129935000Y-104215000D03*
D13*
X119500000Y-79370000D03*
X119500000Y-81570000D03*
X114480000Y-89500000D03*
X114480000Y-87300000D03*
X129025000Y-97275000D03*
X129025000Y-95075000D03*
X117595000Y-79370000D03*
X117595000Y-81570000D03*
X122280000Y-86300000D03*
X122280000Y-88500000D03*
X115690000Y-79370000D03*
X115690000Y-81570000D03*
D24*
X144730000Y-98250000D03*
X142530000Y-98250000D03*
D13*
X132835000Y-98715000D03*
X132835000Y-96515000D03*
X130930000Y-98715000D03*
X130930000Y-96515000D03*
D24*
X101890000Y-103965000D03*
X104090000Y-103965000D03*
D12*
X101720000Y-95456000D03*
D11*
X104260000Y-95456000D03*
D24*
X104090000Y-102060000D03*
X101890000Y-102060000D03*
D18*
X167506000Y-88324000D03*
X167506000Y-85824000D03*
D24*
X164415000Y-96345000D03*
X162215000Y-96345000D03*
D13*
X167252000Y-65822000D03*
X167252000Y-63622000D03*
D12*
X140455000Y-104600000D03*
D11*
X137915000Y-104600000D03*
X140455000Y-107140000D03*
X137915000Y-107140000D03*
X140455000Y-109680000D03*
X137915000Y-109680000D03*
D18*
X138550000Y-90396000D03*
X138550000Y-92896000D03*
X138550000Y-82736000D03*
X138550000Y-80236000D03*
X138550000Y-85316000D03*
X138550000Y-87816000D03*
X101720000Y-97508000D03*
X101720000Y-100008000D03*
D13*
X113277000Y-74585000D03*
X113277000Y-72385000D03*
X111372000Y-74585000D03*
X111372000Y-72385000D03*
X172840000Y-72045000D03*
X172840000Y-69845000D03*
X171316000Y-72045000D03*
X171316000Y-69845000D03*
D27*
X147440000Y-100790000D03*
D28*
X144900000Y-100790000D03*
X142360000Y-100790000D03*
X139820000Y-100790000D03*
X137280000Y-100790000D03*
X134740000Y-100790000D03*
X132200000Y-100790000D03*
D18*
X105276000Y-100262000D03*
X105276000Y-97762000D03*
D29*
X109761000Y-69802000D03*
X114761000Y-69802000D03*
X167212000Y-73612000D03*
X162212000Y-73612000D03*
D15*
X160140000Y-64000000D03*
X160140000Y-69000000D03*
D19*
X154064000Y-98504000D03*
X156564000Y-98504000D03*
X107796000Y-91392000D03*
X105296000Y-91392000D03*
X151484000Y-74882000D03*
X148984000Y-74882000D03*
D13*
X173602000Y-65822000D03*
X173602000Y-63622000D03*
X134740000Y-96515000D03*
X134740000Y-98715000D03*
D30*
X172485000Y-105870000D03*
X156685000Y-105870000D03*
D31*
X164585000Y-105870000D03*
D14*
X169284000Y-66988000D03*
X169284000Y-64488000D03*
X171697000Y-67081000D03*
X171697000Y-64581000D03*
X169050000Y-84280000D03*
X171550000Y-84280000D03*
X179190000Y-81085000D03*
X179190000Y-78585000D03*
X169030000Y-81085000D03*
X169030000Y-78585000D03*
X171550000Y-85804000D03*
X169050000Y-85804000D03*
X179190000Y-77275000D03*
X179190000Y-74775000D03*
X177285000Y-74775000D03*
X177285000Y-77275000D03*
X167145000Y-70945000D03*
X169645000Y-70945000D03*
X164585000Y-69060000D03*
X164585000Y-71560000D03*
X112007000Y-87109000D03*
X112007000Y-88309000D03*
X149691000Y-77295000D03*
X148491000Y-77295000D03*
D13*
X128390000Y-106546000D03*
X128390000Y-104346000D03*
X117722000Y-74458000D03*
X117722000Y-72258000D03*
X119246000Y-74458000D03*
X119246000Y-72258000D03*
X120770000Y-74458000D03*
X120770000Y-72258000D03*
X122294000Y-74458000D03*
X122294000Y-72258000D03*
D24*
X145880000Y-69900000D03*
X143680000Y-69900000D03*
D32*
X124580000Y-66548000D03*
X124580000Y-73548000D03*
D33*
X152280000Y-71550000D03*
X137680000Y-71550000D03*
D34*
X137680000Y-65500000D03*
X152280000Y-65500000D03*
D35*
X181730000Y-96505000D03*
D36*
X180460000Y-96505000D03*
X179190000Y-96505000D03*
X177920000Y-96505000D03*
X177920000Y-91105000D03*
X179190000Y-91105000D03*
X180460000Y-91105000D03*
X181730000Y-91105000D03*
D37*
X141980000Y-67706500D03*
D38*
X141980000Y-66436500D03*
X141980000Y-65166500D03*
X141980000Y-63896500D03*
X147380000Y-63896500D03*
X147380000Y-65166500D03*
X147380000Y-66436500D03*
X147380000Y-67706500D03*
D35*
X116325000Y-84120000D03*
D36*
X117595000Y-84120000D03*
X118865000Y-84120000D03*
X120135000Y-84120000D03*
X120135000Y-89520000D03*
X118865000Y-89520000D03*
X117595000Y-89520000D03*
X116325000Y-89520000D03*
D39*
X126230000Y-111000000D03*
X126230000Y-109730000D03*
X126230000Y-108460000D03*
X126230000Y-107190000D03*
X126230000Y-105920000D03*
X126230000Y-104650000D03*
X126230000Y-103380000D03*
X126230000Y-102110000D03*
X126230000Y-100840000D03*
X126230000Y-99570000D03*
X126230000Y-98300000D03*
X126230000Y-97030000D03*
X126230000Y-95760000D03*
X126230000Y-94490000D03*
D40*
X122945000Y-93000000D03*
X121675000Y-93000000D03*
X120405000Y-93000000D03*
X119135000Y-93000000D03*
X117865000Y-93000000D03*
X116595000Y-93000000D03*
X115325000Y-93000000D03*
X114055000Y-93000000D03*
X112785000Y-93000000D03*
X111515000Y-93000000D03*
D39*
X108230000Y-94490000D03*
X108230000Y-95760000D03*
X108230000Y-97030000D03*
X108230000Y-98300000D03*
X108230000Y-99570000D03*
X108230000Y-100840000D03*
X108230000Y-102110000D03*
X108230000Y-103380000D03*
X108230000Y-104650000D03*
X108230000Y-105920000D03*
X108230000Y-107190000D03*
X108230000Y-108460000D03*
X108230000Y-109730000D03*
X108230000Y-111000000D03*
D41*
X116930000Y-103300000D03*
D42*
X180212000Y-98882000D03*
X174612000Y-98882000D03*
X174612000Y-101682000D03*
X180212000Y-101682000D03*
M02*
