M48
;DRILL file {KiCad 4.0.7+dfsg1-1} date Thu Sep 28 11:15:29 2017
;FORMAT={-:-/ absolute / inch / decimal}
FMAT,2
INCH,TZ
T1C0.008
T2C0.010
T3C0.012
T4C0.020
T5C0.031
T6C0.040
T7C0.126
T8C0.067
%
G90
G05
M72
T1
X3.9402Y-4.1024
X4.1521Y-3.4442
X4.1595Y-4.0691
X4.1606Y-3.9679
X4.1655Y-4.0492
X4.1696Y-4.0873
X4.1722Y-4.1436
X4.1742Y-4.122
X4.189Y-3.9913
X4.1921Y-3.8341
X4.1921Y-3.857
X4.3239Y-2.8673
X4.3383Y-3.7201
X4.3417Y-4.1339
X4.3431Y-2.9284
X4.3497Y-2.8431
X4.3516Y-4.3213
X4.359Y-3.7186
X4.4147Y-4.2581
X4.4297Y-3.2681
X4.4297Y-3.3931
X4.452Y-3.4961
X4.4572Y-2.6868
X4.4596Y-3.9245
X4.4897Y-2.8481
X4.4947Y-2.9231
X4.5927Y-3.1015
X4.6111Y-3.8511
X4.6789Y-3.7598
X4.6795Y-2.4669
X4.712Y-3.6012
X4.7392Y-3.574
X4.7413Y-3.8209
X4.7547Y-2.8431
X4.7672Y-2.7196
X4.7721Y-3.541
X4.885Y-3.4409
X4.885Y-3.4409
X4.8899Y-4.2208
X4.8919Y-4.1725
X4.9402Y-3.6614
X4.9538Y-3.6792
X5.0057Y-3.4795
X5.0253Y-3.1242
X5.0324Y-3.3342
X5.038Y-3.2885
X5.0495Y-3.3223
X5.052Y-3.5252
X5.0547Y-4.1981
X5.0567Y-3.9683
X5.0586Y-3.3412
X5.0597Y-3.11
X5.0608Y-3.0503
X5.0618Y-3.0894
X5.0631Y-4.0895
X5.0634Y-4.1226
X5.0657Y-3.3079
X5.0695Y-3.6222
X5.0699Y-3.4296
X5.0767Y-3.2749
X5.0794Y-3.2544
X5.0812Y-3.0012
X5.0836Y-2.9671
X5.0887Y-2.919
X5.0888Y-3.671
X5.092Y-3.6196
X5.0968Y-3.5449
X5.0982Y-2.9818
X5.099Y-3.3016
X5.1001Y-3.4135
X5.1143Y-3.6487
X5.119Y-3.6155
X5.1237Y-3.6822
X5.1259Y-3.1645
X5.1462Y-3.9331
X5.1481Y-2.6425
X5.1499Y-3.758
X5.1512Y-4.0691
X5.1518Y-3.0607
X5.159Y-3.8381
X5.1646Y-3.1693
X5.1666Y-3.0753
X5.1675Y-3.3957
X5.1685Y-3.5197
X5.1753Y-4.0668
X5.1854Y-3.1002
X5.1908Y-3.1335
X5.1938Y-3.0545
X5.1999Y-3.5818
X5.1999Y-3.3965
X5.2Y-3.3633
X5.2Y-3.3269
X5.2Y-3.2047
X5.2Y-3.2354
X5.2Y-3.4252
X5.2Y-3.5214
X5.2Y-3.6457
X5.2Y-3.6772
X5.2Y-3.7087
X5.2002Y-3.2686
X5.2015Y-3.3018
X5.2026Y-4.3284
X5.203Y-3.5445
X5.2043Y-4.3077
X5.2079Y-4.2835
X5.2181Y-4.1496
X5.2194Y-3.7946
X5.2227Y-4.1723
X5.2259Y-3.0187
X5.2265Y-3.8653
X5.2268Y-3.0395
X5.2277Y-3.2047
X5.2288Y-3.2354
X5.2302Y-3.7085
X5.2313Y-3.3633
X5.2315Y-3.2686
X5.2315Y-3.4882
X5.2315Y-3.5827
X5.2315Y-3.6142
X5.2315Y-3.6457
X5.2315Y-3.6772
X5.2315Y-3.3292
X5.2318Y-3.2983
X5.233Y-4.126
X5.2447Y-4.3281
X5.2609Y-3.2046
X5.262Y-3.2354
X5.2627Y-3.3305
X5.263Y-3.6142
X5.263Y-3.6457
X5.2632Y-3.6773
X5.2634Y-3.7079
X5.2724Y-3.7811
X5.2725Y-3.0652
X5.2787Y-2.6294
X5.2941Y-3.2027
X5.2945Y-3.2992
X5.2945Y-3.5827
X5.2953Y-3.2353
X5.3032Y-3.0394
X5.3183Y-3.8398
X5.3247Y-4.1581
X5.3257Y-3.4889
X5.326Y-3.2686
X5.326Y-3.3937
X5.326Y-3.6457
X5.326Y-3.7087
X5.326Y-3.7402
X5.3286Y-3.2353
X5.3335Y-4.3057
X5.3373Y-3.1773
X5.3373Y-3.2082
X5.3417Y-4.1354
X5.3417Y-4.3386
X5.3452Y-3.057
X5.3453Y-3.8322
X5.3477Y-2.9958
X5.3477Y-3.0278
X5.3486Y-4.2832
X5.3486Y-4.2529
X5.3498Y-4.2006
X5.3575Y-3.2362
X5.3575Y-3.2677
X5.3575Y-3.6772
X5.3577Y-3.5195
X5.3705Y-3.2086
X5.3793Y-3.0886
X5.389Y-3.6457
X5.3892Y-3.551
X5.3909Y-3.0537
X5.3983Y-3.0305
X5.4051Y-3.8401
X5.4149Y-3.0122
X5.4199Y-3.5985
X5.4205Y-3.2047
X5.4205Y-3.5501
X5.4205Y-3.6772
X5.4205Y-3.3281
X5.4565Y-2.9886
X5.4613Y-3.0089
X5.4616Y-3.038
X5.474Y-3.0723
X5.4782Y-3.1027
X5.4832Y-3.3312
X5.4835Y-3.2047
X5.4835Y-3.5481
X5.4835Y-3.6772
X5.4951Y-2.7478
X5.5047Y-2.7034
X5.5132Y-3.2047
X5.515Y-3.2362
X5.5155Y-3.5481
X5.5458Y-3.2693
X5.5462Y-3.5997
X5.5465Y-3.2047
X5.5465Y-3.3622
X5.5465Y-3.4567
X5.5465Y-3.5197
X5.5465Y-3.6772
X5.5469Y-2.9796
X5.5482Y-3.2354
X5.553Y-2.9478
X5.5622Y-3.8425
X5.5637Y-3.0787
X5.5647Y-3.014
X5.5771Y-3.2335
X5.578Y-3.3622
X5.578Y-3.3937
X5.578Y-3.4882
X5.5906Y-2.7956
X5.6062Y-3.2359
X5.6068Y-3.204
X5.6092Y-3.2677
X5.6094Y-3.0551
X5.6094Y-3.2992
X5.6094Y-3.5827
X5.6094Y-3.7087
X5.6241Y-3.1008
X5.6341Y-3.0825
X5.6401Y-3.2039
X5.6401Y-3.2365
X5.6401Y-3.2677
X5.6401Y-3.6781
X5.6409Y-3.488
X5.6409Y-3.2992
X5.6409Y-3.5827
X5.6409Y-3.6142
X5.641Y-3.5513
X5.643Y-3.0638
X5.6488Y-2.7959
X5.6555Y-2.5143
X5.6689Y-3.5109
X5.6718Y-3.6172
X5.6724Y-3.5827
X5.6725Y-3.5485
X5.6726Y-3.4876
X5.6733Y-3.2357
X5.6733Y-3.2677
X5.6733Y-3.2992
X5.6733Y-3.3307
X5.6733Y-3.3621
X5.6733Y-3.6457
X5.675Y-3.2037
X5.7012Y-3.5109
X5.7034Y-3.2021
X5.7034Y-3.5498
X5.7038Y-3.4891
X5.7038Y-3.3281
X5.704Y-3.6448
X5.7041Y-3.2354
X5.7042Y-3.3616
X5.7043Y-3.425
X5.7043Y-3.3018
X5.7044Y-3.583
X5.7045Y-3.2686
X5.7046Y-3.6171
X5.7048Y-3.3964
X5.7078Y-2.7962
X5.7093Y-2.9392
X5.7281Y-3.025
X5.7354Y-3.2047
X5.7354Y-3.3631
X5.7354Y-3.7078
X5.7367Y-3.5835
X5.7633Y-3.0685
X5.7665Y-2.795
X5.7727Y-3.0103
X5.7813Y-4.0729
X5.7924Y-3.5355
X5.804Y-3.3409
X5.8059Y-3.4774
X5.8063Y-3.0639
X5.8226Y-3.2809
X5.8263Y-2.8101
X5.8267Y-3.4774
X5.8308Y-3.7535
X5.8401Y-3.188
X5.8456Y-2.7409
X5.852Y-3.0602
X5.8531Y-3.3288
X5.8636Y-3.185
X5.8652Y-3.2581
X5.8658Y-2.8101
X5.8734Y-2.4904
X5.8743Y-3.764
X5.8849Y-2.7409
X5.9087Y-3.2126
X5.9235Y-2.8101
X5.9802Y-4.0752
X6.0363Y-2.7037
X6.0624Y-2.5307
X6.0647Y-2.7281
X6.1082Y-2.8254
X6.2547Y-4.2681
X6.3297Y-2.7181
X6.4111Y-3.8883
X6.472Y-3.8388
X6.4738Y-2.5093
X6.5131Y-2.798
X6.5613Y-2.8218
X6.6547Y-3.0431
X6.6888Y-2.9564
X6.6947Y-3.3781
X6.6979Y-4.2997
X6.6991Y-4.1601
X6.7001Y-2.739
X6.7047Y-2.6831
X6.73Y-2.9434
X6.7303Y-2.6821
X6.7831Y-3.4301
X6.8147Y-3.4481
X6.8151Y-3.9629
X6.8306Y-3.9826
X6.8355Y-3.9235
X6.8452Y-4.0022
X6.8466Y-3.8829
X6.8547Y-4.2681
X6.9093Y-2.8133
X6.9404Y-4.0681
X6.9793Y-4.137
X6.9797Y-3.7681
X7.0341Y-3.532
X7.062Y-3.5164
X7.1285Y-3.1018
X7.1911Y-4.3569
T2
X4.7235Y-3.7564
X4.7494Y-3.7393
X5.2539Y-4.0249
X5.2785Y-4.0454
X5.3575Y-3.3307
X5.3575Y-3.3622
X5.3587Y-3.425
X5.4205Y-3.4252
X5.4835Y-3.4252
X5.4835Y-3.4882
X5.4847Y-3.5968
X5.5529Y-3.425
X5.6115Y-2.9789
X5.6506Y-2.9429
X5.782Y-3.8038
X5.8031Y-3.6697
X5.8084Y-3.7761
X5.818Y-3.6886
X5.8264Y-3.6673
X5.8525Y-3.75
X5.8905Y-3.7157
X5.8968Y-3.738
X5.9083Y-3.7577
X5.9133Y-3.78
X5.9259Y-3.7991
X5.9408Y-3.823
X5.9617Y-3.8025
T3
X6.0916Y-3.7075
X6.1448Y-3.7158
X6.1528Y-3.1973
X6.2472Y-3.1973
X6.3413Y-3.1975
X6.4339Y-3.1937
X6.4859Y-3.1941
T4
X3.9559Y-3.6639
X4.0131Y-3.2514
X4.1897Y-2.6895
X4.2155Y-2.5795
X4.355Y-3.5152
X4.5935Y-2.5737
X5.8957Y-3.072
X6.0087Y-3.8787
X6.151Y-2.6612
X6.2297Y-3.7344
X6.335Y-3.7343
X6.409Y-2.5086
X6.417Y-3.7331
X6.4824Y-3.7333
X6.5174Y-2.5803
X6.5453Y-3.1255
X6.5465Y-3.7323
X6.5756Y-3.0468
X6.8914Y-2.5823
X6.9478Y-3.7035
X6.9776Y-3.2394
T6
X3.7547Y-2.4681
X3.7547Y-2.5681
X3.7547Y-2.6681
X3.7547Y-2.7681
X3.7547Y-2.8681
X3.7547Y-2.9681
X3.7547Y-3.0681
X3.7547Y-3.1681
X3.7547Y-3.2681
X3.7547Y-3.3681
X3.7547Y-3.4681
X3.7547Y-3.5681
X3.7547Y-3.6681
X3.7547Y-3.7681
X3.7547Y-3.8681
X3.7547Y-3.9681
X3.7547Y-4.0681
X3.7547Y-4.1681
X3.7547Y-4.2681
X3.7547Y-4.3681
X3.8547Y-2.4681
X3.8547Y-2.5681
X3.8547Y-2.6681
X3.8547Y-2.7681
X3.8547Y-2.8681
X3.8547Y-2.9681
X3.8547Y-3.0681
X3.8547Y-3.1681
X3.8547Y-3.2681
X3.8547Y-3.3681
X3.8547Y-3.4681
X3.8547Y-3.5681
X3.8547Y-3.6681
X3.8547Y-3.7681
X3.8547Y-3.8681
X3.8547Y-3.9681
X3.8547Y-4.0681
X3.8547Y-4.1681
X3.8547Y-4.2681
X3.8547Y-4.3681
X4.0047Y-3.9181
X4.1047Y-3.9181
X5.2047Y-3.9681
X5.3047Y-3.9681
X5.4047Y-3.9681
X5.5047Y-3.9681
X5.5047Y-4.1181
X5.5047Y-4.2181
X5.5047Y-4.3181
X5.6047Y-3.9681
X5.6047Y-4.1181
X5.6047Y-4.2181
X5.6047Y-4.3181
X5.7047Y-3.9681
X5.8047Y-3.9681
X7.2547Y-2.4681
X7.2547Y-2.5681
X7.2547Y-2.6681
X7.2547Y-2.7681
X7.2547Y-2.8681
X7.2547Y-2.9681
X7.2547Y-3.0681
X7.2547Y-3.1681
X7.2547Y-3.2681
X7.2547Y-3.3681
X7.2547Y-3.4681
X7.2547Y-3.5681
X7.2547Y-3.6681
X7.2547Y-3.7681
X7.2547Y-3.8681
X7.2547Y-3.9681
X7.2547Y-4.0681
X7.2547Y-4.1681
X7.2547Y-4.2681
X7.2547Y-4.3681
X7.3547Y-2.4681
X7.3547Y-2.5681
X7.3547Y-2.6681
X7.3547Y-2.7681
X7.3547Y-2.8681
X7.3547Y-2.9681
X7.3547Y-3.0681
X7.3547Y-3.1681
X7.3547Y-3.2681
X7.3547Y-3.3681
X7.3547Y-3.4681
X7.3547Y-3.5681
X7.3547Y-3.6681
X7.3547Y-3.7681
X7.3547Y-3.8681
X7.3547Y-3.9681
X7.3547Y-4.0681
X7.3547Y-4.1681
X7.3547Y-4.2681
X7.3547Y-4.3681
T7
X4.0547Y-2.5681
X4.0547Y-4.2681
X7.0547Y-2.5681
X7.0547Y-4.2681
T8
X4.9047Y-2.6197
X4.9047Y-2.8953
T5
X5.4205Y-2.5591G85X5.4205Y-2.5984
G05
X5.4205Y-2.7894G85X5.4205Y-2.8445
G05
X5.9953Y-2.5591G85X5.9953Y-2.5984
G05
X5.9953Y-2.7894G85X5.9953Y-2.8445
G05
T0
M30
