G04 #@! TF.FileFunction,Legend,Top*
%FSLAX46Y46*%
G04 Gerber Fmt 4.6, Leading zero omitted, Abs format (unit mm)*
G04 Created by KiCad (PCBNEW 4.0.5+dfsg1-4) date Thu Jul  6 11:20:48 2017*
%MOMM*%
%LPD*%
G01*
G04 APERTURE LIST*
%ADD10C,0.100000*%
%ADD11C,0.150000*%
%ADD12C,0.010160*%
%ADD13C,0.152400*%
%ADD14C,0.254000*%
%ADD15C,0.124460*%
G04 APERTURE END LIST*
D10*
D11*
X107080000Y-70270000D02*
X107080000Y-72695000D01*
X109340000Y-70020000D02*
X109340000Y-65520000D01*
X116960000Y-65270000D02*
X116680000Y-65270000D01*
X116960000Y-65270000D02*
X116960000Y-70270000D01*
X116960000Y-70270000D02*
X116680000Y-70270000D01*
X106800000Y-70270000D02*
X107080000Y-70270000D01*
X106800000Y-65270000D02*
X106800000Y-70270000D01*
X108959000Y-65270000D02*
X109086000Y-65270000D01*
X109086000Y-65270000D02*
X109340000Y-65524000D01*
X109340000Y-65524000D02*
X109594000Y-65270000D01*
X109594000Y-65270000D02*
X109721000Y-65270000D01*
X106800000Y-65270000D02*
X107080000Y-65270000D01*
X111499000Y-65270000D02*
X111626000Y-65270000D01*
X114039000Y-65270000D02*
X114166000Y-65270000D01*
X109721000Y-70270000D02*
X109594000Y-70270000D01*
X111880000Y-65524000D02*
X112134000Y-65270000D01*
X114420000Y-65524000D02*
X114674000Y-65270000D01*
X109340000Y-70016000D02*
X109086000Y-70270000D01*
X112134000Y-65270000D02*
X112261000Y-65270000D01*
X114674000Y-65270000D02*
X114801000Y-65270000D01*
X109086000Y-70270000D02*
X108959000Y-70270000D01*
X111626000Y-65270000D02*
X111880000Y-65524000D01*
X114166000Y-65270000D02*
X114420000Y-65524000D01*
X109594000Y-70270000D02*
X109340000Y-70016000D01*
X112261000Y-70270000D02*
X112134000Y-70270000D01*
X114801000Y-70270000D02*
X114674000Y-70270000D01*
X111626000Y-70270000D02*
X111499000Y-70270000D01*
X114166000Y-70270000D02*
X114039000Y-70270000D01*
X111880000Y-70016000D02*
X111626000Y-70270000D01*
X114420000Y-70016000D02*
X114166000Y-70270000D01*
X112134000Y-70270000D02*
X111880000Y-70016000D01*
X114674000Y-70270000D02*
X114420000Y-70016000D01*
X111880000Y-70020000D02*
X111880000Y-65520000D01*
X114420000Y-70020000D02*
X114420000Y-65520000D01*
X130080000Y-96200000D02*
X146880000Y-96200000D01*
X146880000Y-96200000D02*
X146880000Y-79400000D01*
X146880000Y-79400000D02*
X130080000Y-79400000D01*
X130080000Y-79400000D02*
X130080000Y-96200000D01*
X130880000Y-79400000D02*
X130080000Y-80200000D01*
X170427000Y-66881000D02*
X170427000Y-67135000D01*
X170427000Y-67135000D02*
X172713000Y-67135000D01*
X172713000Y-67135000D02*
X172713000Y-66881000D01*
X170427000Y-66881000D02*
X172713000Y-66881000D01*
X172713000Y-66881000D02*
X172713000Y-65230000D01*
X170427000Y-63452000D02*
X170427000Y-61801000D01*
X170427000Y-61801000D02*
X172713000Y-61801000D01*
X172713000Y-61801000D02*
X172713000Y-63452000D01*
X170427000Y-65230000D02*
X170427000Y-66881000D01*
D12*
X113070000Y-95320000D02*
X113070000Y-94520000D01*
X113070000Y-94520000D02*
X123870000Y-94520000D01*
X123870000Y-94520000D02*
X123870000Y-95320000D01*
X109870000Y-110520000D02*
X109870000Y-95320000D01*
X109870000Y-95320000D02*
X123870000Y-95320000D01*
X123870000Y-95320000D02*
X123870000Y-110520000D01*
X123870000Y-110520000D02*
X109870000Y-110520000D01*
D11*
X105260000Y-89360000D02*
G75*
G03X105260000Y-89360000I-1000000J0D01*
G01*
X103060000Y-87560000D02*
X105460000Y-87560000D01*
X102460000Y-88160000D02*
X103060000Y-87560000D01*
X102460000Y-90560000D02*
X102460000Y-88160000D01*
X103060000Y-91160000D02*
X102460000Y-90560000D01*
X105460000Y-91160000D02*
X103060000Y-91160000D01*
X106060000Y-90560000D02*
X105460000Y-91160000D01*
X106060000Y-88160000D02*
X106060000Y-90560000D01*
X105460000Y-87560000D02*
X106060000Y-88160000D01*
X102810000Y-86660000D02*
X105710000Y-86660000D01*
X102360000Y-87110000D02*
X102810000Y-86660000D01*
X101560000Y-90360000D02*
X101560000Y-88360000D01*
X102810000Y-92060000D02*
X102360000Y-91610000D01*
X105710000Y-92060000D02*
X102810000Y-92060000D01*
X106160000Y-91610000D02*
X105710000Y-92060000D01*
X106960000Y-88360000D02*
X106960000Y-90360000D01*
X105710000Y-86660000D02*
X106160000Y-87110000D01*
X116690000Y-89360000D02*
G75*
G03X116690000Y-89360000I-1000000J0D01*
G01*
X114490000Y-87560000D02*
X116890000Y-87560000D01*
X113890000Y-88160000D02*
X114490000Y-87560000D01*
X113890000Y-90560000D02*
X113890000Y-88160000D01*
X114490000Y-91160000D02*
X113890000Y-90560000D01*
X116890000Y-91160000D02*
X114490000Y-91160000D01*
X117490000Y-90560000D02*
X116890000Y-91160000D01*
X117490000Y-88160000D02*
X117490000Y-90560000D01*
X116890000Y-87560000D02*
X117490000Y-88160000D01*
X114240000Y-86660000D02*
X117140000Y-86660000D01*
X113790000Y-87110000D02*
X114240000Y-86660000D01*
X112990000Y-90360000D02*
X112990000Y-88360000D01*
X114240000Y-92060000D02*
X113790000Y-91610000D01*
X117140000Y-92060000D02*
X114240000Y-92060000D01*
X117590000Y-91610000D02*
X117140000Y-92060000D01*
X118390000Y-88360000D02*
X118390000Y-90360000D01*
X117140000Y-86660000D02*
X117590000Y-87110000D01*
X161140000Y-100790000D02*
G75*
G03X161140000Y-100790000I-1000000J0D01*
G01*
X158940000Y-98990000D02*
X161340000Y-98990000D01*
X158340000Y-99590000D02*
X158940000Y-98990000D01*
X158340000Y-101990000D02*
X158340000Y-99590000D01*
X158940000Y-102590000D02*
X158340000Y-101990000D01*
X161340000Y-102590000D02*
X158940000Y-102590000D01*
X161940000Y-101990000D02*
X161340000Y-102590000D01*
X161940000Y-99590000D02*
X161940000Y-101990000D01*
X161340000Y-98990000D02*
X161940000Y-99590000D01*
X158690000Y-98090000D02*
X161590000Y-98090000D01*
X158240000Y-98540000D02*
X158690000Y-98090000D01*
X157440000Y-101790000D02*
X157440000Y-99790000D01*
X158690000Y-103490000D02*
X158240000Y-103040000D01*
X161590000Y-103490000D02*
X158690000Y-103490000D01*
X162040000Y-103040000D02*
X161590000Y-103490000D01*
X162840000Y-99790000D02*
X162840000Y-101790000D01*
X161590000Y-98090000D02*
X162040000Y-98540000D01*
X161140000Y-108410000D02*
G75*
G03X161140000Y-108410000I-1000000J0D01*
G01*
X161340000Y-110210000D02*
X158940000Y-110210000D01*
X161940000Y-109610000D02*
X161340000Y-110210000D01*
X161940000Y-107210000D02*
X161940000Y-109610000D01*
X161340000Y-106610000D02*
X161940000Y-107210000D01*
X158940000Y-106610000D02*
X161340000Y-106610000D01*
X158340000Y-107210000D02*
X158940000Y-106610000D01*
X158340000Y-109610000D02*
X158340000Y-107210000D01*
X158940000Y-110210000D02*
X158340000Y-109610000D01*
X161590000Y-111110000D02*
X158690000Y-111110000D01*
X162040000Y-110660000D02*
X161590000Y-111110000D01*
X162840000Y-107410000D02*
X162840000Y-109410000D01*
X161590000Y-105710000D02*
X162040000Y-106160000D01*
X158690000Y-105710000D02*
X161590000Y-105710000D01*
X158240000Y-106160000D02*
X158690000Y-105710000D01*
X157440000Y-109410000D02*
X157440000Y-107410000D01*
X158690000Y-111110000D02*
X158240000Y-110660000D01*
X149710000Y-108410000D02*
G75*
G03X149710000Y-108410000I-1000000J0D01*
G01*
X149910000Y-110210000D02*
X147510000Y-110210000D01*
X150510000Y-109610000D02*
X149910000Y-110210000D01*
X150510000Y-107210000D02*
X150510000Y-109610000D01*
X149910000Y-106610000D02*
X150510000Y-107210000D01*
X147510000Y-106610000D02*
X149910000Y-106610000D01*
X146910000Y-107210000D02*
X147510000Y-106610000D01*
X146910000Y-109610000D02*
X146910000Y-107210000D01*
X147510000Y-110210000D02*
X146910000Y-109610000D01*
X150160000Y-111110000D02*
X147260000Y-111110000D01*
X150610000Y-110660000D02*
X150160000Y-111110000D01*
X151410000Y-107410000D02*
X151410000Y-109410000D01*
X150160000Y-105710000D02*
X150610000Y-106160000D01*
X147260000Y-105710000D02*
X150160000Y-105710000D01*
X146810000Y-106160000D02*
X147260000Y-105710000D01*
X146010000Y-109410000D02*
X146010000Y-107410000D01*
X147260000Y-111110000D02*
X146810000Y-110660000D01*
X172570000Y-108410000D02*
G75*
G03X172570000Y-108410000I-1000000J0D01*
G01*
X172770000Y-110210000D02*
X170370000Y-110210000D01*
X173370000Y-109610000D02*
X172770000Y-110210000D01*
X173370000Y-107210000D02*
X173370000Y-109610000D01*
X172770000Y-106610000D02*
X173370000Y-107210000D01*
X170370000Y-106610000D02*
X172770000Y-106610000D01*
X169770000Y-107210000D02*
X170370000Y-106610000D01*
X169770000Y-109610000D02*
X169770000Y-107210000D01*
X170370000Y-110210000D02*
X169770000Y-109610000D01*
X173020000Y-111110000D02*
X170120000Y-111110000D01*
X173470000Y-110660000D02*
X173020000Y-111110000D01*
X174270000Y-107410000D02*
X174270000Y-109410000D01*
X173020000Y-105710000D02*
X173470000Y-106160000D01*
X170120000Y-105710000D02*
X173020000Y-105710000D01*
X169670000Y-106160000D02*
X170120000Y-105710000D01*
X168870000Y-109410000D02*
X168870000Y-107410000D01*
X170120000Y-111110000D02*
X169670000Y-110660000D01*
X117480000Y-75060000D02*
X117480000Y-77760000D01*
X118980000Y-75060000D02*
X118980000Y-77760000D01*
X118080000Y-76560000D02*
X118330000Y-76560000D01*
X118330000Y-76560000D02*
X118180000Y-76410000D01*
X118580000Y-76310000D02*
X117880000Y-76310000D01*
X118230000Y-76660000D02*
X118230000Y-77010000D01*
X118230000Y-76310000D02*
X118580000Y-76660000D01*
X118580000Y-76660000D02*
X117880000Y-76660000D01*
X117880000Y-76660000D02*
X118230000Y-76310000D01*
X114940000Y-75060000D02*
X114940000Y-77760000D01*
X116440000Y-75060000D02*
X116440000Y-77760000D01*
X115540000Y-76560000D02*
X115790000Y-76560000D01*
X115790000Y-76560000D02*
X115640000Y-76410000D01*
X116040000Y-76310000D02*
X115340000Y-76310000D01*
X115690000Y-76660000D02*
X115690000Y-77010000D01*
X115690000Y-76310000D02*
X116040000Y-76660000D01*
X116040000Y-76660000D02*
X115340000Y-76660000D01*
X115340000Y-76660000D02*
X115690000Y-76310000D01*
X112400000Y-75060000D02*
X112400000Y-77760000D01*
X113900000Y-75060000D02*
X113900000Y-77760000D01*
X113000000Y-76560000D02*
X113250000Y-76560000D01*
X113250000Y-76560000D02*
X113100000Y-76410000D01*
X113500000Y-76310000D02*
X112800000Y-76310000D01*
X113150000Y-76660000D02*
X113150000Y-77010000D01*
X113150000Y-76310000D02*
X113500000Y-76660000D01*
X113500000Y-76660000D02*
X112800000Y-76660000D01*
X112800000Y-76660000D02*
X113150000Y-76310000D01*
X109860000Y-75060000D02*
X109860000Y-77760000D01*
X111360000Y-75060000D02*
X111360000Y-77760000D01*
X110460000Y-76560000D02*
X110710000Y-76560000D01*
X110710000Y-76560000D02*
X110560000Y-76410000D01*
X110960000Y-76310000D02*
X110260000Y-76310000D01*
X110610000Y-76660000D02*
X110610000Y-77010000D01*
X110610000Y-76310000D02*
X110960000Y-76660000D01*
X110960000Y-76660000D02*
X110260000Y-76660000D01*
X110260000Y-76660000D02*
X110610000Y-76310000D01*
X107320000Y-75060000D02*
X107320000Y-77760000D01*
X108820000Y-75060000D02*
X108820000Y-77760000D01*
X107920000Y-76560000D02*
X108170000Y-76560000D01*
X108170000Y-76560000D02*
X108020000Y-76410000D01*
X108420000Y-76310000D02*
X107720000Y-76310000D01*
X108070000Y-76660000D02*
X108070000Y-77010000D01*
X108070000Y-76310000D02*
X108420000Y-76660000D01*
X108420000Y-76660000D02*
X107720000Y-76660000D01*
X107720000Y-76660000D02*
X108070000Y-76310000D01*
X104780000Y-75060000D02*
X104780000Y-77760000D01*
X106280000Y-75060000D02*
X106280000Y-77760000D01*
X105380000Y-76560000D02*
X105630000Y-76560000D01*
X105630000Y-76560000D02*
X105480000Y-76410000D01*
X105880000Y-76310000D02*
X105180000Y-76310000D01*
X105530000Y-76660000D02*
X105530000Y-77010000D01*
X105530000Y-76310000D02*
X105880000Y-76660000D01*
X105880000Y-76660000D02*
X105180000Y-76660000D01*
X105180000Y-76660000D02*
X105530000Y-76310000D01*
X102240000Y-75060000D02*
X102240000Y-77760000D01*
X103740000Y-75060000D02*
X103740000Y-77760000D01*
X102840000Y-76560000D02*
X103090000Y-76560000D01*
X103090000Y-76560000D02*
X102940000Y-76410000D01*
X103340000Y-76310000D02*
X102640000Y-76310000D01*
X102990000Y-76660000D02*
X102990000Y-77010000D01*
X102990000Y-76310000D02*
X103340000Y-76660000D01*
X103340000Y-76660000D02*
X102640000Y-76660000D01*
X102640000Y-76660000D02*
X102990000Y-76310000D01*
X99700000Y-75060000D02*
X99700000Y-77760000D01*
X101200000Y-75060000D02*
X101200000Y-77760000D01*
X100300000Y-76560000D02*
X100550000Y-76560000D01*
X100550000Y-76560000D02*
X100400000Y-76410000D01*
X100800000Y-76310000D02*
X100100000Y-76310000D01*
X100450000Y-76660000D02*
X100450000Y-77010000D01*
X100450000Y-76310000D02*
X100800000Y-76660000D01*
X100800000Y-76660000D02*
X100100000Y-76660000D01*
X100100000Y-76660000D02*
X100450000Y-76310000D01*
D13*
X121580000Y-77540000D02*
X121580000Y-67540000D01*
X121580000Y-67540000D02*
X120880000Y-67540000D01*
X120880000Y-67540000D02*
X120880000Y-62040000D01*
X127580000Y-77540000D02*
X121580000Y-77540000D01*
X127580000Y-62040000D02*
X127580000Y-77540000D01*
X127580000Y-62040000D02*
X120880000Y-62040000D01*
X127080000Y-62040000D02*
X127080000Y-60540000D01*
X127080000Y-60540000D02*
X122080000Y-60540000D01*
X122080000Y-60540000D02*
X122080000Y-62040000D01*
D11*
X176180000Y-92880000D02*
X175980000Y-92880000D01*
X176180000Y-82720000D02*
X175980000Y-82720000D01*
X155080000Y-92050000D02*
G75*
G03X155080000Y-92050000I-250000J0D01*
G01*
X154180000Y-92880000D02*
X154180000Y-93700000D01*
X153980000Y-92880000D02*
X154180000Y-92880000D01*
X153980000Y-82720000D02*
X154180000Y-82720000D01*
X176190000Y-82720000D02*
X176190000Y-92880000D01*
X153970000Y-92880000D02*
X153970000Y-82720000D01*
D14*
X151378260Y-70648160D02*
X150479100Y-70648160D01*
X150479100Y-70648160D02*
X149879660Y-70648160D01*
X140080340Y-70648160D02*
X139480900Y-70648160D01*
X139480900Y-70648160D02*
X138581740Y-70648160D01*
X137481920Y-67249640D02*
X137481920Y-65098260D01*
X137481920Y-61900400D02*
X137481920Y-58992100D01*
X137481920Y-58992100D02*
X152478080Y-58992100D01*
X152478080Y-58992100D02*
X152478080Y-61900400D01*
X152478080Y-65098260D02*
X152478080Y-67249640D01*
X138106760Y-71148540D02*
X139480900Y-71148540D01*
X139480900Y-71148540D02*
X139480900Y-70648160D01*
X150479100Y-70648160D02*
X150479100Y-71148540D01*
X150479100Y-71148540D02*
X151865940Y-71148540D01*
X142981020Y-60732000D02*
X141980260Y-64732500D01*
X141980260Y-64732500D02*
X140982040Y-64732500D01*
X140982040Y-64732500D02*
X139981280Y-60732000D01*
X146978980Y-60732000D02*
X147979740Y-64732500D01*
X147979740Y-64732500D02*
X148977960Y-64732500D01*
X148977960Y-64732500D02*
X149978720Y-60732000D01*
D11*
X85270000Y-112220000D02*
X94100000Y-112220000D01*
X85270000Y-109680000D02*
X85270000Y-112220000D01*
X94100000Y-109680000D02*
X94100000Y-112220000D01*
X94100000Y-112220000D02*
X85270000Y-112220000D01*
X94100000Y-109680000D02*
X85270000Y-109680000D01*
X94100000Y-107140000D02*
X94100000Y-109680000D01*
X85270000Y-107140000D02*
X85270000Y-109680000D01*
X85270000Y-109680000D02*
X94100000Y-109680000D01*
X85270000Y-91900000D02*
X94100000Y-91900000D01*
X85270000Y-89360000D02*
X85270000Y-91900000D01*
X94100000Y-89360000D02*
X94100000Y-91900000D01*
X94100000Y-91900000D02*
X85270000Y-91900000D01*
X94100000Y-94440000D02*
X85270000Y-94440000D01*
X94100000Y-91900000D02*
X94100000Y-94440000D01*
X85270000Y-91900000D02*
X85270000Y-94440000D01*
X85270000Y-94440000D02*
X94100000Y-94440000D01*
X85270000Y-107140000D02*
X94100000Y-107140000D01*
X85270000Y-104600000D02*
X85270000Y-107140000D01*
X94100000Y-104600000D02*
X94100000Y-107140000D01*
X94100000Y-107140000D02*
X85270000Y-107140000D01*
X94100000Y-104600000D02*
X85270000Y-104600000D01*
X94100000Y-102060000D02*
X94100000Y-104600000D01*
X85270000Y-102060000D02*
X85270000Y-104600000D01*
X85270000Y-104600000D02*
X94100000Y-104600000D01*
X85270000Y-102060000D02*
X94100000Y-102060000D01*
X85270000Y-99520000D02*
X85270000Y-102060000D01*
X94100000Y-99520000D02*
X94100000Y-102060000D01*
X94100000Y-102060000D02*
X85270000Y-102060000D01*
X94100000Y-99520000D02*
X85270000Y-99520000D01*
X94100000Y-96980000D02*
X94100000Y-99520000D01*
X85270000Y-96980000D02*
X85270000Y-99520000D01*
X85270000Y-99520000D02*
X94100000Y-99520000D01*
X85270000Y-96980000D02*
X94100000Y-96980000D01*
X85270000Y-94440000D02*
X85270000Y-96980000D01*
X94100000Y-94440000D02*
X94100000Y-96980000D01*
X94100000Y-96980000D02*
X85270000Y-96980000D01*
X94100000Y-79200000D02*
X85270000Y-79200000D01*
X94100000Y-76660000D02*
X94100000Y-79200000D01*
X85270000Y-76660000D02*
X85270000Y-79200000D01*
X85270000Y-79200000D02*
X94100000Y-79200000D01*
X85270000Y-81740000D02*
X94100000Y-81740000D01*
X85270000Y-79200000D02*
X85270000Y-81740000D01*
X94100000Y-79200000D02*
X94100000Y-81740000D01*
X94100000Y-81740000D02*
X85270000Y-81740000D01*
X94100000Y-84280000D02*
X85270000Y-84280000D01*
X94100000Y-81740000D02*
X94100000Y-84280000D01*
X85270000Y-81740000D02*
X85270000Y-84280000D01*
X85270000Y-84280000D02*
X94100000Y-84280000D01*
X85270000Y-86820000D02*
X94100000Y-86820000D01*
X85270000Y-84280000D02*
X85270000Y-86820000D01*
X94100000Y-84280000D02*
X94100000Y-86820000D01*
X94100000Y-86820000D02*
X85270000Y-86820000D01*
X94100000Y-89360000D02*
X85270000Y-89360000D01*
X94100000Y-86820000D02*
X94100000Y-89360000D01*
X85270000Y-86820000D02*
X85270000Y-89360000D01*
X85270000Y-89360000D02*
X94100000Y-89360000D01*
X85270000Y-76660000D02*
X94100000Y-76660000D01*
X85270000Y-74120000D02*
X85270000Y-76660000D01*
X94100000Y-74120000D02*
X94100000Y-76660000D01*
X94100000Y-76660000D02*
X85270000Y-76660000D01*
X94100000Y-74120000D02*
X85270000Y-74120000D01*
X94100000Y-71580000D02*
X94100000Y-74120000D01*
X85270000Y-71580000D02*
X85270000Y-74120000D01*
X85270000Y-74120000D02*
X94100000Y-74120000D01*
X85270000Y-71580000D02*
X94100000Y-71580000D01*
X85270000Y-69040000D02*
X85270000Y-71580000D01*
X94100000Y-69040000D02*
X94100000Y-71580000D01*
X94100000Y-71580000D02*
X85270000Y-71580000D01*
X94100000Y-69040000D02*
X85270000Y-69040000D01*
X94100000Y-66500000D02*
X94100000Y-69040000D01*
X85270000Y-66500000D02*
X85270000Y-69040000D01*
X85270000Y-69040000D02*
X94100000Y-69040000D01*
X85270000Y-66500000D02*
X94100000Y-66500000D01*
X85270000Y-63960000D02*
X85270000Y-66500000D01*
X94100000Y-63960000D02*
X94100000Y-66500000D01*
X94100000Y-66500000D02*
X85270000Y-66500000D01*
X94100000Y-63960000D02*
X85270000Y-63960000D01*
X94100000Y-61420000D02*
X94100000Y-63960000D01*
X99060000Y-62690000D02*
X99060000Y-61140000D01*
X99060000Y-61140000D02*
X97910000Y-61140000D01*
X94100000Y-61420000D02*
X85270000Y-61420000D01*
X85270000Y-61420000D02*
X85270000Y-63960000D01*
X85270000Y-63960000D02*
X94100000Y-63960000D01*
X196910000Y-61420000D02*
X188080000Y-61420000D01*
X196910000Y-63960000D02*
X196910000Y-61420000D01*
X188080000Y-63960000D02*
X188080000Y-61420000D01*
X188080000Y-61420000D02*
X196910000Y-61420000D01*
X188080000Y-63960000D02*
X196910000Y-63960000D01*
X188080000Y-66500000D02*
X188080000Y-63960000D01*
X196910000Y-66500000D02*
X196910000Y-63960000D01*
X196910000Y-63960000D02*
X188080000Y-63960000D01*
X196910000Y-81740000D02*
X188080000Y-81740000D01*
X196910000Y-84280000D02*
X196910000Y-81740000D01*
X188080000Y-84280000D02*
X188080000Y-81740000D01*
X188080000Y-81740000D02*
X196910000Y-81740000D01*
X188080000Y-79200000D02*
X196910000Y-79200000D01*
X188080000Y-81740000D02*
X188080000Y-79200000D01*
X196910000Y-81740000D02*
X196910000Y-79200000D01*
X196910000Y-79200000D02*
X188080000Y-79200000D01*
X196910000Y-66500000D02*
X188080000Y-66500000D01*
X196910000Y-69040000D02*
X196910000Y-66500000D01*
X188080000Y-69040000D02*
X188080000Y-66500000D01*
X188080000Y-66500000D02*
X196910000Y-66500000D01*
X188080000Y-69040000D02*
X196910000Y-69040000D01*
X188080000Y-71580000D02*
X188080000Y-69040000D01*
X196910000Y-71580000D02*
X196910000Y-69040000D01*
X196910000Y-69040000D02*
X188080000Y-69040000D01*
X196910000Y-71580000D02*
X188080000Y-71580000D01*
X196910000Y-74120000D02*
X196910000Y-71580000D01*
X188080000Y-74120000D02*
X188080000Y-71580000D01*
X188080000Y-71580000D02*
X196910000Y-71580000D01*
X188080000Y-74120000D02*
X196910000Y-74120000D01*
X188080000Y-76660000D02*
X188080000Y-74120000D01*
X196910000Y-76660000D02*
X196910000Y-74120000D01*
X196910000Y-74120000D02*
X188080000Y-74120000D01*
X196910000Y-76660000D02*
X188080000Y-76660000D01*
X196910000Y-79200000D02*
X196910000Y-76660000D01*
X188080000Y-79200000D02*
X188080000Y-76660000D01*
X188080000Y-76660000D02*
X196910000Y-76660000D01*
X188080000Y-94440000D02*
X196910000Y-94440000D01*
X188080000Y-96980000D02*
X188080000Y-94440000D01*
X196910000Y-96980000D02*
X196910000Y-94440000D01*
X196910000Y-94440000D02*
X188080000Y-94440000D01*
X196910000Y-91900000D02*
X188080000Y-91900000D01*
X196910000Y-94440000D02*
X196910000Y-91900000D01*
X188080000Y-94440000D02*
X188080000Y-91900000D01*
X188080000Y-91900000D02*
X196910000Y-91900000D01*
X188080000Y-89360000D02*
X196910000Y-89360000D01*
X188080000Y-91900000D02*
X188080000Y-89360000D01*
X196910000Y-91900000D02*
X196910000Y-89360000D01*
X196910000Y-89360000D02*
X188080000Y-89360000D01*
X196910000Y-86820000D02*
X188080000Y-86820000D01*
X196910000Y-89360000D02*
X196910000Y-86820000D01*
X188080000Y-89360000D02*
X188080000Y-86820000D01*
X188080000Y-86820000D02*
X196910000Y-86820000D01*
X188080000Y-84280000D02*
X196910000Y-84280000D01*
X188080000Y-86820000D02*
X188080000Y-84280000D01*
X196910000Y-86820000D02*
X196910000Y-84280000D01*
X196910000Y-84280000D02*
X188080000Y-84280000D01*
X196910000Y-96980000D02*
X188080000Y-96980000D01*
X196910000Y-99520000D02*
X196910000Y-96980000D01*
X188080000Y-99520000D02*
X188080000Y-96980000D01*
X188080000Y-96980000D02*
X196910000Y-96980000D01*
X188080000Y-99520000D02*
X196910000Y-99520000D01*
X188080000Y-102060000D02*
X188080000Y-99520000D01*
X196910000Y-102060000D02*
X196910000Y-99520000D01*
X196910000Y-99520000D02*
X188080000Y-99520000D01*
X196910000Y-102060000D02*
X188080000Y-102060000D01*
X196910000Y-104600000D02*
X196910000Y-102060000D01*
X188080000Y-104600000D02*
X188080000Y-102060000D01*
X188080000Y-102060000D02*
X196910000Y-102060000D01*
X188080000Y-104600000D02*
X196910000Y-104600000D01*
X188080000Y-107140000D02*
X188080000Y-104600000D01*
X196910000Y-107140000D02*
X196910000Y-104600000D01*
X196910000Y-104600000D02*
X188080000Y-104600000D01*
X196910000Y-107140000D02*
X188080000Y-107140000D01*
X196910000Y-109680000D02*
X196910000Y-107140000D01*
X188080000Y-109680000D02*
X188080000Y-107140000D01*
X188080000Y-107140000D02*
X196910000Y-107140000D01*
X188080000Y-109680000D02*
X196910000Y-109680000D01*
X188080000Y-112220000D02*
X188080000Y-109680000D01*
X183120000Y-110950000D02*
X183120000Y-112500000D01*
X183120000Y-112500000D02*
X184270000Y-112500000D01*
X188080000Y-112220000D02*
X196910000Y-112220000D01*
X196910000Y-112220000D02*
X196910000Y-109680000D01*
X196910000Y-109680000D02*
X188080000Y-109680000D01*
X166220000Y-65230000D02*
G75*
G03X166220000Y-65230000I-1000000J0D01*
G01*
X166420000Y-67030000D02*
X164020000Y-67030000D01*
X167020000Y-66430000D02*
X166420000Y-67030000D01*
X167020000Y-64030000D02*
X167020000Y-66430000D01*
X166420000Y-63430000D02*
X167020000Y-64030000D01*
X164020000Y-63430000D02*
X166420000Y-63430000D01*
X163420000Y-64030000D02*
X164020000Y-63430000D01*
X163420000Y-66430000D02*
X163420000Y-64030000D01*
X164020000Y-67030000D02*
X163420000Y-66430000D01*
X166670000Y-67930000D02*
X163770000Y-67930000D01*
X167120000Y-67480000D02*
X166670000Y-67930000D01*
X167920000Y-64230000D02*
X167920000Y-66230000D01*
X166670000Y-62530000D02*
X167120000Y-62980000D01*
X163770000Y-62530000D02*
X166670000Y-62530000D01*
X163320000Y-62980000D02*
X163770000Y-62530000D01*
X162520000Y-66230000D02*
X162520000Y-64230000D01*
X163770000Y-67930000D02*
X163320000Y-67480000D01*
X149480000Y-72810000D02*
X150480000Y-72810000D01*
X150480000Y-74160000D02*
X149480000Y-74160000D01*
X105810000Y-99520000D02*
X105810000Y-97970000D01*
X102990000Y-100790000D02*
X105530000Y-100790000D01*
X105810000Y-97970000D02*
X104260000Y-97970000D01*
X100450000Y-100790000D02*
X102990000Y-100790000D01*
X102990000Y-100790000D02*
X102990000Y-98250000D01*
X102990000Y-98250000D02*
X100450000Y-98250000D01*
X100450000Y-98250000D02*
X100450000Y-100790000D01*
X153790000Y-73485000D02*
G75*
G03X153790000Y-73485000I-1905000J0D01*
G01*
X129660000Y-73485000D02*
G75*
G03X129660000Y-73485000I-1905000J0D01*
G01*
X129660000Y-100155000D02*
G75*
G03X129660000Y-100155000I-1905000J0D01*
G01*
X153790000Y-100155000D02*
G75*
G03X153790000Y-100155000I-1905000J0D01*
G01*
X153790000Y-77930000D02*
X153790000Y-96980000D01*
X125850000Y-77930000D02*
X153790000Y-77930000D01*
X125850000Y-96980000D02*
X125850000Y-77930000D01*
X153790000Y-96980000D02*
X125850000Y-96980000D01*
X155060000Y-70310000D02*
X155060000Y-103330000D01*
X124580000Y-70310000D02*
X155060000Y-70310000D01*
X124580000Y-103330000D02*
X124580000Y-70310000D01*
X155060000Y-103330000D02*
X124580000Y-103330000D01*
X146170000Y-99520000D02*
X130930000Y-99520000D01*
X130930000Y-99520000D02*
X130930000Y-102060000D01*
X130930000Y-102060000D02*
X146170000Y-102060000D01*
X148990000Y-99240000D02*
X147440000Y-99240000D01*
X146170000Y-99520000D02*
X146170000Y-102060000D01*
X147440000Y-102340000D02*
X148990000Y-102340000D01*
X148990000Y-102340000D02*
X148990000Y-99240000D01*
X131934000Y-107724000D02*
X131934000Y-105024000D01*
X130434000Y-107724000D02*
X130434000Y-105024000D01*
X131334000Y-106224000D02*
X131084000Y-106224000D01*
X131084000Y-106224000D02*
X131234000Y-106374000D01*
X130834000Y-106474000D02*
X131534000Y-106474000D01*
X131184000Y-106124000D02*
X131184000Y-105774000D01*
X131184000Y-106474000D02*
X130834000Y-106124000D01*
X130834000Y-106124000D02*
X131534000Y-106124000D01*
X131534000Y-106124000D02*
X131184000Y-106474000D01*
X133482000Y-104524000D02*
X133482000Y-107224000D01*
X134982000Y-104524000D02*
X134982000Y-107224000D01*
X134082000Y-106024000D02*
X134332000Y-106024000D01*
X134332000Y-106024000D02*
X134182000Y-105874000D01*
X134582000Y-105774000D02*
X133882000Y-105774000D01*
X134232000Y-106124000D02*
X134232000Y-106474000D01*
X134232000Y-105774000D02*
X134582000Y-106124000D01*
X134582000Y-106124000D02*
X133882000Y-106124000D01*
X133882000Y-106124000D02*
X134232000Y-105774000D01*
X130509000Y-110180000D02*
X130509000Y-109180000D01*
X131859000Y-109180000D02*
X131859000Y-110180000D01*
X134907000Y-109180000D02*
X134907000Y-110180000D01*
X133557000Y-110180000D02*
X133557000Y-109180000D01*
X106880000Y-100150000D02*
X106880000Y-99450000D01*
X108080000Y-99450000D02*
X108080000Y-100150000D01*
X106805000Y-104300000D02*
X106805000Y-103300000D01*
X108155000Y-103300000D02*
X108155000Y-104300000D01*
X143630000Y-110950000D02*
X143630000Y-105870000D01*
X143910000Y-103050000D02*
X143910000Y-104600000D01*
X141090000Y-103330000D02*
X141090000Y-105870000D01*
X141090000Y-105870000D02*
X143630000Y-105870000D01*
X143630000Y-110950000D02*
X138550000Y-110950000D01*
X138550000Y-110950000D02*
X138550000Y-105870000D01*
X143910000Y-103050000D02*
X142360000Y-103050000D01*
X138550000Y-103330000D02*
X141090000Y-103330000D01*
X138550000Y-105870000D02*
X138550000Y-103330000D01*
X118905000Y-79970000D02*
X118905000Y-80970000D01*
X117555000Y-80970000D02*
X117555000Y-79970000D01*
X116365000Y-79970000D02*
X116365000Y-80970000D01*
X115015000Y-80970000D02*
X115015000Y-79970000D01*
X113825000Y-79970000D02*
X113825000Y-80970000D01*
X112475000Y-80970000D02*
X112475000Y-79970000D01*
X111285000Y-79970000D02*
X111285000Y-80970000D01*
X109935000Y-80970000D02*
X109935000Y-79970000D01*
X108745000Y-79970000D02*
X108745000Y-80970000D01*
X107395000Y-80970000D02*
X107395000Y-79970000D01*
X106205000Y-79970000D02*
X106205000Y-80970000D01*
X104855000Y-80970000D02*
X104855000Y-79970000D01*
X103665000Y-79970000D02*
X103665000Y-80970000D01*
X102315000Y-80970000D02*
X102315000Y-79970000D01*
X101125000Y-79970000D02*
X101125000Y-80970000D01*
X99775000Y-80970000D02*
X99775000Y-79970000D01*
X174660000Y-102780000D02*
X174660000Y-102030000D01*
X179910000Y-97530000D02*
X179910000Y-98280000D01*
X174660000Y-97530000D02*
X174660000Y-98280000D01*
X179910000Y-102780000D02*
X179160000Y-102780000D01*
X179910000Y-97530000D02*
X179160000Y-97530000D01*
X174660000Y-97530000D02*
X175410000Y-97530000D01*
X174660000Y-102780000D02*
X175410000Y-102780000D01*
X110746667Y-74674762D02*
X110889524Y-74722381D01*
X111127620Y-74722381D01*
X111222858Y-74674762D01*
X111270477Y-74627143D01*
X111318096Y-74531905D01*
X111318096Y-74436667D01*
X111270477Y-74341429D01*
X111222858Y-74293810D01*
X111127620Y-74246190D01*
X110937143Y-74198571D01*
X110841905Y-74150952D01*
X110794286Y-74103333D01*
X110746667Y-74008095D01*
X110746667Y-73912857D01*
X110794286Y-73817619D01*
X110841905Y-73770000D01*
X110937143Y-73722381D01*
X111175239Y-73722381D01*
X111318096Y-73770000D01*
X111651429Y-73722381D02*
X111889524Y-74722381D01*
X112080001Y-74008095D01*
X112270477Y-74722381D01*
X112508572Y-73722381D01*
X113413334Y-74722381D02*
X112841905Y-74722381D01*
X113127619Y-74722381D02*
X113127619Y-73722381D01*
X113032381Y-73865238D01*
X112937143Y-73960476D01*
X112841905Y-74008095D01*
X130118095Y-78052381D02*
X130118095Y-78861905D01*
X130165714Y-78957143D01*
X130213333Y-79004762D01*
X130308571Y-79052381D01*
X130499048Y-79052381D01*
X130594286Y-79004762D01*
X130641905Y-78957143D01*
X130689524Y-78861905D01*
X130689524Y-78052381D01*
X131689524Y-79052381D02*
X131118095Y-79052381D01*
X131403809Y-79052381D02*
X131403809Y-78052381D01*
X131308571Y-78195238D01*
X131213333Y-78290476D01*
X131118095Y-78338095D01*
X172022381Y-65555286D02*
X171022381Y-65555286D01*
X171022381Y-65317191D01*
X171070000Y-65174333D01*
X171165238Y-65079095D01*
X171260476Y-65031476D01*
X171450952Y-64983857D01*
X171593810Y-64983857D01*
X171784286Y-65031476D01*
X171879524Y-65079095D01*
X171974762Y-65174333D01*
X172022381Y-65317191D01*
X172022381Y-65555286D01*
X171022381Y-64079095D02*
X171022381Y-64555286D01*
X171498571Y-64602905D01*
X171450952Y-64555286D01*
X171403333Y-64460048D01*
X171403333Y-64221952D01*
X171450952Y-64126714D01*
X171498571Y-64079095D01*
X171593810Y-64031476D01*
X171831905Y-64031476D01*
X171927143Y-64079095D01*
X171974762Y-64126714D01*
X172022381Y-64221952D01*
X172022381Y-64460048D01*
X171974762Y-64555286D01*
X171927143Y-64602905D01*
X171117619Y-63650524D02*
X171070000Y-63602905D01*
X171022381Y-63507667D01*
X171022381Y-63269571D01*
X171070000Y-63174333D01*
X171117619Y-63126714D01*
X171212857Y-63079095D01*
X171308095Y-63079095D01*
X171450952Y-63126714D01*
X172022381Y-63698143D01*
X172022381Y-63079095D01*
D15*
X116113564Y-105062630D02*
X116199198Y-105091175D01*
X116341922Y-105091175D01*
X116399012Y-105062630D01*
X116427556Y-105034086D01*
X116456101Y-104976996D01*
X116456101Y-104919907D01*
X116427556Y-104862817D01*
X116399012Y-104834272D01*
X116341922Y-104805728D01*
X116227743Y-104777183D01*
X116170654Y-104748638D01*
X116142109Y-104720093D01*
X116113564Y-104663004D01*
X116113564Y-104605914D01*
X116142109Y-104548825D01*
X116170654Y-104520280D01*
X116227743Y-104491735D01*
X116370467Y-104491735D01*
X116456101Y-104520280D01*
X116713004Y-105091175D02*
X116713004Y-104491735D01*
X116855728Y-104491735D01*
X116941362Y-104520280D01*
X116998451Y-104577370D01*
X117026996Y-104634459D01*
X117055541Y-104748638D01*
X117055541Y-104834272D01*
X117026996Y-104948451D01*
X116998451Y-105005541D01*
X116941362Y-105062630D01*
X116855728Y-105091175D01*
X116713004Y-105091175D01*
X117626436Y-105091175D02*
X117283899Y-105091175D01*
X117455168Y-105091175D02*
X117455168Y-104491735D01*
X117398078Y-104577370D01*
X117340989Y-104634459D01*
X117283899Y-104663004D01*
X113744350Y-106441175D02*
X113744350Y-105841735D01*
X113944163Y-106269907D01*
X114143976Y-105841735D01*
X114143976Y-106441175D01*
X114429424Y-106441175D02*
X114429424Y-106041549D01*
X114429424Y-105841735D02*
X114400879Y-105870280D01*
X114429424Y-105898825D01*
X114457969Y-105870280D01*
X114429424Y-105841735D01*
X114429424Y-105898825D01*
X114971775Y-106412630D02*
X114914685Y-106441175D01*
X114800506Y-106441175D01*
X114743417Y-106412630D01*
X114714872Y-106384086D01*
X114686327Y-106326996D01*
X114686327Y-106155728D01*
X114714872Y-106098638D01*
X114743417Y-106070093D01*
X114800506Y-106041549D01*
X114914685Y-106041549D01*
X114971775Y-106070093D01*
X115228678Y-106441175D02*
X115228678Y-106041549D01*
X115228678Y-106155728D02*
X115257223Y-106098638D01*
X115285767Y-106070093D01*
X115342857Y-106041549D01*
X115399946Y-106041549D01*
X115685394Y-106441175D02*
X115628305Y-106412630D01*
X115599760Y-106384086D01*
X115571215Y-106326996D01*
X115571215Y-106155728D01*
X115599760Y-106098638D01*
X115628305Y-106070093D01*
X115685394Y-106041549D01*
X115771028Y-106041549D01*
X115828118Y-106070093D01*
X115856663Y-106098638D01*
X115885207Y-106155728D01*
X115885207Y-106326996D01*
X115856663Y-106384086D01*
X115828118Y-106412630D01*
X115771028Y-106441175D01*
X115685394Y-106441175D01*
X115999386Y-106498265D02*
X116456102Y-106498265D01*
X116570281Y-106412630D02*
X116655915Y-106441175D01*
X116798639Y-106441175D01*
X116855729Y-106412630D01*
X116884273Y-106384086D01*
X116912818Y-106326996D01*
X116912818Y-106269907D01*
X116884273Y-106212817D01*
X116855729Y-106184272D01*
X116798639Y-106155728D01*
X116684460Y-106127183D01*
X116627371Y-106098638D01*
X116598826Y-106070093D01*
X116570281Y-106013004D01*
X116570281Y-105955914D01*
X116598826Y-105898825D01*
X116627371Y-105870280D01*
X116684460Y-105841735D01*
X116827184Y-105841735D01*
X116912818Y-105870280D01*
X117169721Y-106441175D02*
X117169721Y-105841735D01*
X117312445Y-105841735D01*
X117398079Y-105870280D01*
X117455168Y-105927370D01*
X117483713Y-105984459D01*
X117512258Y-106098638D01*
X117512258Y-106184272D01*
X117483713Y-106298451D01*
X117455168Y-106355541D01*
X117398079Y-106412630D01*
X117312445Y-106441175D01*
X117169721Y-106441175D01*
X117626437Y-106498265D02*
X118083153Y-106498265D01*
X118568414Y-106384086D02*
X118539869Y-106412630D01*
X118454235Y-106441175D01*
X118397145Y-106441175D01*
X118311511Y-106412630D01*
X118254422Y-106355541D01*
X118225877Y-106298451D01*
X118197332Y-106184272D01*
X118197332Y-106098638D01*
X118225877Y-105984459D01*
X118254422Y-105927370D01*
X118311511Y-105870280D01*
X118397145Y-105841735D01*
X118454235Y-105841735D01*
X118539869Y-105870280D01*
X118568414Y-105898825D01*
X119082220Y-106441175D02*
X119082220Y-106127183D01*
X119053675Y-106070093D01*
X118996585Y-106041549D01*
X118882406Y-106041549D01*
X118825317Y-106070093D01*
X119082220Y-106412630D02*
X119025130Y-106441175D01*
X118882406Y-106441175D01*
X118825317Y-106412630D01*
X118796772Y-106355541D01*
X118796772Y-106298451D01*
X118825317Y-106241362D01*
X118882406Y-106212817D01*
X119025130Y-106212817D01*
X119082220Y-106184272D01*
X119367667Y-106441175D02*
X119367667Y-106041549D01*
X119367667Y-106155728D02*
X119396212Y-106098638D01*
X119424756Y-106070093D01*
X119481846Y-106041549D01*
X119538935Y-106041549D01*
X119995652Y-106441175D02*
X119995652Y-105841735D01*
X119995652Y-106412630D02*
X119938562Y-106441175D01*
X119824383Y-106441175D01*
X119767294Y-106412630D01*
X119738749Y-106384086D01*
X119710204Y-106326996D01*
X119710204Y-106155728D01*
X119738749Y-106098638D01*
X119767294Y-106070093D01*
X119824383Y-106041549D01*
X119938562Y-106041549D01*
X119995652Y-106070093D01*
D11*
X102950477Y-85688571D02*
X103093334Y-85736190D01*
X103140953Y-85783810D01*
X103188572Y-85879048D01*
X103188572Y-86021905D01*
X103140953Y-86117143D01*
X103093334Y-86164762D01*
X102998096Y-86212381D01*
X102617143Y-86212381D01*
X102617143Y-85212381D01*
X102950477Y-85212381D01*
X103045715Y-85260000D01*
X103093334Y-85307619D01*
X103140953Y-85402857D01*
X103140953Y-85498095D01*
X103093334Y-85593333D01*
X103045715Y-85640952D01*
X102950477Y-85688571D01*
X102617143Y-85688571D01*
X103474286Y-85212381D02*
X104045715Y-85212381D01*
X103760000Y-86212381D02*
X103760000Y-85212381D01*
X104379048Y-86212381D02*
X104379048Y-85212381D01*
X104950477Y-86212381D01*
X104950477Y-85212381D01*
X105950477Y-86212381D02*
X105379048Y-86212381D01*
X105664762Y-86212381D02*
X105664762Y-85212381D01*
X105569524Y-85355238D01*
X105474286Y-85450476D01*
X105379048Y-85498095D01*
X114380477Y-85688571D02*
X114523334Y-85736190D01*
X114570953Y-85783810D01*
X114618572Y-85879048D01*
X114618572Y-86021905D01*
X114570953Y-86117143D01*
X114523334Y-86164762D01*
X114428096Y-86212381D01*
X114047143Y-86212381D01*
X114047143Y-85212381D01*
X114380477Y-85212381D01*
X114475715Y-85260000D01*
X114523334Y-85307619D01*
X114570953Y-85402857D01*
X114570953Y-85498095D01*
X114523334Y-85593333D01*
X114475715Y-85640952D01*
X114380477Y-85688571D01*
X114047143Y-85688571D01*
X114904286Y-85212381D02*
X115475715Y-85212381D01*
X115190000Y-86212381D02*
X115190000Y-85212381D01*
X115809048Y-86212381D02*
X115809048Y-85212381D01*
X116380477Y-86212381D01*
X116380477Y-85212381D01*
X116809048Y-85307619D02*
X116856667Y-85260000D01*
X116951905Y-85212381D01*
X117190001Y-85212381D01*
X117285239Y-85260000D01*
X117332858Y-85307619D01*
X117380477Y-85402857D01*
X117380477Y-85498095D01*
X117332858Y-85640952D01*
X116761429Y-86212381D01*
X117380477Y-86212381D01*
X158830477Y-97118571D02*
X158973334Y-97166190D01*
X159020953Y-97213810D01*
X159068572Y-97309048D01*
X159068572Y-97451905D01*
X159020953Y-97547143D01*
X158973334Y-97594762D01*
X158878096Y-97642381D01*
X158497143Y-97642381D01*
X158497143Y-96642381D01*
X158830477Y-96642381D01*
X158925715Y-96690000D01*
X158973334Y-96737619D01*
X159020953Y-96832857D01*
X159020953Y-96928095D01*
X158973334Y-97023333D01*
X158925715Y-97070952D01*
X158830477Y-97118571D01*
X158497143Y-97118571D01*
X159354286Y-96642381D02*
X159925715Y-96642381D01*
X159640000Y-97642381D02*
X159640000Y-96642381D01*
X160259048Y-97642381D02*
X160259048Y-96642381D01*
X160830477Y-97642381D01*
X160830477Y-96642381D01*
X161211429Y-96642381D02*
X161830477Y-96642381D01*
X161497143Y-97023333D01*
X161640001Y-97023333D01*
X161735239Y-97070952D01*
X161782858Y-97118571D01*
X161830477Y-97213810D01*
X161830477Y-97451905D01*
X161782858Y-97547143D01*
X161735239Y-97594762D01*
X161640001Y-97642381D01*
X161354286Y-97642381D01*
X161259048Y-97594762D01*
X161211429Y-97547143D01*
X158830477Y-111938571D02*
X158973334Y-111986190D01*
X159020953Y-112033810D01*
X159068572Y-112129048D01*
X159068572Y-112271905D01*
X159020953Y-112367143D01*
X158973334Y-112414762D01*
X158878096Y-112462381D01*
X158497143Y-112462381D01*
X158497143Y-111462381D01*
X158830477Y-111462381D01*
X158925715Y-111510000D01*
X158973334Y-111557619D01*
X159020953Y-111652857D01*
X159020953Y-111748095D01*
X158973334Y-111843333D01*
X158925715Y-111890952D01*
X158830477Y-111938571D01*
X158497143Y-111938571D01*
X159354286Y-111462381D02*
X159925715Y-111462381D01*
X159640000Y-112462381D02*
X159640000Y-111462381D01*
X160259048Y-112462381D02*
X160259048Y-111462381D01*
X160830477Y-112462381D01*
X160830477Y-111462381D01*
X161735239Y-111795714D02*
X161735239Y-112462381D01*
X161497143Y-111414762D02*
X161259048Y-112129048D01*
X161878096Y-112129048D01*
X147400477Y-111938571D02*
X147543334Y-111986190D01*
X147590953Y-112033810D01*
X147638572Y-112129048D01*
X147638572Y-112271905D01*
X147590953Y-112367143D01*
X147543334Y-112414762D01*
X147448096Y-112462381D01*
X147067143Y-112462381D01*
X147067143Y-111462381D01*
X147400477Y-111462381D01*
X147495715Y-111510000D01*
X147543334Y-111557619D01*
X147590953Y-111652857D01*
X147590953Y-111748095D01*
X147543334Y-111843333D01*
X147495715Y-111890952D01*
X147400477Y-111938571D01*
X147067143Y-111938571D01*
X147924286Y-111462381D02*
X148495715Y-111462381D01*
X148210000Y-112462381D02*
X148210000Y-111462381D01*
X148829048Y-112462381D02*
X148829048Y-111462381D01*
X149400477Y-112462381D01*
X149400477Y-111462381D01*
X150352858Y-111462381D02*
X149876667Y-111462381D01*
X149829048Y-111938571D01*
X149876667Y-111890952D01*
X149971905Y-111843333D01*
X150210001Y-111843333D01*
X150305239Y-111890952D01*
X150352858Y-111938571D01*
X150400477Y-112033810D01*
X150400477Y-112271905D01*
X150352858Y-112367143D01*
X150305239Y-112414762D01*
X150210001Y-112462381D01*
X149971905Y-112462381D01*
X149876667Y-112414762D01*
X149829048Y-112367143D01*
X170260477Y-111938571D02*
X170403334Y-111986190D01*
X170450953Y-112033810D01*
X170498572Y-112129048D01*
X170498572Y-112271905D01*
X170450953Y-112367143D01*
X170403334Y-112414762D01*
X170308096Y-112462381D01*
X169927143Y-112462381D01*
X169927143Y-111462381D01*
X170260477Y-111462381D01*
X170355715Y-111510000D01*
X170403334Y-111557619D01*
X170450953Y-111652857D01*
X170450953Y-111748095D01*
X170403334Y-111843333D01*
X170355715Y-111890952D01*
X170260477Y-111938571D01*
X169927143Y-111938571D01*
X170784286Y-111462381D02*
X171355715Y-111462381D01*
X171070000Y-112462381D02*
X171070000Y-111462381D01*
X171689048Y-112462381D02*
X171689048Y-111462381D01*
X172260477Y-112462381D01*
X172260477Y-111462381D01*
X173165239Y-111462381D02*
X172974762Y-111462381D01*
X172879524Y-111510000D01*
X172831905Y-111557619D01*
X172736667Y-111700476D01*
X172689048Y-111890952D01*
X172689048Y-112271905D01*
X172736667Y-112367143D01*
X172784286Y-112414762D01*
X172879524Y-112462381D01*
X173070001Y-112462381D01*
X173165239Y-112414762D01*
X173212858Y-112367143D01*
X173260477Y-112271905D01*
X173260477Y-112033810D01*
X173212858Y-111938571D01*
X173165239Y-111890952D01*
X173070001Y-111843333D01*
X172879524Y-111843333D01*
X172784286Y-111890952D01*
X172736667Y-111938571D01*
X172689048Y-112033810D01*
X120432381Y-77398095D02*
X119432381Y-77398095D01*
X119432381Y-77160000D01*
X119480000Y-77017142D01*
X119575238Y-76921904D01*
X119670476Y-76874285D01*
X119860952Y-76826666D01*
X120003810Y-76826666D01*
X120194286Y-76874285D01*
X120289524Y-76921904D01*
X120384762Y-77017142D01*
X120432381Y-77160000D01*
X120432381Y-77398095D01*
X119432381Y-76207619D02*
X119432381Y-76112380D01*
X119480000Y-76017142D01*
X119527619Y-75969523D01*
X119622857Y-75921904D01*
X119813333Y-75874285D01*
X120051429Y-75874285D01*
X120241905Y-75921904D01*
X120337143Y-75969523D01*
X120384762Y-76017142D01*
X120432381Y-76112380D01*
X120432381Y-76207619D01*
X120384762Y-76302857D01*
X120337143Y-76350476D01*
X120241905Y-76398095D01*
X120051429Y-76445714D01*
X119813333Y-76445714D01*
X119622857Y-76398095D01*
X119527619Y-76350476D01*
X119480000Y-76302857D01*
X119432381Y-76207619D01*
X117892381Y-77398095D02*
X116892381Y-77398095D01*
X116892381Y-77160000D01*
X116940000Y-77017142D01*
X117035238Y-76921904D01*
X117130476Y-76874285D01*
X117320952Y-76826666D01*
X117463810Y-76826666D01*
X117654286Y-76874285D01*
X117749524Y-76921904D01*
X117844762Y-77017142D01*
X117892381Y-77160000D01*
X117892381Y-77398095D01*
X117892381Y-75874285D02*
X117892381Y-76445714D01*
X117892381Y-76160000D02*
X116892381Y-76160000D01*
X117035238Y-76255238D01*
X117130476Y-76350476D01*
X117178095Y-76445714D01*
X115352381Y-77398095D02*
X114352381Y-77398095D01*
X114352381Y-77160000D01*
X114400000Y-77017142D01*
X114495238Y-76921904D01*
X114590476Y-76874285D01*
X114780952Y-76826666D01*
X114923810Y-76826666D01*
X115114286Y-76874285D01*
X115209524Y-76921904D01*
X115304762Y-77017142D01*
X115352381Y-77160000D01*
X115352381Y-77398095D01*
X114447619Y-76445714D02*
X114400000Y-76398095D01*
X114352381Y-76302857D01*
X114352381Y-76064761D01*
X114400000Y-75969523D01*
X114447619Y-75921904D01*
X114542857Y-75874285D01*
X114638095Y-75874285D01*
X114780952Y-75921904D01*
X115352381Y-76493333D01*
X115352381Y-75874285D01*
X112812381Y-77398095D02*
X111812381Y-77398095D01*
X111812381Y-77160000D01*
X111860000Y-77017142D01*
X111955238Y-76921904D01*
X112050476Y-76874285D01*
X112240952Y-76826666D01*
X112383810Y-76826666D01*
X112574286Y-76874285D01*
X112669524Y-76921904D01*
X112764762Y-77017142D01*
X112812381Y-77160000D01*
X112812381Y-77398095D01*
X111812381Y-76493333D02*
X111812381Y-75874285D01*
X112193333Y-76207619D01*
X112193333Y-76064761D01*
X112240952Y-75969523D01*
X112288571Y-75921904D01*
X112383810Y-75874285D01*
X112621905Y-75874285D01*
X112717143Y-75921904D01*
X112764762Y-75969523D01*
X112812381Y-76064761D01*
X112812381Y-76350476D01*
X112764762Y-76445714D01*
X112717143Y-76493333D01*
X110272381Y-77398095D02*
X109272381Y-77398095D01*
X109272381Y-77160000D01*
X109320000Y-77017142D01*
X109415238Y-76921904D01*
X109510476Y-76874285D01*
X109700952Y-76826666D01*
X109843810Y-76826666D01*
X110034286Y-76874285D01*
X110129524Y-76921904D01*
X110224762Y-77017142D01*
X110272381Y-77160000D01*
X110272381Y-77398095D01*
X109605714Y-75969523D02*
X110272381Y-75969523D01*
X109224762Y-76207619D02*
X109939048Y-76445714D01*
X109939048Y-75826666D01*
X107732381Y-77398095D02*
X106732381Y-77398095D01*
X106732381Y-77160000D01*
X106780000Y-77017142D01*
X106875238Y-76921904D01*
X106970476Y-76874285D01*
X107160952Y-76826666D01*
X107303810Y-76826666D01*
X107494286Y-76874285D01*
X107589524Y-76921904D01*
X107684762Y-77017142D01*
X107732381Y-77160000D01*
X107732381Y-77398095D01*
X106732381Y-75921904D02*
X106732381Y-76398095D01*
X107208571Y-76445714D01*
X107160952Y-76398095D01*
X107113333Y-76302857D01*
X107113333Y-76064761D01*
X107160952Y-75969523D01*
X107208571Y-75921904D01*
X107303810Y-75874285D01*
X107541905Y-75874285D01*
X107637143Y-75921904D01*
X107684762Y-75969523D01*
X107732381Y-76064761D01*
X107732381Y-76302857D01*
X107684762Y-76398095D01*
X107637143Y-76445714D01*
X105192381Y-77398095D02*
X104192381Y-77398095D01*
X104192381Y-77160000D01*
X104240000Y-77017142D01*
X104335238Y-76921904D01*
X104430476Y-76874285D01*
X104620952Y-76826666D01*
X104763810Y-76826666D01*
X104954286Y-76874285D01*
X105049524Y-76921904D01*
X105144762Y-77017142D01*
X105192381Y-77160000D01*
X105192381Y-77398095D01*
X104192381Y-75969523D02*
X104192381Y-76160000D01*
X104240000Y-76255238D01*
X104287619Y-76302857D01*
X104430476Y-76398095D01*
X104620952Y-76445714D01*
X105001905Y-76445714D01*
X105097143Y-76398095D01*
X105144762Y-76350476D01*
X105192381Y-76255238D01*
X105192381Y-76064761D01*
X105144762Y-75969523D01*
X105097143Y-75921904D01*
X105001905Y-75874285D01*
X104763810Y-75874285D01*
X104668571Y-75921904D01*
X104620952Y-75969523D01*
X104573333Y-76064761D01*
X104573333Y-76255238D01*
X104620952Y-76350476D01*
X104668571Y-76398095D01*
X104763810Y-76445714D01*
X102652381Y-77398095D02*
X101652381Y-77398095D01*
X101652381Y-77160000D01*
X101700000Y-77017142D01*
X101795238Y-76921904D01*
X101890476Y-76874285D01*
X102080952Y-76826666D01*
X102223810Y-76826666D01*
X102414286Y-76874285D01*
X102509524Y-76921904D01*
X102604762Y-77017142D01*
X102652381Y-77160000D01*
X102652381Y-77398095D01*
X101652381Y-76493333D02*
X101652381Y-75826666D01*
X102652381Y-76255238D01*
D13*
X120881600Y-70064000D02*
X120881600Y-69773714D01*
X121055771Y-70122057D02*
X120446171Y-69918857D01*
X121055771Y-69715657D01*
X120446171Y-69512457D02*
X120939657Y-69512457D01*
X120997714Y-69483429D01*
X121026743Y-69454400D01*
X121055771Y-69396343D01*
X121055771Y-69280229D01*
X121026743Y-69222171D01*
X120997714Y-69193143D01*
X120939657Y-69164114D01*
X120446171Y-69164114D01*
X121055771Y-68873828D02*
X120446171Y-68873828D01*
X120446171Y-68728685D01*
X120475200Y-68641600D01*
X120533257Y-68583542D01*
X120591314Y-68554514D01*
X120707429Y-68525485D01*
X120794514Y-68525485D01*
X120910629Y-68554514D01*
X120968686Y-68583542D01*
X121026743Y-68641600D01*
X121055771Y-68728685D01*
X121055771Y-68873828D01*
X121055771Y-68264228D02*
X120446171Y-68264228D01*
X120446171Y-67857828D02*
X120446171Y-67741714D01*
X120475200Y-67683656D01*
X120533257Y-67625599D01*
X120649371Y-67596571D01*
X120852571Y-67596571D01*
X120968686Y-67625599D01*
X121026743Y-67683656D01*
X121055771Y-67741714D01*
X121055771Y-67857828D01*
X121026743Y-67915885D01*
X120968686Y-67973942D01*
X120852571Y-68002971D01*
X120649371Y-68002971D01*
X120533257Y-67973942D01*
X120475200Y-67915885D01*
X120446171Y-67857828D01*
X121055771Y-67015999D02*
X121055771Y-67364342D01*
X121055771Y-67190170D02*
X120446171Y-67190170D01*
X120533257Y-67248227D01*
X120591314Y-67306285D01*
X120620343Y-67364342D01*
D11*
X124032381Y-74659047D02*
X124746667Y-74659047D01*
X124889524Y-74706667D01*
X124984762Y-74801905D01*
X125032381Y-74944762D01*
X125032381Y-75040000D01*
X124746667Y-74230476D02*
X124746667Y-73754285D01*
X125032381Y-74325714D02*
X124032381Y-73992381D01*
X125032381Y-73659047D01*
X124937143Y-72754285D02*
X124984762Y-72801904D01*
X125032381Y-72944761D01*
X125032381Y-73039999D01*
X124984762Y-73182857D01*
X124889524Y-73278095D01*
X124794286Y-73325714D01*
X124603810Y-73373333D01*
X124460952Y-73373333D01*
X124270476Y-73325714D01*
X124175238Y-73278095D01*
X124080000Y-73182857D01*
X124032381Y-73039999D01*
X124032381Y-72944761D01*
X124080000Y-72801904D01*
X124127619Y-72754285D01*
X125032381Y-72325714D02*
X124032381Y-72325714D01*
X125032381Y-71754285D02*
X124460952Y-72182857D01*
X124032381Y-71754285D02*
X124603810Y-72325714D01*
X125127619Y-71563809D02*
X125127619Y-70801904D01*
X124032381Y-70706666D02*
X124032381Y-70135237D01*
X125032381Y-70420952D02*
X124032381Y-70420952D01*
X125032381Y-69230475D02*
X124556190Y-69563809D01*
X125032381Y-69801904D02*
X124032381Y-69801904D01*
X124032381Y-69420951D01*
X124080000Y-69325713D01*
X124127619Y-69278094D01*
X124222857Y-69230475D01*
X124365714Y-69230475D01*
X124460952Y-69278094D01*
X124508571Y-69325713D01*
X124556190Y-69420951D01*
X124556190Y-69801904D01*
X124984762Y-68849523D02*
X125032381Y-68706666D01*
X125032381Y-68468570D01*
X124984762Y-68373332D01*
X124937143Y-68325713D01*
X124841905Y-68278094D01*
X124746667Y-68278094D01*
X124651429Y-68325713D01*
X124603810Y-68373332D01*
X124556190Y-68468570D01*
X124508571Y-68659047D01*
X124460952Y-68754285D01*
X124413333Y-68801904D01*
X124318095Y-68849523D01*
X124222857Y-68849523D01*
X124127619Y-68801904D01*
X124080000Y-68754285D01*
X124032381Y-68659047D01*
X124032381Y-68420951D01*
X124080000Y-68278094D01*
X125127619Y-68087618D02*
X125127619Y-67325713D01*
X124032381Y-66659046D02*
X124032381Y-66849523D01*
X124080000Y-66944761D01*
X124127619Y-66992380D01*
X124270476Y-67087618D01*
X124460952Y-67135237D01*
X124841905Y-67135237D01*
X124937143Y-67087618D01*
X124984762Y-67039999D01*
X125032381Y-66944761D01*
X125032381Y-66754284D01*
X124984762Y-66659046D01*
X124937143Y-66611427D01*
X124841905Y-66563808D01*
X124603810Y-66563808D01*
X124508571Y-66611427D01*
X124460952Y-66659046D01*
X124413333Y-66754284D01*
X124413333Y-66944761D01*
X124460952Y-67039999D01*
X124508571Y-67087618D01*
X124603810Y-67135237D01*
X125032381Y-66135237D02*
X124032381Y-66135237D01*
X124032381Y-65754284D01*
X124080000Y-65659046D01*
X124127619Y-65611427D01*
X124222857Y-65563808D01*
X124365714Y-65563808D01*
X124460952Y-65611427D01*
X124508571Y-65659046D01*
X124556190Y-65754284D01*
X124556190Y-66135237D01*
X125032381Y-65135237D02*
X124032381Y-65135237D01*
X125032381Y-64659047D02*
X124032381Y-64659047D01*
X125032381Y-64087618D01*
X124032381Y-64087618D01*
X124984762Y-63659047D02*
X125032381Y-63516190D01*
X125032381Y-63278094D01*
X124984762Y-63182856D01*
X124937143Y-63135237D01*
X124841905Y-63087618D01*
X124746667Y-63087618D01*
X124651429Y-63135237D01*
X124603810Y-63182856D01*
X124556190Y-63278094D01*
X124508571Y-63468571D01*
X124460952Y-63563809D01*
X124413333Y-63611428D01*
X124318095Y-63659047D01*
X124222857Y-63659047D01*
X124127619Y-63611428D01*
X124080000Y-63563809D01*
X124032381Y-63468571D01*
X124032381Y-63230475D01*
X124080000Y-63087618D01*
X152532381Y-88561905D02*
X153341905Y-88561905D01*
X153437143Y-88514286D01*
X153484762Y-88466667D01*
X153532381Y-88371429D01*
X153532381Y-88180952D01*
X153484762Y-88085714D01*
X153437143Y-88038095D01*
X153341905Y-87990476D01*
X152532381Y-87990476D01*
X153532381Y-87466667D02*
X153532381Y-87276191D01*
X153484762Y-87180952D01*
X153437143Y-87133333D01*
X153294286Y-87038095D01*
X153103810Y-86990476D01*
X152722857Y-86990476D01*
X152627619Y-87038095D01*
X152580000Y-87085714D01*
X152532381Y-87180952D01*
X152532381Y-87371429D01*
X152580000Y-87466667D01*
X152627619Y-87514286D01*
X152722857Y-87561905D01*
X152960952Y-87561905D01*
X153056190Y-87514286D01*
X153103810Y-87466667D01*
X153151429Y-87371429D01*
X153151429Y-87180952D01*
X153103810Y-87085714D01*
X153056190Y-87038095D01*
X152960952Y-86990476D01*
D14*
X136598000Y-75288619D02*
X136549619Y-75385381D01*
X136549619Y-75530524D01*
X136598000Y-75675666D01*
X136694762Y-75772428D01*
X136791524Y-75820809D01*
X136985048Y-75869190D01*
X137130190Y-75869190D01*
X137323714Y-75820809D01*
X137420476Y-75772428D01*
X137517238Y-75675666D01*
X137565619Y-75530524D01*
X137565619Y-75433762D01*
X137517238Y-75288619D01*
X137468857Y-75240238D01*
X137130190Y-75240238D01*
X137130190Y-75433762D01*
X137565619Y-74804809D02*
X136549619Y-74804809D01*
X136549619Y-74417762D01*
X136598000Y-74321000D01*
X136646381Y-74272619D01*
X136743143Y-74224238D01*
X136888286Y-74224238D01*
X136985048Y-74272619D01*
X137033429Y-74321000D01*
X137081810Y-74417762D01*
X137081810Y-74804809D01*
X137565619Y-73788809D02*
X136549619Y-73788809D01*
X136549619Y-73546904D01*
X136598000Y-73401762D01*
X136694762Y-73305000D01*
X136791524Y-73256619D01*
X136985048Y-73208238D01*
X137130190Y-73208238D01*
X137323714Y-73256619D01*
X137420476Y-73305000D01*
X137517238Y-73401762D01*
X137565619Y-73546904D01*
X137565619Y-73788809D01*
X137565619Y-72772809D02*
X136549619Y-72772809D01*
X137565619Y-71756809D02*
X137565619Y-72337380D01*
X137565619Y-72047094D02*
X136549619Y-72047094D01*
X136694762Y-72143856D01*
X136791524Y-72240618D01*
X136839905Y-72337380D01*
D11*
X101962381Y-63023333D02*
X102676667Y-63023333D01*
X102819524Y-63070953D01*
X102914762Y-63166191D01*
X102962381Y-63309048D01*
X102962381Y-63404286D01*
X102962381Y-62023333D02*
X102962381Y-62594762D01*
X102962381Y-62309048D02*
X101962381Y-62309048D01*
X102105238Y-62404286D01*
X102200476Y-62499524D01*
X102248095Y-62594762D01*
X179122381Y-111283333D02*
X179836667Y-111283333D01*
X179979524Y-111330953D01*
X180074762Y-111426191D01*
X180122381Y-111569048D01*
X180122381Y-111664286D01*
X179217619Y-110854762D02*
X179170000Y-110807143D01*
X179122381Y-110711905D01*
X179122381Y-110473809D01*
X179170000Y-110378571D01*
X179217619Y-110330952D01*
X179312857Y-110283333D01*
X179408095Y-110283333D01*
X179550952Y-110330952D01*
X180122381Y-110902381D01*
X180122381Y-110283333D01*
X102228095Y-105112381D02*
X102228095Y-104112381D01*
X102228095Y-104588571D02*
X102799524Y-104588571D01*
X102799524Y-105112381D02*
X102799524Y-104112381D01*
X103799524Y-105112381D02*
X103228095Y-105112381D01*
X103513809Y-105112381D02*
X103513809Y-104112381D01*
X103418571Y-104255238D01*
X103323333Y-104350476D01*
X103228095Y-104398095D01*
X178428095Y-105112381D02*
X178428095Y-104112381D01*
X178428095Y-104588571D02*
X178999524Y-104588571D01*
X178999524Y-105112381D02*
X178999524Y-104112381D01*
X179428095Y-104207619D02*
X179475714Y-104160000D01*
X179570952Y-104112381D01*
X179809048Y-104112381D01*
X179904286Y-104160000D01*
X179951905Y-104207619D01*
X179999524Y-104302857D01*
X179999524Y-104398095D01*
X179951905Y-104540952D01*
X179380476Y-105112381D01*
X179999524Y-105112381D01*
X178428095Y-61932381D02*
X178428095Y-60932381D01*
X178428095Y-61408571D02*
X178999524Y-61408571D01*
X178999524Y-61932381D02*
X178999524Y-60932381D01*
X179380476Y-60932381D02*
X179999524Y-60932381D01*
X179666190Y-61313333D01*
X179809048Y-61313333D01*
X179904286Y-61360952D01*
X179951905Y-61408571D01*
X179999524Y-61503810D01*
X179999524Y-61741905D01*
X179951905Y-61837143D01*
X179904286Y-61884762D01*
X179809048Y-61932381D01*
X179523333Y-61932381D01*
X179428095Y-61884762D01*
X179380476Y-61837143D01*
X102228095Y-61932381D02*
X102228095Y-60932381D01*
X102228095Y-61408571D02*
X102799524Y-61408571D01*
X102799524Y-61932381D02*
X102799524Y-60932381D01*
X103704286Y-61265714D02*
X103704286Y-61932381D01*
X103466190Y-60884762D02*
X103228095Y-61599048D01*
X103847143Y-61599048D01*
X163910477Y-68758571D02*
X164053334Y-68806190D01*
X164100953Y-68853810D01*
X164148572Y-68949048D01*
X164148572Y-69091905D01*
X164100953Y-69187143D01*
X164053334Y-69234762D01*
X163958096Y-69282381D01*
X163577143Y-69282381D01*
X163577143Y-68282381D01*
X163910477Y-68282381D01*
X164005715Y-68330000D01*
X164053334Y-68377619D01*
X164100953Y-68472857D01*
X164100953Y-68568095D01*
X164053334Y-68663333D01*
X164005715Y-68710952D01*
X163910477Y-68758571D01*
X163577143Y-68758571D01*
X164434286Y-68282381D02*
X165005715Y-68282381D01*
X164720000Y-69282381D02*
X164720000Y-68282381D01*
X165339048Y-69282381D02*
X165339048Y-68282381D01*
X165910477Y-69282381D01*
X165910477Y-68282381D01*
X166577143Y-68282381D02*
X166672382Y-68282381D01*
X166767620Y-68330000D01*
X166815239Y-68377619D01*
X166862858Y-68472857D01*
X166910477Y-68663333D01*
X166910477Y-68901429D01*
X166862858Y-69091905D01*
X166815239Y-69187143D01*
X166767620Y-69234762D01*
X166672382Y-69282381D01*
X166577143Y-69282381D01*
X166481905Y-69234762D01*
X166434286Y-69187143D01*
X166386667Y-69091905D01*
X166339048Y-68901429D01*
X166339048Y-68663333D01*
X166386667Y-68472857D01*
X166434286Y-68377619D01*
X166481905Y-68330000D01*
X166577143Y-68282381D01*
X149337143Y-75837381D02*
X149003809Y-75361190D01*
X148765714Y-75837381D02*
X148765714Y-74837381D01*
X149146667Y-74837381D01*
X149241905Y-74885000D01*
X149289524Y-74932619D01*
X149337143Y-75027857D01*
X149337143Y-75170714D01*
X149289524Y-75265952D01*
X149241905Y-75313571D01*
X149146667Y-75361190D01*
X148765714Y-75361190D01*
X149718095Y-74932619D02*
X149765714Y-74885000D01*
X149860952Y-74837381D01*
X150099048Y-74837381D01*
X150194286Y-74885000D01*
X150241905Y-74932619D01*
X150289524Y-75027857D01*
X150289524Y-75123095D01*
X150241905Y-75265952D01*
X149670476Y-75837381D01*
X150289524Y-75837381D01*
X151194286Y-74837381D02*
X150718095Y-74837381D01*
X150670476Y-75313571D01*
X150718095Y-75265952D01*
X150813333Y-75218333D01*
X151051429Y-75218333D01*
X151146667Y-75265952D01*
X151194286Y-75313571D01*
X151241905Y-75408810D01*
X151241905Y-75646905D01*
X151194286Y-75742143D01*
X151146667Y-75789762D01*
X151051429Y-75837381D01*
X150813333Y-75837381D01*
X150718095Y-75789762D01*
X150670476Y-75742143D01*
X108812381Y-99853333D02*
X109526667Y-99853333D01*
X109669524Y-99900953D01*
X109764762Y-99996191D01*
X109812381Y-100139048D01*
X109812381Y-100234286D01*
X108812381Y-99472381D02*
X108812381Y-98853333D01*
X109193333Y-99186667D01*
X109193333Y-99043809D01*
X109240952Y-98948571D01*
X109288571Y-98900952D01*
X109383810Y-98853333D01*
X109621905Y-98853333D01*
X109717143Y-98900952D01*
X109764762Y-98948571D01*
X109812381Y-99043809D01*
X109812381Y-99329524D01*
X109764762Y-99424762D01*
X109717143Y-99472381D01*
X145511428Y-105342381D02*
X145701905Y-105342381D01*
X145797143Y-105390000D01*
X145892381Y-105485238D01*
X145940000Y-105675714D01*
X145940000Y-106009048D01*
X145892381Y-106199524D01*
X145797143Y-106294762D01*
X145701905Y-106342381D01*
X145511428Y-106342381D01*
X145416190Y-106294762D01*
X145320952Y-106199524D01*
X145273333Y-106009048D01*
X145273333Y-105675714D01*
X145320952Y-105485238D01*
X145416190Y-105390000D01*
X145511428Y-105342381D01*
X146844762Y-106342381D02*
X146368571Y-106342381D01*
X146368571Y-105342381D01*
X147178095Y-105818571D02*
X147511429Y-105818571D01*
X147654286Y-106342381D02*
X147178095Y-106342381D01*
X147178095Y-105342381D01*
X147654286Y-105342381D01*
X148082857Y-106342381D02*
X148082857Y-105342381D01*
X148320952Y-105342381D01*
X148463810Y-105390000D01*
X148559048Y-105485238D01*
X148606667Y-105580476D01*
X148654286Y-105770952D01*
X148654286Y-105913810D01*
X148606667Y-106104286D01*
X148559048Y-106199524D01*
X148463810Y-106294762D01*
X148320952Y-106342381D01*
X148082857Y-106342381D01*
X149606667Y-106342381D02*
X149035238Y-106342381D01*
X149320952Y-106342381D02*
X149320952Y-105342381D01*
X149225714Y-105485238D01*
X149130476Y-105580476D01*
X149035238Y-105628095D01*
X132075000Y-98607143D02*
X132039286Y-98654762D01*
X131932143Y-98702381D01*
X131860714Y-98702381D01*
X131753571Y-98654762D01*
X131682143Y-98559524D01*
X131646428Y-98464286D01*
X131610714Y-98273810D01*
X131610714Y-98130952D01*
X131646428Y-97940476D01*
X131682143Y-97845238D01*
X131753571Y-97750000D01*
X131860714Y-97702381D01*
X131932143Y-97702381D01*
X132039286Y-97750000D01*
X132075000Y-97797619D01*
X132360714Y-98654762D02*
X132467857Y-98702381D01*
X132646428Y-98702381D01*
X132717857Y-98654762D01*
X132753571Y-98607143D01*
X132789286Y-98511905D01*
X132789286Y-98416667D01*
X132753571Y-98321429D01*
X132717857Y-98273810D01*
X132646428Y-98226190D01*
X132503571Y-98178571D01*
X132432143Y-98130952D01*
X132396428Y-98083333D01*
X132360714Y-97988095D01*
X132360714Y-97892857D01*
X132396428Y-97797619D01*
X132432143Y-97750000D01*
X132503571Y-97702381D01*
X132682143Y-97702381D01*
X132789286Y-97750000D01*
X134168571Y-98702381D02*
X134168571Y-97702381D01*
X134347143Y-97702381D01*
X134454286Y-97750000D01*
X134525714Y-97845238D01*
X134561429Y-97940476D01*
X134597143Y-98130952D01*
X134597143Y-98273810D01*
X134561429Y-98464286D01*
X134525714Y-98559524D01*
X134454286Y-98654762D01*
X134347143Y-98702381D01*
X134168571Y-98702381D01*
X135347143Y-98607143D02*
X135311429Y-98654762D01*
X135204286Y-98702381D01*
X135132857Y-98702381D01*
X135025714Y-98654762D01*
X134954286Y-98559524D01*
X134918571Y-98464286D01*
X134882857Y-98273810D01*
X134882857Y-98130952D01*
X134918571Y-97940476D01*
X134954286Y-97845238D01*
X135025714Y-97750000D01*
X135132857Y-97702381D01*
X135204286Y-97702381D01*
X135311429Y-97750000D01*
X135347143Y-97797619D01*
X136815715Y-98702381D02*
X136565715Y-98226190D01*
X136387143Y-98702381D02*
X136387143Y-97702381D01*
X136672858Y-97702381D01*
X136744286Y-97750000D01*
X136780001Y-97797619D01*
X136815715Y-97892857D01*
X136815715Y-98035714D01*
X136780001Y-98130952D01*
X136744286Y-98178571D01*
X136672858Y-98226190D01*
X136387143Y-98226190D01*
X137137143Y-98178571D02*
X137387143Y-98178571D01*
X137494286Y-98702381D02*
X137137143Y-98702381D01*
X137137143Y-97702381D01*
X137494286Y-97702381D01*
X137780000Y-98654762D02*
X137887143Y-98702381D01*
X138065714Y-98702381D01*
X138137143Y-98654762D01*
X138172857Y-98607143D01*
X138208572Y-98511905D01*
X138208572Y-98416667D01*
X138172857Y-98321429D01*
X138137143Y-98273810D01*
X138065714Y-98226190D01*
X137922857Y-98178571D01*
X137851429Y-98130952D01*
X137815714Y-98083333D01*
X137780000Y-97988095D01*
X137780000Y-97892857D01*
X137815714Y-97797619D01*
X137851429Y-97750000D01*
X137922857Y-97702381D01*
X138101429Y-97702381D01*
X138208572Y-97750000D01*
X138909286Y-98654762D02*
X139016429Y-98702381D01*
X139195000Y-98702381D01*
X139266429Y-98654762D01*
X139302143Y-98607143D01*
X139337858Y-98511905D01*
X139337858Y-98416667D01*
X139302143Y-98321429D01*
X139266429Y-98273810D01*
X139195000Y-98226190D01*
X139052143Y-98178571D01*
X138980715Y-98130952D01*
X138945000Y-98083333D01*
X138909286Y-97988095D01*
X138909286Y-97892857D01*
X138945000Y-97797619D01*
X138980715Y-97750000D01*
X139052143Y-97702381D01*
X139230715Y-97702381D01*
X139337858Y-97750000D01*
X139659286Y-98702381D02*
X139659286Y-97702381D01*
X139837858Y-97702381D01*
X139945001Y-97750000D01*
X140016429Y-97845238D01*
X140052144Y-97940476D01*
X140087858Y-98130952D01*
X140087858Y-98273810D01*
X140052144Y-98464286D01*
X140016429Y-98559524D01*
X139945001Y-98654762D01*
X139837858Y-98702381D01*
X139659286Y-98702381D01*
X140373572Y-98416667D02*
X140730715Y-98416667D01*
X140302144Y-98702381D02*
X140552144Y-97702381D01*
X140802144Y-98702381D01*
X141467143Y-98654762D02*
X141574286Y-98702381D01*
X141752857Y-98702381D01*
X141824286Y-98654762D01*
X141860000Y-98607143D01*
X141895715Y-98511905D01*
X141895715Y-98416667D01*
X141860000Y-98321429D01*
X141824286Y-98273810D01*
X141752857Y-98226190D01*
X141610000Y-98178571D01*
X141538572Y-98130952D01*
X141502857Y-98083333D01*
X141467143Y-97988095D01*
X141467143Y-97892857D01*
X141502857Y-97797619D01*
X141538572Y-97750000D01*
X141610000Y-97702381D01*
X141788572Y-97702381D01*
X141895715Y-97750000D01*
X142645715Y-98607143D02*
X142610001Y-98654762D01*
X142502858Y-98702381D01*
X142431429Y-98702381D01*
X142324286Y-98654762D01*
X142252858Y-98559524D01*
X142217143Y-98464286D01*
X142181429Y-98273810D01*
X142181429Y-98130952D01*
X142217143Y-97940476D01*
X142252858Y-97845238D01*
X142324286Y-97750000D01*
X142431429Y-97702381D01*
X142502858Y-97702381D01*
X142610001Y-97750000D01*
X142645715Y-97797619D01*
X143324286Y-98702381D02*
X142967143Y-98702381D01*
X142967143Y-97702381D01*
X143900001Y-97702381D02*
X144150001Y-98702381D01*
X144400001Y-97702381D01*
X145078572Y-98607143D02*
X145042858Y-98654762D01*
X144935715Y-98702381D01*
X144864286Y-98702381D01*
X144757143Y-98654762D01*
X144685715Y-98559524D01*
X144650000Y-98464286D01*
X144614286Y-98273810D01*
X144614286Y-98130952D01*
X144650000Y-97940476D01*
X144685715Y-97845238D01*
X144757143Y-97750000D01*
X144864286Y-97702381D01*
X144935715Y-97702381D01*
X145042858Y-97750000D01*
X145078572Y-97797619D01*
X145828572Y-98607143D02*
X145792858Y-98654762D01*
X145685715Y-98702381D01*
X145614286Y-98702381D01*
X145507143Y-98654762D01*
X145435715Y-98559524D01*
X145400000Y-98464286D01*
X145364286Y-98273810D01*
X145364286Y-98130952D01*
X145400000Y-97940476D01*
X145435715Y-97845238D01*
X145507143Y-97750000D01*
X145614286Y-97702381D01*
X145685715Y-97702381D01*
X145792858Y-97750000D01*
X145828572Y-97797619D01*
X146868572Y-97750000D02*
X146797143Y-97702381D01*
X146690000Y-97702381D01*
X146582857Y-97750000D01*
X146511429Y-97845238D01*
X146475714Y-97940476D01*
X146440000Y-98130952D01*
X146440000Y-98273810D01*
X146475714Y-98464286D01*
X146511429Y-98559524D01*
X146582857Y-98654762D01*
X146690000Y-98702381D01*
X146761429Y-98702381D01*
X146868572Y-98654762D01*
X146904286Y-98607143D01*
X146904286Y-98273810D01*
X146761429Y-98273810D01*
X147225714Y-98702381D02*
X147225714Y-97702381D01*
X147654286Y-98702381D01*
X147654286Y-97702381D01*
X148011428Y-98702381D02*
X148011428Y-97702381D01*
X148190000Y-97702381D01*
X148297143Y-97750000D01*
X148368571Y-97845238D01*
X148404286Y-97940476D01*
X148440000Y-98130952D01*
X148440000Y-98273810D01*
X148404286Y-98464286D01*
X148368571Y-98559524D01*
X148297143Y-98654762D01*
X148190000Y-98702381D01*
X148011428Y-98702381D01*
X136581905Y-85724762D02*
X136772381Y-85724762D01*
X136962857Y-85820000D01*
X137058095Y-85915238D01*
X137153333Y-86105714D01*
X137248572Y-86486667D01*
X137248572Y-86962857D01*
X137153333Y-87343810D01*
X137058095Y-87534286D01*
X136962857Y-87629524D01*
X136772381Y-87724762D01*
X136581905Y-87724762D01*
X136391429Y-87629524D01*
X136296191Y-87534286D01*
X136200952Y-87343810D01*
X136105714Y-86962857D01*
X136105714Y-86486667D01*
X136200952Y-86105714D01*
X136296191Y-85915238D01*
X136391429Y-85820000D01*
X136581905Y-85724762D01*
X138105714Y-87534286D02*
X138200953Y-87629524D01*
X138105714Y-87724762D01*
X138010476Y-87629524D01*
X138105714Y-87534286D01*
X138105714Y-87724762D01*
X139153334Y-87724762D02*
X139534286Y-87724762D01*
X139724762Y-87629524D01*
X139820000Y-87534286D01*
X140010476Y-87248571D01*
X140105715Y-86867619D01*
X140105715Y-86105714D01*
X140010476Y-85915238D01*
X139915238Y-85820000D01*
X139724762Y-85724762D01*
X139343810Y-85724762D01*
X139153334Y-85820000D01*
X139058095Y-85915238D01*
X138962857Y-86105714D01*
X138962857Y-86581905D01*
X139058095Y-86772381D01*
X139153334Y-86867619D01*
X139343810Y-86962857D01*
X139724762Y-86962857D01*
X139915238Y-86867619D01*
X140010476Y-86772381D01*
X140105715Y-86581905D01*
X141820000Y-85724762D02*
X141439048Y-85724762D01*
X141248572Y-85820000D01*
X141153334Y-85915238D01*
X140962857Y-86200952D01*
X140867619Y-86581905D01*
X140867619Y-87343810D01*
X140962857Y-87534286D01*
X141058096Y-87629524D01*
X141248572Y-87724762D01*
X141629524Y-87724762D01*
X141820000Y-87629524D01*
X141915238Y-87534286D01*
X142010477Y-87343810D01*
X142010477Y-86867619D01*
X141915238Y-86677143D01*
X141820000Y-86581905D01*
X141629524Y-86486667D01*
X141248572Y-86486667D01*
X141058096Y-86581905D01*
X140962857Y-86677143D01*
X140867619Y-86867619D01*
X142772381Y-85724762D02*
X142772381Y-86105714D01*
X143534286Y-85724762D02*
X143534286Y-86105714D01*
X130200952Y-89534762D02*
X130581904Y-89534762D01*
X130772380Y-89630000D01*
X130962857Y-89820476D01*
X131058095Y-90201429D01*
X131058095Y-90868095D01*
X130962857Y-91249048D01*
X130772380Y-91439524D01*
X130581904Y-91534762D01*
X130200952Y-91534762D01*
X130010476Y-91439524D01*
X129819999Y-91249048D01*
X129724761Y-90868095D01*
X129724761Y-90201429D01*
X129819999Y-89820476D01*
X130010476Y-89630000D01*
X130200952Y-89534762D01*
X132867618Y-91534762D02*
X131915237Y-91534762D01*
X131915237Y-89534762D01*
X133534285Y-90487143D02*
X134200952Y-90487143D01*
X134486666Y-91534762D02*
X133534285Y-91534762D01*
X133534285Y-89534762D01*
X134486666Y-89534762D01*
X135343809Y-91534762D02*
X135343809Y-89534762D01*
X135820000Y-89534762D01*
X136105714Y-89630000D01*
X136296190Y-89820476D01*
X136391429Y-90010952D01*
X136486667Y-90391905D01*
X136486667Y-90677619D01*
X136391429Y-91058571D01*
X136296190Y-91249048D01*
X136105714Y-91439524D01*
X135820000Y-91534762D01*
X135343809Y-91534762D01*
X138867619Y-91534762D02*
X138867619Y-89534762D01*
X139343810Y-89534762D01*
X139629524Y-89630000D01*
X139820000Y-89820476D01*
X139915239Y-90010952D01*
X140010477Y-90391905D01*
X140010477Y-90677619D01*
X139915239Y-91058571D01*
X139820000Y-91249048D01*
X139629524Y-91439524D01*
X139343810Y-91534762D01*
X138867619Y-91534762D01*
X140867619Y-91534762D02*
X140867619Y-89534762D01*
X141724762Y-91439524D02*
X142010477Y-91534762D01*
X142486667Y-91534762D01*
X142677143Y-91439524D01*
X142772381Y-91344286D01*
X142867620Y-91153810D01*
X142867620Y-90963333D01*
X142772381Y-90772857D01*
X142677143Y-90677619D01*
X142486667Y-90582381D01*
X142105715Y-90487143D01*
X141915239Y-90391905D01*
X141820000Y-90296667D01*
X141724762Y-90106190D01*
X141724762Y-89915714D01*
X141820000Y-89725238D01*
X141915239Y-89630000D01*
X142105715Y-89534762D01*
X142581905Y-89534762D01*
X142867620Y-89630000D01*
X143724762Y-91534762D02*
X143724762Y-89534762D01*
X144486667Y-89534762D01*
X144677143Y-89630000D01*
X144772382Y-89725238D01*
X144867620Y-89915714D01*
X144867620Y-90201429D01*
X144772382Y-90391905D01*
X144677143Y-90487143D01*
X144486667Y-90582381D01*
X143724762Y-90582381D01*
X146677143Y-91534762D02*
X145724762Y-91534762D01*
X145724762Y-89534762D01*
X147248572Y-90963333D02*
X148200953Y-90963333D01*
X147058096Y-91534762D02*
X147724763Y-89534762D01*
X148391430Y-91534762D01*
X149439049Y-90582381D02*
X149439049Y-91534762D01*
X148772382Y-89534762D02*
X149439049Y-90582381D01*
X150105716Y-89534762D01*
X129886381Y-107338286D02*
X128886381Y-107338286D01*
X128886381Y-107100191D01*
X128934000Y-106957333D01*
X129029238Y-106862095D01*
X129124476Y-106814476D01*
X129314952Y-106766857D01*
X129457810Y-106766857D01*
X129648286Y-106814476D01*
X129743524Y-106862095D01*
X129838762Y-106957333D01*
X129886381Y-107100191D01*
X129886381Y-107338286D01*
X129886381Y-105814476D02*
X129886381Y-106385905D01*
X129886381Y-106100191D02*
X128886381Y-106100191D01*
X129029238Y-106195429D01*
X129124476Y-106290667D01*
X129172095Y-106385905D01*
X129314952Y-105243048D02*
X129267333Y-105338286D01*
X129219714Y-105385905D01*
X129124476Y-105433524D01*
X129076857Y-105433524D01*
X128981619Y-105385905D01*
X128934000Y-105338286D01*
X128886381Y-105243048D01*
X128886381Y-105052571D01*
X128934000Y-104957333D01*
X128981619Y-104909714D01*
X129076857Y-104862095D01*
X129124476Y-104862095D01*
X129219714Y-104909714D01*
X129267333Y-104957333D01*
X129314952Y-105052571D01*
X129314952Y-105243048D01*
X129362571Y-105338286D01*
X129410190Y-105385905D01*
X129505429Y-105433524D01*
X129695905Y-105433524D01*
X129791143Y-105385905D01*
X129838762Y-105338286D01*
X129886381Y-105243048D01*
X129886381Y-105052571D01*
X129838762Y-104957333D01*
X129791143Y-104909714D01*
X129695905Y-104862095D01*
X129505429Y-104862095D01*
X129410190Y-104909714D01*
X129362571Y-104957333D01*
X129314952Y-105052571D01*
X136434381Y-107338286D02*
X135434381Y-107338286D01*
X135434381Y-107100191D01*
X135482000Y-106957333D01*
X135577238Y-106862095D01*
X135672476Y-106814476D01*
X135862952Y-106766857D01*
X136005810Y-106766857D01*
X136196286Y-106814476D01*
X136291524Y-106862095D01*
X136386762Y-106957333D01*
X136434381Y-107100191D01*
X136434381Y-107338286D01*
X136434381Y-105814476D02*
X136434381Y-106385905D01*
X136434381Y-106100191D02*
X135434381Y-106100191D01*
X135577238Y-106195429D01*
X135672476Y-106290667D01*
X135720095Y-106385905D01*
X136434381Y-105338286D02*
X136434381Y-105147810D01*
X136386762Y-105052571D01*
X136339143Y-105004952D01*
X136196286Y-104909714D01*
X136005810Y-104862095D01*
X135624857Y-104862095D01*
X135529619Y-104909714D01*
X135482000Y-104957333D01*
X135434381Y-105052571D01*
X135434381Y-105243048D01*
X135482000Y-105338286D01*
X135529619Y-105385905D01*
X135624857Y-105433524D01*
X135862952Y-105433524D01*
X135958190Y-105385905D01*
X136005810Y-105338286D01*
X136053429Y-105243048D01*
X136053429Y-105052571D01*
X136005810Y-104957333D01*
X135958190Y-104909714D01*
X135862952Y-104862095D01*
X133536381Y-110322857D02*
X133060190Y-110656191D01*
X133536381Y-110894286D02*
X132536381Y-110894286D01*
X132536381Y-110513333D01*
X132584000Y-110418095D01*
X132631619Y-110370476D01*
X132726857Y-110322857D01*
X132869714Y-110322857D01*
X132964952Y-110370476D01*
X133012571Y-110418095D01*
X133060190Y-110513333D01*
X133060190Y-110894286D01*
X132536381Y-109989524D02*
X132536381Y-109370476D01*
X132917333Y-109703810D01*
X132917333Y-109560952D01*
X132964952Y-109465714D01*
X133012571Y-109418095D01*
X133107810Y-109370476D01*
X133345905Y-109370476D01*
X133441143Y-109418095D01*
X133488762Y-109465714D01*
X133536381Y-109560952D01*
X133536381Y-109846667D01*
X133488762Y-109941905D01*
X133441143Y-109989524D01*
X132536381Y-108513333D02*
X132536381Y-108703810D01*
X132584000Y-108799048D01*
X132631619Y-108846667D01*
X132774476Y-108941905D01*
X132964952Y-108989524D01*
X133345905Y-108989524D01*
X133441143Y-108941905D01*
X133488762Y-108894286D01*
X133536381Y-108799048D01*
X133536381Y-108608571D01*
X133488762Y-108513333D01*
X133441143Y-108465714D01*
X133345905Y-108418095D01*
X133107810Y-108418095D01*
X133012571Y-108465714D01*
X132964952Y-108513333D01*
X132917333Y-108608571D01*
X132917333Y-108799048D01*
X132964952Y-108894286D01*
X133012571Y-108941905D01*
X133107810Y-108989524D01*
X132784381Y-110322857D02*
X132308190Y-110656191D01*
X132784381Y-110894286D02*
X131784381Y-110894286D01*
X131784381Y-110513333D01*
X131832000Y-110418095D01*
X131879619Y-110370476D01*
X131974857Y-110322857D01*
X132117714Y-110322857D01*
X132212952Y-110370476D01*
X132260571Y-110418095D01*
X132308190Y-110513333D01*
X132308190Y-110894286D01*
X131784381Y-109989524D02*
X131784381Y-109370476D01*
X132165333Y-109703810D01*
X132165333Y-109560952D01*
X132212952Y-109465714D01*
X132260571Y-109418095D01*
X132355810Y-109370476D01*
X132593905Y-109370476D01*
X132689143Y-109418095D01*
X132736762Y-109465714D01*
X132784381Y-109560952D01*
X132784381Y-109846667D01*
X132736762Y-109941905D01*
X132689143Y-109989524D01*
X131784381Y-109037143D02*
X131784381Y-108370476D01*
X132784381Y-108799048D01*
X105937143Y-100442857D02*
X105984762Y-100490476D01*
X106032381Y-100633333D01*
X106032381Y-100728571D01*
X105984762Y-100871429D01*
X105889524Y-100966667D01*
X105794286Y-101014286D01*
X105603810Y-101061905D01*
X105460952Y-101061905D01*
X105270476Y-101014286D01*
X105175238Y-100966667D01*
X105080000Y-100871429D01*
X105032381Y-100728571D01*
X105032381Y-100633333D01*
X105080000Y-100490476D01*
X105127619Y-100442857D01*
X106032381Y-99490476D02*
X106032381Y-100061905D01*
X106032381Y-99776191D02*
X105032381Y-99776191D01*
X105175238Y-99871429D01*
X105270476Y-99966667D01*
X105318095Y-100061905D01*
X105032381Y-98585714D02*
X105032381Y-99061905D01*
X105508571Y-99109524D01*
X105460952Y-99061905D01*
X105413333Y-98966667D01*
X105413333Y-98728571D01*
X105460952Y-98633333D01*
X105508571Y-98585714D01*
X105603810Y-98538095D01*
X105841905Y-98538095D01*
X105937143Y-98585714D01*
X105984762Y-98633333D01*
X106032381Y-98728571D01*
X106032381Y-98966667D01*
X105984762Y-99061905D01*
X105937143Y-99109524D01*
X109832381Y-104442857D02*
X109356190Y-104776191D01*
X109832381Y-105014286D02*
X108832381Y-105014286D01*
X108832381Y-104633333D01*
X108880000Y-104538095D01*
X108927619Y-104490476D01*
X109022857Y-104442857D01*
X109165714Y-104442857D01*
X109260952Y-104490476D01*
X109308571Y-104538095D01*
X109356190Y-104633333D01*
X109356190Y-105014286D01*
X108832381Y-104109524D02*
X108832381Y-103490476D01*
X109213333Y-103823810D01*
X109213333Y-103680952D01*
X109260952Y-103585714D01*
X109308571Y-103538095D01*
X109403810Y-103490476D01*
X109641905Y-103490476D01*
X109737143Y-103538095D01*
X109784762Y-103585714D01*
X109832381Y-103680952D01*
X109832381Y-103966667D01*
X109784762Y-104061905D01*
X109737143Y-104109524D01*
X109260952Y-102919048D02*
X109213333Y-103014286D01*
X109165714Y-103061905D01*
X109070476Y-103109524D01*
X109022857Y-103109524D01*
X108927619Y-103061905D01*
X108880000Y-103014286D01*
X108832381Y-102919048D01*
X108832381Y-102728571D01*
X108880000Y-102633333D01*
X108927619Y-102585714D01*
X109022857Y-102538095D01*
X109070476Y-102538095D01*
X109165714Y-102585714D01*
X109213333Y-102633333D01*
X109260952Y-102728571D01*
X109260952Y-102919048D01*
X109308571Y-103014286D01*
X109356190Y-103061905D01*
X109451429Y-103109524D01*
X109641905Y-103109524D01*
X109737143Y-103061905D01*
X109784762Y-103014286D01*
X109832381Y-102919048D01*
X109832381Y-102728571D01*
X109784762Y-102633333D01*
X109737143Y-102585714D01*
X109641905Y-102538095D01*
X109451429Y-102538095D01*
X109356190Y-102585714D01*
X109308571Y-102633333D01*
X109260952Y-102728571D01*
X146912381Y-104933333D02*
X147626667Y-104933333D01*
X147769524Y-104980953D01*
X147864762Y-105076191D01*
X147912381Y-105219048D01*
X147912381Y-105314286D01*
X147245714Y-104028571D02*
X147912381Y-104028571D01*
X146864762Y-104266667D02*
X147579048Y-104504762D01*
X147579048Y-103885714D01*
X116782381Y-81112857D02*
X116306190Y-81446191D01*
X116782381Y-81684286D02*
X115782381Y-81684286D01*
X115782381Y-81303333D01*
X115830000Y-81208095D01*
X115877619Y-81160476D01*
X115972857Y-81112857D01*
X116115714Y-81112857D01*
X116210952Y-81160476D01*
X116258571Y-81208095D01*
X116306190Y-81303333D01*
X116306190Y-81684286D01*
X116115714Y-80255714D02*
X116782381Y-80255714D01*
X115734762Y-80493810D02*
X116449048Y-80731905D01*
X116449048Y-80112857D01*
X116782381Y-79208095D02*
X116782381Y-79779524D01*
X116782381Y-79493810D02*
X115782381Y-79493810D01*
X115925238Y-79589048D01*
X116020476Y-79684286D01*
X116068095Y-79779524D01*
X114242381Y-81112857D02*
X113766190Y-81446191D01*
X114242381Y-81684286D02*
X113242381Y-81684286D01*
X113242381Y-81303333D01*
X113290000Y-81208095D01*
X113337619Y-81160476D01*
X113432857Y-81112857D01*
X113575714Y-81112857D01*
X113670952Y-81160476D01*
X113718571Y-81208095D01*
X113766190Y-81303333D01*
X113766190Y-81684286D01*
X113575714Y-80255714D02*
X114242381Y-80255714D01*
X113194762Y-80493810D02*
X113909048Y-80731905D01*
X113909048Y-80112857D01*
X113337619Y-79779524D02*
X113290000Y-79731905D01*
X113242381Y-79636667D01*
X113242381Y-79398571D01*
X113290000Y-79303333D01*
X113337619Y-79255714D01*
X113432857Y-79208095D01*
X113528095Y-79208095D01*
X113670952Y-79255714D01*
X114242381Y-79827143D01*
X114242381Y-79208095D01*
X111702381Y-81112857D02*
X111226190Y-81446191D01*
X111702381Y-81684286D02*
X110702381Y-81684286D01*
X110702381Y-81303333D01*
X110750000Y-81208095D01*
X110797619Y-81160476D01*
X110892857Y-81112857D01*
X111035714Y-81112857D01*
X111130952Y-81160476D01*
X111178571Y-81208095D01*
X111226190Y-81303333D01*
X111226190Y-81684286D01*
X111035714Y-80255714D02*
X111702381Y-80255714D01*
X110654762Y-80493810D02*
X111369048Y-80731905D01*
X111369048Y-80112857D01*
X110702381Y-79827143D02*
X110702381Y-79208095D01*
X111083333Y-79541429D01*
X111083333Y-79398571D01*
X111130952Y-79303333D01*
X111178571Y-79255714D01*
X111273810Y-79208095D01*
X111511905Y-79208095D01*
X111607143Y-79255714D01*
X111654762Y-79303333D01*
X111702381Y-79398571D01*
X111702381Y-79684286D01*
X111654762Y-79779524D01*
X111607143Y-79827143D01*
X109162381Y-81112857D02*
X108686190Y-81446191D01*
X109162381Y-81684286D02*
X108162381Y-81684286D01*
X108162381Y-81303333D01*
X108210000Y-81208095D01*
X108257619Y-81160476D01*
X108352857Y-81112857D01*
X108495714Y-81112857D01*
X108590952Y-81160476D01*
X108638571Y-81208095D01*
X108686190Y-81303333D01*
X108686190Y-81684286D01*
X108495714Y-80255714D02*
X109162381Y-80255714D01*
X108114762Y-80493810D02*
X108829048Y-80731905D01*
X108829048Y-80112857D01*
X108495714Y-79303333D02*
X109162381Y-79303333D01*
X108114762Y-79541429D02*
X108829048Y-79779524D01*
X108829048Y-79160476D01*
X106622381Y-81112857D02*
X106146190Y-81446191D01*
X106622381Y-81684286D02*
X105622381Y-81684286D01*
X105622381Y-81303333D01*
X105670000Y-81208095D01*
X105717619Y-81160476D01*
X105812857Y-81112857D01*
X105955714Y-81112857D01*
X106050952Y-81160476D01*
X106098571Y-81208095D01*
X106146190Y-81303333D01*
X106146190Y-81684286D01*
X105955714Y-80255714D02*
X106622381Y-80255714D01*
X105574762Y-80493810D02*
X106289048Y-80731905D01*
X106289048Y-80112857D01*
X105622381Y-79255714D02*
X105622381Y-79731905D01*
X106098571Y-79779524D01*
X106050952Y-79731905D01*
X106003333Y-79636667D01*
X106003333Y-79398571D01*
X106050952Y-79303333D01*
X106098571Y-79255714D01*
X106193810Y-79208095D01*
X106431905Y-79208095D01*
X106527143Y-79255714D01*
X106574762Y-79303333D01*
X106622381Y-79398571D01*
X106622381Y-79636667D01*
X106574762Y-79731905D01*
X106527143Y-79779524D01*
X104082381Y-81112857D02*
X103606190Y-81446191D01*
X104082381Y-81684286D02*
X103082381Y-81684286D01*
X103082381Y-81303333D01*
X103130000Y-81208095D01*
X103177619Y-81160476D01*
X103272857Y-81112857D01*
X103415714Y-81112857D01*
X103510952Y-81160476D01*
X103558571Y-81208095D01*
X103606190Y-81303333D01*
X103606190Y-81684286D01*
X103415714Y-80255714D02*
X104082381Y-80255714D01*
X103034762Y-80493810D02*
X103749048Y-80731905D01*
X103749048Y-80112857D01*
X103082381Y-79303333D02*
X103082381Y-79493810D01*
X103130000Y-79589048D01*
X103177619Y-79636667D01*
X103320476Y-79731905D01*
X103510952Y-79779524D01*
X103891905Y-79779524D01*
X103987143Y-79731905D01*
X104034762Y-79684286D01*
X104082381Y-79589048D01*
X104082381Y-79398571D01*
X104034762Y-79303333D01*
X103987143Y-79255714D01*
X103891905Y-79208095D01*
X103653810Y-79208095D01*
X103558571Y-79255714D01*
X103510952Y-79303333D01*
X103463333Y-79398571D01*
X103463333Y-79589048D01*
X103510952Y-79684286D01*
X103558571Y-79731905D01*
X103653810Y-79779524D01*
X101542381Y-81112857D02*
X101066190Y-81446191D01*
X101542381Y-81684286D02*
X100542381Y-81684286D01*
X100542381Y-81303333D01*
X100590000Y-81208095D01*
X100637619Y-81160476D01*
X100732857Y-81112857D01*
X100875714Y-81112857D01*
X100970952Y-81160476D01*
X101018571Y-81208095D01*
X101066190Y-81303333D01*
X101066190Y-81684286D01*
X100875714Y-80255714D02*
X101542381Y-80255714D01*
X100494762Y-80493810D02*
X101209048Y-80731905D01*
X101209048Y-80112857D01*
X100542381Y-79827143D02*
X100542381Y-79160476D01*
X101542381Y-79589048D01*
X99002381Y-81112857D02*
X98526190Y-81446191D01*
X99002381Y-81684286D02*
X98002381Y-81684286D01*
X98002381Y-81303333D01*
X98050000Y-81208095D01*
X98097619Y-81160476D01*
X98192857Y-81112857D01*
X98335714Y-81112857D01*
X98430952Y-81160476D01*
X98478571Y-81208095D01*
X98526190Y-81303333D01*
X98526190Y-81684286D01*
X98335714Y-80255714D02*
X99002381Y-80255714D01*
X97954762Y-80493810D02*
X98669048Y-80731905D01*
X98669048Y-80112857D01*
X98430952Y-79589048D02*
X98383333Y-79684286D01*
X98335714Y-79731905D01*
X98240476Y-79779524D01*
X98192857Y-79779524D01*
X98097619Y-79731905D01*
X98050000Y-79684286D01*
X98002381Y-79589048D01*
X98002381Y-79398571D01*
X98050000Y-79303333D01*
X98097619Y-79255714D01*
X98192857Y-79208095D01*
X98240476Y-79208095D01*
X98335714Y-79255714D01*
X98383333Y-79303333D01*
X98430952Y-79398571D01*
X98430952Y-79589048D01*
X98478571Y-79684286D01*
X98526190Y-79731905D01*
X98621429Y-79779524D01*
X98811905Y-79779524D01*
X98907143Y-79731905D01*
X98954762Y-79684286D01*
X99002381Y-79589048D01*
X99002381Y-79398571D01*
X98954762Y-79303333D01*
X98907143Y-79255714D01*
X98811905Y-79208095D01*
X98621429Y-79208095D01*
X98526190Y-79255714D01*
X98478571Y-79303333D01*
X98430952Y-79398571D01*
X176523095Y-103482381D02*
X176523095Y-104291905D01*
X176570714Y-104387143D01*
X176618333Y-104434762D01*
X176713571Y-104482381D01*
X176904048Y-104482381D01*
X176999286Y-104434762D01*
X177046905Y-104387143D01*
X177094524Y-104291905D01*
X177094524Y-103482381D01*
X177713571Y-103910952D02*
X177618333Y-103863333D01*
X177570714Y-103815714D01*
X177523095Y-103720476D01*
X177523095Y-103672857D01*
X177570714Y-103577619D01*
X177618333Y-103530000D01*
X177713571Y-103482381D01*
X177904048Y-103482381D01*
X177999286Y-103530000D01*
X178046905Y-103577619D01*
X178094524Y-103672857D01*
X178094524Y-103720476D01*
X178046905Y-103815714D01*
X177999286Y-103863333D01*
X177904048Y-103910952D01*
X177713571Y-103910952D01*
X177618333Y-103958571D01*
X177570714Y-104006190D01*
X177523095Y-104101429D01*
X177523095Y-104291905D01*
X177570714Y-104387143D01*
X177618333Y-104434762D01*
X177713571Y-104482381D01*
X177904048Y-104482381D01*
X177999286Y-104434762D01*
X178046905Y-104387143D01*
X178094524Y-104291905D01*
X178094524Y-104101429D01*
X178046905Y-104006190D01*
X177999286Y-103958571D01*
X177904048Y-103910952D01*
M02*
