M48
;DRILL file {KiCad 5.0.0-rc2-dev-unknown+dfsg1+20180318-2} date Mon Jun  4 00:03:06 2018
;FORMAT={-:-/ absolute / inch / decimal}
FMAT,2
INCH,TZ
T1C0.0079
T2C0.0100
T3C0.0118
T4C0.0157
T5C0.0197
T6C0.0394
T7C0.0400
T8C0.0512
T9C0.1260
T10C0.0669
%
G90
G05
M72
T1
X3.9402Y-4.1024
X3.9547Y-3.9781
X4.1435Y-3.4093
X4.1556Y-4.0633
X4.1564Y-4.0024
X4.167Y-4.046
X4.1672Y-4.1
X4.1689Y-4.0793
X4.1767Y-4.1328
X4.1841Y-4.0116
X4.3244Y-2.8984
X4.3543Y-2.9366
X4.4053Y-3.3958
X4.4124Y-2.8927
X4.4336Y-2.8927
X4.455Y-2.6513
X4.4748Y-3.5187
X4.4853Y-3.8838
X4.4923Y-2.9375
X4.5084Y-3.2445
X4.5509Y-3.8844
X4.5747Y-2.8927
X4.6153Y-3.8438
X4.6553Y-3.8638
X4.7123Y-3.0509
X4.7247Y-2.6381
X4.7506Y-2.8042
X4.7535Y-3.0195
X4.7703Y-3.5688
X4.7832Y-3.5526
X4.8003Y-3.7738
X4.8112Y-3.7238
X4.8153Y-3.7538
X4.8396Y-2.6194
X4.8533Y-4.0046
X4.8705Y-3.5852
X4.8825Y-3.5683
X4.8899Y-4.2208
X4.8946Y-4.134
X4.8961Y-3.436
X4.8961Y-3.436
X4.9068Y-3.6662
X4.9097Y-3.942
X4.9153Y-3.7836
X4.9256Y-3.6574
X4.9419Y-3.6707
X4.9687Y-2.6608
X4.9988Y-3.4905
X5.0119Y-3.5612
X5.0165Y-4.0975
X5.0231Y-4.247
X5.0295Y-3.1493
X5.0319Y-3.4324
X5.0418Y-3.2807
X5.043Y-3.3574
X5.0448Y-3.528
X5.0454Y-3.0446
X5.0479Y-4.3234
X5.0491Y-4.0633
X5.0523Y-3.1478
X5.057Y-3.0779
X5.0572Y-3.3117
X5.0648Y-3.0321
X5.0666Y-3.2574
X5.0711Y-4.0624
X5.0751Y-3.149
X5.0753Y-3.3664
X5.0772Y-3.0661
X5.0789Y-3.9439
X5.0809Y-3.6285
X5.0907Y-3.3131
X5.093Y-3.6868
X5.096Y-3.1475
X5.0964Y-3.5409
X5.0968Y-3.2679
X5.1011Y-3.6223
X5.1047Y-3.9431
X5.115Y-3.0674
X5.117Y-3.6628
X5.1178Y-3.2949
X5.1189Y-3.6115
X5.123Y-3.7056
X5.1288Y-3.159
X5.1332Y-3.6451
X5.1347Y-3.7581
X5.1373Y-3.302
X5.1512Y-4.0633
X5.1527Y-3.0808
X5.1556Y-3.12
X5.159Y-4.0231
X5.1608Y-3.7624
X5.1679Y-3.3948
X5.1679Y-3.1741
X5.1685Y-3.52
X5.1699Y-3.7385
X5.1714Y-3.0419
X5.1753Y-4.0633
X5.1842Y-3.1377
X5.1963Y-3.7955
X5.1978Y-4.3215
X5.1981Y-3.6772
X5.1998Y-3.5201
X5.1999Y-3.5828
X5.2Y-3.2656
X5.2Y-3.2324
X5.2Y-3.4252
X5.2Y-3.7087
X5.2001Y-3.3961
X5.2001Y-3.2989
X5.2002Y-3.4865
X5.2003Y-3.205
X5.2004Y-3.3653
X5.2005Y-3.3321
X5.2008Y-3.5495
X5.2012Y-3.6428
X5.2033Y-4.1805
X5.2055Y-4.3023
X5.2081Y-4.2817
X5.209Y-3.045
X5.2137Y-3.0248
X5.2153Y-4.1143
X5.2247Y-4.3181
X5.2292Y-3.2048
X5.2302Y-3.7085
X5.2312Y-3.2656
X5.2315Y-3.2324
X5.2315Y-3.4882
X5.2315Y-3.5827
X5.2315Y-3.6142
X5.2315Y-3.6457
X5.2315Y-3.6772
X5.2316Y-3.2989
X5.2316Y-3.3321
X5.2322Y-3.3649
X5.2323Y-3.5504
X5.2334Y-4.0788
X5.2447Y-4.2309
X5.2608Y-3.3609
X5.2617Y-3.2359
X5.2624Y-3.2053
X5.2627Y-3.3305
X5.263Y-3.2677
X5.263Y-3.2992
X5.263Y-3.6142
X5.263Y-3.6457
X5.2632Y-3.6773
X5.2663Y-3.7951
X5.2698Y-3.7746
X5.2826Y-3.0599
X5.2854Y-3.0809
X5.2927Y-3.2354
X5.2935Y-3.7113
X5.2939Y-4.2851
X5.2945Y-3.2992
X5.2945Y-3.5827
X5.2956Y-3.205
X5.3007Y-4.3197
X5.3022Y-4.2571
X5.3034Y-4.1539
X5.3051Y-4.2051
X5.3158Y-3.1112
X5.3163Y-3.0642
X5.3201Y-3.0209
X5.3253Y-3.4538
X5.326Y-3.2686
X5.326Y-3.3622
X5.326Y-3.3937
X5.326Y-3.4252
X5.326Y-3.6457
X5.326Y-3.1726
X5.3262Y-3.7396
X5.3263Y-3.7097
X5.3274Y-3.236
X5.3285Y-3.519
X5.3291Y-3.2045
X5.3313Y-3.0799
X5.3353Y-3.8438
X5.3381Y-3.037
X5.3408Y-4.3548
X5.3563Y-3.0569
X5.3563Y-3.8549
X5.3575Y-3.2677
X5.3575Y-3.4567
X5.3581Y-3.676
X5.3592Y-3.2386
X5.3635Y-3.2062
X5.3836Y-2.9756
X5.3883Y-3.0428
X5.389Y-3.5197
X5.389Y-3.6457
X5.3896Y-3.0654
X5.4006Y-3.0167
X5.4154Y-3.3298
X5.4183Y-3.5481
X5.4183Y-2.9408
X5.4205Y-3.2047
X5.4205Y-3.4882
X5.4205Y-3.6772
X5.4253Y-3.6088
X5.4491Y-3.0532
X5.452Y-3.6457
X5.4615Y-3.0701
X5.474Y-3.0874
X5.4832Y-3.3312
X5.4835Y-3.2047
X5.4835Y-3.6772
X5.4848Y-3.107
X5.4851Y-3.5498
X5.5115Y-2.9822
X5.5124Y-3.3934
X5.513Y-3.2047
X5.513Y-3.2362
X5.5131Y-2.6491
X5.5142Y-3.2685
X5.515Y-3.5197
X5.515Y-3.6457
X5.5322Y-2.984
X5.5457Y-3.2693
X5.5462Y-3.2353
X5.5462Y-3.5997
X5.5463Y-3.3288
X5.5465Y-3.6772
X5.5471Y-3.4573
X5.5481Y-3.2066
X5.5528Y-2.9861
X5.5622Y-3.8442
X5.5758Y-3.0675
X5.578Y-3.3622
X5.578Y-3.3937
X5.578Y-3.6457
X5.5798Y-3.236
X5.5798Y-3.2677
X5.5803Y-3.5138
X5.5804Y-2.718
X5.5948Y-3.5906
X5.6078Y-2.9188
X5.6083Y-3.2055
X5.6087Y-3.174
X5.6087Y-3.2685
X5.6094Y-3.2992
X5.6094Y-3.7087
X5.6094Y-3.7402
X5.613Y-3.2364
X5.6214Y-3.082
X5.6215Y-3.045
X5.6225Y-3.1042
X5.6402Y-3.3315
X5.6405Y-3.6778
X5.6409Y-3.2992
X5.6409Y-3.4252
X5.6409Y-3.6142
X5.6412Y-3.2694
X5.6415Y-3.2038
X5.6417Y-3.3945
X5.6426Y-3.488
X5.6426Y-3.5513
X5.6426Y-3.5827
X5.643Y-3.2361
X5.6503Y-2.9163
X5.6555Y-2.5143
X5.6578Y-2.9849
X5.6718Y-3.6172
X5.6723Y-3.5195
X5.6723Y-3.5538
X5.6724Y-3.3937
X5.6724Y-3.581
X5.6726Y-3.4876
X5.6733Y-3.3621
X5.6734Y-3.2983
X5.6734Y-3.3331
X5.6737Y-3.6452
X5.6745Y-3.2677
X5.6747Y-3.2041
X5.6762Y-3.2362
X5.6932Y-3.0912
X5.6932Y-3.1245
X5.7005Y-3.0718
X5.703Y-3.5177
X5.7034Y-3.5509
X5.7037Y-3.3974
X5.7038Y-3.4891
X5.704Y-3.6448
X5.7042Y-3.202
X5.7043Y-3.2353
X5.7043Y-3.3641
X5.7044Y-3.6174
X5.7045Y-3.4243
X5.7046Y-3.3017
X5.7048Y-3.5842
X5.7052Y-3.333
X5.7054Y-3.2685
X5.7351Y-3.362
X5.7354Y-3.2049
X5.7357Y-3.5825
X5.7359Y-3.7074
X5.7572Y-2.7144
X5.7636Y-3.832
X5.767Y-3.1425
X5.7703Y-2.8338
X5.7712Y-2.999
X5.7839Y-2.9806
X5.7943Y-3.832
X5.8044Y-3.5477
X5.8103Y-2.8163
X5.8145Y-3.3612
X5.8145Y-3.1883
X5.815Y-3.6937
X5.8233Y-3.4521
X5.824Y-3.7535
X5.8303Y-2.7113
X5.8337Y-3.1804
X5.8458Y-3.4497
X5.8508Y-3.2168
X5.8542Y-3.1835
X5.8562Y-3.7665
X5.8631Y-3.2851
X5.8714Y-2.497
X5.8728Y-2.7113
X5.8773Y-3.755
X5.8869Y-3.1826
X5.8879Y-3.4248
X5.8889Y-4.0677
X5.895Y-3.2995
X5.8971Y-3.2195
X5.8975Y-3.75
X5.8997Y-3.1989
X5.9165Y-3.7417
X5.9191Y-3.7212
X5.9405Y-3.7139
X6.0003Y-2.8413
X6.0038Y-3.1179
X6.0553Y-2.677
X6.0747Y-2.8581
X6.0753Y-2.5738
X6.0753Y-2.7363
X6.0797Y-4.0546
X6.2203Y-2.8538
X6.2487Y-4.2254
X6.3886Y-2.6096
X6.3953Y-3.8295
X6.445Y-2.8166
X6.5277Y-3.8325
X6.5493Y-2.7888
X6.6207Y-3.1145
X6.6739Y-2.7436
X6.6753Y-2.9388
X6.6903Y-4.1388
X6.6903Y-4.2488
X6.7003Y-2.6388
X6.7003Y-2.9388
X6.7051Y-3.3638
X6.7091Y-4.2239
X6.7303Y-2.6388
X6.7358Y-3.8845
X6.7358Y-3.922
X6.7358Y-3.959
X6.7358Y-3.9798
X6.7358Y-4.0021
X6.7735Y-3.4425
X6.8053Y-2.8113
X6.8165Y-3.4486
X6.8447Y-2.8165
X6.9364Y-4.115
X6.9412Y-4.0661
X6.953Y-3.4845
X6.9567Y-3.3157
X6.9605Y-2.8087
X6.9768Y-3.4946
X6.9798Y-3.8102
X7.1Y-3.044
X7.1453Y-3.5888
X7.2003Y-4.3938
T2
X5.2539Y-4.0249
X5.3575Y-3.3307
X5.3913Y-3.3936
X5.4205Y-3.4252
X5.4829Y-3.6069
X5.4835Y-3.4252
X5.4835Y-3.4882
X5.5778Y-3.4247
X5.7851Y-3.7973
X5.8009Y-3.67
X5.8084Y-3.7761
X5.8405Y-3.6741
T3
X3.9627Y-3.5497
X4.0437Y-3.8817
X4.1047Y-3.9681
X4.4403Y-4.0488
X4.8597Y-4.2902
X6.0043Y-3.2163
X6.0864Y-3.7247
X6.1453Y-3.7238
X6.1521Y-3.2027
X6.2493Y-3.1909
X6.3416Y-3.1887
X6.4356Y-3.1867
X6.4915Y-3.1866
X7.1321Y-4.1331
T4
X4.3541Y-4.277
T5
X3.9707Y-2.8179
X4.0042Y-3.245
X4.2116Y-2.5572
X4.2134Y-2.6395
X4.3358Y-3.5444
X4.6016Y-2.5513
X5.3191Y-2.6227
X5.8373Y-3.1122
X5.9747Y-3.9281
X6.2047Y-2.4781
X6.2129Y-2.6641
X6.2417Y-3.735
X6.3349Y-3.7404
X6.4156Y-3.7432
X6.4813Y-3.7395
X6.494Y-2.488
X6.5455Y-3.124
X6.5463Y-3.0496
X6.5466Y-3.7411
X6.9092Y-2.5324
X6.9392Y-3.7121
X6.9944Y-3.2394
T6
X4.0547Y-3.7681
X4.1547Y-3.7681
X5.1203Y-2.8238
X5.2203Y-2.8238
X5.3203Y-2.8238
T7
X7.2547Y-2.4681
X7.2547Y-2.5681
X7.2547Y-2.6681
X7.2547Y-2.7681
X7.2547Y-2.8681
X7.2547Y-2.9681
X7.2547Y-3.0681
X7.2547Y-3.1681
X7.2547Y-3.2681
X7.2547Y-3.3681
X7.2547Y-3.4681
X7.2547Y-3.5681
X7.2547Y-3.6681
X7.2547Y-3.7681
X7.2547Y-3.8681
X7.2547Y-3.9681
X7.2547Y-4.0681
X7.2547Y-4.1681
X7.2547Y-4.2681
X7.2547Y-4.3681
X7.3547Y-2.4681
X7.3547Y-2.5681
X7.3547Y-2.6681
X7.3547Y-2.7681
X7.3547Y-2.8681
X7.3547Y-2.9681
X7.3547Y-3.0681
X7.3547Y-3.1681
X7.3547Y-3.2681
X7.3547Y-3.3681
X7.3547Y-3.4681
X7.3547Y-3.5681
X7.3547Y-3.6681
X7.3547Y-3.7681
X7.3547Y-3.8681
X7.3547Y-3.9681
X7.3547Y-4.0681
X7.3547Y-4.1681
X7.3547Y-4.2681
X7.3547Y-4.3681
X3.7547Y-2.4681
X3.7547Y-2.5681
X3.7547Y-2.6681
X3.7547Y-2.7681
X3.7547Y-2.8681
X3.7547Y-2.9681
X3.7547Y-3.0681
X3.7547Y-3.1681
X3.7547Y-3.2681
X3.7547Y-3.3681
X3.7547Y-3.4681
X3.7547Y-3.5681
X3.7547Y-3.6681
X3.7547Y-3.7681
X3.7547Y-3.8681
X3.7547Y-3.9681
X3.7547Y-4.0681
X3.7547Y-4.1681
X3.7547Y-4.2681
X3.7547Y-4.3681
X3.8547Y-2.4681
X3.8547Y-2.5681
X3.8547Y-2.6681
X3.8547Y-2.7681
X3.8547Y-2.8681
X3.8547Y-2.9681
X3.8547Y-3.0681
X3.8547Y-3.1681
X3.8547Y-3.2681
X3.8547Y-3.3681
X3.8547Y-3.4681
X3.8547Y-3.5681
X3.8547Y-3.6681
X3.8547Y-3.7681
X3.8547Y-3.8681
X3.8547Y-3.9681
X3.8547Y-4.0681
X3.8547Y-4.1681
X3.8547Y-4.2681
X3.8547Y-4.3681
X5.4297Y-4.1181
X5.4297Y-4.2181
X5.4297Y-4.3181
X5.5297Y-4.1181
X5.5297Y-4.2181
X5.5297Y-4.3181
X5.2047Y-3.9681
X5.3047Y-3.9681
X5.4047Y-3.9681
X5.5047Y-3.9681
X5.6047Y-3.9681
X5.7047Y-3.9681
X5.8047Y-3.9681
T8
X5.4113Y-2.5359
X5.4349Y-2.7288
X6.0057Y-2.7288
X6.0294Y-2.5359
T9
X7.0547Y-2.5681
X4.0547Y-2.5681
X4.0547Y-4.2681
X7.0547Y-4.2681
T10
X4.9003Y-2.6188
X4.9003Y-2.8944
T0
M30
