G04 #@! TF.GenerationSoftware,KiCad,Pcbnew,5.1.9+dfsg1-1*
G04 #@! TF.CreationDate,2021-03-01T22:15:24+01:00*
G04 #@! TF.ProjectId,ulx3s,756c7833-732e-46b6-9963-61645f706362,v3.1.1*
G04 #@! TF.SameCoordinates,Original*
G04 #@! TF.FileFunction,Paste,Top*
G04 #@! TF.FilePolarity,Positive*
%FSLAX46Y46*%
G04 Gerber Fmt 4.6, Leading zero omitted, Abs format (unit mm)*
G04 Created by KiCad (PCBNEW 5.1.9+dfsg1-1) date 2021-03-01 22:15:24*
%MOMM*%
%LPD*%
G01*
G04 APERTURE LIST*
%ADD10C,0.100000*%
%ADD11R,0.200000X1.800000*%
%ADD12C,0.350000*%
%ADD13O,0.460000X1.100000*%
%ADD14R,0.460000X1.100000*%
%ADD15R,1.546000X1.646000*%
%ADD16R,0.300000X1.250000*%
%ADD17R,1.646000X1.646000*%
%ADD18R,1.846000X1.346000*%
%ADD19R,1.900000X1.500000*%
%ADD20R,2.546000X1.746000*%
%ADD21R,2.546000X1.946000*%
%ADD22R,2.546000X2.546000*%
%ADD23R,0.920000X2.240000*%
%ADD24R,0.875000X0.875000*%
%ADD25O,0.200000X0.850000*%
%ADD26O,0.850000X0.200000*%
%ADD27R,0.850000X0.200000*%
%ADD28R,1.095000X1.200000*%
%ADD29R,1.296000X1.046000*%
G04 APERTURE END LIST*
D10*
G36*
X137646000Y-64012000D02*
G01*
X137646000Y-63412000D01*
X138146000Y-63712000D01*
X138446000Y-64212000D01*
X137846000Y-64212000D01*
X137646000Y-64012000D01*
G37*
X137646000Y-64012000D02*
X137646000Y-63412000D01*
X138146000Y-63712000D01*
X138446000Y-64212000D01*
X137846000Y-64212000D01*
X137646000Y-64012000D01*
G36*
X136746000Y-63712000D02*
G01*
X137246000Y-63412000D01*
X137246000Y-64012000D01*
X137046000Y-64212000D01*
X136446000Y-64212000D01*
X136746000Y-63712000D01*
G37*
X136746000Y-63712000D02*
X137246000Y-63412000D01*
X137246000Y-64012000D01*
X137046000Y-64212000D01*
X136446000Y-64212000D01*
X136746000Y-63712000D01*
G36*
X136746000Y-65112000D02*
G01*
X136446000Y-64612000D01*
X137046000Y-64612000D01*
X137246000Y-64812000D01*
X137246000Y-65412000D01*
X136746000Y-65112000D01*
G37*
X136746000Y-65112000D02*
X136446000Y-64612000D01*
X137046000Y-64612000D01*
X137246000Y-64812000D01*
X137246000Y-65412000D01*
X136746000Y-65112000D01*
G36*
X137646000Y-64812000D02*
G01*
X137846000Y-64612000D01*
X138446000Y-64612000D01*
X138146000Y-65112000D01*
X137646000Y-65412000D01*
X137646000Y-64812000D01*
G37*
X137646000Y-64812000D02*
X137846000Y-64612000D01*
X138446000Y-64612000D01*
X138146000Y-65112000D01*
X137646000Y-65412000D01*
X137646000Y-64812000D01*
G36*
X137346000Y-68612000D02*
G01*
X137846000Y-68312000D01*
X137846000Y-68912000D01*
X137646000Y-69112000D01*
X137046000Y-69112000D01*
X137346000Y-68612000D01*
G37*
X137346000Y-68612000D02*
X137846000Y-68312000D01*
X137846000Y-68912000D01*
X137646000Y-69112000D01*
X137046000Y-69112000D01*
X137346000Y-68612000D01*
G36*
X138246000Y-68912000D02*
G01*
X138246000Y-68312000D01*
X138746000Y-68612000D01*
X139046000Y-69112000D01*
X138446000Y-69112000D01*
X138246000Y-68912000D01*
G37*
X138246000Y-68912000D02*
X138246000Y-68312000D01*
X138746000Y-68612000D01*
X139046000Y-69112000D01*
X138446000Y-69112000D01*
X138246000Y-68912000D01*
G36*
X138246000Y-69712000D02*
G01*
X138446000Y-69512000D01*
X139046000Y-69512000D01*
X138746000Y-70012000D01*
X138246000Y-70312000D01*
X138246000Y-69712000D01*
G37*
X138246000Y-69712000D02*
X138446000Y-69512000D01*
X139046000Y-69512000D01*
X138746000Y-70012000D01*
X138246000Y-70312000D01*
X138246000Y-69712000D01*
G36*
X137346000Y-70012000D02*
G01*
X137046000Y-69512000D01*
X137646000Y-69512000D01*
X137846000Y-69712000D01*
X137846000Y-70312000D01*
X137346000Y-70012000D01*
G37*
X137346000Y-70012000D02*
X137046000Y-69512000D01*
X137646000Y-69512000D01*
X137846000Y-69712000D01*
X137846000Y-70312000D01*
X137346000Y-70012000D01*
G36*
X151846000Y-70012000D02*
G01*
X151546000Y-69512000D01*
X152146000Y-69512000D01*
X152346000Y-69712000D01*
X152346000Y-70312000D01*
X151846000Y-70012000D01*
G37*
X151846000Y-70012000D02*
X151546000Y-69512000D01*
X152146000Y-69512000D01*
X152346000Y-69712000D01*
X152346000Y-70312000D01*
X151846000Y-70012000D01*
G36*
X152746000Y-69712000D02*
G01*
X152946000Y-69512000D01*
X153546000Y-69512000D01*
X153246000Y-70012000D01*
X152746000Y-70312000D01*
X152746000Y-69712000D01*
G37*
X152746000Y-69712000D02*
X152946000Y-69512000D01*
X153546000Y-69512000D01*
X153246000Y-70012000D01*
X152746000Y-70312000D01*
X152746000Y-69712000D01*
G36*
X151846000Y-68612000D02*
G01*
X152346000Y-68312000D01*
X152346000Y-68912000D01*
X152146000Y-69112000D01*
X151546000Y-69112000D01*
X151846000Y-68612000D01*
G37*
X151846000Y-68612000D02*
X152346000Y-68312000D01*
X152346000Y-68912000D01*
X152146000Y-69112000D01*
X151546000Y-69112000D01*
X151846000Y-68612000D01*
G36*
X152746000Y-68912000D02*
G01*
X152746000Y-68312000D01*
X153246000Y-68612000D01*
X153546000Y-69112000D01*
X152946000Y-69112000D01*
X152746000Y-68912000D01*
G37*
X152746000Y-68912000D02*
X152746000Y-68312000D01*
X153246000Y-68612000D01*
X153546000Y-69112000D01*
X152946000Y-69112000D01*
X152746000Y-68912000D01*
G36*
X152446000Y-65112000D02*
G01*
X152146000Y-64612000D01*
X152746000Y-64612000D01*
X152946000Y-64812000D01*
X152946000Y-65412000D01*
X152446000Y-65112000D01*
G37*
X152446000Y-65112000D02*
X152146000Y-64612000D01*
X152746000Y-64612000D01*
X152946000Y-64812000D01*
X152946000Y-65412000D01*
X152446000Y-65112000D01*
G36*
X153346000Y-64812000D02*
G01*
X153546000Y-64612000D01*
X154146000Y-64612000D01*
X153846000Y-65112000D01*
X153346000Y-65412000D01*
X153346000Y-64812000D01*
G37*
X153346000Y-64812000D02*
X153546000Y-64612000D01*
X154146000Y-64612000D01*
X153846000Y-65112000D01*
X153346000Y-65412000D01*
X153346000Y-64812000D01*
G36*
X152446000Y-63712000D02*
G01*
X152946000Y-63412000D01*
X152946000Y-64012000D01*
X152746000Y-64212000D01*
X152146000Y-64212000D01*
X152446000Y-63712000D01*
G37*
X152446000Y-63712000D02*
X152946000Y-63412000D01*
X152946000Y-64012000D01*
X152746000Y-64212000D01*
X152146000Y-64212000D01*
X152446000Y-63712000D01*
G36*
X153346000Y-64012000D02*
G01*
X153346000Y-63412000D01*
X153846000Y-63712000D01*
X154146000Y-64212000D01*
X153546000Y-64212000D01*
X153346000Y-64012000D01*
G37*
X153346000Y-64012000D02*
X153346000Y-63412000D01*
X153846000Y-63712000D01*
X154146000Y-64212000D01*
X153546000Y-64212000D01*
X153346000Y-64012000D01*
D11*
X149546000Y-70312000D03*
X149046000Y-70312000D03*
X148546000Y-70312000D03*
X148046000Y-70312000D03*
X147546000Y-70312000D03*
X147046000Y-70312000D03*
X146546000Y-70312000D03*
X146046000Y-70312000D03*
X145546000Y-70312000D03*
X145046000Y-70312000D03*
X144546000Y-70312000D03*
X144046000Y-70312000D03*
X143546000Y-70312000D03*
X143046000Y-70312000D03*
X142546000Y-70312000D03*
X142046000Y-70312000D03*
X141546000Y-70312000D03*
X141046000Y-70312000D03*
X140546000Y-70312000D03*
G36*
G01*
X121257000Y-95650000D02*
X120607000Y-95650000D01*
G75*
G02*
X120382000Y-95425000I0J225000D01*
G01*
X120382000Y-94975000D01*
G75*
G02*
X120607000Y-94750000I225000J0D01*
G01*
X121257000Y-94750000D01*
G75*
G02*
X121482000Y-94975000I0J-225000D01*
G01*
X121482000Y-95425000D01*
G75*
G02*
X121257000Y-95650000I-225000J0D01*
G01*
G37*
G36*
G01*
X116844500Y-93575000D02*
X118019500Y-93575000D01*
G75*
G02*
X118332000Y-93887500I0J-312500D01*
G01*
X118332000Y-94512500D01*
G75*
G02*
X118019500Y-94825000I-312500J0D01*
G01*
X116844500Y-94825000D01*
G75*
G02*
X116532000Y-94512500I0J312500D01*
G01*
X116532000Y-93887500D01*
G75*
G02*
X116844500Y-93575000I312500J0D01*
G01*
G37*
G36*
G01*
X110844500Y-93575000D02*
X112019500Y-93575000D01*
G75*
G02*
X112332000Y-93887500I0J-312500D01*
G01*
X112332000Y-94512500D01*
G75*
G02*
X112019500Y-94825000I-312500J0D01*
G01*
X110844500Y-94825000D01*
G75*
G02*
X110532000Y-94512500I0J312500D01*
G01*
X110532000Y-93887500D01*
G75*
G02*
X110844500Y-93575000I312500J0D01*
G01*
G37*
G36*
G01*
X120607000Y-98450000D02*
X121257000Y-98450000D01*
G75*
G02*
X121482000Y-98675000I0J-225000D01*
G01*
X121482000Y-99125000D01*
G75*
G02*
X121257000Y-99350000I-225000J0D01*
G01*
X120607000Y-99350000D01*
G75*
G02*
X120382000Y-99125000I0J225000D01*
G01*
X120382000Y-98675000D01*
G75*
G02*
X120607000Y-98450000I225000J0D01*
G01*
G37*
G36*
G01*
X120319500Y-104275000D02*
X121144500Y-104275000D01*
G75*
G02*
X121457000Y-104587500I0J-312500D01*
G01*
X121457000Y-105212500D01*
G75*
G02*
X121144500Y-105525000I-312500J0D01*
G01*
X120319500Y-105525000D01*
G75*
G02*
X120007000Y-105212500I0J312500D01*
G01*
X120007000Y-104587500D01*
G75*
G02*
X120319500Y-104275000I312500J0D01*
G01*
G37*
G36*
G01*
X109164500Y-103850000D02*
X109699500Y-103850000D01*
G75*
G02*
X109967000Y-104117500I0J-267500D01*
G01*
X109967000Y-105282500D01*
G75*
G02*
X109699500Y-105550000I-267500J0D01*
G01*
X109164500Y-105550000D01*
G75*
G02*
X108897000Y-105282500I0J267500D01*
G01*
X108897000Y-104117500D01*
G75*
G02*
X109164500Y-103850000I267500J0D01*
G01*
G37*
G36*
G01*
X107582000Y-100162500D02*
X107582000Y-98937500D01*
G75*
G02*
X107919500Y-98600000I337500J0D01*
G01*
X108594500Y-98600000D01*
G75*
G02*
X108932000Y-98937500I0J-337500D01*
G01*
X108932000Y-100162500D01*
G75*
G02*
X108594500Y-100500000I-337500J0D01*
G01*
X107919500Y-100500000D01*
G75*
G02*
X107582000Y-100162500I0J337500D01*
G01*
G37*
G36*
G01*
X121332000Y-100162500D02*
X121332000Y-98937500D01*
G75*
G02*
X121669500Y-98600000I337500J0D01*
G01*
X122344500Y-98600000D01*
G75*
G02*
X122682000Y-98937500I0J-337500D01*
G01*
X122682000Y-100162500D01*
G75*
G02*
X122344500Y-100500000I-337500J0D01*
G01*
X121669500Y-100500000D01*
G75*
G02*
X121332000Y-100162500I0J337500D01*
G01*
G37*
G36*
G01*
X121332000Y-108462500D02*
X121332000Y-107237500D01*
G75*
G02*
X121669500Y-106900000I337500J0D01*
G01*
X122344500Y-106900000D01*
G75*
G02*
X122682000Y-107237500I0J-337500D01*
G01*
X122682000Y-108462500D01*
G75*
G02*
X122344500Y-108800000I-337500J0D01*
G01*
X121669500Y-108800000D01*
G75*
G02*
X121332000Y-108462500I0J337500D01*
G01*
G37*
G36*
G01*
X107582000Y-108462500D02*
X107582000Y-107237500D01*
G75*
G02*
X107919500Y-106900000I337500J0D01*
G01*
X108594500Y-106900000D01*
G75*
G02*
X108932000Y-107237500I0J-337500D01*
G01*
X108932000Y-108462500D01*
G75*
G02*
X108594500Y-108800000I-337500J0D01*
G01*
X107919500Y-108800000D01*
G75*
G02*
X107582000Y-108462500I0J337500D01*
G01*
G37*
G36*
G01*
X108732000Y-98250000D02*
X107782000Y-98250000D01*
G75*
G02*
X107582000Y-98050000I0J200000D01*
G01*
X107582000Y-97650000D01*
G75*
G02*
X107782000Y-97450000I200000J0D01*
G01*
X108732000Y-97450000D01*
G75*
G02*
X108932000Y-97650000I0J-200000D01*
G01*
X108932000Y-98050000D01*
G75*
G02*
X108732000Y-98250000I-200000J0D01*
G01*
G37*
G36*
G01*
X121332000Y-109750000D02*
X121332000Y-109350000D01*
G75*
G02*
X121532000Y-109150000I200000J0D01*
G01*
X122482000Y-109150000D01*
G75*
G02*
X122682000Y-109350000I0J-200000D01*
G01*
X122682000Y-109750000D01*
G75*
G02*
X122482000Y-109950000I-200000J0D01*
G01*
X121532000Y-109950000D01*
G75*
G02*
X121332000Y-109750000I0J200000D01*
G01*
G37*
G36*
G01*
X110332000Y-105800000D02*
X110332000Y-104700000D01*
G75*
G02*
X110482000Y-104550000I150000J0D01*
G01*
X110782000Y-104550000D01*
G75*
G02*
X110932000Y-104700000I0J-150000D01*
G01*
X110932000Y-105800000D01*
G75*
G02*
X110782000Y-105950000I-150000J0D01*
G01*
X110482000Y-105950000D01*
G75*
G02*
X110332000Y-105800000I0J150000D01*
G01*
G37*
G36*
G01*
X111432000Y-105800000D02*
X111432000Y-104700000D01*
G75*
G02*
X111582000Y-104550000I150000J0D01*
G01*
X111882000Y-104550000D01*
G75*
G02*
X112032000Y-104700000I0J-150000D01*
G01*
X112032000Y-105800000D01*
G75*
G02*
X111882000Y-105950000I-150000J0D01*
G01*
X111582000Y-105950000D01*
G75*
G02*
X111432000Y-105800000I0J150000D01*
G01*
G37*
G36*
G01*
X112532000Y-105800000D02*
X112532000Y-104700000D01*
G75*
G02*
X112682000Y-104550000I150000J0D01*
G01*
X112982000Y-104550000D01*
G75*
G02*
X113132000Y-104700000I0J-150000D01*
G01*
X113132000Y-105800000D01*
G75*
G02*
X112982000Y-105950000I-150000J0D01*
G01*
X112682000Y-105950000D01*
G75*
G02*
X112532000Y-105800000I0J150000D01*
G01*
G37*
G36*
G01*
X113632000Y-105800000D02*
X113632000Y-104700000D01*
G75*
G02*
X113782000Y-104550000I150000J0D01*
G01*
X114082000Y-104550000D01*
G75*
G02*
X114232000Y-104700000I0J-150000D01*
G01*
X114232000Y-105800000D01*
G75*
G02*
X114082000Y-105950000I-150000J0D01*
G01*
X113782000Y-105950000D01*
G75*
G02*
X113632000Y-105800000I0J150000D01*
G01*
G37*
G36*
G01*
X114732000Y-105800000D02*
X114732000Y-104700000D01*
G75*
G02*
X114882000Y-104550000I150000J0D01*
G01*
X115182000Y-104550000D01*
G75*
G02*
X115332000Y-104700000I0J-150000D01*
G01*
X115332000Y-105800000D01*
G75*
G02*
X115182000Y-105950000I-150000J0D01*
G01*
X114882000Y-105950000D01*
G75*
G02*
X114732000Y-105800000I0J150000D01*
G01*
G37*
G36*
G01*
X115832000Y-105800000D02*
X115832000Y-104700000D01*
G75*
G02*
X115982000Y-104550000I150000J0D01*
G01*
X116282000Y-104550000D01*
G75*
G02*
X116432000Y-104700000I0J-150000D01*
G01*
X116432000Y-105800000D01*
G75*
G02*
X116282000Y-105950000I-150000J0D01*
G01*
X115982000Y-105950000D01*
G75*
G02*
X115832000Y-105800000I0J150000D01*
G01*
G37*
G36*
G01*
X116932000Y-105800000D02*
X116932000Y-104700000D01*
G75*
G02*
X117082000Y-104550000I150000J0D01*
G01*
X117382000Y-104550000D01*
G75*
G02*
X117532000Y-104700000I0J-150000D01*
G01*
X117532000Y-105800000D01*
G75*
G02*
X117382000Y-105950000I-150000J0D01*
G01*
X117082000Y-105950000D01*
G75*
G02*
X116932000Y-105800000I0J150000D01*
G01*
G37*
G36*
G01*
X118032000Y-105800000D02*
X118032000Y-104700000D01*
G75*
G02*
X118182000Y-104550000I150000J0D01*
G01*
X118482000Y-104550000D01*
G75*
G02*
X118632000Y-104700000I0J-150000D01*
G01*
X118632000Y-105800000D01*
G75*
G02*
X118482000Y-105950000I-150000J0D01*
G01*
X118182000Y-105950000D01*
G75*
G02*
X118032000Y-105800000I0J150000D01*
G01*
G37*
D12*
X145280000Y-95400000D03*
X143680000Y-95400000D03*
X142880000Y-95400000D03*
X142080000Y-95400000D03*
X141280000Y-95400000D03*
X139680000Y-95400000D03*
X138880000Y-95400000D03*
X136480000Y-95400000D03*
X135680000Y-95400000D03*
X134880000Y-95400000D03*
X134080000Y-95400000D03*
X132480000Y-95400000D03*
X131680000Y-95400000D03*
X146080000Y-94600000D03*
X145280000Y-94600000D03*
X144480000Y-94600000D03*
X143680000Y-94600000D03*
X142880000Y-94600000D03*
X142080000Y-94600000D03*
X141280000Y-94600000D03*
X140480000Y-94600000D03*
X139680000Y-94600000D03*
X138880000Y-94600000D03*
X138080000Y-94600000D03*
X137280000Y-94600000D03*
X136480000Y-94600000D03*
X135680000Y-94600000D03*
X134880000Y-94600000D03*
X134080000Y-94600000D03*
X133280000Y-94600000D03*
X132480000Y-94600000D03*
X131680000Y-94600000D03*
X130880000Y-94600000D03*
X146080000Y-93800000D03*
X145280000Y-93800000D03*
X144480000Y-93800000D03*
X143680000Y-93800000D03*
X142880000Y-93800000D03*
X142080000Y-93800000D03*
X141280000Y-93800000D03*
X140480000Y-93800000D03*
X139680000Y-93800000D03*
X138880000Y-93800000D03*
X138080000Y-93800000D03*
X137280000Y-93800000D03*
X136480000Y-93800000D03*
X135680000Y-93800000D03*
X134880000Y-93800000D03*
X134080000Y-93800000D03*
X133280000Y-93800000D03*
X132480000Y-93800000D03*
X131680000Y-93800000D03*
X130880000Y-93800000D03*
X146080000Y-93000000D03*
X145280000Y-93000000D03*
X144480000Y-93000000D03*
X143680000Y-93000000D03*
X142880000Y-93000000D03*
X142080000Y-93000000D03*
X141280000Y-93000000D03*
X140480000Y-93000000D03*
X139680000Y-93000000D03*
X138880000Y-93000000D03*
X138080000Y-93000000D03*
X137280000Y-93000000D03*
X136480000Y-93000000D03*
X135680000Y-93000000D03*
X134880000Y-93000000D03*
X134080000Y-93000000D03*
X133280000Y-93000000D03*
X132480000Y-93000000D03*
X131680000Y-93000000D03*
X130880000Y-93000000D03*
X146080000Y-92200000D03*
X145280000Y-92200000D03*
X144480000Y-92200000D03*
X143680000Y-92200000D03*
X142880000Y-92200000D03*
X142080000Y-92200000D03*
X141280000Y-92200000D03*
X140480000Y-92200000D03*
X139680000Y-92200000D03*
X138880000Y-92200000D03*
X138080000Y-92200000D03*
X137280000Y-92200000D03*
X136480000Y-92200000D03*
X135680000Y-92200000D03*
X134880000Y-92200000D03*
X134080000Y-92200000D03*
X133280000Y-92200000D03*
X132480000Y-92200000D03*
X131680000Y-92200000D03*
X130880000Y-92200000D03*
X146080000Y-91400000D03*
X145280000Y-91400000D03*
X144480000Y-91400000D03*
X143680000Y-91400000D03*
X142880000Y-91400000D03*
X134080000Y-91400000D03*
X133280000Y-91400000D03*
X132480000Y-91400000D03*
X131680000Y-91400000D03*
X130880000Y-91400000D03*
X146080000Y-90600000D03*
X145280000Y-90600000D03*
X144480000Y-90600000D03*
X143680000Y-90600000D03*
X142880000Y-90600000D03*
X142080000Y-90600000D03*
X141280000Y-90600000D03*
X140480000Y-90600000D03*
X139680000Y-90600000D03*
X138880000Y-90600000D03*
X138080000Y-90600000D03*
X137280000Y-90600000D03*
X136480000Y-90600000D03*
X135680000Y-90600000D03*
X134880000Y-90600000D03*
X134080000Y-90600000D03*
X133280000Y-90600000D03*
X132480000Y-90600000D03*
X131680000Y-90600000D03*
X130880000Y-90600000D03*
X146080000Y-89800000D03*
X145280000Y-89800000D03*
X144480000Y-89800000D03*
X143680000Y-89800000D03*
X142880000Y-89800000D03*
X142080000Y-89800000D03*
X141280000Y-89800000D03*
X140480000Y-89800000D03*
X139680000Y-89800000D03*
X138880000Y-89800000D03*
X138080000Y-89800000D03*
X137280000Y-89800000D03*
X136480000Y-89800000D03*
X135680000Y-89800000D03*
X134880000Y-89800000D03*
X134080000Y-89800000D03*
X133280000Y-89800000D03*
X132480000Y-89800000D03*
X131680000Y-89800000D03*
X130880000Y-89800000D03*
X146080000Y-89000000D03*
X145280000Y-89000000D03*
X144480000Y-89000000D03*
X143680000Y-89000000D03*
X142880000Y-89000000D03*
X142080000Y-89000000D03*
X141280000Y-89000000D03*
X140480000Y-89000000D03*
X139680000Y-89000000D03*
X138880000Y-89000000D03*
X138080000Y-89000000D03*
X137280000Y-89000000D03*
X136480000Y-89000000D03*
X135680000Y-89000000D03*
X134880000Y-89000000D03*
X134080000Y-89000000D03*
X133280000Y-89000000D03*
X132480000Y-89000000D03*
X131680000Y-89000000D03*
X130880000Y-89000000D03*
X146080000Y-88200000D03*
X145280000Y-88200000D03*
X144480000Y-88200000D03*
X143680000Y-88200000D03*
X142880000Y-88200000D03*
X142080000Y-88200000D03*
X141280000Y-88200000D03*
X140480000Y-88200000D03*
X139680000Y-88200000D03*
X138880000Y-88200000D03*
X138080000Y-88200000D03*
X137280000Y-88200000D03*
X136480000Y-88200000D03*
X135680000Y-88200000D03*
X134880000Y-88200000D03*
X134080000Y-88200000D03*
X133280000Y-88200000D03*
X132480000Y-88200000D03*
X131680000Y-88200000D03*
X130880000Y-88200000D03*
X146080000Y-87400000D03*
X145280000Y-87400000D03*
X144480000Y-87400000D03*
X143680000Y-87400000D03*
X142880000Y-87400000D03*
X142080000Y-87400000D03*
X141280000Y-87400000D03*
X140480000Y-87400000D03*
X139680000Y-87400000D03*
X138880000Y-87400000D03*
X138080000Y-87400000D03*
X137280000Y-87400000D03*
X136480000Y-87400000D03*
X135680000Y-87400000D03*
X134880000Y-87400000D03*
X134080000Y-87400000D03*
X133280000Y-87400000D03*
X132480000Y-87400000D03*
X131680000Y-87400000D03*
X130880000Y-87400000D03*
X146080000Y-86600000D03*
X145280000Y-86600000D03*
X144480000Y-86600000D03*
X143680000Y-86600000D03*
X142880000Y-86600000D03*
X142080000Y-86600000D03*
X141280000Y-86600000D03*
X140480000Y-86600000D03*
X139680000Y-86600000D03*
X138880000Y-86600000D03*
X138080000Y-86600000D03*
X137280000Y-86600000D03*
X136480000Y-86600000D03*
X135680000Y-86600000D03*
X134880000Y-86600000D03*
X134080000Y-86600000D03*
X133280000Y-86600000D03*
X132480000Y-86600000D03*
X131680000Y-86600000D03*
X130880000Y-86600000D03*
X146080000Y-85800000D03*
X145280000Y-85800000D03*
X144480000Y-85800000D03*
X143680000Y-85800000D03*
X142880000Y-85800000D03*
X142080000Y-85800000D03*
X141280000Y-85800000D03*
X140480000Y-85800000D03*
X139680000Y-85800000D03*
X138880000Y-85800000D03*
X138080000Y-85800000D03*
X137280000Y-85800000D03*
X136480000Y-85800000D03*
X135680000Y-85800000D03*
X134880000Y-85800000D03*
X134080000Y-85800000D03*
X133280000Y-85800000D03*
X132480000Y-85800000D03*
X131680000Y-85800000D03*
X130880000Y-85800000D03*
X146080000Y-85000000D03*
X145280000Y-85000000D03*
X144480000Y-85000000D03*
X143680000Y-85000000D03*
X142880000Y-85000000D03*
X142080000Y-85000000D03*
X141280000Y-85000000D03*
X140480000Y-85000000D03*
X139680000Y-85000000D03*
X138880000Y-85000000D03*
X138080000Y-85000000D03*
X137280000Y-85000000D03*
X136480000Y-85000000D03*
X135680000Y-85000000D03*
X134880000Y-85000000D03*
X134080000Y-85000000D03*
X133280000Y-85000000D03*
X132480000Y-85000000D03*
X131680000Y-85000000D03*
X130880000Y-85000000D03*
X146080000Y-84200000D03*
X145280000Y-84200000D03*
X144480000Y-84200000D03*
X143680000Y-84200000D03*
X142880000Y-84200000D03*
X142080000Y-84200000D03*
X141280000Y-84200000D03*
X140480000Y-84200000D03*
X139680000Y-84200000D03*
X138880000Y-84200000D03*
X138080000Y-84200000D03*
X137280000Y-84200000D03*
X136480000Y-84200000D03*
X135680000Y-84200000D03*
X134880000Y-84200000D03*
X134080000Y-84200000D03*
X133280000Y-84200000D03*
X132480000Y-84200000D03*
X131680000Y-84200000D03*
X130880000Y-84200000D03*
X146080000Y-83400000D03*
X145280000Y-83400000D03*
X144480000Y-83400000D03*
X143680000Y-83400000D03*
X142880000Y-83400000D03*
X142080000Y-83400000D03*
X141280000Y-83400000D03*
X140480000Y-83400000D03*
X139680000Y-83400000D03*
X138880000Y-83400000D03*
X138080000Y-83400000D03*
X137280000Y-83400000D03*
X136480000Y-83400000D03*
X135680000Y-83400000D03*
X134880000Y-83400000D03*
X134080000Y-83400000D03*
X133280000Y-83400000D03*
X132480000Y-83400000D03*
X131680000Y-83400000D03*
X130880000Y-83400000D03*
X146080000Y-82600000D03*
X145280000Y-82600000D03*
X144480000Y-82600000D03*
X143680000Y-82600000D03*
X142880000Y-82600000D03*
X142080000Y-82600000D03*
X141280000Y-82600000D03*
X140480000Y-82600000D03*
X139680000Y-82600000D03*
X138880000Y-82600000D03*
X138080000Y-82600000D03*
X137280000Y-82600000D03*
X136480000Y-82600000D03*
X135680000Y-82600000D03*
X134880000Y-82600000D03*
X134080000Y-82600000D03*
X133280000Y-82600000D03*
X132480000Y-82600000D03*
X131680000Y-82600000D03*
X130880000Y-82600000D03*
X146080000Y-81800000D03*
X145280000Y-81800000D03*
X144480000Y-81800000D03*
X143680000Y-81800000D03*
X142880000Y-81800000D03*
X142080000Y-81800000D03*
X141280000Y-81800000D03*
X140480000Y-81800000D03*
X139680000Y-81800000D03*
X138880000Y-81800000D03*
X138080000Y-81800000D03*
X137280000Y-81800000D03*
X136480000Y-81800000D03*
X135680000Y-81800000D03*
X134880000Y-81800000D03*
X134080000Y-81800000D03*
X133280000Y-81800000D03*
X132480000Y-81800000D03*
X131680000Y-81800000D03*
X130880000Y-81800000D03*
X146080000Y-81000000D03*
X145280000Y-81000000D03*
X144480000Y-81000000D03*
X143680000Y-81000000D03*
X142880000Y-81000000D03*
X142080000Y-81000000D03*
X141280000Y-81000000D03*
X140480000Y-81000000D03*
X139680000Y-81000000D03*
X138880000Y-81000000D03*
X138080000Y-81000000D03*
X137280000Y-81000000D03*
X136480000Y-81000000D03*
X135680000Y-81000000D03*
X134880000Y-81000000D03*
X134080000Y-81000000D03*
X133280000Y-81000000D03*
X132480000Y-81000000D03*
X131680000Y-81000000D03*
X130880000Y-81000000D03*
X145280000Y-80200000D03*
X144480000Y-80200000D03*
X143680000Y-80200000D03*
X142880000Y-80200000D03*
X142080000Y-80200000D03*
X141280000Y-80200000D03*
X140480000Y-80200000D03*
X139680000Y-80200000D03*
X138880000Y-80200000D03*
X138080000Y-80200000D03*
X137280000Y-80200000D03*
X136480000Y-80200000D03*
X135680000Y-80200000D03*
X134880000Y-80200000D03*
X134080000Y-80200000D03*
X133280000Y-80200000D03*
X132480000Y-80200000D03*
X131680000Y-80200000D03*
D13*
X175493000Y-82070000D03*
D14*
X154693000Y-93530000D03*
D13*
X155493000Y-93530000D03*
X156293000Y-93530000D03*
X157093000Y-93530000D03*
X157893000Y-93530000D03*
X158693000Y-93530000D03*
X159493000Y-93530000D03*
X160293000Y-93530000D03*
X161093000Y-93530000D03*
X161893000Y-93530000D03*
X162693000Y-93530000D03*
X163493000Y-93530000D03*
X164293000Y-93530000D03*
X165093000Y-93530000D03*
X165893000Y-93530000D03*
X166693000Y-93530000D03*
X167493000Y-93530000D03*
X168293000Y-93530000D03*
X169093000Y-93530000D03*
X169893000Y-93530000D03*
X170693000Y-93530000D03*
X171493000Y-93530000D03*
X172293000Y-93530000D03*
X173093000Y-93530000D03*
X173893000Y-93530000D03*
X174693000Y-93530000D03*
X175493000Y-93530000D03*
X174693000Y-82070000D03*
X173893000Y-82070000D03*
X173093000Y-82070000D03*
X172293000Y-82070000D03*
X171493000Y-82070000D03*
X170693000Y-82070000D03*
X169893000Y-82070000D03*
X169093000Y-82070000D03*
X168293000Y-82070000D03*
X167493000Y-82070000D03*
X166693000Y-82070000D03*
X165893000Y-82070000D03*
X165093000Y-82070000D03*
X164293000Y-82070000D03*
X163493000Y-82070000D03*
X162693000Y-82070000D03*
X161893000Y-82070000D03*
X161093000Y-82070000D03*
X160293000Y-82070000D03*
X159493000Y-82070000D03*
X158693000Y-82070000D03*
X157893000Y-82070000D03*
X157093000Y-82070000D03*
X156293000Y-82070000D03*
X155493000Y-82070000D03*
X154693000Y-82070000D03*
D15*
X166500000Y-63325000D03*
X174100000Y-63325000D03*
D16*
X169000000Y-66000000D03*
X169650000Y-66000000D03*
X170300000Y-66000000D03*
X170950000Y-66000000D03*
X171600000Y-66000000D03*
D17*
X169100000Y-63325000D03*
X171500000Y-63325000D03*
D18*
X167200000Y-65875000D03*
X173400000Y-65875000D03*
D15*
X108080000Y-63325000D03*
X115680000Y-63325000D03*
D16*
X110580000Y-66000000D03*
X111230000Y-66000000D03*
X111880000Y-66000000D03*
X112530000Y-66000000D03*
X113180000Y-66000000D03*
D17*
X110680000Y-63325000D03*
X113080000Y-63325000D03*
D18*
X108780000Y-65875000D03*
X114980000Y-65875000D03*
D19*
X108212000Y-70160000D03*
X103132000Y-70160000D03*
X103132000Y-74560000D03*
X108212000Y-74560000D03*
D20*
X120668000Y-62700000D03*
D21*
X120668000Y-65500000D03*
D22*
X120668000Y-74900000D03*
X125218000Y-79000000D03*
D21*
X128268000Y-67400000D03*
D20*
X128268000Y-64600000D03*
D23*
X156330000Y-69815000D03*
X163950000Y-78425000D03*
X158870000Y-69815000D03*
X161410000Y-78425000D03*
X161410000Y-69815000D03*
X158870000Y-78425000D03*
X163950000Y-69815000D03*
X156330000Y-78425000D03*
D24*
X178097500Y-100967500D03*
X178097500Y-99342500D03*
X176472500Y-100967500D03*
X176472500Y-99342500D03*
D25*
X178785000Y-102495000D03*
X178285000Y-102495000D03*
X177785000Y-102495000D03*
X177285000Y-102495000D03*
X176785000Y-102495000D03*
X176285000Y-102495000D03*
X175785000Y-102495000D03*
D26*
X174945000Y-101655000D03*
X174945000Y-101155000D03*
X174945000Y-100655000D03*
X174945000Y-100155000D03*
X174945000Y-99655000D03*
X174945000Y-99155000D03*
X174945000Y-98655000D03*
D25*
X175785000Y-97815000D03*
X176285000Y-97815000D03*
X176785000Y-97815000D03*
X177285000Y-97815000D03*
X177785000Y-97815000D03*
X178285000Y-97815000D03*
X178785000Y-97815000D03*
D26*
X179625000Y-98655000D03*
X179625000Y-99155000D03*
X179625000Y-99655000D03*
X179625000Y-100155000D03*
X179625000Y-100655000D03*
X179625000Y-101155000D03*
D27*
X179625000Y-101655000D03*
G36*
G01*
X149195250Y-75371000D02*
X148732750Y-75371000D01*
G75*
G02*
X148539000Y-75177250I0J193750D01*
G01*
X148539000Y-74789750D01*
G75*
G02*
X148732750Y-74596000I193750J0D01*
G01*
X149195250Y-74596000D01*
G75*
G02*
X149389000Y-74789750I0J-193750D01*
G01*
X149389000Y-75177250D01*
G75*
G02*
X149195250Y-75371000I-193750J0D01*
G01*
G37*
G36*
G01*
X149195250Y-76946000D02*
X148732750Y-76946000D01*
G75*
G02*
X148539000Y-76752250I0J193750D01*
G01*
X148539000Y-76364750D01*
G75*
G02*
X148732750Y-76171000I193750J0D01*
G01*
X149195250Y-76171000D01*
G75*
G02*
X149389000Y-76364750I0J-193750D01*
G01*
X149389000Y-76752250D01*
G75*
G02*
X149195250Y-76946000I-193750J0D01*
G01*
G37*
G36*
G01*
X147798250Y-75359000D02*
X147335750Y-75359000D01*
G75*
G02*
X147142000Y-75165250I0J193750D01*
G01*
X147142000Y-74777750D01*
G75*
G02*
X147335750Y-74584000I193750J0D01*
G01*
X147798250Y-74584000D01*
G75*
G02*
X147992000Y-74777750I0J-193750D01*
G01*
X147992000Y-75165250D01*
G75*
G02*
X147798250Y-75359000I-193750J0D01*
G01*
G37*
G36*
G01*
X147798250Y-76934000D02*
X147335750Y-76934000D01*
G75*
G02*
X147142000Y-76740250I0J193750D01*
G01*
X147142000Y-76352750D01*
G75*
G02*
X147335750Y-76159000I193750J0D01*
G01*
X147798250Y-76159000D01*
G75*
G02*
X147992000Y-76352750I0J-193750D01*
G01*
X147992000Y-76740250D01*
G75*
G02*
X147798250Y-76934000I-193750J0D01*
G01*
G37*
G36*
G01*
X146020250Y-75371000D02*
X145557750Y-75371000D01*
G75*
G02*
X145364000Y-75177250I0J193750D01*
G01*
X145364000Y-74789750D01*
G75*
G02*
X145557750Y-74596000I193750J0D01*
G01*
X146020250Y-74596000D01*
G75*
G02*
X146214000Y-74789750I0J-193750D01*
G01*
X146214000Y-75177250D01*
G75*
G02*
X146020250Y-75371000I-193750J0D01*
G01*
G37*
G36*
G01*
X146020250Y-76946000D02*
X145557750Y-76946000D01*
G75*
G02*
X145364000Y-76752250I0J193750D01*
G01*
X145364000Y-76364750D01*
G75*
G02*
X145557750Y-76171000I193750J0D01*
G01*
X146020250Y-76171000D01*
G75*
G02*
X146214000Y-76364750I0J-193750D01*
G01*
X146214000Y-76752250D01*
G75*
G02*
X146020250Y-76946000I-193750J0D01*
G01*
G37*
G36*
G01*
X144623250Y-75371000D02*
X144160750Y-75371000D01*
G75*
G02*
X143967000Y-75177250I0J193750D01*
G01*
X143967000Y-74789750D01*
G75*
G02*
X144160750Y-74596000I193750J0D01*
G01*
X144623250Y-74596000D01*
G75*
G02*
X144817000Y-74789750I0J-193750D01*
G01*
X144817000Y-75177250D01*
G75*
G02*
X144623250Y-75371000I-193750J0D01*
G01*
G37*
G36*
G01*
X144623250Y-76946000D02*
X144160750Y-76946000D01*
G75*
G02*
X143967000Y-76752250I0J193750D01*
G01*
X143967000Y-76364750D01*
G75*
G02*
X144160750Y-76171000I193750J0D01*
G01*
X144623250Y-76171000D01*
G75*
G02*
X144817000Y-76364750I0J-193750D01*
G01*
X144817000Y-76752250D01*
G75*
G02*
X144623250Y-76946000I-193750J0D01*
G01*
G37*
G36*
G01*
X143226250Y-75371000D02*
X142763750Y-75371000D01*
G75*
G02*
X142570000Y-75177250I0J193750D01*
G01*
X142570000Y-74789750D01*
G75*
G02*
X142763750Y-74596000I193750J0D01*
G01*
X143226250Y-74596000D01*
G75*
G02*
X143420000Y-74789750I0J-193750D01*
G01*
X143420000Y-75177250D01*
G75*
G02*
X143226250Y-75371000I-193750J0D01*
G01*
G37*
G36*
G01*
X143226250Y-76946000D02*
X142763750Y-76946000D01*
G75*
G02*
X142570000Y-76752250I0J193750D01*
G01*
X142570000Y-76364750D01*
G75*
G02*
X142763750Y-76171000I193750J0D01*
G01*
X143226250Y-76171000D01*
G75*
G02*
X143420000Y-76364750I0J-193750D01*
G01*
X143420000Y-76752250D01*
G75*
G02*
X143226250Y-76946000I-193750J0D01*
G01*
G37*
G36*
G01*
X141829250Y-75371000D02*
X141366750Y-75371000D01*
G75*
G02*
X141173000Y-75177250I0J193750D01*
G01*
X141173000Y-74789750D01*
G75*
G02*
X141366750Y-74596000I193750J0D01*
G01*
X141829250Y-74596000D01*
G75*
G02*
X142023000Y-74789750I0J-193750D01*
G01*
X142023000Y-75177250D01*
G75*
G02*
X141829250Y-75371000I-193750J0D01*
G01*
G37*
G36*
G01*
X141829250Y-76946000D02*
X141366750Y-76946000D01*
G75*
G02*
X141173000Y-76752250I0J193750D01*
G01*
X141173000Y-76364750D01*
G75*
G02*
X141366750Y-76171000I193750J0D01*
G01*
X141829250Y-76171000D01*
G75*
G02*
X142023000Y-76364750I0J-193750D01*
G01*
X142023000Y-76752250D01*
G75*
G02*
X141829250Y-76946000I-193750J0D01*
G01*
G37*
G36*
G01*
X140432250Y-75371000D02*
X139969750Y-75371000D01*
G75*
G02*
X139776000Y-75177250I0J193750D01*
G01*
X139776000Y-74789750D01*
G75*
G02*
X139969750Y-74596000I193750J0D01*
G01*
X140432250Y-74596000D01*
G75*
G02*
X140626000Y-74789750I0J-193750D01*
G01*
X140626000Y-75177250D01*
G75*
G02*
X140432250Y-75371000I-193750J0D01*
G01*
G37*
G36*
G01*
X140432250Y-76946000D02*
X139969750Y-76946000D01*
G75*
G02*
X139776000Y-76752250I0J193750D01*
G01*
X139776000Y-76364750D01*
G75*
G02*
X139969750Y-76171000I193750J0D01*
G01*
X140432250Y-76171000D01*
G75*
G02*
X140626000Y-76364750I0J-193750D01*
G01*
X140626000Y-76752250D01*
G75*
G02*
X140432250Y-76946000I-193750J0D01*
G01*
G37*
G36*
G01*
X138974050Y-75363600D02*
X138511550Y-75363600D01*
G75*
G02*
X138317800Y-75169850I0J193750D01*
G01*
X138317800Y-74782350D01*
G75*
G02*
X138511550Y-74588600I193750J0D01*
G01*
X138974050Y-74588600D01*
G75*
G02*
X139167800Y-74782350I0J-193750D01*
G01*
X139167800Y-75169850D01*
G75*
G02*
X138974050Y-75363600I-193750J0D01*
G01*
G37*
G36*
G01*
X138974050Y-76938600D02*
X138511550Y-76938600D01*
G75*
G02*
X138317800Y-76744850I0J193750D01*
G01*
X138317800Y-76357350D01*
G75*
G02*
X138511550Y-76163600I193750J0D01*
G01*
X138974050Y-76163600D01*
G75*
G02*
X139167800Y-76357350I0J-193750D01*
G01*
X139167800Y-76744850D01*
G75*
G02*
X138974050Y-76938600I-193750J0D01*
G01*
G37*
G36*
G01*
X131031250Y-108300000D02*
X130568750Y-108300000D01*
G75*
G02*
X130375000Y-108106250I0J193750D01*
G01*
X130375000Y-107718750D01*
G75*
G02*
X130568750Y-107525000I193750J0D01*
G01*
X131031250Y-107525000D01*
G75*
G02*
X131225000Y-107718750I0J-193750D01*
G01*
X131225000Y-108106250D01*
G75*
G02*
X131031250Y-108300000I-193750J0D01*
G01*
G37*
G36*
G01*
X131031250Y-109875000D02*
X130568750Y-109875000D01*
G75*
G02*
X130375000Y-109681250I0J193750D01*
G01*
X130375000Y-109293750D01*
G75*
G02*
X130568750Y-109100000I193750J0D01*
G01*
X131031250Y-109100000D01*
G75*
G02*
X131225000Y-109293750I0J-193750D01*
G01*
X131225000Y-109681250D01*
G75*
G02*
X131031250Y-109875000I-193750J0D01*
G01*
G37*
G36*
G01*
X128068750Y-109100000D02*
X128531250Y-109100000D01*
G75*
G02*
X128725000Y-109293750I0J-193750D01*
G01*
X128725000Y-109681250D01*
G75*
G02*
X128531250Y-109875000I-193750J0D01*
G01*
X128068750Y-109875000D01*
G75*
G02*
X127875000Y-109681250I0J193750D01*
G01*
X127875000Y-109293750D01*
G75*
G02*
X128068750Y-109100000I193750J0D01*
G01*
G37*
G36*
G01*
X128068750Y-107525000D02*
X128531250Y-107525000D01*
G75*
G02*
X128725000Y-107718750I0J-193750D01*
G01*
X128725000Y-108106250D01*
G75*
G02*
X128531250Y-108300000I-193750J0D01*
G01*
X128068750Y-108300000D01*
G75*
G02*
X127875000Y-108106250I0J193750D01*
G01*
X127875000Y-107718750D01*
G75*
G02*
X128068750Y-107525000I193750J0D01*
G01*
G37*
G36*
G01*
X125568750Y-109100000D02*
X126031250Y-109100000D01*
G75*
G02*
X126225000Y-109293750I0J-193750D01*
G01*
X126225000Y-109681250D01*
G75*
G02*
X126031250Y-109875000I-193750J0D01*
G01*
X125568750Y-109875000D01*
G75*
G02*
X125375000Y-109681250I0J193750D01*
G01*
X125375000Y-109293750D01*
G75*
G02*
X125568750Y-109100000I193750J0D01*
G01*
G37*
G36*
G01*
X125568750Y-107525000D02*
X126031250Y-107525000D01*
G75*
G02*
X126225000Y-107718750I0J-193750D01*
G01*
X126225000Y-108106250D01*
G75*
G02*
X126031250Y-108300000I-193750J0D01*
G01*
X125568750Y-108300000D01*
G75*
G02*
X125375000Y-108106250I0J193750D01*
G01*
X125375000Y-107718750D01*
G75*
G02*
X125568750Y-107525000I193750J0D01*
G01*
G37*
G36*
G01*
X131231250Y-105000000D02*
X130368750Y-105000000D01*
G75*
G02*
X130150000Y-104781250I0J218750D01*
G01*
X130150000Y-104343750D01*
G75*
G02*
X130368750Y-104125000I218750J0D01*
G01*
X131231250Y-104125000D01*
G75*
G02*
X131450000Y-104343750I0J-218750D01*
G01*
X131450000Y-104781250D01*
G75*
G02*
X131231250Y-105000000I-218750J0D01*
G01*
G37*
G36*
G01*
X131231250Y-106875000D02*
X130368750Y-106875000D01*
G75*
G02*
X130150000Y-106656250I0J218750D01*
G01*
X130150000Y-106218750D01*
G75*
G02*
X130368750Y-106000000I218750J0D01*
G01*
X131231250Y-106000000D01*
G75*
G02*
X131450000Y-106218750I0J-218750D01*
G01*
X131450000Y-106656250D01*
G75*
G02*
X131231250Y-106875000I-218750J0D01*
G01*
G37*
G36*
G01*
X128731250Y-105000000D02*
X127868750Y-105000000D01*
G75*
G02*
X127650000Y-104781250I0J218750D01*
G01*
X127650000Y-104343750D01*
G75*
G02*
X127868750Y-104125000I218750J0D01*
G01*
X128731250Y-104125000D01*
G75*
G02*
X128950000Y-104343750I0J-218750D01*
G01*
X128950000Y-104781250D01*
G75*
G02*
X128731250Y-105000000I-218750J0D01*
G01*
G37*
G36*
G01*
X128731250Y-106875000D02*
X127868750Y-106875000D01*
G75*
G02*
X127650000Y-106656250I0J218750D01*
G01*
X127650000Y-106218750D01*
G75*
G02*
X127868750Y-106000000I218750J0D01*
G01*
X128731250Y-106000000D01*
G75*
G02*
X128950000Y-106218750I0J-218750D01*
G01*
X128950000Y-106656250D01*
G75*
G02*
X128731250Y-106875000I-218750J0D01*
G01*
G37*
G36*
G01*
X125368750Y-106000000D02*
X126231250Y-106000000D01*
G75*
G02*
X126450000Y-106218750I0J-218750D01*
G01*
X126450000Y-106656250D01*
G75*
G02*
X126231250Y-106875000I-218750J0D01*
G01*
X125368750Y-106875000D01*
G75*
G02*
X125150000Y-106656250I0J218750D01*
G01*
X125150000Y-106218750D01*
G75*
G02*
X125368750Y-106000000I218750J0D01*
G01*
G37*
G36*
G01*
X125368750Y-104125000D02*
X126231250Y-104125000D01*
G75*
G02*
X126450000Y-104343750I0J-218750D01*
G01*
X126450000Y-104781250D01*
G75*
G02*
X126231250Y-105000000I-218750J0D01*
G01*
X125368750Y-105000000D01*
G75*
G02*
X125150000Y-104781250I0J218750D01*
G01*
X125150000Y-104343750D01*
G75*
G02*
X125368750Y-104125000I218750J0D01*
G01*
G37*
G36*
G01*
X121001250Y-82102000D02*
X120538750Y-82102000D01*
G75*
G02*
X120345000Y-81908250I0J193750D01*
G01*
X120345000Y-81520750D01*
G75*
G02*
X120538750Y-81327000I193750J0D01*
G01*
X121001250Y-81327000D01*
G75*
G02*
X121195000Y-81520750I0J-193750D01*
G01*
X121195000Y-81908250D01*
G75*
G02*
X121001250Y-82102000I-193750J0D01*
G01*
G37*
G36*
G01*
X121001250Y-83677000D02*
X120538750Y-83677000D01*
G75*
G02*
X120345000Y-83483250I0J193750D01*
G01*
X120345000Y-83095750D01*
G75*
G02*
X120538750Y-82902000I193750J0D01*
G01*
X121001250Y-82902000D01*
G75*
G02*
X121195000Y-83095750I0J-193750D01*
G01*
X121195000Y-83483250D01*
G75*
G02*
X121001250Y-83677000I-193750J0D01*
G01*
G37*
G36*
G01*
X120338750Y-80099000D02*
X121201250Y-80099000D01*
G75*
G02*
X121420000Y-80317750I0J-218750D01*
G01*
X121420000Y-80755250D01*
G75*
G02*
X121201250Y-80974000I-218750J0D01*
G01*
X120338750Y-80974000D01*
G75*
G02*
X120120000Y-80755250I0J218750D01*
G01*
X120120000Y-80317750D01*
G75*
G02*
X120338750Y-80099000I218750J0D01*
G01*
G37*
G36*
G01*
X120338750Y-78224000D02*
X121201250Y-78224000D01*
G75*
G02*
X121420000Y-78442750I0J-218750D01*
G01*
X121420000Y-78880250D01*
G75*
G02*
X121201250Y-79099000I-218750J0D01*
G01*
X120338750Y-79099000D01*
G75*
G02*
X120120000Y-78880250I0J218750D01*
G01*
X120120000Y-78442750D01*
G75*
G02*
X120338750Y-78224000I218750J0D01*
G01*
G37*
G36*
G01*
X118461250Y-82102000D02*
X117998750Y-82102000D01*
G75*
G02*
X117805000Y-81908250I0J193750D01*
G01*
X117805000Y-81520750D01*
G75*
G02*
X117998750Y-81327000I193750J0D01*
G01*
X118461250Y-81327000D01*
G75*
G02*
X118655000Y-81520750I0J-193750D01*
G01*
X118655000Y-81908250D01*
G75*
G02*
X118461250Y-82102000I-193750J0D01*
G01*
G37*
G36*
G01*
X118461250Y-83677000D02*
X117998750Y-83677000D01*
G75*
G02*
X117805000Y-83483250I0J193750D01*
G01*
X117805000Y-83095750D01*
G75*
G02*
X117998750Y-82902000I193750J0D01*
G01*
X118461250Y-82902000D01*
G75*
G02*
X118655000Y-83095750I0J-193750D01*
G01*
X118655000Y-83483250D01*
G75*
G02*
X118461250Y-83677000I-193750J0D01*
G01*
G37*
G36*
G01*
X117798750Y-80099000D02*
X118661250Y-80099000D01*
G75*
G02*
X118880000Y-80317750I0J-218750D01*
G01*
X118880000Y-80755250D01*
G75*
G02*
X118661250Y-80974000I-218750J0D01*
G01*
X117798750Y-80974000D01*
G75*
G02*
X117580000Y-80755250I0J218750D01*
G01*
X117580000Y-80317750D01*
G75*
G02*
X117798750Y-80099000I218750J0D01*
G01*
G37*
G36*
G01*
X117798750Y-78224000D02*
X118661250Y-78224000D01*
G75*
G02*
X118880000Y-78442750I0J-218750D01*
G01*
X118880000Y-78880250D01*
G75*
G02*
X118661250Y-79099000I-218750J0D01*
G01*
X117798750Y-79099000D01*
G75*
G02*
X117580000Y-78880250I0J218750D01*
G01*
X117580000Y-78442750D01*
G75*
G02*
X117798750Y-78224000I218750J0D01*
G01*
G37*
G36*
G01*
X115921250Y-82102000D02*
X115458750Y-82102000D01*
G75*
G02*
X115265000Y-81908250I0J193750D01*
G01*
X115265000Y-81520750D01*
G75*
G02*
X115458750Y-81327000I193750J0D01*
G01*
X115921250Y-81327000D01*
G75*
G02*
X116115000Y-81520750I0J-193750D01*
G01*
X116115000Y-81908250D01*
G75*
G02*
X115921250Y-82102000I-193750J0D01*
G01*
G37*
G36*
G01*
X115921250Y-83677000D02*
X115458750Y-83677000D01*
G75*
G02*
X115265000Y-83483250I0J193750D01*
G01*
X115265000Y-83095750D01*
G75*
G02*
X115458750Y-82902000I193750J0D01*
G01*
X115921250Y-82902000D01*
G75*
G02*
X116115000Y-83095750I0J-193750D01*
G01*
X116115000Y-83483250D01*
G75*
G02*
X115921250Y-83677000I-193750J0D01*
G01*
G37*
G36*
G01*
X115258750Y-80099000D02*
X116121250Y-80099000D01*
G75*
G02*
X116340000Y-80317750I0J-218750D01*
G01*
X116340000Y-80755250D01*
G75*
G02*
X116121250Y-80974000I-218750J0D01*
G01*
X115258750Y-80974000D01*
G75*
G02*
X115040000Y-80755250I0J218750D01*
G01*
X115040000Y-80317750D01*
G75*
G02*
X115258750Y-80099000I218750J0D01*
G01*
G37*
G36*
G01*
X115258750Y-78224000D02*
X116121250Y-78224000D01*
G75*
G02*
X116340000Y-78442750I0J-218750D01*
G01*
X116340000Y-78880250D01*
G75*
G02*
X116121250Y-79099000I-218750J0D01*
G01*
X115258750Y-79099000D01*
G75*
G02*
X115040000Y-78880250I0J218750D01*
G01*
X115040000Y-78442750D01*
G75*
G02*
X115258750Y-78224000I218750J0D01*
G01*
G37*
G36*
G01*
X113381250Y-82102000D02*
X112918750Y-82102000D01*
G75*
G02*
X112725000Y-81908250I0J193750D01*
G01*
X112725000Y-81520750D01*
G75*
G02*
X112918750Y-81327000I193750J0D01*
G01*
X113381250Y-81327000D01*
G75*
G02*
X113575000Y-81520750I0J-193750D01*
G01*
X113575000Y-81908250D01*
G75*
G02*
X113381250Y-82102000I-193750J0D01*
G01*
G37*
G36*
G01*
X113381250Y-83677000D02*
X112918750Y-83677000D01*
G75*
G02*
X112725000Y-83483250I0J193750D01*
G01*
X112725000Y-83095750D01*
G75*
G02*
X112918750Y-82902000I193750J0D01*
G01*
X113381250Y-82902000D01*
G75*
G02*
X113575000Y-83095750I0J-193750D01*
G01*
X113575000Y-83483250D01*
G75*
G02*
X113381250Y-83677000I-193750J0D01*
G01*
G37*
G36*
G01*
X112718750Y-80099000D02*
X113581250Y-80099000D01*
G75*
G02*
X113800000Y-80317750I0J-218750D01*
G01*
X113800000Y-80755250D01*
G75*
G02*
X113581250Y-80974000I-218750J0D01*
G01*
X112718750Y-80974000D01*
G75*
G02*
X112500000Y-80755250I0J218750D01*
G01*
X112500000Y-80317750D01*
G75*
G02*
X112718750Y-80099000I218750J0D01*
G01*
G37*
G36*
G01*
X112718750Y-78224000D02*
X113581250Y-78224000D01*
G75*
G02*
X113800000Y-78442750I0J-218750D01*
G01*
X113800000Y-78880250D01*
G75*
G02*
X113581250Y-79099000I-218750J0D01*
G01*
X112718750Y-79099000D01*
G75*
G02*
X112500000Y-78880250I0J218750D01*
G01*
X112500000Y-78442750D01*
G75*
G02*
X112718750Y-78224000I218750J0D01*
G01*
G37*
G36*
G01*
X110841250Y-82102000D02*
X110378750Y-82102000D01*
G75*
G02*
X110185000Y-81908250I0J193750D01*
G01*
X110185000Y-81520750D01*
G75*
G02*
X110378750Y-81327000I193750J0D01*
G01*
X110841250Y-81327000D01*
G75*
G02*
X111035000Y-81520750I0J-193750D01*
G01*
X111035000Y-81908250D01*
G75*
G02*
X110841250Y-82102000I-193750J0D01*
G01*
G37*
G36*
G01*
X110841250Y-83677000D02*
X110378750Y-83677000D01*
G75*
G02*
X110185000Y-83483250I0J193750D01*
G01*
X110185000Y-83095750D01*
G75*
G02*
X110378750Y-82902000I193750J0D01*
G01*
X110841250Y-82902000D01*
G75*
G02*
X111035000Y-83095750I0J-193750D01*
G01*
X111035000Y-83483250D01*
G75*
G02*
X110841250Y-83677000I-193750J0D01*
G01*
G37*
G36*
G01*
X110178750Y-80099000D02*
X111041250Y-80099000D01*
G75*
G02*
X111260000Y-80317750I0J-218750D01*
G01*
X111260000Y-80755250D01*
G75*
G02*
X111041250Y-80974000I-218750J0D01*
G01*
X110178750Y-80974000D01*
G75*
G02*
X109960000Y-80755250I0J218750D01*
G01*
X109960000Y-80317750D01*
G75*
G02*
X110178750Y-80099000I218750J0D01*
G01*
G37*
G36*
G01*
X110178750Y-78224000D02*
X111041250Y-78224000D01*
G75*
G02*
X111260000Y-78442750I0J-218750D01*
G01*
X111260000Y-78880250D01*
G75*
G02*
X111041250Y-79099000I-218750J0D01*
G01*
X110178750Y-79099000D01*
G75*
G02*
X109960000Y-78880250I0J218750D01*
G01*
X109960000Y-78442750D01*
G75*
G02*
X110178750Y-78224000I218750J0D01*
G01*
G37*
G36*
G01*
X108301250Y-82102000D02*
X107838750Y-82102000D01*
G75*
G02*
X107645000Y-81908250I0J193750D01*
G01*
X107645000Y-81520750D01*
G75*
G02*
X107838750Y-81327000I193750J0D01*
G01*
X108301250Y-81327000D01*
G75*
G02*
X108495000Y-81520750I0J-193750D01*
G01*
X108495000Y-81908250D01*
G75*
G02*
X108301250Y-82102000I-193750J0D01*
G01*
G37*
G36*
G01*
X108301250Y-83677000D02*
X107838750Y-83677000D01*
G75*
G02*
X107645000Y-83483250I0J193750D01*
G01*
X107645000Y-83095750D01*
G75*
G02*
X107838750Y-82902000I193750J0D01*
G01*
X108301250Y-82902000D01*
G75*
G02*
X108495000Y-83095750I0J-193750D01*
G01*
X108495000Y-83483250D01*
G75*
G02*
X108301250Y-83677000I-193750J0D01*
G01*
G37*
G36*
G01*
X107638750Y-80099000D02*
X108501250Y-80099000D01*
G75*
G02*
X108720000Y-80317750I0J-218750D01*
G01*
X108720000Y-80755250D01*
G75*
G02*
X108501250Y-80974000I-218750J0D01*
G01*
X107638750Y-80974000D01*
G75*
G02*
X107420000Y-80755250I0J218750D01*
G01*
X107420000Y-80317750D01*
G75*
G02*
X107638750Y-80099000I218750J0D01*
G01*
G37*
G36*
G01*
X107638750Y-78224000D02*
X108501250Y-78224000D01*
G75*
G02*
X108720000Y-78442750I0J-218750D01*
G01*
X108720000Y-78880250D01*
G75*
G02*
X108501250Y-79099000I-218750J0D01*
G01*
X107638750Y-79099000D01*
G75*
G02*
X107420000Y-78880250I0J218750D01*
G01*
X107420000Y-78442750D01*
G75*
G02*
X107638750Y-78224000I218750J0D01*
G01*
G37*
G36*
G01*
X105761250Y-82102000D02*
X105298750Y-82102000D01*
G75*
G02*
X105105000Y-81908250I0J193750D01*
G01*
X105105000Y-81520750D01*
G75*
G02*
X105298750Y-81327000I193750J0D01*
G01*
X105761250Y-81327000D01*
G75*
G02*
X105955000Y-81520750I0J-193750D01*
G01*
X105955000Y-81908250D01*
G75*
G02*
X105761250Y-82102000I-193750J0D01*
G01*
G37*
G36*
G01*
X105761250Y-83677000D02*
X105298750Y-83677000D01*
G75*
G02*
X105105000Y-83483250I0J193750D01*
G01*
X105105000Y-83095750D01*
G75*
G02*
X105298750Y-82902000I193750J0D01*
G01*
X105761250Y-82902000D01*
G75*
G02*
X105955000Y-83095750I0J-193750D01*
G01*
X105955000Y-83483250D01*
G75*
G02*
X105761250Y-83677000I-193750J0D01*
G01*
G37*
G36*
G01*
X105113750Y-80099000D02*
X105976250Y-80099000D01*
G75*
G02*
X106195000Y-80317750I0J-218750D01*
G01*
X106195000Y-80755250D01*
G75*
G02*
X105976250Y-80974000I-218750J0D01*
G01*
X105113750Y-80974000D01*
G75*
G02*
X104895000Y-80755250I0J218750D01*
G01*
X104895000Y-80317750D01*
G75*
G02*
X105113750Y-80099000I218750J0D01*
G01*
G37*
G36*
G01*
X105113750Y-78224000D02*
X105976250Y-78224000D01*
G75*
G02*
X106195000Y-78442750I0J-218750D01*
G01*
X106195000Y-78880250D01*
G75*
G02*
X105976250Y-79099000I-218750J0D01*
G01*
X105113750Y-79099000D01*
G75*
G02*
X104895000Y-78880250I0J218750D01*
G01*
X104895000Y-78442750D01*
G75*
G02*
X105113750Y-78224000I218750J0D01*
G01*
G37*
G36*
G01*
X103221250Y-82102000D02*
X102758750Y-82102000D01*
G75*
G02*
X102565000Y-81908250I0J193750D01*
G01*
X102565000Y-81520750D01*
G75*
G02*
X102758750Y-81327000I193750J0D01*
G01*
X103221250Y-81327000D01*
G75*
G02*
X103415000Y-81520750I0J-193750D01*
G01*
X103415000Y-81908250D01*
G75*
G02*
X103221250Y-82102000I-193750J0D01*
G01*
G37*
G36*
G01*
X103221250Y-83677000D02*
X102758750Y-83677000D01*
G75*
G02*
X102565000Y-83483250I0J193750D01*
G01*
X102565000Y-83095750D01*
G75*
G02*
X102758750Y-82902000I193750J0D01*
G01*
X103221250Y-82902000D01*
G75*
G02*
X103415000Y-83095750I0J-193750D01*
G01*
X103415000Y-83483250D01*
G75*
G02*
X103221250Y-83677000I-193750J0D01*
G01*
G37*
G36*
G01*
X102558750Y-80099000D02*
X103421250Y-80099000D01*
G75*
G02*
X103640000Y-80317750I0J-218750D01*
G01*
X103640000Y-80755250D01*
G75*
G02*
X103421250Y-80974000I-218750J0D01*
G01*
X102558750Y-80974000D01*
G75*
G02*
X102340000Y-80755250I0J218750D01*
G01*
X102340000Y-80317750D01*
G75*
G02*
X102558750Y-80099000I218750J0D01*
G01*
G37*
G36*
G01*
X102558750Y-78224000D02*
X103421250Y-78224000D01*
G75*
G02*
X103640000Y-78442750I0J-218750D01*
G01*
X103640000Y-78880250D01*
G75*
G02*
X103421250Y-79099000I-218750J0D01*
G01*
X102558750Y-79099000D01*
G75*
G02*
X102340000Y-78880250I0J218750D01*
G01*
X102340000Y-78442750D01*
G75*
G02*
X102558750Y-78224000I218750J0D01*
G01*
G37*
G36*
G01*
X173198250Y-96707000D02*
X172735750Y-96707000D01*
G75*
G02*
X172542000Y-96513250I0J193750D01*
G01*
X172542000Y-96125750D01*
G75*
G02*
X172735750Y-95932000I193750J0D01*
G01*
X173198250Y-95932000D01*
G75*
G02*
X173392000Y-96125750I0J-193750D01*
G01*
X173392000Y-96513250D01*
G75*
G02*
X173198250Y-96707000I-193750J0D01*
G01*
G37*
G36*
G01*
X173198250Y-98282000D02*
X172735750Y-98282000D01*
G75*
G02*
X172542000Y-98088250I0J193750D01*
G01*
X172542000Y-97700750D01*
G75*
G02*
X172735750Y-97507000I193750J0D01*
G01*
X173198250Y-97507000D01*
G75*
G02*
X173392000Y-97700750I0J-193750D01*
G01*
X173392000Y-98088250D01*
G75*
G02*
X173198250Y-98282000I-193750J0D01*
G01*
G37*
D28*
X131531500Y-69566000D03*
X129596500Y-69566000D03*
X133279500Y-69566000D03*
X135214500Y-69566000D03*
D29*
X175550000Y-71870000D03*
X175550000Y-76370000D03*
X167590000Y-76370000D03*
X167590000Y-71870000D03*
X109510000Y-91610000D03*
X109510000Y-87110000D03*
X101550000Y-87110000D03*
X101550000Y-91610000D03*
X112980000Y-91610000D03*
X112980000Y-87110000D03*
X120940000Y-87110000D03*
X120940000Y-91610000D03*
X164120000Y-101770000D03*
X164120000Y-97270000D03*
X156160000Y-97270000D03*
X156160000Y-101770000D03*
X164120000Y-106160000D03*
X164120000Y-110660000D03*
X156160000Y-110660000D03*
X156160000Y-106160000D03*
X144730000Y-106160000D03*
X144730000Y-110660000D03*
X152690000Y-110660000D03*
X152690000Y-106160000D03*
X175550000Y-106160000D03*
X175550000Y-110660000D03*
X167590000Y-110660000D03*
X167590000Y-106160000D03*
G36*
G01*
X172735750Y-102155000D02*
X173198250Y-102155000D01*
G75*
G02*
X173392000Y-102348750I0J-193750D01*
G01*
X173392000Y-102736250D01*
G75*
G02*
X173198250Y-102930000I-193750J0D01*
G01*
X172735750Y-102930000D01*
G75*
G02*
X172542000Y-102736250I0J193750D01*
G01*
X172542000Y-102348750D01*
G75*
G02*
X172735750Y-102155000I193750J0D01*
G01*
G37*
G36*
G01*
X172735750Y-103730000D02*
X173198250Y-103730000D01*
G75*
G02*
X173392000Y-103923750I0J-193750D01*
G01*
X173392000Y-104311250D01*
G75*
G02*
X173198250Y-104505000I-193750J0D01*
G01*
X172735750Y-104505000D01*
G75*
G02*
X172542000Y-104311250I0J193750D01*
G01*
X172542000Y-103923750D01*
G75*
G02*
X172735750Y-103730000I193750J0D01*
G01*
G37*
G36*
G01*
X150611000Y-75296000D02*
X150111000Y-75296000D01*
G75*
G02*
X149936000Y-75121000I0J175000D01*
G01*
X149936000Y-74771000D01*
G75*
G02*
X150111000Y-74596000I175000J0D01*
G01*
X150611000Y-74596000D01*
G75*
G02*
X150786000Y-74771000I0J-175000D01*
G01*
X150786000Y-75121000D01*
G75*
G02*
X150611000Y-75296000I-175000J0D01*
G01*
G37*
G36*
G01*
X150611000Y-76946000D02*
X150111000Y-76946000D01*
G75*
G02*
X149936000Y-76771000I0J175000D01*
G01*
X149936000Y-76421000D01*
G75*
G02*
X150111000Y-76246000I175000J0D01*
G01*
X150611000Y-76246000D01*
G75*
G02*
X150786000Y-76421000I0J-175000D01*
G01*
X150786000Y-76771000D01*
G75*
G02*
X150611000Y-76946000I-175000J0D01*
G01*
G37*
G36*
G01*
X152008000Y-76946000D02*
X151508000Y-76946000D01*
G75*
G02*
X151333000Y-76771000I0J175000D01*
G01*
X151333000Y-76421000D01*
G75*
G02*
X151508000Y-76246000I175000J0D01*
G01*
X152008000Y-76246000D01*
G75*
G02*
X152183000Y-76421000I0J-175000D01*
G01*
X152183000Y-76771000D01*
G75*
G02*
X152008000Y-76946000I-175000J0D01*
G01*
G37*
G36*
G01*
X152008000Y-75296000D02*
X151508000Y-75296000D01*
G75*
G02*
X151333000Y-75121000I0J175000D01*
G01*
X151333000Y-74771000D01*
G75*
G02*
X151508000Y-74596000I175000J0D01*
G01*
X152008000Y-74596000D01*
G75*
G02*
X152183000Y-74771000I0J-175000D01*
G01*
X152183000Y-75121000D01*
G75*
G02*
X152008000Y-75296000I-175000J0D01*
G01*
G37*
M02*
